g Beard_thin
v -0.2054031 0.05845912 0.03291008
v -0.1981698 0.03780526 0.02229938
v -0.2082447 0.05068476 0.02090902
v 0.2053684 0.05856405 0.03301425
v 0.208259 0.05081866 0.02103889
v 0.1982152 0.03792169 0.02242641
v 0.1636986 0.05855655 0.01105059
v 0.1108901 -0.005738335 0.03584778
v 0.1982152 0.03792169 0.02242641
v -0.1486551 0.3153568 0.0211025
v -0.1863113 0.3183845 0.01111529
v -0.1549646 0.3191823 -0.03185306
v -0.1956632 0.3113608 -0.0002798457
v -0.2060967 0.3012734 -0.04586254
v -0.2273635 0.2293893 0.01577336
v -0.221402 0.2397799 0.02224689
v -0.2271081 0.1858181 -0.02073266
v -0.2168415 0.209145 -0.0941503
v -0.207577 0.2780866 -0.08332995
v -0.1626242 0.2985161 -0.1061144
v -0.1830333 0.2136376 -0.09437054
v -0.2168415 0.209145 -0.0941503
v -0.1830333 0.2136376 -0.09437054
v -0.2168415 0.209145 -0.0941503
v -0.1980568 0.1901747 -0.01998093
v -0.1626242 0.2985161 -0.1061144
v -0.1549646 0.3191823 -0.03185306
v -0.1991908 0.2426778 0.02292804
v -0.1486551 0.3153568 0.0211025
v -0.1637274 0.05844885 0.01095861
v -0.1942441 0.1210409 0.04377521
v -0.1980568 0.1901747 -0.01998093
v -0.1991908 0.2426778 0.02292804
v -0.201391 0.1194048 0.05797546
v -0.221402 0.2397799 0.02224689
v -0.1991908 0.2426778 0.02292804
v -0.201391 0.1194048 0.05797546
v -0.2273635 0.2293893 0.01577336
v -0.2077865 0.1049091 0.05272138
v -0.1484244 0.04708716 0.1012527
v -0.2077865 0.1049091 0.05272138
v -0.201391 0.1194048 0.05797546
v -0.1499768 0.0312244 0.1124318
v -0.2054031 0.05845912 0.03291008
v -0.1968414 0.0263357 0.04040531
v -0.1981698 0.03780526 0.02229938
v -0.1421205 -0.03665837 0.07742096
v -0.06527526 -0.01610977 0.1257101
v -0.06822588 -0.07375561 0.1030932
v 0.0004047922 -0.08938338 0.1005295
v 0.0004029282 -0.02984503 0.1269722
v 0.000402751 -0.01484887 0.1134702
v -0.06776842 -0.001604147 0.1213809
v 0.000402958 -0.02661752 0.08614216
v -0.07014451 -0.004773951 0.09838438
v -0.1453451 0.04796071 0.08814009
v -0.201391 0.1194048 0.05797546
v -0.1942441 0.1210409 0.04377521
v -0.1637274 0.05844885 0.01095861
v -0.1107929 -0.005682154 0.03590496
v -0.07014451 -0.004773951 0.09838438
v -0.05153045 -0.03864833 0.06064623
v 0.0003339759 -0.03940197 0.05884802
v 0.000402958 -0.02661752 0.08614216
v -0.221402 0.2397799 0.02224689
v -0.1956632 0.3113608 -0.0002798457
v -0.1863113 0.3183845 0.01111529
v -0.1991908 0.2426778 0.02292804
v -0.1486551 0.3153568 0.0211025
v -0.2273635 0.2293893 0.01577336
v -0.2077865 0.1049091 0.05272138
v -0.2271081 0.1858181 -0.02073266
v -0.2054031 0.05845912 0.03291008
v -0.2082447 0.05068476 0.02090902
v -0.1980568 0.1901747 -0.01998093
v -0.2271081 0.1858181 -0.02073266
v -0.1637274 0.05844885 0.01095861
v -0.2082447 0.05068476 0.02090902
v -0.1981698 0.03780526 0.02229938
v 0.1486483 0.3154264 0.02112416
v 0.154931 0.3192587 -0.03183848
v 0.1862444 0.3184746 0.01114108
v 0.195559 0.3114601 -0.0002534584
v 0.2059738 0.3013825 -0.04584425
v 0.2271587 0.2295245 0.01582539
v 0.2212148 0.2399082 0.02229691
v 0.2269523 0.1859629 -0.02068514
v 0.216738 0.2092735 -0.09414046
v 0.2075336 0.2781914 -0.08332083
v 0.1626618 0.2985919 -0.1061122
v 0.1830068 0.2137427 -0.09436267
v 0.216738 0.2092735 -0.09414046
v 0.216738 0.2092735 -0.09414046
v 0.1830068 0.2137427 -0.09436267
v 0.1979823 0.1902957 -0.01994149
v 0.1626618 0.2985919 -0.1061122
v 0.154931 0.3192587 -0.03183848
v 0.1990889 0.2427879 0.02297082
v 0.1486483 0.3154264 0.02112416
v 0.1636986 0.05855655 0.01105059
v 0.1979823 0.1902957 -0.01994149
v 0.1942087 0.1211516 0.0438556
v 0.1990889 0.2427879 0.02297082
v 0.2013265 0.1195155 0.05806349
v 0.2212148 0.2399082 0.02229691
v 0.1990889 0.2427879 0.02297082
v 0.2013265 0.1195155 0.05806349
v 0.2271587 0.2295245 0.01582539
v 0.2077101 0.1050242 0.05281725
v 0.1485536 0.04713128 0.1013223
v 0.2013265 0.1195155 0.05806349
v 0.2077101 0.1050242 0.05281725
v 0.1500905 0.03125649 0.1124929
v 0.2053684 0.05856405 0.03301425
v 0.1968727 0.02643055 0.04053512
v 0.1982152 0.03792169 0.02242641
v 0.1422168 -0.03672883 0.07736107
v 0.06575371 -0.01610889 0.1257133
v 0.06868637 -0.07375562 0.1030807
v 0.0004047922 -0.08938338 0.1005295
v 0.0004029282 -0.02984503 0.1269722
v 0.000402751 -0.01484887 0.1134702
v 0.06823765 -0.001583676 0.1214051
v 0.000402958 -0.02661752 0.08614216
v 0.07059965 -0.004772324 0.09838877
v 0.1454918 0.0480083 0.08821023
v 0.2013265 0.1195155 0.05806349
v 0.1942087 0.1211516 0.0438556
v 0.1636986 0.05855655 0.01105059
v 0.1108901 -0.005738335 0.03584778
v 0.07059965 -0.004772324 0.09838877
v 0.05192972 -0.03865362 0.06062344
v 0.0003339759 -0.03940197 0.05884802
v 0.000402958 -0.02661752 0.08614216
v 0.2212148 0.2399082 0.02229691
v 0.1862444 0.3184746 0.01114108
v 0.195559 0.3114601 -0.0002534584
v 0.1990889 0.2427879 0.02297082
v 0.1486483 0.3154264 0.02112416
v 0.2271587 0.2295245 0.01582539
v 0.2269523 0.1859629 -0.02068514
v 0.2077101 0.1050242 0.05281725
v 0.2053684 0.05856405 0.03301425
v 0.208259 0.05081866 0.02103889
v 0.1979823 0.1902957 -0.01994149
v 0.1636986 0.05855655 0.01105059
v 0.2269523 0.1859629 -0.02068514
v 0.208259 0.05081866 0.02103889
v 0.1982152 0.03792169 0.02242641
v -0.1637274 0.05844885 0.01095861
v -0.1981698 0.03780526 0.02229938
v -0.1107929 -0.005682154 0.03590496
v -0.1968414 0.0263357 0.04040531
v -0.1421205 -0.03665837 0.07742096
v -0.05153045 -0.03864833 0.06064623
v -0.06822588 -0.07375561 0.1030932
v 0.0004047922 -0.08938338 0.1005295
v 0.0003339759 -0.03940197 0.05884802
v 0.0004047922 -0.08938338 0.1005295
v 0.06868637 -0.07375562 0.1030807
v 0.0003339759 -0.03940197 0.05884802
v 0.05192972 -0.03865362 0.06062344
v 0.1422168 -0.03672883 0.07736107
v 0.1108901 -0.005738335 0.03584778
v 0.1968727 0.02643055 0.04053512
v 0.1982152 0.03792169 0.02242641
vt 0.3012673 0.65431
vt 0.3241159 0.6489925
vt 0.3012673 0.6489926
vt 0.3012673 0.65431
vt 0.3012673 0.6489926
vt 0.3241159 0.6489925
vt 0.3012673 0.6489926
vt 0.2884675 0.7556576
vt 0.3241159 0.6489925
vt 0.3652663 0.6703256
vt 0.3210588 0.6703256
vt 0.3652663 0.6489926
vt 0.3012673 0.6668512
vt 0.3012673 0.6489926
vt 0.3012673 0.6669475
vt 0.323075 0.6703256
vt 0.3012673 0.6489926
vt 0.3012673 0.6489926
vt 0.3012673 0.6489926
vt 0.3652663 0.6489926
vt 0.3652663 0.6489926
vt 0.3012673 0.6489926
vt 0.3652663 0.6489926
vt 0.3012673 0.6489926
vt 0.3652663 0.6489926
vt 0.3652663 0.6489926
vt 0.3652663 0.6489926
vt 0.3652663 0.6703256
vt 0.3652663 0.6703256
vt 0.1732692 0.6489926
vt 0.2372682 0.6489926
vt 0.1732692 0.6489926
vt 0.2372682 0.6489926
vt 0.2372682 0.6606439
vt 0.2372682 0.6630564
vt 0.2372682 0.6489926
vt 0.2372682 0.6606439
vt 0.2372682 0.6682799
vt 0.2241766 0.6703256
vt 0.2884675 0.7017595
vt 0.3012673 0.6659617
vt 0.3012673 0.6993703
vt 0.2884675 0.6662141
vt 0.3012673 0.65431
vt 0.2995136 0.6489926
vt 0.3241159 0.6489925
vt 0.2884675 0.6489926
vt 0.2756677 0.6672878
vt 0.2756677 0.6489926
vt 0.2689967 0.6489926
vt 0.2689929 0.6672835
vt 0.2689824 0.6931555
vt 0.2756677 0.6931232
vt 0.2689647 0.7343246
vt 0.2756677 0.7343246
vt 0.2884675 0.7343246
vt 0.3012673 0.6993703
vt 0.3012673 0.7343246
vt 0.3012673 0.7556576
vt 0.2884675 0.7556576
vt 0.2756677 0.7343246
vt 0.2756677 0.7556576
vt 0.2689701 0.7556576
vt 0.2689647 0.7343246
vt 0.323075 0.6703256
vt 0.3012673 0.6668512
vt 0.3210588 0.6703256
vt 0.3652663 0.6703256
vt 0.3652663 0.6703256
vt 0.227134 0.6703256
vt 0.2241766 0.6703256
vt 0.1732692 0.6703256
vt 0.1892214 0.6703256
vt 0.1732692 0.6703256
vt 0.3012673 0.6489926
vt 0.3012673 0.6703256
vt 0.3012673 0.6489926
vt 0.3012673 0.6703255
vt 0.3012673 0.6627094
vt 0.3652663 0.6703256
vt 0.3652663 0.6489926
vt 0.3210588 0.6703256
vt 0.3012673 0.6668512
vt 0.3012673 0.6489926
vt 0.3012673 0.6669475
vt 0.323075 0.6703256
vt 0.3012673 0.6489926
vt 0.3012673 0.6489926
vt 0.3012673 0.6489926
vt 0.3652663 0.6489926
vt 0.3652663 0.6489926
vt 0.3012673 0.6489926
vt 0.3012673 0.6489926
vt 0.3652663 0.6489926
vt 0.3652663 0.6489926
vt 0.3652663 0.6489926
vt 0.3652663 0.6489926
vt 0.3652663 0.6703256
vt 0.3652663 0.6703256
vt 0.1732692 0.6489926
vt 0.1732692 0.6489926
vt 0.2372682 0.6489926
vt 0.2372682 0.6489926
vt 0.2372682 0.6606439
vt 0.2372682 0.6630564
vt 0.2372682 0.6489926
vt 0.2372682 0.6606439
vt 0.2372682 0.6682799
vt 0.2241766 0.6703256
vt 0.2884675 0.7017595
vt 0.3012673 0.6993703
vt 0.3012673 0.6659617
vt 0.2884675 0.6662141
vt 0.3012673 0.65431
vt 0.2995136 0.6489926
vt 0.3241159 0.6489925
vt 0.2884675 0.6489926
vt 0.2756677 0.6672878
vt 0.2756677 0.6489926
vt 0.2689967 0.6489926
vt 0.2689929 0.6672835
vt 0.2689824 0.6931555
vt 0.2756677 0.6931232
vt 0.2689647 0.7343246
vt 0.2756677 0.7343246
vt 0.2884675 0.7343246
vt 0.3012673 0.6993703
vt 0.3012673 0.7343246
vt 0.3012673 0.7556576
vt 0.2884675 0.7556576
vt 0.2756677 0.7343246
vt 0.2756677 0.7556576
vt 0.2689701 0.7556576
vt 0.2689647 0.7343246
vt 0.323075 0.6703256
vt 0.3210588 0.6703256
vt 0.3012673 0.6668512
vt 0.3652663 0.6703256
vt 0.3652663 0.6703256
vt 0.227134 0.6703256
vt 0.1732692 0.6703256
vt 0.2241766 0.6703256
vt 0.1892214 0.6703256
vt 0.1732692 0.6703256
vt 0.3012673 0.6489926
vt 0.3012673 0.6489926
vt 0.3012673 0.6703256
vt 0.3012673 0.6703255
vt 0.3012673 0.6627094
vt 0.3012673 0.7556576
vt 0.3012673 0.6627094
vt 0.2884675 0.7556576
vt 0.2995136 0.6489926
vt 0.2884675 0.6489926
vt 0.2756677 0.7556576
vt 0.2756677 0.6489926
vt 0.2689967 0.6489926
vt 0.2689701 0.7556576
vt 0.2689967 0.6489926
vt 0.2756677 0.6489926
vt 0.2689701 0.7556576
vt 0.2756677 0.7556576
vt 0.2884675 0.6489926
vt 0.2884675 0.7556576
vt 0.2995136 0.6489926
vt 0.3241159 0.6489925
vn -0.9153754 -0.004835665 0.4025723
vn -0.6809368 -0.3342229 -0.6516288
vn -0.5024631 -0.3492795 -0.7909075
vn 0.9160646 -0.004872705 0.4010012
vn 0.503019 -0.3490655 -0.7906486
vn 0.6820779 -0.3332938 -0.6509109
vn 0.136436 -0.6153446 -0.7763608
vn 0.191843 -0.7758555 -0.6010363
vn 0.2238567 -0.7285088 -0.6474282
vn 0.1593695 0.9858171 0.05259261
vn -0.2613718 0.6460682 0.7171336
vn -0.2166781 0.9576793 -0.1894758
vn -0.772768 0.6289053 0.08548576
vn -0.8356705 0.5228542 -0.1681612
vn -0.9930143 0.09737831 0.06663274
vn -0.3242719 0.2495726 0.912448
vn -0.939033 -0.1630423 -0.3027116
vn -0.9842016 0.1590137 -0.07785853
vn -0.7055273 0.428233 -0.564666
vn -0.5447934 0.6015618 -0.5842291
vn -0.2274558 0.08002234 -0.9704949
vn -0.01661968 0.1630943 -0.9864705
vn 0.9001943 -0.4339418 0.0366678
vn 0.001818981 -0.9558428 -0.2938728
vn 0.9465002 -0.2847815 -0.1517792
vn 0.9595824 -0.2812459 0.01011811
vn 0.9342968 -0.3560472 0.0178903
vn 0.9532538 -0.2241196 0.2026758
vn 0.8127446 -0.5675077 -0.1318385
vn 0.9007757 0.4342835 0.001035063
vn 0.9239267 0.326027 0.2001645
vn 0.9465002 -0.2847815 -0.1517792
vn 0.9532538 -0.2241196 0.2026758
vn 0.7769139 0.4785218 0.409172
vn -0.3242719 0.2495726 0.912448
vn -0.02192559 0.1703403 0.9851414
vn -0.6426679 0.1549058 0.7503213
vn -0.9930143 0.09737831 0.06663274
vn -0.925379 -0.01222754 0.3788458
vn 0.3419802 0.8037784 0.486816
vn -0.925379 -0.01222754 0.3788458
vn -0.6426679 0.1549058 0.7503213
vn -0.5735953 0.03854636 0.8182314
vn -0.9153754 -0.004835665 0.4025723
vn -0.8369485 0.06688108 0.5431795
vn -0.6809368 -0.3342229 -0.6516288
vn -0.5958458 -0.1296674 0.7925618
vn -0.2490962 0.0228372 0.9682094
vn -0.2566845 -0.04237628 0.9655658
vn -7.46059E-05 -0.1055496 0.994414
vn 3.362193E-05 0.08752657 0.9961622
vn -8.322311E-05 0.9973053 0.07336329
vn 0.3067653 0.8948958 0.3241244
vn -9.353159E-05 0.9313506 -0.3641238
vn 0.4411678 0.8844987 -0.1517672
vn 0.7758581 0.6195484 -0.1191808
vn 0.7769139 0.4785218 0.409172
vn 0.9239267 0.326027 0.2001645
vn 0.9007757 0.4342835 0.001035063
vn 0.7347136 0.6193464 -0.276778
vn 0.5343374 0.690511 -0.4875225
vn 0.3500023 0.681195 -0.6430177
vn 0.0004494991 0.7981469 -0.6024626
vn -0.0004294042 0.8785466 -0.4776566
vn -0.3242719 0.2495726 0.912448
vn -0.772768 0.6289053 0.08548576
vn -0.2613718 0.6460682 0.7171336
vn -0.02192559 0.1703403 0.9851414
vn -0.2039885 0.1732629 0.9635189
vn -0.9930143 0.09737831 0.06663274
vn -0.925379 -0.01222754 0.3788458
vn -0.939033 -0.1630423 -0.3027116
vn -0.9153754 -0.004835665 0.4025723
vn -0.5024631 -0.3492795 -0.7909075
vn 0.9465002 -0.2847815 -0.1517792
vn -0.939033 -0.1630423 -0.3027116
vn -0.247293 -0.3536023 -0.902115
vn -0.5024631 -0.3492795 -0.7909075
vn -0.6809368 -0.3342229 -0.6516288
vn -0.1596951 0.9857618 0.05264215
vn 0.2171654 0.9576125 -0.189255
vn 0.2620553 0.6461665 0.7167956
vn 0.7739962 0.6274301 0.08521313
vn 0.8364905 0.5217756 -0.1674333
vn 0.9930438 0.09701707 0.06672166
vn 0.3253085 0.2493916 0.9121283
vn 0.9395147 -0.1625455 -0.3014818
vn 0.9843937 0.1582842 -0.07691127
vn 0.7072943 0.4274415 -0.5630528
vn 0.5457497 0.6012166 -0.5836916
vn 0.2278536 0.0799242 -0.9704096
vn 0.01667495 0.163069 -0.9864738
vn -0.001825107 -0.955838 -0.2938883
vn -0.9008183 -0.4326719 0.03635236
vn -0.9469235 -0.2836954 -0.1511713
vn -0.9597818 -0.2805944 0.009259037
vn -0.9345976 -0.3552866 0.01728081
vn -0.9534655 -0.2236492 0.2021991
vn -0.8135385 -0.5664673 -0.1314145
vn -0.9010743 0.4336563 0.00269864
vn -0.9469235 -0.2836954 -0.1511713
vn -0.9241177 0.3254448 0.2002306
vn -0.9534655 -0.2236492 0.2021991
vn -0.7782912 0.4773352 0.4079387
vn 0.3253085 0.2493916 0.9121283
vn 0.02199174 0.1703272 0.9851422
vn 0.6444867 0.1546104 0.7488207
vn 0.9930438 0.09701707 0.06672166
vn 0.9259664 -0.01218431 0.3774095
vn -0.3434111 0.8034557 0.4863414
vn 0.6444867 0.1546104 0.7488207
vn 0.9259664 -0.01218431 0.3774095
vn 0.5756859 0.038167 0.8167797
vn 0.9160646 -0.004872705 0.4010012
vn 0.8381328 0.06623491 0.5414298
vn 0.6820779 -0.3332938 -0.6509109
vn 0.597753 -0.1296392 0.791129
vn 0.2507482 0.02239446 0.9677933
vn 0.2578999 -0.04235417 0.9652429
vn -7.46059E-05 -0.1055496 0.994414
vn 3.362193E-05 0.08752657 0.9961622
vn -8.322311E-05 0.9973053 0.07336329
vn -0.3080113 0.8943755 0.3243786
vn -9.353159E-05 0.9313506 -0.3641238
vn -0.4428134 0.8836181 -0.1521029
vn -0.7771605 0.6182047 -0.1176626
vn -0.7782912 0.4773352 0.4079387
vn -0.9241177 0.3254448 0.2002306
vn -0.9010743 0.4336563 0.00269864
vn -0.7363524 0.6184084 -0.2745106
vn -0.5365351 0.6904191 -0.4852333
vn -0.3513022 0.6816738 -0.6418003
vn 0.0004494991 0.7981469 -0.6024626
vn -0.0004294042 0.8785466 -0.4776566
vn 0.3253085 0.2493916 0.9121283
vn 0.2620553 0.6461665 0.7167956
vn 0.7739962 0.6274301 0.08521313
vn 0.02199174 0.1703272 0.9851422
vn 0.2044264 0.1731682 0.9634432
vn 0.9930438 0.09701707 0.06672166
vn 0.9395147 -0.1625455 -0.3014818
vn 0.9259664 -0.01218431 0.3774095
vn 0.9160646 -0.004872705 0.4010012
vn 0.503019 -0.3490655 -0.7906486
vn -0.9469235 -0.2836954 -0.1511713
vn 0.2478382 -0.3535827 -0.9019731
vn 0.9395147 -0.1625455 -0.3014818
vn 0.503019 -0.3490655 -0.7906486
vn 0.6820779 -0.3332938 -0.6509109
vn -0.1357523 -0.61624 -0.7757702
vn -0.2228985 -0.7293568 -0.6468036
vn -0.1912404 -0.776365 -0.6005701
vn -0.3090469 -0.7773846 -0.5478715
vn -0.1822416 -0.7833569 -0.5942557
vn -0.097708 -0.7797775 -0.6183852
vn -0.1367746 -0.777278 -0.6141104
vn 0.0338882 -0.7259683 -0.6868927
vn 0.04948802 -0.7233447 -0.6887113
vn 0.0338882 -0.7259683 -0.6868927
vn 0.107421 -0.7584239 -0.6428483
vn 0.04948802 -0.7233447 -0.6887113
vn 0.0668929 -0.8089409 -0.5840719
vn 0.1823211 -0.783134 -0.5945252
vn 0.191843 -0.7758555 -0.6010363
vn 0.3104877 -0.7765522 -0.5482373
vn 0.2238567 -0.7285088 -0.6474282
g Beard_thin_0
f 3/3/3 2/2/2 1/1/1
f 6/6/6 5/5/5 4/4/4
f 9/9/9 8/8/8 7/7/7
f 12/12/12 11/11/11 10/10/10
f 13/13/13 11/11/11 12/12/12
f 13/13/13 12/12/12 14/14/14
f 13/13/13 14/14/14 15/15/15
f 16/16/16 13/13/13 15/15/15
f 15/15/15 14/14/14 17/17/17
f 18/18/18 17/17/17 14/14/14
f 19/19/19 18/18/18 14/14/14
f 19/19/19 14/14/14 12/12/12
f 20/20/20 19/19/19 12/12/12
f 20/20/20 21/21/21 19/19/19
f 19/19/19 21/21/21 22/22/22
f 24/24/24 23/23/23 17/17/17
f 23/23/23 25/25/25 17/17/17
f 23/23/23 26/26/26 25/25/25
f 26/26/26 27/27/27 25/25/25
f 27/27/27 28/28/28 25/25/25
f 29/29/29 28/28/28 27/27/27
f 32/32/32 31/31/31 30/30/30
f 33/33/33 31/31/31 32/32/32
f 31/31/31 35/35/35 34/34/34
f 36/36/36 35/35/35 31/31/31
f 35/35/35 38/38/38 37/37/37
f 37/37/37 38/38/38 39/39/39
f 42/42/42 41/41/41 40/40/40
f 40/40/40 41/41/41 43/43/43
f 44/44/44 43/43/43 41/41/41
f 43/43/43 44/44/44 45/45/45
f 44/44/44 46/46/46 45/45/45
f 43/43/43 45/45/45 47/47/47
f 43/43/43 47/47/47 48/48/48
f 48/48/48 47/47/47 49/49/49
f 49/49/49 50/50/50 48/48/48
f 48/48/48 50/50/50 51/51/51
f 52/52/52 48/48/48 51/51/51
f 43/43/43 48/48/48 53/53/53
f 53/53/53 48/48/48 52/52/52
f 40/40/40 43/43/43 53/53/53
f 54/54/54 53/53/53 52/52/52
f 55/55/55 53/53/53 54/54/54
f 55/55/55 40/40/40 53/53/53
f 56/56/56 40/40/40 55/55/55
f 56/56/56 57/57/57 40/40/40
f 58/58/58 57/57/57 56/56/56
f 56/56/56 59/59/59 58/58/58
f 60/60/60 59/59/59 56/56/56
f 61/61/61 60/60/60 56/56/56
f 62/62/62 60/60/60 61/61/61
f 62/62/62 61/61/61 63/63/63
f 63/63/63 61/61/61 64/64/64
f 67/67/67 66/66/66 65/65/65
f 68/68/68 67/67/67 65/65/65
f 69/69/69 67/67/67 68/68/68
f 72/72/72 71/71/71 70/70/70
f 72/72/72 73/73/73 71/71/71
f 72/72/72 74/74/74 73/73/73
f 77/77/77 76/76/76 75/75/75
f 76/76/76 77/77/77 78/78/78
f 78/78/78 77/77/77 79/79/79
f 82/82/82 81/81/81 80/80/80
f 82/82/82 83/83/83 81/81/81
f 81/81/81 83/83/83 84/84/84
f 84/84/84 83/83/83 85/85/85
f 83/83/83 86/86/86 85/85/85
f 84/84/84 85/85/85 87/87/87
f 87/87/87 88/88/88 84/84/84
f 88/88/88 89/89/89 84/84/84
f 84/84/84 89/89/89 81/81/81
f 89/89/89 90/90/90 81/81/81
f 91/91/91 90/90/90 89/89/89
f 91/91/91 89/89/89 92/92/92
f 94/94/94 93/93/93 87/87/87
f 95/95/95 94/94/94 87/87/87
f 96/96/96 94/94/94 95/95/95
f 97/97/97 96/96/96 95/95/95
f 98/98/98 97/97/97 95/95/95
f 98/98/98 99/99/99 97/97/97
f 102/102/102 101/101/101 100/100/100
f 102/102/102 103/103/103 101/101/101
f 105/105/105 102/102/102 104/104/104
f 105/105/105 106/106/106 102/102/102
f 108/108/108 105/105/105 107/107/107
f 108/108/108 107/107/107 109/109/109
f 112/112/112 111/111/111 110/110/110
f 112/112/112 110/110/110 113/113/113
f 113/113/113 114/114/114 112/112/112
f 114/114/114 113/113/113 115/115/115
f 116/116/116 114/114/114 115/115/115
f 115/115/115 113/113/113 117/117/117
f 117/117/117 113/113/113 118/118/118
f 117/117/117 118/118/118 119/119/119
f 120/120/120 119/119/119 118/118/118
f 120/120/120 118/118/118 121/121/121
f 118/118/118 122/122/122 121/121/121
f 118/118/118 113/113/113 123/123/123
f 118/118/118 123/123/123 122/122/122
f 113/113/113 110/110/110 123/123/123
f 123/123/123 124/124/124 122/122/122
f 123/123/123 125/125/125 124/124/124
f 110/110/110 125/125/125 123/123/123
f 110/110/110 126/126/126 125/125/125
f 127/127/127 126/126/126 110/110/110
f 127/127/127 128/128/128 126/126/126
f 129/129/129 126/126/126 128/128/128
f 129/129/129 130/130/130 126/126/126
f 130/130/130 131/131/131 126/126/126
f 130/130/130 132/132/132 131/131/131
f 131/131/131 132/132/132 133/133/133
f 131/131/131 133/133/133 134/134/134
f 137/137/137 136/136/136 135/135/135
f 136/136/136 138/138/138 135/135/135
f 136/136/136 139/139/139 138/138/138
f 142/142/142 141/141/141 140/140/140
f 143/143/143 141/141/141 142/142/142
f 144/144/144 141/141/141 143/143/143
f 147/147/147 146/146/146 145/145/145
f 146/146/146 147/147/147 148/148/148
f 146/146/146 148/148/148 149/149/149
f 152/152/152 151/151/151 150/150/150
f 152/152/152 153/153/153 151/151/151
f 152/152/152 154/154/154 153/153/153
f 155/155/155 154/154/154 152/152/152
f 155/155/155 156/156/156 154/154/154
f 155/155/155 157/157/157 156/156/156
f 158/158/158 157/157/157 155/155/155
f 161/161/161 160/160/160 159/159/159
f 162/162/162 160/160/160 161/161/161
f 162/162/162 163/163/163 160/160/160
f 164/164/164 163/163/163 162/162/162
f 164/164/164 165/165/165 163/163/163
f 166/166/166 165/165/165 164/164/164
