g Beard_thin_alt
v -0.1246016 0.02072346 0.01468095
v -0.1687011 0.08067164 0.005509151
v -0.1541937 0.1185761 -0.005642766
v 0.1249129 0.02072346 0.01468095
v 0.1543272 0.1185761 -0.005642766
v 0.1687989 0.08067164 0.005509151
v 0.1371271 0.02719333 -0.02319717
v 0.1022149 -0.04145433 -0.02381698
v 0.1603936 0.004975405 0.001839181
v 0.182401 0.1948195 -0.06005761
v 0.182624 0.2078986 -0.03717924
v 0.1584338 0.211997 -0.03023294
v 0.182624 0.2078986 -0.03717924
v 0.1775512 0.2116372 -0.03013701
v 0.1584338 0.211997 -0.03023294
v -0.1370137 0.02719333 -0.02319717
v -0.1246016 0.02072346 0.01468095
v -0.1541937 0.1185761 -0.005642766
v -0.1019317 -0.04140632 -0.023772
v -0.1177615 0.0275526 0.05043577
v -0.07660205 -0.05579378 -0.005535716
v -0.1505948 0.06748482 0.03701282
v -0.1687011 0.08067164 0.005509151
v -0.1324884 0.054298 0.06851648
v -0.06410676 -0.02239079 0.07205311
v -0.05127245 -0.07018124 0.01270057
v 0.000393149 -0.07864748 0.01269404
v 0.0004629919 -0.04096486 0.06842015
v -0.06166405 -0.01962121 0.09387523
v 0.0004629859 -0.03097781 0.09027664
v -0.1211572 0.04572466 0.06993598
v -0.06082383 -0.03208033 0.1028741
v 0.0004630207 -0.04446378 0.108653
v -0.1304073 0.02868169 0.08421823
v -0.1546881 0.04215543 0.06068957
v -0.1324884 0.054298 0.06851648
v -0.1384074 -0.01878618 0.04592006
v -0.1041191 -0.03749318 0.06406824
v -0.06082383 -0.03208033 0.1028741
v -0.06983074 -0.05620017 0.0822164
v 0.0004643954 -0.07319453 0.0847349
v 0.0004630207 -0.04446378 0.108653
v -0.1589968 0.005797453 0.01313053
v -0.1663882 0.0315719 0.00140092
v -0.1603334 0.004975405 0.001839181
v -0.1627453 0.02593187 -0.008511933
v -0.175657 0.06936991 0.001869555
v -0.1687011 0.08067164 0.005509151
v -0.1505948 0.06748482 0.03701282
v -0.1541937 0.1185761 -0.005642766
v -0.1619553 0.1370638 -0.0529945
v -0.1370137 0.02719333 -0.02319717
v -0.163774 0.1741427 -0.0290089
v -0.1583161 0.211997 -0.03023294
v -0.1565581 0.1953814 -0.0602074
v -0.1619553 0.1370638 -0.0529945
v -0.1889198 0.165347 -0.03442514
v -0.1687011 0.08067164 0.005509151
v -0.175657 0.06936991 0.001869555
v -0.1836467 0.1739231 -0.02869525
v -0.1541937 0.1185761 -0.005642766
v -0.163774 0.1741427 -0.0290089
v -0.1583161 0.211997 -0.03023294
v -0.1775265 0.2116372 -0.03013701
v -0.182624 0.2078986 -0.03717924
v -0.1886698 0.1367209 -0.05250476
v -0.1823822 0.1948195 -0.06005761
v -0.1889198 0.165347 -0.03442514
v -0.175657 0.06936991 0.001869555
v -0.1663882 0.0315719 0.00140092
v -0.1627453 0.02593187 -0.008511933
v -0.1619553 0.1370638 -0.0529945
v -0.1823822 0.1948195 -0.06005761
v -0.1565581 0.1953814 -0.0602074
v -0.1583161 0.211997 -0.03023294
v -0.1886698 0.1367209 -0.05250476
v -0.1370137 0.02719333 -0.02319717
v -0.1627453 0.02593187 -0.008511933
v -0.1603334 0.004975405 0.001839181
v 0.1249129 0.02072346 0.01468095
v 0.1371271 0.02719333 -0.02319717
v 0.1543272 0.1185761 -0.005642766
v 0.1022149 -0.04145433 -0.02381698
v 0.07700784 -0.05581779 -0.005558208
v 0.1182219 0.0275526 0.05043577
v 0.1507909 0.06748482 0.03701282
v 0.1687989 0.08067164 0.005509151
v 0.1327828 0.054298 0.06851648
v 0.0647107 -0.02239079 0.07205311
v 0.05180078 -0.07018124 0.01270057
v 0.000393149 -0.07864748 0.01269404
v 0.0004629919 -0.04096486 0.06842015
v 0.06227981 -0.01960609 0.09388626
v 0.0004629859 -0.03097781 0.09027664
v 0.1216145 0.04573222 0.06994148
v 0.06144365 -0.03208033 0.1028741
v 0.0004630207 -0.04446378 0.108653
v 0.1308535 0.02868169 0.08421823
v 0.1549608 0.04215543 0.06068957
v 0.1327828 0.054298 0.06851648
v 0.1386518 -0.01885481 0.04586997
v 0.1045294 -0.03752749 0.06404319
v 0.06144365 -0.03208033 0.1028741
v 0.07040698 -0.05620017 0.0822164
v 0.0004643954 -0.07319453 0.0847349
v 0.0004630207 -0.04446378 0.108653
v 0.1590499 0.005797453 0.01313053
v 0.1664367 0.0315719 0.00140092
v 0.1603936 0.004975405 0.001839181
v 0.162772 0.02593187 -0.008511933
v 0.1757212 0.06936991 0.001869555
v 0.1687989 0.08067164 0.005509151
v 0.1507909 0.06748482 0.03701282
v 0.1620858 0.1370638 -0.0529945
v 0.1543272 0.1185761 -0.005642766
v 0.1371271 0.02719333 -0.02319717
v 0.1638957 0.1741427 -0.0290089
v 0.1584338 0.211997 -0.03023294
v 0.1566842 0.1953814 -0.0602074
v 0.1687989 0.08067164 0.005509151
v 0.1889198 0.165347 -0.03442514
v 0.1757212 0.06936991 0.001869555
v 0.1836722 0.1739231 -0.02869525
v 0.1543272 0.1185761 -0.005642766
v 0.1638957 0.1741427 -0.0290089
v 0.1775512 0.2116372 -0.03013701
v 0.1584338 0.211997 -0.03023294
v 0.182624 0.2078986 -0.03717924
v 0.1889198 0.165347 -0.03442514
v 0.182401 0.1948195 -0.06005761
v 0.1886892 0.1367209 -0.05250476
v 0.1886892 0.1367209 -0.05250476
v 0.1757212 0.06936991 0.001869555
v 0.1664367 0.0315719 0.00140092
v 0.162772 0.02593187 -0.008511933
v 0.1371271 0.02719333 -0.02319717
v 0.1620858 0.1370638 -0.0529945
v 0.162772 0.02593187 -0.008511933
v 0.1603936 0.004975405 0.001839181
v 0.1566842 0.1953814 -0.0602074
v 0.1620858 0.1370638 -0.0529945
v 0.182401 0.1948195 -0.06005761
v 0.1584338 0.211997 -0.03023294
v -0.1370137 0.02719333 -0.02319717
v -0.1603334 0.004975405 0.001839181
v -0.1019317 -0.04140632 -0.023772
v -0.1589968 0.005797453 0.01313053
v -0.1384074 -0.01878618 0.04592006
v -0.07660205 -0.05579378 -0.005535716
v -0.1041191 -0.03749318 0.06406824
v -0.05127245 -0.07018124 0.01270057
v -0.06983074 -0.05620017 0.0822164
v 0.0004643954 -0.07319453 0.0847349
v 0.000393149 -0.07864748 0.01269404
v 0.07040698 -0.05620017 0.0822164
v 0.000393149 -0.07864748 0.01269404
v 0.0004643954 -0.07319453 0.0847349
v 0.05180078 -0.07018124 0.01270057
v 0.1045294 -0.03752749 0.06404319
v 0.07700784 -0.05581779 -0.005558208
v 0.1386518 -0.01885481 0.04586997
v 0.1022149 -0.04145433 -0.02381698
v 0.1590499 0.005797453 0.01313053
v 0.1603936 0.004975405 0.001839181
v -0.1583161 0.211997 -0.03023294
v -0.182624 0.2078986 -0.03717924
v -0.1823822 0.1948195 -0.06005761
v -0.1775265 0.2116372 -0.03013701
vt 0.2885742 0.734375
vt 0.3012695 0.6992188
vt 0.3012695 0.734375
vt 0.2885742 0.734375
vt 0.3012695 0.734375
vt 0.3012695 0.6992188
vt 0.3012695 0.6489258
vt 0.2885742 0.7558594
vt 0.3242188 0.6489258
vt 0.3012695 0.6704102
vt 0.2271729 0.6704102
vt 0.2373047 0.6489258
vt 0.2271729 0.6704102
vt 0.2373047 0.6630859
vt 0.2373047 0.6489258
vt 0.3012695 0.7558594
vt 0.2885742 0.734375
vt 0.3012695 0.734375
vt 0.2885742 0.7558594
vt 0.2819824 0.734375
vt 0.2819824 0.7558594
vt 0.2949219 0.7006836
vt 0.3012695 0.6992188
vt 0.2885742 0.7016602
vt 0.2756348 0.734375
vt 0.2756348 0.7558594
vt 0.269043 0.7558594
vt 0.269043 0.734375
vt 0.2756348 0.6933594
vt 0.269043 0.6933594
vt 0.2819824 0.6972656
vt 0.2756348 0.6674805
vt 0.269043 0.6674805
vt 0.2819824 0.6669922
vt 0.2885742 0.6660156
vt 0.2885742 0.7016602
vt 0.2885742 0.6489258
vt 0.2819824 0.6489258
vt 0.2756348 0.6674805
vt 0.2756348 0.6489258
vt 0.269043 0.6489258
vt 0.269043 0.6674805
vt 0.2995605 0.6489258
vt 0.3012695 0.6542969
vt 0.3242188 0.6489258
vt 0.3012695 0.6489258
vt 0.3012695 0.6660156
vt 0.3012695 0.6992188
vt 0.2949219 0.7006836
vt 0.2373047 0.6489258
vt 0.1732178 0.6489258
vt 0.1732178 0.6489258
vt 0.2373047 0.6489258
vt 0.2373047 0.6489258
vt 0.3012695 0.6489258
vt 0.3012695 0.6489258
vt 0.2373047 0.668457
vt 0.2373047 0.6606445
vt 0.2241211 0.6704102
vt 0.2373047 0.6630859
vt 0.2373047 0.6489258
vt 0.2373047 0.6489258
vt 0.2373047 0.6489258
vt 0.2373047 0.6630859
vt 0.2373047 0.668457
vt 0.1732178 0.6704102
vt 0.1732178 0.6704102
vt 0.2271729 0.6704102
vt 0.2241211 0.6704102
vt 0.189209 0.6704102
vt 0.1732178 0.6704102
vt 0.3012695 0.6489258
vt 0.1732178 0.6704102
vt 0.3012695 0.6489258
vt 0.2373047 0.6489258
vt 0.3012695 0.6704102
vt 0.3012695 0.6489258
vt 0.3012695 0.6704102
vt 0.3012695 0.6625977
vt 0.2885742 0.734375
vt 0.3012695 0.7558594
vt 0.3012695 0.734375
vt 0.2885742 0.7558594
vt 0.2819824 0.7558594
vt 0.2819824 0.734375
vt 0.2949219 0.7006836
vt 0.3012695 0.6992188
vt 0.2885742 0.7016602
vt 0.2756348 0.734375
vt 0.2756348 0.7558594
vt 0.269043 0.7558594
vt 0.269043 0.734375
vt 0.2756348 0.6933594
vt 0.269043 0.6933594
vt 0.2819824 0.6972656
vt 0.2756348 0.6674805
vt 0.269043 0.6674805
vt 0.2819824 0.6669922
vt 0.2885742 0.6660156
vt 0.2885742 0.7016602
vt 0.2885742 0.6489258
vt 0.2819824 0.6489258
vt 0.2756348 0.6674805
vt 0.2756348 0.6489258
vt 0.269043 0.6489258
vt 0.269043 0.6674805
vt 0.2995605 0.6489258
vt 0.3012695 0.6542969
vt 0.3242188 0.6489258
vt 0.3012695 0.6489258
vt 0.3012695 0.6660156
vt 0.3012695 0.6992188
vt 0.2949219 0.7006836
vt 0.1732178 0.6489258
vt 0.2373047 0.6489258
vt 0.1732178 0.6489258
vt 0.2373047 0.6489258
vt 0.2373047 0.6489258
vt 0.1732178 0.6489258
vt 0.2373047 0.6606445
vt 0.2373047 0.668457
vt 0.2241211 0.6704102
vt 0.2373047 0.6630859
vt 0.2373047 0.6489258
vt 0.2373047 0.6489258
vt 0.2373047 0.6630859
vt 0.2373047 0.6489258
vt 0.2271729 0.6704102
vt 0.2271729 0.6704102
vt 0.3012695 0.6704102
vt 0.3012695 0.6704102
vt 0.1732178 0.6704102
vt 0.2241211 0.6704102
vt 0.189209 0.6704102
vt 0.1732178 0.6704102
vt 0.3012695 0.6489258
vt 0.3012695 0.6489258
vt 0.3012695 0.6704102
vt 0.3012695 0.6625977
vt 0.1732178 0.6489258
vt 0.1732178 0.6489258
vt 0.3012695 0.6704102
vt 0.2373047 0.6489258
vt 0.3012695 0.7558594
vt 0.3012695 0.6625977
vt 0.2885742 0.7558594
vt 0.2995605 0.6489258
vt 0.2885742 0.6489258
vt 0.2819824 0.7558594
vt 0.2819824 0.6489258
vt 0.2756348 0.7558594
vt 0.2756348 0.6489258
vt 0.269043 0.6489258
vt 0.269043 0.7558594
vt 0.2756348 0.6489258
vt 0.269043 0.7558594
vt 0.269043 0.6489258
vt 0.2756348 0.7558594
vt 0.2819824 0.6489258
vt 0.2819824 0.7558594
vt 0.2885742 0.6489258
vt 0.2885742 0.7558594
vt 0.2995605 0.6489258
vt 0.3242188 0.6489258
vt 0.2373047 0.6489258
vt 0.2373047 0.668457
vt 0.1732178 0.6704102
vt 0.2373047 0.6630859
vn 0.1217041 0.2369385 0.9638672
vn -0.3671875 0.2424316 0.8979492
vn -0.05700684 0.3076172 0.949707
vn -0.1221924 0.2369385 0.9638672
vn 0.05743408 0.3078613 0.949707
vn 0.3684082 0.2421875 0.8974609
vn 0.3491211 -0.3430176 -0.8720703
vn 0.5717773 -0.8154297 -0.0916748
vn 0.7192383 -0.6137695 -0.3254395
vn 0.01374054 0.2474365 -0.96875
vn 0.01502228 0.8730469 -0.4873047
vn 0.01502228 0.8730469 -0.4873047
vn 0.01502228 0.8730469 -0.4873047
vn 0.01502228 0.8730469 -0.4873047
vn 0.01502228 0.8730469 -0.4873047
vn 0.9257813 0.3056641 -0.2229004
vn 0.840332 0.4587402 -0.2890625
vn 0.9741211 0.1951904 -0.1124878
vn 0.7929688 0.5078125 -0.3369141
vn 0.7402344 0.5917969 -0.3186035
vn 0.7070313 0.6005859 -0.3730469
vn 0.784668 0.5668945 -0.2512207
vn 0.7944336 0.5571289 -0.2419434
vn 0.7436523 0.6040039 -0.2871094
vn 0.5151367 0.7416992 -0.4291992
vn 0.4433594 0.7431641 -0.5009766
vn 0.0001446009 0.8120117 -0.5839844
vn -0.0001145601 0.8515625 -0.5244141
vn 0.3669434 0.8398438 0.4001465
vn -0.0001043677 0.9882813 0.1536865
vn 0.5786133 0.7602539 0.295166
vn 0.1824951 0.6621094 0.7270508
vn -6.556511E-07 0.7275391 0.6860352
vn -0.4545898 -0.1036987 0.8847656
vn -0.8339844 -0.09283447 0.5439453
vn -0.4233398 0.5688477 0.7050781
vn -0.7172852 -0.6386719 0.2788086
vn -0.5966797 -0.7109375 0.3718262
vn -0.40625 -0.5249023 0.7480469
vn -0.4084473 -0.8139648 0.4133301
vn 7.361174E-05 -0.9365234 0.3508301
vn 2.127886E-05 -0.6254883 0.7802734
vn -0.8500977 -0.5141602 0.1142578
vn -0.9624023 -0.2580566 0.08709717
vn -0.7172852 -0.6166992 -0.3244629
vn -0.5893555 -0.380127 -0.7128906
vn -0.9814453 -0.1323242 0.1401367
vn -0.3671875 0.2424316 0.8979492
vn -0.7709961 0.2924805 0.5654297
vn 0.9741211 0.1951904 -0.1124878
vn 0.9873047 0.1452637 -0.06427002
vn 0.9257813 0.3056641 -0.2229004
vn 0.9985352 0.0357666 0.03878784
vn 0.9819336 -0.09667969 0.161377
vn 0.9819336 -0.09667969 0.161377
vn 0.9873047 0.1452637 -0.06427002
vn -0.9697266 0.08874512 0.2275391
vn -0.3671875 0.2424316 0.8979492
vn -0.9814453 -0.1323242 0.1401367
vn -0.4345703 0.1921387 0.8798828
vn -0.05700684 0.3076172 0.949707
vn 0.01026154 0.1958008 0.9804688
vn 0.009971619 0.03372192 0.9995117
vn -0.1889648 0.06591797 0.9799805
vn -0.9863281 0.1326904 0.09741211
vn -0.6206055 -0.2641602 -0.7382813
vn -0.9858398 0.1105347 -0.1243896
vn -0.9697266 0.08874512 0.2275391
vn -0.9814453 -0.1323242 0.1401367
vn -0.9624023 -0.2580566 0.08709717
vn -0.5893555 -0.380127 -0.7128906
vn -0.1772461 -0.2895508 -0.9404297
vn -0.0136795 0.2476807 -0.96875
vn -0.01394653 0.2824707 -0.9589844
vn -0.01495361 0.8730469 -0.4873047
vn -0.6206055 -0.2641602 -0.7382813
vn -0.3479004 -0.3432617 -0.8725586
vn -0.5893555 -0.380127 -0.7128906
vn -0.7172852 -0.6166992 -0.3244629
vn -0.8417969 0.4577637 -0.2858887
vn -0.9267578 0.3046875 -0.2193604
vn -0.9746094 0.1950684 -0.1118164
vn -0.7944336 0.5068359 -0.3339844
vn -0.7084961 0.6000977 -0.3713379
vn -0.7416992 0.590332 -0.3178711
vn -0.7866211 0.5649414 -0.2498779
vn -0.7963867 0.5551758 -0.2399902
vn -0.7451172 0.6015625 -0.2885742
vn -0.5170898 0.7412109 -0.4277344
vn -0.4450684 0.7431641 -0.4997559
vn 0.0001446009 0.8120117 -0.5839844
vn -0.0001145601 0.8515625 -0.5244141
vn -0.3681641 0.8388672 0.4013672
vn -0.0001043677 0.9882813 0.1536865
vn -0.5791016 0.7592773 0.2966309
vn -0.1829834 0.6616211 0.7275391
vn -6.556511E-07 0.7275391 0.6860352
vn 0.456543 -0.104126 0.8837891
vn 0.8359375 -0.09307861 0.5410156
vn 0.4250488 0.5698242 0.703125
vn 0.71875 -0.6381836 0.2766113
vn 0.5981445 -0.7104492 0.3706055
vn 0.4082031 -0.5244141 0.7470703
vn 0.409668 -0.8134766 0.4128418
vn 7.361174E-05 -0.9365234 0.3508301
vn 2.127886E-05 -0.6254883 0.7802734
vn 0.8510742 -0.5126953 0.1116333
vn 0.9624023 -0.2583008 0.08435059
vn 0.7192383 -0.6137695 -0.3254395
vn 0.590332 -0.3798828 -0.7124023
vn 0.9814453 -0.1328125 0.1378174
vn 0.3684082 0.2421875 0.8974609
vn 0.7724609 0.291748 0.5639648
vn -0.9873047 0.1452637 -0.06420898
vn -0.9746094 0.1950684 -0.1118164
vn -0.9267578 0.3046875 -0.2193604
vn -0.9985352 0.03573608 0.03872681
vn -0.9819336 -0.09680176 0.1611328
vn -0.9819336 -0.09680176 0.1611328
vn 0.3684082 0.2421875 0.8974609
vn 0.9697266 0.08868408 0.2266846
vn 0.9814453 -0.1328125 0.1378174
vn 0.4360352 0.1922607 0.8789063
vn 0.05743408 0.3078613 0.949707
vn -0.01030731 0.1958008 0.9804688
vn 0.1898193 0.06604004 0.9794922
vn -0.01002502 0.03372192 0.9995117
vn 0.9863281 0.1326904 0.09692383
vn 0.9697266 0.08868408 0.2266846
vn 0.9863281 0.1106567 -0.1235962
vn 0.6225586 -0.263916 -0.7368164
vn 0.6225586 -0.263916 -0.7368164
vn 0.9814453 -0.1328125 0.1378174
vn 0.9624023 -0.2583008 0.08435059
vn 0.590332 -0.3798828 -0.7124023
vn 0.3491211 -0.3430176 -0.8720703
vn 0.1779785 -0.2897949 -0.9404297
vn 0.590332 -0.3798828 -0.7124023
vn 0.7192383 -0.6137695 -0.3254395
vn 0.01400757 0.2824707 -0.9589844
vn 0.1779785 -0.2897949 -0.9404297
vn 0.01374054 0.2474365 -0.96875
vn 0.01502228 0.8730469 -0.4873047
vn -0.3479004 -0.3432617 -0.8725586
vn -0.7172852 -0.6166992 -0.3244629
vn -0.5703125 -0.8164063 -0.09069824
vn -0.8500977 -0.5141602 0.1142578
vn -0.7172852 -0.6386719 0.2788086
vn -0.4990234 -0.8662109 0.03001404
vn -0.5966797 -0.7109375 0.3718262
vn -0.3239746 -0.9428711 0.07983398
vn -0.4084473 -0.8139648 0.4133301
vn 7.361174E-05 -0.9365234 0.3508301
vn -0.0001354218 -0.9941406 0.1088867
vn 0.409668 -0.8134766 0.4128418
vn -0.0001354218 -0.9941406 0.1088867
vn 7.361174E-05 -0.9365234 0.3508301
vn 0.3249512 -0.9423828 0.07928467
vn 0.5981445 -0.7104492 0.3706055
vn 0.5 -0.8657227 0.02935791
vn 0.71875 -0.6381836 0.2766113
vn 0.5717773 -0.8154297 -0.0916748
vn 0.8510742 -0.5126953 0.1116333
vn 0.7192383 -0.6137695 -0.3254395
vn -0.01495361 0.8730469 -0.4873047
vn -0.01495361 0.8730469 -0.4873047
vn -0.0136795 0.2476807 -0.96875
vn -0.01495361 0.8730469 -0.4873047
g Beard_thin_alt_0
f 3/3/3 2/2/2 1/1/1
f 6/6/6 5/5/5 4/4/4
f 9/9/9 8/8/8 7/7/7
f 12/12/12 11/11/11 10/10/10
f 15/15/15 14/14/14 13/13/13
f 18/18/18 17/17/17 16/16/16
f 17/17/17 19/19/19 16/16/16
f 17/17/17 20/20/20 19/19/19
f 20/20/20 21/21/21 19/19/19
f 20/20/20 17/17/17 22/22/22
f 17/17/17 23/23/23 22/22/22
f 20/20/20 22/22/22 24/24/24
f 20/20/20 25/25/25 21/21/21
f 25/25/25 20/20/20 24/24/24
f 25/25/25 26/26/26 21/21/21
f 27/27/27 26/26/26 25/25/25
f 28/28/28 27/27/27 25/25/25
f 25/25/25 24/24/24 29/29/29
f 28/28/28 25/25/25 29/29/29
f 30/30/30 28/28/28 29/29/29
f 24/24/24 31/31/31 29/29/29
f 30/30/30 29/29/29 32/32/32
f 33/33/33 30/30/30 32/32/32
f 34/34/34 32/32/32 29/29/29
f 31/31/31 34/34/34 29/29/29
f 35/35/35 34/34/34 31/31/31
f 36/36/36 35/35/35 31/31/31
f 34/34/34 35/35/35 37/37/37
f 38/38/38 34/34/34 37/37/37
f 39/39/39 34/34/34 38/38/38
f 40/40/40 39/39/39 38/38/38
f 39/39/39 40/40/40 41/41/41
f 42/42/42 39/39/39 41/41/41
f 37/37/37 35/35/35 43/43/43
f 35/35/35 44/44/44 43/43/43
f 43/43/43 44/44/44 45/45/45
f 44/44/44 46/46/46 45/45/45
f 44/44/44 35/35/35 47/47/47
f 36/36/36 47/47/47 35/35/35
f 48/48/48 47/47/47 36/36/36
f 49/49/49 48/48/48 36/36/36
f 52/52/52 51/51/51 50/50/50
f 51/51/51 53/53/53 50/50/50
f 55/55/55 54/54/54 53/53/53
f 56/56/56 55/55/55 53/53/53
f 59/59/59 58/58/58 57/57/57
f 58/58/58 60/60/60 57/57/57
f 61/61/61 60/60/60 58/58/58
f 62/62/62 60/60/60 61/61/61
f 62/62/62 63/63/63 60/60/60
f 63/63/63 64/64/64 60/60/60
f 60/60/60 64/64/64 57/57/57
f 64/64/64 65/65/65 57/57/57
f 57/57/57 65/65/65 66/66/66
f 65/65/65 67/67/67 66/66/66
f 66/66/66 69/69/69 68/68/68
f 69/69/69 66/66/66 70/70/70
f 66/66/66 71/71/71 70/70/70
f 66/66/66 73/73/73 72/72/72
f 73/73/73 74/74/74 72/72/72
f 75/75/75 74/74/74 73/73/73
f 72/72/72 77/77/77 76/76/76
f 77/77/77 78/78/78 76/76/76
f 78/78/78 77/77/77 79/79/79
f 82/82/82 81/81/81 80/80/80
f 81/81/81 83/83/83 80/80/80
f 80/80/80 83/83/83 84/84/84
f 85/85/85 80/80/80 84/84/84
f 85/85/85 86/86/86 80/80/80
f 86/86/86 87/87/87 80/80/80
f 88/88/88 86/86/86 85/85/85
f 85/85/85 84/84/84 89/89/89
f 89/89/89 88/88/88 85/85/85
f 84/84/84 90/90/90 89/89/89
f 89/89/89 90/90/90 91/91/91
f 92/92/92 89/89/89 91/91/91
f 88/88/88 89/89/89 93/93/93
f 93/93/93 89/89/89 92/92/92
f 94/94/94 93/93/93 92/92/92
f 95/95/95 88/88/88 93/93/93
f 96/96/96 93/93/93 94/94/94
f 97/97/97 96/96/96 94/94/94
f 96/96/96 98/98/98 93/93/93
f 98/98/98 95/95/95 93/93/93
f 98/98/98 99/99/99 95/95/95
f 99/99/99 100/100/100 95/95/95
f 101/101/101 99/99/99 98/98/98
f 102/102/102 101/101/101 98/98/98
f 102/102/102 98/98/98 103/103/103
f 104/104/104 102/102/102 103/103/103
f 105/105/105 104/104/104 103/103/103
f 106/106/106 105/105/105 103/103/103
f 101/101/101 107/107/107 99/99/99
f 107/107/107 108/108/108 99/99/99
f 107/107/107 109/109/109 108/108/108
f 109/109/109 110/110/110 108/108/108
f 99/99/99 108/108/108 111/111/111
f 111/111/111 100/100/100 99/99/99
f 111/111/111 112/112/112 100/100/100
f 112/112/112 113/113/113 100/100/100
f 116/116/116 115/115/115 114/114/114
f 115/115/115 117/117/117 114/114/114
f 117/117/117 118/118/118 114/114/114
f 118/118/118 119/119/119 114/114/114
f 122/122/122 121/121/121 120/120/120
f 121/121/121 123/123/123 120/120/120
f 123/123/123 124/124/124 120/120/120
f 123/123/123 125/125/125 124/124/124
f 123/123/123 126/126/126 125/125/125
f 126/126/126 127/127/127 125/125/125
f 128/128/128 126/126/126 123/123/123
f 129/129/129 128/128/128 123/123/123
f 130/130/130 128/128/128 129/129/129
f 131/131/131 130/130/130 129/129/129
f 133/133/133 132/132/132 129/129/129
f 133/133/133 134/134/134 132/132/132
f 134/134/134 135/135/135 132/132/132
f 137/137/137 131/131/131 136/136/136
f 131/131/131 138/138/138 136/136/136
f 136/136/136 138/138/138 139/139/139
f 141/141/141 140/140/140 131/131/131
f 140/140/140 142/142/142 131/131/131
f 142/142/142 140/140/140 143/143/143
f 146/146/146 145/145/145 144/144/144
f 145/145/145 146/146/146 147/147/147
f 146/146/146 148/148/148 147/147/147
f 146/146/146 149/149/149 148/148/148
f 149/149/149 150/150/150 148/148/148
f 149/149/149 151/151/151 150/150/150
f 151/151/151 152/152/152 150/150/150
f 152/152/152 151/151/151 153/153/153
f 151/151/151 154/154/154 153/153/153
f 157/157/157 156/156/156 155/155/155
f 156/156/156 158/158/158 155/155/155
f 155/155/155 158/158/158 159/159/159
f 158/158/158 160/160/160 159/159/159
f 159/159/159 160/160/160 161/161/161
f 160/160/160 162/162/162 161/161/161
f 161/161/161 162/162/162 163/163/163
f 162/162/162 164/164/164 163/163/163
f 167/167/167 166/166/166 165/165/165
f 166/166/166 168/168/168 165/165/165
