g Bowtie
v -0.1012252 0.0225276 -0.02138002
v -0.0759721 0.0308817 -0.02542629
v -0.1010804 0.03737472 -0.009515028
v -0.07580121 0.04971383 -0.0131142
v -0.04541104 0.04729475 -0.01258984
v -0.04529773 0.02904999 -0.02503014
v -0.104008 0.03184677 0.008477179
v -0.1010804 0.03737472 -0.009515028
v -0.07834486 0.0411627 0.007638182
v -0.07580121 0.04971383 -0.0131142
v -0.04541104 0.04729475 -0.01258984
v -0.04579743 0.03833443 0.00729999
v -0.1047844 -0.02476763 0.02236826
v -0.07855403 -0.03326561 0.02653474
v -0.1036889 -0.03969118 0.01043395
v -0.07751169 -0.05152827 0.01381756
v -0.04554981 -0.04750006 0.01282994
v -0.04558309 -0.02942643 0.02529829
v -0.1035648 -0.03214914 -0.00727101
v -0.1036889 -0.03969118 0.01043395
v -0.07774964 -0.04111065 -0.006424196
v -0.07751169 -0.05152827 0.01381756
v -0.04554981 -0.04750006 0.01282994
v -0.04537781 -0.0377968 -0.007104385
v -0.04541104 0.04729475 -0.01258984
v -0.04529773 0.02904999 -0.02503014
v -0.01508282 0.02268825 -0.005971648
v -0.01505042 0.01405101 -0.0117387
v -0.04541104 0.04729475 -0.01258984
v -0.01508282 0.02268825 -0.005971648
v -0.04579743 0.03833443 0.00729999
v -0.01509416 0.01836003 0.003243022
v -0.04554981 -0.04750006 0.01282994
v -0.04558309 -0.02942643 0.02529829
v -0.01507428 -0.02186225 0.005860558
v -0.01506768 -0.01338382 0.01164012
v -0.04554981 -0.04750006 0.01282994
v -0.01507428 -0.02186225 0.005860558
v -0.04537781 -0.0377968 -0.007104385
v -0.01506749 -0.01743804 -0.003371055
v -0.01507103 -0.02298989 -0.007012233
v 0.0150746 -0.02295873 -0.007017961
v -0.01505622 -0.004525942 -0.01740236
v 0.01512997 -0.004316351 -0.01742074
v -0.01504535 0.01690555 -0.01764229
v 0.01529233 0.01745883 -0.01766559
v -0.01504535 0.01690555 -0.01764229
v 0.01529233 0.01745883 -0.01766559
v -0.01508946 0.02865735 -0.007572172
v 0.01549213 0.02955065 -0.007592266
v -0.01508946 0.02865735 -0.007572172
v 0.01549213 0.02955065 -0.007592266
v -0.01511876 0.02393674 0.006886042
v 0.01568711 0.02507837 0.006901036
v -0.01511876 0.02393674 0.006886042
v 0.01568711 0.02507837 0.006901036
v -0.01507672 0.005082743 0.01731659
v 0.01550791 0.005978785 0.01738734
v -0.01507155 -0.01638755 0.01756714
v 0.01516557 -0.01627545 0.01761352
v -0.01507155 -0.01638755 0.01756714
v 0.01516557 -0.01627545 0.01761352
v -0.01508099 -0.02787833 0.007473385
v 0.01508615 -0.02786493 0.007474647
v -0.01508099 -0.02787833 0.007473385
v 0.01508615 -0.02786493 0.007474647
v -0.01507103 -0.02298989 -0.007012233
v 0.0150746 -0.02295873 -0.007017961
v 0.01537576 0.01480825 -0.0117682
v 0.04546291 0.02931117 -0.02501004
v 0.01552746 0.02366618 -0.005992503
v 0.04562983 0.04759793 -0.01256492
v 0.01564119 0.01947802 0.003252675
v 0.01552746 0.02366618 -0.005992503
v 0.04728785 0.04022411 0.007655726
v 0.04562983 0.04759793 -0.01256492
v 0.01518508 -0.01314932 0.0116702
v 0.04680648 -0.03015528 0.02632378
v 0.01509941 -0.0217987 0.005863095
v 0.04549154 -0.04726812 0.01279783
v 0.015096 -0.01731892 -0.003384019
v 0.01509941 -0.0217987 0.005863095
v 0.04533757 -0.03765861 -0.007129712
v 0.04549154 -0.04726812 0.01279783
v 0.04546291 0.02931117 -0.02501004
v 0.07701191 0.03203682 -0.0257635
v 0.04562983 0.04759793 -0.01256492
v 0.077339 0.05132137 -0.01359021
v 0.1033202 0.03981769 -0.01048868
v 0.1029041 0.02404214 -0.02193433
v 0.04728785 0.04022411 0.007655726
v 0.04562983 0.04759793 -0.01256492
v 0.08046419 0.04368496 0.006771874
v 0.077339 0.05132137 -0.01359021
v 0.1033202 0.03981769 -0.01048868
v 0.1052246 0.03362807 0.007056406
v 0.04680648 -0.03015528 0.02632378
v 0.07874255 -0.03292232 0.02742971
v 0.04549154 -0.04726812 0.01279783
v 0.07597872 -0.04984489 0.01352389
v 0.1010724 -0.03735922 0.009972041
v 0.1028888 -0.02360723 0.02234446
v 0.04533757 -0.03765861 -0.007129712
v 0.04549154 -0.04726812 0.01279783
v 0.07657347 -0.0397997 -0.00661149
v 0.07597872 -0.04984489 0.01352389
v 0.1010724 -0.03735922 0.009972041
v 0.1021823 -0.03058261 -0.007611913
v -0.1026755 -0.005845438 -0.02056529
v -0.1035648 -0.03214914 -0.00727101
v -0.07682291 -0.006205659 -0.02284032
v -0.1012252 0.0225276 -0.02138002
v -0.07774964 -0.04111065 -0.006424196
v -0.0759721 0.0308817 -0.02542629
v -0.04537781 -0.0377968 -0.007104385
v -0.04529773 0.02904999 -0.02503014
v -0.04521586 -0.006106432 -0.02280607
v -0.01506749 -0.01743804 -0.003371055
v -0.01505042 0.01405101 -0.0117387
v -0.01505164 -0.002606832 -0.01065648
v -0.1063012 0.006670523 0.02183593
v -0.104008 0.03184677 0.008477179
v -0.08138594 0.007646166 0.02444244
v -0.1047844 -0.02476763 0.02236826
v -0.07834486 0.0411627 0.007638182
v -0.07855403 -0.03326561 0.02653474
v -0.04579743 0.03833443 0.00729999
v -0.04558309 -0.02942643 0.02529829
v -0.04575976 0.006517622 0.02297693
v -0.01509416 0.01836003 0.003243022
v -0.01506768 -0.01338382 0.01164012
v -0.01506767 0.003317362 0.01054603
v 0.01519285 -0.002200334 -0.01068643
v 0.015096 -0.01731892 -0.003384019
v 0.04529081 -0.006029154 -0.02276988
v 0.01537576 0.01480825 -0.0117682
v 0.04533757 -0.03765861 -0.007129712
v 0.07746962 -0.006372179 -0.02285551
v 0.04546291 0.02931117 -0.02501004
v 0.07657347 -0.0397997 -0.00661149
v 0.07701191 0.03203682 -0.0257635
v 0.1021823 -0.03058261 -0.007611913
v 0.1029041 0.02404214 -0.02193433
v 0.1031279 -0.005932569 -0.02072185
v 0.01548108 0.004208731 0.01058916
v 0.01564119 0.01947802 0.003252675
v 0.04947703 0.00757308 0.02531502
v 0.01518508 -0.01314932 0.0116702
v 0.04728785 0.04022411 0.007655726
v 0.08401775 0.006870981 0.02617465
v 0.04680648 -0.03015528 0.02632378
v 0.08046419 0.04368496 0.006771874
v 0.07874255 -0.03292232 0.02742971
v 0.1052246 0.03362807 0.007056406
v 0.1028888 -0.02360723 0.02234446
v 0.1058708 0.005846151 0.0214976
v -0.1026755 -0.005845438 -0.02056529
v -0.1071544 0.0002707235 0.0007266957
v -0.1035648 -0.03214914 -0.00727101
v -0.1012252 0.0225276 -0.02138002
v -0.1036889 -0.03969118 0.01043395
v -0.1010804 0.03737472 -0.009515028
v -0.1047844 -0.02476763 0.02236826
v -0.104008 0.03184677 0.008477179
v -0.1063012 0.006670523 0.02183593
v 0.1021823 -0.03058261 -0.007611913
v 0.1068569 8.981884E-06 0.0001790129
v 0.1031279 -0.005932569 -0.02072185
v 0.1010724 -0.03735922 0.009972041
v 0.1029041 0.02404214 -0.02193433
v 0.1028888 -0.02360723 0.02234446
v 0.1033202 0.03981769 -0.01048868
v 0.1058708 0.005846151 0.0214976
v 0.1052246 0.03362807 0.007056406
v -0.01505164 -0.002606832 -0.01065648
v -0.01506749 -0.01743804 -0.003371055
v -0.01505622 -0.004525942 -0.01740236
v -0.01505042 0.01405101 -0.0117387
v -0.01507103 -0.02298989 -0.007012233
v -0.01504535 0.01690555 -0.01764229
v -0.01507428 -0.02186225 0.005860558
v -0.01508099 -0.02787833 0.007473385
v -0.01507155 -0.01638755 0.01756714
v -0.01506768 -0.01338382 0.01164012
v -0.01508282 0.02268825 -0.005971648
v -0.01508946 0.02865735 -0.007572172
v -0.01511876 0.02393674 0.006886042
v -0.01509416 0.01836003 0.003243022
v -0.01507672 0.005082743 0.01731659
v -0.01506767 0.003317362 0.01054603
v 0.01519285 -0.002200334 -0.01068643
v 0.01512997 -0.004316351 -0.01742074
v 0.015096 -0.01731892 -0.003384019
v 0.01537576 0.01480825 -0.0117682
v 0.0150746 -0.02295873 -0.007017961
v 0.01529233 0.01745883 -0.01766559
v 0.01509941 -0.0217987 0.005863095
v 0.01508615 -0.02786493 0.007474647
v 0.01516557 -0.01627545 0.01761352
v 0.01518508 -0.01314932 0.0116702
v 0.01552746 0.02366618 -0.005992503
v 0.01549213 0.02955065 -0.007592266
v 0.01568711 0.02507837 0.006901036
v 0.01564119 0.01947802 0.003252675
v 0.01550791 0.005978785 0.01738734
v 0.01548108 0.004208731 0.01058916
vt 0.9477539 0.9335938
vt 0.9477539 0.9404297
vt 0.9516602 0.934082
vt 0.9516602 0.9404297
vt 0.9516602 0.9482422
vt 0.9477539 0.9482422
vt 0.9560547 0.9331055
vt 0.9516602 0.934082
vt 0.956543 0.9394531
vt 0.9516602 0.9404297
vt 0.9516602 0.9482422
vt 0.9560547 0.9482422
vt 0.9291992 0.9101563
vt 0.9316406 0.9165039
vt 0.9321289 0.9101563
vt 0.9350586 0.9169922
vt 0.934082 0.925293
vt 0.9301758 0.925293
vt 0.9794922 0.9389648
vt 0.9794922 0.9360352
vt 0.9726563 0.9370117
vt 0.9726563 0.9331055
vt 0.9648438 0.934082
vt 0.9643555 0.9375
vt 0.9516602 0.9482422
vt 0.9477539 0.9482422
vt 0.9516602 0.9560547
vt 0.949707 0.9560547
vt 0.9516602 0.9482422
vt 0.9516602 0.9560547
vt 0.9560547 0.9482422
vt 0.9536133 0.9560547
vt 0.934082 0.925293
vt 0.9301758 0.925293
vt 0.9272461 0.9331055
vt 0.925293 0.9331055
vt 0.9648438 0.934082
vt 0.9570313 0.940918
vt 0.9643555 0.9375
vt 0.9570313 0.9423828
vt 0.9428711 0.9580078
vt 0.9355469 0.9580078
vt 0.9428711 0.9633789
vt 0.9355469 0.9633789
vt 0.9428711 0.96875
vt 0.9350586 0.96875
vt 0.9428711 0.96875
vt 0.9350586 0.96875
vt 0.9428711 0.9711914
vt 0.9350586 0.9711914
vt 0.9433594 0.9711914
vt 0.9516602 0.9711914
vt 0.9433594 0.9692383
vt 0.9516602 0.9692383
vt 0.9433594 0.9692383
vt 0.9516602 0.9692383
vt 0.9433594 0.9638672
vt 0.9516602 0.9638672
vt 0.9433594 0.9584961
vt 0.9511719 0.9584961
vt 0.9433594 0.9584961
vt 0.9511719 0.9584961
vt 0.9433594 0.9560547
vt 0.9511719 0.9560547
vt 0.9428711 0.9560547
vt 0.9355469 0.9560547
vt 0.9428711 0.9580078
vt 0.9355469 0.9580078
vt 0.9589844 0.909668
vt 0.956543 0.9174805
vt 0.9609375 0.909668
vt 0.9609375 0.9174805
vt 0.9628906 0.909668
vt 0.9609375 0.909668
vt 0.965332 0.9179688
vt 0.9609375 0.9174805
vt 0.9213867 0.9331055
vt 0.9189453 0.9414063
vt 0.9233398 0.9331055
vt 0.9233398 0.940918
vt 0.925293 0.9331055
vt 0.9233398 0.9331055
vt 0.9277344 0.940918
vt 0.9233398 0.940918
vt 0.956543 0.9174805
vt 0.956543 0.925293
vt 0.9609375 0.9174805
vt 0.9609375 0.925293
vt 0.9609375 0.9321289
vt 0.9570313 0.9321289
vt 0.965332 0.9179688
vt 0.9609375 0.9174805
vt 0.965332 0.9262695
vt 0.9609375 0.925293
vt 0.9609375 0.9321289
vt 0.9648438 0.9326172
vt 0.9189453 0.9414063
vt 0.9189453 0.949707
vt 0.9233398 0.940918
vt 0.9233398 0.9487305
vt 0.9233398 0.9550781
vt 0.9194336 0.9555664
vt 0.9277344 0.940918
vt 0.9233398 0.940918
vt 0.9277344 0.9492188
vt 0.9233398 0.9487305
vt 0.9233398 0.9550781
vt 0.9272461 0.9555664
vt 0.9794922 0.9462891
vt 0.9794922 0.9389648
vt 0.9726563 0.9462891
vt 0.9790039 0.9536133
vt 0.9726563 0.9370117
vt 0.9726563 0.9560547
vt 0.9643555 0.9375
vt 0.9643555 0.9555664
vt 0.9643555 0.9467773
vt 0.9570313 0.9423828
vt 0.9570313 0.9506836
vt 0.9570313 0.9467773
vt 0.9213867 0.909668
vt 0.9140625 0.9101563
vt 0.9213867 0.9160156
vt 0.9291992 0.9101563
vt 0.9116211 0.9169922
vt 0.9316406 0.9165039
vt 0.9125977 0.925293
vt 0.9301758 0.925293
vt 0.9213867 0.925293
vt 0.9169922 0.9331055
vt 0.925293 0.9331055
vt 0.9213867 0.9331055
vt 0.9375 0.9555664
vt 0.9418945 0.9555664
vt 0.9375 0.9482422
vt 0.9331055 0.9555664
vt 0.9467773 0.9482422
vt 0.9379883 0.9399414
vt 0.9287109 0.9482422
vt 0.9472656 0.9399414
vt 0.9282227 0.9399414
vt 0.9448242 0.9335938
vt 0.9301758 0.9331055
vt 0.9379883 0.9331055
vt 0.9458008 0.909668
vt 0.9414063 0.909668
vt 0.9458008 0.918457
vt 0.9501953 0.909668
vt 0.9365234 0.9179688
vt 0.9458008 0.9272461
vt 0.9550781 0.9174805
vt 0.9355469 0.9262695
vt 0.9560547 0.9257813
vt 0.9379883 0.9326172
vt 0.953125 0.9321289
vt 0.9458008 0.9326172
vt 0.9233398 0.9663086
vt 0.9291992 0.9667969
vt 0.9248047 0.9589844
vt 0.925293 0.9736328
vt 0.9287109 0.9560547
vt 0.9291992 0.9765625
vt 0.9326172 0.9589844
vt 0.9331055 0.9741211
vt 0.9345703 0.9667969
vt 0.9213867 0.9589844
vt 0.9174805 0.9658203
vt 0.9228516 0.9658203
vt 0.9174805 0.9560547
vt 0.9213867 0.9731445
vt 0.9135742 0.9584961
vt 0.9174805 0.9765625
vt 0.9116211 0.9658203
vt 0.9135742 0.9736328
vt 0.9633789 0.9633789
vt 0.9643555 0.9594727
vt 0.9619141 0.9633789
vt 0.9643555 0.9677734
vt 0.9628906 0.9584961
vt 0.9628906 0.96875
vt 0.9663086 0.9575195
vt 0.9663086 0.9560547
vt 0.9697266 0.9584961
vt 0.9682617 0.9594727
vt 0.9663086 0.9697266
vt 0.9663086 0.9711914
vt 0.9697266 0.9692383
vt 0.9682617 0.9677734
vt 0.9711914 0.9638672
vt 0.9692383 0.9638672
vt 0.9594727 0.9638672
vt 0.9614258 0.9638672
vt 0.9584961 0.9594727
vt 0.9584961 0.9677734
vt 0.9599609 0.9584961
vt 0.9599609 0.9692383
vt 0.956543 0.9575195
vt 0.956543 0.9560547
vt 0.953125 0.9584961
vt 0.9545898 0.9594727
vt 0.956543 0.9697266
vt 0.956543 0.9711914
vt 0.953125 0.9692383
vt 0.9545898 0.9682617
vt 0.9521484 0.9638672
vt 0.9536133 0.9638672
vn -0.3151855 0.5942383 -0.7397461
vn -0.140625 0.5585938 -0.8173828
vn -0.3371582 0.5566406 -0.7592773
vn -0.1227417 0.5439453 -0.8300781
vn 0.04974365 0.5561523 -0.8295898
vn 0.04428101 0.5629883 -0.8251953
vn -0.3254395 0.9174805 0.2288818
vn -0.3510742 0.8974609 0.2670898
vn -0.1474609 0.925293 0.3498535
vn -0.1072998 0.9238281 0.3674316
vn 0.07696533 0.9125977 0.4018555
vn 0.08319092 0.9082031 0.4106445
vn -0.3127441 -0.6069336 0.7304688
vn -0.1102295 -0.5810547 0.8066406
vn -0.328125 -0.581543 0.7441406
vn -0.08795166 -0.5727539 0.8149414
vn 0.09655762 -0.5649414 0.8193359
vn 0.09649658 -0.5649414 0.8193359
vn -0.2927246 -0.8789063 -0.3764648
vn -0.3083496 -0.8623047 -0.4016113
vn -0.09997559 -0.8920898 -0.440918
vn -0.08221436 -0.8867188 -0.4553223
vn 0.08837891 -0.8916016 -0.4436035
vn 0.08258057 -0.8964844 -0.4355469
vn 0.5385742 0.4770508 -0.6948242
vn 0.5385742 0.4763184 -0.6948242
vn 0.5390625 0.4726563 -0.6972656
vn 0.5395508 0.46875 -0.6992188
vn 0.5415039 0.7626953 0.3540039
vn 0.5415039 0.7612305 0.3562012
vn 0.5415039 0.762207 0.3544922
vn 0.5419922 0.7602539 0.3579102
vn 0.5541992 -0.472168 0.6855469
vn 0.5541992 -0.4719238 0.6860352
vn 0.5541992 -0.470459 0.6865234
vn 0.5541992 -0.4689941 0.6875
vn 0.550293 -0.7524414 -0.3615723
vn 0.550293 -0.7529297 -0.361084
vn 0.550293 -0.7524414 -0.3615723
vn 0.550293 -0.7529297 -0.3605957
vn 0.0003414154 -0.4904785 -0.871582
vn 0.001879692 -0.4885254 -0.8725586
vn 0.0004127026 -0.2583008 -0.9663086
vn 0.001159668 -0.253418 -0.9672852
vn -0.0005440712 -0.01121521 -1
vn -0.0005636215 -0.0112381 -1
vn -0.01245117 0.6503906 -0.7592773
vn -0.01722717 0.6430664 -0.765625
vn -0.014534 0.6474609 -0.762207
vn -0.01919556 0.6401367 -0.7680664
vn -0.02755737 0.9501953 0.3103027
vn -0.03320313 0.9536133 0.2995605
vn -0.02990723 0.9516602 0.3056641
vn -0.03552246 0.9545898 0.295166
vn -0.01835632 0.4838867 0.875
vn -0.01699829 0.4824219 0.8759766
vn -0.01030731 0.2524414 0.9677734
vn -0.009521484 0.2595215 0.9658203
vn -0.002214432 0.01106262 1
vn -0.001571655 0.01018524 1
vn 0.001294136 -0.6601563 0.7514648
vn 0.0005688667 -0.6586914 0.7524414
vn 0.0009832382 -0.659668 0.7514648
vn 0.0002608299 -0.6582031 0.7524414
vn 0.0004343987 -0.9472656 -0.3198242
vn 0.0007739067 -0.9472656 -0.3203125
vn 0.0005788803 -0.9472656 -0.3200684
vn 0.0009183884 -0.9472656 -0.3205566
vn -0.5351563 0.4677734 -0.7036133
vn -0.5332031 0.4782715 -0.6977539
vn -0.5341797 0.4731445 -0.7006836
vn -0.5332031 0.479248 -0.6972656
vn -0.546875 0.7597656 0.3510742
vn -0.5454102 0.7661133 0.3398438
vn -0.5439453 0.7719727 0.3286133
vn -0.543457 0.7734375 0.3266602
vn -0.5644531 -0.4562988 0.6879883
vn -0.5610352 -0.4838867 0.671875
vn -0.5625 -0.4697266 0.6801758
vn -0.5605469 -0.4865723 0.6699219
vn -0.550293 -0.7514648 -0.3637695
vn -0.550293 -0.7524414 -0.3618164
vn -0.5498047 -0.7539063 -0.3596191
vn -0.5498047 -0.7539063 -0.359375
vn -0.0682373 0.5615234 -0.824707
vn 0.1011963 0.5439453 -0.8330078
vn -0.0769043 0.550293 -0.831543
vn 0.08856201 0.5307617 -0.8427734
vn 0.302002 0.5317383 -0.7910156
vn 0.2873535 0.5576172 -0.7788086
vn -0.08813477 0.9335938 0.3476563
vn -0.09136963 0.9311523 0.3530273
vn 0.1322021 0.9360352 0.3269043
vn 0.07757568 0.9375 0.3395996
vn 0.3598633 0.8911133 0.2768555
vn 0.3591309 0.8916016 0.2756348
vn -0.0803833 -0.6142578 0.7851563
vn 0.1635742 -0.6435547 0.7475586
vn -0.07702637 -0.6186523 0.7817383
vn 0.1139526 -0.6416016 0.7583008
vn 0.3950195 -0.6328125 0.6660156
vn 0.3874512 -0.6445313 0.6591797
vn -0.05447388 -0.8994141 -0.4333496
vn -0.05853271 -0.8964844 -0.4387207
vn 0.1351318 -0.8969727 -0.4213867
vn 0.1121216 -0.890625 -0.440918
vn 0.3330078 -0.8701172 -0.3637695
vn 0.309082 -0.894043 -0.3249512
vn -0.08831787 -0.2519531 -0.9638672
vn -0.1064453 -0.4287109 -0.8969727
vn -0.04098511 -0.2558594 -0.9658203
vn -0.1204224 -0.05187988 -0.9912109
vn -0.03436279 -0.4245605 -0.9047852
vn -0.04898071 -0.06835938 -0.996582
vn 0.1594238 -0.432373 -0.8876953
vn 0.1610107 -0.06414795 -0.9848633
vn 0.1791992 -0.255127 -0.9501953
vn 0.3798828 -0.4108887 -0.8286133
vn 0.3779297 -0.05838013 -0.9238281
vn 0.3864746 -0.2362061 -0.8916016
vn -0.1102295 0.2340088 0.9658203
vn -0.1278076 0.4602051 0.878418
vn -0.02838135 0.2489014 0.9682617
vn -0.1326904 0.03237915 0.9907227
vn -0.01876831 0.4494629 0.8930664
vn -0.03500366 0.0486145 0.9980469
vn 0.1794434 0.435791 0.8818359
vn 0.1662598 0.06030273 0.984375
vn 0.1938477 0.2507324 0.9482422
vn 0.3774414 0.4082031 0.8310547
vn 0.3803711 0.06112671 0.9228516
vn 0.3857422 0.2364502 0.8916016
vn -0.3876953 -0.2283936 -0.8930664
vn -0.3808594 -0.4069824 -0.8300781
vn -0.1793213 -0.2536621 -0.9506836
vn -0.3786621 -0.05603027 -0.9238281
vn -0.1618652 -0.4353027 -0.8857422
vn 0.03921509 -0.2568359 -0.9658203
vn -0.1599121 -0.06610107 -0.9848633
vn 0.03936768 -0.4375 -0.8984375
vn 0.04034424 -0.07495117 -0.996582
vn 0.1089478 -0.4477539 -0.8876953
vn 0.1109619 -0.06274414 -0.9916992
vn 0.08447266 -0.2526855 -0.9638672
vn -0.4057617 0.2336426 0.8837891
vn -0.3916016 0.4121094 0.8227539
vn -0.1873779 0.2536621 0.9487305
vn -0.3984375 0.056427 0.9155273
vn -0.1767578 0.4555664 0.8725586
vn 0.07000732 0.2558594 0.9643555
vn -0.1916504 0.04190063 0.9804688
vn 0.0475769 0.4692383 0.8818359
vn 0.04556274 0.02545166 0.9985352
vn 0.1878662 0.4680176 0.8632813
vn 0.2059326 0.004547119 0.9785156
vn 0.2138672 0.2509766 0.9443359
vn -0.9790039 -0.01134491 -0.2027588
vn -0.996582 0.008880615 -0.07977295
vn -0.9921875 -0.08746338 -0.09075928
vn -0.9814453 0.09716797 -0.1654053
vn -0.9956055 -0.09088135 -0.01872253
vn -0.9833984 0.125 -0.1304932
vn -0.9970703 -0.0725708 0.02520752
vn -0.9897461 0.1184082 -0.08068848
vn -0.9990234 0.02427673 0.03302002
vn 0.9892578 -0.140625 -0.0413208
vn 0.9980469 -0.04089355 -0.04818726
vn 0.9853516 -0.05563354 -0.1600342
vn 0.9887695 -0.1499023 0.0117569
vn 0.9902344 0.04067993 -0.1328125
vn 0.9907227 -0.1325684 0.03613281
vn 0.9931641 0.06164551 -0.09924316
vn 0.9980469 -0.02590942 0.05328369
vn 0.9970703 0.05847168 -0.04922485
vn -1 0.0006666183 0.0004887581
vn -1 0.0008215904 -0.0001417398
vn -1 0.00066185 0.0002684593
vn -1 -0.0004379749 -0.0009098053
vn -1 0.0008015633 -0.000215292
vn -1 -0.0005717278 -0.00122261
vn -1 0.001004219 -0.0002911091
vn -1 0.00103569 -0.0002994537
vn -1 0.0002396107 -0.0005512238
vn -1 0.0001218319 -0.0006608963
vn -1 -0.001941681 -0.002439499
vn -1 -0.001777649 -0.002485275
vn -1 -0.002906799 -0.002111435
vn -1 -0.002967834 -0.001914024
vn -1 -0.001267433 -0.001111031
vn -1 -0.001113892 -0.001048088
vn 1 -0.01032257 -0.006095886
vn 1 -0.009078979 -0.006813049
vn 1 -0.003862381 -0.001643181
vn 1 -0.007553101 -0.01608276
vn 1 -0.003076553 -0.001096725
vn 1 -0.006210327 -0.01776123
vn 1 -0.003564835 -0.002613068
vn 1 -0.002952576 -0.002887726
vn 1 -0.01200104 -0.003814697
vn 1 -0.01366425 -0.003242493
vn 1 0.0005702972 -0.01618958
vn 1 0.001531601 -0.01644897
vn 1 -0.005012512 -0.004356384
vn 1 -0.006454468 -0.003269196
vn 1 -0.01359558 -0.0006899834
vn 1 -0.01405334 -0.0002880096
g Bowtie_0
f 3/3/3 2/2/2 1/1/1
f 3/3/3 4/4/4 2/2/2
f 5/5/5 2/2/2 4/4/4
f 5/5/5 6/6/6 2/2/2
f 9/9/9 8/8/8 7/7/7
f 9/9/9 10/10/10 8/8/8
f 9/9/9 11/11/11 10/10/10
f 9/9/9 12/12/12 11/11/11
f 15/15/15 14/14/14 13/13/13
f 15/15/15 16/16/16 14/14/14
f 17/17/17 14/14/14 16/16/16
f 17/17/17 18/18/18 14/14/14
f 21/21/21 20/20/20 19/19/19
f 21/21/21 22/22/22 20/20/20
f 21/21/21 23/23/23 22/22/22
f 21/21/21 24/24/24 23/23/23
f 27/27/27 26/26/26 25/25/25
f 27/27/27 28/28/28 26/26/26
f 31/31/31 30/30/30 29/29/29
f 31/31/31 32/32/32 30/30/30
f 35/35/35 34/34/34 33/33/33
f 35/35/35 36/36/36 34/34/34
f 39/39/39 38/38/38 37/37/37
f 39/39/39 40/40/40 38/38/38
f 43/43/43 42/42/42 41/41/41
f 43/43/43 44/44/44 42/42/42
f 45/45/45 44/44/44 43/43/43
f 45/45/45 46/46/46 44/44/44
f 49/49/49 48/48/48 47/47/47
f 49/49/49 50/50/50 48/48/48
f 53/53/53 52/52/52 51/51/51
f 53/53/53 54/54/54 52/52/52
f 57/57/57 56/56/56 55/55/55
f 57/57/57 58/58/58 56/56/56
f 59/59/59 58/58/58 57/57/57
f 59/59/59 60/60/60 58/58/58
f 63/63/63 62/62/62 61/61/61
f 63/63/63 64/64/64 62/62/62
f 67/67/67 66/66/66 65/65/65
f 67/67/67 68/68/68 66/66/66
f 71/71/71 70/70/70 69/69/69
f 71/71/71 72/72/72 70/70/70
f 75/75/75 74/74/74 73/73/73
f 75/75/75 76/76/76 74/74/74
f 79/79/79 78/78/78 77/77/77
f 79/79/79 80/80/80 78/78/78
f 83/83/83 82/82/82 81/81/81
f 83/83/83 84/84/84 82/82/82
f 87/87/87 86/86/86 85/85/85
f 87/87/87 88/88/88 86/86/86
f 89/89/89 86/86/86 88/88/88
f 89/89/89 90/90/90 86/86/86
f 93/93/93 92/92/92 91/91/91
f 93/93/93 94/94/94 92/92/92
f 93/93/93 95/95/95 94/94/94
f 93/93/93 96/96/96 95/95/95
f 99/99/99 98/98/98 97/97/97
f 99/99/99 100/100/100 98/98/98
f 101/101/101 98/98/98 100/100/100
f 101/101/101 102/102/102 98/98/98
f 105/105/105 104/104/104 103/103/103
f 105/105/105 106/106/106 104/104/104
f 105/105/105 107/107/107 106/106/106
f 105/105/105 108/108/108 107/107/107
f 111/111/111 110/110/110 109/109/109
f 112/112/112 111/111/111 109/109/109
f 111/111/111 113/113/113 110/110/110
f 112/112/112 114/114/114 111/111/111
f 111/111/111 115/115/115 113/113/113
f 116/116/116 111/111/111 114/114/114
f 111/111/111 117/117/117 115/115/115
f 116/116/116 117/117/117 111/111/111
f 117/117/117 118/118/118 115/115/115
f 119/119/119 117/117/117 116/116/116
f 117/117/117 120/120/120 118/118/118
f 119/119/119 120/120/120 117/117/117
f 123/123/123 122/122/122 121/121/121
f 124/124/124 123/123/123 121/121/121
f 123/123/123 125/125/125 122/122/122
f 124/124/124 126/126/126 123/123/123
f 123/123/123 127/127/127 125/125/125
f 128/128/128 123/123/123 126/126/126
f 123/123/123 129/129/129 127/127/127
f 128/128/128 129/129/129 123/123/123
f 129/129/129 130/130/130 127/127/127
f 131/131/131 129/129/129 128/128/128
f 129/129/129 132/132/132 130/130/130
f 131/131/131 132/132/132 129/129/129
f 135/135/135 134/134/134 133/133/133
f 136/136/136 135/135/135 133/133/133
f 135/135/135 137/137/137 134/134/134
f 138/138/138 137/137/137 135/135/135
f 136/136/136 139/139/139 135/135/135
f 139/139/139 138/138/138 135/135/135
f 138/138/138 140/140/140 137/137/137
f 139/139/139 141/141/141 138/138/138
f 138/138/138 142/142/142 140/140/140
f 143/143/143 138/138/138 141/141/141
f 138/138/138 144/144/144 142/142/142
f 143/143/143 144/144/144 138/138/138
f 147/147/147 146/146/146 145/145/145
f 148/148/148 147/147/147 145/145/145
f 147/147/147 149/149/149 146/146/146
f 150/150/150 149/149/149 147/147/147
f 148/148/148 151/151/151 147/147/147
f 151/151/151 150/150/150 147/147/147
f 150/150/150 152/152/152 149/149/149
f 151/151/151 153/153/153 150/150/150
f 150/150/150 154/154/154 152/152/152
f 155/155/155 150/150/150 153/153/153
f 150/150/150 156/156/156 154/154/154
f 155/155/155 156/156/156 150/150/150
f 159/159/159 158/158/158 157/157/157
f 157/157/157 158/158/158 160/160/160
f 161/161/161 158/158/158 159/159/159
f 160/160/160 158/158/158 162/162/162
f 163/163/163 158/158/158 161/161/161
f 162/162/162 158/158/158 164/164/164
f 165/165/165 158/158/158 163/163/163
f 164/164/164 158/158/158 165/165/165
f 168/168/168 167/167/167 166/166/166
f 166/166/166 167/167/167 169/169/169
f 170/170/170 167/167/167 168/168/168
f 169/169/169 167/167/167 171/171/171
f 172/172/172 167/167/167 170/170/170
f 171/171/171 167/167/167 173/173/173
f 174/174/174 167/167/167 172/172/172
f 173/173/173 167/167/167 174/174/174
f 177/177/177 176/176/176 175/175/175
f 178/178/178 177/177/177 175/175/175
f 177/177/177 179/179/179 176/176/176
f 178/178/178 180/180/180 177/177/177
f 179/179/179 181/181/181 176/176/176
f 179/179/179 182/182/182 181/181/181
f 181/181/181 182/182/182 183/183/183
f 181/181/181 183/183/183 184/184/184
f 185/185/185 180/180/180 178/178/178
f 185/185/185 186/186/186 180/180/180
f 187/187/187 186/186/186 185/185/185
f 187/187/187 185/185/185 188/188/188
f 184/184/184 183/183/183 189/189/189
f 189/189/189 187/187/187 188/188/188
f 184/184/184 189/189/189 190/190/190
f 189/189/189 188/188/188 190/190/190
f 193/193/193 192/192/192 191/191/191
f 192/192/192 194/194/194 191/191/191
f 193/193/193 195/195/195 192/192/192
f 192/192/192 196/196/196 194/194/194
f 197/197/197 195/195/195 193/193/193
f 197/197/197 198/198/198 195/195/195
f 199/199/199 198/198/198 197/197/197
f 199/199/199 197/197/197 200/200/200
f 196/196/196 201/201/201 194/194/194
f 196/196/196 202/202/202 201/201/201
f 201/201/201 202/202/202 203/203/203
f 201/201/201 203/203/203 204/204/204
f 205/205/205 199/199/199 200/200/200
f 204/204/204 203/203/203 205/205/205
f 205/205/205 200/200/200 206/206/206
f 204/204/204 205/205/205 206/206/206
