g BrokenPlant
v -0.05753509 -0.06059326 0.04090546
v -0.07136016 -0.05782566 0.02726898
v -0.0570993 -0.1201599 0.005439148
v -0.04586823 -0.1201599 0.01803986
v -0.1123032 0.01094467 0.1703403
v -0.1160287 0.01322224 0.1549887
v -0.1135965 0.02472904 0.1476608
v -0.1098715 0.0224514 0.163013
v -0.05275177 -0.1201599 0.03625458
v -0.06398284 -0.1201599 0.02365326
v -0.07824432 -0.06678432 0.0454837
v -0.06441864 -0.06955196 0.05912018
v -0.0570993 -0.1201599 0.005439148
v -0.07824432 -0.06678432 0.0454837
v -0.06398284 -0.1201599 0.02365326
v -0.07136016 -0.05782566 0.02726898
v -0.09406952 -0.0227914 0.07394867
v -0.08999969 -0.006422424 0.06199371
v -0.03643768 -0.1201599 0.03464142
v -0.03867279 -0.05643131 0.04030853
v -0.02955353 -0.1201599 0.01642731
v -0.04555633 -0.06538998 0.05852264
v -0.05284271 -0.004837456 0.0768161
v -0.05691314 -0.02120643 0.08877044
v -0.09694794 0.02543919 0.1543021
v -0.09938019 0.01393246 0.1616299
v -0.1123032 0.01094467 0.1703403
v -0.1098715 0.0224514 0.163013
v -0.02955353 -0.1201599 0.01642731
v -0.03867279 -0.05643131 0.04030853
v -0.05753509 -0.06059326 0.04090546
v -0.04586823 -0.1201599 0.01803986
v -0.04555633 -0.06538998 0.05852264
v -0.03643768 -0.1201599 0.03464142
v -0.05275177 -0.1201599 0.03625458
v -0.06441864 -0.06955196 0.05912018
v -0.05753509 -0.06059326 0.04090546
v -0.07248749 -0.01286518 0.07334381
v -0.08999969 -0.006422424 0.06199371
v -0.07136016 -0.05782566 0.02726898
v -0.07824432 -0.06678432 0.0454837
v -0.09406952 -0.0227914 0.07394867
v -0.07655731 -0.02923416 0.08529755
v -0.06441864 -0.06955196 0.05912018
v -0.03867279 -0.05643131 0.04030853
v -0.05284271 -0.004837456 0.0768161
v -0.07248749 -0.01286518 0.07334381
v -0.05753509 -0.06059326 0.04090546
v -0.06441864 -0.06955196 0.05912018
v -0.07655731 -0.02923416 0.08529755
v -0.05691314 -0.02120643 0.08877044
v -0.04555633 -0.06538998 0.05852264
v -0.07248749 -0.01286518 0.07334381
v -0.09385162 0.01807056 0.1235342
v -0.1089676 0.02439754 0.1127548
v -0.08999969 -0.006422424 0.06199371
v -0.08999969 -0.006422424 0.06199371
v -0.1089676 0.02439754 0.1127548
v -0.1133139 0.008444748 0.1253561
v -0.09406952 -0.0227914 0.07394867
v -0.09406952 -0.0227914 0.07394867
v -0.1133139 0.008444748 0.1253561
v -0.09819733 0.002117615 0.136135
v -0.07655731 -0.02923416 0.08529755
v -0.05284271 -0.004837456 0.0768161
v -0.07628082 0.02579189 0.1257938
v -0.09385162 0.01807056 0.1235342
v -0.07248749 -0.01286518 0.07334381
v -0.07655731 -0.02923416 0.08529755
v -0.09819733 0.002117615 0.136135
v -0.08062714 0.009839096 0.1383951
v -0.05691314 -0.02120643 0.08877044
v -0.05691314 -0.02120643 0.08877044
v -0.08062714 0.009839096 0.1383951
v -0.07628082 0.02579189 0.1257938
v -0.05284271 -0.004837456 0.0768161
v -0.09385162 0.01807056 0.1235342
v -0.1098715 0.0224514 0.163013
v -0.1135965 0.02472904 0.1476608
v -0.1089676 0.02439754 0.1127548
v -0.1089676 0.02439754 0.1127548
v -0.1135965 0.02472904 0.1476608
v -0.1160287 0.01322224 0.1549887
v -0.1133139 0.008444748 0.1253561
v -0.1133139 0.008444748 0.1253561
v -0.1160287 0.01322224 0.1549887
v -0.1123032 0.01094467 0.1703403
v -0.09819733 0.002117615 0.136135
v -0.07628082 0.02579189 0.1257938
v -0.09694794 0.02543919 0.1543021
v -0.1098715 0.0224514 0.163013
v -0.09385162 0.01807056 0.1235342
v -0.09819733 0.002117615 0.136135
v -0.1123032 0.01094467 0.1703403
v -0.09938019 0.01393246 0.1616299
v -0.08062714 0.009839096 0.1383951
v -0.08062714 0.009839096 0.1383951
v -0.09938019 0.01393246 0.1616299
v -0.09694794 0.02543919 0.1543021
v -0.07628082 0.02579189 0.1257938
vt 0.1559772 0.3504515
vt 0.1559772 0.3504515
vt 0.1559772 0.3504515
vt 0.1559772 0.3504515
vt 0.1559772 0.3504515
vt 0.1559772 0.3504515
vt 0.1559772 0.3504515
vt 0.1559772 0.3504515
vt 0.1559772 0.3504515
vt 0.1559772 0.3504515
vt 0.1559772 0.3504515
vt 0.1559772 0.3504515
vt 0.1559772 0.3504515
vt 0.1559772 0.3504515
vt 0.1559772 0.3504515
vt 0.1559772 0.3504515
vt 0.1559772 0.3504515
vt 0.1559772 0.3504515
vt 0.1559772 0.3504515
vt 0.1559772 0.3504515
vt 0.1559772 0.3504515
vt 0.1559772 0.3504515
vt 0.1559772 0.3504515
vt 0.1559772 0.3504515
vt 0.1559772 0.3504515
vt 0.1559772 0.3504515
vt 0.1559772 0.3504515
vt 0.1559772 0.3504515
vt 0.1559772 0.3504515
vt 0.1559772 0.3504515
vt 0.1559772 0.3504515
vt 0.1559772 0.3504515
vt 0.1559772 0.3504515
vt 0.1559772 0.3504515
vt 0.1559772 0.3504515
vt 0.1559772 0.3504515
vt 0.1559772 0.3504515
vt 0.1559772 0.3504515
vt 0.1559772 0.3504515
vt 0.1559772 0.3504515
vt 0.1559772 0.3504515
vt 0.1559772 0.3504515
vt 0.1559772 0.3504515
vt 0.1559772 0.3504515
vt 0.1559772 0.3504515
vt 0.1559772 0.3504515
vt 0.1559772 0.3504515
vt 0.1559772 0.3504515
vt 0.1559772 0.3504515
vt 0.1559772 0.3504515
vt 0.1559772 0.3504515
vt 0.1559772 0.3504515
vt 0.1559772 0.3504515
vt 0.1559772 0.3504515
vt 0.1559772 0.3504515
vt 0.1559772 0.3504515
vt 0.1559772 0.3504515
vt 0.1559772 0.3504515
vt 0.1559772 0.3504515
vt 0.1559772 0.3504515
vt 0.1559772 0.3504515
vt 0.1559772 0.3504515
vt 0.1559772 0.3504515
vt 0.1559772 0.3504515
vt 0.1559772 0.3504515
vt 0.1559772 0.3504515
vt 0.1559772 0.3504515
vt 0.1559772 0.3504515
vt 0.1559772 0.3504515
vt 0.1559772 0.3504515
vt 0.1559772 0.3504515
vt 0.1559772 0.3504515
vt 0.1559772 0.3504515
vt 0.1559772 0.3504515
vt 0.1559772 0.3504515
vt 0.1559772 0.3504515
vt 0.1559772 0.3504515
vt 0.1559772 0.3504515
vt 0.1559772 0.3504515
vt 0.1559772 0.3504515
vt 0.1559772 0.3504515
vt 0.1559772 0.3504515
vt 0.1559772 0.3504515
vt 0.1559772 0.3504515
vt 0.1559772 0.3504515
vt 0.1559772 0.3504515
vt 0.1559772 0.3504515
vt 0.1559772 0.3504515
vt 0.1559772 0.3504515
vt 0.1559772 0.3504515
vt 0.1559772 0.3504515
vt 0.1559772 0.3504515
vt 0.1559772 0.3504515
vt 0.1559772 0.3504515
vt 0.1559772 0.3504515
vt 0.1559772 0.3504515
vt 0.1559772 0.3504515
vt 0.1559772 0.3504515
vt 0.1559772 0.3504515
vt 0.1559772 0.3504515
vn 0.6901094 0.373961 -0.6195984
vn 0.6901094 0.3739611 -0.6195983
vn 0.6901094 0.373961 -0.6195984
vn 0.6901094 0.373961 -0.6195983
vn -0.8927055 0.3606982 0.2701366
vn -0.8927055 0.3606982 0.2701366
vn -0.8927055 0.3606982 0.2701366
vn -0.8927055 0.3606982 0.2701366
vn -0.6760921 -0.4267631 0.6006435
vn -0.6760921 -0.4267631 0.6006436
vn -0.6760921 -0.4267631 0.6006435
vn -0.6760921 -0.4267631 0.6006435
vn -0.9244639 -0.08789113 -0.371001
vn -0.9244639 -0.08789115 -0.3710011
vn -0.9244639 -0.08789114 -0.3710011
vn -0.9244639 -0.08789115 -0.3710011
vn -0.9169245 -0.07116932 -0.3926632
vn -0.9169245 -0.07116932 -0.3926632
vn 0.935312 0.001339663 0.3538218
vn 0.935312 0.001339663 0.3538219
vn 0.935312 0.001339663 0.3538219
vn 0.935312 0.001339663 0.3538219
vn 0.9377658 0.00795735 0.3471771
vn 0.9377658 0.00795735 0.3471772
vn 0.4410638 0.4138958 0.7963372
vn 0.4410639 0.4138958 0.7963372
vn 0.4410638 0.4138958 0.7963372
vn 0.4410638 0.4138958 0.7963372
vn -0.09879427 0.3381796 -0.9358816
vn -0.09879425 0.3381796 -0.9358816
vn -0.09879425 0.3381796 -0.9358816
vn -0.09879424 0.3381796 -0.9358815
vn 0.1033029 -0.3862366 0.9165969
vn 0.103303 -0.3862366 0.9165969
vn 0.103303 -0.3862366 0.9165969
vn 0.103303 -0.3862366 0.9165969
vn 0.6062279 0.5765601 -0.547783
vn 0.6062279 0.5765601 -0.547783
vn 0.6062279 0.5765601 -0.547783
vn 0.6062279 0.5765601 -0.547783
vn -0.6099011 -0.5634543 0.557261
vn -0.6099011 -0.5634543 0.557261
vn -0.6099011 -0.5634543 0.557261
vn -0.6099012 -0.5634543 0.557261
vn -0.1103587 0.5447195 -0.8313252
vn -0.1103587 0.5447195 -0.8313252
vn -0.1103587 0.5447195 -0.8313252
vn -0.1103587 0.5447195 -0.8313252
vn 0.1055839 -0.531745 0.8402972
vn 0.1055839 -0.531745 0.8402971
vn 0.1055839 -0.531745 0.8402971
vn 0.1055839 -0.531745 0.8402971
vn 0.512728 0.8082391 -0.2895851
vn 0.512728 0.8082391 -0.2895851
vn 0.512728 0.808239 -0.2895851
vn 0.512728 0.8082391 -0.289585
vn -0.9395334 -0.01527932 -0.3421163
vn -0.9395334 -0.01527932 -0.3421163
vn -0.9395334 -0.01527932 -0.3421163
vn -0.9395334 -0.01527932 -0.3421163
vn -0.5127541 -0.8081858 0.2896875
vn -0.5127541 -0.8081859 0.2896875
vn -0.5127541 -0.8081859 0.2896875
vn -0.5127541 -0.8081859 0.2896875
vn -0.2369799 0.7737895 -0.587444
vn -0.2369799 0.7737895 -0.5874439
vn -0.2369799 0.7737895 -0.587444
vn -0.2369799 0.7737895 -0.5874441
vn 0.2369344 -0.773735 0.5875341
vn 0.2369344 -0.773735 0.5875341
vn 0.2369344 -0.773735 0.587534
vn 0.2369344 -0.773735 0.587534
vn 0.9152687 0.06384251 0.397753
vn 0.9152687 0.06384251 0.3977529
vn 0.9152687 0.0638425 0.3977529
vn 0.9152687 0.0638425 0.3977529
vn 0.3655831 0.9298043 0.04257991
vn 0.3655831 0.9298043 0.04257991
vn 0.3655831 0.9298043 0.0425799
vn 0.3655831 0.9298043 0.04257991
vn -0.9805663 0.1523285 -0.1236355
vn -0.9805663 0.1523286 -0.1236356
vn -0.9805663 0.1523286 -0.1236356
vn -0.9805663 0.1523285 -0.1236355
vn -0.4816768 -0.8743327 0.05941251
vn -0.4816768 -0.8743327 0.05941251
vn -0.4816768 -0.8743327 0.0594125
vn -0.4816768 -0.8743327 0.0594125
vn -0.3676209 0.8953445 -0.251422
vn -0.367621 0.8953445 -0.251422
vn -0.3676209 0.8953445 -0.251422
vn -0.3676209 0.8953445 -0.251422
vn 0.3779972 -0.8331785 0.4036482
vn 0.3779972 -0.8331785 0.4036481
vn 0.3779971 -0.8331785 0.4036482
vn 0.3779972 -0.8331785 0.4036481
vn 0.7824494 0.2275406 0.5796535
vn 0.7824494 0.2275406 0.5796535
vn 0.7824493 0.2275406 0.5796535
vn 0.7824494 0.2275406 0.5796535
g BrokenPlant_0
f 3/3/3 2/2/2 1/1/1
f 4/4/4 3/3/3 1/1/1
f 7/7/7 6/6/6 5/5/5
f 8/8/8 7/7/7 5/5/5
f 11/11/11 10/10/10 9/9/9
f 12/12/12 11/11/11 9/9/9
f 15/15/15 14/14/14 13/13/13
f 14/14/14 16/16/16 13/13/13
f 14/14/14 17/17/17 16/16/16
f 17/17/17 18/18/18 16/16/16
f 21/21/21 20/20/20 19/19/19
f 20/20/20 22/22/22 19/19/19
f 20/20/20 23/23/23 22/22/22
f 23/23/23 24/24/24 22/22/22
f 27/27/27 26/26/26 25/25/25
f 28/28/28 27/27/27 25/25/25
f 31/31/31 30/30/30 29/29/29
f 32/32/32 31/31/31 29/29/29
f 35/35/35 34/34/34 33/33/33
f 36/36/36 35/35/35 33/33/33
f 39/39/39 38/38/38 37/37/37
f 40/40/40 39/39/39 37/37/37
f 43/43/43 42/42/42 41/41/41
f 44/44/44 43/43/43 41/41/41
f 47/47/47 46/46/46 45/45/45
f 48/48/48 47/47/47 45/45/45
f 51/51/51 50/50/50 49/49/49
f 52/52/52 51/51/51 49/49/49
f 55/55/55 54/54/54 53/53/53
f 56/56/56 55/55/55 53/53/53
f 59/59/59 58/58/58 57/57/57
f 60/60/60 59/59/59 57/57/57
f 63/63/63 62/62/62 61/61/61
f 64/64/64 63/63/63 61/61/61
f 67/67/67 66/66/66 65/65/65
f 68/68/68 67/67/67 65/65/65
f 71/71/71 70/70/70 69/69/69
f 72/72/72 71/71/71 69/69/69
f 75/75/75 74/74/74 73/73/73
f 76/76/76 75/75/75 73/73/73
f 79/79/79 78/78/78 77/77/77
f 80/80/80 79/79/79 77/77/77
f 83/83/83 82/82/82 81/81/81
f 84/84/84 83/83/83 81/81/81
f 87/87/87 86/86/86 85/85/85
f 88/88/88 87/87/87 85/85/85
f 91/91/91 90/90/90 89/89/89
f 92/92/92 91/91/91 89/89/89
f 95/95/95 94/94/94 93/93/93
f 96/96/96 95/95/95 93/93/93
f 99/99/99 98/98/98 97/97/97
f 100/100/100 99/99/99 97/97/97
