g Cap
v -0.1255066 0.06073331 -0.1314688
v -0.1347832 1.21405E-09 -0.1411861
v -0.07348502 1.21405E-09 -0.1798646
v -0.06839201 0.06561991 -0.1676704
v -0.1067109 0.1023857 -0.1117803
v 3.317562E-09 1.21405E-09 -0.1928209
v -0.06329898 0.1204195 -0.1314688
v -0.1255066 0.1204195 -0.06630602
v -3.122411E-09 0.07050657 -0.1798646
v 0.07348502 1.21405E-09 -0.1798646
v -0.06839202 0.1535785 -0.07164098
v -0.1347832 0.1293201 -5.830384E-09
v 4.878767E-10 0.1293201 -0.1411861
v 0.068392 0.06561991 -0.1676704
v 0.1347832 1.21405E-09 -0.1411861
v 0.1255066 0.06073331 -0.1314688
v 0.06329898 0.1204195 -0.1314688
v 0.1067109 0.1023857 -0.1117803
v 6.244822E-09 0.1647479 -0.07697595
v 4.049377E-09 0.1736485 -0.01924399
v -0.07348502 0.1647478 -7.499314E-09
v -0.1255066 0.1204195 0.0880947
v 0.068392 0.1535785 -0.07164099
v 0.1255066 0.1204195 -0.066306
v 0.07348502 0.1647479 8.453359E-10
v 0.1347832 0.1293201 8.453359E-10
v -0.06839201 0.1535785 0.09159207
v -0.1199454 0.108609 0.1238086
v -0.01837125 0.1736485 -4.161454E-09
v 1.707569E-09 0.1736485 0.02377236
v 0.068392 0.1535785 0.09159208
v 0.1255066 0.1204195 0.0880947
v 0.01837126 0.1736485 -2.492524E-09
v 0.07114941 0.1295448 0.1338473
v 0.1199454 0.108609 0.1238086
v -0.009520613 0.1835214 0.001090803
v 3.226729E-09 0.1835214 -0.008882088
v 2.013124E-09 0.1835214 0.01341046
v 0.009520617 0.1835214 0.001090803
v -3.122411E-09 0.1647479 0.09508945
v -0.07114941 0.1295448 0.1338473
v 5.483839E-10 0.1398777 0.1388019
v 0.07687407 0.06592686 0.1523056
v 7.019313E-09 0.07159983 0.1585232
v -0.07687408 0.06592686 0.1523056
v -0.1410721 0.06025386 0.1338473
v 0.1410721 0.06025386 0.1338473
v 0.1255066 0.1204195 0.0880947
v -0.1600664 0.06561997 0.09159207
v -0.1255066 0.1204195 0.0880947
v 0.1600664 0.06561997 0.09159207
v 0.1347832 0.1293201 8.453359E-10
v -0.1717076 0.07050657 4.183196E-09
v -0.1347832 0.1293201 -5.830384E-09
v 0.1717076 0.07050657 -7.499314E-09
v 0.1255066 0.1204195 -0.066306
v -0.1600664 0.06561997 -0.07164098
v -0.1255066 0.1204195 -0.06630602
v -0.1255066 0.06073331 -0.1314688
v -0.1067109 0.1023857 -0.1117803
v -0.1347832 1.21405E-09 -0.1411861
v -0.1717076 1.21405E-09 -0.07697595
v -0.1840763 1.21405E-09 -8.23594E-10
v -0.1717076 -0.02383349 0.09508945
v -0.1464551 -0.008313233 0.1388019
v -0.08259875 0.01494905 0.1585232
v 3.948364E-09 0.02341409 0.1651293
v 0.08259875 0.01494905 0.1585232
v 0.1464551 -0.008313233 0.1388019
v 0.1717076 -0.02383349 0.09508945
v 0.1840763 1.21405E-09 -8.23594E-10
v 0.1600664 0.06561997 -0.07164098
v 0.1067109 0.1023857 -0.1117803
v 0.1717076 1.21405E-09 -0.07697595
v 0.1255066 0.06073331 -0.1314688
v 0.1347832 1.21405E-09 -0.1411861
v 3.512712E-09 0.02900005 0.3379669
v 3.512712E-09 0.01762206 0.3379669
v -0.07348502 0.01033038 0.3313607
v -0.07348502 0.02170839 0.3313607
v -0.07348502 0.02170839 0.3313607
v -0.07348502 0.01033038 0.3313607
v -0.1347832 -0.01327264 0.3116395
v -0.1347832 -0.001894648 0.3116395
v 0.1347832 -0.001894648 0.3116395
v 0.1347832 -0.01327264 0.3116395
v 0.07348502 0.01033038 0.3313607
v 0.07348502 0.02170839 0.3313607
v 0.07348502 0.02170839 0.3313607
v 0.07348502 0.01033038 0.3313607
v 3.512712E-09 0.01762206 0.3379669
v 3.512712E-09 0.02900005 0.3379669
v -0.07348502 1.21405E-09 -0.1798646
v -0.07348502 -0.01137799 -0.1798646
v 3.317562E-09 -0.00408638 -0.1928209
v 3.317562E-09 1.21405E-09 -0.1928209
v -0.1347832 1.21405E-09 -0.1411861
v -0.1347832 -0.01137799 -0.1411861
v -0.07348502 -0.01137799 -0.1798646
v -0.07348502 1.21405E-09 -0.1798646
v 0.07348502 1.21405E-09 -0.1798646
v 0.07348502 -0.01137799 -0.1798646
v 0.1347832 -0.01137799 -0.1411861
v 0.1347832 1.21405E-09 -0.1411861
v 3.317562E-09 1.21405E-09 -0.1928209
v 3.317562E-09 -0.00408638 -0.1928209
v 0.07348502 -0.01137799 -0.1798646
v 0.07348502 1.21405E-09 -0.1798646
v 0.1840763 1.21405E-09 -8.23594E-10
v 0.1840763 -0.01137799 -8.23594E-10
v 0.1717076 -0.0352115 0.09508945
v 0.1717076 -0.02383349 0.09508945
v 0.1347832 1.21405E-09 -0.1411861
v 0.1347832 -0.01137799 -0.1411861
v 0.1717076 -0.01137799 -0.07697595
v 0.1717076 1.21405E-09 -0.07697595
v 0.1717076 1.21405E-09 -0.07697595
v 0.1717076 -0.01137799 -0.07697595
v 0.1840763 -0.01137799 -8.23594E-10
v 0.1840763 1.21405E-09 -8.23594E-10
v -0.1840763 1.21405E-09 -8.23594E-10
v -0.1840763 -0.01137799 -8.23594E-10
v -0.1717076 -0.01137799 -0.07697595
v -0.1717076 1.21405E-09 -0.07697595
v -0.1717076 1.21405E-09 -0.07697595
v -0.1717076 -0.01137799 -0.07697595
v -0.1347832 -0.01137799 -0.1411861
v -0.1347832 1.21405E-09 -0.1411861
v -0.1347832 -0.001894648 0.3116395
v -0.1347832 -0.01327264 0.3116395
v -0.1717076 -0.0352115 0.267927
v -0.1717076 -0.02383349 0.267927
v -0.1464551 -0.008313233 0.1388019
v -0.1717076 -0.02383349 0.09508945
v -0.1717076 -0.0352115 0.09508945
v -0.1717076 -0.02383349 0.09508945
v -0.1717076 -0.0352115 0.09508945
v -0.1840763 -0.01137799 -8.23594E-10
v -0.1840763 1.21405E-09 -8.23594E-10
v 3.948364E-09 0.02341409 0.1651293
v 3.512712E-09 0.02900005 0.3379669
v -0.07348502 0.02170839 0.3313607
v -0.08259875 0.01494905 0.1585232
v -0.07348502 0.01033038 0.1585232
v -0.07348502 0.01033038 0.3313607
v 3.512712E-09 0.01762206 0.3379669
v 3.512712E-09 0.01762206 0.1651293
v -0.1717076 -0.01137799 -0.07697595
v -0.1347832 -0.01137799 -0.1411861
v -0.07348502 -0.01137799 -0.1798646
v 3.317562E-09 -0.00408638 -0.1928209
v 0.07348502 -0.01137799 -0.1798646
v 0.1347832 -0.01137799 -0.1411861
v 0.1717076 -0.01137799 -0.07697595
v -0.1840763 -0.01137799 -8.23594E-10
v 0.1840763 -0.01137799 -8.23594E-10
v -0.07348502 0.01033038 0.1585232
v -0.1717076 -0.0352115 0.09508945
v -0.1347832 -0.01327264 0.1388019
v 0.07348502 0.01033038 0.1585232
v 0.1347832 -0.01327264 0.1388019
v 0.1717076 -0.0352115 0.09508945
v -0.1717076 -0.0352115 0.09508945
v -0.1347832 -0.01327264 0.3116395
v -0.1717076 -0.0352115 0.267927
v -0.1347832 -0.01327264 0.1388019
v -0.07348502 0.01033038 0.3313607
v -0.1347832 -0.01327264 0.3116395
v 3.512712E-09 0.01762206 0.1651293
v 0.07348502 0.01033038 0.3313607
v 3.512712E-09 0.01762206 0.3379669
v 0.07348502 0.01033038 0.1585232
v 0.1347832 -0.01327264 0.3116395
v 0.07348502 0.01033038 0.3313607
v -0.08259875 0.01494905 0.1585232
v -0.07348502 0.02170839 0.3313607
v -0.1347832 -0.001894648 0.3116395
v -0.1464551 -0.008313233 0.1388019
v 0.1464551 -0.008313233 0.1388019
v 0.1347832 -0.001894648 0.3116395
v 0.07348502 0.02170839 0.3313607
v 0.08259875 0.01494905 0.1585232
v 0.08259875 0.01494905 0.1585232
v 0.07348502 0.02170839 0.3313607
v 3.512712E-09 0.02900005 0.3379669
v 3.948364E-09 0.02341409 0.1651293
v 0.1717076 -0.02383349 0.09508945
v 0.1347832 -0.001894648 0.3116395
v 0.1464551 -0.008313233 0.1388019
v 0.1717076 -0.02383349 0.267927
v 0.1717076 -0.0352115 0.09508945
v 0.1347832 -0.01327264 0.3116395
v 0.1717076 -0.0352115 0.267927
v 0.1347832 -0.01327264 0.1388019
v 0.1347832 -0.01327264 0.3116395
v 0.1717076 -0.0352115 0.267927
vt 0.4111328 0.1270752
vt 0.4111328 0.1341553
vt 0.4182129 0.1341553
vt 0.4182129 0.1270752
vt 0.4111328 0.1199341
vt 0.425293 0.1341553
vt 0.4182129 0.1199341
vt 0.4111328 0.112854
vt 0.425293 0.1270752
vt 0.4326172 0.1341553
vt 0.4182129 0.112854
vt 0.4111328 0.1057129
vt 0.425293 0.1199341
vt 0.4326172 0.1270752
vt 0.4396973 0.1341553
vt 0.4396973 0.1270752
vt 0.4326172 0.1199341
vt 0.4396973 0.1199341
vt 0.425293 0.112854
vt 0.425293 0.1092529
vt 0.4182129 0.1057129
vt 0.4111328 0.09863281
vt 0.4326172 0.112854
vt 0.4396973 0.112854
vt 0.4326172 0.1057129
vt 0.4396973 0.1057129
vt 0.4182129 0.09863281
vt 0.4111328 0.09155273
vt 0.421875 0.1057129
vt 0.425293 0.1021729
vt 0.4326172 0.09863281
vt 0.4396973 0.09863281
vt 0.4289551 0.1057129
vt 0.4326172 0.09155273
vt 0.4396973 0.09155273
vt 0.421875 0.1057129
vt 0.425293 0.1092529
vt 0.425293 0.1021729
vt 0.4289551 0.1057129
vt 0.425293 0.09863281
vt 0.4182129 0.09155273
vt 0.425293 0.09155273
vt 0.4326172 0.08441162
vt 0.425293 0.08441162
vt 0.4182129 0.08441162
vt 0.4111328 0.08441162
vt 0.4396973 0.08441162
vt 0.4467773 0.09155273
vt 0.4040527 0.08441162
vt 0.4040527 0.09155273
vt 0.4467773 0.08441162
vt 0.4538574 0.09155273
vt 0.3969727 0.08441162
vt 0.3969727 0.09155273
vt 0.4538574 0.08441162
vt 0.4609375 0.09155273
vt 0.3898926 0.08441162
vt 0.3898926 0.09155273
vt 0.3828125 0.08441162
vt 0.3828125 0.09155273
vt 0.3828125 0.07733154
vt 0.3898926 0.07733154
vt 0.3969727 0.07733154
vt 0.4040527 0.07733154
vt 0.4111328 0.07733154
vt 0.4182129 0.07733154
vt 0.425293 0.07733154
vt 0.4326172 0.07733154
vt 0.4396973 0.07733154
vt 0.4467773 0.07733154
vt 0.4538574 0.07733154
vt 0.4609375 0.08441162
vt 0.4680176 0.09155273
vt 0.4609375 0.07733154
vt 0.4680176 0.08441162
vt 0.4680176 0.07733154
vt 0.3686523 0.06317139
vt 0.3686523 0.1767578
vt 0.4821777 0.1767578
vt 0.4821777 0.06317139
vt 0.3686523 0.06317139
vt 0.3686523 0.1767578
vt 0.4821777 0.1767578
vt 0.4821777 0.06317139
vt 0.3686523 0.06317139
vt 0.3686523 0.1767578
vt 0.4821777 0.1767578
vt 0.4821777 0.06317139
vt 0.3686523 0.06317139
vt 0.3686523 0.1767578
vt 0.4821777 0.1767578
vt 0.4821777 0.06317139
vt 0.3686523 0.06317139
vt 0.3686523 0.1767578
vt 0.4821777 0.1767578
vt 0.4821777 0.06317139
vt 0.3686523 0.06317139
vt 0.3686523 0.1767578
vt 0.4821777 0.1767578
vt 0.4821777 0.06317139
vt 0.3686523 0.06317139
vt 0.3686523 0.1767578
vt 0.4821777 0.1767578
vt 0.4821777 0.06317139
vt 0.3686523 0.06317139
vt 0.3686523 0.1767578
vt 0.4821777 0.1767578
vt 0.4821777 0.06317139
vt 0.3686523 0.06317139
vt 0.3686523 0.1767578
vt 0.4821777 0.1767578
vt 0.4821777 0.06317139
vt 0.3686523 0.06317139
vt 0.3686523 0.1767578
vt 0.4821777 0.1767578
vt 0.4821777 0.06317139
vt 0.3686523 0.06317139
vt 0.3686523 0.1767578
vt 0.4821777 0.1767578
vt 0.4821777 0.06317139
vt 0.3686523 0.06317139
vt 0.3686523 0.1767578
vt 0.4821777 0.1767578
vt 0.4821777 0.06317139
vt 0.3686523 0.06317139
vt 0.3686523 0.1767578
vt 0.4821777 0.1767578
vt 0.4821777 0.06317139
vt 0.3686523 0.06317139
vt 0.3686523 0.1767578
vt 0.4821777 0.1767578
vt 0.4821777 0.06317139
vt 0.3686523 0.06317139
vt 0.4821777 0.06317139
vt 0.4821777 0.1767578
vt 0.3686523 0.06317139
vt 0.3686523 0.1767578
vt 0.4821777 0.1767578
vt 0.4821777 0.06317139
vt 0.3686523 0.06317139
vt 0.3686523 0.06317139
vt 0.4821777 0.06317139
vt 0.4821777 0.06317139
vt 0.4821777 0.1767578
vt 0.4821777 0.1767578
vt 0.3686523 0.1767578
vt 0.3686523 0.1767578
vt 0.3686523 0.1767578
vt 0.3686523 0.1767578
vt 0.3686523 0.1767578
vt 0.3686523 0.1767578
vt 0.3686523 0.1767578
vt 0.3686523 0.1767578
vt 0.3686523 0.1767578
vt 0.3686523 0.1767578
vt 0.3686523 0.1767578
vt 0.3686523 0.1767578
vt 0.3686523 0.1767578
vt 0.3686523 0.1767578
vt 0.3686523 0.1767578
vt 0.3686523 0.1767578
vt 0.3686523 0.1767578
vt 0.4821777 0.1767578
vt 0.3686523 0.1767578
vt 0.4821777 0.1767578
vt 0.4821777 0.1767578
vt 0.3686523 0.1767578
vt 0.4821777 0.1767578
vt 0.4821777 0.1767578
vt 0.3686523 0.1767578
vt 0.4821777 0.1767578
vt 0.4821777 0.1767578
vt 0.3686523 0.1767578
vt 0.4821777 0.1767578
vt 0.3686523 0.06317139
vt 0.3686523 0.06317139
vt 0.4821777 0.06317139
vt 0.4821777 0.06317139
vt 0.3686523 0.06317139
vt 0.3686523 0.06317139
vt 0.4821777 0.06317139
vt 0.4821777 0.06317139
vt 0.3686523 0.06317139
vt 0.3686523 0.06317139
vt 0.4821777 0.06317139
vt 0.4821777 0.06317139
vt 0.3686523 0.06317139
vt 0.4821777 0.06317139
vt 0.4821777 0.06317139
vt 0.3686523 0.06317139
vt 0.3686523 0.1767578
vt 0.4821777 0.1767578
vt 0.3686523 0.1767578
vt 0.4821777 0.1767578
vt 0.4821777 0.1767578
vt 0.3686523 0.1767578
vn -0.6821289 0.3317871 -0.6513672
vn -0.7114258 0.1741943 -0.6806641
vn -0.3579102 0.1717529 -0.9179688
vn -0.3393555 0.3535156 -0.871582
vn -0.5776367 0.6030273 -0.550293
vn 0 0.1685791 -0.9858398
vn -0.3134766 0.7001953 -0.6416016
vn -0.6616211 0.6894531 -0.2944336
vn 0 0.3713379 -0.9287109
vn 0.3579102 0.1717529 -0.9179688
vn -0.3222656 0.8950195 -0.3076172
vn -0.6928711 0.7207031 0.0005803108
vn 0 0.7358398 -0.6772461
vn 0.3393555 0.3535156 -0.871582
vn 0.7114258 0.1741943 -0.6806641
vn 0.6821289 0.3317871 -0.6513672
vn 0.3134766 0.7001953 -0.6416016
vn 0.5776367 0.6030273 -0.550293
vn 0 0.9462891 -0.3232422
vn -2.980232E-07 0.9858398 -0.1680908
vn -0.3361816 0.9418945 0.0003139973
vn -0.6748047 0.7089844 0.2054443
vn 0.3222656 0.8950195 -0.3076172
vn 0.6616211 0.6894531 -0.2944336
vn 0.3361816 0.9418945 0.0003139973
vn 0.6928711 0.7207031 0.0005803108
vn -0.3129883 0.9199219 0.2352295
vn -0.527832 0.5288086 0.6650391
vn -0.1759033 0.984375 -0.00353241
vn -3.576279E-07 0.9912109 0.1340332
vn 0.3129883 0.9199219 0.2352295
vn 0.6748047 0.7089844 0.2054443
vn 0.1757813 0.984375 -0.00353241
vn 0.2365723 0.5644531 0.7910156
vn 0.527832 0.5288086 0.6650391
vn -0.5668945 0.8237305 0.009506226
vn -9.536743E-07 0.8486328 -0.5292969
vn -8.34465E-07 0.8344727 0.5507813
vn 0.5668945 0.8237305 0.009506226
vn 0 0.9663086 0.2575684
vn -0.2365723 0.5644531 0.7910156
vn 0 0.574707 0.8183594
vn 0.1889648 0.2104492 0.9589844
vn 0 0.2199707 0.9755859
vn -0.1889648 0.2104492 0.9589844
vn -0.6298828 0.2338867 0.7407227
vn 0.6298828 0.2338867 0.7407227
vn 0.6748047 0.7089844 0.2054443
vn -0.9238281 0.3056641 0.2298584
vn -0.6748047 0.7089844 0.2054443
vn 0.9238281 0.3056641 0.2298584
vn 0.6928711 0.7207031 0.0005803108
vn -0.9399414 0.3413086 0.01285553
vn -0.6928711 0.7207031 0.0005803108
vn 0.9399414 0.3413086 0.01285553
vn 0.6616211 0.6894531 -0.2944336
vn -0.8852539 0.3432617 -0.3144531
vn -0.6616211 0.6894531 -0.2944336
vn -0.6821289 0.3317871 -0.6513672
vn -0.5776367 0.6030273 -0.550293
vn -0.7114258 0.1741943 -0.6806641
vn -0.9311523 0.1619873 -0.3271484
vn -0.9892578 0.1434326 0.02833557
vn -0.9560547 0.2341309 0.1768799
vn -0.5839844 0.7841797 0.2095947
vn -0.2202148 0.1242065 0.9672852
vn 0 0.1334229 0.9912109
vn 0.2202148 0.1242065 0.9672852
vn 0.5839844 0.7841797 0.2095947
vn 0.9560547 0.2341309 0.1768799
vn 0.9892578 0.1434326 0.02833557
vn 0.8852539 0.3432617 -0.3144531
vn 0.5776367 0.6030273 -0.550293
vn 0.9311523 0.1619873 -0.3271484
vn 0.6821289 0.3317871 -0.6513672
vn 0.7114258 0.1741943 -0.6806641
vn 0 0 1
vn 0 0 1
vn -0.2061768 0 0.9785156
vn -0.1749268 0 0.984375
vn -0.1749268 0 0.984375
vn -0.2061768 0 0.9785156
vn -0.5966797 0 0.8027344
vn -0.4074707 0.9116211 0.05758667
vn 0.4074707 0.9116211 0.05758667
vn 0.5966797 0 0.8027344
vn 0.2061768 0 0.9785156
vn 0.1749268 0 0.984375
vn 0.1749268 0 0.984375
vn 0.2061768 0 0.9785156
vn 0 0 1
vn 0 0 1
vn -0.3579102 0.1717529 -0.9179688
vn -0.3981934 0 -0.9174805
vn -4.768372E-07 0 -1
vn 0 0.1685791 -0.9858398
vn -0.7114258 0.1741943 -0.6806641
vn -0.7231445 0 -0.6904297
vn -0.3981934 0 -0.9174805
vn -0.3579102 0.1717529 -0.9179688
vn 0.3579102 0.1717529 -0.9179688
vn 0.3981934 0 -0.9174805
vn 0.7231445 0 -0.6904297
vn 0.7114258 0.1741943 -0.6806641
vn 0 0.1685791 -0.9858398
vn -4.768372E-07 0 -1
vn 0.3981934 0 -0.9174805
vn 0.3579102 0.1717529 -0.9179688
vn 0.9892578 0.1434326 0.02833557
vn 1 0 0.01026917
vn 0.9990234 0 0.04122925
vn 0.9560547 0.2341309 0.1768799
vn 0.7114258 0.1741943 -0.6806641
vn 0.7231445 0 -0.6904297
vn 0.9443359 0 -0.3295898
vn 0.9311523 0.1619873 -0.3271484
vn 0.9311523 0.1619873 -0.3271484
vn 0.9443359 0 -0.3295898
vn 1 0 0.01026917
vn 0.9892578 0.1434326 0.02833557
vn -0.9892578 0.1434326 0.02833557
vn -1 0 0.01026917
vn -0.9443359 0 -0.3295898
vn -0.9311523 0.1619873 -0.3271484
vn -0.9311523 0.1619873 -0.3271484
vn -0.9443359 0 -0.3295898
vn -0.7231445 0 -0.6904297
vn -0.7114258 0.1741943 -0.6806641
vn -0.4074707 0.9116211 0.05758667
vn -0.5966797 0 0.8027344
vn -0.9907227 0 0.1359863
vn -0.684082 0.7275391 0.05029297
vn -0.5839844 0.7841797 0.2095947
vn -0.9560547 0.2341309 0.1768799
vn -0.9990234 0 0.04122925
vn -0.9560547 0.2341309 0.1768799
vn -0.9990234 0 0.04122925
vn -1 0 0.01026917
vn -0.9892578 0.1434326 0.02833557
vn 0 0.9995117 -0.03311157
vn 0 0.9995117 -0.03311157
vn -0.1916504 0.980957 -0.02644348
vn -0.230835 0.9726563 -0.02363586
vn 0.2205811 -0.9755859 0.005363464
vn 0.206543 -0.9785156 0
vn 0 -1 0
vn 0 -0.9995117 0.02227783
vn 0.1032715 -0.9936523 0.04574585
vn 0.06103516 -0.9960938 0.06744385
vn 0.08282471 -0.9941406 0.06591797
vn 0 -0.9980469 0.06054688
vn -0.08282471 -0.9941406 0.06591797
vn -0.06103516 -0.9960938 0.06744385
vn -0.1032715 -0.9936523 0.04574585
vn 0.1966553 -0.9804688 -0.01805115
vn -0.1700439 -0.9853516 0.005161285
vn 0.2205811 -0.9755859 0.005363464
vn 0.5336914 -0.8276367 -0.173584
vn 0.4326172 -0.9013672 0.01791382
vn -0.2142334 -0.9765625 0.008499146
vn -0.4428711 -0.8955078 -0.04019165
vn -0.6113281 -0.7817383 -0.1240234
vn 0.5336914 -0.8276367 -0.173584
vn 0.3928223 -0.9194336 0
vn 0.5107422 -0.8598633 0
vn 0.4326172 -0.9013672 0.01791382
vn 0.206543 -0.9785156 0
vn 0.3928223 -0.9194336 0
vn 0 -0.9995117 0.02227783
vn -0.206543 -0.9785156 0
vn 0 -1 0
vn -0.2142334 -0.9765625 0.008499146
vn -0.3928223 -0.9194336 0
vn -0.206543 -0.9785156 0
vn -0.230835 0.9726563 -0.02363586
vn -0.1916504 0.980957 -0.02644348
vn -0.4074707 0.9116211 0.05758667
vn -0.5839844 0.7841797 0.2095947
vn 0.5839844 0.7841797 0.2095947
vn 0.4074707 0.9116211 0.05758667
vn 0.1916504 0.980957 -0.02644348
vn 0.230835 0.9726563 -0.02363586
vn 0.230835 0.9726563 -0.02363586
vn 0.1916504 0.980957 -0.02644348
vn 0 0.9995117 -0.03311157
vn 0 0.9995117 -0.03311157
vn 0.9560547 0.2341309 0.1768799
vn 0.4074707 0.9116211 0.05758667
vn 0.5839844 0.7841797 0.2095947
vn 0.684082 0.7275391 0.05029297
vn 0.9990234 0 0.04122925
vn 0.5966797 0 0.8027344
vn 0.9907227 0 0.1359863
vn -0.4428711 -0.8955078 -0.04019165
vn -0.3928223 -0.9194336 0
vn -0.5107422 -0.8598633 0
g Cap_0
f 3/3/3 2/2/2 1/1/1
f 4/4/4 3/3/3 1/1/1
f 4/4/4 1/1/1 5/5/5
f 6/6/6 3/3/3 4/4/4
f 7/7/7 4/4/4 5/5/5
f 7/7/7 5/5/5 8/8/8
f 9/9/9 6/6/6 4/4/4
f 9/9/9 4/4/4 7/7/7
f 10/10/10 6/6/6 9/9/9
f 11/11/11 7/7/7 8/8/8
f 11/11/11 8/8/8 12/12/12
f 13/13/13 9/9/9 7/7/7
f 13/13/13 7/7/7 11/11/11
f 14/14/14 10/10/10 9/9/9
f 14/14/14 9/9/9 13/13/13
f 15/15/15 10/10/10 14/14/14
f 16/16/16 15/15/15 14/14/14
f 16/16/16 14/14/14 17/17/17
f 17/17/17 14/14/14 13/13/13
f 18/18/18 16/16/16 17/17/17
f 17/17/17 13/13/13 19/19/19
f 19/19/19 13/13/13 11/11/11
f 20/20/20 19/19/19 11/11/11
f 11/11/11 21/21/21 20/20/20
f 21/21/21 11/11/11 12/12/12
f 21/21/21 12/12/12 22/22/22
f 18/18/18 17/17/17 23/23/23
f 23/23/23 17/17/17 19/19/19
f 23/23/23 19/19/19 20/20/20
f 24/24/24 18/18/18 23/23/23
f 24/24/24 23/23/23 25/25/25
f 20/20/20 25/25/25 23/23/23
f 26/26/26 24/24/24 25/25/25
f 27/27/27 21/21/21 22/22/22
f 27/27/27 22/22/22 28/28/28
f 21/21/21 29/29/29 20/20/20
f 29/29/29 21/21/21 27/27/27
f 27/27/27 30/30/30 29/29/29
f 26/26/26 25/25/25 31/31/31
f 30/30/30 31/31/31 25/25/25
f 32/32/32 26/26/26 31/31/31
f 20/20/20 33/33/33 25/25/25
f 25/25/25 33/33/33 30/30/30
f 32/32/32 31/31/31 34/34/34
f 35/35/35 32/32/32 34/34/34
f 29/29/29 36/36/36 20/20/20
f 20/20/20 37/37/37 33/33/33
f 36/36/36 37/37/37 20/20/20
f 38/38/38 36/36/36 29/29/29
f 36/36/36 38/38/38 37/37/37
f 30/30/30 38/38/38 29/29/29
f 37/37/37 39/39/39 33/33/33
f 38/38/38 39/39/39 37/37/37
f 39/39/39 38/38/38 30/30/30
f 33/33/33 39/39/39 30/30/30
f 27/27/27 40/40/40 30/30/30
f 30/30/30 40/40/40 31/31/31
f 40/40/40 27/27/27 41/41/41
f 41/41/41 27/27/27 28/28/28
f 31/31/31 40/40/40 42/42/42
f 42/42/42 40/40/40 41/41/41
f 34/34/34 31/31/31 42/42/42
f 35/35/35 34/34/34 43/43/43
f 34/34/34 42/42/42 44/44/44
f 43/43/43 34/34/34 44/44/44
f 42/42/42 41/41/41 45/45/45
f 44/44/44 42/42/42 45/45/45
f 41/41/41 28/28/28 46/46/46
f 45/45/45 41/41/41 46/46/46
f 47/47/47 35/35/35 43/43/43
f 48/48/48 35/35/35 47/47/47
f 46/46/46 28/28/28 49/49/49
f 28/28/28 50/50/50 49/49/49
f 51/51/51 48/48/48 47/47/47
f 52/52/52 48/48/48 51/51/51
f 49/49/49 50/50/50 53/53/53
f 50/50/50 54/54/54 53/53/53
f 55/55/55 52/52/52 51/51/51
f 56/56/56 52/52/52 55/55/55
f 53/53/53 54/54/54 57/57/57
f 54/54/54 58/58/58 57/57/57
f 57/57/57 58/58/58 59/59/59
f 58/58/58 60/60/60 59/59/59
f 57/57/57 59/59/59 61/61/61
f 62/62/62 57/57/57 61/61/61
f 53/53/53 57/57/57 62/62/62
f 63/63/63 53/53/53 62/62/62
f 49/49/49 53/53/53 63/63/63
f 64/64/64 49/49/49 63/63/63
f 46/46/46 49/49/49 64/64/64
f 65/65/65 46/46/46 64/64/64
f 45/45/45 46/46/46 65/65/65
f 66/66/66 45/45/45 65/65/65
f 44/44/44 45/45/45 66/66/66
f 67/67/67 44/44/44 66/66/66
f 43/43/43 44/44/44 67/67/67
f 68/68/68 43/43/43 67/67/67
f 47/47/47 43/43/43 68/68/68
f 69/69/69 47/47/47 68/68/68
f 51/51/51 47/47/47 69/69/69
f 70/70/70 51/51/51 69/69/69
f 55/55/55 51/51/51 70/70/70
f 71/71/71 55/55/55 70/70/70
f 72/72/72 55/55/55 71/71/71
f 72/72/72 56/56/56 55/55/55
f 73/73/73 56/56/56 72/72/72
f 74/74/74 72/72/72 71/71/71
f 75/75/75 73/73/73 72/72/72
f 75/75/75 72/72/72 74/74/74
f 76/76/76 75/75/75 74/74/74
f 79/79/79 78/78/78 77/77/77
f 80/80/80 79/79/79 77/77/77
f 83/83/83 82/82/82 81/81/81
f 84/84/84 83/83/83 81/81/81
f 87/87/87 86/86/86 85/85/85
f 88/88/88 87/87/87 85/85/85
f 91/91/91 90/90/90 89/89/89
f 92/92/92 91/91/91 89/89/89
f 95/95/95 94/94/94 93/93/93
f 96/96/96 95/95/95 93/93/93
f 99/99/99 98/98/98 97/97/97
f 100/100/100 99/99/99 97/97/97
f 103/103/103 102/102/102 101/101/101
f 104/104/104 103/103/103 101/101/101
f 107/107/107 106/106/106 105/105/105
f 108/108/108 107/107/107 105/105/105
f 111/111/111 110/110/110 109/109/109
f 112/112/112 111/111/111 109/109/109
f 115/115/115 114/114/114 113/113/113
f 116/116/116 115/115/115 113/113/113
f 119/119/119 118/118/118 117/117/117
f 120/120/120 119/119/119 117/117/117
f 123/123/123 122/122/122 121/121/121
f 124/124/124 123/123/123 121/121/121
f 127/127/127 126/126/126 125/125/125
f 128/128/128 127/127/127 125/125/125
f 131/131/131 130/130/130 129/129/129
f 132/132/132 131/131/131 129/129/129
f 132/132/132 129/129/129 133/133/133
f 134/134/134 132/132/132 133/133/133
f 131/131/131 132/132/132 134/134/134
f 135/135/135 131/131/131 134/134/134
f 138/138/138 137/137/137 136/136/136
f 139/139/139 138/138/138 136/136/136
f 142/142/142 141/141/141 140/140/140
f 143/143/143 142/142/142 140/140/140
f 146/146/146 145/145/145 144/144/144
f 147/147/147 146/146/146 144/144/144
f 149/149/149 147/147/147 148/148/148
f 150/150/150 147/147/147 149/149/149
f 151/151/151 147/147/147 150/150/150
f 152/152/152 147/147/147 151/151/151
f 153/153/153 147/147/147 152/152/152
f 154/154/154 147/147/147 153/153/153
f 148/148/148 147/147/147 155/155/155
f 156/156/156 147/147/147 154/154/154
f 155/155/155 147/147/147 157/157/157
f 155/155/155 157/157/157 158/158/158
f 158/158/158 157/157/157 159/159/159
f 156/156/156 160/160/160 147/147/147
f 156/156/156 161/161/161 160/160/160
f 162/162/162 161/161/161 156/156/156
f 159/159/159 164/164/164 163/163/163
f 164/164/164 165/165/165 163/163/163
f 157/157/157 167/167/167 166/166/166
f 167/167/167 168/168/168 166/166/166
f 160/160/160 170/170/170 169/169/169
f 170/170/170 171/171/171 169/169/169
f 161/161/161 173/173/173 172/172/172
f 173/173/173 174/174/174 172/172/172
f 177/177/177 176/176/176 175/175/175
f 178/178/178 177/177/177 175/175/175
f 181/181/181 180/180/180 179/179/179
f 182/182/182 181/181/181 179/179/179
f 185/185/185 184/184/184 183/183/183
f 186/186/186 185/185/185 183/183/183
f 189/189/189 188/188/188 187/187/187
f 188/188/188 190/190/190 187/187/187
f 187/187/187 190/190/190 191/191/191
f 188/188/188 192/192/192 190/190/190
f 190/190/190 193/193/193 191/191/191
f 192/192/192 193/193/193 190/190/190
f 196/196/196 195/195/195 194/194/194
f 162/162/162 196/196/196 194/194/194
