g Clipboard
v -0.06757338 -0.02254182 0.2097038
v -0.1764469 -0.04729481 0.1252185
v -0.1795507 -0.0336432 0.1252185
v -0.07067713 -0.008890205 0.2097038
v 0.02493194 0.01284705 0.1961232
v -0.01702617 -0.01104963 0.2232201
v -0.02012994 0.00260198 0.2232201
v 0.02803571 -0.0008045594 0.1961232
v 0.1577152 0.0286788 0.02037113
v 0.1546115 0.0423304 0.02037113
v 0.1677914 0.04532695 -0.03146601
v 0.1708952 0.03167533 -0.03146601
v -0.02012994 0.00260198 0.2232201
v -0.01702617 -0.01104963 0.2232201
v -0.06757338 -0.02254182 0.2097038
v -0.07067713 -0.008890205 0.2097038
v -0.1795507 -0.0336432 0.1252185
v -0.1764469 -0.04729481 0.1252185
v -0.2028695 -0.05330216 0.07900664
v -0.2059733 -0.03965054 0.07900664
v -0.2059733 -0.03965054 0.07900664
v -0.2028695 -0.05330216 0.07900664
v -0.1896896 -0.05030561 0.02716952
v -0.1927933 -0.03665399 0.02716952
v -0.06311381 -0.007170639 -0.1485825
v -0.06001005 -0.02082225 -0.1485825
v -0.01494814 -0.01057719 -0.1756795
v -0.01805192 0.003074434 -0.1756795
v 0.1413688 0.03931961 -0.07767788
v 0.1708952 0.03167533 -0.03146601
v 0.1677914 0.04532695 -0.03146601
v 0.1444726 0.02566801 -0.07767785
v 0.03559905 0.0009149992 -0.1621632
v 0.03249526 0.01456662 -0.1621632
v -0.01805192 0.003074434 -0.1756795
v -0.01494814 -0.01057719 -0.1756795
v -0.1795507 -0.0336432 0.1252185
v -0.2059733 -0.03965054 0.07900664
v -0.1584374 -0.02884299 0.09661575
v -0.1927933 -0.03665399 0.02716952
v 0.02493194 0.01284705 0.1961232
v -0.04957481 -0.004092472 0.1810926
v -0.02012994 0.00260198 0.2232201
v -0.07067713 -0.008890205 0.2097038
v 0.1546115 0.0423304 0.02037113
v 0.1677914 0.04532695 -0.03146601
v 0.1413688 0.03931961 -0.07767788
v -0.06311381 -0.007170639 -0.1485825
v 0.03249526 0.01456662 -0.1621632
v -0.01805192 0.003074434 -0.1756795
v -0.1764469 -0.04729481 0.1252185
v -0.06757338 -0.02254182 0.2097038
v -0.04647098 -0.01774408 0.1810926
v -0.1553336 -0.04249461 0.09661574
v 0.03559905 0.0009149992 -0.1621632
v -0.01494814 -0.01057719 -0.1756795
v -0.06001005 -0.02082225 -0.1485825
v 0.1444726 0.02566801 -0.07767785
v -0.1896896 -0.05030561 0.02716952
v 0.1708952 0.03167533 -0.03146601
v 0.1577152 0.0286788 0.02037113
v 0.02803571 -0.0008045594 0.1961232
v -0.04647098 -0.01774408 0.1810926
v -0.01702617 -0.01104963 0.2232201
v -0.06757338 -0.02254182 0.2097038
v -0.1553336 -0.04249461 0.09661574
v -0.2028695 -0.05330216 0.07900664
v -0.1764469 -0.04729481 0.1252185
v -0.07018617 -0.00275419 0.2072733
v -0.1790597 -0.0275072 0.122788
v -0.1609401 -0.01783531 0.09661575
v -0.05207745 0.006915216 0.1810926
v -0.07067713 -0.008890205 0.2097038
v -0.07018617 -0.00275419 0.2072733
v -0.05207745 0.006915216 0.1810926
v -0.04957481 -0.004092472 0.1810926
v -0.04957481 -0.004092472 0.1810926
v -0.05207745 0.006915216 0.1810926
v -0.1609401 -0.01783531 0.09661575
v -0.1584374 -0.02884299 0.09661575
v -0.1584374 -0.02884299 0.09661575
v -0.1609401 -0.01783531 0.09661575
v -0.1790597 -0.0275072 0.122788
v -0.1795507 -0.0336432 0.1252185
v -0.1795507 -0.0336432 0.1252185
v -0.1790597 -0.0275072 0.122788
v -0.07018617 -0.00275419 0.2072733
v -0.07067713 -0.008890205 0.2097038
vt 0.0725708 0.9335938
vt 0.0725708 0.8779297
vt 0.06695557 0.8779297
vt 0.06695557 0.9335938
vt 0.09509277 0.08764648
vt 0.09332275 0.09381104
vt 0.09509277 0.09381104
vt 0.09332275 0.08764648
vt 0.09332275 0.05859375
vt 0.09509277 0.05859375
vt 0.09509277 0.0524292
vt 0.09332275 0.0524292
vt 0.09112549 0.1290283
vt 0.09289551 0.1290283
vt 0.09289551 0.1228638
vt 0.09112549 0.1228638
vt 0.09112549 0.1054077
vt 0.09289551 0.1054077
vt 0.09289551 0.09924316
vt 0.09112549 0.09924316
vt 0.09112549 0.09381104
vt 0.09289551 0.09381104
vt 0.09289551 0.08764648
vt 0.09112549 0.08764648
vt 0.09112549 0.05859375
vt 0.09289551 0.05859375
vt 0.09289551 0.0524292
vt 0.09112549 0.0524292
vt 0.08990479 0.1228638
vt 0.0881958 0.1290283
vt 0.08990479 0.1290283
vt 0.0881958 0.1228638
vt 0.0881958 0.1054077
vt 0.08990479 0.1054077
vt 0.08990479 0.09924316
vt 0.0881958 0.09924316
vt 0.0463562 0.09893799
vt 0.05252075 0.09637451
vt 0.0463562 0.09448242
vt 0.05508423 0.09020996
vt 0.02017212 0.09020996
vt 0.02890015 0.09448242
vt 0.02272034 0.09637451
vt 0.02888489 0.09893799
vt 0.02017212 0.06115723
vt 0.02272034 0.05499268
vt 0.02888489 0.0524292
vt 0.05508423 0.06115723
vt 0.0463562 0.0524292
vt 0.05252075 0.05499268
vt 0.1193848 0.859375
vt 0.0637207 0.859375
vt 0.0637207 0.8735352
vt 0.1193848 0.8735352
vt 0.08184814 0.09893799
vt 0.0880127 0.09637451
vt 0.09057617 0.09020996
vt 0.06439209 0.09893799
vt 0.09057617 0.06115723
vt 0.05819702 0.09637451
vt 0.05566406 0.09020996
vt 0.05566406 0.06115723
vt 0.06439209 0.05688477
vt 0.05819702 0.05499268
vt 0.06439209 0.0524292
vt 0.08184814 0.05688477
vt 0.0880127 0.05499268
vt 0.08184814 0.0524292
vt 0.05612183 0.9140625
vt 0.05612183 0.8583984
vt 0.0430603 0.8583984
vt 0.0430603 0.9140625
vt 0.03114319 0.8725586
vt 0.03347778 0.871582
vt 0.03564453 0.8583984
vt 0.03114319 0.8583984
vt 0.03710938 0.9140625
vt 0.04159546 0.9140625
vt 0.04159546 0.8583984
vt 0.03710938 0.8583984
vt 0.02967834 0.8583984
vt 0.025177 0.8583984
vt 0.02732849 0.871582
vt 0.02967834 0.8725586
vt 0.06695557 0.8779297
vt 0.06463623 0.8779297
vt 0.06463623 0.9335938
vt 0.06695557 0.9335938
vn -0.5014648 -0.1140137 0.8579102
vn -0.668457 -0.1519775 0.7280273
vn -0.668457 -0.1519775 0.7280273
vn -0.5014648 -0.1140137 0.8579102
vn 0.730957 0.1661377 0.6621094
vn 0.4931641 0.1121216 0.862793
vn 0.4931641 0.1121216 0.862793
vn 0.730957 0.1661377 0.6621094
vn 0.8198242 0.1864014 0.5415039
vn 0.8198242 0.1864014 0.5415039
vn 0.9433594 0.2144775 0.2521973
vn 0.9433594 0.2144775 0.2521973
vn -0.2459717 -0.05593872 0.9677734
vn -0.2459717 -0.05593872 0.9677734
vn -0.5014648 -0.1140137 0.8579102
vn -0.5014648 -0.1140137 0.8579102
vn -0.668457 -0.1519775 0.7280273
vn -0.668457 -0.1519775 0.7280273
vn -0.8413086 -0.1912842 0.5058594
vn -0.8413086 -0.1912842 0.5058594
vn -0.9433594 -0.2144775 -0.2521973
vn -0.9433594 -0.2144775 -0.2521973
vn -0.8198242 -0.1864014 -0.5415039
vn -0.8198242 -0.1864014 -0.5415039
vn -0.730957 -0.1661377 -0.6621094
vn -0.730957 -0.1661377 -0.6621094
vn -0.4931641 -0.1121216 -0.862793
vn -0.4931641 -0.1121216 -0.862793
vn 0.668457 0.1519775 -0.7280273
vn 0.8413086 0.1912842 -0.5058594
vn 0.8413086 0.1912842 -0.5058594
vn 0.668457 0.1519775 -0.7280273
vn 0.5014648 0.1140137 -0.8579102
vn 0.5014648 0.1140137 -0.8579102
vn 0.2459717 0.05593872 -0.9677734
vn 0.2459717 0.05593872 -0.9677734
vn -0.2216797 0.9750977 0
vn -0.2216797 0.9750977 0
vn -0.2216797 0.9750977 0
vn -0.2216797 0.9750977 0
vn -0.2216797 0.9750977 0
vn -0.2216797 0.9750977 0
vn -0.2216797 0.9750977 0
vn -0.2216797 0.9750977 0
vn -0.2216797 0.9750977 0
vn -0.2216797 0.9750977 0
vn -0.2216797 0.9750977 0
vn -0.2216797 0.9750977 0
vn -0.2216797 0.9750977 0
vn -0.2216797 0.9750977 0
vn 0.2216797 -0.9750977 0
vn 0.2216797 -0.9750977 0
vn 0.2216797 -0.9750977 0
vn 0.2216797 -0.9750977 0
vn 0.2216797 -0.9750977 0
vn 0.2216797 -0.9750977 0
vn 0.2216797 -0.9750977 0
vn 0.2216797 -0.9750977 0
vn 0.2216797 -0.9750977 0
vn 0.2216797 -0.9750977 0
vn 0.2216797 -0.9750977 0
vn 0.2216797 -0.9750977 0
vn 0.2216797 -0.9750977 0
vn 0.2216797 -0.9750977 0
vn 0.2216797 -0.9750977 0
vn 0.2216797 -0.9750977 0
vn 0.2216797 -0.9750977 0
vn 0.2216797 -0.9750977 0
vn -0.3144531 0.9404297 0.1297607
vn -0.3144531 0.9404297 0.1297607
vn -0.3144531 0.9404297 0.1297607
vn -0.3144531 0.9404297 0.1297607
vn 0.777832 0.1767578 0.6030273
vn 0.777832 0.1767578 0.6030273
vn 0.777832 0.1767578 0.6030273
vn 0.777832 0.1767578 0.6030273
vn 0.5883789 0.1337891 -0.7973633
vn 0.5883789 0.1337891 -0.7973633
vn 0.5883789 0.1337891 -0.7973633
vn 0.5883789 0.1337891 -0.7973633
vn -0.7773438 -0.1767578 -0.6035156
vn -0.7773438 -0.1767578 -0.6035156
vn -0.7773438 -0.1767578 -0.6035156
vn -0.7773438 -0.1767578 -0.6035156
vn -0.6245117 0.3303223 0.7080078
vn -0.6245117 0.3303223 0.7080078
vn -0.6245117 0.3303223 0.7080078
vn -0.6245117 0.3303223 0.7080078
g Clipboard_0
f 3/3/3 2/2/2 1/1/1
f 4/4/4 3/3/3 1/1/1
f 7/7/7 6/6/6 5/5/5
f 6/6/6 8/8/8 5/5/5
f 5/5/5 8/8/8 9/9/9
f 10/10/10 5/5/5 9/9/9
f 10/10/10 9/9/9 11/11/11
f 9/9/9 12/12/12 11/11/11
f 15/15/15 14/14/14 13/13/13
f 16/16/16 15/15/15 13/13/13
f 19/19/19 18/18/18 17/17/17
f 20/20/20 19/19/19 17/17/17
f 23/23/23 22/22/22 21/21/21
f 24/24/24 23/23/23 21/21/21
f 23/23/23 24/24/24 25/25/25
f 26/26/26 23/23/23 25/25/25
f 27/27/27 26/26/26 25/25/25
f 28/28/28 27/27/27 25/25/25
f 31/31/31 30/30/30 29/29/29
f 30/30/30 32/32/32 29/29/29
f 32/32/32 33/33/33 29/29/29
f 33/33/33 34/34/34 29/29/29
f 34/34/34 33/33/33 35/35/35
f 33/33/33 36/36/36 35/35/35
f 39/39/39 38/38/38 37/37/37
f 40/40/40 38/38/38 39/39/39
f 40/40/40 39/39/39 41/41/41
f 39/39/39 42/42/42 41/41/41
f 42/42/42 43/43/43 41/41/41
f 42/42/42 44/44/44 43/43/43
f 40/40/40 41/41/41 45/45/45
f 40/40/40 45/45/45 46/46/46
f 40/40/40 46/46/46 47/47/47
f 48/48/48 40/40/40 47/47/47
f 48/48/48 47/47/47 49/49/49
f 49/49/49 50/50/50 48/48/48
f 53/53/53 52/52/52 51/51/51
f 54/54/54 53/53/53 51/51/51
f 57/57/57 56/56/56 55/55/55
f 55/55/55 58/58/58 57/57/57
f 58/58/58 59/59/59 57/57/57
f 58/58/58 60/60/60 59/59/59
f 60/60/60 61/61/61 59/59/59
f 61/61/61 62/62/62 59/59/59
f 62/62/62 63/63/63 59/59/59
f 62/62/62 64/64/64 63/63/63
f 63/63/63 64/64/64 65/65/65
f 63/63/63 66/66/66 59/59/59
f 66/66/66 67/67/67 59/59/59
f 66/66/66 68/68/68 67/67/67
f 71/71/71 70/70/70 69/69/69
f 72/72/72 71/71/71 69/69/69
f 75/75/75 74/74/74 73/73/73
f 76/76/76 75/75/75 73/73/73
f 79/79/79 78/78/78 77/77/77
f 80/80/80 79/79/79 77/77/77
f 83/83/83 82/82/82 81/81/81
f 84/84/84 83/83/83 81/81/81
f 87/87/87 86/86/86 85/85/85
f 88/88/88 87/87/87 85/85/85
