g Cube
v -0.3 -0.3764435 0.02799454
v -0.3 -0.3764435 0
v -0.3 0.3764435 0
v -0.3 0.3764435 0.02799454
v 0.3 -0.3764435 0
v 0.3 -0.3764435 0.02799454
v 0.3 0.3764435 0.02799454
v 0.3 0.3764435 0
v 0.3 0.3764435 0.02799454
v -0.2788837 0.3553272 0.02799454
v -0.3 0.3764435 0.02799454
v 0.2788837 0.3553272 0.02799454
v 0.3 -0.3764435 0.02799454
v 0.2788837 -0.3553272 0.02799454
v -0.3 -0.3764435 0.02799454
v -0.2788837 -0.3553272 0.02799454
v -0.3 -0.3764435 0
v -0.3 -0.3764435 0.02799454
v 0.3 -0.3764435 0.02799454
v 0.3 -0.3764435 0
v 0.3 0.3764435 0
v 0.3 0.3764435 0.02799454
v -0.3 0.3764435 0.02799454
v -0.3 0.3764435 0
v -0.2788837 -0.3553272 0.02799454
v -0.2595912 -0.3360347 0.01167559
v 0.2595912 -0.3360347 0.01167559
v 0.2788837 -0.3553272 0.02799454
v -0.3 0.3764435 0.02799454
v -0.2788837 0.3553272 0.02799454
v -0.2788837 -0.3553272 0.02799454
v -0.3 -0.3764435 0.02799454
v -0.2788837 0.3553272 0.02799454
v -0.2595912 0.3360347 0.01167559
v -0.2595912 -0.3360347 0.01167559
v -0.2788837 -0.3553272 0.02799454
v 0.2788837 0.3553272 0.02799454
v 0.2595912 0.3360347 0.01167559
v -0.2595912 0.3360347 0.01167559
v -0.2788837 0.3553272 0.02799454
v 0.2788837 -0.3553272 0.02799454
v 0.2595912 -0.3360347 0.01167559
v 0.2595912 0.3360347 0.01167559
v 0.2788837 0.3553272 0.02799454
v 0.0486032 0.1763404 0.02336163
v -7.430573E-08 0.06863941 0.02336167
v -5.885706E-08 0.1860082 0.02336163
v 0.003688072 0.0679058 0.02336167
v 0.08980705 0.1488089 0.02336163
v 0.006814732 0.06581663 0.02336167
v 0.1173386 0.1076051 0.02336163
v 0.008903897 0.06268997 0.02336167
v 0.1270064 0.05900182 0.02336163
v 0.009637517 0.05900182 0.02336167
v 0.1173386 0.01039858 0.02336163
v 0.008903899 0.05531368 0.02336167
v 0.08980705 -0.03080527 0.02336163
v 0.006814732 0.05218701 0.02336167
v 0.0486032 -0.05833681 0.02336163
v 0.003688073 0.05009785 0.02336167
v -6.996031E-08 -0.06800462 0.02336163
v -7.514828E-08 0.04936423 0.02336167
v -0.04860331 -0.05833681 0.02336163
v -0.003688221 0.05009785 0.02336167
v -0.08980715 -0.03080529 0.02336163
v -0.006814879 0.05218701 0.02336167
v -0.1173387 0.01039856 0.02336163
v -0.008904045 0.05531367 0.02336167
v -0.1270065 0.05900183 0.02336163
v -0.009637666 0.05900182 0.02336167
v -0.1173387 0.1076051 0.02336163
v -0.008904045 0.06268997 0.02336167
v -0.08980718 0.1488089 0.02336163
v -0.006814882 0.06581663 0.02336167
v -0.04860331 0.1763405 0.02336163
v -0.003688221 0.0679058 0.02336167
v -5.885706E-08 0.1860082 0.02336163
v -7.430573E-08 0.06863941 0.02336167
v 0.2595912 -0.3360347 0.01167559
v -0.2595912 -0.3360347 0.01167559
v -0.2595912 0.3360347 0.01167559
v 0.2595912 0.3360347 0.01167559
v 0 0.2765638 0.0116756
v 0.08325737 0.2600029 0.0116756
v 0.08325737 0.2600029 0.02336161
v 0 0.2765638 0.02336161
v 0.08325737 0.2600029 0.0116756
v 0.1538396 0.2128414 0.0116756
v 0.1538396 0.2128414 0.02336161
v 0.08325737 0.2600029 0.02336161
v 0.1538396 0.2128414 0.0116756
v 0.201001 0.1422592 0.01167559
v 0.201001 0.1422592 0.02336159
v 0.1538396 0.2128414 0.02336161
v 0.201001 0.1422592 0.01167559
v 0.217562 0.05900183 0.01167559
v 0.217562 0.05900183 0.02336159
v 0.201001 0.1422592 0.02336159
v 0.217562 0.05900183 0.01167559
v 0.2010011 -0.02425551 0.01167559
v 0.2010011 -0.02425551 0.02336159
v 0.217562 0.05900183 0.02336159
v 0.2010011 -0.02425551 0.01167559
v 0.1538396 -0.09483771 0.01167559
v 0.1538396 -0.09483771 0.02336159
v 0.2010011 -0.02425551 0.02336159
v 0.1538396 -0.09483771 0.01167559
v 0.08325737 -0.1419992 0.01167559
v 0.08325737 -0.1419992 0.02336159
v 0.1538396 -0.09483771 0.02336159
v 0.08325737 -0.1419992 0.01167559
v -1.901987E-08 -0.1585601 0.01167559
v -1.901987E-08 -0.1585601 0.02336159
v 0.08325737 -0.1419992 0.02336159
v -1.901987E-08 -0.1585601 0.01167559
v -0.08325736 -0.1419992 0.01167559
v -0.08325736 -0.1419992 0.02336159
v -1.901987E-08 -0.1585601 0.02336159
v -0.08325736 -0.1419992 0.01167559
v -0.1538395 -0.09483771 0.01167559
v -0.1538395 -0.09483771 0.02336159
v -0.08325736 -0.1419992 0.02336159
v -0.1538395 -0.09483771 0.01167559
v -0.201001 -0.02425556 0.01167559
v -0.201001 -0.02425556 0.02336159
v -0.1538395 -0.09483771 0.02336159
v -0.201001 -0.02425556 0.01167559
v -0.217562 0.05900184 0.01167559
v -0.217562 0.05900184 0.02336159
v -0.201001 -0.02425556 0.02336159
v -0.217562 0.05900184 0.01167559
v -0.201001 0.1422592 0.01167559
v -0.201001 0.1422592 0.02336159
v -0.217562 0.05900184 0.02336159
v -0.201001 0.1422592 0.01167559
v -0.1538396 0.2128414 0.0116756
v -0.1538396 0.2128414 0.02336161
v -0.201001 0.1422592 0.02336159
v -0.1538396 0.2128414 0.0116756
v -0.08325736 0.2600029 0.0116756
v -0.08325736 0.2600029 0.02336161
v -0.1538396 0.2128414 0.02336161
v -0.08325736 0.2600029 0.0116756
v 0 0.2765638 0.0116756
v 0 0.2765638 0.02336161
v -0.08325736 0.2600029 0.02336161
v 0.08325737 0.2600029 0.02336161
v 0 0.2765638 0.02336161
v 0.1538396 0.2128414 0.02336161
v 0.201001 0.1422592 0.02336159
v 0.217562 0.05900183 0.02336159
v 0.2010011 -0.02425551 0.02336159
v 0.1538396 -0.09483771 0.02336159
v 0.08325737 -0.1419992 0.02336159
v -1.901987E-08 -0.1585601 0.02336159
v -0.08325736 -0.1419992 0.02336159
v -0.1538395 -0.09483771 0.02336159
v -0.201001 -0.02425556 0.02336159
v -0.217562 0.05900184 0.02336159
v -0.201001 0.1422592 0.02336159
v -0.1538396 0.2128414 0.02336161
v -0.08325736 0.2600029 0.02336161
v 0 0.2765638 0.02336161
v -0.003688221 0.0679058 0.02336167
v -0.003688221 0.0679058 0.01167559
v -0.006814882 0.06581663 0.01167559
v -0.006814882 0.06581663 0.02336167
v -7.514828E-08 0.04936423 0.02336167
v -7.514828E-08 0.04936423 0.01167559
v 0.003688073 0.05009785 0.01167559
v 0.003688073 0.05009785 0.02336167
v 0.003688072 0.0679058 0.02336167
v 0.003688072 0.06790579 0.01167559
v -7.430573E-08 0.06863941 0.01167559
v -7.430573E-08 0.06863941 0.02336167
v -7.430573E-08 0.06863941 0.02336167
v -7.430573E-08 0.06863941 0.01167559
v -0.003688221 0.0679058 0.01167559
v -0.003688221 0.0679058 0.02336167
v -0.003688221 0.05009785 0.02336167
v -0.003688221 0.05009785 0.01167559
v -7.514828E-08 0.04936423 0.01167559
v -7.514828E-08 0.04936423 0.02336167
v 0.006814732 0.06581663 0.02336167
v 0.006814732 0.06581663 0.01167559
v 0.003688072 0.06790579 0.01167559
v 0.003688072 0.0679058 0.02336167
v -0.006814879 0.05218701 0.02336167
v -0.006814879 0.05218701 0.01167559
v -0.003688221 0.05009785 0.01167559
v -0.003688221 0.05009785 0.02336167
v 0.008903897 0.06268997 0.02336167
v 0.008903897 0.06268997 0.01167559
v 0.006814732 0.06581663 0.01167559
v 0.006814732 0.06581663 0.02336167
v -0.008904045 0.05531367 0.02336167
v -0.008904045 0.05531367 0.01167559
v -0.006814879 0.05218701 0.01167559
v -0.006814879 0.05218701 0.02336167
v 0.009637517 0.05900182 0.02336167
v 0.009637517 0.05900182 0.01167559
v 0.008903897 0.06268997 0.01167559
v 0.008903897 0.06268997 0.02336167
v -0.009637666 0.05900182 0.02336167
v -0.009637666 0.05900182 0.01167559
v -0.008904045 0.05531367 0.01167559
v -0.008904045 0.05531367 0.02336167
v 0.008903899 0.05531368 0.02336167
v 0.008903899 0.05531368 0.01167559
v 0.009637517 0.05900182 0.01167559
v 0.009637517 0.05900182 0.02336167
v -0.008904045 0.06268997 0.02336167
v -0.008904045 0.06268997 0.01167559
v -0.009637666 0.05900182 0.01167559
v -0.009637666 0.05900182 0.02336167
v 0.006814732 0.05218701 0.02336167
v 0.006814732 0.05218701 0.01167559
v 0.008903899 0.05531368 0.01167559
v 0.008903899 0.05531368 0.02336167
v -0.006814882 0.06581663 0.02336167
v -0.006814882 0.06581663 0.01167559
v -0.008904045 0.06268997 0.01167559
v -0.008904045 0.06268997 0.02336167
v 0.003688073 0.05009785 0.02336167
v 0.003688073 0.05009785 0.01167559
v 0.006814732 0.05218701 0.01167559
v 0.006814732 0.05218701 0.02336167
v 0.1129973 -0.3136407 0.01167559
v 0.1129973 -0.3136407 0.01864913
v 0.1129973 -0.1872411 0.01864913
v 0.1129973 -0.1872411 0.01167559
v 0.1129973 -0.3136407 0.01864913
v -0.1129973 -0.3136407 0.01864913
v -0.1129973 -0.1872411 0.01864913
v 0.1129973 -0.1872411 0.01864913
v -0.1129973 -0.3136407 0.01167559
v -0.1129973 -0.3136407 0.01864913
v 0.1129973 -0.3136407 0.01864913
v 0.1129973 -0.3136407 0.01167559
v 0.1129973 -0.1872411 0.01167559
v 0.1129973 -0.1872411 0.01864913
v -0.1129973 -0.1872411 0.01864913
v -0.1129973 -0.1872411 0.01167559
v -0.1129973 -0.3136407 0.01864913
v -0.1129973 -0.3136407 0.01167559
v -0.1129973 -0.1872411 0.01167559
v -0.1129973 -0.1872411 0.01864913
vt 0.375 0
vt 0.375 0.25
vt 0.625 0.25
vt 0.625 0
vt 0.375 0.5
vt 0.375 0.75
vt 0.625 0.75
vt 0.625 0.5
vt 0.625 0.75
vt 0.875 0.75
vt 0.875 0.75
vt 0.625 0.75
vt 0.375 0.75
vt 0.375 0.75
vt 0.125 0.75
vt 0.125 0.75
vt 0.125 0.5
vt 0.125 0.75
vt 0.375 0.75
vt 0.375 0.5
vt 0.625 0.5
vt 0.625 0.75
vt 0.875 0.75
vt 0.875 0.5
vt 0.125 0.75
vt 0.125 0.75
vt 0.375 0.75
vt 0.375 0.75
vt 0.625 0
vt 0.625 0
vt 0.375 0
vt 0.375 0
vt 0.625 0
vt 0.625 0
vt 0.375 0
vt 0.375 0
vt 0.625 0.75
vt 0.625 0.75
vt 0.875 0.75
vt 0.875 0.75
vt 0.375 0.75
vt 0.375 0.75
vt 0.625 0.75
vt 0.625 0.75
vt 0.9375 1
vt 1 1
vt 1 1
vt 0.9375 1
vt 0.875 1
vt 0.875 1
vt 0.8125 1
vt 0.8125 1
vt 0.75 1
vt 0.75 1
vt 0.6875 1
vt 0.6875 1
vt 0.625 1
vt 0.625 1
vt 0.5625 1
vt 0.5625 1
vt 0.5 1
vt 0.5 1
vt 0.4375 1
vt 0.4375 1
vt 0.375 1
vt 0.375 1
vt 0.3125 1
vt 0.3125 1
vt 0.25 1
vt 0.25 1
vt 0.1875 1
vt 0.1875 1
vt 0.125 1
vt 0.125 1
vt 0.0625 1
vt 0.0625 1
vt 0 1
vt 0 1
vt 0.375 0.75
vt 0.375 1
vt 0.625 1
vt 0.625 0.75
vt 1 0.5
vt 0.9375 0.5
vt 0.9375 1
vt 1 1
vt 0.9375 0.5
vt 0.875 0.5
vt 0.875 1
vt 0.9375 1
vt 0.875 0.5
vt 0.8125 0.5
vt 0.8125 1
vt 0.875 1
vt 0.8125 0.5
vt 0.75 0.5
vt 0.75 1
vt 0.8125 1
vt 0.75 0.5
vt 0.6875 0.5
vt 0.6875 1
vt 0.75 1
vt 0.6875 0.5
vt 0.625 0.5
vt 0.625 1
vt 0.6875 1
vt 0.625 0.5
vt 0.5625 0.5
vt 0.5625 1
vt 0.625 1
vt 0.5625 0.5
vt 0.5 0.5
vt 0.5 1
vt 0.5625 1
vt 0.5 0.5
vt 0.4375 0.5
vt 0.4375 1
vt 0.5 1
vt 0.4375 0.5
vt 0.375 0.5
vt 0.375 1
vt 0.4375 1
vt 0.375 0.5
vt 0.3125 0.5
vt 0.3125 1
vt 0.375 1
vt 0.3125 0.5
vt 0.25 0.5
vt 0.25 1
vt 0.3125 1
vt 0.25 0.5
vt 0.1875 0.5
vt 0.1875 1
vt 0.25 1
vt 0.1875 0.5
vt 0.125 0.5
vt 0.125 1
vt 0.1875 1
vt 0.125 0.5
vt 0.0625 0.5
vt 0.0625 1
vt 0.125 1
vt 0.0625 0.5
vt 0 0.5
vt 0 1
vt 0.0625 1
vt 0.9375 1
vt 1 1
vt 0.875 1
vt 0.8125 1
vt 0.75 1
vt 0.6875 1
vt 0.625 1
vt 0.5625 1
vt 0.5 1
vt 0.4375 1
vt 0.375 1
vt 0.3125 1
vt 0.25 1
vt 0.1875 1
vt 0.125 1
vt 0.0625 1
vt 0 1
vt 0.0625 1
vt 0.0625 1
vt 0.125 1
vt 0.125 1
vt 0.5 1
vt 0.5 1
vt 0.5625 1
vt 0.5625 1
vt 0.9375 1
vt 0.9375 1
vt 1 1
vt 1 1
vt 0 1
vt 0 1
vt 0.0625 1
vt 0.0625 1
vt 0.4375 1
vt 0.4375 1
vt 0.5 1
vt 0.5 1
vt 0.875 1
vt 0.875 1
vt 0.9375 1
vt 0.9375 1
vt 0.375 1
vt 0.375 1
vt 0.4375 1
vt 0.4375 1
vt 0.8125 1
vt 0.8125 1
vt 0.875 1
vt 0.875 1
vt 0.3125 1
vt 0.3125 1
vt 0.375 1
vt 0.375 1
vt 0.75 1
vt 0.75 1
vt 0.8125 1
vt 0.8125 1
vt 0.25 1
vt 0.25 1
vt 0.3125 1
vt 0.3125 1
vt 0.6875 1
vt 0.6875 1
vt 0.75 1
vt 0.75 1
vt 0.1875 1
vt 0.1875 1
vt 0.25 1
vt 0.25 1
vt 0.625 1
vt 0.625 1
vt 0.6875 1
vt 0.6875 1
vt 0.125 1
vt 0.125 1
vt 0.1875 1
vt 0.1875 1
vt 0.5625 1
vt 0.5625 1
vt 0.625 1
vt 0.625 1
vt 0.375 0.625
vt 0.375 0.75
vt 0.625 0.75
vt 0.625 0.625
vt 0.375 0.75
vt 0.375 1
vt 0.625 1
vt 0.625 0.75
vt 0.125 0.625
vt 0.125 0.75
vt 0.375 0.75
vt 0.375 0.625
vt 0.625 0.625
vt 0.625 0.75
vt 0.875 0.75
vt 0.875 0.625
vt 0.375 0
vt 0.375 0.125
vt 0.625 0.125
vt 0.625 0
vn -1 0 0
vn -1 0 0
vn -1 0 0
vn -1 0 0
vn 1 0 0
vn 1 0 0
vn 1 0 0
vn 1 0 0
vn 0 0 1
vn 0 0 1
vn 0 0 1
vn 0 0 1
vn 0 0 1
vn 0 0 1
vn 0 0 1
vn 0 0 1
vn 0 -1 0
vn 0 -1 0
vn 0 -1 0
vn 0 -1 0
vn 0 1 0
vn 0 1 0
vn 0 1 0
vn 0 1 0
vn 0 0.6458171 0.763492
vn 0 0.6458171 0.763492
vn 0 0.6458171 0.763492
vn 0 0.6458171 0.763492
vn 0 0 1
vn 0 0 1
vn 0 0 1
vn 0 0 1
vn 0.6458172 0 0.763492
vn 0.6458172 0 0.763492
vn 0.6458172 0 0.763492
vn 0.6458172 0 0.763492
vn 0 -0.6458171 0.763492
vn 0 -0.6458171 0.763492
vn 0 -0.6458171 0.763492
vn 0 -0.6458171 0.763492
vn -0.6458172 0 0.763492
vn -0.6458172 0 0.763492
vn -0.6458172 0 0.763492
vn -0.6458172 0 0.763492
vn 0 2.144877E-07 1
vn 0 3.12976E-07 1
vn 0 2.144877E-07 1
vn 0 3.12976E-07 1
vn 3.385354E-07 0 1
vn 2.55625E-07 1.778273E-07 1
vn 3.385354E-07 0 1
vn 2.55625E-07 1.778273E-07 1
vn 4.113815E-07 0 1
vn 3.015303E-07 1.155877E-07 1
vn 3.487525E-07 -2.242371E-07 1
vn 3.015303E-07 -1.084747E-07 1
vn 3.487525E-07 -2.242371E-07 1
vn 2.55625E-07 -1.470038E-07 1
vn 0 -3.899778E-07 1
vn 1.708032E-07 -2.631843E-07 1
vn 0 -3.899778E-07 1
vn 0 -2.987497E-07 1
vn -1.708032E-07 -2.347322E-07 1
vn -1.708032E-07 -2.347322E-07 1
vn -1.708032E-07 -2.347322E-07 1
vn -1.708032E-07 -2.347322E-07 1
vn -3.487528E-07 -2.339869E-07 1
vn -2.556251E-07 -1.47004E-07 1
vn -4.113821E-07 0 1
vn -3.015304E-07 -1.298139E-07 1
vn -4.113821E-07 0 1
vn -3.015303E-07 1.298139E-07 1
vn -3.385358E-07 0 1
vn -2.556251E-07 1.221082E-07 1
vn 0 2.144878E-07 1
vn -1.708034E-07 2.774104E-07 1
vn 0 2.144878E-07 1
vn 0 3.224602E-07 1
vn 0 0 1
vn 0 0 1
vn 0 0 1
vn 0 0 1
vn 0.1950906 0.9807853 0
vn 0.1950906 0.9807853 0
vn 0.1950906 0.9807853 0
vn 0.1950906 0.9807853 0
vn 0.5555702 0.8314695 0
vn 0.5555702 0.8314695 0
vn 0.5555702 0.8314695 0
vn 0.5555702 0.8314695 0
vn 0.8314696 0.5555702 0
vn 0.8314696 0.5555702 0
vn 0.8314696 0.5555702 0
vn 0.8314696 0.5555702 0
vn 0.9807853 0.1950904 0
vn 0.9807853 0.1950904 0
vn 0.9807853 0.1950904 0
vn 0.9807853 0.1950904 0
vn 0.9807853 -0.1950903 0
vn 0.9807853 -0.1950903 0
vn 0.9807853 -0.1950903 0
vn 0.9807853 -0.1950903 0
vn 0.8314697 -0.5555701 0
vn 0.8314697 -0.5555701 0
vn 0.8314697 -0.5555701 0
vn 0.8314697 -0.5555701 0
vn 0.5555702 -0.8314697 0
vn 0.5555702 -0.8314697 0
vn 0.5555702 -0.8314697 0
vn 0.5555702 -0.8314697 0
vn 0.1950901 -0.9807854 0
vn 0.1950901 -0.9807854 0
vn 0.1950901 -0.9807854 0
vn 0.1950901 -0.9807854 0
vn -0.1950903 -0.9807853 0
vn -0.1950903 -0.9807853 0
vn -0.1950903 -0.9807853 0
vn -0.1950903 -0.9807853 0
vn -0.5555702 -0.8314695 0
vn -0.5555702 -0.8314695 0
vn -0.5555702 -0.8314695 0
vn -0.5555702 -0.8314695 0
vn -0.8314695 -0.5555705 0
vn -0.8314695 -0.5555705 0
vn -0.8314695 -0.5555705 0
vn -0.8314695 -0.5555705 0
vn -0.9807853 -0.1950903 0
vn -0.9807853 -0.1950903 0
vn -0.9807853 -0.1950903 0
vn -0.9807853 -0.1950903 0
vn -0.9807853 0.1950905 0
vn -0.9807853 0.1950905 0
vn -0.9807853 0.1950905 0
vn -0.9807853 0.1950905 0
vn -0.8314697 0.5555702 0
vn -0.8314697 0.5555702 0
vn -0.8314697 0.5555702 0
vn -0.8314697 0.5555702 0
vn -0.5555702 0.8314696 0
vn -0.5555702 0.8314696 0
vn -0.5555702 0.8314696 0
vn -0.5555702 0.8314696 0
vn -0.1950906 0.9807853 0
vn -0.1950906 0.9807853 0
vn -0.1950906 0.9807853 0
vn -0.1950906 0.9807853 0
vn 0 2.144877E-07 1
vn 0 2.144877E-07 1
vn 3.385354E-07 0 1
vn 3.385354E-07 0 1
vn 4.113815E-07 0 1
vn 3.487525E-07 -2.242371E-07 1
vn 3.487525E-07 -2.242371E-07 1
vn 0 -3.899778E-07 1
vn 0 -3.899778E-07 1
vn 0 -4.094771E-07 1
vn -3.487528E-07 -2.339869E-07 1
vn -3.487528E-07 -2.339869E-07 1
vn -4.113821E-07 0 1
vn -4.113821E-07 0 1
vn -3.385358E-07 0 1
vn 0 2.144878E-07 1
vn 0 2.144878E-07 1
vn 0.5555707 -0.8314693 0
vn 0.5555707 -0.8314693 0
vn 0.5555707 -0.8314693 0
vn 0.5555707 -0.8314693 0
vn -0.1950914 0.980785 0
vn -0.1950914 0.980785 0
vn -0.1950914 0.980785 0
vn -0.1950914 0.980785 0
vn -0.195089 -0.9807855 3.130347E-07
vn -0.195089 -0.9807855 3.130347E-07
vn -0.195089 -0.9807855 3.130347E-07
vn -0.195089 -0.9807855 3.130347E-07
vn 0.195089 -0.9807855 0
vn 0.195089 -0.9807855 0
vn 0.195089 -0.9807855 0
vn 0.195089 -0.9807855 0
vn 0.1950916 0.980785 0
vn 0.1950916 0.980785 0
vn 0.1950916 0.980785 0
vn 0.1950916 0.980785 0
vn -0.5555707 -0.8314693 2.690544E-07
vn -0.5555707 -0.8314693 2.690544E-07
vn -0.5555707 -0.8314693 2.690544E-07
vn -0.5555707 -0.8314693 2.690544E-07
vn 0.5555701 0.8314697 0
vn 0.5555701 0.8314697 0
vn 0.5555701 0.8314697 0
vn 0.5555701 0.8314697 0
vn -0.8314699 -0.5555699 0
vn -0.8314699 -0.5555699 0
vn -0.8314699 -0.5555699 0
vn -0.8314699 -0.5555699 0
vn 0.8314698 0.55557 0
vn 0.8314698 0.55557 0
vn 0.8314698 0.55557 0
vn 0.8314698 0.55557 0
vn -0.9807853 -0.1950905 0
vn -0.9807853 -0.1950905 0
vn -0.9807853 -0.1950905 0
vn -0.9807853 -0.1950905 0
vn 0.9807851 0.195091 0
vn 0.9807851 0.195091 0
vn 0.9807851 0.195091 0
vn 0.9807851 0.195091 0
vn -0.9807853 0.1950905 0
vn -0.9807853 0.1950905 0
vn -0.9807853 0.1950905 0
vn -0.9807853 0.1950905 0
vn 0.9807851 -0.195091 0
vn 0.9807851 -0.195091 0
vn 0.9807851 -0.195091 0
vn 0.9807851 -0.195091 0
vn -0.8314702 0.5555694 0
vn -0.8314702 0.5555694 0
vn -0.8314702 0.5555694 0
vn -0.8314702 0.5555694 0
vn 0.8314701 -0.5555694 0
vn 0.8314701 -0.5555694 0
vn 0.8314701 -0.5555694 0
vn 0.8314701 -0.5555694 0
vn -0.5555699 0.8314698 0
vn -0.5555699 0.8314698 0
vn -0.5555699 0.8314698 0
vn -0.5555699 0.8314698 0
vn 1 0 0
vn 1 0 0
vn 1 0 0
vn 1 0 0
vn 0 0 1
vn 0 0 1
vn 0 0 1
vn 0 0 1
vn 0 -1 0
vn 0 -1 0
vn 0 -1 0
vn 0 -1 0
vn 0 1 0
vn 0 1 0
vn 0 1 0
vn 0 1 0
vn -1 0 0
vn -1 0 0
vn -1 0 0
vn -1 0 0
g Cube_0
f 3/3/3 2/2/2 1/1/1
f 4/4/4 3/3/3 1/1/1
f 7/7/7 6/6/6 5/5/5
f 8/8/8 7/7/7 5/5/5
f 11/11/11 10/10/10 9/9/9
f 10/10/10 12/12/12 9/9/9
f 9/9/9 12/12/12 13/13/13
f 12/12/12 14/14/14 13/13/13
f 13/13/13 14/14/14 15/15/15
f 14/14/14 16/16/16 15/15/15
f 19/19/19 18/18/18 17/17/17
f 20/20/20 19/19/19 17/17/17
f 23/23/23 22/22/22 21/21/21
f 24/24/24 23/23/23 21/21/21
f 27/27/27 26/26/26 25/25/25
f 28/28/28 27/27/27 25/25/25
f 31/31/31 30/30/30 29/29/29
f 32/32/32 31/31/31 29/29/29
f 35/35/35 34/34/34 33/33/33
f 36/36/36 35/35/35 33/33/33
f 39/39/39 38/38/38 37/37/37
f 40/40/40 39/39/39 37/37/37
f 43/43/43 42/42/42 41/41/41
f 44/44/44 43/43/43 41/41/41
f 47/47/47 46/46/46 45/45/45
f 46/46/46 48/48/48 45/45/45
f 45/45/45 48/48/48 49/49/49
f 48/48/48 50/50/50 49/49/49
f 49/49/49 50/50/50 51/51/51
f 50/50/50 52/52/52 51/51/51
f 51/51/51 52/52/52 53/53/53
f 52/52/52 54/54/54 53/53/53
f 53/53/53 54/54/54 55/55/55
f 54/54/54 56/56/56 55/55/55
f 55/55/55 56/56/56 57/57/57
f 56/56/56 58/58/58 57/57/57
f 57/57/57 58/58/58 59/59/59
f 58/58/58 60/60/60 59/59/59
f 59/59/59 60/60/60 61/61/61
f 60/60/60 62/62/62 61/61/61
f 61/61/61 62/62/62 63/63/63
f 62/62/62 64/64/64 63/63/63
f 63/63/63 64/64/64 65/65/65
f 64/64/64 66/66/66 65/65/65
f 65/65/65 66/66/66 67/67/67
f 66/66/66 68/68/68 67/67/67
f 67/67/67 68/68/68 69/69/69
f 68/68/68 70/70/70 69/69/69
f 69/69/69 70/70/70 71/71/71
f 70/70/70 72/72/72 71/71/71
f 71/71/71 72/72/72 73/73/73
f 72/72/72 74/74/74 73/73/73
f 73/73/73 74/74/74 75/75/75
f 74/74/74 76/76/76 75/75/75
f 75/75/75 76/76/76 77/77/77
f 76/76/76 78/78/78 77/77/77
g Cube_1
f 81/81/81 80/80/80 79/79/79
f 82/82/82 81/81/81 79/79/79
g Cube_2
f 85/85/85 84/84/84 83/83/83
f 86/86/86 85/85/85 83/83/83
f 89/89/89 88/88/88 87/87/87
f 90/90/90 89/89/89 87/87/87
f 93/93/93 92/92/92 91/91/91
f 94/94/94 93/93/93 91/91/91
f 97/97/97 96/96/96 95/95/95
f 98/98/98 97/97/97 95/95/95
f 101/101/101 100/100/100 99/99/99
f 102/102/102 101/101/101 99/99/99
f 105/105/105 104/104/104 103/103/103
f 106/106/106 105/105/105 103/103/103
f 109/109/109 108/108/108 107/107/107
f 110/110/110 109/109/109 107/107/107
f 113/113/113 112/112/112 111/111/111
f 114/114/114 113/113/113 111/111/111
f 117/117/117 116/116/116 115/115/115
f 118/118/118 117/117/117 115/115/115
f 121/121/121 120/120/120 119/119/119
f 122/122/122 121/121/121 119/119/119
f 125/125/125 124/124/124 123/123/123
f 126/126/126 125/125/125 123/123/123
f 129/129/129 128/128/128 127/127/127
f 130/130/130 129/129/129 127/127/127
f 133/133/133 132/132/132 131/131/131
f 134/134/134 133/133/133 131/131/131
f 137/137/137 136/136/136 135/135/135
f 138/138/138 137/137/137 135/135/135
f 141/141/141 140/140/140 139/139/139
f 142/142/142 141/141/141 139/139/139
f 145/145/145 144/144/144 143/143/143
f 146/146/146 145/145/145 143/143/143
f 148/148/148 47/47/47 147/147/147
f 47/47/47 45/45/45 147/147/147
f 147/147/147 45/45/45 149/149/149
f 45/45/45 49/49/49 149/149/149
f 149/149/149 49/49/49 150/150/150
f 49/49/49 51/51/51 150/150/150
f 150/150/150 51/51/51 151/151/151
f 51/51/51 53/53/53 151/151/151
f 151/151/151 53/53/53 152/152/152
f 53/53/53 55/55/55 152/152/152
f 152/152/152 55/55/55 153/153/153
f 55/55/55 57/57/57 153/153/153
f 153/153/153 57/57/57 154/154/154
f 57/57/57 59/59/59 154/154/154
f 154/154/154 59/59/59 155/155/155
f 59/59/59 61/61/61 155/155/155
f 155/155/155 61/61/61 156/156/156
f 61/61/61 63/63/63 156/156/156
f 156/156/156 63/63/63 157/157/157
f 63/63/63 65/65/65 157/157/157
f 157/157/157 65/65/65 158/158/158
f 65/65/65 67/67/67 158/158/158
f 158/158/158 67/67/67 159/159/159
f 67/67/67 69/69/69 159/159/159
f 159/159/159 69/69/69 160/160/160
f 69/69/69 71/71/71 160/160/160
f 160/160/160 71/71/71 161/161/161
f 71/71/71 73/73/73 161/161/161
f 161/161/161 73/73/73 162/162/162
f 73/73/73 75/75/75 162/162/162
f 162/162/162 75/75/75 163/163/163
f 75/75/75 77/77/77 163/163/163
f 166/166/166 165/165/165 164/164/164
f 167/167/167 166/166/166 164/164/164
f 170/170/170 169/169/169 168/168/168
f 171/171/171 170/170/170 168/168/168
f 174/174/174 173/173/173 172/172/172
f 175/175/175 174/174/174 172/172/172
f 178/178/178 177/177/177 176/176/176
f 179/179/179 178/178/178 176/176/176
f 182/182/182 181/181/181 180/180/180
f 183/183/183 182/182/182 180/180/180
f 186/186/186 185/185/185 184/184/184
f 187/187/187 186/186/186 184/184/184
f 190/190/190 189/189/189 188/188/188
f 191/191/191 190/190/190 188/188/188
f 194/194/194 193/193/193 192/192/192
f 195/195/195 194/194/194 192/192/192
f 198/198/198 197/197/197 196/196/196
f 199/199/199 198/198/198 196/196/196
f 202/202/202 201/201/201 200/200/200
f 203/203/203 202/202/202 200/200/200
f 206/206/206 205/205/205 204/204/204
f 207/207/207 206/206/206 204/204/204
f 210/210/210 209/209/209 208/208/208
f 211/211/211 210/210/210 208/208/208
f 214/214/214 213/213/213 212/212/212
f 215/215/215 214/214/214 212/212/212
f 218/218/218 217/217/217 216/216/216
f 219/219/219 218/218/218 216/216/216
f 222/222/222 221/221/221 220/220/220
f 223/223/223 222/222/222 220/220/220
f 226/226/226 225/225/225 224/224/224
f 227/227/227 226/226/226 224/224/224
f 230/230/230 229/229/229 228/228/228
f 231/231/231 230/230/230 228/228/228
f 234/234/234 233/233/233 232/232/232
f 235/235/235 234/234/234 232/232/232
f 238/238/238 237/237/237 236/236/236
f 239/239/239 238/238/238 236/236/236
f 242/242/242 241/241/241 240/240/240
f 243/243/243 242/242/242 240/240/240
f 246/246/246 245/245/245 244/244/244
f 247/247/247 246/246/246 244/244/244
