g Ears
v 0.2317583 0.007486063 -0.01300613
v 0.2324098 0.01152484 0.006037236
v 0.2274035 0.03281802 0.00365284
v 0.2270393 0.02897278 -0.01545832
v 0.2166005 0.04599856 0.002494696
v 0.2164404 0.04232024 -0.01669324
v -0.2165838 0.04602809 0.002504821
v -0.2164246 0.04235021 -0.01668481
v -0.2273926 0.03284808 0.003663836
v -0.2270342 0.02900809 -0.01544768
v -0.2324098 0.01155994 0.006051655
v -0.23176 0.007521749 -0.01299396
v -0.2302989 -0.0121262 0.008941994
v -0.2294658 -0.01622659 -0.01002578
v -0.2221294 -0.03171962 0.0117165
v -0.2211581 -0.03586502 -0.007246288
v -0.2106539 -0.04184096 0.01395445
v -0.2096837 -0.0459932 -0.00510129
v 0.2106463 -0.04187516 0.01393448
v 0.2096734 -0.04602809 -0.00511861
v 0.2221203 -0.03175383 0.01169808
v 0.2211465 -0.03589976 -0.007262112
v 0.2302932 -0.01216103 0.008925548
v 0.229458 -0.01626195 -0.0100398
v 0.2324098 0.01152484 0.006037236
v 0.2317583 0.007486063 -0.01300613
v 0.2270393 0.02897278 -0.01545832
v -0.0009953241 0.009355484 -0.003493319
v 0.2317583 0.007486063 -0.01300613
v 0.2164404 0.04232024 -0.01669324
v 0.229458 -0.01626195 -0.0100398
v -0.2164246 0.04235021 -0.01668481
v 0.2211465 -0.03589976 -0.007262112
v -0.2270342 0.02900809 -0.01544768
v 0.2096734 -0.04602809 -0.00511861
v -0.23176 0.007521749 -0.01299396
v -0.2096837 -0.0459932 -0.00510129
v -0.2294658 -0.01622659 -0.01002578
v -0.2211581 -0.03586502 -0.007246288
v 0.2324098 0.01152484 0.006037236
v -0.0009947936 0.01294346 0.01669324
v 0.2274035 0.03281802 0.00365284
v 0.2302932 -0.01216103 0.008925548
v 0.2166005 0.04599856 0.002494696
v 0.2221203 -0.03175383 0.01169808
v -0.2165838 0.04602809 0.002504821
v 0.2106463 -0.04187516 0.01393448
v -0.2273926 0.03284808 0.003663836
v -0.2106539 -0.04184096 0.01395445
v -0.2324098 0.01155994 0.006051655
v -0.2221294 -0.03171962 0.0117165
v -0.2302989 -0.0121262 0.008941994
vt 0.375 0.3125
vt 0.375 0.6884398
vt 0.3958333 0.6884398
vt 0.3958333 0.3125
vt 0.4166667 0.6884398
vt 0.4166667 0.3125
vt 0.4375 0.6884398
vt 0.4375 0.3125
vt 0.4583334 0.6884398
vt 0.4583334 0.3125
vt 0.4791667 0.6884398
vt 0.4791667 0.3125
vt 0.5000001 0.6884398
vt 0.5000001 0.3125
vt 0.5208334 0.6884398
vt 0.5208334 0.3125
vt 0.5416667 0.6884398
vt 0.5416667 0.3125
vt 0.5625 0.6884398
vt 0.5625 0.3125
vt 0.5833333 0.6884398
vt 0.5833333 0.3125
vt 0.6041666 0.6884398
vt 0.6041666 0.3125
vt 0.6249999 0.6884398
vt 0.6249999 0.3125
vt 0.578125 0.02093354
vt 0.5 0.15
vt 0.6353165 0.078125
vt 0.5 0
vt 0.65625 0.15625
vt 0.421875 0.02093354
vt 0.6353165 0.234375
vt 0.3646835 0.078125
vt 0.578125 0.2915665
vt 0.34375 0.15625
vt 0.5 0.3125
vt 0.3646835 0.234375
vt 0.421875 0.2915665
vt 0.6353165 0.921875
vt 0.5 0.8375
vt 0.578125 0.9790665
vt 0.65625 0.84375
vt 0.5 1
vt 0.6353165 0.765625
vt 0.421875 0.9790665
vt 0.578125 0.7084335
vt 0.3646835 0.921875
vt 0.5 0.6875
vt 0.34375 0.84375
vt 0.421875 0.7084335
vt 0.3646835 0.765625
vn 0.9851811 0.1688344 -0.03021871
vn 0.985181 0.168834 -0.03022465
vn 0.8385428 0.5362976 -0.09607817
vn 0.8385435 0.5362983 -0.09606769
vn 0.02535283 0.9839931 -0.1763936
vn 0.02535286 0.9839948 -0.1763842
vn -0.02535335 0.9839929 -0.1763954
vn -0.02535336 0.9839945 -0.176386
vn -0.838535 0.5363091 -0.09608174
vn -0.8385358 0.5363095 -0.09607077
vn -0.985181 0.1688341 -0.03022599
vn -0.9851811 0.1688338 -0.03022007
vn -0.985182 -0.1688314 0.03020632
vn -0.985182 -0.1688325 0.03019905
vn -0.8385436 -0.5363235 0.09592635
vn -0.8385446 -0.5363269 0.09589806
vn -0.02535408 -0.9840538 0.1760544
vn -0.02535428 -0.9840636 0.1760001
vn 0.02535438 -0.9840544 0.1760515
vn 0.02535463 -0.9840641 0.1759972
vn 0.8385521 -0.536311 0.09592155
vn 0.8385534 -0.536314 0.09589323
vn 0.985181 -0.168837 0.0302068
vn 0.9851812 -0.168837 0.03019969
vn 0.985181 0.168834 -0.03022465
vn 0.9851811 0.1688344 -0.03021871
vn 1.257147E-07 -0.1710277 -0.9852663
vn 0 -0.1700463 -0.985436
vn 1.280917E-07 -0.1711562 -0.9852439
vn 0 -0.1709159 -0.9852856
vn 1.280868E-07 -0.1712701 -0.9852241
vn -1.14638E-07 -0.1709147 -0.9852858
vn 1.256383E-07 -0.1713301 -0.9852137
vn 0 -0.1710258 -0.9852666
vn 0 -0.1712876 -0.9852211
vn 0 -0.1711545 -0.9852443
vn -1.040047E-07 -0.171285 -0.9852216
vn -1.327819E-07 -0.1712683 -0.9852245
vn -1.44309E-07 -0.1713277 -0.9852141
vn -1.347653E-07 0.1711237 0.9852496
vn 0 0.1700548 0.9854347
vn -1.116794E-07 0.1710083 0.9852696
vn -1.63799E-07 0.1712291 0.9852312
vn 0 0.1709068 0.9852872
vn -1.717377E-07 0.1712807 0.9852223
vn 0 0.1709052 0.9852875
vn -1.267147E-07 0.1712352 0.9852303
vn 1.301894E-07 0.1710071 0.9852697
vn 1.302583E-07 0.171233 0.9852306
vn 1.378028E-07 0.1711219 0.9852499
vn 1.363231E-07 0.1712788 0.9852226
vn 1.31023E-07 0.171227 0.9852315
g Ears_0
f 3/3/3 2/2/2 1/1/1
f 4/4/4 3/3/3 1/1/1
f 5/5/5 3/3/3 4/4/4
f 6/6/6 5/5/5 4/4/4
f 7/7/7 5/5/5 6/6/6
f 8/8/8 7/7/7 6/6/6
f 9/9/9 7/7/7 8/8/8
f 10/10/10 9/9/9 8/8/8
f 11/11/11 9/9/9 10/10/10
f 12/12/12 11/11/11 10/10/10
f 13/13/13 11/11/11 12/12/12
f 14/14/14 13/13/13 12/12/12
f 15/15/15 13/13/13 14/14/14
f 16/16/16 15/15/15 14/14/14
f 17/17/17 15/15/15 16/16/16
f 18/18/18 17/17/17 16/16/16
f 19/19/19 17/17/17 18/18/18
f 20/20/20 19/19/19 18/18/18
f 21/21/21 19/19/19 20/20/20
f 22/22/22 21/21/21 20/20/20
f 23/23/23 21/21/21 22/22/22
f 24/24/24 23/23/23 22/22/22
f 25/25/25 23/23/23 24/24/24
f 26/26/26 25/25/25 24/24/24
f 29/29/29 28/28/28 27/27/27
f 27/27/27 28/28/28 30/30/30
f 31/31/31 28/28/28 29/29/29
f 30/30/30 28/28/28 32/32/32
f 33/33/33 28/28/28 31/31/31
f 32/32/32 28/28/28 34/34/34
f 35/35/35 28/28/28 33/33/33
f 34/34/34 28/28/28 36/36/36
f 37/37/37 28/28/28 35/35/35
f 36/36/36 28/28/28 38/38/38
f 39/39/39 28/28/28 37/37/37
f 38/38/38 28/28/28 39/39/39
f 42/42/42 41/41/41 40/40/40
f 40/40/40 41/41/41 43/43/43
f 44/44/44 41/41/41 42/42/42
f 43/43/43 41/41/41 45/45/45
f 46/46/46 41/41/41 44/44/44
f 45/45/45 41/41/41 47/47/47
f 48/48/48 41/41/41 46/46/46
f 47/47/47 41/41/41 49/49/49
f 50/50/50 41/41/41 48/48/48
f 49/49/49 41/41/41 51/51/51
f 52/52/52 41/41/41 50/50/50
f 51/51/51 41/41/41 52/52/52
