g Face_Polititian
v -0.2196129 1.368152 -1.299073
v -0.1920499 1.335633 -1.297828
v -0.2081591 1.349268 -1.304617
v -0.1965222 1.363215 -1.286356
v -0.2307288 1.399143 -1.296177
v -0.1664609 1.325629 -1.293101
v -0.2021597 1.398262 -1.282563
v -0.1663884 1.358345 -1.27899
v -0.2026668 1.436323 -1.281336
v -0.2328734 1.435892 -1.295224
v -0.1307402 1.356723 -1.276534
v -0.1307729 1.322969 -1.291526
v -0.2024517 1.471241 -1.281488
v -0.2326934 1.471158 -1.295377
v -0.2301421 1.497697 -1.295802
v -0.2009442 1.496861 -1.281827
v -0.2236462 1.520487 -1.296028
v -0.1666177 1.471304 -1.273121
v -0.1666237 1.436649 -1.273029
v -0.1664883 1.397453 -1.274523
v -0.1307562 1.397183 -1.271843
v -0.09508673 1.358345 -1.27899
v -0.09507556 1.325625 -1.293101
v -0.06944393 1.335654 -1.297828
v -0.1307616 1.436759 -1.270262
v -0.09501535 1.397453 -1.274523
v -0.06493656 1.363215 -1.286356
v -0.05330318 1.349285 -1.304617
v -0.0418299 1.368152 -1.299073
v -0.05931623 1.398262 -1.282563
v -0.03071784 1.399143 -1.296177
v -0.02857437 1.435892 -1.295224
v -0.05881338 1.436323 -1.281336
v -0.02875455 1.471158 -1.295377
v -0.09488882 1.436649 -1.273029
v -0.05902835 1.471241 -1.281488
v -0.09489472 1.471305 -1.273121
v -0.06053585 1.496861 -1.281827
v -0.03130577 1.497697 -1.295802
v -0.1307616 1.471327 -1.270332
v -0.0952716 1.496789 -1.273402
v -0.06410423 1.51923 -1.282579
v -0.0378015 1.520487 -1.296027
v -0.05968686 1.560915 -1.299553
v -0.07518417 1.56678 -1.291914
v -0.09616376 1.519594 -1.27484
v -0.09893377 1.570445 -1.288677
v -0.1307616 1.496766 -1.270593
v -0.1307616 1.519716 -1.272259
v -0.1307617 1.571668 -1.287598
v -0.1662408 1.496789 -1.273402
v -0.1653488 1.519594 -1.27484
v -0.1625788 1.570445 -1.288677
v -0.1973759 1.51923 -1.282579
v -0.1862959 1.56678 -1.291914
v -0.2017693 1.560915 -1.299553
vt 0.10752 0.1816783
vt 0.2292216 0.05091715
vt 0.1580933 0.1057439
vt 0.2094737 0.1618266
vt 0.05843806 0.3062887
vt 0.3422068 0.0106945
vt 0.1845824 0.3027477
vt 0.342527 0.1422453
vt 0.1823431 0.4557867
vt 0.04896933 0.4540558
vt 0.499928 0.1357183
vt 0.4997836 0
vt 0.1832927 0.5961909
vt 0.04976472 0.5958567
vt 0.06102949 0.7025676
vt 0.1899491 0.6992073
vt 0.0897108 0.7942038
vt 0.3415144 0.596447
vt 0.3414882 0.4570999
vt 0.342086 0.2994933
vt 0.499857 0.298409
vt 0.6573523 0.1422453
vt 0.6574015 0.01068068
vt 0.7705756 0.05100489
vt 0.4998332 0.4575381
vt 0.6576674 0.2994933
vt 0.7904771 0.1618266
vt 0.841843 0.1058159
vt 0.8925025 0.1816783
vt 0.8152932 0.3027477
vt 0.9415665 0.3062887
vt 0.9510307 0.4540558
vt 0.8175135 0.4557867
vt 0.9502354 0.5958567
vt 0.658226 0.4570999
vt 0.8165644 0.5961909
vt 0.6581998 0.5964479
vt 0.809908 0.6992073
vt 0.9389704 0.7025676
vt 0.4998332 0.5965333
vt 0.6565357 0.6989198
vt 0.7941524 0.7891507
vt 0.9102892 0.7942038
vt 0.8136566 0.9567642
vt 0.7452297 0.9803462
vt 0.6525968 0.7906156
vt 0.6403661 0.9950862
vt 0.4998332 0.6988235
vt 0.4998332 0.7911043
vt 0.4998331 1
vt 0.3431785 0.6989198
vt 0.3471173 0.7906156
vt 0.3593478 0.9950867
vt 0.2057047 0.7891507
vt 0.2546272 0.9803462
vt 0.1863063 0.9567642
vn -0.4895642 -0.2639557 0.8310561
vn -0.356252 -0.4075728 0.8408144
vn -0.5592436 -0.447242 0.6980124
vn -0.3566839 -0.2586298 0.8977121
vn -0.4401008 -0.1039568 0.8919105
vn -0.1572316 -0.3990301 0.9033566
vn -0.3303917 -0.09573998 0.9389756
vn -0.1590765 -0.2512424 0.9547628
vn -0.3180877 -0.01756149 0.9478986
vn -0.4208032 -0.01793552 0.9069746
vn 2.648062E-05 -0.255791 0.9667321
vn -5.002068E-05 -0.4010512 0.9160556
vn -0.3228498 0.01703473 0.9462969
vn -0.4200961 0.02264373 0.9071971
vn -0.4291366 0.07493363 0.900126
vn -0.3315114 0.06047391 0.9415111
vn -0.4486523 0.2067613 0.8694602
vn -0.1546318 0.008571122 0.9879351
vn -0.1513042 -0.01835615 0.9883168
vn -0.1499724 -0.07782122 0.9856227
vn -6.108036E-06 -0.07711295 0.9970223
vn 0.1591126 -0.2513072 0.9547396
vn 0.1570812 -0.3992836 0.9032707
vn 0.3560444 -0.4081235 0.8406352
vn -3.493453E-06 -0.01967079 0.9998066
vn 0.1498871 -0.07775454 0.985641
vn 0.356519 -0.2587622 0.8977396
vn 0.558815 -0.448065 0.6978276
vn 0.4892177 -0.2639448 0.8312635
vn 0.3301263 -0.0956294 0.9390802
vn 0.4397489 -0.1038487 0.8920966
vn 0.4204361 -0.01791681 0.9071453
vn 0.3178121 -0.01754182 0.9479915
vn 0.4197229 0.02263113 0.9073702
vn 0.1512136 -0.01834056 0.9883309
vn 0.3225647 0.01702664 0.9463943
vn 0.1545405 0.008570046 0.9879493
vn 0.3312102 0.06044117 0.9416192
vn 0.4287471 0.07488146 0.9003159
vn 0 0.00610626 0.9999814
vn 0.1557913 0.04075368 0.9869489
vn 0.3260214 0.2027857 0.9233569
vn 0.4482065 0.2066622 0.8697135
vn 0.456174 0.2937119 0.8400229
vn 0.2828307 0.2664586 0.9214156
vn 0.134772 0.2005396 0.9703712
vn 0.1182102 0.2655461 0.9568238
vn -1.627719E-07 0.03837426 0.9992635
vn 0 0.2109132 0.9775048
vn 0 0.2744898 0.96159
vn -0.1558853 0.04075936 0.9869338
vn -0.1348606 0.2005487 0.9703571
vn -0.1182837 0.26556 0.9568108
vn -0.3263567 0.2028316 0.9232284
vn -0.2831329 0.2665033 0.9213098
vn -0.4566533 0.2938046 0.8397301
g Face_Polititian_0
f 3/3/3 2/2/2 1/1/1
f 2/2/2 4/4/4 1/1/1
f 1/1/1 4/4/4 5/5/5
f 2/2/2 6/6/6 4/4/4
f 4/4/4 7/7/7 5/5/5
f 6/6/6 8/8/8 4/4/4
f 4/4/4 8/8/8 7/7/7
f 7/7/7 9/9/9 5/5/5
f 9/9/9 10/10/10 5/5/5
f 11/11/11 8/8/8 6/6/6
f 12/12/12 11/11/11 6/6/6
f 9/9/9 13/13/13 10/10/10
f 13/13/13 14/14/14 10/10/10
f 14/14/14 13/13/13 15/15/15
f 13/13/13 16/16/16 15/15/15
f 15/15/15 16/16/16 17/17/17
f 18/18/18 13/13/13 9/9/9
f 13/13/13 18/18/18 16/16/16
f 19/19/19 9/9/9 7/7/7
f 19/19/19 18/18/18 9/9/9
f 8/8/8 20/20/20 7/7/7
f 20/20/20 19/19/19 7/7/7
f 21/21/21 20/20/20 8/8/8
f 11/11/11 21/21/21 8/8/8
f 22/22/22 11/11/11 12/12/12
f 23/23/23 22/22/22 12/12/12
f 23/23/23 24/24/24 22/22/22
f 25/25/25 19/19/19 20/20/20
f 21/21/21 25/25/25 20/20/20
f 26/26/26 21/21/21 11/11/11
f 22/22/22 26/26/26 11/11/11
f 24/24/24 27/27/27 22/22/22
f 22/22/22 27/27/27 26/26/26
f 24/24/24 28/28/28 27/27/27
f 28/28/28 29/29/29 27/27/27
f 27/27/27 29/29/29 30/30/30
f 27/27/27 30/30/30 26/26/26
f 29/29/29 31/31/31 30/30/30
f 31/31/31 32/32/32 30/30/30
f 32/32/32 33/33/33 30/30/30
f 30/30/30 33/33/33 26/26/26
f 32/32/32 34/34/34 33/33/33
f 26/26/26 35/35/35 21/21/21
f 33/33/33 35/35/35 26/26/26
f 35/35/35 25/25/25 21/21/21
f 34/34/34 36/36/36 33/33/33
f 33/33/33 36/36/36 35/35/35
f 35/35/35 37/37/37 25/25/25
f 36/36/36 37/37/37 35/35/35
f 36/36/36 34/34/34 38/38/38
f 34/34/34 39/39/39 38/38/38
f 37/37/37 40/40/40 25/25/25
f 25/25/25 40/40/40 19/19/19
f 40/40/40 18/18/18 19/19/19
f 37/37/37 36/36/36 41/41/41
f 37/37/37 41/41/41 40/40/40
f 36/36/36 38/38/38 41/41/41
f 38/38/38 39/39/39 42/42/42
f 39/39/39 43/43/43 42/42/42
f 43/43/43 44/44/44 42/42/42
f 44/44/44 45/45/45 42/42/42
f 38/38/38 42/42/42 46/46/46
f 42/42/42 45/45/45 46/46/46
f 41/41/41 38/38/38 46/46/46
f 45/45/45 47/47/47 46/46/46
f 41/41/41 48/48/48 40/40/40
f 40/40/40 48/48/48 18/18/18
f 41/41/41 46/46/46 48/48/48
f 46/46/46 47/47/47 49/49/49
f 46/46/46 49/49/49 48/48/48
f 47/47/47 50/50/50 49/49/49
f 48/48/48 51/51/51 18/18/18
f 48/48/48 49/49/49 51/51/51
f 18/18/18 51/51/51 16/16/16
f 49/49/49 50/50/50 52/52/52
f 49/49/49 52/52/52 51/51/51
f 50/50/50 53/53/53 52/52/52
f 16/16/16 51/51/51 54/54/54
f 51/51/51 52/52/52 54/54/54
f 52/52/52 53/53/53 54/54/54
f 16/16/16 54/54/54 17/17/17
f 53/53/53 55/55/55 54/54/54
f 54/54/54 55/55/55 17/17/17
f 55/55/55 56/56/56 17/17/17
