g Glasses
v 0.6472898 -2.924799 0.9178098
v 0.8037246 -2.924799 0.8902259
v 0.8106705 -2.924799 0.9296184
v 0.6542357 -2.924799 0.9572021
v 0.5081759 -2.831624 0.9423391
v 0.6472898 -2.924799 0.9178098
v 0.6542357 -2.924799 0.9572021
v 0.5151218 -2.831624 0.9817314
v 0.4699309 -2.670241 0.9490829
v 0.5081759 -2.831624 0.9423391
v 0.5151218 -2.831624 0.9817314
v 0.4768767 -2.670241 0.9884751
v 0.4699309 -2.483891 0.9490827
v 0.4699309 -2.670241 0.9490829
v 0.4768767 -2.670241 0.9884751
v 0.4768769 -2.483891 0.9884751
v 0.508176 -2.322507 0.9423392
v 0.4699309 -2.483891 0.9490827
v 0.4768769 -2.483891 0.9884751
v 0.5151219 -2.322507 0.9817314
v 0.5937752 -2.229333 0.9272459
v 0.508176 -2.322507 0.9423392
v 0.5151219 -2.322507 0.9817314
v 0.600721 -2.229333 0.9666381
v 0.750218 -2.229333 0.8996608
v 0.5937752 -2.229333 0.9272459
v 0.600721 -2.229333 0.9666381
v 0.757164 -2.229333 0.9390531
v 0.9511788 -2.322508 0.8642261
v 0.750218 -2.229333 0.8996608
v 0.757164 -2.229333 0.9390531
v 0.9581247 -2.322508 0.9036182
v 1.042938 -2.483891 0.8480461
v 0.9511788 -2.322508 0.8642261
v 0.9581247 -2.322508 0.9036182
v 1.049884 -2.483891 0.8874384
v 1.042938 -2.670241 0.8480462
v 1.042938 -2.483891 0.8480461
v 1.049884 -2.483891 0.8874384
v 1.049884 -2.670241 0.8874385
v 0.9511788 -2.831625 0.8642261
v 1.042938 -2.670241 0.8480462
v 1.049884 -2.670241 0.8874385
v 0.9581247 -2.831624 0.903618
v 0.8037246 -2.924799 0.8902259
v 0.9511788 -2.831625 0.8642261
v 0.9581247 -2.831624 0.903618
v 0.8106705 -2.924799 0.9296184
v 0.6542357 -2.924799 0.9572021
v 0.8106705 -2.924799 0.9296184
v 0.8187842 -2.963436 0.9281877
v 0.641894 -2.963436 0.9593782
v 0.5151218 -2.831624 0.9817314
v 0.4872672 -2.859909 0.986643
v 0.4768767 -2.670241 0.9884751
v 0.4388267 -2.680593 0.9951842
v 0.4768769 -2.483891 0.9884751
v 0.4388269 -2.473538 0.9951845
v 0.5151219 -2.322507 0.9817314
v 0.4872672 -2.294223 0.9866431
v 0.600721 -2.229333 0.9666381
v 0.5871316 -2.190696 0.9690343
v 0.757164 -2.229333 0.9390531
v 0.7652695 -2.190696 0.9376239
v 0.9581247 -2.322508 0.9036182
v 0.9859794 -2.294223 0.8987068
v 1.049884 -2.483891 0.8874384
v 1.087934 -2.473538 0.8807293
v 1.049884 -2.670241 0.8874385
v 1.087934 -2.680593 0.8807291
v 0.9581247 -2.831624 0.903618
v 0.9859794 -2.859909 0.8987066
v 0.8106705 -2.924799 0.9296184
v 0.8187842 -2.963436 0.9281877
v 0.4872672 -2.859909 0.986643
v 0.641894 -2.963436 0.9593782
v 0.6349481 -2.963436 0.9199861
v 0.4803213 -2.859909 0.9472505
v 0.4388267 -2.680593 0.9951842
v 0.4872672 -2.859909 0.986643
v 0.4803213 -2.859909 0.9472505
v 0.4318808 -2.680593 0.9557922
v 0.4388269 -2.473538 0.9951845
v 0.4388267 -2.680593 0.9951842
v 0.4318808 -2.680593 0.9557922
v 0.431881 -2.473538 0.9557922
v 0.4872672 -2.294223 0.9866431
v 0.4388269 -2.473538 0.9951845
v 0.431881 -2.473538 0.9557922
v 0.4803213 -2.294223 0.9472509
v 0.5871316 -2.190696 0.9690343
v 0.4872672 -2.294223 0.9866431
v 0.4803213 -2.294223 0.9472509
v 0.5801856 -2.190696 0.929642
v 0.6188177 -2.998355 0.8071495
v 0.5362905 -2.998355 0.8217014
v 0.5432098 -2.994869 0.8609436
v 0.6257371 -2.994869 0.8463918
v 0.9859794 -2.294223 0.8987068
v 0.7652695 -2.190696 0.9376239
v 0.7583235 -2.190696 0.8982316
v 0.9790334 -2.294223 0.8593145
v 1.087934 -2.473538 0.8807293
v 0.9859794 -2.294223 0.8987068
v 0.9790334 -2.294223 0.8593145
v 1.080988 -2.473538 0.841337
v 1.087934 -2.680593 0.8807291
v 1.087934 -2.473538 0.8807293
v 1.080988 -2.473538 0.841337
v 1.080988 -2.680593 0.8413371
v 0.9859794 -2.859909 0.8987066
v 1.087934 -2.680593 0.8807291
v 1.080988 -2.680593 0.8413371
v 0.9790334 -2.859909 0.8593141
v 0.8187842 -2.963436 0.9281877
v 0.9859794 -2.859909 0.8987066
v 0.9790334 -2.859909 0.8593141
v 0.8118383 -2.963436 0.8887954
v 0.6349481 -2.963436 0.9199861
v 0.8118383 -2.963436 0.8887954
v 0.8037246 -2.924799 0.8902259
v 0.6472898 -2.924799 0.9178098
v 0.4803213 -2.859909 0.9472505
v 0.5081759 -2.831624 0.9423391
v 0.4318808 -2.680593 0.9557922
v 0.4699309 -2.670241 0.9490829
v 0.431881 -2.473538 0.9557922
v 0.4699309 -2.483891 0.9490827
v 0.4803213 -2.294223 0.9472509
v 0.508176 -2.322507 0.9423392
v 0.5801856 -2.190696 0.929642
v 0.5937752 -2.229333 0.9272459
v 0.7583235 -2.190696 0.8982316
v 0.750218 -2.229333 0.8996608
v 0.9790334 -2.294223 0.8593145
v 0.9511788 -2.322508 0.8642261
v 1.080988 -2.473538 0.841337
v 1.042938 -2.483891 0.8480461
v 1.080988 -2.680593 0.8413371
v 1.042938 -2.670241 0.8480462
v 0.9790334 -2.859909 0.8593141
v 0.9511788 -2.831625 0.8642261
v 0.8118383 -2.963436 0.8887954
v 0.8037246 -2.924799 0.8902259
v 0.641894 -2.963436 0.9593782
v 0.8187842 -2.963436 0.9281877
v 0.7410876 -3.043098 0.9470756
v 0.6493533 -3.043097 0.9632511
v 0.8187842 -2.963436 0.9281877
v 0.8118383 -2.963436 0.8887954
v 0.7344655 -3.040112 0.9081609
v 0.7410876 -3.043098 0.9470756
v 0.8118383 -2.963436 0.8887954
v 0.6349481 -2.963436 0.9199861
v 0.642993 -3.040094 0.9242931
v 0.7344655 -3.040112 0.9081609
v 0.6349481 -2.963436 0.9199861
v 0.641894 -2.963436 0.9593782
v 0.6493533 -3.043097 0.9632511
v 0.642993 -3.040094 0.9242931
v 0.7652695 -2.190696 0.9376239
v 0.5871316 -2.190696 0.9690343
v 0.630899 -2.121936 0.9403883
v 0.7036027 -2.121935 0.9275686
v 0.5871316 -2.190696 0.9690343
v 0.5801856 -2.190696 0.929642
v 0.6235554 -2.169548 0.8888116
v 0.630899 -2.121936 0.9403883
v 0.5801856 -2.190696 0.929642
v 0.7583235 -2.190696 0.8982316
v 0.6953029 -2.169548 0.8761604
v 0.6235554 -2.169548 0.8888116
v 0.7583235 -2.190696 0.8982316
v 0.7652695 -2.190696 0.9376239
v 0.7036027 -2.121935 0.9275686
v 0.6953029 -2.169548 0.8761604
v 0.7036027 -2.121935 0.9275686
v 0.630899 -2.121936 0.9403883
v 0.5904729 -2.155925 0.8120428
v 0.6729811 -2.155925 0.7974944
v 0.630899 -2.121936 0.9403883
v 0.6235554 -2.169548 0.8888116
v 0.5966119 -2.169606 0.8491281
v 0.5904729 -2.155925 0.8120428
v 0.6235554 -2.169548 0.8888116
v 0.6953029 -2.169548 0.8761604
v 0.6791198 -2.169606 0.8345798
v 0.5966119 -2.169606 0.8491281
v 0.6953029 -2.169548 0.8761604
v 0.7036027 -2.121935 0.9275686
v 0.6729811 -2.155925 0.7974944
v 0.6791198 -2.169606 0.8345798
v 0.6729811 -2.155925 0.7974944
v 0.5904729 -2.155925 0.8120428
v 0.5362905 -2.998355 0.8217014
v 0.6188177 -2.998355 0.8071495
v 0.5904729 -2.155925 0.8120428
v 0.5966119 -2.169606 0.8491281
v 0.5432098 -2.994869 0.8609436
v 0.5362905 -2.998355 0.8217014
v 0.5966119 -2.169606 0.8491281
v 0.6791198 -2.169606 0.8345798
v 0.6257371 -2.994869 0.8463918
v 0.5432098 -2.994869 0.8609436
v 0.6791198 -2.169606 0.8345798
v 0.6729811 -2.155925 0.7974944
v 0.6188177 -2.998355 0.8071495
v 0.6257371 -2.994869 0.8463918
vt 0.4260254 0.2856445
vt 0.4123535 0.2856445
vt 0.4123535 0.2445068
vt 0.4260254 0.2445068
vt 0.4396973 0.2856445
vt 0.4260254 0.2856445
vt 0.4260254 0.2445068
vt 0.4396973 0.2445068
vt 0.4536133 0.2856445
vt 0.4396973 0.2856445
vt 0.4396973 0.2445068
vt 0.4536133 0.2445068
vt 0.4672852 0.2856445
vt 0.4536133 0.2856445
vt 0.4536133 0.2445068
vt 0.4672852 0.2445068
vt 0.480957 0.2856445
vt 0.4672852 0.2856445
vt 0.4672852 0.2445068
vt 0.480957 0.2445068
vt 0.4946289 0.2856445
vt 0.480957 0.2856445
vt 0.480957 0.2445068
vt 0.4946289 0.2445068
vt 0.5083008 0.2856445
vt 0.4946289 0.2856445
vt 0.4946289 0.2445068
vt 0.5083008 0.2445068
vt 0.5219727 0.2856445
vt 0.5083008 0.2856445
vt 0.5083008 0.2445068
vt 0.5219727 0.2445068
vt 0.5361328 0.2856445
vt 0.5219727 0.2856445
vt 0.5219727 0.2445068
vt 0.5361328 0.2445068
vt 0.5498047 0.2856445
vt 0.5361328 0.2856445
vt 0.5361328 0.2445068
vt 0.5498047 0.2445068
vt 0.5634766 0.2856445
vt 0.5498047 0.2856445
vt 0.5498047 0.2445068
vt 0.5634766 0.2445068
vt 0.5771484 0.2856445
vt 0.5634766 0.2856445
vt 0.5634766 0.2445068
vt 0.5771484 0.2445068
vt 0.4260254 0.2445068
vt 0.4123535 0.2445068
vt 0.4123535 0.2032471
vt 0.4260254 0.2032471
vt 0.4396973 0.2445068
vt 0.4396973 0.2032471
vt 0.4536133 0.2445068
vt 0.4536133 0.2032471
vt 0.4672852 0.2445068
vt 0.4672852 0.2032471
vt 0.480957 0.2445068
vt 0.480957 0.2032471
vt 0.4946289 0.2445068
vt 0.4946289 0.2032471
vt 0.5083008 0.2445068
vt 0.5083008 0.2032471
vt 0.5219727 0.2445068
vt 0.5219727 0.2032471
vt 0.5361328 0.2445068
vt 0.5361328 0.2032471
vt 0.5498047 0.2445068
vt 0.5498047 0.2032471
vt 0.5634766 0.2445068
vt 0.5634766 0.2032471
vt 0.5771484 0.2445068
vt 0.5771484 0.2032471
vt 0.4396973 0.2032471
vt 0.4260254 0.2032471
vt 0.4260254 0.1621094
vt 0.4396973 0.1621094
vt 0.4536133 0.2032471
vt 0.4396973 0.2032471
vt 0.4396973 0.1621094
vt 0.4536133 0.1621094
vt 0.4672852 0.2032471
vt 0.4536133 0.2032471
vt 0.4536133 0.1621094
vt 0.4672852 0.1621094
vt 0.480957 0.2032471
vt 0.4672852 0.2032471
vt 0.4672852 0.1621094
vt 0.480957 0.1621094
vt 0.4946289 0.2032471
vt 0.480957 0.2032471
vt 0.480957 0.1621094
vt 0.4946289 0.1621094
vt 0.5083008 0.2032471
vt 0.4946289 0.2032471
vt 0.4946289 0.1621094
vt 0.5083008 0.1621094
vt 0.5219727 0.2032471
vt 0.5083008 0.2032471
vt 0.5083008 0.1621094
vt 0.5219727 0.1621094
vt 0.5361328 0.2032471
vt 0.5219727 0.2032471
vt 0.5219727 0.1621094
vt 0.5361328 0.1621094
vt 0.5498047 0.2032471
vt 0.5361328 0.2032471
vt 0.5361328 0.1621094
vt 0.5498047 0.1621094
vt 0.5634766 0.2032471
vt 0.5498047 0.2032471
vt 0.5498047 0.1621094
vt 0.5634766 0.1621094
vt 0.5771484 0.2032471
vt 0.5634766 0.2032471
vt 0.5634766 0.1621094
vt 0.5771484 0.1621094
vt 0.4260254 0.1621094
vt 0.4123535 0.1621094
vt 0.4123535 0.1208496
vt 0.4260254 0.1208496
vt 0.4396973 0.1621094
vt 0.4396973 0.1208496
vt 0.4536133 0.1621094
vt 0.4536133 0.1208496
vt 0.4672852 0.1621094
vt 0.4672852 0.1208496
vt 0.480957 0.1621094
vt 0.480957 0.1208496
vt 0.4946289 0.1621094
vt 0.4946289 0.1208496
vt 0.5083008 0.1621094
vt 0.5083008 0.1208496
vt 0.5219727 0.1621094
vt 0.5219727 0.1208496
vt 0.5361328 0.1621094
vt 0.5361328 0.1208496
vt 0.5498047 0.1621094
vt 0.5498047 0.1208496
vt 0.5634766 0.1621094
vt 0.5634766 0.1208496
vt 0.5771484 0.1621094
vt 0.5771484 0.1208496
vt 0.4260254 0.2032471
vt 0.4123535 0.2032471
vt 0.4140625 0.203125
vt 0.4248047 0.203125
vt 0.4123535 0.2032471
vt 0.4123535 0.1621094
vt 0.4138184 0.1621094
vt 0.4140625 0.203125
vt 0.4123535 0.1621094
vt 0.4260254 0.1621094
vt 0.4248047 0.1622314
vt 0.4138184 0.1621094
vt 0.4260254 0.1621094
vt 0.4260254 0.2032471
vt 0.4248047 0.203125
vt 0.4248047 0.1622314
vt 0.5083008 0.2032471
vt 0.4946289 0.2032471
vt 0.4946289 0.2032471
vt 0.5083008 0.2032471
vt 0.4946289 0.2032471
vt 0.4946289 0.1621094
vt 0.4946289 0.1621094
vt 0.4946289 0.2032471
vt 0.4946289 0.1621094
vt 0.5083008 0.1621094
vt 0.5083008 0.1621094
vt 0.4946289 0.1621094
vt 0.5083008 0.1621094
vt 0.5083008 0.2032471
vt 0.5083008 0.2032471
vt 0.5083008 0.1621094
vt 0.5083008 0.2032471
vt 0.4946289 0.2032471
vt 0.4946289 0.2032471
vt 0.5083008 0.2032471
vt 0.4946289 0.2032471
vt 0.4946289 0.1621094
vt 0.4946289 0.1621094
vt 0.4946289 0.2032471
vt 0.4946289 0.1621094
vt 0.5083008 0.1621094
vt 0.5083008 0.1621094
vt 0.4946289 0.1621094
vt 0.5083008 0.1621094
vt 0.5083008 0.2032471
vt 0.5083008 0.2032471
vt 0.5083008 0.1621094
vt 0.5083008 0.2032471
vt 0.4946289 0.2032471
vt 0.4946289 0.2032471
vt 0.5083008 0.2032471
vt 0.4946289 0.2032471
vt 0.4946289 0.1621094
vt 0.4946289 0.1621094
vt 0.4946289 0.2032471
vt 0.4946289 0.1621094
vt 0.5083008 0.1621094
vt 0.5083008 0.1621094
vt 0.4946289 0.1621094
vt 0.5083008 0.1621094
vt 0.5083008 0.2032471
vt 0.5083008 0.2032471
vt 0.5083008 0.1621094
vn 0 1 0
vn 0 1 0
vn 0 1 0
vn 0 1 0
vn 0.5424805 0.8349609 -0.09564209
vn 0.5424805 0.8349609 -0.09564209
vn 0.5424805 0.8349609 -0.09564209
vn 0.5424805 0.8349609 -0.09564209
vn 0.9575195 0.2340088 -0.1688232
vn 0.9575195 0.2340088 -0.1688232
vn 0.9575195 0.2340088 -0.1688232
vn 0.9575195 0.2340088 -0.1688232
vn 0.9848633 0 -0.1737061
vn 0.9848633 0 -0.1737061
vn 0.9848633 0 -0.1737061
vn 0.9848633 0 -0.1737061
vn 0.9575195 -0.2340088 -0.1688232
vn 0.9575195 -0.2340088 -0.1688232
vn 0.9575195 -0.2340088 -0.1688232
vn 0.9575195 -0.2340088 -0.1688232
vn 0.7202148 -0.6821289 -0.1269531
vn 0.7202148 -0.6821289 -0.1269531
vn 0.7202148 -0.6821289 -0.1269531
vn 0.7202148 -0.6821289 -0.1269531
vn 0 -1 0
vn 0 -1 0
vn 0 -1 0
vn 0 -1 0
vn -0.4089355 -0.909668 0.07214355
vn -0.4089355 -0.909668 0.07214355
vn -0.4089355 -0.909668 0.07214355
vn -0.4089355 -0.909668 0.07214355
vn -0.8530273 -0.5 0.1503906
vn -0.8530273 -0.5 0.1503906
vn -0.8530273 -0.5 0.1503906
vn -0.8530273 -0.5 0.1503906
vn -0.9848633 0 0.1737061
vn -0.9848633 0 0.1737061
vn -0.9848633 0 0.1737061
vn -0.9848633 0 0.1737061
vn -0.8530273 0.5 0.1503906
vn -0.8530273 0.5 0.1503906
vn -0.8530273 0.5 0.1503906
vn -0.8530273 0.5 0.1503906
vn -0.5205078 0.8491211 0.09173584
vn -0.5205078 0.8491211 0.09173584
vn -0.5205078 0.8491211 0.09173584
vn -0.5205078 0.8491211 0.09173584
vn 0.1737061 0 0.9848633
vn 0.1737061 0 0.9848633
vn 0.1737061 0 0.9848633
vn 0.1737061 0 0.9848633
vn 0.1737061 0 0.9848633
vn 0.1737061 0 0.9848633
vn 0.1737061 0 0.9848633
vn 0.1737061 0 0.9848633
vn 0.1737061 0 0.9848633
vn 0.1737061 0 0.9848633
vn 0.1737061 0 0.9848633
vn 0.1737061 0 0.9848633
vn 0.1737061 0 0.9848633
vn 0.1737061 0 0.9848633
vn 0.1737061 0 0.9848633
vn 0.1737061 0 0.9848633
vn 0.1737061 -2.384186E-06 0.9848633
vn 0.1737061 -2.384186E-06 0.9848633
vn 0.1737061 0 0.9848633
vn 0.1737061 0 0.9848633
vn 0.1737061 0 0.9848633
vn 0.1737061 0 0.9848633
vn 0.1737061 0 0.9848633
vn 0.1737061 0 0.9848633
vn 0.1737061 0 0.9848633
vn 0.1737061 0 0.9848633
vn -0.5419922 -0.8349609 0.09558105
vn -0.5419922 -0.8349609 0.09558105
vn -0.5419922 -0.8349609 0.09558105
vn -0.5419922 -0.8349609 0.09558105
vn -0.949707 -0.2646484 0.1674805
vn -0.949707 -0.2646484 0.1674805
vn -0.949707 -0.2646484 0.1674805
vn -0.949707 -0.2646484 0.1674805
vn -0.9848633 0 0.1737061
vn -0.9848633 0 0.1737061
vn -0.9848633 0 0.1737061
vn -0.9848633 0 0.1737061
vn -0.949707 0.2646484 0.1674805
vn -0.949707 0.2646484 0.1674805
vn -0.949707 0.2646484 0.1674805
vn -0.949707 0.2646484 0.1674805
vn -0.7036133 0.699707 0.1240845
vn -0.7036133 0.699707 0.1240845
vn -0.7036133 0.699707 0.1240845
vn -0.7036133 0.699707 0.1240845
vn 0.01513672 -0.9960938 0.08581543
vn 0.01513672 -0.9960938 0.08581543
vn 0.01513672 -0.9960938 0.08581543
vn 0.01513672 -0.9960938 0.08581543
vn 0.4130859 0.9077148 -0.07281494
vn 0.4130859 0.9077148 -0.07281494
vn 0.4130859 0.9077148 -0.07281494
vn 0.4130859 0.9077148 -0.07281494
vn 0.8530273 0.5 -0.1503906
vn 0.8530273 0.5 -0.1503906
vn 0.8530273 0.5 -0.1503906
vn 0.8530273 0.5 -0.1503906
vn 0.9848633 0 -0.1737061
vn 0.9848633 0 -0.1737061
vn 0.9848633 0 -0.1737061
vn 0.9848633 0 -0.1737061
vn 0.8530273 -0.5 -0.1503906
vn 0.8530273 -0.5 -0.1503906
vn 0.8530273 -0.5 -0.1503906
vn 0.8530273 -0.5 -0.1503906
vn 0.5126953 -0.8540039 -0.09039307
vn 0.5126953 -0.8540039 -0.09039307
vn 0.5126953 -0.8540039 -0.09039307
vn 0.5126953 -0.8540039 -0.09039307
vn -0.1737061 -2.205372E-06 -0.9848633
vn -0.1737061 0 -0.9848633
vn -0.1737061 0 -0.9848633
vn -0.1737061 -2.205372E-06 -0.9848633
vn -0.1737061 0 -0.9848633
vn -0.1737061 0 -0.9848633
vn -0.1737061 0 -0.9848633
vn -0.1737061 0 -0.9848633
vn -0.1737061 0 -0.9848633
vn -0.1737061 0 -0.9848633
vn -0.1737061 0 -0.9848633
vn -0.1737061 0 -0.9848633
vn -0.1737061 0 -0.9848633
vn -0.1737061 0 -0.9848633
vn -0.1737061 0 -0.9848633
vn -0.1737061 0 -0.9848633
vn -0.1737061 0 -0.9848633
vn -0.1737061 0 -0.9848633
vn -0.1737061 0 -0.9848633
vn -0.1737061 0 -0.9848633
vn -0.1737061 0 -0.9848633
vn -0.1737061 0 -0.9848633
vn -0.1737061 2.861023E-06 -0.9848633
vn -0.1737061 2.801418E-06 -0.9848633
vn -0.1737061 0 -0.9848633
vn -0.1737061 0 -0.9848633
vn 0.1733398 0.06402588 0.9829102
vn 0.1733398 0.06402588 0.9829102
vn 0.1733398 0.06402588 0.9829102
vn 0.1733398 0.06402588 0.9829102
vn 0.684082 -0.7143555 -0.145874
vn 0.684082 -0.7143555 -0.145874
vn 0.684082 -0.7143555 -0.145874
vn 0.684082 -0.7143555 -0.145874
vn -0.1732178 -0.07330322 -0.9819336
vn -0.1732178 -0.07330322 -0.9819336
vn -0.1732178 -0.07330322 -0.9819336
vn -0.1732178 -0.07330322 -0.9819336
vn -0.9824219 -0.08886719 0.1634521
vn -0.9824219 -0.08886719 0.1634521
vn -0.9824219 -0.08886719 0.1634521
vn -0.9824219 -0.08886719 0.1634521
vn 0.1663818 0.2871094 0.9433594
vn 0.1663818 0.2871094 0.9433594
vn 0.1663818 0.2871094 0.9433594
vn 0.1663818 0.2871094 0.9433594
vn -0.7749023 0.6015625 -0.1932373
vn -0.7749023 0.6015625 -0.1932373
vn -0.7749023 0.6015625 -0.1932373
vn -0.7749023 0.6015625 -0.1932373
vn -0.09436035 -0.8393555 -0.5351563
vn -0.09436035 -0.8393555 -0.5351563
vn -0.09436035 -0.8393555 -0.5351563
vn -0.09436035 -0.8393555 -0.5351563
vn 0.5957031 0.6660156 -0.4492188
vn 0.5957031 0.6660156 -0.4492188
vn 0.5957031 0.6660156 -0.4492188
vn 0.5957031 0.6660156 -0.4492188
vn -0.0428772 0.9692383 -0.2431641
vn -0.0428772 0.9692383 -0.2431641
vn -0.0428772 0.9692383 -0.2431641
vn -0.0428772 0.9692383 -0.2431641
vn -0.9204102 -0.07263184 0.3837891
vn -0.9204102 -0.07263184 0.3837891
vn -0.9204102 -0.07263184 0.3837891
vn -0.9204102 -0.07263184 0.3837891
vn 0.0002286434 -1 0.001302719
vn 0.0002286434 -1 0.001302719
vn 0.0002286434 -1 0.001302719
vn 0.0002286434 -1 0.001302719
vn 0.9628906 0.0287323 -0.2683105
vn 0.9628906 0.0287323 -0.2683105
vn 0.9628906 0.0287323 -0.2683105
vn 0.9628906 0.0287323 -0.2683105
vn -0.1737061 -0.0001223087 -0.9848633
vn -0.1737061 -0.0001223087 -0.9848633
vn -0.1737061 -0.0001223087 -0.9848633
vn -0.1737061 -0.0001223087 -0.9848633
vn -0.9819336 0.06561279 0.1767578
vn -0.9819336 0.06561279 0.1767578
vn -0.9819336 0.06561279 0.1767578
vn -0.9819336 0.06561279 0.1767578
vn 0.1737061 0.00286293 0.9848633
vn 0.1737061 0.00286293 0.9848633
vn 0.1737061 0.00286293 0.9848633
vn 0.1737061 0.00286293 0.9848633
vn 0.9819336 -0.06561279 -0.1767578
vn 0.9819336 -0.06561279 -0.1767578
vn 0.9819336 -0.06561279 -0.1767578
vn 0.9819336 -0.06561279 -0.1767578
g Glasses_0
f 3/3/3 2/2/2 1/1/1
f 4/4/4 3/3/3 1/1/1
f 7/7/7 6/6/6 5/5/5
f 8/8/8 7/7/7 5/5/5
f 11/11/11 10/10/10 9/9/9
f 12/12/12 11/11/11 9/9/9
f 15/15/15 14/14/14 13/13/13
f 16/16/16 15/15/15 13/13/13
f 19/19/19 18/18/18 17/17/17
f 20/20/20 19/19/19 17/17/17
f 23/23/23 22/22/22 21/21/21
f 24/24/24 23/23/23 21/21/21
f 27/27/27 26/26/26 25/25/25
f 28/28/28 27/27/27 25/25/25
f 31/31/31 30/30/30 29/29/29
f 32/32/32 31/31/31 29/29/29
f 35/35/35 34/34/34 33/33/33
f 36/36/36 35/35/35 33/33/33
f 39/39/39 38/38/38 37/37/37
f 40/40/40 39/39/39 37/37/37
f 43/43/43 42/42/42 41/41/41
f 44/44/44 43/43/43 41/41/41
f 47/47/47 46/46/46 45/45/45
f 48/48/48 47/47/47 45/45/45
f 51/51/51 50/50/50 49/49/49
f 52/52/52 51/51/51 49/49/49
f 52/52/52 49/49/49 53/53/53
f 54/54/54 52/52/52 53/53/53
f 54/54/54 53/53/53 55/55/55
f 56/56/56 54/54/54 55/55/55
f 56/56/56 55/55/55 57/57/57
f 58/58/58 56/56/56 57/57/57
f 58/58/58 57/57/57 59/59/59
f 60/60/60 58/58/58 59/59/59
f 60/60/60 59/59/59 61/61/61
f 62/62/62 60/60/60 61/61/61
f 62/62/62 61/61/61 63/63/63
f 64/64/64 62/62/62 63/63/63
f 64/64/64 63/63/63 65/65/65
f 66/66/66 64/64/64 65/65/65
f 66/66/66 65/65/65 67/67/67
f 68/68/68 66/66/66 67/67/67
f 68/68/68 67/67/67 69/69/69
f 70/70/70 68/68/68 69/69/69
f 70/70/70 69/69/69 71/71/71
f 72/72/72 70/70/70 71/71/71
f 72/72/72 71/71/71 73/73/73
f 74/74/74 72/72/72 73/73/73
f 77/77/77 76/76/76 75/75/75
f 78/78/78 77/77/77 75/75/75
f 81/81/81 80/80/80 79/79/79
f 82/82/82 81/81/81 79/79/79
f 85/85/85 84/84/84 83/83/83
f 86/86/86 85/85/85 83/83/83
f 89/89/89 88/88/88 87/87/87
f 90/90/90 89/89/89 87/87/87
f 93/93/93 92/92/92 91/91/91
f 94/94/94 93/93/93 91/91/91
f 97/97/97 96/96/96 95/95/95
f 98/98/98 97/97/97 95/95/95
f 101/101/101 100/100/100 99/99/99
f 102/102/102 101/101/101 99/99/99
f 105/105/105 104/104/104 103/103/103
f 106/106/106 105/105/105 103/103/103
f 109/109/109 108/108/108 107/107/107
f 110/110/110 109/109/109 107/107/107
f 113/113/113 112/112/112 111/111/111
f 114/114/114 113/113/113 111/111/111
f 117/117/117 116/116/116 115/115/115
f 118/118/118 117/117/117 115/115/115
f 121/121/121 120/120/120 119/119/119
f 122/122/122 121/121/121 119/119/119
f 122/122/122 119/119/119 123/123/123
f 124/124/124 122/122/122 123/123/123
f 124/124/124 123/123/123 125/125/125
f 126/126/126 124/124/124 125/125/125
f 126/126/126 125/125/125 127/127/127
f 128/128/128 126/126/126 127/127/127
f 128/128/128 127/127/127 129/129/129
f 130/130/130 128/128/128 129/129/129
f 130/130/130 129/129/129 131/131/131
f 132/132/132 130/130/130 131/131/131
f 132/132/132 131/131/131 133/133/133
f 134/134/134 132/132/132 133/133/133
f 134/134/134 133/133/133 135/135/135
f 136/136/136 134/134/134 135/135/135
f 136/136/136 135/135/135 137/137/137
f 138/138/138 136/136/136 137/137/137
f 138/138/138 137/137/137 139/139/139
f 140/140/140 138/138/138 139/139/139
f 140/140/140 139/139/139 141/141/141
f 142/142/142 140/140/140 141/141/141
f 142/142/142 141/141/141 143/143/143
f 144/144/144 142/142/142 143/143/143
f 147/147/147 146/146/146 145/145/145
f 148/148/148 147/147/147 145/145/145
f 151/151/151 150/150/150 149/149/149
f 152/152/152 151/151/151 149/149/149
f 155/155/155 154/154/154 153/153/153
f 156/156/156 155/155/155 153/153/153
f 159/159/159 158/158/158 157/157/157
f 160/160/160 159/159/159 157/157/157
f 163/163/163 162/162/162 161/161/161
f 164/164/164 163/163/163 161/161/161
f 167/167/167 166/166/166 165/165/165
f 168/168/168 167/167/167 165/165/165
f 171/171/171 170/170/170 169/169/169
f 172/172/172 171/171/171 169/169/169
f 175/175/175 174/174/174 173/173/173
f 176/176/176 175/175/175 173/173/173
f 179/179/179 178/178/178 177/177/177
f 180/180/180 179/179/179 177/177/177
f 183/183/183 182/182/182 181/181/181
f 184/184/184 183/183/183 181/181/181
f 187/187/187 186/186/186 185/185/185
f 188/188/188 187/187/187 185/185/185
f 191/191/191 190/190/190 189/189/189
f 192/192/192 191/191/191 189/189/189
f 195/195/195 194/194/194 193/193/193
f 196/196/196 195/195/195 193/193/193
f 199/199/199 198/198/198 197/197/197
f 200/200/200 199/199/199 197/197/197
f 203/203/203 202/202/202 201/201/201
f 204/204/204 203/203/203 201/201/201
f 207/207/207 206/206/206 205/205/205
f 208/208/208 207/207/207 205/205/205
