g Hair_Clown
v -0.005134799 0.0226388 0.008227379
v -5.245474E-09 0.01986461 0.01495018
v -0.008308276 0.01699787 0.0162234
v -5.245474E-09 0.01986461 0.01495018
v -4.91371E-09 0.01351156 0.02116521
v -0.01413488 0.01313298 0.01578775
v 0.008308265 0.01699787 0.0162234
v -4.569889E-09 0.007201751 0.02419526
v -0.0143202 0.007089743 0.01932316
v -4.569889E-09 0.007201751 0.02419526
v -0.006011924 0.003603462 0.02426497
v 0.01413487 0.01313298 0.01578775
v 0.006011916 0.003603462 0.02426497
v 0.01432018 0.007089744 0.01932316
v -0.01287112 -0.001347978 0.02158656
v -0.01945499 -0.0009619908 0.0156109
v -0.01413488 0.01313298 0.01578775
v -0.02287071 -0.0005654648 0.009472083
v -0.01803577 0.01369427 0.009961255
v -0.02317056 0.005642524 0.006248991
v -0.01432019 -0.009424523 0.01825841
v -0.02287071 -0.0005654648 0.009472083
v -0.01413488 -0.01496279 0.01397629
v -0.02317056 -0.006307307 0.005478532
v -0.01803577 -0.01476985 0.008126041
v -0.006011923 -0.006602927 0.02360692
v -0.01413488 -0.01496279 0.01397629
v -3.300092E-09 -0.01016239 0.02307572
v -3.300092E-09 -0.01016239 0.02307572
v -4.569889E-09 0.007201751 0.02419526
v -0.008308273 -0.01885167 0.01391203
v 0.006011916 -0.006602926 0.02360692
v -2.592742E-09 -0.01603006 0.01926053
v 0.01287111 -0.001347978 0.02158656
v 0.01432019 -0.009424523 0.01825841
v -3.300092E-09 -0.01016239 0.02307572
v 0.01413487 -0.01496278 0.01397629
v 0.008308268 -0.01885167 0.01391203
v 0.01945498 -0.00096199 0.0156109
v 0.01413487 -0.01496278 0.01397629
v 0.0228707 -0.0005654637 0.009472084
v 0.0228707 -0.0005654637 0.009472084
v 0.01413487 0.01313298 0.01578775
v 0.02317055 0.005642525 0.006248991
v 0.01803576 0.01369427 0.009961256
v 0.01803576 -0.01476985 0.008126041
v 0.02317055 -0.006307307 0.005478533
v 0.0208259 -0.01279194 -0.0001061478
v 0.02317055 -0.005642608 -0.00481178
v 0.01803576 -0.01369437 -0.008524044
v 0.01486228 -0.01933529 -0.0005280281
v 0.01413487 -0.01496278 0.01397629
v 0.008735832 -0.02273001 -0.0007469021
v 0.008735832 -0.02273001 -0.0007469021
v 0.01413487 -0.01313306 -0.01435054
v 0.005134793 -0.0226389 -0.006790178
v 0.008308269 -0.01699796 -0.01478619
v 0.005134793 -0.02341712 0.005257947
v -1.463458E-09 -0.02153084 0.01228124
v -0.005134794 -0.02341712 0.005257947
v -0.01413488 -0.01496279 0.01397629
v -0.008735833 -0.02273001 -0.0007469021
v -0.008735833 -0.02273001 -0.0007469021
v 0.008735832 -0.02273001 -0.0007469021
v -0.005134793 -0.0226389 -0.006790178
v 0.005134793 -0.0226389 -0.006790178
v -5.701922E-10 -0.01986472 -0.01351298
v -0.01486229 -0.01933529 -0.0005280282
v -0.02082591 -0.01279194 -0.0001061482
v -0.02317056 -0.00564261 -0.004811781
v -0.01803577 -0.01369437 -0.008524045
v -0.01413488 -0.01313306 -0.01435054
v -0.008735833 -0.02273001 -0.0007469021
v -0.008308275 -0.01699796 -0.01478619
v -0.005134793 -0.0226389 -0.006790178
v -5.245474E-09 0.01986461 0.01495018
v 0.005134788 0.0226388 0.00822738
v 0.0228707 -0.0005654637 0.009472084
v 0.02317055 0.005642525 0.006248991
v 0.02317055 0.006307211 -0.004041328
v 0.0228707 0.0005653693 -0.008034867
v 0.01413487 0.01313298 0.01578775
v 0.008308265 0.01699787 0.0162234
v 0.005134788 0.0226388 0.00822738
v 0.008735827 0.0227299 0.002184103
v 0.01803576 0.01369427 0.009961256
v 0.01486228 0.01933519 0.001965231
v 0.0208259 0.01279185 0.001543353
v 0.02317055 0.005642525 0.006248991
v 0.02317055 0.006307211 -0.004041328
v 0.01803576 0.01476977 -0.006688836
v 0.0228707 0.0005653693 -0.008034867
v 0.01413487 0.01496269 -0.01253909
v 0.01413487 0.01496269 -0.01253909
v 0.008735827 0.0227299 0.002184103
v 0.01945498 0.0009618966 -0.01417369
v 0.008308265 0.01885157 -0.01247482
v 0.01432019 0.009424428 -0.01682121
v 0.005134787 0.02341703 -0.00382074
v 0.01287111 0.001347884 -0.02014935
v 0.01432019 -0.007089837 -0.01788595
v 0.0228707 0.0005653693 -0.008034867
v 0.01413487 -0.01313306 -0.01435054
v 0.02317055 -0.005642608 -0.00481178
v 0.01803576 -0.01369437 -0.008524044
v 0.006011916 -0.003603557 -0.02282776
v 0.01413487 -0.01313306 -0.01435054
v -4.689384E-09 -0.007201835 -0.02275806
v 0.008308269 -0.01699796 -0.01478619
v -3.453697E-09 -0.01351165 -0.019728
v 0.006011914 0.006602831 -0.02216971
v -4.689384E-09 -0.007201835 -0.02275806
v -5.556994E-09 0.01016229 -0.02163851
v -5.556994E-09 0.01016229 -0.02163851
v 0.01413487 0.01496269 -0.01253909
v -0.006011926 -0.003603557 -0.02282776
v -5.638984E-09 0.01602997 -0.01782332
v -0.006011926 0.006602831 -0.02216971
v -5.663672E-09 0.02153074 -0.01084403
v -0.008308277 0.01885157 -0.01247482
v -5.556994E-09 0.01016229 -0.02163851
v -0.01413488 0.01496269 -0.01253909
v -0.0143202 0.009424427 -0.01682121
v -0.005134799 0.02341703 -0.00382074
v -0.01413488 0.01496269 -0.01253909
v -0.008735837 0.0227299 0.002184103
v -0.008735837 0.0227299 0.002184103
v 0.008735827 0.0227299 0.002184103
v -0.005134799 0.0226388 0.008227379
v 0.005134788 0.0226388 0.00822738
v -5.245474E-09 0.01986461 0.01495018
v -0.01803577 0.01476976 -0.006688837
v -0.01486229 0.01933519 0.001965231
v -0.01287112 0.001347883 -0.02014935
v -0.0143202 -0.007089837 -0.01788595
v -4.689384E-09 -0.007201835 -0.02275806
v -0.01413488 -0.01313306 -0.01435054
v -0.008308275 -0.01699796 -0.01478619
v -0.01945499 0.0009618955 -0.01417369
v -0.01413488 -0.01313306 -0.01435054
v -0.02287071 0.0005653681 -0.008034867
v -0.02287071 0.0005653681 -0.008034867
v -0.01803577 -0.01369437 -0.008524045
v -0.02317056 -0.00564261 -0.004811781
v -0.01413488 0.01496269 -0.01253909
v -0.02317056 0.006307209 -0.004041329
v -5.701922E-10 -0.01986472 -0.01351298
v -0.005134793 -0.0226389 -0.006790178
v 0.005134793 -0.0226389 -0.006790178
v -0.02082591 0.01279185 0.001543352
v -0.02317056 0.005642524 0.006248991
v -0.01803577 0.01369427 0.009961255
v -0.01413488 0.01313298 0.01578775
v -0.008735837 0.0227299 0.002184103
v -0.008308276 0.01699787 0.0162234
v -0.005134799 0.0226388 0.008227379
v -0.02287071 0.0005653681 -0.008034867
v -0.02317056 0.006307209 -0.004041329
v -0.02317056 0.005642524 0.006248991
v -0.02287071 -0.0005654648 0.009472083
v -0.02287071 -0.0005654648 0.009472083
v -0.02317056 -0.006307307 0.005478532
v -0.02317056 -0.00564261 -0.004811781
v -0.02287071 0.0005653681 -0.008034867
v 0.0228707 0.0005653693 -0.008034867
v 0.02317055 -0.005642608 -0.00481178
v 0.02317055 -0.006307307 0.005478533
v 0.0228707 -0.0005654637 0.009472084
vt 0.3901035 0.9733546
vt 0.4999999 0.995904
vt 0.3221836 0.9594036
vt 0.4999999 0.995904
vt 0.4999999 0.9507812
vt 0.1974808 0.8875121
vt 0.6778163 0.9594036
vt 0.4999999 0.8728431
vt 0.1935146 0.8195425
vt 0.4999999 0.8728431
vt 0.3713309 0.81092
vt 0.8025191 0.8875121
vt 0.628669 0.81092
vt 0.8064853 0.8195425
vt 0.2245281 0.6964703
vt 0.08361802 0.64021
vt 0.1974808 0.8875121
vt 0.01051369 0.5824134
vt 0.1139927 0.8358765
vt 0.00409624 0.6565436
vt 0.1935146 0.5207541
vt 0.01051369 0.5824134
vt 0.1974808 0.3791832
vt 0.00409624 0.4403389
vt 0.1139927 0.3208827
vt 0.3713309 0.626259
vt 0.1974808 0.3791832
vt 0.4999999 0.5586786
vt 0.4999999 0.5586786
vt 0.4999999 0.8728431
vt 0.3221836 0.310788
vt 0.628669 0.626259
vt 0.4999999 0.4162927
vt 0.7754717 0.6964703
vt 0.8064853 0.5207541
vt 0.4999999 0.5586786
vt 0.8025191 0.3791832
vt 0.6778163 0.310788
vt 0.9163818 0.64021
vt 0.8025191 0.3791832
vt 0.9894862 0.5824134
vt 0.9894862 0.5824134
vt 0.8025191 0.8875121
vt 0.9959036 0.6565436
vt 0.8860072 0.8358765
vt 0.8860072 0.3208827
vt 0.9959036 0.4403389
vt 0.9457227 0.2685598
vt 0.9959036 0.3434562
vt 0.8860072 0.1641235
vt 0.8180873 0.1501725
vt 0.8025191 0.3791832
vt 0.6869671 0.08875299
vt 0.6869671 0.08875299
vt 0.8025191 0.1124879
vt 0.6098964 0.02664536
vt 0.6778163 0.04059634
vt 0.6098964 0.1400776
vt 0.4999999 0.2469469
vt 0.3901035 0.1400776
vt 0.1974808 0.3791832
vt 0.3130328 0.08875299
vt 0.3130328 0.08875299
vt 0.6869671 0.08875299
vt 0.3901035 0.02664536
vt 0.6098964 0.02664536
vt 0.4999999 0.00409627
vt 0.1819125 0.1501725
vt 0.05427721 0.2685598
vt 0.00409624 0.3434562
vt 0.1139927 0.1641235
vt 0.1974808 0.1124879
vt 0.3130328 0.08875299
vt 0.3221836 0.04059634
vt 0.3901035 0.02664536
vt 0.4999999 0.995904
vt 0.6098964 0.9733546
vt 0.9894862 0.5824134
vt 0.9959036 0.6565436
vt 0.9959036 0.5596614
vt 0.9894862 0.4175866
vt 0.8025191 0.8875121
vt 0.6778163 0.9594036
vt 0.6098964 0.9733546
vt 0.6869671 0.911247
vt 0.8860072 0.8358765
vt 0.8180873 0.8498275
vt 0.9457227 0.7314402
vt 0.9959036 0.6565436
vt 0.9959036 0.5596614
vt 0.8860072 0.6791171
vt 0.9894862 0.4175866
vt 0.8025191 0.620817
vt 0.8025191 0.620817
vt 0.6869671 0.911247
vt 0.9163818 0.35979
vt 0.6778163 0.6892117
vt 0.8064853 0.4792461
vt 0.6098964 0.8599226
vt 0.7754717 0.3035297
vt 0.8064853 0.1804578
vt 0.9894862 0.4175866
vt 0.8025191 0.1124879
vt 0.9959036 0.3434562
vt 0.8860072 0.1641235
vt 0.628669 0.18908
vt 0.8025191 0.1124879
vt 0.4999999 0.1271571
vt 0.6778163 0.04059634
vt 0.4999999 0.04921883
vt 0.628669 0.373741
vt 0.4999999 0.1271571
vt 0.4999999 0.4413216
vt 0.4999999 0.4413216
vt 0.8025191 0.620817
vt 0.3713309 0.18908
vt 0.4999999 0.5837073
vt 0.3713309 0.373741
vt 0.4999999 0.7530531
vt 0.3221836 0.6892117
vt 0.4999999 0.4413216
vt 0.1974808 0.620817
vt 0.1935146 0.4792461
vt 0.3901035 0.8599226
vt 0.1974808 0.620817
vt 0.3130328 0.911247
vt 0.3130328 0.911247
vt 0.6869671 0.911247
vt 0.3901035 0.9733546
vt 0.6098964 0.9733546
vt 0.4999999 0.995904
vt 0.1139927 0.6791171
vt 0.1819125 0.8498275
vt 0.2245282 0.3035297
vt 0.1935146 0.1804578
vt 0.4999999 0.1271571
vt 0.1974808 0.1124879
vt 0.3221836 0.04059634
vt 0.08361802 0.35979
vt 0.1974808 0.1124879
vt 0.01051369 0.4175866
vt 0.01051369 0.4175866
vt 0.1139927 0.1641235
vt 0.00409624 0.3434562
vt 0.1974808 0.620817
vt 0.00409624 0.5596614
vt 0.4999999 0.00409627
vt 0.3901035 0.02664536
vt 0.6098964 0.02664536
vt 0.05427721 0.7314402
vt 0.00409624 0.6565436
vt 0.1139927 0.8358765
vt 0.1974808 0.8875121
vt 0.3130328 0.911247
vt 0.3221836 0.9594036
vt 0.3901035 0.9733546
vt 0.01051369 0.4175866
vt 0.00409624 0.5596614
vt 0.00409624 0.6565436
vt 0.01051369 0.5824134
vt 0.01051369 0.5824134
vt 0.00409624 0.4403389
vt 0.00409624 0.3434562
vt 0.01051369 0.4175866
vt 0.9894862 0.4175866
vt 0.9959036 0.3434562
vt 0.9959036 0.4403389
vt 0.9894862 0.5824134
vn -0.1890467 0.9650142 0.1816835
vn 0 0.8506504 0.5257317
vn -0.3939396 0.7423329 0.5419902
vn 0 0.8506504 0.5257317
vn -0.05442207 0.5710747 0.8190923
vn -0.3054691 0.5057147 0.8068094
vn 0.3603049 0.6879115 0.6300461
vn -0.3125488 0.49426 0.8111845
vn -0.5419896 0.3939394 0.7423334
vn 0.3054688 0.5057152 0.8068092
vn -0.1816841 0.1890468 0.9650141
vn 0.3125493 0.4942592 0.8111848
vn 0.2361058 0.2771027 0.9313797
vn 0.6300457 0.360305 0.6879117
vn -0.5257309 1.283515E-07 0.8506509
vn -0.8190923 0.05442164 0.5710744
vn -0.8068089 0.3054692 0.5057153
vn -0.8111846 0.3125491 0.4942596
vn -0.7423334 0.5419897 0.3939396
vn -0.965014 0.1816849 0.1890462
vn -0.6300459 -0.3603056 0.6879115
vn -0.8068088 -0.30547 0.5057151
vn -0.8111844 -0.3125494 0.4942598
vn -0.9313795 -0.2361067 0.2771025
vn -0.6879114 -0.6300458 0.3603058
vn -0.2361057 -0.2771028 0.9313797
vn -0.3125499 -0.4942591 0.8111846
vn -0.007080106 4.375426E-07 0.999975
vn -0.3054691 -0.5057154 0.8068089
vn 0.007079875 4.388682E-07 0.999975
vn -0.3603059 -0.6879109 0.6300462
vn 0.181684 -0.1890465 0.9650141
vn 0.0544222 -0.5710742 0.8190925
vn 0.5257309 1.843924E-07 0.8506509
vn 0.5419896 -0.39394 0.7423331
vn 0.3125492 -0.49426 0.8111843
vn 0.3054693 -0.5057149 0.8068092
vn 0.3939403 -0.7423323 0.5419905
vn 0.8190925 -0.05442161 0.5710743
vn 0.8068087 -0.3054692 0.5057156
vn 0.806809 0.3054696 0.5057148
vn 0.8111846 -0.3125493 0.4942597
vn 0.8111845 0.312549 0.49426
vn 0.9313797 0.2361061 0.2771024
vn 0.6879116 0.6300459 0.3603052
vn 0.742333 -0.54199 0.3939399
vn 0.9650141 -0.1816844 0.1890462
vn 0.8506511 -0.5257307 -1.48237E-07
vn 0.9313797 -0.236106 -0.2771025
vn 0.6879116 -0.6300455 -0.360306
vn 0.571075 -0.8190919 0.05442215
vn 0.5057158 -0.8068085 0.3054695
vn 0.5057161 -0.8068083 -0.3054695
vn 0.4942604 -0.8111841 0.3125494
vn 0.4942598 -0.8111842 -0.31255
vn 0.2771033 -0.9313795 -0.2361063
vn 0.3603058 -0.6879105 -0.6300467
vn 0.1890465 -0.965014 0.1816848
vn 0 -0.8506505 0.5257315
vn -0.2771029 -0.9313795 0.2361067
vn -0.4942596 -0.8111844 0.3125499
vn 0 -0.999975 0.007080183
vn -0.5057154 -0.8068087 0.3054696
vn 0 -0.999975 -0.007079537
vn -0.1890468 -0.965014 -0.1816847
vn 0.2771033 -0.9313795 -0.2361063
vn 0 -0.85065 -0.5257325
vn -0.5710748 -0.819092 -0.05442218
vn -0.850651 -0.5257307 0
vn -0.9650142 -0.1816845 -0.189046
vn -0.7423328 -0.5419901 -0.39394
vn -0.5057157 -0.8068085 -0.3054695
vn -0.4942606 -0.8111839 -0.3125494
vn -0.3939404 -0.7423321 -0.5419908
vn -0.1890468 -0.965014 -0.1816847
vn 0 0.8506504 0.5257317
vn 0.2771028 0.9313797 0.2361055
vn 0.999975 0.007080021 0
vn 0.9313797 0.2361061 0.2771024
vn 0.9650141 0.1816845 -0.1890463
vn 0.999975 -0.007079483 0
vn 0.49426 0.8111846 0.3125487
vn 0.3603049 0.6879115 0.6300461
vn 0.2771028 0.9313797 0.2361055
vn 0.5057159 0.8068088 0.3054683
vn 0.6879116 0.6300459 0.3603052
vn 0.5710743 0.8190924 -0.05442197
vn 0.850651 0.5257308 2.097011E-07
vn 0.9313797 0.2361061 0.2771024
vn 0.9650141 0.1816845 -0.1890463
vn 0.7423323 0.5419905 -0.3939401
vn 0.8111846 0.3125491 -0.4942597
vn 0.5057151 0.806809 -0.3054693
vn 0.8068087 0.3054692 -0.5057156
vn 0.4942605 0.811184 -0.312549
vn 0.8190928 0.0544216 -0.5710739
vn 0.3939403 0.7423327 -0.54199
vn 0.5419896 0.39394 -0.7423331
vn 0.1890471 0.9650141 -0.1816839
vn 0.5257308 -3.796315E-07 -0.850651
vn 0.630046 -0.3603055 -0.6879115
vn 0.8068091 -0.3054696 -0.5057148
vn 0.8111846 -0.3125491 -0.4942598
vn 0.9313797 -0.236106 -0.2771025
vn 0.6879116 -0.6300455 -0.360306
vn 0.2361063 -0.277103 -0.9313795
vn 0.3125498 -0.4942591 -0.8111847
vn 0.305469 -0.5057155 -0.8068089
vn 0.3603058 -0.6879105 -0.6300467
vn -0.05442232 -0.5710744 -0.8190923
vn 0.1816841 0.1890465 -0.9650141
vn 0.007079738 0 -0.999975
vn 0.3125492 0.4942592 -0.8111848
vn -0.007080099 0 -0.999975
vn 0.3054692 0.5057149 -0.8068092
vn -0.1816846 -0.1890467 -0.965014
vn 0.05442179 0.5710738 -0.8190928
vn -0.2361055 0.2771026 -0.9313798
vn 0 0.8506507 -0.5257314
vn -0.3603057 0.6879107 -0.6300465
vn -0.3054692 0.5057151 -0.8068091
vn -0.3125492 0.4942591 -0.8111849
vn -0.630046 0.3603053 -0.6879115
vn -0.2771033 0.9313795 -0.2361058
vn -0.4942591 0.8111846 -0.3125499
vn 0 0.999975 -0.00708049
vn -0.5057158 0.8068087 -0.3054689
vn 0 0.999975 0.007080217
vn -0.1890467 0.9650142 0.1816835
vn 0.2771028 0.9313797 0.2361055
vn 0 0.8506504 0.5257317
vn -0.687911 0.630046 -0.3603062
vn -0.5710744 0.8190924 0.0544221
vn -0.5257309 -4.30249E-07 -0.8506509
vn -0.5419899 -0.39394 -0.742333
vn -0.3125488 -0.4942606 -0.8111842
vn -0.3054692 -0.5057152 -0.8068089
vn -0.3939404 -0.7423321 -0.5419908
vn -0.8190925 -0.05442198 -0.5710743
vn -0.8068085 -0.3054693 -0.5057158
vn -0.8068089 0.3054693 -0.5057151
vn -0.8111845 -0.3125494 -0.4942597
vn -0.7423328 -0.5419901 -0.39394
vn -0.9650142 -0.1816845 -0.189046
vn -0.8111846 0.3125491 -0.4942598
vn -0.9313797 0.2361059 -0.2771026
vn 0 -0.85065 -0.5257325
vn -0.1890468 -0.965014 -0.1816847
vn 0.2771033 -0.9313795 -0.2361063
vn -0.850651 0.5257308 2.946662E-07
vn -0.965014 0.1816849 0.1890462
vn -0.7423334 0.5419897 0.3939396
vn -0.5057157 0.8068088 0.3054686
vn -0.4942603 0.8111844 0.3125484
vn -0.3939396 0.7423329 0.5419902
vn -0.1890467 0.9650142 0.1816835
vn -0.999975 0.007079893 1.13819E-07
vn -0.9313797 0.2361059 -0.2771026
vn -0.965014 0.1816849 0.1890462
vn -0.999975 -0.007079393 1.734694E-07
vn -0.999975 -0.007079393 1.734694E-07
vn -0.9313795 -0.2361067 0.2771025
vn -0.9650142 -0.1816845 -0.189046
vn -0.999975 0.007079893 1.13819E-07
vn 0.999975 -0.007079483 0
vn 0.9313797 -0.236106 -0.2771025
vn 0.9650141 -0.1816844 0.1890462
vn 0.999975 0.007080021 0
g Hair_Clown_0
f 3/3/3 2/2/2 1/1/1
f 5/5/5 4/4/4 3/3/3
f 5/5/5 3/3/3 6/6/6
f 7/7/7 4/4/4 5/5/5
f 8/8/8 5/5/5 6/6/6
f 6/6/6 9/9/9 8/8/8
f 7/7/7 5/5/5 10/10/10
f 9/9/9 11/11/11 8/8/8
f 12/12/12 7/7/7 10/10/10
f 10/10/10 13/13/13 12/12/12
f 13/13/13 14/14/14 12/12/12
f 9/9/9 15/15/15 11/11/11
f 16/16/16 15/15/15 9/9/9
f 16/16/16 9/9/9 17/17/17
f 18/18/18 16/16/16 17/17/17
f 17/17/17 19/19/19 18/18/18
f 19/19/19 20/20/20 18/18/18
f 21/21/21 15/15/15 16/16/16
f 21/21/21 16/16/16 22/22/22
f 23/23/23 21/21/21 22/22/22
f 22/22/22 24/24/24 23/23/23
f 24/24/24 25/25/25 23/23/23
f 26/26/26 15/15/15 21/21/21
f 11/11/11 15/15/15 26/26/26
f 26/26/26 21/21/21 27/27/27
f 11/11/11 26/26/26 28/28/28
f 29/29/29 26/26/26 27/27/27
f 30/30/30 11/11/11 28/28/28
f 27/27/27 31/31/31 29/29/29
f 28/28/28 32/32/32 30/30/30
f 32/32/32 13/13/13 30/30/30
f 31/31/31 33/33/33 29/29/29
f 32/32/32 34/34/34 13/13/13
f 13/13/13 34/34/34 14/14/14
f 35/35/35 34/34/34 32/32/32
f 35/35/35 32/32/32 36/36/36
f 37/37/37 35/35/35 36/36/36
f 36/36/36 33/33/33 37/37/37
f 33/33/33 38/38/38 37/37/37
f 39/39/39 34/34/34 35/35/35
f 14/14/14 34/34/34 39/39/39
f 39/39/39 35/35/35 40/40/40
f 14/14/14 39/39/39 41/41/41
f 42/42/42 39/39/39 40/40/40
f 43/43/43 14/14/14 41/41/41
f 41/41/41 44/44/44 43/43/43
f 44/44/44 45/45/45 43/43/43
f 40/40/40 46/46/46 42/42/42
f 46/46/46 47/47/47 42/42/42
f 46/46/46 48/48/48 47/47/47
f 47/47/47 48/48/48 49/49/49
f 49/49/49 48/48/48 50/50/50
f 51/51/51 48/48/48 46/46/46
f 50/50/50 48/48/48 51/51/51
f 51/51/51 46/46/46 52/52/52
f 50/50/50 51/51/51 53/53/53
f 54/54/54 51/51/51 52/52/52
f 55/55/55 50/50/50 53/53/53
f 53/53/53 56/56/56 55/55/55
f 56/56/56 57/57/57 55/55/55
f 52/52/52 38/38/38 54/54/54
f 38/38/38 58/58/58 54/54/54
f 38/38/38 59/59/59 58/58/58
f 33/33/33 59/59/59 38/38/38
f 31/31/31 59/59/59 33/33/33
f 60/60/60 59/59/59 31/31/31
f 58/58/58 59/59/59 60/60/60
f 60/60/60 31/31/31 61/61/61
f 58/58/58 60/60/60 62/62/62
f 63/63/63 60/60/60 61/61/61
f 64/64/64 58/58/58 62/62/62
f 62/62/62 65/65/65 64/64/64
f 65/65/65 66/66/66 64/64/64
f 65/65/65 67/67/67 66/66/66
f 61/61/61 25/25/25 63/63/63
f 25/25/25 68/68/68 63/63/63
f 25/25/25 69/69/69 68/68/68
f 24/24/24 69/69/69 25/25/25
f 70/70/70 69/69/69 24/24/24
f 71/71/71 69/69/69 70/70/70
f 68/68/68 69/69/69 71/71/71
f 68/68/68 71/71/71 72/72/72
f 73/73/73 68/68/68 72/72/72
f 72/72/72 74/74/74 73/73/73
f 74/74/74 75/75/75 73/73/73
f 77/77/77 76/76/76 7/7/7
f 80/80/80 79/79/79 78/78/78
f 81/81/81 80/80/80 78/78/78
f 84/84/84 83/83/83 82/82/82
f 85/85/85 84/84/84 82/82/82
f 82/82/82 86/86/86 85/85/85
f 86/86/86 87/87/87 85/85/85
f 86/86/86 88/88/88 87/87/87
f 89/89/89 88/88/88 86/86/86
f 90/90/90 88/88/88 89/89/89
f 91/91/91 88/88/88 90/90/90
f 87/87/87 88/88/88 91/91/91
f 91/91/91 90/90/90 92/92/92
f 87/87/87 91/91/91 93/93/93
f 94/94/94 91/91/91 92/92/92
f 95/95/95 87/87/87 93/93/93
f 92/92/92 96/96/96 94/94/94
f 93/93/93 97/97/97 95/95/95
f 96/96/96 98/98/98 94/94/94
f 97/97/97 99/99/99 95/95/95
f 96/96/96 100/100/100 98/98/98
f 101/101/101 100/100/100 96/96/96
f 101/101/101 96/96/96 102/102/102
f 103/103/103 101/101/101 102/102/102
f 102/102/102 104/104/104 103/103/103
f 104/104/104 105/105/105 103/103/103
f 106/106/106 100/100/100 101/101/101
f 106/106/106 101/101/101 107/107/107
f 108/108/108 106/106/106 107/107/107
f 107/107/107 109/109/109 108/108/108
f 109/109/109 110/110/110 108/108/108
f 111/111/111 100/100/100 106/106/106
f 98/98/98 100/100/100 111/111/111
f 111/111/111 106/106/106 112/112/112
f 98/98/98 111/111/111 113/113/113
f 114/114/114 111/111/111 112/112/112
f 115/115/115 98/98/98 113/113/113
f 112/112/112 116/116/116 114/114/114
f 113/113/113 117/117/117 115/115/115
f 117/117/117 97/97/97 115/115/115
f 116/116/116 118/118/118 114/114/114
f 117/117/117 119/119/119 97/97/97
f 97/97/97 119/119/119 99/99/99
f 120/120/120 119/119/119 117/117/117
f 120/120/120 117/117/117 121/121/121
f 122/122/122 120/120/120 121/121/121
f 121/121/121 118/118/118 122/122/122
f 118/118/118 123/123/123 122/122/122
f 124/124/124 119/119/119 120/120/120
f 99/99/99 119/119/119 124/124/124
f 124/124/124 120/120/120 125/125/125
f 99/99/99 124/124/124 126/126/126
f 127/127/127 124/124/124 125/125/125
f 128/128/128 99/99/99 126/126/126
f 126/126/126 129/129/129 128/128/128
f 129/129/129 130/130/130 128/128/128
f 129/129/129 131/131/131 130/130/130
f 125/125/125 132/132/132 127/127/127
f 132/132/132 133/133/133 127/127/127
f 118/118/118 134/134/134 123/123/123
f 116/116/116 134/134/134 118/118/118
f 135/135/135 134/134/134 116/116/116
f 135/135/135 116/116/116 136/136/136
f 137/137/137 135/135/135 136/136/136
f 136/136/136 110/110/110 137/137/137
f 110/110/110 138/138/138 137/137/137
f 139/139/139 134/134/134 135/135/135
f 123/123/123 134/134/134 139/139/139
f 139/139/139 135/135/135 140/140/140
f 123/123/123 139/139/139 141/141/141
f 142/142/142 139/139/139 140/140/140
f 140/140/140 143/143/143 142/142/142
f 143/143/143 144/144/144 142/142/142
f 145/145/145 123/123/123 141/141/141
f 141/141/141 146/146/146 145/145/145
f 146/146/146 132/132/132 145/145/145
f 110/110/110 147/147/147 138/138/138
f 138/138/138 147/147/147 148/148/148
f 109/109/109 147/147/147 110/110/110
f 149/149/149 147/147/147 109/109/109
f 146/146/146 150/150/150 132/132/132
f 151/151/151 150/150/150 146/146/146
f 152/152/152 150/150/150 151/151/151
f 132/132/132 150/150/150 133/133/133
f 133/133/133 150/150/150 152/152/152
f 133/133/133 152/152/152 153/153/153
f 154/154/154 133/133/133 153/153/153
f 153/153/153 155/155/155 154/154/154
f 155/155/155 156/156/156 154/154/154
f 159/159/159 158/158/158 157/157/157
f 160/160/160 159/159/159 157/157/157
f 163/163/163 162/162/162 161/161/161
f 164/164/164 163/163/163 161/161/161
f 167/167/167 166/166/166 165/165/165
f 168/168/168 167/167/167 165/165/165
