g HeadBand
v 0.01957527 -0.02429394 0.0006833553
v 0.01698142 -0.008015124 -0.009569097
v 0.0171982 -0.0235 -0.01019626
v 0.01905395 -0.008322559 0.0006534607
v 0.01766393 -0.01976613 0.0103293
v 0.01695544 0.00746975 -0.009032269
v 0.01737915 -0.002331445 0.01004606
v 0.0145576 -0.002618942 0.01683215
v 0.01875033 0.007648822 0.0006534626
v 0.01711936 0.02295463 -0.008567778
v 0.018654 0.02362021 0.000683361
v 0.01729042 0.01510324 0.009899304
v 0.01739472 0.03253793 0.009884126
v 0.01399296 0.01433375 0.01630425
v 0.00500783 0.01352028 0.02046811
v 0.01355839 0.03128644 0.01597801
v 0.01329102 0.04823913 0.01584248
v 0.004838561 0.02774385 0.019971
v -0.005007835 0.01352028 0.02046811
v 0.004748709 0.04196741 0.01971573
v 0.00474534 0.06078018 0.01920163
v -0.004830579 0.02774385 0.019971
v -0.01327693 -0.002748628 0.01690604
v -0.004740727 0.04196741 0.01971573
v -0.004745346 0.06078018 0.01920163
v -0.01267295 0.01401935 0.01640199
v -0.01687544 -0.0184913 0.009380367
v -0.01220764 0.03078732 0.01610042
v -0.01191712 0.0475553 0.01599121
v -0.01644422 -0.001056612 0.009254359
v -0.01881759 -0.02429394 0.0006833553
v -0.01620812 0.01637808 0.009254357
v -0.01615903 0.03381277 0.009380363
v -0.01834874 -0.008322559 0.0006534607
v -0.01719819 -0.0235 -0.01019627
v -0.01809701 0.007648822 0.0006534626
v -0.01805374 0.02362021 0.000683361
v -0.01697343 -0.008015124 -0.009569106
v -0.01333961 -0.0235 -0.01857531
v -0.01694745 0.00746975 -0.009032277
v -0.01711935 0.02295463 -0.008567788
v -0.01318454 -0.008015124 -0.01785555
v -0.002407884 -0.0235 -0.02456217
v -0.01318454 0.00746975 -0.01731872
v -0.01333961 0.02295463 -0.01694682
v -0.002376619 -0.008015124 -0.02377625
v 0.002407893 -0.0235 -0.02456217
v -0.002376619 0.00746975 -0.02323942
v -0.002407884 0.02295463 -0.02293369
v 0.002384616 -0.008015124 -0.02377624
v 0.01333962 -0.0235 -0.0185753
v 0.002384616 0.00746975 -0.02323942
v 0.002407893 0.02295463 -0.02293369
v 0.01319253 -0.008015124 -0.01785554
v 0.0171982 -0.0235 -0.01019626
v 0.01698142 -0.008015124 -0.009569097
v 0.01319253 0.00746975 -0.01731871
v 0.01333962 0.02295463 -0.01694682
v 0.01695544 0.00746975 -0.009032269
v 0.01711936 0.02295463 -0.008567778
v 0.01711936 0.02295463 -0.008567778
v -3.469447E-19 0.02270606 0.0006833511
v 0.01333962 0.02295463 -0.01694682
v 0.018654 0.02362021 0.000683361
v 0.002407893 0.02295463 -0.02293369
v 0.01739472 0.03253793 0.009884126
v -0.002407884 0.02295463 -0.02293369
v 0.01329102 0.04823913 0.01584248
v -0.01333961 0.02295463 -0.01694682
v 0.00474534 0.06078018 0.01920163
v -0.01711935 0.02295463 -0.008567788
v -0.004745346 0.06078018 0.01920163
v -0.01805374 0.02362021 0.000683361
v -0.01191712 0.0475553 0.01599121
v -0.01615903 0.03381277 0.009380363
v 0.01333962 -0.0235 -0.0185753
v -9.540979E-20 -0.02429394 0.0006833511
v 0.0171982 -0.0235 -0.01019626
v 0.002407893 -0.0235 -0.02456217
v 0.01957527 -0.02429394 0.0006833553
v -0.002407884 -0.0235 -0.02456217
v 0.01766393 -0.01976613 0.0103293
v -0.01333961 -0.0235 -0.01857531
v 0.0145576 -0.002618942 0.01683215
v -0.01719819 -0.0235 -0.01019627
v 0.00500783 0.01352028 0.02046811
v -0.01881759 -0.02429394 0.0006833553
v -0.005007835 0.01352028 0.02046811
v -0.01687544 -0.0184913 0.009380367
v -0.01327693 -0.002748628 0.01690604
vt 0.6071427 0.3125
vt 0.6249999 0.4378133
vt 0.6249999 0.3125
vt 0.6071427 0.4378133
vt 0.5892856 0.3125
vt 0.6249999 0.5631266
vt 0.5892856 0.4378133
vt 0.5714285 0.3125
vt 0.6071427 0.5631266
vt 0.6249999 0.6884398
vt 0.6071427 0.6884398
vt 0.5892856 0.5631266
vt 0.5892856 0.6884398
vt 0.5714285 0.4378133
vt 0.5535713 0.3125
vt 0.5714285 0.5631266
vt 0.5714285 0.6884398
vt 0.5535713 0.4378133
vt 0.5357142 0.3125
vt 0.5535713 0.5631266
vt 0.5535713 0.6884398
vt 0.5357142 0.4378133
vt 0.5178571 0.3125
vt 0.5357142 0.5631266
vt 0.5357142 0.6884398
vt 0.5178571 0.4378133
vt 0.4999999 0.3125
vt 0.5178571 0.5631266
vt 0.5178571 0.6884398
vt 0.4999999 0.4378133
vt 0.4821428 0.3125
vt 0.4999999 0.5631266
vt 0.4999999 0.6884398
vt 0.4821428 0.4378133
vt 0.4642857 0.3125
vt 0.4821428 0.5631266
vt 0.4821428 0.6884398
vt 0.4642857 0.4378133
vt 0.4464285 0.3125
vt 0.4642857 0.5631266
vt 0.4642857 0.6884398
vt 0.4464285 0.4378133
vt 0.4285714 0.3125
vt 0.4464285 0.5631266
vt 0.4464285 0.6884398
vt 0.4285714 0.4378133
vt 0.4107143 0.3125
vt 0.4285714 0.5631266
vt 0.4285714 0.6884398
vt 0.4107143 0.4378133
vt 0.3928571 0.3125
vt 0.4107143 0.5631266
vt 0.4107143 0.6884398
vt 0.3928571 0.4378133
vt 0.375 0.3125
vt 0.375 0.4378133
vt 0.3928571 0.5631266
vt 0.3928571 0.6884398
vt 0.375 0.5631266
vt 0.375 0.6884398
vt 0.6407764 0.9115443
vt 0.5 0.8375
vt 0.5974203 0.9659111
vt 0.65625 0.84375
vt 0.5347689 0.9960825
vt 0.6407763 0.7759557
vt 0.4652311 0.9960825
vt 0.5974203 0.7215889
vt 0.4025797 0.9659111
vt 0.5347689 0.6914176
vt 0.3592236 0.9115443
vt 0.4652311 0.6914176
vt 0.34375 0.84375
vt 0.4025797 0.7215889
vt 0.3592236 0.7759557
vt 0.5974203 0.03408886
vt 0.5 0.15
vt 0.6407763 0.08845568
vt 0.5347689 0.003917545
vt 0.65625 0.15625
vt 0.4652311 0.003917545
vt 0.6407764 0.2240443
vt 0.4025797 0.03408886
vt 0.5974203 0.2784111
vt 0.3592236 0.08845568
vt 0.5347689 0.3085825
vt 0.34375 0.15625
vt 0.4652311 0.3085825
vt 0.3592236 0.2240443
vt 0.4025797 0.2784111
vn 0.9985292 0.02669204 -0.04719178
vn 0.9535297 0.02122769 -0.3005503
vn 0.9525104 0.02791151 -0.3032245
vn 0.9996096 0.0212557 -0.01813313
vn 0.9791664 0.02634015 0.2013435
vn 0.9555934 0.007972104 -0.2945805
vn 0.9635882 0.02283088 0.2664139
vn 0.8597736 0.0348887 0.5094823
vn 0.9998814 0.008079297 -0.01311208
vn 0.9581814 0.001255194 -0.2861586
vn 0.9997138 4.81041E-05 0.02391882
vn 0.9554924 0.009982404 0.2948469
vn 0.9002395 0.004613914 0.4353705
vn 0.6662101 0.03162144 0.7450933
vn 0.2751843 0.03880993 0.9606078
vn 0.6327563 0.01704771 0.7741634
vn 0.4584651 0.01850082 0.8885198
vn 0.2187821 0.02750692 0.975386
vn -0.2966738 0.03933831 0.9541683
vn 0.209048 0.0223683 0.9776495
vn 0.1131162 0.0256304 0.9932511
vn -0.2288877 0.02765046 0.97306
vn -0.8784677 0.03688376 0.4763761
vn -0.2179213 0.02241111 0.9757091
vn -0.1002468 0.02602764 0.9946221
vn -0.7199577 0.03251202 0.6932561
vn -0.9723031 0.02877557 0.2319454
vn -0.6901351 0.01751932 0.7234685
vn -0.5233434 0.01793711 0.851933
vn -0.9539448 0.0255131 0.2988953
vn -0.9995481 0.02586753 -0.01530783
vn -0.9431733 0.01229017 0.3320737
vn -0.8952827 0.006847424 0.4454457
vn -0.9994649 0.02102428 0.02505851
vn -0.9627163 0.02695209 -0.2691673
vn -0.9991529 0.007781378 0.04041151
vn -0.9960279 0.0001480731 0.08904148
vn -0.9634528 0.02007856 -0.2671246
vn -0.692705 0.04072821 -0.7200701
vn -0.9649138 0.006423009 -0.2624885
vn -0.9673587 -0.0005562311 -0.2534101
vn -0.697202 0.03293371 -0.7161179
vn -0.3537383 0.0481583 -0.9341038
vn -0.6980342 0.01784717 -0.7158419
vn -0.7017773 0.01044312 -0.7123199
vn -0.3552596 0.04035733 -0.933896
vn 0.3536827 0.04797732 -0.9341343
vn -0.3554158 0.02506833 -0.9343721
vn -0.3561489 0.01769223 -0.9342617
vn 0.3552907 0.04026441 -0.9338882
vn 0.692666 0.04037312 -0.7201276
vn 0.3554446 0.02515863 -0.9343587
vn 0.35609 0.01787635 -0.9342806
vn 0.6972309 0.03275073 -0.716098
vn 0.9525104 0.02791151 -0.3032245
vn 0.9535297 0.02122769 -0.3005503
vn 0.6980569 0.01802615 -0.7158153
vn 0.7017254 0.0108065 -0.7123656
vn 0.9555934 0.007972104 -0.2945805
vn 0.9581814 0.001255194 -0.2861586
vn -0.0274233 0.9993382 -0.02389611
vn 0.01442277 0.807408 -0.5898172
vn -0.007509432 0.9999365 0.008416179
vn -0.04317241 0.8809754 -0.4711885
vn -0.003583602 0.9999419 0.01015897
vn 0.173595 0.4914964 -0.8534027
vn 0.003583597 0.9999419 0.01015909
vn 0.2403048 0.4000118 -0.8844457
vn 0.00750943 0.9999365 0.008416302
vn 0.08384424 0.4273741 -0.9001786
vn 0.02730776 0.9993466 -0.02368199
vn -0.09429129 0.4259073 -0.8998401
vn 0.04322376 0.8536417 -0.5190639
vn -0.2853651 0.3997512 -0.8710716
vn -0.09889238 0.520319 -0.8482267
vn 0.02240273 -0.9994191 -0.02568399
vn -0.02127541 -0.827948 0.5604012
vn 0.0196231 -0.99893 -0.04187739
vn 0.01069046 -0.9994803 -0.03041298
vn 0 -0.9832161 0.1824449
vn -0.01069044 -0.9994803 -0.03041298
vn -0.2810732 -0.5615003 0.7782772
vn -0.02240272 -0.9994191 -0.02568399
vn -0.3519751 -0.3956169 0.8482929
vn -0.02046885 -0.9989681 -0.04054315
vn -0.1295282 -0.4461631 0.8855286
vn 0 -0.9698822 0.2435747
vn 0.1310876 -0.4459047 0.8854293
vn 0.2051639 -0.58234 0.7866307
vn 0.3736701 -0.3999027 0.836928
g HeadBand_0
f 3/3/3 2/2/2 1/1/1
f 2/2/2 4/4/4 1/1/1
f 1/1/1 4/4/4 5/5/5
f 2/2/2 6/6/6 4/4/4
f 4/4/4 7/7/7 5/5/5
f 5/5/5 7/7/7 8/8/8
f 6/6/6 9/9/9 4/4/4
f 4/4/4 9/9/9 7/7/7
f 6/6/6 10/10/10 9/9/9
f 10/10/10 11/11/11 9/9/9
f 9/9/9 11/11/11 12/12/12
f 9/9/9 12/12/12 7/7/7
f 11/11/11 13/13/13 12/12/12
f 7/7/7 14/14/14 8/8/8
f 7/7/7 12/12/12 14/14/14
f 8/8/8 14/14/14 15/15/15
f 12/12/12 13/13/13 16/16/16
f 12/12/12 16/16/16 14/14/14
f 13/13/13 17/17/17 16/16/16
f 14/14/14 18/18/18 15/15/15
f 14/14/14 16/16/16 18/18/18
f 15/15/15 18/18/18 19/19/19
f 16/16/16 17/17/17 20/20/20
f 16/16/16 20/20/20 18/18/18
f 17/17/17 21/21/21 20/20/20
f 18/18/18 22/22/22 19/19/19
f 18/18/18 20/20/20 22/22/22
f 19/19/19 22/22/22 23/23/23
f 20/20/20 21/21/21 24/24/24
f 20/20/20 24/24/24 22/22/22
f 21/21/21 25/25/25 24/24/24
f 22/22/22 26/26/26 23/23/23
f 22/22/22 24/24/24 26/26/26
f 23/23/23 26/26/26 27/27/27
f 24/24/24 25/25/25 28/28/28
f 24/24/24 28/28/28 26/26/26
f 25/25/25 29/29/29 28/28/28
f 26/26/26 30/30/30 27/27/27
f 26/26/26 28/28/28 30/30/30
f 27/27/27 30/30/30 31/31/31
f 28/28/28 29/29/29 32/32/32
f 28/28/28 32/32/32 30/30/30
f 29/29/29 33/33/33 32/32/32
f 30/30/30 34/34/34 31/31/31
f 30/30/30 32/32/32 34/34/34
f 31/31/31 34/34/34 35/35/35
f 32/32/32 33/33/33 36/36/36
f 32/32/32 36/36/36 34/34/34
f 33/33/33 37/37/37 36/36/36
f 34/34/34 38/38/38 35/35/35
f 34/34/34 36/36/36 38/38/38
f 35/35/35 38/38/38 39/39/39
f 36/36/36 37/37/37 40/40/40
f 36/36/36 40/40/40 38/38/38
f 37/37/37 41/41/41 40/40/40
f 38/38/38 42/42/42 39/39/39
f 38/38/38 40/40/40 42/42/42
f 39/39/39 42/42/42 43/43/43
f 40/40/40 41/41/41 44/44/44
f 40/40/40 44/44/44 42/42/42
f 41/41/41 45/45/45 44/44/44
f 42/42/42 46/46/46 43/43/43
f 42/42/42 44/44/44 46/46/46
f 43/43/43 46/46/46 47/47/47
f 44/44/44 45/45/45 48/48/48
f 44/44/44 48/48/48 46/46/46
f 45/45/45 49/49/49 48/48/48
f 46/46/46 50/50/50 47/47/47
f 46/46/46 48/48/48 50/50/50
f 47/47/47 50/50/50 51/51/51
f 48/48/48 49/49/49 52/52/52
f 48/48/48 52/52/52 50/50/50
f 49/49/49 53/53/53 52/52/52
f 50/50/50 54/54/54 51/51/51
f 50/50/50 52/52/52 54/54/54
f 51/51/51 54/54/54 55/55/55
f 54/54/54 56/56/56 55/55/55
f 52/52/52 53/53/53 57/57/57
f 52/52/52 57/57/57 54/54/54
f 54/54/54 57/57/57 56/56/56
f 53/53/53 58/58/58 57/57/57
f 57/57/57 59/59/59 56/56/56
f 57/57/57 58/58/58 59/59/59
f 58/58/58 60/60/60 59/59/59
f 63/63/63 62/62/62 61/61/61
f 61/61/61 62/62/62 64/64/64
f 65/65/65 62/62/62 63/63/63
f 64/64/64 62/62/62 66/66/66
f 67/67/67 62/62/62 65/65/65
f 66/66/66 62/62/62 68/68/68
f 69/69/69 62/62/62 67/67/67
f 68/68/68 62/62/62 70/70/70
f 71/71/71 62/62/62 69/69/69
f 70/70/70 62/62/62 72/72/72
f 73/73/73 62/62/62 71/71/71
f 72/72/72 62/62/62 74/74/74
f 75/75/75 62/62/62 73/73/73
f 74/74/74 62/62/62 75/75/75
f 78/78/78 77/77/77 76/76/76
f 76/76/76 77/77/77 79/79/79
f 80/80/80 77/77/77 78/78/78
f 79/79/79 77/77/77 81/81/81
f 82/82/82 77/77/77 80/80/80
f 81/81/81 77/77/77 83/83/83
f 84/84/84 77/77/77 82/82/82
f 83/83/83 77/77/77 85/85/85
f 86/86/86 77/77/77 84/84/84
f 85/85/85 77/77/77 87/87/87
f 88/88/88 77/77/77 86/86/86
f 87/87/87 77/77/77 89/89/89
f 90/90/90 77/77/77 88/88/88
f 89/89/89 77/77/77 90/90/90
