g Lens
v 0.2226651 0.01356542 0.6595843
v 0.2296111 0.01356542 0.679897
v 0.229611 -0.1452827 0.679897
v 0.222665 -0.1452827 0.6595842
v 0.3144244 0.1548253 0.6434044
v 0.3213703 0.1548253 0.6637171
v 0.2296111 0.01356542 0.679897
v 0.2226651 0.01356542 0.6595843
v 0.4733563 0.1936603 0.6153808
v 0.4803022 0.1936605 0.6356935
v 0.3213703 0.1548253 0.6637171
v 0.3144244 0.1548253 0.6434044
v 0.6568749 0.1936603 0.5830213
v 0.6638209 0.1936603 0.6033341
v 0.4803022 0.1936605 0.6356935
v 0.4733563 0.1936603 0.6153808
v 0.8158067 0.1548253 0.5549974
v 0.8227527 0.1548253 0.5753101
v 0.6638209 0.1936603 0.6033341
v 0.6568749 0.1936603 0.5830213
v 0.9075659 0.06790565 0.5388179
v 0.9145119 0.06790572 0.5591306
v 0.8227527 0.1548253 0.5753101
v 0.8158067 0.1548253 0.5549974
v 0.9075659 -0.09095069 0.5388179
v 0.9145119 -0.09095069 0.5591306
v 0.9145119 0.06790572 0.5591306
v 0.9075659 0.06790565 0.5388179
v 0.8158065 -0.2950116 0.5549976
v 0.8227525 -0.2950116 0.5753102
v 0.9145119 -0.09095069 0.5591306
v 0.9075659 -0.09095069 0.5388179
v 0.6568748 -0.3881865 0.5830213
v 0.6638207 -0.3881864 0.6033339
v 0.8227525 -0.2950116 0.5753102
v 0.8158065 -0.2950116 0.5549976
v 0.4733562 -0.3881863 0.6153808
v 0.4803021 -0.3881863 0.6356935
v 0.6638207 -0.3881864 0.6033339
v 0.6568748 -0.3881865 0.5830213
v 0.3144243 -0.2950115 0.6434048
v 0.3213703 -0.2950115 0.6637171
v 0.4803021 -0.3881863 0.6356935
v 0.4733562 -0.3881863 0.6153808
v 0.222665 -0.1452827 0.6595842
v 0.229611 -0.1452827 0.679897
v 0.3213703 -0.2950115 0.6637171
v 0.3144243 -0.2950115 0.6434048
v -0.06864644 0.01356542 0.6595843
v -0.06864632 -0.1452827 0.6595842
v -0.07559233 -0.1452827 0.679897
v -0.07559238 0.01356542 0.679897
v -0.1604057 0.1548253 0.6434044
v -0.06864644 0.01356542 0.6595843
v -0.07559238 0.01356542 0.679897
v -0.1673516 0.1548253 0.6637171
v -0.3193376 0.1936603 0.6153808
v -0.1604057 0.1548253 0.6434044
v -0.1673516 0.1548253 0.6637171
v -0.3262835 0.1936604 0.6356935
v -0.5028562 0.1936603 0.5830213
v -0.3193376 0.1936603 0.6153808
v -0.3262835 0.1936604 0.6356935
v -0.5098021 0.1936603 0.6033341
v -0.6617879 0.1548253 0.5549976
v -0.5028562 0.1936603 0.5830213
v -0.5098021 0.1936603 0.6033341
v -0.668734 0.1548253 0.5753101
v -0.7535471 0.06790565 0.5388179
v -0.6617879 0.1548253 0.5549976
v -0.668734 0.1548253 0.5753101
v -0.7604932 0.06790572 0.5591306
v -0.7535471 -0.09095068 0.5388179
v -0.7535471 0.06790565 0.5388179
v -0.7604932 0.06790572 0.5591306
v -0.7604932 -0.09095067 0.5591306
v -0.6617879 -0.2950116 0.5549976
v -0.7535471 -0.09095068 0.5388179
v -0.7604932 -0.09095067 0.5591306
v -0.6687338 -0.2950116 0.5753102
v -0.5028561 -0.3881865 0.5830213
v -0.6617879 -0.2950116 0.5549976
v -0.6687338 -0.2950116 0.5753102
v -0.5098019 -0.3881864 0.6033339
v -0.3193375 -0.3881863 0.6153808
v -0.5028561 -0.3881865 0.5830213
v -0.5098019 -0.3881864 0.6033339
v -0.3262834 -0.3881863 0.6356935
v -0.1604056 -0.2950115 0.6434048
v -0.3193375 -0.3881863 0.6153808
v -0.3262834 -0.3881863 0.6356935
v -0.1673516 -0.2950115 0.6637171
v -0.06864632 -0.1452827 0.6595842
v -0.1604056 -0.2950115 0.6434048
v -0.1673516 -0.2950115 0.6637171
v -0.07559233 -0.1452827 0.679897
v 0.8227527 0.1548253 0.5753101
v 0.9145119 0.06790572 0.5591306
v 0.9145119 -0.09095069 0.5591306
v 0.8227525 -0.2950116 0.5753102
v 0.6638209 0.1936603 0.6033341
v 0.6638207 -0.3881864 0.6033339
v 0.4803022 0.1936605 0.6356935
v 0.4803021 -0.3881863 0.6356935
v 0.3213703 0.1548253 0.6637171
v 0.3213703 -0.2950115 0.6637171
v 0.229611 -0.1452827 0.679897
v 0.2296111 0.01356542 0.679897
v -0.07559238 0.01356542 0.679897
v -0.07559233 -0.1452827 0.679897
v -0.1673516 -0.2950115 0.6637171
v -0.1673516 0.1548253 0.6637171
v -0.3262835 0.1936604 0.6356935
v -0.3262834 -0.3881863 0.6356935
v -0.5098019 -0.3881864 0.6033339
v -0.5098021 0.1936603 0.6033341
v -0.6687338 -0.2950116 0.5753102
v -0.668734 0.1548253 0.5753101
v -0.7604932 -0.09095067 0.5591306
v -0.7604932 0.06790572 0.5591306
v 0.8158065 -0.2950116 0.5549976
v 0.9075659 -0.09095069 0.5388179
v 0.9075659 0.06790565 0.5388179
v 0.8158067 0.1548253 0.5549974
v 0.6568749 0.1936603 0.5830213
v 0.6568748 -0.3881865 0.5830213
v 0.4733563 0.1936603 0.6153808
v 0.4733562 -0.3881863 0.6153808
v 0.3144244 0.1548253 0.6434044
v 0.3144243 -0.2950115 0.6434048
v 0.2226651 0.01356542 0.6595843
v 0.222665 -0.1452827 0.6595842
v -0.1604056 -0.2950115 0.6434048
v -0.06864632 -0.1452827 0.6595842
v -0.06864644 0.01356542 0.6595843
v -0.1604057 0.1548253 0.6434044
v -0.3193375 -0.3881863 0.6153808
v -0.3193376 0.1936603 0.6153808
v -0.5028561 -0.3881865 0.5830213
v -0.5028562 0.1936603 0.5830213
v -0.6617879 -0.2950116 0.5549976
v -0.6617879 0.1548253 0.5549976
v -0.7535471 -0.09095068 0.5388179
v -0.7535471 0.06790565 0.5388179
vt 0.08331299 1
vt 0.08331299 0.75
vt 0 0.75
vt 0 1
vt 0.166626 1
vt 0.166626 0.75
vt 0.08331299 0.75
vt 0.08331299 1
vt 0.25 1
vt 0.25 0.75
vt 0.166626 0.75
vt 0.166626 1
vt 0.333252 1
vt 0.333252 0.75
vt 0.25 0.75
vt 0.25 1
vt 0.416748 1
vt 0.416748 0.75
vt 0.333252 0.75
vt 0.333252 1
vt 0.5 1
vt 0.5 0.75
vt 0.416748 0.75
vt 0.416748 1
vt 0.5834961 1
vt 0.5834961 0.75
vt 0.5 0.75
vt 0.5 1
vt 0.6665039 1
vt 0.6665039 0.75
vt 0.5834961 0.75
vt 0.5834961 1
vt 0.75 1
vt 0.75 0.75
vt 0.6665039 0.75
vt 0.6665039 1
vt 0.8334961 1
vt 0.8334961 0.75
vt 0.75 0.75
vt 0.75 1
vt 0.9165039 1
vt 0.9165039 0.75
vt 0.8334961 0.75
vt 0.8334961 1
vt 1 1
vt 1 0.75
vt 0.9165039 0.75
vt 0.9165039 1
vt 0.08331299 1
vt 0 1
vt 0 0.75
vt 0.08331299 0.75
vt 0.166626 1
vt 0.08331299 1
vt 0.08331299 0.75
vt 0.166626 0.75
vt 0.25 1
vt 0.166626 1
vt 0.166626 0.75
vt 0.25 0.75
vt 0.333252 1
vt 0.25 1
vt 0.25 0.75
vt 0.333252 0.75
vt 0.416748 1
vt 0.333252 1
vt 0.333252 0.75
vt 0.416748 0.75
vt 0.5 1
vt 0.416748 1
vt 0.416748 0.75
vt 0.5 0.75
vt 0.5834961 1
vt 0.5 1
vt 0.5 0.75
vt 0.5834961 0.75
vt 0.6665039 1
vt 0.5834961 1
vt 0.5834961 0.75
vt 0.6665039 0.75
vt 0.75 1
vt 0.6665039 1
vt 0.6665039 0.75
vt 0.75 0.75
vt 0.8334961 1
vt 0.75 1
vt 0.75 0.75
vt 0.8334961 0.75
vt 0.9165039 1
vt 0.8334961 1
vt 0.8334961 0.75
vt 0.9165039 0.75
vt 1 1
vt 0.9165039 1
vt 0.9165039 0.75
vt 1 0.75
vt 0.416748 0.75
vt 0.5 0.75
vt 0.5834961 0.75
vt 0.6665039 0.75
vt 0.333252 0.75
vt 0.75 0.75
vt 0.25 0.75
vt 0.8334961 0.75
vt 0.166626 0.75
vt 0.9165039 0.75
vt 1 0.75
vt 0.08331299 0.75
vt 0.08331299 0.75
vt 0 0.75
vt 0.9165039 0.75
vt 0.166626 0.75
vt 0.25 0.75
vt 0.8334961 0.75
vt 0.75 0.75
vt 0.333252 0.75
vt 0.6665039 0.75
vt 0.416748 0.75
vt 0.5834961 0.75
vt 0.5 0.75
vt 0.6665039 1
vt 0.5834961 1
vt 0.5 1
vt 0.416748 1
vt 0.333252 1
vt 0.75 1
vt 0.25 1
vt 0.8334961 1
vt 0.166626 1
vt 0.9165039 1
vt 0.08331299 1
vt 0 1
vt 0.9165039 1
vt 1 1
vt 0.08331299 1
vt 0.166626 1
vt 0.8334961 1
vt 0.25 1
vt 0.75 1
vt 0.333252 1
vt 0.6665039 1
vt 0.416748 1
vt 0.5834961 1
vt 0.5 1
vn -0.9462891 0 0.3234863
vn -0.9462891 0 0.3234863
vn -0.9462891 0 0.3234863
vn -0.9462891 0 0.3234863
vn -0.7929688 0.5458984 0.2709961
vn -0.7929688 0.5458984 0.2709961
vn -0.7929688 0.5458984 0.2709961
vn -0.7929688 0.5458984 0.2709961
vn -0.223877 0.9716797 0.07653809
vn -0.223877 0.9716797 0.07653809
vn -0.223877 0.9716797 0.07653809
vn -0.223877 0.9716797 0.07653809
vn 0 1 -3.099442E-06
vn 0 1 -3.099442E-06
vn 0 1 -3.099442E-06
vn 0 1 -3.099442E-06
vn 0.223877 0.9716797 -0.07653809
vn 0.223877 0.9716797 -0.07653809
vn 0.223877 0.9716797 -0.07653809
vn 0.223877 0.9716797 -0.07653809
vn 0.6494141 0.7270508 -0.222168
vn 0.6494141 0.7270508 -0.222168
vn 0.6494141 0.7270508 -0.222168
vn 0.6494141 0.7270508 -0.222168
vn 0.9462891 0 -0.3234863
vn 0.9462891 0 -0.3234863
vn 0.9462891 0 -0.3234863
vn 0.9462891 0 -0.3234863
vn 0.8623047 -0.4111328 -0.2949219
vn 0.8623047 -0.4111328 -0.2949219
vn 0.8623047 -0.4111328 -0.2949219
vn 0.8623047 -0.4111328 -0.2949219
vn 0.4772949 -0.8632813 -0.163208
vn 0.4772949 -0.8632813 -0.163208
vn 0.4772949 -0.8632813 -0.163208
vn 0.4772949 -0.8632813 -0.163208
vn 0 -1 0
vn 0 -1 0
vn 0 -1 0
vn 0 -1 0
vn -0.4772949 -0.8632813 0.163208
vn -0.4772949 -0.8632813 0.163208
vn -0.4772949 -0.8632813 0.163208
vn -0.4772949 -0.8632813 0.163208
vn -0.8061523 -0.5239258 0.2756348
vn -0.8061523 -0.5239258 0.2756348
vn -0.8061523 -0.5239258 0.2756348
vn -0.8061523 -0.5239258 0.2756348
vn 0.9462891 0 0.3234863
vn 0.9462891 0 0.3234863
vn 0.9462891 0 0.3234863
vn 0.9462891 0 0.3234863
vn 0.7929688 0.5458984 0.2709961
vn 0.7929688 0.5458984 0.2709961
vn 0.7929688 0.5458984 0.2709961
vn 0.7929688 0.5458984 0.2709961
vn 0.223877 0.9716797 0.07653809
vn 0.223877 0.9716797 0.07653809
vn 0.223877 0.9716797 0.07653809
vn 0.223877 0.9716797 0.07653809
vn 0 1 -3.635883E-06
vn 0 1 -3.635883E-06
vn 0 1 -3.635883E-06
vn 0 1 -3.635883E-06
vn -0.223877 0.9716797 -0.07653809
vn -0.223877 0.9716797 -0.07653809
vn -0.223877 0.9716797 -0.07653809
vn -0.223877 0.9716797 -0.07653809
vn -0.6494141 0.7270508 -0.222168
vn -0.6494141 0.7270508 -0.222168
vn -0.6494141 0.7270508 -0.222168
vn -0.6494141 0.7270508 -0.222168
vn -0.9462891 0 -0.3234863
vn -0.9462891 0 -0.3234863
vn -0.9462891 0 -0.3234863
vn -0.9462891 0 -0.3234863
vn -0.8623047 -0.4111328 -0.2949219
vn -0.8623047 -0.4111328 -0.2949219
vn -0.8623047 -0.4111328 -0.2949219
vn -0.8623047 -0.4111328 -0.2949219
vn -0.4772949 -0.8632813 -0.163208
vn -0.4772949 -0.8632813 -0.163208
vn -0.4772949 -0.8632813 -0.163208
vn -0.4772949 -0.8632813 -0.163208
vn 0 -1 0
vn 0 -1 0
vn 0 -1 0
vn 0 -1 0
vn 0.4772949 -0.8632813 0.163208
vn 0.4772949 -0.8632813 0.163208
vn 0.4772949 -0.8632813 0.163208
vn 0.4772949 -0.8632813 0.163208
vn 0.8061523 -0.5239258 0.2756348
vn 0.8061523 -0.5239258 0.2756348
vn 0.8061523 -0.5239258 0.2756348
vn 0.8061523 -0.5239258 0.2756348
vn 0.1737061 0 0.9848633
vn 0.1737061 0 0.9848633
vn 0.1737061 0 0.9848633
vn 0.1737061 0 0.9848633
vn 0.1737061 0 0.9848633
vn 0.1737061 0 0.9848633
vn 0.1737061 0 0.9848633
vn 0.1737061 0 0.9848633
vn 0.1737061 0 0.9848633
vn 0.1737061 0 0.9848633
vn 0.1737061 0 0.9848633
vn 0.1737061 0 0.9848633
vn -0.1737061 0 0.9848633
vn -0.1737061 0 0.9848633
vn -0.1737061 0 0.9848633
vn -0.1737061 0 0.9848633
vn -0.1737061 0 0.9848633
vn -0.1737061 0 0.9848633
vn -0.1737061 0 0.9848633
vn -0.1737061 0 0.9848633
vn -0.1737061 0 0.9848633
vn -0.1737061 0 0.9848633
vn -0.1737061 0 0.9848633
vn -0.1737061 0 0.9848633
vn -0.1737061 0 -0.9848633
vn -0.1737061 0 -0.9848633
vn -0.1737061 0 -0.9848633
vn -0.1737061 0 -0.9848633
vn -0.1737061 0 -0.9848633
vn -0.1737061 0 -0.9848633
vn -0.1737061 0 -0.9848633
vn -0.1737061 0 -0.9848633
vn -0.1737061 0 -0.9848633
vn -0.1737061 0 -0.9848633
vn -0.1737061 0 -0.9848633
vn -0.1737061 0 -0.9848633
vn 0.1737061 0 -0.9848633
vn 0.1737061 0 -0.9848633
vn 0.1737061 0 -0.9848633
vn 0.1737061 0 -0.9848633
vn 0.1737061 0 -0.9848633
vn 0.1737061 0 -0.9848633
vn 0.1737061 0 -0.9848633
vn 0.1737061 0 -0.9848633
vn 0.1737061 0 -0.9848633
vn 0.1737061 0 -0.9848633
vn 0.1737061 0 -0.9848633
vn 0.1737061 0 -0.9848633
g Lens_0
f 3/3/3 2/2/2 1/1/1
f 4/4/4 3/3/3 1/1/1
f 7/7/7 6/6/6 5/5/5
f 8/8/8 7/7/7 5/5/5
f 11/11/11 10/10/10 9/9/9
f 12/12/12 11/11/11 9/9/9
f 15/15/15 14/14/14 13/13/13
f 16/16/16 15/15/15 13/13/13
f 19/19/19 18/18/18 17/17/17
f 20/20/20 19/19/19 17/17/17
f 23/23/23 22/22/22 21/21/21
f 24/24/24 23/23/23 21/21/21
f 27/27/27 26/26/26 25/25/25
f 28/28/28 27/27/27 25/25/25
f 31/31/31 30/30/30 29/29/29
f 32/32/32 31/31/31 29/29/29
f 35/35/35 34/34/34 33/33/33
f 36/36/36 35/35/35 33/33/33
f 39/39/39 38/38/38 37/37/37
f 40/40/40 39/39/39 37/37/37
f 43/43/43 42/42/42 41/41/41
f 44/44/44 43/43/43 41/41/41
f 47/47/47 46/46/46 45/45/45
f 48/48/48 47/47/47 45/45/45
f 51/51/51 50/50/50 49/49/49
f 52/52/52 51/51/51 49/49/49
f 55/55/55 54/54/54 53/53/53
f 56/56/56 55/55/55 53/53/53
f 59/59/59 58/58/58 57/57/57
f 60/60/60 59/59/59 57/57/57
f 63/63/63 62/62/62 61/61/61
f 64/64/64 63/63/63 61/61/61
f 67/67/67 66/66/66 65/65/65
f 68/68/68 67/67/67 65/65/65
f 71/71/71 70/70/70 69/69/69
f 72/72/72 71/71/71 69/69/69
f 75/75/75 74/74/74 73/73/73
f 76/76/76 75/75/75 73/73/73
f 79/79/79 78/78/78 77/77/77
f 80/80/80 79/79/79 77/77/77
f 83/83/83 82/82/82 81/81/81
f 84/84/84 83/83/83 81/81/81
f 87/87/87 86/86/86 85/85/85
f 88/88/88 87/87/87 85/85/85
f 91/91/91 90/90/90 89/89/89
f 92/92/92 91/91/91 89/89/89
f 95/95/95 94/94/94 93/93/93
f 96/96/96 95/95/95 93/93/93
f 99/99/99 98/98/98 97/97/97
f 97/97/97 100/100/100 99/99/99
f 97/97/97 101/101/101 100/100/100
f 101/101/101 102/102/102 100/100/100
f 101/101/101 103/103/103 102/102/102
f 103/103/103 104/104/104 102/102/102
f 103/103/103 105/105/105 104/104/104
f 105/105/105 106/106/106 104/104/104
f 105/105/105 107/107/107 106/106/106
f 105/105/105 108/108/108 107/107/107
f 111/111/111 110/110/110 109/109/109
f 109/109/109 112/112/112 111/111/111
f 112/112/112 113/113/113 111/111/111
f 113/113/113 114/114/114 111/111/111
f 113/113/113 115/115/115 114/114/114
f 113/113/113 116/116/116 115/115/115
f 116/116/116 117/117/117 115/115/115
f 116/116/116 118/118/118 117/117/117
f 118/118/118 119/119/119 117/117/117
f 118/118/118 120/120/120 119/119/119
f 123/123/123 122/122/122 121/121/121
f 121/121/121 124/124/124 123/123/123
f 121/121/121 125/125/125 124/124/124
f 121/121/121 126/126/126 125/125/125
f 126/126/126 127/127/127 125/125/125
f 126/126/126 128/128/128 127/127/127
f 128/128/128 129/129/129 127/127/127
f 128/128/128 130/130/130 129/129/129
f 130/130/130 131/131/131 129/129/129
f 130/130/130 132/132/132 131/131/131
f 135/135/135 134/134/134 133/133/133
f 133/133/133 136/136/136 135/135/135
f 133/133/133 137/137/137 136/136/136
f 137/137/137 138/138/138 136/136/136
f 137/137/137 139/139/139 138/138/138
f 139/139/139 140/140/140 138/138/138
f 139/139/139 141/141/141 140/140/140
f 141/141/141 142/142/142 140/140/140
f 141/141/141 143/143/143 142/142/142
f 143/143/143 144/144/144 142/142/142
