g Lens
v 0.01711455 0.01302232 0.005901651
v 0.0179307 0.01302232 0.008288393
v 0.0179307 -0.005642313 0.008288393
v 0.01711454 -0.005642314 0.005901642
v 0.02789626 0.02962035 0.004000506
v 0.02871241 0.02962035 0.006387248
v 0.0179307 0.01302232 0.008288393
v 0.01711455 0.01302232 0.005901651
v 0.04657076 0.03418346 0.000707736
v 0.04738691 0.03418348 0.003094473
v 0.02871241 0.02962035 0.006387248
v 0.02789626 0.02962035 0.004000506
v 0.0681342 0.03418347 -0.003094501
v 0.06895035 0.03418346 -0.0007077408
v 0.04738691 0.03418348 0.003094473
v 0.04657076 0.03418346 0.000707736
v 0.0868087 0.02962035 -0.0063873
v 0.08762484 0.02962036 -0.004000578
v 0.06895035 0.03418346 -0.0007077408
v 0.0681342 0.03418347 -0.003094501
v 0.09759039 0.01940731 -0.008288393
v 0.09840655 0.01940732 -0.005901651
v 0.08762484 0.02962036 -0.004000578
v 0.0868087 0.02962035 -0.0063873
v 0.09759039 0.0007416999 -0.008288393
v 0.09840655 0.0007417023 -0.005901651
v 0.09840655 0.01940732 -0.005901651
v 0.09759039 0.01940731 -0.008288393
v 0.08680867 -0.02323543 -0.006387291
v 0.08762483 -0.02323543 -0.004000549
v 0.09840655 0.0007417023 -0.005901651
v 0.09759039 0.0007416999 -0.008288393
v 0.0681342 -0.03418348 -0.003094497
v 0.06895033 -0.03418346 -0.0007077741
v 0.08762483 -0.02323543 -0.004000549
v 0.08680867 -0.02323543 -0.006387291
v 0.04657075 -0.03418346 0.000707736
v 0.0473869 -0.03418346 0.003094478
v 0.06895033 -0.03418346 -0.0007077741
v 0.0681342 -0.03418348 -0.003094497
v 0.02789626 -0.02323544 0.004000559
v 0.02871242 -0.02323543 0.006387253
v 0.0473869 -0.03418346 0.003094478
v 0.04657075 -0.03418346 0.000707736
v 0.01711454 -0.005642314 0.005901642
v 0.0179307 -0.005642313 0.008288393
v 0.02871242 -0.02323543 0.006387253
v 0.02789626 -0.02323544 0.004000559
v -0.01711456 0.01302232 0.005901651
v -0.01711454 -0.005642315 0.005901642
v -0.0179307 -0.005642313 0.008288393
v -0.01793071 0.01302232 0.008288393
v -0.02789628 0.02962035 0.004000506
v -0.01711456 0.01302232 0.005901651
v -0.01793071 0.01302232 0.008288393
v -0.02871242 0.02962035 0.006387248
v -0.04657077 0.03418346 0.000707736
v -0.02789628 0.02962035 0.004000506
v -0.02871242 0.02962035 0.006387248
v -0.04738691 0.03418347 0.003094473
v -0.0681342 0.03418346 -0.003094501
v -0.04657077 0.03418346 0.000707736
v -0.04738691 0.03418347 0.003094473
v -0.06895036 0.03418347 -0.0007077408
v -0.0868087 0.02962035 -0.006387296
v -0.0681342 0.03418346 -0.003094501
v -0.06895036 0.03418347 -0.0007077408
v -0.08762486 0.02962035 -0.004000578
v -0.09759041 0.0194073 -0.008288393
v -0.0868087 0.02962035 -0.006387296
v -0.08762486 0.02962035 -0.004000578
v -0.09840655 0.01940732 -0.005901651
v -0.09759041 0.0007416987 -0.008288393
v -0.09759041 0.0194073 -0.008288393
v -0.09840655 0.01940732 -0.005901651
v -0.09840655 0.0007417011 -0.005901651
v -0.08680869 -0.02323543 -0.006387291
v -0.09759041 0.0007416987 -0.008288393
v -0.09840655 0.0007417011 -0.005901651
v -0.08762483 -0.02323543 -0.004000549
v -0.0681342 -0.03418348 -0.003094497
v -0.08680869 -0.02323543 -0.006387291
v -0.08762483 -0.02323543 -0.004000549
v -0.06895034 -0.03418347 -0.0007077741
v -0.04657077 -0.03418346 0.000707736
v -0.0681342 -0.03418348 -0.003094497
v -0.06895034 -0.03418347 -0.0007077741
v -0.04738691 -0.03418346 0.003094478
v -0.02789626 -0.02323544 0.004000559
v -0.04657077 -0.03418346 0.000707736
v -0.04738691 -0.03418346 0.003094478
v -0.02871242 -0.02323544 0.006387253
v -0.01711454 -0.005642315 0.005901642
v -0.02789626 -0.02323544 0.004000559
v -0.02871242 -0.02323544 0.006387253
v -0.0179307 -0.005642313 0.008288393
v 0.08762484 0.02962036 -0.004000578
v 0.09840655 0.01940732 -0.005901651
v 0.09840655 0.0007417023 -0.005901651
v 0.08762483 -0.02323543 -0.004000549
v 0.06895035 0.03418346 -0.0007077408
v 0.06895033 -0.03418346 -0.0007077741
v 0.04738691 0.03418348 0.003094473
v 0.0473869 -0.03418346 0.003094478
v 0.02871241 0.02962035 0.006387248
v 0.02871242 -0.02323543 0.006387253
v 0.0179307 -0.005642313 0.008288393
v 0.0179307 0.01302232 0.008288393
v -0.01793071 0.01302232 0.008288393
v -0.0179307 -0.005642313 0.008288393
v -0.02871242 -0.02323544 0.006387253
v -0.02871242 0.02962035 0.006387248
v -0.04738691 0.03418347 0.003094473
v -0.04738691 -0.03418346 0.003094478
v -0.06895034 -0.03418347 -0.0007077741
v -0.06895036 0.03418347 -0.0007077408
v -0.08762483 -0.02323543 -0.004000549
v -0.08762486 0.02962035 -0.004000578
v -0.09840655 0.0007417011 -0.005901651
v -0.09840655 0.01940732 -0.005901651
v 0.08680867 -0.02323543 -0.006387291
v 0.09759039 0.0007416999 -0.008288393
v 0.09759039 0.01940731 -0.008288393
v 0.0868087 0.02962035 -0.0063873
v 0.0681342 0.03418347 -0.003094501
v 0.0681342 -0.03418348 -0.003094497
v 0.04657076 0.03418346 0.000707736
v 0.04657075 -0.03418346 0.000707736
v 0.02789626 0.02962035 0.004000506
v 0.02789626 -0.02323544 0.004000559
v 0.01711455 0.01302232 0.005901651
v 0.01711454 -0.005642314 0.005901642
v -0.02789626 -0.02323544 0.004000559
v -0.01711454 -0.005642315 0.005901642
v -0.01711456 0.01302232 0.005901651
v -0.02789628 0.02962035 0.004000506
v -0.04657077 -0.03418346 0.000707736
v -0.04657077 0.03418346 0.000707736
v -0.0681342 -0.03418348 -0.003094497
v -0.0681342 0.03418346 -0.003094501
v -0.08680869 -0.02323543 -0.006387291
v -0.0868087 0.02962035 -0.006387296
v -0.09759041 0.0007416987 -0.008288393
v -0.09759041 0.0194073 -0.008288393
vt 0.08333334 1
vt 0.08333334 0.75
vt 0 0.75
vt 0 1
vt 0.1666667 1
vt 0.1666667 0.75
vt 0.08333334 0.75
vt 0.08333334 1
vt 0.25 1
vt 0.25 0.75
vt 0.1666667 0.75
vt 0.1666667 1
vt 0.3333333 1
vt 0.3333333 0.75
vt 0.25 0.75
vt 0.25 1
vt 0.4166667 1
vt 0.4166667 0.75
vt 0.3333333 0.75
vt 0.3333333 1
vt 0.5 1
vt 0.5 0.75
vt 0.4166667 0.75
vt 0.4166667 1
vt 0.5833333 1
vt 0.5833333 0.75
vt 0.5 0.75
vt 0.5 1
vt 0.6666666 1
vt 0.6666666 0.75
vt 0.5833333 0.75
vt 0.5833333 1
vt 0.7499999 1
vt 0.7499999 0.75
vt 0.6666666 0.75
vt 0.6666666 1
vt 0.8333333 1
vt 0.8333333 0.75
vt 0.7499999 0.75
vt 0.7499999 1
vt 0.9166666 1
vt 0.9166666 0.75
vt 0.8333333 0.75
vt 0.8333333 1
vt 0.9999999 1
vt 0.9999999 0.75
vt 0.9166666 0.75
vt 0.9166666 1
vt 0.08333334 1
vt 0 1
vt 0 0.75
vt 0.08333334 0.75
vt 0.1666667 1
vt 0.08333334 1
vt 0.08333334 0.75
vt 0.1666667 0.75
vt 0.25 1
vt 0.1666667 1
vt 0.1666667 0.75
vt 0.25 0.75
vt 0.3333333 1
vt 0.25 1
vt 0.25 0.75
vt 0.3333333 0.75
vt 0.4166667 1
vt 0.3333333 1
vt 0.3333333 0.75
vt 0.4166667 0.75
vt 0.5 1
vt 0.4166667 1
vt 0.4166667 0.75
vt 0.5 0.75
vt 0.5833333 1
vt 0.5 1
vt 0.5 0.75
vt 0.5833333 0.75
vt 0.6666666 1
vt 0.5833333 1
vt 0.5833333 0.75
vt 0.6666666 0.75
vt 0.7499999 1
vt 0.6666666 1
vt 0.6666666 0.75
vt 0.7499999 0.75
vt 0.8333333 1
vt 0.7499999 1
vt 0.7499999 0.75
vt 0.8333333 0.75
vt 0.9166666 1
vt 0.8333333 1
vt 0.8333333 0.75
vt 0.9166666 0.75
vt 0.9999999 1
vt 0.9166666 1
vt 0.9166666 0.75
vt 0.9999999 0.75
vt 0.4166667 0.75
vt 0.5 0.75
vt 0.5833333 0.75
vt 0.6666666 0.75
vt 0.3333333 0.75
vt 0.7499999 0.75
vt 0.25 0.75
vt 0.8333333 0.75
vt 0.1666667 0.75
vt 0.9166666 0.75
vt 0.9999999 0.75
vt 0.08333334 0.75
vt 0.08333334 0.75
vt 0 0.75
vt 0.9166666 0.75
vt 0.1666667 0.75
vt 0.25 0.75
vt 0.8333333 0.75
vt 0.7499999 0.75
vt 0.3333333 0.75
vt 0.6666666 0.75
vt 0.4166667 0.75
vt 0.5833333 0.75
vt 0.5 0.75
vt 0.6666666 1
vt 0.5833333 1
vt 0.5 1
vt 0.4166667 1
vt 0.3333333 1
vt 0.7499999 1
vt 0.25 1
vt 0.8333333 1
vt 0.1666667 1
vt 0.9166666 1
vt 0.08333334 1
vt 0 1
vt 0.9166666 1
vt 0.9999999 1
vt 0.08333334 1
vt 0.1666667 1
vt 0.8333333 1
vt 0.25 1
vt 0.7499999 1
vt 0.3333333 1
vt 0.6666666 1
vt 0.4166667 1
vt 0.5833333 1
vt 0.5 1
vn -0.9462088 0 0.3235568
vn -0.9462088 0 0.3235566
vn -0.9462082 6.946514E-07 0.3235586
vn -0.9462081 7.596113E-07 0.3235588
vn -0.7927284 0.5459868 0.2710723
vn -0.7927284 0.5459866 0.2710723
vn -0.792728 0.5459871 0.2710727
vn -0.792728 0.5459871 0.2710728
vn -0.2239108 0.9715979 0.07655997
vn -0.2239109 0.971598 0.07655953
vn -0.2239103 0.9715977 0.07656496
vn -0.2239103 0.9715977 0.07656541
vn 1.089991E-06 1 2.539468E-06
vn 1.270749E-06 1 3.222168E-06
vn -1.252496E-06 1 -6.307816E-06
vn -1.43326E-06 1 -6.990538E-06
vn 0.2239083 0.9715979 -0.07656826
vn 0.2239081 0.9715979 -0.07656863
vn 0.2239102 0.9715978 -0.07656418
vn 0.2239104 0.9715978 -0.07656381
vn 0.6495913 0.7271093 -0.2221333
vn 0.6495914 0.7271091 -0.2221336
vn 0.649591 0.7271103 -0.2221311
vn 0.6495909 0.7271104 -0.2221308
vn 0.9462081 0 -0.3235588
vn 0.9462081 0 -0.3235587
vn 0.9462079 0 -0.3235593
vn 0.9462079 0 -0.3235593
vn 0.8625017 -0.4112229 -0.2949348
vn 0.8625017 -0.4112228 -0.2949348
vn 0.8625012 -0.4112241 -0.2949345
vn 0.8625012 -0.4112242 -0.2949345
vn 0.4773891 -0.8633961 -0.1632386
vn 0.4773893 -0.8633961 -0.163238
vn 0.4773873 -0.8633959 -0.163245
vn 0.4773871 -0.8633959 -0.1632455
vn 0 -1 -1.545848E-07
vn 0 -1 -7.645895E-07
vn 3.418824E-07 -1 6.380564E-06
vn 3.710706E-07 -1 6.99058E-06
vn -0.4773882 -0.8633949 0.1632473
vn -0.4773883 -0.8633947 0.1632477
vn -0.4773869 -0.8633965 0.1632424
vn -0.4773869 -0.8633966 0.163242
vn -0.8060433 -0.5237578 0.2756303
vn -0.8060436 -0.5237578 0.2756297
vn -0.8060412 -0.5237576 0.2756367
vn -0.806041 -0.5237576 0.2756372
vn 0.9462085 2.782265E-07 0.3235573
vn 0.946208 5.45792E-07 0.3235592
vn 0.946208 5.207708E-07 0.323559
vn 0.9462087 2.532049E-07 0.3235572
vn 0.7927286 0.5459868 0.2710717
vn 0.7927278 0.5459871 0.2710732
vn 0.7927278 0.545987 0.2710731
vn 0.7927286 0.5459868 0.2710716
vn 0.2239099 0.971598 0.07656107
vn 0.2239103 0.9715977 0.07656541
vn 0.2239102 0.9715977 0.07656505
vn 0.2239099 0.9715981 0.07656072
vn 0 1 -1.981272E-06
vn 9.348926E-07 1 -5.242904E-06
vn 8.62586E-07 1 -5.00924E-06
vn -1.467159E-07 1 -1.747618E-06
vn -0.2239087 0.9715977 -0.07656948
vn -0.2239093 0.9715979 -0.07656571
vn -0.2239092 0.9715978 -0.07656602
vn -0.2239087 0.9715977 -0.0765698
vn -0.6495944 0.7271073 -0.2221308
vn -0.6495919 0.7271077 -0.2221369
vn -0.6495922 0.7271076 -0.2221362
vn -0.6495946 0.7271073 -0.2221301
vn -0.9462094 0 -0.3235548
vn -0.9462091 0 -0.3235559
vn -0.9462091 0 -0.3235558
vn -0.9462094 0 -0.3235548
vn -0.8625041 -0.4112222 -0.2949289
vn -0.8625017 -0.4112244 -0.2949328
vn -0.8625019 -0.4112242 -0.2949325
vn -0.8625042 -0.411222 -0.2949286
vn -0.4773893 -0.8633965 -0.1632354
vn -0.477389 -0.8633955 -0.1632421
vn -0.477389 -0.8633956 -0.1632416
vn -0.4773894 -0.8633966 -0.1632347
vn 1.7937E-07 -1 8.247844E-07
vn -1.625151E-07 -1 1.048588E-05
vn -1.333268E-07 -1 9.661062E-06
vn 2.085573E-07 -1 0
vn 0.4773881 -0.8633951 0.1632462
vn 0.4773868 -0.8633967 0.163242
vn 0.4773869 -0.8633965 0.1632424
vn 0.4773883 -0.863395 0.1632466
vn 0.806043 -0.5237574 0.2756317
vn 0.8060418 -0.523758 0.275634
vn 0.8060419 -0.5237579 0.2756337
vn 0.8060431 -0.5237573 0.2756315
vn 0.1736488 4.117157E-07 0.9848076
vn 0.1736457 0 0.9848082
vn 0.1736467 4.298183E-07 0.9848081
vn 0.1736463 -3.557239E-07 0.9848081
vn 0.1736484 -2.816825E-07 0.9848077
vn 0.1736481 -2.534745E-07 0.9848077
vn 0.1736477 -2.233952E-07 0.9848078
vn 0.1736487 0 0.9848077
vn 0.1736468 0 0.984808
vn 0.1736473 1.195587E-07 0.984808
vn 0.1736495 1.129176E-07 0.9848075
vn 0.1736532 -1.166767E-07 0.9848068
vn -0.1736507 0 0.9848073
vn -0.1736502 0 0.9848074
vn -0.1736469 0 0.984808
vn -0.173647 0 0.984808
vn -0.173648 -2.354842E-07 0.9848078
vn -0.1736482 0 0.9848077
vn -0.173648 -2.252465E-07 0.9848078
vn -0.1736485 -2.939089E-07 0.9848077
vn -0.1736466 -3.335334E-07 0.9848081
vn -0.1736482 3.787572E-07 0.9848077
vn -0.1736471 3.907442E-07 0.984808
vn -0.1736446 0 0.9848084
vn -0.1736467 0 -0.9848081
vn -0.1736477 0 -0.9848078
vn -0.1736464 0 -0.9848081
vn -0.1736473 0 -0.984808
vn -0.1736488 0 -0.9848076
vn -0.173648 0 -0.9848078
vn -0.173648 0 -0.9848077
vn -0.1736482 -1.843116E-07 -0.9848077
vn -0.1736469 -2.026647E-07 -0.984808
vn -0.1736485 -9.236284E-07 -0.9848077
vn -0.1736502 -8.777976E-07 -0.9848074
vn -0.1736456 6.498296E-07 -0.9848082
vn 0.1736485 -9.149753E-07 -0.9848077
vn 0.1736455 6.12552E-07 -0.9848082
vn 0.1736505 -8.794272E-07 -0.9848074
vn 0.1736468 -2.084634E-07 -0.984808
vn 0.1736486 -2.0449E-07 -0.9848077
vn 0.173648 0 -0.9848077
vn 0.1736482 0 -0.9848077
vn 0.1736486 0 -0.9848077
vn 0.1736467 0 -0.9848081
vn 0.173647 0 -0.984808
vn 0.173648 0 -0.9848078
vn 0.1736462 0 -0.9848081
g Lens_0
f 3/3/3 2/2/2 1/1/1
f 4/4/4 3/3/3 1/1/1
f 7/7/7 6/6/6 5/5/5
f 8/8/8 7/7/7 5/5/5
f 11/11/11 10/10/10 9/9/9
f 12/12/12 11/11/11 9/9/9
f 15/15/15 14/14/14 13/13/13
f 16/16/16 15/15/15 13/13/13
f 19/19/19 18/18/18 17/17/17
f 20/20/20 19/19/19 17/17/17
f 23/23/23 22/22/22 21/21/21
f 24/24/24 23/23/23 21/21/21
f 27/27/27 26/26/26 25/25/25
f 28/28/28 27/27/27 25/25/25
f 31/31/31 30/30/30 29/29/29
f 32/32/32 31/31/31 29/29/29
f 35/35/35 34/34/34 33/33/33
f 36/36/36 35/35/35 33/33/33
f 39/39/39 38/38/38 37/37/37
f 40/40/40 39/39/39 37/37/37
f 43/43/43 42/42/42 41/41/41
f 44/44/44 43/43/43 41/41/41
f 47/47/47 46/46/46 45/45/45
f 48/48/48 47/47/47 45/45/45
f 51/51/51 50/50/50 49/49/49
f 52/52/52 51/51/51 49/49/49
f 55/55/55 54/54/54 53/53/53
f 56/56/56 55/55/55 53/53/53
f 59/59/59 58/58/58 57/57/57
f 60/60/60 59/59/59 57/57/57
f 63/63/63 62/62/62 61/61/61
f 64/64/64 63/63/63 61/61/61
f 67/67/67 66/66/66 65/65/65
f 68/68/68 67/67/67 65/65/65
f 71/71/71 70/70/70 69/69/69
f 72/72/72 71/71/71 69/69/69
f 75/75/75 74/74/74 73/73/73
f 76/76/76 75/75/75 73/73/73
f 79/79/79 78/78/78 77/77/77
f 80/80/80 79/79/79 77/77/77
f 83/83/83 82/82/82 81/81/81
f 84/84/84 83/83/83 81/81/81
f 87/87/87 86/86/86 85/85/85
f 88/88/88 87/87/87 85/85/85
f 91/91/91 90/90/90 89/89/89
f 92/92/92 91/91/91 89/89/89
f 95/95/95 94/94/94 93/93/93
f 96/96/96 95/95/95 93/93/93
f 99/99/99 98/98/98 97/97/97
f 97/97/97 100/100/100 99/99/99
f 97/97/97 101/101/101 100/100/100
f 101/101/101 102/102/102 100/100/100
f 101/101/101 103/103/103 102/102/102
f 103/103/103 104/104/104 102/102/102
f 103/103/103 105/105/105 104/104/104
f 105/105/105 106/106/106 104/104/104
f 105/105/105 107/107/107 106/106/106
f 105/105/105 108/108/108 107/107/107
f 111/111/111 110/110/110 109/109/109
f 109/109/109 112/112/112 111/111/111
f 112/112/112 113/113/113 111/111/111
f 113/113/113 114/114/114 111/111/111
f 113/113/113 115/115/115 114/114/114
f 113/113/113 116/116/116 115/115/115
f 116/116/116 117/117/117 115/115/115
f 116/116/116 118/118/118 117/117/117
f 118/118/118 119/119/119 117/117/117
f 118/118/118 120/120/120 119/119/119
f 123/123/123 122/122/122 121/121/121
f 121/121/121 124/124/124 123/123/123
f 121/121/121 125/125/125 124/124/124
f 121/121/121 126/126/126 125/125/125
f 126/126/126 127/127/127 125/125/125
f 126/126/126 128/128/128 127/127/127
f 128/128/128 129/129/129 127/127/127
f 128/128/128 130/130/130 129/129/129
f 130/130/130 131/131/131 129/129/129
f 130/130/130 132/132/132 131/131/131
f 135/135/135 134/134/134 133/133/133
f 133/133/133 136/136/136 135/135/135
f 133/133/133 137/137/137 136/136/136
f 137/137/137 138/138/138 136/136/136
f 137/137/137 139/139/139 138/138/138
f 139/139/139 140/140/140 138/138/138
f 139/139/139 141/141/141 140/140/140
f 141/141/141 142/142/142 140/140/140
f 141/141/141 143/143/143 142/142/142
f 143/143/143 144/144/144 142/142/142
