g Mask
v 0.1413394 0.0005805945 0.1047452
v 0.1348732 0.04277998 0.1117146
v 0.1497721 0.03930136 0.09973139
v 0.1535966 0.0005439201 0.09493644
v 0.1513087 -0.04485893 0.09542159
v 0.1610428 0.03925565 0.08508466
v 0.1574211 -0.03821352 0.09014148
v 0.1613477 0.004289393 0.08393377
v 0.1693042 0.03922487 0.06705419
v 0.1616526 -0.03067686 0.08278288
v 0.16822 0.009422041 0.06724654
v 0.1671359 -0.02038079 0.0674389
v 0.1749229 0.0392159 0.04486295
v 0.1735512 0.01381022 0.04538335
v 0.1721794 -0.01159545 0.04590373
v 0.1750916 -0.008590964 0.01997159
v 0.1766786 0.0153223 0.01885276
v 0.1782657 0.03923555 0.01773393
v 0.175845 -0.008413709 -0.008435343
v 0.1775748 0.01542507 -0.01030074
v 0.1793046 0.03926384 -0.01216614
v 0.1744123 -0.008110055 -0.03739488
v 0.1762121 0.01558534 -0.04003271
v 0.178012 0.03928073 -0.04267053
v 0.170766 -0.007682105 -0.06498487
v 0.172563 0.01579204 -0.06829868
v 0.17436 0.03926619 -0.07161251
v 0.1683208 0.03920022 -0.09682532
v 0.1665998 0.01603413 -0.09305421
v 0.1648787 -0.00713196 -0.08928309
v 0.1596333 0.03912698 -0.1186652
v 0.1580509 0.01628402 -0.1146029
v 0.1564684 -0.006558941 -0.1105405
v 0.1480367 0.03909071 -0.1374886
v 0.1466448 0.01651417 -0.1332484
v 0.1332699 0.03913557 -0.1536516
v 0.1452529 -0.006062367 -0.1290082
v 0.13211 0.016697 -0.1492943
v 0.1309501 -0.005741559 -0.144937
v -0.1312029 0.01672742 -0.1492943
v -0.1322961 0.03914772 -0.1536516
v -0.1470966 0.03911504 -0.1374886
v -0.1458382 0.01657501 -0.1332484
v -0.1301097 -0.005692889 -0.144937
v -0.1587368 0.03916471 -0.1186652
v -0.1445798 -0.00596502 -0.1290082
v -0.1573613 0.01637833 -0.1146029
v -0.1674625 0.03924889 -0.09682531
v -0.1559858 -0.006408048 -0.1105405
v -0.1660085 0.01615582 -0.09305421
v -0.1645545 -0.006937258 -0.08928309
v -0.1735196 0.03931974 -0.07161249
v -0.1720163 0.0159259 -0.06829868
v -0.170513 -0.007467932 -0.06498487
v -0.1740881 -0.007915352 -0.03739488
v -0.1756209 0.01570703 -0.0400327
v -0.1771538 0.0393294 -0.04267052
v -0.1753606 -0.008262813 -0.00843535
v -0.1768835 0.01551938 -0.01030074
v -0.1784063 0.03930157 -0.01216614
v -0.1744114 -0.008493612 0.01997156
v -0.1758649 0.01538314 0.01885275
v -0.1773184 0.0392599 0.01773393
v -0.1713212 -0.01154677 0.04590369
v -0.1726262 0.01384064 0.04538332
v -0.1739311 0.03922806 0.04486295
v -0.1682857 0.03922974 0.06705419
v -0.1672283 0.009434211 0.06724652
v -0.1661708 -0.02036132 0.06743884
v -0.1600128 0.03925686 0.08508466
v -0.1603244 0.004292437 0.08393375
v -0.1606359 -0.03067199 0.08278284
v -0.148743 0.03930136 0.09973139
v -0.1525675 0.0005439227 0.09493642
v -0.1338549 0.04277999 0.1117146
v -0.156392 -0.03821352 0.09014146
v -0.1403211 0.0005805984 0.1047452
v -0.1502901 -0.04485893 0.09542158
v 0.113278 -0.005695838 -0.1585779
v 0.1309501 -0.005741559 -0.144937
v 0.13211 0.016697 -0.1492943
v 0.1141749 0.01680496 -0.1630442
v 0.1332699 0.03913557 -0.1536516
v 0.09299908 -0.0058335 -0.1698649
v 0.1150718 0.03930576 -0.1675104
v 0.09362914 0.01685703 -0.174428
v 0.0708757 -0.006062843 -0.1787318
v 0.09425922 0.03954756 -0.1789911
v 0.07126215 0.01687221 -0.1833756
v 0.07164859 0.03980726 -0.1880194
v 0.04767038 -0.006292161 -0.1851125
v 0.04786346 0.01686949 -0.1898168
v 0.04805655 0.04003114 -0.1945211
v 0.02429972 0.04016546 -0.1984222
v 0.02422264 0.01686785 -0.1936815
v 0.02414556 -0.006429755 -0.1889409
v 0.0004622803 0.04021023 -0.1997225
v 0.0004625323 0.0168673 -0.1949698
v 0.0004627843 -0.00647562 -0.1902171
v -0.02337155 0.04016545 -0.1984222
v -0.02329399 0.01686785 -0.1936816
v -0.02321642 -0.006429759 -0.188941
v -0.04711758 0.04003113 -0.1945212
v -0.04692405 0.01686948 -0.1898168
v -0.04673052 -0.006292169 -0.1851126
v -0.06991799 -0.006062852 -0.1787319
v -0.07030479 0.0168722 -0.1833756
v -0.07069159 0.03980726 -0.1880194
v -0.09203774 -0.005828642 -0.169865
v -0.0926614 0.01686006 -0.174428
v -0.09328504 0.03954877 -0.1789911
v -0.1123487 -0.005676376 -0.158578
v -0.113219 0.01681712 -0.1630442
v -0.1301097 -0.005692889 -0.144937
v -0.1140894 0.03931062 -0.1675105
v -0.1312029 0.01672742 -0.1492943
v -0.1322961 0.03914772 -0.1536516
v -0.1502901 -0.04485893 0.09542158
v -0.1074823 -0.02089036 0.1216649
v -0.1391812 -0.05248124 0.1045301
v -0.1212894 -0.0586997 0.1153769
v -0.1114701 -0.01348407 0.1220947
v -0.1090186 0.006984829 0.1242983
v -0.1403211 0.0005805984 0.1047452
v -0.1052673 0.02699759 0.1271674
v -0.1338549 0.04277999 0.1117146
v -0.1003165 0.03823293 0.1295938
v -0.1147269 0.0531095 0.1217546
v -0.09298462 0.06341373 0.1299652
v -0.09950234 -0.02416566 0.1289918
v -0.08814211 0.0446867 0.1340793
v -0.08151557 -0.02360552 0.135394
v -0.0948391 -0.06113356 0.1258722
v -0.07231133 0.04554627 0.1383769
v -0.07025371 0.06681652 0.1364606
v -0.06265344 -0.02155784 0.1402031
v -0.06372066 -0.05382511 0.1348757
v -0.05609068 0.0446981 0.1417738
v -0.04689869 0.06338196 0.1412026
v -0.04700829 -0.01517323 0.1427506
v -0.03182456 -0.03081663 0.141247
v 0.0004614633 -0.01538738 0.1437746
v -0.04274659 0.03828643 0.1435583
v -0.02328406 0.0531741 0.1441533
v 0.0004621634 0.04637686 0.1451808
v -0.03941999 -0.0002552516 0.1443997
v -0.03835307 0.02918064 0.1441026
v -0.03688953 0.01543141 0.1446166
v 0.0004621636 0.01894756 0.1456321
v 0.03929029 0.02918087 0.1441028
v 0.0378263 0.01543163 0.1446169
v 0.04368519 0.03828664 0.1435583
v 0.024212 0.0531741 0.1441533
v 0.04783746 0.06338196 0.1412026
v 0.04035681 -0.0002550352 0.1443997
v 0.04794544 -0.01517303 0.1427507
v 0.0327497 -0.03081663 0.141247
v 0.06465556 -0.0538251 0.1348757
v 0.05703602 0.04469832 0.1417739
v 0.06359722 -0.02155764 0.1402031
v 0.07326972 0.04554651 0.1383769
v 0.07121054 0.06681652 0.1364606
v 0.08247339 -0.0236053 0.1353941
v 0.09579447 -0.06113356 0.1258722
v 0.08911534 0.04468695 0.1340795
v 0.09396312 0.06341373 0.1299652
v 0.1004761 -0.02416548 0.1289918
v 0.1222692 -0.05869971 0.1153769
v 0.1013019 0.0382331 0.1295939
v 0.1157271 0.0531095 0.1217546
v 0.1348732 0.04277998 0.1117146
v 0.1084682 -0.02089013 0.121665
v 0.1401827 -0.05248125 0.1045301
v 0.1513087 -0.04485893 0.09542159
v 0.1062567 0.02699779 0.1271675
v 0.1100095 0.00698504 0.1242984
v 0.1413394 0.0005805945 0.1047452
v 0.1124597 -0.01348385 0.1220947
vt 0.09545898 0.06155396
vt 0.09545898 0.06155396
vt 0.09545898 0.06155396
vt 0.09545898 0.06155396
vt 0.09545898 0.06152344
vt 0.09545898 0.06155396
vt 0.09545898 0.06152344
vt 0.09545898 0.06155396
vt 0.09545898 0.06155396
vt 0.09545898 0.06152344
vt 0.09545898 0.06155396
vt 0.09545898 0.06152344
vt 0.09552002 0.06155396
vt 0.09552002 0.06155396
vt 0.09552002 0.06152344
vt 0.09552002 0.06152344
vt 0.09552002 0.06155396
vt 0.09552002 0.06155396
vt 0.09552002 0.06152344
vt 0.09552002 0.06155396
vt 0.09552002 0.06155396
vt 0.09558105 0.06152344
vt 0.09558105 0.06155396
vt 0.09558105 0.06155396
vt 0.09558105 0.06152344
vt 0.09558105 0.06155396
vt 0.09558105 0.06155396
vt 0.09564209 0.06155396
vt 0.09564209 0.06155396
vt 0.09564209 0.06152344
vt 0.09564209 0.06155396
vt 0.09564209 0.06155396
vt 0.09564209 0.06152344
vt 0.09564209 0.06155396
vt 0.09564209 0.06155396
vt 0.09564209 0.06155396
vt 0.09564209 0.06152344
vt 0.09564209 0.06155396
vt 0.09564209 0.06152344
vt 0.0949707 0.06155396
vt 0.0949707 0.06155396
vt 0.09503174 0.06155396
vt 0.09503174 0.06155396
vt 0.0949707 0.06152344
vt 0.09503174 0.06155396
vt 0.09503174 0.06152344
vt 0.09503174 0.06155396
vt 0.09503174 0.06155396
vt 0.09503174 0.06152344
vt 0.09503174 0.06155396
vt 0.09503174 0.06152344
vt 0.09503174 0.06155396
vt 0.09503174 0.06155396
vt 0.09503174 0.06152344
vt 0.09509277 0.06152344
vt 0.09509277 0.06155396
vt 0.09509277 0.06155396
vt 0.09509277 0.06152344
vt 0.09509277 0.06155396
vt 0.09509277 0.06155396
vt 0.09515381 0.06152344
vt 0.09515381 0.06155396
vt 0.09515381 0.06155396
vt 0.09515381 0.06152344
vt 0.09515381 0.06155396
vt 0.09515381 0.06155396
vt 0.09515381 0.06155396
vt 0.09515381 0.06155396
vt 0.09515381 0.06152344
vt 0.09521484 0.06155396
vt 0.09521484 0.06155396
vt 0.09521484 0.06152344
vt 0.09521484 0.06155396
vt 0.09521484 0.06155396
vt 0.09521484 0.06155396
vt 0.09521484 0.06152344
vt 0.09521484 0.06155396
vt 0.09521484 0.06152344
vt 0.09539795 0.06204224
vt 0.09545898 0.06204224
vt 0.09545898 0.06201172
vt 0.09539795 0.06201172
vt 0.09545898 0.06201172
vt 0.09539795 0.06204224
vt 0.09539795 0.06201172
vt 0.09539795 0.06201172
vt 0.09539795 0.06204224
vt 0.09539795 0.06201172
vt 0.09539795 0.06201172
vt 0.09539795 0.06201172
vt 0.09533691 0.06204224
vt 0.09533691 0.06201172
vt 0.09533691 0.06201172
vt 0.09533691 0.06201172
vt 0.09533691 0.06201172
vt 0.09533691 0.06204224
vt 0.09533691 0.06201172
vt 0.09533691 0.06201172
vt 0.09533691 0.06204224
vt 0.09533691 0.06201172
vt 0.09533691 0.06201172
vt 0.09533691 0.06204224
vt 0.09527588 0.06201172
vt 0.09527588 0.06201172
vt 0.09527588 0.06204224
vt 0.09527588 0.06204224
vt 0.09527588 0.06201172
vt 0.09527588 0.06201172
vt 0.09527588 0.06204224
vt 0.09527588 0.06201172
vt 0.09527588 0.06201172
vt 0.09521484 0.06204224
vt 0.09521484 0.06201172
vt 0.09521484 0.06204224
vt 0.09521484 0.06201172
vt 0.09521484 0.06201172
vt 0.09521484 0.06201172
vt 0.08630371 0.1917725
vt 0.1113892 0.1768799
vt 0.105896 0.1690674
vt 0.1254883 0.1464844
vt 0.1060791 0.1934814
vt 0.1043091 0.2131348
vt 0.08618164 0.2130127
vt 0.105896 0.2315674
vt 0.08599854 0.2342529
vt 0.1109009 0.2445068
vt 0.1051025 0.2496338
vt 0.1242065 0.2651367
vt 0.1259766 0.1712646
vt 0.1254883 0.2484131
vt 0.1448975 0.1691895
vt 0.145752 0.1459961
vt 0.1445313 0.2497559
vt 0.1451416 0.2651367
vt 0.1640625 0.1711426
vt 0.1660156 0.1455078
vt 0.1640625 0.2484131
vt 0.1660156 0.2651367
vt 0.1800537 0.177002
vt 0.1873779 0.1691895
vt 0.2087402 0.192749
vt 0.1800537 0.2446289
vt 0.1873779 0.2497559
vt 0.2087402 0.234375
vt 0.1853027 0.1939697
vt 0.1853027 0.2316895
vt 0.1871338 0.213623
vt 0.2087402 0.213623
vt 0.2320557 0.2316895
vt 0.2302246 0.213623
vt 0.2373047 0.2446289
vt 0.2299805 0.2497559
vt 0.2514648 0.2651367
vt 0.2320557 0.1939697
vt 0.2373047 0.177002
vt 0.2299805 0.1691895
vt 0.2514648 0.1455078
vt 0.253418 0.2484131
vt 0.2531738 0.1711426
vt 0.2729492 0.2497559
vt 0.2722168 0.2651367
vt 0.2724609 0.1691895
vt 0.2717285 0.1459961
vt 0.2919922 0.2484131
vt 0.2932129 0.2651367
vt 0.2915039 0.1712646
vt 0.2919922 0.1464844
vt 0.3066406 0.2445068
vt 0.3122559 0.2496338
vt 0.331543 0.2342529
vt 0.3061523 0.1768799
vt 0.3115234 0.1690674
vt 0.3310547 0.1917725
vt 0.3115234 0.2315674
vt 0.3132324 0.2131348
vt 0.3312988 0.2130127
vt 0.3112793 0.1934814
vn 0.5600586 -0.04315186 0.8271484
vn 0.5385742 -0.03674316 0.8417969
vn 0.6987305 -0.02236938 0.7148438
vn 0.7231445 -0.01638794 0.6904297
vn 0.5595703 -0.03289795 0.828125
vn 0.8657227 -0.009986877 0.5004883
vn 0.7001953 -0.01683044 0.7138672
vn 0.8803711 -0.009346008 0.473877
vn 0.9482422 -0.02885437 0.3168945
vn 0.8789063 -0.004558563 0.4770508
vn 0.9521484 -0.02890015 0.3034668
vn 0.9521484 -0.02554321 0.3039551
vn 0.9833984 -0.04830933 0.1749268
vn 0.984375 -0.04830933 0.1704102
vn 0.9838867 -0.04727173 0.1727295
vn 0.9956055 -0.06152344 0.07049561
vn 0.9956055 -0.06176758 0.07104492
vn 0.9956055 -0.06182861 0.07263184
vn 0.9970703 -0.07281494 -0.008132935
vn 0.9970703 -0.07293701 -0.008102417
vn 0.9970703 -0.07305908 -0.008033752
vn 0.9926758 -0.08453369 -0.08508301
vn 0.9926758 -0.08477783 -0.08612061
vn 0.9926758 -0.08502197 -0.0869751
vn 0.9794922 -0.09899902 -0.1749268
vn 0.9790039 -0.09954834 -0.1779785
vn 0.9785156 -0.1000366 -0.180542
vn 0.9458008 -0.1190186 -0.3022461
vn 0.9472656 -0.1182861 -0.2976074
vn 0.9492188 -0.1174316 -0.2922363
vn 0.8833008 -0.1401367 -0.4472656
vn 0.8867188 -0.1392822 -0.4411621
vn 0.8901367 -0.1383057 -0.434082
vn 0.7851563 -0.1602783 -0.5981445
vn 0.7900391 -0.1594238 -0.5917969
vn 0.659668 -0.1756592 -0.730957
vn 0.7954102 -0.1585693 -0.5854492
vn 0.6650391 -0.1751709 -0.7260742
vn 0.6704102 -0.1745605 -0.7211914
vn -0.6635742 -0.1733398 -0.7275391
vn -0.6586914 -0.1738281 -0.7319336
vn -0.7841797 -0.15625 -0.6005859
vn -0.7880859 -0.1553955 -0.5952148
vn -0.668457 -0.1728516 -0.7236328
vn -0.8828125 -0.1331787 -0.4504395
vn -0.7929688 -0.154541 -0.5898438
vn -0.8857422 -0.1323242 -0.4450684
vn -0.9462891 -0.1091919 -0.3044434
vn -0.8886719 -0.1313477 -0.439209
vn -0.9477539 -0.1084595 -0.300293
vn -0.9492188 -0.1075439 -0.2954102
vn -0.9794922 -0.08874512 -0.1809082
vn -0.9799805 -0.08825684 -0.1781006
vn -0.980957 -0.08764648 -0.1746826
vn -0.9941406 -0.07373047 -0.08166504
vn -0.9936523 -0.07403564 -0.0836792
vn -0.9936523 -0.07427979 -0.08544922
vn -0.9980469 -0.06414795 -0.003097534
vn -0.9980469 -0.06433105 -0.004356384
vn -0.9980469 -0.06445313 -0.005474091
vn -0.9956055 -0.05581665 0.07617188
vn -0.9956055 -0.05603027 0.07531738
vn -0.9956055 -0.05609131 0.07556152
vn -0.9829102 -0.04446411 0.1776123
vn -0.9838867 -0.04534912 0.1741943
vn -0.9829102 -0.04537964 0.1774902
vn -0.9477539 -0.027771 0.3183594
vn -0.9516602 -0.02780151 0.3059082
vn -0.9511719 -0.02461243 0.3071289
vn -0.8652344 -0.009727478 0.5009766
vn -0.8798828 -0.009086609 0.4748535
vn -0.878418 -0.004383087 0.4782715
vn -0.6992188 -0.02229309 0.7148438
vn -0.7231445 -0.01631165 0.6904297
vn -0.5385742 -0.03668213 0.8417969
vn -0.7001953 -0.01673889 0.7138672
vn -0.5605469 -0.0430603 0.8271484
vn -0.5595703 -0.03274536 0.828125
vn 0.5410156 -0.1845703 -0.8203125
vn 0.6704102 -0.1745605 -0.7211914
vn 0.6650391 -0.1751709 -0.7260742
vn 0.5366211 -0.1848145 -0.8232422
vn 0.659668 -0.1756592 -0.730957
vn 0.4230957 -0.1901855 -0.8857422
vn 0.5322266 -0.1851807 -0.8261719
vn 0.4199219 -0.1903076 -0.887207
vn 0.3144531 -0.1937256 -0.9291992
vn 0.4160156 -0.1904297 -0.8891602
vn 0.3122559 -0.1938477 -0.9301758
vn 0.3095703 -0.1939697 -0.9311523
vn 0.2109375 -0.1965332 -0.9575195
vn 0.2095947 -0.1965332 -0.9580078
vn 0.2078857 -0.1966553 -0.9580078
vn 0.1049805 -0.1987305 -0.9746094
vn 0.105835 -0.1987305 -0.9741211
vn 0.1063843 -0.1987305 -0.9741211
vn 0 -0.199585 -0.9799805
vn 6.556511E-07 -0.199585 -0.9799805
vn 1.311302E-06 -0.199585 -0.9799805
vn -0.1050415 -0.1987305 -0.9746094
vn -0.105835 -0.1987305 -0.9741211
vn -0.1064453 -0.1987305 -0.9741211
vn -0.2080078 -0.1966553 -0.9580078
vn -0.2097168 -0.1965332 -0.9580078
vn -0.2110596 -0.1965332 -0.9575195
vn -0.3146973 -0.1937256 -0.9291992
vn -0.3125 -0.1938477 -0.9296875
vn -0.3098145 -0.1938477 -0.9306641
vn -0.4228516 -0.1899414 -0.8862305
vn -0.4199219 -0.1900635 -0.887207
vn -0.4162598 -0.1903076 -0.8891602
vn -0.5400391 -0.1838379 -0.8212891
vn -0.5361328 -0.1842041 -0.8237305
vn -0.668457 -0.1728516 -0.7236328
vn -0.5317383 -0.1844482 -0.8266602
vn -0.6635742 -0.1733398 -0.7275391
vn -0.6586914 -0.1738281 -0.7319336
vn -0.5595703 -0.03274536 0.828125
vn -0.3305664 -0.004619598 0.9438477
vn -0.5307617 0.01158142 0.847168
vn -0.4794922 -0.01241302 0.8774414
vn -0.3381348 -0.02009583 0.940918
vn -0.3278809 -0.02098083 0.9443359
vn -0.5605469 -0.0430603 0.8271484
vn -0.314209 -0.01672363 0.9492188
vn -0.5385742 -0.03668213 0.8417969
vn -0.2949219 -0.004333496 0.9555664
vn -0.4440918 0.04248047 0.8950195
vn -0.3371582 0.1124878 0.9345703
vn -0.3022461 -0.02334595 0.953125
vn -0.2805176 0.0001702309 0.9599609
vn -0.2753906 -0.03536987 0.9604492
vn -0.3171387 -0.1342773 0.9389648
vn -0.270752 -0.001150131 0.9624023
vn -0.2316895 0.1187134 0.965332
vn -0.2546387 -0.03781128 0.9663086
vn -0.194458 -0.1583252 0.9682617
vn -0.260498 -0.001015663 0.965332
vn -0.1337891 0.09350586 0.9868164
vn -0.2310791 -0.0375061 0.972168
vn -0.04730225 -0.1317139 0.9902344
vn -1.370907E-06 -0.06335449 0.9980469
vn -0.2475586 -0.004337311 0.96875
vn -0.05770874 0.04107666 0.9975586
vn -1.549721E-06 0.02278137 0.9995117
vn -0.2265625 -0.02357483 0.9736328
vn -0.2392578 -0.007591248 0.9707031
vn -0.2270508 -0.01335144 0.9736328
vn -1.728535E-06 -0.01068878 1
vn 0.2391357 -0.00762558 0.9711914
vn 0.2269287 -0.01338959 0.9736328
vn 0.2473145 -0.004371643 0.96875
vn 0.05767822 0.04107666 0.9975586
vn 0.1337891 0.09350586 0.9868164
vn 0.2264404 -0.02360535 0.9736328
vn 0.230957 -0.03753662 0.972168
vn 0.04727173 -0.1317139 0.9902344
vn 0.1943359 -0.1583252 0.9682617
vn 0.2602539 -0.001050949 0.965332
vn 0.2546387 -0.0378418 0.9663086
vn 0.270752 -0.001184464 0.9628906
vn 0.2314453 0.1187134 0.965332
vn 0.2751465 -0.03543091 0.9609375
vn 0.3168945 -0.1343994 0.9389648
vn 0.2805176 0.000136137 0.9599609
vn 0.3366699 0.1124878 0.9350586
vn 0.302002 -0.02340698 0.953125
vn 0.479248 -0.01263428 0.8774414
vn 0.2946777 -0.004364014 0.9555664
vn 0.4436035 0.04244995 0.8950195
vn 0.5385742 -0.03674316 0.8417969
vn 0.3300781 -0.004703522 0.9438477
vn 0.5302734 0.01132965 0.8476563
vn 0.5595703 -0.03289795 0.828125
vn 0.3139648 -0.01675415 0.9492188
vn 0.3276367 -0.02102661 0.9443359
vn 0.5600586 -0.04315186 0.8271484
vn 0.3378906 -0.02015686 0.940918
g Mask_0
f 3/3/3 2/2/2 1/1/1
f 4/4/4 3/3/3 1/1/1
f 4/4/4 1/1/1 5/5/5
f 6/6/6 3/3/3 4/4/4
f 7/7/7 4/4/4 5/5/5
f 8/8/8 6/6/6 4/4/4
f 8/8/8 4/4/4 7/7/7
f 9/9/9 6/6/6 8/8/8
f 10/10/10 8/8/8 7/7/7
f 11/11/11 9/9/9 8/8/8
f 11/11/11 8/8/8 10/10/10
f 12/12/12 11/11/11 10/10/10
f 13/13/13 9/9/9 11/11/11
f 14/14/14 11/11/11 12/12/12
f 14/14/14 13/13/13 11/11/11
f 15/15/15 14/14/14 12/12/12
f 15/15/15 16/16/16 14/14/14
f 14/14/14 17/17/17 13/13/13
f 16/16/16 17/17/17 14/14/14
f 17/17/17 18/18/18 13/13/13
f 16/16/16 19/19/19 17/17/17
f 17/17/17 20/20/20 18/18/18
f 19/19/19 20/20/20 17/17/17
f 20/20/20 21/21/21 18/18/18
f 19/19/19 22/22/22 20/20/20
f 20/20/20 23/23/23 21/21/21
f 22/22/22 23/23/23 20/20/20
f 23/23/23 24/24/24 21/21/21
f 22/22/22 25/25/25 23/23/23
f 23/23/23 26/26/26 24/24/24
f 25/25/25 26/26/26 23/23/23
f 26/26/26 27/27/27 24/24/24
f 28/28/28 27/27/27 26/26/26
f 29/29/29 26/26/26 25/25/25
f 29/29/29 28/28/28 26/26/26
f 30/30/30 29/29/29 25/25/25
f 31/31/31 28/28/28 29/29/29
f 32/32/32 29/29/29 30/30/30
f 32/32/32 31/31/31 29/29/29
f 33/33/33 32/32/32 30/30/30
f 34/34/34 31/31/31 32/32/32
f 35/35/35 32/32/32 33/33/33
f 35/35/35 34/34/34 32/32/32
f 36/36/36 34/34/34 35/35/35
f 37/37/37 35/35/35 33/33/33
f 38/38/38 36/36/36 35/35/35
f 38/38/38 35/35/35 37/37/37
f 39/39/39 38/38/38 37/37/37
f 42/42/42 41/41/41 40/40/40
f 43/43/43 42/42/42 40/40/40
f 43/43/43 40/40/40 44/44/44
f 45/45/45 42/42/42 43/43/43
f 46/46/46 43/43/43 44/44/44
f 47/47/47 45/45/45 43/43/43
f 47/47/47 43/43/43 46/46/46
f 48/48/48 45/45/45 47/47/47
f 49/49/49 47/47/47 46/46/46
f 50/50/50 48/48/48 47/47/47
f 50/50/50 47/47/47 49/49/49
f 51/51/51 50/50/50 49/49/49
f 52/52/52 48/48/48 50/50/50
f 53/53/53 50/50/50 51/51/51
f 53/53/53 52/52/52 50/50/50
f 54/54/54 53/53/53 51/51/51
f 54/54/54 55/55/55 53/53/53
f 53/53/53 56/56/56 52/52/52
f 55/55/55 56/56/56 53/53/53
f 56/56/56 57/57/57 52/52/52
f 55/55/55 58/58/58 56/56/56
f 56/56/56 59/59/59 57/57/57
f 58/58/58 59/59/59 56/56/56
f 59/59/59 60/60/60 57/57/57
f 58/58/58 61/61/61 59/59/59
f 59/59/59 62/62/62 60/60/60
f 61/61/61 62/62/62 59/59/59
f 62/62/62 63/63/63 60/60/60
f 61/61/61 64/64/64 62/62/62
f 62/62/62 65/65/65 63/63/63
f 64/64/64 65/65/65 62/62/62
f 65/65/65 66/66/66 63/63/63
f 67/67/67 66/66/66 65/65/65
f 68/68/68 65/65/65 64/64/64
f 68/68/68 67/67/67 65/65/65
f 69/69/69 68/68/68 64/64/64
f 70/70/70 67/67/67 68/68/68
f 71/71/71 68/68/68 69/69/69
f 71/71/71 70/70/70 68/68/68
f 72/72/72 71/71/71 69/69/69
f 73/73/73 70/70/70 71/71/71
f 74/74/74 71/71/71 72/72/72
f 74/74/74 73/73/73 71/71/71
f 75/75/75 73/73/73 74/74/74
f 76/76/76 74/74/74 72/72/72
f 77/77/77 75/75/75 74/74/74
f 77/77/77 74/74/74 76/76/76
f 78/78/78 77/77/77 76/76/76
f 81/81/81 80/80/80 79/79/79
f 82/82/82 81/81/81 79/79/79
f 83/83/83 81/81/81 82/82/82
f 82/82/82 79/79/79 84/84/84
f 85/85/85 83/83/83 82/82/82
f 86/86/86 82/82/82 84/84/84
f 85/85/85 82/82/82 86/86/86
f 86/86/86 84/84/84 87/87/87
f 88/88/88 85/85/85 86/86/86
f 89/89/89 86/86/86 87/87/87
f 88/88/88 86/86/86 89/89/89
f 90/90/90 88/88/88 89/89/89
f 89/89/89 87/87/87 91/91/91
f 90/90/90 89/89/89 92/92/92
f 92/92/92 89/89/89 91/91/91
f 93/93/93 90/90/90 92/92/92
f 93/93/93 92/92/92 94/94/94
f 92/92/92 91/91/91 95/95/95
f 92/92/92 95/95/95 94/94/94
f 91/91/91 96/96/96 95/95/95
f 94/94/94 95/95/95 97/97/97
f 95/95/95 96/96/96 98/98/98
f 95/95/95 98/98/98 97/97/97
f 96/96/96 99/99/99 98/98/98
f 97/97/97 98/98/98 100/100/100
f 98/98/98 99/99/99 101/101/101
f 98/98/98 101/101/101 100/100/100
f 99/99/99 102/102/102 101/101/101
f 100/100/100 101/101/101 103/103/103
f 101/101/101 102/102/102 104/104/104
f 101/101/101 104/104/104 103/103/103
f 102/102/102 105/105/105 104/104/104
f 104/104/104 105/105/105 106/106/106
f 103/103/103 104/104/104 107/107/107
f 107/107/107 104/104/104 106/106/106
f 108/108/108 103/103/103 107/107/107
f 107/107/107 106/106/106 109/109/109
f 108/108/108 107/107/107 110/110/110
f 110/110/110 107/107/107 109/109/109
f 111/111/111 108/108/108 110/110/110
f 110/110/110 109/109/109 112/112/112
f 111/111/111 110/110/110 113/113/113
f 113/113/113 110/110/110 112/112/112
f 113/113/113 112/112/112 114/114/114
f 115/115/115 111/111/111 113/113/113
f 116/116/116 113/113/113 114/114/114
f 115/115/115 113/113/113 116/116/116
f 117/117/117 115/115/115 116/116/116
f 120/120/120 119/119/119 118/118/118
f 119/119/119 120/120/120 121/121/121
f 119/119/119 122/122/122 118/118/118
f 122/122/122 123/123/123 118/118/118
f 123/123/123 122/122/122 119/119/119
f 123/123/123 124/124/124 118/118/118
f 123/123/123 125/125/125 124/124/124
f 125/125/125 123/123/123 119/119/119
f 125/125/125 126/126/126 124/124/124
f 125/125/125 127/127/127 126/126/126
f 127/127/127 125/125/125 119/119/119
f 127/127/127 128/128/128 126/126/126
f 128/128/128 127/127/127 129/129/129
f 130/130/130 119/119/119 121/121/121
f 127/127/127 119/119/119 130/130/130
f 127/127/127 131/131/131 129/129/129
f 131/131/131 127/127/127 130/130/130
f 132/132/132 130/130/130 121/121/121
f 131/131/131 130/130/130 132/132/132
f 133/133/133 132/132/132 121/121/121
f 131/131/131 134/134/134 129/129/129
f 134/134/134 131/131/131 132/132/132
f 134/134/134 135/135/135 129/129/129
f 136/136/136 132/132/132 133/133/133
f 134/134/134 132/132/132 136/136/136
f 137/137/137 136/136/136 133/133/133
f 134/134/134 138/138/138 135/135/135
f 138/138/138 134/134/134 136/136/136
f 138/138/138 139/139/139 135/135/135
f 140/140/140 136/136/136 137/137/137
f 138/138/138 136/136/136 140/140/140
f 141/141/141 140/140/140 137/137/137
f 140/140/140 141/141/141 142/142/142
f 138/138/138 143/143/143 139/139/139
f 143/143/143 138/138/138 140/140/140
f 143/143/143 144/144/144 139/139/139
f 144/144/144 143/143/143 145/145/145
f 143/143/143 140/140/140 146/146/146
f 146/146/146 140/140/140 142/142/142
f 143/143/143 147/147/147 145/145/145
f 147/147/147 143/143/143 146/146/146
f 146/146/146 148/148/148 147/147/147
f 145/145/145 147/147/147 148/148/148
f 149/149/149 148/148/148 146/146/146
f 142/142/142 149/149/149 146/146/146
f 149/149/149 145/145/145 148/148/148
f 150/150/150 145/145/145 149/149/149
f 151/151/151 149/149/149 142/142/142
f 151/151/151 150/150/150 149/149/149
f 150/150/150 152/152/152 145/145/145
f 152/152/152 153/153/153 145/145/145
f 153/153/153 152/152/152 154/154/154
f 150/150/150 151/151/151 155/155/155
f 155/155/155 151/151/151 142/142/142
f 152/152/152 150/150/150 155/155/155
f 156/156/156 155/155/155 142/142/142
f 152/152/152 155/155/155 156/156/156
f 157/157/157 156/156/156 142/142/142
f 156/156/156 157/157/157 158/158/158
f 152/152/152 159/159/159 154/154/154
f 159/159/159 152/152/152 156/156/156
f 160/160/160 156/156/156 158/158/158
f 159/159/159 156/156/156 160/160/160
f 159/159/159 161/161/161 154/154/154
f 161/161/161 159/159/159 160/160/160
f 161/161/161 162/162/162 154/154/154
f 163/163/163 160/160/160 158/158/158
f 161/161/161 160/160/160 163/163/163
f 164/164/164 163/163/163 158/158/158
f 161/161/161 165/165/165 162/162/162
f 165/165/165 161/161/161 163/163/163
f 165/165/165 166/166/166 162/162/162
f 167/167/167 163/163/163 164/164/164
f 165/165/165 163/163/163 167/167/167
f 168/168/168 167/167/167 164/164/164
f 165/165/165 169/169/169 166/166/166
f 169/169/169 165/165/165 167/167/167
f 169/169/169 170/170/170 166/166/166
f 170/170/170 169/169/169 171/171/171
f 172/172/172 167/167/167 168/168/168
f 173/173/173 172/172/172 168/168/168
f 172/172/172 173/173/173 174/174/174
f 175/175/175 169/169/169 167/167/167
f 169/169/169 175/175/175 171/171/171
f 175/175/175 167/167/167 172/172/172
f 171/171/171 175/175/175 176/176/176
f 176/176/176 175/175/175 172/172/172
f 177/177/177 171/171/171 176/176/176
f 174/174/174 177/177/177 178/178/178
f 178/178/178 172/172/172 174/174/174
f 177/177/177 176/176/176 178/178/178
f 172/172/172 178/178/178 176/176/176
