g Mask_Male
v -0.1122441 -0.09851823 0.1116819
v -0.07728052 -0.1388141 0.1133504
v -0.09771493 -0.1230485 0.1042619
v -0.0838699 -0.1051264 0.128703
v -0.1286777 -0.05703749 0.1155584
v -0.0453595 -0.1508631 0.1196748
v -0.09213322 -0.0582164 0.1337808
v -0.04575431 -0.1116447 0.1385637
v -0.09552851 -0.007272327 0.1354232
v -0.1356344 -0.007848377 0.1168357
v 0.0004892502 -0.1138174 0.1418507
v 0.0004461509 -0.1548794 0.121783
v -0.09549675 0.03946585 0.1352217
v -0.1359749 0.03935454 0.1166309
v -0.13256 0.07487669 0.1160613
v -0.09347893 0.07375816 0.1347675
v -0.1238655 0.1053808 0.1157595
v -0.08870272 0.1036987 0.1337591
v -0.04753294 0.03955117 0.1464202
v -0.04702849 0.0736623 0.1460429
v -0.04583444 0.1041863 0.1441193
v 0.000460351 0.1043489 0.1475728
v 0.0004603576 0.07363036 0.1498013
v 0.04676959 0.1041864 0.1441194
v -0.04754088 -0.006835157 0.146541
v 0.0004603576 0.03957962 0.150153
v 0.04796365 0.0736623 0.1460429
v -0.04697408 -0.05929951 0.1445429
v 0.0004603576 -0.006689432 0.1502469
v 0.0004675808 -0.05966055 0.1481303
v 0.0484681 0.03955117 0.1464202
v 0.09445743 0.07375816 0.1347675
v 0.08968122 0.1036987 0.1337591
v 0.04847604 -0.006835157 0.146541
v 0.09647526 0.03946584 0.1352217
v 0.1335819 0.07487669 0.1160613
v 0.1248873 0.1053808 0.1157596
v 0.1369967 0.03935454 0.1166309
v 0.09650701 -0.007272329 0.1354232
v 0.1366563 -0.007848378 0.1168357
v 0.04792188 -0.0592995 0.1445429
v 0.09311894 -0.05821641 0.1337808
v 0.1297014 -0.05703749 0.1155584
v 0.1132732 -0.09851824 0.1116819
v 0.0848773 -0.1051264 0.128703
v 0.09871922 -0.1230485 0.1042619
v 0.07824481 -0.1388141 0.1133504
v 0.04674003 -0.1116447 0.1385637
v 0.04626979 -0.1508631 0.1196748
vt 0.08691406 0.2434082
vt 0.2149658 0.0958252
vt 0.1401367 0.1535645
vt 0.190918 0.2192383
vt 0.0267334 0.3955078
vt 0.3320313 0.05169678
vt 0.1606445 0.3911133
vt 0.3305664 0.1953125
vt 0.1481934 0.5776367
vt 0.001247406 0.5756836
vt 0.5 0.1873779
vt 0.4997559 0.0369873
vt 0.1483154 0.7490234
vt 0 0.7485352
vt 0.01251221 0.878418
vt 0.1556396 0.8745117
vt 0.04437256 0.9902344
vt 0.1732178 0.984375
vt 0.3239746 0.7490234
vt 0.3259277 0.8740234
vt 0.3303223 0.9858398
vt 0.4997559 0.9868164
vt 0.4997559 0.8740234
vt 0.6694336 0.9858398
vt 0.3239746 0.5791016
vt 0.4997559 0.7495117
vt 0.6738281 0.8740234
vt 0.3259277 0.387207
vt 0.4997559 0.5800781
vt 0.4997559 0.3857422
vt 0.6757813 0.7490234
vt 0.8442383 0.8745117
vt 0.8266602 0.984375
vt 0.6757813 0.5791016
vt 0.8515625 0.7490234
vt 0.9873047 0.878418
vt 0.9555664 0.9902344
vt 1 0.7485352
vt 0.8515625 0.5776367
vt 0.9985352 0.5756836
vt 0.6738281 0.387207
vt 0.8393555 0.3911133
vt 0.9731445 0.3955078
vt 0.9130859 0.2434082
vt 0.809082 0.2192383
vt 0.8598633 0.1535645
vt 0.784668 0.0958252
vt 0.6694336 0.1953125
vt 0.6674805 0.05169678
vn -0.5102539 -0.2802734 0.8129883
vn -0.376709 -0.442627 0.8139648
vn -0.5742188 -0.470459 0.6699219
vn -0.3730469 -0.2714844 0.887207
vn -0.4528809 -0.1253662 0.8828125
vn -0.1661377 -0.4355469 0.8847656
vn -0.3415527 -0.1091309 0.9335938
vn -0.1654053 -0.2626953 0.9506836
vn -0.3242188 -0.0274353 0.9458008
vn -0.4257813 -0.03341675 0.9042969
vn 3.349781E-05 -0.2661133 0.9638672
vn -5.048513E-05 -0.4370117 0.8994141
vn -0.3234863 0.01583862 0.9462891
vn -0.4208984 0.02055359 0.9067383
vn -0.4291992 0.07495117 0.8999023
vn -0.331543 0.06048584 0.9414063
vn -0.4365234 0.1166382 0.8920898
vn -0.3256836 0.09118652 0.940918
vn -0.1547852 0.008392334 0.987793
vn -0.1558838 0.04077148 0.9868164
vn -0.1530762 0.06976318 0.9858398
vn -4.172325E-07 0.06915283 0.9975586
vn 0 0.0383606 0.9990234
vn 0.1529541 0.06976318 0.9858398
vn -0.1529541 -0.0202179 0.987793
vn 0 0.00610733 1
vn 0.1557617 0.04074097 0.9868164
vn -0.1542969 -0.08056641 0.9848633
vn -3.576279E-06 -0.01977539 1
vn -6.258488E-06 -0.07733154 0.9970703
vn 0.1546631 0.008392334 0.987793
vn 0.3312988 0.06045532 0.9414063
vn 0.3254395 0.09112549 0.9414063
vn 0.152832 -0.02020264 0.9882813
vn 0.3232422 0.01582336 0.9462891
vn 0.4287109 0.07489014 0.9003906
vn 0.4362793 0.1165771 0.8920898
vn 0.4206543 0.02053833 0.9072266
vn 0.3239746 -0.02740479 0.9458008
vn 0.425293 -0.03338623 0.9042969
vn 0.1541748 -0.08050537 0.9848633
vn 0.3413086 -0.1090088 0.9335938
vn 0.4526367 -0.1252441 0.8828125
vn 0.5097656 -0.2800293 0.8134766
vn 0.3728027 -0.2717285 0.887207
vn 0.5737305 -0.4709473 0.6704102
vn 0.3762207 -0.4431152 0.8134766
vn 0.1654053 -0.2626953 0.9506836
vn 0.1660156 -0.435791 0.8847656
g Mask_Male_0
f 3/3/3 2/2/2 1/1/1
f 2/2/2 4/4/4 1/1/1
f 1/1/1 4/4/4 5/5/5
f 2/2/2 6/6/6 4/4/4
f 4/4/4 7/7/7 5/5/5
f 6/6/6 8/8/8 4/4/4
f 4/4/4 8/8/8 7/7/7
f 7/7/7 9/9/9 5/5/5
f 9/9/9 10/10/10 5/5/5
f 11/11/11 8/8/8 6/6/6
f 12/12/12 11/11/11 6/6/6
f 9/9/9 13/13/13 10/10/10
f 13/13/13 14/14/14 10/10/10
f 14/14/14 13/13/13 15/15/15
f 13/13/13 16/16/16 15/15/15
f 15/15/15 16/16/16 17/17/17
f 16/16/16 18/18/18 17/17/17
f 19/19/19 13/13/13 9/9/9
f 13/13/13 19/19/19 16/16/16
f 16/16/16 20/20/20 18/18/18
f 19/19/19 20/20/20 16/16/16
f 20/20/20 21/21/21 18/18/18
f 22/22/22 21/21/21 20/20/20
f 23/23/23 22/22/22 20/20/20
f 23/23/23 20/20/20 19/19/19
f 24/24/24 22/22/22 23/23/23
f 25/25/25 19/19/19 9/9/9
f 25/25/25 9/9/9 7/7/7
f 26/26/26 23/23/23 19/19/19
f 26/26/26 19/19/19 25/25/25
f 27/27/27 24/24/24 23/23/23
f 27/27/27 23/23/23 26/26/26
f 28/28/28 25/25/25 7/7/7
f 8/8/8 28/28/28 7/7/7
f 29/29/29 26/26/26 25/25/25
f 29/29/29 25/25/25 28/28/28
f 30/30/30 28/28/28 8/8/8
f 30/30/30 29/29/29 28/28/28
f 11/11/11 30/30/30 8/8/8
f 31/31/31 26/26/26 29/29/29
f 31/31/31 27/27/27 26/26/26
f 27/27/27 32/32/32 24/24/24
f 32/32/32 33/33/33 24/24/24
f 34/34/34 29/29/29 30/30/30
f 34/34/34 31/31/31 29/29/29
f 31/31/31 35/35/35 27/27/27
f 35/35/35 32/32/32 27/27/27
f 35/35/35 31/31/31 34/34/34
f 32/32/32 36/36/36 33/33/33
f 36/36/36 37/37/37 33/33/33
f 38/38/38 36/36/36 32/32/32
f 35/35/35 38/38/38 32/32/32
f 38/38/38 35/35/35 39/39/39
f 39/39/39 35/35/35 34/34/34
f 40/40/40 38/38/38 39/39/39
f 41/41/41 34/34/34 30/30/30
f 39/39/39 34/34/34 41/41/41
f 41/41/41 30/30/30 11/11/11
f 40/40/40 39/39/39 42/42/42
f 42/42/42 39/39/39 41/41/41
f 43/43/43 40/40/40 42/42/42
f 44/44/44 43/43/43 42/42/42
f 45/45/45 44/44/44 42/42/42
f 45/45/45 42/42/42 41/41/41
f 46/46/46 44/44/44 45/45/45
f 47/47/47 46/46/46 45/45/45
f 48/48/48 41/41/41 11/11/11
f 48/48/48 45/45/45 41/41/41
f 47/47/47 45/45/45 48/48/48
f 48/48/48 11/11/11 12/12/12
f 49/49/49 47/47/47 48/48/48
f 49/49/49 48/48/48 12/12/12
