g Mohawk
v 0.1539336 1.36245 -0.03534428
v -0.1539336 1.36245 -0.03534428
v -0.1539336 1.245058 -0.4788881
v 0.1539336 1.245058 -0.4788881
v -0.1336717 0.9637442 -0.8851205
v 0.1336717 0.9637442 -0.8851205
v -0.09999997 0.4285849 -1.17274
v 0.09999999 0.4285849 -1.17274
v -0.09999999 0.01803195 -1.237765
v 0.09999999 0.01803195 -1.237765
v -0.09999999 -0.5094537 -1.17274
v 0.09999999 -0.5094537 -1.17274
v -0.09999999 -0.9501808 -0.9840295
v 0.09999999 -0.9501808 -0.9840295
v -0.09999999 -1.244103 -0.6901063
v 0.09999999 -1.244103 -0.6901063
v -0.09999999 -1.36245 -0.3197417
v 0.09999999 -1.36245 -0.3197417
v -0.09999999 -1.310543 0.09081046
v 0.09999999 -1.310543 0.09081046
v -0.09999999 -1.245518 0.5013627
v 0.09999999 -1.245518 0.5013627
v -0.09999999 -1.056808 0.8717272
v 0.09999999 -1.056808 0.8717272
v 0.1539336 1.092872 1.237765
v -0.1539336 1.092872 1.237765
v -0.1539336 1.281582 0.7298884
v 0.1539336 1.281582 0.7298884
v 0.1539336 1.281582 0.7298884
v -0.1539336 1.281582 0.7298884
v -0.1539336 1.346607 0.4441116
v 0.1539336 1.346607 0.4441116
v -0.1539336 1.36245 -0.03534428
v 0.1539336 1.36245 -0.03534428
v 0.09999999 -1.310543 0.09081046
v 0.09999999 -0.3002969 0.7590512
v 0.09999999 -1.36245 -0.3197417
v 0.09999999 -1.244103 -0.6901063
v 0.09999999 -0.9501808 -0.9840295
v 0.09999999 -0.5094537 -1.17274
v 0.09999999 0.01803195 -1.237765
v 0.09999999 0.4285849 -1.17274
v 0.1336717 0.9637442 -0.8851205
v 0.1539336 1.245058 -0.4788881
v 0.1539336 1.36245 -0.03534428
v 0.1539336 1.346607 0.4441116
v 0.1539336 1.281582 0.7298884
v 0.1539336 1.092872 1.237765
v -0.09999999 -1.36245 -0.3197417
v -0.09999999 -0.3002969 0.7590512
v -0.09999999 -1.310543 0.09081046
v -0.09999999 -1.244103 -0.6901063
v -0.09999999 -0.9501808 -0.9840295
v -0.09999999 -0.5094537 -1.17274
v -0.09999999 0.01803195 -1.237765
v -0.09999997 0.4285849 -1.17274
v -0.1336717 0.9637442 -0.8851205
v -0.1539336 1.245058 -0.4788881
v -0.1539336 1.36245 -0.03534428
v -0.1539336 1.346607 0.4441116
v -0.1539336 1.281582 0.7298884
v -0.1539336 1.092872 1.237765
v 0.09999999 -1.310543 0.09081046
v -0.09999999 -1.310543 0.09081046
v -0.09999999 -0.3002969 0.7590512
v 0.09999999 -0.3002969 0.7590512
v 0.09999999 -0.3002969 0.7590512
v -0.09999999 -0.3002969 0.7590512
v -0.1539336 1.092872 1.237765
v 0.1539336 1.092872 1.237765
vt 0.375 0.3125
vt 0.375 0.6884766
vt 0.3874512 0.6884766
vt 0.3874512 0.3125
vt 0.3999023 0.6884766
vt 0.3999023 0.3125
vt 0.4125977 0.6884766
vt 0.4125977 0.3125
vt 0.4250488 0.6884766
vt 0.4250488 0.3125
vt 0.4375 0.6884766
vt 0.4375 0.3125
vt 0.4499512 0.6884766
vt 0.4499512 0.3125
vt 0.4624023 0.6884766
vt 0.4624023 0.3125
vt 0.4750977 0.6884766
vt 0.4750977 0.3125
vt 0.4875488 0.6884766
vt 0.4875488 0.3125
vt 0.5 0.6884766
vt 0.5 0.3125
vt 0.5126953 0.6884766
vt 0.5126953 0.3125
vt 0.6069336 0.2802734
vt 0.6069336 0.7202148
vt 0.6000977 0.6884766
vt 0.6000977 0.3125
vt 0.6000977 0.3125
vt 0.6000977 0.6884766
vt 0.6123047 0.6884766
vt 0.6123047 0.3125
vt 0.625 0.6884766
vt 0.625 0.3125
vt 0.34375 0.15625
vt 0.5 0.1500244
vt 0.3513184 0.1079712
vt 0.3735352 0.06439209
vt 0.4082031 0.02984619
vt 0.4516602 0.007648468
vt 0.5 -5.960464E-08
vt 0.5483398 0.007648468
vt 0.5917969 0.02984619
vt 0.6264648 0.06439209
vt 0.6484375 0.1079712
vt 0.65625 0.15625
vt 0.6484375 0.2045898
vt 0.6069336 0.2802734
vt 0.3513184 0.8920898
vt 0.5 0.8374023
vt 0.34375 0.84375
vt 0.3735352 0.9355469
vt 0.4082031 0.9702148
vt 0.4516602 0.9921875
vt 0.5 1
vt 0.5483398 0.9921875
vt 0.5917969 0.9702148
vt 0.6264648 0.9355469
vt 0.6484375 0.8920898
vt 0.65625 0.84375
vt 0.6484375 0.7954102
vt 0.6069336 0.7202148
vt 0.34375 0.15625
vt 0.34375 0.84375
vt 0.5 0.8374023
vt 0.5 0.1500244
vt 0.5 0.1500244
vt 0.5 0.8374023
vt 0.6069336 0.7202148
vt 0.6069336 0.2802734
vn 0 0.9941406 -0.109375
vn 0 0.9941406 -0.109375
vn 0 0.9086914 -0.4169922
vn 0 0.9086914 -0.4169922
vn 0 0.6723633 -0.7402344
vn 0 0.6723633 -0.7402344
vn 0 0.3637695 -0.9316406
vn 0 0.3637695 -0.9316406
vn 0 0 -1
vn 0 0 -1
vn 0 -0.253418 -0.9672852
vn 0 -0.253418 -0.9672852
vn 0 -0.5488281 -0.8359375
vn 0 -0.5488281 -0.8359375
vn 0 -0.8496094 -0.5273438
vn 0 -0.8496094 -0.5273438
vn 0 -0.996582 -0.08477783
vn 0 -0.996582 -0.08477783
vn 0 -0.9902344 0.1409912
vn 0 -0.9902344 0.1409912
vn 0 -0.9511719 0.309082
vn 0 -0.9511719 0.309082
vn 0 -0.8911133 0.4541016
vn 0 -0.8911133 0.4541016
vn 0 0.9375 0.3483887
vn 0 0.9375 0.3483887
vn 0 0.9526367 0.3044434
vn 0 0.9526367 0.3044434
vn 0 0.9526367 0.3044434
vn 0 0.9526367 0.3044434
vn 0 0.9946289 0.1051025
vn 0 0.9946289 0.1051025
vn 0 0.9941406 -0.109375
vn 0 0.9941406 -0.109375
vn 1 0 0
vn 0.9995117 -0.02326965 -0.005962372
vn 1 0 0
vn 1 0 0
vn 1 0 0
vn 1 0 0
vn 1 0 0
vn 0.9995117 -0.03182983 -0.01200867
vn 0.9985352 -0.05050659 -0.01838684
vn 0.9990234 -0.04086304 -0.007476807
vn 0.9995117 -0.03031921 0.004398346
vn 0.9995117 -0.03329468 -0.00289917
vn 0.9995117 -0.03427124 -0.0104599
vn 0.9995117 -0.03430176 -0.01274872
vn -1 0 0
vn -0.9995117 -0.02326965 -0.005962372
vn -1 0 0
vn -1 0 0
vn -1 0 0
vn -1 0 0
vn -1 0 0
vn -0.9995117 -0.03182983 -0.01200867
vn -0.9985352 -0.05050659 -0.01838684
vn -0.9990234 -0.04086304 -0.007476807
vn -0.9995117 -0.03031921 0.004398346
vn -0.9995117 -0.03329468 -0.00289917
vn -0.9995117 -0.03427124 -0.0104599
vn -0.9995117 -0.03430176 -0.01274872
vn 0 -0.5517578 0.8339844
vn 0 -0.5517578 0.8339844
vn 0 -0.5517578 0.8339844
vn 0 -0.5517578 0.8339844
vn 0 -0.3249512 0.9458008
vn 0 -0.3249512 0.9458008
vn 0 -0.3249512 0.9458008
vn 0 -0.3249512 0.9458008
g Mohawk_0
f 3/3/3 2/2/2 1/1/1
f 4/4/4 3/3/3 1/1/1
f 5/5/5 3/3/3 4/4/4
f 6/6/6 5/5/5 4/4/4
f 7/7/7 5/5/5 6/6/6
f 8/8/8 7/7/7 6/6/6
f 9/9/9 7/7/7 8/8/8
f 10/10/10 9/9/9 8/8/8
f 11/11/11 9/9/9 10/10/10
f 12/12/12 11/11/11 10/10/10
f 13/13/13 11/11/11 12/12/12
f 14/14/14 13/13/13 12/12/12
f 15/15/15 13/13/13 14/14/14
f 16/16/16 15/15/15 14/14/14
f 17/17/17 15/15/15 16/16/16
f 18/18/18 17/17/17 16/16/16
f 19/19/19 17/17/17 18/18/18
f 20/20/20 19/19/19 18/18/18
f 21/21/21 19/19/19 20/20/20
f 22/22/22 21/21/21 20/20/20
f 23/23/23 21/21/21 22/22/22
f 24/24/24 23/23/23 22/22/22
f 27/27/27 26/26/26 25/25/25
f 28/28/28 27/27/27 25/25/25
f 31/31/31 30/30/30 29/29/29
f 32/32/32 31/31/31 29/29/29
f 33/33/33 31/31/31 32/32/32
f 34/34/34 33/33/33 32/32/32
f 37/37/37 36/36/36 35/35/35
f 38/38/38 36/36/36 37/37/37
f 39/39/39 36/36/36 38/38/38
f 40/40/40 36/36/36 39/39/39
f 41/41/41 36/36/36 40/40/40
f 42/42/42 36/36/36 41/41/41
f 43/43/43 36/36/36 42/42/42
f 44/44/44 36/36/36 43/43/43
f 45/45/45 36/36/36 44/44/44
f 46/46/46 36/36/36 45/45/45
f 47/47/47 36/36/36 46/46/46
f 48/48/48 36/36/36 47/47/47
f 51/51/51 50/50/50 49/49/49
f 49/49/49 50/50/50 52/52/52
f 52/52/52 50/50/50 53/53/53
f 53/53/53 50/50/50 54/54/54
f 54/54/54 50/50/50 55/55/55
f 55/55/55 50/50/50 56/56/56
f 56/56/56 50/50/50 57/57/57
f 57/57/57 50/50/50 58/58/58
f 58/58/58 50/50/50 59/59/59
f 59/59/59 50/50/50 60/60/60
f 60/60/60 50/50/50 61/61/61
f 61/61/61 50/50/50 62/62/62
f 65/65/65 64/64/64 63/63/63
f 66/66/66 65/65/65 63/63/63
f 69/69/69 68/68/68 67/67/67
f 70/70/70 69/69/69 67/67/67
