g Nose_round
v -0.00952707 -0.01064457 0.003033436
v -0.008082826 -0.009375342 0.005926831
v -0.004780367 -0.01100289 0.006944561
v -0.005174332 -0.01348513 0.003033276
v -0.01028233 -0.01100158 -0.001008775
v 1.194123E-08 -0.01180502 0.007440763
v -0.005588267 -0.01402316 -0.001348476
v -0.009642822 -0.009795895 -0.004867193
v 1.165528E-08 -0.01446322 0.003233183
v 0.004780389 -0.01100288 0.006944576
v -0.005242769 -0.01259931 -0.005472759
v -0.00824852 -0.00791702 -0.007422179
v 0.005174351 -0.01348512 0.003033293
v 0.008082845 -0.009375327 0.005926855
v 0.009527087 -0.01064455 0.003033467
v 7.96359E-09 -0.01503754 -0.001472949
v 0.005588281 -0.01402315 -0.001348459
v 0.01028234 -0.01100156 -0.001008741
v -0.004896739 -0.009311355 -0.008721062
v -0.009747487 -0.004206182 -0.008325877
v 1.466196E-09 -0.01352468 -0.005897898
v 0.005242772 -0.0125993 -0.005472743
v 0.009642824 -0.009795874 -0.004867162
v -0.005331173 -0.004323176 -0.01050887
v -0.01051514 0.001068787 -0.008561424
v -5.536131E-09 -0.01000205 -0.009365327
v 0.004896729 -0.009311343 -0.008721045
v 0.008248514 -0.007917002 -0.007422151
v -0.005756768 0.001407222 -0.0108835
v -0.009812875 0.006189922 -0.007658598
v -1.132112E-08 -0.004637712 -0.01126209
v 0.00533115 -0.004323164 -0.01050885
v 0.009747473 -0.00420616 -0.008325845
v -0.005367986 0.006924509 -0.009836425
v -0.008344665 0.009594155 -0.006252801
v -1.570079E-08 0.001526172 -0.01165884
v 0.00575674 0.001407239 -0.01088348
v 0.01051512 0.001068813 -0.008561391
v -0.004962793 0.01130098 -0.007384035
v -0.009781718 0.01075598 -0.003388075
v -1.787515E-08 0.007452361 -0.01055778
v 0.005367954 0.006924524 -0.009836408
v 0.009812851 0.006189947 -0.007658569
v -0.005341115 0.0136363 -0.003555874
v -0.01044969 0.01099476 0.0007192141
v -1.69261E-08 0.01214455 -0.007946617
v 0.004962761 0.01130099 -0.00738402
v 0.008344638 0.009594175 -0.006252777
v -0.005707401 0.01402144 0.0009093195
v -0.009675144 0.009758417 0.004738975
v -1.368975E-08 0.01463595 -0.003833517
v 0.005341087 0.01363632 -0.00355586
v 0.009781697 0.01075601 -0.003388047
v -0.005279253 0.01254196 0.005258656
v -0.008190478 0.007924332 0.007422061
v -9.944761E-09 0.01503754 0.0009729248
v 0.005707382 0.01402146 0.0009093362
v 0.01044967 0.01099479 0.0007192427
v -5.921556E-09 0.01345444 0.005649674
v 0.005279242 0.01254198 0.005258673
v 0.009675139 0.009758438 0.004739004
v -0.004856064 0.00932027 0.00873615
v -1.055469E-09 0.01000902 0.00938469
v 0.004856063 0.00932028 0.008736165
v 0.008190476 0.007924348 0.007422085
v -0.009595813 0.004267439 0.008348978
v -0.005217148 0.004461617 0.01059666
v 3.689529E-09 0.004801978 0.01137673
v 0.005217153 0.004461629 0.01059667
v -0.01229727 0.005069296 0.004732895
v -0.009675144 0.009758417 0.004738975
v 0.009595818 0.004267458 0.008349004
v 0.009675139 0.009758438 0.004739004
v -0.01327235 0.005987677 0.0003969198
v -0.01044969 0.01099476 0.0007192141
v 0.01229727 0.005069322 0.004732931
v 0.01044967 0.01099479 0.0007192427
v -0.01244756 0.006117885 -0.003992178
v -0.009781718 0.01075598 -0.003388075
v -0.009812875 0.006189922 -0.007658598
v -0.008344665 0.009594155 -0.006252801
v -0.01051514 0.001068787 -0.008561424
v -0.01331151 0.0005553454 -0.004685833
v -0.009747487 -0.004206182 -0.008325877
v -0.01417095 -1.017153E-05 -3.609597E-05
v -0.01235226 -0.005084906 -0.004784984
v -0.00824852 -0.00791702 -0.007422179
v -0.009642822 -0.009795895 -0.004867193
v -0.01315749 -0.006004491 -0.0005335778
v -0.01028233 -0.01100158 -0.001008775
v -0.01313391 -0.0005279857 0.004616817
v -0.01219498 -0.006045945 0.003806544
v -0.00952707 -0.01064457 0.003033436
v -0.01025879 -0.0009232289 0.00850699
v -0.009520678 -0.005982901 0.007452248
v -0.008082826 -0.009375342 0.005926831
v -0.005578088 -0.001139241 0.0108657
v -0.005172722 -0.006588794 0.009604839
v -0.004780367 -0.01100289 0.006944561
v 7.389408E-09 -0.001207827 0.01165884
v 1.001395E-08 -0.007062244 0.01030306
v 1.194123E-08 -0.01180502 0.007440763
v 0.005578102 -0.001139231 0.01086572
v 0.005172742 -0.006588785 0.009604855
v 0.004780389 -0.01100288 0.006944576
v 0.0102588 -0.0009232074 0.008507021
v 0.009520696 -0.005982883 0.007452276
v 0.008082845 -0.009375327 0.005926855
v 0.01313392 -0.000527957 0.004616857
v 0.01219499 -0.006045921 0.003806582
v 0.009527087 -0.01064455 0.003033467
v 0.01327234 0.005987708 0.000396958
v 0.009781697 0.01075601 -0.003388047
v 0.0131575 -0.006004464 -0.0005335372
v 0.01028234 -0.01100156 -0.001008741
v 0.01417095 -1.014054E-05 -3.605306E-05
v 0.01244755 0.006117915 -0.003992142
v 0.008344638 0.009594175 -0.006252777
v 0.009812851 0.006189947 -0.007658569
v 0.0133115 0.0005553764 -0.004685792
v 0.01051512 0.001068813 -0.008561391
v 0.01235226 -0.005084877 -0.004784944
v 0.009642824 -0.009795874 -0.004867162
v 0.009747473 -0.00420616 -0.008325845
v 0.008248514 -0.007917002 -0.007422151
vt 0.375 0.9375
vt 0.375 1
vt 0.4375 1
vt 0.4375 0.9375
vt 0.375 0.875
vt 0.5 1
vt 0.4375 0.875
vt 0.375 0.8125
vt 0.5 0.9375
vt 0.5625 1
vt 0.4375 0.8125
vt 0.375 0.75
vt 0.5625 0.9375
vt 0.625 1
vt 0.625 0.9375
vt 0.5 0.875
vt 0.5625 0.875
vt 0.625 0.875
vt 0.4375 0.75
vt 0.375 0.6875
vt 0.5 0.8125
vt 0.5625 0.8125
vt 0.625 0.8125
vt 0.4375 0.6875
vt 0.375 0.625
vt 0.5 0.75
vt 0.5625 0.75
vt 0.625 0.75
vt 0.4375 0.625
vt 0.375 0.5625
vt 0.5 0.6875
vt 0.5625 0.6875
vt 0.625 0.6875
vt 0.4375 0.5625
vt 0.375 0.5
vt 0.5 0.625
vt 0.5625 0.625
vt 0.625 0.625
vt 0.4375 0.5
vt 0.375 0.4375
vt 0.5 0.5625
vt 0.5625 0.5625
vt 0.625 0.5625
vt 0.4375 0.4375
vt 0.375 0.375
vt 0.5 0.5
vt 0.5625 0.5
vt 0.625 0.5
vt 0.4375 0.375
vt 0.375 0.3125
vt 0.5 0.4375
vt 0.5625 0.4375
vt 0.625 0.4375
vt 0.4375 0.3125
vt 0.375 0.25
vt 0.5 0.375
vt 0.5625 0.375
vt 0.625 0.375
vt 0.5 0.3125
vt 0.5625 0.3125
vt 0.625 0.3125
vt 0.4375 0.25
vt 0.5 0.25
vt 0.5625 0.25
vt 0.625 0.25
vt 0.375 0.1875
vt 0.4375 0.1875
vt 0.5 0.1875
vt 0.5625 0.1875
vt 0.3125 0.1875
vt 0.3125 0.25
vt 0.625 0.1875
vt 0.6875 0.25
vt 0.25 0.1875
vt 0.25 0.25
vt 0.6875 0.1875
vt 0.75 0.25
vt 0.1875 0.1875
vt 0.1875 0.25
vt 0.125 0.1875
vt 0.125 0.25
vt 0.125 0.125
vt 0.1875 0.125
vt 0.125 0.0625
vt 0.25 0.125
vt 0.1875 0.0625
vt 0.125 0
vt 0.1875 0
vt 0.25 0.0625
vt 0.25 0
vt 0.3125 0.125
vt 0.3125 0.0625
vt 0.3125 0
vt 0.375 0.125
vt 0.375 0.0625
vt 0.375 0
vt 0.4375 0.125
vt 0.4375 0.0625
vt 0.4375 0
vt 0.5 0.125
vt 0.5 0.0625
vt 0.5 0
vt 0.5625 0.125
vt 0.5625 0.0625
vt 0.5625 0
vt 0.625 0.125
vt 0.625 0.0625
vt 0.625 0
vt 0.6875 0.125
vt 0.6875 0.0625
vt 0.6875 0
vt 0.75 0.1875
vt 0.8125 0.25
vt 0.75 0.0625
vt 0.75 0
vt 0.75 0.125
vt 0.8125 0.1875
vt 0.875 0.25
vt 0.875 0.1875
vt 0.8125 0.125
vt 0.875 0.125
vt 0.8125 0.0625
vt 0.8125 0
vt 0.875 0.0625
vt 0.875 0
vn -0.6667067 -0.6663737 0.3338387
vn -0.5573093 -0.5566611 0.616064
vn -0.3218905 -0.6569943 0.681722
vn -0.3407723 -0.8737165 0.3471221
vn -0.7070742 -0.7071229 -0.004798567
vn -1.047593E-07 -0.699671 0.7144652
vn -0.3447037 -0.9387103 -0.001514423
vn -0.6676047 -0.6680349 -0.3286841
vn 0.0004246616 -0.9366079 0.3503791
vn 0.321987 -0.6677076 0.6711863
vn -0.328599 -0.8822365 -0.3371668
vn -0.5859854 -0.5867015 -0.5589299
vn 0.3290968 -0.8828058 0.3351853
vn 0.5872666 -0.5866849 0.5576009
vn 0.6683735 -0.6680481 0.3270911
vn 0 -0.9999994 -0.001143756
vn 0.3447043 -0.9387111 -0.0006446764
vn 0.7070834 -0.7071232 0.003147867
vn -0.3209579 -0.6671258 -0.6722569
vn -0.6665277 -0.3219383 -0.6723811
vn -0.0004239487 -0.9358319 -0.3524465
vn 0.3402418 -0.873149 -0.3490648
vn 0.665924 -0.6663621 -0.3354203
vn -0.3348092 -0.3359391 -0.8803679
vn -0.6984068 -0.0009034661 -0.7157004
vn -1.087236E-07 -0.69875 -0.715366
vn 0.3208511 -0.6564491 -0.6827364
vn 0.5559735 -0.5567581 -0.6171822
vn -0.3372178 -0.0007938294 -0.9414263
vn -0.6563362 0.3203743 -0.6830689
vn 0.000415991 -0.3382794 -0.9410456
vn 0.3231722 -0.3243122 -0.8890339
vn 0.6558245 -0.3218395 -0.6828716
vn -0.3234619 0.3223312 -0.8896488
vn -0.5566723 0.555923 -0.6173049
vn 1.795229E-07 -0.001293341 -0.9999992
vn 0.3372171 -0.001626316 -0.9414254
vn 0.698407 -0.000903615 -0.7157001
vn -0.3213652 0.6557901 -0.6831281
vn -0.6665434 0.6661671 -0.3345762
vn -0.0004162844 0.3361827 -0.9417967
vn 0.335126 0.3340074 -0.8809822
vn 0.6670436 0.320498 -0.6725577
vn -0.3406704 0.873403 -0.3480102
vn -0.7070722 0.7071247 0.004868189
vn 0 0.6981788 -0.7159234
vn 0.3214793 0.666525 -0.6726034
vn 0.5867257 0.5860528 -0.5588337
vn -0.3447019 0.9387108 0.001624802
vn -0.6675741 0.6680108 0.3287953
vn 0.0004245207 0.9362501 -0.351334
vn 0.3290064 0.882513 -0.3360439
vn 0.6682171 0.6678498 -0.3278148
vn -0.3285646 0.8821575 0.337407
vn -0.5861353 0.5868284 0.5586393
vn 0 0.9999992 0.001270201
vn 0.3447027 0.9387116 0.00075333
vn 0.7070822 0.7071247 -0.003091073
vn -0.0004238926 0.9357291 0.3527191
vn 0.3402038 0.8730657 0.3493102
vn 0.6658922 0.6663368 0.3355337
vn -0.3210974 0.6673831 0.6719347
vn 0 0.6990809 0.7150425
vn 0.3209944 0.6567092 0.682419
vn 0.5561441 0.5569037 0.6168972
vn -0.6670449 0.3221295 0.6717765
vn -0.3354187 0.3364447 0.8799428
vn 0.0004168814 0.3389134 0.9408175
vn 0.3237712 0.3248062 0.8886356
vn -0.8821881 0.3291666 0.3367396
vn -0.6675741 0.6680108 0.3287953
vn 0.6563487 0.322037 0.6822745
vn 0.6658922 0.6663368 0.3355337
vn -0.9386965 0.3447436 0.0008627119
vn -0.7070722 0.7071247 0.004868189
vn 0.8730786 0.3408276 0.3486693
vn 0.7070822 0.7071247 -0.003091073
vn -0.8734511 0.340129 -0.3484185
vn -0.6665434 0.6661671 -0.3345762
vn -0.6563362 0.3203743 -0.6830689
vn -0.5566723 0.555923 -0.6173049
vn -0.6984068 -0.0009034661 -0.7157004
vn -0.9359982 -0.0008564137 -0.3520037
vn -0.6665277 -0.3219383 -0.6723811
vn -1 -1.106793E-07 -1.885073E-07
vn -0.8821368 -0.329156 -0.3368844
vn -0.5859854 -0.5867015 -0.5589299
vn -0.6676047 -0.6680349 -0.3286841
vn -0.9386969 -0.3447427 -0.0008461296
vn -0.7070742 -0.7071229 -0.004798567
vn -0.9361603 0.0008312472 0.3515728
vn -0.8736544 -0.3402446 0.3477953
vn -0.6667067 -0.6663737 0.3338387
vn -0.6993268 0.0008086795 0.7148017
vn -0.6572519 -0.3209309 0.681926
vn -0.5573093 -0.5566611 0.616064
vn -0.3382028 0.0006339967 0.941073
vn -0.3244138 -0.323456 0.8888937
vn -0.3218905 -0.6569943 0.681722
vn 0 0.001112794 0.9999994
vn -0.0004180488 -0.3375733 0.9412992
vn -1.047593E-07 -0.699671 0.7144652
vn 0.3382023 0.001469017 0.9410723
vn 0.3360911 -0.3351437 0.8801826
vn 0.321987 -0.6677076 0.6711863
vn 0.6993265 0.0008086371 0.7148019
vn 0.667945 -0.3210387 0.6714041
vn 0.5872666 -0.5866849 0.5576009
vn 0.9361607 -1.783431E-05 0.3515724
vn 0.8827305 -0.3285889 0.3358813
vn 0.6683735 -0.6680481 0.3270911
vn 0.9386973 0.3447424 -8.106001E-06
vn 0.6682171 0.6678498 -0.3278148
vn 0.9386975 -0.344742 2.468845E-05
vn 0.7070834 -0.7071232 0.003147867
vn 1 -1.875449E-07 1.919115E-07
vn 0.8825392 0.3284823 -0.3364877
vn 0.5867257 0.5860528 -0.5588337
vn 0.6670436 0.320498 -0.6725577
vn 0.935999 -8.084035E-06 -0.3520026
vn 0.698407 -0.000903615 -0.7157001
vn 0.8730243 -0.3408153 -0.3488171
vn 0.665924 -0.6663621 -0.3354203
vn 0.6558245 -0.3218395 -0.6828716
vn 0.5559735 -0.5567581 -0.6171822
g Nose_round_0
f 3/3/3 2/2/2 1/1/1
f 4/4/4 3/3/3 1/1/1
f 4/4/4 1/1/1 5/5/5
f 6/6/6 3/3/3 4/4/4
f 7/7/7 4/4/4 5/5/5
f 7/7/7 5/5/5 8/8/8
f 9/9/9 6/6/6 4/4/4
f 9/9/9 4/4/4 7/7/7
f 10/10/10 6/6/6 9/9/9
f 11/11/11 7/7/7 8/8/8
f 11/11/11 8/8/8 12/12/12
f 13/13/13 10/10/10 9/9/9
f 14/14/14 10/10/10 13/13/13
f 15/15/15 14/14/14 13/13/13
f 16/16/16 9/9/9 7/7/7
f 13/13/13 9/9/9 16/16/16
f 16/16/16 7/7/7 11/11/11
f 15/15/15 13/13/13 17/17/17
f 17/17/17 13/13/13 16/16/16
f 18/18/18 15/15/15 17/17/17
f 19/19/19 11/11/11 12/12/12
f 19/19/19 12/12/12 20/20/20
f 21/21/21 16/16/16 11/11/11
f 17/17/17 16/16/16 21/21/21
f 21/21/21 11/11/11 19/19/19
f 18/18/18 17/17/17 22/22/22
f 22/22/22 17/17/17 21/21/21
f 23/23/23 18/18/18 22/22/22
f 24/24/24 19/19/19 20/20/20
f 24/24/24 20/20/20 25/25/25
f 26/26/26 21/21/21 19/19/19
f 22/22/22 21/21/21 26/26/26
f 26/26/26 19/19/19 24/24/24
f 23/23/23 22/22/22 27/27/27
f 27/27/27 22/22/22 26/26/26
f 28/28/28 23/23/23 27/27/27
f 29/29/29 24/24/24 25/25/25
f 29/29/29 25/25/25 30/30/30
f 31/31/31 26/26/26 24/24/24
f 27/27/27 26/26/26 31/31/31
f 31/31/31 24/24/24 29/29/29
f 28/28/28 27/27/27 32/32/32
f 32/32/32 27/27/27 31/31/31
f 33/33/33 28/28/28 32/32/32
f 34/34/34 29/29/29 30/30/30
f 34/34/34 30/30/30 35/35/35
f 36/36/36 31/31/31 29/29/29
f 32/32/32 31/31/31 36/36/36
f 36/36/36 29/29/29 34/34/34
f 33/33/33 32/32/32 37/37/37
f 37/37/37 32/32/32 36/36/36
f 38/38/38 33/33/33 37/37/37
f 39/39/39 34/34/34 35/35/35
f 39/39/39 35/35/35 40/40/40
f 41/41/41 36/36/36 34/34/34
f 37/37/37 36/36/36 41/41/41
f 41/41/41 34/34/34 39/39/39
f 38/38/38 37/37/37 42/42/42
f 42/42/42 37/37/37 41/41/41
f 43/43/43 38/38/38 42/42/42
f 44/44/44 39/39/39 40/40/40
f 44/44/44 40/40/40 45/45/45
f 46/46/46 41/41/41 39/39/39
f 42/42/42 41/41/41 46/46/46
f 46/46/46 39/39/39 44/44/44
f 43/43/43 42/42/42 47/47/47
f 47/47/47 42/42/42 46/46/46
f 48/48/48 43/43/43 47/47/47
f 49/49/49 44/44/44 45/45/45
f 49/49/49 45/45/45 50/50/50
f 51/51/51 46/46/46 44/44/44
f 47/47/47 46/46/46 51/51/51
f 51/51/51 44/44/44 49/49/49
f 48/48/48 47/47/47 52/52/52
f 52/52/52 47/47/47 51/51/51
f 53/53/53 48/48/48 52/52/52
f 54/54/54 49/49/49 50/50/50
f 54/54/54 50/50/50 55/55/55
f 56/56/56 51/51/51 49/49/49
f 52/52/52 51/51/51 56/56/56
f 56/56/56 49/49/49 54/54/54
f 53/53/53 52/52/52 57/57/57
f 57/57/57 52/52/52 56/56/56
f 58/58/58 53/53/53 57/57/57
f 59/59/59 56/56/56 54/54/54
f 57/57/57 56/56/56 59/59/59
f 58/58/58 57/57/57 60/60/60
f 60/60/60 57/57/57 59/59/59
f 61/61/61 58/58/58 60/60/60
f 59/59/59 54/54/54 62/62/62
f 62/62/62 54/54/54 55/55/55
f 60/60/60 59/59/59 63/63/63
f 63/63/63 59/59/59 62/62/62
f 61/61/61 60/60/60 64/64/64
f 64/64/64 60/60/60 63/63/63
f 65/65/65 61/61/61 64/64/64
f 62/62/62 55/55/55 66/66/66
f 63/63/63 62/62/62 67/67/67
f 67/67/67 62/62/62 66/66/66
f 64/64/64 63/63/63 68/68/68
f 68/68/68 63/63/63 67/67/67
f 65/65/65 64/64/64 69/69/69
f 69/69/69 64/64/64 68/68/68
f 66/66/66 55/55/55 70/70/70
f 55/55/55 71/71/71 70/70/70
f 72/72/72 65/65/65 69/69/69
f 73/73/73 65/65/65 72/72/72
f 70/70/70 71/71/71 74/74/74
f 71/71/71 75/75/75 74/74/74
f 76/76/76 73/73/73 72/72/72
f 77/77/77 73/73/73 76/76/76
f 74/74/74 75/75/75 78/78/78
f 75/75/75 79/79/79 78/78/78
f 78/78/78 79/79/79 80/80/80
f 79/79/79 81/81/81 80/80/80
f 78/78/78 80/80/80 82/82/82
f 83/83/83 78/78/78 82/82/82
f 74/74/74 78/78/78 83/83/83
f 83/83/83 82/82/82 84/84/84
f 70/70/70 74/74/74 85/85/85
f 85/85/85 74/74/74 83/83/83
f 86/86/86 83/83/83 84/84/84
f 85/85/85 83/83/83 86/86/86
f 86/86/86 84/84/84 87/87/87
f 88/88/88 86/86/86 87/87/87
f 89/89/89 86/86/86 88/88/88
f 89/89/89 85/85/85 86/86/86
f 90/90/90 89/89/89 88/88/88
f 91/91/91 70/70/70 85/85/85
f 91/91/91 85/85/85 89/89/89
f 66/66/66 70/70/70 91/91/91
f 92/92/92 89/89/89 90/90/90
f 92/92/92 91/91/91 89/89/89
f 93/93/93 92/92/92 90/90/90
f 94/94/94 66/66/66 91/91/91
f 94/94/94 91/91/91 92/92/92
f 67/67/67 66/66/66 94/94/94
f 95/95/95 92/92/92 93/93/93
f 95/95/95 94/94/94 92/92/92
f 96/96/96 95/95/95 93/93/93
f 97/97/97 67/67/67 94/94/94
f 97/97/97 94/94/94 95/95/95
f 68/68/68 67/67/67 97/97/97
f 98/98/98 95/95/95 96/96/96
f 98/98/98 97/97/97 95/95/95
f 99/99/99 98/98/98 96/96/96
f 100/100/100 68/68/68 97/97/97
f 100/100/100 97/97/97 98/98/98
f 69/69/69 68/68/68 100/100/100
f 101/101/101 98/98/98 99/99/99
f 101/101/101 100/100/100 98/98/98
f 102/102/102 101/101/101 99/99/99
f 103/103/103 69/69/69 100/100/100
f 103/103/103 100/100/100 101/101/101
f 72/72/72 69/69/69 103/103/103
f 104/104/104 101/101/101 102/102/102
f 104/104/104 103/103/103 101/101/101
f 105/105/105 104/104/104 102/102/102
f 106/106/106 72/72/72 103/103/103
f 106/106/106 103/103/103 104/104/104
f 76/76/76 72/72/72 106/106/106
f 107/107/107 104/104/104 105/105/105
f 107/107/107 106/106/106 104/104/104
f 108/108/108 107/107/107 105/105/105
f 109/109/109 76/76/76 106/106/106
f 109/109/109 106/106/106 107/107/107
f 110/110/110 107/107/107 108/108/108
f 110/110/110 109/109/109 107/107/107
f 111/111/111 110/110/110 108/108/108
f 112/112/112 76/76/76 109/109/109
f 112/112/112 77/77/77 76/76/76
f 113/113/113 77/77/77 112/112/112
f 114/114/114 110/110/110 111/111/111
f 115/115/115 114/114/114 111/111/111
f 116/116/116 109/109/109 110/110/110
f 116/116/116 112/112/112 109/109/109
f 114/114/114 116/116/116 110/110/110
f 117/117/117 113/113/113 112/112/112
f 117/117/117 112/112/112 116/116/116
f 118/118/118 113/113/113 117/117/117
f 119/119/119 118/118/118 117/117/117
f 120/120/120 117/117/117 116/116/116
f 119/119/119 117/117/117 120/120/120
f 120/120/120 116/116/116 114/114/114
f 121/121/121 119/119/119 120/120/120
f 122/122/122 114/114/114 115/115/115
f 122/122/122 120/120/120 114/114/114
f 121/121/121 120/120/120 122/122/122
f 123/123/123 122/122/122 115/115/115
f 124/124/124 121/121/121 122/122/122
f 124/124/124 122/122/122 123/123/123
f 125/125/125 124/124/124 123/123/123
