g Nose_Clown
v 0.01442963 0.05809107 0.04382372
v -3.226785E-07 0.05671027 0.05586464
v -3.329526E-07 0.0616906 0.04403848
v 0.0130384 0.05418348 0.05463084
v 0.02127869 0.04932568 0.05225519
v 0.01056693 0.04843421 0.06120473
v 0.01830927 0.0456542 0.05856926
v 0.02102026 0.03724248 0.06028021
v 0.02275643 0.05171039 0.04342123
v 0.02867262 0.04287238 0.04281334
v 0.02162792 0.05147425 0.03442454
v 0.02591283 0.04039393 0.05358729
v 0.02815709 0.02658314 0.05342196
v 0.01329732 0.05688102 0.03270462
v -3.419549E-07 0.05970089 0.031795
v 0.01091838 0.05275876 0.0255235
v -3.329526E-07 0.0616906 0.04403848
v -0.01443029 0.05809104 0.04382368
v 0.0188393 0.04933645 0.02774789
v 0.02174211 0.04131787 0.02491681
v 0.02644751 0.04290841 0.03189542
v 0.02881372 0.02909913 0.02990643
v 0.03181012 0.02771432 0.04161174
v 0.02818762 0.01263701 0.04016522
v -3.465899E-07 0.05431386 0.02450821
v -3.489708E-07 0.04617297 0.01910214
v 0.01339336 0.04450107 0.0211009
v 0.01462864 0.03079363 0.01829311
v 0.0229746 0.0300431 0.02314883
v 0.02149807 0.01847726 0.02333951
v 0.02605928 0.01507051 0.02973895
v 0.02108116 0.006032208 0.03064681
v -0.01091907 0.05275873 0.02552347
v -0.01329799 0.05688098 0.03270459
v -0.01443029 0.05809104 0.04382368
v -3.329526E-07 0.0616906 0.04403848
v -0.01339405 0.04450103 0.02110086
v -0.01462932 0.03079359 0.01829306
v -3.462639E-07 0.03124322 0.01555927
v -3.339334E-07 0.01542357 0.0172344
v -0.01321931 0.01646138 0.01931395
v -0.01066006 0.007011639 0.02216841
v 0.01321865 0.01646141 0.019314
v 0.01065943 0.007011661 0.02216845
v -3.191148E-07 0.00573652 0.02096268
v -3.033138E-07 -0.001514112 0.02655149
v -0.0128741 0.001078387 0.02798279
v -0.01390414 -0.002492941 0.03806562
v -2.882877E-07 -0.006068156 0.03744282
v 0.01390356 -0.002492921 0.03806566
v -2.846666E-07 -0.003252162 0.04977137
v -0.01390414 -0.002492941 0.03806562
v 0.018453 0.009813289 0.02480876
v 0.01287349 0.001078411 0.02798283
v 0.02212443 0.003853536 0.03905113
v 0.02072241 0.004548681 0.0479436
v 0.01261201 -0.0005920459 0.04916523
v 0.01029297 0.003981865 0.05673007
v 0.02550926 0.01303903 0.05100448
v 0.02075458 0.01503052 0.05811229
v 0.01790119 0.00709383 0.05477478
v 0.02214461 0.0260208 0.06033099
v 0.01395761 0.02565223 0.06532988
v 0.01265403 0.01229206 0.06181239
v -2.910748E-07 0.01088031 0.06373239
v -2.868739E-07 0.002579948 0.05760832
v -0.01029355 0.003981852 0.05673004
v 0.01285211 0.03941046 0.06451233
v -3.082261E-07 0.04054113 0.06671779
v -0.01261258 -0.0005920624 0.04916519
v -0.02072299 0.00454865 0.04794354
v -2.987421E-07 0.02545676 0.06815385
v -0.01395821 0.02565221 0.06532984
v -3.15372E-07 0.04969325 0.06239884
v -0.01056756 0.04843419 0.06120471
v -0.01265462 0.01229205 0.06181236
v -0.02075517 0.01503049 0.05811223
v -0.01790177 0.007093803 0.05477473
v -0.01285273 0.03941043 0.0645123
v -0.02102088 0.03724245 0.06028016
v -0.01303905 0.05418345 0.05463081
v -0.02127932 0.04932564 0.05225514
v -0.01830989 0.04565417 0.05856922
v -0.02214521 0.02602076 0.06033093
v -0.0281577 0.02658309 0.05342187
v -0.02550984 0.01303899 0.05100441
v -0.02818822 0.01263696 0.04016513
v -0.02591345 0.04039388 0.05358722
v -0.02867326 0.04287231 0.04281327
v -0.02275708 0.05171034 0.04342117
v -0.02162858 0.0514742 0.03442448
v -0.01329799 0.05688098 0.03270459
v -0.01091907 0.05275873 0.02552347
v -0.02212502 0.003853499 0.03905106
v -0.02108177 0.006032171 0.03064674
v -0.0128741 0.001078387 0.02798279
v -0.01066006 0.007011639 0.02216841
v -0.03181073 0.02771426 0.04161165
v -0.02881436 0.02909906 0.02990635
v -0.02644816 0.04290835 0.03189534
v -0.02174278 0.04131782 0.02491674
v -0.01883997 0.04933641 0.02774784
v -0.01339405 0.04450103 0.02110086
v -0.01462932 0.03079359 0.01829306
v -0.02297526 0.03004304 0.02314875
v -0.02149872 0.01847721 0.02333944
v -0.01321931 0.01646138 0.01931395
v -0.0260599 0.01507046 0.02973887
v -0.01845363 0.009813252 0.0248087
vt 0.75 0.8524164
vt 0.5 0.8524164
vt 0.5 1
vt 0.625 0.8040867
vt 0.6762082 0.7322795
vt 0.5737918 0.7322795
vt 0.625 0.6959133
vt 0.625 0.6081734
vt 0.75 0.7500001
vt 0.75 0.6475837
vt 0.8237918 0.7322795
vt 0.6762082 0.6338602
vt 0.6762082 0.5
vt 0.875 0.8040867
vt 1 0.8524164
vt 0.9262082 0.7322795
vt 0.5 1
vt 0.25 0.8524164
vt 0.875 0.6959133
vt 0.875 0.6081734
vt 0.8237918 0.6338602
vt 0.8237918 0.5
vt 0.75 0.5
vt 0.75 0.3524163
vt 1 0.7500001
vt 1 0.6475837
vt 0.9262082 0.6338602
vt 0.9262082 0.5
vt 0.875 0.5
vt 0.875 0.3918266
vt 0.8237918 0.3661398
vt 0.8237918 0.2677205
vt 1.073792 0.7322795
vt 1.125 0.8040867
vt 1.25 0.8524164
vt 0.5 1
vt 1.073792 0.6338602
vt 1.073792 0.5
vt 1 0.5
vt 1 0.3524163
vt 1.073792 0.3661398
vt 1.073792 0.2677205
vt 0.9262082 0.3661398
vt 0.9262082 0.2677205
vt 1 0.25
vt 1 0.1475836
vt 1.125 0.1959133
vt 1.25 0.1475836
vt 0.5 4.806346E-08
vt 0.75 0.1475836
vt 0.5 0.1475836
vt 0.25 0.1475836
vt 0.875 0.3040867
vt 0.875 0.1959133
vt 0.75 0.25
vt 0.6762082 0.2677205
vt 0.625 0.1959133
vt 0.5737918 0.2677205
vt 0.6762082 0.3661398
vt 0.625 0.3918266
vt 0.625 0.3040867
vt 0.625 0.5
vt 0.5737918 0.5
vt 0.5737918 0.3661398
vt 0.5 0.3524163
vt 0.5 0.25
vt 0.4262082 0.2677205
vt 0.5737918 0.6338602
vt 0.5 0.6475837
vt 0.375 0.1959133
vt 0.3237918 0.2677205
vt 0.5 0.5
vt 0.4262082 0.5
vt 0.5 0.7500001
vt 0.4262082 0.7322795
vt 0.4262082 0.3661398
vt 0.375 0.3918266
vt 0.375 0.3040867
vt 0.4262082 0.6338602
vt 0.375 0.6081734
vt 0.375 0.8040867
vt 0.3237918 0.7322795
vt 0.375 0.6959133
vt 0.375 0.5
vt 0.3237918 0.5
vt 0.3237918 0.3661398
vt 0.25 0.3524163
vt 0.3237918 0.6338602
vt 0.25 0.6475837
vt 0.25 0.7500001
vt 0.1762082 0.7322795
vt 0.125 0.8040867
vt 0.07379179 0.7322795
vt 0.25 0.25
vt 0.1762082 0.2677205
vt 0.125 0.1959133
vt 0.07379179 0.2677205
vt 0.25 0.5
vt 0.1762082 0.5
vt 0.1762082 0.6338602
vt 0.125 0.6081734
vt 0.125 0.6959133
vt 0.07379179 0.6338602
vt 0.07379179 0.5
vt 0.125 0.5
vt 0.125 0.3918266
vt 0.07379179 0.3661398
vt 0.1762082 0.3661398
vt 0.125 0.3040867
vn 0.3573685 0.9339628 0.001137403
vn 0 0.9309735 0.3650869
vn 0 0.9999993 0.001225337
vn 0.3522329 0.8634557 0.3610764
vn 0.6731231 0.67351 0.3054335
vn 0.295563 0.6683223 0.6826329
vn 0.572767 0.573446 0.5857453
vn 0.668097 0.2965616 0.6824206
vn 0.7070839 0.7071291 0.0008513029
vn 0.9339481 0.3574083 0.0004226993
vn 0.6736749 0.6733469 -0.304575
vn 0.8634702 0.3528468 0.360442
vn 0.9314589 0.0003872846 0.3638464
vn 0.3526662 0.8636637 -0.3601552
vn 0 0.9313557 -0.3641105
vn 0.2957408 0.6671093 -0.6837416
vn 0 0.9999993 0.001225337
vn -0.3573685 0.9339628 0.001137255
vn 0.5731015 0.5724058 -0.5864352
vn 0.6676531 0.2947823 -0.6836247
vn 0.8637494 0.3521276 -0.3604765
vn 0.9311729 -0.0004312483 -0.3645774
vn 1 0 2.089025E-07
vn 0.9339486 -0.3574071 -0.0003897451
vn 0 0.6982812 -0.7158236
vn 0 0.348708 -0.9372315
vn 0.3471975 0.3461041 -0.8715882
vn 0.3498046 -0.00118525 -0.9368221
vn 0.6986454 -0.0008790002 -0.7154676
vn 0.6673595 -0.296317 -0.6832477
vn 0.8634002 -0.3528295 -0.3606264
vn 0.6731955 -0.6735667 -0.3051488
vn -0.2957408 0.6671093 -0.6837416
vn -0.3526661 0.8636637 -0.3601553
vn -0.3573685 0.9339628 0.001137255
vn 0 0.9999993 0.001225337
vn -0.3471973 0.3461041 -0.8715882
vn -0.3498045 -0.00118524 -0.9368221
vn 0 -0.00128746 -0.9999992
vn 0 -0.3509438 -0.9363965
vn -0.3470379 -0.348114 -0.870851
vn -0.2954297 -0.6680545 -0.6829527
vn 0.347038 -0.3481141 -0.8708509
vn 0.2954299 -0.6680546 -0.6829527
vn 0 -0.6992605 -0.714867
vn 0 -0.9311763 -0.3645693
vn -0.3523063 -0.8636094 -0.3606369
vn -0.3573715 -0.9339618 -0.0009541994
vn 0 -0.9999995 -0.001001304
vn 0.3573716 -0.9339617 -0.0009539599
vn 0 -0.9319851 0.3624966
vn -0.3573715 -0.9339618 -0.0009541994
vn 0.5725966 -0.5733008 -0.586054
vn 0.3523062 -0.8636095 -0.3606367
vn 0.7070865 -0.7071266 -0.0007450713
vn 0.6738826 -0.6736147 0.3035217
vn 0.3528495 -0.8641998 0.3586867
vn 0.2964754 -0.6689669 0.6816052
vn 0.8641138 -0.352341 0.3593925
vn 0.6690459 -0.2955605 0.6819249
vn 0.5740076 -0.5734597 0.5845162
vn 0.699972 0.0007418193 0.7141697
vn 0.3512684 0.0009568564 0.9362742
vn 0.3486474 -0.3478055 0.8703312
vn 0 -0.350862 0.9364271
vn 0 -0.7005206 0.713632
vn -0.2964754 -0.6689669 0.6816053
vn 0.347818 0.3487644 0.8702793
vn 0 0.3517981 0.9360758
vn -0.3528495 -0.8641998 0.3586867
vn -0.6738827 -0.6736148 0.3035215
vn 0 0.001013195 0.9999995
vn -0.3512686 0.0009569108 0.9362742
vn 0 0.6995826 0.7145518
vn -0.295563 0.6683223 0.682633
vn -0.3486476 -0.3478054 0.8703311
vn -0.669046 -0.2955604 0.6819248
vn -0.5740077 -0.5734594 0.5845163
vn -0.3478181 0.3487646 0.8702792
vn -0.668097 0.2965618 0.6824204
vn -0.3522329 0.8634559 0.3610761
vn -0.6731229 0.6735103 0.3054331
vn -0.572767 0.5734459 0.5857455
vn -0.6999722 0.0007419206 0.7141697
vn -0.931459 0.0003873943 0.3638459
vn -0.8641141 -0.3523408 0.3593923
vn -0.9339486 -0.3574071 -0.00039027
vn -0.8634702 0.352847 0.3604417
vn -0.933948 0.3574087 0.0004222069
vn -0.7070839 0.7071292 0.0008507501
vn -0.6736749 0.6733468 -0.3045752
vn -0.3526661 0.8636637 -0.3601553
vn -0.2957408 0.6671093 -0.6837416
vn -0.7070864 -0.7071267 -0.000745569
vn -0.6731954 -0.6735665 -0.3051493
vn -0.3523063 -0.8636094 -0.3606369
vn -0.2954297 -0.6680545 -0.6829527
vn -1 1.240746E-07 -3.222631E-07
vn -0.9311728 -0.00043115 -0.3645778
vn -0.8637492 0.3521275 -0.3604768
vn -0.667653 0.2947822 -0.6836249
vn -0.5731016 0.5724058 -0.5864352
vn -0.3471973 0.3461041 -0.8715882
vn -0.3498045 -0.00118524 -0.9368221
vn -0.6986452 -0.0008788592 -0.7154679
vn -0.6673593 -0.2963169 -0.683248
vn -0.3470379 -0.348114 -0.870851
vn -0.8634 -0.3528296 -0.3606267
vn -0.5725965 -0.5733008 -0.5860541
g Nose_Clown_0
f 3/3/3 2/2/2 1/1/1
f 2/2/2 4/4/4 1/1/1
f 1/1/1 4/4/4 5/5/5
f 6/6/6 4/4/4 2/2/2
f 5/5/5 4/4/4 6/6/6
f 7/7/7 5/5/5 6/6/6
f 7/7/7 6/6/6 8/8/8
f 7/7/7 8/8/8 5/5/5
f 9/9/9 1/1/1 5/5/5
f 9/9/9 5/5/5 10/10/10
f 9/9/9 11/11/11 1/1/1
f 9/9/9 10/10/10 11/11/11
f 8/8/8 12/12/12 5/5/5
f 5/5/5 12/12/12 10/10/10
f 13/13/13 12/12/12 8/8/8
f 10/10/10 12/12/12 13/13/13
f 11/11/11 14/14/14 1/1/1
f 1/1/1 14/14/14 15/15/15
f 16/16/16 14/14/14 11/11/11
f 15/15/15 14/14/14 16/16/16
f 17/17/17 1/1/1 15/15/15
f 17/17/17 18/18/18 2/2/2
f 19/19/19 16/16/16 11/11/11
f 19/19/19 11/11/11 20/20/20
f 19/19/19 20/20/20 16/16/16
f 10/10/10 21/21/21 11/11/11
f 11/11/11 21/21/21 20/20/20
f 22/22/22 21/21/21 10/10/10
f 20/20/20 21/21/21 22/22/22
f 23/23/23 10/10/10 13/13/13
f 23/23/23 22/22/22 10/10/10
f 23/23/23 13/13/13 24/24/24
f 23/23/23 24/24/24 22/22/22
f 25/25/25 15/15/15 16/16/16
f 25/25/25 16/16/16 26/26/26
f 20/20/20 27/27/27 16/16/16
f 16/16/16 27/27/27 26/26/26
f 28/28/28 27/27/27 20/20/20
f 26/26/26 27/27/27 28/28/28
f 29/29/29 20/20/20 22/22/22
f 29/29/29 28/28/28 20/20/20
f 29/29/29 22/22/22 30/30/30
f 29/29/29 30/30/30 28/28/28
f 24/24/24 31/31/31 22/22/22
f 22/22/22 31/31/31 30/30/30
f 32/32/32 31/31/31 24/24/24
f 30/30/30 31/31/31 32/32/32
f 25/25/25 33/33/33 15/15/15
f 25/25/25 26/26/26 33/33/33
f 33/33/33 34/34/34 15/15/15
f 15/15/15 34/34/34 35/35/35
f 36/36/36 15/15/15 35/35/35
f 26/26/26 37/37/37 33/33/33
f 38/38/38 37/37/37 26/26/26
f 39/39/39 38/38/38 26/26/26
f 39/39/39 40/40/40 38/38/38
f 39/39/39 26/26/26 28/28/28
f 39/39/39 28/28/28 40/40/40
f 40/40/40 41/41/41 38/38/38
f 42/42/42 41/41/41 40/40/40
f 30/30/30 43/43/43 28/28/28
f 28/28/28 43/43/43 40/40/40
f 44/44/44 43/43/43 30/30/30
f 40/40/40 43/43/43 44/44/44
f 45/45/45 42/42/42 40/40/40
f 45/45/45 40/40/40 44/44/44
f 45/45/45 46/46/46 42/42/42
f 45/45/45 44/44/44 46/46/46
f 46/46/46 47/47/47 42/42/42
f 48/48/48 47/47/47 46/46/46
f 49/49/49 48/48/48 46/46/46
f 49/49/49 46/46/46 50/50/50
f 49/49/49 50/50/50 51/51/51
f 49/49/49 51/51/51 52/52/52
f 53/53/53 44/44/44 30/30/30
f 53/53/53 30/30/30 32/32/32
f 53/53/53 32/32/32 44/44/44
f 44/44/44 54/54/54 46/46/46
f 46/46/46 54/54/54 50/50/50
f 32/32/32 54/54/54 44/44/44
f 50/50/50 54/54/54 32/32/32
f 55/55/55 50/50/50 32/32/32
f 55/55/55 56/56/56 50/50/50
f 55/55/55 32/32/32 24/24/24
f 55/55/55 24/24/24 56/56/56
f 50/50/50 57/57/57 51/51/51
f 56/56/56 57/57/57 50/50/50
f 51/51/51 57/57/57 58/58/58
f 58/58/58 57/57/57 56/56/56
f 24/24/24 59/59/59 56/56/56
f 56/56/56 59/59/59 60/60/60
f 13/13/13 59/59/59 24/24/24
f 60/60/60 59/59/59 13/13/13
f 61/61/61 58/58/58 56/56/56
f 61/61/61 56/56/56 60/60/60
f 61/61/61 60/60/60 58/58/58
f 62/62/62 60/60/60 13/13/13
f 62/62/62 63/63/63 60/60/60
f 62/62/62 13/13/13 8/8/8
f 62/62/62 8/8/8 63/63/63
f 60/60/60 64/64/64 58/58/58
f 63/63/63 64/64/64 60/60/60
f 58/58/58 64/64/64 65/65/65
f 65/65/65 64/64/64 63/63/63
f 66/66/66 51/51/51 58/58/58
f 66/66/66 58/58/58 65/65/65
f 66/66/66 67/67/67 51/51/51
f 66/66/66 65/65/65 67/67/67
f 8/8/8 68/68/68 63/63/63
f 63/63/63 68/68/68 69/69/69
f 6/6/6 68/68/68 8/8/8
f 69/69/69 68/68/68 6/6/6
f 67/67/67 70/70/70 51/51/51
f 71/71/71 70/70/70 67/67/67
f 51/51/51 70/70/70 52/52/52
f 52/52/52 70/70/70 71/71/71
f 72/72/72 65/65/65 63/63/63
f 72/72/72 63/63/63 69/69/69
f 72/72/72 73/73/73 65/65/65
f 72/72/72 69/69/69 73/73/73
f 74/74/74 69/69/69 6/6/6
f 74/74/74 75/75/75 69/69/69
f 74/74/74 6/6/6 2/2/2
f 74/74/74 2/2/2 75/75/75
f 65/65/65 76/76/76 67/67/67
f 73/73/73 76/76/76 65/65/65
f 67/67/67 76/76/76 77/77/77
f 77/77/77 76/76/76 73/73/73
f 78/78/78 71/71/71 67/67/67
f 78/78/78 67/67/67 77/77/77
f 78/78/78 77/77/77 71/71/71
f 69/69/69 79/79/79 73/73/73
f 75/75/75 79/79/79 69/69/69
f 73/73/73 79/79/79 80/80/80
f 80/80/80 79/79/79 75/75/75
f 2/2/2 81/81/81 75/75/75
f 75/75/75 81/81/81 82/82/82
f 18/18/18 81/81/81 2/2/2
f 82/82/82 81/81/81 18/18/18
f 83/83/83 80/80/80 75/75/75
f 83/83/83 75/75/75 82/82/82
f 83/83/83 82/82/82 80/80/80
f 84/84/84 77/77/77 73/73/73
f 84/84/84 73/73/73 80/80/80
f 84/84/84 85/85/85 77/77/77
f 84/84/84 80/80/80 85/85/85
f 77/77/77 86/86/86 71/71/71
f 85/85/85 86/86/86 77/77/77
f 71/71/71 86/86/86 87/87/87
f 87/87/87 86/86/86 85/85/85
f 82/82/82 88/88/88 80/80/80
f 80/80/80 88/88/88 85/85/85
f 89/89/89 88/88/88 82/82/82
f 85/85/85 88/88/88 89/89/89
f 90/90/90 82/82/82 18/18/18
f 90/90/90 89/89/89 82/82/82
f 90/90/90 18/18/18 91/91/91
f 90/90/90 91/91/91 89/89/89
f 18/18/18 92/92/92 91/91/91
f 91/91/91 92/92/92 93/93/93
f 94/94/94 71/71/71 87/87/87
f 94/94/94 87/87/87 95/95/95
f 94/94/94 52/52/52 71/71/71
f 94/94/94 95/95/95 52/52/52
f 95/95/95 96/96/96 52/52/52
f 97/97/97 96/96/96 95/95/95
f 98/98/98 85/85/85 89/89/89
f 98/98/98 87/87/87 85/85/85
f 98/98/98 89/89/89 99/99/99
f 98/98/98 99/99/99 87/87/87
f 91/91/91 100/100/100 89/89/89
f 89/89/89 100/100/100 99/99/99
f 101/101/101 100/100/100 91/91/91
f 99/99/99 100/100/100 101/101/101
f 102/102/102 91/91/91 93/93/93
f 102/102/102 101/101/101 91/91/91
f 102/102/102 93/93/93 101/101/101
f 93/93/93 103/103/103 101/101/101
f 101/101/101 103/103/103 104/104/104
f 105/105/105 101/101/101 104/104/104
f 105/105/105 99/99/99 101/101/101
f 105/105/105 104/104/104 106/106/106
f 105/105/105 106/106/106 99/99/99
f 104/104/104 107/107/107 106/106/106
f 106/106/106 107/107/107 97/97/97
f 99/99/99 108/108/108 87/87/87
f 106/106/106 108/108/108 99/99/99
f 87/87/87 108/108/108 95/95/95
f 95/95/95 108/108/108 106/106/106
f 109/109/109 106/106/106 97/97/97
f 109/109/109 97/97/97 95/95/95
f 109/109/109 95/95/95 106/106/106
