g Nose_Clown
v -0.1831644 -1.260216E-07 -0.3663289
v -0.1672055 0.1672057 -0.3344109
v -0.2730454 0.1365233 -0.2730454
v -0.1365227 0.2730452 -0.2730454
v -0.2364643 0.2364638 -0.2364643
v -0.2730454 0.2730452 -0.1365228
v -0.1672055 0.3344115 -0.1672055
v -0.1831644 0.3663283 5.255278E-09
v -0.2896084 -1.260216E-07 -0.2896084
v -0.2730454 -0.1365236 -0.2730454
v -0.3663289 -1.260216E-07 -0.1831645
v -0.1672055 -0.1672059 -0.3344109
v -0.1365227 -0.2730439 -0.2730454
v -0.334411 0.1672057 -0.1672055
v -0.3663289 0.1831648 5.255278E-09
v -0.2896084 0.2896086 5.255278E-09
v -0.2730454 0.2730452 0.1365227
v -0.2364643 -0.236464 -0.2364643
v -0.2730454 -0.2730439 -0.1365228
v -0.1672055 -0.3344117 -0.1672055
v -0.1831644 -0.3663285 5.255278E-09
v -0.334411 -0.1672059 -0.1672055
v -0.3663289 -0.1831636 5.255278E-09
v -0.4095681 -1.260216E-07 5.255278E-09
v -0.3663289 -1.260216E-07 0.1831644
v -0.334411 0.1672057 0.1672055
v -0.2730454 0.1365233 0.2730453
v -0.2896084 -0.2896089 5.255278E-09
v -0.2730454 -0.2730439 0.1365227
v -0.334411 -0.1672059 0.1672055
v -0.2730454 -0.1365236 0.2730453
v -0.2896084 -1.260216E-07 0.2896084
v -0.1831644 -1.260216E-07 0.3663288
v -0.2364643 0.2364638 0.2364642
v -0.1365227 0.2730452 0.2730453
v -0.1672055 0.1672057 0.334411
v -1.98E-15 0.1831648 0.3663288
v -0.1672055 0.3344115 0.1672055
v -1.98E-15 0.3663283 0.1831644
v -1.98E-15 0.4095686 5.255278E-09
v 0.1831644 0.3663283 5.255278E-09
v -1.98E-15 0.3663283 -0.1831645
v -0.1831644 0.3663283 5.255278E-09
v -0.1672055 0.3344115 -0.1672055
v -0.1365227 0.2730452 -0.2730454
v -1.98E-15 0.2896086 0.2896084
v 0.1365227 0.2730452 0.2730453
v 0.1672055 0.3344115 0.1672055
v 0.2730454 0.2730452 0.1365227
v -1.98E-15 0.2896086 -0.2896084
v -1.98E-15 0.1831648 -0.3663289
v 0.1365227 0.2730452 -0.2730454
v -0.1672055 0.1672057 -0.3344109
v -0.1831644 -1.260216E-07 -0.3663289
v 0.1672055 0.3344115 -0.1672055
v 0.2730454 0.2730452 -0.1365228
v 0.2896084 0.2896086 5.255278E-09
v 0.3663289 0.1831648 5.255278E-09
v 0.2364643 0.2364638 0.2364642
v 0.2730454 0.1365233 0.2730453
v 0.334411 0.1672057 0.1672055
v 0.3663289 -1.260216E-07 0.1831644
v 0.1672055 0.1672057 0.334411
v 0.1831644 -1.260216E-07 0.3663288
v 0.2896084 -1.260216E-07 0.2896084
v 0.2730454 -0.1365236 0.2730453
v -1.98E-15 -1.260216E-07 0.4095682
v -1.98E-15 -0.1831636 0.3663288
v 0.1672055 -0.1672059 0.334411
v 0.1365227 -0.2730439 0.2730453
v -0.1672055 -0.1672059 0.334411
v -0.1365227 -0.2730439 0.2730453
v -0.2364643 -0.236464 0.2364642
v -1.98E-15 -0.2896089 0.2896084
v -1.98E-15 -0.3663285 0.1831644
v -0.1672055 -0.3344117 0.1672055
v -1.98E-15 -0.4095674 5.255278E-09
v 0.1831644 -0.3663285 5.255278E-09
v -1.98E-15 -0.3663285 -0.1831645
v -0.1831644 -0.3663285 5.255278E-09
v -0.1672055 -0.3344117 -0.1672055
v -0.1365227 -0.2730439 -0.2730454
v 0.1672055 -0.3344117 0.1672055
v 0.2730454 -0.2730439 0.1365227
v 0.2364643 -0.236464 0.2364642
v 0.334411 -0.1672059 0.1672055
v 0.3663289 -0.1831636 5.255278E-09
v 0.2896084 -0.2896089 5.255278E-09
v 0.2730454 -0.2730439 -0.1365228
v 0.1672055 -0.3344117 -0.1672055
v 0.1365227 -0.2730439 -0.2730454
v 0.4095681 -1.260216E-07 5.255278E-09
v 0.3663289 -1.260216E-07 -0.1831645
v -1.98E-15 -0.2896089 -0.2896084
v -1.98E-15 -0.1831636 -0.3663289
v -0.1672055 -0.1672059 -0.3344109
v 0.334411 -0.1672059 -0.1672055
v 0.2730454 -0.1365236 -0.2730454
v 0.2364643 -0.236464 -0.2364643
v 0.334411 0.1672057 -0.1672055
v 0.2730454 0.1365233 -0.2730454
v 0.2364643 0.2364638 -0.2364643
v -1.98E-15 -1.260216E-07 -0.4095682
v 0.1831644 -1.260216E-07 -0.3663289
v 0.1672055 -0.1672059 -0.3344109
v 0.2896084 -1.260216E-07 -0.2896084
v 0.1672055 0.1672057 -0.3344109
vt 0.0737915 0.5
vt 0.0737915 0.6337891
vt 0.125 0.6083984
vt 0.0737915 0.7324219
vt 0.125 0.6958008
vt 0.1761475 0.7324219
vt 0.125 0.8041992
vt 0.25 0.8525391
vt 0.125 0.5
vt 0.125 0.3918457
vt 0.1761475 0.5
vt 0.0737915 0.3662109
vt 0.0737915 0.2678223
vt 0.1761475 0.6337891
vt 0.25 0.6474609
vt 0.25 0.75
vt 0.3237305 0.7324219
vt 0.125 0.3041992
vt 0.1761475 0.2678223
vt 0.125 0.1959229
vt 0.25 0.147583
vt 0.1761475 0.3662109
vt 0.25 0.3522949
vt 0.25 0.5
vt 0.3237305 0.5
vt 0.3237305 0.6337891
vt 0.375 0.6083984
vt 0.25 0.25
vt 0.3237305 0.2678223
vt 0.3237305 0.3662109
vt 0.375 0.3918457
vt 0.375 0.5
vt 0.4262695 0.5
vt 0.375 0.6958008
vt 0.4262695 0.7324219
vt 0.4262695 0.6337891
vt 0.5 0.6474609
vt 0.375 0.8041992
vt 0.5 0.8525391
vt 0.5 1
vt 0.75 0.8525391
vt 1 0.8525391
vt 1.25 0.8525391
vt 1.125 0.8041992
vt 1.074219 0.7324219
vt 0.5 0.75
vt 0.5737305 0.7324219
vt 0.625 0.8041992
vt 0.6762695 0.7324219
vt 1 0.75
vt 1 0.6474609
vt 0.9262695 0.7324219
vt 1.074219 0.6337891
vt 1.074219 0.5
vt 0.875 0.8041992
vt 0.8237305 0.7324219
vt 0.75 0.75
vt 0.75 0.6474609
vt 0.625 0.6958008
vt 0.625 0.6083984
vt 0.6762695 0.6337891
vt 0.6762695 0.5
vt 0.5737305 0.6337891
vt 0.5737305 0.5
vt 0.625 0.5
vt 0.625 0.3918457
vt 0.5 0.5
vt 0.5 0.3522949
vt 0.5737305 0.3662109
vt 0.5737305 0.2678223
vt 0.4262695 0.3662109
vt 0.4262695 0.2678223
vt 0.375 0.3041992
vt 0.5 0.25
vt 0.5 0.147583
vt 0.375 0.1959229
vt 0.5 5.960464E-08
vt 0.75 0.147583
vt 1 0.147583
vt 1.25 0.147583
vt 1.125 0.1959229
vt 1.074219 0.2678223
vt 0.625 0.1959229
vt 0.6762695 0.2678223
vt 0.625 0.3041992
vt 0.6762695 0.3662109
vt 0.75 0.3522949
vt 0.75 0.25
vt 0.8237305 0.2678223
vt 0.875 0.1959229
vt 0.9262695 0.2678223
vt 0.75 0.5
vt 0.8237305 0.5
vt 1 0.25
vt 1 0.3522949
vt 1.074219 0.3662109
vt 0.8237305 0.3662109
vt 0.875 0.3918457
vt 0.875 0.3041992
vt 0.8237305 0.6337891
vt 0.875 0.6083984
vt 0.875 0.6958008
vt 1 0.5
vt 0.9262695 0.5
vt 0.9262695 0.3662109
vt 0.875 0.5
vt 0.9262695 0.6337891
vn -0.3571777 0 -0.934082
vn -0.3381348 0.3381348 -0.878418
vn -0.6757813 0.2937012 -0.6757813
vn -0.2937012 0.6757813 -0.6757813
vn -0.5771484 0.5771484 -0.5771484
vn -0.6757813 0.6757813 -0.2937012
vn -0.3381348 0.878418 -0.3381348
vn -0.3571777 0.934082 0
vn -0.7070313 0 -0.7070313
vn -0.6757813 -0.2937012 -0.6757813
vn -0.934082 0 -0.3571777
vn -0.3381348 -0.3381348 -0.878418
vn -0.2937012 -0.6757813 -0.6757813
vn -0.878418 0.3381348 -0.3381348
vn -0.934082 0.3571777 0
vn -0.7070313 0.7070313 0
vn -0.6757813 0.6757813 0.2937012
vn -0.5771484 -0.5771484 -0.5771484
vn -0.6757813 -0.6757813 -0.2937012
vn -0.3381348 -0.878418 -0.3381348
vn -0.3571777 -0.934082 0
vn -0.878418 -0.3381348 -0.3381348
vn -0.934082 -0.3571777 0
vn -1 0 0
vn -0.934082 0 0.3571777
vn -0.878418 0.3381348 0.3381348
vn -0.6757813 0.2937012 0.6757813
vn -0.7070313 -0.7070313 0
vn -0.6757813 -0.6757813 0.2937012
vn -0.878418 -0.3381348 0.3381348
vn -0.6757813 -0.2937012 0.6757813
vn -0.7070313 0 0.7070313
vn -0.3571777 0 0.934082
vn -0.5771484 0.5771484 0.5771484
vn -0.2937012 0.6757813 0.6757813
vn -0.3381348 0.3381348 0.878418
vn 0 0.3571777 0.934082
vn -0.3381348 0.878418 0.3381348
vn 0 0.934082 0.3571777
vn 0 1 0
vn 0.3571777 0.934082 0
vn 0 0.934082 -0.3571777
vn -0.3571777 0.934082 0
vn -0.3381348 0.878418 -0.3381348
vn -0.2937012 0.6757813 -0.6757813
vn 0 0.7070313 0.7070313
vn 0.2937012 0.6757813 0.6757813
vn 0.3381348 0.878418 0.3381348
vn 0.6757813 0.6757813 0.2937012
vn 0 0.7070313 -0.7070313
vn 0 0.3571777 -0.934082
vn 0.2937012 0.6757813 -0.6757813
vn -0.3381348 0.3381348 -0.878418
vn -0.3571777 0 -0.934082
vn 0.3381348 0.878418 -0.3381348
vn 0.6757813 0.6757813 -0.2937012
vn 0.7070313 0.7070313 0
vn 0.934082 0.3571777 0
vn 0.5771484 0.5771484 0.5771484
vn 0.6757813 0.2937012 0.6757813
vn 0.878418 0.3381348 0.3381348
vn 0.934082 0 0.3571777
vn 0.3381348 0.3381348 0.878418
vn 0.3571777 0 0.934082
vn 0.7070313 0 0.7070313
vn 0.6757813 -0.2937012 0.6757813
vn 0 0 1
vn 0 -0.3571777 0.934082
vn 0.3381348 -0.3381348 0.878418
vn 0.2937012 -0.6757813 0.6757813
vn -0.3381348 -0.3381348 0.878418
vn -0.2937012 -0.6757813 0.6757813
vn -0.5771484 -0.5771484 0.5771484
vn 0 -0.7070313 0.7070313
vn 0 -0.934082 0.3571777
vn -0.3381348 -0.878418 0.3381348
vn 0 -1 0
vn 0.3571777 -0.934082 0
vn 0 -0.934082 -0.3571777
vn -0.3571777 -0.934082 0
vn -0.3381348 -0.878418 -0.3381348
vn -0.2937012 -0.6757813 -0.6757813
vn 0.3381348 -0.878418 0.3381348
vn 0.6757813 -0.6757813 0.2937012
vn 0.5771484 -0.5771484 0.5771484
vn 0.878418 -0.3381348 0.3381348
vn 0.934082 -0.3571777 0
vn 0.7070313 -0.7070313 0
vn 0.6757813 -0.6757813 -0.2937012
vn 0.3381348 -0.878418 -0.3381348
vn 0.2937012 -0.6757813 -0.6757813
vn 1 0 0
vn 0.934082 0 -0.3571777
vn 0 -0.7070313 -0.7070313
vn 0 -0.3571777 -0.934082
vn -0.3381348 -0.3381348 -0.878418
vn 0.878418 -0.3381348 -0.3381348
vn 0.6757813 -0.2937012 -0.6757813
vn 0.5771484 -0.5771484 -0.5771484
vn 0.878418 0.3381348 -0.3381348
vn 0.6757813 0.2937012 -0.6757813
vn 0.5771484 0.5771484 -0.5771484
vn 0 0 -1
vn 0.3571777 0 -0.934082
vn 0.3381348 -0.3381348 -0.878418
vn 0.7070313 0 -0.7070313
vn 0.3381348 0.3381348 -0.878418
g Nose_Clown_0
f 3/3/3 2/2/2 1/1/1
f 4/4/4 2/2/2 3/3/3
f 5/5/5 4/4/4 3/3/3
f 5/5/5 6/6/6 4/4/4
f 5/5/5 3/3/3 6/6/6
f 6/6/6 7/7/7 4/4/4
f 8/8/8 7/7/7 6/6/6
f 9/9/9 3/3/3 1/1/1
f 9/9/9 1/1/1 10/10/10
f 9/9/9 11/11/11 3/3/3
f 9/9/9 10/10/10 11/11/11
f 1/1/1 12/12/12 10/10/10
f 10/10/10 12/12/12 13/13/13
f 3/3/3 14/14/14 6/6/6
f 11/11/11 14/14/14 3/3/3
f 6/6/6 14/14/14 15/15/15
f 15/15/15 14/14/14 11/11/11
f 16/16/16 8/8/8 6/6/6
f 16/16/16 6/6/6 15/15/15
f 16/16/16 17/17/17 8/8/8
f 16/16/16 15/15/15 17/17/17
f 18/18/18 10/10/10 13/13/13
f 18/18/18 13/13/13 19/19/19
f 18/18/18 19/19/19 10/10/10
f 13/13/13 20/20/20 19/19/19
f 19/19/19 20/20/20 21/21/21
f 10/10/10 22/22/22 11/11/11
f 19/19/19 22/22/22 10/10/10
f 11/11/11 22/22/22 23/23/23
f 23/23/23 22/22/22 19/19/19
f 24/24/24 15/15/15 11/11/11
f 24/24/24 11/11/11 23/23/23
f 24/24/24 25/25/25 15/15/15
f 24/24/24 23/23/23 25/25/25
f 15/15/15 26/26/26 17/17/17
f 25/25/25 26/26/26 15/15/15
f 17/17/17 26/26/26 27/27/27
f 27/27/27 26/26/26 25/25/25
f 28/28/28 19/19/19 21/21/21
f 28/28/28 23/23/23 19/19/19
f 28/28/28 29/29/29 23/23/23
f 28/28/28 21/21/21 29/29/29
f 23/23/23 30/30/30 25/25/25
f 29/29/29 30/30/30 23/23/23
f 25/25/25 30/30/30 31/31/31
f 31/31/31 30/30/30 29/29/29
f 32/32/32 27/27/27 25/25/25
f 32/32/32 25/25/25 31/31/31
f 32/32/32 33/33/33 27/27/27
f 32/32/32 31/31/31 33/33/33
f 34/34/34 17/17/17 27/27/27
f 34/34/34 27/27/27 35/35/35
f 34/34/34 35/35/35 17/17/17
f 33/33/33 36/36/36 27/27/27
f 27/27/27 36/36/36 35/35/35
f 37/37/37 36/36/36 33/33/33
f 35/35/35 36/36/36 37/37/37
f 35/35/35 38/38/38 17/17/17
f 39/39/39 38/38/38 35/35/35
f 17/17/17 38/38/38 8/8/8
f 8/8/8 38/38/38 39/39/39
f 40/40/40 8/8/8 39/39/39
f 40/40/40 39/39/39 41/41/41
f 40/40/40 41/41/41 42/42/42
f 40/40/40 42/42/42 43/43/43
f 42/42/42 44/44/44 43/43/43
f 45/45/45 44/44/44 42/42/42
f 46/46/46 35/35/35 37/37/37
f 46/46/46 39/39/39 35/35/35
f 46/46/46 47/47/47 39/39/39
f 46/46/46 37/37/37 47/47/47
f 39/39/39 48/48/48 41/41/41
f 47/47/47 48/48/48 39/39/39
f 41/41/41 48/48/48 49/49/49
f 49/49/49 48/48/48 47/47/47
f 50/50/50 45/45/45 42/42/42
f 50/50/50 51/51/51 45/45/45
f 50/50/50 42/42/42 52/52/52
f 50/50/50 52/52/52 51/51/51
f 51/51/51 53/53/53 45/45/45
f 54/54/54 53/53/53 51/51/51
f 41/41/41 55/55/55 42/42/42
f 42/42/42 55/55/55 52/52/52
f 56/56/56 55/55/55 41/41/41
f 52/52/52 55/55/55 56/56/56
f 57/57/57 41/41/41 49/49/49
f 57/57/57 56/56/56 41/41/41
f 57/57/57 49/49/49 58/58/58
f 57/57/57 58/58/58 56/56/56
f 59/59/59 49/49/49 47/47/47
f 59/59/59 47/47/47 60/60/60
f 59/59/59 60/60/60 49/49/49
f 49/49/49 61/61/61 58/58/58
f 60/60/60 61/61/61 49/49/49
f 58/58/58 61/61/61 62/62/62
f 62/62/62 61/61/61 60/60/60
f 47/47/47 63/63/63 60/60/60
f 60/60/60 63/63/63 64/64/64
f 37/37/37 63/63/63 47/47/47
f 64/64/64 63/63/63 37/37/37
f 65/65/65 62/62/62 60/60/60
f 65/65/65 60/60/60 64/64/64
f 65/65/65 66/66/66 62/62/62
f 65/65/65 64/64/64 66/66/66
f 67/67/67 64/64/64 37/37/37
f 67/67/67 68/68/68 64/64/64
f 67/67/67 37/37/37 33/33/33
f 67/67/67 33/33/33 68/68/68
f 64/64/64 69/69/69 66/66/66
f 68/68/68 69/69/69 64/64/64
f 66/66/66 69/69/69 70/70/70
f 70/70/70 69/69/69 68/68/68
f 33/33/33 71/71/71 68/68/68
f 68/68/68 71/71/71 72/72/72
f 31/31/31 71/71/71 33/33/33
f 72/72/72 71/71/71 31/31/31
f 73/73/73 72/72/72 31/31/31
f 73/73/73 31/31/31 29/29/29
f 73/73/73 29/29/29 72/72/72
f 74/74/74 70/70/70 68/68/68
f 74/74/74 68/68/68 72/72/72
f 74/74/74 72/72/72 75/75/75
f 74/74/74 75/75/75 70/70/70
f 29/29/29 76/76/76 72/72/72
f 72/72/72 76/76/76 75/75/75
f 21/21/21 76/76/76 29/29/29
f 75/75/75 76/76/76 21/21/21
f 77/77/77 75/75/75 21/21/21
f 77/77/77 78/78/78 75/75/75
f 77/77/77 79/79/79 78/78/78
f 77/77/77 80/80/80 79/79/79
f 80/80/80 81/81/81 79/79/79
f 79/79/79 81/81/81 82/82/82
f 75/75/75 83/83/83 70/70/70
f 78/78/78 83/83/83 75/75/75
f 70/70/70 83/83/83 84/84/84
f 84/84/84 83/83/83 78/78/78
f 85/85/85 70/70/70 84/84/84
f 85/85/85 66/66/66 70/70/70
f 85/85/85 84/84/84 66/66/66
f 84/84/84 86/86/86 66/66/66
f 87/87/87 86/86/86 84/84/84
f 66/66/66 86/86/86 62/62/62
f 62/62/62 86/86/86 87/87/87
f 88/88/88 84/84/84 78/78/78
f 88/88/88 87/87/87 84/84/84
f 88/88/88 78/78/78 89/89/89
f 88/88/88 89/89/89 87/87/87
f 79/79/79 90/90/90 78/78/78
f 78/78/78 90/90/90 89/89/89
f 91/91/91 90/90/90 79/79/79
f 89/89/89 90/90/90 91/91/91
f 92/92/92 62/62/62 87/87/87
f 92/92/92 87/87/87 93/93/93
f 92/92/92 58/58/58 62/62/62
f 92/92/92 93/93/93 58/58/58
f 94/94/94 91/91/91 79/79/79
f 94/94/94 95/95/95 91/91/91
f 94/94/94 79/79/79 82/82/82
f 94/94/94 82/82/82 95/95/95
f 82/82/82 96/96/96 95/95/95
f 95/95/95 96/96/96 54/54/54
f 89/89/89 97/97/97 87/87/87
f 87/87/87 97/97/97 93/93/93
f 98/98/98 97/97/97 89/89/89
f 93/93/93 97/97/97 98/98/98
f 99/99/99 89/89/89 91/91/91
f 99/99/99 98/98/98 89/89/89
f 99/99/99 91/91/91 98/98/98
f 93/93/93 100/100/100 58/58/58
f 101/101/101 100/100/100 93/93/93
f 58/58/58 100/100/100 56/56/56
f 56/56/56 100/100/100 101/101/101
f 102/102/102 56/56/56 101/101/101
f 102/102/102 52/52/52 56/56/56
f 102/102/102 101/101/101 52/52/52
f 103/103/103 95/95/95 54/54/54
f 103/103/103 104/104/104 95/95/95
f 103/103/103 54/54/54 51/51/51
f 103/103/103 51/51/51 104/104/104
f 95/95/95 105/105/105 91/91/91
f 91/91/91 105/105/105 98/98/98
f 104/104/104 105/105/105 95/95/95
f 98/98/98 105/105/105 104/104/104
f 106/106/106 93/93/93 98/98/98
f 106/106/106 101/101/101 93/93/93
f 106/106/106 98/98/98 104/104/104
f 106/106/106 104/104/104 101/101/101
f 52/52/52 107/107/107 51/51/51
f 101/101/101 107/107/107 52/52/52
f 104/104/104 107/107/107 101/101/101
f 51/51/51 107/107/107 104/104/104
