g Nose_prism
v 0.02175866 -0.03452706 -0.00990199
v -0.0217586 -0.03452706 -0.00990199
v -2.710835E-08 -0.02044943 0.02877598
v 0.02175866 0.05762454 -0.02197216
v -2.710835E-08 0.06547891 -0.0003924276
v -0.0217586 0.05762453 -0.02197216
v 0.02175866 -0.03452706 -0.00990199
v 0.02175866 0.05762454 -0.02197216
v -0.0217586 0.05762453 -0.02197216
v -0.0217586 -0.03452706 -0.00990199
v -0.0217586 -0.03452706 -0.00990199
v -0.0217586 0.05762453 -0.02197216
v -2.710835E-08 0.06547891 -0.0003924276
v -2.710835E-08 -0.02044943 0.02877598
v -2.710835E-08 -0.02044943 0.02877598
v -2.710835E-08 0.06547891 -0.0003924276
v 0.02175866 0.05762454 -0.02197216
v 0.02175866 -0.03452706 -0.00990199
vt 0.421875 0.02093506
vt 0.421875 0.2915039
vt 0.65625 0.15625
vt 0.421875 0.9790039
vt 0.65625 0.84375
vt 0.421875 0.7084961
vt 0.375 0.3125
vt 0.375 0.6884766
vt 0.458252 0.6884766
vt 0.458252 0.3125
vt 0.458252 0.3125
vt 0.458252 0.6884766
vt 0.5415039 0.6884766
vt 0.5415039 0.3125
vt 0.5415039 0.3125
vt 0.5415039 0.6884766
vt 0.625 0.6884766
vt 0.625 0.3125
vn 0 -0.9394531 0.342041
vn 0 -0.9394531 0.342041
vn 0 -0.9394531 0.342041
vn 0 0.9394531 -0.342041
vn 0 0.9394531 -0.342041
vn 0 0.9394531 -0.342041
vn 0 -0.1298828 -0.9916992
vn 0 -0.1298828 -0.9916992
vn 0 -0.1298828 -0.9916992
vn 0 -0.1298828 -0.9916992
vn -0.8256836 0.1273193 0.5498047
vn -0.8256836 0.1273193 0.5498047
vn -0.8256836 0.1273193 0.5498047
vn -0.8256836 0.1273193 0.5498047
vn 0.8256836 0.1273193 0.5498047
vn 0.8256836 0.1273193 0.5498047
vn 0.8256836 0.1273193 0.5498047
vn 0.8256836 0.1273193 0.5498047
g Nose_prism_0
f 3/3/3 2/2/2 1/1/1
f 6/6/6 5/5/5 4/4/4
f 9/9/9 8/8/8 7/7/7
f 10/10/10 9/9/9 7/7/7
f 13/13/13 12/12/12 11/11/11
f 14/14/14 13/13/13 11/11/11
f 17/17/17 16/16/16 15/15/15
f 18/18/18 17/17/17 15/15/15
