g Nose_prism
v 0.02501179 0.004355039 0.05844849
v -0.02470107 0.004366994 0.05847244
v 0.000149332 0.01879327 0.0971442
v 0.02586082 0.1172945 0.05350362
v 0.0001708328 0.1244498 0.07536226
v -0.02551016 0.1173113 0.05352109
v 0.02501179 0.004355039 0.05844849
v 0.02586082 0.1172945 0.05350362
v -0.02551016 0.1173113 0.05352109
v -0.02470107 0.004366994 0.05847244
v -0.02470107 0.004366994 0.05847244
v -0.02551016 0.1173113 0.05352109
v 0.0001708328 0.1244498 0.07536226
v 0.000149332 0.01879327 0.0971442
v 0.000149332 0.01879327 0.0971442
v 0.0001708328 0.1244498 0.07536226
v 0.02586082 0.1172945 0.05350362
v 0.02501179 0.004355039 0.05844849
vt 0.421875 0.02093351
vt 0.421875 0.2915665
vt 0.65625 0.15625
vt 0.421875 0.9790665
vt 0.65625 0.84375
vt 0.421875 0.7084335
vt 0.375 0.3125
vt 0.375 0.6884398
vt 0.4583333 0.6884398
vt 0.4583333 0.3125
vt 0.4583333 0.3125
vt 0.4583333 0.6884398
vt 0.5416667 0.6884398
vt 0.5416667 0.3125
vt 0.5416667 0.3125
vt 0.5416667 0.6884398
vt 0.625 0.6884398
vt 0.625 0.3125
vn 0 -0.9370021 0.3493237
vn 0 -0.9370009 0.3493269
vn 0 -0.937152 0.3489213
vn -2.530791E-07 0.9365702 -0.3504802
vn -2.531148E-07 0.9366893 -0.3501616
vn -2.530788E-07 0.9365691 -0.3504828
vn 0 -0.1263325 -0.9919879
vn 0 -0.1257826 -0.9920579
vn 0 -0.1257814 -0.992058
vn 0 -0.126331 -0.9919882
vn -0.8577163 0.1402269 0.4946303
vn -0.7087907 0.08872864 0.6998164
vn -0.7828713 0.1130437 0.611828
vn -0.880426 0.1493149 0.4500612
vn 0.8558785 0.08577124 0.5100149
vn 0.7183257 0.2182634 0.6605825
vn 0.7832623 0.1615909 0.6003237
vn 0.8749598 0.06116959 0.4803162
g Nose_prism_0
f 3/3/3 2/2/2 1/1/1
f 6/6/6 5/5/5 4/4/4
f 9/9/9 8/8/8 7/7/7
f 10/10/10 9/9/9 7/7/7
f 13/13/13 12/12/12 11/11/11
f 14/14/14 13/13/13 11/11/11
f 17/17/17 16/16/16 15/15/15
f 18/18/18 17/17/17 15/15/15
