g pasted__SM_Prop_PotPlant_05
v 0.05895904 -0.1395718 0.04268341
v 0.05895904 -0.08978164 0.04268341
v 0.05895904 -0.08978164 -0.06724762
v 0.05895904 -0.1395718 -0.06724762
v 0.05895904 -0.1395718 -0.06724762
v 0.05895904 -0.08978164 -0.06724762
v -0.0362442 -0.08978164 -0.1222134
v -0.0362442 -0.1395718 -0.1222134
v -0.0362442 -0.1395718 0.09764862
v -0.0362442 -0.08978164 0.09764862
v 0.05895904 -0.08978164 0.04268341
v 0.05895904 -0.1395718 0.04268341
v -0.0362442 -0.271585 -0.08913665
v -0.0362442 -0.271585 -0.01228241
v 0.03031342 -0.271585 -0.05071075
v 0.03031342 -0.271585 0.02614471
v -0.06064164 -0.2641769 0.06457184
v 0.02638153 -0.1201599 -0.04843841
v -0.0362442 -0.1201599 -0.01228241
v -0.0362442 -0.1201599 -0.08459747
v 0.02638153 -0.1201599 0.02387482
v -0.0362442 -0.1201599 0.06003265
v -0.0362442 -0.1525941 0.08407073
v -0.0362442 -0.1395718 0.09764862
v 0.05895904 -0.1395718 0.04268341
v 0.04720062 -0.1525941 0.03589325
v 0.04720062 -0.1525941 0.03589325
v 0.05895904 -0.1395718 0.04268341
v 0.05895904 -0.1395718 -0.06724762
v 0.04720062 -0.1525941 -0.06045929
v 0.04720062 -0.1525941 -0.06045929
v 0.05895904 -0.1395718 -0.06724762
v -0.0362442 -0.1395718 -0.1222134
v -0.0362442 -0.1525941 -0.1086349
v -0.06064164 -0.2641769 0.06457184
v 0.04276799 -0.1838273 0.03333441
v 0.03031342 -0.271585 0.02614471
v -0.01184676 -0.1912353 0.07895259
v 0.04720062 -0.1525941 0.03589325
v -0.0362442 -0.1525941 0.08407073
v 0.03031342 -0.271585 0.02614471
v 0.04276799 -0.1838273 -0.05790045
v 0.03031342 -0.271585 -0.05071075
v 0.04276799 -0.1838273 0.03333441
v 0.04720062 -0.1525941 -0.06045929
v 0.04720062 -0.1525941 0.03589325
v 0.03031342 -0.271585 -0.05071075
v -0.0362442 -0.1838273 -0.103517
v -0.0362442 -0.271585 -0.08913665
v 0.04276799 -0.1838273 -0.05790045
v -0.0362442 -0.1525941 -0.1086349
v 0.04720062 -0.1525941 -0.06045929
v 0.05895904 -0.08978164 -0.06724762
v -0.0362442 -0.08978164 -0.09431305
v -0.0362442 -0.08978164 -0.1222134
v 0.03479645 -0.08978164 -0.05329742
v 0.05895904 -0.08978164 0.04268341
v 0.03479645 -0.08978164 0.02873321
v -0.0362442 -0.08978164 0.09764862
v -0.0362442 -0.08978164 0.06974823
v 0.03479645 -0.08978164 0.02873321
v 0.02638153 -0.1201599 0.02387482
v 0.02638153 -0.1201599 -0.04843841
v 0.03479645 -0.08978164 -0.05329742
v 0.03479645 -0.08978164 -0.05329742
v 0.02638153 -0.1201599 -0.04843841
v -0.0362442 -0.1201599 -0.08459747
v -0.0362442 -0.08978164 -0.09431305
v -0.0362442 -0.08978164 0.06974823
v -0.0362442 -0.1201599 0.06003265
v 0.02638153 -0.1201599 0.02387482
v 0.03479645 -0.08978164 0.02873321
v -0.06064164 -0.2641769 0.06457184
v -0.0362442 -0.271585 -0.01228241
v -0.0362442 -0.271585 -0.08913665
v -0.0362442 -0.1838273 -0.103517
v -0.01184676 -0.1912353 0.07895259
v -0.0362442 -0.1525941 0.08407073
v -0.0362442 -0.1525941 -0.1086349
v -0.0362442 -0.1395718 0.09764862
v -0.0362442 -0.1395718 -0.1222134
v -0.0362442 -0.1201599 0.06003265
v -0.0362442 -0.08978164 0.09764862
v -0.0362442 -0.08978164 0.06974823
v -0.0362442 -0.1201599 -0.08459747
v -0.0362442 -0.1201599 -0.01228241
v -0.0362442 -0.1201599 0.06003265
v -0.0362442 -0.1395718 -0.1222134
v -0.0362442 -0.08978164 -0.1222134
v -0.0362442 -0.08978164 -0.09431305
vt 0.2187493 0.4959702
vt 0.2187493 0.4959702
vt 0.2187494 0.4959702
vt 0.2187494 0.4959702
vt 0.2187494 0.4959702
vt 0.2187494 0.4959702
vt 0.2187494 0.4959702
vt 0.2187494 0.4959702
vt 0.2187494 0.4959702
vt 0.2187494 0.4959702
vt 0.2187494 0.4959702
vt 0.2187494 0.4959702
vt 0.2187493 0.4959702
vt 0.2187493 0.4959702
vt 0.2187494 0.4959702
vt 0.2187494 0.4959702
vt 0.2187494 0.4959702
vt 0.03826904 0.3041153
vt 0.03826904 0.3041153
vt 0.03826904 0.3041153
vt 0.03826904 0.3041153
vt 0.03826904 0.3041153
vt 0.2187494 0.4959702
vt 0.2187494 0.4959702
vt 0.2187494 0.4959702
vt 0.2187494 0.4959702
vt 0.2187493 0.4959702
vt 0.2187493 0.4959702
vt 0.2187494 0.4959702
vt 0.2187494 0.4959702
vt 0.2187494 0.4959702
vt 0.2187494 0.4959702
vt 0.2187494 0.4959702
vt 0.2187494 0.4959702
vt 0.2187494 0.4959702
vt 0.2187494 0.4959702
vt 0.2187494 0.4959702
vt 0.2187494 0.4959702
vt 0.2187494 0.4959702
vt 0.2187494 0.4959702
vt 0.2187493 0.4959702
vt 0.2187494 0.4959702
vt 0.2187494 0.4959702
vt 0.2187493 0.4959702
vt 0.2187494 0.4959702
vt 0.2187493 0.4959702
vt 0.2187494 0.4959702
vt 0.2187494 0.4959702
vt 0.2187494 0.4959702
vt 0.2187494 0.4959702
vt 0.2187494 0.4959702
vt 0.2187494 0.4959702
vt 0.2187493 0.4959702
vt 0.2187493 0.4959702
vt 0.2187493 0.4959702
vt 0.2187493 0.4959702
vt 0.2187494 0.4959702
vt 0.2187494 0.4959702
vt 0.2187494 0.4959702
vt 0.2187494 0.4959702
vt 0.2187494 0.4959702
vt 0.2187494 0.4959702
vt 0.2187493 0.4959702
vt 0.2187493 0.4959702
vt 0.2187493 0.4959702
vt 0.2187493 0.4959702
vt 0.2187493 0.4959702
vt 0.2187493 0.4959702
vt 0.2187494 0.4959702
vt 0.2187494 0.4959702
vt 0.2187494 0.4959702
vt 0.2187494 0.4959702
vt 0.2187494 0.4959702
vt 0.2187493 0.4959702
vt 0.2187493 0.4959702
vt 0.2187494 0.4959702
vt 0.2187494 0.4959702
vt 0.2187494 0.4959702
vt 0.2187494 0.4959702
vt 0.2187494 0.4959702
vt 0.2187494 0.4959702
vt 0.03826904 0.3041153
vt 0.2187494 0.4959702
vt 0.2187494 0.4959702
vt 0.2187493 0.4959702
vt 0.03826904 0.3041153
vt 0.03826904 0.3041153
vt 0.2187494 0.4959702
vt 0.2187494 0.4959702
vt 0.2187493 0.4959702
vn 1 0 0
vn 1 0 0
vn 1 0 0
vn 1 0 0
vn 0.5000014 0 -0.8660246
vn 0.5000014 0 -0.8660246
vn 0.5000014 0 -0.8660246
vn 0.5000014 0 -0.8660246
vn 0.4999972 0 0.8660271
vn 0.4999972 0 0.8660271
vn 0.4999972 0 0.8660271
vn 0.4999972 0 0.8660271
vn 0 -1 0
vn 0 -1 0
vn 0 -1 0
vn 0 -1 0
vn 0 -1 0
vn 0 1 0
vn 0 1 0
vn 0 1 0
vn 0 1 0
vn 0 1 0
vn 0.3710914 -0.6701988 0.6427478
vn 0.3710914 -0.6701988 0.6427478
vn 0.3710914 -0.6701989 0.6427478
vn 0.3710914 -0.6701988 0.6427478
vn 0.7422045 -0.6701735 0
vn 0.7422045 -0.6701735 0
vn 0.7422045 -0.6701735 0
vn 0.7422045 -0.6701735 0
vn 0.3710955 -0.6701821 -0.6427628
vn 0.3710955 -0.6701821 -0.6427628
vn 0.3710955 -0.6701821 -0.6427628
vn 0.3710955 -0.670182 -0.6427628
vn 0.4950429 -0.1405048 0.8574328
vn 0.5131378 -0.1732741 0.8406341
vn 0.4950428 -0.1405048 0.8574328
vn 0.5088748 -0.1896203 0.8396968
vn 0.4950428 -0.1405048 0.8574328
vn 0.4950428 -0.1405048 0.8574328
vn 0.9900789 -0.1405121 0
vn 0.9900789 -0.1405121 0
vn 0.9900789 -0.1405121 0
vn 0.9900789 -0.1405121 0
vn 0.9900789 -0.1405121 0
vn 0.9900789 -0.1405121 0
vn 0.4950299 -0.1405027 -0.8574407
vn 0.49503 -0.1405027 -0.8574406
vn 0.4950299 -0.1405027 -0.8574407
vn 0.49503 -0.1405027 -0.8574405
vn 0.4950299 -0.1405027 -0.8574407
vn 0.4950299 -0.1405027 -0.8574407
vn 0 1 0
vn 0 1 3.28975E-07
vn 0 1 3.28975E-07
vn 0 1 0
vn 0 1 0
vn 0 1 0
vn 0 1 -6.579521E-07
vn 0 1 -6.579521E-07
vn -0.9637098 0.2669522 0
vn -0.9637098 0.2669522 0
vn -0.9637098 0.2669522 0
vn -0.9637098 0.2669522 0
vn -0.481867 0.266946 0.8345922
vn -0.481867 0.266946 0.8345922
vn -0.4818669 0.266946 0.8345922
vn -0.481867 0.266946 0.8345922
vn -0.4818594 0.2669381 -0.834599
vn -0.4818594 0.2669381 -0.834599
vn -0.4818594 0.2669381 -0.834599
vn -0.4818594 0.2669381 -0.834599
vn -0.9994695 0.02986202 0.01300165
vn -0.9994695 0.02986202 0.01300164
vn -0.9994695 0.02986202 0.01300164
vn -0.9994695 0.02986202 0.01300164
vn -0.9994695 0.02986202 0.01300165
vn -0.9994695 0.02986202 0.01300165
vn -0.9994695 0.02986202 0.01300164
vn -0.9994695 0.02986202 0.01300165
vn -0.9994695 0.02986202 0.01300165
vn -0.9994695 0.02986202 0.01300164
vn -0.9994695 0.02986202 0.01300164
vn -0.9994695 0.02986202 0.01300164
vn -0.9994695 0.02986202 0.01300164
vn -0.9994695 0.02986202 0.01300164
vn -0.9994695 0.02986202 0.01300164
vn -0.9994695 0.02986202 0.01300165
vn -0.9994695 0.02986202 0.01300164
vn -0.9994695 0.02986202 0.01300164
g pasted__SM_Prop_PotPlant_05_0
f 3/3/3 2/2/2 1/1/1
f 4/4/4 3/3/3 1/1/1
f 7/7/7 6/6/6 5/5/5
f 8/8/8 7/7/7 5/5/5
f 11/11/11 10/10/10 9/9/9
f 12/12/12 11/11/11 9/9/9
f 15/15/15 14/14/14 13/13/13
f 16/16/16 14/14/14 15/15/15
f 17/17/17 14/14/14 16/16/16
f 20/20/20 19/19/19 18/18/18
f 18/18/18 19/19/19 21/21/21
f 21/21/21 19/19/19 22/22/22
f 25/25/25 24/24/24 23/23/23
f 26/26/26 25/25/25 23/23/23
f 29/29/29 28/28/28 27/27/27
f 30/30/30 29/29/29 27/27/27
f 33/33/33 32/32/32 31/31/31
f 34/34/34 33/33/33 31/31/31
f 37/37/37 36/36/36 35/35/35
f 36/36/36 38/38/38 35/35/35
f 36/36/36 39/39/39 38/38/38
f 39/39/39 40/40/40 38/38/38
f 43/43/43 42/42/42 41/41/41
f 42/42/42 44/44/44 41/41/41
f 42/42/42 45/45/45 44/44/44
f 45/45/45 46/46/46 44/44/44
f 49/49/49 48/48/48 47/47/47
f 48/48/48 50/50/50 47/47/47
f 48/48/48 51/51/51 50/50/50
f 51/51/51 52/52/52 50/50/50
f 55/55/55 54/54/54 53/53/53
f 54/54/54 56/56/56 53/53/53
f 53/53/53 56/56/56 57/57/57
f 56/56/56 58/58/58 57/57/57
f 57/57/57 58/58/58 59/59/59
f 58/58/58 60/60/60 59/59/59
f 63/63/63 62/62/62 61/61/61
f 64/64/64 63/63/63 61/61/61
f 67/67/67 66/66/66 65/65/65
f 68/68/68 67/67/67 65/65/65
f 71/71/71 70/70/70 69/69/69
f 72/72/72 71/71/71 69/69/69
f 75/75/75 74/74/74 73/73/73
f 73/73/73 76/76/76 75/75/75
f 73/73/73 77/77/77 76/76/76
f 77/77/77 78/78/78 76/76/76
f 78/78/78 79/79/79 76/76/76
f 78/78/78 80/80/80 79/79/79
f 80/80/80 81/81/81 79/79/79
f 80/80/80 82/82/82 81/81/81
f 80/80/80 83/83/83 82/82/82
f 83/83/83 84/84/84 82/82/82
f 87/87/87 86/86/86 85/85/85
f 88/88/88 87/87/87 85/85/85
f 85/85/85 89/89/89 88/88/88
f 85/85/85 90/90/90 89/89/89
