g pb_Mesh378362
v 0 2.997001 1.220703E-06
v 0 2.997001 0.15
v 0 0 0.15
v 0 0 1.220703E-06
v 0 2.997001 1.220703E-06
v 1.495732 2.997001 1.430511E-06
v 1.495732 2.997001 0.1500001
v 0 2.997001 0.15
v 0 0 0.15
v 1.495732 0 0.1500001
v 1.495732 0 1.430511E-06
v 0 0 1.220703E-06
v 1.495732 2.997001 0.1500001
v 1.495732 0 0.1500001
v 0 0 0.15
v 0 2.997001 0.15
v 1.495732 2.997001 1.430511E-06
v 1.495732 0 1.430511E-06
v 1.495732 0 0.1500001
v 1.495732 2.997001 0.1500001
vt 0.06335161 0.1738343
vt 0.06336564 0.1738428
vt 0.06333695 0.1748175
vt 0.06332316 0.1748069
vt 0.06335161 0.1738343
vt 0.06253833 0.1738472
vt 0.06254989 0.1738551
vt 0.06336564 0.1738428
vt 0.06333695 0.1748175
vt 0.06252873 0.1748344
vt 0.06251723 0.1748237
vt 0.06332316 0.1748069
vt 0.06254989 0.1738551
vt 0.06252873 0.1748344
vt 0.06333695 0.1748175
vt 0.06336564 0.1738428
vt 0.06253833 0.1738472
vt 0.06251723 0.1748237
vt 0.06252873 0.1748344
vt 0.06254989 0.1738551
vn -1 0 0
vn -1 0 0
vn -1 0 0
vn -1 0 0
vn 0 1 0
vn 0 1 0
vn 0 1 0
vn 0 1 0
vn 0 -1 0
vn 0 -1 0
vn 0 -1 0
vn 0 -1 0
vn -6.973716E-08 0 1
vn -6.973716E-08 0 1
vn -6.973716E-08 0 1
vn -6.973716E-08 0 1
vn 1 0 0
vn 1 0 0
vn 1 0 0
vn 1 0 0
g pb_Mesh378362_0
f 3/3/3 2/2/2 1/1/1
f 4/4/4 3/3/3 1/1/1
f 7/7/7 6/6/6 5/5/5
f 8/8/8 7/7/7 5/5/5
f 11/11/11 10/10/10 9/9/9
f 12/12/12 11/11/11 9/9/9
f 15/15/15 14/14/14 13/13/13
f 16/16/16 15/15/15 13/13/13
f 19/19/19 18/18/18 17/17/17
f 20/20/20 19/19/19 17/17/17
