g pb_Mesh182910
v -0.3419852 2.997001 1.907349E-06
v -0.3419852 2.997001 0.1499996
v -0.3419852 0 0.1499996
v -0.3419852 0 1.907349E-06
v -0.3419852 2.997001 1.907349E-06
v 2.499993 2.997001 1.220703E-06
v 2.499993 2.997001 0.15
v -0.3419852 2.997001 0.1499996
v -0.3419852 0 0.1499996
v 2.499993 -2.325978E-09 0.15
v 2.499993 0 1.220703E-06
v -0.3419852 0 1.907349E-06
v 2.499993 2.997001 0.15
v 2.499993 -2.325978E-09 0.15
v -0.3419852 0 0.1499996
v -0.3419852 2.997001 0.1499996
v 2.499993 2.997001 1.220703E-06
v 2.499993 0 1.220703E-06
v 2.499993 -2.325978E-09 0.15
v 2.499993 2.997001 0.15
vt 0.002059391 0.7515909
vt 0.002061178 0.7516023
vt 0.002038079 0.7518445
vt 0.002036188 0.751833
vt 0.002059391 0.7515909
vt 0.001916889 0.7515982
vt 0.001918347 0.7516096
vt 0.002061178 0.7516023
vt 0.002038079 0.7518445
vt 0.00190056 0.7518518
vt 0.001899194 0.7518403
vt 0.002036188 0.751833
vt 0.2487365 0.9977956
vt 0.2487365 0.7525466
vt 0.001594782 0.7525466
vt 0.001594782 0.9977956
vt 0.001916889 0.7515982
vt 0.001899194 0.7518403
vt 0.00190056 0.7518518
vt 0.001918347 0.7516096
vn -1 0 0
vn -1 0 0
vn -1 0 0
vn -1 0 0
vn 0 1 0
vn 0 1 0
vn 0 1 0
vn 0 1 0
vn -4.092171E-10 -1 -7.753323E-09
vn -8.184343E-10 -1 -1.550665E-08
vn -4.092171E-10 -1 -7.753323E-09
vn 0 -1 0
vn -1.310809E-07 0 1
vn -1.310809E-07 0 1
vn -1.310809E-07 0 1
vn -1.310809E-07 0 1
vn 1 0 0
vn 1 0 0
vn 1 0 0
vn 1 0 0
g pb_Mesh182910_0
f 3/3/3 2/2/2 1/1/1
f 4/4/4 3/3/3 1/1/1
f 7/7/7 6/6/6 5/5/5
f 8/8/8 7/7/7 5/5/5
f 11/11/11 10/10/10 9/9/9
f 12/12/12 11/11/11 9/9/9
f 15/15/15 14/14/14 13/13/13
f 16/16/16 15/15/15 13/13/13
f 19/19/19 18/18/18 17/17/17
f 20/20/20 19/19/19 17/17/17
