g pb_Mesh174018
v 0 2.627216 1.220703E-06
v 0 2.627215 0.15
v 0 0.6837353 0.15
v 0 0.6837353 1.220703E-06
v 0 0.02178406 0.163606
v 0 0 0.15
v 0 0 1.220703E-06
v 0 0.6619513 0.163606
v 0 0.02178406 0.163606
v 0 0 1.220703E-06
v 0 0.6837353 1.220703E-06
v 0 0.6837353 0.15
v 0 0.6619513 0.163606
v 0 0.6837353 1.220703E-06
v 0 2.997001 1.220703E-06
v 2.349192 2.997 1.430511E-06
v 2.349192 2.997 0.1500001
v 0 2.997001 0.15
v 0 0 0.15
v 2.349192 -1.490116E-08 0.1500001
v 2.349192 -1.490116E-08 1.430511E-06
v 0 0 1.220703E-06
v 0 0 0.15
v 0 0.02178406 0.163606
v 2.349192 0.02178405 0.1636062
v 2.349192 -1.490116E-08 0.1500001
v 0 0.6619513 0.163606
v 0 0.6837353 0.15
v 2.349192 0.6837353 0.1500001
v 2.349192 0.6619513 0.1636062
v 2.349192 2.967843 0.1636062
v 0 2.967843 0.163606
v 0 2.997001 0.15
v 2.349192 2.997 0.1500001
v 2.349192 0.6619513 0.1636062
v 2.349192 0.02178405 0.1636062
v 0 0.02178406 0.163606
v 0 0.6619513 0.163606
v 2.349192 2.967843 0.1636062
v 2.349192 2.997 0.1500001
v 2.349192 2.997 1.430511E-06
v 2.349192 2.627215 0.1500001
v 2.349192 2.967843 0.1636062
v 2.349192 2.997 1.430511E-06
v 2.349192 2.627216 1.430511E-06
v 2.349192 2.627215 0.1500001
v 2.349192 2.647649 0.1636062
v 2.349192 2.967843 0.1636062
v 0 2.647649 0.163606
v 2.349192 2.647649 0.1636062
v 2.349192 2.627215 0.1500001
v 0 2.627215 0.15
v 2.349192 -1.490116E-08 1.430511E-06
v 2.349192 -1.490116E-08 0.1500001
v 2.349192 0.02178405 0.1636062
v 2.349192 -1.490116E-08 1.430511E-06
v 2.349192 0.02178405 0.1636062
v 2.349192 0.6619513 0.1636062
v 2.349192 0.6837353 1.430511E-06
v 2.349192 0.6619513 0.1636062
v 2.349192 0.6837353 0.1500001
v 2.349192 0.6837353 1.430511E-06
v 2.349192 0.6837353 0.1500001
v 2.349192 2.627216 1.430511E-06
v 2.349192 0.6837353 1.430511E-06
v 2.349192 2.627215 0.1500001
v 2.349192 0.6837353 0.1500001
v 0 0.6837353 0.15
v 0 2.627215 0.15
v 2.349192 2.627215 0.1500001
v 2.349192 2.647649 0.1636062
v 0 2.647649 0.163606
v 0 2.967843 0.163606
v 2.349192 2.967843 0.1636062
v 0 2.627216 1.220703E-06
v 0 2.647649 0.163606
v 0 2.627215 0.15
v 0 2.627216 1.220703E-06
v 0 2.967843 0.163606
v 0 2.647649 0.163606
v 0 2.997001 1.220703E-06
v 0 2.997001 1.220703E-06
v 0 2.997001 0.15
v 0 2.967843 0.163606
vt 0.06321388 0.1738738
vt 0.06321906 0.1738778
vt 0.06321176 0.1744826
vt 0.06320606 0.1744768
vt 0.06335107 0.1514068
vt 0.06335107 0.1514068
vt 0.06335107 0.1514068
vt 0.06335107 0.1514068
vt 0.06335107 0.1514068
vt 0.06335107 0.1514068
vt 0.06335106 0.1514068
vt 0.06335106 0.1514068
vt 0.06335107 0.1514068
vt 0.06335106 0.1514068
vt 0.06333995 0.1515106
vt 0.06333994 0.1515106
vt 0.06333994 0.1515106
vt 0.06333995 0.1515106
vt 0.06335107 0.1514068
vt 0.06335107 0.1514068
vt 0.06335107 0.1514068
vt 0.06335107 0.1514068
vt 0.06335107 0.1514068
vt 0.06335107 0.1514068
vt 0.06335107 0.1514068
vt 0.06335107 0.1514068
vt 0.06335107 0.1514068
vt 0.06335106 0.1514068
vt 0.06335107 0.1514068
vt 0.06335107 0.1514068
vt 0.06333994 0.1515106
vt 0.06333995 0.1515106
vt 0.06333995 0.1515106
vt 0.06333994 0.1515106
vt 0.06335107 0.1514068
vt 0.06335107 0.1514068
vt 0.06335107 0.1514068
vt 0.06335107 0.1514068
vt 0.06333994 0.1515106
vt 0.06333994 0.1515106
vt 0.06333994 0.1515106
vt 0.06335168 0.151471
vt 0.06333994 0.1515106
vt 0.06333994 0.1515106
vt 0.06335168 0.151471
vt 0.06335168 0.151471
vt 0.06333994 0.1515106
vt 0.06333994 0.1515106
vt 0.06333995 0.1515106
vt 0.06333994 0.1515106
vt 0.06333994 0.1515106
vt 0.06333995 0.1515106
vt 0.06290853 0.1746862
vt 0.06291276 0.1746926
vt 0.06291324 0.1746868
vt 0.06290853 0.1746862
vt 0.06291324 0.1746868
vt 0.06291491 0.1744988
vt 0.06291032 0.174486
vt 0.06291491 0.1744988
vt 0.06291455 0.1744918
vt 0.06291032 0.174486
vt 0.06291455 0.1744918
vt 0.06291568 0.1738801
vt 0.06291032 0.174486
vt 0.06291997 0.1738842
vt 0.06291455 0.1744918
vt 0.06321176 0.1744826
vt 0.06321906 0.1738778
vt 0.06291997 0.1738842
vt 0.06333994 0.1515106
vt 0.06333995 0.1515106
vt 0.06333995 0.1515106
vt 0.06333994 0.1515106
vt 0.06333995 0.1515106
vt 0.06333995 0.1515106
vt 0.06333995 0.1515106
vt 0.06333995 0.1515106
vt 0.06333995 0.1515106
vt 0.06333995 0.1515106
vt 0.06333995 0.1515106
vt 0.06333995 0.1515106
vt 0.06333995 0.1515106
vt 0.06333995 0.1515106
vn -1 0 0
vn -1 0 0
vn -1 0 0
vn -1 0 0
vn -1 0 0
vn -1 0 0
vn -1 0 0
vn -1 0 0
vn -1 0 0
vn -1 0 0
vn -1 0 0
vn -1 0 0
vn -1 0 0
vn -1 0 0
vn 1.014896E-07 1 0
vn 1.014896E-07 1 0
vn 1.014896E-07 1 0
vn 1.014896E-07 1 0
vn -6.343101E-09 -1 0
vn -6.343101E-09 -1 0
vn -6.343101E-09 -1 0
vn -6.343102E-09 -1 0
vn -5.879955E-08 -0.5297464 0.8481561
vn -7.657932E-08 -0.529745 0.848157
vn -5.879955E-08 -0.5297464 0.8481561
vn -4.101979E-08 -0.5297478 0.8481553
vn -5.648932E-08 0.5297474 0.8481555
vn -3.76596E-08 0.5297459 0.8481564
vn -5.648932E-08 0.5297474 0.8481555
vn -7.531904E-08 0.5297489 0.8481546
vn -1.743862E-08 0.422863 0.9061936
vn -3.755707E-08 0.4228617 0.9061942
vn -1.743862E-08 0.422863 0.9061936
vn 2.679828E-09 0.4228644 0.906193
vn -8.880343E-08 0 1
vn -8.880343E-08 0 1
vn -8.880343E-08 0 1
vn -8.880343E-08 0 1
vn 1 0 0
vn 1 0 0
vn 1 0 0
vn 1 0 0
vn 1 0 0
vn 1 0 0
vn 1 0 0
vn 1 0 0
vn 1 0 0
vn 1 0 0
vn -5.543742E-08 -0.5542325 0.8323619
vn -7.39165E-08 -0.554234 0.832361
vn -5.543742E-08 -0.5542325 0.8323619
vn -3.695834E-08 -0.554231 0.8323629
vn 1 0 0
vn 1 0 0
vn 1 0 0
vn 1 0 0
vn 1 0 0
vn 1 0 0
vn 1 0 0
vn 1 0 0
vn 1 0 0
vn 1 0 0
vn 1 0 0
vn 1 0 0
vn 1 0 0
vn 1 0 0
vn -4.440171E-08 0 1
vn -4.440171E-08 0 1
vn -4.440171E-08 0 1
vn -4.440171E-08 0 1
vn -8.880342E-08 0 1
vn -8.880343E-08 0 1
vn -8.880342E-08 0 1
vn -8.880342E-08 0 1
vn -1 0 0
vn -1 0 0
vn -1 0 0
vn -1 0 0
vn -1 0 0
vn -1 0 0
vn -1 0 0
vn -1 0 0
vn -1 0 0
vn -1 0 0
g pb_Mesh174018_0
f 7/7/7 6/6/6 5/5/5
f 14/14/14 13/13/13 12/12/12
f 41/41/41 40/40/40 39/39/39
f 48/48/48 47/47/47 46/46/46
f 55/55/55 54/54/54 53/53/53
f 62/62/62 61/61/61 60/60/60
f 77/77/77 76/76/76 75/75/75
f 84/84/84 83/83/83 82/82/82
f 3/3/3 2/2/2 1/1/1
f 4/4/4 3/3/3 1/1/1
f 10/10/10 9/9/9 8/8/8
f 11/11/11 10/10/10 8/8/8
f 17/17/17 16/16/16 15/15/15
f 18/18/18 17/17/17 15/15/15
f 21/21/21 20/20/20 19/19/19
f 22/22/22 21/21/21 19/19/19
f 25/25/25 24/24/24 23/23/23
f 26/26/26 25/25/25 23/23/23
f 29/29/29 28/28/28 27/27/27
f 30/30/30 29/29/29 27/27/27
f 33/33/33 32/32/32 31/31/31
f 34/34/34 33/33/33 31/31/31
f 37/37/37 36/36/36 35/35/35
f 38/38/38 37/37/37 35/35/35
f 44/44/44 43/43/43 42/42/42
f 45/45/45 44/44/44 42/42/42
f 51/51/51 50/50/50 49/49/49
f 52/52/52 51/51/51 49/49/49
f 58/58/58 57/57/57 56/56/56
f 59/59/59 58/58/58 56/56/56
f 65/65/65 64/64/64 63/63/63
f 64/64/64 66/66/66 63/63/63
f 69/69/69 68/68/68 67/67/67
f 70/70/70 69/69/69 67/67/67
f 73/73/73 72/72/72 71/71/71
f 74/74/74 73/73/73 71/71/71
f 80/80/80 79/79/79 78/78/78
f 79/79/79 81/81/81 78/78/78
