g pb_Mesh156968
v 1.514508 0.02178407 0.1636062
v 1.514508 0 0.1500001
v 1.514508 0 1.430511E-06
v 1.514508 0.6837353 0.1500001
v 1.514508 0.6619513 0.1636062
v 1.514508 0.6837353 1.430511E-06
v 2.499991 2.967843 0.163606
v 2.499991 2.997001 0.15
v 2.499991 2.997001 1.220703E-06
v 2.499991 2.627215 0.15
v 2.499991 2.647649 0.163606
v 2.499991 2.967843 0.163606
v 2.499991 0 1.220703E-06
v 2.499991 0 0.15
v 2.499991 0.02178406 0.163606
v 2.499991 0.6619513 0.163606
v 2.499991 0.6837353 0.15
v 2.499991 0.6837353 1.220703E-06
v 1.514508 2.627216 1.430511E-06
v 1.514508 2.647649 0.1636062
v 1.514508 2.627215 0.1500001
v 1.514508 2.997001 1.430511E-06
v 1.514508 2.997001 0.1500001
v 1.514508 2.967843 0.1636062
v 1.514508 2.627216 1.430511E-06
v 1.514508 2.627215 0.1500001
v 1.514508 0.6837353 0.1500001
v 1.514508 0.6837353 1.430511E-06
v 1.514508 0.6619513 0.1636062
v 1.514508 0.02178407 0.1636062
v 1.514508 0 1.430511E-06
v 1.514508 0.6619513 0.1636062
v 1.514508 0 1.430511E-06
v 1.514508 0.6837353 1.430511E-06
v 1.514508 2.997001 1.430511E-06
v 2.499991 2.997001 1.220703E-06
v 2.499991 2.997001 0.15
v 1.514508 2.997001 1.430511E-06
v 2.499991 2.997001 0.15
v 1.514508 2.997001 0.1500001
v 1.514508 0 0.1500001
v 2.499991 0 0.15
v 2.499991 0 1.220703E-06
v 1.514508 0 0.1500001
v 2.499991 0 1.220703E-06
v 1.514508 0 1.430511E-06
v 1.514508 0 0.1500001
v 1.514508 0.02178407 0.1636062
v 2.499991 0.02178406 0.163606
v 1.514508 0 0.1500001
v 2.499991 0.02178406 0.163606
v 2.499991 0 0.15
v 1.514508 0.6619513 0.1636062
v 1.514508 0.6837353 0.1500001
v 2.499991 0.6837353 0.15
v 1.514508 0.6619513 0.1636062
v 2.499991 0.6837353 0.15
v 2.499991 0.6619513 0.163606
v 2.499991 2.967843 0.163606
v 1.514508 2.967843 0.1636062
v 1.514508 2.997001 0.1500001
v 2.499991 2.967843 0.163606
v 1.514508 2.997001 0.1500001
v 2.499991 2.997001 0.15
v 2.499991 0.6619513 0.163606
v 2.499991 0.02178406 0.163606
v 1.514508 0.02178407 0.1636062
v 2.499991 0.6619513 0.163606
v 1.514508 0.02178407 0.1636062
v 1.514508 0.6619513 0.1636062
v 2.499991 2.627215 0.15
v 2.499991 2.967843 0.163606
v 2.499991 2.997001 1.220703E-06
v 2.499991 2.627215 0.15
v 2.499991 2.997001 1.220703E-06
v 2.499991 2.627216 1.220703E-06
v 1.514508 2.647649 0.1636062
v 2.499991 2.647649 0.163606
v 2.499991 2.627215 0.15
v 1.514508 2.647649 0.1636062
v 2.499991 2.627215 0.15
v 1.514508 2.627215 0.1500001
v 2.499991 0 1.220703E-06
v 2.499991 0.6619513 0.163606
v 2.499991 0.6837353 1.220703E-06
v 2.499991 0.6837353 0.15
v 2.499991 2.627216 1.220703E-06
v 2.499991 0.6837353 1.220703E-06
v 2.499991 2.627215 0.15
v 2.499991 0.6837353 0.15
v 1.514508 0.6837353 0.1500001
v 1.514508 2.627215 0.1500001
v 2.499991 2.627215 0.15
v 2.499991 2.647649 0.163606
v 1.514508 2.647649 0.1636062
v 1.514508 2.967843 0.1636062
v 2.499991 2.647649 0.163606
v 1.514508 2.967843 0.1636062
v 2.499991 2.967843 0.163606
v 1.514508 2.627216 1.430511E-06
v 1.514508 2.967843 0.1636062
v 1.514508 2.647649 0.1636062
v 1.514508 2.627216 1.430511E-06
v 1.514508 2.997001 1.430511E-06
v 1.514508 2.967843 0.1636062
vt 0.06335107 0.1514068
vt 0.06335107 0.1514068
vt 0.06335107 0.1514068
vt 0.06335106 0.1514068
vt 0.06335107 0.1514068
vt 0.06335106 0.1514068
vt 0.06333994 0.1515106
vt 0.06333994 0.1515106
vt 0.06333994 0.1515106
vt 0.06335168 0.151471
vt 0.06333994 0.1515106
vt 0.06333994 0.1515106
vt 0.06290853 0.1746862
vt 0.06291276 0.1746926
vt 0.06291324 0.1746868
vt 0.06291491 0.1744988
vt 0.06291455 0.1744918
vt 0.06291032 0.174486
vt 0.06333995 0.1515106
vt 0.06333995 0.1515106
vt 0.06333995 0.1515106
vt 0.06333995 0.1515106
vt 0.06333995 0.1515106
vt 0.06333995 0.1515106
vt 0.06321388 0.1738738
vt 0.06321906 0.1738778
vt 0.06321176 0.1744826
vt 0.06320606 0.1744768
vt 0.06335107 0.1514068
vt 0.06335107 0.1514068
vt 0.06335107 0.1514068
vt 0.06335107 0.1514068
vt 0.06335107 0.1514068
vt 0.06335106 0.1514068
vt 0.06333995 0.1515106
vt 0.06333994 0.1515106
vt 0.06333994 0.1515106
vt 0.06333995 0.1515106
vt 0.06333994 0.1515106
vt 0.06333995 0.1515106
vt 0.06335107 0.1514068
vt 0.06335107 0.1514068
vt 0.06335107 0.1514068
vt 0.06335107 0.1514068
vt 0.06335107 0.1514068
vt 0.06335107 0.1514068
vt 0.06335107 0.1514068
vt 0.06335107 0.1514068
vt 0.06335107 0.1514068
vt 0.06335107 0.1514068
vt 0.06335107 0.1514068
vt 0.06335107 0.1514068
vt 0.06335107 0.1514068
vt 0.06335106 0.1514068
vt 0.06335107 0.1514068
vt 0.06335107 0.1514068
vt 0.06335107 0.1514068
vt 0.06335107 0.1514068
vt 0.06333994 0.1515106
vt 0.06333995 0.1515106
vt 0.06333995 0.1515106
vt 0.06333994 0.1515106
vt 0.06333995 0.1515106
vt 0.06333994 0.1515106
vt 0.06335107 0.1514068
vt 0.06335107 0.1514068
vt 0.06335107 0.1514068
vt 0.06335107 0.1514068
vt 0.06335107 0.1514068
vt 0.06335107 0.1514068
vt 0.06335168 0.151471
vt 0.06333994 0.1515106
vt 0.06333994 0.1515106
vt 0.06335168 0.151471
vt 0.06333994 0.1515106
vt 0.06335168 0.151471
vt 0.06333995 0.1515106
vt 0.06333994 0.1515106
vt 0.06333994 0.1515106
vt 0.06333995 0.1515106
vt 0.06333994 0.1515106
vt 0.06333995 0.1515106
vt 0.06290853 0.1746862
vt 0.06291491 0.1744988
vt 0.06291032 0.174486
vt 0.06291455 0.1744918
vt 0.06291568 0.1738801
vt 0.06291032 0.174486
vt 0.06291997 0.1738842
vt 0.06291455 0.1744918
vt 0.06321176 0.1744826
vt 0.06321906 0.1738778
vt 0.06291997 0.1738842
vt 0.06333994 0.1515106
vt 0.06333995 0.1515106
vt 0.06333995 0.1515106
vt 0.06333994 0.1515106
vt 0.06333995 0.1515106
vt 0.06333994 0.1515106
vt 0.06333995 0.1515106
vt 0.06333995 0.1515106
vt 0.06333995 0.1515106
vt 0.06333995 0.1515106
vt 0.06333995 0.1515106
vt 0.06333995 0.1515106
vn -1 0 0
vn -1 0 0
vn -1 0 0
vn -1 0 0
vn -1 0 0
vn -1 0 0
vn 1 0 0
vn 1 0 0
vn 1 0 0
vn 1 0 0
vn 1 0 0
vn 1 0 0
vn 1 0 0
vn 1 0 0
vn 1 0 0
vn 1 0 0
vn 1 0 0
vn 1 0 0
vn -1 0 0
vn -1 0 0
vn -1 0 0
vn -1 0 0
vn -1 0 0
vn -1 0 0
vn -1 0 0
vn -1 0 0
vn -1 0 0
vn -1 0 0
vn -1 0 0
vn -1 0 0
vn -1 0 0
vn -1 0 0
vn -1 0 0
vn -1 0 0
vn 0 1 0
vn 0 1 0
vn 0 1 0
vn 0 1 0
vn 0 1 0
vn 0 1 0
vn 0 -1 0
vn 0 -1 0
vn 0 -1 0
vn 0 -1 0
vn 0 -1 0
vn 0 -1 0
vn 1.32156E-07 -0.5297464 0.8481561
vn 1.745391E-07 -0.5297478 0.8481552
vn 1.32156E-07 -0.5297464 0.8481561
vn 1.32156E-07 -0.5297464 0.8481561
vn 1.32156E-07 -0.5297464 0.8481561
vn 8.977289E-08 -0.529745 0.848157
vn 1.346591E-07 0.5297474 0.8481555
vn 8.977263E-08 0.5297489 0.8481546
vn 1.346591E-07 0.5297474 0.8481555
vn 1.346591E-07 0.5297474 0.8481555
vn 1.346591E-07 0.5297474 0.8481555
vn 1.795457E-07 0.5297459 0.8481565
vn 1.438736E-07 0.4228631 0.9061936
vn 1.918314E-07 0.4228644 0.906193
vn 1.438736E-07 0.4228631 0.9061936
vn 1.438736E-07 0.4228631 0.9061936
vn 1.438736E-07 0.4228631 0.9061936
vn 9.591582E-08 0.4228617 0.9061943
vn 2.116893E-07 0 1
vn 2.116893E-07 0 1
vn 2.116893E-07 0 1
vn 2.116893E-07 0 1
vn 2.116893E-07 0 1
vn 2.116893E-07 0 1
vn 1 0 0
vn 1 0 0
vn 1 0 0
vn 1 0 0
vn 1 0 0
vn 1 0 0
vn 1.321517E-07 -0.5542325 0.8323619
vn 1.762023E-07 -0.554231 0.8323629
vn 1.321517E-07 -0.5542325 0.8323619
vn 1.321517E-07 -0.5542325 0.8323619
vn 1.321517E-07 -0.5542325 0.8323619
vn 8.810096E-08 -0.554234 0.832361
vn 1 0 0
vn 1 0 0
vn 1 0 0
vn 1 0 0
vn 1 0 0
vn 1 0 0
vn 1 0 0
vn 1.058447E-07 0 1
vn 1.058447E-07 0 1
vn 1.058447E-07 0 1
vn 1.058447E-07 0 1
vn 2.116893E-07 0 1
vn 2.116893E-07 0 1
vn 2.116893E-07 0 1
vn 2.116893E-07 0 1
vn 2.116893E-07 0 1
vn 2.116893E-07 0 1
vn -1 0 0
vn -1 0 0
vn -1 0 0
vn -1 0 0
vn -1 0 0
vn -1 0 0
g pb_Mesh156968_0
f 3/3/3 2/2/2 1/1/1
f 6/6/6 5/5/5 4/4/4
f 9/9/9 8/8/8 7/7/7
f 12/12/12 11/11/11 10/10/10
f 15/15/15 14/14/14 13/13/13
f 18/18/18 17/17/17 16/16/16
f 21/21/21 20/20/20 19/19/19
f 24/24/24 23/23/23 22/22/22
f 27/27/27 26/26/26 25/25/25
f 28/28/28 27/27/27 25/25/25
f 31/31/31 30/30/30 29/29/29
f 34/34/34 33/33/33 32/32/32
f 37/37/37 36/36/36 35/35/35
f 40/40/40 39/39/39 38/38/38
f 43/43/43 42/42/42 41/41/41
f 46/46/46 45/45/45 44/44/44
f 49/49/49 48/48/48 47/47/47
f 52/52/52 51/51/51 50/50/50
f 55/55/55 54/54/54 53/53/53
f 58/58/58 57/57/57 56/56/56
f 61/61/61 60/60/60 59/59/59
f 64/64/64 63/63/63 62/62/62
f 67/67/67 66/66/66 65/65/65
f 70/70/70 69/69/69 68/68/68
f 73/73/73 72/72/72 71/71/71
f 76/76/76 75/75/75 74/74/74
f 79/79/79 78/78/78 77/77/77
f 82/82/82 81/81/81 80/80/80
f 84/84/84 15/15/15 83/83/83
f 85/85/85 84/84/84 83/83/83
f 88/88/88 87/87/87 86/86/86
f 87/87/87 89/89/89 86/86/86
f 92/92/92 91/91/91 90/90/90
f 93/93/93 92/92/92 90/90/90
f 96/96/96 95/95/95 94/94/94
f 99/99/99 98/98/98 97/97/97
f 102/102/102 101/101/101 100/100/100
f 105/105/105 104/104/104 103/103/103
