g pCube22
v -2.097626 -0.05 0.87119
v -1.916824 0.05 1.051992
v -1.916824 -0.05 1.051992
v -2.097626 0.05 0.87119
v -2.163805 -0.05 0.6242093
v -2.163805 0.05 0.6242093
v -2.163805 0.05 -0.6242095
v -2.163805 -0.05 -0.6242095
v -2.097626 -0.05 -0.8711901
v -2.097626 0.05 -0.8711901
v -1.916824 -0.05 -1.051993
v -1.916824 0.05 -1.051993
v -1.916824 -0.05 1.051992
v -1.916824 0.05 1.051992
v -1.669843 0.05 1.118171
v -1.669843 -0.05 1.118171
v 1.669843 -0.05 1.118171
v 1.669843 0.05 1.118171
v 1.916824 0.05 1.051992
v 1.916824 -0.05 1.051992
v 1.916824 -0.05 1.051992
v 1.916824 0.05 1.051992
v 2.097626 0.05 0.87119
v 2.097626 -0.05 0.87119
v 2.097626 -0.05 0.87119
v 2.097626 0.05 0.87119
v 2.163805 0.05 0.6242093
v 2.163805 -0.05 0.6242093
v 2.163805 -0.05 -0.6242095
v 2.163805 0.05 -0.6242095
v 2.097626 0.05 -0.8711901
v 2.097626 -0.05 -0.8711901
v -1.916824 0.05 -1.051993
v -1.916824 -0.05 -1.051993
v -1.669843 -0.05 -1.118171
v -1.669843 0.05 -1.118171
v 1.669843 0.05 -1.118171
v 1.669843 -0.05 -1.118171
v 1.916824 -0.05 -1.051993
v 1.916824 0.05 -1.051993
v 1.916824 0.05 -1.051993
v 1.916824 -0.05 -1.051993
v 2.097626 -0.05 -0.8711901
v 2.097626 0.05 -0.8711901
v -1.916824 0.05 -1.051993
v -1.669843 0.05 -1.118171
v 1.669843 0.05 -1.118171
v 1.916824 0.05 -1.051993
v -2.097626 0.05 -0.8711901
v 2.097626 0.05 -0.8711901
v -2.163805 0.05 -0.6242095
v 2.163805 0.05 -0.6242095
v -2.163805 0.05 0.6242093
v 2.163805 0.05 0.6242093
v -2.097626 0.05 0.87119
v 2.097626 0.05 0.87119
v -1.916824 0.05 1.051992
v 1.916824 0.05 1.051992
v -1.669843 0.05 1.118171
v 1.669843 0.05 1.118171
vt 0.01529211 0.3049557
vt 0.05707085 0.2644771
vt 0.05707085 0.2644771
vt 0.01529211 0.3049557
vt -5.960464E-08 0.3602505
vt -5.960464E-08 0.3602505
vt -5.960464E-08 0.63975
vt -5.960464E-08 0.63975
vt 0.01529211 0.6950448
vt 0.01529211 0.6950448
vt 0.05707085 0.7355233
vt 0.05707085 0.7355233
vt 0.05707085 0.2644771
vt 0.05707085 0.2644771
vt 0.1141418 0.249661
vt 0.1141418 0.249661
vt 0.8858581 0.249661
vt 0.8858581 0.249661
vt 0.9429289 0.2644771
vt 0.9429289 0.2644771
vt 0.9429289 0.2644771
vt 0.9429289 0.2644771
vt 0.9847078 0.3049557
vt 0.9847078 0.3049557
vt 0.9847078 0.3049557
vt 0.9847078 0.3049557
vt 0.9999999 0.3602505
vt 0.9999999 0.3602505
vt 0.9999999 0.63975
vt 0.9999999 0.63975
vt 0.9847078 0.6950448
vt 0.9847078 0.6950448
vt 0.05707085 0.7355233
vt 0.05707085 0.7355233
vt 0.1141418 0.7503394
vt 0.1141418 0.7503394
vt 0.8858581 0.7503394
vt 0.8858581 0.7503394
vt 0.9429289 0.7355233
vt 0.9429289 0.7355233
vt 0.9429289 0.7355233
vt 0.9429289 0.7355233
vt 0.9847078 0.6950448
vt 0.9847078 0.6950448
vt 0.05707085 0.7355233
vt 0.1141418 0.7503394
vt 0.8858581 0.7503394
vt 0.9429289 0.7355233
vt 0.01529211 0.6950448
vt 0.9847078 0.6950448
vt -5.960464E-08 0.63975
vt 0.9999999 0.63975
vt -5.960464E-08 0.3602505
vt 0.9999999 0.3602505
vt 0.01529211 0.3049557
vt 0.9847078 0.3049557
vt 0.05707085 0.2644771
vt 0.9429289 0.2644771
vt 0.1141418 0.249661
vt 0.8858581 0.249661
vn -0.8660254 0 0.5
vn -0.7071074 0 0.7071061
vn -0.7071074 0 0.7071061
vn -0.8660254 0 0.5
vn -0.9990222 0 0.04421146
vn -0.9990222 0 0.04421146
vn -0.9990222 0 -0.04421146
vn -0.9990222 0 -0.04421146
vn -0.8660254 0 -0.5
vn -0.8660254 0 -0.5
vn -0.7071074 0 -0.7071061
vn -0.7071074 0 -0.7071061
vn -0.2588185 0 0.9659259
vn -0.2588185 0 0.9659259
vn -0.018448 0 0.9998298
vn -0.018448 0 0.9998298
vn 0.018448 0 0.9998298
vn 0.018448 0 0.9998298
vn 0.2588185 0 0.9659259
vn 0.2588185 0 0.9659259
vn 0.7071066 0 0.7071069
vn 0.7071066 0 0.7071069
vn 0.7071066 0 0.7071069
vn 0.7071066 0 0.7071069
vn 0.9659259 0 0.2588186
vn 0.9659259 0 0.2588186
vn 0.9990222 0 0.04421121
vn 0.9990222 0 0.04421121
vn 0.9990222 0 -0.04421121
vn 0.9990222 0 -0.04421121
vn 0.9659259 0 -0.2588186
vn 0.9659259 0 -0.2588186
vn -0.2588185 0 -0.9659259
vn -0.2588185 0 -0.9659259
vn -0.018448 0 -0.9998298
vn -0.018448 0 -0.9998298
vn 0.018448 0 -0.9998298
vn 0.018448 0 -0.9998298
vn 0.2588185 0 -0.9659259
vn 0.2588185 0 -0.9659259
vn 0.7071066 0 -0.7071069
vn 0.7071066 0 -0.7071069
vn 0.7071066 0 -0.7071069
vn 0.7071066 0 -0.7071069
vn 0 1 0
vn 0 1 0
vn 0 1 0
vn 0 1 0
vn 0 1 0
vn 0 1 0
vn 0 1 0
vn 0 1 0
vn 0 1 0
vn 0 1 0
vn 0 1 0
vn 0 1 0
vn 0 1 0
vn 0 1 0
vn 0 1 0
vn 0 1 0
g pCube22_0
f 3/3/3 2/2/2 1/1/1
f 2/2/2 4/4/4 1/1/1
f 1/1/1 4/4/4 5/5/5
f 4/4/4 6/6/6 5/5/5
f 5/5/5 6/6/6 7/7/7
f 8/8/8 5/5/5 7/7/7
f 9/9/9 8/8/8 7/7/7
f 10/10/10 9/9/9 7/7/7
f 11/11/11 9/9/9 10/10/10
f 12/12/12 11/11/11 10/10/10
f 15/15/15 14/14/14 13/13/13
f 16/16/16 15/15/15 13/13/13
f 16/16/16 17/17/17 15/15/15
f 17/17/17 18/18/18 15/15/15
f 19/19/19 18/18/18 17/17/17
f 20/20/20 19/19/19 17/17/17
f 23/23/23 22/22/22 21/21/21
f 24/24/24 23/23/23 21/21/21
f 27/27/27 26/26/26 25/25/25
f 28/28/28 27/27/27 25/25/25
f 28/28/28 29/29/29 27/27/27
f 29/29/29 30/30/30 27/27/27
f 30/30/30 29/29/29 31/31/31
f 29/29/29 32/32/32 31/31/31
f 35/35/35 34/34/34 33/33/33
f 36/36/36 35/35/35 33/33/33
f 36/36/36 37/37/37 35/35/35
f 37/37/37 38/38/38 35/35/35
f 39/39/39 38/38/38 37/37/37
f 40/40/40 39/39/39 37/37/37
f 43/43/43 42/42/42 41/41/41
f 44/44/44 43/43/43 41/41/41
f 47/47/47 46/46/46 45/45/45
f 45/45/45 48/48/48 47/47/47
f 45/45/45 49/49/49 48/48/48
f 49/49/49 50/50/50 48/48/48
f 49/49/49 51/51/51 50/50/50
f 51/51/51 52/52/52 50/50/50
f 51/51/51 53/53/53 52/52/52
f 53/53/53 54/54/54 52/52/52
f 53/53/53 55/55/55 54/54/54
f 55/55/55 56/56/56 54/54/54
f 55/55/55 57/57/57 56/56/56
f 57/57/57 58/58/58 56/56/56
f 57/57/57 59/59/59 58/58/58
f 59/59/59 60/60/60 58/58/58
