g pCube5
v -0.2725075 -0.1272468 0.1927647
v -0.2703486 -0.1270057 -0.2345498
v -0.2107041 -0.06914136 -0.2430154
v -0.2090869 -0.06999585 0.2270104
v 0.2091296 -0.07025525 0.227386
v 0.210622 -0.06851728 -0.2423136
v 0.2703486 -0.1270057 -0.2345498
v 0.2725075 -0.1272468 0.1927647
v -0.131358 0.2555214 0.08920408
v -0.1299272 0.3198998 -0.1769225
v -0.07870977 0.3805183 -0.1708879
v -0.07875516 0.3121102 0.08551622
v 0.07957154 0.3808617 -0.172174
v 0.07875516 0.3121102 0.08551622
v 0.1299272 0.3198998 -0.1769225
v 0.131358 0.2555214 0.08920408
v 0.08257592 0.2520897 0.1468709
v 0.131358 0.2555214 0.08920408
v -0.08305851 0.2526497 0.1467075
v -0.131358 0.2555214 0.08920408
v 0.153712 -0.08143079 0.2897789
v -0.1515263 -0.08007428 0.2893826
v -0.2090869 -0.06999585 0.2270104
v -0.2107041 -0.06914136 -0.2430154
v -0.1299272 0.3198998 -0.1769225
v -0.2725075 -0.1272468 0.1927647
v -0.1711815 -0.1674339 0.3013521
v -0.2526375 -0.1818931 0.2756805
v 0.171312 -0.1673011 0.3013521
v 0.2725075 -0.1272468 0.1927647
v 0.2526375 -0.1818931 0.2756805
v 0.2091296 -0.07025525 0.227386
v 0.1299272 0.3198998 -0.1769225
v 0.210622 -0.06851728 -0.2423136
v 0.08226573 0.3300926 -0.2375645
v 0.210622 -0.06851728 -0.2423136
v 0.1299272 0.3198998 -0.1769225
v 0.1517037 -0.07883222 -0.3013521
v -0.08226573 0.3300926 -0.2375645
v -0.1541143 -0.08037793 -0.3013521
v -0.1299272 0.3198998 -0.1769225
v -0.2107041 -0.06914136 -0.2430154
v -0.1720643 -0.1665504 -0.3013521
v 0.1720342 -0.1665809 -0.3013521
v -0.257992 -0.1831825 -0.2956098
v -0.2703486 -0.1270057 -0.2345498
v 0.257992 -0.1831825 -0.2956098
v 0.2703486 -0.1270057 -0.2345498
v 0.1751886 -0.3211372 -0.3013521
v -0.1751504 -0.3210823 -0.3013521
v 0.259609 -0.3162849 -0.2953804
v 0.3765027 -0.1952766 -0.2787927
v 0.3729714 -0.1385017 -0.2193255
v 0.2703486 -0.1270057 -0.2345498
v 0.3765027 -0.3066719 -0.2787927
v 0.259734 -0.3761329 -0.235267
v 0.3755692 -0.3631569 -0.2215966
v 0.1751866 -0.3808616 -0.2415676
v -0.1752349 -0.3808616 -0.2416358
v -0.259609 -0.3162849 -0.2953804
v -0.259734 -0.3761329 -0.235267
v -0.3755692 -0.3631569 -0.2215966
v -0.3765027 -0.3066719 -0.2787927
v -0.3765027 -0.1952766 -0.2787927
v -0.2703486 -0.1270057 -0.2345498
v -0.375569 -0.1387916 -0.2215965
v 0.4319831 -0.2011482 -0.2148836
v 0.3768626 -0.1389366 0.0599774
v 0.3729714 -0.1385017 -0.2193255
v 0.4319831 -0.203112 0.03975054
v 0.4319831 -0.299311 0.04014669
v 0.4319831 -0.3008003 -0.2148836
v 0.3755692 -0.3631569 -0.2215966
v 0.3768627 -0.3630119 0.0599774
v 0.3929035 -0.3018363 0.1168101
v 0.3929035 -0.2001121 0.1168101
v 0.2725075 -0.1272468 0.1927647
v 0.2703486 -0.1270057 -0.2345498
v 0.3729714 -0.1385017 -0.2193255
v 0.2526375 -0.1818931 0.2756805
v 0.2535422 -0.3184898 0.2750187
v 0.2600891 -0.3760932 0.1978198
v 0.3755692 -0.3631569 -0.2215966
v 0.259734 -0.3761329 -0.235267
v 0.1751866 -0.3808616 -0.2415676
v 0.1753708 -0.3808616 0.2418276
v -0.1752349 -0.3808616 -0.2416358
v 0.1733213 -0.3214347 0.3013521
v 0.171312 -0.1673011 0.3013521
v -0.1733472 -0.3214698 0.3013521
v -0.1711815 -0.1674339 0.3013521
v -0.1751238 -0.3808616 0.2414788
v -0.259734 -0.3761329 -0.235267
v -0.2535422 -0.3184898 0.2750187
v -0.2526375 -0.1818931 0.2756805
v -0.2600891 -0.3760932 0.1978198
v -0.3929035 -0.3018363 0.1168101
v -0.3768627 -0.3630119 0.0599774
v -0.3755692 -0.3631569 -0.2215966
v -0.4319831 -0.2988365 0.03975054
v -0.3929035 -0.2001121 0.1168101
v -0.2535422 -0.3184898 0.2750187
v -0.4319831 -0.203112 0.03975054
v -0.3767932 -0.1389289 0.05994192
v -0.2725075 -0.1272468 0.1927647
v -0.375569 -0.1387916 -0.2215965
v -0.2703486 -0.1270057 -0.2345498
v -0.4319831 -0.3000694 -0.2141528
v -0.3755692 -0.3631569 -0.2215966
v -0.4319831 -0.203112 0.03975054
v -0.4319831 -0.2011482 -0.2148836
v -0.375569 -0.1387916 -0.2215965
v -0.3767932 -0.1389289 0.05994192
v -0.3929035 -0.2001121 0.1168101
v -0.1299272 0.3198998 -0.1769225
v -0.08226573 0.3300926 -0.2375645
v -0.07870977 0.3805183 -0.1708879
v 0.07957154 0.3808617 -0.172174
v 0.08226573 0.3300926 -0.2375645
v 0.1299272 0.3198998 -0.1769225
v 0.3765027 -0.1952766 -0.2787927
v 0.4319831 -0.2011482 -0.2148836
v 0.3729714 -0.1385017 -0.2193255
v 0.4319831 -0.3008003 -0.2148836
v 0.3765027 -0.3066719 -0.2787927
v 0.3755692 -0.3631569 -0.2215966
v -0.4319831 -0.2011482 -0.2148836
v -0.3765027 -0.1952766 -0.2787927
v -0.375569 -0.1387916 -0.2215965
v -0.3765027 -0.3066719 -0.2787927
v -0.4319831 -0.3000694 -0.2141528
v -0.3755692 -0.3631569 -0.2215966
vt 0.3186035 0
vt 0.1694336 0
vt 0.1629639 0.03341675
vt 0.3442383 0.03329468
vt 0.6557617 0.03311157
vt 0.8364258 0.03381348
vt 0.8305664 0
vt 0.6811523 0
vt 0.375 0.2695313
vt 0.375 0.4436035
vt 0.420166 0.4550781
vt 0.420166 0.2819824
vt 0.5805664 0.4558105
vt 0.5795898 0.2819824
vt 0.625 0.4499512
vt 0.625 0.2773438
vt 0.5771484 0.2191162
vt 0.6547852 0.2207031
vt 0.409668 0.2194824
vt 0.3452148 0.2207031
vt 0.5844727 0.02583313
vt 0.4089355 0.02671814
vt 0.3442383 0.03329468
vt 0.1629639 0.03341675
vt 0.1658936 0.2177734
vt 0.375 0.01350403
vt 0.4025879 0
vt 0.375 0
vt 0.5795898 0
vt 0.6118164 0.01300049
vt 0.625 0
vt 0.6557617 0.03311157
vt 0.8339844 0.2177734
vt 0.8364258 0.03381348
vt 0.590332 0.5351563
vt 0.625 0.7226563
vt 0.6235352 0.5405273
vt 0.590332 0.7280273
vt 0.4238281 0.5351563
vt 0.4145508 0.7290039
vt 0.376709 0.5405273
vt 0.375 0.7231445
vt 0.401123 0.75
vt 0.5986328 0.75
vt 0.375 0.75
vt 0.375 0.75
vt 0.625 0.75
vt 0.625 0.75
vt 0.6005859 0.75
vt 0.3994141 0.75
vt 0.625 0.75
vt 0.625 0.75
vt 0.625 0.8007813
vt 0.625 0.800293
vt 0.625 0.75
vt 0.625 0.800293
vt 0.625 0.7983398
vt 0.6005859 0.7807617
vt 0.3994141 0.7807617
vt 0.375 0.75
vt 0.375 0.800293
vt 0.375 0.7983398
vt 0.375 0.75
vt 0.375 0.75
vt 0.375 0.800293
vt 0.375 0.7983398
vt 0.625 0.7973633
vt 0.625 0.9643555
vt 0.625 0.8007813
vt 0.625 0.9589844
vt 0.625 0.9594727
vt 0.625 0.7973633
vt 0.625 0.7983398
vt 0.625 0.9643555
vt 0.625 1
vt 0.625 1
vt 0.625 0.9643555
vt 0.625 0.800293
vt 0.625 0.8007813
vt 0.625 1
vt 0.625 1
vt 0.625 0.9624023
vt 0.625 0.7983398
vt 0.625 0.800293
vt 0.6005859 0.7807617
vt 0.6005859 0.9692383
vt 0.3994141 0.7807617
vt 0.5996094 1
vt 0.5986328 1
vt 0.4003906 1
vt 0.4016113 1
vt 0.3994141 0.96875
vt 0.375 0.800293
vt 0.375 1
vt 0.375 1
vt 0.375 0.9624023
vt 0.375 1
vt 0.375 0.9643555
vt 0.375 0.7983398
vt 0.375 0.9589844
vt 0.375 1
vt 0.375 1
vt 0.375 0.9589844
vt 0.375 0.9643555
vt 0.375 0.9643555
vt 0.375 0.7983398
vt 0.375 0.800293
vt 0.375 0.7978516
vt 0.375 0.7983398
vt 0.375 0.9589844
vt 0.375 0.7973633
vt 0.375 0.7983398
vt 0.375 0.9643555
vt 0.375 1
vt 0.375 0.4436035
vt 0.4238281 0.5351563
vt 0.420166 0.4550781
vt 0.5805664 0.4558105
vt 0.590332 0.5351563
vt 0.625 0.4499512
vt 0.625 0.75
vt 0.625 0.7973633
vt 0.625 0.8007813
vt 0.625 0.7973633
vt 0.625 0.75
vt 0.625 0.7983398
vt 0.375 0.7973633
vt 0.375 0.75
vt 0.375 0.7983398
vt 0.375 0.75
vt 0.375 0.7978516
vt 0.375 0.7983398
vn -0.6162109 0.7573242 0.2150879
vn -0.6831055 0.7304688 0.0004794598
vn -0.6831055 0.7304688 0.0004794598
vn -0.8969727 0.3867188 0.2145996
vn 0.8974609 0.3864746 0.213623
vn 0.684082 0.7290039 0.001102448
vn 0.684082 0.7290039 0.001102448
vn 0.6186523 0.7563477 0.2139893
vn -0.9526367 0.2861328 0.1047363
vn -0.7402344 0.6523438 0.1636963
vn -0.2491455 0.9365234 0.24646
vn -0.2509766 0.9047852 0.3435059
vn 0.2504883 0.9360352 0.2467041
vn 0.251709 0.9047852 0.34375
vn 0.7426758 0.6489258 0.1640625
vn 0.9526367 0.2858887 0.1040649
vn 0.1650391 0.4558105 0.8745117
vn 0.9526367 0.2858887 0.1040649
vn -0.1652832 0.4555664 0.8745117
vn -0.9526367 0.2861328 0.1047363
vn 0.173584 0.3635254 0.9150391
vn -0.1724854 0.3635254 0.9155273
vn -0.8969727 0.3867188 0.2145996
vn -0.9755859 0.2183838 0.01959229
vn -0.9755859 0.2183838 0.01959229
vn -0.6162109 0.7573242 0.2150879
vn -0.1268311 0.102478 0.9868164
vn -0.6279297 0.1959229 0.753418
vn 0.1253662 0.1010742 0.9868164
vn 0.6186523 0.7563477 0.2139893
vn 0.6289063 0.1942139 0.7524414
vn 0.8974609 0.3864746 0.213623
vn 0.9755859 0.2185059 0.01971436
vn 0.9755859 0.2185059 0.01971436
vn 0.1695557 0.1837158 -0.9682617
vn 0.6508789 0.2966309 -0.6987305
vn 0.7246094 0.2410889 -0.6455078
vn 0.1798096 0.1677246 -0.9692383
vn -0.1693115 0.18396 -0.9682617
vn -0.180542 0.1679688 -0.9692383
vn -0.7285156 0.2431641 -0.640625
vn -0.6557617 0.2966309 -0.6943359
vn -0.07244873 0.05795288 -0.9956055
vn 0.07421875 0.06002808 -0.9956055
vn -0.2175293 0.2387695 -0.9462891
vn -0.342041 0.5478516 -0.7636719
vn 0.2198486 0.2416992 -0.9453125
vn 0.3449707 0.550293 -0.7602539
vn 0.01557922 -0.2746582 -0.9614258
vn -0.01556396 -0.2746582 -0.9614258
vn 0.1241455 -0.2927246 -0.9482422
vn 0.1652832 0.2866211 -0.9438477
vn 0.1745605 0.7119141 -0.6801758
vn 0.3449707 0.550293 -0.7602539
vn 0.1589355 -0.2976074 -0.9414063
vn 0.130127 -0.7036133 -0.6987305
vn 0.1584473 -0.7016602 -0.6948242
vn 0.01791382 -0.7070313 -0.7070313
vn -0.01792908 -0.7070313 -0.7070313
vn -0.1241455 -0.2927246 -0.9482422
vn -0.130127 -0.703125 -0.6987305
vn -0.1584473 -0.7016602 -0.6948242
vn -0.1589355 -0.2976074 -0.9414063
vn -0.1621094 0.2866211 -0.9443359
vn -0.342041 0.5478516 -0.7636719
vn -0.1669922 0.7055664 -0.6884766
vn 0.9370117 0.3493652 -0.00125885
vn 0.3564453 0.9316406 0.07385254
vn 0.7431641 0.6689453 -0.002410889
vn 0.9418945 0.3251953 0.08117676
vn 0.9433594 -0.3208008 0.08300781
vn 0.9379883 -0.3464355 0.0001094937
vn 0.7490234 -0.6625977 0.0002094507
vn 0.3391113 -0.9379883 0.07324219
vn 0.7719727 -0.2337646 0.5908203
vn 0.777832 0.2144775 0.5908203
vn 0.6186523 0.7563477 0.2139893
vn 0.1113281 0.9936523 -4.11272E-06
vn 0.1113281 0.9936523 -4.11272E-06
vn 0.6289063 0.1942139 0.7524414
vn 0.6064453 -0.2390137 0.7583008
vn 0.2279053 -0.9609375 0.1583252
vn 0.1113281 -0.9936523 0
vn 0.08300781 -0.996582 6.318092E-06
vn 0.01004791 -1 2.920628E-06
vn 0.019104 -0.9931641 0.1165771
vn -0.01004028 -1 6.496906E-06
vn 0.06121826 -0.2770996 0.9589844
vn 0.1253662 0.1010742 0.9868164
vn -0.06143188 -0.2770996 0.9589844
vn -0.1268311 0.102478 0.9868164
vn -0.01908875 -0.9931641 0.1164551
vn -0.08294678 -0.996582 1.651049E-05
vn -0.605957 -0.239502 0.7583008
vn -0.6279297 0.1959229 0.753418
vn -0.2279053 -0.9609375 0.1585693
vn -0.7724609 -0.2341309 0.590332
vn -0.3400879 -0.9375 0.07318115
vn -0.1113281 -0.9936523 0
vn -0.9433594 -0.3205566 0.08258057
vn -0.777832 0.2144775 0.590332
vn -0.605957 -0.239502 0.7583008
vn -0.9433594 0.3210449 0.08312988
vn -0.354248 0.9321289 0.07397461
vn -0.6162109 0.7573242 0.2150879
vn -0.1113281 0.9936523 4.053116E-06
vn -0.1113281 0.9936523 4.053116E-06
vn -0.9379883 -0.3461914 -6.192923E-05
vn -0.7519531 -0.6591797 -0.0001178384
vn -0.9433594 0.3210449 0.08312988
vn -0.9370117 0.3486328 0.0004656315
vn -0.75 0.6616211 0.0008831024
vn -0.354248 0.9321289 0.07397461
vn -0.777832 0.2144775 0.590332
vn -0.6704102 0.6083984 -0.4245605
vn -0.08746338 0.793457 -0.6025391
vn -0.08111572 0.793457 -0.6030273
vn 0.07611084 0.7924805 -0.6049805
vn 0.08154297 0.7924805 -0.6044922
vn 0.6782227 0.59375 -0.4331055
vn 0.7553711 0.1174316 -0.6450195
vn 0.7558594 0.102417 -0.6464844
vn 0.6450195 0.5717773 -0.5073242
vn 0.7558594 -0.09301758 -0.6479492
vn 0.7558594 -0.1068115 -0.6459961
vn 0.6591797 -0.5400391 -0.5229492
vn -0.7578125 0.09082031 -0.6459961
vn -0.7573242 0.1049805 -0.6445313
vn -0.6591797 0.5400391 -0.5229492
vn -0.7583008 -0.109314 -0.6425781
vn -0.7587891 -0.09405518 -0.6450195
vn -0.6669922 -0.5356445 -0.5180664
g pCube5_0
f 3/3/3 2/2/2 1/1/1
f 4/4/4 3/3/3 1/1/1
f 7/7/7 6/6/6 5/5/5
f 8/8/8 7/7/7 5/5/5
f 11/11/11 10/10/10 9/9/9
f 12/12/12 11/11/11 9/9/9
f 13/13/13 11/11/11 12/12/12
f 14/14/14 13/13/13 12/12/12
f 15/15/15 13/13/13 14/14/14
f 16/16/16 15/15/15 14/14/14
f 17/17/17 14/14/14 12/12/12
f 17/17/17 18/18/18 14/14/14
f 19/19/19 17/17/17 12/12/12
f 19/19/19 12/12/12 20/20/20
f 18/18/18 17/17/17 21/21/21
f 17/17/17 19/19/19 22/22/22
f 21/21/21 17/17/17 22/22/22
f 19/19/19 20/20/20 23/23/23
f 22/22/22 19/19/19 23/23/23
f 23/23/23 20/20/20 24/24/24
f 20/20/20 25/25/25 24/24/24
f 22/22/22 23/23/23 26/26/26
f 27/27/27 22/22/22 26/26/26
f 26/26/26 28/28/28 27/27/27
f 27/27/27 29/29/29 22/22/22
f 29/29/29 21/21/21 22/22/22
f 30/30/30 21/21/21 29/29/29
f 29/29/29 31/31/31 30/30/30
f 30/30/30 32/32/32 21/21/21
f 32/32/32 18/18/18 21/21/21
f 33/33/33 18/18/18 32/32/32
f 34/34/34 33/33/33 32/32/32
f 37/37/37 36/36/36 35/35/35
f 36/36/36 38/38/38 35/35/35
f 35/35/35 38/38/38 39/39/39
f 38/38/38 40/40/40 39/39/39
f 39/39/39 40/40/40 41/41/41
f 40/40/40 42/42/42 41/41/41
f 40/40/40 38/38/38 43/43/43
f 42/42/42 40/40/40 43/43/43
f 44/44/44 38/38/38 36/36/36
f 38/38/38 44/44/44 43/43/43
f 43/43/43 45/45/45 42/42/42
f 45/45/45 46/46/46 42/42/42
f 47/47/47 44/44/44 36/36/36
f 36/36/36 48/48/48 47/47/47
f 44/44/44 49/49/49 43/43/43
f 43/43/43 50/50/50 45/45/45
f 49/49/49 50/50/50 43/43/43
f 47/47/47 51/51/51 44/44/44
f 51/51/51 49/49/49 44/44/44
f 47/47/47 52/52/52 51/51/51
f 53/53/53 52/52/52 47/47/47
f 54/54/54 53/53/53 47/47/47
f 52/52/52 55/55/55 51/51/51
f 51/51/51 55/55/55 56/56/56
f 49/49/49 51/51/51 56/56/56
f 55/55/55 57/57/57 56/56/56
f 58/58/58 49/49/49 56/56/56
f 49/49/49 58/58/58 59/59/59
f 50/50/50 49/49/49 59/59/59
f 50/50/50 59/59/59 60/60/60
f 50/50/50 60/60/60 45/45/45
f 59/59/59 61/61/61 60/60/60
f 61/61/61 62/62/62 60/60/60
f 62/62/62 63/63/63 60/60/60
f 60/60/60 63/63/63 45/45/45
f 63/63/63 64/64/64 45/45/45
f 45/45/45 64/64/64 65/65/65
f 64/64/64 66/66/66 65/65/65
f 69/69/69 68/68/68 67/67/67
f 68/68/68 70/70/70 67/67/67
f 70/70/70 71/71/71 67/67/67
f 71/71/71 72/72/72 67/67/67
f 73/73/73 72/72/72 71/71/71
f 74/74/74 73/73/73 71/71/71
f 75/75/75 71/71/71 70/70/70
f 75/75/75 74/74/74 71/71/71
f 68/68/68 76/76/76 70/70/70
f 76/76/76 75/75/75 70/70/70
f 76/76/76 68/68/68 77/77/77
f 77/77/77 68/68/68 78/78/78
f 68/68/68 79/79/79 78/78/78
f 80/80/80 76/76/76 77/77/77
f 75/75/75 76/76/76 80/80/80
f 74/74/74 75/75/75 81/81/81
f 81/81/81 75/75/75 80/80/80
f 82/82/82 74/74/74 81/81/81
f 83/83/83 74/74/74 82/82/82
f 84/84/84 83/83/83 82/82/82
f 84/84/84 82/82/82 85/85/85
f 82/82/82 86/86/86 85/85/85
f 86/86/86 82/82/82 81/81/81
f 85/85/85 86/86/86 87/87/87
f 88/88/88 81/81/81 80/80/80
f 88/88/88 86/86/86 81/81/81
f 89/89/89 88/88/88 80/80/80
f 90/90/90 88/88/88 89/89/89
f 88/88/88 90/90/90 86/86/86
f 91/91/91 90/90/90 89/89/89
f 86/86/86 92/92/92 87/87/87
f 90/90/90 92/92/92 86/86/86
f 87/87/87 92/92/92 93/93/93
f 94/94/94 90/90/90 91/91/91
f 95/95/95 94/94/94 91/91/91
f 92/92/92 90/90/90 96/96/96
f 90/90/90 94/94/94 96/96/96
f 92/92/92 96/96/96 93/93/93
f 94/94/94 97/97/97 96/96/96
f 96/96/96 98/98/98 93/93/93
f 97/97/97 98/98/98 96/96/96
f 98/98/98 99/99/99 93/93/93
f 98/98/98 97/97/97 100/100/100
f 100/100/100 97/97/97 101/101/101
f 101/101/101 97/97/97 102/102/102
f 95/95/95 101/101/101 102/102/102
f 103/103/103 100/100/100 101/101/101
f 104/104/104 101/101/101 95/95/95
f 105/105/105 104/104/104 95/95/95
f 106/106/106 104/104/104 105/105/105
f 107/107/107 106/106/106 105/105/105
f 98/98/98 100/100/100 108/108/108
f 109/109/109 98/98/98 108/108/108
f 108/108/108 100/100/100 110/110/110
f 111/111/111 108/108/108 110/110/110
f 111/111/111 110/110/110 112/112/112
f 110/110/110 113/113/113 112/112/112
f 113/113/113 110/110/110 114/114/114
f 117/117/117 116/116/116 115/115/115
f 117/117/117 118/118/118 116/116/116
f 118/118/118 119/119/119 116/116/116
f 118/118/118 120/120/120 119/119/119
f 123/123/123 122/122/122 121/121/121
f 122/122/122 124/124/124 121/121/121
f 124/124/124 125/125/125 121/121/121
f 126/126/126 125/125/125 124/124/124
f 129/129/129 128/128/128 127/127/127
f 128/128/128 130/130/130 127/127/127
f 130/130/130 131/131/131 127/127/127
f 130/130/130 132/132/132 131/131/131
