g pCylinder9
v 1.342348 -0.07020991 -0.3778461
v 1.218367 -0.09061395 -0.7659894
v 1.184857 -0.1439373 -0.7420224
v 1.30542 -0.124754 -0.3679381
v 1.30542 -0.124754 -0.3679381
v 1.371587 -0.1178173 0.05489722
v 1.409671 -0.06321833 0.05228163
v 1.342348 -0.07020991 -0.3778461
v 1.218367 -0.09061395 -0.7659894
v 0.8958409 -0.1219525 -1.073963
v 0.8748853 -0.1739117 -1.037487
v 1.184857 -0.1439373 -0.7420224
v 0.8958409 -0.1219525 -1.073963
v 0.4862937 -0.1611523 -1.271482
v 0.4790722 -0.2121838 -1.229055
v 0.8748853 -0.1739117 -1.037487
v 0.4862937 -0.1611523 -1.271482
v 0.03492725 -0.2049175 -1.339642
v 0.04015464 -0.2546246 -1.295365
v 0.4790722 -0.2121838 -1.229055
v 0.03492725 -0.2049175 -1.339642
v -0.4168766 -0.2487682 -1.271786
v -0.3988511 -0.2970776 -1.229342
v 0.04015464 -0.2546246 -1.295365
v -0.4168766 -0.2487682 -1.271786
v -0.8246041 -0.2882794 -1.074224
v -0.7945802 -0.3353405 -1.037494
v -0.3988511 -0.2970776 -1.229342
v -0.8246041 -0.2882794 -1.074224
v -1.148265 -0.3196346 -0.7662724
v -1.106004 -0.3654552 -0.741074
v -0.7945802 -0.3353405 -1.037494
v -1.148265 -0.3196346 -0.7662724
v -1.298591 -0.3382916 -0.3780219
v -1.252172 -0.3846355 -0.3662003
v -1.106004 -0.3654552 -0.741074
v -1.298591 -0.3382916 -0.3780219
v -1.366003 -0.3452313 0.05228163
v -1.317887 -0.3914471 0.05330712
v -1.252172 -0.3846355 -0.3662003
v -1.366003 -0.3452313 0.05228163
v -1.314253 -0.3374722 0.482555
v -1.26809 -0.3845867 0.4737935
v -1.317887 -0.3914471 0.05330712
v -1.314253 -0.3374722 0.482555
v -1.184835 -0.3181347 0.9206935
v -1.145267 -0.3655468 0.8919472
v -1.26809 -0.3845867 0.4737935
v -1.184835 -0.3181347 0.9206935
v -0.8245958 -0.2885754 1.164253
v -0.8022325 -0.335957 1.12289
v -1.145267 -0.3655468 0.8919472
v -0.8245958 -0.2885754 1.164253
v -0.4168523 -0.2491528 1.282026
v -0.4037135 -0.2975475 1.238307
v -0.8022325 -0.335957 1.12289
v -0.4168523 -0.2491528 1.282026
v 0.03497163 -0.2053417 1.339642
v 0.04015464 -0.2546246 1.29496
v -0.4037135 -0.2975475 1.238307
v 0.03497163 -0.2053417 1.339642
v 0.4863611 -0.1615841 1.281776
v 0.4838608 -0.2117199 1.23796
v 0.04015464 -0.2546246 1.29496
v 0.4863611 -0.1615841 1.281776
v 0.8939229 -0.1221264 1.162314
v 0.8821606 -0.1733318 1.12069
v 0.4838608 -0.2117199 1.23796
v 0.8939229 -0.1221264 1.162314
v 1.252192 -0.08936273 0.9187264
v 1.22348 -0.1438946 0.8887635
v 0.8821606 -0.1733318 1.12069
v 1.252192 -0.08936273 0.9187264
v 1.381942 -0.06879084 0.4823497
v 1.346666 -0.1248654 0.4751377
v 1.22348 -0.1438946 0.8887635
v 1.381942 -0.06879084 0.4823497
v 1.409671 -0.06321833 0.05228163
v 1.371587 -0.1178173 0.05489722
v 1.346666 -0.1248654 0.4751377
v 1.342348 -0.07020991 -0.3778461
v 1.237907 0.3418567 -0.3606024
v 1.130534 0.3339649 -0.7330701
v 1.218367 -0.09061395 -0.7659894
v 0.8292604 0.3025394 -1.028663
v 0.8958409 -0.1219525 -1.073963
v 0.4216894 0.250661 -1.218444
v 0.4862937 -0.1611523 -1.271482
v -0.008754645 0.2104374 -1.283839
v 0.03492725 -0.2049175 -1.339642
v -0.444194 0.1875629 -1.218444
v -0.4168766 -0.2487682 -1.271786
v -0.8370098 0.1669285 -1.028662
v -0.8246041 -0.2882794 -1.074224
v -1.14875 0.1505497 -0.7330701
v -1.148265 -0.3196346 -0.7662724
v -1.267299 0.1360889 -0.3606023
v -1.298591 -0.3382916 -0.3780219
v -1.332224 0.1322681 0.05228163
v -1.366003 -0.3452313 0.05228163
v -1.267299 0.1360889 0.4651655
v -1.314253 -0.3374722 0.482555
v -1.14875 0.1505512 0.8875976
v -1.184835 -0.3181347 0.9206935
v -1.184835 -0.3181347 0.9206935
v -1.14875 0.1505512 0.8875976
v -0.8370095 0.1669285 1.125548
v -0.8245958 -0.2885754 1.164253
v -0.444194 0.1875629 1.236701
v -0.4168523 -0.2491528 1.282026
v -0.008754645 0.2104374 1.292219
v 0.03497163 -0.2053417 1.339642
v 0.4216892 0.250661 1.236701
v 0.4863611 -0.1615841 1.281776
v 0.8128796 0.2902546 1.123958
v 0.8939229 -0.1221264 1.162314
v 1.114152 0.32168 0.8860082
v 1.252192 -0.08936273 0.9187264
v 1.252192 -0.08936273 0.9187264
v 1.114152 0.32168 0.8860082
v 1.237906 0.3418567 0.4651654
v 1.381942 -0.06879084 0.4823497
v 1.302542 0.3488071 0.05228163
v 1.409671 -0.06321833 0.05228163
v 1.237907 0.3418567 -0.3606024
v 1.342348 -0.07020991 -0.3778461
v 1.237907 0.3418567 -0.3606024
v -0.01194894 0.2067676 0.157902
v 1.130534 0.3339649 -0.7330701
v 1.302542 0.3488071 0.05228163
v 0.8292604 0.3025394 -1.028663
v 1.237906 0.3418567 0.4651654
v 0.4216894 0.250661 -1.218444
v 1.114152 0.32168 0.8860082
v -0.008754645 0.2104374 -1.283839
v 0.8128796 0.2902546 1.123958
v -0.444194 0.1875629 -1.218444
v 0.4216892 0.250661 1.236701
v -0.8370098 0.1669285 -1.028662
v -0.008754645 0.2104374 1.292219
v -1.14875 0.1505497 -0.7330701
v -0.444194 0.1875629 1.236701
v -1.267299 0.1360889 -0.3606023
v -0.8370095 0.1669285 1.125548
v -1.332224 0.1322681 0.05228163
v -1.14875 0.1505512 0.8875976
v -1.267299 0.1360889 0.4651655
v 1.184857 -0.1439373 -0.7420224
v 0.04015464 -0.2546246 0.157902
v 1.30542 -0.124754 -0.3679381
v 0.8748853 -0.1739117 -1.037487
v 1.371587 -0.1178173 0.05489722
v 0.4790722 -0.2121838 -1.229055
v 1.346666 -0.1248654 0.4751377
v 0.04015464 -0.2546246 -1.295365
v 1.22348 -0.1438946 0.8887635
v -0.3988511 -0.2970776 -1.229342
v 0.8821606 -0.1733318 1.12069
v -0.7945802 -0.3353405 -1.037494
v 0.4838608 -0.2117199 1.23796
v -1.106004 -0.3654552 -0.741074
v 0.04015464 -0.2546246 1.29496
v -1.252172 -0.3846355 -0.3662003
v -0.4037135 -0.2975475 1.238307
v -1.317887 -0.3914471 0.05330712
v -0.8022325 -0.335957 1.12289
v -1.26809 -0.3845867 0.4737935
v -1.145267 -0.3655468 0.8919472
vt 0.375 0.3527832
vt 0.3874512 0.3515625
vt 0.387207 0.3171387
vt 0.375 0.3183594
vt 0.625 0.3183594
vt 0.612793 0.3186035
vt 0.6123047 0.3527832
vt 0.625 0.3527832
vt 0.3874512 0.3515625
vt 0.3999023 0.3515625
vt 0.3999023 0.3171387
vt 0.3879395 0.3171387
vt 0.3999023 0.3515625
vt 0.4125977 0.3527832
vt 0.4123535 0.3181152
vt 0.4001465 0.3181152
vt 0.4125977 0.3527832
vt 0.4250488 0.3527832
vt 0.4248047 0.3178711
vt 0.4125977 0.3178711
vt 0.4250488 0.3527832
vt 0.4375 0.3510742
vt 0.4372559 0.317627
vt 0.425293 0.317627
vt 0.4375 0.3510742
vt 0.4499512 0.3496094
vt 0.449707 0.3171387
vt 0.4377441 0.3171387
vt 0.4499512 0.3496094
vt 0.4624023 0.3486328
vt 0.4621582 0.3168945
vt 0.4501953 0.3168945
vt 0.4624023 0.3486328
vt 0.4750977 0.3493652
vt 0.4748535 0.3186035
vt 0.4628906 0.3183594
vt 0.4750977 0.3493652
vt 0.4875488 0.3491211
vt 0.4873047 0.3186035
vt 0.4750977 0.3188477
vt 0.4875488 0.3491211
vt 0.5 0.3498535
vt 0.5 0.3200684
vt 0.487793 0.3186035
vt 0.5 0.3498535
vt 0.5126953 0.3496094
vt 0.512207 0.3198242
vt 0.5 0.3198242
vt 0.5126953 0.3496094
vt 0.5249023 0.3493652
vt 0.5249023 0.3181152
vt 0.5131836 0.3181152
vt 0.5249023 0.3493652
vt 0.5375977 0.3505859
vt 0.5375977 0.3164063
vt 0.5253906 0.3164063
vt 0.5375977 0.3505859
vt 0.5498047 0.3522949
vt 0.5498047 0.3168945
vt 0.5375977 0.3166504
vt 0.5498047 0.3522949
vt 0.5625 0.3525391
vt 0.5625 0.3171387
vt 0.550293 0.3171387
vt 0.5625 0.3525391
vt 0.5751953 0.3525391
vt 0.574707 0.3168945
vt 0.5625 0.3173828
vt 0.5751953 0.3525391
vt 0.5874023 0.3535156
vt 0.5869141 0.3205566
vt 0.5751953 0.3198242
vt 0.5874023 0.3535156
vt 0.6000977 0.3537598
vt 0.5996094 0.3222656
vt 0.5878906 0.3222656
vt 0.6000977 0.3537598
vt 0.6123047 0.3527832
vt 0.6123047 0.3215332
vt 0.6000977 0.3222656
vt 0.375 0.3527832
vt 0.375 0.6884766
vt 0.3874512 0.6884766
vt 0.3874512 0.3515625
vt 0.3999023 0.6884766
vt 0.3999023 0.3515625
vt 0.4125977 0.6884766
vt 0.4125977 0.3527832
vt 0.4250488 0.6884766
vt 0.4250488 0.3527832
vt 0.4375 0.6884766
vt 0.4375 0.3510742
vt 0.4499512 0.6884766
vt 0.4499512 0.3496094
vt 0.4624023 0.6884766
vt 0.4624023 0.3486328
vt 0.4750977 0.6884766
vt 0.4750977 0.3493652
vt 0.4875488 0.6884766
vt 0.4875488 0.3491211
vt 0.5 0.6884766
vt 0.5 0.3498535
vt 0.5126953 0.6884766
vt 0.5126953 0.3496094
vt 0.5126953 0.3496094
vt 0.5126953 0.6884766
vt 0.5249023 0.6884766
vt 0.5249023 0.3493652
vt 0.5375977 0.6884766
vt 0.5375977 0.3505859
vt 0.5498047 0.6884766
vt 0.5498047 0.3522949
vt 0.5625 0.6884766
vt 0.5625 0.3525391
vt 0.5751953 0.6884766
vt 0.5751953 0.3525391
vt 0.5874023 0.6884766
vt 0.5874023 0.3535156
vt 0.5874023 0.3535156
vt 0.5874023 0.6884766
vt 0.6000977 0.6884766
vt 0.6000977 0.3537598
vt 0.6123047 0.6884766
vt 0.6123047 0.3527832
vt 0.625 0.6884766
vt 0.625 0.3527832
vt 0.6484375 0.8920898
vt 0.5 0.8374023
vt 0.6264648 0.9355469
vt 0.65625 0.84375
vt 0.5917969 0.9702148
vt 0.6484375 0.7954102
vt 0.5483398 0.9921875
vt 0.6264648 0.7519531
vt 0.5 1
vt 0.5917969 0.7172852
vt 0.4516602 0.9921875
vt 0.5483398 0.6953125
vt 0.4082031 0.9702148
vt 0.5 0.6875
vt 0.3735352 0.9355469
vt 0.4516602 0.6953125
vt 0.3513184 0.8920898
vt 0.4082031 0.7172852
vt 0.34375 0.84375
vt 0.3735352 0.7519531
vt 0.3513184 0.7954102
vt 0.621582 0.06689453
vt 0.5 0.1500244
vt 0.6430664 0.1086426
vt 0.5888672 0.03390503
vt 0.6503906 0.1558838
vt 0.546875 0.01248932
vt 0.6425781 0.2027588
vt 0.5 0.005081177
vt 0.621582 0.2438965
vt 0.4533691 0.0124588
vt 0.5893555 0.2766113
vt 0.4111328 0.03390503
vt 0.5473633 0.2980957
vt 0.3781738 0.0670166
vt 0.5 0.3056641
vt 0.3569336 0.1088867
vt 0.4528809 0.2980957
vt 0.3493652 0.1557617
vt 0.4106445 0.2766113
vt 0.3569336 0.2026367
vt 0.3779297 0.2440186
vn 0.7993164 -0.5771484 -0.1674805
vn 0.6889648 -0.6074219 -0.3952637
vn 0.6875 -0.6074219 -0.3974609
vn 0.7993164 -0.5771484 -0.1680908
vn 0.7993164 -0.5771484 -0.1680908
vn 0.824707 -0.5644531 -0.03735352
vn 0.824707 -0.5644531 -0.03857422
vn 0.7993164 -0.5771484 -0.1674805
vn 0.6889648 -0.6074219 -0.3952637
vn 0.4851074 -0.6220703 -0.6147461
vn 0.4841309 -0.6220703 -0.6157227
vn 0.6875 -0.6074219 -0.3974609
vn 0.4851074 -0.6220703 -0.6147461
vn 0.2814941 -0.6386719 -0.7158203
vn 0.2834473 -0.6386719 -0.715332
vn 0.4841309 -0.6220703 -0.6157227
vn 0.2814941 -0.6386719 -0.7158203
vn 0.06390381 -0.6601563 -0.7480469
vn 0.06481934 -0.6601563 -0.7480469
vn 0.2834473 -0.6386719 -0.715332
vn 0.06390381 -0.6601563 -0.7480469
vn -0.1541748 -0.684082 -0.7133789
vn -0.1536865 -0.6835938 -0.7133789
vn 0.06481934 -0.6601563 -0.7480469
vn -0.1541748 -0.684082 -0.7133789
vn -0.3554688 -0.7050781 -0.6132813
vn -0.3554688 -0.7050781 -0.6132813
vn -0.1536865 -0.6835938 -0.7133789
vn -0.3554688 -0.7050781 -0.6132813
vn -0.5439453 -0.7250977 -0.4223633
vn -0.5439453 -0.7250977 -0.4221191
vn -0.3554688 -0.7050781 -0.6132813
vn -0.5439453 -0.7250977 -0.4223633
vn -0.6621094 -0.722168 -0.199707
vn -0.6625977 -0.722168 -0.1984863
vn -0.5439453 -0.7250977 -0.4221191
vn -0.6621094 -0.722168 -0.199707
vn -0.6953125 -0.71875 -0.0123291
vn -0.6953125 -0.71875 -0.01207733
vn -0.6625977 -0.722168 -0.1984863
vn -0.6953125 -0.71875 -0.0123291
vn -0.6865234 -0.7084961 0.1646729
vn -0.6865234 -0.7084961 0.1638184
vn -0.6953125 -0.71875 -0.01207733
vn -0.6865234 -0.7084961 0.1646729
vn -0.5332031 -0.7216797 0.4411621
vn -0.5410156 -0.722168 0.4311523
vn -0.6865234 -0.7084961 0.1638184
vn -0.5332031 -0.7216797 0.4411621
vn -0.251709 -0.6958008 0.6728516
vn -0.2541504 -0.6958008 0.671875
vn -0.5410156 -0.722168 0.4311523
vn -0.251709 -0.6958008 0.6728516
vn -0.08233643 -0.6806641 0.7280273
vn -0.08300781 -0.6806641 0.7275391
vn -0.2541504 -0.6958008 0.671875
vn -0.08233643 -0.6806641 0.7280273
vn 0.06451416 -0.6669922 0.7421875
vn 0.06530762 -0.6669922 0.7421875
vn -0.08300781 -0.6806641 0.7275391
vn 0.06451416 -0.6669922 0.7421875
vn 0.2127686 -0.6494141 0.7299805
vn 0.2147217 -0.6494141 0.7294922
vn 0.06530762 -0.6669922 0.7421875
vn 0.2127686 -0.6494141 0.7299805
vn 0.3771973 -0.6308594 0.6782227
vn 0.3828125 -0.6298828 0.6757813
vn 0.2147217 -0.6494141 0.7294922
vn 0.3771973 -0.6308594 0.6782227
vn 0.4816895 -0.6103516 0.6289063
vn 0.4816895 -0.6103516 0.6289063
vn 0.3828125 -0.6298828 0.6757813
vn 0.8120117 -0.5424805 0.2163086
vn 0.824707 -0.5498047 0.1313477
vn 0.824707 -0.5498047 0.1325684
vn 0.8120117 -0.5424805 0.2163086
vn 0.824707 -0.5498047 0.1313477
vn 0.824707 -0.5644531 -0.03857422
vn 0.824707 -0.5644531 -0.03735352
vn 0.824707 -0.5498047 0.1325684
vn 0.9448242 0.2406006 -0.2215576
vn 0.9453125 0.2407227 -0.2207031
vn 0.8208008 0.215332 -0.5288086
vn 0.8188477 0.2149658 -0.5327148
vn 0.5473633 0.1812744 -0.8168945
vn 0.5444336 0.1810303 -0.8193359
vn 0.2746582 0.159668 -0.9482422
vn 0.2768555 0.1599121 -0.9472656
vn -0.01570129 0.1304932 -0.9912109
vn -0.01211548 0.1308594 -0.9912109
vn -0.3071289 0.09655762 -0.9467773
vn -0.3027344 0.09710693 -0.9482422
vn -0.5751953 0.06610107 -0.8154297
vn -0.5722656 0.06646729 -0.8173828
vn -0.8369141 0.05160522 -0.5454102
vn -0.8349609 0.05163574 -0.5478516
vn -0.96875 0.05990601 -0.2407227
vn -0.96875 0.06002808 -0.2398682
vn -0.996582 0.07904053 -0.009468079
vn -0.996582 0.07904053 -0.009437561
vn -0.9741211 0.09301758 0.2059326
vn -0.9741211 0.09289551 0.2050781
vn -0.9570313 0.09893799 0.2719727
vn -0.9570313 0.09893799 0.2719727
vn -0.5839844 0.07769775 0.8081055
vn -0.5839844 0.07769775 0.8081055
vn -0.4416504 0.07885742 0.8935547
vn -0.4421387 0.07885742 0.8935547
vn -0.2071533 0.0871582 0.9746094
vn -0.2062988 0.08728027 0.9746094
vn -0.01338196 0.111084 0.9936523
vn -0.01029968 0.1113892 0.9936523
vn 0.1854248 0.1340332 0.9736328
vn 0.1888428 0.1343994 0.9726563
vn 0.4143066 0.182373 0.8916016
vn 0.4230957 0.1845703 0.887207
vn 0.5615234 0.2182617 0.7983398
vn 0.5615234 0.2182617 0.7983398
vn 0.9018555 0.3266602 0.2822266
vn 0.9018555 0.3266602 0.2822266
vn 0.9291992 0.3115234 0.1992188
vn 0.9291992 0.3115234 0.1994629
vn 0.9619141 0.2729492 -0.02256775
vn 0.9619141 0.2731934 -0.02172852
vn 0.9453125 0.2407227 -0.2207031
vn 0.9448242 0.2406006 -0.2215576
vn -0.1054688 0.9946289 0.004852295
vn -0.07989502 0.996582 0.000790596
vn -0.1060181 0.9941406 0.006004333
vn -0.1074219 0.9941406 4.529953E-06
vn -0.1154785 0.9931641 -0.001674652
vn -0.109314 0.9941406 0.007728577
vn -0.1086426 0.9941406 -0.002531052
vn -0.1071777 0.9941406 0.008895874
vn -0.07269287 0.9975586 0.002380371
vn -0.1018066 0.9946289 0.0009307861
vn -0.05175781 0.9985352 0.002315521
vn -0.09741211 0.9951172 -0.001326561
vn -0.05108643 0.9985352 0.001995087
vn -0.07269287 0.9975586 -0.003025055
vn -0.05630493 0.9985352 0.008850098
vn -0.05181885 0.9985352 -0.002988815
vn -0.06039429 0.9980469 0.01016998
vn -0.05111694 0.9985352 -0.002475739
vn -0.05633545 0.9985352 2.163649E-05
vn -0.05603027 0.9985352 -0.01035309
vn -0.05844116 0.9980469 -0.009155273
vn 0.1015625 -0.9946289 0.006828308
vn 0.0980835 -0.9951172 -9.739399E-05
vn 0.1057129 -0.9941406 0.008728027
vn 0.09625244 -0.9951172 0
vn 0.1018066 -0.9946289 -0.005001068
vn 0.09625244 -0.9951172 0
vn 0.1019897 -0.9946289 -0.01309967
vn 0.09625244 -0.9951172 0
vn 0.09686279 -0.9951172 -0.006038666
vn 0.09625244 -0.9951172 0
vn 0.09210205 -0.9956055 0.003528595
vn 0.09625244 -0.9951172 0
vn 0.09606934 -0.9956055 6.383657E-05
vn 0.09985352 -0.9951172 -0.004611969
vn 0.09625244 -0.9951172 0
vn 0.102356 -0.9946289 -0.005680084
vn 0.09606934 -0.9956055 -6.395578E-05
vn 0.1000977 -0.9951172 0.00185585
vn 0.09210205 -0.9956055 -0.003541946
vn 0.1012573 -0.9946289 0.01000214
vn 0.09686279 -0.9951172 0.006034851
g pCylinder9_0
f 3/3/3 2/2/2 1/1/1
f 4/4/4 3/3/3 1/1/1
f 7/7/7 6/6/6 5/5/5
f 8/8/8 7/7/7 5/5/5
f 11/11/11 10/10/10 9/9/9
f 12/12/12 11/11/11 9/9/9
f 15/15/15 14/14/14 13/13/13
f 16/16/16 15/15/15 13/13/13
f 19/19/19 18/18/18 17/17/17
f 20/20/20 19/19/19 17/17/17
f 23/23/23 22/22/22 21/21/21
f 24/24/24 23/23/23 21/21/21
f 27/27/27 26/26/26 25/25/25
f 28/28/28 27/27/27 25/25/25
f 31/31/31 30/30/30 29/29/29
f 32/32/32 31/31/31 29/29/29
f 35/35/35 34/34/34 33/33/33
f 36/36/36 35/35/35 33/33/33
f 39/39/39 38/38/38 37/37/37
f 40/40/40 39/39/39 37/37/37
f 43/43/43 42/42/42 41/41/41
f 44/44/44 43/43/43 41/41/41
f 47/47/47 46/46/46 45/45/45
f 48/48/48 47/47/47 45/45/45
f 51/51/51 50/50/50 49/49/49
f 52/52/52 51/51/51 49/49/49
f 55/55/55 54/54/54 53/53/53
f 56/56/56 55/55/55 53/53/53
f 59/59/59 58/58/58 57/57/57
f 60/60/60 59/59/59 57/57/57
f 63/63/63 62/62/62 61/61/61
f 64/64/64 63/63/63 61/61/61
f 67/67/67 66/66/66 65/65/65
f 68/68/68 67/67/67 65/65/65
f 71/71/71 70/70/70 69/69/69
f 72/72/72 71/71/71 69/69/69
f 75/75/75 74/74/74 73/73/73
f 76/76/76 75/75/75 73/73/73
f 79/79/79 78/78/78 77/77/77
f 80/80/80 79/79/79 77/77/77
f 83/83/83 82/82/82 81/81/81
f 84/84/84 83/83/83 81/81/81
f 85/85/85 83/83/83 84/84/84
f 86/86/86 85/85/85 84/84/84
f 87/87/87 85/85/85 86/86/86
f 88/88/88 87/87/87 86/86/86
f 89/89/89 87/87/87 88/88/88
f 90/90/90 89/89/89 88/88/88
f 91/91/91 89/89/89 90/90/90
f 92/92/92 91/91/91 90/90/90
f 93/93/93 91/91/91 92/92/92
f 94/94/94 93/93/93 92/92/92
f 95/95/95 93/93/93 94/94/94
f 96/96/96 95/95/95 94/94/94
f 97/97/97 95/95/95 96/96/96
f 98/98/98 97/97/97 96/96/96
f 99/99/99 97/97/97 98/98/98
f 100/100/100 99/99/99 98/98/98
f 101/101/101 99/99/99 100/100/100
f 102/102/102 101/101/101 100/100/100
f 103/103/103 101/101/101 102/102/102
f 104/104/104 103/103/103 102/102/102
f 107/107/107 106/106/106 105/105/105
f 108/108/108 107/107/107 105/105/105
f 109/109/109 107/107/107 108/108/108
f 110/110/110 109/109/109 108/108/108
f 111/111/111 109/109/109 110/110/110
f 112/112/112 111/111/111 110/110/110
f 113/113/113 111/111/111 112/112/112
f 114/114/114 113/113/113 112/112/112
f 115/115/115 113/113/113 114/114/114
f 116/116/116 115/115/115 114/114/114
f 117/117/117 115/115/115 116/116/116
f 118/118/118 117/117/117 116/116/116
f 121/121/121 120/120/120 119/119/119
f 122/122/122 121/121/121 119/119/119
f 123/123/123 121/121/121 122/122/122
f 124/124/124 123/123/123 122/122/122
f 125/125/125 123/123/123 124/124/124
f 126/126/126 125/125/125 124/124/124
f 129/129/129 128/128/128 127/127/127
f 127/127/127 128/128/128 130/130/130
f 131/131/131 128/128/128 129/129/129
f 130/130/130 128/128/128 132/132/132
f 133/133/133 128/128/128 131/131/131
f 132/132/132 128/128/128 134/134/134
f 135/135/135 128/128/128 133/133/133
f 134/134/134 128/128/128 136/136/136
f 137/137/137 128/128/128 135/135/135
f 136/136/136 128/128/128 138/138/138
f 139/139/139 128/128/128 137/137/137
f 138/138/138 128/128/128 140/140/140
f 141/141/141 128/128/128 139/139/139
f 140/140/140 128/128/128 142/142/142
f 143/143/143 128/128/128 141/141/141
f 142/142/142 128/128/128 144/144/144
f 145/145/145 128/128/128 143/143/143
f 144/144/144 128/128/128 146/146/146
f 147/147/147 128/128/128 145/145/145
f 146/146/146 128/128/128 147/147/147
f 150/150/150 149/149/149 148/148/148
f 148/148/148 149/149/149 151/151/151
f 152/152/152 149/149/149 150/150/150
f 151/151/151 149/149/149 153/153/153
f 154/154/154 149/149/149 152/152/152
f 153/153/153 149/149/149 155/155/155
f 156/156/156 149/149/149 154/154/154
f 155/155/155 149/149/149 157/157/157
f 158/158/158 149/149/149 156/156/156
f 157/157/157 149/149/149 159/159/159
f 160/160/160 149/149/149 158/158/158
f 159/159/159 149/149/149 161/161/161
f 162/162/162 149/149/149 160/160/160
f 161/161/161 149/149/149 163/163/163
f 164/164/164 149/149/149 162/162/162
f 163/163/163 149/149/149 165/165/165
f 166/166/166 149/149/149 164/164/164
f 165/165/165 149/149/149 167/167/167
f 168/168/168 149/149/149 166/166/166
f 167/167/167 149/149/149 168/168/168
