g pCylinder5
v -0.2309432 0.6346404 0.1899383
v -0.300767 0.5386824 0.3604965
v -0.300767 0.6332579 0.1895242
v -0.2309432 0.5398619 0.3612842
v -0.300767 0.3913802 0.4961807
v -0.1385342 0.4984053 0.333541
v -0.1385342 0.5859084 0.1753529
v -0.1385342 0.3621154 0.4590797
v -0.2309432 0.3922347 0.4972649
v -0.300767 0.2057647 0.5832955
v -0.1385342 0.1903792 0.5396806
v -0.2309432 0.2062102 0.5845699
v -0.300767 1.060656E-05 0.6133131
v -0.1385342 1.060656E-05 0.5674536
v -0.2309432 9.080682E-06 0.6146532
v -0.300767 -0.2057465 0.5832953
v -0.1385342 -0.190358 0.5396804
v -0.2309432 -0.2061982 0.5845699
v -0.300767 -0.391359 0.4961807
v -0.1385342 -0.3620988 0.4590796
v -0.2309432 -0.3922181 0.4972648
v -0.300767 -0.5386658 0.3604963
v -0.1385342 -0.4983872 0.3335408
v -0.2309432 -0.5398423 0.361284
v -0.300767 -0.6332398 0.1895242
v -0.1385342 -0.5858918 0.1753528
v -0.2309432 -0.6346253 0.1899382
v -0.300767 -0.6658295 1.274152E-08
v -0.1385342 -0.6160432 2.466244E-08
v -0.2309432 -0.6672868 1.274152E-08
v -0.300767 -0.6332398 -0.1895242
v -0.1385342 -0.5858918 -0.1753528
v -0.2309432 -0.6346253 -0.1899382
v -0.300767 -0.5386658 -0.3604963
v -0.1385342 -0.4983872 -0.3335408
v -0.2309432 -0.5398423 -0.361284
v -0.300767 -0.391359 -0.4961804
v -0.1385342 -0.3620988 -0.4590794
v -0.2309432 -0.3922181 -0.4972647
v -0.300767 -0.2057465 -0.5832952
v -0.1385342 -0.190358 -0.5396802
v -0.2309432 -0.2061982 -0.5845696
v -0.300767 1.060656E-05 -0.6133128
v -0.1385342 1.060656E-05 -0.5674533
v -0.2309432 9.080682E-06 -0.6146529
v -0.300767 0.2057647 -0.583295
v -0.1385342 0.1903792 -0.5396804
v -0.2309432 0.2062102 -0.5845696
v -0.300767 0.3913802 -0.4961804
v -0.1385342 0.3621154 -0.4590794
v -0.2309432 0.3922347 -0.4972647
v -0.300767 0.5386824 -0.3604964
v -0.1385342 0.4984053 -0.3335407
v -0.2309432 0.5398619 -0.361284
v -0.300767 0.6332579 -0.1895243
v -0.1385342 0.5859084 -0.1753528
v -0.2309434 0.6346404 -0.1899382
v -0.300767 0.6658477 1.796345E-07
v -0.1385342 0.6160613 2.466244E-08
v -0.2309432 0.6673018 1.274152E-08
v -0.300767 0.6332579 0.1895242
v -0.1385342 0.5859084 0.1753529
v -0.2309432 0.6346404 0.1899383
v -0.1222289 0.5568053 0.1666429
v -0.1222289 9.080682E-06 2.466244E-08
v -0.1222289 0.4736495 0.3169737
v -0.1222289 0.5854598 2.466244E-08
v -0.1222289 0.3441299 0.4362766
v -0.1222289 0.5568053 -0.1666428
v -0.1222289 0.1809219 0.5128741
v -0.1222289 0.4736495 -0.3169734
v -0.1222289 9.080682E-06 0.5392675
v -0.1222289 0.3441299 -0.4362764
v -0.1222289 -0.1809037 0.512874
v -0.1222289 0.1809219 -0.5128737
v -0.1222289 -0.3441148 0.4362766
v -0.1222289 9.080682E-06 -0.5392672
v -0.1222289 -0.4736314 0.3169735
v -0.1222289 -0.1809037 -0.5128738
v -0.1222289 -0.5567917 0.1666427
v -0.1222289 -0.3441148 -0.4362764
v -0.1222289 -0.5854447 2.466244E-08
v -0.1222289 -0.4736314 -0.3169735
v -0.1222289 -0.5567917 -0.1666427
v -0.1222289 0.5568053 0.1666429
v -0.1222289 0.4736495 0.3169737
v -0.1385342 0.4984053 0.333541
v -0.1385342 0.5859084 0.1753529
v -0.1385342 0.3621154 0.4590797
v -0.1222289 0.5854598 2.466244E-08
v -0.1222289 0.3441299 0.4362766
v -0.1385342 0.6160613 2.466244E-08
v -0.1385342 0.1903792 0.5396806
v -0.1222289 0.5568053 -0.1666428
v -0.1222289 0.1809219 0.5128741
v -0.1385342 0.5859084 -0.1753528
v -0.1385342 1.060656E-05 0.5674536
v -0.1222289 0.4736495 -0.3169734
v -0.1222289 9.080682E-06 0.5392675
v -0.1385342 0.4984053 -0.3335407
v -0.1385342 -0.190358 0.5396804
v -0.1222289 0.3441299 -0.4362764
v -0.1222289 -0.1809037 0.512874
v -0.1385342 0.3621154 -0.4590794
v -0.1385342 -0.3620988 0.4590796
v -0.1222289 0.1809219 -0.5128737
v -0.1222289 -0.3441148 0.4362766
v -0.1385342 0.1903792 -0.5396804
v -0.1385342 -0.4983872 0.3335408
v -0.1222289 9.080682E-06 -0.5392672
v -0.1222289 -0.4736314 0.3169735
v -0.1385342 1.060656E-05 -0.5674533
v -0.1385342 -0.5858918 0.1753528
v -0.1222289 -0.1809037 -0.5128738
v -0.1222289 -0.5567917 0.1666427
v -0.1385342 -0.190358 -0.5396802
v -0.1385342 -0.6160432 2.466244E-08
v -0.1222289 -0.3441148 -0.4362764
v -0.1222289 -0.5854447 2.466244E-08
v -0.1385342 -0.3620988 -0.4590794
v -0.1385342 -0.5858918 -0.1753528
v -0.1222289 -0.4736314 -0.3169735
v -0.1222289 -0.5567917 -0.1666427
v -0.1385342 -0.4983872 -0.3335408
v -0.300767 0.6332579 0.1895242
v -0.300767 0.5386824 0.3604965
v -0.3353748 0.4886397 0.3270056
v -0.3353748 0.5744277 0.1719172
v -0.300767 0.6658477 1.796345E-07
v -0.3353748 0.3550185 0.4500845
v -0.300767 0.3913802 0.4961807
v -0.3353748 9.080682E-06 8.205889E-10
v -0.3353748 0.6039885 5.014996E-07
v -0.3353748 0.1866485 0.529106
v -0.3353748 0.5744277 -0.1719172
v -0.300767 0.6332579 -0.1895243
v -0.300767 0.2057647 0.5832955
v -0.300767 0.5386824 -0.3604964
v -0.3353748 9.080682E-06 0.5563351
v -0.300767 1.060656E-05 0.6133131
v -0.3353748 0.4886397 -0.3270057
v -0.300767 0.3913802 -0.4961804
v -0.3353748 -0.1866334 0.529106
v -0.300767 -0.2057465 0.5832953
v -0.3353748 0.3550185 -0.4500842
v -0.300767 0.2057647 -0.583295
v -0.3353748 -0.3550034 0.4500844
v -0.300767 -0.391359 0.4961807
v -0.3353748 0.1866485 -0.5291056
v -0.3353748 -0.4886231 0.3270055
v -0.3353748 9.080682E-06 -0.5563348
v -0.300767 1.060656E-05 -0.6133128
v -0.300767 -0.5386658 0.3604963
v -0.300767 -0.2057465 -0.5832952
v -0.3353748 -0.5744111 0.1719171
v -0.300767 -0.6332398 0.1895242
v -0.3353748 -0.1866334 -0.5291058
v -0.300767 -0.391359 -0.4961804
v -0.3353748 -0.6039734 8.205889E-10
v -0.300767 -0.6658295 1.274152E-08
v -0.3353748 -0.3550034 -0.4500843
v -0.300767 -0.5386658 -0.3604963
v -0.3353748 -0.5744111 -0.1719171
v -0.300767 -0.6332398 -0.1895242
v -0.3353748 -0.4886231 -0.3270054
vt 0.375 0.496582
vt 0.3874512 0.3125
vt 0.375 0.3125
vt 0.3874512 0.496582
vt 0.3999023 0.3125
vt 0.3874512 0.659668
vt 0.375 0.659668
vt 0.3999023 0.659668
vt 0.3999023 0.496582
vt 0.4125977 0.3125
vt 0.4125977 0.659668
vt 0.4125977 0.496582
vt 0.4250488 0.3125
vt 0.4250488 0.659668
vt 0.4250488 0.496582
vt 0.4375 0.3125
vt 0.4375 0.659668
vt 0.4375 0.496582
vt 0.4499512 0.3125
vt 0.4499512 0.659668
vt 0.4499512 0.496582
vt 0.4624023 0.3125
vt 0.4624023 0.659668
vt 0.4624023 0.496582
vt 0.4750977 0.3125
vt 0.4750977 0.659668
vt 0.4750977 0.496582
vt 0.4875488 0.3125
vt 0.4875488 0.659668
vt 0.4875488 0.496582
vt 0.5 0.3125
vt 0.5 0.659668
vt 0.5 0.496582
vt 0.5126953 0.3125
vt 0.5126953 0.659668
vt 0.5126953 0.496582
vt 0.5249023 0.3125
vt 0.5249023 0.659668
vt 0.5249023 0.496582
vt 0.5375977 0.3125
vt 0.5375977 0.659668
vt 0.5375977 0.496582
vt 0.5498047 0.3125
vt 0.5498047 0.659668
vt 0.5498047 0.496582
vt 0.5625 0.3125
vt 0.5625 0.659668
vt 0.5625 0.496582
vt 0.5751953 0.3125
vt 0.5751953 0.659668
vt 0.5751953 0.496582
vt 0.5874023 0.3125
vt 0.5874023 0.659668
vt 0.5874023 0.496582
vt 0.6000977 0.3125
vt 0.6000977 0.659668
vt 0.6000977 0.496582
vt 0.6123047 0.3125
vt 0.6123047 0.659668
vt 0.6123047 0.496582
vt 0.625 0.3125
vt 0.625 0.659668
vt 0.625 0.496582
vt 0.6435547 0.8901367
vt 0.5 0.8374023
vt 0.6220703 0.9321289
vt 0.6508789 0.84375
vt 0.5883789 0.965332
vt 0.6435547 0.796875
vt 0.5463867 0.9868164
vt 0.6220703 0.7548828
vt 0.5 0.9941406
vt 0.5883789 0.7216797
vt 0.4533691 0.9868164
vt 0.5463867 0.7001953
vt 0.411377 0.965332
vt 0.5 0.6928711
vt 0.3781738 0.9321289
vt 0.4533691 0.7001953
vt 0.3566895 0.8901367
vt 0.411377 0.7216797
vt 0.3493652 0.84375
vt 0.3781738 0.7548828
vt 0.3566895 0.796875
vt 0.6435547 0.8901367
vt 0.6220703 0.9321289
vt 0.6264648 0.9355469
vt 0.6484375 0.8920898
vt 0.5917969 0.9702148
vt 0.6508789 0.84375
vt 0.5883789 0.965332
vt 0.65625 0.84375
vt 0.5483398 0.9921875
vt 0.6435547 0.796875
vt 0.5463867 0.9868164
vt 0.6484375 0.7954102
vt 0.5 1
vt 0.6220703 0.7548828
vt 0.5 0.9941406
vt 0.6264648 0.7519531
vt 0.4516602 0.9921875
vt 0.5883789 0.7216797
vt 0.4533691 0.9868164
vt 0.5917969 0.7172852
vt 0.4082031 0.9702148
vt 0.5463867 0.7001953
vt 0.411377 0.965332
vt 0.5483398 0.6953125
vt 0.3735352 0.9355469
vt 0.5 0.6928711
vt 0.3781738 0.9321289
vt 0.5 0.6875
vt 0.3513184 0.8920898
vt 0.4533691 0.7001953
vt 0.3566895 0.8901367
vt 0.4516602 0.6953125
vt 0.34375 0.84375
vt 0.411377 0.7216797
vt 0.3493652 0.84375
vt 0.4082031 0.7172852
vt 0.3513184 0.7954102
vt 0.3781738 0.7548828
vt 0.3566895 0.796875
vt 0.3735352 0.7519531
vt 0.6484375 0.1079712
vt 0.6264648 0.06439209
vt 0.6054688 0.07873535
vt 0.6235352 0.1149902
vt 0.65625 0.15625
vt 0.5766602 0.04992676
vt 0.5917969 0.02984619
vt 0.5 0.1500244
vt 0.6303711 0.1551514
vt 0.5400391 0.03143311
vt 0.6235352 0.1954346
vt 0.6484375 0.2045898
vt 0.5483398 0.007648468
vt 0.6264648 0.2480469
vt 0.5 0.02507019
vt 0.5 -5.960464E-08
vt 0.6054688 0.2316895
vt 0.5917969 0.2827148
vt 0.4597168 0.03143311
vt 0.4516602 0.007648468
vt 0.5766602 0.260498
vt 0.5483398 0.3049316
vt 0.423584 0.04992676
vt 0.4082031 0.02984619
vt 0.5400391 0.2790527
vt 0.3947754 0.07873535
vt 0.5 0.2854004
vt 0.5 0.3125
vt 0.3735352 0.06439209
vt 0.4516602 0.3049316
vt 0.3762207 0.1149902
vt 0.3513184 0.1079712
vt 0.4597168 0.2790527
vt 0.4082031 0.2827148
vt 0.369873 0.1551514
vt 0.34375 0.15625
vt 0.423584 0.260498
vt 0.3735352 0.2480469
vt 0.3762207 0.1954346
vt 0.3513184 0.2045898
vt 0.3947754 0.2316895
vn 0.2802734 0.9057617 0.3181152
vn -0.02023315 0.784668 0.6191406
vn -0.0206604 0.9428711 0.3327637
vn 0.2751465 0.7563477 0.59375
vn -0.01971436 0.5561523 0.8310547
vn 0.473877 0.6894531 0.5478516
vn 0.4816895 0.8256836 0.293457
vn 0.4645996 0.4899902 0.737793
vn 0.269043 0.5371094 0.7993164
vn -0.01931763 0.2866211 0.9580078
vn 0.4575195 0.253418 0.8525391
vn 0.2644043 0.2775879 0.9233398
vn -0.01919556 0 1
vn 0.454834 0 0.890625
vn 0.2626953 0 0.9648438
vn -0.01934814 -0.2866211 0.9580078
vn 0.4575195 -0.253418 0.8525391
vn 0.2644043 -0.2775879 0.9233398
vn -0.01972961 -0.5561523 0.8310547
vn 0.4645996 -0.4899902 0.737793
vn 0.269043 -0.5371094 0.7993164
vn -0.02023315 -0.784668 0.6191406
vn 0.473877 -0.6894531 0.5478516
vn 0.2751465 -0.7563477 0.59375
vn -0.02067566 -0.9428711 0.3327637
vn 0.4816895 -0.8256836 0.293457
vn 0.2802734 -0.9057617 0.3181152
vn -0.02085876 -1 0
vn 0.4848633 -0.8745117 0
vn 0.2822266 -0.9594727 0
vn -0.02067566 -0.9428711 -0.3327637
vn 0.4816895 -0.8256836 -0.293457
vn 0.2802734 -0.9057617 -0.3181152
vn -0.02023315 -0.784668 -0.6191406
vn 0.473877 -0.6894531 -0.5478516
vn 0.2751465 -0.7563477 -0.59375
vn -0.01972961 -0.5561523 -0.8310547
vn 0.4645996 -0.4899902 -0.737793
vn 0.269043 -0.5371094 -0.7993164
vn -0.01933289 -0.2866211 -0.9580078
vn 0.4575195 -0.253418 -0.8525391
vn 0.2644043 -0.2775879 -0.9233398
vn -0.01919556 2.086163E-06 -1
vn 0.454834 0 -0.890625
vn 0.2626953 0 -0.9648438
vn -0.01931763 0.2866211 -0.9580078
vn 0.4575195 0.253418 -0.8525391
vn 0.2644043 0.2775879 -0.9233398
vn -0.01971436 0.5561523 -0.8310547
vn 0.4645996 0.4899902 -0.737793
vn 0.269043 0.5371094 -0.7993164
vn -0.0202179 0.784668 -0.6191406
vn 0.473877 0.6894531 -0.5478516
vn 0.2751465 0.7563477 -0.59375
vn -0.0206604 0.9428711 -0.3327637
vn 0.4816895 0.8256836 -0.293457
vn 0.2802734 0.9057617 -0.3181152
vn -0.02081299 1 0
vn 0.4848633 0.8745117 0
vn 0.2822266 0.9594727 0
vn -0.0206604 0.9428711 0.3327637
vn 0.4816895 0.8256836 0.293457
vn 0.2802734 0.9057617 0.3181152
vn 1 0 0
vn 1 0 0
vn 1 0 0
vn 1 0 0
vn 1 0 0
vn 1 0 0
vn 1 0 0
vn 1 0 0
vn 1 0 0
vn 1 0 0
vn 1 0 0
vn 1 0 0
vn 1 0 0
vn 1 0 0
vn 1 0 0
vn 1 0 0
vn 1 0 0
vn 1 0 0
vn 1 0 0
vn 1 0 0
vn 1 0 0
vn 0.8808594 0.4458008 0.1593018
vn 0.8764648 0.3762207 0.3005371
vn 0.8764648 0.3798828 0.295166
vn 0.8808594 0.4470215 0.1552734
vn 0.871582 0.2756348 0.4057617
vn 0.8823242 0.4702148 0
vn 0.8710938 0.2705078 0.409668
vn 0.8823242 0.4702148 0
vn 0.8671875 0.1447754 0.4763184
vn 0.8808594 0.4458008 -0.1593018
vn 0.8671875 0.1411133 0.4777832
vn 0.8808594 0.4470215 -0.1552734
vn 0.8657227 2.205372E-06 0.5009766
vn 0.8764648 0.3762207 -0.3005371
vn 0.8657227 -2.205372E-06 0.5009766
vn 0.8764648 0.3798828 -0.295166
vn 0.8671875 -0.1447754 0.4763184
vn 0.8710938 0.2705078 -0.409668
vn 0.8671875 -0.1411133 0.4777832
vn 0.871582 0.2756348 -0.4057617
vn 0.871582 -0.2756348 0.4057617
vn 0.8671875 0.1411133 -0.4777832
vn 0.8710938 -0.2705078 0.409668
vn 0.8671875 0.1447754 -0.4763184
vn 0.8764648 -0.3798828 0.295166
vn 0.8657227 0 -0.5009766
vn 0.8764648 -0.3762207 0.3005371
vn 0.8657227 2.384186E-06 -0.5009766
vn 0.8808594 -0.4470215 0.1552734
vn 0.8671875 -0.1411133 -0.4777832
vn 0.8808594 -0.4458008 0.1593018
vn 0.8671875 -0.1447754 -0.4763184
vn 0.8823242 -0.4702148 0
vn 0.8710938 -0.2705078 -0.409668
vn 0.8823242 -0.4702148 0
vn 0.871582 -0.2756348 -0.4057617
vn 0.8808594 -0.4470215 -0.1552734
vn 0.8764648 -0.3762207 -0.3005371
vn 0.8808594 -0.4458008 -0.1593018
vn 0.8764648 -0.3798828 -0.295166
vn -0.8710938 0.4641113 0.1612549
vn -0.8666992 0.3942871 0.3061523
vn -0.9931641 0.09265137 0.07397461
vn -0.9931641 0.1100464 0.03930664
vn -0.8725586 0.4882813 0
vn -0.9926758 0.06646729 0.100647
vn -0.8608398 0.2858887 0.4208984
vn -1 0 0
vn -0.9931641 0.1161499 0
vn -0.9926758 0.03463745 0.1171875
vn -0.9931641 0.1100464 -0.03930664
vn -0.8710938 0.4641113 -0.1612549
vn -0.8564453 0.1500244 0.4938965
vn -0.8666992 0.3942871 -0.3061523
vn -0.9921875 0 0.1228027
vn -0.8544922 0 0.519043
vn -0.9931641 0.09265137 -0.07397461
vn -0.8608398 0.2858887 -0.4208984
vn -0.9926758 -0.03463745 0.1171875
vn -0.8564453 -0.1500244 0.4938965
vn -0.9926758 0.06646729 -0.100647
vn -0.8564453 0.1500244 -0.4938965
vn -0.9926758 -0.06646729 0.100647
vn -0.8608398 -0.2858887 0.4208984
vn -0.9926758 0.03463745 -0.1171875
vn -0.9931641 -0.09265137 0.07397461
vn -0.9921875 0 -0.1228027
vn -0.8544922 0 -0.519043
vn -0.8666992 -0.3942871 0.3061523
vn -0.8564453 -0.1500244 -0.4938965
vn -0.9931641 -0.1100464 0.03930664
vn -0.8710938 -0.4641113 0.1612549
vn -0.9926758 -0.03463745 -0.1171875
vn -0.8608398 -0.2858887 -0.4208984
vn -0.9931641 -0.1161499 0
vn -0.8725586 -0.4882813 0
vn -0.9926758 -0.06646729 -0.100647
vn -0.8666992 -0.3942871 -0.3061523
vn -0.9931641 -0.1100464 -0.03930664
vn -0.8710938 -0.4641113 -0.1612549
vn -0.9931641 -0.09265137 -0.07397461
g pCylinder5_0
f 3/3/3 2/2/2 1/1/1
f 2/2/2 4/4/4 1/1/1
f 2/2/2 5/5/5 4/4/4
f 4/4/4 6/6/6 1/1/1
f 6/6/6 7/7/7 1/1/1
f 8/8/8 6/6/6 4/4/4
f 5/5/5 9/9/9 4/4/4
f 9/9/9 8/8/8 4/4/4
f 5/5/5 10/10/10 9/9/9
f 11/11/11 8/8/8 9/9/9
f 10/10/10 12/12/12 9/9/9
f 12/12/12 11/11/11 9/9/9
f 10/10/10 13/13/13 12/12/12
f 14/14/14 11/11/11 12/12/12
f 13/13/13 15/15/15 12/12/12
f 15/15/15 14/14/14 12/12/12
f 13/13/13 16/16/16 15/15/15
f 17/17/17 14/14/14 15/15/15
f 16/16/16 18/18/18 15/15/15
f 18/18/18 17/17/17 15/15/15
f 16/16/16 19/19/19 18/18/18
f 20/20/20 17/17/17 18/18/18
f 19/19/19 21/21/21 18/18/18
f 21/21/21 20/20/20 18/18/18
f 19/19/19 22/22/22 21/21/21
f 23/23/23 20/20/20 21/21/21
f 22/22/22 24/24/24 21/21/21
f 24/24/24 23/23/23 21/21/21
f 22/22/22 25/25/25 24/24/24
f 26/26/26 23/23/23 24/24/24
f 25/25/25 27/27/27 24/24/24
f 27/27/27 26/26/26 24/24/24
f 25/25/25 28/28/28 27/27/27
f 29/29/29 26/26/26 27/27/27
f 28/28/28 30/30/30 27/27/27
f 30/30/30 29/29/29 27/27/27
f 28/28/28 31/31/31 30/30/30
f 32/32/32 29/29/29 30/30/30
f 31/31/31 33/33/33 30/30/30
f 33/33/33 32/32/32 30/30/30
f 31/31/31 34/34/34 33/33/33
f 35/35/35 32/32/32 33/33/33
f 34/34/34 36/36/36 33/33/33
f 36/36/36 35/35/35 33/33/33
f 34/34/34 37/37/37 36/36/36
f 38/38/38 35/35/35 36/36/36
f 37/37/37 39/39/39 36/36/36
f 39/39/39 38/38/38 36/36/36
f 37/37/37 40/40/40 39/39/39
f 41/41/41 38/38/38 39/39/39
f 40/40/40 42/42/42 39/39/39
f 42/42/42 41/41/41 39/39/39
f 40/40/40 43/43/43 42/42/42
f 44/44/44 41/41/41 42/42/42
f 43/43/43 45/45/45 42/42/42
f 45/45/45 44/44/44 42/42/42
f 43/43/43 46/46/46 45/45/45
f 47/47/47 44/44/44 45/45/45
f 46/46/46 48/48/48 45/45/45
f 48/48/48 47/47/47 45/45/45
f 46/46/46 49/49/49 48/48/48
f 50/50/50 47/47/47 48/48/48
f 49/49/49 51/51/51 48/48/48
f 51/51/51 50/50/50 48/48/48
f 49/49/49 52/52/52 51/51/51
f 53/53/53 50/50/50 51/51/51
f 52/52/52 54/54/54 51/51/51
f 54/54/54 53/53/53 51/51/51
f 52/52/52 55/55/55 54/54/54
f 56/56/56 53/53/53 54/54/54
f 55/55/55 57/57/57 54/54/54
f 57/57/57 56/56/56 54/54/54
f 55/55/55 58/58/58 57/57/57
f 59/59/59 56/56/56 57/57/57
f 58/58/58 60/60/60 57/57/57
f 60/60/60 59/59/59 57/57/57
f 60/60/60 58/58/58 61/61/61
f 62/62/62 59/59/59 60/60/60
f 63/63/63 60/60/60 61/61/61
f 63/63/63 62/62/62 60/60/60
f 66/66/66 65/65/65 64/64/64
f 64/64/64 65/65/65 67/67/67
f 68/68/68 65/65/65 66/66/66
f 67/67/67 65/65/65 69/69/69
f 70/70/70 65/65/65 68/68/68
f 69/69/69 65/65/65 71/71/71
f 72/72/72 65/65/65 70/70/70
f 71/71/71 65/65/65 73/73/73
f 74/74/74 65/65/65 72/72/72
f 73/73/73 65/65/65 75/75/75
f 76/76/76 65/65/65 74/74/74
f 75/75/75 65/65/65 77/77/77
f 78/78/78 65/65/65 76/76/76
f 77/77/77 65/65/65 79/79/79
f 80/80/80 65/65/65 78/78/78
f 79/79/79 65/65/65 81/81/81
f 82/82/82 65/65/65 80/80/80
f 81/81/81 65/65/65 83/83/83
f 84/84/84 65/65/65 82/82/82
f 83/83/83 65/65/65 84/84/84
f 87/87/87 86/86/86 85/85/85
f 88/88/88 87/87/87 85/85/85
f 87/87/87 89/89/89 86/86/86
f 85/85/85 90/90/90 88/88/88
f 89/89/89 91/91/91 86/86/86
f 90/90/90 92/92/92 88/88/88
f 89/89/89 93/93/93 91/91/91
f 92/92/92 90/90/90 94/94/94
f 93/93/93 95/95/95 91/91/91
f 96/96/96 92/92/92 94/94/94
f 93/93/93 97/97/97 95/95/95
f 96/96/96 94/94/94 98/98/98
f 97/97/97 99/99/99 95/95/95
f 100/100/100 96/96/96 98/98/98
f 97/97/97 101/101/101 99/99/99
f 100/100/100 98/98/98 102/102/102
f 101/101/101 103/103/103 99/99/99
f 104/104/104 100/100/100 102/102/102
f 101/101/101 105/105/105 103/103/103
f 104/104/104 102/102/102 106/106/106
f 105/105/105 107/107/107 103/103/103
f 108/108/108 104/104/104 106/106/106
f 105/105/105 109/109/109 107/107/107
f 108/108/108 106/106/106 110/110/110
f 109/109/109 111/111/111 107/107/107
f 112/112/112 108/108/108 110/110/110
f 109/109/109 113/113/113 111/111/111
f 112/112/112 110/110/110 114/114/114
f 113/113/113 115/115/115 111/111/111
f 116/116/116 112/112/112 114/114/114
f 113/113/113 117/117/117 115/115/115
f 116/116/116 114/114/114 118/118/118
f 117/117/117 119/119/119 115/115/115
f 120/120/120 116/116/116 118/118/118
f 117/117/117 121/121/121 119/119/119
f 120/120/120 118/118/118 122/122/122
f 121/121/121 123/123/123 119/119/119
f 124/124/124 120/120/120 122/122/122
f 124/124/124 122/122/122 123/123/123
f 121/121/121 124/124/124 123/123/123
f 127/127/127 126/126/126 125/125/125
f 128/128/128 127/127/127 125/125/125
f 125/125/125 129/129/129 128/128/128
f 127/127/127 130/130/130 126/126/126
f 130/130/130 131/131/131 126/126/126
f 128/128/128 132/132/132 127/127/127
f 127/127/127 132/132/132 130/130/130
f 129/129/129 133/133/133 128/128/128
f 133/133/133 132/132/132 128/128/128
f 130/130/130 132/132/132 134/134/134
f 130/130/130 134/134/134 131/131/131
f 135/135/135 132/132/132 133/133/133
f 133/133/133 129/129/129 136/136/136
f 135/135/135 133/133/133 136/136/136
f 134/134/134 137/137/137 131/131/131
f 135/135/135 136/136/136 138/138/138
f 134/134/134 139/139/139 137/137/137
f 134/134/134 132/132/132 139/139/139
f 139/139/139 140/140/140 137/137/137
f 141/141/141 135/135/135 138/138/138
f 141/141/141 132/132/132 135/135/135
f 141/141/141 138/138/138 142/142/142
f 139/139/139 143/143/143 140/140/140
f 139/139/139 132/132/132 143/143/143
f 143/143/143 144/144/144 140/140/140
f 145/145/145 141/141/141 142/142/142
f 145/145/145 132/132/132 141/141/141
f 145/145/145 142/142/142 146/146/146
f 143/143/143 147/147/147 144/144/144
f 143/143/143 132/132/132 147/147/147
f 147/147/147 148/148/148 144/144/144
f 149/149/149 145/145/145 146/146/146
f 149/149/149 132/132/132 145/145/145
f 147/147/147 132/132/132 150/150/150
f 147/147/147 150/150/150 148/148/148
f 151/151/151 132/132/132 149/149/149
f 149/149/149 146/146/146 152/152/152
f 151/151/151 149/149/149 152/152/152
f 150/150/150 153/153/153 148/148/148
f 151/151/151 152/152/152 154/154/154
f 150/150/150 155/155/155 153/153/153
f 150/150/150 132/132/132 155/155/155
f 155/155/155 156/156/156 153/153/153
f 157/157/157 151/151/151 154/154/154
f 157/157/157 132/132/132 151/151/151
f 157/157/157 154/154/154 158/158/158
f 155/155/155 159/159/159 156/156/156
f 155/155/155 132/132/132 159/159/159
f 159/159/159 160/160/160 156/156/156
f 161/161/161 157/157/157 158/158/158
f 161/161/161 132/132/132 157/157/157
f 161/161/161 158/158/158 162/162/162
f 159/159/159 163/163/163 160/160/160
f 159/159/159 132/132/132 163/163/163
f 163/163/163 164/164/164 160/160/160
f 165/165/165 162/162/162 164/164/164
f 165/165/165 161/161/161 162/162/162
f 165/165/165 132/132/132 161/161/161
f 163/163/163 132/132/132 165/165/165
f 163/163/163 165/165/165 164/164/164
