g pCylinder4
v 1.493634 0.02249281 -0.1529704
v 1.493634 0.07992385 0.1323559
v 1.395268 0.415164 0.06487877
v 1.395268 0.3577345 -0.2204476
v 1.235384 0.7247893 0.002557468
v 1.235384 0.6673598 -0.2827689
v 1.020761 0.9467741 -0.04212375
v 1.020761 0.8893446 -0.3274501
v 0.7620529 1.098532 -0.07266943
v 0.7620529 1.041102 -0.3579958
v 0.4708377 1.203077 -0.09371228
v 0.4708377 1.145646 -0.3790386
v 0.1592423 1.256479 -0.1044609
v 0.1592423 1.199048 -0.3897873
v -0.1592418 1.256479 -0.1044609
v -0.1592418 1.199048 -0.3897873
v -0.4708372 1.203077 -0.09371228
v -0.4708372 1.145646 -0.3790386
v -0.7620523 1.098532 -0.07266943
v -0.7620523 1.041102 -0.3579958
v -1.02076 0.9467741 -0.04212375
v -1.02076 0.8893446 -0.3274501
v -1.235383 0.7247893 0.002557468
v -1.235383 0.6673598 -0.2827689
v -1.395267 0.415164 0.06487877
v -1.395267 0.3577345 -0.2204476
v -1.493633 0.07992385 0.1323559
v -1.493633 0.02249281 -0.1529704
v -1.526892 -0.212488 0.1912125
v -1.526892 -0.2699175 -0.09411387
v 1.526891 -0.2699175 -0.09411387
v 1.526891 -0.212488 0.1912125
v 1.493634 0.07992385 0.1323559
v 1.493634 0.02249281 -0.1529704
v 1.473777 0.01864302 -0.1521954
v 1.376441 0.4079207 0.0663367
v 1.473777 0.07607406 0.1331309
v 1.376441 0.3504911 -0.2189896
v 1.218948 0.7134474 0.004840326
v 1.218948 0.6560179 -0.280486
v 1.00818 0.9313764 -0.03902435
v 1.00818 0.8739454 -0.3243507
v 0.7533513 1.080633 -0.0690669
v 0.7533513 1.023204 -0.3543932
v 0.4655967 1.183918 -0.08985604
v 0.4655967 1.126487 -0.3751824
v 0.1574935 1.236712 -0.1004823
v 0.1574935 1.179281 -0.3858086
v -0.157493 1.236712 -0.1004823
v -0.157493 1.179281 -0.3858086
v -0.4655963 1.183918 -0.08985604
v -0.4655963 1.126487 -0.3751824
v -0.7533507 1.080633 -0.0690669
v -0.7533507 1.023204 -0.3543932
v -1.00818 0.9313764 -0.03902435
v -1.00818 0.8739454 -0.3243507
v -1.218947 0.7134474 0.004840326
v -1.218947 0.6560179 -0.280486
v -1.37644 0.4079207 0.0663367
v -1.37644 0.3504911 -0.2189896
v -1.473776 0.07607406 0.1331309
v -1.473776 0.01864302 -0.1521954
v -1.506701 -0.2146822 0.1916543
v -1.506701 -0.2721132 -0.09367203
v 1.506701 -0.2721132 -0.09367203
v 1.473777 0.01864302 -0.1521954
v 1.473777 0.07607406 0.1331309
v 1.506701 -0.2146822 0.1916543
v 1.473777 0.01864302 -0.1521954
v 1.493634 0.02249281 -0.1529704
v 1.395268 0.3577345 -0.2204476
v 1.376441 0.3504911 -0.2189896
v 1.235384 0.6673598 -0.2827689
v 1.218948 0.6560179 -0.280486
v 1.020761 0.8893446 -0.3274501
v 1.00818 0.8739454 -0.3243507
v 0.7620529 1.041102 -0.3579958
v 0.7533513 1.023204 -0.3543932
v 0.4708377 1.145646 -0.3790386
v 0.4655967 1.126487 -0.3751824
v 0.1592423 1.199048 -0.3897873
v 0.1574935 1.179281 -0.3858086
v -0.1592418 1.199048 -0.3897873
v -0.157493 1.179281 -0.3858086
v -0.4708372 1.145646 -0.3790386
v -0.4655963 1.126487 -0.3751824
v -0.7620523 1.041102 -0.3579958
v -0.7533507 1.023204 -0.3543932
v -1.02076 0.8893446 -0.3274501
v -1.00818 0.8739454 -0.3243507
v -1.235383 0.6673598 -0.2827689
v -1.218947 0.6560179 -0.280486
v -1.395267 0.3577345 -0.2204476
v -1.37644 0.3504911 -0.2189896
v -1.493633 0.02249281 -0.1529704
v -1.473776 0.01864302 -0.1521954
v -1.526892 -0.2699175 -0.09411387
v -1.506701 -0.2721132 -0.09367203
v 1.376441 0.4079207 0.0663367
v 1.493634 0.07992385 0.1323559
v 1.473777 0.07607406 0.1331309
v 1.395268 0.415164 0.06487877
v 1.218948 0.7134474 0.004840326
v 1.235384 0.7247893 0.002557468
v 1.00818 0.9313764 -0.03902435
v 1.020761 0.9467741 -0.04212375
v 0.7533513 1.080633 -0.0690669
v 0.7620529 1.098532 -0.07266943
v 0.4655967 1.183918 -0.08985604
v 0.4708377 1.203077 -0.09371228
v 0.1574935 1.236712 -0.1004823
v 0.1592423 1.256479 -0.1044609
v -0.157493 1.236712 -0.1004823
v -0.1592418 1.256479 -0.1044609
v -0.4655963 1.183918 -0.08985604
v -0.4708372 1.203077 -0.09371228
v -0.7533507 1.080633 -0.0690669
v -0.7620523 1.098532 -0.07266943
v -1.00818 0.9313764 -0.03902435
v -1.02076 0.9467741 -0.04212375
v -1.218947 0.7134474 0.004840326
v -1.235383 0.7247893 0.002557468
v -1.37644 0.4079207 0.0663367
v -1.395267 0.415164 0.06487877
v -1.473776 0.07607406 0.1331309
v -1.493633 0.07992385 0.1323559
v -1.506701 -0.2146822 0.1916543
v -1.526892 -0.212488 0.1912125
v -1.506701 -0.2721132 -0.09367203
v -1.526892 -0.2699175 -0.09411387
v -1.526892 -0.212488 0.1912125
v -1.506701 -0.2146822 0.1916543
v 1.506701 -0.2721132 -0.09367203
v 1.526891 -0.2699175 -0.09411387
v 1.493634 0.02249281 -0.1529704
v 1.473777 0.01864302 -0.1521954
v 1.473777 0.07607406 0.1331309
v 1.493634 0.07992385 0.1323559
v 1.526891 -0.212488 0.1912125
v 1.506701 -0.2146822 0.1916543
v 1.506701 -0.2146822 0.1916543
v 1.526891 -0.212488 0.1912125
v 1.526891 -0.2699175 -0.09411387
v 1.506701 -0.2721132 -0.09367203
vt 0.375 0.3125
vt 0.375 0.6884766
vt 0.3833008 0.6884766
vt 0.3833008 0.3125
vt 0.3916016 0.6884766
vt 0.3916016 0.3125
vt 0.3999023 0.6884766
vt 0.3999023 0.3125
vt 0.4084473 0.6884766
vt 0.4084473 0.3125
vt 0.416748 0.6884766
vt 0.416748 0.3125
vt 0.4250488 0.6884766
vt 0.4250488 0.3125
vt 0.4333496 0.6884766
vt 0.4333496 0.3125
vt 0.4416504 0.6884766
vt 0.4416504 0.3125
vt 0.4499512 0.6884766
vt 0.4499512 0.3125
vt 0.458252 0.6884766
vt 0.458252 0.3125
vt 0.4665527 0.6884766
vt 0.4665527 0.3125
vt 0.4750977 0.6884766
vt 0.4750977 0.3125
vt 0.4833984 0.6884766
vt 0.4833984 0.3125
vt 0.4916992 0.6884766
vt 0.4916992 0.3125
vt 0.6166992 0.3125
vt 0.6166992 0.6884766
vt 0.625 0.6884766
vt 0.625 0.3125
vt 0.375 0.3125
vt 0.3833008 0.6884766
vt 0.375 0.6884766
vt 0.3833008 0.3125
vt 0.3916016 0.6884766
vt 0.3916016 0.3125
vt 0.3999023 0.6884766
vt 0.3999023 0.3125
vt 0.4084473 0.6884766
vt 0.4084473 0.3125
vt 0.416748 0.6884766
vt 0.416748 0.3125
vt 0.4250488 0.6884766
vt 0.4250488 0.3125
vt 0.4333496 0.6884766
vt 0.4333496 0.3125
vt 0.4416504 0.6884766
vt 0.4416504 0.3125
vt 0.4499512 0.6884766
vt 0.4499512 0.3125
vt 0.458252 0.6884766
vt 0.458252 0.3125
vt 0.4665527 0.6884766
vt 0.4665527 0.3125
vt 0.4750977 0.6884766
vt 0.4750977 0.3125
vt 0.4833984 0.6884766
vt 0.4833984 0.3125
vt 0.4916992 0.6884766
vt 0.4916992 0.3125
vt 0.6166992 0.3125
vt 0.625 0.3125
vt 0.625 0.6884766
vt 0.6166992 0.6884766
vt 0.375 0.3125
vt 0.375 0.3125
vt 0.3833008 0.3125
vt 0.3833008 0.3125
vt 0.3916016 0.3125
vt 0.3916016 0.3125
vt 0.3999023 0.3125
vt 0.3999023 0.3125
vt 0.4084473 0.3125
vt 0.4084473 0.3125
vt 0.416748 0.3125
vt 0.416748 0.3125
vt 0.4250488 0.3125
vt 0.4250488 0.3125
vt 0.4333496 0.3125
vt 0.4333496 0.3125
vt 0.4416504 0.3125
vt 0.4416504 0.3125
vt 0.4499512 0.3125
vt 0.4499512 0.3125
vt 0.458252 0.3125
vt 0.458252 0.3125
vt 0.4665527 0.3125
vt 0.4665527 0.3125
vt 0.4750977 0.3125
vt 0.4750977 0.3125
vt 0.4833984 0.3125
vt 0.4833984 0.3125
vt 0.4916992 0.3125
vt 0.4916992 0.3125
vt 0.3833008 0.6884766
vt 0.375 0.6884766
vt 0.375 0.6884766
vt 0.3833008 0.6884766
vt 0.3916016 0.6884766
vt 0.3916016 0.6884766
vt 0.3999023 0.6884766
vt 0.3999023 0.6884766
vt 0.4084473 0.6884766
vt 0.4084473 0.6884766
vt 0.416748 0.6884766
vt 0.416748 0.6884766
vt 0.4250488 0.6884766
vt 0.4250488 0.6884766
vt 0.4333496 0.6884766
vt 0.4333496 0.6884766
vt 0.4416504 0.6884766
vt 0.4416504 0.6884766
vt 0.4499512 0.6884766
vt 0.4499512 0.6884766
vt 0.458252 0.6884766
vt 0.458252 0.6884766
vt 0.4665527 0.6884766
vt 0.4665527 0.6884766
vt 0.4750977 0.6884766
vt 0.4750977 0.6884766
vt 0.4833984 0.6884766
vt 0.4833984 0.6884766
vt 0.4916992 0.6884766
vt 0.4916992 0.6884766
vt 0.4916992 0.3125
vt 0.4916992 0.3125
vt 0.4916992 0.6884766
vt 0.4916992 0.6884766
vt 0.6166992 0.3125
vt 0.6166992 0.3125
vt 0.625 0.3125
vt 0.625 0.3125
vt 0.625 0.6884766
vt 0.625 0.6884766
vt 0.6166992 0.6884766
vt 0.6166992 0.6884766
vt 0.6166992 0.6884766
vt 0.6166992 0.6884766
vt 0.6166992 0.3125
vt 0.6166992 0.3125
vn 0.9794922 0.1973877 -0.03973389
vn 0.9794922 0.1973877 -0.03973389
vn 0.9306641 0.3581543 -0.07208252
vn 0.9306641 0.3581543 -0.07208252
vn 0.8227539 0.5571289 -0.1121216
vn 0.8227539 0.5571289 -0.1121216
vn 0.6274414 0.7636719 -0.1536865
vn 0.6274414 0.7636719 -0.1536865
vn 0.4294434 0.8852539 -0.1782227
vn 0.4294434 0.8852539 -0.1782227
vn 0.2583008 0.9472656 -0.1906738
vn 0.2583008 0.9472656 -0.1906738
vn 0.08612061 0.9765625 -0.1965332
vn 0.08612061 0.9765625 -0.1965332
vn -0.08612061 0.9765625 -0.1965332
vn -0.08612061 0.9765625 -0.1965332
vn -0.2583008 0.9472656 -0.1906738
vn -0.2583008 0.9472656 -0.1906738
vn -0.4294434 0.8852539 -0.1782227
vn -0.4294434 0.8852539 -0.1782227
vn -0.6274414 0.7636719 -0.1536865
vn -0.6274414 0.7636719 -0.1536865
vn -0.8227539 0.5571289 -0.1121216
vn -0.8227539 0.5571289 -0.1121216
vn -0.9306641 0.3581543 -0.07208252
vn -0.9306641 0.3581543 -0.07208252
vn -0.9794922 0.1973877 -0.03973389
vn -0.9794922 0.1973877 -0.03973389
vn -0.9936523 0.1086426 -0.02186584
vn -0.9936523 0.1086426 -0.02186584
vn 0.9936523 0.1086426 -0.02186584
vn 0.9936523 0.1086426 -0.02186584
vn 0.9794922 0.1973877 -0.03973389
vn 0.9794922 0.1973877 -0.03973389
vn -0.9794922 -0.1970215 0.03964233
vn -0.9311523 -0.357666 0.07202148
vn -0.9794922 -0.1970215 0.03964233
vn -0.9311523 -0.357666 0.07202148
vn -0.8232422 -0.5566406 0.1119995
vn -0.8232422 -0.5566406 0.1119995
vn -0.6269531 -0.7636719 0.1536865
vn -0.6269531 -0.7636719 0.1536865
vn -0.4289551 -0.8857422 0.1782227
vn -0.4289551 -0.8857422 0.1782227
vn -0.2580566 -0.9472656 0.1906738
vn -0.2580566 -0.9472656 0.1906738
vn -0.08612061 -0.9765625 0.1965332
vn -0.08612061 -0.9765625 0.1965332
vn 0.08612061 -0.9765625 0.1965332
vn 0.08612061 -0.9765625 0.1965332
vn 0.2580566 -0.9472656 0.1906738
vn 0.2580566 -0.9472656 0.1906738
vn 0.4289551 -0.8857422 0.1782227
vn 0.4289551 -0.8857422 0.1782227
vn 0.6269531 -0.7636719 0.1536865
vn 0.6269531 -0.7636719 0.1536865
vn 0.8232422 -0.5566406 0.1119995
vn 0.8232422 -0.5566406 0.1119995
vn 0.9311523 -0.357666 0.07202148
vn 0.9311523 -0.357666 0.07202148
vn 0.9794922 -0.1970215 0.03964233
vn 0.9794922 -0.1970215 0.03964233
vn 0.9936523 -0.1081543 0.02177429
vn 0.9936523 -0.1081543 0.02177429
vn -0.9936523 -0.1081543 0.02177429
vn -0.9794922 -0.1970215 0.03964233
vn -0.9794922 -0.1970215 0.03964233
vn -0.9936523 -0.1081543 0.02177429
vn -2.145767E-06 -0.1972656 -0.9804688
vn -2.145767E-06 -0.1972656 -0.9804688
vn -2.086163E-06 -0.1972656 -0.9804688
vn -2.086163E-06 -0.1972656 -0.9804688
vn 0 -0.1972656 -0.9804688
vn 0 -0.1972656 -0.9804688
vn 3.159046E-06 -0.1972656 -0.9804688
vn 3.159046E-06 -0.1972656 -0.9804688
vn 2.205372E-06 -0.1972656 -0.9804688
vn 2.205372E-06 -0.1972656 -0.9804688
vn 0 -0.1973877 -0.9804688
vn 0 -0.1973877 -0.9804688
vn 0 -0.1973877 -0.9804688
vn 0 -0.1973877 -0.9804688
vn 0 -0.1973877 -0.9804688
vn 0 -0.1973877 -0.9804688
vn 0 -0.1973877 -0.9804688
vn 0 -0.1973877 -0.9804688
vn -2.563E-06 -0.1972656 -0.9804688
vn -2.563E-06 -0.1972656 -0.9804688
vn -3.278255E-06 -0.1972656 -0.9804688
vn -3.278255E-06 -0.1972656 -0.9804688
vn 0 -0.1972656 -0.9804688
vn 0 -0.1972656 -0.9804688
vn 0 -0.1972656 -0.9804688
vn 0 -0.1972656 -0.9804688
vn 2.145767E-06 -0.1972656 -0.9804688
vn 2.145767E-06 -0.1972656 -0.9804688
vn 0 -0.1972656 -0.9804688
vn 0 -0.1972656 -0.9804688
vn 0 0.1972656 0.9804688
vn 5.364418E-06 0.1972656 0.9804688
vn 5.364418E-06 0.1972656 0.9804688
vn 0 0.1972656 0.9804688
vn 0 0.1973877 0.9804688
vn 0 0.1973877 0.9804688
vn 0 0.1972656 0.9804688
vn 0 0.1972656 0.9804688
vn 0 0.1972656 0.9804688
vn 0 0.1972656 0.9804688
vn 0 0.1973877 0.9804688
vn 0 0.1973877 0.9804688
vn 0 0.1973877 0.9804688
vn 0 0.1973877 0.9804688
vn 0 0.1973877 0.9804688
vn 0 0.1973877 0.9804688
vn 0 0.1973877 0.9804688
vn 0 0.1973877 0.9804688
vn 0 0.1972656 0.9804688
vn 0 0.1972656 0.9804688
vn 0 0.1972656 0.9804688
vn 0 0.1972656 0.9804688
vn 0 0.1972656 0.9804688
vn 0 0.1972656 0.9804688
vn 0 0.1972656 0.9804688
vn 0 0.1972656 0.9804688
vn -5.364418E-06 0.1972656 0.9804688
vn -5.364418E-06 0.1972656 0.9804688
vn -7.629395E-06 0.1972656 0.9804688
vn -7.629395E-06 0.1972656 0.9804688
vn -0.1102295 -0.9746094 0.196167
vn -0.1102295 -0.9746094 0.196167
vn -0.1102295 -0.9746094 0.196167
vn -0.1102295 -0.9746094 0.196167
vn 0 -0.1972656 -0.9804688
vn 0 -0.1972656 -0.9804688
vn -2.145767E-06 -0.1972656 -0.9804688
vn -2.145767E-06 -0.1972656 -0.9804688
vn 5.364418E-06 0.1972656 0.9804688
vn 5.364418E-06 0.1972656 0.9804688
vn 7.56979E-06 0.1972656 0.9804688
vn 7.56979E-06 0.1972656 0.9804688
vn 0.1102295 -0.9746094 0.196167
vn 0.1102295 -0.9746094 0.196167
vn 0.1102295 -0.9746094 0.196167
vn 0.1102295 -0.9746094 0.196167
g pCylinder4_0
f 3/3/3 2/2/2 1/1/1
f 4/4/4 3/3/3 1/1/1
f 5/5/5 3/3/3 4/4/4
f 6/6/6 5/5/5 4/4/4
f 7/7/7 5/5/5 6/6/6
f 8/8/8 7/7/7 6/6/6
f 9/9/9 7/7/7 8/8/8
f 10/10/10 9/9/9 8/8/8
f 11/11/11 9/9/9 10/10/10
f 12/12/12 11/11/11 10/10/10
f 13/13/13 11/11/11 12/12/12
f 14/14/14 13/13/13 12/12/12
f 15/15/15 13/13/13 14/14/14
f 16/16/16 15/15/15 14/14/14
f 17/17/17 15/15/15 16/16/16
f 18/18/18 17/17/17 16/16/16
f 19/19/19 17/17/17 18/18/18
f 20/20/20 19/19/19 18/18/18
f 21/21/21 19/19/19 20/20/20
f 22/22/22 21/21/21 20/20/20
f 23/23/23 21/21/21 22/22/22
f 24/24/24 23/23/23 22/22/22
f 25/25/25 23/23/23 24/24/24
f 26/26/26 25/25/25 24/24/24
f 27/27/27 25/25/25 26/26/26
f 28/28/28 27/27/27 26/26/26
f 29/29/29 27/27/27 28/28/28
f 30/30/30 29/29/29 28/28/28
f 33/33/33 32/32/32 31/31/31
f 34/34/34 33/33/33 31/31/31
f 37/37/37 36/36/36 35/35/35
f 36/36/36 38/38/38 35/35/35
f 36/36/36 39/39/39 38/38/38
f 39/39/39 40/40/40 38/38/38
f 39/39/39 41/41/41 40/40/40
f 41/41/41 42/42/42 40/40/40
f 41/41/41 43/43/43 42/42/42
f 43/43/43 44/44/44 42/42/42
f 43/43/43 45/45/45 44/44/44
f 45/45/45 46/46/46 44/44/44
f 45/45/45 47/47/47 46/46/46
f 47/47/47 48/48/48 46/46/46
f 47/47/47 49/49/49 48/48/48
f 49/49/49 50/50/50 48/48/48
f 49/49/49 51/51/51 50/50/50
f 51/51/51 52/52/52 50/50/50
f 51/51/51 53/53/53 52/52/52
f 53/53/53 54/54/54 52/52/52
f 53/53/53 55/55/55 54/54/54
f 55/55/55 56/56/56 54/54/54
f 55/55/55 57/57/57 56/56/56
f 57/57/57 58/58/58 56/56/56
f 57/57/57 59/59/59 58/58/58
f 59/59/59 60/60/60 58/58/58
f 59/59/59 61/61/61 60/60/60
f 61/61/61 62/62/62 60/60/60
f 61/61/61 63/63/63 62/62/62
f 63/63/63 64/64/64 62/62/62
f 67/67/67 66/66/66 65/65/65
f 68/68/68 67/67/67 65/65/65
f 71/71/71 70/70/70 69/69/69
f 72/72/72 71/71/71 69/69/69
f 73/73/73 71/71/71 72/72/72
f 74/74/74 73/73/73 72/72/72
f 75/75/75 73/73/73 74/74/74
f 76/76/76 75/75/75 74/74/74
f 77/77/77 75/75/75 76/76/76
f 78/78/78 77/77/77 76/76/76
f 79/79/79 77/77/77 78/78/78
f 80/80/80 79/79/79 78/78/78
f 81/81/81 79/79/79 80/80/80
f 82/82/82 81/81/81 80/80/80
f 83/83/83 81/81/81 82/82/82
f 84/84/84 83/83/83 82/82/82
f 85/85/85 83/83/83 84/84/84
f 86/86/86 85/85/85 84/84/84
f 87/87/87 85/85/85 86/86/86
f 88/88/88 87/87/87 86/86/86
f 89/89/89 87/87/87 88/88/88
f 90/90/90 89/89/89 88/88/88
f 91/91/91 89/89/89 90/90/90
f 92/92/92 91/91/91 90/90/90
f 93/93/93 91/91/91 92/92/92
f 94/94/94 93/93/93 92/92/92
f 95/95/95 93/93/93 94/94/94
f 96/96/96 95/95/95 94/94/94
f 97/97/97 95/95/95 96/96/96
f 98/98/98 97/97/97 96/96/96
f 101/101/101 100/100/100 99/99/99
f 100/100/100 102/102/102 99/99/99
f 99/99/99 102/102/102 103/103/103
f 102/102/102 104/104/104 103/103/103
f 103/103/103 104/104/104 105/105/105
f 104/104/104 106/106/106 105/105/105
f 105/105/105 106/106/106 107/107/107
f 106/106/106 108/108/108 107/107/107
f 107/107/107 108/108/108 109/109/109
f 108/108/108 110/110/110 109/109/109
f 109/109/109 110/110/110 111/111/111
f 110/110/110 112/112/112 111/111/111
f 111/111/111 112/112/112 113/113/113
f 112/112/112 114/114/114 113/113/113
f 113/113/113 114/114/114 115/115/115
f 114/114/114 116/116/116 115/115/115
f 115/115/115 116/116/116 117/117/117
f 116/116/116 118/118/118 117/117/117
f 117/117/117 118/118/118 119/119/119
f 118/118/118 120/120/120 119/119/119
f 119/119/119 120/120/120 121/121/121
f 120/120/120 122/122/122 121/121/121
f 121/121/121 122/122/122 123/123/123
f 122/122/122 124/124/124 123/123/123
f 123/123/123 124/124/124 125/125/125
f 124/124/124 126/126/126 125/125/125
f 125/125/125 126/126/126 127/127/127
f 126/126/126 128/128/128 127/127/127
f 131/131/131 130/130/130 129/129/129
f 132/132/132 131/131/131 129/129/129
f 135/135/135 134/134/134 133/133/133
f 136/136/136 135/135/135 133/133/133
f 139/139/139 138/138/138 137/137/137
f 140/140/140 139/139/139 137/137/137
f 143/143/143 142/142/142 141/141/141
f 144/144/144 143/143/143 141/141/141
