g pCylinder2
v 1.71893 0.4963546 -0.2347429
v 2.151365E-07 -2.374588E-07 2.453051E-07
v 1.46221 0.944123 -0.4465078
v 1.807389 -2.374588E-07 2.453051E-07
v 1.062358 1.299474 -0.6145654
v 1.71893 -0.496355 0.2347431
v 0.5585145 1.527623 -0.7224649
v 1.462209 -0.9441229 0.4465079
v 2.151365E-07 1.606238 -0.7596446
v 1.062357 -1.299474 0.6145653
v -0.5585141 1.527623 -0.7224649
v 0.5585142 -1.527623 0.7224649
v -1.062357 1.299474 -0.6145653
v 1.614923E-07 -1.606238 0.7596445
v -1.462209 0.9441226 -0.4465077
v -0.558514 -1.527623 0.7224649
v -1.71893 0.4963544 -0.2347427
v -1.062357 -1.299474 0.6145655
v -1.80739 -2.374588E-07 2.453051E-07
v -1.462209 -0.944123 0.446508
v -1.71893 -0.496355 0.2347431
vt 0.8140333 0.6410283
vt 0.4322937 0.5009381
vt 0.7570207 0.7529216
vt 0.8336784 0.5169936
vt 0.6682217 0.8417206
vt 0.8140334 0.3929588
vt 0.5563282 0.8987331
vt 0.757021 0.2810654
vt 0.4322937 0.9183782
vt 0.668222 0.1922663
vt 0.308259 0.8987331
vt 0.5563284 0.1352538
vt 0.1963657 0.8417206
vt 0.4322937 0.1156087
vt 0.1075666 0.7529216
vt 0.3082589 0.1352538
vt 0.05055412 0.6410283
vt 0.1963656 0.1922664
vt 0.03090893 0.5169936
vt 0.1075666 0.2810655
vt 0.05055412 0.3929588
vn 0 0.4275322 0.904
vn 0 0.4275324 0.904
vn 0 0.4275324 0.904
vn 0 0.4275323 0.904
vn 0 0.4275326 0.904
vn 0 0.4275322 0.904
vn 0 0.4275326 0.904
vn 0 0.4275323 0.904
vn 0 0.4275325 0.904
vn 0 0.4275324 0.904
vn 0 0.4275324 0.904
vn 0 0.4275324 0.904
vn 0 0.4275324 0.904
vn 0 0.4275323 0.904
vn 0 0.4275326 0.904
vn 0 0.4275323 0.904
vn 0 0.4275327 0.904
vn 0 0.4275323 0.904
vn 0 0.4275322 0.9040002
vn 0 0.4275323 0.904
vn 0 0.4275322 0.904
g pCylinder2_0
f 3/3/3 2/2/2 1/1/1
f 1/1/1 2/2/2 4/4/4
f 5/5/5 2/2/2 3/3/3
f 4/4/4 2/2/2 6/6/6
f 7/7/7 2/2/2 5/5/5
f 6/6/6 2/2/2 8/8/8
f 9/9/9 2/2/2 7/7/7
f 8/8/8 2/2/2 10/10/10
f 11/11/11 2/2/2 9/9/9
f 10/10/10 2/2/2 12/12/12
f 13/13/13 2/2/2 11/11/11
f 12/12/12 2/2/2 14/14/14
f 15/15/15 2/2/2 13/13/13
f 14/14/14 2/2/2 16/16/16
f 17/17/17 2/2/2 15/15/15
f 16/16/16 2/2/2 18/18/18
f 19/19/19 2/2/2 17/17/17
f 18/18/18 2/2/2 20/20/20
f 21/21/21 2/2/2 19/19/19
f 20/20/20 2/2/2 21/21/21
