g pCylinder12
v 0.3277787 0.1932745 -0.07083281
v 0.3347611 0.1932745 -0.02577609
v 0.194944 0.33476 -0.004108613
v 0.1879616 0.33476 -0.04916524
v 0.1879616 0.33476 -0.04916524
v 0.194944 0.33476 -0.004108613
v 0.00395011 0.3865469 0.02548972
v -0.003032264 0.3865469 -0.01956691
v -0.003032264 0.3865469 -0.01956691
v 0.00395011 0.3865469 0.02548972
v -0.1870438 0.33476 0.05508786
v -0.1940262 0.33476 0.01003123
v -0.1940262 0.33476 0.01003123
v -0.1870438 0.33476 0.05508786
v -0.326861 0.1932745 0.07675514
v -0.3338434 0.1932745 0.03169842
v -0.3338434 0.1932745 0.03169842
v -0.326861 0.1932745 0.07675514
v -0.3780376 -9.748086E-07 0.08468618
v -0.3850201 5.510702E-07 0.03962956
v -0.3850201 5.510702E-07 0.03962956
v -0.3780376 -9.748086E-07 0.08468618
v -0.3268609 -0.1932749 0.07675534
v -0.3338434 -0.1932734 0.03169871
v -0.3338434 -0.1932734 0.03169871
v -0.3268609 -0.1932749 0.07675534
v -0.1870438 -0.3347605 0.05508786
v -0.1940262 -0.334759 0.01003113
v -0.1940262 -0.334759 0.01003113
v -0.1870438 -0.3347605 0.05508786
v 0.00395011 -0.3865488 0.02548953
v -0.003032312 -0.3865473 -0.0195672
v -0.003032312 -0.3865473 -0.0195672
v 0.00395011 -0.3865488 0.02548953
v 0.194944 -0.3347605 -0.004108613
v 0.1879615 -0.334759 -0.04916533
v 0.1879615 -0.334759 -0.04916533
v 0.194944 -0.3347605 -0.004108613
v 0.3347612 -0.1932749 -0.0257759
v 0.3277788 -0.1932734 -0.07083253
v 0.3277788 -0.1932734 -0.07083253
v 0.3347612 -0.1932749 -0.0257759
v 0.385938 -9.748086E-07 -0.03370675
v 0.3789555 5.510702E-07 -0.07876338
v 0.3789555 5.510702E-07 -0.07876338
v 0.385938 -9.748086E-07 -0.03370675
v 0.3347611 0.1932745 -0.02577609
v 0.3277787 0.1932745 -0.07083281
v 0.3277788 -0.1932734 -0.07083253
v 0.3789555 5.510702E-07 -0.07876338
v 0.3277787 0.1932745 -0.07083281
v 0.1879615 -0.334759 -0.04916533
v 0.1879616 0.33476 -0.04916524
v -0.003032264 0.3865469 -0.01956691
v -0.003032312 -0.3865473 -0.0195672
v -0.1940262 0.33476 0.01003123
v -0.1940262 -0.334759 0.01003113
v -0.3338434 0.1932745 0.03169842
v -0.3338434 -0.1932734 0.03169871
v -0.3850201 5.510702E-07 0.03962956
v 0.3347611 0.1932745 -0.02577609
v 0.385938 -9.748086E-07 -0.03370675
v 0.3347612 -0.1932749 -0.0257759
v 0.194944 -0.3347605 -0.004108613
v 0.194944 0.33476 -0.004108613
v 0.00395011 0.3865469 0.02548972
v 0.00395011 -0.3865488 0.02548953
v -0.1870438 0.33476 0.05508786
v -0.1870438 -0.3347605 0.05508786
v -0.326861 0.1932745 0.07675514
v -0.3268609 -0.1932749 0.07675534
v -0.3780376 -9.748086E-07 0.08468618
vt 0.375 0.3125
vt 0.375 0.6884766
vt 0.395752 0.6884766
vt 0.395752 0.3125
vt 0.395752 0.3125
vt 0.395752 0.6884766
vt 0.416748 0.6884766
vt 0.416748 0.3125
vt 0.416748 0.3125
vt 0.416748 0.6884766
vt 0.4375 0.6884766
vt 0.4375 0.3125
vt 0.4375 0.3125
vt 0.4375 0.6884766
vt 0.458252 0.6884766
vt 0.458252 0.3125
vt 0.458252 0.3125
vt 0.458252 0.6884766
vt 0.479248 0.6884766
vt 0.479248 0.3125
vt 0.479248 0.3125
vt 0.479248 0.6884766
vt 0.5 0.6884766
vt 0.5 0.3125
vt 0.5 0.3125
vt 0.5 0.6884766
vt 0.5209961 0.6884766
vt 0.5209961 0.3125
vt 0.5209961 0.3125
vt 0.5209961 0.6884766
vt 0.5415039 0.6884766
vt 0.5415039 0.3125
vt 0.5415039 0.3125
vt 0.5415039 0.6884766
vt 0.5625 0.6884766
vt 0.5625 0.3125
vt 0.5625 0.3125
vt 0.5625 0.6884766
vt 0.5834961 0.6884766
vt 0.5834961 0.3125
vt 0.5834961 0.3125
vt 0.5834961 0.6884766
vt 0.6040039 0.6884766
vt 0.6040039 0.3125
vt 0.6040039 0.3125
vt 0.6040039 0.6884766
vt 0.625 0.6884766
vt 0.625 0.3125
vt 0.6352539 0.234375
vt 0.65625 0.15625
vt 0.6352539 0.078125
vt 0.578125 0.2915039
vt 0.578125 0.02093506
vt 0.5 0
vt 0.5 0.3125
vt 0.421875 0.02093506
vt 0.421875 0.2915039
vt 0.3647461 0.078125
vt 0.3647461 0.234375
vt 0.34375 0.15625
vt 0.6352539 0.921875
vt 0.65625 0.84375
vt 0.6352539 0.765625
vt 0.578125 0.7084961
vt 0.578125 0.9790039
vt 0.5 1
vt 0.5 0.6875
vt 0.421875 0.9790039
vt 0.421875 0.7084961
vt 0.3647461 0.921875
vt 0.3647461 0.765625
vt 0.34375 0.84375
vn 0.6987305 0.7070313 -0.1082764
vn 0.6987305 0.7070313 -0.1082764
vn 0.6987305 0.7070313 -0.1082764
vn 0.6987305 0.7070313 -0.1082764
vn 0.2558594 0.9658203 -0.03961182
vn 0.2558594 0.9658203 -0.03961182
vn 0.2558594 0.9658203 -0.03961182
vn 0.2558594 0.9658203 -0.03961182
vn -0.2558594 0.9658203 0.03961182
vn -0.2558594 0.9658203 0.03961182
vn -0.2558594 0.9658203 0.03961182
vn -0.2558594 0.9658203 0.03961182
vn -0.6987305 0.7070313 0.1082764
vn -0.6987305 0.7070313 0.1082764
vn -0.6987305 0.7070313 0.1082764
vn -0.6987305 0.7070313 0.1082764
vn -0.9545898 0.2587891 0.1479492
vn -0.9545898 0.2587891 0.1479492
vn -0.9545898 0.2587891 0.1479492
vn -0.9545898 0.2587891 0.1479492
vn -0.9545898 -0.2587891 0.1479492
vn -0.9545898 -0.2587891 0.1479492
vn -0.9545898 -0.2587891 0.1479492
vn -0.9545898 -0.2587891 0.1479492
vn -0.6987305 -0.7070313 0.1082764
vn -0.6987305 -0.7070313 0.1082764
vn -0.6987305 -0.7070313 0.1082764
vn -0.6987305 -0.7070313 0.1082764
vn -0.2558594 -0.9658203 0.03961182
vn -0.2558594 -0.9658203 0.03961182
vn -0.2558594 -0.9658203 0.03961182
vn -0.2558594 -0.9658203 0.03961182
vn 0.2558594 -0.9658203 -0.03967285
vn 0.2558594 -0.9658203 -0.03967285
vn 0.2558594 -0.9658203 -0.03967285
vn 0.2558594 -0.9658203 -0.03967285
vn 0.6987305 -0.7070313 -0.1082764
vn 0.6987305 -0.7070313 -0.1082764
vn 0.6987305 -0.7070313 -0.1082764
vn 0.6987305 -0.7070313 -0.1082764
vn 0.9545898 -0.2587891 -0.1479492
vn 0.9545898 -0.2587891 -0.1479492
vn 0.9545898 -0.2587891 -0.1479492
vn 0.9545898 -0.2587891 -0.1479492
vn 0.9545898 0.2587891 -0.1479492
vn 0.9545898 0.2587891 -0.1479492
vn 0.9545898 0.2587891 -0.1479492
vn 0.9545898 0.2587891 -0.1479492
vn -0.1531982 0 -0.9882813
vn -0.1531982 0 -0.9882813
vn -0.1531982 0 -0.9882813
vn -0.1531982 0 -0.9882813
vn -0.1531982 0 -0.9882813
vn -0.1531982 0 -0.9882813
vn -0.1531982 0 -0.9882813
vn -0.1531982 0 -0.9882813
vn -0.1531982 0 -0.9882813
vn -0.1531982 0 -0.9882813
vn -0.1531982 0 -0.9882813
vn -0.1531982 0 -0.9882813
vn 0.1531982 0 0.9882813
vn 0.1531982 0 0.9882813
vn 0.1531982 0 0.9882813
vn 0.1531982 0 0.9882813
vn 0.1531982 0 0.9882813
vn 0.1531982 0 0.9882813
vn 0.1531982 0 0.9882813
vn 0.1531982 0 0.9882813
vn 0.1531982 0 0.9882813
vn 0.1531982 0 0.9882813
vn 0.1531982 0 0.9882813
vn 0.1531982 0 0.9882813
g pCylinder12_0
f 3/3/3 2/2/2 1/1/1
f 4/4/4 3/3/3 1/1/1
f 7/7/7 6/6/6 5/5/5
f 8/8/8 7/7/7 5/5/5
f 11/11/11 10/10/10 9/9/9
f 12/12/12 11/11/11 9/9/9
f 15/15/15 14/14/14 13/13/13
f 16/16/16 15/15/15 13/13/13
f 19/19/19 18/18/18 17/17/17
f 20/20/20 19/19/19 17/17/17
f 23/23/23 22/22/22 21/21/21
f 24/24/24 23/23/23 21/21/21
f 27/27/27 26/26/26 25/25/25
f 28/28/28 27/27/27 25/25/25
f 31/31/31 30/30/30 29/29/29
f 32/32/32 31/31/31 29/29/29
f 35/35/35 34/34/34 33/33/33
f 36/36/36 35/35/35 33/33/33
f 39/39/39 38/38/38 37/37/37
f 40/40/40 39/39/39 37/37/37
f 43/43/43 42/42/42 41/41/41
f 44/44/44 43/43/43 41/41/41
f 47/47/47 46/46/46 45/45/45
f 48/48/48 47/47/47 45/45/45
f 51/51/51 50/50/50 49/49/49
f 49/49/49 52/52/52 51/51/51
f 52/52/52 53/53/53 51/51/51
f 52/52/52 54/54/54 53/53/53
f 52/52/52 55/55/55 54/54/54
f 55/55/55 56/56/56 54/54/54
f 55/55/55 57/57/57 56/56/56
f 57/57/57 58/58/58 56/56/56
f 57/57/57 59/59/59 58/58/58
f 59/59/59 60/60/60 58/58/58
f 63/63/63 62/62/62 61/61/61
f 61/61/61 64/64/64 63/63/63
f 61/61/61 65/65/65 64/64/64
f 65/65/65 66/66/66 64/64/64
f 66/66/66 67/67/67 64/64/64
f 66/66/66 68/68/68 67/67/67
f 68/68/68 69/69/69 67/67/67
f 68/68/68 70/70/70 69/69/69
f 70/70/70 71/71/71 69/69/69
f 70/70/70 72/72/72 71/71/71
