g pCylinder2
v 0.1074661 0.4782988 8.205887E-10
v 0.00643652 0.4548903 -0.1478025
v 0.1074661 0.4548888 -0.1478025
v 0.00643652 0.4782988 8.205887E-10
v 0.1074661 0.4548888 0.1478025
v -0.07410508 0.4215758 8.205887E-10
v -0.07410508 0.4009413 -0.1302739
v -0.07410508 0.4009413 0.1302738
v 0.00643652 0.4548903 0.1478025
v 0.1074662 0.3869521 0.281137
v -0.07410508 0.3410628 0.247795
v 0.00643652 0.3869521 0.281137
v 0.1074662 0.2811355 0.3869518
v -0.07410508 0.247795 0.3410609
v 0.00643652 0.281137 0.3869518
v 0.1074662 0.1478027 0.4548892
v -0.07410508 0.1302749 0.4009411
v 0.006436424 0.1478027 0.4548892
v 0.1074662 -7.459165E-08 0.4782989
v -0.07410508 -7.459165E-08 0.4215745
v 0.006436424 -7.459165E-08 0.4782989
v 0.1074662 -0.1478028 0.4548892
v -0.07410508 -0.1302735 0.4009411
v 0.006436424 -0.1478013 0.4548892
v 0.1074662 -0.2811371 0.3869519
v -0.07410508 -0.2477936 0.3410609
v 0.006436424 -0.2811356 0.3869519
v 0.1074662 -0.3869523 0.281137
v -0.07410508 -0.3410599 0.247795
v 0.006436424 -0.3869507 0.281137
v 0.1074662 -0.4548905 0.1478025
v -0.07410508 -0.40094 0.1302739
v 0.006436424 -0.454889 0.1478025
v 0.1074662 -0.4782975 8.205887E-10
v -0.07410508 -0.421573 8.205887E-10
v 0.006436424 -0.478296 8.205887E-10
v 0.1074662 -0.4548905 -0.1478025
v -0.07410508 -0.40094 -0.1302739
v 0.006436424 -0.454889 -0.1478025
v 0.1074662 -0.3869523 -0.281137
v -0.07410508 -0.3410599 -0.247795
v 0.006436424 -0.3869507 -0.281137
v 0.1074662 -0.2811371 -0.386952
v -0.07410508 -0.2477936 -0.341061
v 0.006436424 -0.2811356 -0.386952
v 0.1074662 -0.1478028 -0.4548894
v -0.07410508 -0.1302735 -0.4009413
v 0.006436424 -0.1478013 -0.4548894
v 0.1074662 -7.459165E-08 -0.478299
v -0.07410508 -7.459165E-08 -0.4215746
v 0.006436424 -7.459165E-08 -0.478299
v 0.1074662 0.1478027 -0.4548894
v -0.07410508 0.1302749 -0.4009413
v 0.006436424 0.1478027 -0.4548894
v 0.1074662 0.2811355 -0.386952
v -0.07410508 0.247795 -0.3410611
v 0.00643652 0.281137 -0.386952
v 0.1074662 0.3869521 -0.2811371
v -0.07410508 0.3410628 -0.2477951
v 0.00643652 0.3869521 -0.2811371
v 0.1074661 0.4548888 -0.1478025
v -0.07410508 0.4009413 -0.1302739
v 0.00643652 0.4548903 -0.1478025
v 0.1074662 0.3869521 -0.2811371
v 0.1074662 -7.459165E-08 8.205887E-10
v 0.1074661 0.4548888 -0.1478025
v 0.1074662 0.2811355 -0.386952
v 0.1074661 0.4782988 8.205887E-10
v 0.1074662 0.1478027 -0.4548894
v 0.1074661 0.4548888 0.1478025
v 0.1074662 -7.459165E-08 -0.478299
v 0.1074662 0.3869521 0.281137
v 0.1074662 -0.1478028 -0.4548894
v 0.1074662 0.2811355 0.3869518
v 0.1074662 -0.2811371 -0.386952
v 0.1074662 0.1478027 0.4548892
v 0.1074662 -0.3869523 -0.281137
v 0.1074662 -7.459165E-08 0.4782989
v 0.1074662 -0.4548905 -0.1478025
v 0.1074662 -0.1478028 0.4548892
v 0.1074662 -0.4782975 8.205887E-10
v 0.1074662 -0.2811371 0.3869519
v 0.1074662 -0.4548905 0.1478025
v 0.1074662 -0.3869523 0.281137
v -0.1526768 0.1834334 -0.05960141
v -0.1526766 -7.459165E-08 -2.302127E-08
v -0.1526766 0.1560393 -0.1133673
v -0.1526766 0.1928725 -2.302127E-08
v -0.1526766 0.1133681 -0.1560373
v -0.1526768 0.1834334 0.05960129
v -0.1526768 0.05960228 -0.1834328
v -0.1526766 0.1560393 0.1133671
v -0.1526766 -7.459165E-08 -0.1928726
v -0.1526766 0.1133681 0.1560372
v -0.1526768 -0.0596009 -0.1834328
v -0.1526768 0.05960228 0.1834326
v -0.1526766 -0.1133668 -0.1560373
v -0.1526766 -7.459165E-08 0.1928725
v -0.1526766 -0.156038 -0.1133672
v -0.1526768 -0.0596009 0.1834326
v -0.1526768 -0.1834336 -0.05960135
v -0.1526766 -0.1133668 0.1560372
v -0.1526768 -0.1928727 -2.302127E-08
v -0.1526766 -0.156038 0.1133671
v -0.1526768 -0.1834336 0.0596013
v -0.07410508 0.4009413 -0.1302739
v -0.1074663 0.2846313 8.205887E-10
v -0.1074663 0.2707 -0.08795615
v -0.07410508 0.4215758 8.205887E-10
v -0.07410508 0.3410628 -0.2477951
v -0.1074663 0.2707 0.08795606
v -0.1074663 0.2302734 -0.1673006
v -0.07410508 0.4009413 0.1302738
v -0.07410508 0.247795 -0.3410611
v -0.1074663 0.2302734 0.1673004
v -0.1074663 0.1673019 -0.2302705
v -0.07410508 0.3410628 0.247795
v -0.07410508 0.1302749 -0.4009413
v -0.1074663 0.1673019 0.2302703
v -0.1074663 0.08795768 -0.2706991
v -0.07410508 0.247795 0.3410609
v -0.07410508 -7.459165E-08 -0.4215746
v -0.1074663 0.08795768 0.2706989
v -0.1074663 -7.459165E-08 -0.2846299
v -0.07410508 0.1302749 0.4009411
v -0.07410508 -0.1302735 -0.4009413
v -0.1074663 -7.459165E-08 0.2846297
v -0.1074663 -0.08795478 -0.2706991
v -0.07410508 -7.459165E-08 0.4215745
v -0.07410508 -0.2477936 -0.341061
v -0.1074663 -0.08795478 0.2706989
v -0.1074663 -0.167299 -0.2302704
v -0.07410508 -0.1302735 0.4009411
v -0.07410508 -0.3410599 -0.247795
v -0.1074663 -0.167299 0.2302703
v -0.1074663 -0.2302704 -0.1673005
v -0.07410508 -0.2477936 0.3410609
v -0.07410508 -0.40094 -0.1302739
v -0.1074663 -0.2302704 0.1673004
v -0.1074663 -0.2707001 -0.08795606
v -0.07410508 -0.3410599 0.247795
v -0.07410508 -0.421573 8.205887E-10
v -0.1074663 -0.2707001 0.08795607
v -0.1074663 -0.2846299 8.205887E-10
v -0.07410508 -0.40094 0.1302739
v -0.1074663 0.2707 -0.08795615
v -0.1526768 0.1834334 -0.05960141
v -0.1526766 0.1560393 -0.1133673
v -0.1074663 0.2302734 -0.1673006
v -0.1074663 0.2846313 8.205887E-10
v -0.1526766 0.1133681 -0.1560373
v -0.1526766 0.1928725 -2.302127E-08
v -0.1074663 0.1673019 -0.2302705
v -0.1074663 0.2707 0.08795606
v -0.1526768 0.05960228 -0.1834328
v -0.1526768 0.1834334 0.05960129
v -0.1074663 0.08795768 -0.2706991
v -0.1074663 0.2302734 0.1673004
v -0.1526766 -7.459165E-08 -0.1928726
v -0.1526766 0.1560393 0.1133671
v -0.1074663 -7.459165E-08 -0.2846299
v -0.1074663 0.1673019 0.2302703
v -0.1526768 -0.0596009 -0.1834328
v -0.1526766 0.1133681 0.1560372
v -0.1074663 -0.08795478 -0.2706991
v -0.1074663 0.08795768 0.2706989
v -0.1526766 -0.1133668 -0.1560373
v -0.1526768 0.05960228 0.1834326
v -0.1074663 -0.167299 -0.2302704
v -0.1074663 -7.459165E-08 0.2846297
v -0.1526766 -0.156038 -0.1133672
v -0.1526766 -7.459165E-08 0.1928725
v -0.1074663 -0.2302704 -0.1673005
v -0.1074663 -0.08795478 0.2706989
v -0.1526768 -0.1834336 -0.05960135
v -0.1526768 -0.0596009 0.1834326
v -0.1074663 -0.2707001 -0.08795606
v -0.1074663 -0.167299 0.2302703
v -0.1526768 -0.1928727 -2.302127E-08
v -0.1526766 -0.1133668 0.1560372
v -0.1074663 -0.2846299 8.205887E-10
v -0.1074663 -0.2302704 0.1673004
v -0.1526768 -0.1834336 0.0596013
v -0.1526766 -0.156038 0.1133671
v -0.1074663 -0.2707001 0.08795607
vt 0.6123047 0.3125
vt 0.625 0.4892578
vt 0.625 0.3125
vt 0.6123047 0.4892578
vt 0.6000977 0.3125
vt 0.6123047 0.6884766
vt 0.625 0.6884766
vt 0.6000977 0.6884766
vt 0.6000977 0.4892578
vt 0.5874023 0.3125
vt 0.5874023 0.6884766
vt 0.5874023 0.4892578
vt 0.5751953 0.3125
vt 0.5751953 0.6884766
vt 0.5751953 0.4892578
vt 0.5625 0.3125
vt 0.5625 0.6884766
vt 0.5625 0.4892578
vt 0.5498047 0.3125
vt 0.5498047 0.6884766
vt 0.5498047 0.4892578
vt 0.5375977 0.3125
vt 0.5375977 0.6884766
vt 0.5375977 0.4892578
vt 0.5249023 0.3125
vt 0.5249023 0.6884766
vt 0.5249023 0.4892578
vt 0.5126953 0.3125
vt 0.5126953 0.6884766
vt 0.5126953 0.4892578
vt 0.5 0.3125
vt 0.5 0.6884766
vt 0.5 0.4892578
vt 0.4875488 0.3125
vt 0.4875488 0.6884766
vt 0.4875488 0.4892578
vt 0.4750977 0.3125
vt 0.4750977 0.6884766
vt 0.4750977 0.4892578
vt 0.4624023 0.3125
vt 0.4624023 0.6884766
vt 0.4624023 0.4892578
vt 0.4499512 0.3125
vt 0.4499512 0.6884766
vt 0.4499512 0.4892578
vt 0.4375 0.3125
vt 0.4375 0.6884766
vt 0.4375 0.4892578
vt 0.4250488 0.3125
vt 0.4250488 0.6884766
vt 0.4250488 0.4892578
vt 0.4125977 0.3125
vt 0.4125977 0.6884766
vt 0.4125977 0.4892578
vt 0.3999023 0.3125
vt 0.3999023 0.6884766
vt 0.3999023 0.4892578
vt 0.3874512 0.3125
vt 0.3874512 0.6884766
vt 0.3874512 0.4892578
vt 0.375 0.3125
vt 0.375 0.6884766
vt 0.375 0.4892578
vt 0.6264648 0.06439209
vt 0.5 0.1500244
vt 0.6484375 0.1079712
vt 0.5917969 0.02984619
vt 0.65625 0.15625
vt 0.5483398 0.007648468
vt 0.6484375 0.2045898
vt 0.5 -5.960464E-08
vt 0.6264648 0.2480469
vt 0.4516602 0.007648468
vt 0.5917969 0.2827148
vt 0.4082031 0.02984619
vt 0.5483398 0.3049316
vt 0.3735352 0.06439209
vt 0.5 0.3125
vt 0.3513184 0.1079712
vt 0.4516602 0.3049316
vt 0.34375 0.15625
vt 0.4082031 0.2827148
vt 0.3513184 0.2045898
vt 0.3735352 0.2480469
vt 0.5883789 0.8701172
vt 0.5 0.8374023
vt 0.5751953 0.8959961
vt 0.5927734 0.8413086
vt 0.5546875 0.9165039
vt 0.5883789 0.8125
vt 0.5288086 0.9296875
vt 0.5751953 0.7866211
vt 0.5 0.934082
vt 0.5546875 0.7661133
vt 0.4711914 0.9296875
vt 0.5288086 0.7529297
vt 0.4453125 0.9165039
vt 0.5 0.7480469
vt 0.4248047 0.8959961
vt 0.4711914 0.7529297
vt 0.4116211 0.8701172
vt 0.4453125 0.7661133
vt 0.4069824 0.8413086
vt 0.4248047 0.7866211
vt 0.4116211 0.8125
vt 0.6484375 0.8920898
vt 0.5927734 0.8413086
vt 0.5883789 0.8701172
vt 0.65625 0.84375
vt 0.6264648 0.9355469
vt 0.5883789 0.8125
vt 0.5751953 0.8959961
vt 0.6484375 0.7954102
vt 0.5917969 0.9702148
vt 0.5751953 0.7866211
vt 0.5546875 0.9165039
vt 0.6264648 0.7519531
vt 0.5483398 0.9921875
vt 0.5546875 0.7661133
vt 0.5288086 0.9296875
vt 0.5917969 0.7172852
vt 0.5 1
vt 0.5288086 0.7529297
vt 0.5 0.934082
vt 0.5483398 0.6953125
vt 0.4516602 0.9921875
vt 0.5 0.7480469
vt 0.4711914 0.9296875
vt 0.5 0.6875
vt 0.4082031 0.9702148
vt 0.4711914 0.7529297
vt 0.4453125 0.9165039
vt 0.4516602 0.6953125
vt 0.3735352 0.9355469
vt 0.4453125 0.7661133
vt 0.4248047 0.8959961
vt 0.4082031 0.7172852
vt 0.3513184 0.8920898
vt 0.4248047 0.7866211
vt 0.4116211 0.8701172
vt 0.3735352 0.7519531
vt 0.34375 0.84375
vt 0.4116211 0.8125
vt 0.4069824 0.8413086
vt 0.3513184 0.7954102
vt 0.5883789 0.8701172
vt 0.5883789 0.8701172
vt 0.5751953 0.8959961
vt 0.5751953 0.8959961
vt 0.5927734 0.8413086
vt 0.5546875 0.9165039
vt 0.5927734 0.8413086
vt 0.5546875 0.9165039
vt 0.5883789 0.8125
vt 0.5288086 0.9296875
vt 0.5883789 0.8125
vt 0.5288086 0.9296875
vt 0.5751953 0.7866211
vt 0.5 0.934082
vt 0.5751953 0.7866211
vt 0.5 0.934082
vt 0.5546875 0.7661133
vt 0.4711914 0.9296875
vt 0.5546875 0.7661133
vt 0.4711914 0.9296875
vt 0.5288086 0.7529297
vt 0.4453125 0.9165039
vt 0.5288086 0.7529297
vt 0.4453125 0.9165039
vt 0.5 0.7480469
vt 0.4248047 0.8959961
vt 0.5 0.7480469
vt 0.4248047 0.8959961
vt 0.4711914 0.7529297
vt 0.4116211 0.8701172
vt 0.4711914 0.7529297
vt 0.4116211 0.8701172
vt 0.4453125 0.7661133
vt 0.4069824 0.8413086
vt 0.4453125 0.7661133
vt 0.4069824 0.8413086
vt 0.4248047 0.7866211
vt 0.4116211 0.8125
vt 0.4248047 0.7866211
vt 0.4116211 0.8125
vn 7.56979E-06 1 0
vn -0.2800293 0.9130859 -0.2966309
vn 7.152557E-06 0.9511719 -0.309082
vn -0.2800293 0.9599609 0
vn 7.152557E-06 0.9511719 0.309082
vn -0.5756836 0.8173828 0
vn -0.5756836 0.7773438 -0.2526855
vn -0.5756836 0.7773438 0.2526855
vn -0.2800293 0.9130859 0.2966309
vn 6.079674E-06 0.809082 0.5878906
vn -0.5756836 0.6616211 0.4804688
vn -0.2800293 0.7768555 0.5644531
vn 4.410744E-06 0.5878906 0.809082
vn -0.5756836 0.4804688 0.6616211
vn -0.2800293 0.5644531 0.7768555
vn 0 0.309082 0.9511719
vn -0.5756836 0.2526855 0.7773438
vn -0.2800293 0.2966309 0.9130859
vn 0 0 1
vn -0.5756836 0 0.8173828
vn -0.2800293 0 0.9599609
vn -4.11272E-06 -0.309082 0.9511719
vn -0.5756836 -0.2526855 0.7773438
vn -0.2800293 -0.2966309 0.9130859
vn -8.940697E-06 -0.5878906 0.809082
vn -0.5756836 -0.4804688 0.6616211
vn -0.2800293 -0.5644531 0.7768555
vn -1.227856E-05 -0.809082 0.5878906
vn -0.5756836 -0.6616211 0.4804688
vn -0.2800293 -0.7768555 0.5644531
vn -1.436472E-05 -0.9511719 0.309082
vn -0.5756836 -0.7773438 0.2526855
vn -0.2800293 -0.9130859 0.2966309
vn -1.507998E-05 -1 0
vn -0.5756836 -0.8173828 0
vn -0.2800293 -0.9599609 0
vn -1.436472E-05 -0.9511719 -0.309082
vn -0.5756836 -0.7773438 -0.2526855
vn -0.2800293 -0.9130859 -0.2966309
vn -1.209974E-05 -0.809082 -0.5878906
vn -0.5756836 -0.6616211 -0.4804688
vn -0.2800293 -0.7768555 -0.5644531
vn -8.881092E-06 -0.5878906 -0.809082
vn -0.5756836 -0.4804688 -0.6616211
vn -0.2800293 -0.5644531 -0.7768555
vn -4.172325E-06 -0.309082 -0.9511719
vn -0.5756836 -0.2526855 -0.7773438
vn -0.2800293 -0.2966309 -0.9130859
vn 0 0 -1
vn -0.5756836 0 -0.8173828
vn -0.2800293 0 -0.9599609
vn 0 0.309082 -0.9511719
vn -0.5756836 0.2526855 -0.7773438
vn -0.2800293 0.2966309 -0.9130859
vn 4.410744E-06 0.5878906 -0.809082
vn -0.5756836 0.4804688 -0.6616211
vn -0.2800293 0.5644531 -0.7768555
vn 6.079674E-06 0.809082 -0.5878906
vn -0.5756836 0.6616211 -0.4804688
vn -0.2800293 0.7768555 -0.5644531
vn 7.152557E-06 0.9511719 -0.309082
vn -0.5756836 0.7773438 -0.2526855
vn -0.2800293 0.9130859 -0.2966309
vn 1 0 0
vn 1 0 0
vn 1 0 0
vn 1 0 0
vn 1 0 0
vn 1 0 0
vn 1 0 0
vn 1 0 0
vn 1 0 0
vn 1 0 0
vn 1 0 0
vn 1 0 0
vn 1 0 0
vn 1 0 0
vn 1 0 0
vn 1 0 0
vn 1 0 0
vn 1 0 0
vn 1 0 0
vn 1 0 0
vn 1 0 0
vn -1 -2.503395E-06 0
vn -1 0 0
vn -1 -2.503395E-06 0
vn -1 0 0
vn -1 3.33786E-06 0
vn -1 0 0
vn -1 0 0
vn -1 0 0
vn -1 0 0
vn -1 0 0
vn -1 0 0
vn -1 0 0
vn -1 -3.33786E-06 0
vn -1 0 0
vn -1 0 0
vn -1 0 0
vn -1 0 0
vn -1 0 0
vn -1 0 0
vn -1 0 0
vn -1 0 0
vn -0.9716797 0.2250977 -0.07312012
vn -0.9716797 0.2366943 0
vn -0.9716797 0.2250977 -0.07312012
vn -0.9716797 0.2366943 0
vn -0.9716797 0.1915283 -0.1391602
vn -0.9716797 0.2250977 0.07312012
vn -0.9716797 0.1915283 -0.1391602
vn -0.9716797 0.2250977 0.07312012
vn -0.9716797 0.1391602 -0.1915283
vn -0.9716797 0.1915283 0.1391602
vn -0.9716797 0.1391602 -0.1915283
vn -0.9716797 0.1915283 0.1391602
vn -0.9716797 0.07312012 -0.2250977
vn -0.9716797 0.1391602 0.1915283
vn -0.9716797 0.07312012 -0.2250977
vn -0.9716797 0.1391602 0.1915283
vn -0.9716797 0 -0.2366943
vn -0.9716797 0.07312012 0.2250977
vn -0.9716797 0 -0.2366943
vn -0.9716797 0.07312012 0.2250977
vn -0.9716797 -0.07312012 -0.2250977
vn -0.9716797 0 0.2366943
vn -0.9716797 -0.07312012 -0.2250977
vn -0.9716797 0 0.2366943
vn -0.9716797 -0.1391602 -0.1915283
vn -0.9716797 -0.07312012 0.2250977
vn -0.9716797 -0.1391602 -0.1915283
vn -0.9716797 -0.07312012 0.2250977
vn -0.9716797 -0.1915283 -0.1391602
vn -0.9716797 -0.1391602 0.1915283
vn -0.9716797 -0.1915283 -0.1391602
vn -0.9716797 -0.1391602 0.1915283
vn -0.9716797 -0.2250977 -0.07312012
vn -0.9716797 -0.1915283 0.1391602
vn -0.9716797 -0.2250977 -0.07312012
vn -0.9716797 -0.1915283 0.1391602
vn -0.9716797 -0.2366943 0
vn -0.9716797 -0.2250977 0.07312012
vn -0.9716797 -0.2366943 0
vn -0.9716797 -0.2250977 0.07312012
vn -0.8969727 0.4204102 -0.1365967
vn -0.8969727 0.4204102 -0.1365967
vn -0.8969727 0.357666 -0.2597656
vn -0.8969727 0.357666 -0.2597656
vn -0.8969727 0.4418945 0
vn -0.8969727 0.2597656 -0.357666
vn -0.8969727 0.4418945 0
vn -0.8969727 0.2597656 -0.357666
vn -0.8969727 0.4204102 0.1365967
vn -0.8969727 0.1365967 -0.4204102
vn -0.8969727 0.4204102 0.1365967
vn -0.8969727 0.1365967 -0.4204102
vn -0.8969727 0.357666 0.2597656
vn -0.8969727 0 -0.4418945
vn -0.8969727 0.357666 0.2597656
vn -0.8969727 0 -0.4418945
vn -0.8969727 0.2597656 0.357666
vn -0.8969727 -0.1365967 -0.4204102
vn -0.8969727 0.2597656 0.357666
vn -0.8969727 -0.1365967 -0.4204102
vn -0.8969727 0.1365967 0.4204102
vn -0.8969727 -0.2597656 -0.357666
vn -0.8969727 0.1365967 0.4204102
vn -0.8969727 -0.2597656 -0.357666
vn -0.8969727 0 0.4418945
vn -0.8969727 -0.357666 -0.2597656
vn -0.8969727 0 0.4418945
vn -0.8969727 -0.357666 -0.2597656
vn -0.8969727 -0.1365967 0.4204102
vn -0.8969727 -0.4204102 -0.1365967
vn -0.8969727 -0.1365967 0.4204102
vn -0.8969727 -0.4204102 -0.1365967
vn -0.8969727 -0.2597656 0.357666
vn -0.8969727 -0.4418945 0
vn -0.8969727 -0.2597656 0.357666
vn -0.8969727 -0.4418945 0
vn -0.8969727 -0.357666 0.2597656
vn -0.8969727 -0.4204102 0.1365967
vn -0.8969727 -0.357666 0.2597656
vn -0.8969727 -0.4204102 0.1365967
g pCylinder2_0
f 3/3/3 2/2/2 1/1/1
f 2/2/2 4/4/4 1/1/1
f 1/1/1 4/4/4 5/5/5
f 6/6/6 4/4/4 2/2/2
f 7/7/7 6/6/6 2/2/2
f 4/4/4 6/6/6 8/8/8
f 4/4/4 9/9/9 5/5/5
f 9/9/9 4/4/4 8/8/8
f 5/5/5 9/9/9 10/10/10
f 9/9/9 8/8/8 11/11/11
f 9/9/9 12/12/12 10/10/10
f 12/12/12 9/9/9 11/11/11
f 10/10/10 12/12/12 13/13/13
f 12/12/12 11/11/11 14/14/14
f 12/12/12 15/15/15 13/13/13
f 15/15/15 12/12/12 14/14/14
f 13/13/13 15/15/15 16/16/16
f 15/15/15 14/14/14 17/17/17
f 15/15/15 18/18/18 16/16/16
f 18/18/18 15/15/15 17/17/17
f 16/16/16 18/18/18 19/19/19
f 18/18/18 17/17/17 20/20/20
f 18/18/18 21/21/21 19/19/19
f 21/21/21 18/18/18 20/20/20
f 19/19/19 21/21/21 22/22/22
f 21/21/21 20/20/20 23/23/23
f 21/21/21 24/24/24 22/22/22
f 24/24/24 21/21/21 23/23/23
f 22/22/22 24/24/24 25/25/25
f 24/24/24 23/23/23 26/26/26
f 24/24/24 27/27/27 25/25/25
f 27/27/27 24/24/24 26/26/26
f 25/25/25 27/27/27 28/28/28
f 27/27/27 26/26/26 29/29/29
f 27/27/27 30/30/30 28/28/28
f 30/30/30 27/27/27 29/29/29
f 28/28/28 30/30/30 31/31/31
f 30/30/30 29/29/29 32/32/32
f 30/30/30 33/33/33 31/31/31
f 33/33/33 30/30/30 32/32/32
f 31/31/31 33/33/33 34/34/34
f 33/33/33 32/32/32 35/35/35
f 33/33/33 36/36/36 34/34/34
f 36/36/36 33/33/33 35/35/35
f 34/34/34 36/36/36 37/37/37
f 36/36/36 35/35/35 38/38/38
f 36/36/36 39/39/39 37/37/37
f 39/39/39 36/36/36 38/38/38
f 37/37/37 39/39/39 40/40/40
f 39/39/39 38/38/38 41/41/41
f 39/39/39 42/42/42 40/40/40
f 42/42/42 39/39/39 41/41/41
f 40/40/40 42/42/42 43/43/43
f 42/42/42 41/41/41 44/44/44
f 42/42/42 45/45/45 43/43/43
f 45/45/45 42/42/42 44/44/44
f 43/43/43 45/45/45 46/46/46
f 45/45/45 44/44/44 47/47/47
f 45/45/45 48/48/48 46/46/46
f 48/48/48 45/45/45 47/47/47
f 46/46/46 48/48/48 49/49/49
f 48/48/48 47/47/47 50/50/50
f 48/48/48 51/51/51 49/49/49
f 51/51/51 48/48/48 50/50/50
f 49/49/49 51/51/51 52/52/52
f 51/51/51 50/50/50 53/53/53
f 51/51/51 54/54/54 52/52/52
f 54/54/54 51/51/51 53/53/53
f 52/52/52 54/54/54 55/55/55
f 54/54/54 53/53/53 56/56/56
f 54/54/54 57/57/57 55/55/55
f 57/57/57 54/54/54 56/56/56
f 55/55/55 57/57/57 58/58/58
f 57/57/57 56/56/56 59/59/59
f 57/57/57 60/60/60 58/58/58
f 60/60/60 57/57/57 59/59/59
f 58/58/58 60/60/60 61/61/61
f 60/60/60 59/59/59 62/62/62
f 60/60/60 63/63/63 61/61/61
f 63/63/63 60/60/60 62/62/62
f 66/66/66 65/65/65 64/64/64
f 64/64/64 65/65/65 67/67/67
f 68/68/68 65/65/65 66/66/66
f 67/67/67 65/65/65 69/69/69
f 70/70/70 65/65/65 68/68/68
f 69/69/69 65/65/65 71/71/71
f 72/72/72 65/65/65 70/70/70
f 71/71/71 65/65/65 73/73/73
f 74/74/74 65/65/65 72/72/72
f 73/73/73 65/65/65 75/75/75
f 76/76/76 65/65/65 74/74/74
f 75/75/75 65/65/65 77/77/77
f 78/78/78 65/65/65 76/76/76
f 77/77/77 65/65/65 79/79/79
f 80/80/80 65/65/65 78/78/78
f 79/79/79 65/65/65 81/81/81
f 82/82/82 65/65/65 80/80/80
f 81/81/81 65/65/65 83/83/83
f 84/84/84 65/65/65 82/82/82
f 83/83/83 65/65/65 84/84/84
f 87/87/87 86/86/86 85/85/85
f 85/85/85 86/86/86 88/88/88
f 89/89/89 86/86/86 87/87/87
f 88/88/88 86/86/86 90/90/90
f 91/91/91 86/86/86 89/89/89
f 90/90/90 86/86/86 92/92/92
f 93/93/93 86/86/86 91/91/91
f 92/92/92 86/86/86 94/94/94
f 95/95/95 86/86/86 93/93/93
f 94/94/94 86/86/86 96/96/96
f 97/97/97 86/86/86 95/95/95
f 96/96/96 86/86/86 98/98/98
f 99/99/99 86/86/86 97/97/97
f 98/98/98 86/86/86 100/100/100
f 101/101/101 86/86/86 99/99/99
f 100/100/100 86/86/86 102/102/102
f 103/103/103 86/86/86 101/101/101
f 102/102/102 86/86/86 104/104/104
f 105/105/105 86/86/86 103/103/103
f 104/104/104 86/86/86 105/105/105
f 108/108/108 107/107/107 106/106/106
f 107/107/107 109/109/109 106/106/106
f 106/106/106 110/110/110 108/108/108
f 109/109/109 107/107/107 111/111/111
f 110/110/110 112/112/112 108/108/108
f 113/113/113 109/109/109 111/111/111
f 110/110/110 114/114/114 112/112/112
f 113/113/113 111/111/111 115/115/115
f 114/114/114 116/116/116 112/112/112
f 117/117/117 113/113/113 115/115/115
f 114/114/114 118/118/118 116/116/116
f 117/117/117 115/115/115 119/119/119
f 118/118/118 120/120/120 116/116/116
f 121/121/121 117/117/117 119/119/119
f 118/118/118 122/122/122 120/120/120
f 121/121/121 119/119/119 123/123/123
f 122/122/122 124/124/124 120/120/120
f 125/125/125 121/121/121 123/123/123
f 122/122/122 126/126/126 124/124/124
f 125/125/125 123/123/123 127/127/127
f 126/126/126 128/128/128 124/124/124
f 129/129/129 125/125/125 127/127/127
f 126/126/126 130/130/130 128/128/128
f 129/129/129 127/127/127 131/131/131
f 130/130/130 132/132/132 128/128/128
f 133/133/133 129/129/129 131/131/131
f 130/130/130 134/134/134 132/132/132
f 133/133/133 131/131/131 135/135/135
f 134/134/134 136/136/136 132/132/132
f 137/137/137 133/133/133 135/135/135
f 134/134/134 138/138/138 136/136/136
f 137/137/137 135/135/135 139/139/139
f 138/138/138 140/140/140 136/136/136
f 141/141/141 137/137/137 139/139/139
f 138/138/138 142/142/142 140/140/140
f 141/141/141 139/139/139 143/143/143
f 142/142/142 144/144/144 140/140/140
f 145/145/145 141/141/141 143/143/143
f 145/145/145 143/143/143 144/144/144
f 142/142/142 145/145/145 144/144/144
f 148/148/148 147/147/147 146/146/146
f 149/149/149 148/148/148 146/146/146
f 146/146/146 147/147/147 150/150/150
f 151/151/151 148/148/148 149/149/149
f 147/147/147 152/152/152 150/150/150
f 153/153/153 151/151/151 149/149/149
f 150/150/150 152/152/152 154/154/154
f 155/155/155 151/151/151 153/153/153
f 152/152/152 156/156/156 154/154/154
f 157/157/157 155/155/155 153/153/153
f 154/154/154 156/156/156 158/158/158
f 159/159/159 155/155/155 157/157/157
f 156/156/156 160/160/160 158/158/158
f 161/161/161 159/159/159 157/157/157
f 158/158/158 160/160/160 162/162/162
f 163/163/163 159/159/159 161/161/161
f 160/160/160 164/164/164 162/162/162
f 165/165/165 163/163/163 161/161/161
f 162/162/162 164/164/164 166/166/166
f 167/167/167 163/163/163 165/165/165
f 164/164/164 168/168/168 166/166/166
f 169/169/169 167/167/167 165/165/165
f 166/166/166 168/168/168 170/170/170
f 171/171/171 167/167/167 169/169/169
f 168/168/168 172/172/172 170/170/170
f 173/173/173 171/171/171 169/169/169
f 170/170/170 172/172/172 174/174/174
f 175/175/175 171/171/171 173/173/173
f 172/172/172 176/176/176 174/174/174
f 177/177/177 175/175/175 173/173/173
f 174/174/174 176/176/176 178/178/178
f 179/179/179 175/175/175 177/177/177
f 176/176/176 180/180/180 178/178/178
f 181/181/181 179/179/179 177/177/177
f 178/178/178 180/180/180 182/182/182
f 183/183/183 179/179/179 181/181/181
f 180/180/180 184/184/184 182/182/182
f 185/185/185 183/183/183 181/181/181
f 182/182/182 184/184/184 185/185/185
f 184/184/184 183/183/183 185/185/185
