g pDisc2
v -0.4807482 0.07058778 0.1278532
v -0.3510365 0.02057155 0.3493009
v -0.4316027 0.07453585 0.2469961
v -0.3500572 0.08054595 0.1995741
v -0.3586568 0.0985853 0.06174792
v -0.2334265 0.03061737 0.2756509
v -0.4954377 0.02181257 1.776816E-07
v -0.2483011 0.01613213 0.4278055
v -0.4770704 -0.0124843 -0.1278536
v -0.1295978 0.03647092 0.4771577
v -0.3397391 0.04536851 -0.06174794
v -0.3242644 0.06992023 -0.1852438
v -0.2163923 0.05149125 1.776816E-07
v -0.4294479 0.02761453 -0.2469957
v -0.3525396 0.0653982 -0.349301
v -0.2183919 0.08858209 0.1234983
v -0.1095454 0.04346624 0.1852438
v -0.1197868 0.08695462 0.3230699
v -0.002669118 0.06029109 0.3704919
v -0.0006730296 0.01520494 0.4939901
v 0.1273846 0.01342016 0.4771577
v -0.2255552 0.07141634 -0.2613226
v -0.1255146 0.04284023 -0.3373999
v -0.1095454 0.05622149 -0.1852438
v -0.2486971 0.03300212 -0.4278051
v -0.1277839 -0.004401432 -0.4771574
v -0.2183692 0.09614554 -0.1234976
v -0.1115223 0.1008758 -0.06174794
v -0.1095454 0.04346624 0.06174792
v -0.0005337693 -0.01949645 0.1234983
v -0.002309273 0.03878919 0.2469961
v 0.1049367 0.03398844 0.1852438
v 0.1124423 0.06538721 0.3230699
v 0.2255476 0.1157983 0.2756509
v 0.2448421 0.0540717 0.4278055
v 0.3466979 0.06655014 0.3493009
v -0.002698526 0.04819649 1.776816E-07
v 0.1041484 0.0652711 -0.06174794
v 0.1041484 0.05292674 0.06174792
v 0.2090185 0.1150666 1.776816E-07
v 0.2109953 0.07009297 0.1234983
v 0.3516892 0.05880197 0.06174792
v 0.3430251 0.0674485 0.1995741
v 0.4766375 0.02226559 0.1278532
v 0.4265838 0.03708271 0.2469961
v 0.4934489 0.02311703 1.776816E-07
v 0.4738359 0.0635777 -0.1278536
v 0.3341163 0.08007079 -0.06174794
v 0.3170059 0.05397778 -0.1852438
v 0.422164 0.0746671 -0.2469957
v 0.3461073 0.04948138 -0.349301
v 0.2109337 0.06108998 -0.1234976
v 0.1041484 0.05489121 -0.1852438
v 0.2208152 0.00377754 -0.2613234
v 0.121466 0.03440312 -0.3373999
v 0.2466961 0.006419385 -0.4278051
v 0.1277105 0.006054056 -0.4771574
v -0.002698526 0.06095174 -0.1234976
v -0.004675362 0.1056061 -0.2469957
v -0.00193399 0.04368201 -0.3991488
v -0.000111542 0.002515066 -0.4939897
vt 0.01703709 0.3705904
vt 0.1464466 0.1464466
vt 0.06698731 0.25
vt 0.1501202 0.2979968
vt 0.1417468 0.4375
vt 0.2667468 0.2209936
vt 0 0.4999999
vt 0.25 0.06698728
vt 0.01703706 0.6294095
vt 0.3705905 0.01703706
vt 0.1584936 0.5624999
vt 0.1752404 0.6875
vt 0.2834936 0.5
vt 0.06698725 0.7499999
vt 0.1464465 0.8535534
vt 0.2834936 0.375
vt 0.3917468 0.3125
vt 0.3833734 0.1729968
vt 0.5 0.125
vt 0.5 0
vt 0.6294096 0.01703706
vt 0.2751202 0.7645031
vt 0.3749999 0.8415064
vt 0.3917468 0.6875
vt 0.2499999 0.9330127
vt 0.3705904 0.9829629
vt 0.2834936 0.625
vt 0.3917468 0.5625
vt 0.3917468 0.4375
vt 0.5 0.375
vt 0.5 0.25
vt 0.6082532 0.3125
vt 0.6166266 0.1729968
vt 0.7332532 0.2209937
vt 0.7500001 0.06698731
vt 0.8535534 0.1464466
vt 0.5 0.5
vt 0.6082531 0.5625
vt 0.6082532 0.4375
vt 0.7165064 0.5000001
vt 0.7165064 0.375
vt 0.8582532 0.4375001
vt 0.8498797 0.2979969
vt 0.982963 0.3705905
vt 0.9330127 0.2500001
vt 1 0.5000001
vt 0.9829629 0.6294096
vt 0.8415064 0.5625001
vt 0.8247595 0.6875001
vt 0.9330127 0.7500001
vt 0.8535534 0.8535535
vt 0.7165063 0.6250001
vt 0.6082531 0.6875
vt 0.7248797 0.7645032
vt 0.6249999 0.8415064
vt 0.7499999 0.9330127
vt 0.6294094 0.982963
vt 0.5 0.625
vt 0.5 0.75
vt 0.4999999 0.9040064
vt 0.4999999 1
vn -0.2148368 0.9759423 -0.0371727
vn 0.06462502 0.9698979 0.2347804
vn 0.04212106 0.9795832 0.1965772
vn 0.01147232 0.9833828 0.1811817
vn -0.07914429 0.984654 -0.1555402
vn -0.07079786 0.9813128 0.1789214
vn -0.2749418 0.9209062 -0.2762949
vn -0.2318982 0.953192 0.1940316
vn -0.3724023 0.922739 -0.09934402
vn -0.1218165 0.9579961 0.2596229
vn -0.2341189 0.966862 -0.1018141
vn -0.254272 0.9652575 0.06019661
vn 0.001103796 0.9998298 0.01841546
vn -0.3354177 0.9392313 0.07307325
vn -0.0616698 0.9921428 -0.108856
vn 0.1398961 0.9901373 -0.007561977
vn 0.207683 0.9705828 -0.1218074
vn -0.0525167 0.9958745 0.07400048
vn 0.08703136 0.9852262 0.1474957
vn 0.0851465 0.9415911 0.3258165
vn -0.05542136 0.9370041 0.3448939
vn -0.01786846 0.9897082 -0.141981
vn -0.008806912 0.9675427 -0.2525541
vn 0.007890824 0.993919 -0.1098307
vn 0.06906167 0.9611163 -0.2673689
vn -0.01071364 0.9416556 -0.3364075
vn -0.08226092 0.9960119 0.03454883
vn 0.04603933 0.9927493 0.1110365
vn 0.2242889 0.963704 0.1448071
vn 0.01854347 0.9997714 0.01064427
vn 0.06282241 0.9762412 -0.2073802
vn -0.34817 0.9298862 -0.1186991
vn -0.1864278 0.97713 0.1022828
vn -0.07377357 0.9963247 0.04352681
vn -0.04926207 0.9498122 0.3089178
vn 0.2895234 0.9462736 0.1440229
vn 0.06024584 0.9513878 0.3020459
vn -0.1329094 0.9910421 -0.01305772
vn -0.2958513 0.945866 0.1334519
vn -0.04082684 0.9988412 0.02548435
vn -0.08176868 0.9966132 0.008712995
vn 0.2495113 0.9653995 0.07581582
vn 0.2357582 0.9709798 -0.04020334
vn 0.2916874 0.9565134 0.0007801172
vn 0.3368372 0.9415164 0.009365723
vn 0.2706298 0.9545236 0.1250771
vn 0.1101757 0.9913245 0.07167222
vn 0.1429896 0.9894933 0.02137998
vn -0.121528 0.9776186 -0.1717349
vn -0.1888362 0.979681 -0.06757119
vn -0.2152531 0.9755051 -0.04534385
vn -0.05151001 0.9579702 -0.2822052
vn 0.1692474 0.9826493 -0.07586668
vn -0.001182494 0.9903769 -0.1383912
vn 0.1594953 0.9746786 -0.1567258
vn 0.001340607 0.9978452 -0.06559831
vn 0.09254558 0.9678293 -0.2339698
vn 0.08401839 0.9934709 0.07717813
vn 0.06959875 0.9949869 -0.07181303
vn 0.0243974 0.9392774 -0.3422906
vn -0.03750163 0.9164025 -0.3984974
g pDisc2_0
f 3/3/3 2/2/2 1/1/1
f 2/2/2 4/4/4 1/1/1
f 1/1/1 4/4/4 5/5/5
f 6/6/6 4/4/4 2/2/2
f 5/5/5 4/4/4 6/6/6
f 7/7/7 1/1/1 5/5/5
f 8/8/8 6/6/6 2/2/2
f 7/7/7 5/5/5 9/9/9
f 8/8/8 10/10/10 6/6/6
f 5/5/5 11/11/11 9/9/9
f 9/9/9 11/11/11 12/12/12
f 13/13/13 11/11/11 5/5/5
f 12/12/12 11/11/11 13/13/13
f 14/14/14 9/9/9 12/12/12
f 14/14/14 12/12/12 15/15/15
f 16/16/16 5/5/5 6/6/6
f 16/16/16 13/13/13 5/5/5
f 16/16/16 6/6/6 17/17/17
f 16/16/16 17/17/17 13/13/13
f 10/10/10 18/18/18 6/6/6
f 6/6/6 18/18/18 17/17/17
f 19/19/19 18/18/18 10/10/10
f 17/17/17 18/18/18 19/19/19
f 20/20/20 19/19/19 10/10/10
f 20/20/20 21/21/21 19/19/19
f 12/12/12 22/22/22 15/15/15
f 15/15/15 22/22/22 23/23/23
f 24/24/24 22/22/22 12/12/12
f 23/23/23 22/22/22 24/24/24
f 25/25/25 15/15/15 23/23/23
f 25/25/25 23/23/23 26/26/26
f 27/27/27 12/12/12 13/13/13
f 27/27/27 24/24/24 12/12/12
f 27/27/27 13/13/13 28/28/28
f 27/27/27 28/28/28 24/24/24
f 17/17/17 29/29/29 13/13/13
f 13/13/13 29/29/29 28/28/28
f 30/30/30 29/29/29 17/17/17
f 28/28/28 29/29/29 30/30/30
f 31/31/31 17/17/17 19/19/19
f 31/31/31 30/30/30 17/17/17
f 31/31/31 19/19/19 32/32/32
f 31/31/31 32/32/32 30/30/30
f 19/19/19 33/33/33 32/32/32
f 32/32/32 33/33/33 34/34/34
f 21/21/21 33/33/33 19/19/19
f 34/34/34 33/33/33 21/21/21
f 35/35/35 34/34/34 21/21/21
f 35/35/35 36/36/36 34/34/34
f 37/37/37 28/28/28 30/30/30
f 37/37/37 30/30/30 38/38/38
f 37/37/37 38/38/38 28/28/28
f 32/32/32 39/39/39 30/30/30
f 30/30/30 39/39/39 38/38/38
f 40/40/40 39/39/39 32/32/32
f 38/38/38 39/39/39 40/40/40
f 41/41/41 32/32/32 34/34/34
f 41/41/41 40/40/40 32/32/32
f 41/41/41 34/34/34 42/42/42
f 41/41/41 42/42/42 40/40/40
f 36/36/36 43/43/43 34/34/34
f 34/34/34 43/43/43 42/42/42
f 44/44/44 43/43/43 36/36/36
f 42/42/42 43/43/43 44/44/44
f 45/45/45 44/44/44 36/36/36
f 46/46/46 42/42/42 44/44/44
f 46/46/46 47/47/47 42/42/42
f 47/47/47 48/48/48 42/42/42
f 42/42/42 48/48/48 40/40/40
f 49/49/49 48/48/48 47/47/47
f 40/40/40 48/48/48 49/49/49
f 50/50/50 49/49/49 47/47/47
f 50/50/50 51/51/51 49/49/49
f 52/52/52 38/38/38 40/40/40
f 52/52/52 40/40/40 49/49/49
f 52/52/52 53/53/53 38/38/38
f 52/52/52 49/49/49 53/53/53
f 51/51/51 54/54/54 49/49/49
f 49/49/49 54/54/54 53/53/53
f 55/55/55 54/54/54 51/51/51
f 53/53/53 54/54/54 55/55/55
f 56/56/56 55/55/55 51/51/51
f 56/56/56 57/57/57 55/55/55
f 53/53/53 58/58/58 38/38/38
f 38/38/38 58/58/58 28/28/28
f 28/28/28 58/58/58 24/24/24
f 24/24/24 58/58/58 53/53/53
f 59/59/59 24/24/24 53/53/53
f 59/59/59 53/53/53 55/55/55
f 59/59/59 23/23/23 24/24/24
f 59/59/59 55/55/55 23/23/23
f 55/55/55 60/60/60 23/23/23
f 57/57/57 60/60/60 55/55/55
f 23/23/23 60/60/60 26/26/26
f 26/26/26 60/60/60 57/57/57
f 61/61/61 26/26/26 57/57/57
