g Pencil
v 0.3927115 0.1273561 -0.6049118
v 0.5316498 0.1208735 -0.7205343
v 0.4248521 0.1472614 -0.5906392
v 0.4248521 0.1472614 -0.5906392
v 0.5316498 0.1208735 -0.7205343
v 0.4466002 0.1414098 -0.5525164
v 0.4466002 0.1414098 -0.5525164
v 0.5316498 0.1208735 -0.7205343
v 0.4730938 0.107561 -0.5576774
v 0.4730938 0.107561 -0.5576774
v 0.5316498 0.1208735 -0.7205343
v 0.4591335 0.06174554 -0.5408511
v 0.4591335 0.06174554 -0.5408511
v 0.5316498 0.1208735 -0.7205343
v 0.4459405 0.05022859 -0.5893858
v 0.4459405 0.05022859 -0.5893858
v 0.5316498 0.1208735 -0.7205343
v 0.3981167 0.04900674 -0.5944733
v 0.3981167 0.04900674 -0.5944733
v 0.5316498 0.1208735 -0.7205343
v 0.3793816 0.08625459 -0.6070315
v 0.3793816 0.08625459 -0.6070315
v 0.5316498 0.1208735 -0.7205343
v 0.3927115 0.1273561 -0.6049118
v 0.2775848 -0.01586237 -0.4806893
v 0.3981167 0.04900674 -0.5944733
v 0.3793816 0.08625459 -0.6070315
v 0.2357095 0.05358953 -0.4999362
v 0.2357095 0.05358953 -0.4999362
v 0.3793816 0.08625459 -0.6070315
v 0.3927115 0.1273561 -0.6049118
v 0.2434402 0.13432 -0.4806894
v 0.2434402 0.13432 -0.4806894
v 0.3927115 0.1273561 -0.6049118
v 0.4248521 0.1472614 -0.5906392
v 0.2962495 0.1790381 -0.4342223
v 0.2962495 0.1790381 -0.4342223
v 0.4248521 0.1472614 -0.5906392
v 0.4466002 0.1414098 -0.5525164
v 0.3632014 0.1615485 -0.3877557
v 0.3632014 0.1615485 -0.3877557
v 0.4466002 0.1414098 -0.5525164
v 0.4730938 0.107561 -0.5576774
v 0.4050767 0.09209661 -0.3685084
v 0.4050767 0.09209661 -0.3685084
v 0.4730938 0.107561 -0.5576774
v 0.4591335 0.06174554 -0.5408511
v 0.397346 0.01136617 -0.3877557
v 0.397346 0.01136617 -0.3877557
v 0.4591335 0.06174554 -0.5408511
v 0.4459405 0.05022859 -0.5893858
v 0.3445375 -0.033352 -0.4342223
v 0.3445375 -0.033352 -0.4342223
v 0.4459405 0.05022859 -0.5893858
v 0.3981167 0.04900674 -0.5944733
v 0.2775848 -0.01586237 -0.4806893
v -0.8665406 -0.1180401 1.023645
v 0.2434402 0.13432 -0.4806894
v 0.2962495 0.1790381 -0.4342223
v -0.8137313 -0.07332268 1.070112
v -0.8137313 -0.07332268 1.070112
v 0.2962495 0.1790381 -0.4342223
v 0.3632014 0.1615485 -0.3877557
v -0.7467793 -0.0908123 1.116579
v -0.7467793 -0.0908123 1.116579
v 0.3632014 0.1615485 -0.3877557
v 0.4050767 0.09209661 -0.3685084
v -0.7049032 -0.1602642 1.135826
v -0.7049032 -0.1602642 1.135826
v 0.4050767 0.09209661 -0.3685084
v 0.397346 0.01136617 -0.3877557
v -0.712634 -0.2409939 1.116579
v -0.712634 -0.2409939 1.116579
v 0.397346 0.01136617 -0.3877557
v 0.3445375 -0.033352 -0.4342223
v -0.7654433 -0.285712 1.070112
v -0.7654433 -0.285712 1.070112
v 0.3445375 -0.033352 -0.4342223
v 0.2775848 -0.01586237 -0.4806893
v -0.8323951 -0.2682224 1.023645
v -0.8323951 -0.2682224 1.023645
v 0.2775848 -0.01586237 -0.4806893
v 0.2357095 0.05358953 -0.4999362
v -0.8742705 -0.1987705 1.004398
v -0.8742705 -0.1987705 1.004398
v 0.2357095 0.05358953 -0.4999362
v 0.2434402 0.13432 -0.4806894
v -0.8665406 -0.1180401 1.023645
v -0.8665406 -0.1180401 1.023645
v -0.8137313 -0.07332268 1.070112
v -0.8311247 -0.09363088 1.098476
v -0.876201 -0.1318007 1.058813
v -0.876201 -0.1318007 1.058813
v -0.8311247 -0.09363088 1.098476
v -0.8312582 -0.1331437 1.110225
v -0.8576649 -0.1555047 1.086989
v -0.8137313 -0.07332268 1.070112
v -0.7467793 -0.0908123 1.116579
v -0.7739764 -0.1085593 1.138139
v -0.8311247 -0.09363088 1.098476
v -0.8311247 -0.09363088 1.098476
v -0.7739764 -0.1085593 1.138139
v -0.797779 -0.1418893 1.133461
v -0.8312582 -0.1331437 1.110225
v -0.7467793 -0.0908123 1.116579
v -0.7049032 -0.1602642 1.135826
v -0.738232 -0.1678412 1.154568
v -0.7739764 -0.1085593 1.138139
v -0.7739764 -0.1085593 1.138139
v -0.738232 -0.1678412 1.154568
v -0.7768386 -0.1766183 1.143085
v -0.797779 -0.1418893 1.133461
v -0.7049032 -0.1602642 1.135826
v -0.712634 -0.2409939 1.116579
v -0.7448314 -0.2367499 1.138139
v -0.738232 -0.1678412 1.154568
v -0.738232 -0.1678412 1.154568
v -0.7448314 -0.2367499 1.138139
v -0.7807052 -0.2169877 1.133461
v -0.7768386 -0.1766183 1.143085
v -0.712634 -0.2409939 1.116579
v -0.7654433 -0.285712 1.070112
v -0.7899077 -0.2749198 1.098476
v -0.7448314 -0.2367499 1.138139
v -0.7448314 -0.2367499 1.138139
v -0.7899077 -0.2749198 1.098476
v -0.8071112 -0.2393487 1.110225
v -0.7807052 -0.2169877 1.133461
v -0.7654433 -0.285712 1.070112
v -0.8323951 -0.2682224 1.023645
v -0.847056 -0.2599913 1.058814
v -0.7899077 -0.2749198 1.098476
v -0.7899077 -0.2749198 1.098476
v -0.847056 -0.2599913 1.058814
v -0.8405911 -0.2306031 1.086989
v -0.8071112 -0.2393487 1.110225
v -0.8323951 -0.2682224 1.023645
v -0.8742705 -0.1987705 1.004398
v -0.8827996 -0.2007094 1.042385
v -0.847056 -0.2599913 1.058814
v -0.847056 -0.2599913 1.058814
v -0.8827996 -0.2007094 1.042385
v -0.8615308 -0.1958741 1.077365
v -0.8405911 -0.2306031 1.086989
v -0.8576649 -0.1555047 1.086989
v -0.8615308 -0.1958741 1.077365
v -0.8827996 -0.2007094 1.042385
v -0.876201 -0.1318007 1.058813
v -0.876201 -0.1318007 1.058813
v -0.8827996 -0.2007094 1.042385
v -0.8742705 -0.1987705 1.004398
v -0.8665406 -0.1180401 1.023645
v -0.8312582 -0.1331437 1.110225
v -0.8191847 -0.1862458 1.110225
v -0.8576649 -0.1555047 1.086989
v -0.797779 -0.1418893 1.133461
v -0.8615308 -0.1958741 1.077365
v -0.7768386 -0.1766183 1.143085
v -0.8405911 -0.2306031 1.086989
v -0.7807052 -0.2169877 1.133461
v -0.8071112 -0.2393487 1.110225
vt 0.7929688 0.1566162
vt 0.7670898 0.03637695
vt 0.7670898 0.1495361
vt 0.7670898 0.1495361
vt 0.7670898 0.03637695
vt 0.7402344 0.1623535
vt 0.7001953 0.04345703
vt 0.7270508 0.1694336
vt 0.7270508 0.05401611
vt 0.7270508 0.05401611
vt 0.7270508 0.1694336
vt 0.7558594 0.034729
vt 0.7768555 0.03652954
vt 0.8056641 0.1712646
vt 0.8056641 0.05697632
vt 0.8056641 0.05697632
vt 0.8056641 0.1712646
vt 0.8339844 0.04013062
vt 0.7431641 0.1641846
vt 0.7709961 0.2954102
vt 0.7709961 0.1669922
vt 0.7709961 0.1669922
vt 0.7709961 0.2954102
vt 0.796875 0.1750488
vt 0.1903076 0.7509766
vt 0.2023926 0.8066406
vt 0.2155762 0.8081055
vt 0.2155762 0.7509766
vt 0.2155762 0.7509766
vt 0.2155762 0.8081055
vt 0.2277832 0.8120117
vt 0.2409668 0.7509766
vt 0.1640625 0.8803711
vt 0.1508789 0.8193359
vt 0.1387939 0.8164063
vt 0.1387939 0.8803711
vt 0.1387939 0.8803711
vt 0.1387939 0.8164063
vt 0.1259766 0.8222656
vt 0.1134644 0.8803711
vt 0.08337402 0.7509766
vt 0.09588623 0.809082
vt 0.1087036 0.8139648
vt 0.1087036 0.7509766
vt 0.1087036 0.7509766
vt 0.1087036 0.8139648
vt 0.1223145 0.8051758
vt 0.1339111 0.7509766
vt 0.1368408 0.7509766
vt 0.1485596 0.8051758
vt 0.1621094 0.8144531
vt 0.1621094 0.7509766
vt 0.1621094 0.7509766
vt 0.1621094 0.8144531
vt 0.175415 0.8066406
vt 0.1873779 0.7509766
vt 0.8652344 0.2330322
vt 0.8652344 0.08233643
vt 0.8544922 0.08233643
vt 0.8544922 0.2330322
vt 0.05895996 0.1408691
vt 0.05895996 0.0536499
vt 0.05249023 0.0536499
vt 0.05249023 0.1408691
vt 0.8666992 0.03543091
vt 0.8666992 0.1861572
vt 0.8779297 0.1861572
vt 0.8779297 0.03543091
vt 0.07263184 0.026474
vt 0.07263184 0.1137085
vt 0.07910156 0.1137085
vt 0.07910156 0.026474
vt 0.890625 0.03543091
vt 0.890625 0.1861572
vt 0.9013672 0.1861572
vt 0.9013672 0.03543091
vt 0.08636475 0.026474
vt 0.08636475 0.1137085
vt 0.09283447 0.1137085
vt 0.09283447 0.026474
vt 0.9140625 0.03543091
vt 0.9140625 0.1861572
vt 0.925293 0.1861572
vt 0.925293 0.03543091
vt 0.1000366 0.026474
vt 0.1000366 0.1137085
vt 0.1065063 0.1137085
vt 0.1065063 0.026474
vt 0.9345703 0.8554688
vt 0.8808594 0.8554688
vt 0.8808594 0.8798828
vt 0.9267578 0.8798828
vt 0.8300781 0.8242188
vt 0.8110352 0.8696289
vt 0.8378906 0.8696289
vt 0.8491211 0.8427734
vt 0.8808594 0.8554688
vt 0.8271484 0.8554688
vt 0.8354492 0.8798828
vt 0.8808594 0.8798828
vt 0.8110352 0.8696289
vt 0.8300781 0.9155273
vt 0.8491211 0.8964844
vt 0.8378906 0.8696289
vt 0.8276367 0.8481445
vt 0.8813477 0.8481445
vt 0.8813477 0.8237305
vt 0.8354492 0.8237305
vt 0.8300781 0.9155273
vt 0.8759766 0.934082
vt 0.8759766 0.9077148
vt 0.8491211 0.8964844
vt 0.8813477 0.8481445
vt 0.9345703 0.8481445
vt 0.9267578 0.8237305
vt 0.8813477 0.8237305
vt 0.8759766 0.934082
vt 0.9213867 0.9155273
vt 0.902832 0.8964844
vt 0.8759766 0.9077148
vt 0.8222656 0.9121094
vt 0.8754883 0.9121094
vt 0.8754883 0.887207
vt 0.8300781 0.887207
vt 0.9213867 0.9155273
vt 0.9404297 0.8696289
vt 0.9135742 0.8696289
vt 0.902832 0.8964844
vt 0.8754883 0.9121094
vt 0.9291992 0.9121094
vt 0.9213867 0.887207
vt 0.8754883 0.887207
vt 0.9404297 0.8696289
vt 0.9213867 0.8242188
vt 0.902832 0.8427734
vt 0.9135742 0.8696289
vt 0.8222656 0.9467773
vt 0.8759766 0.9467773
vt 0.8759766 0.921875
vt 0.8300781 0.921875
vt 0.9213867 0.8242188
vt 0.8759766 0.8051758
vt 0.8759766 0.8320313
vt 0.902832 0.8427734
vt 0.8491211 0.8427734
vt 0.8759766 0.8320313
vt 0.8759766 0.8051758
vt 0.8300781 0.8242188
vt 0.9213867 0.921875
vt 0.8759766 0.921875
vt 0.8759766 0.9467773
vt 0.9291992 0.9467773
vt 0.8378906 0.8696289
vt 0.8759766 0.8696289
vt 0.8491211 0.8427734
vt 0.8491211 0.8964844
vt 0.8759766 0.8320313
vt 0.8759766 0.9077148
vt 0.902832 0.8427734
vt 0.902832 0.8964844
vt 0.9135742 0.8696289
vn -0.3249512 0.8383789 -0.4375
vn -0.3249512 0.8383789 -0.4375
vn -0.3249512 0.8383789 -0.4375
vn 0.2480469 0.96875 0.007171631
vn 0.2480469 0.96875 0.007171631
vn 0.2480469 0.96875 0.007171631
vn 0.769043 0.5527344 0.3215332
vn 0.769043 0.5527344 0.3215332
vn 0.769043 0.5527344 0.3215332
vn 0.9321289 -0.1658936 0.3215332
vn 0.9321289 -0.1658936 0.3215332
vn 0.9321289 -0.1658936 0.3215332
vn 0.6425781 -0.7661133 0.007171631
vn 0.6425781 -0.7661133 0.007171631
vn 0.6425781 -0.7661133 0.007171631
vn 0.06945801 -0.8964844 -0.4375
vn 0.06945801 -0.8964844 -0.4375
vn 0.06945801 -0.8964844 -0.4375
vn -0.4511719 -0.4804688 -0.7519531
vn -0.4511719 -0.4804688 -0.7519531
vn -0.4511719 -0.4804688 -0.7519531
vn -0.6147461 0.2381592 -0.7519531
vn -0.6147461 0.2381592 -0.7519531
vn -0.6147461 0.2381592 -0.7519531
vn -0.4511719 -0.4804688 -0.7519531
vn -0.4511719 -0.4804688 -0.7519531
vn -0.4511719 -0.4804688 -0.7519531
vn -0.4511719 -0.4804688 -0.7519531
vn -0.6147461 0.2381592 -0.7519531
vn -0.6147461 0.2381592 -0.7519531
vn -0.6147461 0.2381592 -0.7519531
vn -0.6147461 0.2381592 -0.7519531
vn -0.3249512 0.8383789 -0.4375
vn -0.3249512 0.8383789 -0.4375
vn -0.3249512 0.8383789 -0.4375
vn -0.3249512 0.8383789 -0.4375
vn 0.2480469 0.96875 0.007171631
vn 0.2480469 0.96875 0.007171631
vn 0.2480469 0.96875 0.007171631
vn 0.2480469 0.96875 0.007171631
vn 0.769043 0.5527344 0.3215332
vn 0.769043 0.5527344 0.3215332
vn 0.769043 0.5527344 0.3215332
vn 0.769043 0.5527344 0.3215332
vn 0.9321289 -0.1658936 0.3215332
vn 0.9321289 -0.1658936 0.3215332
vn 0.9321289 -0.1658936 0.3215332
vn 0.9321289 -0.1658936 0.3215332
vn 0.6425781 -0.7661133 0.007171631
vn 0.6425781 -0.7661133 0.007171631
vn 0.6425781 -0.7661133 0.007171631
vn 0.6425781 -0.7661133 0.007171631
vn 0.06945801 -0.8964844 -0.4375
vn 0.06945801 -0.8964844 -0.4375
vn 0.06945801 -0.8964844 -0.4375
vn 0.06945801 -0.8964844 -0.4375
vn -0.5024414 0.8330078 -0.230957
vn -0.5024414 0.8330078 -0.230957
vn -0.5024414 0.8330078 -0.230957
vn -0.5024414 0.8330078 -0.230957
vn 0.09277344 0.96875 0.230957
vn 0.09277344 0.96875 0.230957
vn 0.09277344 0.96875 0.230957
vn 0.09277344 0.96875 0.230957
vn 0.6337891 0.5366211 0.5576172
vn 0.6337891 0.5366211 0.5576172
vn 0.6337891 0.5366211 0.5576172
vn 0.6337891 0.5366211 0.5576172
vn 0.8032227 -0.2098389 0.5576172
vn 0.8032227 -0.2098389 0.5576172
vn 0.8032227 -0.2098389 0.5576172
vn 0.8032227 -0.2098389 0.5576172
vn 0.5024414 -0.8330078 0.230957
vn 0.5024414 -0.8330078 0.230957
vn 0.5024414 -0.8330078 0.230957
vn 0.5024414 -0.8330078 0.230957
vn -0.09277344 -0.96875 -0.230957
vn -0.09277344 -0.96875 -0.230957
vn -0.09277344 -0.96875 -0.230957
vn -0.09277344 -0.96875 -0.230957
vn -0.6337891 -0.5366211 -0.5576172
vn -0.6337891 -0.5366211 -0.5576172
vn -0.6337891 -0.5366211 -0.5576172
vn -0.6337891 -0.5366211 -0.5576172
vn -0.8032227 0.2098389 -0.5576172
vn -0.8032227 0.2098389 -0.5576172
vn -0.8032227 0.2098389 -0.5576172
vn -0.8032227 0.2098389 -0.5576172
vn -0.6894531 0.71875 0.09185791
vn -0.6894531 0.71875 0.09185791
vn -0.6894531 0.71875 0.09185791
vn -0.6894531 0.71875 0.09185791
vn -0.7358398 0.1953125 0.6484375
vn -0.7358398 0.1953125 0.6484375
vn -0.7358398 0.1953125 0.6484375
vn -0.7358398 0.1953125 0.6484375
vn -0.1395264 0.84375 0.5185547
vn -0.1395264 0.84375 0.5185547
vn -0.1395264 0.84375 0.5185547
vn -0.1395264 0.84375 0.5185547
vn -0.5083008 0.2470703 0.8251953
vn -0.5083008 0.2470703 0.8251953
vn -0.5083008 0.2470703 0.8251953
vn -0.5083008 0.2470703 0.8251953
vn 0.3601074 0.4445801 0.8203125
vn 0.3601074 0.4445801 0.8203125
vn 0.3601074 0.4445801 0.8203125
vn 0.3601074 0.4445801 0.8203125
vn -0.3012695 0.08172607 0.9501953
vn -0.3012695 0.08172607 0.9501953
vn -0.3012695 0.08172607 0.9501953
vn -0.3012695 0.08172607 0.9501953
vn 0.5170898 -0.2449951 0.8203125
vn 0.5170898 -0.2449951 0.8203125
vn 0.5170898 -0.2449951 0.8203125
vn 0.5170898 -0.2449951 0.8203125
vn -0.2362061 -0.2038574 0.9501953
vn -0.2362061 -0.2038574 0.9501953
vn -0.2362061 -0.2038574 0.9501953
vn -0.2362061 -0.2038574 0.9501953
vn 0.2390137 -0.8208008 0.5185547
vn 0.2390137 -0.8208008 0.5185547
vn 0.2390137 -0.8208008 0.5185547
vn 0.2390137 -0.8208008 0.5185547
vn -0.3513184 -0.4423828 0.8251953
vn -0.3513184 -0.4423828 0.8251953
vn -0.3513184 -0.4423828 0.8251953
vn -0.3513184 -0.4423828 0.8251953
vn -0.310791 -0.9458008 0.09185791
vn -0.310791 -0.9458008 0.09185791
vn -0.310791 -0.9458008 0.09185791
vn -0.310791 -0.9458008 0.09185791
vn -0.5791016 -0.4941406 0.6484375
vn -0.5791016 -0.4941406 0.6484375
vn -0.5791016 -0.4941406 0.6484375
vn -0.5791016 -0.4941406 0.6484375
vn -0.8105469 -0.546875 -0.2098389
vn -0.8105469 -0.546875 -0.2098389
vn -0.8105469 -0.546875 -0.2098389
vn -0.8105469 -0.546875 -0.2098389
vn -0.7861328 -0.3288574 0.5234375
vn -0.7861328 -0.3288574 0.5234375
vn -0.7861328 -0.3288574 0.5234375
vn -0.7861328 -0.3288574 0.5234375
vn -0.8510742 -0.04330444 0.5234375
vn -0.8510742 -0.04330444 0.5234375
vn -0.8510742 -0.04330444 0.5234375
vn -0.8510742 -0.04330444 0.5234375
vn -0.9672852 0.1427002 -0.2098389
vn -0.9672852 0.1427002 -0.2098389
vn -0.9672852 0.1427002 -0.2098389
vn -0.9672852 0.1427002 -0.2098389
vn -0.5883789 -0.1337891 0.7973633
vn -0.5883789 -0.1337891 0.7973633
vn -0.5883789 -0.1337891 0.7973633
vn -0.5883789 -0.1337891 0.7973633
vn -0.5883789 -0.1337891 0.7973633
vn -0.5883789 -0.1337891 0.7973633
vn -0.5883789 -0.1337891 0.7973633
vn -0.5883789 -0.1337891 0.7973633
vn -0.5883789 -0.1337891 0.7973633
g Pencil_0
f 3/3/3 2/2/2 1/1/1
f 6/6/6 5/5/5 4/4/4
f 9/9/9 8/8/8 7/7/7
f 12/12/12 11/11/11 10/10/10
f 15/15/15 14/14/14 13/13/13
f 18/18/18 17/17/17 16/16/16
f 21/21/21 20/20/20 19/19/19
f 24/24/24 23/23/23 22/22/22
f 27/27/27 26/26/26 25/25/25
f 28/28/28 27/27/27 25/25/25
f 31/31/31 30/30/30 29/29/29
f 32/32/32 31/31/31 29/29/29
f 35/35/35 34/34/34 33/33/33
f 36/36/36 35/35/35 33/33/33
f 39/39/39 38/38/38 37/37/37
f 40/40/40 39/39/39 37/37/37
f 43/43/43 42/42/42 41/41/41
f 44/44/44 43/43/43 41/41/41
f 47/47/47 46/46/46 45/45/45
f 48/48/48 47/47/47 45/45/45
f 51/51/51 50/50/50 49/49/49
f 52/52/52 51/51/51 49/49/49
f 55/55/55 54/54/54 53/53/53
f 56/56/56 55/55/55 53/53/53
f 59/59/59 58/58/58 57/57/57
f 60/60/60 59/59/59 57/57/57
f 63/63/63 62/62/62 61/61/61
f 64/64/64 63/63/63 61/61/61
f 67/67/67 66/66/66 65/65/65
f 68/68/68 67/67/67 65/65/65
f 71/71/71 70/70/70 69/69/69
f 72/72/72 71/71/71 69/69/69
f 75/75/75 74/74/74 73/73/73
f 76/76/76 75/75/75 73/73/73
f 79/79/79 78/78/78 77/77/77
f 80/80/80 79/79/79 77/77/77
f 83/83/83 82/82/82 81/81/81
f 84/84/84 83/83/83 81/81/81
f 87/87/87 86/86/86 85/85/85
f 88/88/88 87/87/87 85/85/85
f 91/91/91 90/90/90 89/89/89
f 92/92/92 91/91/91 89/89/89
f 95/95/95 94/94/94 93/93/93
f 96/96/96 95/95/95 93/93/93
f 99/99/99 98/98/98 97/97/97
f 100/100/100 99/99/99 97/97/97
f 103/103/103 102/102/102 101/101/101
f 104/104/104 103/103/103 101/101/101
f 107/107/107 106/106/106 105/105/105
f 108/108/108 107/107/107 105/105/105
f 111/111/111 110/110/110 109/109/109
f 112/112/112 111/111/111 109/109/109
f 115/115/115 114/114/114 113/113/113
f 116/116/116 115/115/115 113/113/113
f 119/119/119 118/118/118 117/117/117
f 120/120/120 119/119/119 117/117/117
f 123/123/123 122/122/122 121/121/121
f 124/124/124 123/123/123 121/121/121
f 127/127/127 126/126/126 125/125/125
f 128/128/128 127/127/127 125/125/125
f 131/131/131 130/130/130 129/129/129
f 132/132/132 131/131/131 129/129/129
f 135/135/135 134/134/134 133/133/133
f 136/136/136 135/135/135 133/133/133
f 139/139/139 138/138/138 137/137/137
f 140/140/140 139/139/139 137/137/137
f 143/143/143 142/142/142 141/141/141
f 144/144/144 143/143/143 141/141/141
f 147/147/147 146/146/146 145/145/145
f 148/148/148 147/147/147 145/145/145
f 151/151/151 150/150/150 149/149/149
f 152/152/152 151/151/151 149/149/149
f 155/155/155 154/154/154 153/153/153
f 153/153/153 154/154/154 156/156/156
f 157/157/157 154/154/154 155/155/155
f 156/156/156 154/154/154 158/158/158
f 159/159/159 154/154/154 157/157/157
f 158/158/158 154/154/154 160/160/160
f 161/161/161 154/154/154 159/159/159
f 160/160/160 154/154/154 161/161/161
