g Pocket
v 1.250966 -3.763499 0.5724745
v 1.323844 -3.613267 0.5320857
v 1.323844 -3.043552 0.4203382
v 1.323844 -3.043552 0.4203382
v 1.323844 -2.899488 0.4040956
v 1.250966 -3.763499 0.5724745
v 1.323844 -2.899488 0.4040956
v 0.2359034 -2.868838 0.7544321
v 1.250966 -3.763499 0.5724745
v 0.3087815 -3.732917 0.9220326
v 0.2359033 -3.577954 0.9357207
v 0.3388359 -3.565928 1.07317
v 0.3979237 -3.722503 1.041068
v 0.5078885 -3.851088 0.8579354
v 0.5599443 -3.561857 1.119714
v 0.5593548 -3.845074 0.9266604
v 0.7696938 -3.895772 0.8181177
v 0.5894093 -3.718976 1.081375
v 0.8399824 -3.566829 1.06288
v 0.6699091 -3.843039 0.9499322
v 0.8319296 -3.723282 1.032156
v 1.103915 -3.579513 0.9178963
v 0.8099281 -3.845525 0.9215151
v 1.060501 -3.734267 0.9065964
v 1.28102 -3.596511 0.7236124
v 0.9418943 -3.851867 0.8490235
v 1.213879 -3.748987 0.7383416
v 1.323844 -3.613267 0.5320857
v 1.250966 -3.763499 0.5724745
v 1.030447 -3.860366 0.7518815
v 1.051859 -3.868744 0.6561181
v 0.2359033 -3.577954 0.9357207
v 0.2359034 -3.008238 0.8239731
v 0.3388359 -2.990838 1.022856
v 0.3388359 -3.565928 1.07317
v 0.5599443 -2.986766 1.0694
v 0.5599443 -3.561857 1.119714
v 0.8399824 -2.991739 1.012566
v 0.8399824 -3.566829 1.06288
v 1.103915 -3.004423 0.8675824
v 1.103915 -3.579513 0.9178963
v 1.28102 -3.02142 0.6732985
v 1.28102 -3.596511 0.7236124
v 1.323844 -3.043552 0.4203382
v 1.323844 -3.613267 0.5320857
v 0.2359034 -3.008238 0.8239731
v 0.2359034 -2.868838 0.7544321
v 0.3498933 -2.839766 1.086721
v 0.3388359 -2.990838 1.022856
v 0.3388359 -2.990838 1.022856
v 0.3498933 -2.839766 1.086721
v 0.5710015 -2.835694 1.133265
v 0.5599443 -2.986766 1.0694
v 0.5599443 -2.986766 1.0694
v 0.5710015 -2.835694 1.133265
v 0.8510396 -2.840667 1.07643
v 0.8399824 -2.991739 1.012566
v 0.8399824 -2.991739 1.012566
v 0.8510396 -2.840667 1.07643
v 1.114972 -2.853351 0.9314471
v 1.103915 -3.004423 0.8675824
v 1.103915 -3.004423 0.8675824
v 1.114972 -2.853351 0.9314471
v 1.292078 -2.870348 0.7371628
v 1.28102 -3.02142 0.6732985
v 1.28102 -3.02142 0.6732985
v 1.292078 -2.870348 0.7371628
v 1.323844 -2.899488 0.4040956
v 1.323844 -3.043552 0.4203382
v 0.2359034 -2.868838 0.7544321
v 0.2314061 -2.707836 0.7399691
v 0.3622053 -2.680785 1.049157
v 0.3498933 -2.839766 1.086721
v 0.3498933 -2.839766 1.086721
v 0.3622053 -2.680785 1.049157
v 0.5833136 -2.676713 1.095701
v 0.5710015 -2.835694 1.133265
v 0.5710015 -2.835694 1.133265
v 0.5833136 -2.676713 1.095701
v 0.8633518 -2.681686 1.038866
v 0.8510396 -2.840667 1.07643
v 0.8510396 -2.840667 1.07643
v 0.8633518 -2.681686 1.038866
v 1.127284 -2.69437 0.8938828
v 1.114972 -2.853351 0.9314471
v 1.114972 -2.853351 0.9314471
v 1.127284 -2.69437 0.8938828
v 1.30439 -2.711368 0.6995988
v 1.292078 -2.870348 0.7371628
v 1.292078 -2.870348 0.7371628
v 1.30439 -2.711368 0.6995988
v 1.319347 -2.738343 0.3912678
v 1.323844 -2.899488 0.4040956
v 0.2359034 -2.868838 0.7544321
v 1.323844 -2.899488 0.4040956
v 1.319347 -2.738343 0.3912678
v 0.2314061 -2.707836 0.7399691
v 0.2359033 -3.577954 0.9357207
v 0.3087815 -3.732917 0.9220326
v 0.2359034 -3.008238 0.8239731
v 0.2359034 -2.868838 0.7544321
v 0.5078885 -3.851088 0.8579354
v 0.7696938 -3.895772 0.8181177
v 1.051859 -3.868744 0.6561181
v 1.250966 -3.763499 0.5724745
v 0.2314061 -2.707836 0.7399691
v 1.319347 -2.738343 0.3912678
v 1.30439 -2.711368 0.6995988
v 1.127284 -2.69437 0.8938828
v 0.3622053 -2.680785 1.049157
v 0.8633518 -2.681686 1.038866
v 0.5833136 -2.676713 1.095701
vt 0.5654297 0.7348633
vt 0.574707 0.7348633
vt 0.5654297 0.8266602
vt 0.5654297 0.8266602
vt 0.6337891 0.8803711
vt 0.5654297 0.7348633
vt 0.6337891 0.8803711
vt 0.4614258 0.7080078
vt 0.5654297 0.7348633
vt 0.5297852 0.7348633
vt 0.5205078 0.7348633
vt 0.5244141 0.7485352
vt 0.5322266 0.7436523
vt 0.5385742 0.7348633
vt 0.5341797 0.7583008
vt 0.5400391 0.7392578
vt 0.5473633 0.7338867
vt 0.5385742 0.7504883
vt 0.5473633 0.7617188
vt 0.5429688 0.7426758
vt 0.5473633 0.7529297
vt 0.5610352 0.7583008
vt 0.5473633 0.7436523
vt 0.5566406 0.7504883
vt 0.5708008 0.7485352
vt 0.5522461 0.7426758
vt 0.5629883 0.7436523
vt 0.574707 0.7348633
vt 0.5654297 0.7348633
vt 0.5551758 0.7392578
vt 0.5566406 0.7348633
vt 0.5439453 0.7617188
vt 0.5439453 0.8266602
vt 0.5473633 0.8266602
vt 0.5473633 0.7617188
vt 0.5512695 0.8266602
vt 0.5512695 0.7617188
vt 0.5546875 0.8266602
vt 0.5546875 0.7617188
vt 0.5581055 0.8266602
vt 0.5581055 0.7617188
vt 0.5620117 0.8266602
vt 0.5620117 0.7617188
vt 0.5654297 0.8266602
vt 0.5654297 0.7617188
vt 0.4614258 0.7080078
vt 0.4614258 0.8803711
vt 0.6337891 0.8803711
vt 0.6337891 0.7080078
vt 0.4614258 0.7080078
vt 0.4614258 0.8803711
vt 0.6337891 0.8803711
vt 0.6337891 0.7080078
vt 0.4614258 0.7080078
vt 0.4614258 0.8803711
vt 0.6337891 0.8803711
vt 0.6337891 0.7080078
vt 0.4614258 0.7080078
vt 0.4614258 0.8803711
vt 0.6337891 0.8803711
vt 0.6337891 0.7080078
vt 0.4614258 0.7080078
vt 0.4614258 0.8803711
vt 0.6337891 0.8803711
vt 0.6337891 0.7080078
vt 0.4614258 0.7080078
vt 0.4614258 0.8803711
vt 0.6337891 0.8803711
vt 0.6337891 0.7080078
vt 0.4614258 0.7080078
vt 0.4614258 0.8803711
vt 0.6337891 0.8803711
vt 0.6337891 0.7080078
vt 0.4614258 0.7080078
vt 0.4614258 0.8803711
vt 0.6337891 0.8803711
vt 0.6337891 0.7080078
vt 0.4614258 0.7080078
vt 0.4614258 0.8803711
vt 0.6337891 0.8803711
vt 0.6337891 0.7080078
vt 0.4614258 0.7080078
vt 0.4614258 0.8803711
vt 0.6337891 0.8803711
vt 0.6337891 0.7080078
vt 0.4614258 0.7080078
vt 0.4614258 0.8803711
vt 0.6337891 0.8803711
vt 0.6337891 0.7080078
vt 0.4614258 0.7080078
vt 0.4614258 0.8803711
vt 0.6337891 0.8803711
vt 0.6337891 0.7080078
vt 0.4614258 0.7080078
vt 0.6337891 0.7080078
vt 0.6337891 0.8803711
vt 0.4614258 0.8803711
vt 0.5439453 0.7617188
vt 0.5297852 0.7348633
vt 0.4614258 0.7080078
vt 0.4614258 0.7080078
vt 0.5385742 0.7348633
vt 0.5473633 0.7338867
vt 0.5566406 0.7348633
vt 0.5654297 0.7348633
vt 0.4614258 0.8803711
vt 0.6337891 0.8803711
vt 0.4614258 0.8803711
vt 0.4614258 0.8803711
vt 0.4614258 0.8803711
vt 0.4614258 0.8803711
vt 0.4614258 0.8803711
vn -0.3439941 -0.1844482 -0.9208984
vn -0.3439941 -0.1844482 -0.9208984
vn -0.3439941 -0.1844482 -0.9208984
vn -0.3439941 -0.1844482 -0.9208984
vn -0.3391113 -0.1710205 -0.925293
vn -0.3439941 -0.1844482 -0.9208984
vn -0.3391113 -0.1710205 -0.925293
vn -0.3391113 -0.1715088 -0.9248047
vn -0.3439941 -0.1844482 -0.9208984
vn -0.6020508 -0.6186523 0.5048828
vn -0.8447266 -0.007011414 0.5351563
vn -0.5478516 0.004947662 0.8364258
vn -0.388916 -0.5620117 0.7299805
vn -0.3427734 -0.8779297 0.3334961
vn 0.01599121 0.02297974 0.9995117
vn -0.2127686 -0.847168 0.4865723
vn 0.08673096 -0.9423828 0.3234863
vn 0.01417542 -0.4541016 0.890625
vn 0.3476563 0.02574158 0.9375
vn 0.03182983 -0.7636719 0.6450195
vn 0.3051758 -0.4064941 0.8613281
vn 0.6118164 0.01071167 0.7905273
vn 0.223877 -0.7275391 0.6484375
vn 0.5332031 -0.432373 0.7270508
vn 0.8833008 -0.02325439 0.4682617
vn 0.357666 -0.7558594 0.5483398
vn 0.7167969 -0.5317383 0.451416
vn 0.9799805 -0.03604126 0.1962891
vn 0.7978516 -0.5581055 0.2272949
vn 0.4331055 -0.8330078 0.3439941
vn 0.4719238 -0.862793 0.1810303
vn -0.8447266 -0.007011414 0.5351563
vn -0.8793945 0.06347656 0.472168
vn -0.6069336 0.03216553 0.7939453
vn -0.5478516 0.004947662 0.8364258
vn 0.01873779 -0.02345276 0.9995117
vn 0.01599121 0.02297974 0.9995117
vn 0.3486328 -0.02642822 0.9370117
vn 0.3476563 0.02574158 0.9375
vn 0.6123047 -0.02549744 0.7900391
vn 0.6118164 0.01071167 0.7905273
vn 0.8994141 -0.004825592 0.4375
vn 0.8833008 -0.02325439 0.4682617
vn 0.9848633 0.004161835 0.1723633
vn 0.9799805 -0.03604126 0.1962891
vn -0.8793945 0.06347656 0.472168
vn -0.9311523 0.06610107 0.3586426
vn -0.6689453 -0.007713318 0.7431641
vn -0.6069336 0.03216553 0.7939453
vn -0.6069336 0.03216553 0.7939453
vn -0.6689453 -0.007713318 0.7431641
vn 0.01945496 -0.08062744 0.996582
vn 0.01873779 -0.02345276 0.9995117
vn 0.01873779 -0.02345276 0.9995117
vn 0.01945496 -0.08062744 0.996582
vn 0.3007813 -0.3898926 0.8701172
vn 0.3486328 -0.02642822 0.9370117
vn 0.3486328 -0.02642822 0.9370117
vn 0.3007813 -0.3898926 0.8701172
vn 0.5854492 -0.1088867 0.8032227
vn 0.6123047 -0.02549744 0.7900391
vn 0.6123047 -0.02549744 0.7900391
vn 0.5854492 -0.1088867 0.8032227
vn 0.8955078 -0.0847168 0.4367676
vn 0.8994141 -0.004825592 0.4375
vn 0.8994141 -0.004825592 0.4375
vn 0.8955078 -0.0847168 0.4367676
vn 0.9946289 -0.03323364 0.09960938
vn 0.9848633 0.004161835 0.1723633
vn -0.9311523 0.06610107 0.3586426
vn -0.9335938 0.07958984 0.3493652
vn -0.1004028 0.9951172 0.005119324
vn -0.6689453 -0.007713318 0.7431641
vn -0.6689453 -0.007713318 0.7431641
vn -0.1004028 0.9951172 0.005119324
vn 0.00315094 1 0.01821899
vn 0.01945496 -0.08062744 0.996582
vn 0.01945496 -0.08062744 0.996582
vn 0.00315094 1 0.01821899
vn 0.04180908 0.9990234 0.02146912
vn 0.3359375 0.1918945 0.9223633
vn 0.3359375 0.1918945 0.9223633
vn 0.04180908 0.9990234 0.02146912
vn 0.06976318 0.9975586 0.0005822182
vn 0.5854492 -0.1088867 0.8032227
vn 0.5854492 -0.1088867 0.8032227
vn 0.06976318 0.9975586 0.0005822182
vn 0.1220093 0.9916992 -0.04382324
vn 0.8955078 -0.0847168 0.4367676
vn 0.8955078 -0.0847168 0.4367676
vn 0.1220093 0.9916992 -0.04382324
vn 0.9970703 -0.01273346 0.07373047
vn 0.9946289 -0.03323364 0.09960938
vn -0.3391113 -0.1715088 -0.9248047
vn -0.3391113 -0.1710205 -0.925293
vn -0.3068848 -0.08886719 -0.9477539
vn -0.3068848 -0.08886719 -0.9477539
vn -0.3439941 -0.1844482 -0.9208984
vn -0.3439941 -0.1844482 -0.9208984
vn -0.3439941 -0.1844482 -0.9208984
vn -0.3391113 -0.1715088 -0.9248047
vn -0.3439941 -0.1844482 -0.9208984
vn -0.3439941 -0.1844482 -0.9208984
vn -0.3439941 -0.1844482 -0.9208984
vn -0.3439941 -0.1844482 -0.9208984
vn 0 0.9960938 -0.0871582
vn 0 0.9960938 -0.0871582
vn 0.1220093 0.9916992 -0.04382324
vn 0.06976318 0.9975586 0.0005822182
vn -0.1004028 0.9951172 0.005119324
vn 0.04180908 0.9990234 0.02146912
vn 0.00315094 1 0.01821899
g Pocket_0
f 3/3/3 2/2/2 1/1/1
f 6/6/6 5/5/5 4/4/4
f 9/9/9 8/8/8 7/7/7
f 12/12/12 11/11/11 10/10/10
f 13/13/13 12/12/12 10/10/10
f 13/13/13 10/10/10 14/14/14
f 15/15/15 12/12/12 13/13/13
f 16/16/16 13/13/13 14/14/14
f 14/14/14 17/17/17 16/16/16
f 18/18/18 15/15/15 13/13/13
f 18/18/18 13/13/13 16/16/16
f 19/19/19 15/15/15 18/18/18
f 20/20/20 18/18/18 16/16/16
f 16/16/16 17/17/17 20/20/20
f 21/21/21 19/19/19 18/18/18
f 21/21/21 18/18/18 20/20/20
f 22/22/22 19/19/19 21/21/21
f 23/23/23 21/21/21 20/20/20
f 20/20/20 17/17/17 23/23/23
f 24/24/24 22/22/22 21/21/21
f 24/24/24 21/21/21 23/23/23
f 25/25/25 22/22/22 24/24/24
f 23/23/23 17/17/17 26/26/26
f 26/26/26 24/24/24 23/23/23
f 27/27/27 25/25/25 24/24/24
f 27/27/27 24/24/24 26/26/26
f 28/28/28 25/25/25 27/27/27
f 29/29/29 28/28/28 27/27/27
f 26/26/26 17/17/17 30/30/30
f 30/30/30 27/27/27 26/26/26
f 29/29/29 27/27/27 30/30/30
f 30/30/30 17/17/17 31/31/31
f 31/31/31 29/29/29 30/30/30
f 34/34/34 33/33/33 32/32/32
f 35/35/35 34/34/34 32/32/32
f 36/36/36 34/34/34 35/35/35
f 37/37/37 36/36/36 35/35/35
f 38/38/38 36/36/36 37/37/37
f 39/39/39 38/38/38 37/37/37
f 40/40/40 38/38/38 39/39/39
f 41/41/41 40/40/40 39/39/39
f 42/42/42 40/40/40 41/41/41
f 43/43/43 42/42/42 41/41/41
f 44/44/44 42/42/42 43/43/43
f 45/45/45 44/44/44 43/43/43
f 48/48/48 47/47/47 46/46/46
f 49/49/49 48/48/48 46/46/46
f 52/52/52 51/51/51 50/50/50
f 53/53/53 52/52/52 50/50/50
f 56/56/56 55/55/55 54/54/54
f 57/57/57 56/56/56 54/54/54
f 60/60/60 59/59/59 58/58/58
f 61/61/61 60/60/60 58/58/58
f 64/64/64 63/63/63 62/62/62
f 65/65/65 64/64/64 62/62/62
f 68/68/68 67/67/67 66/66/66
f 69/69/69 68/68/68 66/66/66
f 72/72/72 71/71/71 70/70/70
f 73/73/73 72/72/72 70/70/70
f 76/76/76 75/75/75 74/74/74
f 77/77/77 76/76/76 74/74/74
f 80/80/80 79/79/79 78/78/78
f 81/81/81 80/80/80 78/78/78
f 84/84/84 83/83/83 82/82/82
f 85/85/85 84/84/84 82/82/82
f 88/88/88 87/87/87 86/86/86
f 89/89/89 88/88/88 86/86/86
f 92/92/92 91/91/91 90/90/90
f 93/93/93 92/92/92 90/90/90
f 96/96/96 95/95/95 94/94/94
f 97/97/97 96/96/96 94/94/94
f 100/100/100 99/99/99 98/98/98
f 99/99/99 100/100/100 101/101/101
f 102/102/102 99/99/99 101/101/101
f 103/103/103 102/102/102 101/101/101
f 104/104/104 103/103/103 101/101/101
f 105/105/105 104/104/104 101/101/101
f 108/108/108 107/107/107 106/106/106
f 106/106/106 109/109/109 108/108/108
f 106/106/106 110/110/110 109/109/109
f 110/110/110 111/111/111 109/109/109
f 110/110/110 112/112/112 111/111/111
