g polySurface25
v -0.01479912 -0.02037529 0.03119999
v -0.01479912 0.02037529 0.03119999
v 0.03120003 0.02037529 0.01479908
v 0.03120003 -0.02037529 0.01479908
v -0.01479912 0.02037529 0.03119999
v -0.03120003 0.02037529 -0.01479908
v 0.01479912 0.02037529 -0.03119999
v 0.03120003 0.02037529 0.01479908
v -0.03120003 0.02037529 -0.01479908
v -0.03120003 -0.02037529 -0.01479908
v 0.01479912 -0.02037529 -0.03119999
v 0.01479912 0.02037529 -0.03119999
v -0.03120003 -0.02037529 -0.01479908
v -0.01479912 -0.02037529 0.03119999
v 0.03120003 -0.02037529 0.01479908
v 0.01479912 -0.02037529 -0.03119999
v 0.03120003 -0.02037529 0.01479908
v 0.03120003 0.02037529 0.01479908
v 0.01479912 0.02037529 -0.03119999
v 0.01479912 -0.02037529 -0.03119999
v -0.03120003 -0.02037529 -0.01479908
v -0.03120003 0.02037529 -0.01479908
v -0.01479912 0.02037529 0.03119999
v -0.01479912 -0.02037529 0.03119999
vt 0.2182617 0.4702148
vt 0.2182617 0.4702148
vt 0.2182617 0.4702148
vt 0.2182617 0.4702148
vt 0.2182617 0.4702148
vt 0.2182617 0.4702148
vt 0.2182617 0.4702148
vt 0.2182617 0.4702148
vt 0.2182617 0.4702148
vt 0.2182617 0.4702148
vt 0.2182617 0.4702148
vt 0.2182617 0.4702148
vt 0.2182617 0.4702148
vt 0.2182617 0.4702148
vt 0.2182617 0.4702148
vt 0.2182617 0.4702148
vt 0.2182617 0.4702148
vt 0.2182617 0.4702148
vt 0.2182617 0.4702148
vt 0.2182617 0.4702148
vt 0.2182617 0.4702148
vt 0.2182617 0.4702148
vt 0.2182617 0.4702148
vt 0.2182617 0.4702148
vn 0.3359375 0 0.9418945
vn 0.3359375 0 0.9418945
vn 0.3359375 0 0.9418945
vn 0.3359375 0 0.9418945
vn 0 1 0
vn 0 1 0
vn 0 1 0
vn 0 1 0
vn -0.3359375 0 -0.9418945
vn -0.3359375 0 -0.9418945
vn -0.3359375 0 -0.9418945
vn -0.3359375 0 -0.9418945
vn 0 -1 -1.251698E-06
vn 0 -1 -1.251698E-06
vn 0 -1 -1.251698E-06
vn 0 -1 -1.251698E-06
vn 0.9418945 0 -0.3359375
vn 0.9418945 0 -0.3359375
vn 0.9418945 0 -0.3359375
vn 0.9418945 0 -0.3359375
vn -0.9418945 0 0.3359375
vn -0.9418945 0 0.3359375
vn -0.9418945 0 0.3359375
vn -0.9418945 0 0.3359375
g polySurface25_0
f 3/3/3 2/2/2 1/1/1
f 4/4/4 3/3/3 1/1/1
f 7/7/7 6/6/6 5/5/5
f 8/8/8 7/7/7 5/5/5
f 11/11/11 10/10/10 9/9/9
f 12/12/12 11/11/11 9/9/9
f 15/15/15 14/14/14 13/13/13
f 16/16/16 15/15/15 13/13/13
f 19/19/19 18/18/18 17/17/17
f 20/20/20 19/19/19 17/17/17
f 23/23/23 22/22/22 21/21/21
f 24/24/24 23/23/23 21/21/21
