g polySurface17
v -0.0006912231 -0.08828441 0.0366037
v 0.01401642 -0.08716614 0.04163177
v 0.01608795 -0.1958725 0.05435333
v 0.00368988 -0.1958725 0.04972931
v -0.0008578491 0.1945347 -0.05435333
v 0.008424377 0.1838332 -0.04155548
v 0.004346008 0.1843634 -0.03388336
v -0.003440246 0.1958725 -0.04003204
v 0.007695007 -0.1958725 0.02760773
v 0.02360016 -0.1958725 0.03923309
v 0.02247772 -0.0885374 0.02667816
v 0.003313293 -0.0906316 0.01448212
v 0.01608795 -0.1958725 0.05435333
v 0.01401642 -0.08716614 0.04163177
v 0.02247772 -0.0885374 0.02667816
v 0.02360016 -0.1958725 0.03923309
v -0.01099884 -0.1958725 0.03317963
v -0.01858063 -0.09088562 0.01949432
v -0.01497223 -0.08882408 0.03656036
v -0.008340149 -0.1958725 0.05007904
v -0.0104184 0.183519 -0.03646698
v -0.01248871 0.1826371 -0.04521393
v -0.0008578491 0.1945347 -0.05435333
v -0.003440246 0.1958725 -0.04003204
v -0.008340149 -0.1958725 0.05007904
v -0.01497223 -0.08882408 0.03656036
v -0.0006912231 -0.08828441 0.0366037
v 0.00368988 -0.1958725 0.04972931
v -0.01858063 -0.09088562 0.01949432
v -0.01099884 -0.1958725 0.03317963
v 0.007695007 -0.1958725 0.02760773
v 0.003313293 -0.0906316 0.01448212
v -0.0006912231 -0.08828441 0.0366037
v -0.002876282 0.03220379 0.009555358
v 0.01389435 0.03971905 0.01256378
v 0.01401642 -0.08716614 0.04163177
v 0.01401642 -0.08716614 0.04163177
v 0.01389435 0.03971905 0.01256378
v 0.02307159 0.02605129 0.002412414
v 0.02247772 -0.0885374 0.02667816
v 0.02247772 -0.0885374 0.02667816
v 0.02307159 0.02605129 0.002412414
v 0.001018982 0.01751255 -0.007907409
v 0.003313293 -0.0906316 0.01448212
v -0.01497223 -0.08882408 0.03656036
v -0.01905792 0.03783443 0.006798401
v -0.002876282 0.03220379 0.009555358
v -0.0006912231 -0.08828441 0.0366037
v 0.003313293 -0.0906316 0.01448212
v 0.001018982 0.01751255 -0.007907409
v -0.02360016 0.023382 -0.005752868
v -0.01858063 -0.09088562 0.01949432
v -0.01858063 -0.09088562 0.01949432
v -0.02360016 0.023382 -0.005752868
v -0.01905792 0.03783443 0.006798401
v -0.01497223 -0.08882408 0.03656036
v -0.002876282 0.03220379 0.009555358
v 0.01156586 0.1291723 -0.01508209
v 0.01389435 0.03971905 0.01256378
v -0.003169861 0.1221984 -0.01803436
v 0.004346008 0.1843634 -0.03388336
v -0.003440246 0.1958725 -0.04003204
v 0.01389435 0.03971905 0.01256378
v 0.01156586 0.1291723 -0.01508209
v 0.01997162 0.1162947 -0.02595734
v 0.02307159 0.02605129 0.002412414
v 0.02307159 0.02605129 0.002412414
v 0.01997162 0.1162947 -0.02595734
v 0.0007791137 0.108344 -0.03607696
v 0.001018982 0.01751255 -0.007907409
v -0.01905792 0.03783443 0.006798401
v -0.003169861 0.1221984 -0.01803436
v -0.002876282 0.03220379 0.009555358
v -0.01742218 0.1275143 -0.02015411
v -0.003440246 0.1958725 -0.04003204
v -0.0104184 0.183519 -0.03646698
v 0.001018982 0.01751255 -0.007907409
v 0.0007791137 0.108344 -0.03607696
v -0.02108612 0.1139465 -0.03314117
v -0.02360016 0.023382 -0.005752868
v -0.02360016 0.023382 -0.005752868
v -0.02108612 0.1139465 -0.03314117
v -0.01742218 0.1275143 -0.02015411
v -0.01905792 0.03783443 0.006798401
v 0.01156586 0.1291723 -0.01508209
v 0.004346008 0.1843634 -0.03388336
v 0.008424377 0.1838332 -0.04155548
v 0.01997162 0.1162947 -0.02595734
v 0.01997162 0.1162947 -0.02595734
v 0.008424377 0.1838332 -0.04155548
v -0.0008578491 0.1945347 -0.05435333
v 0.0007791137 0.108344 -0.03607696
v 0.0007791137 0.108344 -0.03607696
v -0.0008578491 0.1945347 -0.05435333
v -0.01248871 0.1826371 -0.04521393
v -0.02108612 0.1139465 -0.03314117
v -0.02108612 0.1139465 -0.03314117
v -0.01248871 0.1826371 -0.04521393
v -0.0104184 0.183519 -0.03646698
v -0.01742218 0.1275143 -0.02015411
vt 0.1559772 0.3504515
vt 0.1559772 0.3504515
vt 0.1559772 0.3504515
vt 0.1559772 0.3504515
vt 0.1559772 0.3504515
vt 0.1559772 0.3504515
vt 0.1559772 0.3504515
vt 0.1559772 0.3504515
vt 0.1559772 0.3504515
vt 0.1559772 0.3504515
vt 0.1559772 0.3504515
vt 0.1559772 0.3504515
vt 0.1559772 0.3504515
vt 0.1559772 0.3504515
vt 0.1559772 0.3504515
vt 0.1559772 0.3504515
vt 0.1559772 0.3504515
vt 0.1559772 0.3504515
vt 0.1559772 0.3504515
vt 0.1559772 0.3504515
vt 0.1559772 0.3504515
vt 0.1559772 0.3504515
vt 0.1559772 0.3504515
vt 0.1559772 0.3504515
vt 0.1559772 0.3504515
vt 0.1559772 0.3504515
vt 0.1559772 0.3504515
vt 0.1559772 0.3504515
vt 0.1559772 0.3504515
vt 0.1559772 0.3504515
vt 0.1559772 0.3504515
vt 0.1559772 0.3504515
vt 0.1559772 0.3504515
vt 0.1559772 0.3504515
vt 0.1559772 0.3504515
vt 0.1559772 0.3504515
vt 0.1559772 0.3504515
vt 0.1559772 0.3504515
vt 0.1559772 0.3504515
vt 0.1559772 0.3504515
vt 0.1559772 0.3504515
vt 0.1559772 0.3504515
vt 0.1559772 0.3504515
vt 0.1559772 0.3504515
vt 0.1559772 0.3504515
vt 0.1559772 0.3504515
vt 0.1559772 0.3504515
vt 0.1559772 0.3504515
vt 0.1559772 0.3504515
vt 0.1559772 0.3504515
vt 0.1559772 0.3504515
vt 0.1559772 0.3504515
vt 0.1559772 0.3504515
vt 0.1559772 0.3504515
vt 0.1559772 0.3504515
vt 0.1559772 0.3504515
vt 0.1559772 0.3504515
vt 0.1559772 0.3504515
vt 0.1559772 0.3504515
vt 0.1559772 0.3504515
vt 0.1559772 0.3504515
vt 0.1559772 0.3504515
vt 0.1559772 0.3504515
vt 0.1559772 0.3504515
vt 0.1559772 0.3504515
vt 0.1559772 0.3504515
vt 0.1559772 0.3504515
vt 0.1559772 0.3504515
vt 0.1559772 0.3504515
vt 0.1559772 0.3504515
vt 0.1559772 0.3504515
vt 0.1559772 0.3504515
vt 0.1559772 0.3504515
vt 0.1559772 0.3504515
vt 0.1559772 0.3504515
vt 0.1559772 0.3504515
vt 0.1559772 0.3504515
vt 0.1559772 0.3504515
vt 0.1559772 0.3504515
vt 0.1559772 0.3504515
vt 0.1559772 0.3504515
vt 0.1559772 0.3504515
vt 0.1559772 0.3504515
vt 0.1559772 0.3504515
vt 0.1559772 0.3504515
vt 0.1559772 0.3504515
vt 0.1559772 0.3504515
vt 0.1559772 0.3504515
vt 0.1559772 0.3504515
vt 0.1559772 0.3504515
vt 0.1559772 0.3504515
vt 0.1559772 0.3504515
vt 0.1559772 0.3504515
vt 0.1559772 0.3504515
vt 0.1559772 0.3504515
vt 0.1559772 0.3504515
vt 0.1559772 0.3504515
vt 0.1559772 0.3504515
vt 0.1559772 0.3504515
vt 0.1559772 0.3504515
vn -0.3374392 0.101765 0.9358304
vn -0.3374392 0.101765 0.9358304
vn -0.3374392 0.101765 0.9358304
vn -0.3374392 0.101765 0.9358304
vn 0.7132306 0.682889 0.1580025
vn 0.7132306 0.6828891 0.1580025
vn 0.7132306 0.682889 0.1580025
vn 0.7132306 0.682889 0.1580025
vn 0.5633292 -0.08470229 -0.8218794
vn 0.5633292 -0.08470229 -0.8218794
vn 0.5633293 -0.08470228 -0.8218794
vn 0.5633293 -0.0847023 -0.8218794
vn 0.8824116 0.06752101 0.4656079
vn 0.8824116 0.06752101 0.4656079
vn 0.8824116 0.067521 0.4656079
vn 0.8824116 0.067521 0.4656079
vn -0.9820609 -0.04225551 0.1837684
vn -0.982061 -0.04225552 0.1837684
vn -0.982061 -0.04225551 0.1837684
vn -0.982061 -0.04225551 0.1837684
vn -0.8095182 0.5824114 -0.07400817
vn -0.8095182 0.5824115 -0.07400818
vn -0.8095182 0.5824115 -0.07400817
vn -0.8095182 0.5824115 -0.07400817
vn 0.009019298 0.123642 0.9922858
vn 0.009019298 0.123642 0.9922858
vn 0.009019298 0.123642 0.9922858
vn 0.0090193 0.1236421 0.9922858
vn -0.2491725 -0.1364578 -0.9587973
vn -0.2491725 -0.1364578 -0.9587973
vn -0.2491725 -0.1364578 -0.9587973
vn -0.2491725 -0.1364578 -0.9587973
vn -0.2952785 0.2087436 0.9323286
vn -0.2952785 0.2087436 0.9323286
vn -0.2952785 0.2087436 0.9323286
vn -0.2952785 0.2087436 0.9323286
vn 0.8437666 0.1141797 0.5244244
vn 0.8437666 0.1141797 0.5244244
vn 0.8437666 0.1141797 0.5244245
vn 0.8437666 0.1141797 0.5244244
vn 0.5061895 -0.1731083 -0.8448702
vn 0.5061895 -0.1731083 -0.8448703
vn 0.5061895 -0.1731083 -0.8448702
vn 0.5061896 -0.1731083 -0.8448702
vn -0.05231601 0.2224547 0.9735383
vn -0.05231601 0.2224547 0.9735383
vn -0.05231601 0.2224547 0.9735383
vn -0.05231601 0.2224547 0.9735383
vn -0.173748 -0.2117069 -0.9617649
vn -0.1737481 -0.2117069 -0.9617649
vn -0.173748 -0.2117069 -0.9617649
vn -0.173748 -0.2117069 -0.9617649
vn -0.9669335 0.02147922 0.2541223
vn -0.9669335 0.02147922 0.2541223
vn -0.9669335 0.02147922 0.2541223
vn -0.9669335 0.02147922 0.2541223
vn -0.299943 0.276636 0.9129659
vn -0.299943 0.276636 0.9129659
vn -0.2999431 0.276636 0.9129659
vn -0.299943 0.276636 0.9129659
vn -0.3135085 0.2700082 0.9103889
vn -0.3135086 0.2700083 0.9103889
vn 0.8538708 0.1782327 0.4890171
vn 0.8538708 0.1782327 0.4890171
vn 0.8538708 0.1782327 0.4890171
vn 0.8538708 0.1782327 0.4890171
vn 0.5079793 -0.2481812 -0.8248413
vn 0.5079793 -0.2481812 -0.8248413
vn 0.5079793 -0.2481812 -0.8248413
vn 0.5079793 -0.2481812 -0.8248413
vn -0.04865859 0.2904615 0.9556487
vn -0.04865859 0.2904615 0.9556487
vn -0.04865859 0.2904615 0.9556487
vn -0.04865859 0.2904615 0.9556487
vn -0.02910597 0.2845913 0.958207
vn -0.02910597 0.2845913 0.958207
vn -0.1738578 -0.2863982 -0.9422047
vn -0.1738577 -0.2863982 -0.9422047
vn -0.1738578 -0.2863982 -0.9422047
vn -0.1738578 -0.2863982 -0.9422047
vn -0.9723814 0.08760762 0.2163314
vn -0.9723814 0.08760762 0.2163314
vn -0.9723814 0.08760763 0.2163314
vn -0.9723814 0.08760762 0.2163314
vn 0.8772323 0.2491561 0.4103472
vn 0.8772323 0.2491561 0.4103472
vn 0.8772323 0.2491561 0.4103471
vn 0.8772323 0.2491561 0.4103472
vn 0.615548 -0.1188812 -0.7790816
vn 0.6155479 -0.1188812 -0.7790816
vn 0.615548 -0.1188812 -0.7790816
vn 0.615548 -0.1188812 -0.7790816
vn -0.3058053 -0.1698287 -0.9368252
vn -0.3058053 -0.1698287 -0.9368252
vn -0.3058053 -0.1698287 -0.9368252
vn -0.3058053 -0.1698287 -0.9368252
vn -0.9756734 0.1569209 0.1530918
vn -0.9756734 0.1569209 0.1530918
vn -0.9756734 0.1569209 0.1530918
vn -0.9756734 0.1569209 0.1530918
g polySurface17_0
f 3/3/3 2/2/2 1/1/1
f 4/4/4 3/3/3 1/1/1
f 7/7/7 6/6/6 5/5/5
f 8/8/8 7/7/7 5/5/5
f 11/11/11 10/10/10 9/9/9
f 12/12/12 11/11/11 9/9/9
f 15/15/15 14/14/14 13/13/13
f 16/16/16 15/15/15 13/13/13
f 19/19/19 18/18/18 17/17/17
f 20/20/20 19/19/19 17/17/17
f 23/23/23 22/22/22 21/21/21
f 24/24/24 23/23/23 21/21/21
f 27/27/27 26/26/26 25/25/25
f 28/28/28 27/27/27 25/25/25
f 31/31/31 30/30/30 29/29/29
f 32/32/32 31/31/31 29/29/29
f 35/35/35 34/34/34 33/33/33
f 36/36/36 35/35/35 33/33/33
f 39/39/39 38/38/38 37/37/37
f 40/40/40 39/39/39 37/37/37
f 43/43/43 42/42/42 41/41/41
f 44/44/44 43/43/43 41/41/41
f 47/47/47 46/46/46 45/45/45
f 48/48/48 47/47/47 45/45/45
f 51/51/51 50/50/50 49/49/49
f 52/52/52 51/51/51 49/49/49
f 55/55/55 54/54/54 53/53/53
f 56/56/56 55/55/55 53/53/53
f 59/59/59 58/58/58 57/57/57
f 58/58/58 60/60/60 57/57/57
f 58/58/58 61/61/61 60/60/60
f 61/61/61 62/62/62 60/60/60
f 65/65/65 64/64/64 63/63/63
f 66/66/66 65/65/65 63/63/63
f 69/69/69 68/68/68 67/67/67
f 70/70/70 69/69/69 67/67/67
f 73/73/73 72/72/72 71/71/71
f 72/72/72 74/74/74 71/71/71
f 72/72/72 75/75/75 74/74/74
f 75/75/75 76/76/76 74/74/74
f 79/79/79 78/78/78 77/77/77
f 80/80/80 79/79/79 77/77/77
f 83/83/83 82/82/82 81/81/81
f 84/84/84 83/83/83 81/81/81
f 87/87/87 86/86/86 85/85/85
f 88/88/88 87/87/87 85/85/85
f 91/91/91 90/90/90 89/89/89
f 92/92/92 91/91/91 89/89/89
f 95/95/95 94/94/94 93/93/93
f 96/96/96 95/95/95 93/93/93
f 99/99/99 98/98/98 97/97/97
f 100/100/100 99/99/99 97/97/97
