g polySurface13
v 0.03176819 -0.1509276 -0.143385
v 0.03176819 0.1509276 -0.143385
v 0.02227234 0.1509276 -0.143385
v -0.0222699 0.1509276 -0.143385
v -0.03176819 0.1509276 -0.143385
v -0.03176819 -0.1509276 -0.143385
v -0.03176819 -0.1509276 -0.143385
v -0.03176819 0.1509276 -0.143385
v -0.03176819 0.1509276 0.143385
v -0.03176819 -0.1509276 0.143385
v 0.03176819 0.1509276 -0.143385
v 0.03176819 -0.1509276 -0.143385
v 0.03176819 -0.1509276 0.143385
v 0.03176819 0.1509276 0.143385
v 0.03176819 -0.1509276 -0.143385
v -0.03176819 -0.1509276 -0.143385
v -0.03176819 -0.1509276 0.143385
v 0.03176819 -0.1509276 0.143385
v -0.03176819 -0.1509276 0.143385
v -0.03176819 0.1509276 0.143385
v 0.03176819 0.1509276 0.143385
v 0.03176819 -0.1509276 0.143385
v 0.03176819 -0.1509276 -0.143385
v 0.02227234 0.1509276 -0.143385
v -0.0222699 0.1509276 -0.143385
v -0.03176819 -0.1509276 -0.143385
v -0.03176819 0.1509276 -0.143385
v -0.0222699 0.1509276 -0.143385
v -0.0222699 0.1509276 0.1267712
v -0.03176819 0.1509276 0.143385
v 0.02227234 0.1509276 0.1267688
v 0.03176819 0.1509276 0.143385
v 0.02227234 0.1509276 -0.143385
v 0.03176819 0.1509276 -0.143385
v -0.0222699 0.1509276 -0.143385
v 0.02227234 0.1509276 -0.143385
v 0.02227234 0.1509276 0.1267688
v -0.0222699 0.1509276 0.1267712
vt 0.3082294 0.450731
vt 0.3082294 0.450731
vt 0.3082294 0.450731
vt 0.3082294 0.450731
vt 0.3082294 0.450731
vt 0.3082294 0.450731
vt 0.3082294 0.450731
vt 0.3082294 0.450731
vt 0.3082294 0.4507311
vt 0.3082294 0.450731
vt 0.3082294 0.450731
vt 0.3082294 0.450731
vt 0.3082294 0.450731
vt 0.3082294 0.450731
vt 0.03759766 0.3748212
vt 0.03759766 0.3748212
vt 0.03759766 0.3748212
vt 0.03759766 0.3748212
vt 0.3082294 0.450731
vt 0.3082294 0.4507311
vt 0.3082294 0.450731
vt 0.3082294 0.450731
vt 0.03759766 0.3748212
vt 0.03759766 0.3748207
vt 0.03759766 0.3748207
vt 0.03759766 0.3748212
vt 0.3082294 0.450731
vt 0.3082294 0.450731
vt 0.3082294 0.450731
vt 0.3082294 0.4507311
vt 0.3082294 0.450731
vt 0.3082294 0.450731
vt 0.3082294 0.450731
vt 0.3082294 0.450731
vt 0.03930664 0.3721695
vt 0.03930664 0.3721695
vt 0.03930664 0.3721695
vt 0.03930664 0.3721695
vn 0 0 -1
vn 0 0 -1
vn 0 0 -1
vn 0 0 -1
vn 0 0 -1
vn 0 0 -1
vn -1 0 0
vn -1 0 0
vn -1 0 0
vn -1 0 0
vn 1 0 0
vn 1 0 0
vn 1 0 0
vn 1 0 0
vn 0 -1 0
vn 0 -1 0
vn 0 -1 0
vn 0 -1 0
vn 0 0 1
vn 0 0 1
vn 0 0 1
vn 0 0 1
vn 0 0 -1
vn 0 0 -1
vn 0 0 -1
vn 0 0 -1
vn 0 1 0
vn 0 1 0
vn 0 1 0
vn 0 1 0
vn 0 1 0
vn 0 1 0
vn 0 1 0
vn 0 1 0
vn 0 1 0
vn 0 1 0
vn 0 1 0
vn 0 1 0
g polySurface13_0
f 3/3/3 2/2/2 1/1/1
f 6/6/6 5/5/5 4/4/4
f 9/9/9 8/8/8 7/7/7
f 10/10/10 9/9/9 7/7/7
f 13/13/13 12/12/12 11/11/11
f 14/14/14 13/13/13 11/11/11
f 17/17/17 16/16/16 15/15/15
f 18/18/18 17/17/17 15/15/15
f 21/21/21 20/20/20 19/19/19
f 22/22/22 21/21/21 19/19/19
f 25/25/25 24/24/24 23/23/23
f 26/26/26 25/25/25 23/23/23
f 29/29/29 28/28/28 27/27/27
f 30/30/30 29/29/29 27/27/27
f 29/29/29 30/30/30 31/31/31
f 30/30/30 32/32/32 31/31/31
f 31/31/31 32/32/32 33/33/33
f 32/32/32 34/34/34 33/33/33
f 37/37/37 36/36/36 35/35/35
f 38/38/38 37/37/37 35/35/35
