g polySurface23
v -0.0007768249 0.07494064 -0.005030822
v -0.002060089 0.044841 -0.08364952
v 0.07392655 0.044841 -0.03166626
v -0.0007768249 0.07494064 -0.005030822
v -0.07498054 0.044841 -0.02744537
v -0.002060089 0.044841 -0.08364952
v -0.0007768249 0.07494064 -0.005030822
v -0.0440609 0.044841 0.05927391
v -0.07498054 0.044841 -0.02744537
v -0.0007768249 0.07494064 -0.005030822
v 0.04796898 0.044841 0.05666504
v -0.0440609 0.044841 0.05927391
v -0.0007768249 0.07494064 -0.005030822
v 0.07392655 0.044841 -0.03166626
v 0.04796898 0.044841 0.05666504
v 0.07392655 0.044841 -0.03166626
v 0.0493145 -0.02918808 -0.07825237
v 0.08433998 -0.02918808 0.01998234
v -0.002060089 0.044841 -0.08364952
v -0.05493522 -0.02918808 -0.07529739
v 0.0493145 -0.02918808 -0.07825237
v -0.07498054 0.044841 -0.02744537
v -0.08433998 -0.02918808 0.02476356
v -0.05493522 -0.02918808 -0.07529739
v -0.0440609 0.044841 0.05927391
v 0.001737213 -0.02918808 0.08364952
v -0.08433998 -0.02918808 0.02476356
v 0.04796898 0.044841 0.05666504
v 0.08433998 -0.02918808 0.01998234
v 0.001737213 -0.02918808 0.08364952
v 0.0493145 -0.02918808 -0.07825237
v 0.07392655 0.044841 -0.03166626
v -0.002060089 0.044841 -0.08364952
v -0.05493522 -0.02918808 -0.07529739
v -0.002060089 0.044841 -0.08364952
v -0.07498054 0.044841 -0.02744537
v -0.08433998 -0.02918808 0.02476356
v -0.07498054 0.044841 -0.02744537
v -0.0440609 0.044841 0.05927391
v 0.001737213 -0.02918808 0.08364952
v -0.0440609 0.044841 0.05927391
v 0.04796898 0.044841 0.05666504
v 0.08433998 -0.02918808 0.01998234
v 0.04796898 0.044841 0.05666504
v 0.07392655 0.044841 -0.03166626
v -0.0007768249 -0.07494064 -0.005030822
v 0.0493145 -0.02918808 -0.07825237
v -0.05493522 -0.02918808 -0.07529739
v -0.0007768249 -0.07494064 -0.005030822
v -0.05493522 -0.02918808 -0.07529739
v -0.08433998 -0.02918808 0.02476356
v -0.0007768249 -0.07494064 -0.005030822
v -0.08433998 -0.02918808 0.02476356
v 0.001737213 -0.02918808 0.08364952
v -0.0007768249 -0.07494064 -0.005030822
v 0.001737213 -0.02918808 0.08364952
v 0.08433998 -0.02918808 0.01998234
v -0.0007768249 -0.07494064 -0.005030822
v 0.08433998 -0.02918808 0.01998234
v 0.0493145 -0.02918808 -0.07825237
vt 0.01226044 0.1237793
vt 0.01226044 0.1237793
vt 0.01226044 0.1237793
vt 0.01226044 0.1237793
vt 0.01226044 0.1237793
vt 0.01226044 0.1237793
vt 0.01226044 0.1237793
vt 0.01226044 0.1237793
vt 0.01226044 0.1237793
vt 0.01226044 0.1237793
vt 0.01226044 0.1237793
vt 0.01226044 0.1237793
vt 0.01226044 0.1237793
vt 0.01226044 0.1237793
vt 0.01226044 0.1237793
vt 0.01226044 0.1237793
vt 0.01226044 0.1237793
vt 0.01226044 0.1237793
vt 0.01226044 0.1237793
vt 0.01226044 0.1237793
vt 0.01226044 0.1237793
vt 0.01226044 0.1237793
vt 0.01226044 0.1237793
vt 0.01226044 0.1237793
vt 0.01226044 0.1237793
vt 0.01226044 0.1237793
vt 0.01226044 0.1237793
vt 0.01226044 0.1237793
vt 0.01226044 0.1237793
vt 0.01226044 0.1237793
vt 0.01226044 0.1237793
vt 0.01226044 0.1237793
vt 0.01226044 0.1237793
vt 0.01226044 0.1237793
vt 0.01226044 0.1237793
vt 0.01226044 0.1237793
vt 0.01226044 0.1237793
vt 0.01226044 0.1237793
vt 0.01226044 0.1237793
vt 0.01226044 0.1237793
vt 0.01226044 0.1237793
vt 0.01226044 0.1237793
vt 0.01226044 0.1237793
vt 0.01226044 0.1237793
vt 0.01226044 0.1237793
vt 0.01226044 0.1237793
vt 0.01226044 0.1237793
vt 0.01226044 0.1237793
vt 0.01226044 0.1237793
vt 0.01226044 0.1237793
vt 0.01226044 0.1237793
vt 0.01226044 0.1237793
vt 0.01226044 0.1237793
vt 0.01226044 0.1237793
vt 0.01226044 0.1237793
vt 0.01226044 0.1237793
vt 0.01226044 0.1237793
vt 0.01226044 0.1237793
vt 0.01226044 0.1237793
vt 0.01226044 0.1237793
vn 0.2397461 0.9052734 -0.3505859
vn 0.2397461 0.9052734 -0.3505859
vn 0.2397461 0.9052734 -0.3505859
vn -0.2629395 0.9023438 -0.3413086
vn -0.2629395 0.9023438 -0.3413086
vn -0.2629395 0.9023438 -0.3413086
vn -0.4094238 0.9003906 0.1459961
vn -0.4094238 0.9003906 0.1459961
vn -0.4094238 0.9003906 0.1459961
vn 0.01220703 0.9023438 0.4306641
vn 0.01220703 0.9023438 0.4306641
vn 0.01220703 0.9023438 0.4306641
vn 0.4074707 0.9052734 0.119751
vn 0.4074707 0.9052734 0.119751
vn 0.4074707 0.9052734 0.119751
vn 0.9370117 -0.1013184 -0.3342285
vn 0.9370117 -0.1013184 -0.3342285
vn 0.9370117 -0.1013184 -0.3342285
vn -0.0282135 -0.09216309 -0.9951172
vn -0.0282135 -0.09216309 -0.9951172
vn -0.0282135 -0.09216309 -0.9951172
vn -0.956543 -0.07733154 -0.2810059
vn -0.956543 -0.07733154 -0.2810059
vn -0.956543 -0.07733154 -0.2810059
vn -0.5629883 -0.07733154 0.8227539
vn -0.5629883 -0.07733154 0.8227539
vn -0.5629883 -0.07733154 0.8227539
vn 0.6079102 -0.09216309 0.7885742
vn 0.6079102 -0.09216309 0.7885742
vn 0.6079102 -0.09216309 0.7885742
vn 0.5361328 0.3146973 -0.7832031
vn 0.5361328 0.3146973 -0.7832031
vn 0.5361328 0.3146973 -0.7832031
vn -0.5766602 0.3276367 -0.7485352
vn -0.5766602 0.3276367 -0.7485352
vn -0.5766602 0.3276367 -0.7485352
vn -0.887207 0.3354492 0.3164063
vn -0.887207 0.3354492 0.3164063
vn -0.887207 0.3354492 0.3164063
vn 0.02677917 0.3276367 0.9443359
vn 0.02677917 0.3276367 0.9443359
vn 0.02677917 0.3276367 0.9443359
vn 0.9106445 0.3146973 0.2675781
vn 0.9106445 0.3146973 0.2675781
vn 0.9106445 0.3146973 0.2675781
vn -0.01522827 -0.8432617 -0.5371094
vn -0.01522827 -0.8432617 -0.5371094
vn -0.01522827 -0.8432617 -0.5371094
vn -0.515625 -0.8432617 -0.1516113
vn -0.515625 -0.8432617 -0.1516113
vn -0.515625 -0.8432617 -0.1516113
vn -0.3034668 -0.8432617 0.4436035
vn -0.3034668 -0.8432617 0.4436035
vn -0.3034668 -0.8432617 0.4436035
vn 0.328125 -0.8432617 0.4257813
vn 0.328125 -0.8432617 0.4257813
vn 0.328125 -0.8432617 0.4257813
vn 0.5063477 -0.8432617 -0.180542
vn 0.5063477 -0.8432617 -0.180542
vn 0.5063477 -0.8432617 -0.180542
g polySurface23_0
f 3/3/3 2/2/2 1/1/1
f 6/6/6 5/5/5 4/4/4
f 9/9/9 8/8/8 7/7/7
f 12/12/12 11/11/11 10/10/10
f 15/15/15 14/14/14 13/13/13
f 18/18/18 17/17/17 16/16/16
f 21/21/21 20/20/20 19/19/19
f 24/24/24 23/23/23 22/22/22
f 27/27/27 26/26/26 25/25/25
f 30/30/30 29/29/29 28/28/28
f 33/33/33 32/32/32 31/31/31
f 36/36/36 35/35/35 34/34/34
f 39/39/39 38/38/38 37/37/37
f 42/42/42 41/41/41 40/40/40
f 45/45/45 44/44/44 43/43/43
f 48/48/48 47/47/47 46/46/46
f 51/51/51 50/50/50 49/49/49
f 54/54/54 53/53/53 52/52/52
f 57/57/57 56/56/56 55/55/55
f 60/60/60 59/59/59 58/58/58
