g polySurface16
v 0.03409241 -0.1663917 -0.1433856
v 0.03409241 0.1663917 -0.1433856
v 0.02390198 0.1663917 -0.1433856
v -0.02389831 0.1663917 -0.1433856
v -0.03409241 0.1663917 -0.1433856
v -0.03409241 -0.1663917 -0.1433856
v 0.03409241 -0.1663917 -0.1433856
v 0.03409241 -0.1663917 0.1433856
v 0.03409241 0.06676071 0.1433856
v 0.03409241 0.1663917 -0.1433856
v 0.03409241 0.106904 0.1433856
v 0.03409241 0.1663917 0.1433856
v 0.03409241 -0.1663917 -0.1433856
v -0.03409241 -0.1663917 -0.1433856
v -0.03409241 -0.1663917 0.1433856
v 0.03409241 -0.1663917 0.1433856
v -0.03409241 0.106904 0.1433856
v -0.03409241 0.1663917 0.1433856
v 0.03409241 0.1663917 0.1433856
v 0.03409241 0.106904 0.1433856
v 0.03409241 -0.1663917 -0.1433856
v 0.02390198 0.1663917 -0.1433856
v -0.02389831 0.1663917 -0.1433856
v -0.03409241 -0.1663917 -0.1433856
v -0.03409241 0.1663917 -0.1433856
v -0.02389831 0.1663917 -0.1433856
v -0.02389831 0.1663917 0.1267706
v -0.03409241 0.1663917 0.1433856
v 0.02390198 0.1663917 0.1267682
v 0.03409241 0.1663917 0.1433856
v 0.02390198 0.1663917 -0.1433856
v 0.03409241 0.1663917 -0.1433856
v -0.02389831 0.1663917 -0.1433856
v 0.02390198 0.1663917 -0.1433856
v 0.02390198 0.1663917 0.1267682
v -0.02389831 0.1663917 0.1267706
v -0.03409241 -0.1663917 0.1433856
v -0.03409241 0.06676071 0.1433856
v 0.03409241 0.06676071 0.1433856
v 0.03409241 -0.1663917 0.1433856
v -0.03409241 0.06676071 0.1433856
v -0.03409241 0.106904 0.1433856
v 0.03409241 0.106904 0.1433856
v 0.03409241 0.06676071 0.1433856
v -0.03409241 -0.1663917 -0.1433856
v -0.03409241 0.06676071 0.1433856
v -0.03409241 -0.1663917 0.1433856
v -0.03409241 0.106904 0.1433856
v -0.03409241 0.1663917 -0.1433856
v -0.03409241 0.1663917 0.1433856
vt 0.3401002 0.4903936
vt 0.3401002 0.4903936
vt 0.3401002 0.4903936
vt 0.3401002 0.4903936
vt 0.3401002 0.4903936
vt 0.3401002 0.4903936
vt 0.3401002 0.4903936
vt 0.3401002 0.4903936
vt 0.3401002 0.4903936
vt 0.3401002 0.4903936
vt 0.3401002 0.4903936
vt 0.3401002 0.4903936
vt 0.03759766 0.3748212
vt 0.03759766 0.3748212
vt 0.03759766 0.3748212
vt 0.03759766 0.3748212
vt 0.3401002 0.4903936
vt 0.3401002 0.4903936
vt 0.3401002 0.4903936
vt 0.3401002 0.4903936
vt 0.03759766 0.3748212
vt 0.03759766 0.3748207
vt 0.03759766 0.3748207
vt 0.03759766 0.3748212
vt 0.3401002 0.4903936
vt 0.3401002 0.4903936
vt 0.3401002 0.4903936
vt 0.3401002 0.4903936
vt 0.3401002 0.4903935
vt 0.3401002 0.4903936
vt 0.3401002 0.4903936
vt 0.3401002 0.4903936
vt 0.03930664 0.3721695
vt 0.03930664 0.3721695
vt 0.03930664 0.3721695
vt 0.03930664 0.3721695
vt 0.3401002 0.4903936
vt 0.3401002 0.4903936
vt 0.3401002 0.4903936
vt 0.3401002 0.4903936
vt 0.1342773 0.3789577
vt 0.1342773 0.3789577
vt 0.1342773 0.3789577
vt 0.1342773 0.3789577
vt 0.3401002 0.4903936
vt 0.3401002 0.4903936
vt 0.3401002 0.4903936
vt 0.3401002 0.4903936
vt 0.3401002 0.4903936
vt 0.3401002 0.4903936
vn 0 0 -1
vn 0 0 -1
vn 0 0 -1
vn 0 0 -1
vn 0 0 -1
vn 0 0 -1
vn 1 0 0
vn 1 0 0
vn 1 0 0
vn 1 0 0
vn 1 0 0
vn 1 0 0
vn 0 -1 0
vn 0 -1 0
vn 0 -1 0
vn 0 -1 0
vn 0 0 1
vn 0 0 1
vn 0 0 1
vn 0 0 1
vn 0 0 -1
vn 0 0 -1
vn 0 0 -1
vn 0 0 -1
vn 0 1 0
vn 0 1 0
vn 0 1 0
vn 0 1 0
vn 0 1 0
vn 0 1 0
vn 0 1 0
vn 0 1 0
vn 0 1 0
vn 0 1 0
vn 0 1 0
vn 0 1 0
vn 0 0 1
vn 0 0 1
vn 0 0 1
vn 0 0 1
vn 0 0 1
vn 0 0 1
vn 0 0 1
vn 0 0 1
vn -1 0 0
vn -1 0 0
vn -1 0 0
vn -1 0 0
vn -1 0 0
vn -1 0 0
g polySurface16_0
f 3/3/3 2/2/2 1/1/1
f 6/6/6 5/5/5 4/4/4
f 9/9/9 8/8/8 7/7/7
f 9/9/9 7/7/7 10/10/10
f 11/11/11 9/9/9 10/10/10
f 12/12/12 11/11/11 10/10/10
f 15/15/15 14/14/14 13/13/13
f 16/16/16 15/15/15 13/13/13
f 19/19/19 18/18/18 17/17/17
f 20/20/20 19/19/19 17/17/17
f 23/23/23 22/22/22 21/21/21
f 24/24/24 23/23/23 21/21/21
f 27/27/27 26/26/26 25/25/25
f 28/28/28 27/27/27 25/25/25
f 27/27/27 28/28/28 29/29/29
f 28/28/28 30/30/30 29/29/29
f 29/29/29 30/30/30 31/31/31
f 30/30/30 32/32/32 31/31/31
f 35/35/35 34/34/34 33/33/33
f 36/36/36 35/35/35 33/33/33
f 39/39/39 38/38/38 37/37/37
f 40/40/40 39/39/39 37/37/37
f 43/43/43 42/42/42 41/41/41
f 44/44/44 43/43/43 41/41/41
f 47/47/47 46/46/46 45/45/45
f 46/46/46 48/48/48 45/45/45
f 48/48/48 49/49/49 45/45/45
f 48/48/48 50/50/50 49/49/49
