g polySurface6
v 0.9630632 0.01058643 -1.109192
v 1.064438 0.02857342 -1.103
v 0.9289228 0.02857342 -1.056154
v -1.064438 0.02857342 0.744075
v -0.9630632 0.02857342 0.9418106
v -1.064438 0.00774311 0.9300931
v -0.05068741 0.02857342 -1.047265
v -0.3072475 0.02857342 -0.09599151
v -1.064438 0.02857342 -0.9300931
v -0.9630632 0.02857342 0.9418106
v -0.3072475 0.02857342 0.09599151
v -0.05068741 0.02857342 1.047266
v 0.9630632 -0.02857342 -1.109192
v 1.064438 0.02857342 -1.103
v 0.9630632 0.01058643 -1.109192
v 0.3787681 0.02857342 -1.073499
v 0.9630632 0.01058643 -1.109192
v 0.9289228 0.02857342 -1.056154
v 0.9289228 0.02857342 -1.056154
v 0.9630632 0.02857342 -0.1544565
v -0.3072475 0.02857342 -0.09599151
v -1.064438 -0.02857342 0.9300931
v -1.064438 0.00774311 0.9300931
v -0.9630632 0.02857342 0.9418106
v -0.05068741 -0.02857342 1.047266
v 0.9630632 -0.02857342 1.109192
v 0.9630632 -0.02857342 -1.109192
v -0.05068741 -0.02857342 -1.047265
v -1.064438 -0.02857342 -0.9300931
v -1.064438 -0.02857342 0.9300931
v 0.9630632 0.02857342 0.1544571
v -0.3072475 0.02857342 0.09599151
v -0.3072475 0.02857342 -0.09599151
v 0.9630632 0.02857342 -0.1544565
v -0.05068741 0.02857342 1.047266
v 0.9630632 0.02857342 1.109192
v 0.9630632 -0.02857342 1.109192
v -0.05068741 -0.02857342 1.047266
v -1.064438 0.02857342 -0.9300931
v -1.064438 -0.02857342 -0.9300931
v -0.05068741 -0.02857342 -1.047265
v -0.05068741 0.02857342 -1.047265
v -0.05068741 0.02857342 1.047266
v -0.3072475 0.02857342 0.09599151
v 0.9630632 0.02857342 0.1544571
v 0.9630632 0.02857342 1.109192
v -1.064438 -0.02857342 0.9300931
v -1.064438 -0.02857342 -0.9300931
v -1.064438 0.02857342 -0.9300931
v -1.064438 0.02857342 0.744075
v -1.064438 0.00774311 0.9300931
v -1.064438 -0.02857342 0.9300931
v -0.9630632 0.02857342 0.9418106
v -0.05068741 0.02857342 1.047266
v -0.05068741 -0.02857342 1.047266
v -1.064438 0.02857342 -0.9300931
v -0.3072475 0.02857342 -0.09599151
v -1.064438 0.02857342 0.744075
v -0.9630632 0.02857342 0.9418106
v -0.3072475 0.02857342 0.09599151
v 0.9289228 0.02857342 -1.056154
v -0.3072475 0.02857342 -0.09599151
v -0.05068741 0.02857342 -1.047265
v 0.3787681 0.02857342 -1.073499
v 0.9630632 -0.02857342 -1.109192
v 0.9630632 0.01058643 -1.109192
v 0.3787681 0.02857342 -1.073499
v -0.05068741 -0.02857342 -1.047265
v -0.05068741 0.02857342 -1.047265
vt 0.01632039 0.3013607
vt 0.01623495 0.3013463
vt 0.01632048 0.301353
vt 0.01665309 0.3014453
vt 0.01658348 0.301496
vt 0.01664281 0.3015198
vt 0.01649155 0.3013664
vt 0.01657709 0.3013731
vt 0.01666263 0.3013798
vt 0.01658348 0.301496
vt 0.01654537 0.3015018
vt 0.01644718 0.3014929
vt 0.01632029 0.3013684
vt 0.01623495 0.3013463
vt 0.01632039 0.3013607
vt 0.01640602 0.3013597
vt 0.01632039 0.3013607
vt 0.01632048 0.301353
vt 0.01632048 0.301353
vt 0.01632048 0.301353
vt 0.01657709 0.3013731
vt 0.01664206 0.3015287
vt 0.01664281 0.3015198
vt 0.01658348 0.301496
vt 0.01644645 0.3015105
vt 0.01625083 0.3014923
vt 0.01632029 0.3013684
vt 0.01649079 0.3013821
vt 0.01666129 0.3013957
vt 0.01664206 0.3015287
vt 0.08250552 0.228875
vt 0.08256289 0.2294218
vt 0.08272344 0.2294229
vt 0.08273947 0.2288763
vt 0.01644718 0.3014929
vt 0.0162508 0.301475
vt 0.01625083 0.3014923
vt 0.01644645 0.3015105
vt 0.01666263 0.3013798
vt 0.01666129 0.3013957
vt 0.01649079 0.3013821
vt 0.01649155 0.3013664
vt 0.01644718 0.3014929
vt 0.01654537 0.3015018
vt 0.0162508 0.301475
vt 0.0162508 0.301475
vt 0.01664206 0.3015287
vt 0.01666129 0.3013957
vt 0.01666263 0.3013798
vt 0.01665309 0.3014453
vt 0.01664281 0.3015198
vt 0.01664206 0.3015287
vt 0.01658348 0.301496
vt 0.01644718 0.3014929
vt 0.01644645 0.3015105
vt 0.01666263 0.3013798
vt 0.01657709 0.3013731
vt 0.01665309 0.3014453
vt 0.01658348 0.301496
vt 0.01654537 0.3015018
vt 0.01632048 0.301353
vt 0.01657709 0.3013731
vt 0.01649155 0.3013664
vt 0.01640602 0.3013597
vt 0.01632029 0.3013684
vt 0.01632039 0.3013607
vt 0.01640602 0.3013597
vt 0.01649079 0.3013821
vt 0.01649155 0.3013664
vn -0.2022688 0.9520187 -0.2296686
vn -0.2022688 0.9520187 -0.2296686
vn -0.2022688 0.9520187 -0.2296686
vn -0.2668208 0.9539886 0.1367932
vn -0.2668208 0.9539886 0.1367932
vn -0.2668208 0.9539886 0.1367932
vn 0 1 0
vn 0 1 0
vn 0 1 0
vn 0 1 0
vn 0 1 0
vn 0 1 0
vn 0.06097225 0 -0.9981395
vn 0.06097225 0 -0.9981395
vn 0.06097225 0 -0.9981395
vn 0.0239869 0.9718326 -0.2344485
vn 0.0239869 0.9718326 -0.2344485
vn 0.0239869 0.9718326 -0.2344485
vn 0 1 0
vn 0 1 0
vn 0 1 0
vn -0.114818 0 0.9933866
vn -0.114818 0 0.9933866
vn -0.114818 0 0.9933866
vn 0 -1 0
vn 0 -1 0
vn 0 -1 0
vn 0 -1 0
vn 0 -1 0
vn 0 -1 0
vn 0 1 0
vn 0 1 0
vn 0 1 0
vn 0 1 0
vn -0.06097414 0 0.9981394
vn -0.06097414 0 0.9981394
vn -0.06097414 0 0.9981394
vn -0.06097414 0 0.9981394
vn -0.114818 0 -0.9933866
vn -0.114818 0 -0.9933866
vn -0.114818 0 -0.9933866
vn -0.114818 0 -0.9933866
vn 0 1 0
vn 0 1 0
vn 0 1 0
vn 0 1 0
vn -1 0 0
vn -1 0 0
vn -1 0 0
vn -1 0 0
vn -1 0 0
vn -0.1148179 1.720685E-07 0.9933866
vn -0.1148179 1.720685E-07 0.9933866
vn -0.1148179 1.720685E-07 0.9933866
vn -0.1148179 1.720685E-07 0.9933866
vn 0 1 0
vn 0 1 0
vn 0 1 0
vn 0 1 0
vn 0 1 0
vn 0 1 -1.926231E-07
vn 0 1 -1.926231E-07
vn 0 1 -1.926231E-07
vn 0 1 -1.926231E-07
vn -0.06097373 0 -0.9981394
vn -0.06097373 0 -0.9981394
vn -0.06097373 0 -0.9981394
vn -0.06097421 -1.15372E-07 -0.9981394
vn -0.06097421 -1.15372E-07 -0.9981394
g polySurface6_0
f 3/3/3 2/2/2 1/1/1
f 6/6/6 5/5/5 4/4/4
f 9/9/9 8/8/8 7/7/7
f 12/12/12 11/11/11 10/10/10
f 15/15/15 14/14/14 13/13/13
f 18/18/18 17/17/17 16/16/16
f 21/21/21 20/20/20 19/19/19
f 24/24/24 23/23/23 22/22/22
f 27/27/27 26/26/26 25/25/25
f 28/28/28 27/27/27 25/25/25
f 28/28/28 25/25/25 29/29/29
f 25/25/25 30/30/30 29/29/29
f 33/33/33 32/32/32 31/31/31
f 34/34/34 33/33/33 31/31/31
f 37/37/37 36/36/36 35/35/35
f 38/38/38 37/37/37 35/35/35
f 41/41/41 40/40/40 39/39/39
f 42/42/42 41/41/41 39/39/39
f 45/45/45 44/44/44 43/43/43
f 46/46/46 45/45/45 43/43/43
f 49/49/49 48/48/48 47/47/47
f 50/50/50 49/49/49 47/47/47
f 50/50/50 47/47/47 51/51/51
f 54/54/54 53/53/53 52/52/52
f 55/55/55 54/54/54 52/52/52
f 58/58/58 57/57/57 56/56/56
f 58/58/58 59/59/59 57/57/57
f 59/59/59 60/60/60 57/57/57
f 63/63/63 62/62/62 61/61/61
f 64/64/64 63/63/63 61/61/61
f 67/67/67 66/66/66 65/65/65
f 67/67/67 65/65/65 68/68/68
f 69/69/69 67/67/67 68/68/68
