g polySurface15
v 0.07720154 -0.151975 -0.1433856
v -0.005490112 0.1703711 -0.1433856
v -0.01620788 0.1676217 -0.1433856
v -0.06648132 0.154725 -0.1433856
v -0.07720154 0.151975 -0.1433856
v 0.005490112 -0.1703711 -0.1433856
v 0.005490112 -0.1703711 -0.1433856
v -0.07720154 0.151975 -0.1433856
v -0.07720154 0.151975 0.1433856
v 0.005490112 -0.1703711 0.1433856
v -0.005490112 0.1703711 -0.1433856
v 0.07720154 -0.151975 -0.1433856
v 0.07720154 -0.151975 0.1433856
v -0.005490112 0.1703711 0.1433856
v 0.07720154 -0.151975 -0.1433856
v 0.005490112 -0.1703711 -0.1433856
v 0.005490112 -0.1703711 0.1433856
v 0.07720154 -0.151975 0.1433856
v 0.005490112 -0.1703711 0.1433856
v -0.07720154 0.151975 0.1433856
v -0.005490112 0.1703711 0.1433856
v 0.07720154 -0.151975 0.1433856
v 0.07720154 -0.151975 -0.1433856
v -0.01620788 0.1676217 -0.1433856
v -0.06648132 0.154725 -0.1433856
v 0.005490112 -0.1703711 -0.1433856
v -0.07720154 0.151975 -0.1433856
v -0.06648132 0.154725 -0.1433856
v -0.06648132 0.154725 0.1267706
v -0.07720154 0.151975 0.1433856
v -0.01620788 0.1676217 0.1267694
v -0.005490112 0.1703711 0.1433856
v -0.01620788 0.1676217 -0.1433856
v -0.005490112 0.1703711 -0.1433856
v -0.06648132 0.154725 -0.1433856
v -0.01620788 0.1676217 -0.1433856
v -0.01620788 0.1676217 0.1267694
v -0.06648132 0.154725 0.1267706
vt 0.1728007 0.4725032
vt 0.1728007 0.4725032
vt 0.1728007 0.4725032
vt 0.1728007 0.4725032
vt 0.1728007 0.4725032
vt 0.1728007 0.4725032
vt 0.1728007 0.4725032
vt 0.1728007 0.4725032
vt 0.1728007 0.4725032
vt 0.1728007 0.4725032
vt 0.1728007 0.4725032
vt 0.1728007 0.4725032
vt 0.1728007 0.4725032
vt 0.1728007 0.4725032
vt 0.03759766 0.3748212
vt 0.03759766 0.3748212
vt 0.03759766 0.3748212
vt 0.03759766 0.3748212
vt 0.1728007 0.4725032
vt 0.1728007 0.4725032
vt 0.1728007 0.4725032
vt 0.1728007 0.4725032
vt 0.03759766 0.3748212
vt 0.03759766 0.3748207
vt 0.03759766 0.3748207
vt 0.03759766 0.3748212
vt 0.1728007 0.4725032
vt 0.1728007 0.4725032
vt 0.1728007 0.4725032
vt 0.1728007 0.4725032
vt 0.1728007 0.4725032
vt 0.1728007 0.4725032
vt 0.1728007 0.4725032
vt 0.1728007 0.4725032
vt 0.03930664 0.3721695
vt 0.03930664 0.3721695
vt 0.03930664 0.3721695
vt 0.03930664 0.3721695
vn 0 0 -1
vn 0 0 -1
vn 0 0 -1
vn 0 0 -1
vn 0 0 -1
vn 0 0 -1
vn -0.9686358 -0.2484847 0
vn -0.9686358 -0.2484847 0
vn -0.9686358 -0.2484847 0
vn -0.9686358 -0.2484847 0
vn 0.9686358 0.2484847 0
vn 0.9686358 0.2484847 0
vn 0.9686358 0.2484847 0
vn 0.9686358 0.2484847 0
vn 0.2484846 -0.9686358 0
vn 0.2484846 -0.9686358 0
vn 0.2484846 -0.9686358 0
vn 0.2484846 -0.9686358 0
vn 0 0 1
vn 0 0 1
vn 0 0 1
vn 0 0 1
vn 0 0 -1
vn 0 0 -1
vn 0 0 -1
vn 0 0 -1
vn -0.2484871 0.9686353 0
vn -0.2484861 0.9686355 0
vn -0.2484857 0.9686356 0
vn -0.248486 0.9686355 0
vn -0.248484 0.9686359 0
vn -0.2484835 0.9686362 0
vn -0.2484835 0.9686362 0
vn -0.2484821 0.9686365 0
vn -0.2484861 0.9686355 0
vn -0.2484835 0.9686362 0
vn -0.248484 0.9686359 0
vn -0.2484857 0.9686356 0
g polySurface15_0
f 3/3/3 2/2/2 1/1/1
f 6/6/6 5/5/5 4/4/4
f 9/9/9 8/8/8 7/7/7
f 10/10/10 9/9/9 7/7/7
f 13/13/13 12/12/12 11/11/11
f 14/14/14 13/13/13 11/11/11
f 17/17/17 16/16/16 15/15/15
f 18/18/18 17/17/17 15/15/15
f 21/21/21 20/20/20 19/19/19
f 22/22/22 21/21/21 19/19/19
f 25/25/25 24/24/24 23/23/23
f 26/26/26 25/25/25 23/23/23
f 29/29/29 28/28/28 27/27/27
f 30/30/30 29/29/29 27/27/27
f 29/29/29 30/30/30 31/31/31
f 30/30/30 32/32/32 31/31/31
f 31/31/31 32/32/32 33/33/33
f 32/32/32 34/34/34 33/33/33
f 37/37/37 36/36/36 35/35/35
f 38/38/38 37/37/37 35/35/35
