g polySurface3
v 0.1629691 -0.348058 -0.6528534
v 0.1629691 0.348058 -0.6528534
v 0.1059048 0.348058 -0.691438
v 0.1059048 -0.348058 -0.691438
v 0.1629691 0.348058 0.652854
v 0.1629691 -0.348058 0.652854
v 0.1059048 -0.348058 0.691438
v 0.1059048 0.348058 0.691438
v -0.1629691 -0.348058 -0.306496
v -0.1629691 0.348058 -0.306496
v -0.1629691 0.348058 0.3064966
v -0.1629691 -0.348058 0.3064966
v -0.09408417 -0.348058 0.3064966
v -0.09408417 0.348058 0.3064966
v -0.09408417 0.348058 -0.306496
v -0.09408417 -0.348058 -0.306496
v 0.1372638 -0.348058 -0.6182178
v 0.1629691 -0.348058 -0.6528534
v 0.1059048 -0.348058 -0.691438
v 0.07901748 -0.348058 -0.6529437
v 0.07901748 -0.348058 -0.6529437
v 0.1059048 -0.348058 -0.691438
v 0.1059048 0.348058 -0.691438
v 0.07901748 0.348058 -0.6529437
v 0.07901748 0.348058 -0.6529437
v 0.1059048 0.348058 -0.691438
v 0.1629691 0.348058 -0.6528534
v 0.1372638 0.348058 -0.6182178
v 0.1372638 0.348058 -0.6182178
v 0.1629691 0.348058 -0.6528534
v 0.1629691 -0.348058 -0.6528534
v 0.1372638 -0.348058 -0.6182178
v 0.1372638 0.348058 0.6182178
v 0.1629691 0.348058 0.652854
v 0.1059048 0.348058 0.691438
v 0.07901748 0.348058 0.6529443
v 0.07901748 0.348058 0.6529443
v 0.1059048 0.348058 0.691438
v 0.1059048 -0.348058 0.691438
v 0.07901748 -0.348058 0.6529443
v 0.07901748 -0.348058 0.6529443
v 0.1059048 -0.348058 0.691438
v 0.1629691 -0.348058 0.652854
v 0.1372638 -0.348058 0.6182178
v 0.1372638 -0.348058 0.6182178
v 0.1629691 -0.348058 0.652854
v 0.1629691 0.348058 0.652854
v 0.1372638 0.348058 0.6182178
v -0.09408417 0.348058 0.3064966
v 0.1372638 0.348058 0.6182178
v 0.07901748 0.348058 0.6529443
v -0.1629691 0.348058 0.3064966
v -0.09408417 0.348058 -0.306496
v -0.1629691 0.348058 -0.306496
v 0.1372638 0.348058 -0.6182178
v 0.07901748 0.348058 -0.6529437
v -0.1629691 0.348058 0.3064966
v 0.07901748 0.348058 0.6529443
v 0.07901748 -0.348058 0.6529443
v -0.1629691 -0.348058 0.3064966
v -0.1629691 -0.348058 0.3064966
v 0.07901748 -0.348058 0.6529443
v 0.1372638 -0.348058 0.6182178
v -0.09408417 -0.348058 0.3064966
v -0.1629691 -0.348058 -0.306496
v -0.09408417 -0.348058 -0.306496
v 0.07901748 -0.348058 -0.6529437
v 0.1372638 -0.348058 -0.6182178
v -0.09408417 -0.348058 0.3064966
v 0.1372638 -0.348058 0.6182178
v 0.1372638 0.348058 0.6182178
v -0.09408417 0.348058 0.3064966
v -0.1629691 -0.348058 -0.306496
v 0.07901748 -0.348058 -0.6529437
v 0.07901748 0.348058 -0.6529437
v -0.1629691 0.348058 -0.306496
v -0.09408417 0.348058 -0.306496
v 0.1372638 0.348058 -0.6182178
v 0.1372638 -0.348058 -0.6182178
v -0.09408417 -0.348058 -0.306496
vt 0.07985428 0.2343728
vt 0.07985607 0.2340329
vt 0.0798738 0.2340349
vt 0.07987162 0.2343772
vt 0.07928854 0.2340335
vt 0.07929945 0.234374
vt 0.07927978 0.2343785
vt 0.0792684 0.2340356
vt 0.0160847 0.3033349
vt 0.01609671 0.3023784
vt 0.01636019 0.3023403
vt 0.01634684 0.3031543
vt 0.01641682 0.3031583
vt 0.01643112 0.3023412
vt 0.01617911 0.3023795
vt 0.01616588 0.3033404
vt 0.07983992 0.2343749
vt 0.07985428 0.2343728
vt 0.07987162 0.2343772
vt 0.07985559 0.2343794
vt 0.07985559 0.2343794
vt 0.07987162 0.2343772
vt 0.0798738 0.2340349
vt 0.07985741 0.2340359
vt 0.07985741 0.2340359
vt 0.0798738 0.2340349
vt 0.07985607 0.2340329
vt 0.07984138 0.2340338
vt 0.07984138 0.2340338
vt 0.07985607 0.2340329
vt 0.07985428 0.2343728
vt 0.07983992 0.2343749
vt 0.07930225 0.2340344
vt 0.07928854 0.2340335
vt 0.0792684 0.2340356
vt 0.07928377 0.2340365
vt 0.07928377 0.2340365
vt 0.0792684 0.2340356
vt 0.07927978 0.2343785
vt 0.0792948 0.2343806
vt 0.0792948 0.2343806
vt 0.07927978 0.2343785
vt 0.07929945 0.234374
vt 0.0793128 0.234376
vt 0.0793128 0.234376
vt 0.07929945 0.234374
vt 0.07928854 0.2340335
vt 0.07930225 0.2340344
vt 0.01643112 0.3023412
vt 0.01643112 0.3023412
vt 0.01636019 0.3023403
vt 0.01636019 0.3023403
vt 0.01617911 0.3023795
vt 0.01609671 0.3023784
vt 0.01617911 0.3023795
vt 0.01609671 0.3023784
vt 0.01636019 0.3023403
vt 0.01636019 0.3023403
vt 0.01634684 0.3031543
vt 0.01634684 0.3031543
vt 0.01634684 0.3031543
vt 0.01634684 0.3031543
vt 0.01641682 0.3031583
vt 0.01641682 0.3031583
vt 0.0160847 0.3033349
vt 0.01616588 0.3033404
vt 0.0160847 0.3033349
vt 0.01616588 0.3033404
vt 0.01641682 0.3031583
vt 0.01641682 0.3031583
vt 0.01643112 0.3023412
vt 0.01643112 0.3023412
vt 0.0160847 0.3033349
vt 0.0160847 0.3033349
vt 0.01609671 0.3023784
vt 0.01609671 0.3023784
vt 0.01617911 0.3023795
vt 0.01617911 0.3023795
vt 0.01616588 0.3033404
vt 0.01616588 0.3033404
vn 0.5601307 0 -0.8284042
vn 0.5601307 0 -0.8284042
vn 0.5601307 0 -0.8284042
vn 0.5601307 0 -0.8284042
vn 0.5601307 0 0.8284042
vn 0.5601307 0 0.8284042
vn 0.5601307 0 0.8284042
vn 0.5601307 0 0.8284042
vn -1 0 0
vn -1 0 0
vn -1 0 0
vn -1 0 0
vn 1 0 0
vn 1 0 0
vn 1 0 0
vn 1 0 0
vn 0 -1 0
vn 0 -1 0
vn 0 -1 0
vn 0 -1 0
vn -0.8198174 0 -0.572625
vn -0.8198174 0 -0.572625
vn -0.8198174 0 -0.572625
vn -0.8198174 0 -0.572625
vn 0 1 0
vn 0 1 0
vn 0 1 0
vn 0 1 0
vn 0.8030111 0 0.5959641
vn 0.8030111 0 0.5959641
vn 0.8030111 0 0.5959641
vn 0.8030111 0 0.5959641
vn 0 1 0
vn 0 1 0
vn 0 1 0
vn 0 1 0
vn -0.8198169 0 0.5726258
vn -0.8198174 0 0.572625
vn -0.8198174 0 0.572625
vn -0.8198169 0 0.5726258
vn 0 -1 0
vn 0 -1 0
vn 0 -1 0
vn 0 -1 0
vn 0.8030111 0 -0.5959641
vn 0.8030111 0 -0.5959641
vn 0.8030111 0 -0.5959641
vn 0.8030111 0 -0.5959641
vn 0 1 0
vn 0 1 0
vn 0 1 0
vn 0 1 0
vn 0 1 0
vn 0 1 0
vn 0 1 0
vn 0 1 0
vn -0.8198174 0 0.572625
vn -0.8198169 0 0.5726258
vn -0.8198169 0 0.5726258
vn -0.8198174 0 0.572625
vn 0 -1 0
vn 0 -1 0
vn 0 -1 0
vn 0 -1 0
vn 0 -1 0
vn 0 -1 0
vn 0 -1 0
vn 0 -1 0
vn 0.8030111 0 -0.5959641
vn 0.8030111 0 -0.5959641
vn 0.8030111 0 -0.5959641
vn 0.8030111 0 -0.5959641
vn -0.8198174 0 -0.572625
vn -0.8198174 0 -0.572625
vn -0.8198174 0 -0.572625
vn -0.8198174 0 -0.572625
vn 0.8030111 0 0.5959641
vn 0.8030111 0 0.5959641
vn 0.8030111 0 0.5959641
vn 0.8030111 0 0.5959641
g polySurface3_0
f 3/3/3 2/2/2 1/1/1
f 4/4/4 3/3/3 1/1/1
f 7/7/7 6/6/6 5/5/5
f 8/8/8 7/7/7 5/5/5
f 11/11/11 10/10/10 9/9/9
f 12/12/12 11/11/11 9/9/9
f 15/15/15 14/14/14 13/13/13
f 16/16/16 15/15/15 13/13/13
f 19/19/19 18/18/18 17/17/17
f 20/20/20 19/19/19 17/17/17
f 23/23/23 22/22/22 21/21/21
f 24/24/24 23/23/23 21/21/21
f 27/27/27 26/26/26 25/25/25
f 28/28/28 27/27/27 25/25/25
f 31/31/31 30/30/30 29/29/29
f 32/32/32 31/31/31 29/29/29
f 35/35/35 34/34/34 33/33/33
f 36/36/36 35/35/35 33/33/33
f 39/39/39 38/38/38 37/37/37
f 40/40/40 39/39/39 37/37/37
f 43/43/43 42/42/42 41/41/41
f 44/44/44 43/43/43 41/41/41
f 47/47/47 46/46/46 45/45/45
f 48/48/48 47/47/47 45/45/45
f 51/51/51 50/50/50 49/49/49
f 52/52/52 51/51/51 49/49/49
f 52/52/52 49/49/49 53/53/53
f 54/54/54 52/52/52 53/53/53
f 53/53/53 55/55/55 54/54/54
f 55/55/55 56/56/56 54/54/54
f 59/59/59 58/58/58 57/57/57
f 60/60/60 59/59/59 57/57/57
f 63/63/63 62/62/62 61/61/61
f 64/64/64 63/63/63 61/61/61
f 61/61/61 65/65/65 64/64/64
f 65/65/65 66/66/66 64/64/64
f 65/65/65 67/67/67 66/66/66
f 67/67/67 68/68/68 66/66/66
f 71/71/71 70/70/70 69/69/69
f 72/72/72 71/71/71 69/69/69
f 75/75/75 74/74/74 73/73/73
f 76/76/76 75/75/75 73/73/73
f 79/79/79 78/78/78 77/77/77
f 80/80/80 79/79/79 77/77/77
