g polySurface21
v 0.05513837 -0.07064033 0.05513837
v 0.05513837 0.07064033 0.05513837
v 0.07797742 0.07064033 9.536743E-09
v 0.07797742 -0.07064033 9.536743E-09
v 0 -0.07064033 0.07797742
v 0.05513837 0.07064033 -0.05513835
v 0 0.07064033 0.07797742
v 0.05513837 -0.07064033 -0.05513835
v -0.05513837 -0.07064033 0.05513837
v 0 0.07064033 -0.07797742
v -0.05513837 0.07064033 0.05513837
v 0 -0.07064033 -0.07797742
v -0.07797742 -0.07064033 9.536743E-09
v -0.05513837 0.07064033 -0.05513835
v -0.07797742 0.07064033 9.536743E-09
v -0.05513837 -0.07064033 -0.05513835
v 0.07797742 -0.07064033 9.536743E-09
v 0.03507126 -0.07064033 9.536743E-09
v 0.02479914 -0.07064033 0.02479916
v 0.05513837 -0.07064033 0.05513837
v 0.05513837 -0.07064033 -0.05513835
v 0 -0.07064033 0.03507127
v 0.02479914 -0.07064033 -0.02479915
v 0 -0.07064033 0.07797742
v 0 -0.07064033 -0.07797742
v -0.02479914 -0.07064033 0.02479916
v 0 -0.07064033 -0.03507125
v -0.05513837 -0.07064033 0.05513837
v -0.05513837 -0.07064033 -0.05513835
v -0.03507126 -0.07064033 9.536743E-09
v -0.02479914 -0.07064033 -0.02479915
v -0.07797742 -0.07064033 9.536743E-09
v 0.05513837 0.07064033 0.05513837
v 0.02479914 0.07064033 0.02479916
v 0.03507126 0.07064033 9.536743E-09
v 0.07797742 0.07064033 9.536743E-09
v 0 0.07064033 0.07797742
v 0.02479914 0.07064033 -0.02479915
v 0 0.07064033 0.03507127
v 0.05513837 0.07064033 -0.05513835
v -0.05513837 0.07064033 0.05513837
v 0 0.07064033 -0.03507125
v -0.02479914 0.07064033 0.02479916
v 0 0.07064033 -0.07797742
v -0.07797742 0.07064033 9.536743E-09
v -0.02479914 0.07064033 -0.02479915
v -0.03507126 0.07064033 9.536743E-09
v -0.05513837 0.07064033 -0.05513835
v 0.03507126 -0.07064033 9.536743E-09
v 0.02828882 -0.07064033 9.536743E-09
v 0.02000323 -0.07064033 0.02000325
v 0.02479914 -0.07064033 0.02479916
v 0.02479914 -0.07064033 -0.02479915
v 0 -0.07064033 0.02828885
v 0.02000323 -0.07064033 -0.02000323
v 0 -0.07064033 0.03507127
v 0 -0.07064033 -0.03507125
v -0.02000323 -0.07064033 0.02000325
v 0 -0.07064033 -0.02828883
v -0.02479914 -0.07064033 0.02479916
v -0.02479914 -0.07064033 -0.02479915
v -0.02828882 -0.07064033 9.536743E-09
v -0.02000323 -0.07064033 -0.02000323
v -0.03507126 -0.07064033 9.536743E-09
v 0.02479914 0.07064033 0.02479916
v 0.02000323 0.07064033 0.02000325
v 0.02828882 0.07064033 9.536743E-09
v 0.03507126 0.07064033 9.536743E-09
v 0 0.07064033 0.03507127
v 0.02000323 0.07064033 -0.02000323
v 0 0.07064033 0.02828885
v 0.02479914 0.07064033 -0.02479915
v -0.02479914 0.07064033 0.02479916
v 0 0.07064033 -0.02828883
v -0.02000323 0.07064033 0.02000325
v 0 0.07064033 -0.03507125
v -0.03507126 0.07064033 9.536743E-09
v -0.02000323 0.07064033 -0.02000323
v -0.02828882 0.07064033 9.536743E-09
v -0.02479914 0.07064033 -0.02479915
v 0.02828882 -0.07064033 9.536743E-09
v 0.02828882 0.07064033 9.536743E-09
v 0.02000323 0.07064033 0.02000325
v 0.02000323 -0.07064033 0.02000325
v 0.02000323 -0.07064033 -0.02000323
v 0 0.07064033 0.02828885
v 0.02000323 0.07064033 -0.02000323
v 0 -0.07064033 0.02828885
v 0 -0.07064033 -0.02828883
v -0.02000323 0.07064033 0.02000325
v 0 0.07064033 -0.02828883
v -0.02000323 -0.07064033 0.02000325
v -0.02000323 -0.07064033 -0.02000323
v -0.02828882 0.07064033 9.536743E-09
v -0.02000323 0.07064033 -0.02000323
v -0.02828882 -0.07064033 9.536743E-09
vt 0.3860858 0.01050574
vt 0.3860858 0.01050568
vt 0.3860858 0.01050568
vt 0.3860858 0.01050574
vt 0.3860858 0.01050574
vt 0.3860858 0.01050568
vt 0.3860858 0.01050568
vt 0.3860858 0.01050574
vt 0.3860858 0.01050574
vt 0.3860858 0.01050568
vt 0.3860858 0.01050568
vt 0.3860858 0.01050574
vt 0.3860858 0.01050574
vt 0.3860858 0.01050568
vt 0.3860858 0.01050568
vt 0.3860858 0.01050574
vt 0.3860858 0.01050568
vt 0.3860858 0.01050568
vt 0.3860858 0.01050568
vt 0.3860858 0.01050568
vt 0.3860858 0.01050568
vt 0.3860858 0.01050571
vt 0.3860858 0.01050568
vt 0.3860858 0.01050571
vt 0.3860858 0.01050571
vt 0.3860858 0.01050574
vt 0.3860858 0.01050571
vt 0.3860858 0.01050574
vt 0.3860858 0.01050574
vt 0.3860858 0.01050574
vt 0.3860858 0.01050574
vt 0.3860858 0.01050574
vt 0.3860858 0.01050568
vt 0.3860858 0.01050568
vt 0.3860858 0.01050568
vt 0.3860858 0.01050568
vt 0.3860858 0.01050568
vt 0.3860858 0.01050568
vt 0.3860858 0.01050568
vt 0.3860858 0.01050568
vt 0.3860858 0.01050568
vt 0.3860858 0.01050568
vt 0.3860858 0.01050568
vt 0.3860858 0.01050568
vt 0.3860858 0.01050568
vt 0.3860858 0.01050568
vt 0.3860858 0.01050568
vt 0.3860858 0.01050568
vt 0.005162328 0.3298187
vt 0.005162328 0.3298187
vt 0.005162239 0.3298187
vt 0.005162239 0.3298187
vt 0.005162239 0.3298187
vt 0.005162239 0.3298187
vt 0.005162239 0.3298187
vt 0.005163193 0.3298187
vt 0.005162239 0.3298187
vt 0.005162239 0.3298187
vt 0.005162239 0.3298187
vt 0.005162239 0.3298187
vt 0.005162239 0.3298187
vt 0.005162328 0.3298187
vt 0.005162239 0.3298187
vt 0.005162328 0.3298187
vt 0.005162239 0.3298187
vt 0.005162239 0.3298187
vt 0.005162328 0.3298187
vt 0.005162328 0.3298187
vt 0.005163193 0.3298187
vt 0.005162239 0.3298187
vt 0.005162239 0.3298187
vt 0.005162239 0.3298187
vt 0.005162239 0.3298187
vt 0.005162239 0.3298187
vt 0.005162239 0.3298187
vt 0.005162239 0.3298187
vt 0.005162328 0.3298187
vt 0.005162239 0.3298187
vt 0.005162328 0.3298187
vt 0.005162239 0.3298187
vt 0.005162328 0.3298187
vt 0.005162328 0.3298187
vt 0.005162239 0.3298187
vt 0.005162239 0.3298187
vt 0.005162239 0.3298187
vt 0.005162239 0.3298187
vt 0.005162239 0.3298187
vt 0.005162239 0.3298187
vt 0.005162239 0.3298187
vt 0.005162239 0.3298187
vt 0.005162239 0.3298187
vt 0.005162239 0.3298187
vt 0.005162239 0.3298187
vt 0.005162328 0.3298187
vt 0.005162239 0.3298187
vt 0.005162328 0.3298187
vn 0.7071068 0 0.7071068
vn 0.7071068 0 0.7071068
vn 1 0 0
vn 1 0 0
vn 0 0 1
vn 0.7071069 0 -0.7071066
vn 0 0 1
vn 0.7071069 0 -0.7071066
vn -0.7071068 0 0.7071068
vn 0 0 -1
vn -0.7071068 0 0.7071068
vn 0 0 -1
vn -1 0 0
vn -0.7071069 0 -0.7071066
vn -1 0 0
vn -0.7071069 0 -0.7071066
vn 0 -1 0
vn 0 -1 0
vn 0 -1 0
vn 0 -1 0
vn 0 -1 0
vn 0 -1 0
vn 0 -1 0
vn 0 -1 0
vn 0 -1 0
vn 0 -1 0
vn 0 -1 0
vn 0 -1 0
vn 0 -1 0
vn 0 -1 0
vn 0 -1 0
vn 0 -1 0
vn 0 1 0
vn 0 1 0
vn 0 1 0
vn 0 1 0
vn 0 1 0
vn 0 1 0
vn 0 1 0
vn 0 1 0
vn 0 1 0
vn 0 1 0
vn 0 1 0
vn 0 1 0
vn 0 1 0
vn 0 1 0
vn 0 1 0
vn 0 1 0
vn 0 -1 0
vn 0 -1 0
vn 0 -1 0
vn 0 -1 0
vn 0 -1 0
vn 0 -1 0
vn 0 -1 0
vn 0 -1 0
vn 0 -1 0
vn 0 -1 0
vn 0 -1 0
vn 0 -1 0
vn 0 -1 0
vn 0 -1 0
vn 0 -1 0
vn 0 -1 0
vn 0 1 0
vn 0 1 0
vn 0 1 0
vn 0 1 0
vn 0 1 0
vn 0 1 0
vn 0 1 0
vn 0 1 0
vn 0 1 0
vn 0 1 0
vn 0 1 0
vn 0 1 0
vn 0 1 0
vn 0 1 0
vn 0 1 0
vn 0 1 0
vn -1 0 0
vn -1 0 0
vn -0.7071069 0 -0.7071066
vn -0.7071069 0 -0.7071066
vn -0.7071069 0 0.7071066
vn 0 0 -1
vn -0.7071069 0 0.7071066
vn 0 0 -1
vn 0 0 1
vn 0.7071069 0 -0.7071066
vn 0 0 1
vn 0.7071069 0 -0.7071066
vn 0.7071069 0 0.7071066
vn 1 0 0
vn 0.7071069 0 0.7071066
vn 1 0 0
g polySurface21_0
f 3/3/3 2/2/2 1/1/1
f 4/4/4 3/3/3 1/1/1
f 1/1/1 2/2/2 5/5/5
f 6/6/6 3/3/3 4/4/4
f 2/2/2 7/7/7 5/5/5
f 8/8/8 6/6/6 4/4/4
f 5/5/5 7/7/7 9/9/9
f 10/10/10 6/6/6 8/8/8
f 7/7/7 11/11/11 9/9/9
f 12/12/12 10/10/10 8/8/8
f 9/9/9 11/11/11 13/13/13
f 14/14/14 10/10/10 12/12/12
f 11/11/11 15/15/15 13/13/13
f 16/16/16 14/14/14 12/12/12
f 13/13/13 15/15/15 16/16/16
f 15/15/15 14/14/14 16/16/16
f 19/19/19 18/18/18 17/17/17
f 20/20/20 19/19/19 17/17/17
f 17/17/17 18/18/18 21/21/21
f 22/22/22 19/19/19 20/20/20
f 18/18/18 23/23/23 21/21/21
f 24/24/24 22/22/22 20/20/20
f 21/21/21 23/23/23 25/25/25
f 26/26/26 22/22/22 24/24/24
f 23/23/23 27/27/27 25/25/25
f 28/28/28 26/26/26 24/24/24
f 25/25/25 27/27/27 29/29/29
f 30/30/30 26/26/26 28/28/28
f 27/27/27 31/31/31 29/29/29
f 32/32/32 30/30/30 28/28/28
f 29/29/29 31/31/31 32/32/32
f 31/31/31 30/30/30 32/32/32
f 35/35/35 34/34/34 33/33/33
f 36/36/36 35/35/35 33/33/33
f 33/33/33 34/34/34 37/37/37
f 38/38/38 35/35/35 36/36/36
f 34/34/34 39/39/39 37/37/37
f 40/40/40 38/38/38 36/36/36
f 37/37/37 39/39/39 41/41/41
f 42/42/42 38/38/38 40/40/40
f 39/39/39 43/43/43 41/41/41
f 44/44/44 42/42/42 40/40/40
f 41/41/41 43/43/43 45/45/45
f 46/46/46 42/42/42 44/44/44
f 43/43/43 47/47/47 45/45/45
f 48/48/48 46/46/46 44/44/44
f 45/45/45 47/47/47 48/48/48
f 47/47/47 46/46/46 48/48/48
f 51/51/51 50/50/50 49/49/49
f 52/52/52 51/51/51 49/49/49
f 49/49/49 50/50/50 53/53/53
f 54/54/54 51/51/51 52/52/52
f 50/50/50 55/55/55 53/53/53
f 56/56/56 54/54/54 52/52/52
f 53/53/53 55/55/55 57/57/57
f 58/58/58 54/54/54 56/56/56
f 55/55/55 59/59/59 57/57/57
f 60/60/60 58/58/58 56/56/56
f 57/57/57 59/59/59 61/61/61
f 62/62/62 58/58/58 60/60/60
f 59/59/59 63/63/63 61/61/61
f 64/64/64 62/62/62 60/60/60
f 61/61/61 63/63/63 64/64/64
f 63/63/63 62/62/62 64/64/64
f 67/67/67 66/66/66 65/65/65
f 68/68/68 67/67/67 65/65/65
f 65/65/65 66/66/66 69/69/69
f 70/70/70 67/67/67 68/68/68
f 66/66/66 71/71/71 69/69/69
f 72/72/72 70/70/70 68/68/68
f 69/69/69 71/71/71 73/73/73
f 74/74/74 70/70/70 72/72/72
f 71/71/71 75/75/75 73/73/73
f 76/76/76 74/74/74 72/72/72
f 73/73/73 75/75/75 77/77/77
f 78/78/78 74/74/74 76/76/76
f 75/75/75 79/79/79 77/77/77
f 80/80/80 78/78/78 76/76/76
f 77/77/77 79/79/79 80/80/80
f 79/79/79 78/78/78 80/80/80
f 83/83/83 82/82/82 81/81/81
f 84/84/84 83/83/83 81/81/81
f 81/81/81 82/82/82 85/85/85
f 86/86/86 83/83/83 84/84/84
f 82/82/82 87/87/87 85/85/85
f 88/88/88 86/86/86 84/84/84
f 85/85/85 87/87/87 89/89/89
f 90/90/90 86/86/86 88/88/88
f 87/87/87 91/91/91 89/89/89
f 92/92/92 90/90/90 88/88/88
f 89/89/89 91/91/91 93/93/93
f 94/94/94 90/90/90 92/92/92
f 91/91/91 95/95/95 93/93/93
f 96/96/96 94/94/94 92/92/92
f 93/93/93 95/95/95 96/96/96
f 95/95/95 94/94/94 96/96/96
