g polySurface2
v -0.07379837 -1.788139E-08 0
v -0.03689956 -0.1064496 0
v -0.06391143 -0.06145873 0
v -0.03195572 -0.03072938 0
v -0.03195572 0.03072935 0
v 0 -0.06145873 0
v -0.06391143 0.0614587 0
v 0 -0.1229174 0
v -0.03689956 0.1064496 0
v 0.0368988 -0.1064496 0
v 0 0.06145871 0
v 0.03195572 0.03072936 0
v 0.0368988 0.1064496 0
v 0 0.1229174 0
v 0.06391143 0.06145874 0
v 0.07379837 1.192093E-08 0
v 0.06391143 -0.06145871 0
v 0.03195572 -0.03072935 0
v 0 -5.960464E-09 0
vt 0.08599854 0.1732178
vt 0.1473389 0.06695557
vt 0.102478 0.1118774
vt 0.1556396 0.1425781
vt 0.1556396 0.2038574
vt 0.2087402 0.1118774
vt 0.102478 0.2346191
vt 0.2087402 0.05050659
vt 0.1473389 0.279541
vt 0.2700195 0.06695557
vt 0.2087402 0.2346191
vt 0.2619629 0.2038574
vt 0.2700195 0.279541
vt 0.2087402 0.2958984
vt 0.3149414 0.2346191
vt 0.331543 0.1732178
vt 0.3149414 0.1118774
vt 0.2619629 0.1425781
vt 0.2087402 0.1732178
vn 0 0 1
vn 0 0 1
vn 0 0 1
vn 0 0 1
vn 0 0 1
vn 0 0 1
vn 0 0 1
vn 0 0 1
vn 0 0 1
vn 0 0 1
vn 0 0 1
vn 0 0 1
vn 0 0 1
vn 2.086163E-06 0 1
vn 0 0 1
vn 0 0 1
vn 2.086163E-06 0 1
vn 0 0 1
vn 0 0 1
g polySurface2_0
f 3/3/3 2/2/2 1/1/1
f 2/2/2 4/4/4 1/1/1
f 1/1/1 4/4/4 5/5/5
f 6/6/6 4/4/4 2/2/2
f 5/5/5 4/4/4 6/6/6
f 7/7/7 1/1/1 5/5/5
f 8/8/8 6/6/6 2/2/2
f 7/7/7 5/5/5 9/9/9
f 8/8/8 10/10/10 6/6/6
f 5/5/5 11/11/11 9/9/9
f 12/12/12 11/11/11 5/5/5
f 9/9/9 11/11/11 13/13/13
f 13/13/13 11/11/11 12/12/12
f 14/14/14 9/9/9 13/13/13
f 15/15/15 13/13/13 12/12/12
f 15/15/15 12/12/12 16/16/16
f 17/17/17 16/16/16 10/10/10
f 16/16/16 18/18/18 10/10/10
f 10/10/10 18/18/18 6/6/6
f 12/12/12 18/18/18 16/16/16
f 6/6/6 18/18/18 12/12/12
f 19/19/19 5/5/5 6/6/6
f 19/19/19 6/6/6 12/12/12
f 19/19/19 12/12/12 5/5/5
