g polySurface14
v -0.07995849 -0.001482735 -0.0001864624
v -0.08892334 0.0009597778 0.02044525
v -0.1148041 -0.08857967 0.0172287
v -0.1058386 -0.08857967 -0.0001565552
v 0.1132989 0.05178253 -9.429931E-05
v 0.1016284 0.0607341 0.01041351
v 0.1031329 0.07166588 0.01041351
v 0.1148041 0.06271366 -9.429931E-05
v -0.08822387 -0.08857967 -0.0001565552
v -0.09718872 -0.08857967 0.0172287
v -0.07130859 -0.003839455 0.02044525
v -0.06234375 -0.006281967 -0.0001864624
v -0.1148041 -0.08857967 0.0172287
v -0.07130859 -0.003839455 0.02044525
v -0.09718872 -0.08857967 0.0172287
v -0.08892334 0.0009597778 0.02044525
v -0.03241577 0.05320374 0.02324005
v -0.04225708 0.06858131 0.02324005
v -0.09718872 -0.08857967 -0.0172287
v -0.08892334 0.0009597778 -0.02044464
v -0.1148041 -0.08857967 -0.0172287
v -0.07130859 -0.003839455 -0.02044464
v -0.04225708 0.06858131 -0.02324005
v -0.03241577 0.05320374 -0.02324005
v 0.1031329 0.07166588 -0.01041351
v 0.1016284 0.0607341 -0.01041351
v 0.1132989 0.05178253 -9.429931E-05
v 0.1148041 0.06271366 -9.429931E-05
v -0.1148041 -0.08857967 -0.0172287
v -0.08892334 0.0009597778 -0.02044464
v -0.07995849 -0.001482735 -0.0001864624
v -0.1058386 -0.08857967 -0.0001565552
v -0.07130859 -0.003839455 -0.02044464
v -0.09718872 -0.08857967 -0.0172287
v -0.08822387 -0.08857967 -0.0001565552
v -0.06234375 -0.006281967 -0.0001864624
v -0.07995849 -0.001482735 -0.0001864624
v -0.03724792 0.06075504 -0.0002114868
v -0.04225708 0.06858131 0.02324005
v -0.08892334 0.0009597778 0.02044525
v -0.07130859 -0.003839455 0.02044525
v -0.03241577 0.05320374 0.02324005
v -0.02740784 0.04537735 -0.0002114868
v -0.06234375 -0.006281967 -0.0001864624
v -0.08892334 0.0009597778 -0.02044464
v -0.04225708 0.06858131 -0.02324005
v -0.03724792 0.06075504 -0.0002114868
v -0.07995849 -0.001482735 -0.0001864624
v -0.06234375 -0.006281967 -0.0001864624
v -0.02740784 0.04537735 -0.0002114868
v -0.03241577 0.05320374 -0.02324005
v -0.07130859 -0.003839455 -0.02044464
v -0.03724792 0.06075504 -0.0002114868
v 0.04853638 0.07937439 -0.0001864624
v 0.04980347 0.08857967 0.02044525
v -0.04225708 0.06858131 0.02324005
v -0.04225708 0.06858131 0.02324005
v 0.04980347 0.08857967 0.02044525
v 0.04731384 0.07049316 0.02044525
v -0.03241577 0.05320374 0.02324005
v -0.03241577 0.05320374 0.02324005
v 0.04731384 0.07049316 0.02044525
v 0.04604614 0.06128864 -0.0001864624
v -0.02740784 0.04537735 -0.0002114868
v -0.04225708 0.06858131 -0.02324005
v 0.04980347 0.08857967 -0.02044464
v 0.04853638 0.07937439 -0.0001864624
v -0.03724792 0.06075504 -0.0002114868
v -0.02740784 0.04537735 -0.0002114868
v 0.04604614 0.06128864 -0.0001864624
v 0.04731384 0.07049316 -0.02044464
v -0.03241577 0.05320374 -0.02324005
v -0.03241577 0.05320374 -0.02324005
v 0.04731384 0.07049316 -0.02044464
v 0.04980347 0.08857967 -0.02044464
v -0.04225708 0.06858131 -0.02324005
v 0.04853638 0.07937439 -0.0001864624
v 0.1148041 0.06271366 -9.429931E-05
v 0.1031329 0.07166588 0.01041351
v 0.04980347 0.08857967 0.02044525
v 0.04980347 0.08857967 0.02044525
v 0.1031329 0.07166588 0.01041351
v 0.1016284 0.0607341 0.01041351
v 0.04731384 0.07049316 0.02044525
v 0.04731384 0.07049316 0.02044525
v 0.1016284 0.0607341 0.01041351
v 0.1132989 0.05178253 -9.429931E-05
v 0.04604614 0.06128864 -0.0001864624
v 0.04980347 0.08857967 -0.02044464
v 0.1031329 0.07166588 -0.01041351
v 0.1148041 0.06271366 -9.429931E-05
v 0.04853638 0.07937439 -0.0001864624
v 0.04604614 0.06128864 -0.0001864624
v 0.1132989 0.05178253 -9.429931E-05
v 0.1016284 0.0607341 -0.01041351
v 0.04731384 0.07049316 -0.02044464
v 0.04731384 0.07049316 -0.02044464
v 0.1016284 0.0607341 -0.01041351
v 0.1031329 0.07166588 -0.01041351
v 0.04980347 0.08857967 -0.02044464
vt 0.1559772 0.3504515
vt 0.1559772 0.3504515
vt 0.1559772 0.3504515
vt 0.1559772 0.3504515
vt 0.1559772 0.3504515
vt 0.1559772 0.3504515
vt 0.1559772 0.3504515
vt 0.1559772 0.3504515
vt 0.1559772 0.3504515
vt 0.1559772 0.3504515
vt 0.1559772 0.3504515
vt 0.1559772 0.3504515
vt 0.1559772 0.3504515
vt 0.1559772 0.3504515
vt 0.1559772 0.3504515
vt 0.1559772 0.3504515
vt 0.1559772 0.3504515
vt 0.1559772 0.3504515
vt 0.1559772 0.3504515
vt 0.1559772 0.3504515
vt 0.1559772 0.3504515
vt 0.1559772 0.3504515
vt 0.1559772 0.3504515
vt 0.1559772 0.3504515
vt 0.1559772 0.3504515
vt 0.1559772 0.3504515
vt 0.1559772 0.3504515
vt 0.1559772 0.3504515
vt 0.1559772 0.3504515
vt 0.1559772 0.3504515
vt 0.1559772 0.3504515
vt 0.1559772 0.3504515
vt 0.1559772 0.3504515
vt 0.1559772 0.3504515
vt 0.1559772 0.3504515
vt 0.1559772 0.3504515
vt 0.1559772 0.3504515
vt 0.1559772 0.3504515
vt 0.1559772 0.3504515
vt 0.1559772 0.3504515
vt 0.1559772 0.3504515
vt 0.1559772 0.3504515
vt 0.1559772 0.3504515
vt 0.1559772 0.3504515
vt 0.1559772 0.3504515
vt 0.1559772 0.3504515
vt 0.1559772 0.3504515
vt 0.1559772 0.3504515
vt 0.1559772 0.3504515
vt 0.1559772 0.3504515
vt 0.1559772 0.3504515
vt 0.1559772 0.3504515
vt 0.1559772 0.3504515
vt 0.1559772 0.3504515
vt 0.1559772 0.3504515
vt 0.1559772 0.3504515
vt 0.1559772 0.3504515
vt 0.1559772 0.3504515
vt 0.1559772 0.3504515
vt 0.1559772 0.3504515
vt 0.1559772 0.3504515
vt 0.1559772 0.3504515
vt 0.1559772 0.3504515
vt 0.1559772 0.3504515
vt 0.1559772 0.3504515
vt 0.1559772 0.3504515
vt 0.1559772 0.3504515
vt 0.1559772 0.3504515
vt 0.1559772 0.3504515
vt 0.1559772 0.3504515
vt 0.1559772 0.3504515
vt 0.1559772 0.3504515
vt 0.1559772 0.3504515
vt 0.1559772 0.3504515
vt 0.1559772 0.3504515
vt 0.1559772 0.3504515
vt 0.1559772 0.3504515
vt 0.1559772 0.3504515
vt 0.1559772 0.3504515
vt 0.1559772 0.3504515
vt 0.1559772 0.3504515
vt 0.1559772 0.3504515
vt 0.1559772 0.3504515
vt 0.1559772 0.3504515
vt 0.1559772 0.3504515
vt 0.1559772 0.3504515
vt 0.1559772 0.3504515
vt 0.1559772 0.3504515
vt 0.1559772 0.3504515
vt 0.1559772 0.3504515
vt 0.1559772 0.3504515
vt 0.1559772 0.3504515
vt 0.1559772 0.3504515
vt 0.1559772 0.3504515
vt 0.1559772 0.3504515
vt 0.1559772 0.3504515
vt 0.1559772 0.3504515
vt 0.1559772 0.3504515
vt 0.1559772 0.3504515
vt 0.1559772 0.3504515
vn -0.8663755 0.2615543 -0.4254209
vn -0.8663755 0.2615543 -0.4254209
vn -0.8663755 0.2615543 -0.4254209
vn -0.8663754 0.2615543 -0.4254209
vn 0.6290884 -0.08660077 0.7724949
vn 0.6290884 -0.08660076 0.7724949
vn 0.6290884 -0.08660076 0.7724949
vn 0.6290883 -0.08660076 0.7724947
vn 0.8625422 -0.2753752 0.4244874
vn 0.8625422 -0.2753752 0.4244874
vn 0.8625422 -0.2753752 0.4244874
vn 0.8625422 -0.2753752 0.4244874
vn -0.004829781 -0.03545447 0.9993597
vn -0.00482978 -0.03545446 0.9993597
vn -0.00482978 -0.03545446 0.9993597
vn -0.00482978 -0.03545447 0.9993597
vn -0.02188793 -0.02978446 0.9993167
vn -0.02188793 -0.02978447 0.9993167
vn -0.004828948 -0.03544775 -0.9993599
vn -0.004828947 -0.03544775 -0.9993599
vn -0.004828948 -0.03544775 -0.9993599
vn -0.004828948 -0.03544775 -0.9993599
vn -0.02189273 -0.02979097 -0.9993163
vn -0.02189273 -0.02979097 -0.9993163
vn 0.6222772 -0.08566312 -0.7780957
vn 0.6222772 -0.08566312 -0.7780957
vn 0.6222771 -0.08566311 -0.7780958
vn 0.6222772 -0.0856631 -0.7780957
vn -0.863408 0.2609442 0.4317808
vn -0.863408 0.2609442 0.4317808
vn -0.8634081 0.2609442 0.4317808
vn -0.8634081 0.2609442 0.4317808
vn 0.8595931 -0.2747351 -0.430837
vn 0.8595931 -0.2747351 -0.430837
vn 0.8595931 -0.2747351 -0.430837
vn 0.8595931 -0.2747351 -0.4308369
vn -0.7629368 0.5329041 -0.365979
vn -0.7629368 0.5329041 -0.365979
vn -0.7629368 0.5329041 -0.365979
vn -0.7629368 0.5329041 -0.365979
vn 0.7655087 -0.5292431 0.3659211
vn 0.7655086 -0.5292431 0.3659211
vn 0.7655087 -0.5292431 0.3659211
vn 0.7655087 -0.5292431 0.3659211
vn -0.7609095 0.5317779 0.3717916
vn -0.7609096 0.5317779 0.3717917
vn -0.7609096 0.5317778 0.3717916
vn -0.7609096 0.5317778 0.3717916
vn 0.7634493 -0.5281657 -0.371734
vn 0.7634493 -0.5281657 -0.371734
vn 0.7634493 -0.5281657 -0.371734
vn 0.7634493 -0.5281658 -0.3717341
vn -0.2027881 0.9075116 -0.3678311
vn -0.2027881 0.9075116 -0.3678311
vn -0.2027881 0.9075116 -0.3678311
vn -0.2027881 0.9075116 -0.3678311
vn 0.03104085 0.006819327 0.9994949
vn 0.03104085 0.006819327 0.9994949
vn 0.03104085 0.006819327 0.9994949
vn 0.03104085 0.006819327 0.9994949
vn 0.2033189 -0.9074007 0.3678119
vn 0.2033189 -0.9074007 0.3678119
vn 0.2033189 -0.9074007 0.3678119
vn 0.2033189 -0.9074007 0.3678119
vn -0.2024823 0.9051951 0.3736615
vn -0.2024824 0.9051951 0.3736615
vn -0.2024823 0.9051951 0.3736615
vn -0.2024824 0.9051951 0.3736615
vn 0.2030442 -0.9050772 -0.3736419
vn 0.2030442 -0.9050772 -0.3736419
vn 0.2030442 -0.9050772 -0.3736419
vn 0.2030442 -0.9050772 -0.3736419
vn 0.03104759 0.006820806 -0.9994947
vn 0.03104759 0.006820806 -0.9994947
vn 0.03104759 0.006820807 -0.9994947
vn 0.03104759 0.006820806 -0.9994947
vn 0.2087012 0.8735815 -0.439658
vn 0.2087012 0.8735815 -0.439658
vn 0.2087012 0.8735815 -0.439658
vn 0.2087012 0.8735815 -0.439658
vn 0.1773289 -0.02440786 0.9838489
vn 0.1773289 -0.02440786 0.9838489
vn 0.1773289 -0.02440786 0.9838489
vn 0.1773289 -0.02440786 0.9838489
vn -0.09952612 -0.8737035 0.476169
vn -0.09952612 -0.8737034 0.476169
vn -0.09952611 -0.8737035 0.4761689
vn -0.09952612 -0.8737035 0.476169
vn 0.2065779 0.8705327 0.4466526
vn 0.2065779 0.8705327 0.4466526
vn 0.2065779 0.8705327 0.4466526
vn 0.2065779 0.8705326 0.4466526
vn -0.09761601 -0.8699664 -0.4833523
vn -0.09761601 -0.8699664 -0.4833523
vn -0.09761602 -0.8699664 -0.4833523
vn -0.09761602 -0.8699666 -0.4833523
vn 0.1773184 -0.02440652 -0.9838509
vn 0.1773184 -0.02440651 -0.9838509
vn 0.1773184 -0.02440652 -0.9838509
vn 0.1773184 -0.02440651 -0.9838509
g polySurface14_0
f 3/3/3 2/2/2 1/1/1
f 4/4/4 3/3/3 1/1/1
f 7/7/7 6/6/6 5/5/5
f 8/8/8 7/7/7 5/5/5
f 11/11/11 10/10/10 9/9/9
f 12/12/12 11/11/11 9/9/9
f 15/15/15 14/14/14 13/13/13
f 14/14/14 16/16/16 13/13/13
f 14/14/14 17/17/17 16/16/16
f 17/17/17 18/18/18 16/16/16
f 21/21/21 20/20/20 19/19/19
f 20/20/20 22/22/22 19/19/19
f 20/20/20 23/23/23 22/22/22
f 23/23/23 24/24/24 22/22/22
f 27/27/27 26/26/26 25/25/25
f 28/28/28 27/27/27 25/25/25
f 31/31/31 30/30/30 29/29/29
f 32/32/32 31/31/31 29/29/29
f 35/35/35 34/34/34 33/33/33
f 36/36/36 35/35/35 33/33/33
f 39/39/39 38/38/38 37/37/37
f 40/40/40 39/39/39 37/37/37
f 43/43/43 42/42/42 41/41/41
f 44/44/44 43/43/43 41/41/41
f 47/47/47 46/46/46 45/45/45
f 48/48/48 47/47/47 45/45/45
f 51/51/51 50/50/50 49/49/49
f 52/52/52 51/51/51 49/49/49
f 55/55/55 54/54/54 53/53/53
f 56/56/56 55/55/55 53/53/53
f 59/59/59 58/58/58 57/57/57
f 60/60/60 59/59/59 57/57/57
f 63/63/63 62/62/62 61/61/61
f 64/64/64 63/63/63 61/61/61
f 67/67/67 66/66/66 65/65/65
f 68/68/68 67/67/67 65/65/65
f 71/71/71 70/70/70 69/69/69
f 72/72/72 71/71/71 69/69/69
f 75/75/75 74/74/74 73/73/73
f 76/76/76 75/75/75 73/73/73
f 79/79/79 78/78/78 77/77/77
f 80/80/80 79/79/79 77/77/77
f 83/83/83 82/82/82 81/81/81
f 84/84/84 83/83/83 81/81/81
f 87/87/87 86/86/86 85/85/85
f 88/88/88 87/87/87 85/85/85
f 91/91/91 90/90/90 89/89/89
f 92/92/92 91/91/91 89/89/89
f 95/95/95 94/94/94 93/93/93
f 96/96/96 95/95/95 93/93/93
f 99/99/99 98/98/98 97/97/97
f 100/100/100 99/99/99 97/97/97
