g polySurface3
v -8.537292E-05 0.2067607 -0.01144762
v 0.004250717 -0.0008287048 -0.07534739
v 0.05824821 0.07623734 -0.008184375
v -0.08105522 0.0758815 -0.01597704
v 0.004250717 -0.0008287048 -0.07534739
v -8.537292E-05 0.2067607 -0.01144762
v -0.2357893 0.06271652 -0.02463289
v 0.004250717 -0.0008287048 -0.07534739
v -0.08105522 0.0758815 -0.01597704
v -0.123697 -0.03495377 -0.01836237
v 0.004250717 -0.0008287048 -0.07534739
v -0.2357893 0.06271652 -0.02463289
v -0.1447089 -0.169145 -0.01953779
v 0.004250717 -0.0008287048 -0.07534739
v -0.123697 -0.03495377 -0.01836237
v -0.01074837 -0.1030977 -0.01204409
v 0.004250717 -0.0008287048 -0.07534739
v -0.1447089 -0.169145 -0.01953779
v 0.1472853 -0.1683989 -0.003203564
v 0.004250717 -0.0008287048 -0.07534739
v -0.01074837 -0.1030977 -0.01204409
v 0.1017005 -0.03437759 -0.005753422
v 0.004250717 -0.0008287048 -0.07534739
v 0.1472853 -0.1683989 -0.003203564
v 0.2366677 0.06392349 0.001796627
v 0.004250717 -0.0008287048 -0.07534739
v 0.1017005 -0.03437759 -0.005753422
v 0.05824821 0.07623734 -0.008184375
v 0.004250717 -0.0008287048 -0.07534739
v 0.2366677 0.06392349 0.001796627
v 0.05736976 0.07623734 0.007517414
v -0.003781357 -0.0008287048 0.06823915
v -0.0009638214 0.2067607 0.004254169
v -0.0009638214 0.2067607 0.004254169
v -0.003781357 -0.0008287048 0.06823915
v -0.08193351 0.0758815 -0.0002752495
v -0.08193351 0.0758815 -0.0002752495
v -0.003781357 -0.0008287048 0.06823915
v -0.2366677 0.06271652 -0.00893114
v -0.2366677 0.06271652 -0.00893114
v -0.003781357 -0.0008287048 0.06823915
v -0.1245754 -0.03495377 -0.00266058
v -0.1245754 -0.03495377 -0.00266058
v -0.003781357 -0.0008287048 0.06823915
v -0.1455872 -0.169145 -0.003836079
v -0.1455872 -0.169145 -0.003836079
v -0.003781357 -0.0008287048 0.06823915
v -0.01162682 -0.1030977 0.003657665
v -0.01162682 -0.1030977 0.003657665
v -0.003781357 -0.0008287048 0.06823915
v 0.1464069 -0.1683989 0.01249819
v 0.1464069 -0.1683989 0.01249819
v -0.003781357 -0.0008287048 0.06823915
v 0.1008221 -0.03437759 0.00994833
v 0.1008221 -0.03437759 0.00994833
v -0.003781357 -0.0008287048 0.06823915
v 0.2357893 0.06392349 0.01749838
v 0.2357893 0.06392349 0.01749838
v -0.003781357 -0.0008287048 0.06823915
v 0.05736976 0.07623734 0.007517414
v 0.05623543 -0.2067607 -0.02832228
v -0.0005127716 -0.04715591 0.0003409004
v -0.007169266 -0.04715591 -0.004015331
v -0.003618393 -0.2067607 -0.06749216
v -0.003618393 -0.2067607 -0.06749216
v -0.007169266 -0.04715591 -0.004015331
v -0.01427025 -0.04715591 -0.0004286766
v -0.06746742 -0.2067607 -0.03524229
v -0.06746742 -0.2067607 -0.03524229
v -0.01427025 -0.04715591 -0.0004286766
v -0.01471458 -0.04715591 0.007514248
v -0.07146263 -0.2067607 0.03617746
v -0.07146263 -0.2067607 0.03617746
v -0.01471458 -0.04715591 0.007514248
v -0.00805809 -0.04715591 0.01187052
v -0.01160896 -0.2067607 0.07534739
v -0.01160896 -0.2067607 0.07534739
v -0.00805809 -0.04715591 0.01187052
v -0.0009571075 -0.04715591 0.008283863
v 0.05224007 -0.2067607 0.04309751
v 0.05224007 -0.2067607 0.04309751
v -0.0009571075 -0.04715591 0.008283863
v -0.0005127716 -0.04715591 0.0003409004
v 0.05623543 -0.2067607 -0.02832228
v -0.01160896 -0.2067607 0.07534739
v -0.007613602 -0.2067607 0.003927593
v -0.07146263 -0.2067607 0.03617746
v -0.06746742 -0.2067607 -0.03524229
v -0.003618393 -0.2067607 -0.06749216
v 0.05623543 -0.2067607 -0.02832228
v -0.007613602 -0.2067607 0.003927593
v 0.05224007 -0.2067607 0.04309751
v -0.01160896 -0.2067607 0.07534739
v -0.01427025 -0.04715591 -0.0004286766
v -0.007613602 -0.04715591 0.003927593
v -0.01471458 -0.04715591 0.007514248
v -0.007169266 -0.04715591 -0.004015331
v -0.0005127716 -0.04715591 0.0003409004
v -0.0009571075 -0.04715591 0.008283863
v -0.01471458 -0.04715591 0.007514248
v -0.007613602 -0.04715591 0.003927593
v -0.00805809 -0.04715591 0.01187052
v -0.0009571075 -0.04715591 0.008283863
v 0.05824821 0.07623734 -0.008184375
v 0.05736976 0.07623734 0.007517414
v -0.0009638214 0.2067607 0.004254169
v -8.537292E-05 0.2067607 -0.01144762
v -8.537292E-05 0.2067607 -0.01144762
v -0.0009638214 0.2067607 0.004254169
v -0.08193351 0.0758815 -0.0002752495
v -0.08105522 0.0758815 -0.01597704
v -0.08105522 0.0758815 -0.01597704
v -0.08193351 0.0758815 -0.0002752495
v -0.2366677 0.06271652 -0.00893114
v -0.2357893 0.06271652 -0.02463289
v -0.2357893 0.06271652 -0.02463289
v -0.2366677 0.06271652 -0.00893114
v -0.1245754 -0.03495377 -0.00266058
v -0.123697 -0.03495377 -0.01836237
v -0.123697 -0.03495377 -0.01836237
v -0.1245754 -0.03495377 -0.00266058
v -0.1455872 -0.169145 -0.003836079
v -0.1447089 -0.169145 -0.01953779
v -0.1447089 -0.169145 -0.01953779
v -0.1455872 -0.169145 -0.003836079
v -0.01162682 -0.1030977 0.003657665
v -0.01074837 -0.1030977 -0.01204409
v -0.01074837 -0.1030977 -0.01204409
v -0.01162682 -0.1030977 0.003657665
v 0.1464069 -0.1683989 0.01249819
v 0.1472853 -0.1683989 -0.003203564
v 0.1472853 -0.1683989 -0.003203564
v 0.1464069 -0.1683989 0.01249819
v 0.1008221 -0.03437759 0.00994833
v 0.1017005 -0.03437759 -0.005753422
v 0.1017005 -0.03437759 -0.005753422
v 0.1008221 -0.03437759 0.00994833
v 0.2357893 0.06392349 0.01749838
v 0.2366677 0.06392349 0.001796627
v 0.2366677 0.06392349 0.001796627
v 0.2357893 0.06392349 0.01749838
v 0.05736976 0.07623734 0.007517414
v 0.05824821 0.07623734 -0.008184375
vt 0.2171631 0.4719238
vt 0.2171631 0.4719238
vt 0.2171631 0.4719238
vt 0.2171631 0.4719238
vt 0.2171631 0.4719238
vt 0.2171631 0.4719238
vt 0.2171631 0.4719238
vt 0.2171631 0.4719238
vt 0.2171631 0.4719238
vt 0.2171631 0.4719238
vt 0.2171631 0.4719238
vt 0.2171631 0.4719238
vt 0.2171631 0.4719238
vt 0.2171631 0.4719238
vt 0.2171631 0.4719238
vt 0.2171631 0.4719238
vt 0.2171631 0.4719238
vt 0.2171631 0.4719238
vt 0.2171631 0.4719238
vt 0.2171631 0.4719238
vt 0.2171631 0.4719238
vt 0.2171631 0.4719238
vt 0.2171631 0.4719238
vt 0.2171631 0.4719238
vt 0.2171631 0.4719238
vt 0.2171631 0.4719238
vt 0.2171631 0.4719238
vt 0.2171631 0.4719238
vt 0.2171631 0.4719238
vt 0.2171631 0.4719238
vt 0.2171631 0.4719238
vt 0.2171631 0.4719238
vt 0.2171631 0.4719238
vt 0.2171631 0.4719238
vt 0.2171631 0.4719238
vt 0.2171631 0.4719238
vt 0.2171631 0.4719238
vt 0.2171631 0.4719238
vt 0.2171631 0.4719238
vt 0.2171631 0.4719238
vt 0.2171631 0.4719238
vt 0.2171631 0.4719238
vt 0.2171631 0.4719238
vt 0.2171631 0.4719238
vt 0.2171631 0.4719238
vt 0.2171631 0.4719238
vt 0.2171631 0.4719238
vt 0.2171631 0.4719238
vt 0.2171631 0.4719238
vt 0.2171631 0.4719238
vt 0.2171631 0.4719238
vt 0.2171631 0.4719238
vt 0.2171631 0.4719238
vt 0.2171631 0.4719238
vt 0.2171631 0.4719238
vt 0.2171631 0.4719238
vt 0.2171631 0.4719238
vt 0.2171631 0.4719238
vt 0.2171631 0.4719238
vt 0.2171631 0.4719238
vt 0.2166748 0.4616699
vt 0.2166748 0.4616699
vt 0.2166748 0.4616699
vt 0.2166748 0.4616699
vt 0.2166748 0.4616699
vt 0.2166748 0.4616699
vt 0.2166748 0.4616699
vt 0.2166748 0.4616699
vt 0.2166748 0.4616699
vt 0.2166748 0.4616699
vt 0.2166748 0.4616699
vt 0.2166748 0.4616699
vt 0.2166748 0.4616699
vt 0.2166748 0.4616699
vt 0.2166748 0.4616699
vt 0.2166748 0.4616699
vt 0.2166748 0.4616699
vt 0.2166748 0.4616699
vt 0.2166748 0.4616699
vt 0.2166748 0.4616699
vt 0.2166748 0.4616699
vt 0.2166748 0.4616699
vt 0.2166748 0.4616699
vt 0.2166748 0.4616699
vt 0.2166748 0.4616699
vt 0.2166748 0.4616699
vt 0.2166748 0.4616699
vt 0.2166748 0.4616699
vt 0.2166748 0.4616699
vt 0.2166748 0.4616699
vt 0.2166748 0.4616699
vt 0.2166748 0.4616699
vt 0.2166748 0.4616699
vt 0.2166748 0.4616699
vt 0.2166748 0.4616699
vt 0.2166748 0.4616699
vt 0.2166748 0.4616699
vt 0.2166748 0.4616699
vt 0.2166748 0.4616699
vt 0.2166748 0.4616699
vt 0.2166748 0.4616699
vt 0.2166748 0.4616699
vt 0.2166748 0.4616699
vt 0.2171631 0.4719238
vt 0.2171631 0.4719238
vt 0.2171631 0.4719238
vt 0.2171631 0.4719238
vt 0.2171631 0.4719238
vt 0.2171631 0.4719238
vt 0.2171631 0.4719238
vt 0.2171631 0.4719238
vt 0.2171631 0.4719238
vt 0.2171631 0.4719238
vt 0.2171631 0.4719238
vt 0.2171631 0.4719238
vt 0.2171631 0.4719238
vt 0.2171631 0.4719238
vt 0.2171631 0.4719238
vt 0.2171631 0.4719238
vt 0.2171631 0.4719238
vt 0.2171631 0.4719238
vt 0.2171631 0.4719238
vt 0.2171631 0.4719238
vt 0.2171631 0.4719238
vt 0.2171631 0.4719238
vt 0.2171631 0.4719238
vt 0.2171631 0.4719238
vt 0.2171631 0.4719238
vt 0.2171631 0.4719238
vt 0.2171631 0.4719238
vt 0.2171631 0.4719238
vt 0.2171631 0.4719238
vt 0.2171631 0.4719238
vt 0.2171631 0.4719238
vt 0.2171631 0.4719238
vt 0.2171631 0.4719238
vt 0.2171631 0.4719238
vt 0.2171631 0.4719238
vt 0.2171631 0.4719238
vt 0.2171631 0.4719238
vt 0.2171631 0.4719238
vt 0.2171631 0.4719238
vt 0.2171631 0.4719238
vn 0.5966797 0.2474365 -0.7636719
vn 0.5966797 0.2474365 -0.7636719
vn 0.5966797 0.2474365 -0.7636719
vn -0.3789063 0.2651367 -0.8867188
vn -0.3789063 0.2651367 -0.8867188
vn -0.3789063 0.2651367 -0.8867188
vn -0.007194519 0.6069336 -0.7944336
vn -0.007194519 0.6069336 -0.7944336
vn -0.007194519 0.6069336 -0.7944336
vn -0.2873535 -0.3862305 -0.8764648
vn -0.2873535 -0.3862305 -0.8764648
vn -0.2873535 -0.3862305 -0.8764648
vn -0.4221191 0.07403564 -0.9033203
vn -0.4221191 0.07403564 -0.9033203
vn -0.4221191 0.07403564 -0.9033203
vn 0.3068848 -0.5332031 -0.7885742
vn 0.3068848 -0.5332031 -0.7885742
vn 0.3068848 -0.5332031 -0.7885742
vn -0.1600342 -0.5024414 -0.8496094
vn -0.1600342 -0.5024414 -0.8496094
vn -0.1600342 -0.5024414 -0.8496094
vn 0.6132813 0.1940918 -0.765625
vn 0.6132813 0.1940918 -0.765625
vn 0.6132813 0.1940918 -0.765625
vn 0.394043 -0.4807129 -0.7832031
vn 0.394043 -0.4807129 -0.7832031
vn 0.394043 -0.4807129 -0.7832031
vn 0.08642578 0.6196289 -0.7802734
vn 0.08642578 0.6196289 -0.7802734
vn 0.08642578 0.6196289 -0.7802734
vn 0.5078125 0.2474365 0.8251953
vn 0.5078125 0.2474365 0.8251953
vn 0.5078125 0.2474365 0.8251953
vn -0.4753418 0.2651367 0.8388672
vn -0.4753418 0.2651367 0.8388672
vn -0.4753418 0.2651367 0.8388672
vn -0.09576416 0.6069336 0.7890625
vn -0.09576416 0.6069336 0.7890625
vn -0.09576416 0.6069336 0.7890625
vn -0.3833008 -0.3862305 0.8388672
vn -0.3833008 -0.3862305 0.8388672
vn -0.3833008 -0.3862305 0.8388672
vn -0.5205078 0.07403564 0.8505859
vn -0.5205078 0.07403564 0.8505859
vn -0.5205078 0.07403564 0.8505859
vn 0.217041 -0.5332031 0.8178711
vn 0.217041 -0.5332031 0.8178711
vn 0.217041 -0.5332031 0.8178711
vn -0.2539063 -0.5024414 0.8266602
vn -0.2539063 -0.5024414 0.8266602
vn -0.2539063 -0.5024414 0.8266602
vn 0.5244141 0.1940918 0.8291016
vn 0.5244141 0.1940918 0.8291016
vn 0.5244141 0.1940918 0.8291016
vn 0.3041992 -0.4807129 0.8222656
vn 0.3041992 -0.4807129 0.8222656
vn 0.3041992 -0.4807129 0.8222656
vn -0.001162529 0.6196289 0.7851563
vn -0.001162529 0.6196289 0.7851563
vn -0.001162529 0.6196289 0.7851563
vn 0.5175781 0.3261719 -0.7910156
vn 0.5175781 0.3261719 -0.7910156
vn 0.5175781 0.3261719 -0.7910156
vn 0.5175781 0.3261719 -0.7910156
vn -0.4262695 0.3261719 -0.84375
vn -0.4262695 0.3261719 -0.84375
vn -0.4262695 0.3261719 -0.84375
vn -0.4262695 0.3261719 -0.84375
vn -0.9438477 0.3261719 -0.05279541
vn -0.9438477 0.3261719 -0.05279541
vn -0.9438477 0.3261719 -0.05279541
vn -0.9438477 0.3261719 -0.05279541
vn -0.5175781 0.3261719 0.7910156
vn -0.5175781 0.3261719 0.7910156
vn -0.5175781 0.3261719 0.7910156
vn -0.5175781 0.3261719 0.7910156
vn 0.4262695 0.3261719 0.84375
vn 0.4262695 0.3261719 0.84375
vn 0.4262695 0.3261719 0.84375
vn 0.4262695 0.3261719 0.84375
vn 0.9438477 0.3261719 0.05279541
vn 0.9438477 0.3261719 0.05279541
vn 0.9438477 0.3261719 0.05279541
vn 0.9438477 0.3261719 0.05279541
vn 0 -1 1.370907E-06
vn 0 -1 -3.576279E-07
vn 0 -1 0
vn 0 -1 0
vn 0 -1 -3.576279E-07
vn 0 -1 -3.576279E-07
vn 0 -1 0
vn 0 -1 0
vn 0 -1 0
vn 0 1 -4.523993E-05
vn 0 1 0
vn 0 1 5.567074E-05
vn 0 1 0
vn 0 1 0
vn 0 1 0
vn 0 1 -5.567074E-05
vn 0 1 -5.567074E-05
vn 0 1 -5.567074E-05
vn 0 1 3.129244E-05
vn 0.9111328 0.4084473 0.05099487
vn 0.9111328 0.4084473 0.05099487
vn 0.9111328 0.4084473 0.05099487
vn 0.9111328 0.4084473 0.05099487
vn -0.8486328 0.5268555 -0.04748535
vn -0.8486328 0.5268555 -0.04748535
vn -0.8486328 0.5268555 -0.04748535
vn -0.8486328 0.5268555 -0.04748535
vn -0.08453369 0.996582 -0.004714966
vn -0.08453369 0.996582 -0.004714966
vn -0.08453369 0.996582 -0.004714966
vn -0.08453369 0.996582 -0.004714966
vn -0.6552734 -0.7543945 -0.03665161
vn -0.6552734 -0.7543945 -0.03665161
vn -0.6552734 -0.7543945 -0.03665161
vn -0.6552734 -0.7543945 -0.03665161
vn -0.9863281 0.1549072 -0.05517578
vn -0.9863281 0.1549072 -0.05517578
vn -0.9863281 0.1549072 -0.05517578
vn -0.9863281 0.1549072 -0.05517578
vn 0.440918 -0.8969727 0.02467346
vn 0.440918 -0.8969727 0.02467346
vn 0.440918 -0.8969727 0.02467346
vn 0.440918 -0.8969727 0.02467346
vn -0.3808594 -0.9243164 -0.02130127
vn -0.3808594 -0.9243164 -0.02130127
vn -0.3808594 -0.9243164 -0.02130127
vn -0.3808594 -0.9243164 -0.02130127
vn 0.9453125 0.3225098 0.05288696
vn 0.9453125 0.3225098 0.05288696
vn 0.9453125 0.3225098 0.05288696
vn 0.9453125 0.3225098 0.05288696
vn 0.5874023 -0.8085938 0.03283691
vn 0.5874023 -0.8085938 0.03283691
vn 0.5874023 -0.8085938 0.03283691
vn 0.5874023 -0.8085938 0.03283691
vn 0.06866455 0.9975586 0.0038414
vn 0.06866455 0.9975586 0.0038414
vn 0.06866455 0.9975586 0.0038414
vn 0.06866455 0.9975586 0.0038414
g polySurface3_0
f 3/3/3 2/2/2 1/1/1
f 6/6/6 5/5/5 4/4/4
f 9/9/9 8/8/8 7/7/7
f 12/12/12 11/11/11 10/10/10
f 15/15/15 14/14/14 13/13/13
f 18/18/18 17/17/17 16/16/16
f 21/21/21 20/20/20 19/19/19
f 24/24/24 23/23/23 22/22/22
f 27/27/27 26/26/26 25/25/25
f 30/30/30 29/29/29 28/28/28
f 33/33/33 32/32/32 31/31/31
f 36/36/36 35/35/35 34/34/34
f 39/39/39 38/38/38 37/37/37
f 42/42/42 41/41/41 40/40/40
f 45/45/45 44/44/44 43/43/43
f 48/48/48 47/47/47 46/46/46
f 51/51/51 50/50/50 49/49/49
f 54/54/54 53/53/53 52/52/52
f 57/57/57 56/56/56 55/55/55
f 60/60/60 59/59/59 58/58/58
f 63/63/63 62/62/62 61/61/61
f 64/64/64 63/63/63 61/61/61
f 67/67/67 66/66/66 65/65/65
f 68/68/68 67/67/67 65/65/65
f 71/71/71 70/70/70 69/69/69
f 72/72/72 71/71/71 69/69/69
f 75/75/75 74/74/74 73/73/73
f 76/76/76 75/75/75 73/73/73
f 79/79/79 78/78/78 77/77/77
f 80/80/80 79/79/79 77/77/77
f 83/83/83 82/82/82 81/81/81
f 84/84/84 83/83/83 81/81/81
f 87/87/87 86/86/86 85/85/85
f 88/88/88 86/86/86 87/87/87
f 89/89/89 86/86/86 88/88/88
f 90/90/90 86/86/86 89/89/89
f 92/92/92 91/91/91 90/90/90
f 93/93/93 91/91/91 92/92/92
f 96/96/96 95/95/95 94/94/94
f 94/94/94 95/95/95 97/97/97
f 97/97/97 95/95/95 98/98/98
f 98/98/98 95/95/95 99/99/99
f 102/102/102 101/101/101 100/100/100
f 103/103/103 101/101/101 102/102/102
f 106/106/106 105/105/105 104/104/104
f 107/107/107 106/106/106 104/104/104
f 110/110/110 109/109/109 108/108/108
f 111/111/111 110/110/110 108/108/108
f 114/114/114 113/113/113 112/112/112
f 115/115/115 114/114/114 112/112/112
f 118/118/118 117/117/117 116/116/116
f 119/119/119 118/118/118 116/116/116
f 122/122/122 121/121/121 120/120/120
f 123/123/123 122/122/122 120/120/120
f 126/126/126 125/125/125 124/124/124
f 127/127/127 126/126/126 124/124/124
f 130/130/130 129/129/129 128/128/128
f 131/131/131 130/130/130 128/128/128
f 134/134/134 133/133/133 132/132/132
f 135/135/135 134/134/134 132/132/132
f 138/138/138 137/137/137 136/136/136
f 139/139/139 138/138/138 136/136/136
f 142/142/142 141/141/141 140/140/140
f 143/143/143 142/142/142 140/140/140
