g SM_Bld_Concrete_Floor_01
v 4.999999 0.06437999 -4.577637E-07
v 0.05126772 0 -4.577637E-07
v 4.870566 0.5 -4.577637E-07
v 0.1616535 0.5 -4.577637E-07
v 4.999999 0.425615 5
v 6.341934E-07 0.5 4.903752
v 4.999999 0.04018928 5
v 6.341934E-07 0.08992963 5
v 6.341934E-07 0.4529362 -4.577637E-07
v 6.341934E-07 0.5 0.3947468
v 6.341934E-07 0.04242525 -4.577637E-07
v 6.341934E-07 0 0.1129756
v 4.943754 0 5
v 4.999999 0 4.892205
v 4.683107 0 1.525879E-07
v 4.999999 0 0.1295155
v 6.341934E-07 0 4.862134
v 0.2745807 0 5
v 6.341934E-07 0.3777464 5
v 0.143382 0.5 5
v 4.211895 0.5 -4.577637E-07
v 3.743886 0.5 -4.577637E-07
v 3.997863 0.5 0.06806595
v 4.015313 0.4602692 -4.577637E-07
v 1.313309 0.5000001 5
v 0.7521259 0.5 5
v 1.046291 0.5 4.919631
v 1.046509 0.4520503 5
v 6.341934E-07 0.1908142 -4.577637E-07
v 6.341934E-07 0.3575404 -4.577637E-07
v 0.06842837 0.2674437 -4.577637E-07
v 6.341934E-07 0.2786655 0.0848793
v 4.999999 0.2805266 5
v 4.999999 0.1090814 5
v 4.999999 0.1944807 4.904003
v 4.957758 0.1998776 5
v 4.999999 0.5 4.756641
v 4.873898 0.5000001 5
v 4.999999 0.5 0.1972334
v 4.999999 0.434954 -4.577637E-07
v 0.1616535 0.5 -4.577637E-07
v 6.341934E-07 0.3777464 5
v 6.341934E-07 0.4529362 -4.577637E-07
v 6.341934E-07 0.5 0.3947468
v 4.999999 0 4.892205
v 4.943754 0 5
v 4.999999 0 0.1295155
v 4.999999 0 4.892205
v 4.999999 0.04018928 5
v 4.999999 0.06437999 -4.577637E-07
v 4.999999 0 0.1295155
v 4.999999 0.06437999 -4.577637E-07
v 4.683107 0 1.525879E-07
v 6.341934E-07 0.08992963 5
v 0.2745807 0 5
v 6.341934E-07 0.3777464 5
v 6.341934E-07 0.5 4.903752
v 0.143382 0.5 5
v 4.211895 0.5 -4.577637E-07
v 3.997863 0.5 0.06806595
v 4.015313 0.4602692 -4.577637E-07
v 3.997863 0.5 0.06806595
v 3.743886 0.5 -4.577637E-07
v 4.015313 0.4602692 -4.577637E-07
v 1.046509 0.4520503 5
v 0.7521259 0.5 5
v 1.046291 0.5 4.919631
v 1.046509 0.4520503 5
v 1.046291 0.5 4.919631
v 6.341934E-07 0.2786655 0.0848793
v 0.06842837 0.2674437 -4.577637E-07
v 6.341934E-07 0.3575404 -4.577637E-07
v 6.341934E-07 0.2786655 0.0848793
v 4.999999 0.1090814 5
v 4.999999 0.1944807 4.904003
v 4.957758 0.1998776 5
v 4.999999 0.1944807 4.904003
v 4.999999 0.434954 -4.577637E-07
v 4.999999 0.2805266 5
v 0.06842837 0.2674437 -4.577637E-07
v 3.743886 0.5 -4.577637E-07
v 0.1616535 0.5 -4.577637E-07
v 6.341934E-07 0.4529362 -4.577637E-07
v 6.341934E-07 0.3575404 -4.577637E-07
v 0.05126772 0 -4.577637E-07
v 4.683107 0 1.525879E-07
v 6.341934E-07 0.1908142 -4.577637E-07
v 6.341934E-07 0.04242525 -4.577637E-07
v 6.341934E-07 0.08992963 5
v 6.341934E-07 0 4.862134
v 6.341934E-07 0 0.1129756
v 6.341934E-07 0.04242525 -4.577637E-07
v 6.341934E-07 0.1908142 -4.577637E-07
v 4.957758 0.1998776 5
v 4.999999 0.1090814 5
v 4.999999 0.04018928 5
v 4.943754 0 5
v 0.2745807 0 5
v 6.341934E-07 0.5 0.3947468
v 6.341934E-07 0.5 4.903752
v 0.143382 0.5 5
v 0.7521259 0.5 5
v 4.999999 0.425615 5
v 4.999999 0.5 4.756641
v 4.873898 0.5000001 5
v 4.999999 0.425615 5
v 4.999999 0.2805266 5
v 1.313309 0.5000001 5
v 4.211895 0.5 -4.577637E-07
v 4.870566 0.5 -4.577637E-07
v 4.999999 0.5 0.1972334
v 4.999999 0.5 4.756641
v 4.873898 0.5000001 5
v 1.313309 0.5000001 5
v 4.999999 0.5 0.1972334
v 4.870566 0.5 -4.577637E-07
v 4.999999 0.434954 -4.577637E-07
v 0.05126772 0 -4.577637E-07
v 6.341934E-07 0 0.1129756
v 6.341934E-07 0 4.862134
vt 0.05792236 0.3271484
vt 0.05819702 0.354248
vt 0.05789185 0.326416
vt 0.01617432 0.9960938
vt 0.05764771 0.3266602
vt 0.05691528 0.326416
vt 0.05895996 0.3540039
vt 0.05691528 0.3269043
vt 0.05813599 0.3537598
vt 0.0581665 0.3537598
vt 0.0581665 0.354248
vt 0.05819702 0.354248
vt 0.05895996 0.3540039
vt 0.05899048 0.3540039
vt 0.05776978 0.3271484
vt 0.05786133 0.3271484
vt 0.05828857 0.3540039
vt 0.05706787 0.3271484
vt 0.05691528 0.3266602
vt 0.05697632 0.326416
vt 0.05780029 0.326416
vt 0.2260742 0.9960938
vt 0.2409668 0.9916992
vt 0.05773926 0.326416
vt 0.05856323 0.3537598
vt 0.05703735 0.326416
vt 0.06799316 0.7075195
vt 0.05712891 0.3266602
vt 0.0581665 0.354248
vt 0.05706787 0.3269043
vt 0.05819702 0.354248
vt 0.05706787 0.3269043
vt 0.05899048 0.3540039
vt 0.05764771 0.3269043
vt 0.05767822 0.3269043
vt 0.05895996 0.3540039
vt 0.05767822 0.3266602
vt 0.05947876 0.3537598
vt 0.05786133 0.3266602
vt 0.05789185 0.3266602
vt 0.0581665 0.3537598
vt 0.05691528 0.3266602
vt 0.05706787 0.3266602
vt 0.05700684 0.326416
vt 0.05767822 0.3271484
vt 0.05764771 0.3271484
vt 0.05786133 0.3271484
vt 0.05767822 0.3271484
vt 0.05764771 0.3269043
vt 0.05792236 0.3271484
vt 0.05905151 0.354248
vt 0.05908203 0.354248
vt 0.05889893 0.354248
vt 0.05831909 0.3540039
vt 0.05841064 0.3540039
vt 0.05828857 0.3537598
vt 0.05825806 0.3537598
vt 0.05834961 0.3537598
vt 0.05899048 0.3537598
vt 0.05889893 0.3537598
vt 0.05889893 0.3537598
vt 0.05889893 0.3537598
vt 0.05874634 0.3537598
vt 0.05889893 0.3537598
vt 0.05847168 0.3537598
vt 0.05841064 0.3537598
vt 0.05847168 0.3537598
vt 0.05847168 0.3537598
vt 0.05847168 0.3537598
vt 0.0581665 0.354248
vt 0.05819702 0.354248
vt 0.0581665 0.354248
vt 0.0581665 0.354248
vt 0.05895996 0.3540039
vt 0.05899048 0.3540039
vt 0.05895996 0.3540039
vt 0.05899048 0.3540039
vt 0.05789185 0.3266602
vt 0.05764771 0.3269043
vt 0.05709839 0.3269043
vt 0.05761719 0.326416
vt 0.05712891 0.326416
vt 0.05706787 0.3266602
vt 0.05706787 0.3269043
vt 0.05709839 0.3271484
vt 0.05776978 0.3271484
vt 0.05706787 0.3271484
vt 0.05706787 0.3271484
vt 0.05691528 0.3269043
vt 0.05691528 0.3271484
vt 0.05706787 0.3271484
vt 0.05706787 0.3271484
vt 0.05706787 0.3271484
vt 0.05764771 0.3269043
vt 0.05764771 0.3269043
vt 0.05764771 0.3269043
vt 0.05764771 0.3271484
vt 0.05706787 0.3271484
vt 0.006698608 0.9726563
vt 0.006698608 0.7084961
vt 0.01509857 0.7026367
vt 0.05078125 0.7026367
vt 0.05941772 0.3540039
vt 0.05926514 0.3537598
vt 0.05761719 0.3266602
vt 0.05764771 0.3266602
vt 0.05764771 0.3269043
vt 0.05722046 0.326416
vt 0.253418 0.9960938
vt 0.2919922 0.9960938
vt 0.2995605 0.984375
vt 0.2995605 0.7172852
vt 0.2922363 0.7026367
vt 0.0836792 0.7026367
vt 0.05856323 0.3535156
vt 0.05853271 0.3535156
vt 0.0585022 0.3537598
vt 0.05709839 0.3271484
vt 0.05706787 0.3271484
vt 0.05691528 0.3271484
vn 1 0 0
vn -0.6123047 -0.7402344 -0.277832
vn 0 0 -1
vn 0 1 0
vn 1 0 0
vn -1 0 0
vn 0.5561523 -0.7788086 0.2902832
vn 0 0 1
vn -0.277832 0.9541016 -0.1137085
vn -0.277832 0.9541016 -0.1137085
vn -0.6123047 -0.7402344 -0.277832
vn -0.6123047 -0.7402344 -0.277832
vn 0.5561523 -0.7788086 0.2902832
vn 0.5561523 -0.7788086 0.2902832
vn 0 -1 0
vn 0 -1 0
vn -0.2646484 -0.8076172 0.5268555
vn 0 -1 0
vn 0 0 1
vn 0 0 1
vn 0 0 -1
vn 0 1 0
vn 0 1 0
vn 0 0 -1
vn -0.1524658 0.8486328 0.5068359
vn 0 0 1
vn 0 1 0
vn 0 0 1
vn -0.6142578 0.5483398 -0.5673828
vn -1 0 0
vn -0.6142578 0.5483398 -0.5673828
vn -1 0 0
vn 0.8178711 -0.4284668 0.3840332
vn 1 0 0
vn 1 0 0
vn 0.8491211 0.3950195 0.3513184
vn 1 0 0
vn 0.4914551 0.8330078 0.2546387
vn 1 0 0
vn 0 0 -1
vn -0.277832 0.9541016 -0.1137085
vn -1 0 0
vn -1 0 0
vn -1 0 0
vn 0 -1 0
vn 0 -1 0
vn 1 0 0
vn 1 0 0
vn 1 0 0
vn 0 0 -1
vn 0.1789551 -0.8808594 -0.4379883
vn 0.1789551 -0.8808594 -0.4379883
vn 0.1789551 -0.8808594 -0.4379883
vn -0.2646484 -0.8076172 0.5268555
vn -0.2646484 -0.8076172 0.5268555
vn -0.4665527 0.5473633 0.6948242
vn -0.4665527 0.5473633 0.6948242
vn -0.4665527 0.5473633 0.6948242
vn -0.1680908 0.8320313 -0.5288086
vn -0.1680908 0.8320313 -0.5288086
vn -0.1680908 0.8320313 -0.5288086
vn 0.1274414 0.8706055 -0.4753418
vn 0.1274414 0.8706055 -0.4753418
vn 0.1274414 0.8706055 -0.4753418
vn 0.1385498 0.8505859 0.5073242
vn 0.1385498 0.8505859 0.5073242
vn 0.1385498 0.8505859 0.5073242
vn -0.1524658 0.8486328 0.5068359
vn -0.1524658 0.8486328 0.5068359
vn -0.6142578 0.5483398 -0.5673828
vn -0.6943359 -0.5273438 -0.4899902
vn -0.6943359 -0.5273438 -0.4899902
vn -0.6943359 -0.5273438 -0.4899902
vn 0.8491211 0.3950195 0.3513184
vn 0.8491211 0.3950195 0.3513184
vn 0.8178711 -0.4284668 0.3840332
vn 0.8178711 -0.4284668 0.3840332
vn 1 0 0
vn 1 0 0
vn 0 0 -1
vn 0 0 -1
vn 0 0 -1
vn 0 0 -1
vn 0 0 -1
vn 0 0 -1
vn 0 0 -1
vn 0 0 -1
vn 0 0 -1
vn -1 0 0
vn -1 0 0
vn -1 0 0
vn -1 0 0
vn -1 0 0
vn 0 0 1
vn 0 0 1
vn 0 0 1
vn 0 0 1
vn 0 0 1
vn 0 1 0
vn 0 1 0
vn 0 1 0
vn 0 1 0
vn 0.4914551 0.8330078 0.2546387
vn 0.4914551 0.8330078 0.2546387
vn 0 0 1
vn 0 0 1
vn 0 0 1
vn 0 0 1
vn 0 1 0
vn 0 1 0
vn 0 1 0
vn 0 1 0
vn 0 1 0
vn 0 1 0
vn 0.4306641 0.8569336 -0.2827148
vn 0.4306641 0.8569336 -0.2827148
vn 0.4306641 0.8569336 -0.2827148
vn 0 -1 0
vn 0 -1 0
vn 0 -1 0
g SM_Bld_Concrete_Floor_01_0
f 13/13/13 14/14/14 7/7/7
f 12/12/12 11/11/11 2/2/2
f 10/10/10 41/41/41 9/9/9
f 53/53/53 52/52/52 51/51/51
f 55/55/55 54/54/54 17/17/17
f 58/58/58 57/57/57 56/56/56
f 61/61/61 60/60/60 59/59/59
f 64/64/64 63/63/63 62/62/62
f 67/67/67 66/66/66 65/65/65
f 69/69/69 68/68/68 25/25/25
f 70/70/70 31/31/31 29/29/29
f 73/73/73 72/72/72 71/71/71
f 75/75/75 36/36/36 74/74/74
f 77/77/77 33/33/33 76/76/76
f 104/104/104 38/38/38 103/103/103
f 117/117/117 116/116/116 115/115/115
f 20/20/20 19/19/19 8/8/8
f 26/26/26 20/20/20 8/8/8
f 8/8/8 28/28/28 26/26/26
f 28/28/28 8/8/8 94/94/94
f 8/8/8 98/98/98 94/94/94
f 94/94/94 98/98/98 97/97/97
f 94/94/94 97/97/97 96/96/96
f 96/96/96 95/95/95 94/94/94
f 105/105/105 28/28/28 94/94/94
f 105/105/105 108/108/108 28/28/28
f 105/105/105 94/94/94 107/107/107
f 107/107/107 106/106/106 105/105/105
f 6/6/6 44/44/44 43/43/43
f 42/42/42 6/6/6 43/43/43
f 42/42/42 43/43/43 30/30/30
f 30/30/30 32/32/32 42/42/42
f 42/42/42 32/32/32 93/93/93
f 89/89/89 42/42/42 93/93/93
f 89/89/89 93/93/93 92/92/92
f 89/89/89 92/92/92 91/91/91
f 91/91/91 90/90/90 89/89/89
f 45/45/45 46/46/46 18/18/18
f 16/16/16 45/45/45 18/18/18
f 18/18/18 15/15/15 16/16/16
f 15/15/15 18/18/18 119/119/119
f 119/119/119 118/118/118 15/15/15
f 18/18/18 120/120/120 119/119/119
f 48/48/48 47/47/47 1/1/1
f 1/1/1 49/49/49 48/48/48
f 1/1/1 34/34/34 49/49/49
f 1/1/1 35/35/35 34/34/34
f 1/1/1 78/78/78 35/35/35
f 79/79/79 35/35/35 78/78/78
f 78/78/78 5/5/5 79/79/79
f 78/78/78 37/37/37 5/5/5
f 78/78/78 39/39/39 37/37/37
f 24/24/24 21/21/21 3/3/3
f 24/24/24 3/3/3 40/40/40
f 40/40/40 50/50/50 24/24/24
f 80/80/80 24/24/24 50/50/50
f 86/86/86 80/80/80 50/50/50
f 81/81/81 24/24/24 80/80/80
f 80/80/80 82/82/82 81/81/81
f 80/80/80 83/83/83 82/82/82
f 80/80/80 84/84/84 83/83/83
f 80/80/80 86/86/86 85/85/85
f 85/85/85 87/87/87 80/80/80
f 85/85/85 88/88/88 87/87/87
f 101/101/101 102/102/102 27/27/27
f 100/100/100 101/101/101 27/27/27
f 99/99/99 100/100/100 27/27/27
f 27/27/27 4/4/4 99/99/99
f 22/22/22 4/4/4 27/27/27
f 23/23/23 22/22/22 27/27/27
f 112/112/112 23/23/23 27/27/27
f 27/27/27 113/113/113 112/112/112
f 27/27/27 114/114/114 113/113/113
f 23/23/23 112/112/112 111/111/111
f 23/23/23 111/111/111 110/110/110
f 110/110/110 109/109/109 23/23/23
