g SM_Bld_House_InternalWall_Garage_Door_02
v 1.907349E-08 2.272401 -0.1146413
v -1.050041 2.272401 -0.1146412
v 1.907349E-08 1.192093E-09 -0.1146413
v -1.050041 5.722046E-08 -0.1146412
v 1.907349E-08 1.192093E-09 -0.1146413
v -1.050041 2.272401 -0.1146412
v 1.907349E-08 1.192093E-09 -0.01464116
v -1.050041 5.722046E-08 -0.0146412
v 1.716614E-07 2.272401 -0.01464116
v -1.050041 2.272401 -0.0146412
v 1.716614E-07 2.272401 -0.01464116
v -1.050041 5.722046E-08 -0.0146412
v -1.050041 2.272401 -0.1146412
v 1.907349E-08 2.272401 -0.1146413
v 1.716614E-07 2.272401 -0.01464116
v -1.050041 2.272401 -0.0146412
v -0.9661828 1.114035 -0.1559132
v -0.9523956 1.100249 -0.1834142
v -0.9155096 1.115527 -0.1834142
v -0.9155096 1.135024 -0.1559132
v -0.9155096 1.135024 -0.1559132
v -0.9155096 1.115527 -0.1834142
v -0.8786237 1.100249 -0.1834142
v -0.8648367 1.114035 -0.1559132
v -0.8648367 1.114035 -0.1559132
v -0.8786237 1.100249 -0.1834142
v -0.8633459 1.063363 -0.1834142
v -0.8438489 1.063363 -0.1559132
v -0.8438489 1.063363 -0.1559132
v -0.8633459 1.063363 -0.1834142
v -0.8786237 1.026477 -0.1834142
v -0.8648367 1.012691 -0.1559132
v -0.8648367 1.012691 -0.1559132
v -0.8786237 1.026477 -0.1834142
v -0.9155096 1.011199 -0.1834142
v -0.9155096 0.9917023 -0.1559132
v -0.9155096 0.9917023 -0.1559132
v -0.9155096 1.011199 -0.1834142
v -0.9523956 1.026477 -0.1834142
v -0.9661828 1.012691 -0.1559132
v -0.9661828 1.012691 -0.1559132
v -0.9523956 1.026477 -0.1834142
v -0.9676736 1.063363 -0.1834142
v -0.9871707 1.063363 -0.1559132
v -0.9871707 1.063363 -0.1559132
v -0.9676736 1.063363 -0.1834142
v -0.9523956 1.100249 -0.1834142
v -0.9661828 1.114035 -0.1559132
v -0.9323309 1.080184 -0.1012352
v -0.9661828 1.114035 -0.1559132
v -0.9155096 1.135024 -0.1559132
v -0.9155096 1.087152 -0.1012352
v -0.9155096 1.087152 -0.1012352
v -0.9155096 1.135024 -0.1559132
v -0.8648367 1.114035 -0.1559132
v -0.8986886 1.080184 -0.1012352
v -0.8986886 1.080184 -0.1012352
v -0.8648367 1.114035 -0.1559132
v -0.8438489 1.063363 -0.1559132
v -0.8917218 1.063363 -0.1012352
v -0.8917218 1.063363 -0.1012352
v -0.8438489 1.063363 -0.1559132
v -0.8648367 1.012691 -0.1559132
v -0.8986886 1.046542 -0.1012352
v -0.8986886 1.046542 -0.1012352
v -0.8648367 1.012691 -0.1559132
v -0.9155096 0.9917023 -0.1559132
v -0.9155096 1.039575 -0.1012352
v -0.9155096 1.039575 -0.1012352
v -0.9155096 0.9917023 -0.1559132
v -0.9661828 1.012691 -0.1559132
v -0.9323309 1.046542 -0.1012352
v -0.9323309 1.046542 -0.1012352
v -0.9661828 1.012691 -0.1559132
v -0.9871707 1.063363 -0.1559132
v -0.9392978 1.063363 -0.1012352
v -0.9392978 1.063363 -0.1012352
v -0.9871707 1.063363 -0.1559132
v -0.9661828 1.114035 -0.1559132
v -0.9323309 1.080184 -0.1012352
v -1.050041 5.722046E-08 -0.1146412
v -1.050041 5.722046E-08 -0.0146412
v 1.907349E-08 1.192093E-09 -0.01464116
v 1.907349E-08 1.192093E-09 -0.1146413
v 1.716614E-07 2.272401 -0.01464116
v 1.907349E-08 2.272401 -0.1146413
v 1.907349E-08 1.192093E-09 -0.1146413
v 1.907349E-08 1.192093E-09 -0.01464116
v -0.9661828 1.114035 0.02663079
v -0.9155096 1.135024 0.02663079
v -0.9155096 1.115527 0.05413179
v -0.9523956 1.100249 0.05413179
v -0.9155096 1.135024 0.02663079
v -0.8648366 1.114035 0.02663079
v -0.8786235 1.100249 0.05413179
v -0.9155096 1.115527 0.05413179
v -0.8648366 1.114035 0.02663079
v -0.8438487 1.063363 0.02663079
v -0.8633458 1.063363 0.05413179
v -0.8786235 1.100249 0.05413179
v -0.8438487 1.063363 0.02663079
v -0.8648366 1.012691 0.02663079
v -0.8786235 1.026477 0.05413179
v -0.8633458 1.063363 0.05413179
v -0.8648366 1.012691 0.02663079
v -0.9155096 0.9917023 0.02663079
v -0.9155096 1.011199 0.05413179
v -0.8786235 1.026477 0.05413179
v -0.9155096 0.9917023 0.02663079
v -0.9661828 1.012691 0.02663079
v -0.9523956 1.026477 0.05413179
v -0.9155096 1.011199 0.05413179
v -0.9661828 1.012691 0.02663079
v -0.9871707 1.063363 0.02663079
v -0.9676736 1.063363 0.05413179
v -0.9523956 1.026477 0.05413179
v -0.9871707 1.063363 0.02663079
v -0.9661828 1.114035 0.02663079
v -0.9523956 1.100249 0.05413179
v -0.9676736 1.063363 0.05413179
v -0.9323309 1.080184 -0.02804719
v -0.9155096 1.087152 -0.02804719
v -0.9155096 1.135024 0.02663079
v -0.9661828 1.114035 0.02663079
v -0.9155096 1.087152 -0.02804719
v -0.8986886 1.080184 -0.02804719
v -0.8648366 1.114035 0.02663079
v -0.9155096 1.135024 0.02663079
v -0.8986886 1.080184 -0.02804719
v -0.8917218 1.063363 -0.02804719
v -0.8438487 1.063363 0.02663079
v -0.8648366 1.114035 0.02663079
v -0.8917218 1.063363 -0.02804719
v -0.8986886 1.046542 -0.02804719
v -0.8648366 1.012691 0.02663079
v -0.8438487 1.063363 0.02663079
v -0.8986886 1.046542 -0.02804719
v -0.9155096 1.039575 -0.02804719
v -0.9155096 0.9917023 0.02663079
v -0.8648366 1.012691 0.02663079
v -0.9155096 1.039575 -0.02804719
v -0.9323309 1.046542 -0.02804719
v -0.9661828 1.012691 0.02663079
v -0.9155096 0.9917023 0.02663079
v -0.9323309 1.046542 -0.02804719
v -0.9392978 1.063363 -0.02804719
v -0.9871707 1.063363 0.02663079
v -0.9661828 1.012691 0.02663079
v -0.9392978 1.063363 -0.02804719
v -0.9323309 1.080184 -0.02804719
v -0.9661828 1.114035 0.02663079
v -0.9871707 1.063363 0.02663079
v -1.050041 5.722046E-08 -0.0146412
v -1.050041 5.722046E-08 -0.1146412
v -1.050041 2.272401 -0.1146412
v -1.050041 2.272401 -0.0146412
v -0.9523956 1.100249 -0.1834142
v -0.9155096 1.063363 -0.1834142
v -0.9155096 1.115527 -0.1834142
v -0.9676736 1.063363 -0.1834142
v -0.8786237 1.100249 -0.1834142
v -0.9523956 1.026477 -0.1834142
v -0.8633459 1.063363 -0.1834142
v -0.9155096 1.011199 -0.1834142
v -0.8786237 1.026477 -0.1834142
v -0.9523956 1.100249 0.05413179
v -0.9155096 1.115527 0.05413179
v -0.9155096 1.063363 0.05413179
v -0.9676736 1.063363 0.05413179
v -0.8786235 1.100249 0.05413179
v -0.9523956 1.026477 0.05413179
v -0.8633458 1.063363 0.05413179
v -0.9155096 1.011199 0.05413179
v -0.8786235 1.026477 0.05413179
vt 0.05904354 0.376844
vt 0.05863889 0.3762365
vt 0.05901029 0.3769202
vt 0.05863889 0.3762365
vt 0.05863916 0.3762365
vt 0.05863889 0.3762365
vt 0.05901029 0.3769202
vt 0.05863889 0.3762365
vt 0.05904354 0.376844
vt 0.05863889 0.3762365
vt 0.05904354 0.376844
vt 0.05863889 0.3762365
vt 0.05951447 0.378059
vt 0.05951447 0.378059
vt 0.05951447 0.3783968
vt 0.05985228 0.3783968
vt 0.05866005 0.3764141
vt 0.05866005 0.3764141
vt 0.05866005 0.3764141
vt 0.05866005 0.3764141
vt 0.05866005 0.3764141
vt 0.05866005 0.3764141
vt 0.05866005 0.3764141
vt 0.05866005 0.3764141
vt 0.05866005 0.3764141
vt 0.05866005 0.3764141
vt 0.05866005 0.3764141
vt 0.05866005 0.3764141
vt 0.05866005 0.3764141
vt 0.05866005 0.3764141
vt 0.05866005 0.3764141
vt 0.05866005 0.3764141
vt 0.05866005 0.3764141
vt 0.05866005 0.3764141
vt 0.05866005 0.3764141
vt 0.05866005 0.3764141
vt 0.05866005 0.3764141
vt 0.05866005 0.3764141
vt 0.05866005 0.3764141
vt 0.05866005 0.3764141
vt 0.05866005 0.3764141
vt 0.05866005 0.3764141
vt 0.05866005 0.3764141
vt 0.05866005 0.3764141
vt 0.05866005 0.3764141
vt 0.05866005 0.3764141
vt 0.05866005 0.3764141
vt 0.05866005 0.3764141
vt 0.05866005 0.3764141
vt 0.05866005 0.3764141
vt 0.05866005 0.3764141
vt 0.05866005 0.3764141
vt 0.05866005 0.3764141
vt 0.05866005 0.3764141
vt 0.05866005 0.3764141
vt 0.05866005 0.3764141
vt 0.05866005 0.3764141
vt 0.05866005 0.3764141
vt 0.05866005 0.3764141
vt 0.05866005 0.3764141
vt 0.05866005 0.3764141
vt 0.05866005 0.3764141
vt 0.05866005 0.3764141
vt 0.05866005 0.3764141
vt 0.05866005 0.3764141
vt 0.05866005 0.3764141
vt 0.05866005 0.3764141
vt 0.05866005 0.3764141
vt 0.05866005 0.3764141
vt 0.05866005 0.3764141
vt 0.05866005 0.3764141
vt 0.05866005 0.3764141
vt 0.05866005 0.3764141
vt 0.05866005 0.3764141
vt 0.05866005 0.3764141
vt 0.05866005 0.3764141
vt 0.05866005 0.3764141
vt 0.05866005 0.3764141
vt 0.05866005 0.3764141
vt 0.05866005 0.3764141
vt 0.05841871 0.3752774
vt 0.05841871 0.3776262
vt 0.06076743 0.3776262
vt 0.06076743 0.3752774
vt 0.05985228 0.3783968
vt 0.05904354 0.376844
vt 0.05959892 0.378059
vt 0.05959892 0.3783968
vt 0.05866005 0.3764141
vt 0.05866005 0.3764141
vt 0.05866005 0.3764141
vt 0.05866005 0.3764141
vt 0.05866005 0.3764141
vt 0.05866005 0.3764141
vt 0.05866005 0.3764141
vt 0.05866005 0.3764141
vt 0.05866005 0.3764141
vt 0.05866005 0.3764141
vt 0.05866005 0.3764141
vt 0.05866005 0.3764141
vt 0.05866005 0.3764141
vt 0.05866005 0.3764141
vt 0.05866005 0.3764141
vt 0.05866005 0.3764141
vt 0.05866005 0.3764141
vt 0.05866005 0.3764141
vt 0.05866005 0.3764141
vt 0.05866005 0.3764141
vt 0.05866005 0.3764141
vt 0.05866005 0.3764141
vt 0.05866005 0.3764141
vt 0.05866005 0.3764141
vt 0.05866005 0.3764141
vt 0.05866005 0.3764141
vt 0.05866005 0.3764141
vt 0.05866005 0.3764141
vt 0.05866005 0.3764141
vt 0.05866005 0.3764141
vt 0.05866005 0.3764141
vt 0.05866005 0.3764141
vt 0.05866005 0.3764141
vt 0.05866005 0.3764141
vt 0.05866005 0.3764141
vt 0.05866005 0.3764141
vt 0.05866005 0.3764141
vt 0.05866005 0.3764141
vt 0.05866005 0.3764141
vt 0.05866005 0.3764141
vt 0.05866005 0.3764141
vt 0.05866005 0.3764141
vt 0.05866005 0.3764141
vt 0.05866005 0.3764141
vt 0.05866005 0.3764141
vt 0.05866005 0.3764141
vt 0.05866005 0.3764141
vt 0.05866005 0.3764141
vt 0.05866005 0.3764141
vt 0.05866005 0.3764141
vt 0.05866005 0.3764141
vt 0.05866005 0.3764141
vt 0.05866005 0.3764141
vt 0.05866005 0.3764141
vt 0.05866005 0.3764141
vt 0.05866005 0.3764141
vt 0.05866005 0.3764141
vt 0.05866005 0.3764141
vt 0.05866005 0.3764141
vt 0.05866005 0.3764141
vt 0.05866005 0.3764141
vt 0.05866005 0.3764141
vt 0.05866005 0.3764141
vt 0.05866005 0.3764141
vt 0.05976783 0.3783968
vt 0.05985228 0.378059
vt 0.05951447 0.378059
vt 0.05985228 0.3783968
vt 0.05866005 0.3764141
vt 0.05866005 0.3764141
vt 0.05866005 0.3764141
vt 0.05866005 0.3764141
vt 0.05866005 0.3764141
vt 0.05866005 0.3764141
vt 0.05866005 0.3764141
vt 0.05866005 0.3764141
vt 0.05866005 0.3764141
vt 0.05866005 0.3764141
vt 0.05866005 0.3764141
vt 0.05866005 0.3764141
vt 0.05866005 0.3764141
vt 0.05866005 0.3764141
vt 0.05866005 0.3764141
vt 0.05866005 0.3764141
vt 0.05866005 0.3764141
vt 0.05866005 0.3764141
vn 0 0 -1
vn 0 0 -1
vn 0 0 -1
vn 0 0 -1
vn 0 0 -1
vn 0 0 -1
vn 0 0 1
vn 0 0 1
vn 0 0 1
vn 0 0 1
vn 0 0 1
vn 0 0 1
vn 0 1 0
vn 0 1 0
vn 0 1 0
vn 0 1 0
vn -0.3201173 0.7728587 -0.5479181
vn -0.3201173 0.7728587 -0.5479181
vn -0.3201173 0.7728587 -0.5479181
vn -0.3201173 0.7728587 -0.5479181
vn 0.3201185 0.7728591 -0.5479169
vn 0.3201185 0.7728591 -0.5479169
vn 0.3201185 0.7728591 -0.5479169
vn 0.3201185 0.7728591 -0.5479169
vn 0.7728583 0.320109 -0.5479237
vn 0.7728583 0.320109 -0.5479237
vn 0.7728583 0.320109 -0.5479237
vn 0.7728583 0.320109 -0.5479237
vn 0.7728581 -0.3201097 -0.5479234
vn 0.7728581 -0.3201097 -0.5479234
vn 0.7728581 -0.3201097 -0.5479234
vn 0.7728581 -0.3201097 -0.5479234
vn 0.3201197 -0.7728587 -0.5479169
vn 0.3201197 -0.7728587 -0.5479169
vn 0.3201197 -0.7728587 -0.5479169
vn 0.3201197 -0.7728587 -0.5479169
vn -0.3201185 -0.7728583 -0.5479181
vn -0.3201185 -0.7728583 -0.5479181
vn -0.3201185 -0.7728583 -0.5479181
vn -0.3201185 -0.7728583 -0.5479181
vn -0.7728554 -0.3201113 -0.5479264
vn -0.7728554 -0.3201113 -0.5479264
vn -0.7728554 -0.3201113 -0.5479264
vn -0.7728554 -0.3201113 -0.5479264
vn -0.7728555 0.3201105 -0.5479267
vn -0.7728555 0.3201105 -0.5479267
vn -0.7728555 0.3201105 -0.5479267
vn -0.7728555 0.3201105 -0.5479267
vn -0.2975299 0.7183042 0.6288999
vn -0.2975299 0.7183042 0.6288999
vn -0.2975299 0.7183042 0.6288999
vn -0.2975299 0.7183042 0.6288999
vn 0.2975321 0.7183032 0.6288999
vn 0.2975321 0.7183032 0.6288999
vn 0.2975321 0.7183032 0.6288999
vn 0.2975321 0.7183032 0.6288999
vn 0.7183061 0.2975127 0.6289058
vn 0.7183061 0.2975127 0.6289058
vn 0.7183061 0.2975127 0.6289058
vn 0.7183061 0.2975127 0.6289058
vn 0.7183059 -0.2975136 0.6289056
vn 0.7183059 -0.2975136 0.6289056
vn 0.7183059 -0.2975136 0.6289056
vn 0.7183059 -0.2975136 0.6289056
vn 0.2975217 -0.7183036 0.6289045
vn 0.2975217 -0.7183036 0.6289045
vn 0.2975217 -0.7183036 0.6289045
vn 0.2975217 -0.7183036 0.6289045
vn -0.2975194 -0.7183045 0.6289045
vn -0.2975194 -0.7183045 0.6289045
vn -0.2975194 -0.7183045 0.6289045
vn -0.2975194 -0.7183045 0.6289045
vn -0.7183059 -0.2975136 0.6289056
vn -0.7183059 -0.2975136 0.6289056
vn -0.7183059 -0.2975136 0.6289056
vn -0.7183059 -0.2975136 0.6289056
vn -0.7183061 0.2975127 0.6289058
vn -0.7183061 0.2975127 0.6289058
vn -0.7183061 0.2975127 0.6289058
vn -0.7183061 0.2975127 0.6289058
vn 0 -1 0
vn 0 -1 0
vn 0 -1 0
vn 0 -1 0
vn 1 0 0
vn 1 0 0
vn 1 0 0
vn 1 0 0
vn -0.3201175 0.7728592 0.5479174
vn -0.3201175 0.7728592 0.5479174
vn -0.3201175 0.7728592 0.5479174
vn -0.3201175 0.7728592 0.5479174
vn 0.3201179 0.7728599 0.5479161
vn 0.3201179 0.7728599 0.5479161
vn 0.3201179 0.7728599 0.5479161
vn 0.3201179 0.7728599 0.5479161
vn 0.7728587 0.3201091 0.5479229
vn 0.7728587 0.3201091 0.5479229
vn 0.7728587 0.3201091 0.5479229
vn 0.7728587 0.3201091 0.5479229
vn 0.7728587 -0.3201099 0.5479227
vn 0.7728587 -0.3201099 0.5479227
vn 0.7728587 -0.3201099 0.5479227
vn 0.7728587 -0.3201099 0.5479227
vn 0.320119 -0.7728595 0.5479162
vn 0.320119 -0.7728595 0.5479162
vn 0.320119 -0.7728595 0.5479162
vn 0.320119 -0.7728595 0.5479162
vn -0.3201187 -0.7728587 0.5479174
vn -0.3201187 -0.7728587 0.5479174
vn -0.3201187 -0.7728587 0.5479174
vn -0.3201187 -0.7728587 0.5479174
vn -0.7728559 -0.3201115 0.5479256
vn -0.7728559 -0.3201115 0.5479256
vn -0.7728559 -0.3201115 0.5479256
vn -0.7728559 -0.3201115 0.5479256
vn -0.7728559 0.3201107 0.5479259
vn -0.7728559 0.3201107 0.5479259
vn -0.7728559 0.3201107 0.5479259
vn -0.7728559 0.3201107 0.5479259
vn -0.2975299 0.7183042 -0.6288999
vn -0.2975299 0.7183042 -0.6288999
vn -0.2975299 0.7183042 -0.6288999
vn -0.2975299 0.7183042 -0.6288999
vn 0.2975315 0.7183033 -0.6289001
vn 0.2975315 0.7183033 -0.6289001
vn 0.2975315 0.7183033 -0.6289001
vn 0.2975315 0.7183033 -0.6289001
vn 0.7183052 0.2975123 -0.6289069
vn 0.7183052 0.2975123 -0.6289069
vn 0.7183052 0.2975123 -0.6289069
vn 0.7183052 0.2975123 -0.6289069
vn 0.718305 -0.2975132 -0.6289068
vn 0.718305 -0.2975132 -0.6289068
vn 0.718305 -0.2975132 -0.6289068
vn 0.718305 -0.2975132 -0.6289068
vn 0.2975211 -0.7183037 -0.6289047
vn 0.2975211 -0.7183037 -0.6289047
vn 0.2975211 -0.7183037 -0.6289047
vn 0.2975211 -0.7183037 -0.6289047
vn -0.2975194 -0.7183045 -0.6289045
vn -0.2975194 -0.7183045 -0.6289045
vn -0.2975194 -0.7183045 -0.6289045
vn -0.2975194 -0.7183045 -0.6289045
vn -0.7183059 -0.2975136 -0.6289056
vn -0.7183059 -0.2975136 -0.6289056
vn -0.7183059 -0.2975136 -0.6289056
vn -0.7183059 -0.2975136 -0.6289056
vn -0.7183061 0.2975127 -0.6289058
vn -0.7183061 0.2975127 -0.6289058
vn -0.7183061 0.2975127 -0.6289058
vn -0.7183061 0.2975127 -0.6289058
vn -1 0 0
vn -1 0 0
vn -1 0 0
vn -1 0 0
vn 0 0 -1
vn 0 0 -1
vn 0 0 -1
vn 0 0 -1
vn 0 0 -1
vn 0 0 -1
vn 0 0 -1
vn 0 0 -1
vn 0 0 -1
vn 0 0 1
vn 0 0 1
vn 0 0 1
vn 0 0 1
vn 0 0 1
vn 0 0 1
vn 0 0 1
vn 0 0 1
vn 0 0 1
g SM_Bld_House_InternalWall_Garage_Door_02_0
f 3/3/3 2/2/2 1/1/1
f 6/6/6 5/5/5 4/4/4
f 9/9/9 8/8/8 7/7/7
f 12/12/12 11/11/11 10/10/10
f 15/15/15 14/14/14 13/13/13
f 16/16/16 15/15/15 13/13/13
f 19/19/19 18/18/18 17/17/17
f 20/20/20 19/19/19 17/17/17
f 23/23/23 22/22/22 21/21/21
f 24/24/24 23/23/23 21/21/21
f 27/27/27 26/26/26 25/25/25
f 28/28/28 27/27/27 25/25/25
f 31/31/31 30/30/30 29/29/29
f 32/32/32 31/31/31 29/29/29
f 35/35/35 34/34/34 33/33/33
f 36/36/36 35/35/35 33/33/33
f 39/39/39 38/38/38 37/37/37
f 40/40/40 39/39/39 37/37/37
f 43/43/43 42/42/42 41/41/41
f 44/44/44 43/43/43 41/41/41
f 47/47/47 46/46/46 45/45/45
f 48/48/48 47/47/47 45/45/45
f 51/51/51 50/50/50 49/49/49
f 52/52/52 51/51/51 49/49/49
f 55/55/55 54/54/54 53/53/53
f 56/56/56 55/55/55 53/53/53
f 59/59/59 58/58/58 57/57/57
f 60/60/60 59/59/59 57/57/57
f 63/63/63 62/62/62 61/61/61
f 64/64/64 63/63/63 61/61/61
f 67/67/67 66/66/66 65/65/65
f 68/68/68 67/67/67 65/65/65
f 71/71/71 70/70/70 69/69/69
f 72/72/72 71/71/71 69/69/69
f 75/75/75 74/74/74 73/73/73
f 76/76/76 75/75/75 73/73/73
f 79/79/79 78/78/78 77/77/77
f 80/80/80 79/79/79 77/77/77
f 83/83/83 82/82/82 81/81/81
f 84/84/84 83/83/83 81/81/81
f 87/87/87 86/86/86 85/85/85
f 88/88/88 87/87/87 85/85/85
f 91/91/91 90/90/90 89/89/89
f 92/92/92 91/91/91 89/89/89
f 95/95/95 94/94/94 93/93/93
f 96/96/96 95/95/95 93/93/93
f 99/99/99 98/98/98 97/97/97
f 100/100/100 99/99/99 97/97/97
f 103/103/103 102/102/102 101/101/101
f 104/104/104 103/103/103 101/101/101
f 107/107/107 106/106/106 105/105/105
f 108/108/108 107/107/107 105/105/105
f 111/111/111 110/110/110 109/109/109
f 112/112/112 111/111/111 109/109/109
f 115/115/115 114/114/114 113/113/113
f 116/116/116 115/115/115 113/113/113
f 119/119/119 118/118/118 117/117/117
f 120/120/120 119/119/119 117/117/117
f 123/123/123 122/122/122 121/121/121
f 124/124/124 123/123/123 121/121/121
f 127/127/127 126/126/126 125/125/125
f 128/128/128 127/127/127 125/125/125
f 131/131/131 130/130/130 129/129/129
f 132/132/132 131/131/131 129/129/129
f 135/135/135 134/134/134 133/133/133
f 136/136/136 135/135/135 133/133/133
f 139/139/139 138/138/138 137/137/137
f 140/140/140 139/139/139 137/137/137
f 143/143/143 142/142/142 141/141/141
f 144/144/144 143/143/143 141/141/141
f 147/147/147 146/146/146 145/145/145
f 148/148/148 147/147/147 145/145/145
f 151/151/151 150/150/150 149/149/149
f 152/152/152 151/151/151 149/149/149
f 155/155/155 154/154/154 153/153/153
f 156/156/156 155/155/155 153/153/153
f 159/159/159 158/158/158 157/157/157
f 157/157/157 158/158/158 160/160/160
f 161/161/161 158/158/158 159/159/159
f 160/160/160 158/158/158 162/162/162
f 163/163/163 158/158/158 161/161/161
f 162/162/162 158/158/158 164/164/164
f 165/165/165 158/158/158 163/163/163
f 164/164/164 158/158/158 165/165/165
f 168/168/168 167/167/167 166/166/166
f 168/168/168 166/166/166 169/169/169
f 168/168/168 170/170/170 167/167/167
f 168/168/168 169/169/169 171/171/171
f 168/168/168 172/172/172 170/170/170
f 168/168/168 171/171/171 173/173/173
f 168/168/168 174/174/174 172/172/172
f 168/168/168 173/173/173 174/174/174
