g SM_Bld_House_Door_02
v 0.6295615 -0.108709 0.3517099
v 0.7174368 -0.1396707 0.3517099
v 0.6434308 -0.1396707 0.3410625
v 0.6434308 -0.1396707 0.3410625
v 0.6295615 -0.1396707 0.296063
v 0.6295615 -0.108709 0.3517099
v 0.6588278 -0.0301087 0.2851453
v 1.883016 -0.0301087 0.2851453
v 0.8612611 -0.05241373 0.3269155
v 0.8612611 -0.05241373 0.3269155
v 0.6295615 -0.07153631 0.3517099
v 1.883016 -0.0301087 0.2851453
v 1.91229 -0.07492758 0.3517099
v 0.719028 1.782701 0.2851453
v 0.7468405 1.973103 0.2851453
v 0.7468405 1.782701 0.2299715
v 0.7468405 1.566012 0.2851453
v 0.719028 1.782701 0.2851453
v 0.7468405 1.782701 0.2299715
v 0.8612611 -0.05241373 0.3269155
v 1.91229 -0.07492758 0.3517099
v 1.91229 -0.1396707 0.3517099
v 0.8612611 -0.05241373 0.3269155
v 1.91229 -0.1396707 0.3517099
v 0.7174368 -0.1396707 0.3517099
v 1.91229 -0.1396707 -0.01563374
v 1.91229 -0.1396707 0.3517099
v 1.91229 -0.07492758 0.3517099
v 1.91229 -0.05008432 -0.01563374
v 1.91229 -0.05008432 -0.01563374
v 0.6295615 -0.1396707 -0.01563374
v 1.91229 -0.1396707 -0.01563374
v 0.6295615 -0.05008432 -0.01563374
v 1.883016 -0.0301087 -0.01563374
v 0.6588278 -0.0301087 -0.01563374
v 0.7578573 0.0138619 -0.01563374
v 1.783994 0.0138619 -0.01563374
v 1.883016 -0.0301087 0.2851453
v 1.883016 -0.0301087 -0.01563374
v 1.91229 -0.05008432 -0.01563374
v 1.91229 -0.07492758 0.3517099
v 0.6588278 -0.0301087 -0.01563374
v 0.6588278 -0.0301087 0.2851453
v 0.6295615 -0.07153631 0.3517099
v 0.6295615 -0.05008432 -0.01563374
v 0.7517233 2.240706 0.2851453
v 1.783994 2.22736 0.2851453
v 1.783994 2.22736 -0.01563374
v 0.7578573 2.22736 -0.01563374
v 1.783994 2.22736 -0.01563374
v 1.783994 2.22736 0.2851453
v 1.795011 1.782701 0.2851453
v 1.795011 1.782701 -0.01563374
v 1.783994 0.0138619 0.2851453
v 1.783994 0.0138619 -0.01563374
v 1.783994 0.0138619 -0.01563374
v 1.783994 0.0138619 0.2851453
v 0.7578573 0.001360149 0.2851453
v 0.7578573 0.0138619 -0.01563374
v 0.7468405 1.973103 0.2851453
v 0.7517233 2.240706 0.2851453
v 0.7578573 2.22736 -0.01563374
v 0.7468405 1.782701 0.2299715
v 0.7468405 1.782701 -0.01563374
v 0.7468405 1.566012 0.2851453
v 0.7578573 0.0138619 -0.01563374
v 0.7578573 0.001360149 0.2851453
v 0.8612611 -0.05241373 0.3269155
v 0.7174368 -0.1396707 0.3517099
v 0.6295615 -0.108709 0.3517099
v 0.6295615 -0.07153631 0.3517099
v 0.6434308 -0.1396707 0.3410625
v 0.7174368 -0.1396707 0.3517099
v 1.91229 -0.1396707 0.3517099
v 0.679122 -0.1396707 0.3031431
v 0.6295615 -0.1396707 0.296063
v 1.862729 -0.1396707 0.3031431
v 1.862729 -0.1396707 0.1543909
v 1.91229 -0.1396707 -0.01563374
v 0.679122 -0.1396707 0.1543909
v 0.6295615 -0.1396707 -0.01563374
v 0.6295615 -0.108709 0.3517099
v 0.6295615 -0.1396707 0.296063
v 0.6295615 -0.1396707 -0.01563374
v 0.6295615 -0.05008432 -0.01563374
v 0.6295615 -0.07153631 0.3517099
v 1.896299 1.782701 0.2851453
v 1.883016 -0.0301087 -0.01563374
v 1.883016 -0.0301087 0.2851453
v 1.896299 1.782701 -0.01563374
v 1.883016 2.308645 0.2851453
v 1.883016 2.308645 -0.01563374
v 0.6588277 2.308646 0.2851454
v 0.6588278 2.308646 -0.01563374
v 1.883016 2.308645 -0.01563374
v 1.883016 2.308645 0.2851453
v 0.6588278 -0.0301087 0.2851453
v 0.6588278 -0.0301087 -0.01563374
v 0.6455526 1.782701 -0.01563374
v 0.6455526 1.782701 0.2851453
v 0.6588278 2.308646 -0.01563374
v 0.6588277 2.308646 0.2851454
v 1.783994 2.22736 -0.01563374
v 1.883016 2.308645 -0.01563374
v 0.6588278 2.308646 -0.01563374
v 0.7578573 2.22736 -0.01563374
v 1.883016 -0.0301087 -0.01563374
v 1.795011 1.782701 -0.01563374
v 1.783994 0.0138619 -0.01563374
v 1.896299 1.782701 -0.01563374
v 1.783994 2.22736 -0.01563374
v 1.883016 2.308645 -0.01563374
v 0.6455526 1.782701 -0.01563374
v 0.6588278 -0.0301087 -0.01563374
v 0.7578573 0.0138619 -0.01563374
v 0.7468405 1.782701 -0.01563374
v 0.7578573 2.22736 -0.01563374
v 0.6588278 2.308646 -0.01563374
v 0.719028 1.782701 0.2851453
v 0.6455526 1.782701 0.2851453
v 0.6588277 2.308646 0.2851454
v 0.6588278 -0.0301087 0.2851453
v 0.7468405 1.566012 0.2851453
v 0.7578573 0.001360149 0.2851453
v 1.883016 -0.0301087 0.2851453
v 1.783994 0.0138619 0.2851453
v 1.896299 1.782701 0.2851453
v 1.795011 1.782701 0.2851453
v 1.883016 2.308645 0.2851453
v 1.783994 2.22736 0.2851453
v 0.7468405 1.973103 0.2851453
v 0.7517233 2.240706 0.2851453
vt 0.05906074 0.3271825
vt 0.05906074 0.3271825
vt 0.05906074 0.3271825
vt 0.05906074 0.3271825
vt 0.05906074 0.3271825
vt 0.05906074 0.3271825
vt 0.05906074 0.3271825
vt 0.05906074 0.3271825
vt 0.05906074 0.3271825
vt 0.05906074 0.3271825
vt 0.05906074 0.3271825
vt 0.05906074 0.3271825
vt 0.05906074 0.3271825
vt 0.05906074 0.3271825
vt 0.05906074 0.3271825
vt 0.05906074 0.3271825
vt 0.05906074 0.3271825
vt 0.05906074 0.3271825
vt 0.05906074 0.3271825
vt 0.05906074 0.3271825
vt 0.05906074 0.3271825
vt 0.05906074 0.3271825
vt 0.05906074 0.3271825
vt 0.05906074 0.3271825
vt 0.05906074 0.3271825
vt 0.05906073 0.3271825
vt 0.05906074 0.3271825
vt 0.05906074 0.3271825
vt 0.05906074 0.3271825
vt 0.05906074 0.3271825
vt 0.05906074 0.3271825
vt 0.05906074 0.3271825
vt 0.05906074 0.3271825
vt 0.05906074 0.3271825
vt 0.05906074 0.3271825
vt 0.0594414 0.3271998
vt 0.0585829 0.3271998
vt 0.05906074 0.3271825
vt 0.05906074 0.3271825
vt 0.05906074 0.3271825
vt 0.05906074 0.3271825
vt 0.05906074 0.3271825
vt 0.05906074 0.3271825
vt 0.05906074 0.3271825
vt 0.05906074 0.3271825
vt 0.05906074 0.3271825
vt 0.05906074 0.3271825
vt 0.05906074 0.3271825
vt 0.05906074 0.3271825
vt 0.05906074 0.3271825
vt 0.05906074 0.3271825
vt 0.05906074 0.3271825
vt 0.05906074 0.3271825
vt 0.05906074 0.3271825
vt 0.05906074 0.3271825
vt 0.05906074 0.3271825
vt 0.05906074 0.3271825
vt 0.05906074 0.3271825
vt 0.05906074 0.3271825
vt 0.05906074 0.3271825
vt 0.05906074 0.3271825
vt 0.05906074 0.3271825
vt 0.05906074 0.3271825
vt 0.05906074 0.3271825
vt 0.05906074 0.3271825
vt 0.05906074 0.3271825
vt 0.05906074 0.3271825
vt 0.05906074 0.3271825
vt 0.05906074 0.3271825
vt 0.05906074 0.3271825
vt 0.05906074 0.3271825
vt 0.05906074 0.3271825
vt 0.05906074 0.3271825
vt 0.05906074 0.3271825
vt 0.05906074 0.3271825
vt 0.05906074 0.3271825
vt 0.05906074 0.3271825
vt 0.05906074 0.3271825
vt 0.05906074 0.3271825
vt 0.05906074 0.3271825
vt 0.05906074 0.3271825
vt 0.05906074 0.3271825
vt 0.05906074 0.3271825
vt 0.05906074 0.3271825
vt 0.05906074 0.3271825
vt 0.05906074 0.3271825
vt 0.05906666 0.3271787
vt 0.05906248 0.3271708
vt 0.05906247 0.3271787
vt 0.05906668 0.3271709
vt 0.05906666 0.3271787
vt 0.05906665 0.3271709
vt 0.05906666 0.3271787
vt 0.05906668 0.3271709
vt 0.0590625 0.3271711
vt 0.05906247 0.3271787
vt 0.05906666 0.3271787
vt 0.05906666 0.3271709
vt 0.05906247 0.3271709
vt 0.05906247 0.3271787
vt 0.05906247 0.3271709
vt 0.05906247 0.3271787
vt 0.0594414 0.3271998
vt 0.0595167 0.3270503
vt 0.05850756 0.3270503
vt 0.0585829 0.3271998
vt 0.05850756 0.3271471
vt 0.05906074 0.3271825
vt 0.05906074 0.3271825
vt 0.05906668 0.3271709
vt 0.0594414 0.3271998
vt 0.05906665 0.3271709
vt 0.05906666 0.3271709
vt 0.05906666 0.3271709
vt 0.0594414 0.3271998
vt 0.05906074 0.3271825
vt 0.05906074 0.3271825
vt 0.05850756 0.3270503
vt 0.05906074 0.3271825
vt 0.05906074 0.3271825
vt 0.05906074 0.3271825
vt 0.05906074 0.3271825
vt 0.05906074 0.3271825
vt 0.05906074 0.3271825
vt 0.05906074 0.3271825
vt 0.05906074 0.3271825
vt 0.05906074 0.3271825
vt 0.05906074 0.3271825
vt 0.05906074 0.3271825
vt 0.05906074 0.3271825
vt 0.05906074 0.3271825
vt 0.05906074 0.3271825
vn -0.1320294 -0.3747258 0.9176867
vn -0.1320294 -0.3747258 0.9176867
vn -0.1320294 -0.3747258 0.9176867
vn -0.8445984 -0.4678574 0.2603133
vn -0.8445984 -0.4678574 0.2603133
vn -0.8445984 -0.4678574 0.2603133
vn -0.007123061 0.8673355 0.4976729
vn 0 0.8821109 0.4710419
vn -0.007123061 0.8673355 0.4976729
vn -0.004797617 0.8412741 0.5405876
vn -0.01423915 0.8517118 0.523817
vn 0.004646222 0.8304331 0.5570991
vn 0.004646222 0.8304331 0.5570991
vn 0.8854614 -0.1293419 0.4463505
vn 0.8854614 -0.1293419 0.4463505
vn 0.8854614 -0.1293419 0.4463505
vn 0.8871543 0.1138681 0.4472039
vn 0.8871543 0.1138681 0.4472039
vn 0.8871543 0.1138681 0.4472039
vn -0.02358403 0 0.9997218
vn -0.02358403 0 0.9997218
vn -0.02358403 0 0.9997218
vn 0 0.273333 0.9619194
vn 0 0.273333 0.9619194
vn 0 0.273333 0.9619194
vn 1 0 0
vn 1 0 0
vn 1 0 0
vn 1 0 0
vn 0 0 -1
vn 0 0 -1
vn 0 0 -1
vn 0 0 -1
vn 0 0 -1
vn 0 0 -1
vn 0 0 -1
vn 0 0 -1
vn 0.7285798 0.684488 0.02545177
vn 0.7285798 0.684488 0.02545177
vn 0.7285798 0.684488 0.02545177
vn 0.7285798 0.684488 0.02545177
vn -0.711314 0.7025124 0.02255616
vn -0.711314 0.7025124 0.02255616
vn -0.711314 0.7025124 0.02255616
vn -0.711314 0.7025124 0.02255616
vn -0.006481757 -0.9997345 0.02211314
vn -0.006481757 -0.9997345 0.02211314
vn -0.006481757 -0.9997345 0.02211314
vn -0.006481757 -0.9997345 0.02211314
vn -0.9996933 -0.02476837 0
vn -0.9996933 -0.02476837 0
vn -0.9999571 -0.009271214 0
vn -0.9999571 -0.009271214 0
vn -0.9999807 0.006228169 0
vn -0.9999807 0.006228169 0
vn -0.006090233 0.9997656 0.02077741
vn -0.006090233 0.9997656 0.02077741
vn -0.006090233 0.9997656 0.02077741
vn -0.006090233 0.9997656 0.02077741
vn 0.9995903 -0.0133807 0.02530161
vn 0.9996091 -0.01823937 0.02119513
vn 0.9997101 -0.01717811 0.01686907
vn 0.9998903 -0.01109827 0.009803817
vn 0.9999799 -0.006180657 0.001495768
vn 0.999989 0.004423036 0.001593192
vn 0.9999752 0.006634522 0.002389777
vn 0.9999752 0.007040908 0.0002926523
vn 0.08076762 0.1041689 0.9912747
vn 0.08076762 0.1041689 0.9912747
vn 0.08076762 0.1041689 0.9912747
vn 0.08076762 0.1041689 0.9912747
vn 0 -1 0
vn 0 -1 0
vn 0 -1 0
vn 0 -1 0
vn 0 -1 0
vn 0 -1 0
vn 0 -1 0
vn 0 -1 0
vn 0 -1 0
vn 0 -1 0
vn -1 0 0
vn -1 0 0
vn -1 0 0
vn -1 0 0
vn -1 0 0
vn 0.9999598 0.00896123 0
vn 0.9999732 -0.007326977 0
vn 0.9999732 -0.007326977 0
vn 0.9999598 0.00896123 0
vn 0.9996812 0.02524706 0
vn 0.9996812 0.02524706 0
vn 0 1 0
vn 0 1 0
vn 0 1 0
vn 0 1 0
vn -0.9999732 -0.007322769 0
vn -0.9999732 -0.007322769 0
vn -0.9999599 0.008956046 0
vn -0.9999599 0.008956046 0
vn -0.9996816 0.02523248 0
vn -0.9996816 0.02523248 0
vn 0 0 -1
vn 0 0 -1
vn 0 0 -1
vn 0 0 -1
vn 0 0 -1
vn 0 0 -1
vn 0 0 -1
vn 0 0 -1
vn 0 0 -1
vn 0 0 -1
vn 0 0 -1
vn 0 0 -1
vn 0 0 -1
vn 0 0 -1
vn 0 0 -1
vn 0 0 -1
vn 0 0 1
vn 0 0 1
vn 0 0 1
vn 0 0 1
vn 0 0 1
vn 0 0 1
vn 0 0 1
vn 0 0 1
vn 0 0 1
vn 0 0 1
vn 0 0 1
vn 0 0 1
vn 0 0 1
vn 0 0 1
g SM_Bld_House_Door_02_0
f 3/3/3 2/2/2 1/1/1
f 6/6/6 5/5/5 4/4/4
f 9/9/9 8/8/8 7/7/7
f 11/11/11 10/10/10 7/7/7
f 13/13/13 12/12/12 10/10/10
f 16/16/16 15/15/15 14/14/14
f 19/19/19 18/18/18 17/17/17
f 22/22/22 21/21/21 20/20/20
f 25/25/25 24/24/24 23/23/23
f 28/28/28 27/27/27 26/26/26
f 29/29/29 28/28/28 26/26/26
f 32/32/32 31/31/31 30/30/30
f 31/31/31 33/33/33 30/30/30
f 30/30/30 33/33/33 34/34/34
f 33/33/33 35/35/35 34/34/34
f 34/34/34 35/35/35 36/36/36
f 37/37/37 34/34/34 36/36/36
f 40/40/40 39/39/39 38/38/38
f 41/41/41 40/40/40 38/38/38
f 44/44/44 43/43/43 42/42/42
f 45/45/45 44/44/44 42/42/42
f 48/48/48 47/47/47 46/46/46
f 49/49/49 48/48/48 46/46/46
f 52/52/52 51/51/51 50/50/50
f 53/53/53 52/52/52 50/50/50
f 54/54/54 52/52/52 53/53/53
f 55/55/55 54/54/54 53/53/53
f 58/58/58 57/57/57 56/56/56
f 59/59/59 58/58/58 56/56/56
f 62/62/62 61/61/61 60/60/60
f 62/62/62 60/60/60 63/63/63
f 63/63/63 64/64/64 62/62/62
f 64/64/64 63/63/63 65/65/65
f 66/66/66 64/64/64 65/65/65
f 65/65/65 67/67/67 66/66/66
f 70/70/70 69/69/69 68/68/68
f 71/71/71 70/70/70 68/68/68
f 74/74/74 73/73/73 72/72/72
f 74/74/74 72/72/72 75/75/75
f 75/75/75 72/72/72 76/76/76
f 75/75/75 77/77/77 74/74/74
f 77/77/77 78/78/78 74/74/74
f 78/78/78 79/79/79 74/74/74
f 80/80/80 75/75/75 76/76/76
f 78/78/78 80/80/80 79/79/79
f 76/76/76 81/81/81 80/80/80
f 80/80/80 81/81/81 79/79/79
f 84/84/84 83/83/83 82/82/82
f 82/82/82 85/85/85 84/84/84
f 82/82/82 86/86/86 85/85/85
f 89/89/89 88/88/88 87/87/87
f 88/88/88 90/90/90 87/87/87
f 87/87/87 90/90/90 91/91/91
f 90/90/90 92/92/92 91/91/91
f 95/95/95 94/94/94 93/93/93
f 96/96/96 95/95/95 93/93/93
f 99/99/99 98/98/98 97/97/97
f 100/100/100 99/99/99 97/97/97
f 101/101/101 99/99/99 100/100/100
f 102/102/102 101/101/101 100/100/100
f 105/105/105 104/104/104 103/103/103
f 106/106/106 105/105/105 103/103/103
f 109/109/109 108/108/108 107/107/107
f 108/108/108 110/110/110 107/107/107
f 108/108/108 111/111/111 110/110/110
f 111/111/111 112/112/112 110/110/110
f 115/115/115 114/114/114 113/113/113
f 116/116/116 115/115/115 113/113/113
f 117/117/117 116/116/116 113/113/113
f 118/118/118 117/117/117 113/113/113
f 121/121/121 120/120/120 119/119/119
f 119/119/119 120/120/120 122/122/122
f 123/123/123 119/119/119 122/122/122
f 122/122/122 124/124/124 123/123/123
f 124/124/124 122/122/122 125/125/125
f 126/126/126 124/124/124 125/125/125
f 126/126/126 125/125/125 127/127/127
f 128/128/128 126/126/126 127/127/127
f 128/128/128 127/127/127 129/129/129
f 130/130/130 128/128/128 129/129/129
f 130/130/130 129/129/129 121/121/121
f 121/121/121 119/119/119 131/131/131
f 132/132/132 130/130/130 121/121/121
f 131/131/131 132/132/132 121/121/121
