g SM_Bld_House_Wall_01
v 0.09999999 2.8 0
v 0.09999999 0.09999999 0
v 0 2.8 0
v 0 0.09999999 0
v 0 2.8 0.2
v 0 0.09999999 0.2
v 0.09999999 2.8 0.2
v 0.09999999 0.09999999 0.2
v 0.09999999 1.607694 0
v 0 1.512996 0
v 0.09999999 1.713259 0.2
v 0 1.913921 0.2
v 0 1.238921 0.2
v 0 1.59217 0.15
v 0.02500048 1.657908 0.2
v 1.7 1.379678 0.2
v 2.4 1.379678 0.2
v 1.7 1.479678 0.2
v 2.4 1.479678 0.2
v 1.7 1.479678 0
v 2.4 1.479678 0
v 1.7 1.379678 0
v 2.4 1.379678 0
v 2.4 2.8 0.2
v 2.4 0.09999999 0.2
v 2.5 2.8 0.2
v 2.5 0.09999999 0.2
v 2.5 2.8 0
v 2.5 0.09999999 0
v 2.4 2.8 0
v 2.4 0.09999999 0
v 2.4 0.782832 0.2
v 2.5 0.658628 0
v 2.4 0.7336443 0
v 2.5 1.033782 0.2
v 2.5 0.49956 0.2
v 2.45373 0.7265697 0.2
v 2.5 0.6955186 0.15
v 0.8 2.8 0.2
v 0.8 0.09999999 0.2
v 0.9 2.8 0.2
v 0.9 0.09999999 0.2
v 0.9 2.8 0
v 0.9 0.09999999 0
v 0.8 2.8 0
v 0.8 0.09999999 0
v 0 0 0.2
v 2.5 0 0.2
v 0 0.09999999 0.2
v 2.5 0.09999999 0.2
v 0 0.09999999 0
v 2.5 0.09999999 0
v 0 0 0
v 2.5 0 0
v 0 2.8 0.2
v 2.5 2.8 0.2
v 0 2.9 0.2
v 2.5 2.9 0.2
v 0 2.9 0
v 2.5 2.9 0
v 0 2.8 0
v 2.5 2.8 0
v 0.09999999 1.379678 0.2
v 0.8 1.379678 0.2
v 0.09999999 1.479678 0.2
v 0.8 1.479678 0.2
v 0.09999999 1.479678 0
v 0.8 1.479678 0
v 0.09999999 1.379678 0
v 0.8 1.379678 0
v 1.6 2.8 0.2
v 1.6 0.09999999 0.2
v 1.7 2.8 0.2
v 1.7 0.09999999 0.2
v 1.7 2.8 0
v 1.7 0.09999999 0
v 1.6 2.8 0
v 1.6 0.09999999 0
v 0.8999999 1.443734 0.2
v 1.6 1.443734 0.2
v 0.8999999 1.543734 0.2
v 1.6 1.543734 0.2
v 0.8999999 1.543734 0
v 1.6 1.543734 0
v 0.8999999 1.443734 0
v 1.6 1.443734 0
v 1.228518 1.443734 0.1770871
v 1.288879 1.543734 0.1770871
v 1.448797 1.543734 0
v 1.388436 1.443734 0
v 0.09999999 2.8 0
v 0.09999999 1.607694 0
v 0.09999999 2.8 0.2
v 0 2.8 0
v 0.09999999 2.8 0
v 0 0.09999999 0
v 0.09999999 0.09999999 0
v 0.09999999 0.09999999 0
v 0.09999999 0.09999999 0.2
v 0 0.09999999 0.2
v 0 0.09999999 0
v 0 1.512996 0
v 0 1.59217 0.15
v 0.02500048 1.657908 0.2
v 0.09999999 1.713259 0.2
v 0.09999999 0.09999999 0.2
v 0 0.09999999 0.2
v 0 1.238921 0.2
v 0 2.8 0.2
v 0.09999999 2.8 0.2
v 0 1.913921 0.2
v 0 2.8 0
v 0 1.913921 0.2
v 0 2.8 0.2
v 0 1.59217 0.15
v 0.02500048 1.657908 0.2
v 0 1.238921 0.2
v 1.7 1.479678 0.2
v 2.4 1.479678 0.2
v 1.7 1.479678 0
v 2.4 1.479678 0
v 1.7 1.379678 0
v 1.7 1.379678 0.2
v 2.4 1.379678 0.2
v 2.4 1.379678 0
v 2.4 1.379678 0.2
v 2.4 1.479678 0.2
v 2.4 1.479678 0
v 2.4 1.379678 0
v 1.7 1.379678 0
v 1.7 1.479678 0
v 1.7 1.479678 0.2
v 1.7 1.379678 0.2
v 2.4 2.8 0
v 2.4 0.7336443 0
v 2.4 2.8 0
v 2.5 2.8 0
v 2.4 2.8 0.2
v 2.4 0.09999999 0
v 2.5 0.09999999 0
v 2.4 0.09999999 0.2
v 2.4 0.09999999 0
v 2.45373 0.7265697 0.2
v 2.5 0.09999999 0.2
v 2.4 0.09999999 0.2
v 2.4 0.782832 0.2
v 2.5 0.658628 0
v 2.5 0.09999999 0
v 2.5 0.09999999 0.2
v 2.5 0.49956 0.2
v 2.5 0.6955186 0.15
v 2.5 2.8 0
v 2.5 1.033782 0.2
v 2.5 2.8 0.2
v 2.4 2.8 0.2
v 2.5 2.8 0.2
v 2.5 1.033782 0.2
v 2.45373 0.7265697 0.2
v 2.5 0.6955186 0.15
v 2.5 0.49956 0.2
v 0.9 2.8 0.2
v 0.9 0.09999999 0.2
v 0.9 2.8 0
v 0.9 0.09999999 0
v 0.8 2.8 0
v 0.8 2.8 0.2
v 0.8 0.09999999 0.2
v 0.8 0.09999999 0
v 0.8 0.09999999 0.2
v 0.9 0.09999999 0.2
v 0.9 0.09999999 0
v 0.8 0.09999999 0
v 0.8 2.8 0
v 0.9 2.8 0
v 0.9 2.8 0.2
v 0.8 2.8 0.2
v 0 0.09999999 0.2
v 2.5 0.09999999 0.2
v 0 0.09999999 0
v 2.5 0.09999999 0
v 0 0 0
v 0 0 0.2
v 2.5 0 0.2
v 2.5 0 0
v 2.5 0 0.2
v 2.5 0.09999999 0.2
v 2.5 0.09999999 0
v 2.5 0 0
v 0 0 0
v 0 0.09999999 0
v 0 0.09999999 0.2
v 0 0 0.2
v 0 2.9 0.2
v 2.5 2.9 0.2
v 0 2.9 0
v 2.5 2.9 0
v 0 2.8 0
v 0 2.8 0.2
v 2.5 2.8 0.2
v 2.5 2.8 0
v 2.5 2.8 0.2
v 2.5 2.9 0.2
v 2.5 2.9 0
v 2.5 2.8 0
v 0 2.8 0
v 0 2.9 0
v 0 2.9 0.2
v 0 2.8 0.2
v 0.09999999 1.479678 0.2
v 0.8 1.479678 0.2
v 0.09999999 1.479678 0
v 0.8 1.479678 0
v 0.09999999 1.379678 0
v 0.09999999 1.379678 0.2
v 0.8 1.379678 0.2
v 0.8 1.379678 0
v 0.8 1.379678 0.2
v 0.8 1.479678 0.2
v 0.8 1.479678 0
v 0.8 1.379678 0
v 0.09999999 1.379678 0
v 0.09999999 1.479678 0
v 0.09999999 1.479678 0.2
v 0.09999999 1.379678 0.2
v 1.7 2.8 0.2
v 1.7 0.09999999 0.2
v 1.7 2.8 0
v 1.7 0.09999999 0
v 1.6 2.8 0
v 1.6 2.8 0.2
v 1.6 0.09999999 0.2
v 1.6 0.09999999 0
v 1.6 0.09999999 0.2
v 1.7 0.09999999 0.2
v 1.7 0.09999999 0
v 1.6 0.09999999 0
v 1.6 2.8 0
v 1.7 2.8 0
v 1.7 2.8 0.2
v 1.6 2.8 0.2
v 0.8999999 1.543734 0.2
v 1.288879 1.543734 0.1770871
v 0.8999999 1.543734 0
v 1.448797 1.543734 0
v 0.8999999 1.443734 0
v 0.8999999 1.443734 0.2
v 1.228518 1.443734 0.1770871
v 1.388436 1.443734 0
v 0.8999999 1.443734 0
v 0.8999999 1.543734 0
v 0.8999999 1.543734 0.2
v 0.8999999 1.443734 0.2
v 1.288879 1.543734 0.1770871
v 1.6 1.543734 0.2
v 1.6 1.443734 0.2
v 1.228518 1.443734 0.1770871
v 1.6 1.543734 0
v 1.6 1.543734 0.2
v 1.6 1.443734 0
v 1.6 1.543734 0
v 1.6 1.443734 0.2
v 1.6 1.443734 0
vt 0.03845215 0.3518066
vt 0.03747559 0.3518066
vt 0.03845215 0.3518066
vt 0.03747559 0.3518066
vt 0.03848267 0.3518066
vt 0.0375061 0.3518066
vt 0.03848267 0.3518066
vt 0.0375061 0.3518066
vt 0.0380249 0.3518066
vt 0.03799438 0.3518066
vt 0.03808594 0.3518066
vt 0.03826904 0.3518066
vt 0.03778076 0.3518066
vt 0.0380249 0.3518066
vt 0.03805542 0.3518066
vt 0.03845215 0.3518066
vt 0.03747559 0.3518066
vt 0.03845215 0.3518066
vt 0.03747559 0.3515625
vt 0.03848267 0.3518066
vt 0.0375061 0.3515625
vt 0.03848267 0.3518066
vt 0.0375061 0.3515625
vt 0.03845215 0.3518066
vt 0.03747559 0.3518066
vt 0.03845215 0.3518066
vt 0.03747559 0.3518066
vt 0.03848267 0.3518066
vt 0.0375061 0.3518066
vt 0.03848267 0.3518066
vt 0.0375061 0.3518066
vt 0.03771973 0.3518066
vt 0.03768921 0.3518066
vt 0.03771973 0.3518066
vt 0.03808594 0.3518066
vt 0.03759766 0.3518066
vt 0.03771973 0.3518066
vt 0.03768921 0.3518066
vt 0.03845215 0.3518066
vt 0.03747559 0.3518066
vt 0.03845215 0.3518066
vt 0.03747559 0.3518066
vt 0.03848267 0.3518066
vt 0.0375061 0.3518066
vt 0.03848267 0.3518066
vt 0.0375061 0.3518066
vt 0.03845215 0.3518066
vt 0.03747559 0.3518066
vt 0.03845215 0.3518066
vt 0.03747559 0.3515625
vt 0.03848267 0.3518066
vt 0.0375061 0.3515625
vt 0.03848267 0.3518066
vt 0.0375061 0.3515625
vt 0.03845215 0.3518066
vt 0.03747559 0.3518066
vt 0.03845215 0.3518066
vt 0.03747559 0.3518066
vt 0.03848267 0.3518066
vt 0.0375061 0.3518066
vt 0.03848267 0.3518066
vt 0.0375061 0.3518066
vt 0.03845215 0.3518066
vt 0.03747559 0.3518066
vt 0.03845215 0.3518066
vt 0.03747559 0.3515625
vt 0.03848267 0.3518066
vt 0.0375061 0.3515625
vt 0.03848267 0.3518066
vt 0.0375061 0.3515625
vt 0.03845215 0.3518066
vt 0.03747559 0.3518066
vt 0.03845215 0.3518066
vt 0.03747559 0.3518066
vt 0.03848267 0.3518066
vt 0.0375061 0.3518066
vt 0.03848267 0.3518066
vt 0.0375061 0.3518066
vt 0.03845215 0.3518066
vt 0.03747559 0.3518066
vt 0.03845215 0.3518066
vt 0.03747559 0.3515625
vt 0.03848267 0.3518066
vt 0.0375061 0.3515625
vt 0.03848267 0.3518066
vt 0.0375061 0.3515625
vt 0.03799438 0.3518066
vt 0.03790283 0.3518066
vt 0.03771973 0.3515625
vt 0.03778076 0.3518066
vt 0.03845215 0.3518066
vt 0.0380249 0.3518066
vt 0.03848267 0.3518066
vt 0.03845215 0.3518066
vt 0.03845215 0.3518066
vt 0.03747559 0.3518066
vt 0.03747559 0.3518066
vt 0.03747559 0.3518066
vt 0.0375061 0.3518066
vt 0.0375061 0.3518066
vt 0.03747559 0.3518066
vt 0.03799438 0.3518066
vt 0.0380249 0.3518066
vt 0.03805542 0.3518066
vt 0.03808594 0.3518066
vt 0.0375061 0.3518066
vt 0.0375061 0.3518066
vt 0.03778076 0.3518066
vt 0.03848267 0.3518066
vt 0.03848267 0.3518066
vt 0.03826904 0.3518066
vt 0.03845215 0.3518066
vt 0.03826904 0.3518066
vt 0.03848267 0.3518066
vt 0.0380249 0.3518066
vt 0.03805542 0.3518066
vt 0.03778076 0.3518066
vt 0.03845215 0.3518066
vt 0.03747559 0.3515625
vt 0.03848267 0.3518066
vt 0.0375061 0.3515625
vt 0.03848267 0.3518066
vt 0.03845215 0.3518066
vt 0.03747559 0.3518066
vt 0.0375061 0.3515625
vt 0.03747559 0.3518066
vt 0.03747559 0.3515625
vt 0.0375061 0.3515625
vt 0.0375061 0.3515625
vt 0.03848267 0.3518066
vt 0.03848267 0.3518066
vt 0.03845215 0.3518066
vt 0.03845215 0.3518066
vt 0.03848267 0.3518066
vt 0.03771973 0.3518066
vt 0.03848267 0.3518066
vt 0.03848267 0.3518066
vt 0.03845215 0.3518066
vt 0.0375061 0.3518066
vt 0.0375061 0.3518066
vt 0.03747559 0.3518066
vt 0.0375061 0.3518066
vt 0.03771973 0.3518066
vt 0.03747559 0.3518066
vt 0.03747559 0.3518066
vt 0.03771973 0.3518066
vt 0.03768921 0.3518066
vt 0.0375061 0.3518066
vt 0.03747559 0.3518066
vt 0.03759766 0.3518066
vt 0.03768921 0.3518066
vt 0.03848267 0.3518066
vt 0.03808594 0.3518066
vt 0.03845215 0.3518066
vt 0.03845215 0.3518066
vt 0.03845215 0.3518066
vt 0.03808594 0.3518066
vt 0.03771973 0.3518066
vt 0.03768921 0.3518066
vt 0.03759766 0.3518066
vt 0.03845215 0.3518066
vt 0.03747559 0.3518066
vt 0.03848267 0.3518066
vt 0.0375061 0.3518066
vt 0.03848267 0.3518066
vt 0.03845215 0.3518066
vt 0.03747559 0.3518066
vt 0.0375061 0.3518066
vt 0.03747559 0.3518066
vt 0.03747559 0.3518066
vt 0.0375061 0.3518066
vt 0.0375061 0.3518066
vt 0.03848267 0.3518066
vt 0.03848267 0.3518066
vt 0.03845215 0.3518066
vt 0.03845215 0.3518066
vt 0.03845215 0.3518066
vt 0.03747559 0.3515625
vt 0.03848267 0.3518066
vt 0.0375061 0.3515625
vt 0.03848267 0.3518066
vt 0.03845215 0.3518066
vt 0.03747559 0.3518066
vt 0.0375061 0.3515625
vt 0.03747559 0.3518066
vt 0.03747559 0.3515625
vt 0.0375061 0.3515625
vt 0.0375061 0.3515625
vt 0.03848267 0.3518066
vt 0.03848267 0.3518066
vt 0.03845215 0.3518066
vt 0.03845215 0.3518066
vt 0.03845215 0.3518066
vt 0.03747559 0.3518066
vt 0.03848267 0.3518066
vt 0.0375061 0.3518066
vt 0.03848267 0.3518066
vt 0.03845215 0.3518066
vt 0.03747559 0.3518066
vt 0.0375061 0.3518066
vt 0.03747559 0.3518066
vt 0.03747559 0.3518066
vt 0.0375061 0.3518066
vt 0.0375061 0.3518066
vt 0.03848267 0.3518066
vt 0.03848267 0.3518066
vt 0.03845215 0.3518066
vt 0.03845215 0.3518066
vt 0.03845215 0.3518066
vt 0.03747559 0.3515625
vt 0.03848267 0.3518066
vt 0.0375061 0.3515625
vt 0.03848267 0.3518066
vt 0.03845215 0.3518066
vt 0.03747559 0.3518066
vt 0.0375061 0.3515625
vt 0.03747559 0.3518066
vt 0.03747559 0.3515625
vt 0.0375061 0.3515625
vt 0.0375061 0.3515625
vt 0.03848267 0.3518066
vt 0.03848267 0.3518066
vt 0.03845215 0.3518066
vt 0.03845215 0.3518066
vt 0.03845215 0.3518066
vt 0.03747559 0.3518066
vt 0.03848267 0.3518066
vt 0.0375061 0.3518066
vt 0.03848267 0.3518066
vt 0.03845215 0.3518066
vt 0.03747559 0.3518066
vt 0.0375061 0.3518066
vt 0.03747559 0.3518066
vt 0.03747559 0.3518066
vt 0.0375061 0.3518066
vt 0.0375061 0.3518066
vt 0.03848267 0.3518066
vt 0.03848267 0.3518066
vt 0.03845215 0.3518066
vt 0.03845215 0.3518066
vt 0.03845215 0.3518066
vt 0.03790283 0.3518066
vt 0.03848267 0.3518066
vt 0.03771973 0.3515625
vt 0.03848267 0.3518066
vt 0.03845215 0.3518066
vt 0.03799438 0.3518066
vt 0.03778076 0.3518066
vt 0.03848267 0.3518066
vt 0.03848267 0.3518066
vt 0.03845215 0.3518066
vt 0.03845215 0.3518066
vt 0.03790283 0.3518066
vt 0.03747559 0.3515625
vt 0.03747559 0.3518066
vt 0.03799438 0.3518066
vt 0.0375061 0.3515625
vt 0.03747559 0.3515625
vt 0.0375061 0.3515625
vt 0.0375061 0.3515625
vt 0.03747559 0.3518066
vt 0.0375061 0.3515625
vn 0 0 -1
vn 0 -1 0
vn 0 0 -1
vn 0 -1 0
vn 0 1 0
vn 0 -1 0
vn 1 0 0
vn 0 -1 0
vn 0 0 -1
vn 0 0 -1
vn 1 0 0
vn -0.84375 -0.08239746 0.5302734
vn -1 0 0
vn -0.84375 -0.08239746 0.5302734
vn -0.84375 -0.08239746 0.5302734
vn 0 0 1
vn 0 0 1
vn 0 0 1
vn 0 0 1
vn 0 1 0
vn 0 1 0
vn 0 0 -1
vn 0 0 -1
vn -1 0 0
vn 0 -1 0
vn 0 1 0
vn 0 -1 0
vn 0 0 -1
vn 0 -1 0
vn 0 0 -1
vn 0 -1 0
vn -1 0 0
vn 0 0 -1
vn 0 0 -1
vn 0.6967773 -0.1049194 0.7099609
vn 0 0 1
vn 0.6967773 -0.1049194 0.7099609
vn 0.6967773 -0.1049194 0.7099609
vn 0 0 1
vn 0 0 1
vn 0 0 1
vn 0 0 1
vn 1 0 0
vn 1 0 0
vn 0 0 -1
vn 0 0 -1
vn 0 0 1
vn 0 0 1
vn 0 0 1
vn 0 0 1
vn 0 1 0
vn 0 1 0
vn 0 0 -1
vn 0 0 -1
vn 0 0 1
vn 0 0 1
vn 0 0 1
vn 0 0 1
vn 0 1 0
vn 0 1 0
vn 0 0 -1
vn 0 0 -1
vn 0 0 1
vn 0 0 1
vn 0 0 1
vn 0 0 1
vn 0 1 0
vn 0 1 0
vn 0 0 -1
vn 0 0 -1
vn 0 0 1
vn 0 0 1
vn 0 0 1
vn 0 0 1
vn 1 0 0
vn 1 0 0
vn 0 0 -1
vn 0 0 -1
vn 0.0637207 -0.01924133 0.9975586
vn 1 0 0
vn 0.0637207 -0.01924133 0.9975586
vn 1 0 0
vn 0 1 0
vn 1 0 0
vn 0 0 -1
vn 1 0 0
vn 0.0637207 -0.01924133 0.9975586
vn 0.0637207 -0.01924133 0.9975586
vn 0 1 0
vn 0 0 -1
vn 1 0 0
vn 1 0 0
vn 0 1 0
vn 0 1 0
vn 0 1 0
vn 0 0 -1
vn 0 0 -1
vn 1 0 0
vn 1 0 0
vn -1 0 0
vn -1 0 0
vn -1 0 0
vn -1 0 0
vn 0 0 1
vn 0 0 1
vn 0 0 1
vn 0 0 1
vn 0 0 1
vn 0 0 1
vn 0 0 1
vn 0 0 1
vn -1 0 0
vn -1 0 0
vn -1 0 0
vn -0.9199219 0.05490112 0.3879395
vn -0.9199219 0.05490112 0.3879395
vn -0.9199219 0.05490112 0.3879395
vn 0 1 0
vn 0 1 0
vn 0 0 -1
vn 0 0 -1
vn 0 -1 0
vn 0 -1 0
vn 0 -1 0
vn 0 -1 0
vn 1 0 0
vn 1 0 0
vn 1 0 0
vn 1 0 0
vn -1 0 0
vn -1 0 0
vn -1 0 0
vn -1 0 0
vn -1 0 0
vn -1 0 0
vn 0 1 0
vn 0 1 0
vn 0 1 0
vn 0 0 -1
vn 0 0 -1
vn -1 0 0
vn -1 0 0
vn 0 0 1
vn 0 0 1
vn 0 0 1
vn 0 0 1
vn 1 0 0
vn 1 0 0
vn 1 0 0
vn 1 0 0
vn 1 0 0
vn 1 0 0
vn 1 0 0
vn 1 0 0
vn 0 0 1
vn 0 0 1
vn 0 0 1
vn 0.7714844 0.1572266 0.6162109
vn 0.7714844 0.1572266 0.6162109
vn 0.7714844 0.1572266 0.6162109
vn 1 0 0
vn 1 0 0
vn 0 0 -1
vn 0 0 -1
vn -1 0 0
vn -1 0 0
vn -1 0 0
vn -1 0 0
vn 0 -1 0
vn 0 -1 0
vn 0 -1 0
vn 0 -1 0
vn 0 1 0
vn 0 1 0
vn 0 1 0
vn 0 1 0
vn 0 1 0
vn 0 1 0
vn 0 0 -1
vn 0 0 -1
vn 0 -1 0
vn 0 -1 0
vn 0 -1 0
vn 0 -1 0
vn 1 0 0
vn 1 0 0
vn 1 0 0
vn 1 0 0
vn -1 0 0
vn -1 0 0
vn -1 0 0
vn -1 0 0
vn 0 1 0
vn 0 1 0
vn 0 0 -1
vn 0 0 -1
vn 0 -1 0
vn 0 -1 0
vn 0 -1 0
vn 0 -1 0
vn 1 0 0
vn 1 0 0
vn 1 0 0
vn 1 0 0
vn -1 0 0
vn -1 0 0
vn -1 0 0
vn -1 0 0
vn 0 1 0
vn 0 1 0
vn 0 0 -1
vn 0 0 -1
vn 0 -1 0
vn 0 -1 0
vn 0 -1 0
vn 0 -1 0
vn 1 0 0
vn 1 0 0
vn 1 0 0
vn 1 0 0
vn -1 0 0
vn -1 0 0
vn -1 0 0
vn -1 0 0
vn 1 0 0
vn 1 0 0
vn 0 0 -1
vn 0 0 -1
vn -1 0 0
vn -1 0 0
vn -1 0 0
vn -1 0 0
vn 0 -1 0
vn 0 -1 0
vn 0 -1 0
vn 0 -1 0
vn 0 1 0
vn 0 1 0
vn 0 1 0
vn 0 1 0
vn 0 1 0
vn 0 1 0
vn 0 0 -1
vn 0 0 -1
vn 0 -1 0
vn 0 -1 0
vn 0 -1 0
vn 0 -1 0
vn -1 0 0
vn -1 0 0
vn -1 0 0
vn -1 0 0
vn -0.06695557 0.0202179 0.9975586
vn -0.06695557 0.0202179 0.9975586
vn -0.06695557 0.0202179 0.9975586
vn -0.06695557 0.0202179 0.9975586
vn 0 1 0
vn 0 1 0
vn 0 0 -1
vn 0 0 -1
vn 0 -1 0
vn 0 -1 0
g SM_Bld_House_Wall_01_0
f 15/15/15 12/12/12 14/14/14
f 117/117/117 116/116/116 115/115/115
f 38/38/38 35/35/35 37/37/37
f 160/160/160 159/159/159 158/158/158
f 10/10/10 3/3/3 1/1/1
f 9/9/9 10/10/10 1/1/1
f 9/9/9 97/97/97 10/10/10
f 97/97/97 96/96/96 10/10/10
f 92/92/92 91/91/91 7/7/7
f 11/11/11 92/92/92 7/7/7
f 11/11/11 99/99/99 92/92/92
f 99/99/99 98/98/98 92/92/92
f 6/6/6 4/4/4 2/2/2
f 8/8/8 6/6/6 2/2/2
f 94/94/94 5/5/5 93/93/93
f 95/95/95 94/94/94 93/93/93
f 101/101/101 100/100/100 13/13/13
f 13/13/13 102/102/102 101/101/101
f 13/13/13 103/103/103 102/102/102
f 112/112/112 102/102/102 103/103/103
f 103/103/103 113/113/113 112/112/112
f 113/113/113 114/114/114 112/112/112
f 104/104/104 108/108/108 107/107/107
f 104/104/104 107/107/107 106/106/106
f 106/106/106 105/105/105 104/104/104
f 109/109/109 104/104/104 105/105/105
f 105/105/105 110/110/110 109/109/109
f 109/109/109 111/111/111 104/104/104
f 19/19/19 18/18/18 16/16/16
f 17/17/17 19/19/19 16/16/16
f 21/21/21 20/20/20 118/118/118
f 119/119/119 21/21/21 118/118/118
f 23/23/23 22/22/22 120/120/120
f 121/121/121 23/23/23 120/120/120
f 124/124/124 123/123/123 122/122/122
f 125/125/125 124/124/124 122/122/122
f 128/128/128 127/127/127 126/126/126
f 129/129/129 128/128/128 126/126/126
f 132/132/132 131/131/131 130/130/130
f 133/133/133 132/132/132 130/130/130
f 34/34/34 30/30/30 28/28/28
f 33/33/33 34/34/34 28/28/28
f 33/33/33 140/140/140 34/34/34
f 140/140/140 139/139/139 34/34/34
f 32/32/32 24/24/24 134/134/134
f 135/135/135 32/32/32 134/134/134
f 135/135/135 142/142/142 32/32/32
f 142/142/142 141/141/141 32/32/32
f 29/29/29 27/27/27 25/25/25
f 31/31/31 29/29/29 25/25/25
f 26/26/26 137/137/137 136/136/136
f 138/138/138 26/26/26 136/136/136
f 144/144/144 36/36/36 143/143/143
f 143/143/143 145/145/145 144/144/144
f 143/143/143 146/146/146 145/145/145
f 155/155/155 146/146/146 143/143/143
f 155/155/155 143/143/143 157/157/157
f 157/157/157 156/156/156 155/155/155
f 149/149/149 148/148/148 147/147/147
f 147/147/147 150/150/150 149/149/149
f 147/147/147 151/151/151 150/150/150
f 151/151/151 147/147/147 152/152/152
f 152/152/152 153/153/153 151/151/151
f 152/152/152 154/154/154 153/153/153
f 42/42/42 41/41/41 39/39/39
f 40/40/40 42/42/42 39/39/39
f 44/44/44 43/43/43 161/161/161
f 162/162/162 44/44/44 161/161/161
f 46/46/46 45/45/45 163/163/163
f 164/164/164 46/46/46 163/163/163
f 167/167/167 166/166/166 165/165/165
f 168/168/168 167/167/167 165/165/165
f 171/171/171 170/170/170 169/169/169
f 172/172/172 171/171/171 169/169/169
f 175/175/175 174/174/174 173/173/173
f 176/176/176 175/175/175 173/173/173
f 50/50/50 49/49/49 47/47/47
f 48/48/48 50/50/50 47/47/47
f 52/52/52 51/51/51 177/177/177
f 178/178/178 52/52/52 177/177/177
f 54/54/54 53/53/53 179/179/179
f 180/180/180 54/54/54 179/179/179
f 183/183/183 182/182/182 181/181/181
f 184/184/184 183/183/183 181/181/181
f 187/187/187 186/186/186 185/185/185
f 188/188/188 187/187/187 185/185/185
f 191/191/191 190/190/190 189/189/189
f 192/192/192 191/191/191 189/189/189
f 58/58/58 57/57/57 55/55/55
f 56/56/56 58/58/58 55/55/55
f 60/60/60 59/59/59 193/193/193
f 194/194/194 60/60/60 193/193/193
f 62/62/62 61/61/61 195/195/195
f 196/196/196 62/62/62 195/195/195
f 199/199/199 198/198/198 197/197/197
f 200/200/200 199/199/199 197/197/197
f 203/203/203 202/202/202 201/201/201
f 204/204/204 203/203/203 201/201/201
f 207/207/207 206/206/206 205/205/205
f 208/208/208 207/207/207 205/205/205
f 66/66/66 65/65/65 63/63/63
f 64/64/64 66/66/66 63/63/63
f 68/68/68 67/67/67 209/209/209
f 210/210/210 68/68/68 209/209/209
f 70/70/70 69/69/69 211/211/211
f 212/212/212 70/70/70 211/211/211
f 215/215/215 214/214/214 213/213/213
f 216/216/216 215/215/215 213/213/213
f 219/219/219 218/218/218 217/217/217
f 220/220/220 219/219/219 217/217/217
f 223/223/223 222/222/222 221/221/221
f 224/224/224 223/223/223 221/221/221
f 74/74/74 73/73/73 71/71/71
f 72/72/72 74/74/74 71/71/71
f 76/76/76 75/75/75 225/225/225
f 226/226/226 76/76/76 225/225/225
f 78/78/78 77/77/77 227/227/227
f 228/228/228 78/78/78 227/227/227
f 231/231/231 230/230/230 229/229/229
f 232/232/232 231/231/231 229/229/229
f 235/235/235 234/234/234 233/233/233
f 236/236/236 235/235/235 233/233/233
f 239/239/239 238/238/238 237/237/237
f 240/240/240 239/239/239 237/237/237
f 88/88/88 81/81/81 79/79/79
f 87/87/87 88/88/88 79/79/79
f 89/89/89 83/83/83 241/241/241
f 242/242/242 89/89/89 241/241/241
f 242/242/242 258/258/258 89/89/89
f 258/258/258 257/257/257 89/89/89
f 90/90/90 85/85/85 243/243/243
f 244/244/244 90/90/90 243/243/243
f 244/244/244 260/260/260 90/90/90
f 260/260/260 259/259/259 90/90/90
f 247/247/247 246/246/246 245/245/245
f 248/248/248 247/247/247 245/245/245
f 248/248/248 262/262/262 247/247/247
f 262/262/262 261/261/261 247/247/247
f 84/84/84 82/82/82 80/80/80
f 86/86/86 84/84/84 80/80/80
f 251/251/251 250/250/250 249/249/249
f 252/252/252 251/251/251 249/249/249
f 255/255/255 254/254/254 253/253/253
f 256/256/256 255/255/255 253/253/253
