g SM_Bld_Wall_Brick_Window_04
v 0.6703424 2.186483 0.1704077
v 0.6531799 2.330195 0.1704077
v 0.6703424 2.333189 0.1582007
v 0.6531799 2.330195 0.1704077
v 0.6703424 2.396669 0.1704077
v 0.6703424 2.333189 0.1582007
v 1.828439 0.8986201 0.1480652
v 1.828439 1.001555 0.1704077
v 1.848057 0.9047632 0.1704077
v 1.828439 0.7644319 0.1704077
v 1.828439 0.8986201 0.1480652
v 1.848057 0.9047632 0.1704077
v 1.477986 2.418124 0.1016748
v 1.357305 2.436034 0.1016748
v 1.471063 2.436179 0.08409423
v 1.604377 2.436285 0.1016748
v 1.477986 2.418124 0.1016748
v 1.471063 2.436179 0.08409423
v 0.8906268 2.876067 0.1016748
v 1.002543 2.892065 0.1016748
v 0.9971393 2.876067 0.07738403
v 1.002543 2.892065 0.1016748
v 1.167608 2.876067 0.1016748
v 0.9971393 2.876067 0.07738403
v 0.7348626 1.044288 0.1016748
v 0.7555774 1.161256 0.101676
v 0.7555774 1.036189 0.08818725
v 0.7555774 0.9412063 0.101676
v 0.7348626 1.044288 0.1016748
v 0.7555774 1.036189 0.08818725
v 0.7662597 2.356339 0
v 0.7662597 0.1295816 0
v 0.7555774 1.036189 0.08818725
v 0.6715637 0.06160337 0.1016748
v 1.828439 0.06160337 0.1016748
v 1.828439 0.06160337 0.1704077
v 0.6715637 0.06160337 0.1704077
v 0.6715637 2.935397 0.1704077
v 1.828439 2.935397 0.1704077
v 1.828439 2.935397 0.1016748
v 0.6715637 2.935397 0.1016748
v 1.733743 0.1295816 0.1016748
v 1.733743 2.44652 0.1016748
v 1.733743 2.86742 0.1016748
v 1.733743 2.356339 0.1016748
v 0.7662597 0.1295816 0.1016748
v 1.733743 0.1295816 0
v 0.7662597 0.1295816 0
v 1.733743 0.1295816 0.1016748
v 1.733743 0.1295816 0
v 1.733743 2.356339 0
v 1.733743 2.356339 0.1016748
v 0.7662597 0.1295816 0
v 0.7662597 0.1295816 0.1016748
v 0.7555774 0.9412063 0.101676
v 0.7555774 1.036189 0.08818725
v 0.7662597 2.356339 0.1016748
v 0.7662597 2.356339 0
v 0.7555774 1.161256 0.101676
v 1.733743 2.356339 0
v 0.7662597 2.356339 0
v 0.7662597 2.356339 0.1016748
v 1.733743 2.356339 0.1016748
v 0.7662597 2.86742 0
v 0.7662597 2.86742 0.1016748
v 0.8906268 2.876067 0.1016748
v 0.9971393 2.876067 0.07738403
v 1.733743 2.86742 0
v 1.733743 2.86742 0.1016748
v 1.167608 2.876067 0.1016748
v 1.733743 2.44652 0.1016748
v 1.733743 2.44652 0
v 1.733743 2.86742 0
v 1.733743 2.86742 0.1016748
v 0.7662597 2.445759 0
v 1.733743 2.44652 0
v 1.471063 2.436179 0.08409423
v 1.604377 2.436285 0.1016748
v 1.733743 2.44652 0.1016748
v 0.7662597 2.86742 0.1016748
v 0.7662597 2.86742 0
v 0.7662597 2.445759 0
v 0.7662597 2.445759 0.1016748
v 0.7348626 1.044288 0.1016748
v 0.7555774 0.9412063 0.101676
v 0.7662597 0.1295816 0.1016748
v 0.6715637 0.06160337 0.1016748
v 0.6715637 2.935397 0.1016748
v 1.828439 0.06160337 0.1016748
v 1.733743 0.1295816 0.1016748
v 1.733743 2.86742 0.1016748
v 0.7555774 1.161256 0.101676
v 1.828439 2.935397 0.1016748
v 1.167608 2.876067 0.1016748
v 1.002543 2.892065 0.1016748
v 0.8906268 2.876067 0.1016748
v 0.7662597 2.86742 0.1016748
v 0.7662597 2.445759 0.1016748
v 0.7662597 2.356339 0.1016748
v 1.357305 2.436034 0.1016748
v 1.477986 2.418124 0.1016748
v 1.733743 2.356339 0.1016748
v 1.733743 2.44652 0.1016748
v 1.604377 2.436285 0.1016748
v 0.6715637 2.935397 0.1016748
v 0.6703424 2.396669 0.1704077
v 0.6715637 2.935397 0.1704077
v 0.6703424 2.333189 0.1582007
v 0.6715637 0.06160337 0.1016748
v 0.6703424 2.186483 0.1704077
v 0.6715637 0.06160337 0.1704077
v 0.6715637 0.06160337 0.1704077
v 0.6531799 2.330195 0.1704077
v 0.6703424 2.186483 0.1704077
v 0.6250012 0.01508988 0.1704077
v 1.828439 0.06160337 0.1704077
v 0.6250012 2.981911 0.1704077
v 0.6703424 2.396669 0.1704077
v 0.6715637 2.935397 0.1704077
v 1.875001 0.01508988 0.1704077
v 1.828439 0.7644319 0.1704077
v 1.875001 2.981911 0.1704077
v 1.848057 0.9047632 0.1704077
v 1.828439 2.935397 0.1704077
v 1.828439 1.001555 0.1704077
v 0.7662597 2.445759 0.1016748
v 0.7662597 2.445759 0
v 1.471063 2.436179 0.08409423
v 1.357305 2.436034 0.1016748
v 1.828439 0.8986201 0.1480652
v 1.828439 0.7644319 0.1704077
v 1.828439 0.06160337 0.1704077
v 1.828439 0.06160337 0.1016748
v 1.828439 2.935397 0.1016748
v 1.828439 2.935397 0.1704077
v 1.828439 1.001555 0.1704077
v 1.875001 0.01508988 0.1704077
v 1.888794 3.046309E-09 0.1499988
v 0.6112075 3.046309E-09 0.1499988
v 0.6250012 0.01508988 0.1704077
v 0.6250012 0.01508988 0.1704077
v 0.6112075 3.046309E-09 0.1499988
v 0.6112075 2.997001 0.1499988
v 0.6250012 2.981911 0.1704077
v 1.875001 2.981911 0.1704077
v 1.888794 2.997001 0.1499988
v 1.888794 3.046309E-09 0.1499988
v 1.875001 0.01508988 0.1704077
v 0.6250012 2.981911 0.1704077
v 0.6112075 2.997001 0.1499988
v 1.888794 2.997001 0.1499988
v 1.875001 2.981911 0.1704077
v 0.6112075 2.997001 0
v 1.888794 2.997001 0
v 1.888794 2.997001 0.1499988
v 0.6112075 2.997001 0.1499988
v 0.6112075 3.046309E-09 0.1499988
v 1.888794 3.046309E-09 0.1499988
v 1.888794 -1.062378E-08 0
v 0.6112075 -1.062378E-08 0
v 0.6112075 3.046309E-09 0.1499988
v 0.6112075 -1.062378E-08 0
v 0 0 0
v 0 0 0.1499988
v 0.6112075 2.997001 0.1499988
v 0 2.997 0.1499988
v 0 2.997 0
v 0.6112075 2.997001 0
v 0 2.997 0
v 0 2.997 0.1499988
v 0 0 0.1499988
v 0 0 0
v 0.6112075 2.997001 0.1499988
v 0.6112075 3.046309E-09 0.1499988
v 0 0 0.1499988
v 0 2.997 0.1499988
v 1.888794 3.046309E-09 0.1499988
v 2.5 0 0.1499988
v 2.5 0 0
v 1.888794 -1.062378E-08 0
v 1.888794 2.997001 0.1499988
v 1.888794 2.997001 0
v 2.5 2.997 0
v 2.5 2.997 0.1499988
v 2.5 0 0
v 2.5 0 0.1499988
v 2.5 2.997 0.1499988
v 2.5 2.997 0
v 1.888794 2.997001 0.1499988
v 2.5 2.997 0.1499988
v 2.5 0 0.1499988
v 1.888794 3.046309E-09 0.1499988
vt 0.1026001 0.2314453
vt 0.1026001 0.2314453
vt 0.1026001 0.2314453
vt 0.1026001 0.2314453
vt 0.1026001 0.2313232
vt 0.1026001 0.2314453
vt 0.1018677 0.2320557
vt 0.1018677 0.2320557
vt 0.1018677 0.2320557
vt 0.1018677 0.2321777
vt 0.1018677 0.2320557
vt 0.1018677 0.2320557
vt 0.1028442 0.2531738
vt 0.1028442 0.2531738
vt 0.1028442 0.2531738
vt 0.1028442 0.2531738
vt 0.1028442 0.2531738
vt 0.1028442 0.2531738
vt 0.1028442 0.2531738
vt 0.1028442 0.2531738
vt 0.1028442 0.2531738
vt 0.1028442 0.2531738
vt 0.1028442 0.2531738
vt 0.1028442 0.2531738
vt 0.1028442 0.2531738
vt 0.1028442 0.2531738
vt 0.1028442 0.2531738
vt 0.1028442 0.2531738
vt 0.1028442 0.2531738
vt 0.1028442 0.2531738
vt 0.1028442 0.2531738
vt 0.1028442 0.2531738
vt 0.1028442 0.2531738
vt 0.1026001 0.2320557
vt 0.1018677 0.2321777
vt 0.1018677 0.2321777
vt 0.1026001 0.2320557
vt 0.1026001 0.2313232
vt 0.1018066 0.2313232
vt 0.1018066 0.2313232
vt 0.1026001 0.2313232
vt 0.1028442 0.2531738
vt 0.1028442 0.2531738
vt 0.1028442 0.2531738
vt 0.1028442 0.2531738
vt 0.1028442 0.2531738
vt 0.1028442 0.2531738
vt 0.1028442 0.2531738
vt 0.1028442 0.2531738
vt 0.1028442 0.2531738
vt 0.1028442 0.2531738
vt 0.1028442 0.2531738
vt 0.1028442 0.2531738
vt 0.1028442 0.2531738
vt 0.1028442 0.2531738
vt 0.1028442 0.2531738
vt 0.1028442 0.2531738
vt 0.1028442 0.2531738
vt 0.1028442 0.2531738
vt 0.1028442 0.2531738
vt 0.1028442 0.2531738
vt 0.1028442 0.2531738
vt 0.1028442 0.2531738
vt 0.1028442 0.2531738
vt 0.1028442 0.2531738
vt 0.1028442 0.2531738
vt 0.1028442 0.2531738
vt 0.1028442 0.2531738
vt 0.1028442 0.2531738
vt 0.1028442 0.2531738
vt 0.1028442 0.2531738
vt 0.1028442 0.2531738
vt 0.1028442 0.2531738
vt 0.1028442 0.2531738
vt 0.1028442 0.2531738
vt 0.1028442 0.2531738
vt 0.1028442 0.2531738
vt 0.1028442 0.2531738
vt 0.1028442 0.2531738
vt 0.1028442 0.2531738
vt 0.1028442 0.2531738
vt 0.1028442 0.2531738
vt 0.1028442 0.2531738
vt 0.1028442 0.2531738
vt 0.1028442 0.2531738
vt 0.1028442 0.2531738
vt 0.1028442 0.2531738
vt 0.1028442 0.2531738
vt 0.1028442 0.2531738
vt 0.1028442 0.2531738
vt 0.1028442 0.2531738
vt 0.1028442 0.2531738
vt 0.1028442 0.2531738
vt 0.1028442 0.2531738
vt 0.1028442 0.2531738
vt 0.1028442 0.2531738
vt 0.1028442 0.2531738
vt 0.1028442 0.2531738
vt 0.1028442 0.2531738
vt 0.1028442 0.2531738
vt 0.1028442 0.2531738
vt 0.1028442 0.2531738
vt 0.1028442 0.2531738
vt 0.1028442 0.2531738
vt 0.1026001 0.2313232
vt 0.1026001 0.2313232
vt 0.1026001 0.2313232
vt 0.1026001 0.2314453
vt 0.1026001 0.2320557
vt 0.1026001 0.2314453
vt 0.1026001 0.2320557
vt 0.1026001 0.2320557
vt 0.1026001 0.2314453
vt 0.1026001 0.2314453
vt 0.1026611 0.2320557
vt 0.1018677 0.2321777
vt 0.1026611 0.2312012
vt 0.1026001 0.2313232
vt 0.1026001 0.2313232
vt 0.1018677 0.2322998
vt 0.1018677 0.2321777
vt 0.1017456 0.2313232
vt 0.1018677 0.2320557
vt 0.1018066 0.2313232
vt 0.1018677 0.2320557
vt 0.1028442 0.2531738
vt 0.1028442 0.2531738
vt 0.1028442 0.2531738
vt 0.1028442 0.2531738
vt 0.1018677 0.2320557
vt 0.1018677 0.2321777
vt 0.1018677 0.2321777
vt 0.1018677 0.2321777
vt 0.1018066 0.2313232
vt 0.1018066 0.2313232
vt 0.1018677 0.2320557
vt 0.102478 0.2325439
vt 0.102478 0.2325439
vt 0.1027832 0.2320557
vt 0.1027832 0.2320557
vt 0.1027832 0.2320557
vt 0.1027832 0.2320557
vt 0.1027222 0.2315674
vt 0.1027222 0.2315674
vt 0.1026001 0.2320557
vt 0.1026001 0.2320557
vt 0.102478 0.2325439
vt 0.102478 0.2325439
vt 0.1027222 0.2315674
vt 0.1027222 0.2315674
vt 0.1026001 0.2320557
vt 0.1026001 0.2320557
vt 0.1029663 0.230835
vt 0.102478 0.230835
vt 0.102478 0.2307129
vt 0.1029663 0.2307129
vt 0.1029663 0.2316895
vt 0.102356 0.2316895
vt 0.102356 0.2318115
vt 0.1029663 0.2318115
vt 0.00204277 0.7519531
vt 0.002040863 0.7519531
vt 0.002061844 0.7519531
vt 0.002061844 0.7519531
vt 0.002040863 0.7519531
vt 0.002059937 0.7514648
vt 0.002059937 0.7514648
vt 0.002040863 0.7514648
vt 0.002059937 0.7514648
vt 0.002059937 0.7514648
vt 0.002061844 0.7519531
vt 0.002061844 0.7519531
vt 0.05514526 0.9975586
vt 0.05514526 0.7524414
vt 0.001594543 0.7524414
vt 0.001594543 0.9975586
vt 0.001925468 0.7519531
vt 0.001906395 0.7519531
vt 0.001906395 0.7519531
vt 0.001925468 0.7519531
vt 0.001919746 0.7519531
vt 0.001919746 0.7519531
vt 0.001899719 0.7519531
vt 0.001898766 0.7519531
vt 0.001906395 0.7519531
vt 0.001906395 0.7519531
vt 0.001898766 0.7519531
vt 0.001899719 0.7519531
vt 0.1947021 0.9975586
vt 0.2487793 0.9975586
vt 0.2487793 0.7524414
vt 0.1947021 0.7524414
vn 0.5703125 0.06811523 0.8183594
vn 0.5703125 0.06811523 0.8183594
vn 0.5703125 0.06811523 0.8183594
vn 0.590332 -0.1524658 0.7924805
vn 0.590332 -0.1524658 0.7924805
vn 0.590332 -0.1524658 0.7924805
vn -0.7231445 -0.1464844 0.675293
vn -0.7231445 -0.1464844 0.675293
vn -0.7231445 -0.1464844 0.675293
vn -0.7617188 0.1064453 0.6391602
vn -0.7617188 0.1064453 0.6391602
vn -0.7617188 0.1064453 0.6391602
vn 0.1060181 0.7143555 0.6918945
vn 0.1060181 0.7143555 0.6918945
vn 0.1060181 0.7143555 0.6918945
vn -0.09698486 0.6748047 0.7314453
vn -0.09698486 0.6748047 0.7314453
vn -0.09698486 0.6748047 0.7314453
vn 0.1202393 -0.8413086 0.5273438
vn 0.1202393 -0.8413086 0.5273438
vn 0.1202393 -0.8413086 0.5273438
vn -0.07989502 -0.8242188 0.5605469
vn -0.07989502 -0.8242188 0.5605469
vn -0.07989502 -0.8242188 0.5605469
vn 0.5180664 -0.09173584 0.8505859
vn 0.5180664 -0.09173584 0.8505859
vn 0.5180664 -0.09173584 0.8505859
vn 0.5732422 0.1152344 0.8110352
vn 0.5732422 0.1152344 0.8110352
vn 0.5732422 0.1152344 0.8110352
vn 0.9926758 0 0.1202393
vn 0.9926758 0 0.1202393
vn 0.9926758 0 0.1202393
vn 0 1 0
vn 0 1 0
vn 0 1 0
vn 0 1 0
vn 0 -1 0
vn 0 -1 0
vn 0 -1 0
vn 0 -1 0
vn 0 1 0
vn 0 1 0
vn 0 1 0
vn 0 1 0
vn 0 1 0
vn 0 1 0
vn 0 1 0
vn -1 0 0
vn -1 0 0
vn -1 0 0
vn -1 0 0
vn 1 0.01192474 0.00983429
vn 1 0.01192474 0.00983429
vn 1 0.01192474 0.00983429
vn 1 0.01192474 0.00983429
vn 1 -0.008178711 0.008888245
vn 1 -0.008178711 0.008888245
vn 1 -0.008178711 0.008888245
vn 0 -1 0
vn 0 -1 0
vn 0 -1 0
vn 0 -1 0
vn 0.02360535 -0.9975586 0.06726074
vn 0.04104614 -0.9985352 0.034729
vn 0.04104614 -0.9985352 0.034729
vn 0.001368523 -0.9951172 0.09790039
vn -0.01158142 -0.9995117 0.02206421
vn -0.01228333 -1 0.01663208
vn -0.01228333 -1 0.01663208
vn -1 0 0
vn -1 0 0
vn -1 0 0
vn -1 0 0
vn -0.0007815361 0.9926758 0.1196289
vn -0.02531433 0.996582 0.07666016
vn -0.00305748 0.9931641 0.1156616
vn -0.04238892 0.9980469 0.04650879
vn -0.04238892 0.9980469 0.04650879
vn 1 0 0
vn 1 0 0
vn 1 0 0
vn 1 0 0
vn 0 0 1
vn -1.066923E-05 0 1
vn 0 0 1
vn 0 0 1
vn 0 0 1
vn 0 0 1
vn 0 0 1
vn 0 0 1
vn -4.696846E-05 0 1
vn 0 0 1
vn 0 0 1
vn 0 0 1
vn 0 0 1
vn 0 0 1
vn 0 0 1
vn 0 0 1
vn 0 0 1
vn 0 0 1
vn 0 0 1
vn 0 0 1
vn 0 0 1
vn 1 -0.001696587 0.005149841
vn 1 -0.002059937 0.001616478
vn 1 -0.002059937 0.001616478
vn 1 -3.314018E-05 0.02030945
vn 1 0.0005350113 0.001276016
vn 1 0.0005431175 0.0009841919
vn 1 0.0005431175 0.0009841919
vn 0 0 1
vn 0 0 1
vn 0 0 1
vn 0 0 1
vn 0 0 1
vn 0 0 1
vn 0 0 1
vn 0 0 1
vn 0 0 1
vn 0 0 1
vn 0 0 1
vn 0 0 1
vn 0 0 1
vn 0 0 1
vn 0.01395416 1 0.01452637
vn 0.01395416 1 0.01452637
vn 0.01395416 1 0.01452637
vn 0.01395416 1 0.01452637
vn -1 0 0
vn -1 0 0
vn -1 0 0
vn -1 0 0
vn -1 0 0
vn -1 0 0
vn -1 0 0
vn 0 -0.8041992 0.5947266
vn 0 -0.8041992 0.5947266
vn 0 -0.8041992 0.5947266
vn 0 -0.8041992 0.5947266
vn -0.8286133 0 0.5600586
vn -0.8286133 0 0.5600586
vn -0.8286133 0 0.5600586
vn -0.8286133 0 0.5600586
vn 0.8286133 0 0.5600586
vn 0.8286133 0 0.5600586
vn 0.8286133 0 0.5600586
vn 0.8286133 0 0.5600586
vn 0 0.8041992 0.5947266
vn 0 0.8041992 0.5947266
vn 0 0.8041992 0.5947266
vn 0 0.8041992 0.5947266
vn 0 1 0
vn 0 1 0
vn 0 1 0
vn 0 1 0
vn 0 -1 0
vn 0 -1 0
vn 0 -1 0
vn 0 -1 0
vn 0 -1 0
vn 0 -1 0
vn 0 -1 0
vn 0 -1 0
vn 0 1 0
vn 0 1 0
vn 0 1 0
vn 0 1 0
vn -1 0 0
vn -1 0 0
vn -1 0 0
vn -1 0 0
vn 0 0 1
vn 0 0 1
vn 0 0 1
vn 0 0 1
vn 0 -1 0
vn 0 -1 0
vn 0 -1 0
vn 0 -1 0
vn 0 1 0
vn 0 1 0
vn 0 1 0
vn 0 1 0
vn 1 0 0
vn 1 0 0
vn 1 0 0
vn 1 0 0
vn 0 0 1
vn 0 0 1
vn 0 0 1
vn 0 0 1
g SM_Bld_Wall_Brick_Window_04_0
f 3/3/3 2/2/2 1/1/1
f 6/6/6 5/5/5 4/4/4
f 9/9/9 8/8/8 7/7/7
f 12/12/12 11/11/11 10/10/10
f 15/15/15 14/14/14 13/13/13
f 18/18/18 17/17/17 16/16/16
f 21/21/21 20/20/20 19/19/19
f 24/24/24 23/23/23 22/22/22
f 27/27/27 26/26/26 25/25/25
f 30/30/30 29/29/29 28/28/28
f 33/33/33 32/32/32 31/31/31
f 36/36/36 35/35/35 34/34/34
f 37/37/37 36/36/36 34/34/34
f 40/40/40 39/39/39 38/38/38
f 41/41/41 40/40/40 38/38/38
f 44/44/44 43/43/43 42/42/42
f 43/43/43 45/45/45 42/42/42
f 42/42/42 47/47/47 46/46/46
f 47/47/47 48/48/48 46/46/46
f 51/51/51 50/50/50 49/49/49
f 52/52/52 51/51/51 49/49/49
f 55/55/55 54/54/54 53/53/53
f 56/56/56 55/55/55 53/53/53
f 56/56/56 58/58/58 57/57/57
f 59/59/59 56/56/56 57/57/57
f 62/62/62 61/61/61 60/60/60
f 63/63/63 62/62/62 60/60/60
f 66/66/66 65/65/65 64/64/64
f 67/67/67 66/66/66 64/64/64
f 68/68/68 67/67/67 64/64/64
f 68/68/68 69/69/69 67/67/67
f 69/69/69 70/70/70 67/67/67
f 73/73/73 72/72/72 71/71/71
f 74/74/74 73/73/73 71/71/71
f 77/77/77 76/76/76 75/75/75
f 77/77/77 78/78/78 76/76/76
f 78/78/78 79/79/79 76/76/76
f 82/82/82 81/81/81 80/80/80
f 83/83/83 82/82/82 80/80/80
f 86/86/86 85/85/85 84/84/84
f 87/87/87 86/86/86 84/84/84
f 87/87/87 84/84/84 88/88/88
f 87/87/87 89/89/89 86/86/86
f 89/89/89 90/90/90 86/86/86
f 91/91/91 90/90/90 89/89/89
f 88/88/88 84/84/84 92/92/92
f 89/89/89 93/93/93 91/91/91
f 94/94/94 91/91/91 93/93/93
f 95/95/95 94/94/94 93/93/93
f 95/95/95 93/93/93 88/88/88
f 96/96/96 95/95/95 88/88/88
f 97/97/97 96/96/96 88/88/88
f 98/98/98 97/97/97 88/88/88
f 88/88/88 92/92/92 99/99/99
f 88/88/88 99/99/99 98/98/98
f 100/100/100 98/98/98 99/99/99
f 101/101/101 100/100/100 99/99/99
f 101/101/101 99/99/99 102/102/102
f 101/101/101 102/102/102 103/103/103
f 104/104/104 101/101/101 103/103/103
f 107/107/107 106/106/106 105/105/105
f 106/106/106 108/108/108 105/105/105
f 108/108/108 109/109/109 105/105/105
f 108/108/108 110/110/110 109/109/109
f 110/110/110 111/111/111 109/109/109
f 114/114/114 113/113/113 112/112/112
f 113/113/113 115/115/115 112/112/112
f 112/112/112 115/115/115 116/116/116
f 113/113/113 117/117/117 115/115/115
f 113/113/113 118/118/118 117/117/117
f 118/118/118 119/119/119 117/117/117
f 115/115/115 120/120/120 116/116/116
f 121/121/121 116/116/116 120/120/120
f 117/117/117 119/119/119 122/122/122
f 123/123/123 121/121/121 120/120/120
f 122/122/122 123/123/123 120/120/120
f 119/119/119 124/124/124 122/122/122
f 122/122/122 124/124/124 123/123/123
f 124/124/124 125/125/125 123/123/123
f 128/128/128 127/127/127 126/126/126
f 129/129/129 128/128/128 126/126/126
f 132/132/132 131/131/131 130/130/130
f 133/133/133 132/132/132 130/130/130
f 134/134/134 133/133/133 130/130/130
f 134/134/134 130/130/130 135/135/135
f 130/130/130 136/136/136 135/135/135
f 139/139/139 138/138/138 137/137/137
f 140/140/140 139/139/139 137/137/137
f 143/143/143 142/142/142 141/141/141
f 144/144/144 143/143/143 141/141/141
f 147/147/147 146/146/146 145/145/145
f 148/148/148 147/147/147 145/145/145
f 151/151/151 150/150/150 149/149/149
f 152/152/152 151/151/151 149/149/149
f 155/155/155 154/154/154 153/153/153
f 156/156/156 155/155/155 153/153/153
f 159/159/159 158/158/158 157/157/157
f 160/160/160 159/159/159 157/157/157
f 163/163/163 162/162/162 161/161/161
f 164/164/164 163/163/163 161/161/161
f 167/167/167 166/166/166 165/165/165
f 168/168/168 167/167/167 165/165/165
f 171/171/171 170/170/170 169/169/169
f 172/172/172 171/171/171 169/169/169
f 175/175/175 174/174/174 173/173/173
f 176/176/176 175/175/175 173/173/173
f 179/179/179 178/178/178 177/177/177
f 180/180/180 179/179/179 177/177/177
f 183/183/183 182/182/182 181/181/181
f 184/184/184 183/183/183 181/181/181
f 187/187/187 186/186/186 185/185/185
f 188/188/188 187/187/187 185/185/185
f 191/191/191 190/190/190 189/189/189
f 192/192/192 191/191/191 189/189/189
