g SM_Bld_Wall_Baseboard_Window_04
v 0.6703412 2.186482 0.1704077
v 0.6531787 2.330195 0.1704077
v 0.6703412 2.333189 0.1582007
v 0.6531787 2.330195 0.1704077
v 0.6703412 2.396669 0.1704077
v 0.6703412 2.333189 0.1582007
v 1.828438 0.8986199 0.1480652
v 1.828438 1.001555 0.1704077
v 1.848056 0.9047632 0.1704077
v 1.828438 0.7644311 0.1704077
v 1.828438 0.8986199 0.1480652
v 1.848056 0.9047632 0.1704077
v 1.477985 2.418124 0.1016748
v 1.357304 2.436034 0.1016748
v 1.471062 2.436179 0.08409423
v 1.604376 2.436285 0.1016748
v 1.477985 2.418124 0.1016748
v 1.471062 2.436179 0.08409423
v 0.8906256 2.876067 0.1016748
v 1.002541 2.892065 0.1016748
v 0.997138 2.876067 0.07738403
v 1.002541 2.892065 0.1016748
v 1.167607 2.876067 0.1016748
v 0.997138 2.876067 0.07738403
v 0.7348614 1.044287 0.1016748
v 0.7555761 1.161255 0.101676
v 0.7555761 1.036189 0.08818725
v 0.7555761 0.941206 0.101676
v 0.7348614 1.044287 0.1016748
v 0.7555761 1.036189 0.08818725
v 0.7662585 2.35634 0
v 0.7662585 0.1295813 0
v 0.7555761 1.036189 0.08818725
v 0.6715625 0.06160339 0.1016748
v 1.828438 0.06160339 0.1016748
v 1.828438 0.06160339 0.1704077
v 0.6715625 0.06160339 0.1704077
v 0.6715625 2.935397 0.1704077
v 1.828438 2.935397 0.1704077
v 1.828438 2.935397 0.1016748
v 0.6715625 2.935397 0.1016748
v 1.733742 0.1295813 0.1016748
v 1.733742 2.44652 0.1016748
v 1.733742 2.867419 0.1016748
v 1.733742 2.35634 0.1016748
v 0.7662585 0.1295813 0.1016748
v 1.733742 0.1295813 0
v 0.7662585 0.1295813 0
v 1.733742 0.1295813 0.1016748
v 1.733742 0.1295813 0
v 1.733742 2.35634 0
v 1.733742 2.35634 0.1016748
v 0.7662585 0.1295813 0
v 0.7662585 0.1295813 0.1016748
v 0.7555761 0.941206 0.101676
v 0.7555761 1.036189 0.08818725
v 0.7662585 2.35634 0.1016748
v 0.7662585 2.35634 0
v 0.7555761 1.161255 0.101676
v 1.733742 2.35634 0
v 0.7662585 2.35634 0
v 0.7662585 2.35634 0.1016748
v 1.733742 2.35634 0.1016748
v 0.7662585 2.867419 0
v 0.7662585 2.867419 0.1016748
v 0.8906256 2.876067 0.1016748
v 0.997138 2.876067 0.07738403
v 1.733742 2.867419 0
v 1.733742 2.867419 0.1016748
v 1.167607 2.876067 0.1016748
v 1.733742 2.44652 0.1016748
v 1.733742 2.44652 0
v 1.733742 2.867419 0
v 1.733742 2.867419 0.1016748
v 0.7662585 2.445759 0
v 1.733742 2.44652 0
v 1.471062 2.436179 0.08409423
v 1.604376 2.436285 0.1016748
v 1.733742 2.44652 0.1016748
v 0.7662585 2.867419 0.1016748
v 0.7662585 2.867419 0
v 0.7662585 2.445759 0
v 0.7662585 2.445759 0.1016748
v 0.7348614 1.044287 0.1016748
v 0.7555761 0.941206 0.101676
v 0.7662585 0.1295813 0.1016748
v 0.6715625 0.06160339 0.1016748
v 0.6715625 2.935397 0.1016748
v 1.828438 0.06160339 0.1016748
v 1.733742 0.1295813 0.1016748
v 1.733742 2.867419 0.1016748
v 0.7555761 1.161255 0.101676
v 1.828438 2.935397 0.1016748
v 1.167607 2.876067 0.1016748
v 1.002541 2.892065 0.1016748
v 0.8906256 2.876067 0.1016748
v 0.7662585 2.867419 0.1016748
v 0.7662585 2.445759 0.1016748
v 0.7662585 2.35634 0.1016748
v 1.357304 2.436034 0.1016748
v 1.477985 2.418124 0.1016748
v 1.733742 2.35634 0.1016748
v 1.733742 2.44652 0.1016748
v 1.604376 2.436285 0.1016748
v 0.6715625 2.935397 0.1016748
v 0.6703412 2.396669 0.1704077
v 0.6715625 2.935397 0.1704077
v 0.6703412 2.333189 0.1582007
v 0.6715625 0.06160339 0.1016748
v 0.6703412 2.186482 0.1704077
v 0.6715625 0.06160339 0.1704077
v 0.6715625 0.06160339 0.1704077
v 0.6531787 2.330195 0.1704077
v 0.6703412 2.186482 0.1704077
v 0.625 0.01508972 0.1704077
v 1.828438 0.06160339 0.1704077
v 0.625 2.981911 0.1704077
v 0.6703412 2.396669 0.1704077
v 0.6715625 2.935397 0.1704077
v 1.875 0.01508972 0.1704077
v 1.828438 0.7644311 0.1704077
v 1.875 2.981911 0.1704077
v 1.848056 0.9047632 0.1704077
v 1.828438 2.935397 0.1704077
v 1.828438 1.001555 0.1704077
v 0.7662585 2.445759 0.1016748
v 0.7662585 2.445759 0
v 1.471062 2.436179 0.08409423
v 1.357304 2.436034 0.1016748
v 1.828438 0.8986199 0.1480652
v 1.828438 0.7644311 0.1704077
v 1.828438 0.06160339 0.1704077
v 1.828438 0.06160339 0.1016748
v 1.828438 2.935397 0.1016748
v 1.828438 2.935397 0.1704077
v 1.828438 1.001555 0.1704077
v 1.875 0.01508972 0.1704077
v 1.888793 0 0.1499988
v 0.6112067 0 0.1499988
v 0.625 0.01508972 0.1704077
v 0.625 0.01508972 0.1704077
v 0.6112067 0 0.1499988
v 0.6112067 2.997001 0.1499988
v 0.625 2.981911 0.1704077
v 1.875 2.981911 0.1704077
v 1.888793 2.997001 0.1499988
v 1.888793 0 0.1499988
v 1.875 0.01508972 0.1704077
v 0.625 2.981911 0.1704077
v 0.6112067 2.997001 0.1499988
v 1.888793 2.997001 0.1499988
v 1.875 2.981911 0.1704077
v 0.6112067 2.997001 0
v 1.888793 2.997001 0
v 1.888793 2.997001 0.1499988
v 0.6112067 2.997001 0.1499988
v 0.6112067 0 0.1499988
v 1.888793 0 0.1499988
v 1.888793 0 0
v 0.6112067 0 0
v 0 2.627217 0
v 0 2.627217 0.1499988
v 0 0.6837366 0.1499988
v 0 0.6837366 0
v 0 0 0
v 0 0.6837366 0
v 0 0.6837366 0.1499988
v 0 0 0.1499988
v 0 0.6619513 0.1636047
v 0 0.02178345 0.1636047
v 0 2.997001 0
v 0.6112072 2.997001 0
v 0.6112072 2.997001 0.1499988
v 0 2.997001 0.1499988
v 1.888793 6.103515E-07 0.1499988
v 2.499993 0 0.1499988
v 2.499993 0 0
v 1.888793 0 0
v 1.874376 0.02178345 0.1636047
v 2.499993 0.02178345 0.1636047
v 2.499993 0 0.1499988
v 1.888793 6.103515E-07 0.1499988
v 1.888793 0.6837366 0.1499988
v 2.499993 0.6837366 0.1499988
v 2.499993 0.6619513 0.1636047
v 1.874376 0.6619513 0.1636047
v 0 2.997001 0
v 0 2.627217 0.1499988
v 0 2.627217 0
v 0 2.997001 0.1499988
v 0 2.64765 0.1636047
v 0 2.967843 0.1636047
v 0 2.627217 0.1499988
v 0 2.64765 0.1636047
v 0.625625 2.64765 0.1636047
v 0.6112072 2.627217 0.1499988
v 0.625625 2.967843 0.1636023
v 0 2.967843 0.1636047
v 0 2.997001 0.1499988
v 0.6112072 2.997001 0.1499988
v 2.499993 0.6619513 0.1636047
v 2.499993 0.02178345 0.1636047
v 1.874376 0.02178345 0.1636047
v 1.874376 0.6619513 0.1636047
v 2.499993 2.627217 0.1499988
v 2.499993 2.64765 0.1636047
v 2.499993 2.967843 0.1636047
v 2.499993 2.997001 0.1499988
v 2.499993 2.627217 0
v 2.499993 2.997001 0
v 2.499993 0.6837366 0.1499988
v 2.499993 0.6837366 0
v 2.499993 0.02178345 0
v 2.499993 0 0.1499988
v 2.499993 0 0
v 2.499993 0.6619513 0.1636047
v 2.499993 0.02178345 0.1636047
v 0.625625 2.64765 0.1636047
v 0 2.64765 0.1636047
v 0 2.967843 0.1636047
v 0.625625 2.967843 0.1636023
v 1.888793 2.627217 0.1499988
v 2.499993 2.627217 0.1499988
v 2.499993 0.6837366 0.1499988
v 1.888793 0.6837366 0.1499988
v 0.6112067 0.6837366 0.1499988
v 0 0.6837366 0.1499988
v 0 2.627217 0.1499988
v 0.6112072 2.627217 0.1499988
v 1.874376 2.64765 0.1636047
v 2.499993 2.64765 0.1636047
v 2.499993 2.627217 0.1499988
v 1.888793 2.627217 0.1499988
v 2.499993 2.64765 0.1636047
v 1.874376 2.64765 0.1636047
v 1.874376 2.967843 0.1636023
v 2.499993 2.967843 0.1636047
v 2.499993 2.967843 0.1636047
v 1.874376 2.967843 0.1636023
v 1.888793 2.997001 0.1499988
v 2.499993 2.997001 0.1499988
v 1.888793 2.997001 0
v 2.499993 2.997001 0
v 2.499993 2.997001 0.1499988
v 1.888793 2.997001 0.1499988
v 0 0.6619513 0.1636047
v 0 0.6837366 0.1499988
v 0.6112067 0.6837366 0.1499988
v 0.6256244 0.6619489 0.1636047
v 0.6256244 0.02178284 0.1636047
v 0 0.02178345 0.1636047
v 0 0.6619513 0.1636047
v 0.6256244 0.6619489 0.1636047
v 0 0 0.1499988
v 0 0.02178345 0.1636047
v 0.6256244 0.02178284 0.1636047
v 0.6112067 0 0.1499988
v 0 0 0.1499988
v 0.6112067 0 0.1499988
v 0.6112067 0 1.220703E-06
v 0 0 0
vt 0.06346089 0.1502574
vt 0.06346734 0.1501979
vt 0.0634529 0.150193
vt 0.06346734 0.1501979
vt 0.06346115 0.1501591
vt 0.0634529 0.150193
vt 0.06271783 0.1508688
vt 0.06271544 0.1508276
vt 0.06269862 0.1508646
vt 0.06272625 0.1509449
vt 0.06271783 0.1508688
vt 0.06269862 0.1508646
vt 0.1028151 0.2531731
vt 0.1028151 0.2531731
vt 0.1028151 0.2531731
vt 0.1028151 0.2531731
vt 0.1028151 0.2531731
vt 0.1028151 0.2531731
vt 0.102815 0.2531731
vt 0.102815 0.2531731
vt 0.102815 0.2531731
vt 0.102815 0.2531731
vt 0.1028151 0.2531731
vt 0.102815 0.2531731
vt 0.102815 0.2531732
vt 0.102815 0.2531732
vt 0.102815 0.2531732
vt 0.102815 0.2531732
vt 0.102815 0.2531732
vt 0.102815 0.2531732
vt 0.102815 0.2531732
vt 0.102815 0.2531732
vt 0.102815 0.2531732
vt 0.06344523 0.1508749
vt 0.06272572 0.1510137
vt 0.06273419 0.151031
vt 0.06345916 0.1508897
vt 0.06346133 0.1500986
vt 0.06265622 0.150185
vt 0.06264764 0.1501743
vt 0.06344598 0.1500897
vt 0.1028151 0.2531732
vt 0.1028151 0.2531731
vt 0.1028151 0.2531731
vt 0.1028151 0.2531732
vt 0.102815 0.2531732
vt 0.1028151 0.2531732
vt 0.102815 0.2531732
vt 0.1028151 0.2531732
vt 0.1028151 0.2531732
vt 0.1028151 0.2531732
vt 0.1028151 0.2531732
vt 0.102815 0.2531732
vt 0.102815 0.2531732
vt 0.102815 0.2531732
vt 0.102815 0.2531732
vt 0.102815 0.2531732
vt 0.102815 0.2531732
vt 0.102815 0.2531732
vt 0.1028151 0.2531732
vt 0.102815 0.2531732
vt 0.102815 0.2531732
vt 0.1028151 0.2531732
vt 0.102815 0.2531731
vt 0.102815 0.2531731
vt 0.102815 0.2531731
vt 0.102815 0.2531731
vt 0.1028151 0.2531731
vt 0.1028151 0.2531731
vt 0.1028151 0.2531731
vt 0.1028151 0.2531731
vt 0.1028151 0.2531731
vt 0.1028151 0.2531731
vt 0.1028151 0.2531731
vt 0.102815 0.2531731
vt 0.1028151 0.2531731
vt 0.1028151 0.2531731
vt 0.1028151 0.2531731
vt 0.1028151 0.2531731
vt 0.102815 0.2531731
vt 0.102815 0.2531731
vt 0.102815 0.2531731
vt 0.102815 0.2531731
vt 0.102815 0.2531732
vt 0.102815 0.2531732
vt 0.102815 0.2531732
vt 0.102815 0.2531732
vt 0.102815 0.2531731
vt 0.1028151 0.2531732
vt 0.1028151 0.2531732
vt 0.1028151 0.2531731
vt 0.102815 0.2531732
vt 0.1028151 0.2531731
vt 0.1028151 0.2531731
vt 0.102815 0.2531731
vt 0.102815 0.2531731
vt 0.102815 0.2531731
vt 0.102815 0.2531731
vt 0.102815 0.2531732
vt 0.1028151 0.2531731
vt 0.1028151 0.2531731
vt 0.1028151 0.2531732
vt 0.1028151 0.2531731
vt 0.1028151 0.2531731
vt 0.06344598 0.1500897
vt 0.06346115 0.1501591
vt 0.06346133 0.1500986
vt 0.0634529 0.150193
vt 0.06344523 0.1508749
vt 0.06346089 0.1502574
vt 0.06345916 0.1508897
vt 0.06345916 0.1508897
vt 0.06346734 0.1501979
vt 0.06346089 0.1502574
vt 0.06348395 0.1509085
vt 0.06273419 0.151031
vt 0.06348898 0.1500624
vt 0.06346115 0.1501591
vt 0.06346133 0.1500986
vt 0.06270409 0.1510625
vt 0.06272625 0.1509449
vt 0.06261635 0.1501528
vt 0.06269862 0.1508646
vt 0.06265622 0.150185
vt 0.06271544 0.1508276
vt 0.102815 0.2531731
vt 0.102815 0.2531731
vt 0.1028151 0.2531731
vt 0.1028151 0.2531731
vt 0.06271783 0.1508688
vt 0.06272625 0.1509449
vt 0.06273419 0.151031
vt 0.06272572 0.1510137
vt 0.06264764 0.1501743
vt 0.06265622 0.150185
vt 0.06271544 0.1508276
vt 0.06333032 0.151408
vt 0.06333479 0.1514085
vt 0.06363755 0.1508763
vt 0.06362671 0.1508731
vt 0.06362671 0.1508731
vt 0.06363755 0.1508763
vt 0.06357437 0.1504102
vt 0.06357044 0.1504084
vt 0.06341499 0.1509011
vt 0.06341758 0.1509017
vt 0.06333479 0.1514085
vt 0.06333032 0.151408
vt 0.06357044 0.1504084
vt 0.06357437 0.1504102
vt 0.06341758 0.1509017
vt 0.06341499 0.1509011
vt 0.06378594 0.1496066
vt 0.06333831 0.1496054
vt 0.06332955 0.1495624
vt 0.06378654 0.1495638
vt 0.0637936 0.1505319
vt 0.06318438 0.150531
vt 0.06319988 0.1505616
vt 0.06379259 0.1505625
vt 0.06321719 0.1739391
vt 0.06321906 0.1739434
vt 0.06321844 0.1744999
vt 0.06321657 0.174494
vt 0.0631236 0.1519944
vt 0.06312361 0.1519944
vt 0.06312361 0.1519944
vt 0.0631236 0.1519944
vt 0.0631236 0.1519944
vt 0.0631236 0.1519944
vt 0.06338143 0.1507367
vt 0.06338143 0.1507367
vt 0.06338143 0.1507367
vt 0.06338143 0.1507367
vt 0.0631236 0.1519944
vt 0.0631236 0.1519944
vt 0.0631236 0.1519944
vt 0.0631236 0.1519944
vt 0.0631236 0.1519944
vt 0.0631236 0.1519944
vt 0.0631236 0.1519944
vt 0.0631236 0.1519944
vt 0.06312361 0.1519944
vt 0.0631236 0.1519944
vt 0.0631236 0.1519944
vt 0.0631236 0.1519944
vt 0.06338143 0.1507367
vt 0.06338143 0.1507367
vt 0.06338143 0.1507367
vt 0.06338143 0.1507367
vt 0.06338143 0.1507367
vt 0.06338143 0.1507367
vt 0.06338143 0.1507367
vt 0.06338143 0.1507367
vt 0.06338143 0.1507367
vt 0.06338143 0.1507367
vt 0.06338143 0.1507367
vt 0.06338143 0.1507367
vt 0.06338143 0.1507367
vt 0.06338143 0.1507367
vt 0.0631236 0.1519944
vt 0.0631236 0.1519944
vt 0.0631236 0.1519944
vt 0.0631236 0.1519944
vt 0.06293941 0.1739488
vt 0.06293947 0.173944
vt 0.06293935 0.1738858
vt 0.06293923 0.1738773
vt 0.06293839 0.173945
vt 0.06293821 0.1738738
vt 0.0629406 0.174508
vt 0.06293958 0.174513
vt 0.06293994 0.1746808
vt 0.06294096 0.1746926
vt 0.06294 0.1746866
vt 0.06294072 0.1745144
vt 0.06294107 0.1746873
vt 0.06338143 0.1507367
vt 0.06338143 0.1507367
vt 0.06338143 0.1507367
vt 0.06338143 0.1507367
vt 0.06276146 0.1738515
vt 0.06253582 0.1738549
vt 0.06254095 0.1748344
vt 0.06276174 0.1748298
vt 0.06316604 0.1748213
vt 0.06336299 0.1748172
vt 0.06336564 0.1738424
vt 0.06315725 0.1738455
vt 0.06338142 0.1507367
vt 0.06338142 0.1507367
vt 0.06338142 0.1507367
vt 0.06338142 0.1507367
vt 0.06338142 0.1507367
vt 0.06338142 0.1507367
vt 0.06338143 0.1507367
vt 0.06338142 0.1507367
vt 0.06338142 0.1507367
vt 0.06338143 0.1507367
vt 0.06338142 0.1507367
vt 0.06338142 0.1507367
vt 0.06338142 0.1507367
vt 0.06338142 0.1507367
vt 0.06338142 0.1507367
vt 0.06338142 0.1507367
vt 0.0631236 0.1519944
vt 0.06312361 0.1519944
vt 0.06312361 0.1519944
vt 0.0631236 0.1519944
vt 0.0631236 0.1519944
vt 0.0631236 0.1519944
vt 0.0631236 0.1519944
vt 0.0631236 0.1519944
vt 0.0631236 0.1519944
vt 0.0631236 0.1519944
vt 0.0631236 0.1519944
vt 0.0631236 0.1519944
vt 0.0631236 0.1519944
vt 0.0631236 0.1519944
vt 0.0631236 0.1519944
vt 0.0631236 0.1519944
vn 0.5703428 0.0681118 0.818578
vn 0.5703427 0.0681118 0.818578
vn 0.5703428 0.06811181 0.8185779
vn 0.5903518 -0.152419 0.7926244
vn 0.5903518 -0.152419 0.7926242
vn 0.5903518 -0.152419 0.7926244
vn -0.723002 -0.1465389 0.6751255
vn -0.7230019 -0.1465389 0.6751255
vn -0.7230019 -0.1465389 0.6751255
vn -0.7614981 0.1064547 0.6393654
vn -0.7614981 0.1064547 0.6393654
vn -0.7614981 0.1064547 0.6393654
vn 0.1060063 0.7142577 0.6918083
vn 0.1060063 0.7142577 0.6918082
vn 0.1060063 0.7142577 0.6918083
vn -0.09698956 0.674996 0.7314187
vn -0.09698957 0.674996 0.7314187
vn -0.09698957 0.674996 0.7314187
vn 0.1202409 -0.8411636 0.5272437
vn 0.1202409 -0.8411636 0.5272437
vn 0.1202409 -0.8411636 0.5272437
vn -0.07988262 -0.8242224 0.5606034
vn -0.07988262 -0.8242224 0.5606034
vn -0.07988261 -0.8242224 0.5606034
vn 0.5179101 -0.09172907 0.8505027
vn 0.5179101 -0.09172908 0.8505027
vn 0.5179102 -0.09172907 0.8505027
vn 0.5732466 0.1152068 0.8112433
vn 0.5732467 0.1152068 0.8112432
vn 0.5732466 0.1152068 0.8112433
vn 0.9927433 0 0.1202538
vn 0.9927433 0 0.1202538
vn 0.9927433 0 0.1202538
vn 0 1 0
vn 0 1 0
vn 0 1 0
vn 0 1 0
vn 0 -1 0
vn 0 -1 0
vn 0 -1 0
vn 0 -1 0
vn 0 1 0
vn 0 1 0
vn 0 1 0
vn 0 1 0
vn 0 1 0
vn 0 1 0
vn 0 1 0
vn -1 0 0
vn -1 0 0
vn -1 0 0
vn -1 0 0
vn 0.9998804 0.01192774 0.009837575
vn 0.9998804 0.01192774 0.009837575
vn 0.9998804 0.01192774 0.009837575
vn 0.9998804 0.01192774 0.009837574
vn 0.999927 -0.008181973 0.008885543
vn 0.999927 -0.008181973 0.008885543
vn 0.999927 -0.008181972 0.008885543
vn 0 -1 0
vn 0 -1 0
vn 0 -1 0
vn 0 -1 0
vn 0.02361365 -0.9974565 0.06725291
vn 0.04105525 -0.9985536 0.03471501
vn 0.04105525 -0.9985536 0.03471501
vn 0.001368661 -0.9951931 0.09792269
vn -0.01158237 -0.9996895 0.02206466
vn -0.01228626 -0.9997863 0.01662695
vn -0.01228625 -0.9997863 0.01662694
vn -1 0 0
vn -1 0 0
vn -1 0 0
vn -1 0 0
vn -0.0007816638 0.9928163 0.1196464
vn -0.02531669 0.9967371 0.07664323
vn -0.003058115 0.9932832 0.115669
vn -0.04240329 0.9980171 0.04651828
vn -0.04240329 0.9980171 0.04651828
vn 1 0 0
vn 1 0 0
vn 1 0 0
vn 1 0 0
vn 0 0 1
vn -1.068862E-05 0 1
vn 0 0 1
vn 0 0 1
vn 0 0 1
vn 0 0 1
vn 0 0 1
vn 0 0 1
vn -4.695068E-05 0 1
vn 0 0 1
vn 0 0 1
vn 0 0 1
vn 0 0 1
vn 0 0 1
vn 0 0 1
vn 0 0 1
vn 0 0 1
vn 0 0 1
vn 0 0 1
vn 0 0 1
vn 0 0 1
vn 0.9999853 -0.001696674 0.005148167
vn 0.9999965 -0.002060811 0.001616271
vn 0.9999965 -0.002060811 0.001616271
vn 0.9997937 -3.311403E-05 0.02031085
vn 0.999999 0.0005352483 0.001276082
vn 0.9999994 0.0005429361 0.0009840868
vn 0.9999994 0.0005429361 0.0009840868
vn 0 0 1
vn 0 0 1
vn 0 0 1
vn 0 0 1
vn 0 0 1
vn 0 0 1
vn 0 0 1
vn 0 0 1
vn 0 0 1
vn 0 0 1
vn 0 0 1
vn 0 0 1
vn 0 0 1
vn 0 0 1
vn 0.01395114 0.9997973 0.01452074
vn 0.01395114 0.9997973 0.01452075
vn 0.01395114 0.9997973 0.01452074
vn 0.01395114 0.9997973 0.01452074
vn -1 0 0
vn -1 0 0
vn -1 0 0
vn -1 0 0
vn -1 0 0
vn -1 0 0
vn -1 0 0
vn 0 -0.8040846 0.5945147
vn 0 -0.8040846 0.5945147
vn 0 -0.8040846 0.5945147
vn 0 -0.8040846 0.5945147
vn -0.8285228 0 0.5599552
vn -0.8285228 0 0.5599553
vn -0.8285228 0 0.5599553
vn -0.8285228 0 0.5599552
vn 0.8285228 0 0.5599552
vn 0.8285228 0 0.5599553
vn 0.8285228 0 0.5599553
vn 0.8285228 0 0.5599552
vn 0 0.8040846 0.5945148
vn 0 0.8040846 0.5945148
vn 0 0.8040846 0.5945148
vn 0 0.8040846 0.5945148
vn 0 1 0
vn 0 1 0
vn 0 1 0
vn 0 1 0
vn 0 -1 0
vn 0 -1 0
vn 0 -1 0
vn 0 -1 0
vn -1 0 0
vn -1 0 0
vn -1 0 0
vn -1 0 0
vn -1 0 0
vn -1 0 0
vn -1 0 0
vn -1 0 0
vn -1 0 0
vn -1 0 0
vn 0 1 0
vn 0 1 0
vn 0 1 0
vn 0 1 0
vn 0 -1 0
vn 0 -1 0
vn 0 -1 0
vn 0 -1 0
vn 0 -0.5297608 0.8481471
vn 0 -0.5297608 0.8481471
vn 0 -0.5297608 0.8481471
vn 0 -0.5297608 0.8481471
vn 0 0.5297233 0.8481705
vn 0 0.5297233 0.8481705
vn 0 0.5297233 0.8481705
vn 0 0.5297233 0.8481705
vn -1 0 0
vn -1 0 0
vn -1 0 0
vn -1 0 0
vn -1 0 0
vn -1 0 0
vn 0 -0.5542526 0.8323486
vn 0 -0.5542526 0.8323486
vn 0 -0.5542526 0.8323486
vn 0 -0.5542526 0.8323486
vn 0 0.4228297 0.9062092
vn 0 0.4228297 0.9062092
vn 0 0.4228297 0.9062092
vn 0 0.4228297 0.9062092
vn 0 0 1
vn 0 0 1
vn 0 0 1
vn 0 0 1
vn 1 0 0
vn 1 0 0
vn 1 0 0
vn 1 0 0
vn 1 0 0
vn 1 0 0
vn 1 0 0
vn 1 0 0
vn 1 0 0
vn 1 0 0
vn 1 0 0
vn 1 0 0
vn 1 0 0
vn 0 0 1
vn 0 0 1
vn 0 0 1
vn 0 0 1
vn 0 0 1
vn 0 0 1
vn 0 0 1
vn 0 0 1
vn 0 0 1
vn 0 0 1
vn 0 0 1
vn 0 0 1
vn 0 -0.5542467 0.8323524
vn 0 -0.5542467 0.8323524
vn 0 -0.5542467 0.8323524
vn 0 -0.5542467 0.8323524
vn 0 0 1
vn 0 0 1
vn 0 0 1
vn 0 0 1
vn 0 0.4228297 0.9062091
vn 0 0.4228298 0.9062092
vn 0 0.4228298 0.9062091
vn 0 0.4228298 0.9062091
vn 0 1 0
vn 0 1 0
vn 0 1 0
vn 0 1 0
vn 0 0.5297022 0.8481837
vn 0 0.5297022 0.8481837
vn 0 0.5297022 0.8481837
vn 0 0.5297022 0.8481837
vn 0 0 1
vn 0 0 1
vn 0 0 1
vn 0 0 1
vn 0 -0.5297607 0.8481472
vn 0 -0.5297607 0.8481472
vn 0 -0.5297607 0.8481472
vn 0 -0.5297607 0.8481472
vn 0 -1 0
vn 0 -1 0
vn 0 -1 0
vn 0 -1 0
g SM_Bld_Wall_Baseboard_Window_04_0
f 3/3/3 2/2/2 1/1/1
f 6/6/6 5/5/5 4/4/4
f 9/9/9 8/8/8 7/7/7
f 12/12/12 11/11/11 10/10/10
f 15/15/15 14/14/14 13/13/13
f 18/18/18 17/17/17 16/16/16
f 21/21/21 20/20/20 19/19/19
f 24/24/24 23/23/23 22/22/22
f 27/27/27 26/26/26 25/25/25
f 30/30/30 29/29/29 28/28/28
f 33/33/33 32/32/32 31/31/31
f 36/36/36 35/35/35 34/34/34
f 37/37/37 36/36/36 34/34/34
f 40/40/40 39/39/39 38/38/38
f 41/41/41 40/40/40 38/38/38
f 44/44/44 43/43/43 42/42/42
f 43/43/43 45/45/45 42/42/42
f 42/42/42 47/47/47 46/46/46
f 47/47/47 48/48/48 46/46/46
f 51/51/51 50/50/50 49/49/49
f 52/52/52 51/51/51 49/49/49
f 55/55/55 54/54/54 53/53/53
f 56/56/56 55/55/55 53/53/53
f 56/56/56 58/58/58 57/57/57
f 59/59/59 56/56/56 57/57/57
f 62/62/62 61/61/61 60/60/60
f 63/63/63 62/62/62 60/60/60
f 66/66/66 65/65/65 64/64/64
f 67/67/67 66/66/66 64/64/64
f 68/68/68 67/67/67 64/64/64
f 68/68/68 69/69/69 67/67/67
f 69/69/69 70/70/70 67/67/67
f 73/73/73 72/72/72 71/71/71
f 74/74/74 73/73/73 71/71/71
f 77/77/77 76/76/76 75/75/75
f 77/77/77 78/78/78 76/76/76
f 78/78/78 79/79/79 76/76/76
f 82/82/82 81/81/81 80/80/80
f 83/83/83 82/82/82 80/80/80
f 86/86/86 85/85/85 84/84/84
f 87/87/87 86/86/86 84/84/84
f 87/87/87 84/84/84 88/88/88
f 87/87/87 89/89/89 86/86/86
f 89/89/89 90/90/90 86/86/86
f 91/91/91 90/90/90 89/89/89
f 88/88/88 84/84/84 92/92/92
f 89/89/89 93/93/93 91/91/91
f 94/94/94 91/91/91 93/93/93
f 95/95/95 94/94/94 93/93/93
f 95/95/95 93/93/93 88/88/88
f 96/96/96 95/95/95 88/88/88
f 97/97/97 96/96/96 88/88/88
f 98/98/98 97/97/97 88/88/88
f 88/88/88 92/92/92 99/99/99
f 88/88/88 99/99/99 98/98/98
f 100/100/100 98/98/98 99/99/99
f 101/101/101 100/100/100 99/99/99
f 101/101/101 99/99/99 102/102/102
f 101/101/101 102/102/102 103/103/103
f 104/104/104 101/101/101 103/103/103
f 107/107/107 106/106/106 105/105/105
f 106/106/106 108/108/108 105/105/105
f 108/108/108 109/109/109 105/105/105
f 108/108/108 110/110/110 109/109/109
f 110/110/110 111/111/111 109/109/109
f 114/114/114 113/113/113 112/112/112
f 113/113/113 115/115/115 112/112/112
f 112/112/112 115/115/115 116/116/116
f 113/113/113 117/117/117 115/115/115
f 113/113/113 118/118/118 117/117/117
f 118/118/118 119/119/119 117/117/117
f 115/115/115 120/120/120 116/116/116
f 121/121/121 116/116/116 120/120/120
f 117/117/117 119/119/119 122/122/122
f 123/123/123 121/121/121 120/120/120
f 122/122/122 123/123/123 120/120/120
f 119/119/119 124/124/124 122/122/122
f 122/122/122 124/124/124 123/123/123
f 124/124/124 125/125/125 123/123/123
f 128/128/128 127/127/127 126/126/126
f 129/129/129 128/128/128 126/126/126
f 132/132/132 131/131/131 130/130/130
f 133/133/133 132/132/132 130/130/130
f 134/134/134 133/133/133 130/130/130
f 134/134/134 130/130/130 135/135/135
f 130/130/130 136/136/136 135/135/135
f 139/139/139 138/138/138 137/137/137
f 140/140/140 139/139/139 137/137/137
f 143/143/143 142/142/142 141/141/141
f 144/144/144 143/143/143 141/141/141
f 147/147/147 146/146/146 145/145/145
f 148/148/148 147/147/147 145/145/145
f 151/151/151 150/150/150 149/149/149
f 152/152/152 151/151/151 149/149/149
f 155/155/155 154/154/154 153/153/153
f 156/156/156 155/155/155 153/153/153
f 159/159/159 158/158/158 157/157/157
f 160/160/160 159/159/159 157/157/157
f 163/163/163 162/162/162 161/161/161
f 164/164/164 163/163/163 161/161/161
f 167/167/167 166/166/166 165/165/165
f 168/168/168 167/167/167 165/165/165
f 168/168/168 169/169/169 167/167/167
f 168/168/168 170/170/170 169/169/169
f 173/173/173 172/172/172 171/171/171
f 174/174/174 173/173/173 171/171/171
f 177/177/177 176/176/176 175/175/175
f 178/178/178 177/177/177 175/175/175
f 181/181/181 180/180/180 179/179/179
f 182/182/182 181/181/181 179/179/179
f 185/185/185 184/184/184 183/183/183
f 186/186/186 185/185/185 183/183/183
f 189/189/189 188/188/188 187/187/187
f 188/188/188 190/190/190 187/187/187
f 188/188/188 191/191/191 190/190/190
f 191/191/191 192/192/192 190/190/190
f 195/195/195 194/194/194 193/193/193
f 196/196/196 195/195/195 193/193/193
f 199/199/199 198/198/198 197/197/197
f 200/200/200 199/199/199 197/197/197
f 203/203/203 202/202/202 201/201/201
f 204/204/204 203/203/203 201/201/201
f 207/207/207 206/206/206 205/205/205
f 208/208/208 207/207/207 205/205/205
f 208/208/208 205/205/205 209/209/209
f 210/210/210 208/208/208 209/209/209
f 209/209/209 205/205/205 211/211/211
f 212/212/212 209/209/209 211/211/211
f 213/213/213 212/212/212 211/211/211
f 213/213/213 211/211/211 214/214/214
f 214/214/214 215/215/215 213/213/213
f 211/211/211 216/216/216 214/214/214
f 216/216/216 217/217/217 214/214/214
f 220/220/220 219/219/219 218/218/218
f 221/221/221 220/220/220 218/218/218
f 224/224/224 223/223/223 222/222/222
f 225/225/225 224/224/224 222/222/222
f 228/228/228 227/227/227 226/226/226
f 229/229/229 228/228/228 226/226/226
f 232/232/232 231/231/231 230/230/230
f 233/233/233 232/232/232 230/230/230
f 236/236/236 235/235/235 234/234/234
f 237/237/237 236/236/236 234/234/234
f 240/240/240 239/239/239 238/238/238
f 241/241/241 240/240/240 238/238/238
f 244/244/244 243/243/243 242/242/242
f 245/245/245 244/244/244 242/242/242
f 248/248/248 247/247/247 246/246/246
f 249/249/249 248/248/248 246/246/246
f 252/252/252 251/251/251 250/250/250
f 253/253/253 252/252/252 250/250/250
f 256/256/256 255/255/255 254/254/254
f 257/257/257 256/256/256 254/254/254
f 260/260/260 259/259/259 258/258/258
f 261/261/261 260/260/260 258/258/258
