g SM_Bld_House_Wall_04
v 0.09999999 2.8 0
v 0.09999999 0.09999999 0
v 0 2.8 0
v 0 0.09999999 0
v 0 2.8 0.2
v 0 0.09999999 0.2
v 0.09999999 2.8 0.2
v 0.09999999 0.09999999 0.2
v 0.09999999 1.607694 0
v 0 1.512996 0
v 0.09999999 1.713259 0.2
v 0 1.913921 0.2
v 0 1.238921 0.2
v 0 1.59217 0.15
v 0.02500048 1.657908 0.2
v 2.4 2.8 0.2
v 2.4 0.09999999 0.2
v 2.5 2.8 0.2
v 2.5 0.09999999 0.2
v 2.5 2.8 0
v 2.5 0.09999999 0
v 2.4 2.8 0
v 2.4 0.09999999 0
v 2.4 0.782832 0.2
v 2.5 0.658628 0
v 2.4 0.7336443 0
v 2.5 1.033782 0.2
v 2.5 0.49956 0.2
v 2.45373 0.7265697 0.2
v 2.5 0.6955186 0.15
v 0 0 0.2
v 2.5 0 0.2
v 0 0.09999999 0.2
v 2.5 0.09999999 0.2
v 0 0.09999999 0
v 2.5 0.09999999 0
v 0 0 0
v 2.5 0 0
v 0 2.8 0.2
v 2.5 2.8 0.2
v 0 2.9 0.2
v 2.5 2.9 0.2
v 0 2.9 0
v 2.5 2.9 0
v 0 2.8 0
v 2.5 2.8 0
v 0 0 1.66893E-08
v 2.5 0 1.66893E-08
v 0 2.9 1.66893E-08
v 2.5 2.9 1.66893E-08
v 0 2.9 -0.04999998
v 2.5 2.9 -0.04999998
v 0 0 -0.04999998
v 2.5 0 -0.04999998
v -1.525879E-07 0 0.25
v 2.499999 0 0.25
v -1.525879E-07 2.9 0.25
v 2.499999 2.9 0.25
v -1.525879E-07 2.9 0.2
v 2.499999 2.9 0.2
v -1.525879E-07 0 0.2
v 2.499999 0 0.2
v 0.09999999 2.8 0
v 0.09999999 1.607694 0
v 0.09999999 2.8 0.2
v 0 2.8 0
v 0.09999999 2.8 0
v 0 0.09999999 0
v 0.09999999 0.09999999 0
v 0.09999999 0.09999999 0
v 0.09999999 0.09999999 0.2
v 0 0.09999999 0.2
v 0 0.09999999 0
v 0 1.512996 0
v 0 1.59217 0.15
v 0.02500048 1.657908 0.2
v 0.09999999 1.713259 0.2
v 0.09999999 0.09999999 0.2
v 0 0.09999999 0.2
v 0 1.238921 0.2
v 0 2.8 0.2
v 0.09999999 2.8 0.2
v 0 1.913921 0.2
v 0 2.8 0
v 0 1.913921 0.2
v 0 2.8 0.2
v 0 1.59217 0.15
v 0.02500048 1.657908 0.2
v 0 1.238921 0.2
v 2.4 2.8 0
v 2.4 0.7336443 0
v 2.4 2.8 0
v 2.5 2.8 0
v 2.4 2.8 0.2
v 2.4 0.09999999 0
v 2.5 0.09999999 0
v 2.4 0.09999999 0.2
v 2.4 0.09999999 0
v 2.45373 0.7265697 0.2
v 2.5 0.09999999 0.2
v 2.4 0.09999999 0.2
v 2.4 0.782832 0.2
v 2.5 0.658628 0
v 2.5 0.09999999 0
v 2.5 0.09999999 0.2
v 2.5 0.49956 0.2
v 2.5 0.6955186 0.15
v 2.5 2.8 0
v 2.5 1.033782 0.2
v 2.5 2.8 0.2
v 2.4 2.8 0.2
v 2.5 2.8 0.2
v 2.5 1.033782 0.2
v 2.45373 0.7265697 0.2
v 2.5 0.6955186 0.15
v 2.5 0.49956 0.2
v 0 0.09999999 0.2
v 2.5 0.09999999 0.2
v 0 0.09999999 0
v 2.5 0.09999999 0
v 0 0 0
v 0 0 0.2
v 2.5 0 0.2
v 2.5 0 0
v 2.5 0 0.2
v 2.5 0.09999999 0.2
v 2.5 0.09999999 0
v 2.5 0 0
v 0 0 0
v 0 0.09999999 0
v 0 0.09999999 0.2
v 0 0 0.2
v 0 2.9 0.2
v 2.5 2.9 0.2
v 0 2.9 0
v 2.5 2.9 0
v 0 2.8 0
v 0 2.8 0.2
v 2.5 2.8 0.2
v 2.5 2.8 0
v 2.5 2.8 0.2
v 2.5 2.9 0.2
v 2.5 2.9 0
v 2.5 2.8 0
v 0 2.8 0
v 0 2.9 0
v 0 2.9 0.2
v 0 2.8 0.2
v 0 2.9 1.66893E-08
v 2.5 2.9 1.66893E-08
v 0 2.9 -0.04999998
v 2.5 2.9 -0.04999998
v 0 0 -0.04999998
v 0 0 1.66893E-08
v 2.5 0 1.66893E-08
v 2.5 0 -0.04999998
v 2.5 0 1.66893E-08
v 2.5 2.9 1.66893E-08
v 2.5 2.9 -0.04999998
v 2.5 0 -0.04999998
v 0 0 -0.04999998
v 0 2.9 -0.04999998
v 0 2.9 1.66893E-08
v 0 0 1.66893E-08
v -1.525879E-07 2.9 0.25
v 2.499999 2.9 0.25
v -1.525879E-07 2.9 0.2
v 2.499999 2.9 0.2
v -1.525879E-07 0 0.2
v -1.525879E-07 0 0.25
v 2.499999 0 0.25
v 2.499999 0 0.2
v 2.499999 0 0.25
v 2.499999 2.9 0.25
v 2.499999 2.9 0.2
v 2.499999 0 0.2
v -1.525879E-07 0 0.2
v -1.525879E-07 2.9 0.2
v -1.525879E-07 2.9 0.25
v -1.525879E-07 0 0.25
vt 0.03845215 0.3518066
vt 0.03747559 0.3518066
vt 0.03845215 0.3518066
vt 0.03747559 0.3518066
vt 0.03848267 0.3518066
vt 0.0375061 0.3518066
vt 0.03848267 0.3518066
vt 0.0375061 0.3518066
vt 0.0380249 0.3518066
vt 0.03799438 0.3518066
vt 0.03808594 0.3518066
vt 0.03826904 0.3518066
vt 0.03778076 0.3518066
vt 0.0380249 0.3518066
vt 0.03805542 0.3518066
vt 0.03845215 0.3518066
vt 0.03747559 0.3518066
vt 0.03845215 0.3518066
vt 0.03747559 0.3518066
vt 0.03848267 0.3518066
vt 0.0375061 0.3518066
vt 0.03848267 0.3518066
vt 0.0375061 0.3518066
vt 0.03771973 0.3518066
vt 0.03768921 0.3518066
vt 0.03771973 0.3518066
vt 0.03808594 0.3518066
vt 0.03759766 0.3518066
vt 0.03771973 0.3518066
vt 0.03768921 0.3518066
vt 0.03845215 0.3518066
vt 0.03747559 0.3518066
vt 0.03845215 0.3518066
vt 0.03747559 0.3515625
vt 0.03848267 0.3518066
vt 0.0375061 0.3515625
vt 0.03848267 0.3518066
vt 0.0375061 0.3515625
vt 0.03845215 0.3518066
vt 0.03747559 0.3518066
vt 0.03845215 0.3518066
vt 0.03747559 0.3518066
vt 0.03848267 0.3518066
vt 0.0375061 0.3518066
vt 0.03848267 0.3518066
vt 0.0375061 0.3518066
vt 0.7163086 0.001047134
vt 0.9306641 0.001047134
vt 0.7163086 0.2496338
vt 0.9306641 0.2496338
vt 0.7163086 0.2496338
vt 0.9306641 0.2496338
vt 0.7163086 0.001047134
vt 0.9306641 0.001047134
vt 0.7163086 0.001047134
vt 0.9311523 0.001047134
vt 0.7163086 0.2496338
vt 0.9311523 0.2496338
vt 0.7163086 0.2496338
vt 0.9311523 0.2496338
vt 0.7163086 0.001047134
vt 0.9311523 0.001047134
vt 0.03845215 0.3518066
vt 0.0380249 0.3518066
vt 0.03848267 0.3518066
vt 0.03845215 0.3518066
vt 0.03845215 0.3518066
vt 0.03747559 0.3518066
vt 0.03747559 0.3518066
vt 0.03747559 0.3518066
vt 0.0375061 0.3518066
vt 0.0375061 0.3518066
vt 0.03747559 0.3518066
vt 0.03799438 0.3518066
vt 0.0380249 0.3518066
vt 0.03805542 0.3518066
vt 0.03808594 0.3518066
vt 0.0375061 0.3518066
vt 0.0375061 0.3518066
vt 0.03778076 0.3518066
vt 0.03848267 0.3518066
vt 0.03848267 0.3518066
vt 0.03826904 0.3518066
vt 0.03845215 0.3518066
vt 0.03826904 0.3518066
vt 0.03848267 0.3518066
vt 0.0380249 0.3518066
vt 0.03805542 0.3518066
vt 0.03778076 0.3518066
vt 0.03848267 0.3518066
vt 0.03771973 0.3518066
vt 0.03848267 0.3518066
vt 0.03848267 0.3518066
vt 0.03845215 0.3518066
vt 0.0375061 0.3518066
vt 0.0375061 0.3518066
vt 0.03747559 0.3518066
vt 0.0375061 0.3518066
vt 0.03771973 0.3518066
vt 0.03747559 0.3518066
vt 0.03747559 0.3518066
vt 0.03771973 0.3518066
vt 0.03768921 0.3518066
vt 0.0375061 0.3518066
vt 0.03747559 0.3518066
vt 0.03759766 0.3518066
vt 0.03768921 0.3518066
vt 0.03848267 0.3518066
vt 0.03808594 0.3518066
vt 0.03845215 0.3518066
vt 0.03845215 0.3518066
vt 0.03845215 0.3518066
vt 0.03808594 0.3518066
vt 0.03771973 0.3518066
vt 0.03768921 0.3518066
vt 0.03759766 0.3518066
vt 0.03845215 0.3518066
vt 0.03747559 0.3515625
vt 0.03848267 0.3518066
vt 0.0375061 0.3515625
vt 0.03848267 0.3518066
vt 0.03845215 0.3518066
vt 0.03747559 0.3518066
vt 0.0375061 0.3515625
vt 0.03747559 0.3518066
vt 0.03747559 0.3515625
vt 0.0375061 0.3515625
vt 0.0375061 0.3515625
vt 0.03848267 0.3518066
vt 0.03848267 0.3518066
vt 0.03845215 0.3518066
vt 0.03845215 0.3518066
vt 0.03845215 0.3518066
vt 0.03747559 0.3518066
vt 0.03848267 0.3518066
vt 0.0375061 0.3518066
vt 0.03848267 0.3518066
vt 0.03845215 0.3518066
vt 0.03747559 0.3518066
vt 0.0375061 0.3518066
vt 0.03747559 0.3518066
vt 0.03747559 0.3518066
vt 0.0375061 0.3518066
vt 0.0375061 0.3518066
vt 0.03848267 0.3518066
vt 0.03848267 0.3518066
vt 0.03845215 0.3518066
vt 0.03845215 0.3518066
vt 0.7163086 0.2496338
vt 0.9306641 0.2496338
vt 0.7163086 0.2496338
vt 0.9306641 0.2496338
vt 0.7163086 0.001047134
vt 0.7163086 0.001047134
vt 0.9306641 0.001047134
vt 0.9306641 0.001047134
vt 0.9306641 0.001047134
vt 0.9306641 0.2496338
vt 0.9306641 0.2496338
vt 0.9306641 0.001047134
vt 0.7163086 0.001047134
vt 0.7163086 0.2496338
vt 0.7163086 0.2496338
vt 0.7163086 0.001047134
vt 0.7163086 0.2496338
vt 0.9311523 0.2496338
vt 0.7163086 0.2496338
vt 0.9311523 0.2496338
vt 0.7163086 0.001047134
vt 0.7163086 0.001047134
vt 0.9311523 0.001047134
vt 0.9311523 0.001047134
vt 0.9311523 0.001047134
vt 0.9311523 0.2496338
vt 0.9311523 0.2496338
vt 0.9311523 0.001047134
vt 0.7163086 0.001047134
vt 0.7163086 0.2496338
vt 0.7163086 0.2496338
vt 0.7163086 0.001047134
vn 0 0 -1
vn 0 -1 0
vn 0 0 -1
vn 0 -1 0
vn 0 1 0
vn 0 -1 0
vn 1 0 0
vn 0 -1 0
vn 0 0 -1
vn 0 0 -1
vn 1 0 0
vn -0.84375 -0.08239746 0.5302734
vn -1 0 0
vn -0.84375 -0.08239746 0.5302734
vn -0.84375 -0.08239746 0.5302734
vn -1 0 0
vn 0 -1 0
vn 0 1 0
vn 0 -1 0
vn 0 0 -1
vn 0 -1 0
vn 0 0 -1
vn 0 -1 0
vn -1 0 0
vn 0 0 -1
vn 0 0 -1
vn 0.6967773 -0.1049194 0.7099609
vn 0 0 1
vn 0.6967773 -0.1049194 0.7099609
vn 0.6967773 -0.1049194 0.7099609
vn 0 0 1
vn 0 0 1
vn 0 0 1
vn 0 0 1
vn 0 1 0
vn 0 1 0
vn 0 0 -1
vn 0 0 -1
vn 0 0 1
vn 0 0 1
vn 0 0 1
vn 0 0 1
vn 0 1 0
vn 0 1 0
vn 0 0 -1
vn 0 0 -1
vn 0 0 1
vn 0 0 1
vn 0 0 1
vn 0 0 1
vn 0 1 0
vn 0 1 0
vn 0 0 -1
vn 0 0 -1
vn 0 0 1
vn 0 0 1
vn 0 0 1
vn 0 0 1
vn 0 1 0
vn 0 1 0
vn 0 0 -1
vn 0 0 -1
vn 1 0 0
vn 1 0 0
vn 0 1 0
vn 0 1 0
vn 0 1 0
vn 0 0 -1
vn 0 0 -1
vn 1 0 0
vn 1 0 0
vn -1 0 0
vn -1 0 0
vn -1 0 0
vn -1 0 0
vn 0 0 1
vn 0 0 1
vn 0 0 1
vn 0 0 1
vn 0 0 1
vn 0 0 1
vn 0 0 1
vn 0 0 1
vn -1 0 0
vn -1 0 0
vn -1 0 0
vn -0.9199219 0.05490112 0.3879395
vn -0.9199219 0.05490112 0.3879395
vn -0.9199219 0.05490112 0.3879395
vn -1 0 0
vn -1 0 0
vn 0 1 0
vn 0 1 0
vn 0 1 0
vn 0 0 -1
vn 0 0 -1
vn -1 0 0
vn -1 0 0
vn 0 0 1
vn 0 0 1
vn 0 0 1
vn 0 0 1
vn 1 0 0
vn 1 0 0
vn 1 0 0
vn 1 0 0
vn 1 0 0
vn 1 0 0
vn 1 0 0
vn 1 0 0
vn 0 0 1
vn 0 0 1
vn 0 0 1
vn 0.7714844 0.1572266 0.6162109
vn 0.7714844 0.1572266 0.6162109
vn 0.7714844 0.1572266 0.6162109
vn 0 1 0
vn 0 1 0
vn 0 0 -1
vn 0 0 -1
vn 0 -1 0
vn 0 -1 0
vn 0 -1 0
vn 0 -1 0
vn 1 0 0
vn 1 0 0
vn 1 0 0
vn 1 0 0
vn -1 0 0
vn -1 0 0
vn -1 0 0
vn -1 0 0
vn 0 1 0
vn 0 1 0
vn 0 0 -1
vn 0 0 -1
vn 0 -1 0
vn 0 -1 0
vn 0 -1 0
vn 0 -1 0
vn 1 0 0
vn 1 0 0
vn 1 0 0
vn 1 0 0
vn -1 0 0
vn -1 0 0
vn -1 0 0
vn -1 0 0
vn 0 1 0
vn 0 1 0
vn 0 0 -1
vn 0 0 -1
vn 0 -1 0
vn 0 -1 0
vn 0 -1 0
vn 0 -1 0
vn 1 0 0
vn 1 0 0
vn 1 0 0
vn 1 0 0
vn -1 0 0
vn -1 0 0
vn -1 0 0
vn -1 0 0
vn 0 1 0
vn 0 1 0
vn 0 0 -1
vn 0 0 -1
vn 0 -1 0
vn 0 -1 0
vn 0 -1 0
vn 0 -1 0
vn 1 0 0
vn 1 0 0
vn 1 0 0
vn 1 0 0
vn -1 0 0
vn -1 0 0
vn -1 0 0
vn -1 0 0
g SM_Bld_House_Wall_04_0
f 15/15/15 12/12/12 14/14/14
f 89/89/89 88/88/88 87/87/87
f 30/30/30 27/27/27 29/29/29
f 116/116/116 115/115/115 114/114/114
f 10/10/10 3/3/3 1/1/1
f 9/9/9 10/10/10 1/1/1
f 9/9/9 69/69/69 10/10/10
f 69/69/69 68/68/68 10/10/10
f 64/64/64 63/63/63 7/7/7
f 11/11/11 64/64/64 7/7/7
f 11/11/11 71/71/71 64/64/64
f 71/71/71 70/70/70 64/64/64
f 6/6/6 4/4/4 2/2/2
f 8/8/8 6/6/6 2/2/2
f 66/66/66 5/5/5 65/65/65
f 67/67/67 66/66/66 65/65/65
f 73/73/73 72/72/72 13/13/13
f 13/13/13 74/74/74 73/73/73
f 13/13/13 75/75/75 74/74/74
f 84/84/84 74/74/74 75/75/75
f 75/75/75 85/85/85 84/84/84
f 85/85/85 86/86/86 84/84/84
f 76/76/76 80/80/80 79/79/79
f 76/76/76 79/79/79 78/78/78
f 78/78/78 77/77/77 76/76/76
f 81/81/81 76/76/76 77/77/77
f 77/77/77 82/82/82 81/81/81
f 81/81/81 83/83/83 76/76/76
f 26/26/26 22/22/22 20/20/20
f 25/25/25 26/26/26 20/20/20
f 25/25/25 96/96/96 26/26/26
f 96/96/96 95/95/95 26/26/26
f 24/24/24 16/16/16 90/90/90
f 91/91/91 24/24/24 90/90/90
f 91/91/91 98/98/98 24/24/24
f 98/98/98 97/97/97 24/24/24
f 21/21/21 19/19/19 17/17/17
f 23/23/23 21/21/21 17/17/17
f 18/18/18 93/93/93 92/92/92
f 94/94/94 18/18/18 92/92/92
f 100/100/100 28/28/28 99/99/99
f 99/99/99 101/101/101 100/100/100
f 99/99/99 102/102/102 101/101/101
f 111/111/111 102/102/102 99/99/99
f 111/111/111 99/99/99 113/113/113
f 113/113/113 112/112/112 111/111/111
f 105/105/105 104/104/104 103/103/103
f 103/103/103 106/106/106 105/105/105
f 103/103/103 107/107/107 106/106/106
f 107/107/107 103/103/103 108/108/108
f 108/108/108 109/109/109 107/107/107
f 108/108/108 110/110/110 109/109/109
f 34/34/34 33/33/33 31/31/31
f 32/32/32 34/34/34 31/31/31
f 36/36/36 35/35/35 117/117/117
f 118/118/118 36/36/36 117/117/117
f 38/38/38 37/37/37 119/119/119
f 120/120/120 38/38/38 119/119/119
f 123/123/123 122/122/122 121/121/121
f 124/124/124 123/123/123 121/121/121
f 127/127/127 126/126/126 125/125/125
f 128/128/128 127/127/127 125/125/125
f 131/131/131 130/130/130 129/129/129
f 132/132/132 131/131/131 129/129/129
f 42/42/42 41/41/41 39/39/39
f 40/40/40 42/42/42 39/39/39
f 44/44/44 43/43/43 133/133/133
f 134/134/134 44/44/44 133/133/133
f 46/46/46 45/45/45 135/135/135
f 136/136/136 46/46/46 135/135/135
f 139/139/139 138/138/138 137/137/137
f 140/140/140 139/139/139 137/137/137
f 143/143/143 142/142/142 141/141/141
f 144/144/144 143/143/143 141/141/141
f 147/147/147 146/146/146 145/145/145
f 148/148/148 147/147/147 145/145/145
f 50/50/50 49/49/49 47/47/47
f 48/48/48 50/50/50 47/47/47
f 52/52/52 51/51/51 149/149/149
f 150/150/150 52/52/52 149/149/149
f 54/54/54 53/53/53 151/151/151
f 152/152/152 54/54/54 151/151/151
f 155/155/155 154/154/154 153/153/153
f 156/156/156 155/155/155 153/153/153
f 159/159/159 158/158/158 157/157/157
f 160/160/160 159/159/159 157/157/157
f 163/163/163 162/162/162 161/161/161
f 164/164/164 163/163/163 161/161/161
f 58/58/58 57/57/57 55/55/55
f 56/56/56 58/58/58 55/55/55
f 60/60/60 59/59/59 165/165/165
f 166/166/166 60/60/60 165/165/165
f 62/62/62 61/61/61 167/167/167
f 168/168/168 62/62/62 167/167/167
f 171/171/171 170/170/170 169/169/169
f 172/172/172 171/171/171 169/169/169
f 175/175/175 174/174/174 173/173/173
f 176/176/176 175/175/175 173/173/173
f 179/179/179 178/178/178 177/177/177
f 180/180/180 179/179/179 177/177/177
