g SM_Bld_House_ExteriorWall_GroundFloor_Door_02
v 2.5 -0.1 0.2
v 2.5 -0.1 0.1334421
v 1.769404 -0.1254708 0.1334421
v 1.762254 -0.1 0.2
v 2.5 -0.5000001 0.1334421
v 2.5 -1.042785 0.1334421
v 1.644798 -1.042785 0.1334421
v 1.716537 -0.5262334 0.1334421
v 2.5 -0.1 0.1334421
v 1.769404 -0.1254708 0.1334421
v 0.7704688 -0.1 0.1334421
v 0.8166853 -0.4761094 0.1334421
v 0 -0.1 0.1334421
v 0.8793992 -1.042785 0.1334421
v 0 -0.5000001 0.1334421
v 0 -1.042785 0.1334421
v 0.7704688 -0.1 0.1334421
v 0 -0.1 0.1334421
v 0 -0.1 0.2
v 0.6990158 -0.07273747 0.2
v 1.769404 -0.1254708 0.1334421
v 0.7704688 -0.1 0.1334421
v 0.6990158 -0.07273747 0.2
v 1.762254 -0.1 0.2
v 0 2.9 0.2000001
v 0.7359651 2.284167 0.2000001
v 0 -0.1 0.2
v 2.5 2.9 0.2000001
v 1.800984 2.284167 0.2000001
v 2.5 -0.1 0.2
v 1.800984 0 0.2
v 1.762254 -0.1 0.2
v 0.7359691 0 0.2
v 0.6990158 -0.07273747 0.2
v 0 1.110223E-16 -5.960464E-08
v 0.7359691 2.220446E-16 -7.450581E-08
v 0.7359651 2.284167 -1.490116E-08
v -2.384186E-07 2.9 2.980232E-08
v 2.5 2.9 5.960464E-08
v 1.800984 2.284167 -1.490116E-08
v 2.5 3.330669E-16 -8.940697E-08
v 1.800984 2.775557E-18 -7.71135E-08
vt 0.4175854 0.4464165
vt 0.4175854 0.4464165
vt 0.4175854 0.4464165
vt 0.4175854 0.4464165
vt 0.4175854 0.4464165
vt 0.4175854 0.4464165
vt 0.4175854 0.4464165
vt 0.4175854 0.4464165
vt 0.4175854 0.4464165
vt 0.4175854 0.4464165
vt 0.4175854 0.4464165
vt 0.4175854 0.4464165
vt 0.4175854 0.4464165
vt 0.4175854 0.4464165
vt 0.4175854 0.4464165
vt 0.4175854 0.4464165
vt 0.4175854 0.4464165
vt 0.4175854 0.4464165
vt 0.4175854 0.4464165
vt 0.4175854 0.4464165
vt 0.4175854 0.4464165
vt 0.4175854 0.4464165
vt 0.4175854 0.4464165
vt 0.4175854 0.4464165
vt 0.668874 0.992842
vt 0.7155991 0.9527986
vt 0.668874 0.798997
vt 0.831126 0.992842
vt 0.78534 0.9527986
vt 0.831126 0.798997
vt 0.78534 0.8049097
vt 0.7899096 0.798997
vt 0.7155989 0.8049097
vt 0.709012 0.798997
vt 0.331126 0.75
vt 0.2900753 0.7499897
vt 0.2903917 0.9418188
vt 0.331126 0.992842
vt 0.168874 0.992842
vt 0.2115136 0.9418188
vt 0.168874 0.75
vt 0.2113882 0.7499897
vn 0.01703214 -0.9818699 0.1887889
vn 0.01703214 -0.9818699 0.1887889
vn 0.01703214 -0.9818699 0.1887889
vn 0.01703214 -0.9818699 0.1887889
vn 0 0 1
vn 0 0 1
vn 0 0 1
vn 0 0 1
vn 0 0 1
vn 0 0 1
vn 0 0 1
vn 0 0 1
vn 0 0 1
vn 0 0 1
vn 0 0 1
vn 0 0 1
vn 0.01813588 -0.9775462 0.2099395
vn 0.01813588 -0.9775462 0.2099395
vn 0.01813588 -0.9775462 0.2099395
vn 0.01813588 -0.9775462 0.2099395
vn -0.0238889 -0.9341918 0.3559707
vn -0.0238889 -0.9341918 0.3559707
vn -0.0238889 -0.9341918 0.3559707
vn -0.0238889 -0.9341918 0.3559707
vn 0 0 1
vn 0 0 1
vn 0 0 1
vn 0 0 1
vn 0 0 1
vn 0 0 1
vn 0 0 1
vn 0 0 1
vn 0 0 1
vn 0 0 1
vn 0 0 -1
vn 0 0 -1
vn 0 0 -1
vn 0 0 -1
vn 0 0 -1
vn 0 0 -1
vn 0 0 -1
vn 0 0 -1
g SM_Bld_House_ExteriorWall_GroundFloor_Door_02_0
f 3/3/3 2/2/2 1/1/1
f 4/4/4 3/3/3 1/1/1
f 7/7/7 6/6/6 5/5/5
f 8/8/8 7/7/7 5/5/5
f 8/8/8 5/5/5 9/9/9
f 10/10/10 8/8/8 9/9/9
f 10/10/10 11/11/11 8/8/8
f 8/8/8 12/12/12 7/7/7
f 11/11/11 12/12/12 8/8/8
f 11/11/11 13/13/13 12/12/12
f 12/12/12 14/14/14 7/7/7
f 13/13/13 15/15/15 12/12/12
f 12/12/12 15/15/15 14/14/14
f 15/15/15 16/16/16 14/14/14
f 19/19/19 18/18/18 17/17/17
f 20/20/20 19/19/19 17/17/17
f 23/23/23 22/22/22 21/21/21
f 24/24/24 23/23/23 21/21/21
f 27/27/27 26/26/26 25/25/25
f 25/25/25 26/26/26 28/28/28
f 26/26/26 29/29/29 28/28/28
f 29/29/29 30/30/30 28/28/28
f 29/29/29 31/31/31 30/30/30
f 32/32/32 30/30/30 31/31/31
f 27/27/27 33/33/33 26/26/26
f 32/32/32 31/31/31 33/33/33
f 34/34/34 33/33/33 27/27/27
f 34/34/34 32/32/32 33/33/33
g SM_Bld_House_ExteriorWall_GroundFloor_Door_02_1
f 37/37/37 36/36/36 35/35/35
f 37/37/37 35/35/35 38/38/38
f 37/37/37 38/38/38 39/39/39
f 40/40/40 37/37/37 39/39/39
f 41/41/41 40/40/40 39/39/39
f 41/41/41 42/42/42 40/40/40
