g SM_Bld_Pillar_Exterior_02
v -0.1955933 2.977134 0.1955933
v -0.1955933 0.2168518 0.1955933
v -0.1955933 0.2168518 0
v -0.1955933 2.977134 0
v -0.1955933 0.2168518 0
v -0.1955933 0.2168518 0.1955933
v -0.1854907 0.1939844 0.1854932
v -0.1854907 0.1939844 0
v -0.1854907 3.000001 0.1854932
v -0.1955933 2.977134 0.1955933
v -0.1955933 2.977134 0
v -0.1854907 3.000001 0
v -0.1854907 0.1939844 0.1854932
v -0.2141016 0.1397834 0.2141003
v -0.2141016 0.1397834 0
v -0.1854907 0.1939844 0
v -0.2141016 0.1397834 0.2141003
v -0.2141016 -1.145071E-08 0.2141003
v -0.2141016 -1.145071E-08 0
v -0.2141016 0.1397834 0
v 2.441406E-06 3.006542 0
v -0.1854907 3.000001 0
v -0.1955933 2.977134 0
v 2.441406E-06 2.977134 0
v 2.441406E-06 0.2168518 0
v -0.1955933 0.2168518 0
v -0.1854907 0.1939844 0
v 2.441406E-06 0.1939844 0
v -0.2141016 0.1397834 0
v 2.441406E-06 0.1397834 0
v -0.2141016 -1.145071E-08 0
v 2.441406E-06 -1.145071E-08 0
v -0.1854907 3.000001 0.1854932
v -0.1854907 3.000001 0
v 2.441406E-06 3.006542 0
v 2.441406E-06 3.000001 0.1854932
v 2.441406E-06 2.977134 0.1955933
v -0.1955933 2.977134 0.1955933
v -0.1854907 3.000001 0.1854932
v 2.441406E-06 3.000001 0.1854932
v 2.441406E-06 2.977134 0.1955933
v 2.441406E-06 0.2168518 0.1955933
v -0.1955933 0.2168518 0.1955933
v -0.1955933 2.977134 0.1955933
v -0.1854907 0.1939844 0.1854932
v -0.1955933 0.2168518 0.1955933
v 2.441406E-06 0.2168518 0.1955933
v 2.441406E-06 0.1939844 0.1854932
v 2.441406E-06 0.1397834 0.2141003
v -0.2141016 0.1397834 0.2141003
v -0.1854907 0.1939844 0.1854932
v 2.441406E-06 0.1939844 0.1854932
v 2.441406E-06 -1.145071E-08 0.2141003
v -0.2141016 -1.145071E-08 0.2141003
v -0.2141016 0.1397834 0.2141003
v 2.441406E-06 0.1397834 0.2141003
v -0.2141016 -1.145071E-08 0
v -0.2141016 -1.145071E-08 0.2141003
v 2.441406E-06 -1.145071E-08 0.2141003
v 2.441406E-06 -1.145071E-08 0
v 2.441406E-06 2.977134 0.1955933
v 2.441406E-06 3.000001 0.1854932
v 2.441406E-06 3.006542 0
v 2.441406E-06 2.977134 0
v 2.441406E-06 0.2168518 0
v 2.441406E-06 0.2168518 0.1955933
v 2.441406E-06 0.1939844 0.1854932
v 2.441406E-06 0.1939844 0
v 2.441406E-06 0.1397834 0.2141003
v 2.441406E-06 0.1397834 0
v 2.441406E-06 -1.145071E-08 0.2141003
v 2.441406E-06 -1.145071E-08 0
vt 0.1003418 0.9907227
vt 0.1003418 0.762207
vt 0.1245117 0.762207
vt 0.1245117 0.9907227
vt 0.01086426 0.7568359
vt 0.01087189 0.7568359
vt 0.01087189 0.7568359
vt 0.01086426 0.7568359
vt 0.01094818 0.7558594
vt 0.01095581 0.7558594
vt 0.01094055 0.7558594
vt 0.01094055 0.7558594
vt 0.01087189 0.7568359
vt 0.01087952 0.7568359
vt 0.01087189 0.7568359
vt 0.01086426 0.7568359
vt 0.01087952 0.7568359
vt 0.01087189 0.7568359
vt 0.01086426 0.7568359
vt 0.01087189 0.7568359
vt 0.01087189 0.7558594
vt 0.01094055 0.7558594
vt 0.01094055 0.7558594
vt 0.01086426 0.7558594
vt 0.01080322 0.7568359
vt 0.01086426 0.7568359
vt 0.01086426 0.7568359
vt 0.01080322 0.7568359
vt 0.01087189 0.7568359
vt 0.01079559 0.7568359
vt 0.01086426 0.7568359
vt 0.01079559 0.7568359
vt 0.01094818 0.7558594
vt 0.01094055 0.7558594
vt 0.01087189 0.7558594
vt 0.01087952 0.7558594
vt 0.01087952 0.7558594
vt 0.01095581 0.7558594
vt 0.01094818 0.7558594
vt 0.01087952 0.7558594
vt 0.1245117 0.9907227
vt 0.1245117 0.762207
vt 0.1003418 0.762207
vt 0.1003418 0.9907227
vt 0.01087189 0.7568359
vt 0.01087189 0.7568359
vt 0.01080322 0.7568359
vt 0.01080322 0.7568359
vt 0.01080322 0.7568359
vt 0.01087952 0.7568359
vt 0.01087189 0.7568359
vt 0.01080322 0.7568359
vt 0.01080322 0.7568359
vt 0.01087189 0.7568359
vt 0.01087952 0.7568359
vt 0.01080322 0.7568359
vt 0.01086426 0.7568359
vt 0.01087189 0.7568359
vt 0.01080322 0.7568359
vt 0.01079559 0.7568359
vt 0.01087952 0.7558594
vt 0.01087952 0.7558594
vt 0.01087189 0.7558594
vt 0.01086426 0.7558594
vt 0.01080322 0.7568359
vt 0.01080322 0.7568359
vt 0.01080322 0.7568359
vt 0.01080322 0.7568359
vt 0.01080322 0.7568359
vt 0.01079559 0.7568359
vt 0.01080322 0.7568359
vt 0.01079559 0.7568359
vn -1 0 0
vn -1 0 0
vn -1 0 0
vn -1 0 0
vn -0.9145508 -0.4040527 0
vn -0.9145508 -0.4040527 0
vn -0.9145508 -0.4040527 0
vn -0.9145508 -0.4040527 0
vn -0.9145508 0.4040527 0
vn -0.9145508 0.4040527 0
vn -0.9145508 0.4040527 0
vn -0.9145508 0.4040527 0
vn -0.8842773 0.4667969 0
vn -0.8842773 0.4667969 0
vn -0.8842773 0.4667969 0
vn -0.8842773 0.4667969 0
vn -1 0 0
vn -1 0 0
vn -1 0 0
vn -1 0 0
vn 0 0 -1
vn 0 0 -1
vn 0 0 -1
vn 0 0 -1
vn 0 0 -1
vn 0 0 -1
vn 0 0 -1
vn 0 0 -1
vn 0 0 -1
vn 0 0 -1
vn 0 0 -1
vn 0 0 -1
vn -0.0176239 0.9995117 0.0176239
vn -0.0352478 0.9995117 0
vn -0.0176239 0.9995117 0.0176239
vn 0 0.9995117 0.0352478
vn 0 0.4040527 0.9145508
vn 0 0.4040527 0.9145508
vn 0 0.4040527 0.9145508
vn 0 0.4040527 0.9145508
vn 0 0 1
vn 0 0 1
vn 0 0 1
vn 0 0 1
vn 0 -0.4040527 0.9145508
vn 0 -0.4040527 0.9145508
vn 0 -0.4040527 0.9145508
vn 0 -0.4040527 0.9145508
vn 0 0.4667969 0.8842773
vn 0 0.4667969 0.8842773
vn 0 0.4667969 0.8842773
vn 0 0.4667969 0.8842773
vn 0 0 1
vn 0 0 1
vn 0 0 1
vn 0 0 1
vn 0 -1 0
vn 0 -1 0
vn 0 -1 0
vn 0 -1 0
vn 1 0 0
vn 1 0 0
vn 1 0 0
vn 1 0 0
vn 1 0 0
vn 1 0 0
vn 1 0 0
vn 1 0 0
vn 1 0 0
vn 1 0 0
vn 1 0 0
vn 1 0 0
g SM_Bld_Pillar_Exterior_02_0
f 3/3/3 2/2/2 1/1/1
f 4/4/4 3/3/3 1/1/1
f 7/7/7 6/6/6 5/5/5
f 8/8/8 7/7/7 5/5/5
f 11/11/11 10/10/10 9/9/9
f 12/12/12 11/11/11 9/9/9
f 15/15/15 14/14/14 13/13/13
f 16/16/16 15/15/15 13/13/13
f 19/19/19 18/18/18 17/17/17
f 20/20/20 19/19/19 17/17/17
f 23/23/23 22/22/22 21/21/21
f 24/24/24 23/23/23 21/21/21
f 23/23/23 24/24/24 25/25/25
f 26/26/26 23/23/23 25/25/25
f 27/27/27 26/26/26 25/25/25
f 28/28/28 27/27/27 25/25/25
f 29/29/29 27/27/27 28/28/28
f 30/30/30 29/29/29 28/28/28
f 31/31/31 29/29/29 30/30/30
f 32/32/32 31/31/31 30/30/30
f 35/35/35 34/34/34 33/33/33
f 36/36/36 35/35/35 33/33/33
f 39/39/39 38/38/38 37/37/37
f 40/40/40 39/39/39 37/37/37
f 43/43/43 42/42/42 41/41/41
f 44/44/44 43/43/43 41/41/41
f 47/47/47 46/46/46 45/45/45
f 48/48/48 47/47/47 45/45/45
f 51/51/51 50/50/50 49/49/49
f 52/52/52 51/51/51 49/49/49
f 55/55/55 54/54/54 53/53/53
f 56/56/56 55/55/55 53/53/53
f 59/59/59 58/58/58 57/57/57
f 60/60/60 59/59/59 57/57/57
f 63/63/63 62/62/62 61/61/61
f 64/64/64 63/63/63 61/61/61
f 65/65/65 64/64/64 61/61/61
f 66/66/66 65/65/65 61/61/61
f 66/66/66 67/67/67 65/65/65
f 67/67/67 68/68/68 65/65/65
f 67/67/67 69/69/69 68/68/68
f 69/69/69 70/70/70 68/68/68
f 69/69/69 71/71/71 70/70/70
f 71/71/71 72/72/72 70/70/70
