g SM_Bld_Castle_Pillar_Wood_02
v -0.3315527 4.722291 0.331543
v 0 4.722291 0.3433008
v 0.3315527 4.722291 0.331543
v 0.3433203 4.722291 0
v 0.3315527 4.722291 -0.331543
v 0 4.722291 -0.3433203
v -0.3315527 4.722291 -0.331543
v -0.3433301 4.722291 0
v -0.3315527 0.3585657 0.331543
v 0 0.3585657 0.3433203
v 0.3315527 0.3585657 0.331543
v 0.3433301 0.3585633 0
v 0.3315527 0.3585633 -0.331543
v 0 0.3585633 -0.3433203
v -0.3315527 0.3585633 -0.331543
v -0.3433301 0.3585633 0
v -0.3998438 4.769597 0.3998242
v 0 4.769597 0.4140039
v 0 5.025641 0.4140429
v -0.3998438 5.025641 0.3998242
v -0.3998438 5.025641 -0.3998242
v 0 5.025641 -0.4140429
v 0 4.769596 -0.4140429
v -0.3998438 4.769596 -0.3998242
v 0.4140429 5.025641 0
v 0.4140332 4.769596 0
v 0.3998438 4.769596 -0.3998242
v 0.3998438 5.025641 -0.3998242
v -0.4140527 5.025641 0
v -0.4140527 4.769596 0
v 0 5.051283 -1.953125E-05
v 0.3998438 4.769597 0.3998242
v 0.3998438 5.025641 0.3998242
v 0 0 -1.953125E-05
v 0 0.02564134 -0.4140429
v 0.3998438 0.02564134 -0.3998242
v 0.4140429 0.02564134 0
v 0 0.02564134 0.4140429
v 0.3998438 0.02564134 0.3998242
v -0.4140527 0.02564134 0
v -0.3998438 0.02564134 -0.3998242
v -0.3998438 0.02564134 0.3998242
v 0 0.3112606 0.4140429
v -0.3998438 0.3112606 0.3998242
v 0.3998438 0.3112606 0.3998242
v 0.4140429 0.3112582 0
v 0.3998438 0.3112582 -0.3998242
v 0 0.3112582 -0.4140429
v -0.3998438 0.3112582 -0.3998242
v -0.4140527 0.3112582 0
v -0.3998438 5.025641 0.3998242
v -0.3998438 4.769597 0.3998242
v -0.3998438 5.025641 0.3998242
v 0 5.025641 0.4140429
v 0 5.051283 -1.953125E-05
v 0.3998438 5.025641 -0.3998242
v 0.4140429 5.025641 0
v -0.3998438 5.025641 -0.3998242
v 0 5.025641 -0.4140429
v -0.4140527 5.025641 0
v -0.3998438 4.769596 -0.3998242
v -0.3998438 5.025641 -0.3998242
v 0.3998438 4.769597 0.3998242
v 0.3998438 5.025641 0.3998242
v 0.3998438 4.769596 -0.3998242
v 0.3998438 5.025641 -0.3998242
v -0.3998438 5.025641 0.3998242
v 0.3998438 5.025641 0.3998242
v 0.3998438 5.025641 0.3998242
v 0.3315527 0.3585657 0.331543
v 0.3315527 4.722291 0.331543
v 0.3315527 0.3585633 -0.331543
v 0.3315527 4.722291 -0.331543
v -0.3315527 0.3585633 -0.331543
v -0.3315527 4.722291 -0.331543
v -0.3315527 4.722291 0.331543
v -0.3315527 0.3585657 0.331543
v -0.3998438 0.02564134 0.3998242
v 0 0.02564134 0.4140429
v 0.3998438 0.02564134 0.3998242
v 0.3998438 0.02564134 0.3998242
v 0.3998438 0.3112606 0.3998242
v 0.4140429 0.02564134 0
v 0.3998438 0.02564134 -0.3998242
v 0 0.02564134 -0.4140429
v 0.3998438 0.02564134 -0.3998242
v 0.3998438 0.3112582 -0.3998242
v -0.3998438 0.02564134 -0.3998242
v -0.3998438 0.02564134 -0.3998242
v -0.3998438 0.3112582 -0.3998242
v -0.4140527 0.02564134 0
v -0.3998438 0.3112606 0.3998242
v -0.3998438 0.02564134 0.3998242
v -0.3315527 4.722291 0.331543
v -0.3998438 4.769597 0.3998242
v 0 4.769597 0.4140039
v 0 4.722291 0.3433008
v 0 4.722291 -0.3433203
v 0 4.769596 -0.4140429
v -0.3998438 4.769596 -0.3998242
v -0.3315527 4.722291 -0.331543
v 0.3433203 4.722291 0
v 0.4140332 4.769596 0
v 0.3998438 4.769596 -0.3998242
v 0.3315527 4.722291 -0.331543
v -0.3433301 4.722291 0
v -0.4140527 4.769596 0
v -0.3998438 4.769597 0.3998242
v -0.3315527 4.722291 0.331543
v 0.3998438 4.769597 0.3998242
v 0.3315527 4.722291 0.331543
v -0.3315527 4.722291 -0.331543
v -0.3998438 4.769596 -0.3998242
v 0.3315527 4.722291 0.331543
v 0.3998438 4.769597 0.3998242
v 0.3315527 4.722291 -0.331543
v 0.3998438 4.769596 -0.3998242
v 0 0.3585657 0.3433203
v 0 0.3112606 0.4140429
v -0.3998438 0.3112606 0.3998242
v -0.3315527 0.3585657 0.331543
v 0.3315527 0.3585657 0.331543
v 0.3998438 0.3112606 0.3998242
v 0.3433301 0.3585633 0
v 0.4140429 0.3112582 0
v 0.3998438 0.3112606 0.3998242
v 0.3315527 0.3585657 0.331543
v 0.3315527 0.3585633 -0.331543
v 0.3998438 0.3112582 -0.3998242
v 0 0.3585633 -0.3433203
v 0 0.3112582 -0.4140429
v 0.3998438 0.3112582 -0.3998242
v 0.3315527 0.3585633 -0.331543
v -0.3315527 0.3585633 -0.331543
v -0.3998438 0.3112582 -0.3998242
v -0.3433301 0.3585633 0
v -0.4140527 0.3112582 0
v -0.3998438 0.3112582 -0.3998242
v -0.3315527 0.3585633 -0.331543
v -0.3315527 0.3585657 0.331543
v -0.3998438 0.3112606 0.3998242
vt 0.4956698 0.1802274
vt 0.4955896 0.1802278
vt 0.4955118 0.1802282
vt 0.495527 0.1802297
vt 0.4955464 0.1802311
vt 0.4956206 0.1802308
vt 0.4956951 0.1802304
vt 0.4956857 0.1802289
vt 0.4956506 0.1812274
vt 0.4955776 0.1812208
vt 0.4955067 0.1812122
vt 0.4955207 0.1811845
vt 0.4955387 0.1811589
vt 0.4956068 0.1811647
vt 0.4956749 0.1811723
vt 0.4956657 0.1811993
vt 0.4594727 0.1765054
vt 0.459388 0.1765059
vt 0.4593886 0.1764498
vt 0.4594738 0.1764488
vt 0.4594992 0.176457
vt 0.4594213 0.1764581
vt 0.4594205 0.1765099
vt 0.459498 0.1765094
vt 0.4593231 0.1764553
vt 0.4593229 0.1765085
vt 0.4593436 0.1765103
vt 0.4593439 0.176459
vt 0.4594899 0.176453
vt 0.4594887 0.1765075
vt 0.4594057 0.1764486
vt 0.4593064 0.1765065
vt 0.4593066 0.1764511
vt 0.4593927 0.1774133
vt 0.4594073 0.1773787
vt 0.4593374 0.1773724
vt 0.4593183 0.1774007
vt 0.459377 0.1774412
vt 0.4593032 0.1774316
vt 0.4594686 0.1774171
vt 0.4594778 0.1773873
vt 0.4594534 0.1774487
vt 0.4593776 0.17739
vt 0.4594544 0.1773972
vt 0.4593034 0.1773809
vt 0.4593185 0.1773516
vt 0.4593376 0.1773248
vt 0.4594081 0.1773309
vt 0.4594789 0.1773389
vt 0.4594697 0.1773673
vt 0.4594738 0.1764488
vt 0.4594727 0.1765054
vt 0.4594738 0.1764488
vt 0.4593886 0.1764498
vt 0.4594057 0.1764486
vt 0.4593439 0.176459
vt 0.4593231 0.1764553
vt 0.4594992 0.176457
vt 0.4594213 0.1764581
vt 0.4594899 0.176453
vt 0.459498 0.1765094
vt 0.4594992 0.176457
vt 0.4593064 0.1765065
vt 0.4593066 0.1764511
vt 0.4593436 0.1765103
vt 0.4593439 0.176459
vt 0.4594738 0.1764488
vt 0.4593066 0.1764511
vt 0.4593066 0.1764511
vt 0.4955067 0.1812122
vt 0.4955118 0.1802282
vt 0.4955387 0.1811589
vt 0.4955464 0.1802311
vt 0.4956749 0.1811723
vt 0.4956951 0.1802304
vt 0.4956698 0.1802274
vt 0.4956506 0.1812274
vt 0.4594534 0.1774487
vt 0.459377 0.1774412
vt 0.4593032 0.1774316
vt 0.4593032 0.1774316
vt 0.4593034 0.1773809
vt 0.4593183 0.1774007
vt 0.4593374 0.1773724
vt 0.4594073 0.1773787
vt 0.4593374 0.1773724
vt 0.4593376 0.1773248
vt 0.4594778 0.1773873
vt 0.4594778 0.1773873
vt 0.4594789 0.1773389
vt 0.4594686 0.1774171
vt 0.4594544 0.1773972
vt 0.4594534 0.1774487
vt 0.4594604 0.1765162
vt 0.4594727 0.1765054
vt 0.459388 0.1765059
vt 0.4593909 0.1765166
vt 0.4594178 0.1765192
vt 0.4594205 0.1765099
vt 0.459498 0.1765094
vt 0.4594823 0.1765187
vt 0.4593367 0.1765182
vt 0.4593229 0.1765085
vt 0.4593436 0.1765103
vt 0.4593536 0.1765195
vt 0.4594741 0.1765175
vt 0.4594887 0.1765075
vt 0.4594727 0.1765054
vt 0.4594604 0.1765162
vt 0.4593064 0.1765065
vt 0.4593236 0.1765169
vt 0.4594823 0.1765187
vt 0.459498 0.1765094
vt 0.4593236 0.1765169
vt 0.4593064 0.1765065
vt 0.4593536 0.1765195
vt 0.4593436 0.1765103
vt 0.4593805 0.1773761
vt 0.4593776 0.17739
vt 0.4594544 0.1773972
vt 0.4594438 0.1773819
vt 0.4593192 0.1773687
vt 0.4593034 0.1773809
vt 0.4593313 0.1773447
vt 0.4593185 0.1773516
vt 0.4593034 0.1773809
vt 0.4593192 0.1773687
vt 0.4593468 0.1773225
vt 0.4593376 0.1773248
vt 0.4594058 0.1773275
vt 0.4594081 0.1773309
vt 0.4593376 0.1773248
vt 0.4593468 0.1773225
vt 0.4594648 0.1773342
vt 0.4594789 0.1773389
vt 0.4594568 0.1773575
vt 0.4594697 0.1773673
vt 0.4594789 0.1773389
vt 0.4594648 0.1773342
vt 0.4594438 0.1773819
vt 0.4594544 0.1773972
vn -0.03546999 0 0.9993708
vn 0 0 1
vn 0.03546999 0 0.9993708
vn 1 0 0
vn 0.9993702 0 -0.03548574
vn 0 0 -1
vn -0.0354994 0 -0.9993697
vn -1 0 0
vn -0.03546999 0 0.9993708
vn 0 0 1
vn 0.03546999 0 0.9993708
vn 1 0 0
vn 0.9993702 0 -0.03548574
vn 0 0 -1
vn -0.0354994 0 -0.9993697
vn -1 0 0
vn -0.03548955 -7.623355E-05 0.99937
vn 0 -7.62816E-05 1
vn 0 -7.62816E-05 1
vn -0.03548955 -7.623355E-05 0.99937
vn -0.03553831 0 -0.9993684
vn 0 0 -1
vn 0 0 -1
vn -0.03553831 0 -0.9993684
vn 1 -1.906872E-05 0
vn 1 -1.906872E-05 0
vn 0.9993704 -1.905671E-05 -0.03547909
vn 0.9993704 -1.905671E-05 -0.03547909
vn -1 0 0
vn -1 0 0
vn 0 1 0
vn 0.03548955 -7.623355E-05 0.99937
vn 0.03548955 -7.623355E-05 0.99937
vn 0 -1 0
vn 0 -0.9980877 -0.06181369
vn 0.03203377 -0.9989734 -0.03203193
vn 0.06181077 -0.9980878 0
vn 0 -0.9980881 0.06180786
vn 0.03203044 -0.9989735 0.03203214
vn -0.06180932 -0.9980879 0
vn -0.03203383 -0.9989734 -0.03203186
vn -0.0320305 -0.9989735 0.03203208
vn 0 0 1
vn -0.03553831 0 0.9993684
vn 0.03553831 0 0.9993684
vn 1 0 0
vn 0.99937 0 -0.03549128
vn 0 0 -1
vn -0.0355383 0 -0.9993684
vn -1 0 0
vn -0.9993692 0 0.03551567
vn -0.9993692 0 0.03551567
vn -0.03203068 0.9989735 0.03203224
vn 0 0.9980879 0.06180819
vn 0 1 0
vn 0.03203394 0.9989734 -0.0320321
vn 0.06181109 0.9980878 0
vn -0.03203401 0.9989734 -0.03203204
vn 0 0.9980876 -0.06181399
vn -0.06180965 0.9980879 0
vn -0.9993692 0 -0.03551566
vn -0.9993692 0 -0.03551566
vn 0.9993704 -1.905673E-05 0.03547909
vn 0.9993704 -1.905672E-05 0.03547909
vn 0.03553831 0 -0.9993684
vn 0.03553831 0 -0.9993684
vn -0.03203068 0.9989735 0.03203224
vn 0.03203061 0.9989735 0.03203231
vn 0.03203061 0.9989735 0.03203231
vn 0.9993702 0 0.03548573
vn 0.9993702 0 0.03548573
vn 0.0354994 0 -0.9993697
vn 0.0354994 0 -0.9993697
vn -0.9993697 0 -0.03550044
vn -0.9993697 0 -0.03550044
vn -0.9993697 0 0.03550044
vn -0.9993697 0 0.03550044
vn -0.03553831 0 0.9993684
vn 0 0 1
vn 0.03553831 0 0.9993684
vn 0.99937 0 0.03549128
vn 0.99937 0 0.03549128
vn 1 0 0
vn 0.99937 0 -0.03549128
vn 0 0 -1
vn 0.0355383 0 -0.9993684
vn 0.0355383 0 -0.9993684
vn -0.0355383 0 -0.9993684
vn -0.9993692 0 -0.03551566
vn -0.9993692 0 -0.03551566
vn -1 0 0
vn -0.9993692 0 0.03551566
vn -0.9993692 0 0.03551566
vn -0.01971649 -0.8309658 0.5559741
vn -0.01971649 -0.8309657 0.555974
vn 0 -0.8311272 0.5560821
vn 0 -0.8311272 0.5560821
vn 0 -0.8311728 -0.5560142
vn 0 -0.8311728 -0.5560142
vn -0.01975861 -0.8310105 -0.5559057
vn -0.01975861 -0.8310105 -0.5559058
vn 0.5560247 -0.8311658 0
vn 0.5560248 -0.8311658 0
vn 0.5559165 -0.8310039 -0.01973009
vn 0.5559165 -0.8310039 -0.0197301
vn -0.5559908 -0.8311885 0
vn -0.5559908 -0.8311885 0
vn -0.5558821 -0.8310264 0.01975183
vn -0.5558821 -0.8310264 0.01975183
vn 0.01971649 -0.8309657 0.555974
vn 0.01971649 -0.8309658 0.5559741
vn -0.5558824 -0.8310262 -0.01975115
vn -0.5558824 -0.8310262 -0.01975115
vn 0.5559164 -0.8310041 0.01973077
vn 0.5559163 -0.8310041 0.01973077
vn 0.01975861 -0.8310105 -0.5559057
vn 0.01975861 -0.8310106 -0.5559057
vn 0 0.8311738 0.5560127
vn 0 0.8311738 0.5560127
vn -0.01975855 0.8310115 0.5559042
vn -0.01975855 0.8310115 0.5559042
vn 0.01975855 0.8310115 0.5559042
vn 0.01975855 0.8310115 0.5559042
vn 0.5560195 0.8311692 0
vn 0.5560196 0.8311692 0
vn 0.5559121 0.8310067 0.01973934
vn 0.555912 0.8310067 0.01973934
vn 0.5559105 0.8310077 -0.01974472
vn 0.5559105 0.8310077 -0.01974472
vn 0 0.8311735 -0.5560131
vn 0 0.8311735 -0.5560131
vn 0.01975857 0.8310112 -0.5559046
vn 0.01975857 0.8310112 -0.5559046
vn -0.01975857 0.8310112 -0.5559047
vn -0.01975857 0.8310112 -0.5559046
vn -0.5559906 0.8311886 0
vn -0.5559906 0.8311886 0
vn -0.5558813 0.831027 -0.01975111
vn -0.5558813 0.831027 -0.01975111
vn -0.555883 0.831026 0.01974572
vn -0.555883 0.831026 0.01974572
g SM_Bld_Castle_Pillar_Wood_02_0
f 19/19/19 20/20/20 17/17/17
f 18/18/18 19/19/19 17/17/17
f 18/18/18 32/32/32 19/19/19
f 32/32/32 33/33/33 19/19/19
f 23/23/23 24/24/24 21/21/21
f 22/22/22 23/23/23 21/21/21
f 23/23/23 22/22/22 65/65/65
f 22/22/22 66/66/66 65/65/65
f 27/27/27 28/28/28 25/25/25
f 26/26/26 27/27/27 25/25/25
f 26/26/26 25/25/25 63/63/63
f 25/25/25 64/64/64 63/63/63
f 52/52/52 51/51/51 29/29/29
f 30/30/30 52/52/52 29/29/29
f 30/30/30 29/29/29 61/61/61
f 29/29/29 62/62/62 61/61/61
f 54/54/54 31/31/31 53/53/53
f 54/54/54 69/69/69 31/31/31
f 60/60/60 67/67/67 55/55/55
f 60/60/60 55/55/55 58/58/58
f 59/59/59 58/58/58 55/55/55
f 59/59/59 55/55/55 56/56/56
f 57/57/57 56/56/56 55/55/55
f 57/57/57 55/55/55 68/68/68
f 2/2/2 1/1/1 9/9/9
f 10/10/10 2/2/2 9/9/9
f 2/2/2 10/10/10 3/3/3
f 10/10/10 11/11/11 3/3/3
f 4/4/4 71/71/71 70/70/70
f 12/12/12 4/4/4 70/70/70
f 4/4/4 12/12/12 5/5/5
f 12/12/12 13/13/13 5/5/5
f 6/6/6 73/73/73 72/72/72
f 14/14/14 6/6/6 72/72/72
f 6/6/6 14/14/14 7/7/7
f 14/14/14 15/15/15 7/7/7
f 8/8/8 75/75/75 74/74/74
f 16/16/16 8/8/8 74/74/74
f 8/8/8 16/16/16 76/76/76
f 16/16/16 77/77/77 76/76/76
f 43/43/43 44/44/44 78/78/78
f 79/79/79 43/43/43 78/78/78
f 43/43/43 79/79/79 45/45/45
f 79/79/79 80/80/80 45/45/45
f 46/46/46 82/82/82 81/81/81
f 83/83/83 46/46/46 81/81/81
f 46/46/46 83/83/83 47/47/47
f 83/83/83 84/84/84 47/47/47
f 87/87/87 86/86/86 85/85/85
f 48/48/48 87/87/87 85/85/85
f 48/48/48 85/85/85 49/49/49
f 85/85/85 88/88/88 49/49/49
f 50/50/50 90/90/90 89/89/89
f 91/91/91 50/50/50 89/89/89
f 50/50/50 91/91/91 92/92/92
f 91/91/91 93/93/93 92/92/92
f 96/96/96 95/95/95 94/94/94
f 97/97/97 96/96/96 94/94/94
f 110/110/110 96/96/96 97/97/97
f 111/111/111 110/110/110 97/97/97
f 101/101/101 100/100/100 98/98/98
f 100/100/100 99/99/99 98/98/98
f 98/98/98 99/99/99 116/116/116
f 99/99/99 117/117/117 116/116/116
f 105/105/105 104/104/104 102/102/102
f 104/104/104 103/103/103 102/102/102
f 102/102/102 103/103/103 114/114/114
f 103/103/103 115/115/115 114/114/114
f 109/109/109 108/108/108 106/106/106
f 108/108/108 107/107/107 106/106/106
f 106/106/106 107/107/107 112/112/112
f 107/107/107 113/113/113 112/112/112
f 121/121/121 120/120/120 118/118/118
f 120/120/120 119/119/119 118/118/118
f 118/118/118 119/119/119 122/122/122
f 119/119/119 123/123/123 122/122/122
f 127/127/127 126/126/126 124/124/124
f 126/126/126 125/125/125 124/124/124
f 124/124/124 125/125/125 128/128/128
f 125/125/125 129/129/129 128/128/128
f 133/133/133 132/132/132 130/130/130
f 132/132/132 131/131/131 130/130/130
f 130/130/130 131/131/131 134/134/134
f 131/131/131 135/135/135 134/134/134
f 139/139/139 138/138/138 136/136/136
f 138/138/138 137/137/137 136/136/136
f 136/136/136 137/137/137 140/140/140
f 137/137/137 141/141/141 140/140/140
f 35/35/35 36/36/36 34/34/34
f 37/37/37 34/34/34 36/36/36
f 35/35/35 34/34/34 41/41/41
f 37/37/37 39/39/39 34/34/34
f 40/40/40 41/41/41 34/34/34
f 38/38/38 34/34/34 39/39/39
f 40/40/40 34/34/34 42/42/42
f 38/38/38 42/42/42 34/34/34
