g SM_Bld_Elevator_01
v 1.895159 0.09935156 -1.887268
v 1.895159 0.09935156 -0.5603682
v 0.5625772 0.09935156 -0.5603682
v 0.5625772 0.09935156 -1.887268
v 2.335066 0.143205 -2.325302
v 2.294134 0.08248357 -2.284543
v 0.1636014 0.08248357 -2.284543
v 0.12267 0.143205 -2.325302
v 0.12267 0.143205 -2.325302
v 0.1636014 0.08248357 -2.284543
v 0.1636014 0.08248357 -0.1630941
v 0.12267 0.143205 -0.1223336
v 0.12267 0.143205 -0.1223336
v 0.1636014 0.08248357 -0.1630941
v 2.294134 0.08248357 -0.1630941
v 2.335066 0.143205 -0.1223336
v 2.335066 0.143205 -0.1223336
v 2.294134 0.08248357 -0.1630941
v 2.294134 0.08248357 -2.284543
v 2.335066 0.143205 -2.325302
v 2.294134 0.08248357 -2.284543
v 2.136839 0.08248357 -2.127919
v 0.3208975 0.08248357 -2.127919
v 0.1636014 0.08248357 -2.284543
v 0.1636014 0.08248357 -2.284543
v 0.3208975 0.08248357 -2.127919
v 0.3208975 0.08248357 -0.3197176
v 0.1636014 0.08248357 -0.1630941
v 0.1636014 0.08248357 -0.1630941
v 0.3208975 0.08248357 -0.3197176
v 2.136839 0.08248357 -0.3197176
v 2.294134 0.08248357 -0.1630941
v 2.294134 0.08248357 -0.1630941
v 2.136839 0.08248357 -0.3197176
v 2.136839 0.08248357 -2.127919
v 2.294134 0.08248357 -2.284543
v 2.136839 0.08248357 -2.127919
v 2.068368 0.1336216 -2.059741
v 0.3893679 0.1336216 -2.059741
v 0.3208975 0.08248357 -2.127919
v 0.3208975 0.08248357 -2.127919
v 0.3893679 0.1336216 -2.059741
v 0.3893679 0.1336216 -0.3878951
v 0.3208975 0.08248357 -0.3197176
v 0.3208975 0.08248357 -0.3197176
v 0.3893679 0.1336216 -0.3878951
v 2.068368 0.1336216 -0.3878951
v 2.136839 0.08248357 -0.3197176
v 2.136839 0.08248357 -0.3197176
v 2.068368 0.1336216 -0.3878951
v 2.068368 0.1336216 -2.059741
v 2.136839 0.08248357 -2.127919
v 1.932896 0.1336216 -1.924843
v 1.895159 0.09935156 -1.887268
v 0.5625772 0.09935156 -1.887268
v 0.5248404 0.1336216 -1.924843
v 0.5248404 0.1336216 -1.924843
v 0.5625772 0.09935156 -1.887268
v 0.5625772 0.09935156 -0.5603682
v 0.5248404 0.1336216 -0.5227925
v 0.5248404 0.1336216 -0.5227925
v 0.5625772 0.09935156 -0.5603682
v 1.895159 0.09935156 -0.5603682
v 1.932896 0.1336216 -0.5227925
v 1.932896 0.1336216 -0.5227925
v 1.895159 0.09935156 -0.5603682
v 1.895159 0.09935156 -1.887268
v 1.932896 0.1336216 -1.924843
v 2.457778 0.143205 -0.0001436249
v 2.457778 1.88583E-06 -0.000143582
v -4.24443E-05 1.88583E-06 -0.000143582
v -4.24443E-05 0.143205 -0.0001436249
v -4.24443E-05 0.143205 -2.447492
v -4.24443E-05 1.88583E-06 -2.447492
v 2.457778 1.88583E-06 -2.447492
v 2.457778 0.143205 -2.447492
v 2.457778 0.143205 -2.447492
v 2.457778 1.88583E-06 -2.447492
v 2.457778 1.88583E-06 -0.000143582
v 2.457778 0.143205 -0.0001436249
v -4.24443E-05 0.143205 -0.0001436249
v -4.24443E-05 1.88583E-06 -0.000143582
v -4.24443E-05 1.88583E-06 -2.447492
v -4.24443E-05 0.143205 -2.447492
v 2.457778 1.88583E-06 -0.000143582
v 2.457778 1.88583E-06 -2.447492
v -4.24443E-05 1.88583E-06 -2.447492
v -4.24443E-05 1.88583E-06 -0.000143582
v -4.24443E-05 0.143205 -2.447492
v 0.12267 0.143205 -0.1223336
v -4.24443E-05 0.143205 -0.0001436249
v 0.12267 0.143205 -2.325302
v 2.335066 0.143205 -0.1223336
v 2.457778 0.143205 -2.447492
v 2.457778 0.143205 -0.0001436249
v 2.335066 0.143205 -2.325302
v 2.068368 0.1336216 -2.059741
v 1.932896 0.1336216 -1.924843
v 0.5248404 0.1336216 -1.924843
v 0.3893679 0.1336216 -2.059741
v 2.068368 0.1336216 -0.3878951
v 0.5248404 0.1336216 -0.5227925
v 1.932896 0.1336216 -0.5227925
v 0.3893679 0.1336216 -0.3878951
vt 0.1137085 0.3024902
vt 0.1132813 0.3024902
vt 0.1137085 0.3027344
vt 0.1141357 0.3024902
vt 0.1137085 0.3024902
vt 0.1137085 0.3024902
vt 0.1141357 0.3024902
vt 0.1141357 0.3024902
vt 0.1141357 0.3024902
vt 0.1141357 0.3024902
vt 0.1137085 0.3027344
vt 0.1137085 0.3027344
vt 0.1137085 0.3027344
vt 0.1137085 0.3027344
vt 0.1132813 0.3024902
vt 0.1132813 0.3024902
vt 0.1132813 0.3024902
vt 0.1132813 0.3024902
vt 0.1137085 0.3024902
vt 0.1137085 0.3024902
vt 0.1137085 0.3024902
vt 0.1138306 0.3024902
vt 0.1143188 0.3024902
vt 0.1143799 0.3022461
vt 0.1143799 0.3022461
vt 0.1143188 0.3024902
vt 0.114502 0.3027344
vt 0.114624 0.3027344
vt 0.114624 0.3027344
vt 0.114502 0.3027344
vt 0.1137695 0.3027344
vt 0.1136475 0.3027344
vt 0.1136475 0.3027344
vt 0.1137695 0.3027344
vt 0.1138306 0.3024902
vt 0.1137085 0.3024902
vt 0.1137085 0.3024902
vt 0.1137085 0.3024902
vt 0.1141357 0.3024902
vt 0.1141357 0.3024902
vt 0.1141357 0.3024902
vt 0.1141357 0.3024902
vt 0.1137085 0.3027344
vt 0.1137085 0.3027344
vt 0.1137085 0.3027344
vt 0.1137085 0.3027344
vt 0.1132813 0.3024902
vt 0.1132813 0.3024902
vt 0.1132813 0.3024902
vt 0.1132813 0.3024902
vt 0.1137085 0.3024902
vt 0.1137085 0.3024902
vt 0.1137085 0.3024902
vt 0.1137085 0.3024902
vt 0.1141357 0.3024902
vt 0.1141357 0.3024902
vt 0.1141357 0.3024902
vt 0.1141357 0.3024902
vt 0.1137085 0.3027344
vt 0.1137085 0.3027344
vt 0.1137085 0.3027344
vt 0.1137085 0.3027344
vt 0.1132813 0.3024902
vt 0.1132813 0.3024902
vt 0.1132813 0.3024902
vt 0.1132813 0.3024902
vt 0.1137085 0.3024902
vt 0.1137085 0.3024902
vt 0.1141357 0.3027344
vt 0.1139526 0.3022461
vt 0.1139526 0.3022461
vt 0.1137695 0.3027344
vt 0.1141357 0.3027344
vt 0.1139526 0.3022461
vt 0.1139526 0.3022461
vt 0.1137695 0.3027344
vt 0.1141357 0.3027344
vt 0.1139526 0.3022461
vt 0.1139526 0.3022461
vt 0.1137695 0.3027344
vt 0.1141357 0.3027344
vt 0.1139526 0.3022461
vt 0.1139526 0.3022461
vt 0.1137695 0.3027344
vt 0.1139526 0.3022461
vt 0.1139526 0.3022461
vt 0.1139526 0.3022461
vt 0.1139526 0.3022461
vt 0.1141357 0.3024902
vt 0.1137085 0.3027344
vt 0.1137085 0.3027344
vt 0.1141357 0.3024902
vt 0.1132813 0.3024902
vt 0.1137085 0.3024902
vt 0.1132813 0.3024902
vt 0.1137085 0.3024902
vt 0.1137085 0.3024902
vt 0.1137085 0.3024902
vt 0.1141357 0.3024902
vt 0.1141357 0.3024902
vt 0.1132813 0.3024902
vt 0.1137085 0.3027344
vt 0.1132813 0.3024902
vt 0.1137085 0.3027344
vn 0 1 0
vn 0 1 0
vn 0 1 0
vn 0 1 0
vn 0 0.5571289 0.8300781
vn 0 0.5571289 0.8300781
vn 0 0.5571289 0.8300781
vn 0 0.5571289 0.8300781
vn 0.8291016 0.559082 0
vn 0.8291016 0.559082 0
vn 0.8291016 0.559082 0
vn 0.8291016 0.559082 0
vn 0 0.5571289 -0.8300781
vn 0 0.5571289 -0.8300781
vn 0 0.5571289 -0.8300781
vn 0 0.5571289 -0.8300781
vn -0.8291016 0.559082 0
vn -0.8291016 0.559082 0
vn -0.8291016 0.559082 0
vn -0.8291016 0.559082 0
vn 0 1 6.556511E-07
vn 0 1 6.556511E-07
vn 0 1 6.556511E-07
vn 0 1 6.556511E-07
vn 0 1 0
vn 0 1 0
vn 0 1 0
vn 0 1 0
vn 0 1 6.556511E-07
vn 0 1 6.556511E-07
vn 0 1 6.556511E-07
vn 0 1 6.556511E-07
vn 0 1 0
vn 0 1 0
vn 0 1 0
vn 0 1 0
vn 0 0.7998047 -0.6000977
vn 0 0.7998047 -0.6000977
vn 0 0.7998047 -0.6000977
vn 0 0.7998047 -0.6000977
vn -0.5986328 0.8012695 0
vn -0.5986328 0.8012695 0
vn -0.5986328 0.8012695 0
vn -0.5986328 0.8012695 0
vn 0 0.7998047 0.6000977
vn 0 0.7998047 0.6000977
vn 0 0.7998047 0.6000977
vn 0 0.7998047 0.6000977
vn 0.5986328 0.8012695 0
vn 0.5986328 0.8012695 0
vn 0.5986328 0.8012695 0
vn 0.5986328 0.8012695 0
vn 0 0.7387695 0.6738281
vn 0 0.7387695 0.6738281
vn 0 0.7387695 0.6738281
vn 0 0.7387695 0.6738281
vn 0.6723633 0.7402344 0
vn 0.6723633 0.7402344 0
vn 0.6723633 0.7402344 0
vn 0.6723633 0.7402344 0
vn 0 0.7387695 -0.6738281
vn 0 0.7387695 -0.6738281
vn 0 0.7387695 -0.6738281
vn 0 0.7387695 -0.6738281
vn -0.6723633 0.7402344 0
vn -0.6723633 0.7402344 0
vn -0.6723633 0.7402344 0
vn -0.6723633 0.7402344 0
vn 0 2.980232E-07 1
vn 0 2.980232E-07 1
vn 0 2.980232E-07 1
vn 0 2.980232E-07 1
vn 0 0 -1
vn 0 0 -1
vn 0 0 -1
vn 0 0 -1
vn 1 0 0
vn 1 0 0
vn 1 0 0
vn 1 0 0
vn -1 0 0
vn -1 0 0
vn -1 0 0
vn -1 0 0
vn 0 -1 0
vn 0 -1 0
vn 0 -1 0
vn 0 -1 0
vn 0 1 5.960464E-07
vn 0 1 0
vn 0 1 0
vn 0 1 5.960464E-07
vn 0 1 -5.960464E-07
vn 0 1 5.960464E-07
vn 0 1 -5.960464E-07
vn 0 1 5.960464E-07
vn 0 1 1.192093E-06
vn 0 1 1.192093E-06
vn 0 1 1.192093E-06
vn 0 1 1.192093E-06
vn 0 1 -1.192093E-06
vn 0 1 0
vn 0 1 -1.192093E-06
vn 0 1 0
g SM_Bld_Elevator_01_0
f 3/3/3 2/2/2 1/1/1
f 4/4/4 3/3/3 1/1/1
f 7/7/7 6/6/6 5/5/5
f 8/8/8 7/7/7 5/5/5
f 11/11/11 10/10/10 9/9/9
f 12/12/12 11/11/11 9/9/9
f 15/15/15 14/14/14 13/13/13
f 16/16/16 15/15/15 13/13/13
f 19/19/19 18/18/18 17/17/17
f 20/20/20 19/19/19 17/17/17
f 23/23/23 22/22/22 21/21/21
f 24/24/24 23/23/23 21/21/21
f 27/27/27 26/26/26 25/25/25
f 28/28/28 27/27/27 25/25/25
f 31/31/31 30/30/30 29/29/29
f 32/32/32 31/31/31 29/29/29
f 35/35/35 34/34/34 33/33/33
f 36/36/36 35/35/35 33/33/33
f 39/39/39 38/38/38 37/37/37
f 40/40/40 39/39/39 37/37/37
f 43/43/43 42/42/42 41/41/41
f 44/44/44 43/43/43 41/41/41
f 47/47/47 46/46/46 45/45/45
f 48/48/48 47/47/47 45/45/45
f 51/51/51 50/50/50 49/49/49
f 52/52/52 51/51/51 49/49/49
f 55/55/55 54/54/54 53/53/53
f 56/56/56 55/55/55 53/53/53
f 59/59/59 58/58/58 57/57/57
f 60/60/60 59/59/59 57/57/57
f 63/63/63 62/62/62 61/61/61
f 64/64/64 63/63/63 61/61/61
f 67/67/67 66/66/66 65/65/65
f 68/68/68 67/67/67 65/65/65
f 71/71/71 70/70/70 69/69/69
f 72/72/72 71/71/71 69/69/69
f 75/75/75 74/74/74 73/73/73
f 76/76/76 75/75/75 73/73/73
f 79/79/79 78/78/78 77/77/77
f 80/80/80 79/79/79 77/77/77
f 83/83/83 82/82/82 81/81/81
f 84/84/84 83/83/83 81/81/81
f 87/87/87 86/86/86 85/85/85
f 88/88/88 87/87/87 85/85/85
f 91/91/91 90/90/90 89/89/89
f 90/90/90 92/92/92 89/89/89
f 93/93/93 90/90/90 91/91/91
f 89/89/89 92/92/92 94/94/94
f 95/95/95 93/93/93 91/91/91
f 92/92/92 96/96/96 94/94/94
f 96/96/96 93/93/93 95/95/95
f 94/94/94 96/96/96 95/95/95
f 99/99/99 98/98/98 97/97/97
f 100/100/100 99/99/99 97/97/97
f 97/97/97 98/98/98 101/101/101
f 102/102/102 99/99/99 100/100/100
f 98/98/98 103/103/103 101/101/101
f 104/104/104 102/102/102 100/100/100
f 101/101/101 103/103/103 104/104/104
f 103/103/103 102/102/102 104/104/104
