g SM_Bld_Retainer_Wall_Stone_01_End_01
v -0.23095 0.5 0.1792509
v -0.2335321 0.6 -0.06771886
v -0.23095 0.5 -0.06771886
v -0.4619196 0.5 -0.06771881
v -0.3601426 0.6 0.1792509
v -0.4619196 0.6 -0.06771881
v -0.3123263 0.6 0.1792509
v -0.23095 0.575 0.1792509
v -0.2423599 0.6 0.1524563
v -0.4619196 0.5 0.09032238
v -0.3763666 0.5 0.1792509
v -0.4619196 0.5834617 0.09032238
v -0.3763666 0.5915002 0.1792509
v -0.4173997 0.6 0.06390096
v -0.23095 0.5748891 -0.06771886
v -0.4643022 0 0.09567086
v -0.4643022 0 0
v -0.4643022 0.125 0.09567086
v -0.4643022 0.125 0
v -0.3241705 0 0.1877511
v -0.3721343 0 0.1878388
v -0.3241705 0.125 0.1877511
v -0.3721343 0.125 0.1878388
v -0.2309696 0 0.09386615
v -0.2333324 0 0
v -0.2309696 0.125 0.09386615
v -0.2333324 0.125 0
v -0.4643022 0.25 0.09567086
v -0.4643022 0.25 0
v -0.4643022 0.375 0.09567086
v -0.4643022 0.375 0
v -0.3241705 0.25 0.1877511
v -0.3721343 0.25 0.1878388
v -0.3241705 0.375 0.1877511
v -0.3721343 0.375 0.1878388
v -0.2309696 0.25 0.09386615
v -0.2333324 0.25 0
v -0.2309696 0.375 0.09386615
v -0.2333324 0.375 0
v 5.722046E-08 0.375 0
v 5.722046E-08 0.375 0.09567085
v -0.135299 0.375 0.2309698
v -0.3266406 0.375 0.2309698
v -0.4619397 0.375 0.09567086
v -0.4619397 0.375 0
v 5.722046E-08 0.5 0
v 5.722046E-08 0.5 0.09567085
v -0.4619397 0.5 0.09567086
v -0.4619397 0.5 0
v -0.1014742 0.5 0.1971451
v -0.1831344 0.5 0.2309698
v -0.135299 0.46875 0.2309698
v -0.3469355 0.5 0.210675
v -0.3266406 0.487549 0.2309698
v -0.249234 0.5 0.2309698
v 5.722046E-08 0.125 0
v 5.722046E-08 0.125 0.09567085
v -0.135299 0.125 0.2309698
v -0.3266406 0.125 0.2309698
v -0.4619397 0.125 0.09567086
v -0.4619397 0.125 0
v 5.722046E-08 0.25 0
v 5.722046E-08 0.25 0.09567085
v -0.135299 0.25 0.2309698
v -0.3266406 0.25 0.2309698
v -0.4619397 0.25 0.09567086
v -0.4619397 0.25 0
v -0.23095 0.5 -0.06771886
v -0.4619196 0.5 -0.06771881
v -0.4619196 0.5 0.09032238
v -0.4619196 0.5 -0.06771881
v -0.3763666 0.5915002 0.1792509
v -0.23095 0.575 0.1792509
v -0.2423599 0.6 0.1524563
v -0.4619196 0.6 -0.06771881
v -0.23095 0.5 -0.06771886
v -0.23095 0.5 0.1792509
v -0.23095 0.575 0.1792509
v -0.23095 0.5748891 -0.06771886
v -0.3763666 0.5 0.1792509
v -0.4619196 0.5 0.09032238
v -0.4619196 0.5834617 0.09032238
v -0.3763666 0.5915002 0.1792509
v -0.4619196 0.5834617 0.09032238
v -0.4173997 0.6 0.06390096
v -0.3763666 0.5915002 0.1792509
v -0.3763666 0.5 0.1792509
v -0.23095 0.5 0.1792509
v -0.3601426 0.6 0.1792509
v -0.3123263 0.6 0.1792509
v -0.4173997 0.6 0.06390096
v -0.3601426 0.6 0.1792509
v -0.3123263 0.6 0.1792509
v -0.4619196 0.6 -0.06771881
v -0.23095 0.5748891 -0.06771886
v -0.23095 0.575 0.1792509
v -0.2423599 0.6 0.1524563
v -0.2335321 0.6 -0.06771886
v -0.2335321 0.6 -0.06771886
v -0.4619196 0.6 -0.06771881
v -0.4643022 0 0.09567086
v -0.4643022 0.125 0.09567086
v -0.4643022 0.125 0
v -0.4643022 0 0
v -0.4643022 0.125 0.09567086
v -0.4643022 0.125 0
v -0.2333324 0.125 0
v -0.3721343 0.125 0.1878388
v -0.3241705 0.125 0.1877511
v -0.2309696 0.125 0.09386615
v -0.3241705 0 0.1877511
v -0.3721343 0 0.1878388
v -0.3721343 0.125 0.1878388
v -0.3241705 0.125 0.1877511
v -0.2309696 0 0.09386615
v -0.2333324 0 0
v -0.4643022 0 0
v -0.4643022 0 0.09567086
v -0.3241705 0 0.1877511
v -0.3721343 0 0.1878388
v -0.2333324 0 0
v -0.2309696 0 0.09386615
v -0.2309696 0.125 0.09386615
v -0.2333324 0.125 0
v -0.4643022 0.25 0.09567086
v -0.4643022 0.375 0.09567086
v -0.4643022 0.375 0
v -0.4643022 0.25 0
v -0.4643022 0.375 0.09567086
v -0.4643022 0.375 0
v -0.2333324 0.375 0
v -0.3721343 0.375 0.1878388
v -0.3241705 0.375 0.1877511
v -0.2309696 0.375 0.09386615
v -0.3241705 0.25 0.1877511
v -0.3721343 0.25 0.1878388
v -0.3721343 0.375 0.1878388
v -0.3241705 0.375 0.1877511
v -0.2309696 0.25 0.09386615
v -0.2333324 0.25 0
v -0.4643022 0.25 0
v -0.4643022 0.25 0.09567086
v -0.3241705 0.25 0.1877511
v -0.3721343 0.25 0.1878388
v -0.2333324 0.25 0
v -0.2309696 0.25 0.09386615
v -0.2309696 0.375 0.09386615
v -0.2333324 0.375 0
v 5.722046E-08 0.5 0
v -0.4619397 0.5 0
v -0.4619397 0.375 0
v 5.722046E-08 0.375 0
v -0.4619397 0.375 0
v -0.4619397 0.375 0.09567086
v 5.722046E-08 0.375 0
v 5.722046E-08 0.375 0.09567085
v 5.722046E-08 0.5 0.09567085
v 5.722046E-08 0.375 0.09567085
v -0.135299 0.375 0.2309698
v -0.135299 0.46875 0.2309698
v -0.1014742 0.5 0.1971451
v -0.135299 0.46875 0.2309698
v -0.135299 0.375 0.2309698
v -0.3266406 0.375 0.2309698
v -0.1831344 0.5 0.2309698
v -0.249234 0.5 0.2309698
v -0.3266406 0.487549 0.2309698
v -0.3266406 0.487549 0.2309698
v -0.3266406 0.375 0.2309698
v -0.4619397 0.375 0.09567086
v -0.3469355 0.5 0.210675
v -0.4619397 0.5 0.09567086
v -0.4619397 0.5 0
v 5.722046E-08 0.5 0
v 5.722046E-08 0.5 0.09567085
v -0.1014742 0.5 0.1971451
v -0.1831344 0.5 0.2309698
v -0.249234 0.5 0.2309698
v -0.3469355 0.5 0.210675
v -0.4619397 0.5 0.09567086
v 5.722046E-08 0.125 0.09567085
v 5.722046E-08 0.25 0.09567085
v -0.135299 0.125 0.2309698
v -0.135299 0.25 0.2309698
v -0.3266406 0.125 0.2309698
v -0.3266406 0.25 0.2309698
v -0.4619397 0.125 0.09567086
v -0.4619397 0.25 0.09567086
v 5.722046E-08 0.25 0
v -0.4619397 0.25 0
v -0.4619397 0.125 0
v 5.722046E-08 0.125 0
v -0.4619397 0.125 0
v -0.4619397 0.125 0.09567086
v 5.722046E-08 0.125 0
v -0.3266406 0.125 0.2309698
v 5.722046E-08 0.125 0.09567085
v -0.135299 0.125 0.2309698
v 5.722046E-08 0.25 0
v 5.722046E-08 0.25 0.09567085
v -0.4619397 0.25 0
v -0.135299 0.25 0.2309698
v -0.4619397 0.25 0.09567086
v -0.3266406 0.25 0.2309698
vt 0.06671143 0.1629639
vt 0.06671143 0.1624756
vt 0.06671143 0.1627197
vt 0.0657959 0.1625977
vt 0.06573486 0.1627197
vt 0.06573486 0.1624756
vt 0.06622314 0.1627197
vt 0.06671143 0.1628418
vt 0.06671143 0.1625977
vt 0.06573486 0.1628418
vt 0.06573486 0.1628418
vt 0.06573486 0.1627197
vt 0.06573486 0.1627197
vt 0.0657959 0.1625977
vt 0.06671143 0.1625977
vt 0.06573486 0.1627197
vt 0.06573486 0.1625977
vt 0.06573486 0.1624756
vt 0.06573486 0.1624756
vt 0.065979 0.1628418
vt 0.06591797 0.1628418
vt 0.065979 0.1625977
vt 0.06591797 0.1625977
vt 0.06622314 0.1628418
vt 0.06616211 0.1627197
vt 0.06622314 0.1625977
vt 0.06616211 0.1624756
vt 0.06573486 0.1627197
vt 0.06573486 0.1625977
vt 0.06573486 0.1624756
vt 0.06573486 0.1624756
vt 0.065979 0.1628418
vt 0.06591797 0.1628418
vt 0.065979 0.1625977
vt 0.06591797 0.1625977
vt 0.06622314 0.1628418
vt 0.06616211 0.1627197
vt 0.06622314 0.1625977
vt 0.06616211 0.1624756
vt 0.06671143 0.1627197
vt 0.06671143 0.1628418
vt 0.06640625 0.1629639
vt 0.065979 0.1629639
vt 0.06573486 0.1627197
vt 0.06573486 0.1625977
vt 0.06671143 0.1624756
vt 0.06671143 0.1625977
vt 0.06573486 0.1624756
vt 0.06573486 0.1623535
vt 0.06658936 0.1627197
vt 0.06622314 0.1627197
vt 0.06640625 0.1628418
vt 0.06585693 0.1625977
vt 0.065979 0.1628418
vt 0.06610107 0.1627197
vt 0.06671143 0.1627197
vt 0.06671143 0.1628418
vt 0.06640625 0.1629639
vt 0.065979 0.1629639
vt 0.06573486 0.1627197
vt 0.06573486 0.1625977
vt 0.06671143 0.1624756
vt 0.06671143 0.1625977
vt 0.06640625 0.1627197
vt 0.065979 0.1627197
vt 0.06573486 0.1624756
vt 0.06573486 0.1623535
vt 0.06671143 0.1627197
vt 0.0657959 0.1625977
vt 0.06573486 0.1628418
vt 0.0657959 0.1625977
vt 0.06573486 0.1627197
vt 0.06671143 0.1628418
vt 0.06671143 0.1625977
vt 0.06573486 0.1624756
vt 0.06671143 0.1627197
vt 0.06671143 0.1629639
vt 0.06671143 0.1628418
vt 0.06671143 0.1625977
vt 0.06573486 0.1628418
vt 0.06573486 0.1628418
vt 0.06573486 0.1627197
vt 0.06573486 0.1627197
vt 0.06573486 0.1627197
vt 0.0657959 0.1625977
vt 0.06573486 0.1627197
vt 0.06573486 0.1628418
vt 0.06671143 0.1629639
vt 0.06573486 0.1627197
vt 0.06622314 0.1627197
vt 0.0657959 0.1625977
vt 0.06573486 0.1627197
vt 0.06622314 0.1627197
vt 0.06573486 0.1624756
vt 0.06671143 0.1625977
vt 0.06671143 0.1628418
vt 0.06671143 0.1625977
vt 0.06671143 0.1624756
vt 0.06671143 0.1624756
vt 0.06573486 0.1624756
vt 0.06573486 0.1627197
vt 0.06573486 0.1624756
vt 0.06573486 0.1624756
vt 0.06573486 0.1625977
vt 0.06573486 0.1624756
vt 0.06573486 0.1624756
vt 0.06616211 0.1624756
vt 0.06591797 0.1625977
vt 0.065979 0.1625977
vt 0.06622314 0.1625977
vt 0.065979 0.1628418
vt 0.06591797 0.1628418
vt 0.06591797 0.1625977
vt 0.065979 0.1625977
vt 0.06622314 0.1628418
vt 0.06616211 0.1627197
vt 0.06573486 0.1625977
vt 0.06573486 0.1627197
vt 0.065979 0.1628418
vt 0.06591797 0.1628418
vt 0.06616211 0.1627197
vt 0.06622314 0.1628418
vt 0.06622314 0.1625977
vt 0.06616211 0.1624756
vt 0.06573486 0.1627197
vt 0.06573486 0.1624756
vt 0.06573486 0.1624756
vt 0.06573486 0.1625977
vt 0.06573486 0.1624756
vt 0.06573486 0.1624756
vt 0.06616211 0.1624756
vt 0.06591797 0.1625977
vt 0.065979 0.1625977
vt 0.06622314 0.1625977
vt 0.065979 0.1628418
vt 0.06591797 0.1628418
vt 0.06591797 0.1625977
vt 0.065979 0.1625977
vt 0.06622314 0.1628418
vt 0.06616211 0.1627197
vt 0.06573486 0.1625977
vt 0.06573486 0.1627197
vt 0.065979 0.1628418
vt 0.06591797 0.1628418
vt 0.06616211 0.1627197
vt 0.06622314 0.1628418
vt 0.06622314 0.1625977
vt 0.06616211 0.1624756
vt 0.06671143 0.1624756
vt 0.06573486 0.1623535
vt 0.06573486 0.1625977
vt 0.06671143 0.1627197
vt 0.06573486 0.1625977
vt 0.06573486 0.1627197
vt 0.06671143 0.1627197
vt 0.06671143 0.1628418
vt 0.06671143 0.1625977
vt 0.06671143 0.1628418
vt 0.06640625 0.1629639
vt 0.06640625 0.1628418
vt 0.06658936 0.1627197
vt 0.06640625 0.1628418
vt 0.06640625 0.1629639
vt 0.065979 0.1629639
vt 0.06622314 0.1627197
vt 0.06610107 0.1627197
vt 0.065979 0.1628418
vt 0.065979 0.1628418
vt 0.065979 0.1629639
vt 0.06573486 0.1627197
vt 0.06585693 0.1625977
vt 0.06573486 0.1624756
vt 0.06573486 0.1623535
vt 0.06671143 0.1624756
vt 0.06671143 0.1625977
vt 0.06658936 0.1627197
vt 0.06622314 0.1627197
vt 0.06610107 0.1627197
vt 0.06585693 0.1625977
vt 0.06573486 0.1624756
vt 0.06671143 0.1628418
vt 0.06671143 0.1625977
vt 0.06640625 0.1629639
vt 0.06640625 0.1627197
vt 0.065979 0.1629639
vt 0.065979 0.1627197
vt 0.06573486 0.1627197
vt 0.06573486 0.1624756
vt 0.06671143 0.1624756
vt 0.06573486 0.1623535
vt 0.06573486 0.1625977
vt 0.06671143 0.1627197
vt 0.06573486 0.1625977
vt 0.06573486 0.1627197
vt 0.06671143 0.1627197
vt 0.065979 0.1629639
vt 0.06671143 0.1628418
vt 0.06640625 0.1629639
vt 0.06671143 0.1624756
vt 0.06671143 0.1625977
vt 0.06573486 0.1623535
vt 0.06640625 0.1627197
vt 0.06573486 0.1624756
vt 0.065979 0.1627197
vn 0 0 1
vn 0 1 0
vn 0 0 -1
vn 0 0 -1
vn -0.4521484 0.8632813 0.2244873
vn -1 0 0
vn 0.2330322 0.7587891 0.6083984
vn 0.2330322 0.7587891 0.6083984
vn 0.2330322 0.7587891 0.6083984
vn 0 -1 0
vn 0 0 1
vn -1 0 0
vn -0.4521484 0.8632813 0.2244873
vn -0.4521484 0.8632813 0.2244873
vn 0 0 -1
vn -1 0 0
vn -1 0 0
vn -1 0 0
vn -1 0 0
vn 0.7094727 0 0.7045898
vn -0.7070313 0 0.7070313
vn 0 1 0
vn -0.7070313 0 0.7070313
vn 0.7094727 0 0.7045898
vn 0 0 -1
vn 0 1 0
vn 0 0 -1
vn -1 0 0
vn -1 0 0
vn -1 0 0
vn -1 0 0
vn 0.7094727 0 0.7045898
vn -0.7070313 0 0.7070313
vn 0 1 0
vn -0.7070313 0 0.7070313
vn 0.7094727 0 0.7045898
vn 0 0 -1
vn 0 1 0
vn 0 0 -1
vn 1 0 0
vn 1 0 0
vn 0 -1 0
vn 0 -1 0
vn -1 0 0
vn -1 0 0
vn 1 0 0
vn 1 0 0
vn -1 0 0
vn -1 0 0
vn 0.3303223 0.5053711 0.7973633
vn 0.3303223 0.5053711 0.7973633
vn 0.3303223 0.5053711 0.7973633
vn -0.1262207 0.7841797 0.6074219
vn -0.1262207 0.7841797 0.6074219
vn -0.1262207 0.7841797 0.6074219
vn 1 0 0
vn 1 0 0
vn 0.7070313 0 0.7070313
vn 0 0 1
vn -0.7070313 0 0.7070313
vn -1 0 0
vn 1 0 0
vn 1 0 0
vn 0.7070313 0 0.7070313
vn 0 0 1
vn -0.7070313 0 0.7070313
vn -1 0 0
vn 0 -1 0
vn 0 -1 0
vn -1 0 0
vn -1 0 0
vn 0 0 1
vn 0 0 1
vn 0 1 0
vn 0 1 0
vn 1 0 0
vn 1 0 0
vn 1 0 0
vn 1 0 0
vn -0.7207031 0 0.6933594
vn -0.7207031 0 0.6933594
vn -0.7207031 0 0.6933594
vn -0.7207031 0 0.6933594
vn -0.2749023 0.9521484 0.1328125
vn -0.279541 0.9521484 0.1248169
vn -0.2578125 0.9526367 0.1618652
vn 0 -1 0
vn 0 -1 0
vn 0 0 1
vn 0 0 1
vn 0 1 0
vn 0 1 0
vn 0 1 0
vn -0.2941895 0.9506836 0.0994873
vn 0.9604492 0.277832 0.01808167
vn 0.9604492 0.277832 0.01808167
vn 0.9604492 0.277832 0.01808167
vn 0.9604492 0.277832 0.01808167
vn 0 0 -1
vn 0 0 -1
vn -0.7070313 0 0.7070313
vn -0.7070313 0 0.7070313
vn 0 0 -1
vn 0 0 -1
vn 0 1 0
vn 0 1 0
vn 0 1 0
vn 0 1 0
vn 0.7094727 0 0.7045898
vn 0.7094727 0 0.7045898
vn 0.001828194 0 1
vn 0.001828194 0 1
vn 0.001828194 0 1
vn 0.001828194 0 1
vn 0 -1 0
vn 0 -1 0
vn 0 -1 0
vn 0 -1 0
vn 0 -1 0
vn 0 -1 0
vn 0.9995117 0 -0.02516174
vn 0.9995117 0 -0.02516174
vn 0.9995117 0 -0.02516174
vn 0.9995117 0 -0.02516174
vn -0.7070313 0 0.7070313
vn -0.7070313 0 0.7070313
vn 0 0 -1
vn 0 0 -1
vn 0 1 0
vn 0 1 0
vn 0 1 0
vn 0 1 0
vn 0.7094727 0 0.7045898
vn 0.7094727 0 0.7045898
vn 0.001828194 0 1
vn 0.001828194 0 1
vn 0.001828194 0 1
vn 0.001828194 0 1
vn 0 -1 0
vn 0 -1 0
vn 0 -1 0
vn 0 -1 0
vn 0 -1 0
vn 0 -1 0
vn 0.9995117 0 -0.02516174
vn 0.9995117 0 -0.02516174
vn 0.9995117 0 -0.02516174
vn 0.9995117 0 -0.02516174
vn 0 0 -1
vn 0 0 -1
vn 0 0 -1
vn 0 0 -1
vn 0 -1 0
vn 0 -1 0
vn 0 -1 0
vn 0 -1 0
vn 0.7070313 0 0.7070313
vn 0.7070313 0 0.7070313
vn 0.7070313 0 0.7070313
vn 0.7070313 0 0.7070313
vn 0.7070313 0 0.7070313
vn 0 0 1
vn 0 0 1
vn 0 0 1
vn 0 0 1
vn 0 0 1
vn 0 0 1
vn -0.7070313 0 0.7070313
vn -0.7070313 0 0.7070313
vn -0.7070313 0 0.7070313
vn -0.7070313 0 0.7070313
vn -0.7070313 0 0.7070313
vn 0 1 0
vn 0 1 0
vn 0 1 0
vn 0 1 0
vn 0 1 0
vn 0 1 0
vn 0 1 0
vn 0 1 0
vn 0.7070313 0 0.7070313
vn 0.7070313 0 0.7070313
vn 0 0 1
vn 0 0 1
vn -0.7070313 0 0.7070313
vn -0.7070313 0 0.7070313
vn -1 0 0
vn -1 0 0
vn 0 0 -1
vn 0 0 -1
vn 0 0 -1
vn 0 0 -1
vn 0 -1 0
vn 0 -1 0
vn 0 -1 0
vn 0 -1 0
vn 0 -1 0
vn 0 -1 0
vn 0 1 0
vn 0 1 0
vn 0 1 0
vn 0 1 0
vn 0 1 0
vn 0 1 0
g SM_Bld_Retainer_Wall_Stone_01_End_01_0
f 7/7/7 8/8/8 9/9/9
f 14/14/14 13/13/13 5/5/5
f 50/50/50 51/51/51 52/52/52
f 53/53/53 54/54/54 55/55/55
f 3/3/3 4/4/4 15/15/15
f 15/15/15 4/4/4 99/99/99
f 4/4/4 100/100/100 99/99/99
f 10/10/10 69/69/69 68/68/68
f 87/87/87 10/10/10 68/68/68
f 88/88/88 87/87/87 68/68/68
f 71/71/71 70/70/70 12/12/12
f 6/6/6 71/71/71 12/12/12
f 72/72/72 11/11/11 1/1/1
f 73/73/73 72/72/72 1/1/1
f 89/89/89 72/72/72 73/73/73
f 90/90/90 89/89/89 73/73/73
f 2/2/2 75/75/75 74/74/74
f 74/74/74 75/75/75 91/91/91
f 91/91/91 92/92/92 74/74/74
f 92/92/92 93/93/93 74/74/74
f 78/78/78 77/77/77 76/76/76
f 79/79/79 78/78/78 76/76/76
f 82/82/82 81/81/81 80/80/80
f 83/83/83 82/82/82 80/80/80
f 86/86/86 85/85/85 84/84/84
f 84/84/84 85/85/85 94/94/94
f 97/97/97 96/96/96 95/95/95
f 98/98/98 97/97/97 95/95/95
f 19/19/19 17/17/17 16/16/16
f 18/18/18 19/19/19 16/16/16
f 101/101/101 21/21/21 23/23/23
f 102/102/102 101/101/101 23/23/23
f 103/103/103 27/27/27 25/25/25
f 104/104/104 103/103/103 25/25/25
f 107/107/107 106/106/106 105/105/105
f 105/105/105 26/26/26 107/107/107
f 105/105/105 22/22/22 26/26/26
f 105/105/105 108/108/108 22/22/22
f 110/110/110 109/109/109 20/20/20
f 24/24/24 110/110/110 20/20/20
f 113/113/113 112/112/112 111/111/111
f 114/114/114 113/113/113 111/111/111
f 117/117/117 116/116/116 115/115/115
f 115/115/115 118/118/118 117/117/117
f 115/115/115 119/119/119 118/118/118
f 119/119/119 120/120/120 118/118/118
f 123/123/123 122/122/122 121/121/121
f 124/124/124 123/123/123 121/121/121
f 31/31/31 29/29/29 28/28/28
f 30/30/30 31/31/31 28/28/28
f 125/125/125 33/33/33 35/35/35
f 126/126/126 125/125/125 35/35/35
f 127/127/127 39/39/39 37/37/37
f 128/128/128 127/127/127 37/37/37
f 131/131/131 130/130/130 129/129/129
f 129/129/129 38/38/38 131/131/131
f 129/129/129 34/34/34 38/38/38
f 129/129/129 132/132/132 34/34/34
f 134/134/134 133/133/133 32/32/32
f 36/36/36 134/134/134 32/32/32
f 137/137/137 136/136/136 135/135/135
f 138/138/138 137/137/137 135/135/135
f 141/141/141 140/140/140 139/139/139
f 139/139/139 142/142/142 141/141/141
f 139/139/139 143/143/143 142/142/142
f 143/143/143 144/144/144 142/142/142
f 147/147/147 146/146/146 145/145/145
f 148/148/148 147/147/147 145/145/145
f 47/47/47 41/41/41 40/40/40
f 46/46/46 47/47/47 40/40/40
f 49/49/49 45/45/45 44/44/44
f 48/48/48 49/49/49 44/44/44
f 151/151/151 150/150/150 149/149/149
f 152/152/152 151/151/151 149/149/149
f 155/155/155 154/154/154 153/153/153
f 43/43/43 154/154/154 155/155/155
f 156/156/156 43/43/43 155/155/155
f 156/156/156 42/42/42 43/43/43
f 159/159/159 158/158/158 157/157/157
f 160/160/160 159/159/159 157/157/157
f 157/157/157 161/161/161 160/160/160
f 164/164/164 163/163/163 162/162/162
f 165/165/165 164/164/164 162/162/162
f 164/164/164 165/165/165 166/166/166
f 167/167/167 164/164/164 166/166/166
f 170/170/170 169/169/169 168/168/168
f 171/171/171 170/170/170 168/168/168
f 170/170/170 171/171/171 172/172/172
f 175/175/175 174/174/174 173/173/173
f 176/176/176 175/175/175 173/173/173
f 177/177/177 176/176/176 173/173/173
f 178/178/178 177/177/177 173/173/173
f 179/179/179 178/178/178 173/173/173
f 180/180/180 179/179/179 173/173/173
f 63/63/63 57/57/57 56/56/56
f 62/62/62 63/63/63 56/56/56
f 64/64/64 58/58/58 181/181/181
f 182/182/182 64/64/64 181/181/181
f 65/65/65 59/59/59 183/183/183
f 184/184/184 65/65/65 183/183/183
f 66/66/66 60/60/60 185/185/185
f 186/186/186 66/66/66 185/185/185
f 67/67/67 61/61/61 187/187/187
f 188/188/188 67/67/67 187/187/187
f 191/191/191 190/190/190 189/189/189
f 192/192/192 191/191/191 189/189/189
f 195/195/195 194/194/194 193/193/193
f 196/196/196 194/194/194 195/195/195
f 197/197/197 196/196/196 195/195/195
f 197/197/197 198/198/198 196/196/196
f 201/201/201 200/200/200 199/199/199
f 202/202/202 200/200/200 201/201/201
f 203/203/203 202/202/202 201/201/201
f 203/203/203 204/204/204 202/202/202
