g SM_Bld_House_Wall_02
v 0.09999999 2.8 0
v 0.09999999 0.09999999 0
v 0 2.8 0
v 0 0.09999999 0
v 0 2.8 0.2
v 0 0.09999999 0.2
v 0.09999999 2.8 0.2
v 0.09999999 0.09999999 0.2
v 0.09999999 1.607694 0
v 0 1.512996 0
v 0.09999999 1.713259 0.2
v 0 1.913921 0.2
v 0 1.238921 0.2
v 0 1.59217 0.15
v 0.02500048 1.657908 0.2
v 1.7 1.379678 0.2
v 2.4 1.379678 0.2
v 1.7 1.479678 0.2
v 2.4 1.479678 0.2
v 1.7 1.479678 0
v 2.4 1.479678 0
v 1.7 1.379678 0
v 2.4 1.379678 0
v 2.4 2.8 0.2
v 2.4 0.09999999 0.2
v 2.5 2.8 0.2
v 2.5 0.09999999 0.2
v 2.5 2.8 0
v 2.5 0.09999999 0
v 2.4 2.8 0
v 2.4 0.09999999 0
v 2.4 0.782832 0.2
v 2.5 0.658628 0
v 2.4 0.7336443 0
v 2.5 1.033782 0.2
v 2.5 0.49956 0.2
v 2.45373 0.7265697 0.2
v 2.5 0.6955186 0.15
v 0.8 2.8 0.2
v 0.8 0.09999999 0.2
v 0.9 2.8 0.2
v 0.9 0.09999999 0.2
v 0.9 2.8 0
v 0.9 0.09999999 0
v 0.8 2.8 0
v 0.8 0.09999999 0
v 0 0 0.2
v 2.5 0 0.2
v 0 0.09999999 0.2
v 2.5 0.09999999 0.2
v 0 0.09999999 0
v 2.5 0.09999999 0
v 0 0 0
v 2.5 0 0
v 0 2.8 0.2
v 2.5 2.8 0.2
v 0 2.9 0.2
v 2.5 2.9 0.2
v 0 2.9 0
v 2.5 2.9 0
v 0 2.8 0
v 2.5 2.8 0
v 0.09999999 1.379678 0.2
v 0.8 1.379678 0.2
v 0.09999999 1.479678 0.2
v 0.8 1.479678 0.2
v 0.09999999 1.479678 0
v 0.8 1.479678 0
v 0.09999999 1.379678 0
v 0.8 1.379678 0
v 1.6 2.8 0.2
v 1.6 0.09999999 0.2
v 1.7 2.8 0.2
v 1.7 0.09999999 0.2
v 1.7 2.8 0
v 1.7 0.09999999 0
v 1.6 2.8 0
v 1.6 0.09999999 0
v 0.8999999 1.443734 0.2
v 1.6 1.443734 0.2
v 0.8999999 1.543734 0.2
v 1.6 1.543734 0.2
v 0.8999999 1.543734 0
v 1.6 1.543734 0
v 0.8999999 1.443734 0
v 1.6 1.443734 0
v 1.228518 1.443734 0.1770871
v 1.288879 1.543734 0.1770871
v 1.448797 1.543734 0
v 1.388436 1.443734 0
v -1.525879E-07 0 0.25
v 2.499999 0 0.25
v -1.525879E-07 2.9 0.25
v 2.499999 2.9 0.25
v -1.525879E-07 2.9 0.2
v 2.499999 2.9 0.2
v -1.525879E-07 0 0.2
v 2.499999 0 0.2
v 0.09999999 2.8 0
v 0.09999999 1.607694 0
v 0.09999999 2.8 0.2
v 0 2.8 0
v 0.09999999 2.8 0
v 0 0.09999999 0
v 0.09999999 0.09999999 0
v 0.09999999 0.09999999 0
v 0.09999999 0.09999999 0.2
v 0 1.59217 0.15
v 0 1.512996 0
v 0 0.09999999 0
v 0 0.09999999 0.2
v 0.09999999 1.713259 0.2
v 0.09999999 0.09999999 0.2
v 0.02500048 1.657908 0.2
v 0 1.238921 0.2
v 0 0.09999999 0.2
v 0 1.913921 0.2
v 0.09999999 2.8 0.2
v 0 2.8 0.2
v 0 2.8 0
v 0 1.913921 0.2
v 0 2.8 0.2
v 0 1.59217 0.15
v 0.02500048 1.657908 0.2
v 0 1.238921 0.2
v 1.7 1.479678 0.2
v 2.4 1.479678 0.2
v 1.7 1.479678 0
v 2.4 1.479678 0
v 1.7 1.379678 0
v 1.7 1.379678 0.2
v 2.4 1.379678 0.2
v 2.4 1.379678 0
v 2.4 1.379678 0.2
v 2.4 1.479678 0.2
v 2.4 1.479678 0
v 2.4 1.379678 0
v 1.7 1.379678 0
v 1.7 1.479678 0
v 1.7 1.479678 0.2
v 1.7 1.379678 0.2
v 2.4 2.8 0
v 2.4 0.7336443 0
v 2.4 2.8 0
v 2.5 2.8 0
v 2.4 2.8 0.2
v 2.4 0.09999999 0
v 2.5 0.09999999 0
v 2.4 0.09999999 0.2
v 2.4 0.09999999 0
v 2.4 0.782832 0.2
v 2.45373 0.7265697 0.2
v 2.4 0.09999999 0.2
v 2.5 0.09999999 0.2
v 2.5 0.09999999 0.2
v 2.5 0.49956 0.2
v 2.5 0.09999999 0
v 2.5 0.6955186 0.15
v 2.5 0.658628 0
v 2.5 2.8 0
v 2.5 1.033782 0.2
v 2.5 2.8 0.2
v 2.5 1.033782 0.2
v 2.4 2.8 0.2
v 2.5 2.8 0.2
v 2.45373 0.7265697 0.2
v 2.5 0.6955186 0.15
v 2.5 0.49956 0.2
v 0.9 2.8 0.2
v 0.9 0.09999999 0.2
v 0.9 2.8 0
v 0.9 0.09999999 0
v 0.8 2.8 0
v 0.8 2.8 0.2
v 0.8 0.09999999 0.2
v 0.8 0.09999999 0
v 0.8 0.09999999 0.2
v 0.9 0.09999999 0.2
v 0.9 0.09999999 0
v 0.8 0.09999999 0
v 0.8 2.8 0
v 0.9 2.8 0
v 0.9 2.8 0.2
v 0.8 2.8 0.2
v 0 0.09999999 0.2
v 2.5 0.09999999 0.2
v 0 0.09999999 0
v 2.5 0.09999999 0
v 0 0 0
v 0 0 0.2
v 2.5 0 0.2
v 2.5 0 0
v 2.5 0 0.2
v 2.5 0.09999999 0.2
v 2.5 0.09999999 0
v 2.5 0 0
v 0 0 0
v 0 0.09999999 0
v 0 0.09999999 0.2
v 0 0 0.2
v 0 2.9 0.2
v 2.5 2.9 0.2
v 0 2.9 0
v 2.5 2.9 0
v 0 2.8 0
v 0 2.8 0.2
v 2.5 2.8 0.2
v 2.5 2.8 0
v 2.5 2.8 0.2
v 2.5 2.9 0.2
v 2.5 2.9 0
v 2.5 2.8 0
v 0 2.8 0
v 0 2.9 0
v 0 2.9 0.2
v 0 2.8 0.2
v 0.09999999 1.479678 0.2
v 0.8 1.479678 0.2
v 0.09999999 1.479678 0
v 0.8 1.479678 0
v 0.09999999 1.379678 0
v 0.09999999 1.379678 0.2
v 0.8 1.379678 0.2
v 0.8 1.379678 0
v 0.8 1.379678 0.2
v 0.8 1.479678 0.2
v 0.8 1.479678 0
v 0.8 1.379678 0
v 0.09999999 1.379678 0
v 0.09999999 1.479678 0
v 0.09999999 1.479678 0.2
v 0.09999999 1.379678 0.2
v 1.7 2.8 0.2
v 1.7 0.09999999 0.2
v 1.7 2.8 0
v 1.7 0.09999999 0
v 1.6 2.8 0
v 1.6 2.8 0.2
v 1.6 0.09999999 0.2
v 1.6 0.09999999 0
v 1.6 0.09999999 0.2
v 1.7 0.09999999 0.2
v 1.7 0.09999999 0
v 1.6 0.09999999 0
v 1.6 2.8 0
v 1.7 2.8 0
v 1.7 2.8 0.2
v 1.6 2.8 0.2
v 0.8999999 1.543734 0.2
v 1.288879 1.543734 0.1770871
v 0.8999999 1.543734 0
v 1.448797 1.543734 0
v 1.388436 1.443734 0
v 0.8999999 1.443734 0
v 1.228518 1.443734 0.1770871
v 0.8999999 1.443734 0.2
v 0.8999999 1.443734 0
v 0.8999999 1.543734 0
v 0.8999999 1.543734 0.2
v 0.8999999 1.443734 0.2
v 1.228518 1.443734 0.1770871
v 1.288879 1.543734 0.1770871
v 1.6 1.443734 0.2
v 1.6 1.543734 0.2
v 1.6 1.543734 0
v 1.6 1.543734 0.2
v 1.6 1.443734 0
v 1.6 1.543734 0
v 1.6 1.443734 0.2
v 1.6 1.443734 0
v -1.525879E-07 2.9 0.25
v 2.499999 2.9 0.25
v -1.525879E-07 2.9 0.2
v 2.499999 2.9 0.2
v -1.525879E-07 0 0.2
v -1.525879E-07 0 0.25
v 2.499999 0 0.25
v 2.499999 0 0.2
v 2.499999 0 0.25
v 2.499999 2.9 0.25
v 2.499999 2.9 0.2
v 2.499999 0 0.2
v -1.525879E-07 0 0.2
v -1.525879E-07 2.9 0.2
v -1.525879E-07 2.9 0.25
v -1.525879E-07 0 0.25
vt 0.03845215 0.3518066
vt 0.03747559 0.3518066
vt 0.03845215 0.3518066
vt 0.03747559 0.3518066
vt 0.03848267 0.3518066
vt 0.0375061 0.3518066
vt 0.03848267 0.3518066
vt 0.0375061 0.3518066
vt 0.0380249 0.3518066
vt 0.03799438 0.3518066
vt 0.03808594 0.3518066
vt 0.03826904 0.3518066
vt 0.03778076 0.3518066
vt 0.0380249 0.3518066
vt 0.03805542 0.3518066
vt 0.03845215 0.3518066
vt 0.03747559 0.3518066
vt 0.03845215 0.3518066
vt 0.03747559 0.3515625
vt 0.03848267 0.3518066
vt 0.0375061 0.3515625
vt 0.03848267 0.3518066
vt 0.0375061 0.3515625
vt 0.03845215 0.3518066
vt 0.03747559 0.3518066
vt 0.03845215 0.3518066
vt 0.03747559 0.3518066
vt 0.03848267 0.3518066
vt 0.0375061 0.3518066
vt 0.03848267 0.3518066
vt 0.0375061 0.3518066
vt 0.03771973 0.3518066
vt 0.03768921 0.3518066
vt 0.03771973 0.3518066
vt 0.03808594 0.3518066
vt 0.03759766 0.3518066
vt 0.03771973 0.3518066
vt 0.03768921 0.3518066
vt 0.03845215 0.3518066
vt 0.03747559 0.3518066
vt 0.03845215 0.3518066
vt 0.03747559 0.3518066
vt 0.03848267 0.3518066
vt 0.0375061 0.3518066
vt 0.03848267 0.3518066
vt 0.0375061 0.3518066
vt 0.03845215 0.3518066
vt 0.03747559 0.3518066
vt 0.03845215 0.3518066
vt 0.03747559 0.3515625
vt 0.03848267 0.3518066
vt 0.0375061 0.3515625
vt 0.03848267 0.3518066
vt 0.0375061 0.3515625
vt 0.03845215 0.3518066
vt 0.03747559 0.3518066
vt 0.03845215 0.3518066
vt 0.03747559 0.3518066
vt 0.03848267 0.3518066
vt 0.0375061 0.3518066
vt 0.03848267 0.3518066
vt 0.0375061 0.3518066
vt 0.03845215 0.3518066
vt 0.03747559 0.3518066
vt 0.03845215 0.3518066
vt 0.03747559 0.3515625
vt 0.03848267 0.3518066
vt 0.0375061 0.3515625
vt 0.03848267 0.3518066
vt 0.0375061 0.3515625
vt 0.03845215 0.3518066
vt 0.03747559 0.3518066
vt 0.03845215 0.3518066
vt 0.03747559 0.3518066
vt 0.03848267 0.3518066
vt 0.0375061 0.3518066
vt 0.03848267 0.3518066
vt 0.0375061 0.3518066
vt 0.03845215 0.3518066
vt 0.03747559 0.3518066
vt 0.03845215 0.3518066
vt 0.03747559 0.3515625
vt 0.03848267 0.3518066
vt 0.0375061 0.3515625
vt 0.03848267 0.3518066
vt 0.0375061 0.3515625
vt 0.03799438 0.3518066
vt 0.03790283 0.3518066
vt 0.03771973 0.3515625
vt 0.03778076 0.3518066
vt 0.5009766 0.001047134
vt 0.715332 0.001047134
vt 0.5009766 0.2496338
vt 0.715332 0.2496338
vt 0.5009766 0.2496338
vt 0.715332 0.2496338
vt 0.5009766 0.001047134
vt 0.715332 0.001047134
vt 0.03845215 0.3518066
vt 0.0380249 0.3518066
vt 0.03848267 0.3518066
vt 0.03845215 0.3518066
vt 0.03845215 0.3518066
vt 0.03747559 0.3518066
vt 0.03747559 0.3518066
vt 0.03747559 0.3518066
vt 0.0375061 0.3518066
vt 0.0380249 0.3518066
vt 0.03799438 0.3518066
vt 0.03747559 0.3518066
vt 0.0375061 0.3518066
vt 0.03808594 0.3518066
vt 0.0375061 0.3518066
vt 0.03805542 0.3518066
vt 0.03778076 0.3518066
vt 0.0375061 0.3518066
vt 0.03826904 0.3518066
vt 0.03848267 0.3518066
vt 0.03848267 0.3518066
vt 0.03845215 0.3518066
vt 0.03826904 0.3518066
vt 0.03848267 0.3518066
vt 0.0380249 0.3518066
vt 0.03805542 0.3518066
vt 0.03778076 0.3518066
vt 0.03845215 0.3518066
vt 0.03747559 0.3515625
vt 0.03848267 0.3518066
vt 0.0375061 0.3515625
vt 0.03848267 0.3518066
vt 0.03845215 0.3518066
vt 0.03747559 0.3518066
vt 0.0375061 0.3515625
vt 0.03747559 0.3518066
vt 0.03747559 0.3515625
vt 0.0375061 0.3515625
vt 0.0375061 0.3515625
vt 0.03848267 0.3518066
vt 0.03848267 0.3518066
vt 0.03845215 0.3518066
vt 0.03845215 0.3518066
vt 0.03848267 0.3518066
vt 0.03771973 0.3518066
vt 0.03848267 0.3518066
vt 0.03848267 0.3518066
vt 0.03845215 0.3518066
vt 0.0375061 0.3518066
vt 0.0375061 0.3518066
vt 0.03747559 0.3518066
vt 0.0375061 0.3518066
vt 0.03771973 0.3518066
vt 0.03771973 0.3518066
vt 0.03747559 0.3518066
vt 0.03747559 0.3518066
vt 0.03747559 0.3518066
vt 0.03759766 0.3518066
vt 0.0375061 0.3518066
vt 0.03768921 0.3518066
vt 0.03768921 0.3518066
vt 0.03848267 0.3518066
vt 0.03808594 0.3518066
vt 0.03845215 0.3518066
vt 0.03808594 0.3518066
vt 0.03845215 0.3518066
vt 0.03845215 0.3518066
vt 0.03771973 0.3518066
vt 0.03768921 0.3518066
vt 0.03759766 0.3518066
vt 0.03845215 0.3518066
vt 0.03747559 0.3518066
vt 0.03848267 0.3518066
vt 0.0375061 0.3518066
vt 0.03848267 0.3518066
vt 0.03845215 0.3518066
vt 0.03747559 0.3518066
vt 0.0375061 0.3518066
vt 0.03747559 0.3518066
vt 0.03747559 0.3518066
vt 0.0375061 0.3518066
vt 0.0375061 0.3518066
vt 0.03848267 0.3518066
vt 0.03848267 0.3518066
vt 0.03845215 0.3518066
vt 0.03845215 0.3518066
vt 0.03845215 0.3518066
vt 0.03747559 0.3515625
vt 0.03848267 0.3518066
vt 0.0375061 0.3515625
vt 0.03848267 0.3518066
vt 0.03845215 0.3518066
vt 0.03747559 0.3518066
vt 0.0375061 0.3515625
vt 0.03747559 0.3518066
vt 0.03747559 0.3515625
vt 0.0375061 0.3515625
vt 0.0375061 0.3515625
vt 0.03848267 0.3518066
vt 0.03848267 0.3518066
vt 0.03845215 0.3518066
vt 0.03845215 0.3518066
vt 0.03845215 0.3518066
vt 0.03747559 0.3518066
vt 0.03848267 0.3518066
vt 0.0375061 0.3518066
vt 0.03848267 0.3518066
vt 0.03845215 0.3518066
vt 0.03747559 0.3518066
vt 0.0375061 0.3518066
vt 0.03747559 0.3518066
vt 0.03747559 0.3518066
vt 0.0375061 0.3518066
vt 0.0375061 0.3518066
vt 0.03848267 0.3518066
vt 0.03848267 0.3518066
vt 0.03845215 0.3518066
vt 0.03845215 0.3518066
vt 0.03845215 0.3518066
vt 0.03747559 0.3515625
vt 0.03848267 0.3518066
vt 0.0375061 0.3515625
vt 0.03848267 0.3518066
vt 0.03845215 0.3518066
vt 0.03747559 0.3518066
vt 0.0375061 0.3515625
vt 0.03747559 0.3518066
vt 0.03747559 0.3515625
vt 0.0375061 0.3515625
vt 0.0375061 0.3515625
vt 0.03848267 0.3518066
vt 0.03848267 0.3518066
vt 0.03845215 0.3518066
vt 0.03845215 0.3518066
vt 0.03845215 0.3518066
vt 0.03747559 0.3518066
vt 0.03848267 0.3518066
vt 0.0375061 0.3518066
vt 0.03848267 0.3518066
vt 0.03845215 0.3518066
vt 0.03747559 0.3518066
vt 0.0375061 0.3518066
vt 0.03747559 0.3518066
vt 0.03747559 0.3518066
vt 0.0375061 0.3518066
vt 0.0375061 0.3518066
vt 0.03848267 0.3518066
vt 0.03848267 0.3518066
vt 0.03845215 0.3518066
vt 0.03845215 0.3518066
vt 0.03845215 0.3518066
vt 0.03790283 0.3518066
vt 0.03848267 0.3518066
vt 0.03771973 0.3515625
vt 0.03778076 0.3518066
vt 0.03848267 0.3518066
vt 0.03799438 0.3518066
vt 0.03845215 0.3518066
vt 0.03848267 0.3518066
vt 0.03848267 0.3518066
vt 0.03845215 0.3518066
vt 0.03845215 0.3518066
vt 0.03799438 0.3518066
vt 0.03790283 0.3518066
vt 0.03747559 0.3518066
vt 0.03747559 0.3515625
vt 0.0375061 0.3515625
vt 0.03747559 0.3515625
vt 0.0375061 0.3515625
vt 0.0375061 0.3515625
vt 0.03747559 0.3518066
vt 0.0375061 0.3515625
vt 0.5009766 0.2496338
vt 0.715332 0.2496338
vt 0.5009766 0.2496338
vt 0.715332 0.2496338
vt 0.5009766 0.001047134
vt 0.5009766 0.001047134
vt 0.715332 0.001047134
vt 0.715332 0.001047134
vt 0.715332 0.001047134
vt 0.715332 0.2496338
vt 0.715332 0.2496338
vt 0.715332 0.001047134
vt 0.5009766 0.001047134
vt 0.5009766 0.2496338
vt 0.5009766 0.2496338
vt 0.5009766 0.001047134
vn 0 0 -1
vn 0 -1 0
vn 0 0 -1
vn 0 -1 0
vn 0 1 0
vn 0 -1 0
vn 1 0 0
vn 0 -1 0
vn 0 0 -1
vn 0 0 -1
vn 1 0 0
vn -0.84375 -0.08239746 0.5302734
vn -1 0 0
vn -0.84375 -0.08239746 0.5302734
vn -0.84375 -0.08239746 0.5302734
vn 0 0 1
vn 0 0 1
vn 0 0 1
vn 0 0 1
vn 0 1 0
vn 0 1 0
vn 0 0 -1
vn 0 0 -1
vn -1 0 0
vn 0 -1 0
vn 0 1 0
vn 0 -1 0
vn 0 0 -1
vn 0 -1 0
vn 0 0 -1
vn 0 -1 0
vn -1 0 0
vn 0 0 -1
vn 0 0 -1
vn 0.6967773 -0.1049194 0.7099609
vn 0 0 1
vn 0.6967773 -0.1049194 0.7099609
vn 0.6967773 -0.1049194 0.7099609
vn 0 0 1
vn 0 0 1
vn 0 0 1
vn 0 0 1
vn 1 0 0
vn 1 0 0
vn 0 0 -1
vn 0 0 -1
vn 0 0 1
vn 0 0 1
vn 0 0 1
vn 0 0 1
vn 0 1 0
vn 0 1 0
vn 0 0 -1
vn 0 0 -1
vn 0 0 1
vn 0 0 1
vn 0 0 1
vn 0 0 1
vn 0 1 0
vn 0 1 0
vn 0 0 -1
vn 0 0 -1
vn 0 0 1
vn 0 0 1
vn 0 0 1
vn 0 0 1
vn 0 1 0
vn 0 1 0
vn 0 0 -1
vn 0 0 -1
vn 0 0 1
vn 0 0 1
vn 0 0 1
vn 0 0 1
vn 1 0 0
vn 1 0 0
vn 0 0 -1
vn 0 0 -1
vn 0.06958008 0 0.9975586
vn 1 0 0
vn 0.06726074 -0.00762558 0.9975586
vn 1 0 0
vn 0 1 0
vn 1 0 0
vn 0 0 -1
vn 1 0 0
vn 0.06008911 -0.03120422 0.9975586
vn 0.05877686 -0.03549194 0.9975586
vn 0 1 0
vn 0 0 -1
vn 0 0 1
vn 0 0 1
vn 0 0 1
vn 0 0 1
vn 0 1 0
vn 0 1 0
vn 0 0 -1
vn 0 0 -1
vn 1 0 0
vn 1 0 0
vn 0 1 0
vn 0 1 0
vn 0 1 0
vn 0 0 -1
vn 0 0 -1
vn 1 0 0
vn 1 0 0
vn -1 0 0
vn -1 0 0
vn -1 0 0
vn -1 0 0
vn 0 0 1
vn 0 0 1
vn 0 0 1
vn 0 0 1
vn 0 0 1
vn 0 0 1
vn 0 0 1
vn 0 0 1
vn -1 0 0
vn -1 0 0
vn -1 0 0
vn -0.9199219 0.05490112 0.3879395
vn -0.9199219 0.05490112 0.3879395
vn -0.9199219 0.05490112 0.3879395
vn 0 1 0
vn 0 1 0
vn 0 0 -1
vn 0 0 -1
vn 0 -1 0
vn 0 -1 0
vn 0 -1 0
vn 0 -1 0
vn 1 0 0
vn 1 0 0
vn 1 0 0
vn 1 0 0
vn -1 0 0
vn -1 0 0
vn -1 0 0
vn -1 0 0
vn -1 0 0
vn -1 0 0
vn 0 1 0
vn 0 1 0
vn 0 1 0
vn 0 0 -1
vn 0 0 -1
vn -1 0 0
vn -1 0 0
vn 0 0 1
vn 0 0 1
vn 0 0 1
vn 0 0 1
vn 1 0 0
vn 1 0 0
vn 1 0 0
vn 1 0 0
vn 1 0 0
vn 1 0 0
vn 1 0 0
vn 1 0 0
vn 0 0 1
vn 0 0 1
vn 0 0 1
vn 0.7714844 0.1572266 0.6162109
vn 0.7714844 0.1572266 0.6162109
vn 0.7714844 0.1572266 0.6162109
vn 1 0 0
vn 1 0 0
vn 0 0 -1
vn 0 0 -1
vn -1 0 0
vn -1 0 0
vn -1 0 0
vn -1 0 0
vn 0 -1 0
vn 0 -1 0
vn 0 -1 0
vn 0 -1 0
vn 0 1 0
vn 0 1 0
vn 0 1 0
vn 0 1 0
vn 0 1 0
vn 0 1 0
vn 0 0 -1
vn 0 0 -1
vn 0 -1 0
vn 0 -1 0
vn 0 -1 0
vn 0 -1 0
vn 1 0 0
vn 1 0 0
vn 1 0 0
vn 1 0 0
vn -1 0 0
vn -1 0 0
vn -1 0 0
vn -1 0 0
vn 0 1 0
vn 0 1 0
vn 0 0 -1
vn 0 0 -1
vn 0 -1 0
vn 0 -1 0
vn 0 -1 0
vn 0 -1 0
vn 1 0 0
vn 1 0 0
vn 1 0 0
vn 1 0 0
vn -1 0 0
vn -1 0 0
vn -1 0 0
vn -1 0 0
vn 0 1 0
vn 0 1 0
vn 0 0 -1
vn 0 0 -1
vn 0 -1 0
vn 0 -1 0
vn 0 -1 0
vn 0 -1 0
vn 1 0 0
vn 1 0 0
vn 1 0 0
vn 1 0 0
vn -1 0 0
vn -1 0 0
vn -1 0 0
vn -1 0 0
vn 1 0 0
vn 1 0 0
vn 0 0 -1
vn 0 0 -1
vn -1 0 0
vn -1 0 0
vn -1 0 0
vn -1 0 0
vn 0 -1 0
vn 0 -1 0
vn 0 -1 0
vn 0 -1 0
vn 0 1 0
vn 0 1 0
vn 0 1 0
vn 0 1 0
vn 0 1 0
vn 0 1 0
vn 0 0 -1
vn 0 0 -1
vn 0 -1 0
vn 0 -1 0
vn 0 -1 0
vn 0 -1 0
vn -1 0 0
vn -1 0 0
vn -1 0 0
vn -1 0 0
vn -0.06152344 0.03713989 0.9975586
vn -0.06304932 0.0324707 0.9975586
vn -0.07073975 0.00843811 0.9975586
vn -0.07342529 0 0.9970703
vn 0 1 0
vn 0 1 0
vn 0 0 -1
vn 0 0 -1
vn 0 -1 0
vn 0 -1 0
vn 0 1 0
vn 0 1 0
vn 0 0 -1
vn 0 0 -1
vn 0 -1 0
vn 0 -1 0
vn 0 -1 0
vn 0 -1 0
vn 1 0 0
vn 1 0 0
vn 1 0 0
vn 1 0 0
vn -1 0 0
vn -1 0 0
vn -1 0 0
vn -1 0 0
g SM_Bld_House_Wall_02_0
f 15/15/15 12/12/12 14/14/14
f 125/125/125 124/124/124 123/123/123
f 38/38/38 35/35/35 37/37/37
f 168/168/168 167/167/167 166/166/166
f 10/10/10 3/3/3 1/1/1
f 9/9/9 10/10/10 1/1/1
f 9/9/9 105/105/105 10/10/10
f 105/105/105 104/104/104 10/10/10
f 100/100/100 99/99/99 7/7/7
f 11/11/11 100/100/100 7/7/7
f 11/11/11 107/107/107 100/100/100
f 107/107/107 106/106/106 100/100/100
f 6/6/6 4/4/4 2/2/2
f 8/8/8 6/6/6 2/2/2
f 102/102/102 5/5/5 101/101/101
f 103/103/103 102/102/102 101/101/101
f 110/110/110 111/111/111 13/13/13
f 110/110/110 13/13/13 109/109/109
f 109/109/109 13/13/13 108/108/108
f 108/108/108 120/120/120 109/109/109
f 121/121/121 120/120/120 108/108/108
f 121/121/121 122/122/122 120/120/120
f 116/116/116 113/113/113 115/115/115
f 115/115/115 113/113/113 114/114/114
f 114/114/114 113/113/113 112/112/112
f 112/112/112 117/117/117 114/114/114
f 118/118/118 117/117/117 112/112/112
f 117/117/117 118/118/118 119/119/119
f 19/19/19 18/18/18 16/16/16
f 17/17/17 19/19/19 16/16/16
f 21/21/21 20/20/20 126/126/126
f 127/127/127 21/21/21 126/126/126
f 23/23/23 22/22/22 128/128/128
f 129/129/129 23/23/23 128/128/128
f 132/132/132 131/131/131 130/130/130
f 133/133/133 132/132/132 130/130/130
f 136/136/136 135/135/135 134/134/134
f 137/137/137 136/136/136 134/134/134
f 140/140/140 139/139/139 138/138/138
f 141/141/141 140/140/140 138/138/138
f 34/34/34 30/30/30 28/28/28
f 33/33/33 34/34/34 28/28/28
f 33/33/33 148/148/148 34/34/34
f 148/148/148 147/147/147 34/34/34
f 32/32/32 24/24/24 142/142/142
f 143/143/143 32/32/32 142/142/142
f 143/143/143 150/150/150 32/32/32
f 150/150/150 149/149/149 32/32/32
f 29/29/29 27/27/27 25/25/25
f 31/31/31 29/29/29 25/25/25
f 26/26/26 145/145/145 144/144/144
f 146/146/146 26/26/26 144/144/144
f 153/153/153 154/154/154 36/36/36
f 153/153/153 36/36/36 152/152/152
f 153/153/153 152/152/152 151/151/151
f 163/163/163 151/151/151 152/152/152
f 163/163/163 164/164/164 151/151/151
f 163/163/163 165/165/165 164/164/164
f 157/157/157 156/156/156 155/155/155
f 156/156/156 157/157/157 159/159/159
f 156/156/156 159/159/159 158/158/158
f 160/160/160 158/158/158 159/159/159
f 160/160/160 161/161/161 158/158/158
f 161/161/161 160/160/160 162/162/162
f 42/42/42 41/41/41 39/39/39
f 40/40/40 42/42/42 39/39/39
f 44/44/44 43/43/43 169/169/169
f 170/170/170 44/44/44 169/169/169
f 46/46/46 45/45/45 171/171/171
f 172/172/172 46/46/46 171/171/171
f 175/175/175 174/174/174 173/173/173
f 176/176/176 175/175/175 173/173/173
f 179/179/179 178/178/178 177/177/177
f 180/180/180 179/179/179 177/177/177
f 183/183/183 182/182/182 181/181/181
f 184/184/184 183/183/183 181/181/181
f 50/50/50 49/49/49 47/47/47
f 48/48/48 50/50/50 47/47/47
f 52/52/52 51/51/51 185/185/185
f 186/186/186 52/52/52 185/185/185
f 54/54/54 53/53/53 187/187/187
f 188/188/188 54/54/54 187/187/187
f 191/191/191 190/190/190 189/189/189
f 192/192/192 191/191/191 189/189/189
f 195/195/195 194/194/194 193/193/193
f 196/196/196 195/195/195 193/193/193
f 199/199/199 198/198/198 197/197/197
f 200/200/200 199/199/199 197/197/197
f 58/58/58 57/57/57 55/55/55
f 56/56/56 58/58/58 55/55/55
f 60/60/60 59/59/59 201/201/201
f 202/202/202 60/60/60 201/201/201
f 62/62/62 61/61/61 203/203/203
f 204/204/204 62/62/62 203/203/203
f 207/207/207 206/206/206 205/205/205
f 208/208/208 207/207/207 205/205/205
f 211/211/211 210/210/210 209/209/209
f 212/212/212 211/211/211 209/209/209
f 215/215/215 214/214/214 213/213/213
f 216/216/216 215/215/215 213/213/213
f 66/66/66 65/65/65 63/63/63
f 64/64/64 66/66/66 63/63/63
f 68/68/68 67/67/67 217/217/217
f 218/218/218 68/68/68 217/217/217
f 70/70/70 69/69/69 219/219/219
f 220/220/220 70/70/70 219/219/219
f 223/223/223 222/222/222 221/221/221
f 224/224/224 223/223/223 221/221/221
f 227/227/227 226/226/226 225/225/225
f 228/228/228 227/227/227 225/225/225
f 231/231/231 230/230/230 229/229/229
f 232/232/232 231/231/231 229/229/229
f 74/74/74 73/73/73 71/71/71
f 72/72/72 74/74/74 71/71/71
f 76/76/76 75/75/75 233/233/233
f 234/234/234 76/76/76 233/233/233
f 78/78/78 77/77/77 235/235/235
f 236/236/236 78/78/78 235/235/235
f 239/239/239 238/238/238 237/237/237
f 240/240/240 239/239/239 237/237/237
f 243/243/243 242/242/242 241/241/241
f 244/244/244 243/243/243 241/241/241
f 247/247/247 246/246/246 245/245/245
f 248/248/248 247/247/247 245/245/245
f 87/87/87 81/81/81 79/79/79
f 87/87/87 88/88/88 81/81/81
f 250/250/250 83/83/83 249/249/249
f 250/250/250 89/89/89 83/83/83
f 250/250/250 266/266/266 89/89/89
f 266/266/266 265/265/265 89/89/89
f 90/90/90 85/85/85 251/251/251
f 252/252/252 90/90/90 251/251/251
f 252/252/252 268/268/268 90/90/90
f 268/268/268 267/267/267 90/90/90
f 255/255/255 256/256/256 254/254/254
f 255/255/255 254/254/254 253/253/253
f 253/253/253 270/270/270 255/255/255
f 270/270/270 269/269/269 255/255/255
f 84/84/84 82/82/82 80/80/80
f 86/86/86 84/84/84 80/80/80
f 259/259/259 258/258/258 257/257/257
f 260/260/260 259/259/259 257/257/257
f 263/263/263 262/262/262 261/261/261
f 263/263/263 264/264/264 262/262/262
f 94/94/94 93/93/93 91/91/91
f 92/92/92 94/94/94 91/91/91
f 96/96/96 95/95/95 271/271/271
f 272/272/272 96/96/96 271/271/271
f 98/98/98 97/97/97 273/273/273
f 274/274/274 98/98/98 273/273/273
f 277/277/277 276/276/276 275/275/275
f 278/278/278 277/277/277 275/275/275
f 281/281/281 280/280/280 279/279/279
f 282/282/282 281/281/281 279/279/279
f 285/285/285 284/284/284 283/283/283
f 286/286/286 285/285/285 283/283/283
