g SM_Bld_Window_Poster_Inside_03
v 1.102706 1.026126 -0.003013251
v 1.396559 1.026126 -0.003013251
v 1.102706 1.467979 -0.003013251
v 1.396559 1.467979 -0.003013251
v 1.102706 1.44787 -0.003013251
v 1.396559 1.453464 -0.003013251
v 1.102706 1.04694 -0.003013251
v 1.396559 1.04607 -0.003013251
v 1.086862 1.475522 -0.003013251
v 1.406106 1.480271 -0.003013251
v 1.086957 1.447368 -0.003013251
v 1.406184 1.453966 -0.003013251
v 1.089228 1.019729 -0.003013251
v 1.413138 1.019729 -0.003013251
v 1.089228 1.04694 -0.003013251
v 1.413138 1.04607 -0.003013251
v 1.089228 1.019729 -0.003013251
v 1.413138 1.019729 -0.003013251
v 1.086862 1.475522 -0.003013251
v 1.406106 1.480271 -0.003013251
v 1.102706 1.44787 -0.003013251
v 1.396559 1.453464 -0.003013251
v 1.102706 1.04694 -0.003013251
v 1.396559 1.04607 -0.003013251
v 1.086957 1.447368 -0.003013251
v 1.406184 1.453966 -0.003013251
v 1.089228 1.04694 -0.003013251
v 1.413138 1.04607 -0.003013251
v 1.396559 1.30458 -0.003013251
v 1.396559 1.30458 -0.003013251
v 1.381256 1.275714 -0.003013251
v 1.381256 1.275714 -0.003013251
v 1.396559 1.242059 -0.003013251
v 1.396559 1.242059 -0.003013251
v 1.396559 1.467979 -0.003013251
v 1.102706 1.467979 -0.003013251
v 1.102706 1.44787 -0.003013251
v 1.396559 1.453464 -0.003013251
v 1.102706 1.026126 -0.003013251
v 1.396559 1.026126 -0.003013251
v 1.102706 1.04694 -0.003013251
v 1.396559 1.04607 -0.003013251
v 1.102706 1.04694 -0.003013251
v 1.396559 1.04607 -0.003013251
v 1.102706 1.44787 -0.003013251
v 1.396559 1.453464 -0.003013251
vt 0.8186988 0.501685
vt 0.8721049 0.501685
vt 0.8186988 0.5819891
vt 0.8721049 0.5819891
vt 0.8186988 0.5783345
vt 0.8721049 0.5793511
vt 0.8186988 0.5054677
vt 0.8721049 0.5053097
vt 0.67321 0.506511
vt 0.6739209 0.5065063
vt 0.6732114 0.5065743
vt 0.6739211 0.5065638
vt 0.6732391 0.5075063
vt 0.673937 0.5074814
vt 0.6732374 0.5074487
vt 0.6739365 0.5074273
vt 0.6732388 0.507506
vt 0.6739373 0.5074818
vt 0.6732103 0.5065113
vt 0.6739206 0.5065058
vt 0.673247 0.5065733
vt 0.6739004 0.5065649
vt 0.6732672 0.5074479
vt 0.6739014 0.5074283
vt 0.6732114 0.5065743
vt 0.6739211 0.5065638
vt 0.6732374 0.5074487
vt 0.6739365 0.5074273
vt 0.8721049 0.5522924
vt 0.7029961 0.5318465
vt 0.8693235 0.5470461
vt 0.7029586 0.5319117
vt 0.8721049 0.5409294
vt 0.7029898 0.5319875
vt 0.6738999 0.506533
vt 0.6732458 0.5065283
vt 0.6732475 0.5065734
vt 0.6739004 0.5065647
vt 0.6732678 0.5074918
vt 0.6739013 0.5074695
vt 0.6732673 0.5074477
vt 0.6739019 0.5074285
vt 0.7023125 0.5324302
vt 0.7029808 0.5324306
vt 0.702331 0.5315237
vt 0.7030067 0.5315102
vn 0 0 1
vn 0 0 1
vn 0 0 1
vn 0 0 1
vn 0 0 1
vn 0 0 1
vn 0 0 1
vn 0 0 1
vn 0 0 1
vn 0 0 1
vn 0 0 1
vn 0 0 1
vn 0 0 1
vn 0 0 1
vn 0 0 1
vn 0 0 1
vn 0 0 -1
vn 0 0 -1
vn 0 0 -1
vn 0 0 -1
vn 0 0 -1
vn 0 0 -1
vn 0 0 -1
vn 0 0 -1
vn 0 0 -1
vn 0 0 -1
vn 0 0 -1
vn 0 0 -1
vn 0 0 1
vn 0 0 -1
vn 0 0 1
vn 0 0 -1
vn 0 0 1
vn 0 0 -1
vn 0 0 1
vn 0 0 1
vn 0 0 1
vn 0 0 1
vn 0 0 1
vn 0 0 1
vn 0 0 1
vn 0 0 1
vn 0 0 -1
vn 0 0 -1
vn 0 0 -1
vn 0 0 -1
g SM_Bld_Window_Poster_Inside_03_0
f 1/1/1 2/2/2 7/7/7
f 2/2/2 8/8/8 7/7/7
f 31/31/31 7/7/7 8/8/8
f 8/8/8 33/33/33 31/31/31
f 31/31/31 5/5/5 7/7/7
f 5/5/5 31/31/31 6/6/6
f 31/31/31 29/29/29 6/6/6
f 5/5/5 6/6/6 3/3/3
f 6/6/6 4/4/4 3/3/3
f 9/9/9 11/11/11 37/37/37
f 36/36/36 9/9/9 37/37/37
f 9/9/9 36/36/36 10/10/10
f 36/36/36 35/35/35 10/10/10
f 12/12/12 10/10/10 35/35/35
f 38/38/38 12/12/12 35/35/35
f 41/41/41 15/15/15 39/39/39
f 15/15/15 13/13/13 39/39/39
f 40/40/40 39/39/39 13/13/13
f 14/14/14 40/40/40 13/13/13
f 40/40/40 14/14/14 42/42/42
f 14/14/14 16/16/16 42/42/42
f 34/34/34 44/44/44 43/43/43
f 43/43/43 32/32/32 34/34/34
f 43/43/43 45/45/45 32/32/32
f 30/30/30 32/32/32 45/45/45
f 46/46/46 30/30/30 45/45/45
f 21/21/21 25/25/25 19/19/19
f 22/22/22 21/21/21 19/19/19
f 20/20/20 22/22/22 19/19/19
f 20/20/20 26/26/26 22/22/22
f 17/17/17 27/27/27 23/23/23
f 17/17/17 23/23/23 18/18/18
f 23/23/23 24/24/24 18/18/18
f 24/24/24 28/28/28 18/18/18
