g SM_Bld_Wall_Baseboard_Window_01
v 0.6715628 2.013843 0.1704077
v 0.6537445 2.165684 0.1704077
v 0.6715628 2.172378 0.1595642
v 0.6537445 2.165684 0.1704077
v 0.6715628 2.249099 0.1704077
v 0.6715628 2.172378 0.1595642
v 1.828438 1.331188 0.1200256
v 1.828438 1.434122 0.1704077
v 1.855867 1.33733 0.1704077
v 1.828438 1.162367 0.1704077
v 1.828438 1.331188 0.1200256
v 1.855867 1.33733 0.1704077
v 1.477985 1.631283 0.1016748
v 1.329892 1.649499 0.1016748
v 1.471062 1.649646 0.04952515
v 1.604376 1.649751 0.1016748
v 1.477985 1.631283 0.1016748
v 1.471062 1.649646 0.04952515
v 0.8753753 2.28159 0.1016748
v 1.002542 2.300542 0.1016748
v 0.997138 2.28159 0.08967773
v 1.002542 2.300542 0.1016748
v 1.167607 2.28159 0.1016748
v 0.997138 2.28159 0.08967773
v 0.7402036 1.317719 0.1016748
v 0.7662588 1.435813 0.101676
v 0.7625455 1.310746 0.09126831
v 0.7662588 1.215762 0.101676
v 0.7402036 1.317719 0.1016748
v 0.7625455 1.310746 0.09126831
v 0.6715628 1.072114 0.1016748
v 1.828438 1.072114 0.1016748
v 1.828438 1.072114 0.1704077
v 0.6715628 1.072114 0.1704077
v 0.6715628 2.346558 0.1704077
v 1.828438 2.346558 0.1704077
v 1.828438 2.346558 0.1016748
v 0.6715628 2.346558 0.1016748
v 1.733742 1.140093 0.1016748
v 1.733742 1.654133 0.1016748
v 1.733742 2.27858 0.1016748
v 1.733742 1.563953 0.1016748
v 0.7662588 1.140093 0.1016748
v 1.733742 1.140093 0
v 0.7662588 1.140093 0
v 1.733742 1.654133 0
v 1.604376 1.649751 0.1016748
v 1.471062 1.649646 0.04952515
v 0.7662588 1.65337 0
v 0.7662588 1.65337 0.1016748
v 1.329892 1.649499 0.1016748
v 1.733742 1.140093 0.1016748
v 1.733742 1.140093 0
v 1.733742 1.563953 0
v 1.733742 1.563953 0.1016748
v 0.7662588 1.140093 0
v 0.7662588 1.140093 0.1016748
v 0.7662588 1.215762 0.101676
v 0.7625455 1.310746 0.09126831
v 0.7662588 1.563953 0
v 0.7662588 1.563953 0.1016748
v 0.7662588 1.435813 0.101676
v 1.733742 1.563953 0
v 0.7662588 1.563953 0
v 0.7662588 1.563953 0.1016748
v 1.733742 1.563953 0.1016748
v 0.7662588 2.27858 0
v 0.7662588 2.27858 0.1016748
v 0.8753753 2.28159 0.1016748
v 0.997138 2.28159 0.08967773
v 1.733742 2.27858 0
v 1.733742 2.27858 0.1016748
v 1.167607 2.28159 0.1016748
v 1.733742 1.654133 0.1016748
v 1.733742 1.654133 0
v 1.733742 2.27858 0
v 1.733742 2.27858 0.1016748
v 0.7662588 2.27858 0.1016748
v 0.7662588 2.27858 0
v 0.7662588 1.65337 0
v 0.7662588 1.65337 0.1016748
v 0.7402036 1.317719 0.1016748
v 0.7662588 1.215762 0.101676
v 0.7662588 1.140093 0.1016748
v 0.6715628 1.072114 0.1016748
v 0.6715628 2.346558 0.1016748
v 1.828438 1.072114 0.1016748
v 1.733742 1.140093 0.1016748
v 1.733742 2.27858 0.1016748
v 0.7662588 1.435813 0.101676
v 1.828438 2.346558 0.1016748
v 1.167607 2.28159 0.1016748
v 1.002542 2.300542 0.1016748
v 0.8753753 2.28159 0.1016748
v 0.7662588 2.27858 0.1016748
v 0.7662588 1.65337 0.1016748
v 0.7662588 1.563953 0.1016748
v 1.329892 1.649499 0.1016748
v 1.477985 1.631283 0.1016748
v 1.733742 1.563953 0.1016748
v 1.733742 1.654133 0.1016748
v 1.604376 1.649751 0.1016748
v 0.6715628 2.346558 0.1016748
v 0.6715628 2.249099 0.1704077
v 0.6715628 2.346558 0.1704077
v 0.6715628 2.172378 0.1595642
v 0.6715628 1.072114 0.1016748
v 0.6715628 2.013843 0.1704077
v 0.6715628 1.072114 0.1704077
v 0.6715628 1.072114 0.1704077
v 0.6537445 2.165684 0.1704077
v 0.6715628 2.013843 0.1704077
v 0.6250003 1.025601 0.1704077
v 1.828438 1.072114 0.1704077
v 0.6250003 2.393072 0.1704077
v 0.6715628 2.249099 0.1704077
v 0.6715628 2.346558 0.1704077
v 1.875 1.025601 0.1704077
v 1.828438 1.162367 0.1704077
v 1.875 2.393072 0.1704077
v 1.855867 1.33733 0.1704077
v 1.828438 2.346558 0.1704077
v 1.828438 1.434122 0.1704077
v 1.828438 1.331188 0.1200256
v 1.828438 1.162367 0.1704077
v 1.828438 1.072114 0.1704077
v 1.828438 1.072114 0.1016748
v 1.828438 2.346558 0.1016748
v 1.828438 2.346558 0.1704077
v 1.828438 1.434122 0.1704077
v 1.875 1.025601 0.1704077
v 1.888794 1.01051 0.1499988
v 0.6112067 1.01051 0.1499988
v 0.6250003 1.025601 0.1704077
v 0.6250003 1.025601 0.1704077
v 0.6112067 1.01051 0.1499988
v 0.6112067 2.408162 0.1499988
v 0.6250003 2.393072 0.1704077
v 1.875 2.393072 0.1704077
v 1.888794 2.408162 0.1499988
v 1.888794 1.01051 0.1499988
v 1.875 1.025601 0.1704077
v 0.6250003 2.393072 0.1704077
v 0.6112067 2.408162 0.1499988
v 1.888794 2.408162 0.1499988
v 1.875 2.393072 0.1704077
v 0 2.627218 0
v 0 2.627218 0.1499988
v 0 0.6837353 0.1499988
v 0 0.6837353 0
v 0 0 0
v 0 0.6837353 0
v 0 0.6837353 0.1499988
v 0 0 0.1499988
v 0 0.6619506 0.1636047
v 0 0.02178223 0.1636047
v 0 2.997 0
v 2.499993 2.997 0
v 2.499993 2.997 0.1499988
v 0 2.997 0.1499988
v 0 0 0.1499988
v 2.499993 0 0.1499988
v 2.499993 0 0
v 0 0 0
v 0 0 0.1499988
v 0 0.02178223 0.1636047
v 2.499993 0.02178223 0.1636047
v 2.499993 0 0.1499988
v 0 0.6619506 0.1636047
v 0 0.6837353 0.1499988
v 2.499993 0.6837353 0.1499988
v 2.499993 0.6619506 0.1636047
v 0 2.967842 0.1636047
v 0 2.997 0.1499988
v 2.499993 2.967842 0.1636047
v 2.499993 2.997 0.1499988
v 0 2.997 0.1499988
v 0 2.967842 0.1636047
v 0 2.64765 0.1636047
v 0 2.627218 0.1499988
v 0 2.997 0
v 0 2.627218 0
v 0 2.627218 0.1499988
v 0 2.64765 0.1636047
v 2.499993 2.64765 0.1636047
v 2.499993 2.627218 0.1499988
v 2.499993 0.6619506 0.1636047
v 2.499993 0.02178223 0.1636047
v 0 0.02178223 0.1636047
v 0 0.6619506 0.1636047
v 2.499993 0.02178223 0
v 2.499993 0 0
v 2.499993 0 0.1499988
v 2.499993 0.02178223 0.1636047
v 2.499993 0.6619506 0.1636047
v 2.499993 0.6837353 0
v 2.499993 0.6837353 0.1499988
v 2.499993 2.627218 0
v 2.499993 2.627218 0.1499988
v 2.499993 2.997 0.1499988
v 2.499993 2.997 0
v 2.499993 2.967842 0.1636047
v 2.499993 2.64765 0.1636047
v 2.499993 2.64765 0.1636047
v 0 2.64765 0.1636047
v 0 2.967842 0.1636047
v 2.499993 2.967842 0.1636047
v 0 0.6837353 0.1499988
v 0.6112067 1.01051 0.1499988
v 1.888794 1.01051 0.1499988
v 2.499993 0.6837353 0.1499988
v 0 2.627218 0.1499988
v 1.888794 2.408162 0.1499988
v 0.6112067 2.408162 0.1499988
v 2.499993 2.627218 0.1499988
vt 0.06346089 0.1502574
vt 0.06346734 0.1501979
vt 0.0634529 0.150193
vt 0.06346734 0.1501979
vt 0.06346115 0.1501591
vt 0.0634529 0.150193
vt 0.06271783 0.1508688
vt 0.06271544 0.1508276
vt 0.06269862 0.1508646
vt 0.06272625 0.1509449
vt 0.06271783 0.1508688
vt 0.06269862 0.1508646
vt 0.1028151 0.2531731
vt 0.1028151 0.2531731
vt 0.1028151 0.2531731
vt 0.1028151 0.2531731
vt 0.1028151 0.2531731
vt 0.1028151 0.2531731
vt 0.102815 0.2531731
vt 0.102815 0.2531731
vt 0.102815 0.2531731
vt 0.102815 0.2531731
vt 0.1028151 0.2531731
vt 0.102815 0.2531731
vt 0.102815 0.2531732
vt 0.102815 0.2531732
vt 0.102815 0.2531732
vt 0.102815 0.2531732
vt 0.102815 0.2531732
vt 0.102815 0.2531732
vt 0.06344523 0.1508749
vt 0.06272572 0.1510137
vt 0.06273419 0.151031
vt 0.06345916 0.1508897
vt 0.06346133 0.1500986
vt 0.06265622 0.150185
vt 0.06264764 0.1501743
vt 0.06344598 0.1500897
vt 0.1028151 0.2531732
vt 0.1028151 0.2531731
vt 0.1028151 0.2531731
vt 0.1028151 0.2531732
vt 0.102815 0.2531732
vt 0.1028151 0.2531732
vt 0.102815 0.2531732
vt 0.1028151 0.2531731
vt 0.1028151 0.2531731
vt 0.1028151 0.2531731
vt 0.102815 0.2531731
vt 0.102815 0.2531731
vt 0.1028151 0.2531731
vt 0.1028151 0.2531732
vt 0.1028151 0.2531732
vt 0.1028151 0.2531732
vt 0.1028151 0.2531732
vt 0.102815 0.2531732
vt 0.102815 0.2531732
vt 0.102815 0.2531732
vt 0.102815 0.2531732
vt 0.102815 0.2531732
vt 0.102815 0.2531732
vt 0.102815 0.2531732
vt 0.1028151 0.2531732
vt 0.102815 0.2531732
vt 0.102815 0.2531732
vt 0.1028151 0.2531732
vt 0.102815 0.2531731
vt 0.102815 0.2531731
vt 0.102815 0.2531731
vt 0.102815 0.2531731
vt 0.1028151 0.2531731
vt 0.1028151 0.2531731
vt 0.1028151 0.2531731
vt 0.1028151 0.2531731
vt 0.1028151 0.2531731
vt 0.1028151 0.2531731
vt 0.1028151 0.2531731
vt 0.102815 0.2531731
vt 0.102815 0.2531731
vt 0.102815 0.2531731
vt 0.102815 0.2531731
vt 0.102815 0.2531732
vt 0.102815 0.2531732
vt 0.102815 0.2531732
vt 0.102815 0.2531732
vt 0.102815 0.2531731
vt 0.1028151 0.2531732
vt 0.1028151 0.2531732
vt 0.1028151 0.2531731
vt 0.102815 0.2531732
vt 0.1028151 0.2531731
vt 0.1028151 0.2531731
vt 0.102815 0.2531731
vt 0.102815 0.2531731
vt 0.102815 0.2531731
vt 0.102815 0.2531731
vt 0.102815 0.2531732
vt 0.1028151 0.2531731
vt 0.1028151 0.2531731
vt 0.1028151 0.2531732
vt 0.1028151 0.2531731
vt 0.1028151 0.2531731
vt 0.06344598 0.1500897
vt 0.06346115 0.1501591
vt 0.06346133 0.1500986
vt 0.0634529 0.150193
vt 0.06344523 0.1508749
vt 0.06346089 0.1502574
vt 0.06345916 0.1508897
vt 0.06345916 0.1508897
vt 0.06346734 0.1501979
vt 0.06346089 0.1502574
vt 0.06348395 0.1509085
vt 0.06273419 0.151031
vt 0.06348898 0.1500624
vt 0.06346115 0.1501591
vt 0.06346133 0.1500986
vt 0.06270409 0.1510625
vt 0.06272625 0.1509449
vt 0.06261635 0.1501528
vt 0.06269862 0.1508646
vt 0.06265622 0.150185
vt 0.06271544 0.1508276
vt 0.06271783 0.1508688
vt 0.06272625 0.1509449
vt 0.06273419 0.151031
vt 0.06272572 0.1510137
vt 0.06264764 0.1501743
vt 0.06265622 0.150185
vt 0.06271544 0.1508276
vt 0.06333032 0.151408
vt 0.06333479 0.1514085
vt 0.06363755 0.1508763
vt 0.06362671 0.1508731
vt 0.06362671 0.1508731
vt 0.06363755 0.1508763
vt 0.06357437 0.1504102
vt 0.06357044 0.1504084
vt 0.06341499 0.1509011
vt 0.06341758 0.1509017
vt 0.06333479 0.1514085
vt 0.06333032 0.151408
vt 0.06357044 0.1504084
vt 0.06357437 0.1504102
vt 0.06341758 0.1509017
vt 0.06341499 0.1509011
vt 0.06321719 0.1738967
vt 0.06321906 0.1738974
vt 0.0632182 0.1746642
vt 0.06321585 0.1746611
vt 0.0631236 0.1519944
vt 0.06312361 0.1519944
vt 0.06312361 0.1519944
vt 0.0631236 0.1519944
vt 0.0631236 0.1519944
vt 0.0631236 0.1519944
vt 0.06338143 0.1507367
vt 0.06338142 0.1507367
vt 0.06338142 0.1507367
vt 0.06338143 0.1507367
vt 0.0631236 0.1519944
vt 0.0631236 0.1519944
vt 0.0631236 0.1519944
vt 0.0631236 0.1519944
vt 0.0631236 0.1519944
vt 0.0631236 0.1519944
vt 0.0631236 0.1519944
vt 0.0631236 0.1519944
vt 0.0631236 0.1519944
vt 0.06312361 0.1519944
vt 0.0631236 0.1519944
vt 0.0631236 0.1519944
vt 0.06338143 0.1507367
vt 0.06338143 0.1507367
vt 0.06338142 0.1507367
vt 0.06338142 0.1507367
vt 0.06338143 0.1507367
vt 0.06338143 0.1507367
vt 0.06338143 0.1507367
vt 0.06338143 0.1507367
vt 0.06338143 0.1507367
vt 0.06338143 0.1507367
vt 0.06338143 0.1507367
vt 0.06338143 0.1507367
vt 0.06338142 0.1507367
vt 0.06338142 0.1507367
vt 0.0631236 0.1519944
vt 0.0631236 0.1519944
vt 0.0631236 0.1519944
vt 0.0631236 0.1519944
vt 0.06294191 0.1746836
vt 0.06294197 0.1746895
vt 0.06294292 0.1746926
vt 0.06294304 0.174687
vt 0.06294298 0.1746752
vt 0.06294191 0.1746764
vt 0.06294292 0.174669
vt 0.06294024 0.1738978
vt 0.06294125 0.1738985
vt 0.06294119 0.1738744
vt 0.06294018 0.1738738
vt 0.06294131 0.1738826
vt 0.06294131 0.1738929
vt 0.06338142 0.1507367
vt 0.06338143 0.1507367
vt 0.06338143 0.1507367
vt 0.06338142 0.1507367
vt 0.06336299 0.1748172
vt 0.06315845 0.1744896
vt 0.06274617 0.1744974
vt 0.06254095 0.1748344
vt 0.06336564 0.1738424
vt 0.06274468 0.1740503
vt 0.06315881 0.1740436
vt 0.06253582 0.1738549
vn 0.5026909 0.05899004 0.8624512
vn 0.5026908 0.05899003 0.8624512
vn 0.5026909 0.05899004 0.8624512
vn 0.5480126 -0.1170603 0.8282385
vn 0.5480126 -0.1170603 0.8282385
vn 0.5480126 -0.1170603 0.8282385
vn -0.8405079 -0.2381869 0.4866348
vn -0.8405079 -0.2381869 0.4866348
vn -0.8405079 -0.2381869 0.4866348
vn -0.8768789 0.13747 0.4606359
vn -0.8768789 0.13747 0.460636
vn -0.8768789 0.13747 0.460636
vn 0.1158241 0.9416014 0.316183
vn 0.1158241 0.9416014 0.316183
vn 0.1158241 0.9416014 0.3161831
vn -0.1357038 0.9287262 0.3450392
vn -0.1357038 0.9287262 0.3450392
vn -0.1357038 0.9287262 0.3450392
vn 0.08191343 -0.5496496 0.8313696
vn 0.08191343 -0.5496496 0.8313696
vn 0.08191343 -0.5496496 0.8313696
vn -0.05989358 -0.5216692 0.8510429
vn -0.05989359 -0.5216693 0.8510429
vn -0.05989358 -0.5216692 0.8510429
vn 0.3979474 -0.08780896 0.9131963
vn 0.3979475 -0.08780896 0.9131963
vn 0.3979474 -0.08780895 0.9131963
vn 0.4486235 0.1146574 0.8863354
vn 0.4486235 0.1146574 0.8863354
vn 0.4486235 0.1146574 0.8863354
vn 0 1 0
vn 0 1 0
vn 0 1 0
vn 0 1 0
vn 0 -1 0
vn 0 -1 0
vn 0 -1 0
vn 0 -1 0
vn 0 1 0
vn 0 1 0
vn 0 1 0
vn 0 1 0
vn 0 1 0
vn 0 1 0
vn 0 1 0
vn -0.01726918 0.9994506 0.02828713
vn -0.02046192 0.9996452 0.01705133
vn -0.001228478 0.9980381 0.06259771
vn 0.005602368 0.9999526 0.007969568
vn 0.005744618 0.9999641 0.006224288
vn 0.005744618 0.9999641 0.006224288
vn -1 0 0
vn -1 0 0
vn -1 0 0
vn -1 0 0
vn 0.9998701 0.01056097 0.01217845
vn 0.9996635 0.02080816 -0.01548577
vn 0.9996635 0.02080816 -0.01548577
vn 0.9995754 0.0005785543 0.02913008
vn 0.9999504 -0.009931931 -0.00081404
vn 0.9997485 -0.0139397 -0.01756784
vn 0.9997485 -0.0139397 -0.01756784
vn 0 -1 0
vn 0 -1 0
vn 0 -1 0
vn 0 -1 0
vn 0.006632337 -0.9996769 0.02453621
vn 0.01380389 -0.9997954 0.01478641
vn 0.01380389 -0.9997954 0.01478641
vn 0.000368931 -0.9995179 0.03104459
vn -0.003847121 -0.9999565 0.008507335
vn -0.004188861 -0.9999715 0.006281876
vn -0.004188861 -0.9999715 0.006281876
vn -1 0 0
vn -1 0 0
vn -1 0 0
vn -1 0 0
vn 1 0 0
vn 1 0 0
vn 1 0 0
vn 1 0 0
vn 0 0 1
vn -1.054447E-05 0 1
vn 0 0 1
vn 0 0 1
vn 0 0 1
vn 0 0 1
vn 0 0 1
vn 0 0 1
vn -3.452693E-05 0 1
vn 0 0 1
vn 0 0 1
vn 0 0 1
vn 0 0 1
vn 0 0 1
vn 0 0 1
vn 1.897563E-05 0 1
vn 0 0 1
vn 0 0 1
vn 0 0 1
vn 0 0 1
vn 0 0 1
vn 1 0 0
vn 1 0 0
vn 1 0 0
vn 1 0 0
vn 1 0 0
vn 1 0 0
vn 1 0 0
vn 0 0 1
vn 0 0 1
vn 0 0 1
vn 0 0 1
vn 0 0 1
vn 0 0 1
vn 0 0 1
vn 0 0 1
vn 0 0 1
vn 0 0 1
vn 0 0 1
vn 0 0 1
vn 0 0 1
vn 0 0 1
vn -1 0 0
vn -1 0 0
vn -1 0 0
vn -1 0 0
vn -1 0 0
vn -1 0 0
vn -1 0 0
vn 0 -0.8040732 0.5945303
vn 0 -0.8040732 0.5945303
vn 0 -0.8040732 0.5945303
vn 0 -0.8040732 0.5945303
vn -0.828517 0 0.5599639
vn -0.8285171 0 0.5599639
vn -0.828517 0 0.5599639
vn -0.828517 0 0.5599639
vn 0.8285199 0 0.5599597
vn 0.8285199 0 0.5599596
vn 0.8285199 0 0.5599597
vn 0.8285199 0 0.5599596
vn 0 0.8040962 0.5944993
vn 0 0.8040962 0.5944992
vn 0 0.8040961 0.5944993
vn 0 0.8040961 0.5944993
vn -1 0 0
vn -1 0 0
vn -1 0 0
vn -1 0 0
vn -1 0 0
vn -1 0 0
vn -1 0 0
vn -1 0 0
vn -1 0 0
vn -1 0 0
vn 0 1 0
vn 0 1 0
vn 0 1 0
vn 0 1 0
vn 0 -1 0
vn 0 -1 0
vn 0 -1 0
vn 0 -1 0
vn 0 -0.5297768 0.8481371
vn 0 -0.5297768 0.8481371
vn 0 -0.5297768 0.8481371
vn 0 -0.5297768 0.8481371
vn 0 0.529734 0.8481638
vn 0 0.529734 0.8481638
vn 0 0.529734 0.8481638
vn 0 0.529734 0.8481638
vn 0 0.4228605 0.9061948
vn 0 0.4228606 0.9061948
vn 0 0.4228606 0.9061948
vn 0 0.4228605 0.9061948
vn -1 0 0
vn -1 0 0
vn -1 0 0
vn -1 0 0
vn -1 0 0
vn -1 0 0
vn 0 -0.554264 0.8323409
vn 0 -0.554264 0.8323409
vn 0 -0.554264 0.8323409
vn 0 -0.554264 0.8323409
vn 0 0 1
vn 0 0 1
vn 0 0 1
vn 0 0 1
vn 1 0 0
vn 1 0 0
vn 1 0 0
vn 1 0 0
vn 1 0 0
vn 1 0 0
vn 1 0 0
vn 1 0 0
vn 1 0 0
vn 1 0 0
vn 1 0 0
vn 1 0 0
vn 1 0 0
vn 0 0 1
vn 0 0 1
vn 0 0 1
vn 0 0 1
vn 0 0 1
vn 0 0 1
vn 0 0 1
vn 0 0 1
vn 0 0 1
vn 0 0 1
vn 0 0 1
vn 0 0 1
g SM_Bld_Wall_Baseboard_Window_01_0
f 3/3/3 2/2/2 1/1/1
f 6/6/6 5/5/5 4/4/4
f 9/9/9 8/8/8 7/7/7
f 12/12/12 11/11/11 10/10/10
f 15/15/15 14/14/14 13/13/13
f 18/18/18 17/17/17 16/16/16
f 21/21/21 20/20/20 19/19/19
f 24/24/24 23/23/23 22/22/22
f 27/27/27 26/26/26 25/25/25
f 30/30/30 29/29/29 28/28/28
f 33/33/33 32/32/32 31/31/31
f 34/34/34 33/33/33 31/31/31
f 37/37/37 36/36/36 35/35/35
f 38/38/38 37/37/37 35/35/35
f 41/41/41 40/40/40 39/39/39
f 40/40/40 42/42/42 39/39/39
f 39/39/39 44/44/44 43/43/43
f 44/44/44 45/45/45 43/43/43
f 47/47/47 40/40/40 46/46/46
f 48/48/48 47/47/47 46/46/46
f 48/48/48 46/46/46 49/49/49
f 48/48/48 49/49/49 50/50/50
f 51/51/51 48/48/48 50/50/50
f 54/54/54 53/53/53 52/52/52
f 55/55/55 54/54/54 52/52/52
f 58/58/58 57/57/57 56/56/56
f 59/59/59 58/58/58 56/56/56
f 59/59/59 56/56/56 60/60/60
f 59/59/59 60/60/60 61/61/61
f 62/62/62 59/59/59 61/61/61
f 65/65/65 64/64/64 63/63/63
f 66/66/66 65/65/65 63/63/63
f 69/69/69 68/68/68 67/67/67
f 70/70/70 69/69/69 67/67/67
f 71/71/71 70/70/70 67/67/67
f 71/71/71 72/72/72 70/70/70
f 72/72/72 73/73/73 70/70/70
f 76/76/76 75/75/75 74/74/74
f 77/77/77 76/76/76 74/74/74
f 80/80/80 79/79/79 78/78/78
f 81/81/81 80/80/80 78/78/78
f 84/84/84 83/83/83 82/82/82
f 85/85/85 84/84/84 82/82/82
f 85/85/85 82/82/82 86/86/86
f 85/85/85 87/87/87 84/84/84
f 87/87/87 88/88/88 84/84/84
f 89/89/89 88/88/88 87/87/87
f 86/86/86 82/82/82 90/90/90
f 87/87/87 91/91/91 89/89/89
f 92/92/92 89/89/89 91/91/91
f 93/93/93 92/92/92 91/91/91
f 93/93/93 91/91/91 86/86/86
f 94/94/94 93/93/93 86/86/86
f 95/95/95 94/94/94 86/86/86
f 96/96/96 95/95/95 86/86/86
f 86/86/86 90/90/90 97/97/97
f 86/86/86 97/97/97 96/96/96
f 98/98/98 96/96/96 97/97/97
f 99/99/99 98/98/98 97/97/97
f 99/99/99 97/97/97 100/100/100
f 99/99/99 100/100/100 101/101/101
f 102/102/102 99/99/99 101/101/101
f 105/105/105 104/104/104 103/103/103
f 104/104/104 106/106/106 103/103/103
f 106/106/106 107/107/107 103/103/103
f 106/106/106 108/108/108 107/107/107
f 108/108/108 109/109/109 107/107/107
f 112/112/112 111/111/111 110/110/110
f 111/111/111 113/113/113 110/110/110
f 110/110/110 113/113/113 114/114/114
f 111/111/111 115/115/115 113/113/113
f 111/111/111 116/116/116 115/115/115
f 116/116/116 117/117/117 115/115/115
f 113/113/113 118/118/118 114/114/114
f 119/119/119 114/114/114 118/118/118
f 115/115/115 117/117/117 120/120/120
f 121/121/121 119/119/119 118/118/118
f 120/120/120 121/121/121 118/118/118
f 117/117/117 122/122/122 120/120/120
f 120/120/120 122/122/122 121/121/121
f 122/122/122 123/123/123 121/121/121
f 126/126/126 125/125/125 124/124/124
f 127/127/127 126/126/126 124/124/124
f 128/128/128 127/127/127 124/124/124
f 128/128/128 124/124/124 129/129/129
f 124/124/124 130/130/130 129/129/129
f 133/133/133 132/132/132 131/131/131
f 134/134/134 133/133/133 131/131/131
f 137/137/137 136/136/136 135/135/135
f 138/138/138 137/137/137 135/135/135
f 141/141/141 140/140/140 139/139/139
f 142/142/142 141/141/141 139/139/139
f 145/145/145 144/144/144 143/143/143
f 146/146/146 145/145/145 143/143/143
f 149/149/149 148/148/148 147/147/147
f 150/150/150 149/149/149 147/147/147
f 153/153/153 152/152/152 151/151/151
f 154/154/154 153/153/153 151/151/151
f 154/154/154 155/155/155 153/153/153
f 154/154/154 156/156/156 155/155/155
f 159/159/159 158/158/158 157/157/157
f 160/160/160 159/159/159 157/157/157
f 163/163/163 162/162/162 161/161/161
f 164/164/164 163/163/163 161/161/161
f 167/167/167 166/166/166 165/165/165
f 168/168/168 167/167/167 165/165/165
f 171/171/171 170/170/170 169/169/169
f 172/172/172 171/171/171 169/169/169
f 175/175/175 174/174/174 173/173/173
f 174/174/174 175/175/175 176/176/176
f 179/179/179 178/178/178 177/177/177
f 180/180/180 179/179/179 177/177/177
f 180/180/180 177/177/177 181/181/181
f 182/182/182 180/180/180 181/181/181
f 185/185/185 184/184/184 183/183/183
f 186/186/186 185/185/185 183/183/183
f 189/189/189 188/188/188 187/187/187
f 190/190/190 189/189/189 187/187/187
f 193/193/193 192/192/192 191/191/191
f 194/194/194 193/193/193 191/191/191
f 194/194/194 191/191/191 195/195/195
f 191/191/191 196/196/196 195/195/195
f 196/196/196 197/197/197 195/195/195
f 196/196/196 198/198/198 197/197/197
f 198/198/198 199/199/199 197/197/197
f 200/200/200 199/199/199 198/198/198
f 201/201/201 200/200/200 198/198/198
f 200/200/200 202/202/202 199/199/199
f 202/202/202 203/203/203 199/199/199
f 206/206/206 205/205/205 204/204/204
f 207/207/207 206/206/206 204/204/204
f 210/210/210 209/209/209 208/208/208
f 211/211/211 210/210/210 208/208/208
f 208/208/208 209/209/209 212/212/212
f 213/213/213 210/210/210 211/211/211
f 209/209/209 214/214/214 212/212/212
f 215/215/215 213/213/213 211/211/211
f 212/212/212 214/214/214 215/215/215
f 214/214/214 213/213/213 215/215/215
