g SM_Bld_House_Door_03
v 0.6295615 -0.108709 0.3517099
v 0.7174368 -0.1396707 0.3517099
v 0.6434308 -0.1396707 0.3410625
v 0.6434308 -0.1396707 0.3410625
v 0.6295615 -0.1396707 0.296063
v 0.6295615 -0.108709 0.3517099
v 0.6588278 -0.0301087 0.2851453
v 1.883016 -0.0301087 0.2851453
v 0.8612611 -0.05241373 0.3269155
v 0.8612611 -0.05241373 0.3269155
v 0.6295615 -0.07153631 0.3517099
v 1.883016 -0.0301087 0.2851453
v 1.91229 -0.07492758 0.3517099
v 0.7082348 0.8502876 0.2851453
v 0.7468405 1.100466 0.2851453
v 0.7468405 0.8502876 0.2299715
v 0.7468405 0.7452148 0.2851453
v 0.7082348 0.8502876 0.2851453
v 0.7468405 0.8502876 0.2299715
v 0.8612611 -0.05241373 0.3269155
v 1.91229 -0.07492758 0.3517099
v 1.91229 -0.1396707 0.3517099
v 0.8612611 -0.05241373 0.3269155
v 1.91229 -0.1396707 0.3517099
v 0.7174368 -0.1396707 0.3517099
v 1.91229 -0.1396707 -0.01563374
v 1.91229 -0.1396707 0.3517099
v 1.91229 -0.07492758 0.3517099
v 1.91229 -0.05008432 -0.01563374
v 1.91229 -0.05008432 -0.01563374
v 0.6295615 -0.1396707 -0.01563374
v 1.91229 -0.1396707 -0.01563374
v 0.6295615 -0.05008432 -0.01563374
v 1.883016 -0.0301087 -0.01563374
v 0.6588278 -0.0301087 -0.01563374
v 0.7578573 0.0138619 -0.01563374
v 1.783994 0.0138619 -0.01563374
v 1.883016 -0.0301087 0.2851453
v 1.883016 -0.0301087 -0.01563374
v 1.91229 -0.05008432 -0.01563374
v 1.91229 -0.07492758 0.3517099
v 0.6588278 -0.0301087 -0.01563374
v 0.6588278 -0.0301087 0.2851453
v 0.6295615 -0.07153631 0.3517099
v 0.6295615 -0.05008432 -0.01563374
v 0.7517233 2.240706 0.2851453
v 1.783994 2.22736 0.2851453
v 1.783994 2.22736 -0.01563374
v 0.7578573 2.22736 -0.01563374
v 1.783994 2.22736 -0.01563374
v 1.783994 2.22736 0.2851453
v 1.785941 0.5258012 0.2851453
v 1.785941 0.5258012 -0.01563374
v 1.783994 0.0138619 0.2851453
v 1.783994 0.0138619 -0.01563374
v 1.783994 0.0138619 -0.01563374
v 1.783994 0.0138619 0.2851453
v 0.7578573 0.001360149 0.2851453
v 0.7578573 0.0138619 -0.01563374
v 0.7468405 1.100466 0.2851453
v 0.7517233 2.240706 0.2851453
v 0.7578573 2.22736 -0.01563374
v 0.7468405 0.8502876 0.2299715
v 0.7468405 0.8502876 -0.01563374
v 0.7468405 0.7452148 0.2851453
v 0.7578573 0.0138619 -0.01563374
v 0.7578573 0.001360149 0.2851453
v 0.8612611 -0.05241373 0.3269155
v 0.7174368 -0.1396707 0.3517099
v 0.6295615 -0.108709 0.3517099
v 0.6295615 -0.07153631 0.3517099
v 0.6434308 -0.1396707 0.3410625
v 0.7174368 -0.1396707 0.3517099
v 1.91229 -0.1396707 0.3517099
v 0.679122 -0.1396707 0.3031431
v 0.6295615 -0.1396707 0.296063
v 1.862729 -0.1396707 0.3031431
v 1.862729 -0.1396707 0.1543909
v 1.91229 -0.1396707 -0.01563374
v 0.679122 -0.1396707 0.1543909
v 0.6295615 -0.1396707 -0.01563374
v 0.6295615 -0.108709 0.3517099
v 0.6295615 -0.1396707 0.296063
v 0.6295615 -0.1396707 -0.01563374
v 0.6295615 -0.05008432 -0.01563374
v 0.6295615 -0.07153631 0.3517099
v 1.887229 0.5258012 0.2851453
v 1.883016 -0.0301087 -0.01563374
v 1.883016 -0.0301087 0.2851453
v 1.887229 0.5258012 -0.01563374
v 1.883016 2.308645 0.2851453
v 1.883016 2.308645 -0.01563374
v 0.6588277 2.308646 0.2851454
v 0.6588278 2.308646 -0.01563374
v 1.883016 2.308645 -0.01563374
v 1.883016 2.308645 0.2851453
v 0.6588278 -0.0301087 0.2851453
v 0.6588278 -0.0301087 -0.01563374
v 0.6455526 0.8502876 -0.01563374
v 0.6455526 0.8502876 0.2851453
v 0.6588278 2.308646 -0.01563374
v 0.6588277 2.308646 0.2851454
v 1.783994 2.22736 -0.01563374
v 1.883016 2.308645 -0.01563374
v 0.6588278 2.308646 -0.01563374
v 0.7578573 2.22736 -0.01563374
v 1.883016 -0.0301087 -0.01563374
v 1.785941 0.5258012 -0.01563374
v 1.783994 0.0138619 -0.01563374
v 1.887229 0.5258012 -0.01563374
v 1.783994 2.22736 -0.01563374
v 1.883016 2.308645 -0.01563374
v 0.6455526 0.8502876 -0.01563374
v 0.6588278 -0.0301087 -0.01563374
v 0.7578573 0.0138619 -0.01563374
v 0.7468405 0.8502876 -0.01563374
v 0.7578573 2.22736 -0.01563374
v 0.6588278 2.308646 -0.01563374
v 0.7082348 0.8502876 0.2851453
v 0.6455526 0.8502876 0.2851453
v 0.6588277 2.308646 0.2851454
v 0.6588278 -0.0301087 0.2851453
v 0.7468405 0.7452148 0.2851453
v 0.7578573 0.001360149 0.2851453
v 1.883016 -0.0301087 0.2851453
v 1.783994 0.0138619 0.2851453
v 1.887229 0.5258012 0.2851453
v 1.785941 0.5258012 0.2851453
v 1.883016 2.308645 0.2851453
v 1.783994 2.22736 0.2851453
v 0.7468405 1.100466 0.2851453
v 0.7517233 2.240706 0.2851453
vt 0.05905151 0.3271484
vt 0.05905151 0.3271484
vt 0.05905151 0.3271484
vt 0.05905151 0.3271484
vt 0.05905151 0.3271484
vt 0.05905151 0.3271484
vt 0.05905151 0.3271484
vt 0.05905151 0.3271484
vt 0.05905151 0.3271484
vt 0.05905151 0.3271484
vt 0.05905151 0.3271484
vt 0.05905151 0.3271484
vt 0.05905151 0.3271484
vt 0.05905151 0.3271484
vt 0.05905151 0.3271484
vt 0.05905151 0.3271484
vt 0.05905151 0.3271484
vt 0.05905151 0.3271484
vt 0.05905151 0.3271484
vt 0.05905151 0.3271484
vt 0.05905151 0.3271484
vt 0.05905151 0.3271484
vt 0.05905151 0.3271484
vt 0.05905151 0.3271484
vt 0.05905151 0.3271484
vt 0.05905151 0.3271484
vt 0.05905151 0.3271484
vt 0.05905151 0.3271484
vt 0.05905151 0.3271484
vt 0.05905151 0.3271484
vt 0.05905151 0.3271484
vt 0.05905151 0.3271484
vt 0.05905151 0.3271484
vt 0.05905151 0.3271484
vt 0.05905151 0.3271484
vt 0.05944824 0.3271484
vt 0.05859375 0.3271484
vt 0.05905151 0.3271484
vt 0.05905151 0.3271484
vt 0.05905151 0.3271484
vt 0.05905151 0.3271484
vt 0.05905151 0.3271484
vt 0.05905151 0.3271484
vt 0.05905151 0.3271484
vt 0.05905151 0.3271484
vt 0.05905151 0.3271484
vt 0.05905151 0.3271484
vt 0.05905151 0.3271484
vt 0.05905151 0.3271484
vt 0.05905151 0.3271484
vt 0.05905151 0.3271484
vt 0.05905151 0.3271484
vt 0.05905151 0.3271484
vt 0.05905151 0.3271484
vt 0.05905151 0.3271484
vt 0.05905151 0.3271484
vt 0.05905151 0.3271484
vt 0.05905151 0.3271484
vt 0.05905151 0.3271484
vt 0.05905151 0.3271484
vt 0.05905151 0.3271484
vt 0.05905151 0.3271484
vt 0.05905151 0.3271484
vt 0.05905151 0.3271484
vt 0.05905151 0.3271484
vt 0.05905151 0.3271484
vt 0.05905151 0.3271484
vt 0.05905151 0.3271484
vt 0.05905151 0.3271484
vt 0.05905151 0.3271484
vt 0.05905151 0.3271484
vt 0.05905151 0.3271484
vt 0.05905151 0.3271484
vt 0.05905151 0.3271484
vt 0.05905151 0.3271484
vt 0.05905151 0.3271484
vt 0.05905151 0.3271484
vt 0.05905151 0.3271484
vt 0.05905151 0.3271484
vt 0.05905151 0.3271484
vt 0.05905151 0.3271484
vt 0.05905151 0.3271484
vt 0.05905151 0.3271484
vt 0.05905151 0.3271484
vt 0.05905151 0.3271484
vt 0.05905151 0.3271484
vt 0.05905151 0.3271484
vt 0.05905151 0.3271484
vt 0.05905151 0.3271484
vt 0.05905151 0.3271484
vt 0.05905151 0.3271484
vt 0.05905151 0.3271484
vt 0.05905151 0.3271484
vt 0.05905151 0.3271484
vt 0.05905151 0.3271484
vt 0.05905151 0.3271484
vt 0.05905151 0.3271484
vt 0.05905151 0.3271484
vt 0.05905151 0.3271484
vt 0.05905151 0.3271484
vt 0.05905151 0.3271484
vt 0.05905151 0.3271484
vt 0.05944824 0.3271484
vt 0.05950928 0.3271484
vt 0.0585022 0.3271484
vt 0.05859375 0.3271484
vt 0.0585022 0.3271484
vt 0.05905151 0.3271484
vt 0.05905151 0.3271484
vt 0.05905151 0.3271484
vt 0.05944824 0.3271484
vt 0.05905151 0.3271484
vt 0.05905151 0.3271484
vt 0.05905151 0.3271484
vt 0.05944824 0.3271484
vt 0.05905151 0.3271484
vt 0.05905151 0.3271484
vt 0.0585022 0.3271484
vt 0.05905151 0.3271484
vt 0.05905151 0.3271484
vt 0.05905151 0.3271484
vt 0.05905151 0.3271484
vt 0.05905151 0.3271484
vt 0.05905151 0.3271484
vt 0.05905151 0.3271484
vt 0.05905151 0.3271484
vt 0.05905151 0.3271484
vt 0.05905151 0.3271484
vt 0.05905151 0.3271484
vt 0.05905151 0.3271484
vt 0.05905151 0.3271484
vt 0.05905151 0.3271484
vn -0.1320801 -0.3747559 0.9174805
vn -0.1320801 -0.3747559 0.9174805
vn -0.1320801 -0.3747559 0.9174805
vn -0.8447266 -0.4677734 0.2602539
vn -0.8447266 -0.4677734 0.2602539
vn -0.8447266 -0.4677734 0.2602539
vn -0.00712204 0.8671875 0.4975586
vn 0 0.8823242 0.4709473
vn -0.00712204 0.8671875 0.4975586
vn -0.004798889 0.8413086 0.5405273
vn -0.01423645 0.8515625 0.5239258
vn 0.004646301 0.8305664 0.5571289
vn 0.004646301 0.8305664 0.5571289
vn 0.8129883 -0.1254883 0.5688477
vn 0.8129883 -0.1254883 0.5688477
vn 0.8129883 -0.1254883 0.5688477
vn 0.784668 0.2883301 0.5488281
vn 0.784668 0.2883301 0.5488281
vn 0.784668 0.2883301 0.5488281
vn -0.02359009 0 0.9995117
vn -0.02359009 0 0.9995117
vn -0.02359009 0 0.9995117
vn 0 0.2734375 0.9619141
vn 0 0.2734375 0.9619141
vn 0 0.2734375 0.9619141
vn 1 0 0
vn 1 0 0
vn 1 0 0
vn 1 0 0
vn 0 0 -1
vn 0 0 -1
vn 0 0 -1
vn 0 0 -1
vn 0 0 -1
vn 0 0 -1
vn 0 0 -1
vn 0 0 -1
vn 0.7285156 0.6845703 0.02545166
vn 0.7285156 0.6845703 0.02545166
vn 0.7285156 0.6845703 0.02545166
vn 0.7285156 0.6845703 0.02545166
vn -0.7114258 0.7026367 0.02255249
vn -0.7114258 0.7026367 0.02255249
vn -0.7114258 0.7026367 0.02255249
vn -0.7114258 0.7026367 0.02255249
vn -0.006481171 -0.9995117 0.02210999
vn -0.006481171 -0.9995117 0.02210999
vn -0.006481171 -0.9995117 0.02210999
vn -0.006481171 -0.9995117 0.02210999
vn -1 -0.001144409 0
vn -1 -0.001144409 0
vn -1 0.001329422 0
vn -1 0.001329422 0
vn -1 0.003803253 0
vn -1 0.003803253 0
vn -0.006092072 1 0.02078247
vn -0.006092072 1 0.02078247
vn -0.006092072 1 0.02078247
vn -0.006092072 1 0.02078247
vn 1 -0.00435257 0.02030945
vn 1 -0.00428009 0.02058411
vn 1 -0.005569458 0.01354218
vn 1 -0.004142761 0.00668335
vn 1 0.001723289 0.001533508
vn 1 0.00932312 0.001738548
vn 1 0.01399231 0.002607346
vn 1 0.01480865 0.0006155968
vn 0.08074951 0.104187 0.9912109
vn 0.08074951 0.104187 0.9912109
vn 0.08074951 0.104187 0.9912109
vn 0.08074951 0.104187 0.9912109
vn 0 -1 0
vn 0 -1 0
vn 0 -1 0
vn 0 -1 0
vn 0 -1 0
vn 0 -1 0
vn 0 -1 0
vn 0 -1 0
vn 0 -1 0
vn 0 -1 0
vn -1 0 0
vn -1 0 0
vn -1 0 0
vn -1 0 0
vn -1 0 0
vn 1 -0.002607346 0
vn 1 -0.007575989 0
vn 1 -0.007575989 0
vn 1 -0.002607346 0
vn 1 0.002363205 0
vn 1 0.002363205 0
vn 0 1 0
vn 0 1 0
vn 0 1 0
vn 0 1 0
vn -1 -0.01507568 0
vn -1 -0.01507568 0
vn -1 -0.002986908 0
vn -1 -0.002986908 0
vn -1 0.009101868 0
vn -1 0.009101868 0
vn 0 0 -1
vn 0 0 -1
vn 0 0 -1
vn 0 0 -1
vn 0 0 -1
vn 0 0 -1
vn 0 0 -1
vn 0 0 -1
vn 0 0 -1
vn 0 0 -1
vn 0 0 -1
vn 0 0 -1
vn 0 0 -1
vn 0 0 -1
vn 0 0 -1
vn 0 0 -1
vn 0 0 1
vn 0 0 1
vn 0 0 1
vn 0 0 1
vn 0 0 1
vn 0 0 1
vn 0 0 1
vn 0 0 1
vn 0 0 1
vn 0 0 1
vn 0 0 1
vn 0 0 1
vn 0 0 1
vn 0 0 1
g SM_Bld_House_Door_03_0
f 3/3/3 2/2/2 1/1/1
f 6/6/6 5/5/5 4/4/4
f 9/9/9 8/8/8 7/7/7
f 11/11/11 10/10/10 7/7/7
f 13/13/13 12/12/12 10/10/10
f 16/16/16 15/15/15 14/14/14
f 19/19/19 18/18/18 17/17/17
f 22/22/22 21/21/21 20/20/20
f 25/25/25 24/24/24 23/23/23
f 28/28/28 27/27/27 26/26/26
f 29/29/29 28/28/28 26/26/26
f 32/32/32 31/31/31 30/30/30
f 31/31/31 33/33/33 30/30/30
f 30/30/30 33/33/33 34/34/34
f 33/33/33 35/35/35 34/34/34
f 34/34/34 35/35/35 36/36/36
f 37/37/37 34/34/34 36/36/36
f 40/40/40 39/39/39 38/38/38
f 41/41/41 40/40/40 38/38/38
f 44/44/44 43/43/43 42/42/42
f 45/45/45 44/44/44 42/42/42
f 48/48/48 47/47/47 46/46/46
f 49/49/49 48/48/48 46/46/46
f 52/52/52 51/51/51 50/50/50
f 53/53/53 52/52/52 50/50/50
f 54/54/54 52/52/52 53/53/53
f 55/55/55 54/54/54 53/53/53
f 58/58/58 57/57/57 56/56/56
f 59/59/59 58/58/58 56/56/56
f 62/62/62 61/61/61 60/60/60
f 62/62/62 60/60/60 63/63/63
f 63/63/63 64/64/64 62/62/62
f 64/64/64 63/63/63 65/65/65
f 66/66/66 64/64/64 65/65/65
f 65/65/65 67/67/67 66/66/66
f 70/70/70 69/69/69 68/68/68
f 71/71/71 70/70/70 68/68/68
f 74/74/74 73/73/73 72/72/72
f 74/74/74 72/72/72 75/75/75
f 75/75/75 72/72/72 76/76/76
f 75/75/75 77/77/77 74/74/74
f 77/77/77 78/78/78 74/74/74
f 78/78/78 79/79/79 74/74/74
f 80/80/80 75/75/75 76/76/76
f 78/78/78 80/80/80 79/79/79
f 76/76/76 81/81/81 80/80/80
f 80/80/80 81/81/81 79/79/79
f 84/84/84 83/83/83 82/82/82
f 82/82/82 85/85/85 84/84/84
f 82/82/82 86/86/86 85/85/85
f 89/89/89 88/88/88 87/87/87
f 88/88/88 90/90/90 87/87/87
f 87/87/87 90/90/90 91/91/91
f 90/90/90 92/92/92 91/91/91
f 95/95/95 94/94/94 93/93/93
f 96/96/96 95/95/95 93/93/93
f 99/99/99 98/98/98 97/97/97
f 100/100/100 99/99/99 97/97/97
f 101/101/101 99/99/99 100/100/100
f 102/102/102 101/101/101 100/100/100
f 105/105/105 104/104/104 103/103/103
f 106/106/106 105/105/105 103/103/103
f 109/109/109 108/108/108 107/107/107
f 108/108/108 110/110/110 107/107/107
f 108/108/108 111/111/111 110/110/110
f 111/111/111 112/112/112 110/110/110
f 115/115/115 114/114/114 113/113/113
f 116/116/116 115/115/115 113/113/113
f 117/117/117 116/116/116 113/113/113
f 118/118/118 117/117/117 113/113/113
f 121/121/121 120/120/120 119/119/119
f 119/119/119 120/120/120 122/122/122
f 123/123/123 119/119/119 122/122/122
f 122/122/122 124/124/124 123/123/123
f 124/124/124 122/122/122 125/125/125
f 126/126/126 124/124/124 125/125/125
f 126/126/126 125/125/125 127/127/127
f 128/128/128 126/126/126 127/127/127
f 128/128/128 127/127/127 129/129/129
f 130/130/130 128/128/128 129/129/129
f 130/130/130 129/129/129 121/121/121
f 121/121/121 119/119/119 131/131/131
f 132/132/132 130/130/130 121/121/121
f 131/131/131 132/132/132 121/121/121
