g SM_Chr_Attach_Swimming_Goggles_Glass_01
v -0.06277823 0.07005432 0.1220367
v -0.04368649 0.07331085 0.1234374
v -0.04368649 0.05590149 0.1234374
v -0.02127848 0.07005432 0.1250813
v -0.01668672 0.05590149 0.1254182
v -0.02127848 0.04174851 0.1250813
v -0.04368649 0.03588623 0.1234374
v -0.06577198 0.04174851 0.1218171
v -0.07368002 0.05590149 0.1212369
v -0.0645685 0.07254852 0.103579
v -0.04263234 0.07683799 0.1087086
v -0.0168858 0.07254852 0.1147292
v -0.01160993 0.05590149 0.1159629
v -0.0168858 0.03925438 0.1147292
v -0.04263234 0.03235878 0.1087086
v -0.06800828 0.03925438 0.1027747
v -0.07709451 0.05590149 0.1006499
v 0.06278749 0.07005432 0.1220367
v 0.04369576 0.07331085 0.1234374
v 0.04369576 0.05590149 0.1234374
v 0.02128774 0.07005432 0.1250813
v 0.01669598 0.05590149 0.1254182
v 0.02128774 0.04174851 0.1250813
v 0.04369576 0.03588623 0.1234374
v 0.06578124 0.04174851 0.1218171
v 0.07368927 0.05590149 0.1212369
v 0.06457775 0.07254852 0.103579
v 0.0426416 0.07683799 0.1087086
v 0.01689507 0.07254852 0.1147292
v 0.01161919 0.05590149 0.1159629
v 0.01689507 0.03925438 0.1147292
v 0.0426416 0.03235878 0.1087086
v 0.06801753 0.03925438 0.1027747
v 0.07710377 0.05590149 0.1006499
v -0.04368649 0.07331085 0.1234374
v -0.06277823 0.07005432 0.1220367
v -0.04263234 0.07683799 0.1087086
v -0.02127848 0.07005432 0.1250813
v -0.04368649 0.07331085 0.1234374
v -0.0168858 0.07254852 0.1147292
v -0.01668672 0.05590149 0.1254182
v -0.02127848 0.07005432 0.1250813
v -0.01160993 0.05590149 0.1159629
v -0.02127848 0.04174851 0.1250813
v -0.01668672 0.05590149 0.1254182
v -0.0168858 0.03925438 0.1147292
v -0.04368649 0.03588623 0.1234374
v -0.02127848 0.04174851 0.1250813
v -0.04263234 0.03235878 0.1087086
v -0.06577198 0.04174851 0.1218171
v -0.04368649 0.03588623 0.1234374
v -0.06800828 0.03925438 0.1027747
v -0.07368002 0.05590149 0.1212369
v -0.06577198 0.04174851 0.1218171
v -0.07709451 0.05590149 0.1006499
v -0.0645685 0.07254852 0.103579
v -0.06277823 0.07005432 0.1220367
v -0.07368002 0.05590149 0.1212369
v 0.06278749 0.07005432 0.1220367
v 0.04369576 0.07331085 0.1234374
v 0.0426416 0.07683799 0.1087086
v 0.04369576 0.07331085 0.1234374
v 0.02128774 0.07005432 0.1250813
v 0.01689507 0.07254852 0.1147292
v 0.02128774 0.07005432 0.1250813
v 0.01669598 0.05590149 0.1254182
v 0.01161919 0.05590149 0.1159629
v 0.01669598 0.05590149 0.1254182
v 0.02128774 0.04174851 0.1250813
v 0.01689507 0.03925438 0.1147292
v 0.02128774 0.04174851 0.1250813
v 0.04369576 0.03588623 0.1234374
v 0.0426416 0.03235878 0.1087086
v 0.04369576 0.03588623 0.1234374
v 0.06578124 0.04174851 0.1218171
v 0.06801753 0.03925438 0.1027747
v 0.06578124 0.04174851 0.1218171
v 0.07368927 0.05590149 0.1212369
v 0.07710377 0.05590149 0.1006499
v 0.07368927 0.05590149 0.1212369
v 0.06278749 0.07005432 0.1220367
v 0.06457775 0.07254852 0.103579
vt 0.08013856 0.2311848
vt 0.08045205 0.2311022
vt 0.08045337 0.2313857
vt 0.08082221 0.2311861
vt 0.0808982 0.231387
vt 0.08082256 0.2315867
vt 0.08045474 0.2316675
vt 0.08009279 0.2315837
vt 0.07996172 0.2313842
vt 0.08014172 0.2311442
vt 0.08047399 0.2310562
vt 0.08087406 0.2311521
vt 0.08095709 0.2313767
vt 0.08087421 0.2315973
vt 0.08047676 0.231678
vt 0.08009386 0.2315779
vt 0.07995713 0.2313588
vt 0.08013856 0.2311848
vt 0.08045205 0.2311022
vt 0.08045337 0.2313857
vt 0.08082221 0.2311861
vt 0.0808982 0.231387
vt 0.08082256 0.2315867
vt 0.08045474 0.2316675
vt 0.08009279 0.2315837
vt 0.07996172 0.2313842
vt 0.08014172 0.2311442
vt 0.08047399 0.2310562
vt 0.08087406 0.2311521
vt 0.08095709 0.2313767
vt 0.08087421 0.2315973
vt 0.08047676 0.231678
vt 0.08009386 0.2315779
vt 0.07995713 0.2313588
vt 0.08045205 0.2311022
vt 0.08013856 0.2311848
vt 0.08047399 0.2310562
vt 0.08082221 0.2311861
vt 0.08045205 0.2311022
vt 0.08087406 0.2311521
vt 0.0808982 0.231387
vt 0.08082221 0.2311861
vt 0.08095709 0.2313767
vt 0.08082256 0.2315867
vt 0.0808982 0.231387
vt 0.08087421 0.2315973
vt 0.08045474 0.2316675
vt 0.08082256 0.2315867
vt 0.08047676 0.231678
vt 0.08009279 0.2315837
vt 0.08045474 0.2316675
vt 0.08009386 0.2315779
vt 0.07996172 0.2313842
vt 0.08009279 0.2315837
vt 0.07995713 0.2313588
vt 0.08014172 0.2311442
vt 0.08013856 0.2311848
vt 0.07996172 0.2313842
vt 0.08013856 0.2311848
vt 0.08045205 0.2311022
vt 0.08047399 0.2310562
vt 0.08045205 0.2311022
vt 0.08082221 0.2311861
vt 0.08087406 0.2311521
vt 0.08082221 0.2311861
vt 0.0808982 0.231387
vt 0.08095709 0.2313767
vt 0.0808982 0.231387
vt 0.08082256 0.2315867
vt 0.08087421 0.2315973
vt 0.08082256 0.2315867
vt 0.08045474 0.2316675
vt 0.08047676 0.231678
vt 0.08045474 0.2316675
vt 0.08009279 0.2315837
vt 0.08009386 0.2315779
vt 0.08009279 0.2315837
vt 0.07996172 0.2313842
vt 0.07995713 0.2313588
vt 0.07996172 0.2313842
vt 0.08013856 0.2311848
vt 0.08014172 0.2311442
vn -0.07316723 0 0.9973196
vn -0.07316732 0 0.9973196
vn -0.07316736 0 0.9973196
vn -0.07316734 0 0.9973196
vn -0.07316729 0 0.9973196
vn -0.07316737 0 0.9973196
vn -0.0731675 0 0.9973196
vn -0.07316735 0 0.9973196
vn -0.07316725 0 0.9973196
vn -0.2054696 0.962131 0.1791262
vn -0.2054695 0.962131 0.1791261
vn 0.1100404 0.9607764 0.2545579
vn 0.8473831 0.2940302 0.4421403
vn 0.8473842 -0.2940284 0.4421396
vn 0.206085 -0.9403945 0.2705314
vn -0.2817657 -0.9428325 0.1779748
vn -0.8708218 -0.4669989 0.1535622
vn 0.07316723 0 0.9973196
vn 0.07316732 0 0.9973196
vn 0.07316736 0 0.9973196
vn 0.07316737 0 0.9973196
vn 0.07316732 0 0.9973196
vn 0.07316738 0 0.9973196
vn 0.0731675 0 0.9973196
vn 0.07316735 0 0.9973196
vn 0.07316725 0 0.9973196
vn 0.2054696 0.962131 0.1791262
vn 0.2054695 0.962131 0.1791261
vn -0.1100405 0.9607765 0.2545579
vn -0.8473831 0.2940301 0.4421403
vn -0.8473842 -0.2940284 0.4421395
vn -0.206085 -0.9403945 0.2705313
vn 0.2817657 -0.9428325 0.1779748
vn 0.8708218 -0.4669989 0.1535622
vn -0.2054695 0.962131 0.1791262
vn -0.2054695 0.962131 0.1791261
vn 0.1100404 0.9607764 0.2545579
vn 0.1100404 0.9607764 0.2545579
vn 0.1100404 0.9607764 0.254558
vn 0.8473831 0.2940302 0.4421403
vn 0.8473831 0.2940302 0.4421404
vn 0.8473831 0.2940302 0.4421403
vn 0.8473842 -0.2940284 0.4421396
vn 0.8473842 -0.2940284 0.4421396
vn 0.8473842 -0.2940284 0.4421396
vn 0.206085 -0.9403945 0.2705314
vn 0.206085 -0.9403945 0.2705314
vn 0.206085 -0.9403945 0.2705314
vn -0.2817657 -0.9428325 0.1779748
vn -0.2817656 -0.9428325 0.1779748
vn -0.2817657 -0.9428325 0.1779748
vn -0.8708219 -0.4669989 0.1535622
vn -0.8708218 -0.4669989 0.1535622
vn -0.8708219 -0.4669989 0.1535622
vn -0.7959615 0.5880516 0.1436686
vn -0.7959616 0.5880515 0.1436686
vn -0.7959615 0.5880516 0.1436686
vn -0.7959615 0.5880516 0.1436686
vn 0.2054695 0.962131 0.1791261
vn 0.2054695 0.962131 0.1791262
vn -0.1100404 0.9607764 0.2545579
vn -0.1100405 0.9607764 0.2545579
vn -0.1100405 0.9607765 0.2545579
vn -0.8473831 0.2940302 0.4421403
vn -0.8473831 0.2940301 0.4421403
vn -0.8473831 0.2940302 0.4421404
vn -0.8473842 -0.2940283 0.4421396
vn -0.8473842 -0.2940284 0.4421395
vn -0.8473842 -0.2940284 0.4421395
vn -0.206085 -0.9403945 0.2705314
vn -0.206085 -0.9403945 0.2705314
vn -0.206085 -0.9403945 0.2705314
vn 0.2817657 -0.9428325 0.1779748
vn 0.2817657 -0.9428325 0.1779748
vn 0.2817656 -0.9428325 0.1779748
vn 0.8708219 -0.4669989 0.1535622
vn 0.8708219 -0.4669989 0.1535622
vn 0.8708218 -0.4669989 0.1535622
vn 0.7959615 0.5880516 0.1436686
vn 0.7959615 0.5880516 0.1436686
vn 0.7959615 0.5880516 0.1436686
vn 0.7959616 0.5880515 0.1436685
g SM_Chr_Attach_Swimming_Goggles_Glass_01_0
f 35/35/35 11/11/11 10/10/10
f 36/36/36 35/35/35 10/10/10
f 38/38/38 12/12/12 37/37/37
f 39/39/39 38/38/38 37/37/37
f 41/41/41 13/13/13 40/40/40
f 42/42/42 41/41/41 40/40/40
f 44/44/44 14/14/14 43/43/43
f 45/45/45 44/44/44 43/43/43
f 47/47/47 15/15/15 46/46/46
f 48/48/48 47/47/47 46/46/46
f 50/50/50 16/16/16 49/49/49
f 51/51/51 50/50/50 49/49/49
f 53/53/53 17/17/17 52/52/52
f 54/54/54 53/53/53 52/52/52
f 57/57/57 56/56/56 55/55/55
f 58/58/58 57/57/57 55/55/55
f 60/60/60 59/59/59 27/27/27
f 28/28/28 60/60/60 27/27/27
f 63/63/63 62/62/62 61/61/61
f 29/29/29 63/63/63 61/61/61
f 66/66/66 65/65/65 64/64/64
f 30/30/30 66/66/66 64/64/64
f 69/69/69 68/68/68 67/67/67
f 31/31/31 69/69/69 67/67/67
f 72/72/72 71/71/71 70/70/70
f 32/32/32 72/72/72 70/70/70
f 75/75/75 74/74/74 73/73/73
f 33/33/33 75/75/75 73/73/73
f 78/78/78 77/77/77 76/76/76
f 34/34/34 78/78/78 76/76/76
f 81/81/81 80/80/80 79/79/79
f 82/82/82 81/81/81 79/79/79
f 3/3/3 2/2/2 1/1/1
f 3/3/3 1/1/1 9/9/9
f 3/3/3 4/4/4 2/2/2
f 3/3/3 9/9/9 8/8/8
f 3/3/3 5/5/5 4/4/4
f 3/3/3 8/8/8 7/7/7
f 3/3/3 6/6/6 5/5/5
f 3/3/3 7/7/7 6/6/6
f 19/19/19 20/20/20 18/18/18
f 18/18/18 20/20/20 26/26/26
f 21/21/21 20/20/20 19/19/19
f 26/26/26 20/20/20 25/25/25
f 22/22/22 20/20/20 21/21/21
f 25/25/25 20/20/20 24/24/24
f 23/23/23 20/20/20 22/22/22
f 24/24/24 20/20/20 23/23/23
