g SM_Env_Dirt_Rocks_01
v 0.2501331 0.2588928 0.5605037
v 0.7271081 0.2334328 0.6024324
v 0.2691223 0.2601021 0.3968269
v 0.7229626 0.2385354 0.4006453
v 0.2922668 0.06220566 0.3641316
v 0.676676 0.03653244 0.3683406
v 0.2649646 0.03570953 0.5790828
v 0.679198 0.002098694 0.6133992
v 0.5330823 0.2924426 0.3652596
v 0.5215735 0.298156 0.6266414
v -0.486344 0.2298053 -0.100009
v -0.1502722 0.2268353 -0.1556145
v -0.3391735 0.1888101 -0.5871672
v -0.1129211 0.1880081 -0.5110149
v -0.3607678 0.05789718 -0.5986418
v -0.0934265 0.05695175 -0.5088078
v -0.4826208 0.06969452 -0.0815422
v -0.125094 0 -0.1263957
v -0.2891442 0.3322897 -0.2799943
v -0.4989807 0.2941003 -0.3646135
v -0.5156799 0.06413116 -0.3741838
v -0.5662219 0.01911148 -0.7950822
v -0.7150207 0.06786926 -0.5816838
v -0.5560217 0.1991 -0.7972795
v -0.6947009 0.2275374 -0.6031731
v -0.4417565 0.1835933 -0.6764055
v -0.5546984 0.2192778 -0.5417912
v -0.4332751 0.05098572 -0.6657072
v -0.5552868 0.07227218 -0.5116984
v -0.7057751 0.2082312 -0.7491984
v -0.7271057 0.04678375 -0.7411759
v -0.09238401 0.09874878 0.7534333
v -0.2901648 0.1220007 0.4174715
v -0.1140759 0.2202982 0.7653816
v -0.3021887 0.2794131 0.4525105
v -0.2740808 0.1793613 0.7972859
v -0.3882751 0.2445781 0.5479939
v -0.2705114 0.08678833 0.7965047
v -0.392528 0.09550338 0.5276473
v -0.1051574 0.2935335 0.4947664
v -0.08043089 0.1366273 0.464532
v 0.2488977 0.1271573 0.05426834
v 0.1686389 0.1248383 0.3050545
v 0.2439954 0.3064613 0.0702742
v 0.1690637 0.2881432 0.297491
v 0.3901917 0.293624 0.1499373
v 0.321095 0.2940405 0.3142195
v 0.4117298 0.1628633 0.1421248
v 0.341012 0.1452023 0.3257088
v 0.1158118 0.2859692 0.1601326
v 0.1104944 0.1224649 0.1550252
v 0.5330823 0.2924426 0.3652596
v 0.2922668 0.06220566 0.3641316
v 0.2649646 0.03570953 0.5790828
v 0.5215735 0.298156 0.6266414
v 0.7271081 0.2334328 0.6024324
v 0.7229626 0.2385354 0.4006453
v 0.676676 0.03653244 0.3683406
v 0.679198 0.002098694 0.6133992
v 0.2649646 0.03570953 0.5790828
v 0.2922668 0.06220566 0.3641316
v 0.2691223 0.2601021 0.3968269
v 0.2501331 0.2588928 0.5605037
v 0.2501331 0.2588928 0.5605037
v 0.2691223 0.2601021 0.3968269
v 0.5330823 0.2924426 0.3652596
v 0.5215735 0.298156 0.6266414
v 0.2922668 0.06220566 0.3641316
v 0.676676 0.03653244 0.3683406
v 0.7229626 0.2385354 0.4006453
v 0.5330823 0.2924426 0.3652596
v 0.679198 0.002098694 0.6133992
v 0.2649646 0.03570953 0.5790828
v 0.5215735 0.298156 0.6266414
v 0.7271081 0.2334328 0.6024324
v -0.4826208 0.06969452 -0.0815422
v -0.1502722 0.2268353 -0.1556145
v -0.125094 0 -0.1263957
v -0.1502722 0.2268353 -0.1556145
v -0.1129211 0.1880081 -0.5110149
v -0.0934265 0.05695175 -0.5088078
v -0.125094 0 -0.1263957
v -0.4826208 0.06969452 -0.0815422
v -0.5156799 0.06413116 -0.3741838
v -0.486344 0.2298053 -0.100009
v -0.486344 0.2298053 -0.100009
v -0.4989807 0.2941003 -0.3646135
v -0.2891442 0.3322897 -0.2799943
v -0.486344 0.2298053 -0.100009
v -0.2891442 0.3322897 -0.2799943
v -0.1502722 0.2268353 -0.1556145
v -0.0934265 0.05695175 -0.5088078
v -0.1129211 0.1880081 -0.5110149
v -0.4989807 0.2941003 -0.3646135
v -0.1129211 0.1880081 -0.5110149
v -0.2891442 0.3322897 -0.2799943
v -0.5156799 0.06413116 -0.3741838
v -0.3607678 0.05789718 -0.5986418
v -0.3391735 0.1888101 -0.5871672
v -0.4989807 0.2941003 -0.3646135
v -0.3607678 0.05789718 -0.5986418
v -0.5156799 0.06413116 -0.3741838
v -0.0934265 0.05695175 -0.5088078
v -0.4989807 0.2941003 -0.3646135
v -0.3391735 0.1888101 -0.5871672
v -0.1129211 0.1880081 -0.5110149
v -0.6947009 0.2275374 -0.6031731
v -0.7057751 0.2082312 -0.7491984
v -0.5546984 0.2192778 -0.5417912
v -0.7271057 0.04678375 -0.7411759
v -0.7150207 0.06786926 -0.5816838
v -0.5552868 0.07227218 -0.5116984
v -0.7150207 0.06786926 -0.5816838
v -0.6947009 0.2275374 -0.6031731
v -0.5546984 0.2192778 -0.5417912
v -0.5552868 0.07227218 -0.5116984
v -0.4332751 0.05098572 -0.6657072
v -0.4417565 0.1835933 -0.6764055
v -0.5560217 0.1991 -0.7972795
v -0.5662219 0.01911148 -0.7950822
v -0.5662219 0.01911148 -0.7950822
v -0.5560217 0.1991 -0.7972795
v -0.7057751 0.2082312 -0.7491984
v -0.7271057 0.04678375 -0.7411759
v -0.5560217 0.1991 -0.7972795
v -0.4417565 0.1835933 -0.6764055
v -0.5546984 0.2192778 -0.5417912
v -0.4332751 0.05098572 -0.6657072
v -0.5662219 0.01911148 -0.7950822
v -0.5552868 0.07227218 -0.5116984
v -0.3021887 0.2794131 0.4525105
v -0.1051574 0.2935335 0.4947664
v -0.3882751 0.2445781 0.5479939
v -0.08043089 0.1366273 0.464532
v -0.2901648 0.1220007 0.4174715
v -0.392528 0.09550338 0.5276473
v -0.2901648 0.1220007 0.4174715
v -0.3021887 0.2794131 0.4525105
v -0.3882751 0.2445781 0.5479939
v -0.392528 0.09550338 0.5276473
v -0.2705114 0.08678833 0.7965047
v -0.2740808 0.1793613 0.7972859
v -0.1140759 0.2202982 0.7653816
v -0.09238401 0.09874878 0.7534333
v -0.09238401 0.09874878 0.7534333
v -0.1140759 0.2202982 0.7653816
v -0.1051574 0.2935335 0.4947664
v -0.08043089 0.1366273 0.464532
v -0.2740808 0.1793613 0.7972859
v -0.2705114 0.08678833 0.7965047
v 0.1690637 0.2881432 0.297491
v 0.1158118 0.2859692 0.1601326
v 0.321095 0.2940405 0.3142195
v 0.1104944 0.1224649 0.1550252
v 0.1686389 0.1248383 0.3050545
v 0.341012 0.1452023 0.3257088
v 0.1686389 0.1248383 0.3050545
v 0.1690637 0.2881432 0.297491
v 0.321095 0.2940405 0.3142195
v 0.341012 0.1452023 0.3257088
v 0.4117298 0.1628633 0.1421248
v 0.3901917 0.293624 0.1499373
v 0.2439954 0.3064613 0.0702742
v 0.2488977 0.1271573 0.05426834
v 0.2488977 0.1271573 0.05426834
v 0.2439954 0.3064613 0.0702742
v 0.1158118 0.2859692 0.1601326
v 0.1104944 0.1224649 0.1550252
v 0.2439954 0.3064613 0.0702742
v 0.3901917 0.293624 0.1499373
v 0.321095 0.2940405 0.3142195
v 0.4117298 0.1628633 0.1421248
v 0.2488977 0.1271573 0.05426834
v 0.341012 0.1452023 0.3257088
vt 0.04734086 0.1618929
vt 0.04699925 0.1627336
vt 0.04703597 0.1617887
vt 0.04664487 0.1625547
vt 0.04695398 0.1619146
vt 0.04662711 0.1625625
vt 0.04735184 0.1620607
vt 0.04705448 0.1627887
vt 0.04675097 0.1621452
vt 0.04722608 0.162341
vt 0.04732592 0.1621498
vt 0.04697172 0.1626457
vt 0.04641289 0.1620324
vt 0.04635859 0.1624499
vt 0.04641569 0.1620402
vt 0.04635186 0.1625306
vt 0.04735184 0.1622303
vt 0.04700176 0.1627887
vt 0.04687462 0.1622893
vt 0.04690076 0.1619052
vt 0.04690088 0.1619616
vt 0.04717962 0.1619567
vt 0.04687605 0.1627887
vt 0.04711265 0.1618473
vt 0.04684577 0.1626255
vt 0.04654331 0.1617928
vt 0.04638661 0.1623707
vt 0.04653836 0.161849
vt 0.0463518 0.1624944
vt 0.0472848 0.1623571
vt 0.04735184 0.1624975
vt 0.04717416 0.1618462
vt 0.04683367 0.1627887
vt 0.04712564 0.1617886
vt 0.04679982 0.162663
vt 0.04669327 0.1617953
vt 0.04652596 0.1624683
vt 0.04669488 0.161824
vt 0.04651327 0.1625633
vt 0.04729138 0.1624558
vt 0.04735184 0.1625645
vt 0.04717962 0.1619567
vt 0.04687605 0.1627887
vt 0.04711265 0.1618473
vt 0.04684577 0.1626255
vt 0.04654331 0.1617928
vt 0.04638661 0.1623707
vt 0.04653836 0.161849
vt 0.0463518 0.1624944
vt 0.0472848 0.1623571
vt 0.04735184 0.1624975
vt 0.04675097 0.1621452
vt 0.04695398 0.1619146
vt 0.04735184 0.1620607
vt 0.04722608 0.162341
vt 0.04699925 0.1627336
vt 0.04664487 0.1625547
vt 0.04662711 0.1625625
vt 0.04705448 0.1627887
vt 0.04735184 0.1620607
vt 0.04695398 0.1619146
vt 0.04703597 0.1617887
vt 0.04734086 0.1618929
vt 0.04734086 0.1618929
vt 0.04703597 0.1617887
vt 0.04675097 0.1621452
vt 0.04722608 0.162341
vt 0.04695398 0.1619146
vt 0.04662711 0.1625625
vt 0.04664487 0.1625547
vt 0.04675097 0.1621452
vt 0.04705448 0.1627887
vt 0.04735184 0.1620607
vt 0.04722608 0.162341
vt 0.04699925 0.1627336
vt 0.04735184 0.1622303
vt 0.04697172 0.1626457
vt 0.04700176 0.1627887
vt 0.04697172 0.1626457
vt 0.04635859 0.1624499
vt 0.04635186 0.1625306
vt 0.04700176 0.1627887
vt 0.04735184 0.1622303
vt 0.04690088 0.1619616
vt 0.04732592 0.1621498
vt 0.04732592 0.1621498
vt 0.04690076 0.1619052
vt 0.04687462 0.1622893
vt 0.04732592 0.1621498
vt 0.04687462 0.1622893
vt 0.04697172 0.1626457
vt 0.04635186 0.1625306
vt 0.04635859 0.1624499
vt 0.04690076 0.1619052
vt 0.04635859 0.1624499
vt 0.04687462 0.1622893
vt 0.04690088 0.1619616
vt 0.04641569 0.1620402
vt 0.04641289 0.1620324
vt 0.04690076 0.1619052
vt 0.04641569 0.1620402
vt 0.04690088 0.1619616
vt 0.04635186 0.1625306
vt 0.04690076 0.1619052
vt 0.04641289 0.1620324
vt 0.04635859 0.1624499
vt 0.04684577 0.1626255
vt 0.0472848 0.1623571
vt 0.04638661 0.1623707
vt 0.04735184 0.1624975
vt 0.04687605 0.1627887
vt 0.0463518 0.1624944
vt 0.04687605 0.1627887
vt 0.04684577 0.1626255
vt 0.04638661 0.1623707
vt 0.0463518 0.1624944
vt 0.04653836 0.161849
vt 0.04654331 0.1617928
vt 0.04711265 0.1618473
vt 0.04717962 0.1619567
vt 0.04717962 0.1619567
vt 0.04711265 0.1618473
vt 0.0472848 0.1623571
vt 0.04735184 0.1624975
vt 0.04711265 0.1618473
vt 0.04654331 0.1617928
vt 0.04638661 0.1623707
vt 0.04653836 0.161849
vt 0.04717962 0.1619567
vt 0.0463518 0.1624944
vt 0.04679982 0.162663
vt 0.04729138 0.1624558
vt 0.04652596 0.1624683
vt 0.04735184 0.1625645
vt 0.04683367 0.1627887
vt 0.04651327 0.1625633
vt 0.04683367 0.1627887
vt 0.04679982 0.162663
vt 0.04652596 0.1624683
vt 0.04651327 0.1625633
vt 0.04669488 0.161824
vt 0.04669327 0.1617953
vt 0.04712564 0.1617886
vt 0.04717416 0.1618462
vt 0.04717416 0.1618462
vt 0.04712564 0.1617886
vt 0.04729138 0.1624558
vt 0.04735184 0.1625645
vt 0.04669327 0.1617953
vt 0.04669488 0.161824
vt 0.04684577 0.1626255
vt 0.0472848 0.1623571
vt 0.04638661 0.1623707
vt 0.04735184 0.1624975
vt 0.04687605 0.1627887
vt 0.0463518 0.1624944
vt 0.04687605 0.1627887
vt 0.04684577 0.1626255
vt 0.04638661 0.1623707
vt 0.0463518 0.1624944
vt 0.04653836 0.161849
vt 0.04654331 0.1617928
vt 0.04711265 0.1618473
vt 0.04717962 0.1619567
vt 0.04717962 0.1619567
vt 0.04711265 0.1618473
vt 0.0472848 0.1623571
vt 0.04735184 0.1624975
vt 0.04711265 0.1618473
vt 0.04654331 0.1617928
vt 0.04638661 0.1623707
vt 0.04653836 0.161849
vt 0.04717962 0.1619567
vt 0.0463518 0.1624944
vn -0.2450028 0.06424984 0.9673911
vn 0.2872737 0.9578428 0.003304105
vn -0.1351011 0.1461095 -0.9799998
vn 0.2872736 0.9578428 0.003304105
vn -0.1351011 0.1461095 -0.9799998
vn -0.06689751 -0.9886457 -0.1345532
vn -0.06689752 -0.9886457 -0.1345532
vn -0.06689753 -0.9886457 -0.1345532
vn 0.2872737 0.9578428 0.003304105
vn 0.2872736 0.9578428 0.003304105
vn 0.1556405 0.1322626 0.9789191
vn 0.6165882 0.7870009 -0.02117841
vn 0.3186871 0.03096 -0.9473541
vn 0.6165883 0.7870009 -0.02117842
vn 0.3186871 0.03095999 -0.9473541
vn -0.1149505 -0.9905233 -0.07516653
vn -0.1149505 -0.9905233 -0.07516653
vn -0.1149505 -0.9905233 -0.07516654
vn 0.6165883 0.7870008 -0.02117841
vn -0.9957337 0.0350698 0.08534931
vn -0.1149505 -0.9905233 -0.07516654
vn -0.07976752 -0.98241 0.1688429
vn -0.9893758 0.1335966 0.05733528
vn 0.06416888 0.9929537 -0.09962615
vn -0.9893758 0.1335966 0.05733529
vn 0.7813523 0.1116327 0.614025
vn 0.06416888 0.9929537 -0.09962617
vn 0.7813523 0.1116327 0.6140251
vn 0.7813523 0.1116327 0.6140251
vn -0.9893758 0.1335966 0.05733528
vn -0.9893758 0.1335966 0.05733529
vn 0.08927108 -0.9900912 -0.1083976
vn 0.1942189 0.221175 -0.955699
vn -0.1356259 0.9519513 0.2745806
vn 0.1942189 0.221175 -0.955699
vn -0.9111912 -0.03332517 0.4106334
vn -0.1256602 0.9568971 0.2618347
vn -0.9111912 -0.03332516 0.4106334
vn -0.9111912 -0.03332516 0.4106334
vn 0.1942189 0.221175 -0.955699
vn 0.1942189 0.221175 -0.955699
vn 0.08495403 -0.9962227 0.01797562
vn -0.9323364 0.01909523 0.3610877
vn -0.07965174 0.9953602 0.05397816
vn -0.9323364 0.01909523 0.3610877
vn 0.9161869 0.1407737 0.3752124
vn -0.07965174 0.9953602 0.05397816
vn 0.9161869 0.1407737 0.3752124
vn 0.9161869 0.1407737 0.3752124
vn -0.9323364 0.01909523 0.3610877
vn -0.9323364 0.01909523 0.3610877
vn -0.1351011 0.1461095 -0.9799998
vn -0.06689753 -0.9886457 -0.1345532
vn -0.2450028 0.06424984 0.9673911
vn -0.2450028 0.06424984 0.9673911
vn 0.9769785 -0.210735 -0.03322333
vn 0.9769785 -0.210735 -0.03322333
vn 0.9769785 -0.210735 -0.03322333
vn 0.9769785 -0.210735 -0.03322333
vn -0.9882606 -0.0848699 -0.1270361
vn -0.9882606 -0.0848699 -0.1270361
vn -0.9882606 -0.08486991 -0.1270361
vn -0.9882606 -0.08486989 -0.1270361
vn -0.1312683 0.9911467 -0.01992111
vn -0.1312683 0.9911467 -0.01992111
vn -0.1312683 0.9911467 -0.01992111
vn -0.1312683 0.9911467 -0.01992111
vn 0.07272583 0.02880446 -0.996936
vn 0.07272583 0.02880446 -0.996936
vn 0.07272583 0.02880446 -0.996936
vn 0.07272583 0.02880447 -0.996936
vn -0.02551298 -0.05822142 0.9979777
vn -0.02551298 -0.05822142 0.9979777
vn -0.02551298 -0.05822142 0.9979777
vn -0.02551298 -0.05822142 0.9979777
vn 0.1556405 0.1322626 0.9789191
vn 0.1556405 0.1322626 0.9789191
vn 0.1556405 0.1322626 0.9789191
vn 0.9866956 0.1315501 0.09553185
vn 0.9866956 0.1315501 0.09553185
vn 0.9866956 0.1315501 0.09553184
vn 0.9866956 0.1315501 0.09553185
vn -0.9957337 0.03506979 0.08534928
vn -0.9957337 0.0350698 0.08534929
vn -0.9957337 0.0350698 0.08534929
vn -0.2665193 0.93358 0.2395745
vn -0.2665193 0.93358 0.2395745
vn -0.2665192 0.93358 0.2395745
vn 0.1022216 0.8121419 0.5744356
vn 0.1022216 0.8121419 0.5744356
vn 0.1022216 0.8121419 0.5744355
vn 0.3186871 0.03096 -0.9473541
vn 0.3186871 0.03096 -0.9473543
vn 0.04608825 0.8626901 -0.5036285
vn 0.04608825 0.8626901 -0.5036285
vn 0.04608825 0.8626901 -0.5036284
vn -0.7976188 0.1191166 -0.5912828
vn -0.7976189 0.1191167 -0.5912828
vn -0.7976188 0.1191167 -0.5912828
vn -0.7976189 0.1191167 -0.5912828
vn -0.01044364 -0.9997341 0.02055829
vn -0.01044364 -0.9997341 0.02055829
vn -0.01044364 -0.9997341 0.02055829
vn 0.1216786 0.9281565 -0.3517383
vn 0.1216787 0.9281565 -0.3517384
vn 0.1216787 0.9281565 -0.3517383
vn 0.06416888 0.9929537 -0.09962615
vn 0.06416888 0.9929537 -0.09962617
vn 0.7813523 0.1116327 0.6140251
vn -0.07976752 -0.98241 0.1688429
vn -0.07976752 -0.98241 0.1688429
vn -0.07976752 -0.98241 0.1688429
vn -0.3930395 0.1785158 0.9020267
vn -0.3930394 0.1785158 0.9020267
vn -0.3930394 0.1785158 0.9020267
vn -0.3930394 0.1785158 0.9020267
vn 0.7120999 -0.03284641 -0.7013093
vn 0.7120999 -0.03284641 -0.7013093
vn 0.7121 -0.03284641 -0.7013094
vn 0.7120999 -0.03284641 -0.7013093
vn -0.3118955 0.000364283 -0.9501163
vn -0.3118955 0.000364283 -0.9501163
vn -0.3118955 0.000364283 -0.9501163
vn -0.3118956 0.000364283 -0.9501163
vn 0.2146357 0.9735745 -0.07800189
vn 0.2146357 0.9735745 -0.07800189
vn 0.2146357 0.9735745 -0.07800189
vn 0.05833653 -0.9815874 0.1818875
vn 0.05833654 -0.9815874 0.1818875
vn 0.05833653 -0.9815874 0.1818875
vn -0.1185337 0.9602559 0.2527023
vn -0.1185337 0.9602559 0.2527022
vn -0.9111912 -0.03332517 0.4106334
vn 0.1037837 -0.986153 -0.1293492
vn 0.1037837 -0.986153 -0.1293492
vn 0.0971248 -0.9880437 -0.1197342
vn -0.7482299 0.09956203 -0.6559265
vn -0.7482299 0.09956203 -0.6559265
vn -0.7482299 0.09956203 -0.6559265
vn -0.7482299 0.09956203 -0.6559265
vn 0.2211149 -0.031861 0.9747272
vn 0.2211149 -0.031861 0.9747272
vn 0.2211149 -0.031861 0.9747272
vn 0.2211149 -0.031861 0.9747272
vn 0.9857525 0.1541178 0.06737753
vn 0.9857525 0.1541178 0.06737753
vn 0.9857525 0.1541178 0.06737753
vn 0.9857525 0.1541178 0.06737753
vn -0.1736394 0.9303581 0.3229291
vn 0.05328139 -0.9969799 -0.05649816
vn -0.07965174 0.9953602 0.05397816
vn -0.07965174 0.9953602 0.05397816
vn 0.9161869 0.1407737 0.3752125
vn 0.08495403 -0.9962227 0.01797562
vn 0.08495403 -0.9962227 0.01797562
vn 0.08495402 -0.9962227 0.01797562
vn -0.1185587 0.05311762 0.9915252
vn -0.1185587 0.05311763 0.9915252
vn -0.1185587 0.05311762 0.9915252
vn -0.1185587 0.05311762 0.9915252
vn 0.4676697 0.1072772 -0.8773692
vn 0.4676697 0.1072772 -0.8773692
vn 0.4676697 0.1072772 -0.8773692
vn 0.4676697 0.1072772 -0.8773692
vn -0.5840479 0.05060298 -0.8101404
vn -0.5840479 0.05060298 -0.8101404
vn -0.5840479 0.05060298 -0.8101404
vn -0.5840479 0.05060298 -0.8101404
vn 0.07234247 0.9969895 0.02789903
vn 0.07234247 0.9969895 0.02789902
vn 0.07234247 0.9969895 0.02789903
vn 0.2190587 -0.9756657 -0.009477232
vn 0.2190587 -0.9756657 -0.009477232
vn 0.2190587 -0.9756657 -0.009477232
g SM_Env_Dirt_Rocks_01_0
f 52/52/52 5/5/5 3/3/3
f 55/55/55 1/1/1 54/54/54
f 19/19/19 12/12/12 14/14/14
f 88/88/88 87/87/87 86/86/86
f 91/91/91 90/90/90 89/89/89
f 96/96/96 95/95/95 94/94/94
f 103/103/103 102/102/102 101/101/101
f 106/106/106 105/105/105 104/104/104
f 127/127/127 126/126/126 125/125/125
f 130/130/130 129/129/129 128/128/128
f 171/171/171 170/170/170 169/169/169
f 174/174/174 173/173/173 172/172/172
f 2/2/2 4/4/4 9/9/9
f 10/10/10 2/2/2 9/9/9
f 8/8/8 7/7/7 53/53/53
f 6/6/6 8/8/8 53/53/53
f 58/58/58 57/57/57 56/56/56
f 59/59/59 58/58/58 56/56/56
f 62/62/62 61/61/61 60/60/60
f 63/63/63 62/62/62 60/60/60
f 66/66/66 65/65/65 64/64/64
f 67/67/67 66/66/66 64/64/64
f 70/70/70 69/69/69 68/68/68
f 71/71/71 70/70/70 68/68/68
f 74/74/74 73/73/73 72/72/72
f 75/75/75 74/74/74 72/72/72
f 18/18/18 17/17/17 21/21/21
f 16/16/16 18/18/18 21/21/21
f 77/77/77 11/11/11 76/76/76
f 78/78/78 77/77/77 76/76/76
f 81/81/81 80/80/80 79/79/79
f 82/82/82 81/81/81 79/79/79
f 20/20/20 84/84/84 83/83/83
f 85/85/85 20/20/20 83/83/83
f 92/92/92 15/15/15 13/13/13
f 93/93/93 92/92/92 13/13/13
f 99/99/99 98/98/98 97/97/97
f 100/100/100 99/99/99 97/97/97
f 23/23/23 25/25/25 30/30/30
f 31/31/31 23/23/23 30/30/30
f 107/107/107 27/27/27 24/24/24
f 108/108/108 107/107/107 24/24/24
f 29/29/29 28/28/28 26/26/26
f 109/109/109 29/29/29 26/26/26
f 111/111/111 110/110/110 22/22/22
f 112/112/112 111/111/111 22/22/22
f 115/115/115 114/114/114 113/113/113
f 116/116/116 115/115/115 113/113/113
f 119/119/119 118/118/118 117/117/117
f 120/120/120 119/119/119 117/117/117
f 123/123/123 122/122/122 121/121/121
f 124/124/124 123/123/123 121/121/121
f 33/33/33 35/35/35 40/40/40
f 41/41/41 33/33/33 40/40/40
f 132/132/132 131/131/131 34/34/34
f 131/131/131 37/37/37 34/34/34
f 37/37/37 149/149/149 34/34/34
f 39/39/39 38/38/38 36/36/36
f 133/133/133 39/39/39 36/36/36
f 135/135/135 134/134/134 32/32/32
f 136/136/136 135/135/135 32/32/32
f 136/136/136 32/32/32 150/150/150
f 139/139/139 138/138/138 137/137/137
f 140/140/140 139/139/139 137/137/137
f 143/143/143 142/142/142 141/141/141
f 144/144/144 143/143/143 141/141/141
f 147/147/147 146/146/146 145/145/145
f 148/148/148 147/147/147 145/145/145
f 43/43/43 45/45/45 50/50/50
f 51/51/51 43/43/43 50/50/50
f 151/151/151 47/47/47 44/44/44
f 152/152/152 151/151/151 44/44/44
f 49/49/49 48/48/48 46/46/46
f 153/153/153 49/49/49 46/46/46
f 155/155/155 154/154/154 42/42/42
f 156/156/156 155/155/155 42/42/42
f 159/159/159 158/158/158 157/157/157
f 160/160/160 159/159/159 157/157/157
f 163/163/163 162/162/162 161/161/161
f 164/164/164 163/163/163 161/161/161
f 167/167/167 166/166/166 165/165/165
f 168/168/168 167/167/167 165/165/165
