g SM_Env_Dirt_Rocks_03
v 0.3926282 0.2611394 0.975865
v 0.6748254 0.2297343 0.589366
v 0.2621643 0.2537364 0.8754158
v 0.4997034 0.2246803 0.4890193
v 0.250863 0.05398651 0.844366
v 0.4530725 0.0220285 0.5177986
v 0.4215711 0.03886947 0.9790242
v 0.6651306 0 0.6426033
v 0.3656604 0.284413 0.6349177
v 0.5835145 0.3035558 0.7789997
v -0.2242907 0.08296463 -0.4681438
v 0.1158631 0.08472656 -0.6595939
v -0.2159997 0.2076073 -0.4643303
v 0.1068445 0.2460149 -0.6388273
v -0.2482605 0.2223601 -0.6274016
v 0.01061404 0.2598605 -0.7281486
v -0.2622961 0.133101 -0.6427482
v 0.007098412 0.1146074 -0.7628215
v 0.06081912 0.2121689 -0.4443254
v 0.06476443 0.04879471 -0.4526164
v 0.3979261 0.04748428 -0.7669182
v 0.2422717 0.06058121 -0.9790275
v 0.3871521 0.2273872 -0.7707024
v 0.247489 0.2232155 -0.9655217
v 0.2368079 0.2082448 -0.7001603
v 0.1445422 0.2198355 -0.8523332
v 0.2309802 0.07602753 -0.6851799
v 0.1241394 0.07046738 -0.8509563
v 0.3899134 0.2189638 -0.9279875
v 0.3978235 0.05593612 -0.9380119
v -0.3953625 0.06590255 0.4516707
v -0.5626867 0.1112216 0.1010457
v -0.3999768 0.1906175 0.4586873
v -0.5542566 0.2705025 0.1308699
v -0.565321 0.184655 0.4792537
v -0.6505651 0.2588577 0.220323
v -0.5751037 0.09275451 0.4812117
v -0.674823 0.1118895 0.2036677
v -0.3616223 0.2464682 0.1877547
v -0.3578454 0.08535004 0.1636775
v -0.2288366 0.06009796 -0.2283195
v -0.4343786 0.06203659 -0.06374435
v -0.2280871 0.2381113 -0.2038225
v -0.4173864 0.2241296 -0.05718185
v -0.1522473 0.2004996 -0.05856857
v -0.3004162 0.2062117 0.04035721
v -0.140072 0.06781051 -0.06340256
v -0.3016589 0.05523407 0.04929275
v -0.3854992 0.2345006 -0.2007561
v -0.3995446 0.07336853 -0.2205608
v 0.1280139 0.06847092 0.5546785
v 0.3875061 0.1123415 0.5289509
v 0.1214905 0.2480733 0.5419148
v 0.3595203 0.27218 0.5216169
v 0.1398743 0.2238696 0.377325
v 0.3159314 0.257039 0.3754744
v 0.1412903 0.09066925 0.3686726
v 0.3378626 0.1088812 0.3617634
v 0.2549744 0.2595999 0.6248982
v 0.2733118 0.09860092 0.6417439
v 0.3656604 0.284413 0.6349177
v 0.250863 0.05398651 0.844366
v 0.4215711 0.03886947 0.9790242
v 0.5835145 0.3035558 0.7789997
v 0.6748254 0.2297343 0.589366
v 0.4997034 0.2246803 0.4890193
v 0.4530725 0.0220285 0.5177986
v 0.6651306 0 0.6426033
v 0.4215711 0.03886947 0.9790242
v 0.250863 0.05398651 0.844366
v 0.2621643 0.2537364 0.8754158
v 0.3926282 0.2611394 0.975865
v 0.3926282 0.2611394 0.975865
v 0.2621643 0.2537364 0.8754158
v 0.3656604 0.284413 0.6349177
v 0.5835145 0.3035558 0.7789997
v 0.250863 0.05398651 0.844366
v 0.4530725 0.0220285 0.5177986
v 0.4997034 0.2246803 0.4890193
v 0.3656604 0.284413 0.6349177
v 0.6651306 0 0.6426033
v 0.4215711 0.03886947 0.9790242
v 0.5835145 0.3035558 0.7789997
v 0.6748254 0.2297343 0.589366
v 0.1068445 0.2460149 -0.6388273
v 0.06081912 0.2121689 -0.4443254
v 0.01061404 0.2598605 -0.7281486
v 0.06476443 0.04879471 -0.4526164
v 0.1158631 0.08472656 -0.6595939
v 0.007098412 0.1146074 -0.7628215
v 0.1158631 0.08472656 -0.6595939
v 0.1068445 0.2460149 -0.6388273
v 0.01061404 0.2598605 -0.7281486
v 0.007098412 0.1146074 -0.7628215
v -0.2622961 0.133101 -0.6427482
v -0.2482605 0.2223601 -0.6274016
v -0.2159997 0.2076073 -0.4643303
v -0.2242907 0.08296463 -0.4681438
v -0.2242907 0.08296463 -0.4681438
v -0.2159997 0.2076073 -0.4643303
v 0.06081912 0.2121689 -0.4443254
v 0.06476443 0.04879471 -0.4526164
v -0.2482605 0.2223601 -0.6274016
v -0.2622961 0.133101 -0.6427482
v 0.247489 0.2232155 -0.9655217
v 0.3899134 0.2189638 -0.9279875
v 0.1445422 0.2198355 -0.8523332
v 0.3978235 0.05593612 -0.9380119
v 0.2422717 0.06058121 -0.9790275
v 0.1241394 0.07046738 -0.8509563
v 0.2422717 0.06058121 -0.9790275
v 0.247489 0.2232155 -0.9655217
v 0.1445422 0.2198355 -0.8523332
v 0.1241394 0.07046738 -0.8509563
v 0.2309802 0.07602753 -0.6851799
v 0.2368079 0.2082448 -0.7001603
v 0.3871521 0.2273872 -0.7707024
v 0.3979261 0.04748428 -0.7669182
v 0.3979261 0.04748428 -0.7669182
v 0.3871521 0.2273872 -0.7707024
v 0.3899134 0.2189638 -0.9279875
v 0.3978235 0.05593612 -0.9380119
v 0.3871521 0.2273872 -0.7707024
v 0.2368079 0.2082448 -0.7001603
v 0.1445422 0.2198355 -0.8523332
v 0.2309802 0.07602753 -0.6851799
v 0.3979261 0.04748428 -0.7669182
v 0.1241394 0.07046738 -0.8509563
v -0.5542566 0.2705025 0.1308699
v -0.3616223 0.2464682 0.1877547
v -0.6505651 0.2588577 0.220323
v -0.3578454 0.08535004 0.1636775
v -0.5626867 0.1112216 0.1010457
v -0.674823 0.1118895 0.2036677
v -0.5626867 0.1112216 0.1010457
v -0.5542566 0.2705025 0.1308699
v -0.6505651 0.2588577 0.220323
v -0.674823 0.1118895 0.2036677
v -0.5751037 0.09275451 0.4812117
v -0.565321 0.184655 0.4792537
v -0.3999768 0.1906175 0.4586873
v -0.3953625 0.06590255 0.4516707
v -0.3953625 0.06590255 0.4516707
v -0.3999768 0.1906175 0.4586873
v -0.3616223 0.2464682 0.1877547
v -0.3578454 0.08535004 0.1636775
v -0.565321 0.184655 0.4792537
v -0.5751037 0.09275451 0.4812117
v -0.4173864 0.2241296 -0.05718185
v -0.3854992 0.2345006 -0.2007561
v -0.3004162 0.2062117 0.04035721
v -0.3995446 0.07336853 -0.2205608
v -0.4343786 0.06203659 -0.06374435
v -0.3016589 0.05523407 0.04929275
v -0.4343786 0.06203659 -0.06374435
v -0.4173864 0.2241296 -0.05718185
v -0.3004162 0.2062117 0.04035721
v -0.3016589 0.05523407 0.04929275
v -0.140072 0.06781051 -0.06340256
v -0.1522473 0.2004996 -0.05856857
v -0.2280871 0.2381113 -0.2038225
v -0.2288366 0.06009796 -0.2283195
v -0.2288366 0.06009796 -0.2283195
v -0.2280871 0.2381113 -0.2038225
v -0.3854992 0.2345006 -0.2007561
v -0.3995446 0.07336853 -0.2205608
v -0.2280871 0.2381113 -0.2038225
v -0.1522473 0.2004996 -0.05856857
v -0.3004162 0.2062117 0.04035721
v -0.140072 0.06781051 -0.06340256
v -0.2288366 0.06009796 -0.2283195
v -0.3016589 0.05523407 0.04929275
v 0.3595203 0.27218 0.5216169
v 0.2549744 0.2595999 0.6248982
v 0.3159314 0.257039 0.3754744
v 0.2733118 0.09860092 0.6417439
v 0.3875061 0.1123415 0.5289509
v 0.3378626 0.1088812 0.3617634
v 0.3875061 0.1123415 0.5289509
v 0.3595203 0.27218 0.5216169
v 0.3159314 0.257039 0.3754744
v 0.3378626 0.1088812 0.3617634
v 0.1412903 0.09066925 0.3686726
v 0.1398743 0.2238696 0.377325
v 0.1214905 0.2480733 0.5419148
v 0.1280139 0.06847092 0.5546785
v 0.1280139 0.06847092 0.5546785
v 0.1214905 0.2480733 0.5419148
v 0.2549744 0.2595999 0.6248982
v 0.2733118 0.09860092 0.6417439
v 0.1214905 0.2480733 0.5419148
v 0.1398743 0.2238696 0.377325
v 0.3159314 0.257039 0.3754744
v 0.1412903 0.09066925 0.3686726
v 0.1280139 0.06847092 0.5546785
v 0.3378626 0.1088812 0.3617634
vt 0.04733276 0.1618652
vt 0.04699707 0.1627197
vt 0.04702759 0.1617432
vt 0.04663086 0.1625977
vt 0.04696655 0.1618652
vt 0.04663086 0.1625977
vt 0.04736328 0.1621094
vt 0.04705811 0.1628418
vt 0.04675293 0.1621094
vt 0.04724121 0.1623535
vt 0.04718018 0.1618652
vt 0.04684448 0.1628418
vt 0.04711914 0.1617432
vt 0.04681396 0.1627197
vt 0.04669189 0.1617432
vt 0.04653931 0.1624756
vt 0.04669189 0.1618652
vt 0.04650879 0.1625977
vt 0.04730225 0.1624756
vt 0.04736328 0.1625977
vt 0.04718018 0.1619873
vt 0.046875 0.1628418
vt 0.04711914 0.1618652
vt 0.04684448 0.1625977
vt 0.04653931 0.1617432
vt 0.04638672 0.1623535
vt 0.04653931 0.1618652
vt 0.0463562 0.1624756
vt 0.04727173 0.1623535
vt 0.04736328 0.1624756
vt 0.04718018 0.1618652
vt 0.04684448 0.1628418
vt 0.04711914 0.1617432
vt 0.04681396 0.1627197
vt 0.04669189 0.1617432
vt 0.04653931 0.1624756
vt 0.04669189 0.1618652
vt 0.04650879 0.1625977
vt 0.04730225 0.1624756
vt 0.04736328 0.1625977
vt 0.04718018 0.1619873
vt 0.046875 0.1628418
vt 0.04711914 0.1618652
vt 0.04684448 0.1625977
vt 0.04653931 0.1617432
vt 0.04638672 0.1623535
vt 0.04653931 0.1618652
vt 0.0463562 0.1624756
vt 0.04727173 0.1623535
vt 0.04736328 0.1624756
vt 0.04718018 0.1619873
vt 0.046875 0.1628418
vt 0.04711914 0.1618652
vt 0.04684448 0.1625977
vt 0.04653931 0.1617432
vt 0.04638672 0.1623535
vt 0.04653931 0.1618652
vt 0.0463562 0.1624756
vt 0.04727173 0.1623535
vt 0.04736328 0.1624756
vt 0.04675293 0.1621094
vt 0.04696655 0.1618652
vt 0.04736328 0.1621094
vt 0.04724121 0.1623535
vt 0.04699707 0.1627197
vt 0.04663086 0.1625977
vt 0.04663086 0.1625977
vt 0.04705811 0.1628418
vt 0.04736328 0.1621094
vt 0.04696655 0.1618652
vt 0.04702759 0.1617432
vt 0.04733276 0.1618652
vt 0.04733276 0.1618652
vt 0.04702759 0.1617432
vt 0.04675293 0.1621094
vt 0.04724121 0.1623535
vt 0.04696655 0.1618652
vt 0.04663086 0.1625977
vt 0.04663086 0.1625977
vt 0.04675293 0.1621094
vt 0.04705811 0.1628418
vt 0.04736328 0.1621094
vt 0.04724121 0.1623535
vt 0.04699707 0.1627197
vt 0.04681396 0.1627197
vt 0.04730225 0.1624756
vt 0.04653931 0.1624756
vt 0.04736328 0.1625977
vt 0.04684448 0.1628418
vt 0.04650879 0.1625977
vt 0.04684448 0.1628418
vt 0.04681396 0.1627197
vt 0.04653931 0.1624756
vt 0.04650879 0.1625977
vt 0.04669189 0.1618652
vt 0.04669189 0.1617432
vt 0.04711914 0.1617432
vt 0.04718018 0.1618652
vt 0.04718018 0.1618652
vt 0.04711914 0.1617432
vt 0.04730225 0.1624756
vt 0.04736328 0.1625977
vt 0.04669189 0.1617432
vt 0.04669189 0.1618652
vt 0.04684448 0.1625977
vt 0.04727173 0.1623535
vt 0.04638672 0.1623535
vt 0.04736328 0.1624756
vt 0.046875 0.1628418
vt 0.0463562 0.1624756
vt 0.046875 0.1628418
vt 0.04684448 0.1625977
vt 0.04638672 0.1623535
vt 0.0463562 0.1624756
vt 0.04653931 0.1618652
vt 0.04653931 0.1617432
vt 0.04711914 0.1618652
vt 0.04718018 0.1619873
vt 0.04718018 0.1619873
vt 0.04711914 0.1618652
vt 0.04727173 0.1623535
vt 0.04736328 0.1624756
vt 0.04711914 0.1618652
vt 0.04653931 0.1617432
vt 0.04638672 0.1623535
vt 0.04653931 0.1618652
vt 0.04718018 0.1619873
vt 0.0463562 0.1624756
vt 0.04681396 0.1627197
vt 0.04730225 0.1624756
vt 0.04653931 0.1624756
vt 0.04736328 0.1625977
vt 0.04684448 0.1628418
vt 0.04650879 0.1625977
vt 0.04684448 0.1628418
vt 0.04681396 0.1627197
vt 0.04653931 0.1624756
vt 0.04650879 0.1625977
vt 0.04669189 0.1618652
vt 0.04669189 0.1617432
vt 0.04711914 0.1617432
vt 0.04718018 0.1618652
vt 0.04718018 0.1618652
vt 0.04711914 0.1617432
vt 0.04730225 0.1624756
vt 0.04736328 0.1625977
vt 0.04669189 0.1617432
vt 0.04669189 0.1618652
vt 0.04684448 0.1625977
vt 0.04727173 0.1623535
vt 0.04638672 0.1623535
vt 0.04736328 0.1624756
vt 0.046875 0.1628418
vt 0.0463562 0.1624756
vt 0.046875 0.1628418
vt 0.04684448 0.1625977
vt 0.04638672 0.1623535
vt 0.0463562 0.1624756
vt 0.04653931 0.1618652
vt 0.04653931 0.1617432
vt 0.04711914 0.1618652
vt 0.04718018 0.1619873
vt 0.04718018 0.1619873
vt 0.04711914 0.1618652
vt 0.04727173 0.1623535
vt 0.04736328 0.1624756
vt 0.04711914 0.1618652
vt 0.04653931 0.1617432
vt 0.04638672 0.1623535
vt 0.04653931 0.1618652
vt 0.04718018 0.1619873
vt 0.0463562 0.1624756
vt 0.04684448 0.1625977
vt 0.04727173 0.1623535
vt 0.04638672 0.1623535
vt 0.04736328 0.1624756
vt 0.046875 0.1628418
vt 0.0463562 0.1624756
vt 0.046875 0.1628418
vt 0.04684448 0.1625977
vt 0.04638672 0.1623535
vt 0.0463562 0.1624756
vt 0.04653931 0.1618652
vt 0.04653931 0.1617432
vt 0.04711914 0.1618652
vt 0.04718018 0.1619873
vt 0.04718018 0.1619873
vt 0.04711914 0.1618652
vt 0.04727173 0.1623535
vt 0.04736328 0.1624756
vt 0.04711914 0.1618652
vt 0.04653931 0.1617432
vt 0.04638672 0.1623535
vt 0.04653931 0.1618652
vt 0.04718018 0.1619873
vt 0.0463562 0.1624756
vn 0.703125 0.1015625 0.7036133
vn 0.1243286 0.9477539 -0.2937012
vn -0.9179688 0.111145 -0.3808594
vn 0.1243286 0.9477539 -0.2937012
vn -0.9179688 0.111145 -0.3808594
vn -0.1156006 -0.9926758 0.02836609
vn -0.1156006 -0.9926758 0.02836609
vn -0.1156006 -0.9926758 0.02836609
vn 0.1243286 0.9477539 -0.2937012
vn 0.1243286 0.9477539 -0.2937012
vn -0.121521 -0.9716797 -0.2027588
vn 0.9711914 0.01747131 0.237915
vn -0.04812622 0.9873047 0.1518555
vn 0.9711914 0.01747131 0.237915
vn -0.3830566 0.2199707 -0.8969727
vn -0.03482056 0.9863281 0.1624756
vn -0.3830566 0.2199707 -0.8969727
vn -0.3830566 0.2199707 -0.8969727
vn 0.9711914 0.01747131 0.237915
vn 0.9711914 0.01747131 0.237915
vn -0.05886841 -0.9980469 -0.01843262
vn 0.2563477 0.07177734 -0.9638672
vn -0.002496719 1 -0.0196228
vn 0.2563477 0.07177734 -0.9638672
vn -0.8413086 0.1091309 0.5292969
vn -0.002496719 1 -0.0196228
vn -0.8413086 0.1091309 0.5292969
vn -0.8413086 0.1091309 0.5292969
vn 0.2563477 0.07177734 -0.9638672
vn 0.2563477 0.07177734 -0.9638672
vn -0.1100464 -0.9916992 -0.0635376
vn 0.3022461 0.1539307 -0.940918
vn 0.04510498 0.9726563 0.2283936
vn 0.3022461 0.1539307 -0.940918
vn -0.9331055 0.1119995 0.3413086
vn 0.05697632 0.9746094 0.2159424
vn -0.9331055 0.1119995 0.3413086
vn -0.9331055 0.1119995 0.3413086
vn 0.3022461 0.1539307 -0.940918
vn 0.3022461 0.1539307 -0.940918
vn -0.04888916 -0.9975586 -0.04931641
vn -0.9716797 0.1102905 -0.2078857
vn 0.01328278 0.9936523 0.1118774
vn -0.9716797 0.1102905 -0.2078857
vn 0.5634766 0.03366089 0.8256836
vn 0.01328278 0.9936523 0.1118774
vn 0.5634766 0.03366089 0.8256836
vn 0.5634766 0.03366089 0.8256836
vn -0.9716797 0.1102905 -0.2078857
vn -0.9716797 0.1102905 -0.2078857
vn 0.1668701 -0.9858398 0.002281189
vn 0.6850586 0.1525879 0.7124023
vn -0.1036987 0.9941406 -0.03555298
vn 0.6850586 0.1525879 0.7124023
vn -0.03396606 0.07641602 -0.996582
vn -0.1036987 0.9941406 -0.03555298
vn -0.03396606 0.07641602 -0.996582
vn -0.03396606 0.07641602 -0.996582
vn 0.6850586 0.1525879 0.7124023
vn 0.6850586 0.1525879 0.7124023
vn -0.9179688 0.111145 -0.3808594
vn -0.1156006 -0.9926758 0.02836609
vn 0.703125 0.1015625 0.7036133
vn 0.703125 0.1015625 0.7036133
vn 0.482666 -0.2235107 -0.8466797
vn 0.482666 -0.2235107 -0.8466797
vn 0.482666 -0.2235107 -0.8466797
vn 0.482666 -0.2235107 -0.8466797
vn -0.6147461 -0.07757568 0.7851563
vn -0.6147461 -0.07757568 0.7851563
vn -0.6147461 -0.07757568 0.7851563
vn -0.6147461 -0.07757568 0.7851563
vn -0.1298828 0.9882813 0.07775879
vn -0.1298828 0.9882813 0.07775879
vn -0.1298828 0.9882813 0.07775879
vn -0.1298828 0.9882813 0.07775879
vn -0.815918 -0.01381683 -0.578125
vn -0.815918 -0.01381683 -0.578125
vn -0.815918 -0.01381683 -0.578125
vn -0.815918 -0.01381683 -0.578125
vn 0.8417969 -0.01599121 0.5395508
vn 0.8417969 -0.01599121 0.5395508
vn 0.8417969 -0.01599121 0.5395508
vn 0.8417969 -0.01599121 0.5395508
vn -0.02529907 0.9853516 0.1700439
vn -0.02529907 0.9853516 0.1700439
vn -0.3830566 0.2199707 -0.8969727
vn -0.1010132 -0.9770508 -0.1884766
vn -0.1010132 -0.9770508 -0.1884766
vn -0.1105957 -0.9746094 -0.1951904
vn 0.6933594 0.1402588 -0.706543
vn 0.6933594 0.1402588 -0.706543
vn 0.6933594 0.1402588 -0.706543
vn 0.6933594 0.1402588 -0.706543
vn -0.9726563 0.08197021 0.2181396
vn -0.9726563 0.08197021 0.2181396
vn -0.9726563 0.08197021 0.2181396
vn -0.9726563 0.08197021 0.2181396
vn -0.0647583 -0.04092407 0.9970703
vn -0.0647583 -0.04092407 0.9970703
vn -0.0647583 -0.04092407 0.9970703
vn -0.0647583 -0.04092407 0.9970703
vn -0.100708 0.9887695 0.109375
vn -0.1713867 -0.9560547 -0.2373047
vn -0.002496719 1 -0.0196228
vn -0.002496719 1 -0.0196228
vn -0.8413086 0.1091309 0.5292969
vn -0.05886841 -0.9980469 -0.01843262
vn -0.05886841 -0.9980469 -0.01843262
vn -0.05886841 -0.9980469 -0.01843262
vn -0.7333984 0.08642578 -0.6743164
vn -0.7333984 0.08642578 -0.6743164
vn -0.7333984 0.08642578 -0.6743164
vn -0.7333984 0.08642578 -0.6743164
vn 0.4333496 0.06091309 0.8989258
vn 0.4333496 0.06091309 0.8989258
vn 0.4333496 0.06091309 0.8989258
vn 0.4333496 0.06091309 0.8989258
vn 0.9985352 0.05426025 0.008087158
vn 0.9985352 0.05426025 0.008087158
vn 0.9985352 0.05426025 0.008087158
vn 0.9985352 0.05426025 0.008087158
vn -0.07061768 0.9902344 0.1182861
vn -0.07061768 0.9902344 0.1182861
vn -0.07061768 0.9902344 0.1182861
vn -0.1160278 -0.9873047 0.1078491
vn -0.1160278 -0.9873047 0.1078491
vn -0.1160278 -0.9873047 0.1078491
vn 0.06518555 0.9760742 0.2071533
vn 0.06518555 0.9760742 0.2071533
vn -0.9331055 0.1119995 0.3413086
vn -0.09362793 -0.9921875 -0.08355713
vn -0.09362793 -0.9921875 -0.08355713
vn -0.1011963 -0.9921875 -0.07434082
vn -0.6713867 0.1807861 -0.71875
vn -0.6713867 0.1807861 -0.71875
vn -0.6713867 0.1807861 -0.71875
vn -0.6713867 0.1807861 -0.71875
vn 0.1420898 -0.02650452 0.9892578
vn 0.1420898 -0.02650452 0.9892578
vn 0.1420898 -0.02650452 0.9892578
vn 0.1420898 -0.02650452 0.9892578
vn 0.9907227 0.01424408 0.1363525
vn 0.9907227 0.01424408 0.1363525
vn 0.9907227 0.01424408 0.1363525
vn 0.9907227 0.01424408 0.1363525
vn -0.0003838539 0.9614258 0.2756348
vn -0.1500244 -0.9887695 -0.01425171
vn 0.01328278 0.9936523 0.1118774
vn 0.01328278 0.9936523 0.1118774
vn 0.5634766 0.03366089 0.8256836
vn -0.04888916 -0.9975586 -0.04931641
vn -0.04888916 -0.9975586 -0.04931641
vn -0.04888916 -0.9975586 -0.04931641
vn -0.6416016 0.04318237 0.765625
vn -0.6416016 0.04318237 0.765625
vn -0.6416016 0.04318237 0.765625
vn -0.6416016 0.04318237 0.765625
vn 0.8837891 0.07611084 -0.4616699
vn 0.8837891 0.07611084 -0.4616699
vn 0.8837891 0.07611084 -0.4616699
vn 0.8837891 0.07611084 -0.4616699
vn -0.02883911 0.1307373 -0.9912109
vn -0.02883911 0.1307373 -0.9912109
vn -0.02883911 0.1307373 -0.9912109
vn -0.02883911 0.1307373 -0.9912109
vn 0.1525879 0.9731445 0.1723633
vn 0.1525879 0.9731445 0.1723633
vn 0.1525879 0.9731445 0.1723633
vn 0.08001709 -0.996582 0.00353241
vn 0.08001709 -0.996582 0.00353241
vn 0.08001709 -0.996582 0.00353241
vn -0.1036987 0.9941406 -0.03555298
vn -0.1036987 0.9941406 -0.03555298
vn -0.03396606 0.07641602 -0.996582
vn 0.1668701 -0.9858398 0.002281189
vn 0.1668701 -0.9858398 0.002281189
vn 0.1668701 -0.9858398 0.002281189
vn 0.9438477 0.1589355 -0.2902832
vn 0.9438477 0.1589355 -0.2902832
vn 0.9438477 0.1589355 -0.2902832
vn 0.9438477 0.1589355 -0.2902832
vn -0.9956055 -0.02644348 -0.08978271
vn -0.9956055 -0.02644348 -0.08978271
vn -0.9956055 -0.02644348 -0.08978271
vn -0.9956055 -0.02644348 -0.08978271
vn -0.5244141 0.03570557 0.8505859
vn -0.5244141 0.03570557 0.8505859
vn -0.5244141 0.03570557 0.8505859
vn -0.5244141 0.03570557 0.8505859
vn -0.1843262 0.9692383 -0.1630859
vn -0.1843262 0.9692383 -0.1630859
vn -0.1843262 0.9692383 -0.1630859
vn 0.08776855 -0.9897461 -0.1118774
vn 0.08776855 -0.9897461 -0.1118774
vn 0.08776855 -0.9897461 -0.1118774
g SM_Env_Dirt_Rocks_03_0
f 61/61/61 5/5/5 3/3/3
f 64/64/64 1/1/1 63/63/63
f 125/125/125 124/124/124 123/123/123
f 128/128/128 127/127/127 126/126/126
f 169/169/169 168/168/168 167/167/167
f 172/172/172 171/171/171 170/170/170
f 193/193/193 192/192/192 191/191/191
f 196/196/196 195/195/195 194/194/194
f 2/2/2 4/4/4 9/9/9
f 10/10/10 2/2/2 9/9/9
f 8/8/8 7/7/7 62/62/62
f 6/6/6 8/8/8 62/62/62
f 67/67/67 66/66/66 65/65/65
f 68/68/68 67/67/67 65/65/65
f 71/71/71 70/70/70 69/69/69
f 72/72/72 71/71/71 69/69/69
f 75/75/75 74/74/74 73/73/73
f 76/76/76 75/75/75 73/73/73
f 79/79/79 78/78/78 77/77/77
f 80/80/80 79/79/79 77/77/77
f 83/83/83 82/82/82 81/81/81
f 84/84/84 83/83/83 81/81/81
f 12/12/12 14/14/14 19/19/19
f 20/20/20 12/12/12 19/19/19
f 86/86/86 85/85/85 13/13/13
f 85/85/85 16/16/16 13/13/13
f 16/16/16 103/103/103 13/13/13
f 18/18/18 17/17/17 15/15/15
f 87/87/87 18/18/18 15/15/15
f 89/89/89 88/88/88 11/11/11
f 90/90/90 89/89/89 11/11/11
f 90/90/90 11/11/11 104/104/104
f 93/93/93 92/92/92 91/91/91
f 94/94/94 93/93/93 91/91/91
f 97/97/97 96/96/96 95/95/95
f 98/98/98 97/97/97 95/95/95
f 101/101/101 100/100/100 99/99/99
f 102/102/102 101/101/101 99/99/99
f 22/22/22 24/24/24 29/29/29
f 30/30/30 22/22/22 29/29/29
f 105/105/105 26/26/26 23/23/23
f 106/106/106 105/105/105 23/23/23
f 28/28/28 27/27/27 25/25/25
f 107/107/107 28/28/28 25/25/25
f 109/109/109 108/108/108 21/21/21
f 110/110/110 109/109/109 21/21/21
f 113/113/113 112/112/112 111/111/111
f 114/114/114 113/113/113 111/111/111
f 117/117/117 116/116/116 115/115/115
f 118/118/118 117/117/117 115/115/115
f 121/121/121 120/120/120 119/119/119
f 122/122/122 121/121/121 119/119/119
f 32/32/32 34/34/34 39/39/39
f 40/40/40 32/32/32 39/39/39
f 130/130/130 129/129/129 33/33/33
f 129/129/129 36/36/36 33/33/33
f 36/36/36 147/147/147 33/33/33
f 38/38/38 37/37/37 35/35/35
f 131/131/131 38/38/38 35/35/35
f 133/133/133 132/132/132 31/31/31
f 134/134/134 133/133/133 31/31/31
f 134/134/134 31/31/31 148/148/148
f 137/137/137 136/136/136 135/135/135
f 138/138/138 137/137/137 135/135/135
f 141/141/141 140/140/140 139/139/139
f 142/142/142 141/141/141 139/139/139
f 145/145/145 144/144/144 143/143/143
f 146/146/146 145/145/145 143/143/143
f 42/42/42 44/44/44 49/49/49
f 50/50/50 42/42/42 49/49/49
f 149/149/149 46/46/46 43/43/43
f 150/150/150 149/149/149 43/43/43
f 48/48/48 47/47/47 45/45/45
f 151/151/151 48/48/48 45/45/45
f 153/153/153 152/152/152 41/41/41
f 154/154/154 153/153/153 41/41/41
f 157/157/157 156/156/156 155/155/155
f 158/158/158 157/157/157 155/155/155
f 161/161/161 160/160/160 159/159/159
f 162/162/162 161/161/161 159/159/159
f 165/165/165 164/164/164 163/163/163
f 166/166/166 165/165/165 163/163/163
f 52/52/52 54/54/54 59/59/59
f 60/60/60 52/52/52 59/59/59
f 173/173/173 56/56/56 53/53/53
f 174/174/174 173/173/173 53/53/53
f 58/58/58 57/57/57 55/55/55
f 175/175/175 58/58/58 55/55/55
f 177/177/177 176/176/176 51/51/51
f 178/178/178 177/177/177 51/51/51
f 181/181/181 180/180/180 179/179/179
f 182/182/182 181/181/181 179/179/179
f 185/185/185 184/184/184 183/183/183
f 186/186/186 185/185/185 183/183/183
f 189/189/189 188/188/188 187/187/187
f 190/190/190 189/189/189 187/187/187
