g SM_Env_Sidewalk_Straight_Path_01
v 5.000005 -3.72529E-09 -1.073784
v 5.000005 0.06969652 -1.023064
v 4.933142 0.06969654 -1.023064
v 0 0.06969652 -1.023066
v 0 -3.72529E-09 -1.073786
v 0.03359375 0.06969654 -1.023066
v 2.486919 -0.02982914 -4.395635
v 2.412026 -0.02982914 -4.395635
v 2.412026 9.637788E-05 -4.424633
v 2.438262 0.06969654 -0.7143481
v 0.03359375 0.06969654 -0.6737823
v 0.03359375 0.06969654 -1.023066
v 2.438262 0.06969654 -1.06363
v 4.931538 0.06969654 -0.6737823
v 4.933142 0.06969654 -1.023064
v 2.438262 0.06969654 -1.06363
v 0.03359375 0.06969654 -1.023066
v 0 -3.72529E-09 -1.073786
v 2.451675 -3.72529E-09 -1.125635
v 4.933142 0.06969654 -1.023064
v 5.000005 -3.72529E-09 -1.073784
v 2.438262 -0.2302948 -0.6280133
v 0.03359375 -0.2302948 -0.5874481
v 0.03359375 0.06969654 -0.6737823
v 2.438262 0.06969654 -0.7143481
v 4.948015 -0.2302948 -0.5874481
v 4.931538 0.06969654 -0.6737823
v 2.878945 -0.08353826 -0.2188794
v 0.03358887 -0.08353826 -0.2654285
v 0.03359375 -0.2302948 -0.5874481
v 2.438262 -0.2302948 -0.6280133
v 4.95529 -0.08353826 -0.2654266
v 4.948015 -0.2302948 -0.5874481
v 2.911963 -0.07730597 -0.1457483
v 0.03359375 -0.05417279 -0.08034851
v 0.03358887 -0.08353826 -0.2654285
v 2.878945 -0.08353826 -0.2188794
v 4.955288 -0.05417279 -0.08034851
v 4.95529 -0.08353826 -0.2654266
v 2.404478 0.009553162 -3.091335
v 2.40447 -0.02982914 -3.193233
v 2.462991 -0.02982914 -3.193233
v 3.732324 0.009553162 -3.072162
v 5.000005 0.0003091536 -3.165807
v 5.000005 -0.02982914 -3.193233
v 5.000005 0 0
v 4.955288 -0.05417279 -0.08034851
v 5.000005 -0.05417279 -0.08034851
v 2.892524 -3.72529E-09 0
v 2.911963 -0.07730597 -0.1457483
v 0 0 0
v 0.03359375 -0.05417279 -0.08034851
v 0 -0.05417279 -0.08034851
v 4.95529 -0.08353826 -0.2654266
v 5.000005 -0.08353826 -0.2654266
v 5.000005 -0.05417279 -0.08034851
v 4.955288 -0.05417279 -0.08034851
v 4.948015 -0.2302948 -0.5874481
v 5.000005 -0.2302948 -0.5874481
v 5.000005 -0.08353826 -0.2654266
v 4.95529 -0.08353826 -0.2654266
v 4.931538 0.06969654 -0.6737823
v 5.000005 0.06969652 -0.6737823
v 5.000005 -0.2302948 -0.5874481
v 4.948015 -0.2302948 -0.5874481
v 4.933142 0.06969654 -1.023064
v 5.000005 0.06969652 -1.023064
v 5.000005 0.06969652 -0.6737823
v 4.931538 0.06969654 -0.6737823
v 3.732324 0.009553162 -3.072162
v 5.000005 0.0003091536 -3.165807
v 5.000005 -3.72529E-09 -1.073784
v 2.451675 -3.72529E-09 -1.125635
v 2.404478 0.009553162 -3.091335
v 0 -3.72529E-09 -1.073786
v 2.441406E-06 0.0003091536 -3.165807
v 0 0.06969652 -0.6737823
v 0 0.06969652 -1.023066
v 0.03359375 0.06969654 -1.023066
v 0.03359375 0.06969654 -0.6737823
v 0 -0.2302948 -0.5874481
v 0 0.06969652 -0.6737823
v 0.03359375 0.06969654 -0.6737823
v 0.03359375 -0.2302948 -0.5874481
v 0 -0.08353826 -0.2654266
v 0 -0.2302948 -0.5874481
v 0.03359375 -0.2302948 -0.5874481
v 0.03358887 -0.08353826 -0.2654285
v 0 -0.05417279 -0.08034851
v 0 -0.08353826 -0.2654266
v 0.03358887 -0.08353826 -0.2654285
v 0.03359375 -0.05417279 -0.08034851
v 5.000012 0 -4.413895
v 5.000007 -0.02982914 -4.395635
v 4.371977 -0.02982914 -4.395635
v 4.419045 -0.0008026433 -4.472476
v 3.169575 -0.02982914 -4.395635
v 2.486919 -0.02982914 -4.395635
v 2.412026 9.637788E-05 -4.424633
v 3.135684 9.637848E-05 -4.441738
v 2.462991 -0.02982914 -3.193233
v 2.40447 -0.02982914 -3.193233
v 2.412026 -0.02982914 -4.395635
v 2.486919 -0.02982914 -4.395635
v 5.000007 -0.02982914 -4.395635
v 5.000005 -0.02982914 -3.193233
v 2.462991 -0.02982914 -3.193233
v 4.371977 -0.02982914 -4.395635
v 3.169575 -0.02982914 -4.395635
v 2.486919 -0.02982914 -4.395635
v 5.000012 0 -4.413895
v 4.419045 -0.0008026433 -4.472476
v 4.419045 -4.246831E-09 -5
v 5.000002 0 -4.999994
v 2.412026 9.637788E-05 -4.424633
v 7.324219E-06 0 -4.413895
v 0 -3.72529E-09 -5
v 3.135684 9.637639E-05 -5
v 3.135684 9.637848E-05 -4.441738
v 2.412026 -0.02982914 -4.395635
v -2.441406E-06 -0.0298291 -4.395636
v 7.324219E-06 0 -4.413895
v 2.412026 9.637788E-05 -4.424633
v 2.40447 -0.02982914 -3.193233
v 2.441406E-06 -0.02982914 -3.193233
v -2.441406E-06 -0.0298291 -4.395636
v 2.412026 -0.02982914 -4.395635
v 2.404478 0.009553162 -3.091335
v 2.441406E-06 0.0003091536 -3.165807
v 2.441406E-06 -0.02982914 -3.193233
v 2.40447 -0.02982914 -3.193233
v 3.164683 -0.02982914 -4.464186
v 3.169575 -0.02982914 -4.395635
v 3.135684 9.637848E-05 -4.441738
v 3.164683 -0.02982914 -4.999998
v 3.135684 9.637639E-05 -5
v 4.367085 -0.02982914 -4.464186
v 4.371977 -0.02982914 -4.395635
v 3.169575 -0.02982914 -4.395635
v 3.164683 -0.02982914 -4.464186
v 4.419045 -0.0008026433 -4.472476
v 4.371977 -0.02982914 -4.395635
v 4.367085 -0.02982914 -4.464186
v 4.419045 -4.246831E-09 -5
v 4.367085 -0.02982914 -4.999998
v 4.367085 -0.02982914 -4.999998
v 4.367085 -0.02982914 -4.464186
v 3.164683 -0.02982914 -4.464186
v 3.164683 -0.02982914 -4.999998
vt 0.102478 0.2792969
vt 0.102478 0.2792969
vt 0.102478 0.2792969
vt 0.102478 0.2792969
vt 0.102478 0.2792969
vt 0.102478 0.2792969
vt 0.166626 0.3029785
vt 0.166626 0.3029785
vt 0.166626 0.3029785
vt 0.1021729 0.3076172
vt 0.1021729 0.3076172
vt 0.1021729 0.3076172
vt 0.1021729 0.3076172
vt 0.1021729 0.3076172
vt 0.1021729 0.3076172
vt 0.1021729 0.3076172
vt 0.1021729 0.3076172
vt 0.1021729 0.3076172
vt 0.1021729 0.3076172
vt 0.1021729 0.3076172
vt 0.1021729 0.3076172
vt 0.1021729 0.3076172
vt 0.1021729 0.3076172
vt 0.1021729 0.3076172
vt 0.1021729 0.3076172
vt 0.1021729 0.3076172
vt 0.1021729 0.3076172
vt 0.1021729 0.3076172
vt 0.1021729 0.3076172
vt 0.1021729 0.3076172
vt 0.1021729 0.3076172
vt 0.1021729 0.3076172
vt 0.1021729 0.3076172
vt 0.1021729 0.3076172
vt 0.1021729 0.3076172
vt 0.1021729 0.3076172
vt 0.1021729 0.3076172
vt 0.1021729 0.3076172
vt 0.1021729 0.3076172
vt 0.166626 0.3029785
vt 0.166626 0.3029785
vt 0.166626 0.3029785
vt 0.166626 0.3029785
vt 0.166626 0.3029785
vt 0.166626 0.3029785
vt 0.06616211 0.2094727
vt 0.06616211 0.2094727
vt 0.06616211 0.2094727
vt 0.06616211 0.2094727
vt 0.06616211 0.2094727
vt 0.06616211 0.2094727
vt 0.06616211 0.2094727
vt 0.06616211 0.2094727
vt 0.102478 0.2792969
vt 0.102478 0.2792969
vt 0.102478 0.2792969
vt 0.102478 0.2792969
vt 0.102478 0.2792969
vt 0.102478 0.2792969
vt 0.102478 0.2792969
vt 0.102478 0.2792969
vt 0.102478 0.2792969
vt 0.102478 0.2792969
vt 0.102478 0.2792969
vt 0.102478 0.2792969
vt 0.102478 0.2792969
vt 0.102478 0.2792969
vt 0.102478 0.2792969
vt 0.102478 0.2792969
vt 0.166626 0.3029785
vt 0.166626 0.3029785
vt 0.166626 0.3029785
vt 0.166626 0.3029785
vt 0.166626 0.3029785
vt 0.166626 0.3029785
vt 0.166626 0.3029785
vt 0.102478 0.2792969
vt 0.102478 0.2792969
vt 0.102478 0.2792969
vt 0.102478 0.2792969
vt 0.102478 0.2792969
vt 0.102478 0.2792969
vt 0.102478 0.2792969
vt 0.102478 0.2792969
vt 0.102478 0.2792969
vt 0.102478 0.2792969
vt 0.102478 0.2792969
vt 0.102478 0.2792969
vt 0.102478 0.2792969
vt 0.102478 0.2792969
vt 0.102478 0.2792969
vt 0.102478 0.2792969
vt 0.166626 0.3029785
vt 0.166626 0.3029785
vt 0.166626 0.3029785
vt 0.166626 0.3029785
vt 0.166626 0.3029785
vt 0.166626 0.3029785
vt 0.166626 0.3029785
vt 0.166626 0.3029785
vt 0.102356 0.3032227
vt 0.102356 0.3032227
vt 0.102356 0.3032227
vt 0.102356 0.3032227
vt 0.1022949 0.3291016
vt 0.1025391 0.3291016
vt 0.1025391 0.3286133
vt 0.1022949 0.3288574
vt 0.1022949 0.3286133
vt 0.1022949 0.3286133
vt 0.166626 0.3029785
vt 0.166626 0.3029785
vt 0.166626 0.3029785
vt 0.166626 0.3029785
vt 0.166626 0.3029785
vt 0.166626 0.3029785
vt 0.166626 0.3029785
vt 0.166626 0.3029785
vt 0.166626 0.3029785
vt 0.166626 0.3029785
vt 0.166626 0.3029785
vt 0.166626 0.3029785
vt 0.166626 0.3029785
vt 0.1025391 0.3286133
vt 0.1025391 0.3283691
vt 0.1022949 0.3283691
vt 0.1022949 0.3286133
vt 0.166626 0.3029785
vt 0.166626 0.3029785
vt 0.166626 0.3029785
vt 0.166626 0.3029785
vt 0.166626 0.3029785
vt 0.166626 0.3029785
vt 0.166626 0.3029785
vt 0.166626 0.3029785
vt 0.166626 0.3029785
vt 0.1025391 0.302002
vt 0.1025391 0.302002
vt 0.1025391 0.302002
vt 0.1025391 0.302002
vt 0.166626 0.3029785
vt 0.166626 0.3029785
vt 0.166626 0.3029785
vt 0.166626 0.3029785
vt 0.166626 0.3029785
vt 0.1025391 0.3286133
vt 0.1025391 0.3283691
vt 0.1022949 0.3283691
vt 0.1022949 0.3286133
vn 0.007091522 0.6113281 -0.7915039
vn 0 0.5883789 -0.8085938
vn 0.007091522 0.6113281 -0.7915039
vn 0 0.5883789 -0.8085938
vn -0.007389069 0.609375 -0.7929688
vn -0.007389069 0.609375 -0.7929688
vn 0 0.6958008 0.7182617
vn 0 0.6958008 0.7182617
vn 0 0.6958008 0.7182617
vn 0 1 0
vn 0 1 0
vn 0 1 0
vn 0 1 0
vn 0 1 0
vn 0 1 0
vn -0.0003006458 0.6318359 -0.7749023
vn -0.007389069 0.609375 -0.7929688
vn -0.007389069 0.609375 -0.7929688
vn -0.0003006458 0.6318359 -0.7749023
vn 0.007091522 0.6113281 -0.7915039
vn 0.007091522 0.6113281 -0.7915039
vn 0.0003128052 0.2763672 0.9609375
vn 0.008102417 0.2766113 0.9609375
vn 0.008102417 0.2766113 0.9609375
vn 0.0003128052 0.2763672 0.9609375
vn -0.007793427 0.2763672 0.9609375
vn -0.007793427 0.2763672 0.9609375
vn -3.033876E-05 0.9282227 -0.3725586
vn 0.0002068281 0.9189453 -0.3937988
vn 0.0002068281 0.9189453 -0.3937988
vn -3.033876E-05 0.9282227 -0.3725586
vn -0.0002428293 0.9194336 -0.3935547
vn -0.0002428293 0.9194336 -0.3935547
vn -0.0006942749 0.9907227 -0.1364746
vn 0.001773834 0.9892578 -0.1468506
vn 0.001773834 0.9892578 -0.1468506
vn -0.0006942749 0.9907227 -0.1364746
vn -0.002470016 0.9892578 -0.1463623
vn -0.002470016 0.9892578 -0.1463623
vn 0.002584457 0.9331055 -0.3591309
vn 0 0.9326172 -0.3605957
vn -0.0005993843 0.9311523 -0.3642578
vn -0.000898838 0.9306641 -0.3662109
vn -0.006965637 0.9272461 -0.3745117
vn -0.006965637 0.9272461 -0.3745117
vn 0.001554489 0.847168 -0.53125
vn 0.001554489 0.847168 -0.53125
vn 0 0.8291016 -0.559082
vn 0.0004353523 0.8642578 -0.5029297
vn 0.0004353523 0.8642578 -0.5029297
vn -0.00111866 0.847168 -0.53125
vn -0.00111866 0.847168 -0.53125
vn 0 0.8291016 -0.559082
vn -0.002470016 0.9892578 -0.1463623
vn 0 0.987793 -0.1567383
vn 0 0.987793 -0.1567383
vn -0.002470016 0.9892578 -0.1463623
vn -0.0002428293 0.9194336 -0.3935547
vn 0 0.9101563 -0.4147949
vn 0 0.9101563 -0.4147949
vn -0.0002428293 0.9194336 -0.3935547
vn -0.007793427 0.2763672 0.9609375
vn 0 0.2766113 0.9609375
vn 0 0.2766113 0.9609375
vn -0.007793427 0.2763672 0.9609375
vn 0 1 0
vn 0 1 0
vn 0 1 0
vn 0 1 0
vn 0.002378464 1 0.003284454
vn 0.007301331 1 0.0001478195
vn 0.003602982 1 0.002494812
vn -2.199411E-05 1 0.004852295
vn -0.001272202 1 0.003288269
vn -0.001873016 1 0.002502441
vn -0.00384903 1 0.0001478195
vn 0 1 0
vn 0 1 0
vn 0 1 0
vn 0 1 0
vn 0 0.2766113 0.9609375
vn 0 0.2766113 0.9609375
vn 0.008102417 0.2766113 0.9609375
vn 0.008102417 0.2766113 0.9609375
vn -1.144409E-05 0.9101563 -0.4147949
vn -1.144409E-05 0.9101563 -0.4147949
vn 0.0002068281 0.9189453 -0.3937988
vn 0.0002068281 0.9189453 -0.3937988
vn 0 0.987793 -0.1567383
vn 0 0.987793 -0.1567383
vn 0.001773834 0.9892578 -0.1468506
vn 0.001773834 0.9892578 -0.1468506
vn -0.02561951 0.8554688 0.5170898
vn -0.02561951 0.8554688 0.5170898
vn -0.02561951 0.8554688 0.5170898
vn -0.02561951 0.8554688 0.5170898
vn 0.007499695 0.7871094 0.6166992
vn 0.007499695 0.7871094 0.6166992
vn 0.007499695 0.7871094 0.6166992
vn 0.007499695 0.7871094 0.6166992
vn 0 1 0
vn 0 1 0
vn 0 1 0
vn 0 1 0
vn 0 1 0
vn 0 1 0
vn 0 1 0
vn 0 1 0
vn 0 1 0
vn 0 1 0
vn -0.0007271767 1 0.0007209778
vn -0.0007271767 1 0.0007209778
vn -0.0007271767 1 0.0007209778
vn -0.0007271767 1 0.0007209778
vn -1.740456E-05 1 -1.084805E-05
vn -3.480911E-05 1 -2.169609E-05
vn -3.480911E-05 1 -2.169609E-05
vn -1.740456E-05 1 -1.084805E-05
vn 0 1 0
vn 0.00173378 0.6201172 0.7841797
vn 0.00173378 0.6201172 0.7841797
vn 0.00173378 0.6201172 0.7841797
vn 0.00173378 0.6201172 0.7841797
vn 0 1 0
vn 0 1 0
vn 0 1 0
vn 0 1 0
vn 0.005638123 0.8808594 -0.4733887
vn 0.005638123 0.8808594 -0.4733887
vn 0.005638123 0.8808594 -0.4733887
vn 0.005638123 0.8808594 -0.4733887
vn 0.7084961 0.7050781 -0.02493286
vn 0.6982422 0.7138672 -0.04983521
vn 0.7084961 0.7050781 -0.02493286
vn 0.7182617 0.6958008 0
vn 0.7182617 0.6958008 0
vn 0 1 0
vn 0 1 0
vn 0 1 0
vn 0 1 0
vn -0.4880371 0.8725586 0.01757813
vn -0.4831543 0.875 0.03448486
vn -0.4880371 0.8725586 0.01757813
vn -0.4926758 0.8701172 0.0006566048
vn -0.4926758 0.8701172 0.0006566048
vn 0 1 0
vn 0 1 0
vn 0 1 0
vn 0 1 0
g SM_Env_Sidewalk_Straight_Path_01_0
f 3/3/3 2/2/2 1/1/1
f 6/6/6 5/5/5 4/4/4
f 9/9/9 8/8/8 7/7/7
f 12/12/12 11/11/11 10/10/10
f 13/13/13 12/12/12 10/10/10
f 13/13/13 10/10/10 14/14/14
f 15/15/15 13/13/13 14/14/14
f 18/18/18 17/17/17 16/16/16
f 19/19/19 18/18/18 16/16/16
f 19/19/19 16/16/16 20/20/20
f 21/21/21 19/19/19 20/20/20
f 24/24/24 23/23/23 22/22/22
f 25/25/25 24/24/24 22/22/22
f 25/25/25 22/22/22 26/26/26
f 27/27/27 25/25/25 26/26/26
f 30/30/30 29/29/29 28/28/28
f 31/31/31 30/30/30 28/28/28
f 31/31/31 28/28/28 32/32/32
f 33/33/33 31/31/31 32/32/32
f 36/36/36 35/35/35 34/34/34
f 37/37/37 36/36/36 34/34/34
f 37/37/37 34/34/34 38/38/38
f 39/39/39 37/37/37 38/38/38
f 42/42/42 41/41/41 40/40/40
f 40/40/40 43/43/43 42/42/42
f 43/43/43 44/44/44 42/42/42
f 44/44/44 45/45/45 42/42/42
f 48/48/48 47/47/47 46/46/46
f 46/46/46 47/47/47 49/49/49
f 47/47/47 50/50/50 49/49/49
f 49/49/49 50/50/50 51/51/51
f 50/50/50 52/52/52 51/51/51
f 52/52/52 53/53/53 51/51/51
f 56/56/56 55/55/55 54/54/54
f 57/57/57 56/56/56 54/54/54
f 60/60/60 59/59/59 58/58/58
f 61/61/61 60/60/60 58/58/58
f 64/64/64 63/63/63 62/62/62
f 65/65/65 64/64/64 62/62/62
f 68/68/68 67/67/67 66/66/66
f 69/69/69 68/68/68 66/66/66
f 72/72/72 71/71/71 70/70/70
f 70/70/70 73/73/73 72/72/72
f 73/73/73 70/70/70 74/74/74
f 74/74/74 75/75/75 73/73/73
f 75/75/75 74/74/74 76/76/76
f 79/79/79 78/78/78 77/77/77
f 80/80/80 79/79/79 77/77/77
f 83/83/83 82/82/82 81/81/81
f 84/84/84 83/83/83 81/81/81
f 87/87/87 86/86/86 85/85/85
f 88/88/88 87/87/87 85/85/85
f 91/91/91 90/90/90 89/89/89
f 92/92/92 91/91/91 89/89/89
f 95/95/95 94/94/94 93/93/93
f 96/96/96 95/95/95 93/93/93
f 99/99/99 98/98/98 97/97/97
f 100/100/100 99/99/99 97/97/97
f 103/103/103 102/102/102 101/101/101
f 104/104/104 103/103/103 101/101/101
f 107/107/107 106/106/106 105/105/105
f 108/108/108 107/107/107 105/105/105
f 109/109/109 107/107/107 108/108/108
f 109/109/109 110/110/110 107/107/107
f 113/113/113 112/112/112 111/111/111
f 114/114/114 113/113/113 111/111/111
f 117/117/117 116/116/116 115/115/115
f 118/118/118 117/117/117 115/115/115
f 115/115/115 119/119/119 118/118/118
f 122/122/122 121/121/121 120/120/120
f 123/123/123 122/122/122 120/120/120
f 126/126/126 125/125/125 124/124/124
f 127/127/127 126/126/126 124/124/124
f 130/130/130 129/129/129 128/128/128
f 131/131/131 130/130/130 128/128/128
f 134/134/134 133/133/133 132/132/132
f 134/134/134 132/132/132 135/135/135
f 136/136/136 134/134/134 135/135/135
f 139/139/139 138/138/138 137/137/137
f 140/140/140 139/139/139 137/137/137
f 143/143/143 142/142/142 141/141/141
f 143/143/143 141/141/141 144/144/144
f 145/145/145 143/143/143 144/144/144
f 148/148/148 147/147/147 146/146/146
f 149/149/149 148/148/148 146/146/146
