g SM_Env_Sidewalk_Straight_01
v 5.000006 -3.72529E-09 -1.073784
v 5.000006 0.06969652 -1.023064
v 4.933142 0.06969654 -1.023064
v 0 0.06969652 -1.023066
v 0 -3.72529E-09 -1.073786
v 0.03359253 0.06969654 -1.023066
v 1.314772 -0.02982914 -4.395635
v 1.239878 -0.02982914 -4.395635
v 1.239878 9.637788E-05 -4.424633
v 2.438262 0.06969654 -0.7143481
v 0.03359253 0.06969654 -0.6737823
v 0.03359253 0.06969654 -1.023066
v 2.438262 0.06969654 -1.06363
v 4.931537 0.06969654 -0.6737823
v 4.933142 0.06969654 -1.023064
v 2.438262 0.06969654 -1.06363
v 0.03359253 0.06969654 -1.023066
v 0 -3.72529E-09 -1.073786
v 2.451675 -3.72529E-09 -1.125635
v 4.933142 0.06969654 -1.023064
v 5.000006 -3.72529E-09 -1.073784
v 2.438262 -0.2302948 -0.6280133
v 0.03359253 -0.2302948 -0.5874481
v 0.03359253 0.06969654 -0.6737823
v 2.438262 0.06969654 -0.7143481
v 4.948015 -0.2302948 -0.5874481
v 4.931537 0.06969654 -0.6737823
v 2.878947 -0.08353826 -0.2188794
v 0.03359009 -0.08353826 -0.2654285
v 0.03359253 -0.2302948 -0.5874481
v 2.438262 -0.2302948 -0.6280133
v 4.95529 -0.08353826 -0.2654266
v 4.948015 -0.2302948 -0.5874481
v 2.911963 -0.07730597 -0.1457483
v 0.03359253 -0.05417279 -0.08034851
v 0.03359009 -0.08353826 -0.2654285
v 2.878947 -0.08353826 -0.2188794
v 4.955287 -0.05417279 -0.08034851
v 4.95529 -0.08353826 -0.2654266
v 1.232329 0.009553162 -3.091335
v 1.232322 -0.02982914 -3.193233
v 1.290842 -0.02982914 -3.193233
v 2.464641 -0.02982914 -3.193233
v 2.471448 0.03856385 -3.026429
v 3.732324 0.009553162 -3.072162
v 3.732324 -0.02982914 -3.193233
v 3.806372 -0.02982914 -3.193233
v 5.000006 0 0
v 4.955287 -0.05417279 -0.08034851
v 5.000006 -0.05417279 -0.08034851
v 2.892524 -3.72529E-09 0
v 2.911963 -0.07730597 -0.1457483
v 0 0 0
v 0.03359253 -0.05417279 -0.08034851
v 0 -0.05417279 -0.08034851
v 4.95529 -0.08353826 -0.2654266
v 5.000006 -0.08353826 -0.2654266
v 5.000006 -0.05417279 -0.08034851
v 4.955287 -0.05417279 -0.08034851
v 4.948015 -0.2302948 -0.5874481
v 5.000006 -0.2302948 -0.5874481
v 5.000006 -0.08353826 -0.2654266
v 4.95529 -0.08353826 -0.2654266
v 4.931537 0.06969654 -0.6737823
v 5.000006 0.06969652 -0.6737823
v 5.000006 -0.2302948 -0.5874481
v 4.948015 -0.2302948 -0.5874481
v 4.933142 0.06969654 -1.023064
v 5.000006 0.06969652 -1.023064
v 5.000006 0.06969652 -0.6737823
v 4.931537 0.06969654 -0.6737823
v 3.732324 0.009553162 -3.072162
v 5.000006 0.0003091536 -3.165807
v 5.000006 -3.72529E-09 -1.073784
v 2.451675 -3.72529E-09 -1.125635
v 2.471448 0.03856385 -3.026429
v 1.232329 0.009553162 -3.091335
v 0 -3.72529E-09 -1.073786
v 2.441406E-06 0.0003091536 -3.165807
v 0 0.06969652 -0.6737823
v 0 0.06969652 -1.023066
v 0.03359253 0.06969654 -1.023066
v 0.03359253 0.06969654 -0.6737823
v 0 -0.2302948 -0.5874481
v 0 0.06969652 -0.6737823
v 0.03359253 0.06969654 -0.6737823
v 0.03359253 -0.2302948 -0.5874481
v 0 -0.08353826 -0.2654266
v 0 -0.2302948 -0.5874481
v 0.03359253 -0.2302948 -0.5874481
v 0.03359009 -0.08353826 -0.2654285
v 0 -0.05417279 -0.08034851
v 0 -0.08353826 -0.2654266
v 0.03359009 -0.08353826 -0.2654285
v 0.03359253 -0.05417279 -0.08034851
v 3.814783 -0.02982914 -4.395635
v 3.73988 -0.02982914 -4.395635
v 3.7473 -0.002653921 -4.48611
v 2.490718 0.001048632 -4.458842
v 2.479753 -0.02982914 -4.395635
v 2.490718 0.001048632 -4.458842
v 2.479753 -0.02982914 -4.395635
v 1.314772 -0.02982914 -4.395635
v 1.239878 9.637788E-05 -4.424633
v 1.290842 -0.02982914 -3.193233
v 1.232322 -0.02982914 -3.193233
v 1.239878 -0.02982914 -4.395635
v 1.314772 -0.02982914 -4.395635
v 3.806372 -0.02982914 -3.193233
v 3.732324 -0.02982914 -3.193233
v 3.73988 -0.02982914 -4.395635
v 3.814783 -0.02982914 -4.395635
v 3.743335 -3.72529E-09 -5
v 5.000006 -3.72529E-09 -5
v 5.000014 0 -4.413895
v 3.7473 -0.002653921 -4.48611
v 2.486663 -3.72529E-09 -5
v 2.490718 0.001048632 -4.458842
v 1.243331 -3.72529E-09 -5
v 1.239878 9.637788E-05 -4.424633
v 0 -3.72529E-09 -5
v 8.074199E-06 0 -4.413895
v 1.239878 -0.02982914 -4.395635
v 2.441406E-06 -0.02982914 -4.395635
v 8.074199E-06 0 -4.413895
v 1.239878 9.637788E-05 -4.424633
v 1.232322 -0.02982914 -3.193233
v 2.441406E-06 -0.02982914 -3.193233
v 2.441406E-06 -0.02982914 -4.395635
v 1.239878 -0.02982914 -4.395635
v 1.232329 0.009553162 -3.091335
v 2.441406E-06 0.0003091536 -3.165807
v 2.441406E-06 -0.02982914 -3.193233
v 1.232322 -0.02982914 -3.193233
v 3.732324 -0.02982914 -3.193233
v 2.479753 -0.02982914 -4.395635
v 3.73988 -0.02982914 -4.395635
v 2.464641 -0.02982914 -3.193233
v 1.290842 -0.02982914 -3.193233
v 1.314772 -0.02982914 -4.395635
v 5.000007 -0.02982914 -4.395635
v 5.000006 -0.02982914 -3.193233
v 3.806372 -0.02982914 -3.193233
v 3.814783 -0.02982914 -4.395635
v 5.000014 0 -4.413895
v 5.000007 -0.02982914 -4.395635
v 3.814783 -0.02982914 -4.395635
v 3.7473 -0.002653921 -4.48611
v 5.000006 -0.02982914 -3.193233
v 5.000006 0.0003091536 -3.165807
v 3.732324 0.009553162 -3.072162
v 3.806372 -0.02982914 -3.193233
vt 0.102478 0.2792969
vt 0.102478 0.2792969
vt 0.102478 0.2792969
vt 0.102478 0.2792969
vt 0.102478 0.2792969
vt 0.102478 0.2792969
vt 0.166626 0.3029785
vt 0.166626 0.3029785
vt 0.166626 0.3029785
vt 0.1021729 0.3076172
vt 0.1021729 0.3076172
vt 0.1021729 0.3076172
vt 0.1021729 0.3076172
vt 0.1021729 0.3076172
vt 0.1021729 0.3076172
vt 0.1021729 0.3076172
vt 0.1021729 0.3076172
vt 0.1021729 0.3076172
vt 0.1021729 0.3076172
vt 0.1021729 0.3076172
vt 0.1021729 0.3076172
vt 0.1021729 0.3076172
vt 0.1021729 0.3076172
vt 0.1021729 0.3076172
vt 0.1021729 0.3076172
vt 0.1021729 0.3076172
vt 0.1021729 0.3076172
vt 0.1021729 0.3076172
vt 0.1021729 0.3076172
vt 0.1021729 0.3076172
vt 0.1021729 0.3076172
vt 0.1021729 0.3076172
vt 0.1021729 0.3076172
vt 0.1021729 0.3076172
vt 0.1021729 0.3076172
vt 0.1021729 0.3076172
vt 0.1021729 0.3076172
vt 0.1021729 0.3076172
vt 0.1021729 0.3076172
vt 0.166626 0.3029785
vt 0.166626 0.3029785
vt 0.166626 0.3029785
vt 0.166626 0.3029785
vt 0.166626 0.3029785
vt 0.166626 0.3029785
vt 0.166626 0.3029785
vt 0.166626 0.3029785
vt 0.06616211 0.2094727
vt 0.06616211 0.2094727
vt 0.06616211 0.2094727
vt 0.06616211 0.2094727
vt 0.06616211 0.2094727
vt 0.06616211 0.2094727
vt 0.06616211 0.2094727
vt 0.06616211 0.2094727
vt 0.102478 0.2792969
vt 0.102478 0.2792969
vt 0.102478 0.2792969
vt 0.102478 0.2792969
vt 0.102478 0.2792969
vt 0.102478 0.2792969
vt 0.102478 0.2792969
vt 0.102478 0.2792969
vt 0.102478 0.2792969
vt 0.102478 0.2792969
vt 0.102478 0.2792969
vt 0.102478 0.2792969
vt 0.102478 0.2792969
vt 0.102478 0.2792969
vt 0.102478 0.2792969
vt 0.102478 0.2792969
vt 0.166626 0.3029785
vt 0.166626 0.3029785
vt 0.166626 0.3029785
vt 0.166626 0.3029785
vt 0.166626 0.3029785
vt 0.166626 0.3029785
vt 0.166626 0.3029785
vt 0.166626 0.3029785
vt 0.102478 0.2792969
vt 0.102478 0.2792969
vt 0.102478 0.2792969
vt 0.102478 0.2792969
vt 0.102478 0.2792969
vt 0.102478 0.2792969
vt 0.102478 0.2792969
vt 0.102478 0.2792969
vt 0.102478 0.2792969
vt 0.102478 0.2792969
vt 0.102478 0.2792969
vt 0.102478 0.2792969
vt 0.102478 0.2792969
vt 0.102478 0.2792969
vt 0.102478 0.2792969
vt 0.102478 0.2792969
vt 0.166626 0.3029785
vt 0.166626 0.3029785
vt 0.166626 0.3029785
vt 0.166626 0.3029785
vt 0.166626 0.3029785
vt 0.166626 0.3029785
vt 0.166626 0.3029785
vt 0.166626 0.3029785
vt 0.166626 0.3029785
vt 0.102356 0.3032227
vt 0.102356 0.3032227
vt 0.102356 0.3032227
vt 0.102356 0.3032227
vt 0.1022339 0.3032227
vt 0.1022339 0.3032227
vt 0.1022339 0.3032227
vt 0.1022339 0.3032227
vt 0.166626 0.3029785
vt 0.166626 0.3029785
vt 0.166626 0.3029785
vt 0.166626 0.3029785
vt 0.166626 0.3029785
vt 0.166626 0.3029785
vt 0.166626 0.3029785
vt 0.166626 0.3029785
vt 0.166626 0.3029785
vt 0.166626 0.3029785
vt 0.166626 0.3029785
vt 0.166626 0.3029785
vt 0.166626 0.3029785
vt 0.166626 0.3029785
vt 0.1025391 0.3286133
vt 0.1025391 0.3283691
vt 0.1022949 0.3283691
vt 0.1022949 0.3286133
vt 0.166626 0.3029785
vt 0.166626 0.3029785
vt 0.166626 0.3029785
vt 0.166626 0.3029785
vt 0.1025391 0.3288574
vt 0.1022949 0.3288574
vt 0.1022949 0.3288574
vt 0.1025391 0.3288574
vt 0.1025391 0.3286133
vt 0.1022949 0.3286133
vt 0.1022949 0.3291016
vt 0.1025391 0.3291016
vt 0.1025391 0.3288574
vt 0.1022949 0.3291016
vt 0.166626 0.3029785
vt 0.166626 0.3029785
vt 0.166626 0.3029785
vt 0.166626 0.3029785
vt 0.166626 0.3029785
vt 0.166626 0.3029785
vt 0.166626 0.3029785
vt 0.166626 0.3029785
vn 0.007091522 0.6113281 -0.7915039
vn 0 0.5883789 -0.8085938
vn 0.007091522 0.6113281 -0.7915039
vn 0 0.5883789 -0.8085938
vn -0.007389069 0.609375 -0.7929688
vn -0.007389069 0.609375 -0.7929688
vn 0 0.6958008 0.7182617
vn 0 0.6958008 0.7182617
vn 0 0.6958008 0.7182617
vn 0 1 0
vn 0 1 0
vn 0 1 0
vn 0 1 0
vn 0 1 0
vn 0 1 0
vn -0.0003006458 0.6318359 -0.7749023
vn -0.007389069 0.609375 -0.7929688
vn -0.007389069 0.609375 -0.7929688
vn -0.0003006458 0.6318359 -0.7749023
vn 0.007091522 0.6113281 -0.7915039
vn 0.007091522 0.6113281 -0.7915039
vn 0.0003128052 0.2763672 0.9609375
vn 0.008102417 0.2766113 0.9609375
vn 0.008102417 0.2766113 0.9609375
vn 0.0003128052 0.2763672 0.9609375
vn -0.007793427 0.2763672 0.9609375
vn -0.007793427 0.2763672 0.9609375
vn -3.033876E-05 0.9282227 -0.3725586
vn 0.0002068281 0.9189453 -0.3937988
vn 0.0002068281 0.9189453 -0.3937988
vn -3.033876E-05 0.9282227 -0.3725586
vn -0.0002428293 0.9194336 -0.3935547
vn -0.0002428293 0.9194336 -0.3935547
vn -0.0006942749 0.9907227 -0.1364746
vn 0.001773834 0.9892578 -0.1468506
vn 0.001773834 0.9892578 -0.1468506
vn -0.0006942749 0.9907227 -0.1364746
vn -0.002470016 0.9892578 -0.1463623
vn -0.002470016 0.9892578 -0.1463623
vn -0.0005693436 0.9306641 -0.3664551
vn 0 0.9326172 -0.3605957
vn -0.0005693436 0.9306641 -0.3664551
vn 0.001631737 0.9321289 -0.3615723
vn 0.001631737 0.9321289 -0.3615723
vn 0.00220108 0.9438477 -0.3300781
vn 0.00220108 0.9438477 -0.3300781
vn 0 0.9511719 -0.3093262
vn 0.001554489 0.847168 -0.53125
vn 0.001554489 0.847168 -0.53125
vn 0 0.8291016 -0.559082
vn 0.0004353523 0.8642578 -0.5029297
vn 0.0004353523 0.8642578 -0.5029297
vn -0.00111866 0.847168 -0.53125
vn -0.00111866 0.847168 -0.53125
vn 0 0.8291016 -0.559082
vn -0.002470016 0.9892578 -0.1463623
vn 0 0.987793 -0.1567383
vn 0 0.987793 -0.1567383
vn -0.002470016 0.9892578 -0.1463623
vn -0.0002428293 0.9194336 -0.3935547
vn 0 0.9101563 -0.4147949
vn 0 0.9101563 -0.4147949
vn -0.0002428293 0.9194336 -0.3935547
vn -0.007793427 0.2763672 0.9609375
vn 0 0.2766113 0.9609375
vn 0 0.2766113 0.9609375
vn -0.007793427 0.2763672 0.9609375
vn 0 1 0
vn 0 1 0
vn 0 1 0
vn 0 1 0
vn 0.01031494 1 0.008506775
vn 0.007301331 1 0.0001478195
vn 0.003602982 1 0.002494812
vn -0.0001763105 1 0.01255035
vn -0.0003540516 1 0.02027893
vn -0.01062012 1 0.008323669
vn -0.003704071 1 0.002471924
vn -0.007511139 1 0.0001478195
vn 0 1 0
vn 0 1 0
vn 0 1 0
vn 0 1 0
vn 0 0.2766113 0.9609375
vn 0 0.2766113 0.9609375
vn 0.008102417 0.2766113 0.9609375
vn 0.008102417 0.2766113 0.9609375
vn -1.144409E-05 0.9101563 -0.4147949
vn -1.144409E-05 0.9101563 -0.4147949
vn 0.0002068281 0.9189453 -0.3937988
vn 0.0002068281 0.9189453 -0.3937988
vn 0 0.987793 -0.1567383
vn 0 0.987793 -0.1567383
vn 0.001773834 0.9892578 -0.1468506
vn 0.001773834 0.9892578 -0.1468506
vn 0 0.9575195 0.2875977
vn 0.002607346 0.9472656 0.3210449
vn 0.002607346 0.9472656 0.3210449
vn 0.005210876 0.9350586 0.3540039
vn 0.005210876 0.9350586 0.3540039
vn 0.007415771 0.8369141 0.546875
vn 0.007415771 0.8369141 0.546875
vn 0.007415771 0.8369141 0.546875
vn 0.007415771 0.8369141 0.546875
vn 0 1 0
vn 0 1 0
vn 0 1 0
vn 0 1 0
vn 0 1 0
vn 0 1 0
vn 0 1 0
vn 0 1 0
vn 0.0001811981 1 0.001962662
vn -0.001127243 1 0.002416611
vn -0.001127243 1 0.002416611
vn 0.0001811981 1 0.001962662
vn 0.0005469322 1 0.0002424717
vn 0.0005469322 1 0.0002424717
vn -0.000217557 1 -0.0005540848
vn -0.000217557 1 -0.0005540848
vn -3.916025E-05 1 -8.308887E-05
vn -3.916025E-05 1 -8.308887E-05
vn 0.003372192 0.6201172 0.7841797
vn 0.003372192 0.6201172 0.7841797
vn 0.003372192 0.6201172 0.7841797
vn 0.003372192 0.6201172 0.7841797
vn 0 1 0
vn 0 1 0
vn 0 1 0
vn 0 1 0
vn 0.01100159 0.8808594 -0.4733887
vn 0.01100159 0.8808594 -0.4733887
vn 0.01100159 0.8808594 -0.4733887
vn 0.01100159 0.8808594 -0.4733887
vn 0 1 0
vn 0 1 0
vn 0 1 0
vn 0 1 0
vn 0 1 0
vn 0 1 0
vn 0 1 0
vn 0 1 0
vn 0 1 0
vn 0 1 0
vn -0.0149231 0.8818359 0.4714355
vn -0.0149231 0.8818359 0.4714355
vn -0.0149231 0.8818359 0.4714355
vn -0.0149231 0.8818359 0.4714355
vn -0.01293945 0.9033203 -0.4291992
vn -0.01293945 0.9033203 -0.4291992
vn -0.004272461 0.9208984 -0.3903809
vn -0.01293945 0.9033203 -0.4291992
g SM_Env_Sidewalk_Straight_01_0
f 3/3/3 2/2/2 1/1/1
f 6/6/6 5/5/5 4/4/4
f 9/9/9 8/8/8 7/7/7
f 12/12/12 11/11/11 10/10/10
f 13/13/13 12/12/12 10/10/10
f 13/13/13 10/10/10 14/14/14
f 15/15/15 13/13/13 14/14/14
f 18/18/18 17/17/17 16/16/16
f 19/19/19 18/18/18 16/16/16
f 19/19/19 16/16/16 20/20/20
f 21/21/21 19/19/19 20/20/20
f 24/24/24 23/23/23 22/22/22
f 25/25/25 24/24/24 22/22/22
f 25/25/25 22/22/22 26/26/26
f 27/27/27 25/25/25 26/26/26
f 30/30/30 29/29/29 28/28/28
f 31/31/31 30/30/30 28/28/28
f 31/31/31 28/28/28 32/32/32
f 33/33/33 31/31/31 32/32/32
f 36/36/36 35/35/35 34/34/34
f 37/37/37 36/36/36 34/34/34
f 37/37/37 34/34/34 38/38/38
f 39/39/39 37/37/37 38/38/38
f 42/42/42 41/41/41 40/40/40
f 42/42/42 40/40/40 43/43/43
f 40/40/40 44/44/44 43/43/43
f 43/43/43 44/44/44 45/45/45
f 46/46/46 43/43/43 45/45/45
f 47/47/47 46/46/46 45/45/45
f 50/50/50 49/49/49 48/48/48
f 48/48/48 49/49/49 51/51/51
f 49/49/49 52/52/52 51/51/51
f 51/51/51 52/52/52 53/53/53
f 52/52/52 54/54/54 53/53/53
f 54/54/54 55/55/55 53/53/53
f 58/58/58 57/57/57 56/56/56
f 59/59/59 58/58/58 56/56/56
f 62/62/62 61/61/61 60/60/60
f 63/63/63 62/62/62 60/60/60
f 66/66/66 65/65/65 64/64/64
f 67/67/67 66/66/66 64/64/64
f 70/70/70 69/69/69 68/68/68
f 71/71/71 70/70/70 68/68/68
f 74/74/74 73/73/73 72/72/72
f 72/72/72 75/75/75 74/74/74
f 75/75/75 72/72/72 76/76/76
f 75/75/75 76/76/76 77/77/77
f 77/77/77 78/78/78 75/75/75
f 78/78/78 77/77/77 79/79/79
f 82/82/82 81/81/81 80/80/80
f 83/83/83 82/82/82 80/80/80
f 86/86/86 85/85/85 84/84/84
f 87/87/87 86/86/86 84/84/84
f 90/90/90 89/89/89 88/88/88
f 91/91/91 90/90/90 88/88/88
f 94/94/94 93/93/93 92/92/92
f 95/95/95 94/94/94 92/92/92
f 98/98/98 97/97/97 96/96/96
f 98/98/98 99/99/99 97/97/97
f 99/99/99 100/100/100 97/97/97
f 103/103/103 102/102/102 101/101/101
f 104/104/104 103/103/103 101/101/101
f 107/107/107 106/106/106 105/105/105
f 108/108/108 107/107/107 105/105/105
f 111/111/111 110/110/110 109/109/109
f 112/112/112 111/111/111 109/109/109
f 115/115/115 114/114/114 113/113/113
f 116/116/116 115/115/115 113/113/113
f 116/116/116 113/113/113 117/117/117
f 118/118/118 116/116/116 117/117/117
f 118/118/118 117/117/117 119/119/119
f 120/120/120 118/118/118 119/119/119
f 120/120/120 119/119/119 121/121/121
f 122/122/122 120/120/120 121/121/121
f 125/125/125 124/124/124 123/123/123
f 126/126/126 125/125/125 123/123/123
f 129/129/129 128/128/128 127/127/127
f 130/130/130 129/129/129 127/127/127
f 133/133/133 132/132/132 131/131/131
f 134/134/134 133/133/133 131/131/131
f 137/137/137 136/136/136 135/135/135
f 136/136/136 138/138/138 135/135/135
f 139/139/139 138/138/138 136/136/136
f 140/140/140 139/139/139 136/136/136
f 143/143/143 142/142/142 141/141/141
f 144/144/144 143/143/143 141/141/141
f 147/147/147 146/146/146 145/145/145
f 148/148/148 147/147/147 145/145/145
f 151/151/151 150/150/150 149/149/149
f 152/152/152 151/151/151 149/149/149
