g SM_Env_Flowers_12
v -0.01893642 0.2069506 0.1567696
v -0.06619474 0.2240182 0.105545
v 0.01898268 0.248588 0.1234497
v -0.02437009 0.2749372 0.07311249
v -0.01235261 0.200581 0.08149872
v -0.1590924 0.1330829 -0.08324814
v -0.12828 0.162518 -0.02599792
v -0.191858 0.1011415 -0.03501358
v -0.1695845 0.1306694 0.02560348
v -0.1254387 0.09647445 -0.02186279
v 0.03972213 0.163662 -0.1773544
v 0.1054899 0.1491416 -0.1998146
v 0.07300364 0.1865378 -0.1262619
v 0.1411937 0.1807828 -0.1448624
v 0.09298786 0.1221329 -0.1414612
v -0.008131415 0.3034071 0.003266907
v -0.01259659 0.2585834 -0.058358
v -0.06114618 0.2666571 -0.01647262
v -0.075399 0.2658271 -0.07678299
v -0.09393064 0.2497428 0.03935089
v -0.09947234 0.1928471 -0.03261566
v -0.04165679 0.2705005 0.04914932
v -0.02935147 0.1969539 0.004431915
v -0.1198647 0.2449956 -0.01476135
v -0.007575166 0.3253729 0.07683639
v 0.07247084 0.2647981 0.08557205
v 0.0507119 0.312047 0.01718979
v 0.1275791 0.3092445 0.03749695
v 0.00727514 0.3255701 -0.05671081
v 0.1009444 0.2503116 -0.04886474
v -0.03630871 0.3183933 -6.179809E-05
v 0.01896499 0.2183319 0.0009162903
v 0.08443373 0.325672 -0.05336685
v 0.1356985 0.1680131 0.1819786
v 0.068988 0.192831 0.1751633
v 0.1332618 0.1762003 0.1163132
v 0.06965893 0.2073297 0.1019203
v 0.08163343 0.1394491 0.1418785
v 0.1129836 0.08773638 0.2473259
v -0.02585183 0.1186131 0.189447
v 0.1506943 0.1565141 0.1272804
v 0.02362769 0.14787 0.04447326
v 0.07412724 -0.0080549 0.1077583
v -0.0765122 0.1135697 -0.1289909
v -0.08185358 0.1585764 0.01330719
v -0.1817291 0.05225815 -0.07052231
v -0.1521495 0.05825 0.08226547
v 0.01098151 0.001837 0.005107116
v 0.191858 0.0952564 -0.09820633
v 0.09427991 0.1434672 -0.1652237
v 0.1293149 0.06520976 -0.2473259
v -0.03109507 0.09966865 -0.1879417
v 0.03323278 0.1950721 -0.005810547
v 0.01853539 -0.0598521 -0.01939774
v 0.105631 0.2681097 0.06548233
v 0.1373589 0.1939223 -0.03903961
v 0.01409728 0.2776364 0.01904907
v 0.02101089 0.2351544 -0.09042511
v -0.06826834 0.1813692 0.1015861
v -0.06979466 0.05303508 -0.05140838
v 0.0346744 0.1955725 0.1363724
v 0.09043308 0.02322448 0.0545723
v -0.09786151 0.2069618 -0.001616669
v -0.06619474 0.2240182 0.105545
v -0.01235261 0.200581 0.08149872
v -0.02437009 0.2749372 0.07311249
v -0.01235261 0.200581 0.08149872
v -0.06619474 0.2240182 0.105545
v 0.01898268 0.248588 0.1234497
v -0.01893642 0.2069506 0.1567696
v -0.06619474 0.2240182 0.105545
v -0.02437009 0.2749372 0.07311249
v 0.01898268 0.248588 0.1234497
v -0.01893642 0.2069506 0.1567696
v 0.01898268 0.248588 0.1234497
v -0.01235261 0.200581 0.08149872
v -0.12828 0.162518 -0.02599792
v -0.1254387 0.09647445 -0.02186279
v -0.1695845 0.1306694 0.02560348
v -0.1254387 0.09647445 -0.02186279
v -0.12828 0.162518 -0.02599792
v -0.191858 0.1011415 -0.03501358
v -0.1590924 0.1330829 -0.08324814
v -0.12828 0.162518 -0.02599792
v -0.1695845 0.1306694 0.02560348
v -0.191858 0.1011415 -0.03501358
v -0.1590924 0.1330829 -0.08324814
v -0.191858 0.1011415 -0.03501358
v -0.1254387 0.09647445 -0.02186279
v 0.1054899 0.1491416 -0.1998146
v 0.09298786 0.1221329 -0.1414612
v 0.1411937 0.1807828 -0.1448624
v 0.09298786 0.1221329 -0.1414612
v 0.1054899 0.1491416 -0.1998146
v 0.07300364 0.1865378 -0.1262619
v 0.03972213 0.163662 -0.1773544
v 0.1054899 0.1491416 -0.1998146
v 0.1411937 0.1807828 -0.1448624
v 0.07300364 0.1865378 -0.1262619
v 0.03972213 0.163662 -0.1773544
v 0.07300364 0.1865378 -0.1262619
v 0.09298786 0.1221329 -0.1414612
v -0.09393064 0.2497428 0.03935089
v -0.09947234 0.1928471 -0.03261566
v -0.04165679 0.2705005 0.04914932
v -0.008131415 0.3034071 0.003266907
v -0.01259659 0.2585834 -0.058358
v -0.02935147 0.1969539 0.004431915
v -0.01259659 0.2585834 -0.058358
v -0.09947234 0.1928471 -0.03261566
v -0.02935147 0.1969539 0.004431915
v -0.04165679 0.2705005 0.04914932
v -0.06114618 0.2666571 -0.01647262
v -0.008131415 0.3034071 0.003266907
v -0.06114618 0.2666571 -0.01647262
v -0.09393064 0.2497428 0.03935089
v -0.1198647 0.2449956 -0.01476135
v -0.06114618 0.2666571 -0.01647262
v -0.075399 0.2658271 -0.07678299
v -0.01259659 0.2585834 -0.058358
v -0.04165679 0.2705005 0.04914932
v -0.075399 0.2658271 -0.07678299
v -0.09947234 0.1928471 -0.03261566
v -0.075399 0.2658271 -0.07678299
v -0.1198647 0.2449956 -0.01476135
v 0.00727514 0.3255701 -0.05671081
v 0.1009444 0.2503116 -0.04886474
v -0.03630871 0.3183933 -6.179809E-05
v -0.007575166 0.3253729 0.07683639
v 0.07247084 0.2647981 0.08557205
v 0.01896499 0.2183319 0.0009162903
v 0.07247084 0.2647981 0.08557205
v 0.1009444 0.2503116 -0.04886474
v 0.01896499 0.2183319 0.0009162903
v -0.03630871 0.3183933 -6.179809E-05
v 0.0507119 0.312047 0.01718979
v -0.007575166 0.3253729 0.07683639
v 0.0507119 0.312047 0.01718979
v 0.00727514 0.3255701 -0.05671081
v 0.08443373 0.325672 -0.05336685
v 0.0507119 0.312047 0.01718979
v 0.1275791 0.3092445 0.03749695
v 0.07247084 0.2647981 0.08557205
v -0.03630871 0.3183933 -6.179809E-05
v 0.1275791 0.3092445 0.03749695
v 0.1009444 0.2503116 -0.04886474
v 0.1275791 0.3092445 0.03749695
v 0.08443373 0.325672 -0.05336685
v 0.068988 0.192831 0.1751633
v 0.08163343 0.1394491 0.1418785
v 0.06965893 0.2073297 0.1019203
v 0.08163343 0.1394491 0.1418785
v 0.068988 0.192831 0.1751633
v 0.1332618 0.1762003 0.1163132
v 0.1356985 0.1680131 0.1819786
v 0.068988 0.192831 0.1751633
v 0.06965893 0.2073297 0.1019203
v 0.1332618 0.1762003 0.1163132
v 0.1356985 0.1680131 0.1819786
v 0.1332618 0.1762003 0.1163132
v 0.08163343 0.1394491 0.1418785
v -0.02585183 0.1186131 0.189447
v 0.07412724 -0.0080549 0.1077583
v 0.02362769 0.14787 0.04447326
v 0.07412724 -0.0080549 0.1077583
v -0.02585183 0.1186131 0.189447
v 0.1506943 0.1565141 0.1272804
v 0.1129836 0.08773638 0.2473259
v -0.02585183 0.1186131 0.189447
v 0.02362769 0.14787 0.04447326
v 0.1506943 0.1565141 0.1272804
v 0.1129836 0.08773638 0.2473259
v 0.1506943 0.1565141 0.1272804
v 0.07412724 -0.0080549 0.1077583
v -0.08185358 0.1585764 0.01330719
v 0.01098151 0.001837 0.005107116
v -0.1521495 0.05825 0.08226547
v 0.01098151 0.001837 0.005107116
v -0.08185358 0.1585764 0.01330719
v -0.1817291 0.05225815 -0.07052231
v -0.0765122 0.1135697 -0.1289909
v -0.08185358 0.1585764 0.01330719
v -0.1521495 0.05825 0.08226547
v -0.1817291 0.05225815 -0.07052231
v -0.0765122 0.1135697 -0.1289909
v -0.1817291 0.05225815 -0.07052231
v 0.01098151 0.001837 0.005107116
v 0.03323278 0.1950721 -0.005810547
v 0.01853539 -0.0598521 -0.01939774
v -0.03109507 0.09966865 -0.1879417
v 0.01853539 -0.0598521 -0.01939774
v 0.03323278 0.1950721 -0.005810547
v 0.191858 0.0952564 -0.09820633
v 0.09427991 0.1434672 -0.1652237
v 0.1293149 0.06520976 -0.2473259
v 0.191858 0.0952564 -0.09820633
v 0.03323278 0.1950721 -0.005810547
v -0.03109507 0.09966865 -0.1879417
v 0.09427991 0.1434672 -0.1652237
v 0.09427991 0.1434672 -0.1652237
v -0.03109507 0.09966865 -0.1879417
v 0.1293149 0.06520976 -0.2473259
v -0.06826834 0.1813692 0.1015861
v -0.06979466 0.05303508 -0.05140838
v 0.0346744 0.1955725 0.1363724
v 0.105631 0.2681097 0.06548233
v 0.1373589 0.1939223 -0.03903961
v 0.09043308 0.02322448 0.0545723
v 0.1373589 0.1939223 -0.03903961
v -0.06979466 0.05303508 -0.05140838
v 0.09043308 0.02322448 0.0545723
v 0.0346744 0.1955725 0.1363724
v 0.01409728 0.2776364 0.01904907
v 0.105631 0.2681097 0.06548233
v 0.01409728 0.2776364 0.01904907
v -0.06826834 0.1813692 0.1015861
v -0.09786151 0.2069618 -0.001616669
v 0.01409728 0.2776364 0.01904907
v 0.02101089 0.2351544 -0.09042511
v 0.1373589 0.1939223 -0.03903961
v -0.06826834 0.1813692 0.1015861
v 0.01409728 0.2776364 0.01904907
v -0.09786151 0.2069618 -0.001616669
v 0.02101089 0.2351544 -0.09042511
v -0.06979466 0.05303508 -0.05140838
v 0.02101089 0.2351544 -0.09042511
v -0.09786151 0.2069618 -0.001616669
v 0.191858 0.0952564 -0.09820633
v 0.1293149 0.06520976 -0.2473259
v 0.01853539 -0.0598521 -0.01939774
vt 0.2611602 0.3804316
vt 0.2616692 0.3805262
vt 0.2613747 0.3798972
vt 0.2619613 0.3802659
vt 0.2615954 0.3807151
vt 0.2611602 0.3804316
vt 0.2616692 0.3805262
vt 0.2613747 0.3798972
vt 0.2619613 0.3802659
vt 0.2615954 0.3807151
vt 0.2611602 0.3804316
vt 0.2616692 0.3805262
vt 0.2613747 0.3798972
vt 0.2619613 0.3802659
vt 0.2615954 0.3807151
vt 0.2612417 0.3805511
vt 0.2610787 0.3803121
vt 0.2615729 0.3803324
vt 0.2613747 0.3798972
vt 0.2620787 0.380473
vt 0.2618234 0.3802342
vt 0.2617654 0.3807199
vt 0.2615954 0.3807151
vt 0.2619818 0.3800904
vt 0.2612417 0.3805511
vt 0.2610787 0.3803121
vt 0.2615729 0.3803324
vt 0.2613747 0.3798972
vt 0.2620787 0.380473
vt 0.2618234 0.3802342
vt 0.2617654 0.3807199
vt 0.2615954 0.3807151
vt 0.2619818 0.3800904
vt 0.2611602 0.3804316
vt 0.2616692 0.3805262
vt 0.2613747 0.3798972
vt 0.2619613 0.3802659
vt 0.2615954 0.3807151
vt 0.4497808 0.1566903
vt 0.4502897 0.1567848
vt 0.4499952 0.1561559
vt 0.4505818 0.1565246
vt 0.450216 0.1569737
vt 0.4497808 0.179665
vt 0.4502897 0.1797596
vt 0.4499952 0.1791306
vt 0.4505818 0.1794993
vt 0.450216 0.1799485
vt 0.4497808 0.1566903
vt 0.4501935 0.1565911
vt 0.4499952 0.1561559
vt 0.4505818 0.1565246
vt 0.4503859 0.1569786
vt 0.450216 0.1569737
vt 0.4498623 0.2069659
vt 0.4496992 0.2067269
vt 0.4501935 0.2067472
vt 0.4499952 0.206312
vt 0.4506992 0.2068878
vt 0.450444 0.206649
vt 0.4503859 0.2071347
vt 0.450216 0.2071299
vt 0.4506024 0.2065052
vt 0.2616692 0.3805262
vt 0.2615954 0.3807151
vt 0.2619613 0.3802659
vt 0.2615954 0.3807151
vt 0.2616692 0.3805262
vt 0.2613747 0.3798972
vt 0.2611602 0.3804316
vt 0.2616692 0.3805262
vt 0.2619613 0.3802659
vt 0.2613747 0.3798972
vt 0.2611602 0.3804316
vt 0.2613747 0.3798972
vt 0.2615954 0.3807151
vt 0.2616692 0.3805262
vt 0.2615954 0.3807151
vt 0.2619613 0.3802659
vt 0.2615954 0.3807151
vt 0.2616692 0.3805262
vt 0.2613747 0.3798972
vt 0.2611602 0.3804316
vt 0.2616692 0.3805262
vt 0.2619613 0.3802659
vt 0.2613747 0.3798972
vt 0.2611602 0.3804316
vt 0.2613747 0.3798972
vt 0.2615954 0.3807151
vt 0.2616692 0.3805262
vt 0.2615954 0.3807151
vt 0.2619613 0.3802659
vt 0.2615954 0.3807151
vt 0.2616692 0.3805262
vt 0.2613747 0.3798972
vt 0.2611602 0.3804316
vt 0.2616692 0.3805262
vt 0.2619613 0.3802659
vt 0.2613747 0.3798972
vt 0.2611602 0.3804316
vt 0.2613747 0.3798972
vt 0.2615954 0.3807151
vt 0.2620787 0.380473
vt 0.2618234 0.3802342
vt 0.2617654 0.3807199
vt 0.2612417 0.3805511
vt 0.2610787 0.3803121
vt 0.2615954 0.3807151
vt 0.2610787 0.3803121
vt 0.2618234 0.3802342
vt 0.2615954 0.3807151
vt 0.2617654 0.3807199
vt 0.2615729 0.3803324
vt 0.2612417 0.3805511
vt 0.2615729 0.3803324
vt 0.2620787 0.380473
vt 0.2619818 0.3800904
vt 0.2615729 0.3803324
vt 0.2613747 0.3798972
vt 0.2610787 0.3803121
vt 0.2617654 0.3807199
vt 0.2613747 0.3798972
vt 0.2618234 0.3802342
vt 0.2613747 0.3798972
vt 0.2619818 0.3800904
vt 0.2620787 0.380473
vt 0.2618234 0.3802342
vt 0.2617654 0.3807199
vt 0.2612417 0.3805511
vt 0.2610787 0.3803121
vt 0.2615954 0.3807151
vt 0.2610787 0.3803121
vt 0.2618234 0.3802342
vt 0.2615954 0.3807151
vt 0.2617654 0.3807199
vt 0.2615729 0.3803324
vt 0.2612417 0.3805511
vt 0.2615729 0.3803324
vt 0.2620787 0.380473
vt 0.2619818 0.3800904
vt 0.2615729 0.3803324
vt 0.2613747 0.3798972
vt 0.2610787 0.3803121
vt 0.2617654 0.3807199
vt 0.2613747 0.3798972
vt 0.2618234 0.3802342
vt 0.2613747 0.3798972
vt 0.2619818 0.3800904
vt 0.2616692 0.3805262
vt 0.2615954 0.3807151
vt 0.2619613 0.3802659
vt 0.2615954 0.3807151
vt 0.2616692 0.3805262
vt 0.2613747 0.3798972
vt 0.2611602 0.3804316
vt 0.2616692 0.3805262
vt 0.2619613 0.3802659
vt 0.2613747 0.3798972
vt 0.2611602 0.3804316
vt 0.2613747 0.3798972
vt 0.2615954 0.3807151
vt 0.4502897 0.1567848
vt 0.450216 0.1569737
vt 0.4505818 0.1565246
vt 0.450216 0.1569737
vt 0.4502897 0.1567848
vt 0.4499952 0.1561559
vt 0.4497808 0.1566903
vt 0.4502897 0.1567848
vt 0.4505818 0.1565246
vt 0.4499952 0.1561559
vt 0.4497808 0.1566903
vt 0.4499952 0.1561559
vt 0.450216 0.1569737
vt 0.4502897 0.1797596
vt 0.450216 0.1799485
vt 0.4505818 0.1794993
vt 0.450216 0.1799485
vt 0.4502897 0.1797596
vt 0.4499952 0.1791306
vt 0.4497808 0.179665
vt 0.4502897 0.1797596
vt 0.4505818 0.1794993
vt 0.4499952 0.1791306
vt 0.4497808 0.179665
vt 0.4499952 0.1791306
vt 0.450216 0.1799485
vt 0.4503859 0.1569786
vt 0.450216 0.1569737
vt 0.4505818 0.1565246
vt 0.450216 0.1569737
vt 0.4503859 0.1569786
vt 0.4497808 0.1566903
vt 0.4501935 0.1565911
vt 0.4499952 0.1561559
vt 0.4497808 0.1566903
vt 0.4503859 0.1569786
vt 0.4505818 0.1565246
vt 0.4501935 0.1565911
vt 0.4501935 0.1565911
vt 0.4505818 0.1565246
vt 0.4499952 0.1561559
vt 0.4506992 0.2068878
vt 0.450444 0.206649
vt 0.4503859 0.2071347
vt 0.4498623 0.2069659
vt 0.4496992 0.2067269
vt 0.450216 0.2071299
vt 0.4496992 0.2067269
vt 0.450444 0.206649
vt 0.450216 0.2071299
vt 0.4503859 0.2071347
vt 0.4501935 0.2067472
vt 0.4498623 0.2069659
vt 0.4501935 0.2067472
vt 0.4506992 0.2068878
vt 0.4506024 0.2065052
vt 0.4501935 0.2067472
vt 0.4499952 0.206312
vt 0.4496992 0.2067269
vt 0.4506992 0.2068878
vt 0.4501935 0.2067472
vt 0.4506024 0.2065052
vt 0.4499952 0.206312
vt 0.450444 0.206649
vt 0.4499952 0.206312
vt 0.4506024 0.2065052
vt 0.4497808 0.1566903
vt 0.4499952 0.1561559
vt 0.450216 0.1569737
vn -0.3818645 -0.923136 0.04471594
vn -0.4634195 -0.1729196 -0.8691037
vn 0.7701567 0.05277964 -0.6356674
vn -0.4634195 -0.1729196 -0.8691036
vn -0.4634195 -0.1729196 -0.8691037
vn 0.878828 0.007937549 -0.4770726
vn 0.7560551 0.07324909 0.6503962
vn -0.1554156 -0.8644028 0.4781776
vn 0.7560551 0.07324909 0.6503962
vn 0.7560551 0.0732491 0.6503962
vn -0.3371316 -0.8247733 -0.4539729
vn 0.7622495 -0.6340607 -0.1301637
vn 0.2485257 -0.1487641 0.9571334
vn 0.7622496 -0.6340607 -0.1301637
vn 0.7622496 -0.6340606 -0.1301637
vn -0.3356341 0.773193 -0.5380729
vn -0.335634 0.773193 -0.5380729
vn -0.335634 0.773193 -0.5380729
vn 0.2803156 -0.64784 -0.7083265
vn -0.7886266 -0.4513479 0.4175561
vn -0.7886266 -0.4513479 0.4175561
vn -0.1459267 -0.6637631 0.7335693
vn -0.1459267 -0.663763 0.7335693
vn -0.7886266 -0.4513479 0.4175561
vn 0.5388812 0.7634442 0.3560339
vn 0.5388812 0.7634442 0.3560339
vn 0.5388812 0.7634441 0.3560338
vn 0.5855262 -0.7834001 0.2084307
vn 0.04330986 -0.05012105 -0.9978036
vn 0.04330986 -0.05012104 -0.9978036
vn -0.4897317 -0.45353 -0.7446296
vn -0.4897317 -0.45353 -0.7446296
vn 0.04330986 -0.05012104 -0.9978036
vn -0.286229 -0.5548679 0.7811496
vn -0.9783101 -0.2013128 -0.04881229
vn -0.05790269 -0.5140036 -0.8558316
vn -0.9783101 -0.2013128 -0.04881229
vn -0.9783101 -0.2013128 -0.04881229
vn -0.4020463 -0.6988487 0.591582
vn -0.8304961 -0.4182766 -0.3678598
vn 0.5466915 -0.15678 -0.8225257
vn -0.8304962 -0.4182765 -0.3678598
vn -0.8304961 -0.4182766 -0.3678598
vn 0.850176 0.510325 -0.1294953
vn 0.4818762 0.2413413 0.8423478
vn -0.285944 -0.9537459 0.09276147
vn 0.4818761 0.2413413 0.8423478
vn 0.4818762 0.2413413 0.8423477
vn 0.4668226 -0.07388435 0.8812593
vn 0.4912736 0.8661072 -0.09224162
vn -0.3703218 -0.7266293 -0.578681
vn -0.9483041 0.03787926 0.3150946
vn -0.9483041 0.03787926 0.3150946
vn -0.9483041 0.03787926 0.3150946
vn 0.3276168 0.8145591 -0.4787073
vn 0.3276168 0.8145591 -0.4787073
vn 0.3276168 0.8145591 -0.4787073
vn 0.352964 -0.4468107 -0.8220564
vn -0.9470913 -0.2411926 0.2117645
vn -0.9470913 -0.2411926 0.2117645
vn -0.4023842 -0.6074191 0.6849299
vn -0.4023841 -0.6074191 0.6849298
vn -0.9470913 -0.2411926 0.2117645
vn -0.3818645 -0.9231359 0.04471594
vn -0.3818645 -0.9231359 0.04471594
vn 0.7701567 0.05277964 -0.6356674
vn 0.7701567 0.05277963 -0.6356673
vn -0.3361366 0.7558029 0.5619377
vn -0.3361366 0.7558029 0.5619377
vn -0.3361366 0.755803 0.5619377
vn -0.3337809 0.6859798 0.6465463
vn -0.3337808 0.6859797 0.6465464
vn -0.3337809 0.6859798 0.6465463
vn 0.7799852 -0.6141471 0.1201938
vn 0.7799852 -0.6141471 0.1201938
vn 0.7799852 -0.614147 0.1201938
vn 0.878828 0.007937549 -0.4770726
vn 0.878828 0.00793755 -0.4770726
vn -0.1554156 -0.8644029 0.4781775
vn -0.1554156 -0.8644029 0.4781775
vn -0.6948443 0.7191478 0.004221251
vn -0.6948442 0.7191479 0.00422125
vn -0.6948442 0.7191479 0.004221251
vn -0.6835427 0.7228928 -0.1009726
vn -0.6835426 0.7228928 -0.1009726
vn -0.6835427 0.7228928 -0.1009726
vn 0.04541991 -0.846828 -0.5299239
vn 0.04541992 -0.8468279 -0.5299239
vn 0.04541991 -0.846828 -0.5299239
vn -0.3371316 -0.8247733 -0.4539729
vn -0.3371316 -0.8247732 -0.4539729
vn 0.2485257 -0.1487641 0.9571334
vn 0.2485257 -0.1487641 0.9571334
vn 0.04992037 0.8990257 -0.4350413
vn 0.04992038 0.8990257 -0.4350413
vn 0.04992038 0.8990257 -0.4350413
vn -0.05432916 0.880187 -0.4715073
vn -0.05432916 0.880187 -0.4715073
vn -0.05432916 0.880187 -0.4715074
vn -0.6984105 -0.3623626 0.617184
vn -0.6984105 -0.3623625 0.617184
vn -0.6984105 -0.3623626 0.617184
vn -0.1459267 -0.6637631 0.7335693
vn -0.1459267 -0.663763 0.7335693
vn 0.943327 -0.1850249 0.2754996
vn 0.943327 -0.1850249 0.2754996
vn 0.943327 -0.1850249 0.2754996
vn 0.943327 -0.1850249 0.2754996
vn 0.2803155 -0.6478401 -0.7083265
vn 0.2803156 -0.6478401 -0.7083265
vn 0.2803156 -0.6478401 -0.7083265
vn -0.5972898 0.7912464 0.1310492
vn -0.5972898 0.7912464 0.1310492
vn -0.5972898 0.7912464 0.1310492
vn -0.3524025 0.9332563 0.06960819
vn -0.3616658 0.9297286 0.06930164
vn -0.3431607 0.9362089 0.07585222
vn 0.1271082 0.9909269 -0.04367517
vn 0.1271082 0.9909269 -0.04367517
vn 0.1271082 0.9909269 -0.04367517
vn -0.3778259 0.9240524 0.0580912
vn -0.3435436 0.93665 0.0682984
vn -0.7915961 -0.1033568 -0.60224
vn -0.7915961 -0.1033568 -0.60224
vn -0.7915961 -0.1033568 -0.60224
vn -0.4897318 -0.4535301 -0.7446296
vn -0.4897317 -0.45353 -0.7446296
vn -0.669715 -0.532891 0.5172129
vn -0.669715 -0.532891 0.5172128
vn -0.669715 -0.532891 0.5172128
vn -0.669715 -0.532891 0.5172128
vn 0.5855263 -0.7834001 0.2084307
vn 0.5855262 -0.7834001 0.2084307
vn 0.5855263 -0.7834001 0.2084307
vn 0.09694932 0.9873022 -0.1258382
vn 0.09694932 0.9873022 -0.1258382
vn 0.09694932 0.9873022 -0.1258382
vn 0.001991235 0.9841586 0.1772789
vn 0.01802993 0.9853294 0.1697083
vn -0.01084925 0.9827552 0.1845923
vn -0.1270601 0.7966785 0.5908968
vn -0.1270601 0.7966785 0.5908968
vn -0.1270601 0.7966785 0.5908968
vn 0.04093846 0.9868264 0.1565173
vn -0.01270422 0.9828941 0.1837325
vn 0.9013932 0.1737928 -0.3965932
vn 0.9013934 0.1737928 -0.3965933
vn 0.9013932 0.1737928 -0.3965932
vn -0.286229 -0.5548679 0.7811496
vn -0.286229 -0.5548679 0.7811496
vn -0.05790269 -0.5140035 -0.8558316
vn -0.05790269 -0.5140036 -0.8558316
vn 0.3374197 0.9355775 0.104128
vn 0.3374197 0.9355775 0.104128
vn 0.3374197 0.9355775 0.104128
vn 0.3988417 0.8988612 0.1815866
vn 0.3988417 0.8988612 0.1815866
vn 0.3988417 0.8988612 0.1815867
vn 0.5339196 -0.8363796 -0.1240924
vn 0.5339196 -0.8363797 -0.1240924
vn 0.5339196 -0.8363797 -0.1240924
vn -0.4020463 -0.6988487 0.591582
vn -0.4020463 -0.6988487 0.5915821
vn 0.5466915 -0.15678 -0.8225256
vn 0.5466915 -0.15678 -0.8225256
vn -0.01264456 0.8693199 0.4940882
vn -0.01264456 0.8693199 0.4940882
vn -0.01264455 0.8693199 0.4940881
vn -0.1594552 0.9768355 0.1427113
vn -0.1594553 0.9768355 0.1427113
vn -0.1594553 0.9768355 0.1427113
vn 0.9041005 -0.4254176 0.0402763
vn 0.9041005 -0.4254177 0.0402763
vn 0.9041005 -0.4254177 0.0402763
vn 0.850176 0.5103249 -0.1294953
vn 0.850176 0.510325 -0.1294953
vn -0.285944 -0.9537459 0.09276147
vn -0.285944 -0.9537459 0.09276147
vn -0.5907664 0.7626416 -0.2633873
vn -0.5907664 0.7626416 -0.2633873
vn -0.5907664 0.7626416 -0.2633873
vn -0.7703077 0.6253794 0.1246056
vn -0.7703077 0.6253795 0.1246056
vn -0.7703077 0.6253796 0.1246056
vn 0.06546493 -0.7451968 -0.6636234
vn 0.06546493 -0.7451968 -0.6636234
vn 0.06546493 -0.7451968 -0.6636235
vn 0.4668226 -0.07388434 0.8812593
vn 0.4668226 -0.07388435 0.8812593
vn -0.3703218 -0.7266293 -0.5786809
vn -0.3703218 -0.7266293 -0.578681
vn 0.4912736 0.8661072 -0.09224162
vn 0.4912736 0.8661072 -0.09224162
vn 0.6103075 0.6870038 -0.3943992
vn 0.6103074 0.6870038 -0.3943993
vn 0.6103075 0.6870038 -0.3943993
vn -0.2424548 0.8919654 -0.3815931
vn -0.2424548 0.8919654 -0.3815931
vn -0.2424548 0.8919654 -0.3815931
vn -0.1138508 0.6944313 -0.710495
vn -0.1138508 0.6944313 -0.710495
vn -0.1138508 0.6944313 -0.7104949
vn -0.4023841 -0.6074191 0.68493
vn -0.4023842 -0.6074191 0.6849299
vn 0.8602076 -0.07585178 0.5042711
vn 0.8602076 -0.07585176 0.5042711
vn 0.8602076 -0.07585176 0.5042711
vn 0.8602076 -0.07585178 0.504271
vn 0.352964 -0.4468107 -0.8220564
vn 0.352964 -0.4468108 -0.8220564
vn 0.352964 -0.4468107 -0.8220564
vn -0.2719224 0.7655092 0.5831414
vn -0.256372 0.770355 0.5838035
vn -0.2152602 0.7820924 0.5848029
vn -0.5456811 0.7633332 0.3457667
vn -0.5456811 0.7633332 0.3457667
vn -0.5456811 0.7633332 0.3457668
vn 0.4341342 0.8487397 -0.301941
vn 0.4341342 0.8487397 -0.3019411
vn 0.4341342 0.8487397 -0.3019411
vn -0.3007899 0.7559078 0.5814885
vn -0.453955 0.8206301 -0.3471183
vn -0.4539549 0.8206301 -0.3471183
vn -0.4539549 0.8206301 -0.3471183
vn -0.6136755 0.1394894 -0.7771391
vn -0.6136754 0.1394894 -0.7771391
vn -0.6136755 0.1394894 -0.777139
vn 0.6340027 -0.7652179 -0.111724
vn 0.6340026 -0.7652179 -0.111724
vn 0.6340027 -0.7652179 -0.111724
g SM_Env_Flowers_12_0
f 5/5/5 2/2/2 4/4/4
f 65/65/65 1/1/1 64/64/64
f 67/67/67 66/66/66 3/3/3
f 70/70/70 69/69/69 68/68/68
f 73/73/73 72/72/72 71/71/71
f 76/76/76 75/75/75 74/74/74
f 10/10/10 7/7/7 9/9/9
f 78/78/78 6/6/6 77/77/77
f 80/80/80 79/79/79 8/8/8
f 83/83/83 82/82/82 81/81/81
f 86/86/86 85/85/85 84/84/84
f 89/89/89 88/88/88 87/87/87
f 15/15/15 12/12/12 14/14/14
f 91/91/91 11/11/11 90/90/90
f 93/93/93 92/92/92 13/13/13
f 96/96/96 95/95/95 94/94/94
f 99/99/99 98/98/98 97/97/97
f 102/102/102 101/101/101 100/100/100
f 17/17/17 18/18/18 16/16/16
f 24/24/24 21/21/21 20/20/20
f 114/114/114 113/113/113 112/112/112
f 120/120/120 119/119/119 118/118/118
f 125/125/125 124/124/124 123/123/123
f 26/26/26 27/27/27 25/25/25
f 33/33/33 30/30/30 29/29/29
f 137/137/137 136/136/136 135/135/135
f 143/143/143 142/142/142 141/141/141
f 148/148/148 147/147/147 146/146/146
f 38/38/38 35/35/35 37/37/37
f 150/150/150 34/34/34 149/149/149
f 152/152/152 151/151/151 36/36/36
f 155/155/155 154/154/154 153/153/153
f 158/158/158 157/157/157 156/156/156
f 161/161/161 160/160/160 159/159/159
f 43/43/43 40/40/40 42/42/42
f 163/163/163 39/39/39 162/162/162
f 165/165/165 164/164/164 41/41/41
f 168/168/168 167/167/167 166/166/166
f 171/171/171 170/170/170 169/169/169
f 174/174/174 173/173/173 172/172/172
f 48/48/48 45/45/45 47/47/47
f 176/176/176 44/44/44 175/175/175
f 178/178/178 177/177/177 46/46/46
f 181/181/181 180/180/180 179/179/179
f 184/184/184 183/183/183 182/182/182
f 187/187/187 186/186/186 185/185/185
f 54/54/54 53/53/53 52/52/52
f 189/189/189 49/49/49 188/188/188
f 191/191/191 190/190/190 51/51/51
f 193/193/193 50/50/50 192/192/192
f 196/196/196 195/195/195 194/194/194
f 199/199/199 198/198/198 197/197/197
f 202/202/202 201/201/201 200/200/200
f 56/56/56 57/57/57 55/55/55
f 63/63/63 60/60/60 59/59/59
f 217/217/217 216/216/216 215/215/215
f 220/220/220 219/219/219 218/218/218
f 224/224/224 223/223/223 222/222/222
f 227/227/227 226/226/226 225/225/225
f 230/230/230 229/229/229 228/228/228
f 23/23/23 22/22/22 103/103/103
f 104/104/104 23/23/23 103/103/103
f 107/107/107 106/106/106 105/105/105
f 108/108/108 107/107/107 105/105/105
f 110/110/110 19/19/19 109/109/109
f 111/111/111 110/110/110 109/109/109
f 115/115/115 116/116/116 121/121/121
f 117/117/117 116/116/116 115/115/115
f 122/122/122 117/117/117 115/115/115
f 32/32/32 31/31/31 126/126/126
f 127/127/127 32/32/32 126/126/126
f 130/130/130 129/129/129 128/128/128
f 131/131/131 130/130/130 128/128/128
f 133/133/133 28/28/28 132/132/132
f 134/134/134 133/133/133 132/132/132
f 138/138/138 139/139/139 144/144/144
f 140/140/140 139/139/139 138/138/138
f 145/145/145 140/140/140 138/138/138
f 62/62/62 61/61/61 203/203/203
f 204/204/204 62/62/62 203/203/203
f 207/207/207 206/206/206 205/205/205
f 208/208/208 207/207/207 205/205/205
f 210/210/210 58/58/58 209/209/209
f 211/211/211 210/210/210 209/209/209
f 214/214/214 213/213/213 212/212/212
f 213/213/213 221/221/221 212/212/212
