g SM_Env_Rock_03
v 0.0525581 0.1052588 0.176651
v -0.2389525 0.05970846 -0.00194829
v -0.1557761 0.1132169 0.1403952
v -0.2049007 -0.1069871 0.05767943
v -0.1075599 -0.1165614 0.1574362
v 0.05731704 -0.07909983 0.1749689
v -0.1309187 0.136705 -0.004426813
v -0.2362882 -0.05361125 0.002837744
v -0.1990991 -0.04534462 -0.08100976
v -0.07059948 -0.1435259 0.04804862
v 0.1434511 0.1312843 0.122683
v -0.1418308 0.06347034 -0.1110939
v -0.1340571 -0.09642469 -0.09874719
v 0.2011254 -0.05854633 0.09015654
v 0.07685653 0.1644169 -0.04721005
v 0.2371172 0.09008864 0.00679265
v 0.1880867 -0.1009461 0.009919844
v 0.01197906 0.07253363 -0.1634964
v 0.1711428 0.09120462 -0.1088488
v 0.2170772 -0.08391708 -0.02712914
v 0.01530579 -0.06735469 -0.1936118
v 0.1526256 -0.09164958 -0.1195112
v 0.1649167 0.1050247 0.1365589
v 0.187621 0.02415721 -0.1239977
v 0.002932745 0.01651599 -0.2073799
v -0.2389525 0.05970846 -0.00194829
v -0.1557761 0.1132169 0.1403952
v -0.1557761 0.1132169 0.1403952
v -0.2049007 -0.1069871 0.05767943
v -0.1557761 0.1132169 0.1403952
v -0.1075599 -0.1165614 0.1574362
v -0.2049007 -0.1069871 0.05767943
v -0.1075599 -0.1165614 0.1574362
v -0.1557761 0.1132169 0.1403952
v -0.07059948 -0.1435259 0.04804862
v -0.1075599 -0.1165614 0.1574362
v 0.05731704 -0.07909983 0.1749689
v 0.1434511 0.1312843 0.122683
v -0.1557761 0.1132169 0.1403952
v -0.1309187 0.136705 -0.004426813
v -0.1309187 0.136705 -0.004426813
v -0.2389525 0.05970846 -0.00194829
v -0.2389525 0.05970846 -0.00194829
v -0.2362882 -0.05361125 0.002837744
v -0.2049007 -0.1069871 0.05767943
v -0.2362882 -0.05361125 0.002837744
v -0.2049007 -0.1069871 0.05767943
v -0.07059948 -0.1435259 0.04804862
v -0.1340571 -0.09642469 -0.09874719
v -0.2389525 0.05970846 -0.00194829
v -0.1990991 -0.04534462 -0.08100976
v -0.1418308 0.06347034 -0.1110939
v 0.0525581 0.1052588 0.176651
v -0.1990991 -0.04534462 -0.08100976
v 0.05731704 -0.07909983 0.1749689
v 0.0525581 0.1052588 0.176651
v 0.0525581 0.1052588 0.176651
v 0.1434511 0.1312843 0.122683
v -0.1418308 0.06347034 -0.1110939
v -0.1340571 -0.09642469 -0.09874719
v -0.07059948 -0.1435259 0.04804862
v -0.1309187 0.136705 -0.004426813
v -0.1418308 0.06347034 -0.1110939
v -0.1990991 -0.04534462 -0.08100976
v -0.1340571 -0.09642469 -0.09874719
v 0.07685653 0.1644169 -0.04721005
v 0.2011254 -0.05854633 0.09015654
v 0.05731704 -0.07909983 0.1749689
v 0.1649167 0.1050247 0.1365589
v 0.1434511 0.1312843 0.122683
v 0.01530579 -0.06735469 -0.1936118
v 0.2371172 0.09008864 0.00679265
v 0.1434511 0.1312843 0.122683
v 0.07685653 0.1644169 -0.04721005
v 0.01197906 0.07253363 -0.1634964
v 0.1880867 -0.1009461 0.009919844
v 0.07685653 0.1644169 -0.04721005
v 0.01197906 0.07253363 -0.1634964
v 0.07685653 0.1644169 -0.04721005
v 0.1711428 0.09120462 -0.1088488
v 0.2371172 0.09008864 0.00679265
v 0.2371172 0.09008864 0.00679265
v 0.2011254 -0.05854633 0.09015654
v 0.1711428 0.09120462 -0.1088488
v 0.2371172 0.09008864 0.00679265
v 0.01197906 0.07253363 -0.1634964
v 0.002932745 0.01651599 -0.2073799
v 0.187621 0.02415721 -0.1239977
v 0.1711428 0.09120462 -0.1088488
v 0.2170772 -0.08391708 -0.02712914
v 0.1880867 -0.1009461 0.009919844
v 0.2011254 -0.05854633 0.09015654
v 0.1526256 -0.09164958 -0.1195112
v 0.1880867 -0.1009461 0.009919844
v 0.2170772 -0.08391708 -0.02712914
v 0.1526256 -0.09164958 -0.1195112
v -0.07059948 -0.1435259 0.04804862
v 0.1880867 -0.1009461 0.009919844
v 0.2011254 -0.05854633 0.09015654
v 0.0525581 0.1052588 0.176651
v 0.1649167 0.1050247 0.1365589
v 0.2371172 0.09008864 0.00679265
v 0.2011254 -0.05854633 0.09015654
v 0.1649167 0.1050247 0.1365589
v 0.187621 0.02415721 -0.1239977
v 0.2170772 -0.08391708 -0.02712914
v 0.2371172 0.09008864 0.00679265
v 0.187621 0.02415721 -0.1239977
v 0.1526256 -0.09164958 -0.1195112
v 0.2170772 -0.08391708 -0.02712914
v 0.002932745 0.01651599 -0.2073799
v 0.1526256 -0.09164958 -0.1195112
v 0.187621 0.02415721 -0.1239977
v 0.002932745 0.01651599 -0.2073799
v 0.01530579 -0.06735469 -0.1936118
v 0.1526256 -0.09164958 -0.1195112
v -0.1990991 -0.04534462 -0.08100976
v 0.01530579 -0.06735469 -0.1936118
v 0.002932745 0.01651599 -0.2073799
v -0.1418308 0.06347034 -0.1110939
v -0.1990991 -0.04534462 -0.08100976
v 0.002932745 0.01651599 -0.2073799
vt 0.4591703 0.1773763
vt 0.4591704 0.1773764
vt 0.4591704 0.1773764
vt 0.4591703 0.1773764
vt 0.4591704 0.1773764
vt 0.4591703 0.1773764
vt 0.4591703 0.1773764
vt 0.4591704 0.1773764
vt 0.4591704 0.1773764
vt 0.4591704 0.1773764
vt 0.4591704 0.1773764
vt 0.4591704 0.1773764
vt 0.4591704 0.1773763
vt 0.4591704 0.1773763
vt 0.4591704 0.1773763
vt 0.4591704 0.1773763
vt 0.4591703 0.1773763
vt 0.4591704 0.1773764
vt 0.4591704 0.1773763
vt 0.4591704 0.1773763
vt 0.4591704 0.1773764
vt 0.4591704 0.1773763
vt 0.4591704 0.1773764
vt 0.4591704 0.1773763
vt 0.4591704 0.1773764
vt 0.4591704 0.1773764
vt 0.4591704 0.1773764
vt 0.4591704 0.1773764
vt 0.4591703 0.1773764
vt 0.4591704 0.1773764
vt 0.4591704 0.1773764
vt 0.4591703 0.1773764
vt 0.4591704 0.1773764
vt 0.4591704 0.1773764
vt 0.4591704 0.1773764
vt 0.4591704 0.1773764
vt 0.4591703 0.1773764
vt 0.4591704 0.1773764
vt 0.4591704 0.1773764
vt 0.4591703 0.1773764
vt 0.4591703 0.1773764
vt 0.4591704 0.1773764
vt 0.4591704 0.1773764
vt 0.4591704 0.1773764
vt 0.4591703 0.1773764
vt 0.4591704 0.1773764
vt 0.4591703 0.1773764
vt 0.4591704 0.1773764
vt 0.4591704 0.1773763
vt 0.4591704 0.1773764
vt 0.4591704 0.1773764
vt 0.4591704 0.1773764
vt 0.4591703 0.1773763
vt 0.4591704 0.1773764
vt 0.4591703 0.1773764
vt 0.4591703 0.1773763
vt 0.4591703 0.1773763
vt 0.4591704 0.1773764
vt 0.4591704 0.1773764
vt 0.4591704 0.1773763
vt 0.4591704 0.1773764
vt 0.4591703 0.1773764
vt 0.4591704 0.1773764
vt 0.4591704 0.1773764
vt 0.4591704 0.1773763
vt 0.4591704 0.1773763
vt 0.4591704 0.1773763
vt 0.4591703 0.1773764
vt 0.4591704 0.1773764
vt 0.4591704 0.1773764
vt 0.4591704 0.1773764
vt 0.4591704 0.1773763
vt 0.4591704 0.1773764
vt 0.4591704 0.1773763
vt 0.4591704 0.1773764
vt 0.4591703 0.1773763
vt 0.4591704 0.1773763
vt 0.4591704 0.1773764
vt 0.4591704 0.1773763
vt 0.4591704 0.1773763
vt 0.4591704 0.1773763
vt 0.4591704 0.1773763
vt 0.4591704 0.1773763
vt 0.4591704 0.1773763
vt 0.4591704 0.1773763
vt 0.4591704 0.1773764
vt 0.4591704 0.1773764
vt 0.4591704 0.1773763
vt 0.4591704 0.1773763
vt 0.4591704 0.1773763
vt 0.4591703 0.1773763
vt 0.4591704 0.1773763
vt 0.4591704 0.1773763
vt 0.4591703 0.1773763
vt 0.4591704 0.1773763
vt 0.4591704 0.1773763
vt 0.4591704 0.1773764
vt 0.4591703 0.1773763
vt 0.4591704 0.1773763
vt 0.4591703 0.1773763
vt 0.4591704 0.1773764
vt 0.4591704 0.1773763
vt 0.4591704 0.1773763
vt 0.4591704 0.1773764
vt 0.4591704 0.1773763
vt 0.4591704 0.1773763
vt 0.4591704 0.1773763
vt 0.4591704 0.1773763
vt 0.4591704 0.1773763
vt 0.4591704 0.1773763
vt 0.4591704 0.1773764
vt 0.4591704 0.1773763
vt 0.4591704 0.1773763
vt 0.4591704 0.1773764
vt 0.4591704 0.1773764
vt 0.4591704 0.1773763
vt 0.4591704 0.1773764
vt 0.4591704 0.1773764
vt 0.4591704 0.1773764
vt 0.4591704 0.1773764
vt 0.4591704 0.1773764
vt 0.4591704 0.1773764
vn -0.0325527 0.9206085 0.3891277
vn -0.579583 0.8142616 0.03258153
vn -0.579583 0.8142616 0.03258153
vn -0.8644161 0.003262837 0.5027664
vn -0.716931 -0.09926385 0.6900411
vn -0.1419763 0.02060097 0.9896556
vn -0.579583 0.8142616 0.03258153
vn -0.8676548 0.0005982943 0.4971667
vn -0.9120169 -0.03868789 -0.4083239
vn -0.2493609 -0.9564833 0.1515217
vn -0.03255269 0.9206085 0.3891277
vn -0.526828 0.7249061 -0.4438057
vn -0.6291931 -0.6997776 -0.3382709
vn 0.507433 0.005236718 0.8616754
vn -0.2232123 0.8185359 -0.5293158
vn 0.6611592 0.6927116 0.2881305
vn 0.3525262 -0.8498363 0.3917954
vn -0.2856896 0.6191516 -0.7314593
vn 0.1404218 0.7372434 -0.6608736
vn 0.9758506 -0.1443487 0.1639485
vn -0.4670409 -0.3067137 -0.8293369
vn -0.006039142 -0.953109 -0.3025671
vn 0.2669839 0.6117278 0.7446535
vn 0.8272821 0.3092836 -0.468986
vn -0.2856896 0.6191516 -0.7314593
vn -0.8641649 0.003468103 0.5031968
vn -0.8639873 0.003613113 0.5035008
vn -0.7169309 -0.09926385 0.6900411
vn -0.716931 -0.09926385 0.6900411
vn -0.145336 0.01680346 0.9892397
vn -0.1166375 0.04909154 0.9919606
vn -0.2493609 -0.9564833 0.1515217
vn -0.2493609 -0.9564833 0.1515217
vn -0.03255269 0.9206085 0.3891277
vn 0.1908571 -0.9394758 0.2845323
vn 0.1821186 -0.9386346 0.2929124
vn 0.1933651 -0.9396922 0.2821144
vn -0.07006117 0.9787008 0.1929664
vn -0.05064289 0.9871724 0.1514129
vn -0.06098486 0.9829341 0.1735555
vn -0.526828 0.7249061 -0.4438057
vn -0.526828 0.7249061 -0.4438058
vn -0.9120169 -0.0386879 -0.4083239
vn -0.9120169 -0.03868789 -0.4083239
vn -0.6248323 -0.7072479 -0.3307339
vn -0.6265924 -0.7042609 -0.333764
vn -0.2703427 -0.9445837 -0.1862158
vn -0.2703428 -0.9445838 -0.1862158
vn -0.2703427 -0.9445838 -0.1862158
vn -0.7342982 0.2077871 -0.6462436
vn -0.7342982 0.2077871 -0.6462436
vn -0.7342982 0.2077871 -0.6462436
vn -0.1719326 -0.01342549 0.9850172
vn -0.6357628 -0.6880643 -0.3498189
vn 0.507433 0.005236716 0.8616754
vn 0.507433 0.005236718 0.8616754
vn 0.2669838 0.6117278 0.7446535
vn 0.2669838 0.6117278 0.7446534
vn -0.2856896 0.6191516 -0.7314593
vn -0.006060177 -0.9530228 -0.3028377
vn -0.006082852 -0.95293 -0.3031294
vn -0.2192102 0.8146672 -0.5369025
vn -0.2220504 0.8174182 -0.5315271
vn -0.4670409 -0.3067137 -0.8293369
vn -0.4670409 -0.3067137 -0.8293369
vn -0.08378681 0.9713758 0.2222812
vn 0.3525262 -0.8498362 0.3917954
vn 0.3525262 -0.8498363 0.3917954
vn 0.6611593 0.6927115 0.2881304
vn 0.6611592 0.6927116 0.2881305
vn -0.00596014 -0.9534316 -0.3015505
vn 0.4168622 0.9088643 0.01384614
vn 0.4168622 0.9088643 0.01384614
vn 0.4168622 0.9088643 0.01384614
vn -0.2265679 0.8217383 -0.5228893
vn 0.1959252 -0.9399013 0.2796405
vn 0.1404218 0.7372434 -0.6608737
vn 0.1404219 0.7372434 -0.6608737
vn 0.4776723 0.8377981 -0.2644306
vn 0.4776723 0.8377981 -0.2644306
vn 0.4776723 0.8377981 -0.2644306
vn 0.9758506 -0.1443487 0.1639485
vn 0.9758506 -0.1443487 0.1639485
vn 0.8272821 0.3092836 -0.468986
vn 0.8272821 0.3092836 -0.468986
vn 0.3086576 0.4264707 -0.8502077
vn 0.3086576 0.4264707 -0.8502077
vn 0.3086576 0.4264708 -0.8502077
vn 0.3086576 0.4264707 -0.8502077
vn 0.7014672 -0.6708872 0.2405288
vn 0.7014672 -0.6708873 0.2405288
vn 0.7014672 -0.6708872 0.2405288
vn 0.3401713 -0.9266933 -0.1597596
vn 0.3401713 -0.9266933 -0.1597597
vn 0.3401714 -0.9266933 -0.1597597
vn 0.1455428 -0.9831626 -0.1104919
vn 0.1455428 -0.9831626 -0.1104919
vn 0.1455428 -0.9831626 -0.1104919
vn 0.3296355 -0.1894126 0.9249125
vn 0.3296356 -0.1894127 0.9249125
vn 0.3296355 -0.1894126 0.9249125
vn 0.8751995 0.05747397 0.4803358
vn 0.8751995 0.05747397 0.4803358
vn 0.8751995 0.05747397 0.4803358
vn 0.9414107 -0.04321494 -0.3344823
vn 0.9414107 -0.04321494 -0.3344823
vn 0.9414107 -0.04321493 -0.3344823
vn 0.801451 -0.2629977 -0.5371299
vn 0.801451 -0.2629976 -0.5371299
vn 0.801451 -0.2629977 -0.5371299
vn 0.4116994 -0.1591734 -0.8973112
vn 0.4116994 -0.1591734 -0.8973112
vn 0.4116994 -0.1591734 -0.8973112
vn 0.4629543 -0.07666408 -0.8830605
vn 0.4629543 -0.07666408 -0.8830605
vn 0.4629543 -0.07666408 -0.8830605
vn -0.4714015 -0.2101475 -0.8565155
vn -0.4714015 -0.2101475 -0.8565154
vn -0.4714015 -0.2101475 -0.8565155
vn -0.5411227 0.05274963 -0.8392876
vn -0.5411227 0.05274962 -0.8392876
vn -0.5411227 0.05274963 -0.8392876
g SM_Env_Rock_03_0
f 7/7/7 2/2/2 3/3/3
f 29/29/29 5/5/5 28/28/28
f 33/33/33 32/32/32 10/10/10
f 11/11/11 34/34/34 1/1/1
f 12/12/12 42/42/42 41/41/41
f 9/9/9 44/44/44 43/43/43
f 49/49/49 48/48/48 47/47/47
f 52/52/52 51/51/51 50/50/50
f 56/56/56 55/55/55 14/14/14
f 23/23/23 58/58/58 57/57/57
f 18/18/18 25/25/25 59/59/59
f 65/65/65 64/64/64 21/21/21
f 68/68/68 17/17/17 67/67/67
f 70/70/70 69/69/69 16/16/16
f 74/74/74 73/73/73 72/72/72
f 78/78/78 77/77/77 19/19/19
f 81/81/81 80/80/80 79/79/79
f 83/83/83 20/20/20 82/82/82
f 85/85/85 24/24/24 84/84/84
f 92/92/92 91/91/91 90/90/90
f 95/95/95 94/94/94 93/93/93
f 98/98/98 97/97/97 96/96/96
f 101/101/101 100/100/100 99/99/99
f 104/104/104 103/103/103 102/102/102
f 107/107/107 106/106/106 105/105/105
f 110/110/110 109/109/109 108/108/108
f 113/113/113 112/112/112 111/111/111
f 116/116/116 115/115/115 114/114/114
f 119/119/119 118/118/118 117/117/117
f 122/122/122 121/121/121 120/120/120
f 26/26/26 8/8/8 4/4/4
f 26/26/26 4/4/4 27/27/27
f 31/31/31 6/6/6 30/30/30
f 30/30/30 6/6/6 53/53/53
f 37/37/37 36/36/36 35/35/35
f 76/76/76 37/37/37 35/35/35
f 40/40/40 39/39/39 38/38/38
f 66/66/66 40/40/40 38/38/38
f 46/46/46 13/13/13 45/45/45
f 54/54/54 13/13/13 46/46/46
f 22/22/22 61/61/61 60/60/60
f 71/71/71 22/22/22 60/60/60
f 15/15/15 63/63/63 62/62/62
f 75/75/75 63/63/63 15/15/15
f 88/88/88 87/87/87 86/86/86
f 89/89/89 88/88/88 86/86/86
