g SM_Env_Dirt_Rocks_02
v -0.367406 0.2322575 0.1166609
v -0.290802 0.2060553 -0.1343156
v -0.3691882 0.0519075 0.1128133
v -0.3009875 0.04429046 -0.1169279
v -0.2033117 0.05733032 0.1301082
v -0.1667834 0.0380719 -0.04358322
v -0.1850598 0.1886073 0.139991
v -0.1382165 0.1852019 -0.05162521
v -0.4226916 0.0611087 -0.03509201
v -0.4237194 0.2244235 -0.04491623
v 0.5789759 0.1952463 0.4557234
v 0.4443128 0.2341086 0.1445027
v 0.06958132 0.1934665 0.4297322
v 0.08905397 0.2157521 0.1925301
v 0.05711306 0.06125854 0.4440437
v 0.0799695 0.08759262 0.1637996
v 0.5879773 0.03561935 0.4361775
v 0.4552552 0.01015442 0.09683181
v 0.3623841 0.3282901 0.316573
v 0.3288196 0.2695302 0.5372078
v 0.312074 0.03929703 0.539239
v 0.01650027 0.01416672 -0.8311076
v 0.07908572 0.03833908 -0.5761369
v 0.03926882 0.192507 -0.8323137
v 0.09242311 0.1988695 -0.5986027
v 0.2029041 0.1540266 -0.8375188
v 0.2301502 0.1750636 -0.6622697
v 0.2034827 0.02054748 -0.8424895
v 0.237533 0.02489792 -0.6482072
v -0.0243176 0.2016191 -0.6884465
v -0.04840696 0.04134064 -0.6742766
v -0.4865637 0.1262654 0.609742
v -0.5822717 0.2055504 0.2371443
v -0.4708972 0.007096405 0.5820613
v -0.5597326 0.04480286 0.2259334
v -0.3321301 0.0562529 0.4992976
v -0.4294934 0.06484909 0.2373592
v -0.329049 0.1463728 0.5170613
v -0.4307531 0.2156387 0.2458699
v -0.671217 0 0.3900105
v -0.6994641 0.1577542 0.4132966
v 0.2297009 0.06379684 -0.2393156
v 0.09816042 0.06829651 -0.01123947
v 0.2575525 0.2369705 -0.2075676
v 0.1330213 0.2261079 -0.002909393
v 0.3756336 0.1732985 -0.1023479
v 0.2742346 0.1832544 0.04398026
v 0.3714514 0.04113602 -0.1181877
v 0.2606384 0.03277023 0.04487869
v 0.112489 0.2505809 -0.1473674
v 0.07574587 0.09502304 -0.169008
v 0.6994641 0.009017639 0.662701
v 0.4378455 0.03440506 0.6416755
v 0.6954114 0.1892311 0.6686971
v 0.4567395 0.1962666 0.6468514
v 0.6497912 0.1717975 0.8285115
v 0.4748523 0.191649 0.7987508
v 0.653009 0.03929397 0.8424959
v 0.4577039 0.04292755 0.8148201
v 0.5780872 0.1865515 0.5636824
v 0.5703846 0.02379395 0.5508552
v -0.3009875 0.04429046 -0.1169279
v -0.4226916 0.0611087 -0.03509201
v -0.1667834 0.0380719 -0.04358322
v -0.4237194 0.2244235 -0.04491623
v -0.290802 0.2060553 -0.1343156
v -0.1382165 0.1852019 -0.05162521
v -0.290802 0.2060553 -0.1343156
v -0.3009875 0.04429046 -0.1169279
v -0.1667834 0.0380719 -0.04358322
v -0.1382165 0.1852019 -0.05162521
v -0.1850598 0.1886073 0.139991
v -0.2033117 0.05733032 0.1301082
v -0.3691882 0.0519075 0.1128133
v -0.367406 0.2322575 0.1166609
v -0.367406 0.2322575 0.1166609
v -0.3691882 0.0519075 0.1128133
v -0.4226916 0.0611087 -0.03509201
v -0.4237194 0.2244235 -0.04491623
v -0.3691882 0.0519075 0.1128133
v -0.2033117 0.05733032 0.1301082
v -0.1667834 0.0380719 -0.04358322
v -0.1850598 0.1886073 0.139991
v -0.367406 0.2322575 0.1166609
v -0.1382165 0.1852019 -0.05162521
v 0.5879773 0.03561935 0.4361775
v 0.4443128 0.2341086 0.1445027
v 0.4552552 0.01015442 0.09683181
v 0.4443128 0.2341086 0.1445027
v 0.08905397 0.2157521 0.1925301
v 0.0799695 0.08759262 0.1637996
v 0.4552552 0.01015442 0.09683181
v 0.5879773 0.03561935 0.4361775
v 0.312074 0.03929703 0.539239
v 0.5789759 0.1952463 0.4557234
v 0.5789759 0.1952463 0.4557234
v 0.3288196 0.2695302 0.5372078
v 0.3623841 0.3282901 0.316573
v 0.5789759 0.1952463 0.4557234
v 0.3623841 0.3282901 0.316573
v 0.4443128 0.2341086 0.1445027
v 0.0799695 0.08759262 0.1637996
v 0.08905397 0.2157521 0.1925301
v 0.3288196 0.2695302 0.5372078
v 0.08905397 0.2157521 0.1925301
v 0.3623841 0.3282901 0.316573
v 0.312074 0.03929703 0.539239
v 0.05711306 0.06125854 0.4440437
v 0.06958132 0.1934665 0.4297322
v 0.3288196 0.2695302 0.5372078
v 0.05711306 0.06125854 0.4440437
v 0.312074 0.03929703 0.539239
v 0.0799695 0.08759262 0.1637996
v 0.3288196 0.2695302 0.5372078
v 0.06958132 0.1934665 0.4297322
v 0.08905397 0.2157521 0.1925301
v 0.09242311 0.1988695 -0.5986027
v -0.0243176 0.2016191 -0.6884465
v 0.2301502 0.1750636 -0.6622697
v -0.04840696 0.04134064 -0.6742766
v 0.07908572 0.03833908 -0.5761369
v 0.237533 0.02489792 -0.6482072
v 0.07908572 0.03833908 -0.5761369
v 0.09242311 0.1988695 -0.5986027
v 0.2301502 0.1750636 -0.6622697
v 0.237533 0.02489792 -0.6482072
v 0.2034827 0.02054748 -0.8424895
v 0.2029041 0.1540266 -0.8375188
v 0.03926882 0.192507 -0.8323137
v 0.01650027 0.01416672 -0.8311076
v 0.01650027 0.01416672 -0.8311076
v 0.03926882 0.192507 -0.8323137
v -0.0243176 0.2016191 -0.6884465
v -0.04840696 0.04134064 -0.6742766
v 0.03926882 0.192507 -0.8323137
v 0.2029041 0.1540266 -0.8375188
v 0.2301502 0.1750636 -0.6622697
v 0.2034827 0.02054748 -0.8424895
v 0.01650027 0.01416672 -0.8311076
v 0.237533 0.02489792 -0.6482072
v -0.5597326 0.04480286 0.2259334
v -0.671217 0 0.3900105
v -0.4294934 0.06484909 0.2373592
v -0.6994641 0.1577542 0.4132966
v -0.5822717 0.2055504 0.2371443
v -0.4307531 0.2156387 0.2458699
v -0.5822717 0.2055504 0.2371443
v -0.5597326 0.04480286 0.2259334
v -0.4294934 0.06484909 0.2373592
v -0.4307531 0.2156387 0.2458699
v -0.329049 0.1463728 0.5170613
v -0.3321301 0.0562529 0.4992976
v -0.4708972 0.007096405 0.5820613
v -0.4865637 0.1262654 0.609742
v -0.4865637 0.1262654 0.609742
v -0.4708972 0.007096405 0.5820613
v -0.671217 0 0.3900105
v -0.6994641 0.1577542 0.4132966
v -0.3321301 0.0562529 0.4992976
v -0.329049 0.1463728 0.5170613
v 0.1330213 0.2261079 -0.002909393
v 0.112489 0.2505809 -0.1473674
v 0.2742346 0.1832544 0.04398026
v 0.07574587 0.09502304 -0.169008
v 0.09816042 0.06829651 -0.01123947
v 0.2606384 0.03277023 0.04487869
v 0.09816042 0.06829651 -0.01123947
v 0.1330213 0.2261079 -0.002909393
v 0.2742346 0.1832544 0.04398026
v 0.2606384 0.03277023 0.04487869
v 0.3714514 0.04113602 -0.1181877
v 0.3756336 0.1732985 -0.1023479
v 0.2575525 0.2369705 -0.2075676
v 0.2297009 0.06379684 -0.2393156
v 0.2297009 0.06379684 -0.2393156
v 0.2575525 0.2369705 -0.2075676
v 0.112489 0.2505809 -0.1473674
v 0.07574587 0.09502304 -0.169008
v 0.2575525 0.2369705 -0.2075676
v 0.3756336 0.1732985 -0.1023479
v 0.2742346 0.1832544 0.04398026
v 0.3714514 0.04113602 -0.1181877
v 0.2297009 0.06379684 -0.2393156
v 0.2606384 0.03277023 0.04487869
v 0.4567395 0.1962666 0.6468514
v 0.5780872 0.1865515 0.5636824
v 0.4748523 0.191649 0.7987508
v 0.5703846 0.02379395 0.5508552
v 0.4378455 0.03440506 0.6416755
v 0.4577039 0.04292755 0.8148201
v 0.4378455 0.03440506 0.6416755
v 0.4567395 0.1962666 0.6468514
v 0.4748523 0.191649 0.7987508
v 0.4577039 0.04292755 0.8148201
v 0.653009 0.03929397 0.8424959
v 0.6497912 0.1717975 0.8285115
v 0.6954114 0.1892311 0.6686971
v 0.6994641 0.009017639 0.662701
v 0.6994641 0.009017639 0.662701
v 0.6954114 0.1892311 0.6686971
v 0.5780872 0.1865515 0.5636824
v 0.5703846 0.02379395 0.5508552
v 0.6954114 0.1892311 0.6686971
v 0.6497912 0.1717975 0.8285115
v 0.4748523 0.191649 0.7987508
v 0.653009 0.03929397 0.8424959
v 0.6994641 0.009017639 0.662701
v 0.4577039 0.04292755 0.8148201
vt 0.04718018 0.1619873
vt 0.046875 0.1628418
vt 0.04711914 0.1618652
vt 0.04684448 0.1625977
vt 0.04653931 0.1617432
vt 0.04638672 0.1623535
vt 0.04653931 0.1618652
vt 0.0463562 0.1624756
vt 0.04727173 0.1623535
vt 0.04736328 0.1624756
vt 0.04733276 0.1621094
vt 0.04696655 0.1625977
vt 0.04641724 0.1619873
vt 0.0463562 0.1624756
vt 0.04641724 0.1619873
vt 0.0463562 0.1624756
vt 0.04736328 0.1622314
vt 0.04699707 0.1628418
vt 0.046875 0.1622314
vt 0.04690552 0.1618652
vt 0.04690552 0.1619873
vt 0.04718018 0.1619873
vt 0.046875 0.1628418
vt 0.04711914 0.1618652
vt 0.04684448 0.1625977
vt 0.04653931 0.1617432
vt 0.04638672 0.1623535
vt 0.04653931 0.1618652
vt 0.0463562 0.1624756
vt 0.04727173 0.1623535
vt 0.04736328 0.1624756
vt 0.04718018 0.1618652
vt 0.04684448 0.1628418
vt 0.04711914 0.1617432
vt 0.04681396 0.1627197
vt 0.04669189 0.1617432
vt 0.04653931 0.1624756
vt 0.04669189 0.1618652
vt 0.04650879 0.1625977
vt 0.04730225 0.1624756
vt 0.04736328 0.1625977
vt 0.04718018 0.1619873
vt 0.046875 0.1628418
vt 0.04711914 0.1618652
vt 0.04684448 0.1625977
vt 0.04653931 0.1617432
vt 0.04638672 0.1623535
vt 0.04653931 0.1618652
vt 0.0463562 0.1624756
vt 0.04727173 0.1623535
vt 0.04736328 0.1624756
vt 0.04718018 0.1619873
vt 0.046875 0.1628418
vt 0.04711914 0.1618652
vt 0.04684448 0.1625977
vt 0.04653931 0.1617432
vt 0.04638672 0.1623535
vt 0.04653931 0.1618652
vt 0.0463562 0.1624756
vt 0.04727173 0.1623535
vt 0.04736328 0.1624756
vt 0.04684448 0.1625977
vt 0.04727173 0.1623535
vt 0.04638672 0.1623535
vt 0.04736328 0.1624756
vt 0.046875 0.1628418
vt 0.0463562 0.1624756
vt 0.046875 0.1628418
vt 0.04684448 0.1625977
vt 0.04638672 0.1623535
vt 0.0463562 0.1624756
vt 0.04653931 0.1618652
vt 0.04653931 0.1617432
vt 0.04711914 0.1618652
vt 0.04718018 0.1619873
vt 0.04718018 0.1619873
vt 0.04711914 0.1618652
vt 0.04727173 0.1623535
vt 0.04736328 0.1624756
vt 0.04711914 0.1618652
vt 0.04653931 0.1617432
vt 0.04638672 0.1623535
vt 0.04653931 0.1618652
vt 0.04718018 0.1619873
vt 0.0463562 0.1624756
vt 0.04736328 0.1622314
vt 0.04696655 0.1625977
vt 0.04699707 0.1628418
vt 0.04696655 0.1625977
vt 0.0463562 0.1624756
vt 0.0463562 0.1624756
vt 0.04699707 0.1628418
vt 0.04736328 0.1622314
vt 0.04690552 0.1619873
vt 0.04733276 0.1621094
vt 0.04733276 0.1621094
vt 0.04690552 0.1618652
vt 0.046875 0.1622314
vt 0.04733276 0.1621094
vt 0.046875 0.1622314
vt 0.04696655 0.1625977
vt 0.0463562 0.1624756
vt 0.0463562 0.1624756
vt 0.04690552 0.1618652
vt 0.0463562 0.1624756
vt 0.046875 0.1622314
vt 0.04690552 0.1619873
vt 0.04641724 0.1619873
vt 0.04641724 0.1619873
vt 0.04690552 0.1618652
vt 0.04641724 0.1619873
vt 0.04690552 0.1619873
vt 0.0463562 0.1624756
vt 0.04690552 0.1618652
vt 0.04641724 0.1619873
vt 0.0463562 0.1624756
vt 0.04684448 0.1625977
vt 0.04727173 0.1623535
vt 0.04638672 0.1623535
vt 0.04736328 0.1624756
vt 0.046875 0.1628418
vt 0.0463562 0.1624756
vt 0.046875 0.1628418
vt 0.04684448 0.1625977
vt 0.04638672 0.1623535
vt 0.0463562 0.1624756
vt 0.04653931 0.1618652
vt 0.04653931 0.1617432
vt 0.04711914 0.1618652
vt 0.04718018 0.1619873
vt 0.04718018 0.1619873
vt 0.04711914 0.1618652
vt 0.04727173 0.1623535
vt 0.04736328 0.1624756
vt 0.04711914 0.1618652
vt 0.04653931 0.1617432
vt 0.04638672 0.1623535
vt 0.04653931 0.1618652
vt 0.04718018 0.1619873
vt 0.0463562 0.1624756
vt 0.04681396 0.1627197
vt 0.04730225 0.1624756
vt 0.04653931 0.1624756
vt 0.04736328 0.1625977
vt 0.04684448 0.1628418
vt 0.04650879 0.1625977
vt 0.04684448 0.1628418
vt 0.04681396 0.1627197
vt 0.04653931 0.1624756
vt 0.04650879 0.1625977
vt 0.04669189 0.1618652
vt 0.04669189 0.1617432
vt 0.04711914 0.1617432
vt 0.04718018 0.1618652
vt 0.04718018 0.1618652
vt 0.04711914 0.1617432
vt 0.04730225 0.1624756
vt 0.04736328 0.1625977
vt 0.04669189 0.1617432
vt 0.04669189 0.1618652
vt 0.04684448 0.1625977
vt 0.04727173 0.1623535
vt 0.04638672 0.1623535
vt 0.04736328 0.1624756
vt 0.046875 0.1628418
vt 0.0463562 0.1624756
vt 0.046875 0.1628418
vt 0.04684448 0.1625977
vt 0.04638672 0.1623535
vt 0.0463562 0.1624756
vt 0.04653931 0.1618652
vt 0.04653931 0.1617432
vt 0.04711914 0.1618652
vt 0.04718018 0.1619873
vt 0.04718018 0.1619873
vt 0.04711914 0.1618652
vt 0.04727173 0.1623535
vt 0.04736328 0.1624756
vt 0.04711914 0.1618652
vt 0.04653931 0.1617432
vt 0.04638672 0.1623535
vt 0.04653931 0.1618652
vt 0.04718018 0.1619873
vt 0.0463562 0.1624756
vt 0.04684448 0.1625977
vt 0.04727173 0.1623535
vt 0.04638672 0.1623535
vt 0.04736328 0.1624756
vt 0.046875 0.1628418
vt 0.0463562 0.1624756
vt 0.046875 0.1628418
vt 0.04684448 0.1625977
vt 0.04638672 0.1623535
vt 0.0463562 0.1624756
vt 0.04653931 0.1618652
vt 0.04653931 0.1617432
vt 0.04711914 0.1618652
vt 0.04718018 0.1619873
vt 0.04718018 0.1619873
vt 0.04711914 0.1618652
vt 0.04727173 0.1623535
vt 0.04736328 0.1624756
vt 0.04711914 0.1618652
vt 0.04653931 0.1617432
vt 0.04638672 0.1623535
vt 0.04653931 0.1618652
vt 0.04718018 0.1619873
vt 0.0463562 0.1624756
vn 0.1343994 0.9887695 -0.06222534
vn -0.5625 -0.05322266 -0.8251953
vn -0.0894165 -0.9960938 0.006469727
vn -0.5625 -0.05322266 -0.8251953
vn 0.9594727 -0.1628418 0.229126
vn -0.0894165 -0.9960938 0.006469727
vn 0.9594727 -0.1628418 0.229126
vn 0.9594727 -0.1628418 0.229126
vn -0.5625 -0.05322266 -0.8251953
vn -0.5625 -0.05322266 -0.8251953
vn 0.9199219 0.1136475 -0.3757324
vn -0.1138306 0.8476563 -0.5180664
vn -0.9936523 0.08630371 -0.07318115
vn -0.1138306 0.8476563 -0.5180664
vn -0.9936523 0.08630371 -0.07318115
vn -0.1164551 -0.9926758 0.02770996
vn -0.1164551 -0.9926758 0.02770996
vn -0.1164551 -0.9926758 0.02770996
vn -0.1138306 0.8476563 -0.5180664
vn 0.3242188 -0.04888916 0.9448242
vn -0.1164551 -0.9926758 0.02770996
vn -0.06707764 -0.9916992 0.1104736
vn -0.5996094 0.1595459 0.7841797
vn 0.1089478 0.9926758 -0.05178833
vn -0.5996094 0.1595459 0.7841797
vn 0.9858398 0.02238464 -0.1650391
vn 0.1089478 0.9926758 -0.05178833
vn 0.9858398 0.02238464 -0.1650391
vn 0.9858398 0.02238464 -0.1650391
vn -0.5996094 0.1595459 0.7841797
vn -0.5996094 0.1595459 0.7841797
vn -0.0440979 0.972168 0.2296143
vn -0.8193359 -0.06896973 -0.5693359
vn 0.1976318 -0.9702148 -0.140625
vn -0.8193359 -0.06896973 -0.5693359
vn 0.9379883 0.03060913 -0.3457031
vn 0.1815186 -0.9726563 -0.1434326
vn 0.9379883 0.03060913 -0.3457031
vn 0.9379883 0.03060913 -0.3457031
vn -0.8193359 -0.06896973 -0.5693359
vn -0.8193359 -0.06896973 -0.5693359
vn -0.2097168 -0.9726563 -0.1017456
vn -0.9638672 0.2038574 0.1715088
vn 0.1983643 0.9648438 0.171875
vn -0.9638672 0.2038574 0.1715088
vn 0.8217773 -0.08148193 0.5639648
vn 0.1983643 0.9648438 0.171875
vn 0.8217773 -0.08148193 0.5639648
vn 0.8217773 -0.08148193 0.5639648
vn -0.9638672 0.2038574 0.1715088
vn -0.9638672 0.2038574 0.1715088
vn -0.09893799 -0.9946289 0.02987671
vn -0.5581055 0.09143066 -0.824707
vn 0.03022766 0.9995117 -0.008399963
vn -0.5581055 0.09143066 -0.824707
vn -0.1453857 0.1122437 0.9829102
vn 0.03022766 0.9995117 -0.008399963
vn -0.1453857 0.1122437 0.9829102
vn -0.1453857 0.1122437 0.9829102
vn -0.5581055 0.09143066 -0.824707
vn -0.5581055 0.09143066 -0.824707
vn -0.0894165 -0.9960938 0.006469727
vn -0.0894165 -0.9960938 0.006469727
vn 0.9594727 -0.1628418 0.229126
vn 0.1343994 0.9887695 -0.06222534
vn 0.1343994 0.9887695 -0.06222534
vn 0.1343994 0.9887695 -0.06222534
vn 0.4643555 -0.1303711 -0.8759766
vn 0.4643555 -0.1303711 -0.8759766
vn 0.4643555 -0.1303711 -0.8759766
vn 0.4643555 -0.1303711 -0.8759766
vn -0.1196899 -0.03601074 0.9921875
vn -0.1196899 -0.03601074 0.9921875
vn -0.1196899 -0.03601074 0.9921875
vn -0.1196899 -0.03601074 0.9921875
vn -0.9423828 0.007881165 0.3344727
vn -0.9423828 0.007881165 0.3344727
vn -0.9423828 0.007881165 0.3344727
vn -0.9423828 0.007881165 0.3344727
vn 0.02053833 -0.9931641 0.1144409
vn 0.02053833 -0.9931641 0.1144409
vn 0.02053833 -0.9931641 0.1144409
vn 0.2280273 0.9731445 0.03845215
vn 0.2280273 0.9731445 0.03845215
vn 0.2280273 0.9731445 0.03845215
vn 0.9199219 0.1136475 -0.3757324
vn 0.9199219 0.1136475 -0.3757324
vn 0.9199219 0.1136475 -0.3757324
vn -0.135498 0.2093506 -0.9682617
vn -0.135498 0.2093506 -0.9682617
vn -0.135498 0.2093506 -0.9682617
vn -0.135498 0.2093506 -0.9682617
vn 0.3242188 -0.04888916 0.9448242
vn 0.3242188 -0.04888916 0.9448242
vn 0.3242188 -0.04888916 0.9448242
vn 0.3581543 0.887207 0.2907715
vn 0.3581543 0.887207 0.2907715
vn 0.3581543 0.887207 0.2907715
vn 0.5874023 0.7944336 -0.1550293
vn 0.5874023 0.7944336 -0.1550293
vn 0.5874023 0.7944336 -0.1550293
vn -0.9936523 0.08630371 -0.07318115
vn -0.9936523 0.08630371 -0.07318115
vn -0.4396973 0.8823242 0.1680908
vn -0.4396973 0.8823242 0.1680908
vn -0.4396973 0.8823242 0.1680908
vn -0.3723145 0.07171631 0.925293
vn -0.3723145 0.07171631 0.925293
vn -0.3723145 0.07171631 0.925293
vn -0.3723145 0.07171631 0.925293
vn -0.04925537 -0.9941406 -0.09741211
vn -0.04925537 -0.9941406 -0.09741211
vn -0.04925537 -0.9941406 -0.09741211
vn -0.3054199 0.9501953 0.06420898
vn -0.3054199 0.9501953 0.06420898
vn -0.3054199 0.9501953 0.06420898
vn 0.1089478 0.9926758 -0.05178833
vn 0.1089478 0.9926758 -0.05178833
vn 0.9858398 0.02238464 -0.1650391
vn -0.06707764 -0.9916992 0.1104736
vn -0.06707764 -0.9916992 0.1104736
vn -0.06707764 -0.9916992 0.1104736
vn 0.4248047 0.09765625 0.8999023
vn 0.4248047 0.09765625 0.8999023
vn 0.4248047 0.09765625 0.8999023
vn 0.4248047 0.09765625 0.8999023
vn -0.0458374 0.01531982 -0.9990234
vn -0.0458374 0.01531982 -0.9990234
vn -0.0458374 0.01531982 -0.9990234
vn -0.0458374 0.01531982 -0.9990234
vn -0.909668 0.107605 -0.4016113
vn -0.909668 0.107605 -0.4016113
vn -0.909668 0.107605 -0.4016113
vn -0.909668 0.107605 -0.4016113
vn 0.2218018 0.9633789 -0.1501465
vn 0.2218018 0.9633789 -0.1501465
vn 0.2218018 0.9633789 -0.1501465
vn 0.03509521 -0.9990234 0.01622009
vn 0.03509521 -0.9990234 0.01622009
vn 0.03509521 -0.9990234 0.01622009
vn 0.1695557 -0.9746094 -0.1455078
vn 0.1695557 -0.9746094 -0.1455078
vn 0.9379883 0.03060913 -0.3457031
vn -0.06939697 0.972168 0.2246094
vn -0.06939697 0.972168 0.2246094
vn -0.05786133 0.972168 0.2269287
vn 0.06396484 0.06793213 -0.9956055
vn 0.06396484 0.06793213 -0.9956055
vn 0.06396484 0.06793213 -0.9956055
vn 0.06396484 0.06793213 -0.9956055
vn 0.5292969 -0.1495361 0.8349609
vn 0.5292969 -0.1495361 0.8349609
vn 0.5292969 -0.1495361 0.8349609
vn 0.5292969 -0.1495361 0.8349609
vn -0.6728516 -0.2357178 0.7011719
vn -0.6728516 -0.2357178 0.7011719
vn -0.6728516 -0.2357178 0.7011719
vn -0.6728516 -0.2357178 0.7011719
vn 0.2619629 -0.956543 -0.1287842
vn 0.01799011 0.9702148 0.2410889
vn 0.1983643 0.9648438 0.171875
vn 0.1983643 0.9648438 0.171875
vn 0.8217773 -0.08148193 0.5639648
vn -0.2097168 -0.9726563 -0.1017456
vn -0.2097168 -0.9726563 -0.1017456
vn -0.2097168 -0.9726563 -0.1017456
vn -0.3149414 0.02662659 0.9487305
vn -0.3149414 0.02662659 0.9487305
vn -0.3149414 0.02662659 0.9487305
vn -0.3149414 0.02662659 0.9487305
vn 0.6650391 0.04644775 -0.7456055
vn 0.6650391 0.04644775 -0.7456055
vn 0.6650391 0.04644775 -0.7456055
vn 0.6650391 0.04644775 -0.7456055
vn -0.3625488 0.2183838 -0.9057617
vn -0.3625488 0.2183838 -0.9057617
vn -0.3625488 0.2183838 -0.9057617
vn -0.3625488 0.2183838 -0.9057617
vn 0.3422852 0.9233398 0.1744385
vn 0.3422852 0.9233398 0.1744385
vn 0.3422852 0.9233398 0.1744385
vn -0.07281494 -0.9921875 -0.1004028
vn -0.07281494 -0.9921875 -0.1004028
vn -0.07281494 -0.9921875 -0.1004028
vn 0.03022766 0.9995117 -0.008399963
vn 0.03022766 0.9995117 -0.008399963
vn -0.1453857 0.1122437 0.9829102
vn -0.09893799 -0.9946289 0.02987671
vn -0.09893799 -0.9946289 0.02987671
vn -0.09893799 -0.9946289 0.02987671
vn -0.9863281 0.1184692 0.1138306
vn -0.9863281 0.1184692 0.1138306
vn -0.9863281 0.1184692 0.1138306
vn -0.9863281 0.1184692 0.1138306
vn 0.9648438 0.02909851 0.260498
vn 0.9648438 0.02909851 0.260498
vn 0.9648438 0.02909851 0.260498
vn 0.9648438 0.02909851 0.260498
vn 0.6611328 0.03408813 -0.7495117
vn 0.6611328 0.03408813 -0.7495117
vn 0.6611328 0.03408813 -0.7495117
vn 0.6611328 0.03408813 -0.7495117
vn 0.08935547 0.9868164 0.1331787
vn 0.08935547 0.9868164 0.1331787
vn 0.08935547 0.9868164 0.1331787
vn -0.04043579 -0.9868164 0.1557617
vn -0.04043579 -0.9868164 0.1557617
vn -0.04043579 -0.9868164 0.1557617
g SM_Env_Dirt_Rocks_02_0
f 82/82/82 81/81/81 80/80/80
f 85/85/85 84/84/84 83/83/83
f 19/19/19 12/12/12 14/14/14
f 98/98/98 97/97/97 96/96/96
f 101/101/101 100/100/100 99/99/99
f 106/106/106 105/105/105 104/104/104
f 113/113/113 112/112/112 111/111/111
f 116/116/116 115/115/115 114/114/114
f 137/137/137 136/136/136 135/135/135
f 140/140/140 139/139/139 138/138/138
f 181/181/181 180/180/180 179/179/179
f 184/184/184 183/183/183 182/182/182
f 205/205/205 204/204/204 203/203/203
f 208/208/208 207/207/207 206/206/206
f 2/2/2 4/4/4 9/9/9
f 10/10/10 2/2/2 9/9/9
f 62/62/62 6/6/6 3/3/3
f 63/63/63 62/62/62 3/3/3
f 8/8/8 7/7/7 5/5/5
f 64/64/64 8/8/8 5/5/5
f 66/66/66 65/65/65 1/1/1
f 67/67/67 66/66/66 1/1/1
f 70/70/70 69/69/69 68/68/68
f 71/71/71 70/70/70 68/68/68
f 74/74/74 73/73/73 72/72/72
f 75/75/75 74/74/74 72/72/72
f 78/78/78 77/77/77 76/76/76
f 79/79/79 78/78/78 76/76/76
f 18/18/18 17/17/17 21/21/21
f 16/16/16 18/18/18 21/21/21
f 87/87/87 11/11/11 86/86/86
f 88/88/88 87/87/87 86/86/86
f 91/91/91 90/90/90 89/89/89
f 92/92/92 91/91/91 89/89/89
f 20/20/20 94/94/94 93/93/93
f 95/95/95 20/20/20 93/93/93
f 102/102/102 15/15/15 13/13/13
f 103/103/103 102/102/102 13/13/13
f 109/109/109 108/108/108 107/107/107
f 110/110/110 109/109/109 107/107/107
f 23/23/23 25/25/25 30/30/30
f 31/31/31 23/23/23 30/30/30
f 117/117/117 27/27/27 24/24/24
f 118/118/118 117/117/117 24/24/24
f 29/29/29 28/28/28 26/26/26
f 119/119/119 29/29/29 26/26/26
f 121/121/121 120/120/120 22/22/22
f 122/122/122 121/121/121 22/22/22
f 125/125/125 124/124/124 123/123/123
f 126/126/126 125/125/125 123/123/123
f 129/129/129 128/128/128 127/127/127
f 130/130/130 129/129/129 127/127/127
f 133/133/133 132/132/132 131/131/131
f 134/134/134 133/133/133 131/131/131
f 33/33/33 35/35/35 40/40/40
f 41/41/41 33/33/33 40/40/40
f 142/142/142 141/141/141 34/34/34
f 141/141/141 37/37/37 34/34/34
f 37/37/37 159/159/159 34/34/34
f 39/39/39 38/38/38 36/36/36
f 143/143/143 39/39/39 36/36/36
f 145/145/145 144/144/144 32/32/32
f 146/146/146 145/145/145 32/32/32
f 146/146/146 32/32/32 160/160/160
f 149/149/149 148/148/148 147/147/147
f 150/150/150 149/149/149 147/147/147
f 153/153/153 152/152/152 151/151/151
f 154/154/154 153/153/153 151/151/151
f 157/157/157 156/156/156 155/155/155
f 158/158/158 157/157/157 155/155/155
f 43/43/43 45/45/45 50/50/50
f 51/51/51 43/43/43 50/50/50
f 161/161/161 47/47/47 44/44/44
f 162/162/162 161/161/161 44/44/44
f 49/49/49 48/48/48 46/46/46
f 163/163/163 49/49/49 46/46/46
f 165/165/165 164/164/164 42/42/42
f 166/166/166 165/165/165 42/42/42
f 169/169/169 168/168/168 167/167/167
f 170/170/170 169/169/169 167/167/167
f 173/173/173 172/172/172 171/171/171
f 174/174/174 173/173/173 171/171/171
f 177/177/177 176/176/176 175/175/175
f 178/178/178 177/177/177 175/175/175
f 53/53/53 55/55/55 60/60/60
f 61/61/61 53/53/53 60/60/60
f 185/185/185 57/57/57 54/54/54
f 186/186/186 185/185/185 54/54/54
f 59/59/59 58/58/58 56/56/56
f 187/187/187 59/59/59 56/56/56
f 189/189/189 188/188/188 52/52/52
f 190/190/190 189/189/189 52/52/52
f 193/193/193 192/192/192 191/191/191
f 194/194/194 193/193/193 191/191/191
f 197/197/197 196/196/196 195/195/195
f 198/198/198 197/197/197 195/195/195
f 201/201/201 200/200/200 199/199/199
f 202/202/202 201/201/201 199/199/199
