g SM_Env_FlowerPatch_03
v 0.1272839 0.3303443 0.1010516
v 0.0760437 0.320776 0.01748474
v 0.1727637 0.3320184 0.008545837
v 0.1727637 0.3320184 0.008545837
v 0.0760437 0.320776 0.01748474
v 0.09916992 0.3419892 -0.06296081
v 0.09916992 0.3419892 -0.06296081
v 0.0760437 0.320776 0.01748474
v 0.008208008 0.3464772 -0.014646
v 0.008208008 0.3464772 -0.014646
v 0.0760437 0.320776 0.01748474
v 0.02558472 0.3392802 0.08671539
v 0.02558472 0.3392802 0.08671539
v 0.0760437 0.320776 0.01748474
v 0.1272839 0.3303443 0.1010516
v -0.196333 0.2751291 -0.03225037
v -0.147887 0.2712969 0.005877075
v -0.2036682 0.2687126 0.0312442
v -0.2036682 0.2687126 0.0312442
v -0.147887 0.2712969 0.005877075
v -0.1472644 0.2816198 0.05914398
v -0.1472644 0.2816198 0.05914398
v -0.147887 0.2712969 0.005877075
v -0.1050732 0.2960139 0.01289398
v -0.1050732 0.2960139 0.01289398
v -0.147887 0.2712969 0.005877075
v -0.1353979 0.2920023 -0.04359039
v -0.1353979 0.2920023 -0.04359039
v -0.147887 0.2712969 0.005877075
v -0.196333 0.2751291 -0.03225037
v -0.02230469 0 -0.02196228
v -0.1309631 0.2678915 -0.004792786
v -0.1556909 0.2605646 -0.009486694
v -0.05243042 0 -0.02767822
v -0.1353479 0.2661818 0.02099304
v -0.02764893 0 0.009451904
v -0.05776978 0 0.00373352
v -0.1600781 0.2588549 0.01630219
v -0.05243042 0 -0.02767822
v -0.1556909 0.2605646 -0.009486694
v -0.1600781 0.2588549 0.01630219
v -0.05776978 0 0.00373352
v -0.02764893 0 0.009451904
v -0.1353479 0.2661818 0.02099304
v -0.1309631 0.2678915 -0.004792786
v -0.02230469 0 -0.02196228
v 0.02088257 0 -0.0263678
v 0.07307373 0.3131898 -0.00144043
v 0.05672973 0.3137713 0.01904907
v 0.0009741211 0 -0.001405334
v 0.09336182 0.3099309 0.01483612
v 0.04559692 0 -0.006539612
v 0.02568848 0 0.01841888
v 0.07701904 0.310512 0.03532287
v 0.0009741211 0 -0.001405334
v 0.05672973 0.3137713 0.01904907
v 0.07701904 0.310512 0.03532287
v 0.02568848 0 0.01841888
v 0.04559692 0 -0.006539612
v 0.09336182 0.3099309 0.01483612
v 0.07307373 0.3131898 -0.00144043
v 0.02088257 0 -0.0263678
v 0.1788489 0.2771729 0.1018283
v 0.1805273 0.2982168 0.1030344
v 0.2118152 0.2987396 0.05036774
v 0.2101355 0.2776956 0.04916137
v 0.1954016 0.2849104 -0.05618866
v 0.1970801 0.3059543 -0.0549826
v 0.1462195 0.312395 -0.09654815
v 0.1445398 0.2913511 -0.09775513
v 0.05031128 0.2991534 -0.1027118
v 0.05199097 0.3201973 -0.1015054
v -0.004572754 0.3225437 -0.06371063
v -0.006251221 0.3014998 -0.06491669
v -0.04184326 0.2998537 0.01333832
v -0.04016479 0.3208976 0.01454437
v -0.03456299 0.3168582 0.07721283
v -0.03624023 0.2958143 0.07600677
v 0.03183472 0.2865196 0.1433978
v 0.03351318 0.3075636 0.1446039
v 0.09854981 0.3018778 0.1532687
v 0.09687012 0.2808339 0.1520621
v 0.1243286 0.2933045 0.09892669
v 0.09687012 0.2808339 0.1520621
v 0.09854981 0.3018778 0.1532687
v 0.1272839 0.3303443 0.1010516
v 0.1272839 0.3303443 0.1010516
v 0.09854981 0.3018778 0.1532687
v 0.03351318 0.3075636 0.1446039
v 0.02558472 0.3392802 0.08671539
v 0.02558472 0.3392802 0.08671539
v 0.03351318 0.3075636 0.1446039
v 0.03183472 0.2865196 0.1433978
v 0.02262939 0.3022405 0.08459381
v 0.1698083 0.2949786 0.006421203
v 0.2101355 0.2776956 0.04916137
v 0.2118152 0.2987396 0.05036774
v 0.1727637 0.3320184 0.008545837
v 0.1727637 0.3320184 0.008545837
v 0.2118152 0.2987396 0.05036774
v 0.1805273 0.2982168 0.1030344
v 0.1272839 0.3303443 0.1010516
v 0.1272839 0.3303443 0.1010516
v 0.1805273 0.2982168 0.1030344
v 0.1788489 0.2771729 0.1018283
v 0.1243286 0.2933045 0.09892669
v 0.0962146 0.3049494 -0.06508239
v 0.1445398 0.2913511 -0.09775513
v 0.1462195 0.312395 -0.09654815
v 0.09916992 0.3419892 -0.06296081
v 0.09916992 0.3419892 -0.06296081
v 0.1462195 0.312395 -0.09654815
v 0.1970801 0.3059543 -0.0549826
v 0.1727637 0.3320184 0.008545837
v 0.1727637 0.3320184 0.008545837
v 0.1970801 0.3059543 -0.0549826
v 0.1954016 0.2849104 -0.05618866
v 0.1698083 0.2949786 0.006421203
v 0.005252685 0.3094374 -0.01676788
v -0.006251221 0.3014998 -0.06491669
v -0.004572754 0.3225437 -0.06371063
v 0.008208008 0.3464772 -0.014646
v 0.008208008 0.3464772 -0.014646
v -0.004572754 0.3225437 -0.06371063
v 0.05199097 0.3201973 -0.1015054
v 0.09916992 0.3419892 -0.06296081
v 0.09916992 0.3419892 -0.06296081
v 0.05199097 0.3201973 -0.1015054
v 0.05031128 0.2991534 -0.1027118
v 0.0962146 0.3049494 -0.06508239
v 0.02262939 0.3022405 0.08459381
v -0.03624023 0.2958143 0.07600677
v -0.03456299 0.3168582 0.07721283
v 0.02558472 0.3392802 0.08671539
v 0.02558472 0.3392802 0.08671539
v -0.03456299 0.3168582 0.07721283
v -0.04016479 0.3208976 0.01454437
v 0.008208008 0.3464772 -0.014646
v 0.008208008 0.3464772 -0.014646
v -0.04016479 0.3208976 0.01454437
v -0.04184326 0.2998537 0.01333832
v 0.005252685 0.3094374 -0.01676788
v -0.2196167 0.2315634 -0.02598663
v -0.2235522 0.2464828 -0.02493408
v -0.2308069 0.2419434 0.01226685
v -0.2268738 0.2270229 0.01121338
v -0.1972485 0.2306464 0.07056641
v -0.2011804 0.245567 0.0716217
v -0.163783 0.254397 0.08626648
v -0.1598413 0.2394777 0.08521179
v -0.1050671 0.2550152 0.06978881
v -0.1090039 0.2699354 0.07084046
v -0.08432739 0.2787984 0.0375003
v -0.08038818 0.2638782 0.0364502
v -0.07583496 0.2688328 -0.01670288
v -0.07977051 0.2837526 -0.01564972
v -0.09558716 0.2821169 -0.05157349
v -0.09165161 0.2671972 -0.05262604
v -0.1440747 0.2552432 -0.07917206
v -0.1480078 0.270163 -0.0781189
v -0.1868701 0.2593792 -0.07056946
v -0.1829382 0.2444586 -0.07162353
v -0.1894043 0.2488683 -0.03410522
v -0.1829382 0.2444586 -0.07162353
v -0.1868701 0.2593792 -0.07056946
v -0.196333 0.2751291 -0.03225037
v -0.196333 0.2751291 -0.03225037
v -0.1868701 0.2593792 -0.07056946
v -0.1480078 0.270163 -0.0781189
v -0.1353979 0.2920023 -0.04359039
v -0.1353979 0.2920023 -0.04359039
v -0.1480078 0.270163 -0.0781189
v -0.1440747 0.2552432 -0.07917206
v -0.1284753 0.265741 -0.04544464
v -0.1967407 0.2424522 0.02938873
v -0.2268738 0.2270229 0.01121338
v -0.2308069 0.2419434 0.01226685
v -0.2036682 0.2687126 0.0312442
v -0.2036682 0.2687126 0.0312442
v -0.2308069 0.2419434 0.01226685
v -0.2235522 0.2464828 -0.02493408
v -0.196333 0.2751291 -0.03225037
v -0.196333 0.2751291 -0.03225037
v -0.2235522 0.2464828 -0.02493408
v -0.2196167 0.2315634 -0.02598663
v -0.1894043 0.2488683 -0.03410522
v -0.1403357 0.2553597 0.05729065
v -0.1598413 0.2394777 0.08521179
v -0.163783 0.254397 0.08626648
v -0.1472644 0.2816198 0.05914398
v -0.1472644 0.2816198 0.05914398
v -0.163783 0.254397 0.08626648
v -0.2011804 0.245567 0.0716217
v -0.2036682 0.2687126 0.0312442
v -0.2036682 0.2687126 0.0312442
v -0.2011804 0.245567 0.0716217
v -0.1972485 0.2306464 0.07056641
v -0.1967407 0.2424522 0.02938873
v -0.09814819 0.2697531 0.0110379
v -0.08038818 0.2638782 0.0364502
v -0.08432739 0.2787984 0.0375003
v -0.1050732 0.2960139 0.01289398
v -0.1050732 0.2960139 0.01289398
v -0.08432739 0.2787984 0.0375003
v -0.1090039 0.2699354 0.07084046
v -0.1472644 0.2816198 0.05914398
v -0.1472644 0.2816198 0.05914398
v -0.1090039 0.2699354 0.07084046
v -0.1050671 0.2550152 0.06978881
v -0.1403357 0.2553597 0.05729065
v -0.1284753 0.265741 -0.04544464
v -0.09165161 0.2671972 -0.05262604
v -0.09558716 0.2821169 -0.05157349
v -0.1353979 0.2920023 -0.04359039
v -0.1353979 0.2920023 -0.04359039
v -0.09558716 0.2821169 -0.05157349
v -0.07977051 0.2837526 -0.01564972
v -0.1050732 0.2960139 0.01289398
v -0.1050732 0.2960139 0.01289398
v -0.07977051 0.2837526 -0.01564972
v -0.07583496 0.2688328 -0.01670288
v -0.09814819 0.2697531 0.0110379
vt 0.4595427 0.0343398
vt 0.4595428 0.0343398
vt 0.4595428 0.0343398
vt 0.4595428 0.0343398
vt 0.4595428 0.0343398
vt 0.4595428 0.03433986
vt 0.4595428 0.03433986
vt 0.4595428 0.0343398
vt 0.4595428 0.03433986
vt 0.4595428 0.03433986
vt 0.4595428 0.0343398
vt 0.4595428 0.0343398
vt 0.4595428 0.0343398
vt 0.4595428 0.0343398
vt 0.4595427 0.0343398
vt 0.4595427 0.0343398
vt 0.4595428 0.0343398
vt 0.4595428 0.0343398
vt 0.4595428 0.0343398
vt 0.4595428 0.0343398
vt 0.4595428 0.03433986
vt 0.4595428 0.03433986
vt 0.4595428 0.0343398
vt 0.4595428 0.03433986
vt 0.4595428 0.03433986
vt 0.4595428 0.0343398
vt 0.4595428 0.0343398
vt 0.4595428 0.0343398
vt 0.4595428 0.0343398
vt 0.4595427 0.0343398
vt 0.1553008 0.3555125
vt 0.1553008 0.3555125
vt 0.1553008 0.3555125
vt 0.1553008 0.3555125
vt 0.1553008 0.3555125
vt 0.1553008 0.3555125
vt 0.1553008 0.3555125
vt 0.1553008 0.3555125
vt 0.1553008 0.3555125
vt 0.1553008 0.3555125
vt 0.1553008 0.3555125
vt 0.1553008 0.3555125
vt 0.1553008 0.3555125
vt 0.1553008 0.3555125
vt 0.1553008 0.3555125
vt 0.1553008 0.3555125
vt 0.1553008 0.3555125
vt 0.1553008 0.3555125
vt 0.1553008 0.3555125
vt 0.1553008 0.3555125
vt 0.1553008 0.3555125
vt 0.1553008 0.3555125
vt 0.1553008 0.3555125
vt 0.1553008 0.3555125
vt 0.1553008 0.3555125
vt 0.1553008 0.3555125
vt 0.1553008 0.3555125
vt 0.1553008 0.3555125
vt 0.1553008 0.3555125
vt 0.1553008 0.3555125
vt 0.1553008 0.3555125
vt 0.1553008 0.3555125
vt 0.4595428 0.03433989
vt 0.4595428 0.03433986
vt 0.4595427 0.03433986
vt 0.4595427 0.03433989
vt 0.4595427 0.03433989
vt 0.4595427 0.03433986
vt 0.4595428 0.03433986
vt 0.4595428 0.03433989
vt 0.4595428 0.03433989
vt 0.4595428 0.03433986
vt 0.4595427 0.03433986
vt 0.4595427 0.03433989
vt 0.4595427 0.03433989
vt 0.4595427 0.03433986
vt 0.4595428 0.03433986
vt 0.4595428 0.03433989
vt 0.4595428 0.03433989
vt 0.4595428 0.03433986
vt 0.4595427 0.03433986
vt 0.4595427 0.03433989
vt 0.4595427 0.03433989
vt 0.4595427 0.03433989
vt 0.4595427 0.03433986
vt 0.4595427 0.03433986
vt 0.4595427 0.03433986
vt 0.4595427 0.03433986
vt 0.4595428 0.03433986
vt 0.4595428 0.03433986
vt 0.4595428 0.03433986
vt 0.4595428 0.03433986
vt 0.4595428 0.03433989
vt 0.4595428 0.03433989
vt 0.4595427 0.03433989
vt 0.4595427 0.03433989
vt 0.4595427 0.03433986
vt 0.4595427 0.03433986
vt 0.4595427 0.03433986
vt 0.4595427 0.03433986
vt 0.4595428 0.03433986
vt 0.4595428 0.03433986
vt 0.4595428 0.03433986
vt 0.4595428 0.03433986
vt 0.4595428 0.03433989
vt 0.4595428 0.03433989
vt 0.4595428 0.03433989
vt 0.4595428 0.03433989
vt 0.4595428 0.03433986
vt 0.4595428 0.03433986
vt 0.4595428 0.03433986
vt 0.4595428 0.03433986
vt 0.4595427 0.03433986
vt 0.4595427 0.03433986
vt 0.4595427 0.03433986
vt 0.4595427 0.03433986
vt 0.4595427 0.03433989
vt 0.4595427 0.03433989
vt 0.4595427 0.03433989
vt 0.4595427 0.03433989
vt 0.4595427 0.03433986
vt 0.4595427 0.03433986
vt 0.4595427 0.03433986
vt 0.4595427 0.03433986
vt 0.4595428 0.03433986
vt 0.4595428 0.03433986
vt 0.4595428 0.03433986
vt 0.4595428 0.03433986
vt 0.4595428 0.03433989
vt 0.4595428 0.03433989
vt 0.4595428 0.03433989
vt 0.4595428 0.03433989
vt 0.4595428 0.03433986
vt 0.4595428 0.03433986
vt 0.4595428 0.03433986
vt 0.4595428 0.03433986
vt 0.4595427 0.03433986
vt 0.4595427 0.03433986
vt 0.4595427 0.03433986
vt 0.4595427 0.03433986
vt 0.4595427 0.03433989
vt 0.4595427 0.03433989
vt 0.4595428 0.03433989
vt 0.4595428 0.03433986
vt 0.4595427 0.03433986
vt 0.4595427 0.03433989
vt 0.4595427 0.03433989
vt 0.4595427 0.03433986
vt 0.4595428 0.03433986
vt 0.4595428 0.03433989
vt 0.4595428 0.03433989
vt 0.4595428 0.03433986
vt 0.4595427 0.03433986
vt 0.4595427 0.03433989
vt 0.4595427 0.03433989
vt 0.4595427 0.03433986
vt 0.4595428 0.03433986
vt 0.4595428 0.03433989
vt 0.4595428 0.03433989
vt 0.4595428 0.03433986
vt 0.4595427 0.03433986
vt 0.4595427 0.03433989
vt 0.4595427 0.03433989
vt 0.4595427 0.03433989
vt 0.4595427 0.03433986
vt 0.4595427 0.03433986
vt 0.4595427 0.03433986
vt 0.4595427 0.03433986
vt 0.4595428 0.03433986
vt 0.4595428 0.03433986
vt 0.4595428 0.03433986
vt 0.4595428 0.03433986
vt 0.4595428 0.03433989
vt 0.4595428 0.03433989
vt 0.4595427 0.03433989
vt 0.4595427 0.03433989
vt 0.4595427 0.03433986
vt 0.4595427 0.03433986
vt 0.4595427 0.03433986
vt 0.4595427 0.03433986
vt 0.4595428 0.03433986
vt 0.4595428 0.03433986
vt 0.4595428 0.03433986
vt 0.4595428 0.03433986
vt 0.4595428 0.03433989
vt 0.4595428 0.03433989
vt 0.4595428 0.03433989
vt 0.4595428 0.03433989
vt 0.4595428 0.03433986
vt 0.4595428 0.03433986
vt 0.4595428 0.03433986
vt 0.4595428 0.03433986
vt 0.4595427 0.03433986
vt 0.4595427 0.03433986
vt 0.4595427 0.03433986
vt 0.4595427 0.03433986
vt 0.4595427 0.03433989
vt 0.4595427 0.03433989
vt 0.4595427 0.03433989
vt 0.4595427 0.03433989
vt 0.4595427 0.03433986
vt 0.4595427 0.03433986
vt 0.4595427 0.03433986
vt 0.4595427 0.03433986
vt 0.4595428 0.03433986
vt 0.4595428 0.03433986
vt 0.4595428 0.03433986
vt 0.4595428 0.03433986
vt 0.4595428 0.03433989
vt 0.4595428 0.03433989
vt 0.4595428 0.03433989
vt 0.4595428 0.03433989
vt 0.4595428 0.03433986
vt 0.4595428 0.03433986
vt 0.4595428 0.03433986
vt 0.4595428 0.03433986
vt 0.4595427 0.03433986
vt 0.4595427 0.03433986
vt 0.4595427 0.03433986
vt 0.4595427 0.03433986
vt 0.4595427 0.03433989
vt 0.4595427 0.03433989
vn -0.1190645 0.9920568 -0.04058344
vn -0.1190645 0.9920568 -0.04058344
vn -0.1190645 0.9920568 -0.04058344
vn -0.09145379 0.9690623 0.2292477
vn -0.09145379 0.9690623 0.2292477
vn -0.09145379 0.9690623 0.2292477
vn 0.2077693 0.929469 0.3048268
vn 0.2077693 0.929469 0.3048268
vn 0.2077693 0.929469 0.3048268
vn 0.3517362 0.9360788 0.006165099
vn 0.3517362 0.9360788 0.006165099
vn 0.3517362 0.9360788 0.006165099
vn 0.1112664 0.9773299 -0.1801279
vn 0.1112664 0.9773299 -0.1801279
vn 0.1112664 0.9773299 -0.1801279
vn -0.0003918401 0.9949371 0.1004995
vn -0.0003918401 0.9949371 0.1004995
vn -0.0003918401 0.9949371 0.1004995
vn -0.1302257 0.9736579 -0.1871676
vn -0.1302257 0.9736579 -0.1871676
vn -0.1302257 0.9736579 -0.1871676
vn -0.4732702 0.8658439 -0.1622645
vn -0.4732702 0.8658439 -0.1622645
vn -0.4732702 0.8658439 -0.1622645
vn -0.5144976 0.8295004 0.2173048
vn -0.5144976 0.8295004 0.2173048
vn -0.5144976 0.8295004 0.2173048
vn -0.1924424 0.9215719 0.3371517
vn -0.1924424 0.9215719 0.3371517
vn -0.1924424 0.9215719 0.3371517
vn 0.1676756 0.1326075 -0.9768828
vn 0.1676756 0.1326075 -0.9768828
vn 0.1676756 0.1326075 -0.9768828
vn 0.1676756 0.1326075 -0.9768828
vn -0.170631 -0.1131973 0.9788112
vn -0.170631 -0.1131973 0.9788112
vn -0.170631 -0.1131973 0.9788112
vn -0.170631 -0.1131973 0.9788112
vn -0.920108 -0.3542554 -0.1670464
vn -0.920108 -0.3542554 -0.1670464
vn -0.920108 -0.3542554 -0.1670464
vn -0.920108 -0.3542554 -0.1670464
vn 0.9169396 0.3624931 0.1667949
vn 0.9169396 0.3624931 0.1667949
vn 0.9169396 0.3624931 0.1667949
vn 0.9169396 0.3624931 0.1667949
vn -0.7683616 0.1768161 -0.6151069
vn -0.7683616 0.1768161 -0.6151069
vn -0.7683616 0.1768161 -0.6151069
vn -0.7683616 0.1768161 -0.6151069
vn 0.7705303 -0.1611161 0.6167046
vn 0.7705303 -0.1611161 0.6167046
vn 0.7705303 -0.1611161 0.6167046
vn 0.7705303 -0.1611161 0.6167046
vn -0.6219279 0.05995892 0.7807756
vn -0.6219279 0.05995892 0.7807756
vn -0.6219279 0.05995892 0.7807756
vn -0.6219279 0.05995892 0.7807756
vn 0.623378 -0.04197783 -0.780793
vn 0.623378 -0.04197783 -0.780793
vn 0.623378 -0.04197783 -0.780793
vn 0.623378 -0.04197783 -0.780793
vn 0.8560742 -0.09740001 0.5075928
vn 0.8560742 -0.09740001 0.5075928
vn 0.8560742 -0.09740001 0.5075928
vn 0.8560742 -0.09740001 0.5075928
vn 0.6323326 -0.006038922 -0.7746736
vn 0.6323326 -0.006038922 -0.7746736
vn 0.6323326 -0.006038922 -0.7746736
vn 0.6323326 -0.006038922 -0.7746736
vn -0.5506204 0.09149239 -0.8297267
vn -0.5506204 0.09149239 -0.8297267
vn -0.5506204 0.09149239 -0.8297267
vn -0.5506204 0.09149239 -0.8297267
vn -0.9928784 0.07380366 0.09351818
vn -0.9928784 0.07380366 0.09351818
vn -0.9928784 0.07380366 0.09351818
vn -0.9928784 0.07380366 0.09351818
vn -0.1358622 -0.04589298 0.9896643
vn -0.1358622 -0.04589298 0.9896643
vn -0.1358622 -0.04589298 0.9896643
vn -0.1358622 -0.04589298 0.9896643
vn 0.8933018 -0.09646389 0.4389837
vn 0.8933018 -0.09646389 0.4389837
vn 0.8933018 -0.09646389 0.4389837
vn 0.8933018 -0.09646389 0.4389837
vn 0.01050074 0.8765898 0.4811239
vn 0.01050074 0.8765898 0.4811239
vn 0.01050074 0.8765898 0.4811239
vn 0.01050074 0.8765898 0.4811239
vn -0.9826844 0.06853405 0.1721464
vn -0.9826844 0.06853405 0.1721464
vn -0.9826844 0.06853405 0.1721464
vn -0.9826844 0.06853405 0.1721464
vn 0.7235367 -0.01816441 -0.690047
vn 0.7235367 -0.01816441 -0.690047
vn 0.7235367 -0.01816441 -0.690047
vn 0.7235367 -0.01816441 -0.690047
vn 0.4719732 0.8416834 0.2623176
vn 0.4719732 0.8416834 0.2623176
vn 0.4719732 0.8416834 0.2623176
vn 0.4719732 0.8416834 0.2623176
vn -0.0683051 -0.05168815 0.9963246
vn -0.0683051 -0.05168815 0.9963246
vn -0.0683051 -0.05168815 0.9963246
vn -0.0683051 -0.05168815 0.9963246
vn -0.5400494 0.09104306 -0.8366946
vn -0.5400494 0.09104306 -0.8366946
vn -0.5400494 0.09104306 -0.8366946
vn -0.5400494 0.09104306 -0.8366946
vn 0.3521645 0.8999642 -0.2569918
vn 0.3521645 0.8999642 -0.2569918
vn 0.3521645 0.8999642 -0.2569918
vn 0.3521645 0.8999642 -0.2569918
vn 0.915961 -0.09542313 0.3897562
vn 0.915961 -0.09542313 0.3897562
vn 0.915961 -0.09542313 0.3897562
vn 0.915961 -0.09542313 0.3897562
vn -0.972937 0.06491261 0.2217658
vn -0.972937 0.06491261 0.2217658
vn -0.972937 0.06491261 0.2217658
vn -0.972937 0.06491261 0.2217658
vn -0.1691643 0.9164801 -0.3625573
vn -0.1691643 0.9164801 -0.3625573
vn -0.1691643 0.9164801 -0.3625573
vn -0.1691643 0.9164801 -0.3625573
vn 0.6344283 -0.006339644 -0.7729557
vn 0.6344283 -0.006339644 -0.7729557
vn 0.6344283 -0.006339644 -0.7729557
vn 0.6344283 -0.006339644 -0.7729557
vn -0.1393065 -0.04556105 0.9892006
vn -0.1393065 -0.04556105 0.9892006
vn -0.1393065 -0.04556105 0.9892006
vn -0.1393065 -0.04556105 0.9892006
vn -0.3840057 0.9159467 0.1165385
vn -0.3840057 0.9159467 0.1165385
vn -0.3840057 0.9159467 0.1165385
vn -0.3840057 0.9159467 0.1165385
vn -0.5494926 0.0914202 -0.830482
vn -0.5494926 0.0914202 -0.830482
vn -0.5494926 0.0914202 -0.830482
vn -0.5494926 0.0914202 -0.830482
vn -0.948237 -0.2349684 -0.2136268
vn -0.948237 -0.2349684 -0.2136268
vn -0.948237 -0.2349684 -0.2136268
vn -0.948237 -0.2349684 -0.2136268
vn -0.3288656 -0.1526726 0.9319541
vn -0.3288656 -0.1526726 0.9319541
vn -0.3288656 -0.1526726 0.9319541
vn -0.3288656 -0.1526726 0.9319541
vn 0.7724376 0.1605974 0.6144498
vn 0.7724376 0.1605974 0.6144498
vn 0.7724376 0.1605974 0.6144498
vn 0.7724376 0.1605974 0.6144498
vn 0.8792955 0.2600968 -0.3989851
vn 0.8792955 0.2600968 -0.3989851
vn 0.8792955 0.2600968 -0.3989851
vn 0.8792955 0.2600968 -0.3989851
vn -0.195395 0.01774452 -0.9805641
vn -0.195395 0.01774452 -0.9805641
vn -0.195395 0.01774452 -0.9805641
vn -0.195395 0.01774452 -0.9805641
vn -0.9601733 -0.2435497 -0.1369336
vn -0.9601733 -0.2435497 -0.1369336
vn -0.9601733 -0.2435497 -0.1369336
vn -0.9601733 -0.2435497 -0.1369336
vn -0.3155323 0.8487564 -0.4243253
vn -0.3155323 0.8487564 -0.4243253
vn -0.3155323 0.8487564 -0.4243253
vn -0.3155323 0.8487564 -0.4243253
vn 0.8446163 0.255851 -0.4702805
vn 0.8446163 0.255851 -0.4702805
vn 0.8446163 0.255851 -0.4702805
vn 0.8446163 0.255851 -0.4702805
vn -0.4397664 -0.1781586 0.8802642
vn -0.4397664 -0.1781586 0.8802642
vn -0.4397664 -0.1781586 0.8802642
vn -0.4397664 -0.1781586 0.8802642
vn -0.7108392 0.7028543 -0.02652224
vn -0.7108392 0.7028543 -0.02652224
vn -0.7108392 0.7028543 -0.02652224
vn -0.7108392 0.7028543 -0.02652224
vn -0.2593635 -0.0002397883 -0.9657797
vn -0.2593635 -0.0002397883 -0.9657797
vn -0.2593635 -0.0002397883 -0.9657797
vn -0.2593635 -0.0002397883 -0.9657797
vn 0.7650486 0.1578657 0.6243228
vn 0.7650486 0.1578657 0.6243228
vn 0.7650486 0.1578657 0.6243228
vn 0.7650486 0.1578657 0.6243228
vn -0.402196 0.7718838 0.4923756
vn -0.402196 0.7718838 0.4923756
vn -0.402196 0.7718838 0.4923756
vn -0.402196 0.7718838 0.4923756
vn -0.9650331 -0.2486032 -0.08311261
vn -0.9650331 -0.2486032 -0.08311261
vn -0.9650331 -0.2486032 -0.08311261
vn -0.9650331 -0.2486032 -0.08311261
vn 0.8195598 0.2525124 -0.5143532
vn 0.8195598 0.2525124 -0.5143532
vn 0.8195598 0.2525124 -0.5143532
vn 0.8195598 0.2525124 -0.5143532
vn 0.1822807 0.8919423 0.4137785
vn 0.1822807 0.8919423 0.4137785
vn 0.1822807 0.8919423 0.4137785
vn 0.1822807 0.8919423 0.4137785
vn -0.3313885 -0.153112 0.9309878
vn -0.3313885 -0.153112 0.9309878
vn -0.3313885 -0.153112 0.9309878
vn -0.3313885 -0.153112 0.9309878
vn -0.1921135 0.01860428 -0.9811964
vn -0.1921135 0.01860428 -0.9811964
vn -0.1921135 0.01860428 -0.9811964
vn -0.1921135 0.01860428 -0.9811964
vn 0.2288822 0.9579888 -0.1728307
vn 0.2288822 0.9579888 -0.1728307
vn 0.2288822 0.9579888 -0.1728307
vn 0.2288822 0.9579888 -0.1728307
vn 0.7717728 0.1600631 0.6154238
vn 0.7717728 0.1600631 0.6154238
vn 0.7717728 0.1600631 0.6154238
vn 0.7717728 0.1600631 0.6154238
g SM_Env_FlowerPatch_03_0
f 3/3/3 2/2/2 1/1/1
f 6/6/6 5/5/5 4/4/4
f 9/9/9 8/8/8 7/7/7
f 12/12/12 11/11/11 10/10/10
f 15/15/15 14/14/14 13/13/13
f 18/18/18 17/17/17 16/16/16
f 21/21/21 20/20/20 19/19/19
f 24/24/24 23/23/23 22/22/22
f 27/27/27 26/26/26 25/25/25
f 30/30/30 29/29/29 28/28/28
f 33/33/33 32/32/32 31/31/31
f 34/34/34 33/33/33 31/31/31
f 37/37/37 36/36/36 35/35/35
f 38/38/38 37/37/37 35/35/35
f 41/41/41 40/40/40 39/39/39
f 42/42/42 41/41/41 39/39/39
f 45/45/45 44/44/44 43/43/43
f 46/46/46 45/45/45 43/43/43
f 49/49/49 48/48/48 47/47/47
f 50/50/50 49/49/49 47/47/47
f 53/53/53 52/52/52 51/51/51
f 54/54/54 53/53/53 51/51/51
f 57/57/57 56/56/56 55/55/55
f 58/58/58 57/57/57 55/55/55
f 61/61/61 60/60/60 59/59/59
f 62/62/62 61/61/61 59/59/59
f 65/65/65 64/64/64 63/63/63
f 66/66/66 65/65/65 63/63/63
f 69/69/69 68/68/68 67/67/67
f 70/70/70 69/69/69 67/67/67
f 73/73/73 72/72/72 71/71/71
f 74/74/74 73/73/73 71/71/71
f 77/77/77 76/76/76 75/75/75
f 78/78/78 77/77/77 75/75/75
f 81/81/81 80/80/80 79/79/79
f 82/82/82 81/81/81 79/79/79
f 85/85/85 84/84/84 83/83/83
f 86/86/86 85/85/85 83/83/83
f 89/89/89 88/88/88 87/87/87
f 90/90/90 89/89/89 87/87/87
f 93/93/93 92/92/92 91/91/91
f 94/94/94 93/93/93 91/91/91
f 97/97/97 96/96/96 95/95/95
f 98/98/98 97/97/97 95/95/95
f 101/101/101 100/100/100 99/99/99
f 102/102/102 101/101/101 99/99/99
f 105/105/105 104/104/104 103/103/103
f 106/106/106 105/105/105 103/103/103
f 109/109/109 108/108/108 107/107/107
f 110/110/110 109/109/109 107/107/107
f 113/113/113 112/112/112 111/111/111
f 114/114/114 113/113/113 111/111/111
f 117/117/117 116/116/116 115/115/115
f 118/118/118 117/117/117 115/115/115
f 121/121/121 120/120/120 119/119/119
f 122/122/122 121/121/121 119/119/119
f 125/125/125 124/124/124 123/123/123
f 126/126/126 125/125/125 123/123/123
f 129/129/129 128/128/128 127/127/127
f 130/130/130 129/129/129 127/127/127
f 133/133/133 132/132/132 131/131/131
f 134/134/134 133/133/133 131/131/131
f 137/137/137 136/136/136 135/135/135
f 138/138/138 137/137/137 135/135/135
f 141/141/141 140/140/140 139/139/139
f 142/142/142 141/141/141 139/139/139
f 145/145/145 144/144/144 143/143/143
f 146/146/146 145/145/145 143/143/143
f 149/149/149 148/148/148 147/147/147
f 150/150/150 149/149/149 147/147/147
f 153/153/153 152/152/152 151/151/151
f 154/154/154 153/153/153 151/151/151
f 157/157/157 156/156/156 155/155/155
f 158/158/158 157/157/157 155/155/155
f 161/161/161 160/160/160 159/159/159
f 162/162/162 161/161/161 159/159/159
f 165/165/165 164/164/164 163/163/163
f 166/166/166 165/165/165 163/163/163
f 169/169/169 168/168/168 167/167/167
f 170/170/170 169/169/169 167/167/167
f 173/173/173 172/172/172 171/171/171
f 174/174/174 173/173/173 171/171/171
f 177/177/177 176/176/176 175/175/175
f 178/178/178 177/177/177 175/175/175
f 181/181/181 180/180/180 179/179/179
f 182/182/182 181/181/181 179/179/179
f 185/185/185 184/184/184 183/183/183
f 186/186/186 185/185/185 183/183/183
f 189/189/189 188/188/188 187/187/187
f 190/190/190 189/189/189 187/187/187
f 193/193/193 192/192/192 191/191/191
f 194/194/194 193/193/193 191/191/191
f 197/197/197 196/196/196 195/195/195
f 198/198/198 197/197/197 195/195/195
f 201/201/201 200/200/200 199/199/199
f 202/202/202 201/201/201 199/199/199
f 205/205/205 204/204/204 203/203/203
f 206/206/206 205/205/205 203/203/203
f 209/209/209 208/208/208 207/207/207
f 210/210/210 209/209/209 207/207/207
f 213/213/213 212/212/212 211/211/211
f 214/214/214 213/213/213 211/211/211
f 217/217/217 216/216/216 215/215/215
f 218/218/218 217/217/217 215/215/215
f 221/221/221 220/220/220 219/219/219
f 222/222/222 221/221/221 219/219/219
