g SM_Env_Fence_Wood_Post_01
v 0.07198105 0.5838178 0.06051758
v 0.07198105 0.2664978 0.03658935
v 0.00925476 0.2664978 0.06051758
v 0.00925476 0.2664978 0.06051758
v 0.07198105 0.2664978 0.03658935
v 0.07198105 0.1464817 0.06489868
v 0.07198105 1.829586 -0.03214233
v 0.07198105 1.945763 -0.06361328
v 0.03408722 1.829586 -0.05845581
v 0.0719812 1.470796 -0.05845581
v 0.07198105 1.829586 -0.03214233
v 0.03408722 1.829586 -0.05845581
v 0.03408722 1.829586 -0.05845581
v 0.07198105 1.945763 -0.06361328
v 0.07198105 2.028217 -0.06785522
v -0.07198105 2.028217 -0.06785522
v -0.07198105 1.829586 -0.05845581
v -0.07198105 0.2664978 -0.05845581
v 0.07198105 0.2664978 -0.05845581
v 0.0719812 1.470796 -0.05845581
v -0.07198105 -2.50734E-08 -0.06991577
v 0.07198105 -2.50734E-08 -0.06991577
v -0.07198105 1.829586 0.06051758
v -0.07198105 2.028217 0.06991699
v 0.07198105 2.028217 0.06991699
v 0.07198105 1.829586 0.06051758
v 0.07198105 0.5838178 0.06051758
v 0.00925476 0.2664978 0.06051758
v -0.07198105 0.2664978 0.06051758
v -0.07198105 0.008938551 0.06991699
v 0.07198105 0.008938551 0.06991699
v 0.07198105 0.1464817 0.06489868
v -0.07198105 1.829586 0.06051758
v -0.07198105 2.028217 -0.06785522
v -0.07198105 2.028217 0.06991699
v -0.07198105 1.829586 -0.05845581
v -0.07198105 0.2664978 -0.05845581
v -0.07198105 0.2664978 0.06051758
v -0.07198105 -2.50734E-08 -0.06991577
v -0.07198105 0.008938551 0.06991699
v 0.07198105 2.028217 0.06991699
v 0.07198105 2.028217 -0.06785522
v 0.07198105 1.945763 -0.06361328
v 0.07198105 1.829586 0.06051758
v 0.07198105 1.829586 -0.03214233
v 0.0719812 1.470796 -0.05845581
v 0.07198105 0.5838178 0.06051758
v 0.07198105 0.2664978 0.03658935
v 0.07198105 0.2664978 -0.05845581
v 0.07198105 0.1464817 0.06489868
v 0.07198105 -2.50734E-08 -0.06991577
v 0.07198105 0.008938551 0.06991699
v -0.07198105 0.008938551 0.06991699
v 0.07198105 0.008938551 0.06991699
v 0.07198105 -2.50734E-08 -0.06991577
v -0.07198105 -2.50734E-08 -0.06991577
v 0.07198105 2.028217 -0.06785522
v 0.07198105 2.028217 0.06991699
v -0.07198105 2.028217 0.06991699
v -0.07198105 2.028217 -0.06785522
vt 0.03738403 0.3029785
vt 0.03738403 0.3029785
vt 0.03738403 0.3029785
vt 0.03738403 0.3029785
vt 0.03738403 0.3029785
vt 0.03738403 0.3029785
vt 0.03738403 0.3029785
vt 0.03738403 0.3029785
vt 0.03738403 0.3029785
vt 0.03738403 0.3029785
vt 0.03738403 0.3029785
vt 0.03738403 0.3029785
vt 0.03738403 0.3295898
vt 0.03738403 0.3295898
vt 0.03738403 0.3295898
vt 0.03738403 0.3295898
vt 0.03738403 0.3295898
vt 0.03738403 0.3295898
vt 0.03738403 0.3295898
vt 0.03738403 0.3295898
vt 0.03738403 0.3295898
vt 0.03738403 0.3295898
vt 0.03738403 0.3295898
vt 0.03738403 0.3295898
vt 0.03738403 0.3295898
vt 0.03738403 0.3295898
vt 0.03738403 0.3295898
vt 0.03738403 0.3295898
vt 0.03738403 0.3295898
vt 0.03738403 0.3295898
vt 0.03738403 0.3295898
vt 0.03738403 0.3295898
vt 0.03738403 0.3295898
vt 0.03738403 0.3295898
vt 0.03738403 0.3295898
vt 0.03738403 0.3295898
vt 0.03738403 0.3295898
vt 0.03738403 0.3295898
vt 0.03738403 0.3295898
vt 0.03738403 0.3295898
vt 0.03738403 0.3295898
vt 0.03738403 0.3295898
vt 0.03738403 0.3295898
vt 0.03738403 0.3295898
vt 0.03738403 0.3295898
vt 0.03738403 0.3295898
vt 0.03738403 0.3295898
vt 0.03738403 0.3295898
vt 0.03738403 0.3295898
vt 0.03738403 0.3295898
vt 0.03738403 0.3295898
vt 0.03738403 0.3295898
vt 0.03738403 0.3029785
vt 0.03738403 0.3029785
vt 0.03738403 0.3029785
vt 0.03738403 0.3029785
vt 0.03738403 0.3525391
vt 0.03738403 0.3525391
vt 0.03738403 0.3525391
vt 0.03738403 0.3525391
vn 0.3554688 -0.07025146 0.9321289
vn 0.3554688 -0.07025146 0.9321289
vn 0.3554688 -0.07025146 0.9321289
vn 0.3481445 0.21521 0.9125977
vn 0.3481445 0.21521 0.9125977
vn 0.3481445 0.21521 0.9125977
vn 0.5566406 -0.2171631 -0.8017578
vn 0.5566406 -0.2171631 -0.8017578
vn 0.5566406 -0.2171631 -0.8017578
vn 0.5693359 0.06011963 -0.8198242
vn 0.5693359 0.06011963 -0.8198242
vn 0.5693359 0.06011963 -0.8198242
vn 0.003599167 -0.02432251 -0.9995117
vn 0.02159119 -0.05136108 -0.9985352
vn 0.01079559 -0.04931641 -0.9985352
vn 0 -0.04727173 -0.9990234
vn 0 -0.02363586 -0.9995117
vn 0 0.01432037 -1
vn 0 0.01432037 -1
vn 0 0 -1
vn 0 0.04296875 -0.9990234
vn 0 0.04296875 -0.9990234
vn 0 -0.01181793 1
vn 0 -0.04727173 0.9990234
vn 0 -0.04727173 0.9990234
vn 0 -0.02363586 0.9995117
vn 0 0 1
vn -7.212162E-06 0.0218811 1
vn 0 0.01823425 1
vn 0 0.03646851 0.9995117
vn -1.811981E-05 0.03646851 0.9995117
vn -3.618002E-05 0.03646851 0.9995117
vn -1 0 0
vn -1 0 0
vn -1 0 0
vn -1 0 0
vn -1 0 0
vn -1 0 0
vn -1 0 0
vn -1 0 0
vn 1 0 0
vn 1 0 0
vn 1 0 0
vn 1 0 0
vn 1 0 0
vn 1 0 0
vn 1 0 0
vn 1 0 0
vn 1 0 0
vn 1 0 0
vn 1 0 0
vn 1 0 0
vn 0 -0.9980469 0.06378174
vn 0 -0.9980469 0.06378174
vn 0 -0.9980469 0.06378174
vn 0 -0.9980469 0.06378174
vn 0 1 0
vn 0 1 0
vn 0 1 0
vn 0 1 0
g SM_Env_Fence_Wood_Post_01_0
f 3/3/3 2/2/2 1/1/1
f 6/6/6 5/5/5 4/4/4
f 9/9/9 8/8/8 7/7/7
f 12/12/12 11/11/11 10/10/10
f 15/15/15 14/14/14 13/13/13
f 13/13/13 16/16/16 15/15/15
f 13/13/13 17/17/17 16/16/16
f 18/18/18 17/17/17 13/13/13
f 19/19/19 18/18/18 13/13/13
f 13/13/13 20/20/20 19/19/19
f 18/18/18 19/19/19 21/21/21
f 19/19/19 22/22/22 21/21/21
f 25/25/25 24/24/24 23/23/23
f 26/26/26 25/25/25 23/23/23
f 27/27/27 26/26/26 23/23/23
f 23/23/23 28/28/28 27/27/27
f 23/23/23 29/29/29 28/28/28
f 28/28/28 29/29/29 30/30/30
f 28/28/28 30/30/30 31/31/31
f 31/31/31 32/32/32 28/28/28
f 35/35/35 34/34/34 33/33/33
f 34/34/34 36/36/36 33/33/33
f 33/33/33 36/36/36 37/37/37
f 38/38/38 33/33/33 37/37/37
f 39/39/39 38/38/38 37/37/37
f 38/38/38 39/39/39 40/40/40
f 43/43/43 42/42/42 41/41/41
f 43/43/43 41/41/41 44/44/44
f 44/44/44 45/45/45 43/43/43
f 46/46/46 45/45/45 44/44/44
f 46/46/46 44/44/44 47/47/47
f 46/46/46 47/47/47 48/48/48
f 48/48/48 49/49/49 46/46/46
f 49/49/49 48/48/48 50/50/50
f 51/51/51 49/49/49 50/50/50
f 50/50/50 52/52/52 51/51/51
f 55/55/55 54/54/54 53/53/53
f 56/56/56 55/55/55 53/53/53
f 59/59/59 58/58/58 57/57/57
f 60/60/60 59/59/59 57/57/57
