g SM_Env_Rock_01
v 0.1126737 0.06746583 0.163345
v 0.1088434 0.001577349 0.1639427
v 0.112602 -0.05859151 0.1628007
v 0.1632749 0.05577409 0.1021789
v 0.1583428 -0.09860967 0.06494438
v 0.05378625 -0.1098932 0.08009361
v 0.05542237 -0.1087107 0.08881546
v -0.02605287 -0.1272557 0.1288596
v 0.1232192 -0.09957726 -0.07899124
v 0.1330361 0.1142583 -0.03765289
v 0.04940093 -0.1103598 0.07340393
v 0.04730242 0.1275345 -0.02199303
v -0.02388576 0.1284873 -0.09242874
v 0.08445392 -0.06726753 -0.1306439
v 0.05558641 0.05727013 -0.1643368
v 0.03054925 -0.04720061 -0.1684167
v -0.03988657 -0.1166472 -0.115505
v 0.01038726 -0.1074082 -0.09905914
v -0.01455243 0.09324523 0.1750901
v 0.005523176 -0.03248112 0.1665498
v 0.005347109 -0.1039704 0.1688039
v -0.005418463 -0.113287 0.1525923
v -0.022337 -0.1275509 0.1269009
v -0.06206898 0.1263726 0.1059375
v -0.02693494 0.1112376 0.1496468
v -0.02266431 -0.1276278 0.126291
v -0.08540919 0.1331799 -0.03819206
v -0.06563019 0.1280868 0.05780372
v -0.09012788 0.1340715 -0.08930656
v -0.1144773 0.1144073 -0.1171816
v -0.1520445 0.06700914 -0.1289679
v -0.1515271 0.01564456 -0.1315309
v -0.1592983 -0.0229584 -0.1510737
v -0.1632749 -0.08201122 -0.1585408
v -0.1497072 -0.1116544 -0.1313734
v -0.100457 -0.1340715 -0.0266539
v -0.1398526 -0.02826273 -0.1750902
v -0.1216694 0.0003304172 -0.159455
v -0.1313244 0.06415483 -0.1558788
v 0.112602 -0.05859151 0.1628007
v 0.005347109 -0.1039704 0.1688039
v 0.112602 -0.05859151 0.1628007
v 0.1088434 0.001577349 0.1639427
v 0.1126737 0.06746583 0.163345
v 0.05542237 -0.1087107 0.08881546
v 0.112602 -0.05859151 0.1628007
v 0.1632749 0.05577409 0.1021789
v 0.1583428 -0.09860967 0.06494438
v 0.112602 -0.05859151 0.1628007
v 0.05542237 -0.1087107 0.08881546
v 0.04940093 -0.1103598 0.07340393
v 0.05542237 -0.1087107 0.08881546
v 0.1330361 0.1142583 -0.03765289
v 0.1126737 0.06746583 0.163345
v -0.01455243 0.09324523 0.1750901
v -0.02693494 0.1112376 0.1496468
v 0.05378625 -0.1098932 0.08009361
v 0.05542237 -0.1087107 0.08881546
v 0.1583428 -0.09860967 0.06494438
v 0.04940093 -0.1103598 0.07340393
v 0.05378625 -0.1098932 0.08009361
v 0.1583428 -0.09860967 0.06494438
v 0.04730242 0.1275345 -0.02199303
v -0.06206898 0.1263726 0.1059375
v 0.1632749 0.05577409 0.1021789
v 0.1232192 -0.09957726 -0.07899124
v 0.1583428 -0.09860967 0.06494438
v 0.1126737 0.06746583 0.163345
v 0.1330361 0.1142583 -0.03765289
v 0.1632749 0.05577409 0.1021789
v 0.1330361 0.1142583 -0.03765289
v 0.1330361 0.1142583 -0.03765289
v 0.04730242 0.1275345 -0.02199303
v -0.02388576 0.1284873 -0.09242874
v 0.1232192 -0.09957726 -0.07899124
v 0.1330361 0.1142583 -0.03765289
v -0.02388576 0.1284873 -0.09242874
v 0.08445392 -0.06726753 -0.1306439
v 0.01038726 -0.1074082 -0.09905914
v 0.1232192 -0.09957726 -0.07899124
v -0.02388576 0.1284873 -0.09242874
v 0.1330361 0.1142583 -0.03765289
v 0.05558641 0.05727013 -0.1643368
v 0.05558641 0.05727013 -0.1643368
v 0.08445392 -0.06726753 -0.1306439
v 0.03054925 -0.04720061 -0.1684167
v 0.03054925 -0.04720061 -0.1684167
v 0.03054925 -0.04720061 -0.1684167
v -0.03988657 -0.1166472 -0.115505
v 0.01038726 -0.1074082 -0.09905914
v -0.022337 -0.1275509 0.1269009
v -0.02266431 -0.1276278 0.126291
v -0.022337 -0.1275509 0.1269009
v 0.01038726 -0.1074082 -0.09905914
v -0.09012788 0.1340715 -0.08930656
v 0.05558641 0.05727013 -0.1643368
v -0.02388576 0.1284873 -0.09242874
v -0.1144773 0.1144073 -0.1171816
v 0.03054925 -0.04720061 -0.1684167
v 0.05558641 0.05727013 -0.1643368
v -0.1313244 0.06415483 -0.1558788
v 0.03054925 -0.04720061 -0.1684167
v -0.1216694 0.0003304172 -0.159455
v -0.1632749 -0.08201122 -0.1585408
v 0.03054925 -0.04720061 -0.1684167
v -0.1398526 -0.02826273 -0.1750902
v -0.100457 -0.1340715 -0.0266539
v -0.03988657 -0.1166472 -0.115505
v -0.1497072 -0.1116544 -0.1313734
v -0.1144773 0.1144073 -0.1171816
v -0.09012788 0.1340715 -0.08930656
v -0.08540919 0.1331799 -0.03819206
v 0.005523176 -0.03248112 0.1665498
v 0.005347109 -0.1039704 0.1688039
v -0.1632749 -0.08201122 -0.1585408
v -0.1592983 -0.0229584 -0.1510737
v -0.01455243 0.09324523 0.1750901
v 0.005523176 -0.03248112 0.1665498
v -0.03988657 -0.1166472 -0.115505
v -0.1497072 -0.1116544 -0.1313734
v -0.1632749 -0.08201122 -0.1585408
v 0.005347109 -0.1039704 0.1688039
v -0.005418463 -0.113287 0.1525923
v -0.1515271 0.01564456 -0.1315309
v -0.02693494 0.1112376 0.1496468
v -0.01455243 0.09324523 0.1750901
v -0.1520445 0.06700914 -0.1289679
v -0.1144773 0.1144073 -0.1171816
v -0.08540919 0.1331799 -0.03819206
v -0.06563019 0.1280868 0.05780372
v -0.1520445 0.06700914 -0.1289679
v -0.06563019 0.1280868 0.05780372
v -0.06206898 0.1263726 0.1059375
v -0.1520445 0.06700914 -0.1289679
v -0.06206898 0.1263726 0.1059375
v -0.02693494 0.1112376 0.1496468
v -0.1632749 -0.08201122 -0.1585408
v -0.1398526 -0.02826273 -0.1750902
v -0.1592983 -0.0229584 -0.1510737
v -0.1592983 -0.0229584 -0.1510737
v -0.1398526 -0.02826273 -0.1750902
v -0.1216694 0.0003304172 -0.159455
v -0.1515271 0.01564456 -0.1315309
v -0.1515271 0.01564456 -0.1315309
v -0.1216694 0.0003304172 -0.159455
v -0.1313244 0.06415483 -0.1558788
v -0.1520445 0.06700914 -0.1289679
v -0.1520445 0.06700914 -0.1289679
v -0.1313244 0.06415483 -0.1558788
v -0.1144773 0.1144073 -0.1171816
vt 0.4591703 0.1773764
vt 0.4591703 0.1773764
vt 0.4591703 0.1773764
vt 0.4591703 0.1773764
vt 0.4591703 0.1773764
vt 0.4591703 0.1773763
vt 0.4591703 0.1773764
vt 0.4591703 0.1773764
vt 0.4591703 0.1773764
vt 0.4591703 0.1773764
vt 0.4591703 0.1773763
vt 0.4591703 0.1773764
vt 0.4591703 0.1773763
vt 0.4591703 0.1773763
vt 0.4591703 0.1773763
vt 0.4591703 0.1773763
vt 0.4591703 0.1773763
vt 0.4591703 0.1773763
vt 0.4591703 0.1773764
vt 0.4591703 0.1773764
vt 0.4591703 0.1773764
vt 0.4591703 0.1773764
vt 0.4591703 0.1773764
vt 0.4591703 0.1773764
vt 0.4591703 0.1773764
vt 0.4591703 0.1773764
vt 0.4591703 0.1773763
vt 0.4591703 0.1773764
vt 0.4591703 0.1773763
vt 0.4591704 0.1773764
vt 0.4591703 0.1773763
vt 0.4591703 0.1773763
vt 0.4591703 0.1773763
vt 0.4591704 0.1773763
vt 0.4591703 0.1773763
vt 0.4591703 0.1773763
vt 0.4591703 0.1773763
vt 0.4591703 0.1773763
vt 0.4591703 0.1773763
vt 0.4591703 0.1773764
vt 0.4591703 0.1773764
vt 0.4591703 0.1773764
vt 0.4591703 0.1773764
vt 0.4591703 0.1773764
vt 0.4591703 0.1773764
vt 0.4591703 0.1773764
vt 0.4591703 0.1773764
vt 0.4591703 0.1773764
vt 0.4591703 0.1773764
vt 0.4591703 0.1773764
vt 0.4591703 0.1773763
vt 0.4591703 0.1773764
vt 0.4591703 0.1773764
vt 0.4591703 0.1773764
vt 0.4591703 0.1773764
vt 0.4591703 0.1773764
vt 0.4591703 0.1773763
vt 0.4591703 0.1773764
vt 0.4591703 0.1773764
vt 0.4591703 0.1773763
vt 0.4591703 0.1773763
vt 0.4591703 0.1773764
vt 0.4591703 0.1773764
vt 0.4591703 0.1773764
vt 0.4591703 0.1773764
vt 0.4591703 0.1773764
vt 0.4591703 0.1773764
vt 0.4591703 0.1773764
vt 0.4591703 0.1773764
vt 0.4591703 0.1773764
vt 0.4591703 0.1773764
vt 0.4591703 0.1773764
vt 0.4591703 0.1773764
vt 0.4591703 0.1773763
vt 0.4591703 0.1773764
vt 0.4591703 0.1773764
vt 0.4591703 0.1773763
vt 0.4591703 0.1773763
vt 0.4591703 0.1773763
vt 0.4591703 0.1773764
vt 0.4591703 0.1773763
vt 0.4591703 0.1773764
vt 0.4591703 0.1773763
vt 0.4591703 0.1773763
vt 0.4591703 0.1773763
vt 0.4591703 0.1773763
vt 0.4591703 0.1773763
vt 0.4591703 0.1773763
vt 0.4591703 0.1773763
vt 0.4591703 0.1773763
vt 0.4591703 0.1773764
vt 0.4591703 0.1773764
vt 0.4591703 0.1773764
vt 0.4591703 0.1773763
vt 0.4591703 0.1773763
vt 0.4591703 0.1773763
vt 0.4591703 0.1773763
vt 0.4591704 0.1773764
vt 0.4591703 0.1773763
vt 0.4591703 0.1773763
vt 0.4591703 0.1773763
vt 0.4591703 0.1773763
vt 0.4591703 0.1773763
vt 0.4591704 0.1773763
vt 0.4591703 0.1773763
vt 0.4591703 0.1773763
vt 0.4591703 0.1773763
vt 0.4591703 0.1773763
vt 0.4591703 0.1773763
vt 0.4591704 0.1773764
vt 0.4591703 0.1773763
vt 0.4591703 0.1773763
vt 0.4591703 0.1773764
vt 0.4591703 0.1773764
vt 0.4591704 0.1773763
vt 0.4591703 0.1773763
vt 0.4591703 0.1773764
vt 0.4591703 0.1773764
vt 0.4591703 0.1773763
vt 0.4591703 0.1773763
vt 0.4591704 0.1773763
vt 0.4591703 0.1773764
vt 0.4591703 0.1773764
vt 0.4591703 0.1773763
vt 0.4591703 0.1773764
vt 0.4591703 0.1773764
vt 0.4591703 0.1773763
vt 0.4591704 0.1773764
vt 0.4591703 0.1773763
vt 0.4591703 0.1773764
vt 0.4591703 0.1773763
vt 0.4591703 0.1773764
vt 0.4591703 0.1773764
vt 0.4591703 0.1773763
vt 0.4591703 0.1773764
vt 0.4591703 0.1773764
vt 0.4591704 0.1773763
vt 0.4591703 0.1773763
vt 0.4591703 0.1773763
vt 0.4591703 0.1773763
vt 0.4591703 0.1773763
vt 0.4591703 0.1773763
vt 0.4591703 0.1773763
vt 0.4591703 0.1773763
vt 0.4591703 0.1773763
vt 0.4591703 0.1773763
vt 0.4591703 0.1773763
vt 0.4591703 0.1773763
vt 0.4591703 0.1773763
vt 0.4591704 0.1773764
vn 0.09265776 0.003645649 0.9956914
vn 0.05159376 -0.01474205 0.9985593
vn 0.03729215 0.009455658 0.9992597
vn 0.756371 -0.01435059 0.6539854
vn 0.1893341 -0.8746771 0.4461979
vn -0.1375356 -0.9777551 0.1583632
vn 0.3794304 -0.8787908 0.2894122
vn -0.01004172 -0.9914125 0.1303853
vn 0.08485584 -0.9959604 -0.02936514
vn 0.1852 0.9678875 0.1699845
vn -0.1375356 -0.9777551 0.1583632
vn 0.1799379 0.9701387 0.1626446
vn 0.03386524 0.9993011 0.01582759
vn 0.8293176 0.06249886 -0.5552714
vn 0.2561114 0.813305 -0.5224383
vn 0.5462445 -0.0984262 -0.8318228
vn 0.07904082 -0.653632 -0.7526736
vn 0.07522655 -0.9965841 -0.03407357
vn 0.0575416 -0.04383026 0.9973804
vn 0.0406187 -0.02010094 0.9989725
vn 0.03729215 0.009455658 0.9992597
vn 0.3759995 -0.8810338 0.2870605
vn 0.2397728 -0.9707818 0.009571321
vn 0.1909604 0.9653186 0.1780283
vn 0.1921186 0.9647889 0.1796466
vn 0.1966364 -0.9788668 -0.05616216
vn 0.1000895 0.9945989 0.02748241
vn 0.01957032 0.9997036 0.01447602
vn 0.0392285 0.8000475 -0.5986527
vn 0.0392285 0.8000475 -0.5986527
vn -0.909632 -0.03256528 0.4141366
vn -0.8850188 -0.1420354 0.4433595
vn -0.8880673 0.009896675 0.4596069
vn 0.07904081 -0.653632 -0.7526737
vn 0.0790408 -0.653632 -0.7526736
vn 0.1946552 -0.9790817 -0.0592311
vn 0.08360698 0.4366399 -0.895743
vn -0.04333566 0.04935429 -0.9978408
vn 0.02538311 0.6801729 -0.7326123
vn 0.3814844 -0.8774357 0.2908198
vn 0.3814844 -0.8774357 0.2908198
vn 0.7352487 0.0330797 0.6769898
vn 0.7456442 0.01041458 0.6662629
vn 0.7662857 -0.03872868 0.6413317
vn 0.1893341 -0.8746771 0.4461978
vn 0.1893341 -0.8746771 0.4461978
vn 0.873728 -0.1402449 0.4657583
vn 0.873728 -0.1402449 0.4657582
vn 0.873728 -0.1402449 0.4657583
vn -0.1375356 -0.9777551 0.1583632
vn 0.1957504 -0.9789672 -0.05748938
vn 0.2397728 -0.9707818 0.009571321
vn 0.2631541 0.9250473 0.2739296
vn 0.2631541 0.9250473 0.2739296
vn 0.2631542 0.9250473 0.2739296
vn 0.2631542 0.9250473 0.2739296
vn 0.1224818 -0.986273 0.1107417
vn 0.1224818 -0.986273 0.1107416
vn 0.1224818 -0.986273 0.1107417
vn 0.09300619 -0.9953542 -0.02489711
vn 0.1071662 -0.9942408 -0.0008975014
vn 0.1057509 -0.9942095 -0.01908066
vn 0.01437548 0.9998066 0.01342528
vn 0.01437548 0.9998066 0.01342528
vn 0.9755133 0.004904024 -0.2198854
vn 0.9747964 0.008638772 -0.2229294
vn 0.9711201 0.02617249 -0.2371515
vn 0.4889837 0.8373348 0.2444695
vn 0.4889837 0.8373348 0.2444695
vn 0.4889837 0.8373348 0.2444695
vn 0.9770789 -0.00370947 -0.2128455
vn 0.130719 0.9842757 -0.1188012
vn 0.130719 0.9842757 -0.1188012
vn 0.130719 0.9842757 -0.1188012
vn 0.8189381 0.07245769 -0.5692891
vn 0.8361131 0.05578386 -0.5457133
vn 0.0392285 0.8000475 -0.5986527
vn 0.1572599 -0.7733903 -0.6141146
vn 0.1562698 -0.7725719 -0.6153962
vn 0.1620614 -0.7773293 -0.6078612
vn 0.2561115 0.813305 -0.5224384
vn 0.2561115 0.813305 -0.5224383
vn 0.8419921 0.04984035 -0.5371826
vn 0.5462444 -0.09842619 -0.8318228
vn 0.5462444 -0.0984262 -0.8318228
vn 0.1505509 -0.767803 -0.6227463
vn 0.0790408 -0.653632 -0.7526737
vn 0.3241919 -0.7590056 -0.5646327
vn 0.3241918 -0.7590056 -0.5646327
vn 0.3241918 -0.7590056 -0.5646327
vn 0.3490692 -0.8977839 0.268579
vn -0.01004172 -0.9914125 0.1303853
vn -0.01004172 -0.9914125 0.1303853
vn 0.1948961 -0.979044 -0.05906435
vn 0.08444764 0.9963818 0.009584764
vn 0.02538311 0.6801729 -0.7326122
vn 0.02538312 0.6801729 -0.7326123
vn 0.02538311 0.6801729 -0.7326122
vn -0.04333567 0.04935429 -0.9978408
vn -0.04333567 0.04935429 -0.9978408
vn -0.04333567 0.04935429 -0.9978408
vn 0.08360699 0.4366399 -0.895743
vn 0.08360698 0.4366399 -0.895743
vn 0.004504133 -0.29606 -0.9551587
vn 0.004504133 -0.29606 -0.9551587
vn 0.004504133 -0.29606 -0.9551587
vn -0.01526659 -0.9791777 -0.2024307
vn -0.01526659 -0.9791777 -0.2024307
vn -0.01526659 -0.9791777 -0.2024307
vn -0.6772519 0.731889 0.07528804
vn -0.6772519 0.731889 0.07528804
vn -0.6772519 0.731889 0.07528804
vn -0.8880673 0.009896675 0.4596069
vn -0.888106 0.01475407 0.4594018
vn -0.8881142 0.01636708 0.4593313
vn -0.8850188 -0.1420354 0.4433595
vn -0.8850188 -0.1420354 0.4433595
vn -0.8850188 -0.1420354 0.4433595
vn 0.1983587 -0.9784901 -0.05666597
vn -0.8872883 0.06460225 0.4566683
vn -0.8881142 0.01636708 0.4593313
vn -0.888106 0.01475407 0.4594018
vn -0.8872884 0.06460225 0.4566682
vn -0.909632 -0.03256528 0.4141367
vn -0.909632 -0.03256528 0.4141367
vn -0.909632 -0.03256528 0.4141366
vn -0.8060698 0.5634743 0.1809646
vn -0.8060698 0.5634742 0.1809646
vn -0.8060698 0.5634743 0.1809646
vn -0.8060698 0.5634742 0.1809646
vn -0.6801827 0.7290622 0.07628666
vn -0.6801828 0.7290623 0.07628667
vn -0.6801828 0.7290623 0.07628667
vn -0.74376 -0.5224913 0.4169218
vn -0.74376 -0.5224913 0.4169218
vn -0.74376 -0.5224913 0.4169218
vn -0.7559282 0.1319839 -0.641212
vn -0.7559282 0.131984 -0.641212
vn -0.7559282 0.1319839 -0.641212
vn -0.489116 0.5452985 -0.6807459
vn -0.489116 0.5452985 -0.680746
vn -0.489116 0.5452985 -0.680746
vn -0.489116 0.5452985 -0.680746
vn -0.7395936 -0.02947707 -0.6724079
vn -0.7395936 -0.02947707 -0.6724079
vn -0.7395936 -0.02947707 -0.6724079
vn -0.7395936 -0.02947707 -0.6724079
vn -0.5985854 0.6049936 -0.5250508
vn -0.5985854 0.6049936 -0.5250508
vn -0.5985854 0.6049936 -0.5250508
g SM_Env_Rock_01_0
f 46/46/46 45/45/45 5/5/5
f 49/49/49 48/48/48 47/47/47
f 50/50/50 11/11/11 6/6/6
f 59/59/59 58/58/58 57/57/57
f 70/70/70 69/69/69 68/68/68
f 74/74/74 73/73/73 72/72/72
f 30/30/30 29/29/29 77/77/77
f 82/82/82 15/15/15 81/81/81
f 85/85/85 16/16/16 84/84/84
f 90/90/90 89/89/89 88/88/88
f 93/93/93 8/8/8 92/92/92
f 103/103/103 102/102/102 37/37/37
f 106/106/106 105/105/105 104/104/104
f 109/109/109 108/108/108 107/107/107
f 112/112/112 111/111/111 110/110/110
f 133/133/133 132/132/132 131/131/131
f 136/136/136 135/135/135 134/134/134
f 139/139/139 138/138/138 137/137/137
f 150/150/150 149/149/149 148/148/148
f 19/19/19 2/2/2 1/1/1
f 20/20/20 2/2/2 19/19/19
f 2/2/2 20/20/20 3/3/3
f 20/20/20 21/21/21 3/3/3
f 41/41/41 22/22/22 40/40/40
f 22/22/22 7/7/7 40/40/40
f 91/91/91 7/7/7 22/22/22
f 43/43/43 42/42/42 4/4/4
f 43/43/43 4/4/4 44/44/44
f 24/24/24 25/25/25 10/10/10
f 24/24/24 10/10/10 12/12/12
f 52/52/52 23/23/23 51/51/51
f 23/23/23 26/26/26 51/51/51
f 26/26/26 36/36/36 51/51/51
f 36/36/36 94/94/94 51/51/51
f 94/94/94 36/36/36 119/119/119
f 55/55/55 54/54/54 53/53/53
f 56/56/56 55/55/55 53/53/53
f 62/62/62 61/61/61 60/60/60
f 62/62/62 60/60/60 9/9/9
f 9/9/9 60/60/60 18/18/18
f 64/64/64 63/63/63 13/13/13
f 28/28/28 64/64/64 13/13/13
f 27/27/27 28/28/28 13/13/13
f 27/27/27 13/13/13 95/95/95
f 67/67/67 66/66/66 65/65/65
f 65/65/65 66/66/66 71/71/71
f 76/76/76 75/75/75 14/14/14
f 76/76/76 14/14/14 83/83/83
f 80/80/80 79/79/79 78/78/78
f 78/78/78 79/79/79 86/86/86
f 35/35/35 34/34/34 87/87/87
f 17/17/17 35/35/35 87/87/87
f 97/97/97 96/96/96 39/39/39
f 98/98/98 97/97/97 39/39/39
f 100/100/100 99/99/99 38/38/38
f 101/101/101 100/100/100 38/38/38
f 115/115/115 114/114/114 113/113/113
f 33/33/33 115/115/115 113/113/113
f 117/117/117 32/32/32 116/116/116
f 118/118/118 117/117/117 116/116/116
f 122/122/122 121/121/121 120/120/120
f 123/123/123 122/122/122 120/120/120
f 125/125/125 31/31/31 124/124/124
f 126/126/126 125/125/125 124/124/124
f 129/129/129 128/128/128 127/127/127
f 130/130/130 129/129/129 127/127/127
f 142/142/142 141/141/141 140/140/140
f 143/143/143 142/142/142 140/140/140
f 146/146/146 145/145/145 144/144/144
f 147/147/147 146/146/146 144/144/144
