g SM_Env_Grass_Patch_02
v -0.05962524 0.218773 0.06190216
v -0.1383984 0.2968395 0.1022281
v -0.1074451 0.1877752 0.0514035
v -0.1074451 0.1877752 0.0514035
v -0.1383984 0.2968395 0.1022281
v -0.1112732 0.1670455 0.1032724
v -0.06345581 0.1980436 0.1137707
v -0.1383984 0.2968395 0.1022281
v -0.05962524 0.218773 0.06190216
v 0.03120117 0.2716201 0.02338776
v 0.1034363 0.404193 0.03322845
v 0.05077759 0.2623315 0.06481293
v 0.05077759 0.2623315 0.06481293
v 0.1034363 0.404193 0.03322845
v 0.08341919 0.240702 0.04412018
v -0.04373169 0.1365548 0.1113113
v -0.02009888 0.2480836 0.1090817
v 0.0008581543 0.1232003 0.1486124
v 0.0008581543 0.1232003 0.1486124
v -0.02009888 0.2480836 0.1090817
v 0.0398352 0.1457473 0.1082565
v 0.0398352 0.1457473 0.1082565
v -0.02009888 0.2480836 0.1090817
v -0.004754639 0.159102 0.0709552
v -0.004754639 0.159102 0.0709552
v -0.02009888 0.2480836 0.1090817
v -0.04373169 0.1365548 0.1113113
v 0.02260986 0.1657193 -0.06226867
v 0.008602295 0.274947 -0.1486121
v 0.03604248 0.1462261 -0.09622009
v 0.03604248 0.1462261 -0.09622009
v 0.008602295 0.274947 -0.1486121
v -0.0008874512 0.1373428 -0.108252
v -0.0008874512 0.1373428 -0.108252
v 0.008602295 0.274947 -0.1486121
v -0.01431885 0.1568358 -0.07430145
v -0.01431885 0.1568358 -0.07430145
v 0.008602295 0.274947 -0.1486121
v 0.02260986 0.1657193 -0.06226867
v -0.225813 0.1066822 -0.0924179
v -0.2092102 0.1970975 -0.1323093
v -0.2052942 0.117121 -0.04220123
v -0.2052942 0.117121 -0.04220123
v -0.2092102 0.1970975 -0.1323093
v -0.1544019 0.1160826 -0.07030883
v -0.1544019 0.1160826 -0.07030883
v -0.2092102 0.1970975 -0.1323093
v -0.178158 0.07863576 -0.1072604
v -0.178158 0.07863576 -0.1072604
v -0.2092102 0.1970975 -0.1323093
v -0.225813 0.1066822 -0.0924179
v 0.1862048 0.08762957 0.1099777
v 0.2258118 0.217374 0.1145425
v 0.1901599 0.09436487 0.05149292
v 0.1901599 0.09436487 0.05149292
v 0.2258118 0.217374 0.1145425
v 0.1390979 0.132023 0.05151214
v 0.1390979 0.132023 0.05151214
v 0.2258118 0.217374 0.1145425
v 0.1351428 0.1252876 0.109996
v -0.04604004 0 0.06567047
v -0.05962524 0.218773 0.06190216
v -0.1074451 0.1877752 0.0514035
v -0.08443359 0 0.05182648
v -0.06345581 0.1980436 0.1137707
v -0.05988403 0 0.1040646
v -0.09827758 0 0.09022064
v -0.1112732 0.1670455 0.1032724
v -0.1383984 0.2968395 0.1022281
v -0.08443359 0 0.05182648
v -0.1074451 0.1877752 0.0514035
v -0.1112732 0.1670455 0.1032724
v -0.09827758 0 0.09022064
v -0.05988403 0 0.1040646
v -0.06345581 0.1980436 0.1137707
v -0.05962524 0.218773 0.06190216
v -0.04604004 0 0.06567047
v 0.03099243 0 -0.004238586
v 0.04632568 0.1429515 -0.01652435
v 0.002233887 0.1561284 0.004871521
v -0.01146606 0 0.01809784
v 0.0604895 0.1200629 0.0264151
v 0.05332886 0 0.03822235
v 0.01086914 0 0.06055878
v 0.02755249 0.1485269 0.05055145
v -0.01146606 0 0.01809784
v 0.02755249 0.1485269 0.05055145
v 0.01086914 0 0.06055878
v 0.002233887 0.1561284 0.004871521
v 0.05077759 0.2623315 0.06481293
v 0.03120117 0.2716201 0.02338776
v 0.05332886 0 0.03822235
v 0.04632568 0.1429515 -0.01652435
v 0.03099243 0 -0.004238586
v 0.0604895 0.1200629 0.0264151
v 0.0727185 0.27132 0.009475403
v 0.08341919 0.240702 0.04412018
v 0.1034363 0.404193 0.03322845
v 0.0727185 0.27132 0.009475403
v 0.1034363 0.404193 0.03322845
v 0.03120117 0.2716201 0.02338776
v 0.04632568 0.1429515 -0.01652435
v 0.002233887 0.1561284 0.004871521
v -0.0412439 0 0.1000772
v -0.04373169 0.1365548 0.1113113
v 0.0008581543 0.1232003 0.1486124
v -0.01015259 0 0.1415002
v -0.004754639 0.159102 0.0709552
v 0.0001770019 0 0.06898499
v 0.03127075 0 0.110408
v 0.0398352 0.1457473 0.1082565
v -0.01015259 0 0.1415002
v 0.0008581543 0.1232003 0.1486124
v 0.0398352 0.1457473 0.1082565
v 0.03127075 0 0.110408
v 0.0001770019 0 0.06898499
v -0.004754639 0.159102 0.0709552
v -0.04373169 0.1365548 0.1113113
v -0.0412439 0 0.1000772
v 0.08341919 0.240702 0.04412018
v 0.0604895 0.1200629 0.0264151
v 0.02755249 0.1485269 0.05055145
v 0.05077759 0.2623315 0.06481293
v 0.0113562 0 -0.02989929
v 0.02260986 0.1657193 -0.06226867
v 0.03604248 0.1462261 -0.09622009
v 0.03385864 0 -0.07227356
v -0.01431885 0.1568358 -0.07430145
v -0.03101807 0 -0.05240295
v -0.008516845 0 -0.09477539
v -0.0008874512 0.1373428 -0.108252
v 0.03385864 0 -0.07227356
v 0.03604248 0.1462261 -0.09622009
v -0.0008874512 0.1373428 -0.108252
v -0.008516845 0 -0.09477539
v -0.03101807 0 -0.05240295
v -0.01431885 0.1568358 -0.07430145
v 0.02260986 0.1657193 -0.06226867
v 0.0113562 0 -0.02989929
v -0.2224597 0 -0.0755072
v -0.225813 0.1066822 -0.0924179
v -0.2052942 0.117121 -0.04220123
v -0.2021936 0 -0.03202057
v -0.178158 0.07863576 -0.1072604
v -0.1789734 0 -0.09577332
v -0.1587073 0 -0.05228668
v -0.1544019 0.1160826 -0.07030883
v -0.2021936 0 -0.03202057
v -0.2052942 0.117121 -0.04220123
v -0.1544019 0.1160826 -0.07030883
v -0.1587073 0 -0.05228668
v -0.1789734 0 -0.09577332
v -0.178158 0.07863576 -0.1072604
v -0.225813 0.1066822 -0.0924179
v -0.2224597 0 -0.0755072
v 0.1192053 0 0.09890533
v 0.1862048 0.08762957 0.1099777
v 0.1709387 0 0.1014075
v 0.1351428 0.1252876 0.109996
v 0.2258118 0.217374 0.1145425
v 0.1390979 0.132023 0.05151214
v 0.1217065 0 0.04717255
v 0.1734412 0 0.04967468
v 0.1901599 0.09436487 0.05149292
v 0.1709387 0 0.1014075
v 0.1862048 0.08762957 0.1099777
v 0.1901599 0.09436487 0.05149292
v 0.1734412 0 0.04967468
v 0.1217065 0 0.04717255
v 0.1390979 0.132023 0.05151214
v 0.1351428 0.1252876 0.109996
v 0.1192053 0 0.09890533
vt 0.1668701 0.3034668
vt 0.1668701 0.3034668
vt 0.1668701 0.3034668
vt 0.1668701 0.3034668
vt 0.1668701 0.3034668
vt 0.1668701 0.3034668
vt 0.1668701 0.3034668
vt 0.1668701 0.3034668
vt 0.1668701 0.3034668
vt 0.1668701 0.3034668
vt 0.1668701 0.3034668
vt 0.1668701 0.3034668
vt 0.1668701 0.3034668
vt 0.1668701 0.3034668
vt 0.1668701 0.3034668
vt 0.1668701 0.3034668
vt 0.1668701 0.3034668
vt 0.1668701 0.3034668
vt 0.1668701 0.3034668
vt 0.1668701 0.3034668
vt 0.1668701 0.3034668
vt 0.1668701 0.3034668
vt 0.1668701 0.3034668
vt 0.1668701 0.3034668
vt 0.1668701 0.3034668
vt 0.1668701 0.3034668
vt 0.1668701 0.3034668
vt 0.1668701 0.3034668
vt 0.1668701 0.3034668
vt 0.1668701 0.3034668
vt 0.1668701 0.3034668
vt 0.1668701 0.3034668
vt 0.1668701 0.3034668
vt 0.1668701 0.3034668
vt 0.1668701 0.3034668
vt 0.1668701 0.3034668
vt 0.1668701 0.3034668
vt 0.1668701 0.3034668
vt 0.1668701 0.3034668
vt 0.1668701 0.3034668
vt 0.1668701 0.3034668
vt 0.1668701 0.3034668
vt 0.1668701 0.3034668
vt 0.1668701 0.3034668
vt 0.1668701 0.3034668
vt 0.1668701 0.3034668
vt 0.1668701 0.3034668
vt 0.1668701 0.3034668
vt 0.1668701 0.3034668
vt 0.1668701 0.3034668
vt 0.1668701 0.3034668
vt 0.1668701 0.3034668
vt 0.1668701 0.3034668
vt 0.1668701 0.3034668
vt 0.1668701 0.3034668
vt 0.1668701 0.3034668
vt 0.1668701 0.3034668
vt 0.1668701 0.3034668
vt 0.1668701 0.3034668
vt 0.1668701 0.3034668
vt 0.1668701 0.3034668
vt 0.1668701 0.3034668
vt 0.1668701 0.3034668
vt 0.1668701 0.3034668
vt 0.1668701 0.3034668
vt 0.1668701 0.3034668
vt 0.1668701 0.3034668
vt 0.1668701 0.3034668
vt 0.1668701 0.3034668
vt 0.1668701 0.3034668
vt 0.1668701 0.3034668
vt 0.1668701 0.3034668
vt 0.1668701 0.3034668
vt 0.1668701 0.3034668
vt 0.1668701 0.3034668
vt 0.1668701 0.3034668
vt 0.1668701 0.3034668
vt 0.1668701 0.3034668
vt 0.1668701 0.3034668
vt 0.1668701 0.3034668
vt 0.1668701 0.3034668
vt 0.1668701 0.3034668
vt 0.1668701 0.3034668
vt 0.1668701 0.3034668
vt 0.1668701 0.3034668
vt 0.1668701 0.3034668
vt 0.1668701 0.3034668
vt 0.1668701 0.3034668
vt 0.1668701 0.3034668
vt 0.1668701 0.3034668
vt 0.1668701 0.3034668
vt 0.1668701 0.3034668
vt 0.1668701 0.3034668
vt 0.1668701 0.3034668
vt 0.1668701 0.3034668
vt 0.1668701 0.3034668
vt 0.1668701 0.3034668
vt 0.1668701 0.3034668
vt 0.1668701 0.3034668
vt 0.1668701 0.3034668
vt 0.1668701 0.3034668
vt 0.1668701 0.3034668
vt 0.1668701 0.3034668
vt 0.1668701 0.3034668
vt 0.1668701 0.3034668
vt 0.1668701 0.3034668
vt 0.1668701 0.3034668
vt 0.1668701 0.3034668
vt 0.1668701 0.3034668
vt 0.1668701 0.3034668
vt 0.1668701 0.3034668
vt 0.1668701 0.3034668
vt 0.1668701 0.3034668
vt 0.1668701 0.3034668
vt 0.1668701 0.3034668
vt 0.1668701 0.3034668
vt 0.1668701 0.3034668
vt 0.1668701 0.3034668
vt 0.1668701 0.3034668
vt 0.1668701 0.3034668
vt 0.1668701 0.3034668
vt 0.1668701 0.3034668
vt 0.1668701 0.3034668
vt 0.1668701 0.3034668
vt 0.1668701 0.3034668
vt 0.1668701 0.3034668
vt 0.1668701 0.3034668
vt 0.1668701 0.3034668
vt 0.1668701 0.3034668
vt 0.1668701 0.3034668
vt 0.1668701 0.3034668
vt 0.1668701 0.3034668
vt 0.1668701 0.3034668
vt 0.1668701 0.3034668
vt 0.1668701 0.3034668
vt 0.1668701 0.3034668
vt 0.1668701 0.3034668
vt 0.1668701 0.3034668
vt 0.1668701 0.3034668
vt 0.1668701 0.3034668
vt 0.1668701 0.3034668
vt 0.1668701 0.3034668
vt 0.1668701 0.3034668
vt 0.1668701 0.3034668
vt 0.1668701 0.3034668
vt 0.1668701 0.3034668
vt 0.1668701 0.3034668
vt 0.1668701 0.3034668
vt 0.1668701 0.3034668
vt 0.1668701 0.3034668
vt 0.1668701 0.3034668
vt 0.1668701 0.3034668
vt 0.1668701 0.3034668
vt 0.1668701 0.3034668
vt 0.1668701 0.3034668
vt 0.1668701 0.3034668
vt 0.1668701 0.3034668
vt 0.1668701 0.3034668
vt 0.1668701 0.3034668
vt 0.1668701 0.3034668
vt 0.1668701 0.3034668
vt 0.1668701 0.3034668
vt 0.1668701 0.3034668
vt 0.1668701 0.3034668
vt 0.1668701 0.3034668
vt 0.1668701 0.3034668
vt 0.1668701 0.3034668
vt 0.1668701 0.3034668
vt 0.1668701 0.3034668
vt 0.1668701 0.3034668
vt 0.1668701 0.3034668
vt 0.1668701 0.3034668
vn -0.0635376 0.4067383 -0.9111328
vn -0.0635376 0.4067383 -0.9111328
vn -0.0635376 0.4067383 -0.9111328
vn -0.9672852 -0.2033691 -0.1525879
vn -0.9672852 -0.2033691 -0.1525879
vn -0.9672852 -0.2033691 -0.1525879
vn 0.7446289 0.5991211 0.2944336
vn 0.7446289 0.5991211 0.2944336
vn 0.7446289 0.5991211 0.2944336
vn -0.7919922 0.3972168 0.4633789
vn -0.7919922 0.3972168 0.4633789
vn -0.7919922 0.3972168 0.4633789
vn 0.53125 -0.008613586 0.847168
vn 0.53125 -0.008613586 0.847168
vn 0.53125 -0.008613586 0.847168
vn -0.6088867 0.1446533 0.7797852
vn -0.6088867 0.1446533 0.7797852
vn -0.6088867 0.1446533 0.7797852
vn 0.5786133 0.3327637 0.7446289
vn 0.5786133 0.3327637 0.7446289
vn 0.5786133 0.3327637 0.7446289
vn 0.6567383 0.3898926 -0.6455078
vn 0.6567383 0.3898926 -0.6455078
vn 0.6567383 0.3898926 -0.6455078
vn -0.7509766 0.1462402 -0.6435547
vn -0.7509766 0.1462402 -0.6435547
vn -0.7509766 0.1462402 -0.6435547
vn 0.9360352 0.2839355 0.2073975
vn 0.9360352 0.2839355 0.2073975
vn 0.9360352 0.2839355 0.2073975
vn 0.3581543 -0.2854004 -0.8886719
vn 0.3581543 -0.2854004 -0.8886719
vn 0.3581543 -0.2854004 -0.8886719
vn -0.9365234 -0.03771973 -0.348877
vn -0.9365234 -0.03771973 -0.348877
vn -0.9365234 -0.03771973 -0.348877
vn -0.3754883 0.5449219 0.75
vn -0.3754883 0.5449219 0.75
vn -0.3754883 0.5449219 0.75
vn -0.902832 0.3010254 0.3063965
vn -0.902832 0.3010254 0.3063965
vn -0.902832 0.3010254 0.3063965
vn 0.3527832 0.7075195 0.6123047
vn 0.3527832 0.7075195 0.6123047
vn 0.3527832 0.7075195 0.6123047
vn 0.7978516 0.08294678 -0.597168
vn 0.7978516 0.08294678 -0.597168
vn 0.7978516 0.08294678 -0.597168
vn -0.4377441 -0.2944336 -0.8496094
vn -0.4377441 -0.2944336 -0.8496094
vn -0.4377441 -0.2944336 -0.8496094
vn 0.9555664 -0.2927246 0.03089905
vn 0.9555664 -0.2927246 0.03089905
vn 0.9555664 -0.2927246 0.03089905
vn 0.2756348 0.3740234 -0.8857422
vn 0.2756348 0.3740234 -0.8857422
vn 0.2756348 0.3740234 -0.8857422
vn -0.7128906 0.7001953 0.03244019
vn -0.7128906 0.7001953 0.03244019
vn -0.7128906 0.7001953 0.03244019
vn 0.2670898 0.01409912 -0.9633789
vn 0.2670898 0.01409912 -0.9633789
vn 0.2670898 0.01409912 -0.9633789
vn 0.2670898 0.01409912 -0.9633789
vn -0.2207031 -0.05209351 0.9741211
vn -0.2471924 -0.07147217 0.9663086
vn -0.2471924 -0.07147217 0.9663086
vn -0.2207031 -0.05209351 0.9741211
vn -0.1940918 -0.03268433 0.9804688
vn -0.9731445 -0.09124756 -0.2114258
vn -0.9731445 -0.09124756 -0.2114258
vn -0.9731445 -0.09124756 -0.2114258
vn -0.9731445 -0.09124756 -0.2114258
vn 0.9790039 0.03744507 0.2003174
vn 0.9790039 0.03744507 0.2003174
vn 0.9790039 0.03744507 0.2003174
vn 0.9790039 0.03744507 0.2003174
vn -0.4545898 -0.03179932 -0.8901367
vn -0.4545898 -0.03179932 -0.8901367
vn -0.4545898 -0.03179932 -0.8901367
vn -0.4545898 -0.03179932 -0.8901367
vn 0.5302734 0.02172852 0.847168
vn 0.5302734 0.02172852 0.847168
vn 0.5302734 0.02172852 0.847168
vn 0.5302734 0.02172852 0.847168
vn -0.8686523 0.12323 0.4802246
vn -0.8696289 0.1268311 0.4770508
vn -0.8686523 0.12323 0.4802246
vn -0.8696289 0.1268311 0.4770508
vn -0.8706055 0.1303711 0.4741211
vn -0.8706055 0.1303711 0.4741211
vn 0.9018555 -0.1152954 -0.4162598
vn 0.9111328 -0.1158447 -0.395752
vn 0.9018555 -0.1152954 -0.4162598
vn 0.9111328 -0.1158447 -0.395752
vn 0.9125977 -0.1269531 -0.3881836
vn 0.9125977 -0.1269531 -0.3881836
vn 0.9057617 -0.1375732 -0.4013672
vn -0.3222656 0.2392578 -0.9160156
vn -0.3071289 0.2358398 -0.921875
vn -0.3222656 0.2392578 -0.9160156
vn -0.3369141 0.2425537 -0.909668
vn -0.3369141 0.2425537 -0.909668
vn -0.7226563 -0.02505493 0.6904297
vn -0.7226563 -0.02505493 0.6904297
vn -0.7226563 -0.02505493 0.6904297
vn -0.7226563 -0.02505493 0.6904297
vn 0.7202148 -0.008995056 -0.6938477
vn 0.7202148 -0.008995056 -0.6938477
vn 0.7202148 -0.008995056 -0.6938477
vn 0.7202148 -0.008995056 -0.6938477
vn 0.6728516 -0.06256104 0.7373047
vn 0.6728516 -0.06256104 0.7373047
vn 0.6728516 -0.06256104 0.7373047
vn 0.6728516 -0.06256104 0.7373047
vn -0.6669922 0.01654053 -0.7451172
vn -0.6669922 0.01654053 -0.7451172
vn -0.6669922 0.01654053 -0.7451172
vn -0.6669922 0.01654053 -0.7451172
vn 0.4401855 -0.2058105 0.8740234
vn 0.4401855 -0.2058105 0.8740234
vn 0.4401855 -0.2058105 0.8740234
vn 0.4401855 -0.2058105 0.8740234
vn 0.9077148 0.03637695 0.4179688
vn 0.9077148 0.03637695 0.4179688
vn 0.9077148 0.03637695 0.4179688
vn 0.9077148 0.03637695 0.4179688
vn -0.9023438 0.02284241 -0.4306641
vn -0.9023438 0.02284241 -0.4306641
vn -0.9023438 0.02284241 -0.4306641
vn -0.9023438 0.02284241 -0.4306641
vn 0.4082031 -0.1333008 -0.9033203
vn 0.4082031 -0.1333008 -0.9033203
vn 0.4082031 -0.1333008 -0.9033203
vn 0.4082031 -0.1333008 -0.9033203
vn -0.409668 0.185791 0.8930664
vn -0.409668 0.185791 0.8930664
vn -0.409668 0.185791 0.8930664
vn -0.409668 0.185791 0.8930664
vn -0.9174805 0.02159119 0.3969727
vn -0.9174805 0.02159119 0.3969727
vn -0.9174805 0.02159119 0.3969727
vn -0.9174805 0.02159119 0.3969727
vn 0.890625 -0.09088135 -0.4453125
vn 0.890625 -0.09088135 -0.4453125
vn 0.890625 -0.09088135 -0.4453125
vn 0.890625 -0.09088135 -0.4453125
vn 0.4545898 0.1046143 0.8847656
vn 0.4545898 0.1046143 0.8847656
vn 0.4545898 0.1046143 0.8847656
vn 0.4545898 0.1046143 0.8847656
vn -0.394043 -0.1445313 -0.9077148
vn -0.394043 -0.1445313 -0.9077148
vn -0.394043 -0.1445313 -0.9077148
vn -0.394043 -0.1445313 -0.9077148
vn -0.05474854 -0.0838623 0.9951172
vn -0.0378418 -0.05633545 0.9975586
vn -0.05474854 -0.0838623 0.9951172
vn -0.0378418 -0.05633545 0.9975586
vn -0.02087402 -0.02879333 0.9995117
vn 0.03231812 0.02230835 -0.9990234
vn 0.03231812 0.02230835 -0.9990234
vn 0.03231812 0.02230835 -0.9990234
vn 0.03231812 0.02230835 -0.9990234
vn 0.9833984 -0.1755371 0.046875
vn 0.9833984 -0.1755371 0.046875
vn 0.9833984 -0.1755371 0.046875
vn 0.9833984 -0.1755371 0.046875
vn -0.9902344 0.1312256 -0.04998779
vn -0.9902344 0.1312256 -0.04998779
vn -0.9902344 0.1312256 -0.04998779
vn -0.9902344 0.1312256 -0.04998779
g SM_Env_Grass_Patch_02_0
f 3/3/3 2/2/2 1/1/1
f 6/6/6 5/5/5 4/4/4
f 9/9/9 8/8/8 7/7/7
f 12/12/12 11/11/11 10/10/10
f 15/15/15 14/14/14 13/13/13
f 18/18/18 17/17/17 16/16/16
f 21/21/21 20/20/20 19/19/19
f 24/24/24 23/23/23 22/22/22
f 27/27/27 26/26/26 25/25/25
f 30/30/30 29/29/29 28/28/28
f 33/33/33 32/32/32 31/31/31
f 36/36/36 35/35/35 34/34/34
f 39/39/39 38/38/38 37/37/37
f 42/42/42 41/41/41 40/40/40
f 45/45/45 44/44/44 43/43/43
f 48/48/48 47/47/47 46/46/46
f 51/51/51 50/50/50 49/49/49
f 54/54/54 53/53/53 52/52/52
f 57/57/57 56/56/56 55/55/55
f 60/60/60 59/59/59 58/58/58
f 63/63/63 62/62/62 61/61/61
f 64/64/64 63/63/63 61/61/61
f 67/67/67 66/66/66 65/65/65
f 68/68/68 67/67/67 65/65/65
f 65/65/65 69/69/69 68/68/68
f 72/72/72 71/71/71 70/70/70
f 73/73/73 72/72/72 70/70/70
f 76/76/76 75/75/75 74/74/74
f 77/77/77 76/76/76 74/74/74
f 80/80/80 79/79/79 78/78/78
f 81/81/81 80/80/80 78/78/78
f 84/84/84 83/83/83 82/82/82
f 85/85/85 84/84/84 82/82/82
f 88/88/88 87/87/87 86/86/86
f 87/87/87 89/89/89 86/86/86
f 87/87/87 90/90/90 89/89/89
f 90/90/90 91/91/91 89/89/89
f 94/94/94 93/93/93 92/92/92
f 93/93/93 95/95/95 92/92/92
f 93/93/93 96/96/96 95/95/95
f 96/96/96 97/97/97 95/95/95
f 96/96/96 98/98/98 97/97/97
f 101/101/101 100/100/100 99/99/99
f 101/101/101 99/99/99 102/102/102
f 103/103/103 101/101/101 102/102/102
f 106/106/106 105/105/105 104/104/104
f 107/107/107 106/106/106 104/104/104
f 110/110/110 109/109/109 108/108/108
f 111/111/111 110/110/110 108/108/108
f 114/114/114 113/113/113 112/112/112
f 115/115/115 114/114/114 112/112/112
f 118/118/118 117/117/117 116/116/116
f 119/119/119 118/118/118 116/116/116
f 122/122/122 121/121/121 120/120/120
f 123/123/123 122/122/122 120/120/120
f 126/126/126 125/125/125 124/124/124
f 127/127/127 126/126/126 124/124/124
f 130/130/130 129/129/129 128/128/128
f 131/131/131 130/130/130 128/128/128
f 134/134/134 133/133/133 132/132/132
f 135/135/135 134/134/134 132/132/132
f 138/138/138 137/137/137 136/136/136
f 139/139/139 138/138/138 136/136/136
f 142/142/142 141/141/141 140/140/140
f 143/143/143 142/142/142 140/140/140
f 146/146/146 145/145/145 144/144/144
f 147/147/147 146/146/146 144/144/144
f 150/150/150 149/149/149 148/148/148
f 151/151/151 150/150/150 148/148/148
f 154/154/154 153/153/153 152/152/152
f 155/155/155 154/154/154 152/152/152
f 158/158/158 157/157/157 156/156/156
f 157/157/157 159/159/159 156/156/156
f 157/157/157 160/160/160 159/159/159
f 163/163/163 162/162/162 161/161/161
f 164/164/164 163/163/163 161/161/161
f 167/167/167 166/166/166 165/165/165
f 168/168/168 167/167/167 165/165/165
f 171/171/171 170/170/170 169/169/169
f 172/172/172 171/171/171 169/169/169
