g SM_Env_Rock_02
v 0.1937103 0.09675068 0.1128273
v 0.01358199 -0.1073141 0.1814095
v -0.10864 -0.01308388 0.202284
v 0.1452297 -0.09563507 0.1576117
v -0.1066542 0.0856289 0.1885554
v -0.1849874 -0.02954484 0.1598859
v 0.1743452 0.1412261 0.1118788
v -0.1028199 0.1351928 0.08703049
v 0.0486035 -0.1440015 0.05580505
v -0.1937103 -0.09065776 0.0481591
v -0.1869969 0.1077667 0.1398702
v -0.0538749 0.1360931 -0.06877151
v -0.0838647 0.08241691 -0.1649274
v -0.1629099 0.02389643 -0.1046526
v -0.1908954 -0.06656655 -0.08205047
v -0.02399776 -0.09504463 -0.1710091
v -0.07981616 0.005006728 -0.202284
v 0.13779 -0.0508099 0.1730274
v 0.1319575 -0.1170428 0.1087275
v 0.09631576 -0.1391097 0.06046402
v 0.06485747 -0.1387622 -0.03326462
v 0.1037396 0.135157 0.008666534
v 0.03322361 0.1440015 -0.06999649
v 0.03732705 0.1148436 -0.1343142
v 0.05137775 0.07743537 -0.1710474
v 0.03480249 0.03823158 -0.1689065
v 0.03699284 -0.007975028 -0.1977094
v 0.05024525 -0.08171066 -0.1747919
v 0.05917926 -0.09882612 -0.1589905
v 0.1771305 0.1118792 0.1603429
v 0.06488992 0.1232742 -0.0749736
v 0.1180156 0.09728227 -0.09024322
v 0.08727217 0.05755396 -0.07588104
v 0.1174856 -0.03623716 -0.0787664
v 0.1743452 0.1412261 0.1118788
v 0.1937103 0.09675068 0.1128273
v 0.1771305 0.1118792 0.1603429
v -0.1066542 0.0856289 0.1885554
v 0.01358199 -0.1073141 0.1814095
v -0.10864 -0.01308388 0.202284
v 0.01358199 -0.1073141 0.1814095
v 0.13779 -0.0508099 0.1730274
v 0.1452297 -0.09563507 0.1576117
v 0.01358199 -0.1073141 0.1814095
v -0.1066542 0.0856289 0.1885554
v -0.10864 -0.01308388 0.202284
v -0.1849874 -0.02954484 0.1598859
v -0.1869969 0.1077667 0.1398702
v 0.01358199 -0.1073141 0.1814095
v -0.1849874 -0.02954484 0.1598859
v 0.01358199 -0.1073141 0.1814095
v 0.0486035 -0.1440015 0.05580505
v -0.1937103 -0.09065776 0.0481591
v -0.1869969 0.1077667 0.1398702
v -0.1849874 -0.02954484 0.1598859
v -0.1629099 0.02389643 -0.1046526
v -0.1849874 -0.02954484 0.1598859
v -0.1937103 -0.09065776 0.0481591
v -0.1937103 -0.09065776 0.0481591
v -0.1629099 0.02389643 -0.1046526
v -0.1028199 0.1351928 0.08703049
v -0.1869969 0.1077667 0.1398702
v -0.0538749 0.1360931 -0.06877151
v -0.1028199 0.1351928 0.08703049
v -0.1869969 0.1077667 0.1398702
v -0.1629099 0.02389643 -0.1046526
v -0.0538749 0.1360931 -0.06877151
v -0.1908954 -0.06656655 -0.08205047
v -0.1937103 -0.09065776 0.0481591
v 0.0486035 -0.1440015 0.05580505
v 0.0486035 -0.1440015 0.05580505
v 0.09631576 -0.1391097 0.06046402
v -0.0838647 0.08241691 -0.1649274
v 0.05137775 0.07743537 -0.1710474
v -0.0538749 0.1360931 -0.06877151
v -0.1629099 0.02389643 -0.1046526
v -0.0838647 0.08241691 -0.1649274
v -0.0838647 0.08241691 -0.1649274
v 0.03480249 0.03823158 -0.1689065
v 0.03699284 -0.007975028 -0.1977094
v -0.07981616 0.005006728 -0.202284
v -0.1908954 -0.06656655 -0.08205047
v -0.02399776 -0.09504463 -0.1710091
v -0.1629099 0.02389643 -0.1046526
v -0.02399776 -0.09504463 -0.1710091
v -0.02399776 -0.09504463 -0.1710091
v 0.0486035 -0.1440015 0.05580505
v 0.06485747 -0.1387622 -0.03326462
v -0.1629099 0.02389643 -0.1046526
v -0.02399776 -0.09504463 -0.1710091
v -0.07981616 0.005006728 -0.202284
v -0.0838647 0.08241691 -0.1649274
v -0.1629099 0.02389643 -0.1046526
v -0.07981616 0.005006728 -0.202284
v 0.1743452 0.1412261 0.1118788
v 0.03322361 0.1440015 -0.06999649
v -0.0538749 0.1360931 -0.06877151
v -0.0838647 0.08241691 -0.1649274
v 0.03732705 0.1148436 -0.1343142
v 0.05024525 -0.08171066 -0.1747919
v -0.02399776 -0.09504463 -0.1710091
v 0.05917926 -0.09882612 -0.1589905
v 0.1319575 -0.1170428 0.1087275
v 0.1452297 -0.09563507 0.1576117
v 0.05917926 -0.09882612 -0.1589905
v 0.03480249 0.03823158 -0.1689065
v 0.03699284 -0.007975028 -0.1977094
v 0.05137775 0.07743537 -0.1710474
v 0.03480249 0.03823158 -0.1689065
v 0.08727217 0.05755396 -0.07588104
v 0.03322361 0.1440015 -0.06999649
v 0.03732705 0.1148436 -0.1343142
v 0.06488992 0.1232742 -0.0749736
v 0.03732705 0.1148436 -0.1343142
v 0.05137775 0.07743537 -0.1710474
v 0.1180156 0.09728227 -0.09024322
v 0.1174856 -0.03623716 -0.0787664
v 0.03699284 -0.007975028 -0.1977094
v 0.05024525 -0.08171066 -0.1747919
v 0.05917926 -0.09882612 -0.1589905
v 0.06485747 -0.1387622 -0.03326462
v 0.09631576 -0.1391097 0.06046402
v 0.05917926 -0.09882612 -0.1589905
v 0.1771305 0.1118792 0.1603429
v -0.1066542 0.0856289 0.1885554
v 0.1771305 0.1118792 0.1603429
v 0.01358199 -0.1073141 0.1814095
v 0.13779 -0.0508099 0.1730274
v 0.1037396 0.135157 0.008666534
v 0.1743452 0.1412261 0.1118788
v 0.1037396 0.135157 0.008666534
v 0.06488992 0.1232742 -0.0749736
v 0.1180156 0.09728227 -0.09024322
v 0.1937103 0.09675068 0.1128273
v 0.1743452 0.1412261 0.1118788
v 0.1180156 0.09728227 -0.09024322
v 0.08727217 0.05755396 -0.07588104
v 0.13779 -0.0508099 0.1730274
v 0.1174856 -0.03623716 -0.0787664
v 0.1452297 -0.09563507 0.1576117
v 0.13779 -0.0508099 0.1730274
v 0.1174856 -0.03623716 -0.0787664
v 0.05917926 -0.09882612 -0.1589905
v 0.1319575 -0.1170428 0.1087275
vt 0.4591703 0.1773764
vt 0.4591704 0.1773764
vt 0.4591704 0.1773764
vt 0.4591703 0.1773764
vt 0.4591704 0.1773764
vt 0.4591704 0.1773764
vt 0.4591703 0.1773764
vt 0.4591704 0.1773764
vt 0.4591704 0.1773763
vt 0.4591704 0.1773764
vt 0.4591704 0.1773764
vt 0.4591704 0.1773763
vt 0.4591704 0.1773763
vt 0.4591704 0.1773763
vt 0.4591704 0.1773763
vt 0.4591704 0.1773763
vt 0.4591704 0.1773763
vt 0.4591703 0.1773764
vt 0.4591703 0.1773764
vt 0.4591703 0.1773763
vt 0.4591703 0.1773763
vt 0.4591703 0.1773763
vt 0.4591703 0.1773763
vt 0.4591704 0.1773764
vt 0.4591703 0.1773763
vt 0.4591703 0.1773763
vt 0.4591703 0.1773763
vt 0.4591704 0.1773763
vt 0.4591704 0.1773763
vt 0.4591703 0.1773764
vt 0.4591704 0.1773763
vt 0.4591703 0.1773763
vt 0.4591703 0.1773764
vt 0.4591704 0.1773763
vt 0.4591703 0.1773764
vt 0.4591703 0.1773764
vt 0.4591703 0.1773764
vt 0.4591704 0.1773764
vt 0.4591704 0.1773764
vt 0.4591704 0.1773764
vt 0.4591704 0.1773764
vt 0.4591703 0.1773764
vt 0.4591703 0.1773764
vt 0.4591704 0.1773764
vt 0.4591704 0.1773764
vt 0.4591704 0.1773764
vt 0.4591704 0.1773764
vt 0.4591704 0.1773764
vt 0.4591704 0.1773764
vt 0.4591704 0.1773764
vt 0.4591704 0.1773764
vt 0.4591704 0.1773763
vt 0.4591704 0.1773764
vt 0.4591704 0.1773764
vt 0.4591704 0.1773764
vt 0.4591704 0.1773763
vt 0.4591704 0.1773764
vt 0.4591704 0.1773764
vt 0.4591704 0.1773764
vt 0.4591704 0.1773763
vt 0.4591704 0.1773764
vt 0.4591704 0.1773764
vt 0.4591704 0.1773763
vt 0.4591704 0.1773764
vt 0.4591704 0.1773764
vt 0.4591704 0.1773763
vt 0.4591704 0.1773763
vt 0.4591704 0.1773763
vt 0.4591704 0.1773764
vt 0.4591704 0.1773763
vt 0.4591704 0.1773763
vt 0.4591703 0.1773763
vt 0.4591704 0.1773763
vt 0.4591703 0.1773763
vt 0.4591704 0.1773763
vt 0.4591704 0.1773763
vt 0.4591704 0.1773763
vt 0.4591704 0.1773763
vt 0.4591703 0.1773763
vt 0.4591703 0.1773763
vt 0.4591704 0.1773763
vt 0.4591704 0.1773763
vt 0.4591704 0.1773763
vt 0.4591704 0.1773763
vt 0.4591704 0.1773763
vt 0.4591704 0.1773763
vt 0.4591704 0.1773763
vt 0.4591703 0.1773763
vt 0.4591704 0.1773763
vt 0.4591704 0.1773763
vt 0.4591704 0.1773763
vt 0.4591704 0.1773763
vt 0.4591704 0.1773763
vt 0.4591704 0.1773763
vt 0.4591703 0.1773764
vt 0.4591703 0.1773763
vt 0.4591704 0.1773763
vt 0.4591704 0.1773763
vt 0.4591704 0.1773764
vt 0.4591704 0.1773763
vt 0.4591704 0.1773763
vt 0.4591704 0.1773763
vt 0.4591703 0.1773764
vt 0.4591703 0.1773764
vt 0.4591704 0.1773763
vt 0.4591703 0.1773763
vt 0.4591703 0.1773763
vt 0.4591703 0.1773763
vt 0.4591703 0.1773763
vt 0.4591703 0.1773764
vt 0.4591703 0.1773763
vt 0.4591704 0.1773764
vt 0.4591704 0.1773763
vt 0.4591704 0.1773764
vt 0.4591703 0.1773763
vt 0.4591703 0.1773763
vt 0.4591704 0.1773763
vt 0.4591703 0.1773763
vt 0.4591704 0.1773763
vt 0.4591704 0.1773763
vt 0.4591703 0.1773763
vt 0.4591703 0.1773763
vt 0.4591704 0.1773763
vt 0.4591703 0.1773764
vt 0.4591704 0.1773764
vt 0.4591703 0.1773764
vt 0.4591704 0.1773764
vt 0.4591703 0.1773764
vt 0.4591703 0.1773763
vt 0.4591703 0.1773764
vt 0.4591703 0.1773763
vt 0.4591704 0.1773763
vt 0.4591703 0.1773763
vt 0.4591703 0.1773764
vt 0.4591703 0.1773764
vt 0.4591703 0.1773763
vt 0.4591703 0.1773764
vt 0.4591703 0.1773764
vt 0.4591704 0.1773763
vt 0.4591703 0.1773764
vt 0.4591703 0.1773764
vt 0.4591704 0.1773763
vt 0.4591704 0.1773763
vt 0.4591703 0.1773764
vn 0.8990726 0.3954723 0.1878034
vn 0.2618894 0.1277728 0.9566023
vn 0.2618894 0.1277728 0.9566023
vn 0.1950905 -0.2898533 0.9369764
vn -0.04374042 0.8781279 0.4764224
vn -0.3043005 -0.564647 0.7671864
vn 0.8990726 0.3954723 0.1878034
vn -0.05494387 0.9193262 0.3896415
vn 0.1073125 -0.944043 0.3118762
vn -0.36575 -0.8042248 0.4684543
vn -0.04856138 0.895143 0.4431261
vn -0.3701533 0.922321 -0.1109534
vn -0.006582672 0.6993651 -0.7147343
vn -0.9956832 -0.02749377 -0.08865097
vn -0.9521832 0.3034514 0.03555963
vn 0.004503871 -0.2960595 -0.9551589
vn 0.1170904 0.4732094 -0.8731338
vn 0.9066279 -0.1898567 0.3768027
vn 0.1226683 -0.9358284 0.3304204
vn 0.05759785 -0.9233425 0.379633
vn 0.1056978 -0.993627 -0.03915889
vn -0.01644789 0.9998527 -0.004901352
vn -0.01515038 0.998964 0.04291271
vn -0.006582672 0.6993651 -0.7147343
vn -0.006582671 0.6993651 -0.7147342
vn -0.04646022 -0.03487558 -0.9983112
vn 0.1170904 0.4732094 -0.8731338
vn 0.004503871 -0.2960595 -0.9551589
vn -0.1489848 -0.9661664 -0.2105377
vn 0.8990726 0.3954724 0.1878034
vn 0.4779091 0.811103 -0.337216
vn 0.74971 -0.5317907 -0.3938698
vn 0.8135248 0.3009315 -0.4976118
vn 0.813525 0.3009316 -0.4976117
vn -0.03342801 0.8668454 0.4974552
vn 0.9066279 -0.1898567 0.3768027
vn 0.9066279 -0.1898567 0.3768027
vn 0.2618894 0.1277728 0.9566023
vn -0.3043005 -0.564647 0.7671864
vn -0.3043005 -0.564647 0.7671864
vn 0.1950905 -0.2898533 0.9369764
vn 0.1950905 -0.2898533 0.9369764
vn 0.1472379 -0.9200981 0.3629607
vn 0.1192096 -0.9399006 0.3199623
vn -0.4938566 0.1215632 0.8610041
vn -0.5025488 0.1290018 0.8548702
vn -0.4956837 0.1231225 0.8597317
vn -0.4904617 0.1186715 0.8633449
vn -0.36575 -0.8042248 0.4684542
vn -0.36575 -0.8042248 0.4684543
vn -0.2163863 -0.9517367 0.2176561
vn -0.2163863 -0.9517367 0.217656
vn -0.2163863 -0.9517367 0.217656
vn -0.9956832 -0.02749377 -0.08865098
vn -0.9956832 -0.02749377 -0.08865098
vn -0.9767839 0.2106538 -0.03896384
vn -0.9767839 0.2106538 -0.03896384
vn -0.9767839 0.2106538 -0.03896384
vn -0.9521832 0.3034514 0.03555963
vn -0.9521832 0.3034514 0.03555963
vn -0.3701532 0.922321 -0.1109534
vn -0.3701532 0.922321 -0.1109534
vn -0.01515038 0.998964 0.0429127
vn -0.01582583 0.9997092 0.01819383
vn -0.6317918 0.7119904 -0.3064453
vn -0.6317918 0.7119904 -0.3064454
vn -0.6317918 0.7119904 -0.3064453
vn -0.2226285 -0.9626689 -0.153965
vn -0.2059003 -0.961436 -0.1823348
vn -0.2257091 -0.9627827 -0.1486769
vn 0.1056978 -0.993627 -0.0391589
vn 0.1056978 -0.9936271 -0.03915889
vn -0.04646022 -0.03487558 -0.9983112
vn -0.04646022 -0.03487558 -0.9983112
vn -0.6733153 0.7147876 -0.1890107
vn -0.6733153 0.7147876 -0.1890107
vn -0.6733153 0.7147876 -0.1890107
vn 0.1170904 0.4732094 -0.8731338
vn 0.1170904 0.4732094 -0.8731338
vn 0.004503871 -0.2960595 -0.9551589
vn 0.004503871 -0.2960595 -0.9551589
vn -0.4785517 -0.0706269 -0.8752143
vn -0.4785517 -0.0706269 -0.8752143
vn -0.4785517 -0.0706269 -0.8752143
vn -0.2349914 -0.9629074 -0.1326208
vn -0.1489848 -0.9661664 -0.2105377
vn -0.1489848 -0.9661664 -0.2105377
vn -0.1489848 -0.9661664 -0.2105377
vn -0.6909326 -0.5368205 -0.4841858
vn -0.6909326 -0.5368207 -0.4841858
vn -0.6909326 -0.5368206 -0.4841857
vn -0.7041727 0.278383 -0.6531797
vn -0.7041727 0.278383 -0.6531797
vn -0.7041727 0.278383 -0.6531797
vn -0.01755214 0.9987537 -0.04672218
vn -0.1100731 0.8903266 -0.4418172
vn -0.1100731 0.8903267 -0.4418171
vn -0.1100731 0.8903267 -0.4418171
vn -0.1100731 0.8903267 -0.4418172
vn 0.07904078 -0.6536316 -0.7526741
vn 0.07904078 -0.6536316 -0.7526741
vn 0.07904078 -0.6536315 -0.7526741
vn 0.9649903 0.0006566016 -0.2622848
vn 0.9649903 0.0006566017 -0.2622848
vn 0.9649903 0.0006566017 -0.2622848
vn 0.813525 0.3009316 -0.4976117
vn 0.8135248 0.3009315 -0.4976118
vn 0.74971 -0.5317908 -0.3938698
vn 0.74971 -0.5317907 -0.3938698
vn 0.74971 -0.5317908 -0.3938698
vn 0.4779091 0.811103 -0.337216
vn 0.4779091 0.811103 -0.3372163
vn 0.4133266 0.7978742 -0.438814
vn 0.4133266 0.7978742 -0.438814
vn 0.4133266 0.7978742 -0.438814
vn 0.4133266 0.7978742 -0.438814
vn 0.8256432 -0.0312936 -0.5633241
vn 0.8248565 -0.02725703 -0.5646847
vn 0.8263657 -0.03507217 -0.5620406
vn 0.8327361 -0.07213194 -0.5489514
vn 0.7122831 -0.6590348 -0.2415078
vn 0.7248769 -0.6453026 -0.2411182
vn 0.7203518 -0.6502943 -0.2412687
vn -0.02744018 0.8543735 0.5189345
vn 0.09675296 0.02344147 0.9950323
vn 0.08886085 0.02938565 0.9956105
vn 0.08980396 0.02867583 0.9955466
vn 0.03586414 0.06905899 0.9969677
vn 0.4779093 0.811103 -0.3372158
vn 0.3498955 0.890599 -0.2905281
vn 0.3498956 0.890599 -0.2905281
vn 0.3498956 0.890599 -0.2905282
vn 0.3498955 0.890599 -0.2905281
vn 0.9437859 -0.1696483 -0.2837033
vn 0.9203604 -0.1868342 -0.3435544
vn 0.9203604 -0.1868342 -0.3435544
vn 0.9444388 -0.169109 -0.2818466
vn 0.9504002 -0.1639901 -0.264285
vn 0.9504002 -0.1639901 -0.264285
vn 0.9414476 -0.2839181 -0.1818432
vn 0.9414476 -0.2839181 -0.1818432
vn 0.9414476 -0.2839181 -0.1818432
vn 0.9414476 -0.2839181 -0.1818432
vn 0.7255421 -0.6445632 -0.2410951
g SM_Env_Rock_02_0
f 7/7/7 30/30/30 1/1/1
f 37/37/37 18/18/18 36/36/36
f 38/38/38 3/3/3 2/2/2
f 40/40/40 6/6/6 39/39/39
f 4/4/4 42/42/42 41/41/41
f 50/50/50 10/10/10 49/49/49
f 53/53/53 52/52/52 51/51/51
f 14/14/14 55/55/55 54/54/54
f 58/58/58 57/57/57 56/56/56
f 60/60/60 15/15/15 59/59/59
f 62/62/62 61/61/61 12/12/12
f 67/67/67 66/66/66 65/65/65
f 21/21/21 72/72/72 71/71/71
f 24/24/24 25/25/25 13/13/13
f 74/74/74 26/26/26 73/73/73
f 77/77/77 76/76/76 75/75/75
f 84/84/84 83/83/83 82/82/82
f 91/91/91 90/90/90 89/89/89
f 94/94/94 93/93/93 92/92/92
f 102/102/102 101/101/101 100/100/100
f 105/105/105 104/104/104 103/103/103
f 44/44/44 19/19/19 43/43/43
f 19/19/19 44/44/44 9/9/9
f 20/20/20 19/19/19 9/9/9
f 47/47/47 46/46/46 45/45/45
f 47/47/47 45/45/45 48/48/48
f 8/8/8 11/11/11 35/35/35
f 11/11/11 5/5/5 35/35/35
f 35/35/35 5/5/5 124/124/124
f 22/22/22 23/23/23 63/63/63
f 64/64/64 22/22/22 63/63/63
f 22/22/22 64/64/64 95/95/95
f 70/70/70 69/69/69 68/68/68
f 85/85/85 70/70/70 68/68/68
f 27/27/27 17/17/17 78/78/78
f 79/79/79 27/27/27 78/78/78
f 80/80/80 28/28/28 16/16/16
f 81/81/81 80/80/80 16/16/16
f 88/88/88 87/87/87 86/86/86
f 29/29/29 88/88/88 86/86/86
f 98/98/98 97/97/97 96/96/96
f 99/99/99 98/98/98 96/96/96
f 107/107/107 106/106/106 33/33/33
f 34/34/34 107/107/107 33/33/33
f 109/109/109 108/108/108 32/32/32
f 110/110/110 109/109/109 32/32/32
f 31/31/31 112/112/112 111/111/111
f 31/31/31 111/111/111 129/129/129
f 115/115/115 114/114/114 113/113/113
f 116/116/116 115/115/115 113/113/113
f 119/119/119 118/118/118 117/117/117
f 120/120/120 119/119/119 117/117/117
f 123/123/123 122/122/122 121/121/121
f 123/123/123 144/144/144 122/122/122
f 127/127/127 126/126/126 125/125/125
f 127/127/127 128/128/128 126/126/126
f 132/132/132 131/131/131 130/130/130
f 133/133/133 132/132/132 130/130/130
f 136/136/136 135/135/135 134/134/134
f 137/137/137 136/136/136 134/134/134
f 137/137/137 134/134/134 138/138/138
f 139/139/139 137/137/137 138/138/138
f 142/142/142 141/141/141 140/140/140
f 143/143/143 142/142/142 140/140/140
