g SM_Item_Garden_Trowel_01
v 0.0005159474 0.02226484 -0.139543
v 0.02807493 0.01278543 -0.139543
v 0.006878509 0.00687844 -0.1126456
v -0.07984038 -0.01344659 -0.1403519
v -0.06735843 -0.01344659 -0.3382261
v -0.02807483 0.01278543 -0.139543
v 0.0009210205 -0.002342449 -0.2862177
v 0.06735847 -0.02656489 -0.3382261
v -0.06735843 -0.02656489 -0.3382261
v 0.02807493 0.01278543 -0.139543
v 0.0005159474 0.02226484 -0.139543
v 0.0009021568 0.02199108 -0.1717442
v -0.0003041077 0.01398177 -0.2745062
v 0.06735847 -0.01344659 -0.3382261
v 0.0009021568 0.02199108 -0.1717442
v 0.07984045 -0.02656489 -0.1403519
v 0.06735847 -0.02656489 -0.3382261
v 0.02807493 0.003010225 -0.139543
v -0.006878443 0.00687844 -0.1126456
v 0.0005159474 0.02226484 -0.139543
v 0.006878509 0.00687844 -0.1126456
v 0.06735847 -0.01344659 -0.3382261
v 0.07984045 -0.01344659 -0.1403519
v 0.02807493 0.01278543 -0.139543
v -0.06735843 -0.02656489 -0.3382261
v -0.07984038 -0.02656489 -0.1403519
v -0.02807483 0.003010225 -0.139543
v -0.006878443 0.00687844 -0.1126456
v -0.02807483 0.01278543 -0.139543
v 0.0005159474 0.02226484 -0.139543
v -0.01715495 -0.01715499 -0.08741058
v -0.01715495 0.01715499 -0.08741058
v -0.01715495 0.01715499 -0.06314506
v -0.01715495 -0.01715499 -0.06314506
v -0.01715495 0.01715499 -0.08741058
v 0.01715505 0.01715499 -0.08741058
v 0.01715505 0.01715499 -0.06314506
v -0.01715495 0.01715499 -0.06314506
v 0.01715505 0.01715499 -0.08741058
v 0.01715505 -0.01715499 -0.08741058
v 0.01715505 -0.01715499 -0.06314506
v 0.01715505 0.01715499 -0.06314506
v 0.01715505 -0.01715499 -0.08741058
v -0.01715495 -0.01715499 -0.08741058
v -0.01715495 -0.01715499 -0.06314506
v 0.01715505 -0.01715499 -0.06314506
v -0.01715495 -0.01715499 0.0874109
v -0.01715495 0.01715499 0.0874109
v 0.01715505 0.01715499 0.0874109
v 0.01715505 -0.01715499 0.0874109
v 0.01715505 -0.01715499 -0.08741058
v 0.01078515 -0.01078512 -0.09200052
v -0.01078501 -0.01078512 -0.09200052
v -0.01715495 -0.01715499 -0.08741058
v -0.01715495 -0.01715499 -0.08741058
v -0.01078501 -0.01078512 -0.09200052
v -0.01078501 0.01078512 -0.09200052
v -0.01715495 0.01715499 -0.08741058
v -0.01715495 0.01715499 -0.08741058
v -0.01078501 0.01078512 -0.09200052
v 0.01078515 0.01078512 -0.09200052
v 0.01715505 0.01715499 -0.08741058
v 0.01715505 0.01715499 -0.08741058
v 0.01078515 0.01078512 -0.09200052
v 0.01078515 -0.01078512 -0.09200052
v 0.01715505 -0.01715499 -0.08741058
v 0.01078515 -0.01078512 -0.09200052
v 0.01078515 -0.01078512 -0.1101499
v -0.01078501 -0.01078512 -0.1101499
v -0.01078501 -0.01078512 -0.09200052
v -0.01078501 -0.01078512 -0.09200052
v -0.01078501 -0.01078512 -0.1101499
v -0.01078501 0.01078512 -0.1101499
v -0.01078501 0.01078512 -0.09200052
v -0.01078501 0.01078512 -0.09200052
v -0.01078501 0.01078512 -0.1101499
v 0.01078515 0.01078512 -0.1101499
v 0.01078515 0.01078512 -0.09200052
v 0.01078515 0.01078512 -0.09200052
v 0.01078515 0.01078512 -0.1101499
v 0.01078515 -0.01078512 -0.1101499
v 0.01078515 -0.01078512 -0.09200052
v 0.01078515 -0.01078512 -0.1101499
v 0.006878509 -0.006878438 -0.1126456
v -0.006878443 -0.006878438 -0.1126456
v -0.01078501 -0.01078512 -0.1101499
v -0.01078501 -0.01078512 -0.1101499
v -0.006878443 -0.006878438 -0.1126456
v -0.006878443 0.00687844 -0.1126456
v -0.01078501 0.01078512 -0.1101499
v -0.01078501 0.01078512 -0.1101499
v -0.006878443 0.00687844 -0.1126456
v 0.006878509 0.00687844 -0.1126456
v 0.01078515 0.01078512 -0.1101499
v 0.01078515 0.01078512 -0.1101499
v 0.006878509 0.00687844 -0.1126456
v 0.006878509 -0.006878438 -0.1126456
v 0.01078515 -0.01078512 -0.1101499
v -0.006878443 -0.006878438 -0.1126456
v -0.02807483 0.003010225 -0.139543
v -0.02807483 0.01278543 -0.139543
v -0.006878443 0.00687844 -0.1126456
v 0.006878509 0.00687844 -0.1126456
v 0.02807493 0.01278543 -0.139543
v 0.02807493 0.003010225 -0.139543
v 0.006878509 -0.006878438 -0.1126456
v -0.01249532 0.01279795 -0.05914553
v 0.01249538 0.01279795 -0.05914553
v 0.01249538 0.01279795 -0.0447364
v -0.01249532 0.01279795 -0.0447364
v 0.01249538 -0.01279794 -0.05914553
v 0.01249538 -0.01279794 -0.0447364
v 0.01249538 0.01279795 -0.0447364
v 0.01249538 0.01279795 -0.05914553
v -0.01249532 -0.01279794 -0.05914553
v -0.01249532 -0.01279794 -0.0447364
v 0.01249538 -0.01279794 -0.0447364
v 0.01249538 -0.01279794 -0.05914553
v -0.01249532 0.01279795 -0.05914553
v -0.01249532 0.01279795 -0.0447364
v -0.01249532 -0.01279794 -0.0447364
v -0.01249532 -0.01279794 -0.05914553
v -0.01715495 0.01715499 -0.03093292
v 0.01715505 0.01715499 -0.03093292
v 0.01715505 0.01715499 0.0874109
v -0.01715495 0.01715499 0.0874109
v 0.01715505 -0.01715499 -0.03093292
v 0.01715505 -0.01715499 0.0874109
v 0.01715505 0.01715499 0.0874109
v 0.01715505 0.01715499 -0.03093292
v -0.01715495 -0.01715499 -0.03093292
v -0.01715495 -0.01715499 0.0874109
v 0.01715505 -0.01715499 0.0874109
v 0.01715505 -0.01715499 -0.03093292
v -0.01715495 0.01715499 -0.03093292
v -0.01715495 0.01715499 0.0874109
v -0.01715495 -0.01715499 0.0874109
v -0.01715495 -0.01715499 -0.03093292
v -0.01715495 0.01715499 -0.03093292
v -0.01249532 0.01279795 -0.0447364
v 0.01249538 0.01279795 -0.0447364
v 0.01715505 0.01715499 -0.03093292
v 0.01715505 0.01715499 -0.06314506
v 0.01249538 0.01279795 -0.05914553
v -0.01249532 0.01279795 -0.05914553
v -0.01715495 0.01715499 -0.06314506
v 0.01715505 -0.01715499 -0.06314506
v 0.01249538 -0.01279794 -0.05914553
v 0.01249538 0.01279795 -0.05914553
v 0.01715505 0.01715499 -0.06314506
v 0.01715505 0.01715499 -0.03093292
v 0.01249538 0.01279795 -0.0447364
v 0.01249538 -0.01279794 -0.0447364
v 0.01715505 -0.01715499 -0.03093292
v -0.01715495 -0.01715499 -0.06314506
v -0.01249532 -0.01279794 -0.05914553
v 0.01249538 -0.01279794 -0.05914553
v 0.01715505 -0.01715499 -0.06314506
v 0.01715505 -0.01715499 -0.03093292
v 0.01249538 -0.01279794 -0.0447364
v -0.01249532 -0.01279794 -0.0447364
v -0.01715495 -0.01715499 -0.03093292
v -0.01715495 0.01715499 -0.06314506
v -0.01249532 0.01279795 -0.05914553
v -0.01249532 -0.01279794 -0.05914553
v -0.01715495 -0.01715499 -0.06314506
v -0.01715495 -0.01715499 -0.03093292
v -0.01249532 -0.01279794 -0.0447364
v -0.01249532 0.01279795 -0.0447364
v -0.01715495 0.01715499 -0.03093292
v 0.0009446525 0.003010225 -0.139543
v 0.0009210205 -0.002342449 -0.2862177
v -0.06735843 -0.02656489 -0.3382261
v -0.02807483 0.003010225 -0.139543
v 0.07984045 -0.01344659 -0.1403519
v 0.07984045 -0.02656489 -0.1403519
v 0.02807493 0.003010225 -0.139543
v 0.02807493 0.01278543 -0.139543
v 0.06735847 -0.01344659 -0.3382261
v -0.0003041077 0.01398177 -0.2745062
v -0.06735843 -0.01344659 -0.3382261
v 0.04244476 -0.02301892 -0.3676652
v -0.04553337 -0.02301302 -0.3676412
v 0.006878509 -0.006878438 -0.1126456
v 0.02807493 0.003010225 -0.139543
v 0.0009446525 0.003010225 -0.139543
v -0.006878443 -0.006878438 -0.1126456
v -0.02807483 0.003010225 -0.139543
v -0.07984038 -0.01344659 -0.1403519
v -0.02807483 0.01278543 -0.139543
v -0.02807483 0.003010225 -0.139543
v -0.07984038 -0.02656489 -0.1403519
v -0.06735843 -0.01344659 -0.3382261
v -0.06735843 -0.02656489 -0.3382261
v -0.04553337 -0.03418179 -0.3641385
v -0.04553337 -0.02301302 -0.3676412
v -0.07984038 -0.01344659 -0.1403519
v -0.07984038 -0.02656489 -0.1403519
v -0.06735843 -0.02656489 -0.3382261
v -0.06735843 -0.01344659 -0.3382261
v -0.04553337 -0.02301302 -0.3676412
v -0.04553337 -0.03418179 -0.3641385
v 0.04244476 -0.03418768 -0.3641625
v 0.04244476 -0.02301892 -0.3676652
v 0.06735847 -0.01344659 -0.3382261
v 0.06735847 -0.02656489 -0.3382261
v 0.07984045 -0.02656489 -0.1403519
v 0.07984045 -0.01344659 -0.1403519
v 0.04244476 -0.02301892 -0.3676652
v 0.04244476 -0.03418768 -0.3641625
v 0.06735847 -0.02656489 -0.3382261
v 0.06735847 -0.01344659 -0.3382261
v -0.02807483 0.01278543 -0.139543
v -0.06735843 -0.01344659 -0.3382261
v -0.0003041077 0.01398177 -0.2745062
v 0.0009021568 0.02199108 -0.1717442
v 0.0005159474 0.02226484 -0.139543
v 0.06735847 -0.02656489 -0.3382261
v 0.0009210205 -0.002342449 -0.2862177
v 0.0009446525 0.003010225 -0.139543
v 0.02807493 0.003010225 -0.139543
v 0.06735847 -0.02656489 -0.3382261
v 0.04244476 -0.03418768 -0.3641625
v -0.04553337 -0.03418179 -0.3641385
v -0.06735843 -0.02656489 -0.3382261
vt 0.416626 0.4179393
vt 0.416626 0.4179398
vt 0.416626 0.4179398
vt 0.416626 0.4179396
vt 0.416626 0.4179396
vt 0.416626 0.4179398
vt 0.416626 0.4179398
vt 0.416626 0.4179396
vt 0.416626 0.4179396
vt 0.416626 0.4179398
vt 0.416626 0.4179393
vt 0.416626 0.4179393
vt 0.416626 0.4179398
vt 0.416626 0.4179396
vt 0.416626 0.4179393
vt 0.416626 0.4179396
vt 0.416626 0.4179396
vt 0.416626 0.4179396
vt 0.416626 0.4179398
vt 0.416626 0.4179393
vt 0.416626 0.4179398
vt 0.416626 0.4179396
vt 0.416626 0.4179396
vt 0.416626 0.4179398
vt 0.416626 0.4179396
vt 0.416626 0.4179396
vt 0.416626 0.4179396
vt 0.416626 0.4179398
vt 0.416626 0.4179398
vt 0.416626 0.4179393
vt 0.1846908 0.3737411
vt 0.1846908 0.3737409
vt 0.1846908 0.3737409
vt 0.1846908 0.3737411
vt 0.1846908 0.3737409
vt 0.1846908 0.3737409
vt 0.1846908 0.3737409
vt 0.1846908 0.3737409
vt 0.1846908 0.3737409
vt 0.1846908 0.3737411
vt 0.1846908 0.3737411
vt 0.1846908 0.3737409
vt 0.1846908 0.3737411
vt 0.1846908 0.3737411
vt 0.1846908 0.3737411
vt 0.1846908 0.3737411
vt 0.1846908 0.3737411
vt 0.1846908 0.3737409
vt 0.1846908 0.3737409
vt 0.1846908 0.3737411
vt 0.1846908 0.3737411
vt 0.1846908 0.3737411
vt 0.1846908 0.3737411
vt 0.1846908 0.3737411
vt 0.1846908 0.3737411
vt 0.1846908 0.3737411
vt 0.1846908 0.3737409
vt 0.1846908 0.3737409
vt 0.1846908 0.3737409
vt 0.1846908 0.3737409
vt 0.1846908 0.3737409
vt 0.1846908 0.3737409
vt 0.1846908 0.3737409
vt 0.1846908 0.3737409
vt 0.1846908 0.3737411
vt 0.1846908 0.3737411
vt 0.3872679 0.4908959
vt 0.3872679 0.4908959
vt 0.3872679 0.4908959
vt 0.3872679 0.4908959
vt 0.3872679 0.4908959
vt 0.3872679 0.4908959
vt 0.3872679 0.4908956
vt 0.3872679 0.4908956
vt 0.3872679 0.4908956
vt 0.3872679 0.4908956
vt 0.3872679 0.4908956
vt 0.3872679 0.4908956
vt 0.3872679 0.4908956
vt 0.3872679 0.4908956
vt 0.3872679 0.4908959
vt 0.3872679 0.4908959
vt 0.416626 0.4179396
vt 0.416626 0.4179397
vt 0.416626 0.4179397
vt 0.416626 0.4179396
vt 0.416626 0.4179396
vt 0.416626 0.4179397
vt 0.416626 0.4179398
vt 0.416626 0.4179393
vt 0.416626 0.4179393
vt 0.416626 0.4179398
vt 0.416626 0.4179398
vt 0.416626 0.4179393
vt 0.416626 0.4179393
vt 0.416626 0.4179398
vt 0.416626 0.4179397
vt 0.416626 0.4179396
vt 0.416626 0.4179397
vt 0.416626 0.4179396
vt 0.416626 0.4179398
vt 0.416626 0.4179398
vt 0.416626 0.4179398
vt 0.416626 0.4179398
vt 0.416626 0.4179396
vt 0.416626 0.4179397
vt 0.08023135 0.1911369
vt 0.08023135 0.1911369
vt 0.08023135 0.1911369
vt 0.08023135 0.1911369
vt 0.08023135 0.1911371
vt 0.08023135 0.1911371
vt 0.08023135 0.1911369
vt 0.08023135 0.1911369
vt 0.08023135 0.1911371
vt 0.08023135 0.1911371
vt 0.08023135 0.1911371
vt 0.08023135 0.1911371
vt 0.08023135 0.1911369
vt 0.08023135 0.1911369
vt 0.08023135 0.1911371
vt 0.08023135 0.1911371
vt 0.1846908 0.3737409
vt 0.1846908 0.3737409
vt 0.1846908 0.3737409
vt 0.1846908 0.3737409
vt 0.1846908 0.3737411
vt 0.1846908 0.3737411
vt 0.1846908 0.3737409
vt 0.1846908 0.3737409
vt 0.1846908 0.3737411
vt 0.1846908 0.3737411
vt 0.1846908 0.3737411
vt 0.1846908 0.3737411
vt 0.1846908 0.3737409
vt 0.1846908 0.3737409
vt 0.1846908 0.3737411
vt 0.1846908 0.3737411
vt 0.1846908 0.3737409
vt 0.1846908 0.3737409
vt 0.1846908 0.3737409
vt 0.1846908 0.3737409
vt 0.1846908 0.3737409
vt 0.1846908 0.3737409
vt 0.1846908 0.3737409
vt 0.1846908 0.3737409
vt 0.1846908 0.3737411
vt 0.1846908 0.3737411
vt 0.1846908 0.3737409
vt 0.1846908 0.3737409
vt 0.1846908 0.3737409
vt 0.1846908 0.3737409
vt 0.1846908 0.3737411
vt 0.1846908 0.3737411
vt 0.1846908 0.3737411
vt 0.1846908 0.3737411
vt 0.1846908 0.3737411
vt 0.1846908 0.3737411
vt 0.1846908 0.3737411
vt 0.1846908 0.3737411
vt 0.1846908 0.3737411
vt 0.1846908 0.3737411
vt 0.1846908 0.3737409
vt 0.1846908 0.3737409
vt 0.1846908 0.3737411
vt 0.1846908 0.3737411
vt 0.1846908 0.3737411
vt 0.1846908 0.3737411
vt 0.1846908 0.3737409
vt 0.1846908 0.3737409
vt 0.416626 0.4179396
vt 0.416626 0.4179398
vt 0.416626 0.4179396
vt 0.416626 0.4179396
vt 0.416626 0.4179396
vt 0.416626 0.4179396
vt 0.416626 0.4179396
vt 0.416626 0.4179398
vt 0.416626 0.4179396
vt 0.416626 0.4179398
vt 0.416626 0.4179396
vt 0.416626 0.4179397
vt 0.416626 0.4179398
vt 0.416626 0.4179397
vt 0.416626 0.4179396
vt 0.416626 0.4179396
vt 0.416626 0.4179397
vt 0.416626 0.4179396
vt 0.416626 0.4179396
vt 0.416626 0.4179398
vt 0.416626 0.4179396
vt 0.416626 0.4179396
vt 0.416626 0.4179396
vt 0.416626 0.4179396
vt 0.416626 0.4179398
vt 0.416626 0.4179398
vt 0.416626 0.4179396
vt 0.416626 0.4179396
vt 0.416626 0.4179396
vt 0.416626 0.4179396
vt 0.416626 0.4179398
vt 0.416626 0.4179398
vt 0.416626 0.4179397
vt 0.416626 0.4179397
vt 0.416626 0.4179396
vt 0.416626 0.4179396
vt 0.416626 0.4179396
vt 0.416626 0.4179396
vt 0.416626 0.4179397
vt 0.416626 0.4179397
vt 0.416626 0.4179396
vt 0.416626 0.4179396
vt 0.416626 0.4179398
vt 0.416626 0.4179396
vt 0.416626 0.4179398
vt 0.416626 0.4179393
vt 0.416626 0.4179393
vt 0.416626 0.4179396
vt 0.416626 0.4179398
vt 0.416626 0.4179396
vt 0.416626 0.4179396
vt 0.416626 0.4179396
vt 0.416626 0.4179397
vt 0.416626 0.4179398
vt 0.416626 0.4179396
vn 0.2950504 0.8577845 0.4208932
vn 0.2950504 0.8577845 0.4208932
vn 0.2950504 0.8577845 0.4208932
vn -0.4514841 0.8918245 -0.02847972
vn -0.4514841 0.8918245 -0.02847972
vn -0.4111326 0.9102983 -0.04823703
vn 0 -0.9065045 0.422196
vn 0 -0.9065045 0.422196
vn 0 -0.9065045 0.422196
vn 0.3505977 0.9353569 -0.04678329
vn 0.3252613 0.9456152 -0.004138051
vn 0.3252613 0.9456152 -0.004138051
vn 0.3629387 0.9293227 -0.06807836
vn 0.3258276 0.9435139 -0.06014914
vn 0.399454 0.9136062 -0.07589584
vn -0.4954629 -0.8680667 0.03125399
vn -0.4954629 -0.8680667 0.03125399
vn -0.4954629 -0.8680667 0.03125399
vn 0 0.8680143 0.4965391
vn 0 0.8680143 0.4965391
vn 0 0.8680143 0.4965391
vn 0.4514844 0.8918244 -0.0284798
vn 0.4514844 0.8918244 -0.0284798
vn 0.4257583 0.9033287 -0.05222328
vn 0.4954626 -0.8680668 0.03125389
vn 0.4954626 -0.8680668 0.03125389
vn 0.4954626 -0.8680668 0.03125389
vn -0.2862931 0.8634865 0.4152438
vn -0.2862931 0.8634865 0.4152438
vn -0.2862931 0.8634865 0.4152438
vn -1 0 0
vn -1 0 0
vn -1 0 0
vn -1 0 0
vn 0 1 0
vn 0 1 0
vn 0 1 0
vn 0 1 0
vn 1 0 0
vn 1 0 0
vn 1 0 0
vn 1 0 0
vn 0 -1 0
vn 0 -1 0
vn 0 -1 0
vn 0 -1 0
vn 0 0 1
vn 0 0 1
vn 0 0 1
vn 0 0 1
vn 0 -0.5846094 -0.8113149
vn 0 -0.5846094 -0.8113149
vn 0 -0.5846094 -0.8113149
vn 0 -0.5846094 -0.8113149
vn -0.584605 0 -0.8113181
vn -0.584605 0 -0.8113181
vn -0.584605 0 -0.8113181
vn -0.584605 0 -0.8113181
vn 0 0.5846091 -0.8113151
vn 0 0.5846091 -0.8113151
vn 0 0.5846091 -0.8113151
vn 0 0.5846091 -0.8113151
vn 0.5846072 0 -0.8113164
vn 0.5846072 0 -0.8113164
vn 0.5846072 0 -0.8113164
vn 0.5846072 0 -0.8113164
vn 0 -1 0
vn 0 -1 0
vn 0 -1 0
vn 0 -1 0
vn -1 0 0
vn -1 0 0
vn -1 0 0
vn -1 0 0
vn 0 1 0
vn 0 1 0
vn 0 1 0
vn 0 1 0
vn 1 0 0
vn 1 0 0
vn 1 0 0
vn 1 0 0
vn 0 -0.5383577 -0.8427165
vn 0 -0.5383577 -0.8427165
vn 0 -0.5383577 -0.8427165
vn 0 -0.5383577 -0.8427165
vn -0.5383689 0 -0.8427093
vn -0.5383689 0 -0.8427093
vn -0.5383689 0 -0.8427093
vn -0.5383689 0 -0.8427093
vn 0 0.538358 -0.8427163
vn 0 0.538358 -0.8427163
vn 0 0.538358 -0.8427163
vn 0 0.538358 -0.8427163
vn 0.5383614 0 -0.8427141
vn 0.5383614 0 -0.8427141
vn 0.5383614 0 -0.8427141
vn 0.5383614 0 -0.8427141
vn -0.785428 0 0.618953
vn -0.785428 0 0.618953
vn -0.785428 0 0.618953
vn -0.785428 0 0.618953
vn 0.7854275 0 0.6189536
vn 0.7854275 0 0.6189536
vn 0.7854275 0 0.6189536
vn 0.7854275 0 0.6189536
vn 0 1 0
vn 0 1 0
vn 0 1 0
vn 0 1 0
vn 1 0 0
vn 1 0 0
vn 1 0 0
vn 1 0 0
vn 0 -1 0
vn 0 -1 0
vn 0 -1 0
vn 0 -1 0
vn -1 0 0
vn -1 0 0
vn -1 0 0
vn -1 0 0
vn 0 1 0
vn 0 1 0
vn 0 1 0
vn 0 1 0
vn 1 0 0
vn 1 0 0
vn 1 0 0
vn 1 0 0
vn 0 -1 0
vn 0 -1 0
vn 0 -1 0
vn 0 -1 0
vn -1 0 0
vn -1 0 0
vn -1 0 0
vn -1 0 0
vn 0 0.9536214 -0.3010086
vn 0 0.9536214 -0.3010086
vn 0 0.9536214 -0.3010086
vn 0 0.9536214 -0.3010086
vn 0 0.6762375 0.7366837
vn 0 0.6762375 0.7366837
vn 0 0.6762375 0.7366837
vn 0 0.6762375 0.7366837
vn 0.6513107 0 0.7588111
vn 0.6513107 0 0.7588111
vn 0.6513107 0 0.7588111
vn 0.6513107 0 0.7588111
vn 0.9474716 0 -0.3198401
vn 0.9474716 0 -0.3198401
vn 0.9474716 0 -0.3198401
vn 0.9474716 0 -0.3198401
vn 0 -0.6762374 0.7366837
vn 0 -0.6762374 0.7366837
vn 0 -0.6762374 0.7366837
vn 0 -0.6762374 0.7366837
vn 0 -0.9536214 -0.3010088
vn 0 -0.9536214 -0.3010088
vn 0 -0.9536214 -0.3010088
vn 0 -0.9536214 -0.3010088
vn -0.6513138 0 0.7588085
vn -0.6513138 0 0.7588085
vn -0.6513138 0 0.7588085
vn -0.6513138 0 0.7588085
vn -0.9474724 0 -0.3198375
vn -0.9474724 0 -0.3198375
vn -0.9474724 0 -0.3198375
vn -0.9474724 0 -0.3198375
vn 0.2026029 -0.9763321 0.07568201
vn 0.2026029 -0.9763321 0.07568201
vn 0.2026029 -0.9763321 0.07568201
vn 0.2026029 -0.9763321 0.07568201
vn 0.01562445 0 0.9998779
vn 0.01562445 0 0.9998779
vn 0.01562445 0 0.9998779
vn 0.01562445 0 0.9998779
vn 0 0.9357414 -0.3526868
vn 0 0.9185186 -0.3953779
vn 0 0.9357414 -0.3526868
vn 0 0.9509813 -0.3092484
vn 0 0.9509813 -0.3092484
vn 0 -0.9385796 -0.3450629
vn 0 -0.9385796 -0.3450629
vn 0 -0.9385796 -0.3450629
vn 0 -0.9385796 -0.3450629
vn 0 -0.9385796 -0.3450629
vn -0.01562425 0 0.9998779
vn -0.01562425 0 0.9998779
vn -0.01562425 0 0.9998779
vn -0.01562425 0 0.9998779
vn -0.7950388 -0.08658146 -0.6003474
vn -0.7950388 -0.08658146 -0.6003474
vn -0.7950388 -0.08658146 -0.6003474
vn -0.7950388 -0.08658146 -0.6003474
vn -0.9980164 0 -0.0629551
vn -0.9980164 0 -0.0629551
vn -0.9980164 0 -0.0629551
vn -0.9980164 0 -0.0629551
vn -0.0002798662 -0.2992411 -0.9541774
vn -0.0002798662 -0.2992411 -0.9541774
vn -0.0002798662 -0.2992411 -0.9541774
vn -0.0002798662 -0.2992411 -0.9541774
vn 0.9980164 0 -0.06295525
vn 0.9980164 0 -0.06295525
vn 0.9980164 0 -0.06295525
vn 0.9980164 0 -0.06295525
vn 0.7543865 -0.09370033 -0.6497086
vn 0.7543865 -0.09370033 -0.6497086
vn 0.7543865 -0.09370033 -0.6497086
vn 0.7543865 -0.09370033 -0.6497086
vn -0.338072 0.9399762 -0.04639044
vn -0.3290891 0.9424313 -0.05936123
vn -0.3495366 0.9347591 -0.06363662
vn -0.3425348 0.9386576 -0.03989518
vn -0.3146859 0.9491219 -0.01184317
vn -0.2108504 -0.9746674 0.07460384
vn -0.2108504 -0.9746674 0.07460384
vn -0.2108504 -0.9746674 0.07460384
vn -0.2108504 -0.9746674 0.07460384
vn 0 -0.9594157 0.2819958
vn 0 -0.9594157 0.2819958
vn 0 -0.9594157 0.2819958
vn 0 -0.9594157 0.2819958
g SM_Item_Garden_Trowel_01_0
f 3/3/3 2/2/2 1/1/1
f 6/6/6 5/5/5 4/4/4
f 9/9/9 8/8/8 7/7/7
f 12/12/12 11/11/11 10/10/10
f 10/10/10 14/14/14 13/13/13
f 13/13/13 15/15/15 10/10/10
f 18/18/18 17/17/17 16/16/16
f 21/21/21 20/20/20 19/19/19
f 24/24/24 23/23/23 22/22/22
f 27/27/27 26/26/26 25/25/25
f 30/30/30 29/29/29 28/28/28
f 33/33/33 32/32/32 31/31/31
f 34/34/34 33/33/33 31/31/31
f 37/37/37 36/36/36 35/35/35
f 38/38/38 37/37/37 35/35/35
f 41/41/41 40/40/40 39/39/39
f 42/42/42 41/41/41 39/39/39
f 45/45/45 44/44/44 43/43/43
f 46/46/46 45/45/45 43/43/43
f 49/49/49 48/48/48 47/47/47
f 50/50/50 49/49/49 47/47/47
f 53/53/53 52/52/52 51/51/51
f 54/54/54 53/53/53 51/51/51
f 57/57/57 56/56/56 55/55/55
f 58/58/58 57/57/57 55/55/55
f 61/61/61 60/60/60 59/59/59
f 62/62/62 61/61/61 59/59/59
f 65/65/65 64/64/64 63/63/63
f 66/66/66 65/65/65 63/63/63
f 69/69/69 68/68/68 67/67/67
f 70/70/70 69/69/69 67/67/67
f 73/73/73 72/72/72 71/71/71
f 74/74/74 73/73/73 71/71/71
f 77/77/77 76/76/76 75/75/75
f 78/78/78 77/77/77 75/75/75
f 81/81/81 80/80/80 79/79/79
f 82/82/82 81/81/81 79/79/79
f 85/85/85 84/84/84 83/83/83
f 86/86/86 85/85/85 83/83/83
f 89/89/89 88/88/88 87/87/87
f 90/90/90 89/89/89 87/87/87
f 93/93/93 92/92/92 91/91/91
f 94/94/94 93/93/93 91/91/91
f 97/97/97 96/96/96 95/95/95
f 98/98/98 97/97/97 95/95/95
f 101/101/101 100/100/100 99/99/99
f 102/102/102 101/101/101 99/99/99
f 105/105/105 104/104/104 103/103/103
f 106/106/106 105/105/105 103/103/103
f 109/109/109 108/108/108 107/107/107
f 110/110/110 109/109/109 107/107/107
f 113/113/113 112/112/112 111/111/111
f 114/114/114 113/113/113 111/111/111
f 117/117/117 116/116/116 115/115/115
f 118/118/118 117/117/117 115/115/115
f 121/121/121 120/120/120 119/119/119
f 122/122/122 121/121/121 119/119/119
f 125/125/125 124/124/124 123/123/123
f 126/126/126 125/125/125 123/123/123
f 129/129/129 128/128/128 127/127/127
f 130/130/130 129/129/129 127/127/127
f 133/133/133 132/132/132 131/131/131
f 134/134/134 133/133/133 131/131/131
f 137/137/137 136/136/136 135/135/135
f 138/138/138 137/137/137 135/135/135
f 141/141/141 140/140/140 139/139/139
f 142/142/142 141/141/141 139/139/139
f 145/145/145 144/144/144 143/143/143
f 146/146/146 145/145/145 143/143/143
f 149/149/149 148/148/148 147/147/147
f 150/150/150 149/149/149 147/147/147
f 153/153/153 152/152/152 151/151/151
f 154/154/154 153/153/153 151/151/151
f 157/157/157 156/156/156 155/155/155
f 158/158/158 157/157/157 155/155/155
f 161/161/161 160/160/160 159/159/159
f 162/162/162 161/161/161 159/159/159
f 165/165/165 164/164/164 163/163/163
f 166/166/166 165/165/165 163/163/163
f 169/169/169 168/168/168 167/167/167
f 170/170/170 169/169/169 167/167/167
f 173/173/173 172/172/172 171/171/171
f 174/174/174 173/173/173 171/171/171
f 177/177/177 176/176/176 175/175/175
f 178/178/178 177/177/177 175/175/175
f 181/181/181 180/180/180 179/179/179
f 181/181/181 179/179/179 182/182/182
f 183/183/183 181/181/181 182/182/182
f 186/186/186 185/185/185 184/184/184
f 187/187/187 186/186/186 184/184/184
f 187/187/187 188/188/188 186/186/186
f 191/191/191 190/190/190 189/189/189
f 192/192/192 191/191/191 189/189/189
f 195/195/195 194/194/194 193/193/193
f 196/196/196 195/195/195 193/193/193
f 199/199/199 198/198/198 197/197/197
f 200/200/200 199/199/199 197/197/197
f 203/203/203 202/202/202 201/201/201
f 204/204/204 203/203/203 201/201/201
f 207/207/207 206/206/206 205/205/205
f 208/208/208 207/207/207 205/205/205
f 211/211/211 210/210/210 209/209/209
f 212/212/212 211/211/211 209/209/209
f 215/215/215 214/214/214 213/213/213
f 213/213/213 216/216/216 215/215/215
f 213/213/213 217/217/217 216/216/216
f 220/220/220 219/219/219 218/218/218
f 221/221/221 220/220/220 218/218/218
f 224/224/224 223/223/223 222/222/222
f 225/225/225 224/224/224 222/222/222
