g SM_Item_Cup_01
v 0.01204949 0.1250572 -0.05982424
v -0.01204949 0.1250572 -0.05982424
v -0.01204948 0.08052561 -0.1107446
v 0.01204948 0.08052561 -0.1107446
v 0.01204954 0.04029356 -0.09155267
v -0.01204953 0.04029356 -0.09155271
v -0.01204949 0.1218449 -0.09449752
v 0.01204948 0.1218449 -0.09449752
v 0.01204954 0.05841415 -0.08393259
v -0.01204953 0.05841415 -0.08393255
v -0.01204948 0.08077301 -0.09302059
v 0.01204948 0.08077297 -0.09302056
v -0.01204949 0.109543 -0.08183116
v 0.01204948 0.109543 -0.08183108
v -0.01204949 0.1104505 -0.05982424
v 0.01204949 0.1104505 -0.05982424
v 0.01204955 0.01918504 -0.05951916
v 0.01204954 0.04121875 -0.05951925
v -0.01204954 0.04121875 -0.05951925
v -0.01204955 0.01918504 -0.05951916
v -0.06955016 0 -1.907349E-08
v -0.03477509 0 0.0602322
v 0.03477507 0 0.06023221
v 0.06955016 0 9.536743E-09
v 0.03477508 0 -0.0602322
v -0.03477508 0 -0.0602322
v -0.06955016 0.1391003 -1.907349E-08
v -0.03477509 0.1391003 0.0602322
v 0.03477507 0.1391003 0.06023221
v 0.06955016 0.1391003 9.536743E-09
v 0.03477508 0.1391003 -0.0602322
v -0.03477508 0.1391003 -0.0602322
v -0.05007486 0.1391003 -9.536743E-09
v -0.02503744 0.1391003 0.04336609
v 0.02503742 0.1391003 0.0433661
v 0.05007486 0.1391003 4.768371E-09
v 0.02503743 0.1391003 -0.04336609
v -0.02503743 0.1391003 -0.0433661
v -0.05007486 0.01927076 -9.536743E-09
v -0.02503744 0.01927076 0.04336609
v 0.02503742 0.01927076 0.0433661
v 0.05007486 0.01927076 4.768371E-09
v 0.02503743 0.01927076 -0.04336609
v -0.02503743 0.01927076 -0.0433661
v 0.01204948 0.08077297 -0.09302056
v -0.01204948 0.08077301 -0.09302059
v 0.01204948 0.109543 -0.08183108
v -0.01204949 0.109543 -0.08183116
v 0.01204948 0.08052561 -0.1107446
v -0.01204948 0.08052561 -0.1107446
v 0.01204948 0.1218449 -0.09449752
v -0.01204949 0.1218449 -0.09449752
v -0.01204953 0.04029356 -0.09155271
v -0.01204948 0.08052561 -0.1107446
v -0.01204948 0.08077301 -0.09302059
v -0.01204953 0.05841415 -0.08393255
v 0.01204948 0.08052561 -0.1107446
v 0.01204954 0.04029356 -0.09155267
v 0.01204954 0.05841415 -0.08393259
v 0.01204948 0.08077297 -0.09302056
v -0.01204949 0.1218449 -0.09449752
v -0.01204949 0.109543 -0.08183116
v 0.01204948 0.1218449 -0.09449752
v 0.01204948 0.109543 -0.08183108
v -0.01204949 0.1250572 -0.05982424
v -0.01204949 0.1104505 -0.05982424
v -0.01204949 0.1250572 -0.05982424
v 0.01204949 0.1250572 -0.05982424
v 0.01204949 0.1104505 -0.05982424
v -0.01204949 0.1104505 -0.05982424
v 0.01204949 0.1250572 -0.05982424
v 0.01204949 0.1104505 -0.05982424
v 0.01204955 0.01918504 -0.05951916
v 0.01204954 0.04121875 -0.05951925
v 0.01204954 0.05841415 -0.08393259
v 0.01204954 0.04121875 -0.05951925
v -0.01204954 0.04121875 -0.05951925
v -0.01204953 0.05841415 -0.08393255
v -0.01204954 0.04121875 -0.05951925
v -0.01204955 0.01918504 -0.05951916
v -0.01204953 0.04029356 -0.09155271
v -0.01204955 0.01918504 -0.05951916
v 0.01204955 0.01918504 -0.05951916
v 0.01204954 0.04029356 -0.09155267
v -0.03477509 0 0.0602322
v -0.03477509 0.1391003 0.0602322
v 0.03477507 0 0.06023221
v 0.03477507 0.1391003 0.06023221
v 0.06955016 0 9.536743E-09
v 0.06955016 0.1391003 9.536743E-09
v 0.03477508 0 -0.0602322
v 0.03477508 0.1391003 -0.0602322
v -0.03477508 0 -0.0602322
v -0.03477508 0.1391003 -0.0602322
v -0.06955016 0.1391003 -1.907349E-08
v -0.06955016 0 -1.907349E-08
v 0.03477508 0 -0.0602322
v -0.03477508 0 -0.0602322
v -0.06955016 0 -1.907349E-08
v 0.06955016 0 9.536743E-09
v -0.03477509 0 0.0602322
v 0.03477507 0 0.06023221
v -0.06955016 0.1391003 -1.907349E-08
v -0.03477509 0.1391003 0.0602322
v 0.03477507 0.1391003 0.06023221
v 0.06955016 0.1391003 9.536743E-09
v 0.03477508 0.1391003 -0.0602322
v -0.03477508 0.1391003 -0.0602322
v -0.05007486 0.1391003 -9.536743E-09
v -0.05007486 0.01927076 -9.536743E-09
v -0.02503744 0.01927076 0.04336609
v -0.02503744 0.1391003 0.04336609
v -0.02503744 0.1391003 0.04336609
v -0.02503744 0.01927076 0.04336609
v 0.02503742 0.01927076 0.0433661
v 0.02503742 0.1391003 0.0433661
v 0.02503742 0.1391003 0.0433661
v 0.02503742 0.01927076 0.0433661
v 0.05007486 0.01927076 4.768371E-09
v 0.05007486 0.1391003 4.768371E-09
v 0.05007486 0.1391003 4.768371E-09
v 0.05007486 0.01927076 4.768371E-09
v 0.02503743 0.01927076 -0.04336609
v 0.02503743 0.1391003 -0.04336609
v 0.02503743 0.1391003 -0.04336609
v 0.02503743 0.01927076 -0.04336609
v -0.02503743 0.01927076 -0.0433661
v -0.02503743 0.1391003 -0.0433661
v -0.02503743 0.1391003 -0.0433661
v -0.02503743 0.01927076 -0.0433661
v -0.05007486 0.01927076 -9.536743E-09
v -0.05007486 0.1391003 -9.536743E-09
vt 0.2180769 0.2999406
vt 0.2181196 0.2998483
vt 0.2176481 0.300193
vt 0.2175989 0.3002887
vt 0.2177795 0.3006453
vt 0.2178254 0.3005449
vt 0.2177952 0.2998504
vt 0.2177476 0.2999423
vt 0.2178493 0.3004991
vt 0.2178944 0.3004003
vt 0.2178106 0.3002047
vt 0.2177638 0.3003009
vt 0.2179134 0.2999668
vt 0.2178677 0.3000603
vt 0.2181187 0.2999757
vt 0.2180762 0.3000696
vt 0.2180747 0.3008483
vt 0.2180758 0.3006645
vt 0.2181173 0.3005635
vt 0.218116 0.3007451
vt 0.2178004 0.3004995
vt 0.2180859 0.3006099
vt 0.2180459 0.3007868
vt 0.2176926 0.3008483
vt 0.217402 0.300724
vt 0.2174692 0.3005525
vt 0.2178205 0.2998483
vt 0.2181196 0.2999436
vt 0.2180793 0.3000969
vt 0.2177094 0.3001503
vt 0.2174045 0.3000424
vt 0.2174747 0.299894
vt 0.2178061 0.2998873
vt 0.218022 0.2999571
vt 0.21799 0.3000669
vt 0.2177262 0.3001046
vt 0.2175073 0.3000282
vt 0.2175549 0.2999209
vt 0.2177891 0.3004571
vt 0.2179964 0.3005365
vt 0.2179648 0.300661
vt 0.2177112 0.3007036
vt 0.2175011 0.3006172
vt 0.2175471 0.3004953
vt 0.2177638 0.3003009
vt 0.2178106 0.3002047
vt 0.2178677 0.3000603
vt 0.2179134 0.2999668
vt 0.2175989 0.3002887
vt 0.2176481 0.300193
vt 0.2177476 0.2999423
vt 0.2177952 0.2998504
vt 0.2178254 0.3005449
vt 0.2176481 0.300193
vt 0.2178106 0.3002047
vt 0.2178944 0.3004003
vt 0.2175989 0.3002887
vt 0.2177795 0.3006453
vt 0.2178493 0.3004991
vt 0.2177638 0.3003009
vt 0.2177952 0.2998504
vt 0.2179134 0.2999668
vt 0.2177476 0.2999423
vt 0.2178677 0.3000603
vt 0.2181196 0.2998483
vt 0.2181187 0.2999757
vt 0.2181196 0.2998483
vt 0.2180769 0.2999406
vt 0.2180762 0.3000696
vt 0.2181187 0.2999757
vt 0.2180769 0.2999406
vt 0.2180762 0.3000696
vt 0.2180747 0.3008483
vt 0.2180758 0.3006645
vt 0.2178493 0.3004991
vt 0.2180758 0.3006645
vt 0.2181173 0.3005635
vt 0.2178944 0.3004003
vt 0.2181173 0.3005635
vt 0.218116 0.3007451
vt 0.2178254 0.3005449
vt 0.218116 0.3007451
vt 0.2180747 0.3008483
vt 0.2177795 0.3006453
vt 0.2180859 0.3006099
vt 0.2181196 0.2999436
vt 0.2180459 0.3007868
vt 0.2180793 0.3000969
vt 0.2176926 0.3008483
vt 0.2177094 0.3001503
vt 0.217402 0.300724
vt 0.2174045 0.3000424
vt 0.2174692 0.3005525
vt 0.2174747 0.299894
vt 0.2178205 0.2998483
vt 0.2178004 0.3004995
vt 0.217402 0.300724
vt 0.2174692 0.3005525
vt 0.2178004 0.3004995
vt 0.2176926 0.3008483
vt 0.2180859 0.3006099
vt 0.2180459 0.3007868
vt 0.2178205 0.2998483
vt 0.2181196 0.2999436
vt 0.2180793 0.3000969
vt 0.2177094 0.3001503
vt 0.2174045 0.3000424
vt 0.2174747 0.299894
vt 0.2178061 0.2998873
vt 0.2177891 0.3004571
vt 0.2179964 0.3005365
vt 0.218022 0.2999571
vt 0.218022 0.2999571
vt 0.2179964 0.3005365
vt 0.2179648 0.300661
vt 0.21799 0.3000669
vt 0.21799 0.3000669
vt 0.2179648 0.300661
vt 0.2177112 0.3007036
vt 0.2177262 0.3001046
vt 0.2177262 0.3001046
vt 0.2177112 0.3007036
vt 0.2175011 0.3006172
vt 0.2175073 0.3000282
vt 0.2175073 0.3000282
vt 0.2175011 0.3006172
vt 0.2175471 0.3004953
vt 0.2175549 0.2999209
vt 0.2175549 0.2999209
vt 0.2175471 0.3004953
vt 0.2177891 0.3004571
vt 0.2178061 0.2998873
vn 0 0.9957359 -0.09224974
vn 0 0.9957359 -0.09224975
vn 0 -0.4305514 -0.9025661
vn 0 -0.4305514 -0.9025661
vn 0 -0.4305514 -0.9025661
vn 0 -0.4305514 -0.9025661
vn 0 0.3659353 -0.9306403
vn 0 0.3659353 -0.9306403
vn 0 0.3765451 0.9263983
vn 0 0.3765451 0.9263983
vn 0 0.3765451 0.9263983
vn 0 0.3765451 0.9263983
vn 0 -0.3624781 0.9319923
vn 0 -0.3624781 0.9319923
vn 0 -0.9991509 0.0412024
vn 0 -0.9991509 0.0412024
vn 0 0 1
vn 0 0 1
vn 0 0 1
vn 0 0 1
vn -0.8660255 0 0.4999998
vn -0.8660255 0 0.4999998
vn 0 0 1
vn 0.8660253 0 0.5000002
vn 0.8660254 0 -0.5
vn 0 0 -1
vn -0.8660255 0 0.4999998
vn -0.8660255 0 0.4999998
vn 0 0 1
vn 0.8660253 0 0.5000002
vn 0.8660254 0 -0.5
vn 0 0 -1
vn 0 1 0
vn 0 1 0
vn 0 1 0
vn 0 1 0
vn 0 1 0
vn 0 1 0
vn 0 1 0
vn 0 1 0
vn 0 1 0
vn 0 1 0
vn 0 1 0
vn 0 1 0
vn 0 -0.3624782 0.9319923
vn 0 -0.3624782 0.9319923
vn 0 -0.9991509 0.0412024
vn 0 -0.9991509 0.0412024
vn 0 0.3659353 -0.9306403
vn 0 0.3659353 -0.9306403
vn 0 0.9957359 -0.09224975
vn 0 0.9957359 -0.09224975
vn -1 0 0
vn -1 0 0
vn -1 0 0
vn -1 0 0
vn 1 0 0
vn 1 0 0
vn 1 0 0
vn 1 0 0
vn -1 0 0
vn -1 0 0
vn 1 0 0
vn 1 0 0
vn -1 0 0
vn -1 0 0
vn 0 0 1
vn 0 0 1
vn 0 0 1
vn 0 0 1
vn 1 0 0
vn 1 0 0
vn 1 0 0
vn 1 0 0
vn 0 0.8175596 0.5758439
vn 0 0.8175596 0.5758439
vn 0 0.8175596 0.5758439
vn 0 0.8175596 0.5758439
vn -1 0 0
vn -1 0 0
vn 0 -0.835012 -0.5502318
vn 0 -0.835012 -0.5502317
vn 0 -0.835012 -0.5502317
vn 0 -0.835012 -0.5502317
vn 0 0 1
vn 0 0 1
vn 0.8660253 0 0.5000002
vn 0.8660253 0 0.5000002
vn 0.8660254 0 -0.5
vn 0.8660254 0 -0.5
vn 0 0 -1
vn 0 0 -1
vn -0.8660253 0 -0.5000001
vn -0.8660253 0 -0.5000001
vn -0.8660253 0 -0.5000001
vn -0.8660253 0 -0.5000001
vn 0 -1 0
vn 0 -1 0
vn 0 -1 0
vn 0 -1 0
vn 0 -1 0
vn 0 -1 0
vn 0 1 0
vn 0 1 0
vn 0 1 0
vn 0 1 0
vn 0 1 0
vn 0 1 0
vn 0.8660254 0 -0.5
vn 0.8660254 0 -0.5
vn 0.8660254 0 -0.5
vn 0.8660254 0 -0.5
vn 0 0 -1
vn 0 0 -1
vn 0 0 -1
vn 0 0 -1
vn -0.8660253 0 -0.5000003
vn -0.8660253 0 -0.5000003
vn -0.8660253 0 -0.5000003
vn -0.8660253 0 -0.5000003
vn -0.8660253 0 0.5000001
vn -0.8660253 0 0.5000001
vn -0.8660253 0 0.5000001
vn -0.8660253 0 0.5000001
vn 0 0 1
vn 0 0 1
vn 0 0 1
vn 0 0 1
vn 0.8660253 0 0.5000002
vn 0.8660253 0 0.5000002
vn 0.8660253 0 0.5000002
vn 0.8660253 0 0.5000002
g SM_Item_Cup_01_0
f 11/11/11 10/10/10 9/9/9
f 12/12/12 11/11/11 9/9/9
f 13/13/13 46/46/46 45/45/45
f 14/14/14 13/13/13 45/45/45
f 15/15/15 48/48/48 47/47/47
f 16/16/16 15/15/15 47/47/47
f 3/3/3 4/4/4 5/5/5
f 6/6/6 3/3/3 5/5/5
f 7/7/7 8/8/8 49/49/49
f 50/50/50 7/7/7 49/49/49
f 2/2/2 1/1/1 51/51/51
f 52/52/52 2/2/2 51/51/51
f 19/19/19 20/20/20 17/17/17
f 18/18/18 19/19/19 17/17/17
f 66/66/66 65/65/65 61/61/61
f 62/62/62 66/66/66 61/61/61
f 62/62/62 61/61/61 54/54/54
f 55/55/55 62/62/62 54/54/54
f 55/55/55 54/54/54 53/53/53
f 56/56/56 55/55/55 53/53/53
f 53/53/53 80/80/80 56/56/56
f 80/80/80 79/79/79 56/56/56
f 69/69/69 68/68/68 67/67/67
f 70/70/70 69/69/69 67/67/67
f 72/72/72 64/64/64 71/71/71
f 64/64/64 63/63/63 71/71/71
f 64/64/64 60/60/60 63/63/63
f 60/60/60 57/57/57 63/63/63
f 60/60/60 59/59/59 57/57/57
f 59/59/59 58/58/58 57/57/57
f 59/59/59 74/74/74 58/58/58
f 74/74/74 73/73/73 58/58/58
f 77/77/77 76/76/76 75/75/75
f 78/78/78 77/77/77 75/75/75
f 83/83/83 82/82/82 81/81/81
f 84/84/84 83/83/83 81/81/81
f 28/28/28 27/27/27 21/21/21
f 22/22/22 28/28/28 21/21/21
f 29/29/29 86/86/86 85/85/85
f 23/23/23 29/29/29 85/85/85
f 30/30/30 88/88/88 87/87/87
f 24/24/24 30/30/30 87/87/87
f 31/31/31 90/90/90 89/89/89
f 25/25/25 31/31/31 89/89/89
f 32/32/32 92/92/92 91/91/91
f 26/26/26 32/32/32 91/91/91
f 95/95/95 94/94/94 93/93/93
f 96/96/96 95/95/95 93/93/93
f 99/99/99 98/98/98 97/97/97
f 97/97/97 100/100/100 99/99/99
f 100/100/100 101/101/101 99/99/99
f 100/100/100 102/102/102 101/101/101
f 43/43/43 44/44/44 39/39/39
f 39/39/39 42/42/42 43/43/43
f 39/39/39 40/40/40 42/42/42
f 40/40/40 41/41/41 42/42/42
f 111/111/111 110/110/110 109/109/109
f 112/112/112 111/111/111 109/109/109
f 115/115/115 114/114/114 113/113/113
f 116/116/116 115/115/115 113/113/113
f 119/119/119 118/118/118 117/117/117
f 120/120/120 119/119/119 117/117/117
f 123/123/123 122/122/122 121/121/121
f 124/124/124 123/123/123 121/121/121
f 127/127/127 126/126/126 125/125/125
f 128/128/128 127/127/127 125/125/125
f 131/131/131 130/130/130 129/129/129
f 132/132/132 131/131/131 129/129/129
f 34/34/34 33/33/33 103/103/103
f 104/104/104 34/34/34 103/103/103
f 103/103/103 33/33/33 108/108/108
f 35/35/35 34/34/34 104/104/104
f 33/33/33 38/38/38 108/108/108
f 105/105/105 35/35/35 104/104/104
f 108/108/108 38/38/38 107/107/107
f 36/36/36 35/35/35 105/105/105
f 38/38/38 37/37/37 107/107/107
f 106/106/106 36/36/36 105/105/105
f 107/107/107 37/37/37 106/106/106
f 37/37/37 36/36/36 106/106/106
