g SM_Item_BluePlate
v 0.1282239 0.04187601 -0.3898174
v 0.1311624 0.06506812 -0.3986981
v -0.1311624 0.06506812 -0.3986981
v -0.1282239 0.04187601 -0.3898174
v -0.1282239 0.04187601 -0.3898174
v -0.1311624 0.06506812 -0.3986981
v -0.316654 0.06506812 -0.2132065
v -0.3095598 0.04187601 -0.2084816
v -0.3095598 0.04187601 -0.2084816
v -0.316654 0.06506812 -0.2132065
v -0.316654 0.06506812 0.2085951
v -0.3095598 0.04187601 0.2038702
v -0.3095598 0.04187601 0.2038702
v -0.316654 0.06506812 0.2085951
v -0.1311624 0.06506812 0.3940867
v -0.1282239 0.04187601 0.3852061
v -0.1282239 0.04187601 0.3852061
v -0.1311624 0.06506812 0.3940867
v 0.1311624 0.06506812 0.3940869
v 0.1282239 0.04187601 0.3852062
v 0.1282239 0.04187601 0.3852062
v 0.1311624 0.06506812 0.3940869
v 0.3166541 0.06506812 0.2085951
v 0.3095599 0.04187601 0.2038702
v 0.3095599 0.04187601 0.2038702
v 0.3166541 0.06506812 0.2085951
v 0.3166541 0.06506812 -0.2132065
v 0.3095599 0.04187601 -0.2084815
v 0.3095599 0.04187601 -0.2084815
v 0.3166541 0.06506812 -0.2132065
v 0.1311624 0.06506812 -0.3986981
v 0.1282239 0.04187601 -0.3898174
v 0.184947 0.03454683 0.1395199
v 0.07660754 0.03454683 0.2642586
v -0.07660754 0.03454683 0.2642585
v -0.184947 0.03454683 0.1395199
v 0.184947 0.03454683 -0.1441311
v -0.184947 0.03454683 -0.1441311
v 0.07660754 0.03454683 -0.2688699
v -0.07660754 0.03454683 -0.2688699
v 0.3166541 0.06506812 0.2085951
v 0.244061 0.06506812 -0.1744293
v 0.3166541 0.06506812 -0.2132065
v 0.244061 0.06506812 0.169818
v 0.1311624 0.06506812 0.3940869
v 0.1010934 0.06506812 0.3212043
v -0.1311624 0.06506812 0.3940867
v -0.1010933 0.06506812 0.3212043
v -0.316654 0.06506812 0.2085951
v -0.244061 0.06506812 0.169818
v -0.316654 0.06506812 -0.2132065
v -0.244061 0.06506812 -0.1744293
v -0.1311624 0.06506812 -0.3986981
v -0.1010933 0.06506812 -0.3258156
v 0.1311624 0.06506812 -0.3986981
v 0.1010934 0.06506812 -0.3258156
v 0.3166541 0.06506812 -0.2132065
v 0.244061 0.06506812 -0.1744293
v 0.1010934 0.06506812 -0.3258156
v 0.07660754 0.03454683 -0.2688699
v -0.07660754 0.03454683 -0.2688699
v -0.1010933 0.06506812 -0.3258156
v -0.1010933 0.06506812 -0.3258156
v -0.07660754 0.03454683 -0.2688699
v -0.184947 0.03454683 -0.1441311
v -0.244061 0.06506812 -0.1744293
v -0.244061 0.06506812 -0.1744293
v -0.184947 0.03454683 -0.1441311
v -0.184947 0.03454683 0.1395199
v -0.244061 0.06506812 0.169818
v -0.244061 0.06506812 0.169818
v -0.184947 0.03454683 0.1395199
v -0.07660754 0.03454683 0.2642585
v -0.1010933 0.06506812 0.3212043
v -0.1010933 0.06506812 0.3212043
v -0.07660754 0.03454683 0.2642585
v 0.07660754 0.03454683 0.2642586
v 0.1010934 0.06506812 0.3212043
v 0.1010934 0.06506812 0.3212043
v 0.07660754 0.03454683 0.2642586
v 0.184947 0.03454683 0.1395199
v 0.244061 0.06506812 0.169818
v 0.244061 0.06506812 0.169818
v 0.184947 0.03454683 0.1395199
v 0.184947 0.03454683 -0.1441311
v 0.244061 0.06506812 -0.1744293
v 0.244061 0.06506812 -0.1744293
v 0.184947 0.03454683 -0.1441311
v 0.07660754 0.03454683 -0.2688699
v 0.1010934 0.06506812 -0.3258156
v 0.0942948 0 -0.2872787
v 0.1282239 0.04187601 -0.3898174
v -0.1282239 0.04187601 -0.3898174
v -0.0942948 0 -0.2872787
v -0.0942948 0 -0.2872787
v -0.1282239 0.04187601 -0.3898174
v -0.3095598 0.04187601 -0.2084816
v -0.2276478 0 -0.1539257
v -0.2276478 0 -0.1539257
v -0.3095598 0.04187601 -0.2084816
v -0.3095598 0.04187601 0.2038702
v -0.2276478 0 0.1493144
v -0.2276478 0 0.1493144
v -0.3095598 0.04187601 0.2038702
v -0.1282239 0.04187601 0.3852061
v -0.0942948 0 0.2826673
v -0.0942948 0 0.2826673
v -0.1282239 0.04187601 0.3852061
v 0.1282239 0.04187601 0.3852062
v 0.0942948 0 0.2826674
v 0.0942948 0 0.2826674
v 0.1282239 0.04187601 0.3852062
v 0.3095599 0.04187601 0.2038702
v 0.2276478 0 0.1493144
v 0.2276478 0 0.1493144
v 0.3095599 0.04187601 0.2038702
v 0.3095599 0.04187601 -0.2084815
v 0.2276478 0 -0.1539256
v 0.2276478 0 -0.1539256
v 0.3095599 0.04187601 -0.2084815
v 0.1282239 0.04187601 -0.3898174
v 0.0942948 0 -0.2872787
v -0.2276478 0 0.1493144
v -0.0942948 0 0.2826673
v 0.0942948 0 0.2826674
v 0.2276478 0 0.1493144
v -0.2276478 0 -0.1539257
v 0.2276478 0 -0.1539256
v 0.0942948 0 -0.2872787
v -0.0942948 0 -0.2872787
vt 0.3571528 0.4223063
vt 0.3571569 0.4222767
vt 0.3574487 0.422372
vt 0.3574373 0.4224001
vt 0.3574373 0.4224001
vt 0.3574487 0.422372
vt 0.3575716 0.4225553
vt 0.3575564 0.4225802
vt 0.3575564 0.4225802
vt 0.3575716 0.4225553
vt 0.3573303 0.4228424
vt 0.3573206 0.4228612
vt 0.3573206 0.4228612
vt 0.3573303 0.4228424
vt 0.3569693 0.4228885
vt 0.3569698 0.4229062
vt 0.3569698 0.4229062
vt 0.3569693 0.4228885
vt 0.3566483 0.4227604
vt 0.3566577 0.4227811
vt 0.3566577 0.4227811
vt 0.3566483 0.4227604
vt 0.3565716 0.4225547
vt 0.3565825 0.4225795
vt 0.3565825 0.4225795
vt 0.3565716 0.4225547
vt 0.3568507 0.4223095
vt 0.356854 0.4223386
vt 0.356854 0.4223386
vt 0.3568507 0.4223095
vt 0.3571569 0.4222767
vt 0.3571528 0.4223063
vt 0.2181239 0.3030621
vt 0.2181126 0.3032184
vt 0.2182674 0.3033193
vt 0.2184955 0.3032926
vt 0.2183646 0.3028776
vt 0.2187298 0.3030817
vt 0.2185633 0.3028573
vt 0.2187131 0.3029375
vt 0.3565716 0.4225547
vt 0.3569043 0.4223573
vt 0.3568507 0.4223095
vt 0.3566796 0.4225608
vt 0.3566483 0.4227604
vt 0.356737 0.4227235
vt 0.3569693 0.4228885
vt 0.3569822 0.4228194
vt 0.3573303 0.4228424
vt 0.3572612 0.4227791
vt 0.3575716 0.4225553
vt 0.3574622 0.4225492
vt 0.3574487 0.422372
vt 0.3573756 0.4224018
vt 0.3571569 0.4222767
vt 0.3571488 0.4223265
vt 0.3568507 0.4223095
vt 0.3569043 0.4223573
vt 0.2185839 0.3027826
vt 0.2185633 0.3028573
vt 0.2187131 0.3029375
vt 0.2187825 0.3028859
vt 0.2187825 0.3028859
vt 0.2187131 0.3029375
vt 0.2187298 0.3030817
vt 0.2188193 0.3030667
vt 0.2188193 0.3030667
vt 0.2187298 0.3030817
vt 0.2184955 0.3032926
vt 0.2185342 0.3033288
vt 0.2185342 0.3033288
vt 0.2184955 0.3032926
vt 0.2182674 0.3033193
vt 0.2182371 0.3033543
vt 0.2182371 0.3033543
vt 0.2182674 0.3033193
vt 0.2181126 0.3032184
vt 0.2180305 0.3032174
vt 0.2180305 0.3032174
vt 0.2181126 0.3032184
vt 0.2181239 0.3030621
vt 0.2180382 0.30302
vt 0.2180382 0.30302
vt 0.2181239 0.3030621
vt 0.2183646 0.3028776
vt 0.218334 0.3028008
vt 0.218334 0.3028008
vt 0.2183646 0.3028776
vt 0.2185633 0.3028573
vt 0.2185839 0.3027826
vt 0.2185592 0.3028689
vt 0.2186045 0.3027543
vt 0.2188535 0.3028821
vt 0.2187416 0.3029671
vt 0.2187416 0.3029671
vt 0.2188535 0.3028821
vt 0.2189136 0.3031035
vt 0.2187792 0.303132
vt 0.2187792 0.303132
vt 0.2189136 0.3031035
vt 0.2185766 0.3034255
vt 0.2185321 0.3033611
vt 0.2185321 0.3033611
vt 0.2185766 0.3034255
vt 0.2182046 0.3034501
vt 0.2182701 0.3033781
vt 0.2182701 0.3033781
vt 0.2182046 0.3034501
vt 0.2179434 0.3032714
vt 0.2180812 0.3032529
vt 0.2180812 0.3032529
vt 0.2179434 0.3032714
vt 0.2179496 0.3030274
vt 0.2180786 0.303076
vt 0.2180786 0.303076
vt 0.2179496 0.3030274
vt 0.2183028 0.3027705
vt 0.218334 0.3028815
vt 0.218334 0.3028815
vt 0.2183028 0.3027705
vt 0.2186045 0.3027543
vt 0.2185592 0.3028689
vt 0.2185321 0.3033611
vt 0.2182701 0.3033781
vt 0.2180812 0.3032529
vt 0.2180786 0.303076
vt 0.2187792 0.303132
vt 0.218334 0.3028815
vt 0.2185592 0.3028689
vt 0.2187416 0.3029671
vn 0 -0.3575969 -0.933876
vn 0 -0.3575969 -0.933876
vn 0 -0.3575969 -0.933876
vn 0 -0.3575969 -0.933876
vn -0.6652327 -0.3390157 -0.6652322
vn -0.6652327 -0.3390157 -0.6652322
vn -0.6652327 -0.3390157 -0.6652322
vn -0.6652327 -0.3390157 -0.6652322
vn -0.9562623 -0.2925104 0
vn -0.9562623 -0.2925104 0
vn -0.9562623 -0.2925104 0
vn -0.9562623 -0.2925104 0
vn -0.6652325 -0.3390152 0.6652326
vn -0.6652325 -0.3390152 0.6652326
vn -0.6652325 -0.3390152 0.6652326
vn -0.6652325 -0.3390152 0.6652326
vn -3.427546E-07 -0.3575962 0.9338763
vn -3.427546E-07 -0.3575962 0.9338763
vn -3.427546E-07 -0.3575962 0.9338763
vn -3.427546E-07 -0.3575962 0.9338763
vn 0.6652327 -0.3390151 0.6652325
vn 0.6652327 -0.3390151 0.6652325
vn 0.6652327 -0.3390151 0.6652325
vn 0.6652327 -0.3390151 0.6652325
vn 0.9562627 -0.2925094 0
vn 0.9562627 -0.2925094 0
vn 0.9562627 -0.2925094 0
vn 0.9562627 -0.2925094 0
vn 0.6652322 -0.3390164 -0.6652322
vn 0.6652322 -0.3390164 -0.6652322
vn 0.6652322 -0.3390164 -0.6652322
vn 0.6652322 -0.3390164 -0.6652322
vn 0 1 0
vn 0 1 0
vn 0 1 0
vn 0 1 0
vn 0 1 0
vn 0 1 0
vn 0 1 0
vn 0 1 0
vn 0 1 0
vn 0 1 0
vn 0 1 0
vn 0 1 0
vn 0 1 0
vn 0 1 0
vn 0 1 0
vn 0 1 0
vn 0 1 0
vn 0 1 0
vn 0 1 0
vn 0 1 0
vn 0 1 0
vn 0 1 0
vn 0 1 0
vn 0 1 0
vn 0 1 0
vn 0 1 0
vn 0 0.8813853 0.472398
vn 0 0.8813853 0.472398
vn 0 0.8813853 0.472398
vn 0 0.8813853 0.472398
vn 0.3340981 0.8921435 0.3040696
vn 0.3340981 0.8921435 0.3040696
vn 0.3340981 0.8921435 0.3040696
vn 0.3340981 0.8921435 0.3040696
vn 0.4587717 0.8885543 0
vn 0.4587717 0.8885543 0
vn 0.4587717 0.8885543 0
vn 0.4587717 0.8885543 0
vn 0.3340981 0.8921435 -0.3040696
vn 0.3340981 0.8921435 -0.3040696
vn 0.3340981 0.8921435 -0.3040696
vn 0.3340981 0.8921435 -0.3040696
vn 0 0.8813857 -0.4723974
vn 0 0.8813857 -0.4723974
vn 0 0.8813857 -0.4723974
vn 0 0.8813857 -0.4723974
vn -0.334098 0.8921436 -0.3040694
vn -0.334098 0.8921436 -0.3040694
vn -0.334098 0.8921436 -0.3040694
vn -0.334098 0.8921436 -0.3040694
vn -0.4587713 0.8885543 0
vn -0.4587713 0.8885543 0
vn -0.4587713 0.8885543 0
vn -0.4587713 0.8885543 0
vn -0.334098 0.8921436 0.3040694
vn -0.334098 0.8921436 0.3040694
vn -0.334098 0.8921436 0.3040694
vn -0.334098 0.8921436 0.3040694
vn 0 -0.9257735 -0.3780783
vn 0 -0.9257735 -0.3780783
vn 0 -0.9257735 -0.3780783
vn 0 -0.9257735 -0.3780783
vn -0.2814932 -0.9173458 -0.2814932
vn -0.2814932 -0.9173458 -0.2814932
vn -0.2814932 -0.9173458 -0.2814932
vn -0.2814932 -0.9173458 -0.2814932
vn -0.4551962 -0.8903912 0
vn -0.4551962 -0.8903912 0
vn -0.4551962 -0.8903912 0
vn -0.4551962 -0.8903912 0
vn -0.2814931 -0.9173458 0.2814932
vn -0.2814931 -0.9173458 0.2814932
vn -0.2814931 -0.9173458 0.2814932
vn -0.2814931 -0.9173458 0.2814932
vn -1.791682E-07 -0.9257736 0.3780784
vn -1.791682E-07 -0.9257736 0.3780784
vn -1.791682E-07 -0.9257736 0.3780784
vn -1.791682E-07 -0.9257736 0.3780784
vn 0.2814932 -0.9173457 0.2814932
vn 0.2814932 -0.9173457 0.2814932
vn 0.2814932 -0.9173457 0.2814932
vn 0.2814932 -0.9173457 0.2814932
vn 0.4551956 -0.8903914 0
vn 0.4551956 -0.8903914 0
vn 0.4551956 -0.8903914 0
vn 0.4551956 -0.8903914 0
vn 0.2814931 -0.9173458 -0.2814931
vn 0.2814931 -0.9173458 -0.2814931
vn 0.2814931 -0.9173458 -0.2814931
vn 0.2814931 -0.9173458 -0.2814931
vn 0 -1 0
vn 0 -1 0
vn 0 -1 0
vn 0 -1 0
vn 0 -1 0
vn 0 -1 0
vn 0 -1 0
vn 0 -1 0
g SM_Item_BluePlate_0
f 3/3/3 2/2/2 1/1/1
f 4/4/4 3/3/3 1/1/1
f 7/7/7 6/6/6 5/5/5
f 8/8/8 7/7/7 5/5/5
f 11/11/11 10/10/10 9/9/9
f 12/12/12 11/11/11 9/9/9
f 15/15/15 14/14/14 13/13/13
f 16/16/16 15/15/15 13/13/13
f 19/19/19 18/18/18 17/17/17
f 20/20/20 19/19/19 17/17/17
f 23/23/23 22/22/22 21/21/21
f 24/24/24 23/23/23 21/21/21
f 27/27/27 26/26/26 25/25/25
f 28/28/28 27/27/27 25/25/25
f 31/31/31 30/30/30 29/29/29
f 32/32/32 31/31/31 29/29/29
f 35/35/35 34/34/34 33/33/33
f 36/36/36 35/35/35 33/33/33
f 36/36/36 33/33/33 37/37/37
f 38/38/38 36/36/36 37/37/37
f 38/38/38 37/37/37 39/39/39
f 40/40/40 38/38/38 39/39/39
f 43/43/43 42/42/42 41/41/41
f 42/42/42 44/44/44 41/41/41
f 41/41/41 44/44/44 45/45/45
f 44/44/44 46/46/46 45/45/45
f 45/45/45 46/46/46 47/47/47
f 46/46/46 48/48/48 47/47/47
f 47/47/47 48/48/48 49/49/49
f 48/48/48 50/50/50 49/49/49
f 49/49/49 50/50/50 51/51/51
f 50/50/50 52/52/52 51/51/51
f 51/51/51 52/52/52 53/53/53
f 52/52/52 54/54/54 53/53/53
f 53/53/53 54/54/54 55/55/55
f 54/54/54 56/56/56 55/55/55
f 55/55/55 56/56/56 57/57/57
f 56/56/56 58/58/58 57/57/57
f 61/61/61 60/60/60 59/59/59
f 62/62/62 61/61/61 59/59/59
f 65/65/65 64/64/64 63/63/63
f 66/66/66 65/65/65 63/63/63
f 69/69/69 68/68/68 67/67/67
f 70/70/70 69/69/69 67/67/67
f 73/73/73 72/72/72 71/71/71
f 74/74/74 73/73/73 71/71/71
f 77/77/77 76/76/76 75/75/75
f 78/78/78 77/77/77 75/75/75
f 81/81/81 80/80/80 79/79/79
f 82/82/82 81/81/81 79/79/79
f 85/85/85 84/84/84 83/83/83
f 86/86/86 85/85/85 83/83/83
f 89/89/89 88/88/88 87/87/87
f 90/90/90 89/89/89 87/87/87
f 93/93/93 92/92/92 91/91/91
f 94/94/94 93/93/93 91/91/91
f 97/97/97 96/96/96 95/95/95
f 98/98/98 97/97/97 95/95/95
f 101/101/101 100/100/100 99/99/99
f 102/102/102 101/101/101 99/99/99
f 105/105/105 104/104/104 103/103/103
f 106/106/106 105/105/105 103/103/103
f 109/109/109 108/108/108 107/107/107
f 110/110/110 109/109/109 107/107/107
f 113/113/113 112/112/112 111/111/111
f 114/114/114 113/113/113 111/111/111
f 117/117/117 116/116/116 115/115/115
f 118/118/118 117/117/117 115/115/115
f 121/121/121 120/120/120 119/119/119
f 122/122/122 121/121/121 119/119/119
f 125/125/125 124/124/124 123/123/123
f 126/126/126 125/125/125 123/123/123
f 126/126/126 123/123/123 127/127/127
f 128/128/128 126/126/126 127/127/127
f 128/128/128 127/127/127 129/129/129
f 127/127/127 130/130/130 129/129/129
