g SM_Item_Bread_01
v -0.08316223 -0.006650438 -0.1078839
v -0.07638733 -0.006650438 -0.1119122
v -0.07638733 0.01526265 -0.1119128
v -0.08316223 0.01526265 -0.1078833
v -0.004622192 -0.006650429 -0.1772144
v 0.02251098 -0.006650429 -0.1859515
v 0.02251098 0.01526264 -0.1859509
v -0.004622192 0.01526264 -0.1772144
v 0.06714355 -0.006650438 -0.1119122
v 0.07391968 -0.006650438 -0.1078839
v 0.07391968 0.01526265 -0.1078845
v 0.06714355 0.01526265 -0.1119128
v 0.0661499 -0.006650436 -0.008103638
v -0.07539368 -0.006650436 -0.008103638
v -0.07539368 0.01526265 -0.008103638
v 0.0661499 0.01526265 -0.008103638
v 0.08419739 -0.006650436 -0.02509582
v 0.0661499 -0.006650436 -0.008103638
v 0.0661499 0.01526265 -0.008103638
v 0.08419739 0.01526265 -0.02509582
v -0.09344055 0.01526265 -0.02509582
v -0.07539368 0.01526265 -0.008103638
v -0.07539368 -0.006650436 -0.008103638
v -0.09344055 -0.006650436 -0.02509582
v 0.07964417 -0.006650438 -0.118371
v 0.06714355 -0.006650438 -0.1119122
v 0.06714355 0.01526265 -0.1119128
v 0.07964417 0.01526265 -0.1183704
v -0.07638733 -0.006650438 -0.1119122
v -0.08888855 -0.006650438 -0.118371
v -0.08888855 0.01526265 -0.1183704
v -0.07638733 0.01526265 -0.1119128
v 0.07391968 -0.006650438 -0.1078839
v 0.08419739 -0.006650436 -0.02509582
v 0.08419739 0.01526265 -0.02509582
v 0.07391968 0.01526265 -0.1078845
v -0.09344055 -0.006650436 -0.02509582
v -0.08316223 -0.006650438 -0.1078839
v -0.08316223 0.01526265 -0.1078833
v -0.09344055 0.01526265 -0.02509582
v 0.08644348 -0.006650429 -0.1551422
v 0.07964417 -0.006650438 -0.118371
v 0.07964417 0.01526265 -0.1183704
v 0.08644348 0.01526264 -0.1551416
v -0.08888855 -0.006650438 -0.118371
v -0.09568726 -0.006650429 -0.1551422
v -0.09568726 0.01526264 -0.1551416
v -0.08888855 0.01526265 -0.1183704
v 0.07502502 -0.006650429 -0.1755731
v 0.08644348 -0.006650429 -0.1551422
v 0.08644348 0.01526264 -0.1551416
v 0.07502502 0.01526264 -0.1755725
v -0.09568726 -0.006650429 -0.1551422
v -0.08426879 -0.006650429 -0.1755731
v -0.08426879 0.01526264 -0.1755725
v -0.09568726 0.01526264 -0.1551416
v -0.08426879 -0.006650429 -0.1755731
v -0.03175537 -0.006650429 -0.1859515
v -0.03175537 0.01526264 -0.1859509
v -0.08426879 0.01526264 -0.1755725
v -0.03175537 -0.006650429 -0.1859515
v -0.004622192 -0.006650429 -0.1772144
v -0.004622192 0.01526264 -0.1772144
v -0.03175537 0.01526264 -0.1859509
v 0.02251098 -0.006650429 -0.1859515
v 0.07502502 -0.006650429 -0.1755731
v 0.07502502 0.01526264 -0.1755725
v 0.02251098 0.01526264 -0.1859509
v 0.07124023 -0.006650429 -0.1704108
v 0.02294922 -0.006650429 -0.1790405
v -0.004622192 -0.006650429 -0.1704108
v 0.07977478 -0.006650429 -0.1541058
v 0.05996094 -0.006650438 -0.1122449
v 0.0741217 -0.006650438 -0.1219299
v -0.06920532 -0.006650438 -0.1122449
v 0.06795716 -0.006650438 -0.1048035
v -0.08048401 -0.006650429 -0.1704108
v -0.03219299 -0.006650429 -0.1790405
v -0.08901855 -0.006650429 -0.1541058
v -0.08336548 -0.006650438 -0.1219299
v -0.07720093 -0.006650438 -0.1048035
v 0.07828979 -0.006650433 -0.02728393
v -0.08753417 -0.006650433 -0.02728393
v 0.06377564 -0.006650436 -0.01432739
v -0.07302002 -0.006650436 -0.01432739
v -0.08048401 0.01526264 -0.1704102
v -0.03219299 0.01526264 -0.1790405
v -0.004622192 0.01526264 -0.1704102
v -0.08901855 0.01526264 -0.1541064
v -0.06920532 0.01526265 -0.1122449
v -0.08336548 0.01526265 -0.1219299
v 0.05996094 0.01526265 -0.1122449
v -0.07720093 0.01526265 -0.1048035
v 0.07124023 0.01526264 -0.1704102
v 0.02294922 0.01526264 -0.1790405
v 0.07977478 0.01526264 -0.1541064
v 0.0741217 0.01526265 -0.1219299
v 0.06795716 0.01526265 -0.1048035
v -0.08753417 0.01526265 -0.02728393
v 0.07828979 0.01526265 -0.02728393
v -0.07302002 0.01526265 -0.01432739
v 0.06377564 0.01526265 -0.01432739
v -0.07720093 0.01526265 -0.1048035
v -0.08316223 0.01526265 -0.1078833
v -0.07638733 0.01526265 -0.1119128
v -0.06920532 0.01526265 -0.1122449
v -0.08753417 0.01526265 -0.02728393
v -0.08888855 0.01526265 -0.1183704
v -0.09344055 0.01526265 -0.02509582
v -0.08336548 0.01526265 -0.1219299
v -0.07302002 0.01526265 -0.01432739
v -0.09568726 0.01526264 -0.1551416
v -0.07539368 0.01526265 -0.008103638
v -0.08901855 0.01526264 -0.1541064
v 0.06377564 0.01526265 -0.01432739
v -0.08426879 0.01526264 -0.1755725
v 0.0661499 0.01526265 -0.008103638
v -0.08048401 0.01526264 -0.1704102
v 0.07828979 0.01526265 -0.02728393
v -0.03175537 0.01526264 -0.1859509
v 0.08419739 0.01526265 -0.02509582
v -0.03219299 0.01526264 -0.1790405
v 0.06795716 0.01526265 -0.1048035
v -0.004622192 0.01526264 -0.1772144
v 0.07391968 0.01526265 -0.1078845
v -0.004622192 0.01526264 -0.1704102
v 0.05996094 0.01526265 -0.1122449
v 0.02251098 0.01526264 -0.1859509
v 0.06714355 0.01526265 -0.1119128
v 0.02294922 0.01526264 -0.1790405
v 0.0741217 0.01526265 -0.1219299
v 0.07502502 0.01526264 -0.1755725
v 0.07964417 0.01526265 -0.1183704
v 0.07124023 0.01526264 -0.1704102
v 0.07977478 0.01526264 -0.1541064
v 0.08644348 0.01526264 -0.1551416
v -0.06920532 -0.006650438 -0.1122449
v -0.07638733 -0.006650438 -0.1119122
v -0.08316223 -0.006650438 -0.1078839
v -0.07720093 -0.006650438 -0.1048035
v -0.08336548 -0.006650438 -0.1219299
v -0.09344055 -0.006650436 -0.02509582
v -0.08888855 -0.006650438 -0.118371
v -0.08753417 -0.006650433 -0.02728393
v -0.08901855 -0.006650429 -0.1541058
v -0.07539368 -0.006650436 -0.008103638
v -0.09568726 -0.006650429 -0.1551422
v -0.07302002 -0.006650436 -0.01432739
v -0.08048401 -0.006650429 -0.1704108
v 0.0661499 -0.006650436 -0.008103638
v -0.08426879 -0.006650429 -0.1755731
v 0.06377564 -0.006650436 -0.01432739
v -0.03219299 -0.006650429 -0.1790405
v 0.08419739 -0.006650436 -0.02509582
v -0.03175537 -0.006650429 -0.1859515
v 0.07828979 -0.006650433 -0.02728393
v -0.004622192 -0.006650429 -0.1704108
v 0.07391968 -0.006650438 -0.1078839
v -0.004622192 -0.006650429 -0.1772144
v 0.06795716 -0.006650438 -0.1048035
v 0.02294922 -0.006650429 -0.1790405
v 0.06714355 -0.006650438 -0.1119122
v 0.02251098 -0.006650429 -0.1859515
v 0.05996094 -0.006650438 -0.1122449
v 0.07124023 -0.006650429 -0.1704108
v 0.07964417 -0.006650438 -0.118371
v 0.07502502 -0.006650429 -0.1755731
v 0.0741217 -0.006650438 -0.1219299
v 0.07977478 -0.006650429 -0.1541058
v 0.08644348 -0.006650429 -0.1551422
vt 0.0484314 0.3261719
vt 0.0484314 0.3261719
vt 0.0484314 0.3261719
vt 0.0484314 0.3261719
vt 0.0484314 0.3261719
vt 0.0484314 0.3261719
vt 0.0484314 0.3261719
vt 0.0484314 0.3261719
vt 0.0484314 0.3261719
vt 0.0484314 0.3261719
vt 0.0484314 0.3261719
vt 0.0484314 0.3261719
vt 0.0484314 0.3261719
vt 0.0484314 0.3261719
vt 0.0484314 0.3261719
vt 0.0484314 0.3261719
vt 0.0484314 0.3261719
vt 0.0484314 0.3261719
vt 0.0484314 0.3261719
vt 0.0484314 0.3261719
vt 0.0484314 0.3261719
vt 0.0484314 0.3261719
vt 0.0484314 0.3261719
vt 0.0484314 0.3261719
vt 0.0484314 0.3261719
vt 0.0484314 0.3261719
vt 0.0484314 0.3261719
vt 0.0484314 0.3261719
vt 0.0484314 0.3261719
vt 0.0484314 0.3261719
vt 0.0484314 0.3261719
vt 0.0484314 0.3261719
vt 0.0484314 0.3261719
vt 0.0484314 0.3261719
vt 0.0484314 0.3261719
vt 0.0484314 0.3261719
vt 0.0484314 0.3261719
vt 0.0484314 0.3261719
vt 0.0484314 0.3261719
vt 0.0484314 0.3261719
vt 0.0484314 0.3261719
vt 0.0484314 0.3261719
vt 0.0484314 0.3261719
vt 0.0484314 0.3261719
vt 0.0484314 0.3261719
vt 0.0484314 0.3261719
vt 0.0484314 0.3261719
vt 0.0484314 0.3261719
vt 0.0484314 0.3261719
vt 0.0484314 0.3261719
vt 0.0484314 0.3261719
vt 0.0484314 0.3261719
vt 0.0484314 0.3261719
vt 0.0484314 0.3261719
vt 0.0484314 0.3261719
vt 0.0484314 0.3261719
vt 0.0484314 0.3261719
vt 0.0484314 0.3261719
vt 0.0484314 0.3261719
vt 0.0484314 0.3261719
vt 0.0484314 0.3261719
vt 0.0484314 0.3261719
vt 0.0484314 0.3261719
vt 0.0484314 0.3261719
vt 0.0484314 0.3261719
vt 0.0484314 0.3261719
vt 0.0484314 0.3261719
vt 0.0484314 0.3261719
vt 0.0484314 0.3762207
vt 0.0484314 0.3762207
vt 0.0484314 0.3762207
vt 0.0484314 0.3762207
vt 0.0484314 0.3762207
vt 0.0484314 0.3762207
vt 0.0484314 0.3762207
vt 0.0484314 0.3762207
vt 0.0484314 0.3762207
vt 0.0484314 0.3762207
vt 0.0484314 0.3762207
vt 0.0484314 0.3762207
vt 0.0484314 0.3762207
vt 0.0484314 0.3762207
vt 0.0484314 0.3762207
vt 0.0484314 0.3762207
vt 0.0484314 0.3762207
vt 0.0484314 0.3762207
vt 0.0484314 0.3762207
vt 0.0484314 0.3762207
vt 0.0484314 0.3762207
vt 0.0484314 0.3762207
vt 0.0484314 0.3762207
vt 0.0484314 0.3762207
vt 0.0484314 0.3762207
vt 0.0484314 0.3762207
vt 0.0484314 0.3762207
vt 0.0484314 0.3762207
vt 0.0484314 0.3762207
vt 0.0484314 0.3762207
vt 0.0484314 0.3762207
vt 0.0484314 0.3762207
vt 0.0484314 0.3762207
vt 0.0484314 0.3762207
vt 0.0484314 0.3261719
vt 0.0484314 0.3261719
vt 0.0484314 0.3261719
vt 0.0484314 0.3261719
vt 0.0484314 0.3261719
vt 0.0484314 0.3261719
vt 0.0484314 0.3261719
vt 0.0484314 0.3261719
vt 0.0484314 0.3261719
vt 0.0484314 0.3261719
vt 0.0484314 0.3261719
vt 0.0484314 0.3261719
vt 0.0484314 0.3261719
vt 0.0484314 0.3261719
vt 0.0484314 0.3261719
vt 0.0484314 0.3261719
vt 0.0484314 0.3261719
vt 0.0484314 0.3261719
vt 0.0484314 0.3261719
vt 0.0484314 0.3261719
vt 0.0484314 0.3261719
vt 0.0484314 0.3261719
vt 0.0484314 0.3261719
vt 0.0484314 0.3261719
vt 0.0484314 0.3261719
vt 0.0484314 0.3261719
vt 0.0484314 0.3261719
vt 0.0484314 0.3261719
vt 0.0484314 0.3261719
vt 0.0484314 0.3261719
vt 0.0484314 0.3261719
vt 0.0484314 0.3261719
vt 0.0484314 0.3261719
vt 0.0484314 0.3261719
vt 0.0484314 0.3261719
vt 0.0484314 0.3261719
vt 0.0484314 0.3261719
vt 0.0484314 0.3261719
vt 0.0484314 0.3261719
vt 0.0484314 0.3261719
vt 0.0484314 0.3261719
vt 0.0484314 0.3261719
vt 0.0484314 0.3261719
vt 0.0484314 0.3261719
vt 0.0484314 0.3261719
vt 0.0484314 0.3261719
vt 0.0484314 0.3261719
vt 0.0484314 0.3261719
vt 0.0484314 0.3261719
vt 0.0484314 0.3261719
vt 0.0484314 0.3261719
vt 0.0484314 0.3261719
vt 0.0484314 0.3261719
vt 0.0484314 0.3261719
vt 0.0484314 0.3261719
vt 0.0484314 0.3261719
vt 0.0484314 0.3261719
vt 0.0484314 0.3261719
vt 0.0484314 0.3261719
vt 0.0484314 0.3261719
vt 0.0484314 0.3261719
vt 0.0484314 0.3261719
vt 0.0484314 0.3261719
vt 0.0484314 0.3261719
vt 0.0484314 0.3261719
vt 0.0484314 0.3261719
vt 0.0484314 0.3261719
vt 0.0484314 0.3261719
vn -0.5112305 0 -0.859375
vn -0.5112305 0 -0.859375
vn -0.5112305 0 -0.859375
vn -0.5112305 0 -0.859375
vn -0.3063965 1.323223E-05 -0.9516602
vn -0.3063965 1.323223E-05 -0.9516602
vn -0.3063965 1.323223E-05 -0.9516602
vn -0.3063965 1.323223E-05 -0.9516602
vn 0.5112305 -2.396107E-05 -0.859375
vn 0.5112305 -2.396107E-05 -0.859375
vn 0.5112305 -2.396107E-05 -0.859375
vn 0.5112305 -2.396107E-05 -0.859375
vn 0 0 1
vn 0 0 1
vn 0 0 1
vn 0 0 1
vn 0.6855469 0 0.7280273
vn 0.6855469 0 0.7280273
vn 0.6855469 0 0.7280273
vn 0.6855469 0 0.7280273
vn -0.6855469 0 0.7280273
vn -0.6855469 0 0.7280273
vn -0.6855469 0 0.7280273
vn -0.6855469 0 0.7280273
vn 0.4589844 0 0.8886719
vn 0.4589844 0 0.8886719
vn 0.4589844 0 0.8886719
vn 0.4589844 0 0.8886719
vn -0.4589844 0 0.8886719
vn -0.4589844 0 0.8886719
vn -0.4589844 0 0.8886719
vn -0.4589844 0 0.8886719
vn 0.9921875 0 -0.1231689
vn 0.9921875 0 -0.1231689
vn 0.9921875 0 -0.1231689
vn 0.9921875 0 -0.1231689
vn -0.9921875 0 -0.12323
vn -0.9921875 0 -0.12323
vn -0.9921875 0 -0.12323
vn -0.9921875 0 -0.12323
vn 0.9833984 0 0.1818848
vn 0.9833984 0 0.1818848
vn 0.9833984 0 0.1818848
vn 0.9833984 0 0.1818848
vn -0.9833984 0 0.1817627
vn -0.9833984 0 0.1817627
vn -0.9833984 0 0.1817627
vn -0.9833984 0 0.1817627
vn 0.8730469 1.358986E-05 -0.487793
vn 0.8730469 1.358986E-05 -0.487793
vn 0.8730469 1.358986E-05 -0.487793
vn 0.8730469 1.358986E-05 -0.487793
vn -0.8730469 1.358986E-05 -0.487793
vn -0.8730469 1.358986E-05 -0.487793
vn -0.8730469 1.358986E-05 -0.487793
vn -0.8730469 1.358986E-05 -0.487793
vn -0.1938477 2.735853E-05 -0.980957
vn -0.1938477 2.735853E-05 -0.980957
vn -0.1938477 2.735853E-05 -0.980957
vn -0.1938477 2.735853E-05 -0.980957
vn 0.3063965 1.323223E-05 -0.9516602
vn 0.3063965 1.323223E-05 -0.9516602
vn 0.3063965 1.323223E-05 -0.9516602
vn 0.3063965 1.323223E-05 -0.9516602
vn 0.1938477 2.735853E-05 -0.980957
vn 0.1938477 2.735853E-05 -0.980957
vn 0.1938477 2.735853E-05 -0.980957
vn 0.1938477 2.735853E-05 -0.980957
vn 0 -1 0
vn 0 -1 0
vn 0 -1 0
vn 0 -1 0
vn 0 -1 0
vn 0 -1 0
vn 0 -1 0
vn 0 -1 0
vn 0 -1 0
vn 0 -1 0
vn 0 -1 0
vn 0 -1 0
vn 0 -1 0
vn 0 -1 0
vn 0 -1 0
vn 0 -1 0
vn 0 -1 0
vn 0 1 0
vn 0 1 0
vn 0 1 0
vn 0 1 0
vn 0 1 0
vn 0 1 0
vn 0 1 0
vn 0 1 0
vn 0 1 0
vn 0 1 0
vn 0 1 0
vn 0 1 0
vn 0 1 0
vn 0 1 0
vn 0 1 0
vn 0 1 0
vn 0 1 0
vn 0 1 0
vn 0 1 0
vn 0 1 0
vn 0 1 0
vn 0 1 0
vn 0 1 0
vn 0 1 0
vn 0 1 0
vn 0 1 0
vn 0 1 0
vn 0 1 0
vn 0 1 0
vn 0 1 0
vn 0 1 0
vn 0 1 0
vn 0 1 0
vn 0 1 0
vn 0 1 0
vn 0 1 0
vn 0 1 0
vn 0 1 0
vn 0 1 0
vn 0 1 0
vn 0 1 0
vn 0 1 0
vn 0 1 0
vn 0 1 0
vn 0 1 0
vn 0 1 0
vn 0 1 0
vn 0 1 0
vn 0 1 0
vn 0 1 0
vn 0 1 0
vn 0 -1 0
vn 0 -1 0
vn 0 -1 0
vn 0 -1 0
vn 0 -1 0
vn 0 -1 0
vn 0 -1 0
vn 0 -1 0
vn 0 -1 0
vn 0 -1 0
vn 0 -1 0
vn 0 -1 0
vn 0 -1 0
vn 0 -1 0
vn 0 -1 0
vn 0 -1 0
vn 0 -1 0
vn 0 -1 0
vn 0 -1 0
vn 0 -1 0
vn 0 -1 0
vn 0 -1 0
vn 0 -1 0
vn 0 -1 0
vn 0 -1 0
vn 0 -1 0
vn 0 -1 0
vn 0 -1 0
vn 0 -1 0
vn 0 -1 0
vn 0 -1 0
vn 0 -1 0
vn 0 -1 0
vn 0 -1 0
g SM_Item_Bread_01_0
f 3/3/3 2/2/2 1/1/1
f 4/4/4 3/3/3 1/1/1
f 7/7/7 6/6/6 5/5/5
f 8/8/8 7/7/7 5/5/5
f 11/11/11 10/10/10 9/9/9
f 12/12/12 11/11/11 9/9/9
f 15/15/15 14/14/14 13/13/13
f 16/16/16 15/15/15 13/13/13
f 19/19/19 18/18/18 17/17/17
f 20/20/20 19/19/19 17/17/17
f 23/23/23 22/22/22 21/21/21
f 24/24/24 23/23/23 21/21/21
f 27/27/27 26/26/26 25/25/25
f 28/28/28 27/27/27 25/25/25
f 31/31/31 30/30/30 29/29/29
f 32/32/32 31/31/31 29/29/29
f 35/35/35 34/34/34 33/33/33
f 36/36/36 35/35/35 33/33/33
f 39/39/39 38/38/38 37/37/37
f 40/40/40 39/39/39 37/37/37
f 43/43/43 42/42/42 41/41/41
f 44/44/44 43/43/43 41/41/41
f 47/47/47 46/46/46 45/45/45
f 48/48/48 47/47/47 45/45/45
f 51/51/51 50/50/50 49/49/49
f 52/52/52 51/51/51 49/49/49
f 55/55/55 54/54/54 53/53/53
f 56/56/56 55/55/55 53/53/53
f 59/59/59 58/58/58 57/57/57
f 60/60/60 59/59/59 57/57/57
f 63/63/63 62/62/62 61/61/61
f 64/64/64 63/63/63 61/61/61
f 67/67/67 66/66/66 65/65/65
f 68/68/68 67/67/67 65/65/65
f 71/71/71 70/70/70 69/69/69
f 69/69/69 72/72/72 71/71/71
f 72/72/72 73/73/73 71/71/71
f 72/72/72 74/74/74 73/73/73
f 71/71/71 73/73/73 75/75/75
f 75/75/75 73/73/73 76/76/76
f 71/71/71 75/75/75 77/77/77
f 77/77/77 78/78/78 71/71/71
f 75/75/75 79/79/79 77/77/77
f 75/75/75 80/80/80 79/79/79
f 76/76/76 81/81/81 75/75/75
f 76/76/76 82/82/82 81/81/81
f 82/82/82 83/83/83 81/81/81
f 82/82/82 84/84/84 83/83/83
f 84/84/84 85/85/85 83/83/83
f 88/88/88 87/87/87 86/86/86
f 86/86/86 89/89/89 88/88/88
f 89/89/89 90/90/90 88/88/88
f 89/89/89 91/91/91 90/90/90
f 88/88/88 90/90/90 92/92/92
f 92/92/92 90/90/90 93/93/93
f 88/88/88 92/92/92 94/94/94
f 94/94/94 95/95/95 88/88/88
f 92/92/92 96/96/96 94/94/94
f 92/92/92 97/97/97 96/96/96
f 93/93/93 98/98/98 92/92/92
f 93/93/93 99/99/99 98/98/98
f 99/99/99 100/100/100 98/98/98
f 99/99/99 101/101/101 100/100/100
f 101/101/101 102/102/102 100/100/100
f 105/105/105 104/104/104 103/103/103
f 106/106/106 105/105/105 103/103/103
f 103/103/103 104/104/104 107/107/107
f 108/108/108 105/105/105 106/106/106
f 104/104/104 109/109/109 107/107/107
f 110/110/110 108/108/108 106/106/106
f 107/107/107 109/109/109 111/111/111
f 112/112/112 108/108/108 110/110/110
f 109/109/109 113/113/113 111/111/111
f 114/114/114 112/112/112 110/110/110
f 111/111/111 113/113/113 115/115/115
f 116/116/116 112/112/112 114/114/114
f 113/113/113 117/117/117 115/115/115
f 118/118/118 116/116/116 114/114/114
f 115/115/115 117/117/117 119/119/119
f 120/120/120 116/116/116 118/118/118
f 117/117/117 121/121/121 119/119/119
f 122/122/122 120/120/120 118/118/118
f 119/119/119 121/121/121 123/123/123
f 124/124/124 120/120/120 122/122/122
f 121/121/121 125/125/125 123/123/123
f 126/126/126 124/124/124 122/122/122
f 123/123/123 125/125/125 127/127/127
f 128/128/128 124/124/124 126/126/126
f 125/125/125 129/129/129 127/127/127
f 130/130/130 128/128/128 126/126/126
f 127/127/127 129/129/129 131/131/131
f 132/132/132 128/128/128 130/130/130
f 129/129/129 133/133/133 131/131/131
f 134/134/134 132/132/132 130/130/130
f 131/131/131 133/133/133 135/135/135
f 136/136/136 132/132/132 134/134/134
f 133/133/133 136/136/136 135/135/135
f 135/135/135 136/136/136 134/134/134
f 139/139/139 138/138/138 137/137/137
f 140/140/140 139/139/139 137/137/137
f 137/137/137 138/138/138 141/141/141
f 142/142/142 139/139/139 140/140/140
f 138/138/138 143/143/143 141/141/141
f 144/144/144 142/142/142 140/140/140
f 141/141/141 143/143/143 145/145/145
f 146/146/146 142/142/142 144/144/144
f 143/143/143 147/147/147 145/145/145
f 148/148/148 146/146/146 144/144/144
f 145/145/145 147/147/147 149/149/149
f 150/150/150 146/146/146 148/148/148
f 147/147/147 151/151/151 149/149/149
f 152/152/152 150/150/150 148/148/148
f 149/149/149 151/151/151 153/153/153
f 154/154/154 150/150/150 152/152/152
f 151/151/151 155/155/155 153/153/153
f 156/156/156 154/154/154 152/152/152
f 153/153/153 155/155/155 157/157/157
f 158/158/158 154/154/154 156/156/156
f 155/155/155 159/159/159 157/157/157
f 160/160/160 158/158/158 156/156/156
f 157/157/157 159/159/159 161/161/161
f 162/162/162 158/158/158 160/160/160
f 159/159/159 163/163/163 161/161/161
f 164/164/164 162/162/162 160/160/160
f 161/161/161 163/163/163 165/165/165
f 166/166/166 162/162/162 164/164/164
f 163/163/163 167/167/167 165/165/165
f 168/168/168 166/166/166 164/164/164
f 165/165/165 167/167/167 169/169/169
f 170/170/170 166/166/166 168/168/168
f 169/169/169 170/170/170 168/168/168
f 167/167/167 170/170/170 169/169/169
