g SM_Item_Mouthwash_01
v -0.01600384 0.3590738 -0.02695429
v 0.01600384 0.3590738 -0.02695429
v 0.02537949 0.3590738 0.0002564764
v -0.02537949 0.3590738 0.0002564764
v -0.01600384 0.3590738 0.02695429
v 0.01600384 0.3590738 0.02695429
v 0.0329945 0.1133718 -0.05460128
v 0.0439075 0.1765699 -0.0003373051
v 0.0329945 0.1765699 -0.05460128
v 0.0439075 0.1133718 -0.0003373051
v 0.03299451 0.1765699 0.05460127
v 0.03299451 0.1133718 0.05460127
v -0.02529418 0.08740382 0.06232394
v 0.02529418 0.1958991 0.06232394
v 0.02529418 0.08740382 0.06232394
v -0.02529418 0.1958991 0.06232394
v 0.02529418 0.08740382 0.06232394
v -0.03186906 0.07120355 0.0785242
v 0.03186907 0.07120355 0.07852419
v -0.03186906 0.009934435 0.0785242
v 0.03186907 0.009934435 0.07852419
v 0.03186907 0.2120994 0.07852419
v 0.02529418 0.1958991 0.06232394
v -0.03186906 0.2120994 0.0785242
v 0.03186907 0.2520674 0.07852419
v -0.03186906 0.2520674 0.0785242
v 0.01687056 0.2757009 0.06837968
v -0.01687056 0.2757009 0.06837968
v 0.02529418 0.08740382 -0.06232394
v 0.02529418 0.1958991 -0.06232394
v -0.02529418 0.1958991 -0.06232394
v -0.02529418 0.08740382 -0.06232394
v 0.02529418 0.1958991 -0.06232394
v -0.03186907 0.2120994 -0.07852419
v 0.03186906 0.2120994 -0.0785242
v -0.03186907 0.2520674 -0.07852419
v 0.03186906 0.2520674 -0.0785242
v -0.01687056 0.2757009 -0.06837968
v 0.01687056 0.2757009 -0.06837968
v 0.03186906 0.07120355 -0.0785242
v 0.02529418 0.08740382 -0.06232394
v -0.03186907 0.07120355 -0.07852419
v 0.03186906 0.009934435 -0.0785242
v -0.03186907 0.009934435 -0.07852419
v 0.02529418 0.1958991 -0.06232394
v 0.0439075 0.1958991 -0.0003850126
v 0.05532067 0.2120994 -0.0004850912
v 0.03186906 0.2120994 -0.0785242
v 0.05532067 0.2520674 -0.0004850912
v 0.03186906 0.2520674 -0.0785242
v 0.02928515 0.2757009 -0.0004224252
v 0.01687056 0.2757009 -0.06837968
v 0.03186907 0.2520674 0.07852419
v 0.03186907 0.2120994 0.07852419
v 0.0439075 0.1958991 -0.0003850126
v 0.02529418 0.1958991 0.06232394
v 0.01687056 0.2757009 0.06837968
v 0.01827759 0.2828322 0.0001847076
v 0.01152552 0.2828322 0.01941172
v 0.01152551 0.2828322 -0.01941172
v -0.01152552 0.2828322 -0.01941172
v -0.01687056 0.2757009 0.06837968
v -0.01687056 0.2757009 -0.06837968
v -0.01152551 0.2828322 0.01941172
v -0.01827759 0.2828322 0.0001847076
v -0.02928515 0.2757009 -0.0004224252
v -0.03186906 0.2520674 0.0785242
v -0.05532067 0.2520674 -0.0004850912
v -0.03186907 0.2520674 -0.07852419
v -0.03186906 0.2120994 0.0785242
v -0.05532067 0.2120994 -0.0004850912
v -0.03186907 0.2120994 -0.07852419
v -0.02529418 0.1958991 0.06232394
v -0.0439075 0.1958991 -0.0003850126
v -0.02529418 0.1958991 -0.06232394
v -0.02529418 0.08740382 0.06232394
v -0.0439075 0.08740382 -0.0003850126
v -0.02529418 0.08740382 -0.06232394
v -0.03186906 0.07120355 0.0785242
v -0.05532067 0.07120355 -0.0004850912
v -0.03186906 0.009934435 0.0785242
v -0.03186907 0.07120355 -0.07852419
v -0.05532067 0.009934435 -0.0004850912
v -0.03186907 0.009934435 -0.07852419
v 0.01687056 0 -0.06837968
v 0.05532067 0.009934435 -0.0004850912
v 0.03186906 0.009934435 -0.0785242
v 0.02928515 0 -0.0004224252
v 0.03186907 0.009934435 0.07852419
v 0.01687056 0 0.06837968
v -0.01687056 0 -0.06837968
v -0.03186907 0.009934435 -0.07852419
v 0.03186906 0.009934435 -0.0785242
v -0.02928515 0 -0.0004224252
v -0.03186907 0.009934435 -0.07852419
v -0.05532067 0.009934435 -0.0004850912
v -0.01687056 0 0.06837968
v -0.03186906 0.009934435 0.0785242
v 0.03186907 0.009934435 0.07852419
v -0.03186906 0.009934435 0.0785242
v 0.02529418 0.1958991 0.06232394
v 0.03299451 0.1133718 0.05460127
v 0.02529418 0.08740382 0.06232394
v 0.03299451 0.1765699 0.05460127
v 0.0439075 0.1765699 -0.0003373051
v 0.0439075 0.1958991 -0.0003850126
v 0.0329945 0.1765699 -0.05460128
v 0.0439075 0.1958991 -0.0003850126
v 0.02529418 0.08740382 -0.06232394
v 0.02529418 0.1958991 -0.06232394
v 0.0329945 0.1133718 -0.05460128
v 0.02529418 0.08740382 -0.06232394
v 0.0439075 0.1133718 -0.0003373051
v 0.0439075 0.08740382 -0.0003850126
v 0.02529418 0.08740382 0.06232394
v 0.03186906 0.07120355 -0.0785242
v 0.05532067 0.07120355 -0.0004850912
v 0.03186906 0.009934435 -0.0785242
v 0.03186907 0.07120355 0.07852419
v 0.05532067 0.009934435 -0.0004850912
v 0.03186907 0.009934435 0.07852419
v -0.01152552 0.2828322 -0.01941172
v -0.01152552 0.3006424 -0.01941172
v -0.01827759 0.3006424 0.0001847076
v -0.01827759 0.2828322 0.0001847076
v -0.01152551 0.2828322 0.01941172
v -0.01152552 0.3006424 0.01941172
v -0.01152551 0.2828322 0.01941172
v -0.01152552 0.3006424 0.01941172
v 0.01152552 0.3006424 0.01941172
v 0.01152552 0.2828322 0.01941172
v 0.01827759 0.2828322 0.0001847076
v 0.01152552 0.3006424 -0.01941172
v 0.01152551 0.2828322 -0.01941172
v 0.01827759 0.3006424 0.0001847076
v 0.01152552 0.2828322 0.01941172
v 0.01152552 0.3006424 0.01941172
v 0.01152551 0.2828322 -0.01941172
v 0.01152552 0.3006424 -0.01941172
v -0.01152552 0.3006424 -0.01941172
v -0.01152552 0.2828322 -0.01941172
v -0.01600384 0.3006424 -0.02695429
v -0.01600384 0.3590738 -0.02695429
v -0.02537949 0.3590738 0.0002564764
v -0.02537949 0.3006424 0.0002564764
v -0.01600384 0.3006424 0.02695429
v -0.01600384 0.3590738 0.02695429
v -0.01600384 0.3006424 0.02695429
v -0.01600384 0.3590738 0.02695429
v 0.01600384 0.3590738 0.02695429
v 0.01600384 0.3006424 0.02695429
v 0.02537949 0.3006424 0.0002564764
v 0.01600384 0.3590738 -0.02695429
v 0.01600384 0.3006424 -0.02695429
v 0.02537949 0.3590738 0.0002564764
v 0.01600384 0.3006424 0.02695429
v 0.01600384 0.3590738 0.02695429
v 0.01600384 0.3006424 -0.02695429
v 0.01600384 0.3590738 -0.02695429
v -0.01600384 0.3590738 -0.02695429
v -0.01600384 0.3006424 -0.02695429
v -0.01152552 0.3006424 0.01941172
v -0.01600384 0.3006424 0.02695429
v 0.01600384 0.3006424 0.02695429
v -0.02537949 0.3006424 0.0002564764
v 0.01152552 0.3006424 0.01941172
v -0.01827759 0.3006424 0.0001847076
v 0.02537949 0.3006424 0.0002564764
v -0.01152552 0.3006424 -0.01941172
v 0.01827759 0.3006424 0.0001847076
v -0.01600384 0.3006424 -0.02695429
v 0.01600384 0.3006424 -0.02695429
v 0.01152552 0.3006424 -0.01941172
vt 0.08104646 0.2524319
vt 0.08104646 0.2524319
vt 0.08104652 0.2524319
vt 0.08104652 0.2524319
vt 0.08104658 0.2524319
vt 0.08104658 0.2524319
vt 0.4213982 0.01050568
vt 0.4213982 0.01050568
vt 0.4213982 0.01050568
vt 0.4213982 0.01050568
vt 0.4213982 0.01050568
vt 0.4213982 0.01050568
vt 0.3071963 0.4913558
vt 0.3071963 0.4913558
vt 0.3071963 0.4913558
vt 0.3071963 0.4913558
vt 0.3071963 0.4913558
vt 0.3071963 0.4913558
vt 0.3071963 0.4913558
vt 0.3071963 0.4913558
vt 0.3071963 0.4913558
vt 0.3071963 0.4913559
vt 0.3071963 0.4913559
vt 0.3071963 0.4913558
vt 0.3071963 0.4913559
vt 0.3071963 0.4913558
vt 0.3071963 0.4913559
vt 0.3071963 0.4913558
vt 0.3071963 0.4913558
vt 0.3071963 0.4913558
vt 0.3071963 0.4913558
vt 0.3071963 0.4913558
vt 0.3071963 0.4913559
vt 0.3071963 0.4913558
vt 0.3071963 0.4913559
vt 0.3071963 0.4913558
vt 0.3071963 0.4913559
vt 0.3071963 0.4913558
vt 0.3071963 0.4913559
vt 0.3071963 0.4913558
vt 0.3071963 0.4913558
vt 0.3071963 0.4913558
vt 0.3071963 0.4913558
vt 0.3071963 0.4913558
vt 0.3071963 0.4913559
vt 0.3071963 0.4913559
vt 0.3071963 0.4913559
vt 0.3071963 0.4913559
vt 0.3071963 0.4913559
vt 0.3071963 0.4913559
vt 0.3071963 0.4913559
vt 0.3071963 0.4913559
vt 0.3071963 0.4913559
vt 0.3071963 0.4913559
vt 0.3071963 0.4913559
vt 0.3071963 0.4913559
vt 0.3071963 0.4913559
vt 0.3071963 0.4913559
vt 0.3071963 0.4913559
vt 0.3071963 0.4913559
vt 0.3071963 0.4913558
vt 0.3071963 0.4913558
vt 0.3071963 0.4913558
vt 0.3071963 0.4913558
vt 0.3071963 0.4913558
vt 0.3071963 0.4913559
vt 0.3071963 0.4913558
vt 0.3071963 0.4913559
vt 0.3071963 0.4913558
vt 0.3071963 0.4913558
vt 0.3071963 0.4913559
vt 0.3071963 0.4913558
vt 0.3071963 0.4913558
vt 0.3071963 0.4913559
vt 0.3071963 0.4913558
vt 0.3071963 0.4913558
vt 0.3071963 0.4913559
vt 0.3071963 0.4913558
vt 0.3071963 0.4913558
vt 0.3071963 0.4913558
vt 0.3071963 0.4913558
vt 0.3071963 0.4913558
vt 0.3071963 0.4913558
vt 0.3071963 0.4913558
vt 0.3071963 0.4913558
vt 0.3071963 0.4913559
vt 0.3071963 0.4913558
vt 0.3071963 0.4913559
vt 0.3071963 0.4913558
vt 0.3071963 0.4913558
vt 0.3071963 0.4913558
vt 0.3071963 0.4913558
vt 0.3071963 0.4913558
vt 0.3071963 0.4913558
vt 0.3071963 0.4913558
vt 0.3071963 0.4913558
vt 0.3071963 0.4913558
vt 0.3071963 0.4913558
vt 0.3071963 0.4913558
vt 0.3071963 0.4913558
vt 0.3071963 0.4913559
vt 0.3071963 0.4913558
vt 0.3071963 0.4913558
vt 0.3071963 0.4913559
vt 0.3071963 0.4913559
vt 0.3071963 0.4913559
vt 0.3071963 0.4913559
vt 0.3071963 0.4913559
vt 0.3071963 0.4913558
vt 0.3071963 0.4913559
vt 0.3071963 0.4913558
vt 0.3071963 0.4913558
vt 0.3071963 0.4913559
vt 0.3071963 0.4913559
vt 0.3071963 0.4913558
vt 0.3071963 0.4913558
vt 0.3071963 0.4913559
vt 0.3071963 0.4913558
vt 0.3071963 0.4913558
vt 0.3071963 0.4913559
vt 0.3071963 0.4913558
vt 0.3071963 0.4913558
vt 0.3071963 0.4913558
vt 0.3071963 0.4913558
vt 0.3071963 0.4913558
vt 0.3071963 0.4913558
vt 0.3071963 0.4913558
vt 0.3071963 0.4913558
vt 0.3071963 0.4913558
vt 0.3071963 0.4913559
vt 0.3071963 0.4913559
vt 0.3071963 0.4913559
vt 0.3071963 0.4913559
vt 0.3071963 0.4913559
vt 0.3071963 0.4913559
vt 0.3071963 0.4913559
vt 0.3071963 0.4913559
vt 0.3071963 0.4913559
vt 0.3071963 0.4913559
vt 0.3071963 0.4913558
vt 0.3071963 0.4913558
vt 0.08104646 0.2524338
vt 0.08104646 0.2524319
vt 0.08104652 0.2524319
vt 0.08104652 0.2524338
vt 0.08104658 0.2524338
vt 0.08104658 0.2524319
vt 0.08104658 0.2524338
vt 0.08104658 0.2524319
vt 0.08104658 0.2524319
vt 0.08104658 0.2524338
vt 0.08104652 0.2524338
vt 0.08104646 0.2524319
vt 0.08104646 0.2524338
vt 0.08104652 0.2524319
vt 0.08104658 0.2524338
vt 0.08104658 0.2524319
vt 0.08104646 0.2524338
vt 0.08104646 0.2524319
vt 0.08104646 0.2524319
vt 0.08104646 0.2524338
vt 0.08104658 0.2524338
vt 0.08104658 0.2524338
vt 0.08104658 0.2524338
vt 0.08104652 0.2524338
vt 0.08104658 0.2524338
vt 0.08104652 0.2524338
vt 0.08104652 0.2524338
vt 0.08104646 0.2524338
vt 0.08104652 0.2524338
vt 0.08104646 0.2524338
vt 0.08104646 0.2524338
vt 0.08104646 0.2524338
vn 0 1 0
vn 0 1 0
vn 0 1 0
vn 0 1 0
vn 0 1 0
vn 0 1 0
vn 0.9170846 -0.03673891 -0.3969963
vn 0.9973041 0.07336754 -0.001333435
vn 0.9164954 0.04918359 -0.3970103
vn 0.9984964 -0.05480231 -0.00133026
vn 0.9171829 0.04964358 0.395362
vn 0.9177838 -0.03708488 0.395345
vn 0 0.3826833 0.9238795
vn 0.2710593 -0.2706675 0.923724
vn 0.2710593 0.2706674 0.923724
vn 0 -0.3826835 0.9238795
vn 0 0.3826833 0.9238795
vn 0 0.3826833 0.9238795
vn 0 0.3826833 0.9238795
vn 0 -0.3875113 0.921865
vn 0 -0.3875113 0.921865
vn 0 -0.3826835 0.9238795
vn 0 -0.3826835 0.9238795
vn 0 -0.3826835 0.9238795
vn 0 0.2013434 0.9795207
vn 0 0.2013434 0.9795207
vn 0 0.39444 0.9189216
vn 0 0.39444 0.9189216
vn 0.2710592 0.2706674 -0.9237241
vn 0.2710593 -0.2706675 -0.923724
vn 0 -0.3826835 -0.9238795
vn 0 0.3826833 -0.9238795
vn 0 -0.3826835 -0.9238795
vn 0 -0.3826835 -0.9238795
vn 0 -0.3826835 -0.9238795
vn 0 0.2013434 -0.9795207
vn 0 0.2013434 -0.9795207
vn 0 0.39444 -0.9189216
vn 0 0.39444 -0.9189216
vn 0 0.3826833 -0.9238795
vn 0 0.3826833 -0.9238795
vn 0 0.3826833 -0.9238795
vn 0 -0.3875113 -0.921865
vn 0 -0.3875113 -0.921865
vn 0.890146 -0.1512851 -0.4298288
vn 0.9299348 -0.3565797 -0.08984541
vn 0.9526199 -0.3041596 -0.001528394
vn 0.9156556 -0.2930178 -0.2751645
vn 0.9296768 0.3683731 -0.001451153
vn 0.9002433 0.3569615 -0.2492799
vn 0.6443034 0.7647699 -0.0004673076
vn 0.4100794 0.9016235 -0.137513
vn 0.9010884 0.3567942 0.2464501
vn 0.9168573 -0.2920808 0.2721423
vn 0.930344 -0.3561964 0.08708663
vn 0.8911891 -0.1502665 0.428021
vn 0.4114387 0.901042 0.137264
vn 0.4275019 0.9040144 0.0001980865
vn 0.1517533 0.9803285 0.1262021
vn 0.1538225 0.9800404 -0.1259343
vn -0.1538225 0.9800404 -0.1259343
vn -0.4114387 0.901042 0.137264
vn -0.4100794 0.9016235 -0.137513
vn -0.1517533 0.9803285 0.1262021
vn -0.427502 0.9040144 0.0001980922
vn -0.6443034 0.7647699 -0.0004672829
vn -0.9010884 0.3567942 0.2464501
vn -0.9296769 0.3683731 -0.001451113
vn -0.9002433 0.3569615 -0.2492799
vn -0.9168573 -0.2920808 0.2721424
vn -0.9526199 -0.3041596 -0.001528362
vn -0.9156556 -0.2930178 -0.2751644
vn -0.9168573 -0.2920808 0.2721424
vn -0.9526199 -0.3041596 -0.001528358
vn -0.9156556 -0.2930178 -0.2751644
vn -0.9168573 0.2920806 0.2721424
vn -0.9526199 0.3041594 -0.001528378
vn -0.9156557 0.2930176 -0.2751645
vn -0.9168574 0.2920807 0.2721424
vn -0.9526199 0.3041594 -0.001528386
vn -0.958661 0 0.2845505
vn -0.9156557 0.2930176 -0.2751645
vn -0.9999986 0 -0.001693939
vn -0.9576916 0 -0.2877967
vn 0.149083 -0.9455916 -0.2891898
vn 0.4153818 -0.909647 -0.0005617348
vn 0.2228275 -0.8737952 -0.4322385
vn 0.2120037 -0.9772689 -0.0002866998
vn 0.2231686 -0.8739524 0.4317441
vn 0.1492928 -0.9456706 0.2888232
vn -0.149083 -0.9455916 -0.2891898
vn -0.1680811 -0.659113 -0.7330203
vn 0.1680811 -0.659113 -0.7330203
vn -0.2120037 -0.9772689 -0.0002866921
vn -0.2228275 -0.8737952 -0.4322385
vn -0.4153818 -0.909647 -0.0005617199
vn -0.1492928 -0.9456706 0.2888232
vn -0.2231686 -0.8739524 0.4317441
vn 0.1683514 -0.6592821 0.7328061
vn -0.1683514 -0.6592821 0.7328061
vn 0.7424938 -0.1251944 0.6580496
vn 0.9177838 -0.03708488 0.395345
vn 0.7418754 0.1357374 0.6566553
vn 0.9171829 0.04964358 0.395362
vn 0.9973041 0.07336754 -0.001333435
vn 0.9913588 -0.0997868 0.08514921
vn 0.9164954 0.04918359 -0.3970103
vn 0.9910341 -0.1004157 -0.08813752
vn 0.7406969 0.1364348 -0.6578401
vn 0.7413179 -0.125991 -0.6592222
vn 0.9170846 -0.03673891 -0.3969963
vn 0.8885092 0.1636615 -0.4286798
vn 0.9984964 -0.05480231 -0.00133026
vn 0.9684037 0.2493841 -0.001440237
vn 0.8895479 0.1627564 0.4268665
vn 0.9156556 0.2930176 -0.2751645
vn 0.9526199 0.3041594 -0.001528402
vn 0.9576916 0 -0.2877968
vn 0.9168574 0.2920807 0.2721424
vn 0.9999986 0 -0.001693954
vn 0.958661 0 0.2845505
vn -0.9454519 0 -0.3257616
vn -0.9454519 0 -0.3257616
vn -0.9999957 0 0.00295273
vn -0.9999957 0 0.00295273
vn -0.9435117 0 0.3313392
vn -0.9435117 0 0.3313392
vn 0 0 1
vn 0 0 1
vn 0 0 1
vn 0 0 1
vn 0.9999957 0 0.002952715
vn 0.9454519 0 -0.3257616
vn 0.9454519 0 -0.3257616
vn 0.9999957 0 0.002952715
vn 0.9435117 0 0.3313392
vn 0.9435117 0 0.3313392
vn 0 0 -1
vn 0 0 -1
vn 0 0 -1
vn 0 0 -1
vn -0.9454519 0 -0.3257616
vn -0.9454519 0 -0.3257616
vn -0.9999957 0 0.002952731
vn -0.9999957 0 0.002952731
vn -0.9435116 0 0.3313393
vn -0.9435116 0 0.3313393
vn 0 0 1
vn 0 0 1
vn 0 0 1
vn 0 0 1
vn 0.9999957 0 0.002952683
vn 0.9454519 0 -0.3257617
vn 0.9454519 0 -0.3257617
vn 0.9999957 0 0.002952683
vn 0.9435117 0 0.3313392
vn 0.9435117 0 0.3313392
vn 0 0 -1
vn 0 0 -1
vn 0 0 -1
vn 0 0 -1
vn 0 -1 0
vn 0 -1 0
vn 0 -1 0
vn 0 -1 0
vn 0 -1 0
vn 0 -1 0
vn 0 -1 0
vn 0 -1 0
vn 0 -1 0
vn 0 -1 0
vn 0 -1 0
vn 0 -1 0
g SM_Item_Mouthwash_01_0
f 3/3/3 2/2/2 1/1/1
f 4/4/4 3/3/3 1/1/1
f 4/4/4 5/5/5 3/3/3
f 5/5/5 6/6/6 3/3/3
f 9/9/9 8/8/8 7/7/7
f 8/8/8 10/10/10 7/7/7
f 8/8/8 11/11/11 10/10/10
f 11/11/11 12/12/12 10/10/10
f 15/15/15 14/14/14 13/13/13
f 14/14/14 16/16/16 13/13/13
f 13/13/13 18/18/18 17/17/17
f 18/18/18 19/19/19 17/17/17
f 18/18/18 20/20/20 19/19/19
f 20/20/20 21/21/21 19/19/19
f 23/23/23 22/22/22 16/16/16
f 22/22/22 24/24/24 16/16/16
f 22/22/22 25/25/25 24/24/24
f 25/25/25 26/26/26 24/24/24
f 25/25/25 27/27/27 26/26/26
f 27/27/27 28/28/28 26/26/26
f 31/31/31 30/30/30 29/29/29
f 32/32/32 31/31/31 29/29/29
f 31/31/31 34/34/34 33/33/33
f 34/34/34 35/35/35 33/33/33
f 34/34/34 36/36/36 35/35/35
f 36/36/36 37/37/37 35/35/35
f 36/36/36 38/38/38 37/37/37
f 38/38/38 39/39/39 37/37/37
f 41/41/41 40/40/40 32/32/32
f 40/40/40 42/42/42 32/32/32
f 40/40/40 43/43/43 42/42/42
f 43/43/43 44/44/44 42/42/42
f 47/47/47 46/46/46 45/45/45
f 48/48/48 47/47/47 45/45/45
f 49/49/49 47/47/47 48/48/48
f 50/50/50 49/49/49 48/48/48
f 51/51/51 49/49/49 50/50/50
f 52/52/52 51/51/51 50/50/50
f 49/49/49 53/53/53 47/47/47
f 53/53/53 54/54/54 47/47/47
f 47/47/47 54/54/54 55/55/55
f 54/54/54 56/56/56 55/55/55
f 57/57/57 53/53/53 49/49/49
f 51/51/51 57/57/57 49/49/49
f 58/58/58 57/57/57 51/51/51
f 58/58/58 51/51/51 52/52/52
f 59/59/59 57/57/57 58/58/58
f 58/58/58 52/52/52 60/60/60
f 61/61/61 60/60/60 52/52/52
f 57/57/57 59/59/59 62/62/62
f 63/63/63 61/61/61 52/52/52
f 59/59/59 64/64/64 62/62/62
f 62/62/62 64/64/64 65/65/65
f 63/63/63 65/65/65 61/61/61
f 66/66/66 62/62/62 65/65/65
f 66/66/66 65/65/65 63/63/63
f 67/67/67 62/62/62 66/66/66
f 68/68/68 66/66/66 63/63/63
f 68/68/68 67/67/67 66/66/66
f 69/69/69 68/68/68 63/63/63
f 70/70/70 67/67/67 68/68/68
f 71/71/71 68/68/68 69/69/69
f 71/71/71 70/70/70 68/68/68
f 72/72/72 71/71/71 69/69/69
f 73/73/73 70/70/70 71/71/71
f 74/74/74 71/71/71 72/72/72
f 74/74/74 73/73/73 71/71/71
f 75/75/75 74/74/74 72/72/72
f 76/76/76 73/73/73 74/74/74
f 77/77/77 74/74/74 75/75/75
f 77/77/77 76/76/76 74/74/74
f 78/78/78 77/77/77 75/75/75
f 79/79/79 76/76/76 77/77/77
f 80/80/80 77/77/77 78/78/78
f 80/80/80 79/79/79 77/77/77
f 81/81/81 79/79/79 80/80/80
f 82/82/82 80/80/80 78/78/78
f 83/83/83 81/81/81 80/80/80
f 83/83/83 80/80/80 82/82/82
f 84/84/84 83/83/83 82/82/82
f 87/87/87 86/86/86 85/85/85
f 86/86/86 88/88/88 85/85/85
f 86/86/86 89/89/89 88/88/88
f 89/89/89 90/90/90 88/88/88
f 85/85/85 88/88/88 91/91/91
f 85/85/85 91/91/91 92/92/92
f 93/93/93 85/85/85 92/92/92
f 88/88/88 94/94/94 91/91/91
f 88/88/88 90/90/90 94/94/94
f 91/91/91 94/94/94 95/95/95
f 94/94/94 96/96/96 95/95/95
f 90/90/90 97/97/97 94/94/94
f 94/94/94 97/97/97 96/96/96
f 97/97/97 98/98/98 96/96/96
f 97/97/97 90/90/90 99/99/99
f 100/100/100 97/97/97 99/99/99
f 103/103/103 102/102/102 101/101/101
f 102/102/102 104/104/104 101/101/101
f 56/56/56 104/104/104 105/105/105
f 106/106/106 56/56/56 105/105/105
f 108/108/108 105/105/105 107/107/107
f 45/45/45 108/108/108 107/107/107
f 110/110/110 107/107/107 109/109/109
f 107/107/107 111/111/111 109/109/109
f 111/111/111 113/113/113 112/112/112
f 113/113/113 102/102/102 114/114/114
f 113/113/113 114/114/114 112/112/112
f 102/102/102 115/115/115 114/114/114
f 112/112/112 114/114/114 116/116/116
f 114/114/114 115/115/115 117/117/117
f 114/114/114 117/117/117 116/116/116
f 116/116/116 117/117/117 118/118/118
f 115/115/115 119/119/119 117/117/117
f 117/117/117 120/120/120 118/118/118
f 117/117/117 119/119/119 120/120/120
f 119/119/119 121/121/121 120/120/120
f 124/124/124 123/123/123 122/122/122
f 125/125/125 124/124/124 122/122/122
f 125/125/125 126/126/126 124/124/124
f 126/126/126 127/127/127 124/124/124
f 130/130/130 129/129/129 128/128/128
f 131/131/131 130/130/130 128/128/128
f 134/134/134 133/133/133 132/132/132
f 133/133/133 135/135/135 132/132/132
f 132/132/132 135/135/135 136/136/136
f 135/135/135 137/137/137 136/136/136
f 140/140/140 139/139/139 138/138/138
f 141/141/141 140/140/140 138/138/138
f 144/144/144 143/143/143 142/142/142
f 145/145/145 144/144/144 142/142/142
f 145/145/145 146/146/146 144/144/144
f 146/146/146 147/147/147 144/144/144
f 150/150/150 149/149/149 148/148/148
f 151/151/151 150/150/150 148/148/148
f 154/154/154 153/153/153 152/152/152
f 153/153/153 155/155/155 152/152/152
f 152/152/152 155/155/155 156/156/156
f 155/155/155 157/157/157 156/156/156
f 160/160/160 159/159/159 158/158/158
f 161/161/161 160/160/160 158/158/158
f 164/164/164 163/163/163 162/162/162
f 162/162/162 163/163/163 165/165/165
f 166/166/166 164/164/164 162/162/162
f 167/167/167 162/162/162 165/165/165
f 168/168/168 164/164/164 166/166/166
f 167/167/167 165/165/165 169/169/169
f 170/170/170 168/168/168 166/166/166
f 165/165/165 171/171/171 169/169/169
f 172/172/172 168/168/168 170/170/170
f 169/169/169 171/171/171 173/173/173
f 173/173/173 172/172/172 170/170/170
f 171/171/171 172/172/172 173/173/173
