g SM_Item_Wood_01
v 0.06897836 1.789083E-08 0.1031228
v 0.01740605 0 0.1149547
v 0.03320094 0.04716124 -0.1097425
v -0.01132333 0.0152229 0.1149547
v -0.007799515 0.04716124 0.1097425
v -0.03185276 0 0.1149547
v -0.04739824 0.04716124 -0.1097425
v -0.04018363 0.04716124 0.1097425
v 0.04758347 0.04716124 0.104553
v 0.02845929 0.03614569 0.1110455
v 0.02940141 0.04716124 -0.04198596
v 0.01562907 0.04716124 0.1097425
v 0.007443372 0.04716124 -0.1097425
v -0.003792774 0.04716124 -0.05487126
v -0.003274719 0.0395226 -0.1110455
v -0.01738008 0.04716124 0.1097425
v -0.01307013 0.04716124 -0.1097425
v -0.02829633 0.03952258 0.1110455
v -0.02940521 0.04716124 0.02642831
v -0.06095536 1.789083E-08 0.1044957
v -0.05055968 1.150008E-08 0.1149547
v -0.06097709 0.04716124 0.09928352
v -0.0505814 0.04716124 0.1097425
v 0.04819214 0.04716124 -0.1097425
v 0.06318034 0.04716124 -0.09477575
v 0.06897836 1.789083E-08 -0.09998789
v -0.06096514 0.02122257 -0.1126092
v -0.06097709 0.04716124 0.005221806
v 0.06318034 0.04716124 -0.01779631
v 0.06897836 1.789083E-08 -0.01563884
v 0.06636925 0.02122257 0.1126092
v 0.06318034 0.04716124 0.03959615
v 0.05460206 0.04716124 0.1068883
v -0.00916729 6.89298E-09 0.02637519
v 0.06607533 0.02361331 -0.01671907
v 0.06712218 0.01509816 -0.09831928
v 0.06514859 0.03115147 -0.0965451
v 0.05573004 0.02215112 -0.1115582
v -0.06095938 0.008713226 -0.1139917
v -0.06095536 1.789083E-08 -0.1061884
v 0.03445459 0.008723278 -0.1139906
v 0.03407896 1.720946E-08 -0.1061985
v 0.05247629 0.008875455 -0.1135938
v -0.00593948 1.721246E-08 -0.1062371
v -0.005189816 0.00866131 -0.114098
v 0.01226761 0.04716124 0.04154375
v -0.005940162 0.04716124 0.0333525
v 0.03395666 0.02399011 -0.1123033
v 0.02845929 0.03614569 0.1110455
v 0.02940141 0.04716124 -0.04198596
v 0.01226761 0.04716124 0.04154375
v 0.01562907 0.04716124 0.1097425
v -0.01132333 0.0152229 0.1149547
v -0.02829633 0.03952258 0.1110455
v -0.02940521 0.04716124 0.02642831
v 0.02940141 0.04716124 -0.04198596
v 0.02845929 0.03614569 0.1110455
v -0.02829633 0.03952258 0.1110455
v -0.02940521 0.04716124 0.02642831
v -0.01738008 0.04716124 0.1097425
v -0.003274719 0.0395226 -0.1110455
v -0.003792774 0.04716124 -0.05487126
v -0.05055968 1.150008E-08 0.1149547
v 0.04819214 0.04716124 -0.1097425
v 0.06514859 0.03115147 -0.0965451
v 0.06318034 0.04716124 -0.09477575
v -0.06097709 0.04716124 0.09928352
v -0.06097709 0.04716124 0.005221806
v 0.06636925 0.02122257 0.1126092
v 0.01740605 0 0.1149547
v 0.06897836 1.789083E-08 0.1031228
v 0.06636925 0.02122257 0.1126092
v 0.06318034 0.04716124 0.03959615
v 0.05460206 0.04716124 0.1068883
v 0.04758347 0.04716124 0.104553
v -0.01132333 0.0152229 0.1149547
v 0.01740605 0 0.1149547
v -0.03185276 0 0.1149547
v -0.01132333 0.0152229 0.1149547
v -0.00916729 6.89298E-09 0.02637519
v 0.06897836 1.789083E-08 -0.01563884
v 0.06607533 0.02361331 -0.01671907
v 0.05573004 0.02215112 -0.1115582
v 0.06897836 1.789083E-08 -0.09998789
v 0.06712218 0.01509816 -0.09831928
v 0.06514859 0.03115147 -0.0965451
v 0.05573004 0.02215112 -0.1115582
v 0.06607533 0.02361331 -0.01671907
v 0.06607533 0.02361331 -0.01671907
v 0.05573004 0.02215112 -0.1115582
v 0.06712218 0.01509816 -0.09831928
v -0.06097709 0.04716124 0.005221806
v -0.06097709 0.04716124 0.09928352
v -0.06095536 1.789083E-08 0.1044957
v -0.06095536 1.789083E-08 -0.1061884
v 0.03407896 1.720946E-08 -0.1061985
v 0.06897836 1.789083E-08 -0.09998789
v 0.05247629 0.008875455 -0.1135938
v 0.03445459 0.008723278 -0.1139906
v -0.06095536 1.789083E-08 -0.1061884
v -0.06095536 1.789083E-08 0.1044957
v -0.05055968 1.150008E-08 0.1149547
v -0.03185276 0 0.1149547
v 0.05573004 0.02215112 -0.1115582
v 0.04819214 0.04716124 -0.1097425
v 0.03320094 0.04716124 -0.1097425
v 0.06897836 1.789083E-08 -0.09998789
v 0.03407896 1.720946E-08 -0.1061985
v 0.01740605 0 0.1149547
v 0.06897836 1.789083E-08 -0.01563884
v 0.06897836 1.789083E-08 0.1031228
v -0.00593948 1.721246E-08 -0.1062371
v -0.00916729 6.89298E-09 0.02637519
v 0.007443372 0.04716124 -0.1097425
v -0.003274719 0.0395226 -0.1110455
v -0.01307013 0.04716124 -0.1097425
v -0.04739824 0.04716124 -0.1097425
v -0.06096514 0.02122257 -0.1126092
v 0.06636925 0.02122257 0.1126092
v -0.003792774 0.04716124 -0.05487126
v 0.04758347 0.04716124 0.104553
v 0.05460206 0.04716124 0.1068883
v 0.06636925 0.02122257 0.1126092
v 0.02845929 0.03614569 0.1110455
v -0.007799515 0.04716124 0.1097425
v 0.01562907 0.04716124 0.1097425
v -0.01738008 0.04716124 0.1097425
v -0.02829633 0.03952258 0.1110455
v -0.0505814 0.04716124 0.1097425
v -0.04018363 0.04716124 0.1097425
v 0.06318034 0.04716124 -0.01779631
v 0.06318034 0.04716124 -0.09477575
v 0.007443372 0.04716124 -0.1097425
v -0.04739824 0.04716124 -0.1097425
v -0.01307013 0.04716124 -0.1097425
v -0.04018363 0.04716124 0.1097425
v -0.0505814 0.04716124 0.1097425
v 0.03445459 0.008723278 -0.1139906
v 0.05247629 0.008875455 -0.1135938
v -0.005189816 0.00866131 -0.114098
v -0.06095938 0.008713226 -0.1139917
v -0.06095938 0.008713226 -0.1139917
v -0.06096514 0.02122257 -0.1126092
v 0.06318034 0.04716124 0.03959615
vt 0.01483892 0.3474855
vt 0.01512127 0.3474812
vt 0.01511573 0.3469207
vt 0.01538437 0.3474772
vt 0.01537057 0.3473696
vt 0.01558616 0.3474742
vt 0.01563664 0.3469132
vt 0.01562141 0.3473659
vt 0.01504706 0.347362
vt 0.01512425 0.3474392
vt 0.01512592 0.3470466
vt 0.01518535 0.3473724
vt 0.01529448 0.3469183
vt 0.01533779 0.347019
vt 0.01533102 0.3469378
vt 0.01553144 0.3473672
vt 0.01536464 0.3469175
vt 0.01557394 0.3473938
vt 0.01555731 0.3471796
vt 0.01583491 0.3474485
vt 0.01574868 0.3474717
vt 0.01581737 0.3473415
vt 0.01572143 0.3473645
vt 0.01500873 0.346922
vt 0.01489863 0.3469543
vt 0.01489056 0.3470342
vt 0.01573981 0.3469536
vt 0.01577992 0.3471363
vt 0.01488257 0.3471135
vt 0.01486713 0.3472111
vt 0.01484745 0.3474313
vt 0.01486927 0.3472453
vt 0.01495152 0.3473696
vt 0.01536686 0.3472921
vt 0.01487486 0.3471622
vt 0.0148896 0.3470085
vt 0.01489412 0.3469813
vt 0.01500117 0.3469496
vt 0.01573445 0.3469753
vt 0.01574241 0.3470097
vt 0.01511393 0.346985
vt 0.01511382 0.3470179
vt 0.01499271 0.3469805
vt 0.01534064 0.3470149
vt 0.01533719 0.3469838
vt 0.01515864 0.3472259
vt 0.01535536 0.3472069
vt 0.01511464 0.3469594
vt 0.01512425 0.3474392
vt 0.01512592 0.3470466
vt 0.01515864 0.3472259
vt 0.01518535 0.3473724
vt 0.01538437 0.3474772
vt 0.01557394 0.3473938
vt 0.01555731 0.3471796
vt 0.01512592 0.3470466
vt 0.01512425 0.3474392
vt 0.01557394 0.3473938
vt 0.01555731 0.3471796
vt 0.01553144 0.3473672
vt 0.01533102 0.3469378
vt 0.01533779 0.347019
vt 0.01574868 0.3474717
vt 0.01500873 0.346922
vt 0.01489412 0.3469813
vt 0.01489863 0.3469543
vt 0.01581737 0.3473415
vt 0.01577992 0.3471363
vt 0.01484745 0.3474313
vt 0.01512127 0.3474812
vt 0.01483892 0.3474855
vt 0.01484745 0.3474313
vt 0.01486927 0.3472453
vt 0.01495152 0.3473696
vt 0.01504706 0.347362
vt 0.01538437 0.3474772
vt 0.01512127 0.3474812
vt 0.01558616 0.3474742
vt 0.01538437 0.3474772
vt 0.01536686 0.3472921
vt 0.01486713 0.3472111
vt 0.01487486 0.3471622
vt 0.01500117 0.3469496
vt 0.01489056 0.3470342
vt 0.0148896 0.3470085
vt 0.01489412 0.3469813
vt 0.01500117 0.3469496
vt 0.01487486 0.3471622
vt 0.01487486 0.3471622
vt 0.01500117 0.3469496
vt 0.0148896 0.3470085
vt 0.01577992 0.3471363
vt 0.01581737 0.3473415
vt 0.01583491 0.3474485
vt 0.01574241 0.3470097
vt 0.01511382 0.3470179
vt 0.01489056 0.3470342
vt 0.01499271 0.3469805
vt 0.01511393 0.346985
vt 0.01574241 0.3470097
vt 0.01583491 0.3474485
vt 0.01574868 0.3474717
vt 0.01558616 0.3474742
vt 0.01500117 0.3469496
vt 0.01500873 0.346922
vt 0.01511573 0.3469207
vt 0.01489056 0.3470342
vt 0.01511382 0.3470179
vt 0.01512127 0.3474812
vt 0.01486713 0.3472111
vt 0.01483892 0.3474855
vt 0.01534064 0.3470149
vt 0.01536686 0.3472921
vt 0.01529448 0.3469183
vt 0.01533102 0.3469378
vt 0.01536464 0.3469175
vt 0.01563664 0.3469132
vt 0.01573981 0.3469536
vt 0.01484745 0.3474313
vt 0.01533779 0.347019
vt 0.01504706 0.347362
vt 0.01495152 0.3473696
vt 0.01484745 0.3474313
vt 0.01512425 0.3474392
vt 0.01537057 0.3473696
vt 0.01518535 0.3473724
vt 0.01553144 0.3473672
vt 0.01557394 0.3473938
vt 0.01572143 0.3473645
vt 0.01562141 0.3473659
vt 0.01488257 0.3471135
vt 0.01489863 0.3469543
vt 0.01529448 0.3469183
vt 0.01563664 0.3469132
vt 0.01536464 0.3469175
vt 0.01562141 0.3473659
vt 0.01572143 0.3473645
vt 0.01511393 0.346985
vt 0.01499271 0.3469805
vt 0.01533719 0.3469838
vt 0.01573445 0.3469753
vt 0.01573445 0.3469753
vt 0.01573981 0.3469536
vt 0.01486927 0.3472453
vn 0.2070304 -0.3779148 0.9023961
vn 0.02783146 0.09906413 0.9946917
vn 0 1 0
vn 0.0239418 0.1312024 0.9910664
vn 0 1 0
vn -0.02683027 0.1007834 0.9945465
vn -0.8766049 0.4699399 -0.1035389
vn 0.5339376 0.8426975 0.0690759
vn -0.4828756 0.873637 0.05991358
vn 0.4393559 0.8974274 0.0398802
vn 0.4393559 0.8974274 0.03988019
vn 0.4393559 0.8974274 0.03988019
vn -0.5670498 0.8154579 -0.1161164
vn -0.5670498 0.8154579 -0.1161164
vn -0.5670498 0.8154579 -0.1161164
vn 0 1 0
vn 0.6032633 0.7909932 -0.1019967
vn 0.5339376 0.8426975 0.0690759
vn 0.5339376 0.8426975 0.0690759
vn -0.7071247 0.07735123 0.7028453
vn -0.008082749 0.1050377 0.9944353
vn -0.7071247 0.07735123 0.7028453
vn -0.7071247 0.07735121 0.7028453
vn 0 1 0
vn 0.9925275 0.1220214 0
vn 0.9925274 0.1220219 0
vn -0.8766049 0.4699399 -0.1035389
vn -0.8766049 0.4699399 -0.1035389
vn 0.9925275 0.1220214 0
vn 0.9925274 0.1220219 0
vn 0.8950168 0.4311926 0.1140953
vn 0.8950168 0.4311926 0.1140953
vn 0.8950168 0.4311926 0.1140953
vn -0.463654 -0.8750303 0.1390935
vn 0.9925275 0.1220217 0
vn 0.9925274 0.1220219 0
vn 0.9925275 0.1220214 0
vn 0.721633 0.2244681 -0.6548741
vn -0.001352953 -0.6695723 -0.7427457
vn -0.9999999 -0.0004604759 0
vn 0.001882135 -0.6691924 -0.7430868
vn 0.001882135 -0.6691924 -0.7430868
vn 0.7089646 0.05684978 -0.7029489
vn -6.338042E-05 -0.6694218 -0.7428826
vn 6.48635E-05 -0.6694067 -0.7428962
vn 0.4393559 0.8974274 0.0398802
vn 0 1 0
vn 0.01373743 0.1065979 -0.9942073
vn 0.0136394 0.1203339 0.9926398
vn 0 1 0
vn 0 1 0
vn 0 1 0
vn -0.07791073 0.1050695 0.9914083
vn -0.02838382 0.1104554 0.9934757
vn 0 1 0
vn -0.4828755 0.873637 0.05991357
vn -0.4828755 0.873637 0.05991358
vn -0.5648658 0.8211454 0.08152977
vn -0.5648658 0.8211454 0.08152977
vn -0.5648658 0.8211454 0.08152977
vn 0.6032633 0.7909932 -0.1019967
vn 0.6032633 0.7909932 -0.1019967
vn -0.7071247 0.07735123 0.7028453
vn 0.721633 0.2244681 -0.6548741
vn 0.721633 0.2244681 -0.6548741
vn 0.721633 0.2244681 -0.6548741
vn 0 1 0
vn 0 1 0
vn 0.2070304 -0.3779148 0.9023961
vn 0.2070304 -0.3779148 0.9023961
vn 0.9925274 0.1220218 0
vn 0.9925275 0.1220218 0
vn 0 1 0
vn 0 1 0
vn 0 1 0
vn -0.463654 -0.8750303 0.1390935
vn -0.463654 -0.8750303 0.1390935
vn 0.5888183 -0.7940736 0.1507981
vn 0.5888184 -0.7940736 0.1507981
vn 0.5888184 -0.7940736 0.1507981
vn 0.9925274 0.1220219 0
vn 0.9925275 0.1220217 0
vn 0.7089647 0.05684977 -0.7029489
vn 0.7089647 0.05684977 -0.7029489
vn 0.7089647 0.05684977 -0.7029489
vn 0.7460908 -0.6620288 -0.0711786
vn 0.7460908 -0.6620287 -0.0711786
vn 0.7460908 -0.6620287 -0.07117862
vn 0.5876197 0.8055111 -0.07651811
vn 0.5876197 0.8055111 -0.07651811
vn 0.5876197 0.8055111 -0.0765181
vn -0.9999999 -0.0004605445 0
vn -0.9999999 -0.0004605464 0
vn -0.9999999 -0.0004605464 0
vn -0.001352953 -0.6695722 -0.7427456
vn 0.08585437 -0.7367761 -0.6706638
vn 0.08585437 -0.736776 -0.6706639
vn 0.08585437 -0.7367761 -0.6706638
vn 0.08585437 -0.7367761 -0.6706638
vn 0 -1 0
vn 0 -1 0
vn 0 -1 0
vn 0 -1 0
vn 0.02877276 0.1083285 -0.9936987
vn 0.02490752 0.09468387 -0.9951957
vn 0.01667697 0.1094224 -0.9938554
vn 0 -1 0
vn 0 -1 0
vn 0 -1 0
vn 0 -1 0
vn 0 -1 0
vn 0 -1 0
vn 0 -1 0
vn 0.010072 0.1212211 -0.9925745
vn 0.0001441931 0.1089037 -0.9940524
vn -0.007818603 0.1240963 -0.9922394
vn -0.007818603 0.1240963 -0.9922394
vn -0.004473266 0.1064492 -0.9943081
vn 0.001176903 0.1071662 0.9942404
vn 0 1 0
vn 0.02050258 0.3100599 0.9504959
vn 0.02050258 0.3100599 0.9504959
vn 0.02050259 0.3100599 0.9504959
vn 0.02050258 0.3100599 0.9504959
vn 0.008307506 0.1549823 0.9878824
vn 0.01073098 0.152227 0.9882873
vn 0.002538409 0.1615319 0.9868643
vn 0.002538409 0.1615319 0.9868641
vn -0.01901689 0.1139616 0.9933031
vn -0.01901689 0.1139616 0.9933031
vn 0 1 0
vn 0 1 0
vn 0 1 0
vn 0 1 0
vn 0 1 0
vn 0 1 0
vn 0 1 0
vn 0.01265868 0.1080329 -0.9940667
vn 0.03379459 0.126054 -0.9914476
vn 0.0001211555 0.1019467 -0.9947898
vn -0.003608412 0.1018826 -0.99479
vn -0.9999999 -0.0004603989 0
vn -0.9999999 -0.0004603989 0
vn 0.9925275 0.1220214 0
g SM_Item_Wood_01_0
f 19/19/19 8/8/8 18/18/18
f 28/28/28 7/7/7 27/27/27
f 14/14/14 13/13/13 15/15/15
f 31/31/31 32/32/32 33/33/33
f 57/57/57 9/9/9 56/56/56
f 60/60/60 59/59/59 58/58/58
f 62/62/62 61/61/61 17/17/17
f 70/70/70 1/1/1 69/69/69
f 34/34/34 77/77/77 76/76/76
f 80/80/80 79/79/79 78/78/78
f 88/88/88 87/87/87 86/86/86
f 91/91/91 90/90/90 89/89/89
f 37/37/37 25/25/25 29/29/29
f 35/35/35 37/37/37 29/29/29
f 35/35/35 29/29/29 72/72/72
f 29/29/29 144/144/144 72/72/72
f 35/35/35 72/72/72 71/71/71
f 30/30/30 35/35/35 71/71/71
f 11/11/11 46/46/46 12/12/12
f 10/10/10 11/11/11 12/12/12
f 5/5/5 52/52/52 51/51/51
f 47/47/47 5/5/5 51/51/51
f 47/47/47 51/51/51 50/50/50
f 16/16/16 5/5/5 47/47/47
f 55/55/55 16/16/16 47/47/47
f 120/120/120 47/47/47 50/50/50
f 55/55/55 47/47/47 120/120/120
f 120/120/120 50/50/50 133/133/133
f 50/50/50 3/3/3 133/133/133
f 50/50/50 24/24/24 3/3/3
f 50/50/50 131/131/131 24/24/24
f 131/131/131 132/132/132 24/24/24
f 50/50/50 73/73/73 131/131/131
f 50/50/50 75/75/75 73/73/73
f 75/75/75 74/74/74 73/73/73
f 68/68/68 55/55/55 120/120/120
f 68/68/68 120/120/120 134/134/134
f 120/120/120 135/135/135 134/134/134
f 55/55/55 68/68/68 67/67/67
f 136/136/136 55/55/55 67/67/67
f 137/137/137 136/136/136 67/67/67
f 54/54/54 6/6/6 53/53/53
f 21/21/21 6/6/6 54/54/54
f 21/21/21 54/54/54 129/129/129
f 54/54/54 130/130/130 129/129/129
f 23/23/23 22/22/22 20/20/20
f 63/63/63 23/23/23 20/20/20
f 65/65/65 38/38/38 64/64/64
f 66/66/66 65/65/65 64/64/64
f 81/81/81 26/26/26 36/36/36
f 82/82/82 81/81/81 36/36/36
f 84/84/84 43/43/43 83/83/83
f 85/85/85 84/84/84 83/83/83
f 94/94/94 93/93/93 92/92/92
f 40/40/40 94/94/94 92/92/92
f 40/40/40 92/92/92 142/142/142
f 92/92/92 143/143/143 142/142/142
f 39/39/39 45/45/45 95/95/95
f 45/45/45 44/44/44 95/95/95
f 44/44/44 45/45/45 41/41/41
f 42/42/42 44/44/44 41/41/41
f 98/98/98 97/97/97 96/96/96
f 99/99/99 98/98/98 96/96/96
f 102/102/102 101/101/101 100/100/100
f 103/103/103 102/102/102 100/100/100
f 100/100/100 112/112/112 103/103/103
f 112/112/112 113/113/113 103/103/103
f 113/113/113 112/112/112 109/109/109
f 112/112/112 108/108/108 109/109/109
f 109/109/109 108/108/108 107/107/107
f 107/107/107 110/110/110 109/109/109
f 110/110/110 111/111/111 109/109/109
f 106/106/106 105/105/105 104/104/104
f 48/48/48 106/106/106 104/104/104
f 114/114/114 106/106/106 48/48/48
f 115/115/115 114/114/114 48/48/48
f 48/48/48 104/104/104 138/138/138
f 104/104/104 139/139/139 138/138/138
f 48/48/48 138/138/138 140/140/140
f 115/115/115 48/48/48 140/140/140
f 115/115/115 140/140/140 141/141/141
f 118/118/118 115/115/115 141/141/141
f 118/118/118 117/117/117 115/115/115
f 117/117/117 116/116/116 115/115/115
f 49/49/49 2/2/2 119/119/119
f 4/4/4 2/2/2 49/49/49
f 4/4/4 49/49/49 125/125/125
f 49/49/49 126/126/126 125/125/125
f 4/4/4 125/125/125 127/127/127
f 128/128/128 4/4/4 127/127/127
f 123/123/123 122/122/122 121/121/121
f 124/124/124 123/123/123 121/121/121
