g SM_Item_Cup_01
v 0.04487915 0 0
v 0.05499695 0.1229277 0
v 0.02749817 0.1229277 -0.04762939
v 0.02243896 0 -0.03886719
v 0.02243896 0 -0.03886719
v 0.02749817 0.1229277 -0.04762939
v -0.02749878 0.1229277 -0.04762939
v -0.02243957 0 -0.03886719
v -0.02243957 0 -0.03886719
v -0.02749878 0.1229277 -0.04762939
v -0.05499695 0.1229277 0
v -0.04487915 0 0
v -0.04487915 0 0
v -0.05499695 0.1229277 0
v -0.02749878 0.1229277 0.04762939
v -0.02243957 0 0.03886719
v -0.02243957 0 0.03886719
v -0.02749878 0.1229277 0.04762939
v 0.02749817 0.1229277 0.04762939
v 0.02243896 0 0.03886719
v 0.02243896 0 0.03886719
v 0.02749817 0.1229277 0.04762939
v 0.05499695 0.1229277 0
v 0.04487915 0 0
v 0.04483948 0.1229277 0
v 0.03376038 0.02258316 0
v 0.01687988 0.02258316 -0.02923584
v 0.02241943 0.1229277 -0.03883057
v 0.02241943 0.1229277 -0.03883057
v 0.01687988 0.02258316 -0.02923584
v -0.01688049 0.02258316 -0.02923584
v -0.02241943 0.1229277 -0.03883057
v -0.02241943 0.1229277 -0.03883057
v -0.01688049 0.02258316 -0.02923584
v -0.03376038 0.02258316 0
v -0.04484009 0.1229277 0
v -0.04484009 0.1229277 0
v -0.03376038 0.02258316 0
v -0.01688049 0.02258316 0.02923828
v -0.02241943 0.1229277 0.03883057
v -0.02241943 0.1229277 0.03883057
v -0.01688049 0.02258316 0.02923828
v 0.01687988 0.02258316 0.02923828
v 0.02241943 0.1229277 0.03883057
v 0.02241943 0.1229277 0.03883057
v 0.01687988 0.02258316 0.02923828
v 0.03376038 0.02258316 0
v 0.04483948 0.1229277 0
v 0.03376038 0.02258316 0
v 0 0.02258316 0
v 0.01687988 0.02258316 -0.02923584
v 0.01687988 0.02258316 0.02923828
v -0.01688049 0.02258316 -0.02923584
v -0.01688049 0.02258316 0.02923828
v -0.03376038 0.02258316 0
v 0.02243896 0 -0.03886719
v 0 0 0
v 0.04487915 0 0
v -0.02243957 0 -0.03886719
v 0.02243896 0 0.03886719
v -0.04487915 0 0
v -0.02243957 0 0.03886719
v 0.05499695 0.1229277 0
v 0.04483948 0.1229277 0
v 0.02241943 0.1229277 -0.03883057
v 0.02749817 0.1229277 -0.04762939
v 0.02749817 0.1229277 0.04762939
v -0.02241943 0.1229277 -0.03883057
v 0.02241943 0.1229277 0.03883057
v -0.02749878 0.1229277 -0.04762939
v -0.02749878 0.1229277 0.04762939
v -0.04484009 0.1229277 0
v -0.02241943 0.1229277 0.03883057
v -0.05499695 0.1229277 0
vt 0.07067871 0.3815918
vt 0.07067871 0.3815918
vt 0.07067871 0.3815918
vt 0.07067871 0.3815918
vt 0.07067871 0.3815918
vt 0.07067871 0.3815918
vt 0.07067871 0.3815918
vt 0.07067871 0.3815918
vt 0.07067871 0.3815918
vt 0.07067871 0.3815918
vt 0.07067871 0.3815918
vt 0.07067871 0.3815918
vt 0.07067871 0.3815918
vt 0.07067871 0.3815918
vt 0.07067871 0.3815918
vt 0.07067871 0.3815918
vt 0.07067871 0.3815918
vt 0.07067871 0.3815918
vt 0.07067871 0.3815918
vt 0.07067871 0.3815918
vt 0.07067871 0.3815918
vt 0.07067871 0.3815918
vt 0.07067871 0.3815918
vt 0.07067871 0.3815918
vt 0.07067871 0.3815918
vt 0.07067871 0.3815918
vt 0.07067871 0.3815918
vt 0.07067871 0.3815918
vt 0.07067871 0.3815918
vt 0.07067871 0.3815918
vt 0.07067871 0.3815918
vt 0.07067871 0.3815918
vt 0.07067871 0.3815918
vt 0.07067871 0.3815918
vt 0.07067871 0.3815918
vt 0.07067871 0.3815918
vt 0.07067871 0.3815918
vt 0.07067871 0.3815918
vt 0.07067871 0.3815918
vt 0.07067871 0.3815918
vt 0.07067871 0.3815918
vt 0.07067871 0.3815918
vt 0.07067871 0.3815918
vt 0.07067871 0.3815918
vt 0.07067871 0.3815918
vt 0.07067871 0.3815918
vt 0.07067871 0.3815918
vt 0.07067871 0.3815918
vt 0.07067871 0.3815918
vt 0.07067871 0.3815918
vt 0.07067871 0.3815918
vt 0.07067871 0.3815918
vt 0.07067871 0.3815918
vt 0.07067871 0.3815918
vt 0.07067871 0.3815918
vt 0.07067871 0.3815918
vt 0.07067871 0.3815918
vt 0.07067871 0.3815918
vt 0.07067871 0.3815918
vt 0.07067871 0.3815918
vt 0.07067871 0.3815918
vt 0.07067871 0.3815918
vt 0.07067871 0.3815918
vt 0.07067871 0.3815918
vt 0.07067871 0.3815918
vt 0.07067871 0.3815918
vt 0.07067871 0.3815918
vt 0.07067871 0.3815918
vt 0.07067871 0.3815918
vt 0.07067871 0.3815918
vt 0.07067871 0.3815918
vt 0.07067871 0.3815918
vt 0.07067871 0.3815918
vt 0.07067871 0.3815918
vn 0.8637695 -0.07110596 -0.4987793
vn 0.8637695 -0.07110596 -0.4987793
vn 0.8637695 -0.07110596 -0.4987793
vn 0.8637695 -0.07110596 -0.4987793
vn 0 -0.07110596 -0.9975586
vn 0 -0.07110596 -0.9975586
vn 0 -0.07110596 -0.9975586
vn 0 -0.07110596 -0.9975586
vn -0.8637695 -0.07110596 -0.4987793
vn -0.8637695 -0.07110596 -0.4987793
vn -0.8637695 -0.07110596 -0.4987793
vn -0.8637695 -0.07110596 -0.4987793
vn -0.8637695 -0.07110596 0.4987793
vn -0.8637695 -0.07110596 0.4987793
vn -0.8637695 -0.07110596 0.4987793
vn -0.8637695 -0.07110596 0.4987793
vn 0 -0.07110596 0.9975586
vn 0 -0.07110596 0.9975586
vn 0 -0.07110596 0.9975586
vn 0 -0.07110596 0.9975586
vn 0.8637695 -0.07110596 0.4987793
vn 0.8637695 -0.07110596 0.4987793
vn 0.8637695 -0.07110596 0.4987793
vn 0.8637695 -0.07110596 0.4987793
vn -0.8623047 0.09515381 0.4978027
vn -0.8623047 0.09515381 0.4978027
vn -0.8623047 0.09515381 0.4978027
vn -0.8623047 0.09515381 0.4978027
vn 0 0.09515381 0.9956055
vn 0 0.09515381 0.9956055
vn 0 0.09515381 0.9956055
vn 0 0.09515381 0.9956055
vn 0.8623047 0.09515381 0.4978027
vn 0.8623047 0.09515381 0.4978027
vn 0.8623047 0.09515381 0.4978027
vn 0.8623047 0.09515381 0.4978027
vn 0.8623047 0.09515381 -0.4978027
vn 0.8623047 0.09515381 -0.4978027
vn 0.8623047 0.09515381 -0.4978027
vn 0.8623047 0.09515381 -0.4978027
vn 0 0.09515381 -0.9956055
vn 0 0.09515381 -0.9956055
vn 0 0.09515381 -0.9956055
vn 0 0.09515381 -0.9956055
vn -0.8623047 0.09515381 -0.4978027
vn -0.8623047 0.09515381 -0.4978027
vn -0.8623047 0.09515381 -0.4978027
vn -0.8623047 0.09515381 -0.4978027
vn 0 1 0
vn 0 1 0
vn 0 1 0
vn 0 1 0
vn 0 1 0
vn 0 1 0
vn 0 1 0
vn 0 -1 0
vn 0 -1 0
vn 0 -1 0
vn 0 -1 0
vn 0 -1 0
vn 0 -1 0
vn 0 -1 0
vn 0 1 0
vn 0 1 0
vn 0 1 0
vn 0 1 0
vn 0 1 0
vn 0 1 0
vn 0 1 0
vn 0 1 0
vn 0 1 0
vn 0 1 0
vn 0 1 0
vn 0 1 0
g SM_Item_Cup_01_0
f 3/3/3 2/2/2 1/1/1
f 4/4/4 3/3/3 1/1/1
f 7/7/7 6/6/6 5/5/5
f 8/8/8 7/7/7 5/5/5
f 11/11/11 10/10/10 9/9/9
f 12/12/12 11/11/11 9/9/9
f 15/15/15 14/14/14 13/13/13
f 16/16/16 15/15/15 13/13/13
f 19/19/19 18/18/18 17/17/17
f 20/20/20 19/19/19 17/17/17
f 23/23/23 22/22/22 21/21/21
f 24/24/24 23/23/23 21/21/21
f 27/27/27 26/26/26 25/25/25
f 28/28/28 27/27/27 25/25/25
f 31/31/31 30/30/30 29/29/29
f 32/32/32 31/31/31 29/29/29
f 35/35/35 34/34/34 33/33/33
f 36/36/36 35/35/35 33/33/33
f 39/39/39 38/38/38 37/37/37
f 40/40/40 39/39/39 37/37/37
f 43/43/43 42/42/42 41/41/41
f 44/44/44 43/43/43 41/41/41
f 47/47/47 46/46/46 45/45/45
f 48/48/48 47/47/47 45/45/45
f 51/51/51 50/50/50 49/49/49
f 49/49/49 50/50/50 52/52/52
f 53/53/53 50/50/50 51/51/51
f 52/52/52 50/50/50 54/54/54
f 55/55/55 50/50/50 53/53/53
f 54/54/54 50/50/50 55/55/55
f 58/58/58 57/57/57 56/56/56
f 56/56/56 57/57/57 59/59/59
f 60/60/60 57/57/57 58/58/58
f 59/59/59 57/57/57 61/61/61
f 62/62/62 57/57/57 60/60/60
f 61/61/61 57/57/57 62/62/62
f 65/65/65 64/64/64 63/63/63
f 66/66/66 65/65/65 63/63/63
f 63/63/63 64/64/64 67/67/67
f 68/68/68 65/65/65 66/66/66
f 64/64/64 69/69/69 67/67/67
f 70/70/70 68/68/68 66/66/66
f 67/67/67 69/69/69 71/71/71
f 72/72/72 68/68/68 70/70/70
f 69/69/69 73/73/73 71/71/71
f 74/74/74 72/72/72 70/70/70
f 71/71/71 73/73/73 74/74/74
f 73/73/73 72/72/72 74/74/74
