g SM_Prop_Rug_02
v -0.7740703 0 0.5918189
v -0.7740703 0 -0.5105806
v -0.7609094 0.03136459 -0.502918
v -0.7609093 0.03136459 0.5841556
v 1.57608 0.03136459 0.5841556
v 1.57608 0.03136459 -0.502918
v 1.589245 0 -0.5105807
v 1.589245 0 0.5918188
v -0.5822608 0 0.811032
v -0.5706883 0.03136459 0.8000786
v 1.38586 0.03136459 0.8000786
v 1.397435 0 0.8110319
v 1.397435 0 -0.7297938
v 1.38586 0.03136459 -0.7188411
v -0.5706882 0.03136459 -0.7188411
v -0.5822608 0 -0.7297938
v -0.02088588 0.03136459 -0.10559
v 0.8360599 0.03136459 -0.10559
v 0.8961946 0.03136459 -0.05975372
v -0.08102069 0.03136459 -0.05975375
v -0.08102068 0.03136459 0.1409896
v 0.8961946 0.03136459 0.1409896
v -0.02088587 0.03136459 0.1868254
v 0.83606 0.03136459 0.1868254
v -0.5822608 0 -0.7297938
v -0.5706882 0.03136459 -0.7188411
v -0.7609094 0.03136459 -0.502918
v -0.7740703 0 -0.5105806
v 1.397435 0 -0.7297938
v -0.5822608 0 -0.7297938
v -0.7740703 0 -0.5105806
v 1.589245 0 -0.5105807
v 1.589245 0 0.5918188
v -0.7740703 0 0.5918189
v 1.397435 0 0.8110319
v -0.5822608 0 0.811032
v 1.38586 0.03136459 -0.7188411
v 1.397435 0 -0.7297938
v 1.589245 0 -0.5105807
v 1.57608 0.03136459 -0.502918
v -0.7609093 0.03136459 0.5841556
v -0.5706883 0.03136459 0.8000786
v -0.5822608 0 0.811032
v -0.7740703 0 0.5918189
v 1.589245 0 0.5918188
v 1.397435 0 0.8110319
v 1.38586 0.03136459 0.8000786
v 1.57608 0.03136459 0.5841556
v -0.5706883 0.03136459 0.8000786
v -0.4525006 0.03136459 0.6892843
v 1.267675 0.03136459 0.6892843
v -0.6264995 0.03136459 0.5066413
v 1.38586 0.03136459 0.8000786
v -0.7609093 0.03136459 0.5841556
v 1.441673 0.03136459 0.5066412
v 1.57608 0.03136459 0.5841556
v 1.57608 0.03136459 -0.502918
v 1.441673 0.03136459 -0.4254055
v -0.6264995 0.03136459 -0.4254054
v -0.7609094 0.03136459 -0.502918
v -0.5706882 0.03136459 -0.7188411
v -0.4525006 0.03136459 -0.608049
v 1.38586 0.03136459 -0.7188411
v 1.267675 0.03136459 -0.608049
v -0.2039611 0.03136459 0.4222368
v -0.1457427 0.03136459 0.3579175
v 0.9609174 0.03136459 0.3579175
v -0.2776366 0.03136459 0.2748094
v 1.019136 0.03136459 0.4222368
v -0.343846 0.03136459 0.3198088
v 1.092811 0.03136459 0.2748094
v 1.159021 0.03136459 0.3198088
v 1.159021 0.03136459 -0.2385718
v 1.092811 0.03136459 -0.1935736
v -0.2776366 0.03136459 -0.1935736
v -0.343846 0.03136459 -0.2385717
v -0.2039611 0.03136459 -0.3409999
v -0.1457427 0.03136459 -0.276682
v 1.019136 0.03136459 -0.3409999
v 0.9609174 0.03136459 -0.276682
v -0.1457427 0.03136459 0.3579175
v -0.08588527 0.03136459 0.2858522
v 0.9010599 0.03136459 0.2858521
v -0.1791271 0.03136459 0.2103562
v 0.9609174 0.03136459 0.3579175
v -0.2776366 0.03136459 0.2748094
v 0.9943019 0.03136459 0.2103562
v 1.092811 0.03136459 0.2748094
v 1.092811 0.03136459 -0.1935736
v 0.9943019 0.03136459 -0.1291198
v -0.1791271 0.03136459 -0.1291198
v -0.2776366 0.03136459 -0.1935736
v -0.1457427 0.03136459 -0.276682
v -0.08588527 0.03136459 -0.204616
v 0.9609174 0.03136459 -0.276682
v 0.9010599 0.03136459 -0.2046161
v -0.3363507 0.03136459 0.5636171
v -0.2782758 0.03136459 0.5007823
v 1.093451 0.03136459 0.5007823
v -0.4283608 0.03136459 0.3747609
v 1.151525 0.03136459 0.5636171
v -0.494407 0.03136459 0.4187215
v 1.243536 0.03136459 0.3747609
v 1.309582 0.03136459 0.4187215
v 1.309582 0.03136459 -0.3374856
v 1.243536 0.03136459 -0.2935251
v -0.4283608 0.03136459 -0.2935251
v -0.494407 0.03136459 -0.3374856
v -0.3363507 0.03136459 -0.4823816
v -0.2782758 0.03136459 -0.4195469
v 1.151525 0.03136459 -0.4823817
v 1.093451 0.03136459 -0.4195469
v -0.08588527 0.03136459 0.2858522
v -0.02088587 0.03136459 0.1868254
v 0.83606 0.03136459 0.1868254
v -0.08102068 0.03136459 0.1409896
v 0.9010599 0.03136459 0.2858521
v -0.1791271 0.03136459 0.2103562
v 0.8961946 0.03136459 0.1409896
v 0.9943019 0.03136459 0.2103562
v 0.9943019 0.03136459 -0.1291198
v 0.8961946 0.03136459 -0.05975372
v -0.08102069 0.03136459 -0.05975375
v -0.1791271 0.03136459 -0.1291198
v -0.08588527 0.03136459 -0.204616
v -0.02088588 0.03136459 -0.10559
v 0.9010599 0.03136459 -0.2046161
v 0.8360599 0.03136459 -0.10559
v 1.267675 0.03136459 -0.608049
v 1.151525 0.03136459 -0.4823817
v -0.3363507 0.03136459 -0.4823816
v 1.309582 0.03136459 -0.3374856
v -0.4525006 0.03136459 -0.608049
v 1.441673 0.03136459 -0.4254055
v 1.441673 0.03136459 0.5066412
v 1.309582 0.03136459 0.4187215
v 1.267675 0.03136459 0.6892843
v 1.151525 0.03136459 0.5636171
v -0.494407 0.03136459 -0.3374856
v -0.6264995 0.03136459 -0.4254054
v -0.6264995 0.03136459 0.5066413
v -0.494407 0.03136459 0.4187215
v -0.4525006 0.03136459 0.6892843
v -0.3363507 0.03136459 0.5636171
v -0.4283608 0.03136459 -0.2935251
v -0.343846 0.03136459 0.3198088
v -0.4283608 0.03136459 0.3747609
v -0.2782758 0.03136459 0.5007823
v -0.343846 0.03136459 -0.2385717
v -0.2039611 0.03136459 0.4222368
v -0.2782758 0.03136459 -0.4195469
v 1.019136 0.03136459 0.4222368
v -0.2039611 0.03136459 -0.3409999
v 1.093451 0.03136459 0.5007823
v 1.093451 0.03136459 -0.4195469
v 1.019136 0.03136459 -0.3409999
v 1.159021 0.03136459 -0.2385718
v 1.243536 0.03136459 -0.2935251
v 1.159021 0.03136459 0.3198088
v 1.243536 0.03136459 0.3747609
vt 0.1024506 0.3276094
vt 0.1024506 0.3276094
vt 0.1024506 0.3276094
vt 0.1024506 0.3276094
vt 0.1024506 0.3276094
vt 0.1024506 0.3276094
vt 0.1024506 0.3276094
vt 0.1024506 0.3276094
vt 0.1024506 0.3276094
vt 0.1024506 0.3276094
vt 0.1024506 0.3276094
vt 0.1024506 0.3276094
vt 0.1024506 0.3276094
vt 0.1024506 0.3276094
vt 0.1024506 0.3276094
vt 0.1024506 0.3276094
vt 0.1023804 0.3787205
vt 0.1023804 0.3787205
vt 0.1023804 0.3787205
vt 0.1023804 0.3787205
vt 0.1023804 0.3787205
vt 0.1023804 0.3787205
vt 0.1023804 0.3787205
vt 0.1023804 0.3787205
vt 0.1024506 0.3276094
vt 0.1024506 0.3276094
vt 0.1024506 0.3276094
vt 0.1024506 0.3276094
vt 0.1024506 0.3276094
vt 0.1024506 0.3276094
vt 0.1024506 0.3276094
vt 0.1024506 0.3276094
vt 0.1024506 0.3276094
vt 0.1024506 0.3276094
vt 0.1024506 0.3276094
vt 0.1024506 0.3276094
vt 0.1024506 0.3276094
vt 0.1024506 0.3276094
vt 0.1024506 0.3276094
vt 0.1024506 0.3276094
vt 0.1024506 0.3276094
vt 0.1024506 0.3276094
vt 0.1024506 0.3276094
vt 0.1024506 0.3276094
vt 0.1024506 0.3276094
vt 0.1024506 0.3276094
vt 0.1024506 0.3276094
vt 0.1024506 0.3276094
vt 0.1024506 0.3276094
vt 0.1024506 0.3276094
vt 0.1024506 0.3276094
vt 0.1024506 0.3276094
vt 0.1024506 0.3276094
vt 0.1024506 0.3276094
vt 0.1024506 0.3276094
vt 0.1024506 0.3276094
vt 0.1024506 0.3276094
vt 0.1024506 0.3276094
vt 0.1024506 0.3276094
vt 0.1024506 0.3276094
vt 0.1024506 0.3276094
vt 0.1024506 0.3276094
vt 0.1024506 0.3276094
vt 0.1024506 0.3276094
vt 0.1023651 0.2809303
vt 0.1023651 0.2809303
vt 0.1023651 0.2809303
vt 0.1023651 0.2809303
vt 0.1023651 0.2809303
vt 0.1023651 0.2809303
vt 0.1023651 0.2809303
vt 0.1023651 0.2809303
vt 0.1023651 0.2809303
vt 0.1023651 0.2809303
vt 0.1023651 0.2809303
vt 0.1023651 0.2809303
vt 0.1023651 0.2809303
vt 0.1023651 0.2809303
vt 0.1023651 0.2809303
vt 0.1023651 0.2809303
vt 0.1023651 0.3775761
vt 0.1023651 0.3775761
vt 0.1023651 0.3775761
vt 0.1023651 0.3775761
vt 0.1023651 0.3775761
vt 0.1023651 0.3775761
vt 0.1023651 0.3775761
vt 0.1023651 0.3775761
vt 0.1023651 0.3775761
vt 0.1023651 0.3775761
vt 0.1023651 0.3775761
vt 0.1023651 0.3775761
vt 0.1023651 0.3775761
vt 0.1023651 0.3775761
vt 0.1023651 0.3775761
vt 0.1023651 0.3775761
vt 0.1024657 0.3275445
vt 0.1024657 0.3275445
vt 0.1024657 0.3275445
vt 0.1024657 0.3275445
vt 0.1024657 0.3275445
vt 0.1024657 0.3275445
vt 0.1024657 0.3275445
vt 0.1024657 0.3275445
vt 0.1024657 0.3275445
vt 0.1024657 0.3275445
vt 0.1024657 0.3275445
vt 0.1024657 0.3275445
vt 0.1024657 0.3275445
vt 0.1024657 0.3275445
vt 0.1024657 0.3275445
vt 0.1024657 0.3275445
vt 0.1024506 0.3272004
vt 0.1024506 0.3272004
vt 0.1024506 0.3272004
vt 0.1024506 0.3272004
vt 0.1024506 0.3272004
vt 0.1024506 0.3272004
vt 0.1024506 0.3272004
vt 0.1024506 0.3272004
vt 0.1024506 0.3272004
vt 0.1024506 0.3272004
vt 0.1024506 0.3272004
vt 0.1024506 0.3272004
vt 0.1024506 0.3272004
vt 0.1024506 0.3272004
vt 0.1024506 0.3272004
vt 0.1024506 0.3272004
vt 0.1023651 0.3775761
vt 0.1023651 0.3775761
vt 0.1023651 0.3775761
vt 0.1023651 0.3775761
vt 0.1023651 0.3775761
vt 0.1023651 0.3775761
vt 0.1023651 0.3775761
vt 0.1023651 0.3775761
vt 0.1023651 0.3775761
vt 0.1023651 0.3775761
vt 0.1023651 0.3775761
vt 0.1023651 0.3775761
vt 0.1023651 0.3775761
vt 0.1023651 0.3775761
vt 0.1023651 0.3775761
vt 0.1023651 0.3775761
vt 0.1023651 0.3775761
vt 0.1023651 0.3775761
vt 0.1023651 0.3775761
vt 0.1023651 0.3775761
vt 0.1023651 0.3775761
vt 0.1023651 0.3775761
vt 0.1023651 0.3775761
vt 0.1023651 0.3775761
vt 0.1023651 0.3775761
vt 0.1023651 0.3775761
vt 0.1023651 0.3775761
vt 0.1023651 0.3775761
vt 0.1023651 0.3775761
vt 0.1023651 0.3775761
vt 0.1023651 0.3775761
vt 0.1023651 0.3775761
vn -0.9221104 0.3869267 0
vn -0.9221104 0.3869267 0
vn -0.9221104 0.3869267 0
vn -0.9221104 0.3869267 0
vn 0.9220701 0.387023 0
vn 0.9220701 0.387023 0
vn 0.9220701 0.387023 0
vn 0.9220701 0.387023 0
vn 0 0.3297014 0.9440852
vn 0 0.3297014 0.9440852
vn 0 0.3297014 0.9440852
vn 0 0.3297014 0.9440852
vn 0 0.329682 -0.944092
vn 0 0.329682 -0.944092
vn 0 0.329682 -0.944092
vn 0 0.329682 -0.944092
vn 0 1 0
vn 0 1 0
vn 0 1 0
vn 0 1 0
vn 0 1 0
vn 0 1 0
vn 0 1 0
vn 0 1 0
vn -0.6742602 0.4415243 -0.5919709
vn -0.6742602 0.4415243 -0.5919709
vn -0.6742602 0.4415243 -0.5919709
vn -0.6742602 0.4415243 -0.5919709
vn 0 -1 0
vn 0 -1 0
vn 0 -1 0
vn 0 -1 0
vn 0 -1 0
vn 0 -1 0
vn 0 -1 0
vn 0 -1 0
vn 0.6742384 0.4415837 -0.5919514
vn 0.6742384 0.4415837 -0.5919514
vn 0.6742384 0.4415837 -0.5919514
vn 0.6742384 0.4415837 -0.5919514
vn -0.6742561 0.441535 0.5919675
vn -0.6742561 0.441535 0.5919675
vn -0.6742561 0.441535 0.5919675
vn -0.6742561 0.441535 0.5919675
vn 0.6742336 0.4415967 0.591947
vn 0.6742336 0.4415967 0.591947
vn 0.6742336 0.4415967 0.591947
vn 0.6742336 0.4415967 0.591947
vn 0 1 0
vn 0 1 0
vn 0 1 0
vn 0 1 0
vn 0 1 0
vn 0 1 0
vn 0 1 0
vn 0 1 0
vn 0 1 0
vn 0 1 0
vn 0 1 0
vn 0 1 0
vn 0 1 0
vn 0 1 0
vn 0 1 0
vn 0 1 0
vn 0 1 0
vn 0 1 0
vn 0 1 0
vn 0 1 0
vn 0 1 0
vn 0 1 0
vn 0 1 0
vn 0 1 0
vn 0 1 0
vn 0 1 0
vn 0 1 0
vn 0 1 0
vn 0 1 0
vn 0 1 0
vn 0 1 0
vn 0 1 0
vn 0 1 0
vn 0 1 0
vn 0 1 0
vn 0 1 0
vn 0 1 0
vn 0 1 0
vn 0 1 0
vn 0 1 0
vn 0 1 0
vn 0 1 0
vn 0 1 0
vn 0 1 0
vn 0 1 0
vn 0 1 0
vn 0 1 0
vn 0 1 0
vn 0 1 0
vn 0 1 0
vn 0 1 0
vn 0 1 0
vn 0 1 0
vn 0 1 0
vn 0 1 0
vn 0 1 0
vn 0 1 0
vn 0 1 0
vn 0 1 0
vn 0 1 0
vn 0 1 0
vn 0 1 0
vn 0 1 0
vn 0 1 0
vn 0 1 0
vn 0 1 0
vn 0 1 0
vn 0 1 0
vn 0 1 0
vn 0 1 0
vn 0 1 0
vn 0 1 0
vn 0 1 0
vn 0 1 0
vn 0 1 0
vn 0 1 0
vn 0 1 0
vn 0 1 0
vn 0 1 0
vn 0 1 0
vn 0 1 0
vn 0 1 0
vn 0 1 0
vn 0 1 0
vn 0 1 0
vn 0 1 0
vn 0 1 0
vn 0 1 0
vn 0 1 0
vn 0 1 0
vn 0 1 0
vn 0 1 0
vn 0 1 0
vn 0 1 0
vn 0 1 0
vn 0 1 0
vn 0 1 0
vn 0 1 0
vn 0 1 0
vn 0 1 0
vn 0 1 0
vn 0 1 0
vn 0 1 0
vn 0 1 0
vn 0 1 0
vn 0 1 0
vn 0 1 0
vn 0 1 0
vn 0 1 0
vn 0 1 0
vn 0 1 0
vn 0 1 0
g SM_Prop_Rug_02_0
f 3/3/3 2/2/2 1/1/1
f 4/4/4 3/3/3 1/1/1
f 7/7/7 6/6/6 5/5/5
f 8/8/8 7/7/7 5/5/5
f 11/11/11 10/10/10 9/9/9
f 12/12/12 11/11/11 9/9/9
f 15/15/15 14/14/14 13/13/13
f 16/16/16 15/15/15 13/13/13
f 19/19/19 18/18/18 17/17/17
f 20/20/20 19/19/19 17/17/17
f 19/19/19 20/20/20 21/21/21
f 22/22/22 19/19/19 21/21/21
f 21/21/21 23/23/23 22/22/22
f 23/23/23 24/24/24 22/22/22
f 27/27/27 26/26/26 25/25/25
f 28/28/28 27/27/27 25/25/25
f 31/31/31 30/30/30 29/29/29
f 32/32/32 31/31/31 29/29/29
f 31/31/31 32/32/32 33/33/33
f 34/34/34 31/31/31 33/33/33
f 33/33/33 35/35/35 34/34/34
f 35/35/35 36/36/36 34/34/34
f 39/39/39 38/38/38 37/37/37
f 40/40/40 39/39/39 37/37/37
f 43/43/43 42/42/42 41/41/41
f 44/44/44 43/43/43 41/41/41
f 47/47/47 46/46/46 45/45/45
f 48/48/48 47/47/47 45/45/45
f 51/51/51 50/50/50 49/49/49
f 49/49/49 50/50/50 52/52/52
f 53/53/53 51/51/51 49/49/49
f 54/54/54 49/49/49 52/52/52
f 55/55/55 51/51/51 53/53/53
f 56/56/56 55/55/55 53/53/53
f 56/56/56 57/57/57 55/55/55
f 57/57/57 58/58/58 55/55/55
f 52/52/52 59/59/59 54/54/54
f 59/59/59 60/60/60 54/54/54
f 60/60/60 59/59/59 61/61/61
f 59/59/59 62/62/62 61/61/61
f 57/57/57 63/63/63 58/58/58
f 61/61/61 62/62/62 63/63/63
f 63/63/63 64/64/64 58/58/58
f 62/62/62 64/64/64 63/63/63
f 67/67/67 66/66/66 65/65/65
f 65/65/65 66/66/66 68/68/68
f 69/69/69 67/67/67 65/65/65
f 70/70/70 65/65/65 68/68/68
f 71/71/71 67/67/67 69/69/69
f 72/72/72 71/71/71 69/69/69
f 72/72/72 73/73/73 71/71/71
f 73/73/73 74/74/74 71/71/71
f 68/68/68 75/75/75 70/70/70
f 75/75/75 76/76/76 70/70/70
f 76/76/76 75/75/75 77/77/77
f 75/75/75 78/78/78 77/77/77
f 73/73/73 79/79/79 74/74/74
f 77/77/77 78/78/78 79/79/79
f 79/79/79 80/80/80 74/74/74
f 78/78/78 80/80/80 79/79/79
f 83/83/83 82/82/82 81/81/81
f 81/81/81 82/82/82 84/84/84
f 85/85/85 83/83/83 81/81/81
f 86/86/86 81/81/81 84/84/84
f 87/87/87 83/83/83 85/85/85
f 88/88/88 87/87/87 85/85/85
f 88/88/88 89/89/89 87/87/87
f 89/89/89 90/90/90 87/87/87
f 84/84/84 91/91/91 86/86/86
f 91/91/91 92/92/92 86/86/86
f 92/92/92 91/91/91 93/93/93
f 91/91/91 94/94/94 93/93/93
f 89/89/89 95/95/95 90/90/90
f 93/93/93 94/94/94 95/95/95
f 95/95/95 96/96/96 90/90/90
f 94/94/94 96/96/96 95/95/95
f 99/99/99 98/98/98 97/97/97
f 97/97/97 98/98/98 100/100/100
f 101/101/101 99/99/99 97/97/97
f 102/102/102 97/97/97 100/100/100
f 103/103/103 99/99/99 101/101/101
f 104/104/104 103/103/103 101/101/101
f 104/104/104 105/105/105 103/103/103
f 105/105/105 106/106/106 103/103/103
f 100/100/100 107/107/107 102/102/102
f 107/107/107 108/108/108 102/102/102
f 108/108/108 107/107/107 109/109/109
f 107/107/107 110/110/110 109/109/109
f 105/105/105 111/111/111 106/106/106
f 109/109/109 110/110/110 111/111/111
f 111/111/111 112/112/112 106/106/106
f 110/110/110 112/112/112 111/111/111
f 115/115/115 114/114/114 113/113/113
f 113/113/113 114/114/114 116/116/116
f 117/117/117 115/115/115 113/113/113
f 118/118/118 113/113/113 116/116/116
f 119/119/119 115/115/115 117/117/117
f 120/120/120 119/119/119 117/117/117
f 120/120/120 121/121/121 119/119/119
f 121/121/121 122/122/122 119/119/119
f 116/116/116 123/123/123 118/118/118
f 123/123/123 124/124/124 118/118/118
f 124/124/124 123/123/123 125/125/125
f 123/123/123 126/126/126 125/125/125
f 121/121/121 127/127/127 122/122/122
f 125/125/125 126/126/126 127/127/127
f 127/127/127 128/128/128 122/122/122
f 126/126/126 128/128/128 127/127/127
f 131/131/131 130/130/130 129/129/129
f 129/129/129 130/130/130 132/132/132
f 133/133/133 131/131/131 129/129/129
f 134/134/134 129/129/129 132/132/132
f 135/135/135 134/134/134 132/132/132
f 136/136/136 135/135/135 132/132/132
f 135/135/135 136/136/136 137/137/137
f 136/136/136 138/138/138 137/137/137
f 139/139/139 131/131/131 133/133/133
f 140/140/140 139/139/139 133/133/133
f 139/139/139 140/140/140 141/141/141
f 142/142/142 139/139/139 141/141/141
f 137/137/137 138/138/138 143/143/143
f 141/141/141 143/143/143 142/142/142
f 138/138/138 144/144/144 143/143/143
f 143/143/143 144/144/144 142/142/142
f 147/147/147 146/146/146 145/145/145
f 147/147/147 148/148/148 146/146/146
f 146/146/146 149/149/149 145/145/145
f 148/148/148 150/150/150 146/146/146
f 145/145/145 149/149/149 151/151/151
f 152/152/152 150/150/150 148/148/148
f 149/149/149 153/153/153 151/151/151
f 154/154/154 152/152/152 148/148/148
f 151/151/151 153/153/153 155/155/155
f 153/153/153 156/156/156 155/155/155
f 155/155/155 156/156/156 157/157/157
f 158/158/158 155/155/155 157/157/157
f 159/159/159 152/152/152 154/154/154
f 158/158/158 157/157/157 159/159/159
f 160/160/160 159/159/159 154/154/154
f 160/160/160 158/158/158 159/159/159
