g SM_Prop_Cabinet_02_Door_1
v 0.6254262 0.5304701 0.04654255
v 0.6254262 0.3413568 0.04654255
v 0.672522 0.3413568 0.04654255
v 0.672522 0.5304701 0.04654255
v 0.6264915 0.528634 0.07554256
v 0.6264915 0.3431929 0.07554256
v 0.6714568 0.3431929 0.07554256
v 0.6714568 0.528634 0.07554256
v 0.7331777 0.663655 7.629394E-08
v 2.303474E-08 0.663655 7.629394E-08
v 2.303474E-08 0.663655 0.05024284
v 0.7331777 1.421085E-16 0.05024284
v 0.7331777 1.421085E-16 7.629394E-08
v 0.6914572 0.663655 0.05024284
v 0.7331777 0.663655 0.02430961
v 0.7331777 0.5436551 0.05024284
v 0.009887642 0.009999008 7.629394E-08
v 0.01977518 1.421085E-16 7.629394E-08
v 2.303474E-08 0.01999802 7.629394E-08
v 0.01977518 1.421085E-16 0.02512398
v 0.0549029 1.421085E-16 0.05024284
v 2.303474E-08 0.01999802 0.02512398
v 2.303474E-08 0.05552147 0.05024284
v 0.3593078 0.663655 7.629394E-08
v 0.5338702 0.4449286 7.629394E-08
v 0.5338702 0.4449287 7.629394E-08
v 0.6254262 0.5304701 0.04654255
v 0.6264915 0.528634 0.07554256
v 0.6264915 0.3431929 0.07554256
v 0.6254262 0.3413568 0.04654255
v 0.6254262 0.3413568 0.04654255
v 0.6264915 0.3431929 0.07554256
v 0.6714568 0.3431929 0.07554256
v 0.672522 0.3413568 0.04654255
v 0.672522 0.3413568 0.04654255
v 0.6714568 0.3431929 0.07554256
v 0.6714568 0.528634 0.07554256
v 0.672522 0.5304701 0.04654255
v 0.672522 0.5304701 0.04654255
v 0.6714568 0.528634 0.07554256
v 0.6264915 0.528634 0.07554256
v 0.6254262 0.5304701 0.04654255
v 2.303474E-08 0.663655 7.629394E-08
v 0.6914572 0.663655 0.05024284
v 0.7331777 0.5436551 0.05024284
v 2.303474E-08 0.663655 0.05024284
v 2.303474E-08 0.05552147 0.05024284
v 0.5338702 0.4449286 7.629394E-08
v 0.5338702 0.4449287 7.629394E-08
v 0.009887642 0.009999008 7.629394E-08
v 2.303474E-08 0.01999802 7.629394E-08
v 2.303474E-08 0.01999802 7.629394E-08
v 2.303474E-08 0.01999802 0.02512398
v 0.009887642 0.009999008 7.629394E-08
v 2.303474E-08 0.01999802 7.629394E-08
v 0.01977518 1.421085E-16 7.629394E-08
v 0.01977518 1.421085E-16 0.02512398
v 2.303474E-08 0.01999802 0.02512398
v 2.303474E-08 0.05552147 0.05024284
v 0.0549029 1.421085E-16 0.05024284
v 0.7331777 0.663655 7.629394E-08
v 0.7331777 1.421085E-16 7.629394E-08
v 0.7331777 1.421085E-16 0.05024284
v 0.7331777 0.5436551 0.05024284
v 0.7331777 0.663655 0.02430961
v 0.7331777 1.421085E-16 0.05024284
v 0.7331777 1.421085E-16 7.629394E-08
v 0.01977518 1.421085E-16 7.629394E-08
v 0.01977518 1.421085E-16 0.02512398
v 0.0549029 1.421085E-16 0.05024284
v 2.303474E-08 0.663655 0.05024284
v 2.303474E-08 0.663655 7.629394E-08
v 0.3593078 0.663655 7.629394E-08
v 0.6914572 0.663655 0.05024284
v 0.009887642 0.009999008 7.629394E-08
v 0.01977518 1.421085E-16 7.629394E-08
v 0.7331777 0.663655 7.629394E-08
v 0.7331777 0.663655 0.02430961
vt 0.4462145 0.02140942
vt 0.4454718 0.02137175
vt 0.4454343 0.02200159
vt 0.4461535 0.02204146
vt 0.4462145 0.02140942
vt 0.4454718 0.02137175
vt 0.4454343 0.02200159
vt 0.4461535 0.02204146
vt 0.4466768 0.03801167
vt 0.4459577 0.03797179
vt 0.4459951 0.03734195
vt 0.4467187 0.03704581
vt 0.4466611 0.03765789
vt 0.4464041 0.03736269
vt 0.4467073 0.03769565
vt 0.4467282 0.0372127
vt 0.4459759 0.03762171
vt 0.445993 0.0376226
vt 0.4459754 0.03763047
vt 0.4460114 0.03731757
vt 0.4460611 0.0370141
vt 0.4459935 0.03732517
vt 0.4460109 0.03703463
vt 0.4465085 0.03800234
vt 0.4463185 0.0376398
vt 0.4463172 0.03799173
vt 0.4462145 0.02140942
vt 0.4462145 0.02140942
vt 0.4454718 0.02137175
vt 0.4454718 0.02137175
vt 0.4454718 0.02137175
vt 0.4454718 0.02137175
vt 0.4454343 0.02200159
vt 0.4454343 0.02200159
vt 0.4454343 0.02200159
vt 0.4454343 0.02200159
vt 0.4461535 0.02204146
vt 0.4461535 0.02204146
vt 0.4461535 0.02204146
vt 0.4461535 0.02204146
vt 0.4462145 0.02140942
vt 0.4462145 0.02140942
vt 0.4459577 0.03797179
vt 0.4464041 0.03736269
vt 0.4467282 0.0372127
vt 0.4459951 0.03734195
vt 0.4460109 0.03703463
vt 0.4463185 0.0376398
vt 0.4463172 0.03799173
vt 0.4459759 0.03762171
vt 0.4459754 0.03763047
vt 0.4459754 0.03763047
vt 0.4459935 0.03732517
vt 0.4459759 0.03762171
vt 0.4459754 0.03763047
vt 0.445993 0.0376226
vt 0.4460114 0.03731757
vt 0.4459935 0.03732517
vt 0.4460109 0.03703463
vt 0.4460611 0.0370141
vt 0.4466768 0.03801167
vt 0.4466611 0.03765789
vt 0.4467187 0.03704581
vt 0.4467282 0.0372127
vt 0.4467073 0.03769565
vt 0.4467187 0.03704581
vt 0.4466611 0.03765789
vt 0.445993 0.0376226
vt 0.4460114 0.03731757
vt 0.4460611 0.0370141
vt 0.4459951 0.03734195
vt 0.4459577 0.03797179
vt 0.4465085 0.03800234
vt 0.4464041 0.03736269
vt 0.4459759 0.03762171
vt 0.445993 0.0376226
vt 0.4466768 0.03801167
vt 0.4467073 0.03769565
vn 0 0 -1
vn 0 0 -1
vn 0 0 -1
vn 0 0 -1
vn 0 0 1
vn 0 0 1
vn 0 0 1
vn 0 0 1
vn 0 0 -1
vn -1 0 0
vn -1 0 0
vn 0 0 1
vn 0 0 -1
vn 0.5192431 0.1805262 0.8353424
vn 0.5192431 0.1805262 0.8353424
vn 0.5192431 0.1805262 0.8353424
vn 0 1 0
vn -0.7110577 -0.7031338 0
vn -1 0 0
vn -0.7110577 -0.7031338 0
vn 0 0 1
vn -1 0 0
vn -1 0 0
vn 0 0 -1
vn 0 0 -1
vn 0 0 -1
vn -0.999326 0 0.03670944
vn -0.999326 0 0.03670944
vn -0.999326 0 0.03670944
vn -0.999326 0 0.03670944
vn 0 -0.9980016 0.0631882
vn 0 -0.9980016 0.0631882
vn 0 -0.9980016 0.0631882
vn 0 -0.9980016 0.0631882
vn 0.999326 0 0.03670944
vn 0.999326 0 0.03670944
vn 0.999326 0 0.03670944
vn 0.999326 0 0.03670944
vn 0 0.9980016 0.0631882
vn 0 0.9980016 0.0631882
vn 0 0.9980016 0.0631882
vn 0 0.9980016 0.0631882
vn 0 0 -1
vn 0 0 1
vn 0 0 1
vn 0 0 1
vn 0 0 1
vn 0 1 0
vn 0 1 0
vn 0 0 -1
vn 0 0 -1
vn -0.7110577 -0.7031338 0
vn -0.7110577 -0.7031338 0
vn 0 1 0
vn 0 1 0
vn 0 1 0
vn -0.5042072 -0.4985893 0.7051126
vn -0.5042072 -0.4985893 0.7051126
vn -0.5042072 -0.4985892 0.7051126
vn -0.5042072 -0.4985892 0.7051126
vn 1 0 0
vn 1 0 0
vn 1 0 0
vn 1 0 0
vn 1 0 0
vn 0 -1 0
vn 0 -1 0
vn 0 -1 0
vn 0 -1 0
vn 0 -1 0
vn 0 1 0
vn 0 1 0
vn 0 1 0
vn 0 1 0
vn 0 0 -1
vn 0 0 -1
vn 0 1 0
vn 0 1 0
g SM_Prop_Cabinet_02_Door_1_0
f 15/15/15 14/14/14 16/16/16
f 49/49/49 48/48/48 17/17/17
f 56/56/56 55/55/55 54/54/54
f 7/7/7 8/8/8 5/5/5
f 6/6/6 7/7/7 5/5/5
f 3/3/3 2/2/2 1/1/1
f 4/4/4 3/3/3 1/1/1
f 29/29/29 28/28/28 27/27/27
f 30/30/30 29/29/29 27/27/27
f 33/33/33 32/32/32 31/31/31
f 34/34/34 33/33/33 31/31/31
f 37/37/37 36/36/36 35/35/35
f 38/38/38 37/37/37 35/35/35
f 41/41/41 40/40/40 39/39/39
f 42/42/42 41/41/41 39/39/39
f 19/19/19 22/22/22 23/23/23
f 23/23/23 10/10/10 19/19/19
f 23/23/23 11/11/11 10/10/10
f 12/12/12 45/45/45 44/44/44
f 44/44/44 21/21/21 12/12/12
f 44/44/44 46/46/46 21/21/21
f 46/46/46 47/47/47 21/21/21
f 50/50/50 51/51/51 43/43/43
f 50/50/50 43/43/43 26/26/26
f 43/43/43 24/24/24 26/26/26
f 24/24/24 9/9/9 26/26/26
f 25/25/25 26/26/26 9/9/9
f 13/13/13 25/25/25 9/9/9
f 13/13/13 76/76/76 25/25/25
f 76/76/76 75/75/75 25/25/25
f 52/52/52 18/18/18 20/20/20
f 53/53/53 52/52/52 20/20/20
f 59/59/59 58/58/58 57/57/57
f 60/60/60 59/59/59 57/57/57
f 63/63/63 62/62/62 61/61/61
f 61/61/61 64/64/64 63/63/63
f 61/61/61 65/65/65 64/64/64
f 68/68/68 67/67/67 66/66/66
f 66/66/66 69/69/69 68/68/68
f 66/66/66 70/70/70 69/69/69
f 73/73/73 72/72/72 71/71/71
f 74/74/74 73/73/73 71/71/71
f 74/74/74 78/78/78 73/73/73
f 78/78/78 77/77/77 73/73/73
