g SM_Prop_BookOpen_01
v 0.3000671 0 0.1727148
v 0.3007617 0.009692993 0.1727148
v 0.3007617 0.009692993 -0.1727148
v 0.3000671 0 -0.1727148
v 0.03249878 0.0006560516 -0.1727148
v 0 0.003276596 0.1727148
v 0.03249878 0.0006560516 0.1727148
v 0 0.003276596 -0.1727148
v -0.03249878 0.0006560516 -0.1727148
v -0.03249878 0.0006560516 0.1727148
v 0.03513794 0.05796356 -0.1642828
v 0.07027709 0.05796356 0.1642828
v 0.03513794 0.05796356 0.1642828
v 0.07027709 0.05796356 -0.1642828
v 0.1331982 0.04112045 -0.1642828
v 0.1331982 0.04112045 0.1642828
v 0.2772656 0.02827171 -0.1642828
v 0.2772656 0.02827171 0.1642828
v 0.03249878 0.0006560516 -0.1727148
v 0.03249878 0.0006560516 0.1727148
v 0.0325 0.0191761 0.1727148
v 0.0325 0.01917496 -0.1727148
v 0.0325 0.01917496 -0.1727148
v 0.0325 0.0191761 0.1727148
v 0.3000671 0 0.1727148
v 0.3000671 0 -0.1727148
v 0.3000671 0 -0.1727148
v 0.3007617 0.009692993 -0.1727148
v 0.02348633 0.0288694 -0.1727148
v 0.0325 0.01917496 -0.1727148
v 0.02225586 0.01775925 -0.1727148
v 0.03249878 0.0006560516 -0.1727148
v 0 0.01760956 -0.1727148
v 0 0.003276596 -0.1727148
v -0.03249878 0.0006560516 -0.1727148
v -0.02225586 0.01775925 -0.1727148
v -0.0325 0.01917496 -0.1727148
v -0.02348633 0.0288694 -0.1727148
v -0.3000671 0 -0.1727148
v -0.3007617 0.009692993 -0.1727148
v 0.0325 0.0191761 0.1727148
v 0.3007617 0.009692993 0.1727148
v 0.3000671 0 0.1727148
v 0.02348633 0.0288694 0.1727148
v 0.03249878 0.0006560516 0.1727148
v 0.02225586 0.01775925 0.1727148
v 0 0.01760956 0.1727148
v 0 0.003276596 0.1727148
v -0.03249878 0.0006560516 0.1727148
v -0.02225586 0.01775925 0.1727148
v -0.02348633 0.0288694 0.1727148
v -0.0325 0.0191761 0.1727148
v -0.3007617 0.009692993 0.1727148
v -0.3000671 0 0.1727148
v 0 0.01760956 -0.1727148
v 0.02225586 0.01775925 -0.1727148
v 0.02225586 0.01775925 -0.1642828
v 0 0.01760956 -0.1642828
v -0.02225586 0.01775925 -0.1642828
v -0.02225586 0.01775925 -0.1727148
v 0.02225586 0.01775925 0.1727148
v 0 0.01760956 0.1642828
v 0.02225586 0.01775925 0.1642828
v 0 0.01760956 0.1727148
v -0.02225586 0.01775925 0.1727148
v -0.02225586 0.01775925 0.1642828
v 0.02348633 0.0288694 -0.1727148
v 0.2949353 0.01035789 -0.1642828
v 0.02348633 0.0288694 -0.1642828
v 0.3007617 0.009692993 -0.1727148
v 0.2949353 0.01035789 0.1642828
v 0.3007617 0.009692993 0.1727148
v 0.02348633 0.0288694 0.1642828
v 0.02348633 0.0288694 0.1727148
v 0.02225586 0.01775925 -0.1727148
v 0.02348633 0.0288694 -0.1727148
v 0.02348633 0.0288694 -0.1642828
v 0.02225586 0.01775925 -0.1642828
v 0.02348633 0.0288694 0.1727148
v 0.02225586 0.01775925 0.1727148
v 0.02225586 0.01775925 0.1642828
v 0.02348633 0.0288694 0.1642828
v 0.02348633 0.0288694 -0.1642828
v 0.2949353 0.01035789 -0.1642828
v 0.2772656 0.02827171 -0.1642828
v 0.1331982 0.04112045 -0.1642828
v 0.07027709 0.05796356 -0.1642828
v 0.03513794 0.05796356 -0.1642828
v 0 0.03542755 -0.1642828
v 0.02225586 0.01775925 -0.1642828
v 0 0.01760956 -0.1642828
v -0.02348633 0.0288694 -0.1642828
v -0.02225586 0.01775925 -0.1642828
v -0.03513794 0.05796356 -0.1642828
v -0.07027709 0.05796356 -0.1642828
v -0.1331982 0.04112045 -0.1642828
v -0.2772656 0.02827171 -0.1642828
v -0.2949353 0.01035789 -0.1642828
v 0.2949353 0.01035789 -0.1642828
v 0.2949353 0.01035789 0.1642828
v 0.2772656 0.02827171 0.1642828
v 0.2772656 0.02827171 -0.1642828
v 0.2949353 0.01035789 0.1642828
v 0.1331982 0.04112045 0.1642828
v 0.2772656 0.02827171 0.1642828
v 0.02348633 0.0288694 0.1642828
v 0.07027709 0.05796356 0.1642828
v 0.03513794 0.05796356 0.1642828
v 0 0.03542755 0.1642828
v 0 0.01760956 0.1642828
v 0.02225586 0.01775925 0.1642828
v -0.02225586 0.01775925 0.1642828
v -0.02348633 0.0288694 0.1642828
v -0.03513794 0.05796356 0.1642828
v -0.07027709 0.05796356 0.1642828
v -0.1331982 0.04112045 0.1642828
v -0.2949353 0.01035789 0.1642828
v -0.2772656 0.02827171 0.1642828
v -0.3000671 0 0.1727148
v -0.3000671 0 -0.1727148
v -0.3007617 0.009692993 -0.1727148
v -0.3007617 0.009692993 0.1727148
v -0.03513794 0.05796356 0.1642828
v -0.07027709 0.05796356 -0.1642828
v -0.03513794 0.05796356 -0.1642828
v -0.07027709 0.05796356 0.1642828
v -0.1331982 0.04112045 -0.1642828
v -0.1331982 0.04112045 0.1642828
v -0.2772656 0.02827171 -0.1642828
v -0.2772656 0.02827171 0.1642828
v -0.03249878 0.0006560516 -0.1727148
v -0.0325 0.01917496 -0.1727148
v -0.0325 0.0191761 0.1727148
v -0.03249878 0.0006560516 0.1727148
v -0.0325 0.01917496 -0.1727148
v -0.3000671 0 -0.1727148
v -0.3000671 0 0.1727148
v -0.0325 0.0191761 0.1727148
v -0.02348633 0.0288694 -0.1727148
v -0.02348633 0.0288694 -0.1642828
v -0.2949353 0.01035789 -0.1642828
v -0.3007617 0.009692993 -0.1727148
v -0.2949353 0.01035789 0.1642828
v -0.3007617 0.009692993 0.1727148
v -0.02348633 0.0288694 0.1642828
v -0.02348633 0.0288694 0.1727148
v -0.02225586 0.01775925 -0.1727148
v -0.02225586 0.01775925 -0.1642828
v -0.02348633 0.0288694 -0.1642828
v -0.02348633 0.0288694 -0.1727148
v -0.02348633 0.0288694 0.1727148
v -0.02348633 0.0288694 0.1642828
v -0.02225586 0.01775925 0.1642828
v -0.02225586 0.01775925 0.1727148
v -0.2949353 0.01035789 -0.1642828
v -0.2772656 0.02827171 -0.1642828
v -0.2772656 0.02827171 0.1642828
v -0.2949353 0.01035789 0.1642828
v 0 0.03542755 0.1642828
v -0.03513794 0.05796356 0.1642828
v -0.03513794 0.05796356 -0.1642828
v 0 0.03542755 -0.1642828
v 0 0.03542755 0.1642828
v 0 0.03542755 -0.1642828
v 0.03513794 0.05796356 -0.1642828
v 0.03513794 0.05796356 0.1642828
vt 0.3430766 0.4462203
vt 0.3430766 0.4462203
vt 0.3430766 0.4462203
vt 0.3430766 0.4462203
vt 0.3430766 0.4462203
vt 0.3430766 0.4462203
vt 0.3430766 0.4462203
vt 0.3430766 0.4462203
vt 0.3430766 0.4462203
vt 0.3430766 0.4462203
vt 0.03796387 0.3806076
vt 0.03796387 0.3806076
vt 0.03796387 0.3806076
vt 0.03796387 0.3806076
vt 0.03796387 0.3806076
vt 0.03796387 0.3806076
vt 0.03796387 0.3806076
vt 0.03796387 0.3806076
vt 0.3430766 0.4462203
vt 0.3430766 0.4462203
vt 0.3430766 0.4462203
vt 0.3430766 0.4462203
vt 0.3430766 0.4462203
vt 0.3430766 0.4462203
vt 0.3430766 0.4462203
vt 0.3430766 0.4462203
vt 0.3430766 0.4462203
vt 0.3430766 0.4462203
vt 0.3430766 0.4462203
vt 0.3430766 0.4462203
vt 0.3430766 0.4462203
vt 0.3430766 0.4462203
vt 0.3430766 0.4462203
vt 0.3430766 0.4462203
vt 0.3430766 0.4462203
vt 0.3430766 0.4462203
vt 0.3430766 0.4462203
vt 0.3430766 0.4462203
vt 0.3430766 0.4462203
vt 0.3430766 0.4462203
vt 0.3430766 0.4462203
vt 0.3430766 0.4462203
vt 0.3430766 0.4462203
vt 0.3430766 0.4462203
vt 0.3430766 0.4462203
vt 0.3430766 0.4462203
vt 0.3430766 0.4462203
vt 0.3430766 0.4462203
vt 0.3430766 0.4462203
vt 0.3430766 0.4462203
vt 0.3430766 0.4462203
vt 0.3430766 0.4462203
vt 0.3430766 0.4462203
vt 0.3430766 0.4462203
vt 0.3430766 0.4462203
vt 0.3430766 0.4462203
vt 0.3430766 0.4462203
vt 0.3430766 0.4462203
vt 0.3430766 0.4462203
vt 0.3430766 0.4462203
vt 0.3430766 0.4462203
vt 0.3430766 0.4462203
vt 0.3430766 0.4462203
vt 0.3430766 0.4462203
vt 0.3430766 0.4462203
vt 0.3430766 0.4462203
vt 0.3430766 0.4462203
vt 0.3430766 0.4462203
vt 0.3430766 0.4462203
vt 0.3430766 0.4462203
vt 0.3430766 0.4462203
vt 0.3430766 0.4462203
vt 0.3430766 0.4462203
vt 0.3430766 0.4462203
vt 0.3430766 0.4462203
vt 0.3430766 0.4462203
vt 0.3430766 0.4462203
vt 0.3430766 0.4462203
vt 0.3430766 0.4462203
vt 0.3430766 0.4462203
vt 0.3430766 0.4462203
vt 0.3430766 0.4462203
vt 0.03796387 0.3806076
vt 0.03796387 0.3806076
vt 0.03796387 0.3806076
vt 0.03796387 0.3806076
vt 0.03796387 0.3806076
vt 0.03796387 0.3806076
vt 0.03796387 0.3806076
vt 0.03796387 0.3806076
vt 0.03796387 0.3806076
vt 0.03796387 0.3806076
vt 0.03796387 0.3806076
vt 0.03796387 0.3806076
vt 0.03796387 0.3806076
vt 0.03796387 0.3806076
vt 0.03796387 0.3806076
vt 0.03796387 0.3806076
vt 0.03796387 0.3806076
vt 0.03796387 0.3806076
vt 0.03796387 0.3806076
vt 0.03796387 0.3806076
vt 0.03796387 0.3806076
vt 0.03796387 0.3806076
vt 0.03796387 0.3806076
vt 0.03796387 0.3806076
vt 0.03796387 0.3806076
vt 0.03796387 0.3806076
vt 0.03796387 0.3806076
vt 0.03796387 0.3806076
vt 0.03796387 0.3806076
vt 0.03796387 0.3806076
vt 0.03796387 0.3806076
vt 0.03796387 0.3806076
vt 0.03796387 0.3806076
vt 0.03796387 0.3806076
vt 0.03796387 0.3806076
vt 0.03796387 0.3806076
vt 0.3430766 0.4462203
vt 0.3430766 0.4462203
vt 0.3430766 0.4462203
vt 0.3430766 0.4462203
vt 0.03796387 0.3806076
vt 0.03796387 0.3806076
vt 0.03796387 0.3806076
vt 0.03796387 0.3806076
vt 0.03796387 0.3806076
vt 0.03796387 0.3806076
vt 0.03796387 0.3806076
vt 0.03796387 0.3806076
vt 0.3430766 0.4462203
vt 0.3430766 0.4462203
vt 0.3430766 0.4462203
vt 0.3430766 0.4462203
vt 0.3430766 0.4462203
vt 0.3430766 0.4462203
vt 0.3430766 0.4462203
vt 0.3430766 0.4462203
vt 0.3430766 0.4462203
vt 0.3430766 0.4462203
vt 0.3430766 0.4462203
vt 0.3430766 0.4462203
vt 0.3430766 0.4462203
vt 0.3430766 0.4462203
vt 0.3430766 0.4462203
vt 0.3430766 0.4462203
vt 0.3430766 0.4462203
vt 0.3430766 0.4462203
vt 0.3430766 0.4462203
vt 0.3430766 0.4462203
vt 0.3430766 0.4462203
vt 0.3430766 0.4462203
vt 0.3430766 0.4462203
vt 0.3430766 0.4462203
vt 0.03796387 0.3806076
vt 0.03796387 0.3806076
vt 0.03796387 0.3806076
vt 0.03796387 0.3806076
vt 0.03796387 0.3806076
vt 0.03796387 0.3806076
vt 0.03796387 0.3806076
vt 0.03796387 0.3806076
vt 0.03796387 0.3806076
vt 0.03796387 0.3806076
vt 0.03796387 0.3806076
vt 0.03796387 0.3806076
vn 0.9974425 -0.07147469 0
vn 0.9974425 -0.07147469 0
vn 0.9974425 -0.07147469 0
vn 0.9974425 -0.07147469 0
vn -0.08037429 -0.9967648 0
vn 0 -1 0
vn -0.08037429 -0.9967648 0
vn 0 -1 0
vn 0.08037429 -0.9967648 0
vn 0.08037429 -0.9967648 0
vn 0 1 0
vn 0.1304044 0.9914609 0
vn 0 1 0
vn 0.1304044 0.9914609 0
vn 0.1743563 0.9846827 0
vn 0.1743563 0.9846827 0
vn 0.08883304 0.9960465 0
vn 0.08883304 0.9960465 0
vn 1 -6.591455E-05 0
vn 1 -6.591455E-05 0
vn 1 -6.591455E-05 0
vn 1 -6.591455E-05 0
vn -0.07148291 -0.9974419 0
vn -0.07148291 -0.9974419 0
vn -0.07148291 -0.9974419 0
vn -0.07148291 -0.9974419 0
vn 0 0 -1
vn 0 0 -1
vn 0 0 -1
vn 0 0 -1
vn 0 0 -1
vn 0 0 -1
vn 0 0 -1
vn 0 0 -1
vn 0 0 -1
vn 0 0 -1
vn 0 0 -1
vn 0 0 -1
vn 0 0 -1
vn 0 0 -1
vn 0 0 1
vn 0 0 1
vn 0 0 1
vn 0 0 1
vn 0 0 1
vn 0 0 1
vn 0 0 1
vn 0 0 1
vn 0 0 1
vn 0 0 1
vn 0 0 1
vn 0 0 1
vn 0 0 1
vn 0 0 1
vn 0 1 0
vn -0.006725661 0.9999775 0
vn -0.006725661 0.9999775 0
vn 0 1 0
vn 0.006725661 0.9999775 0
vn 0.006725661 0.9999775 0
vn -0.006725661 0.9999775 0
vn 0 1 0
vn -0.006725661 0.9999775 0
vn 0 1 0
vn 0.006725661 0.9999775 0
vn 0.006725661 0.9999775 0
vn 0.06851295 0.9975273 -0.01565901
vn 0.09097364 0.9958225 -0.007831733
vn 0.06851295 0.9975273 -0.01565901
vn 0.09097364 0.9958225 -0.007831733
vn 0.09097364 0.9958225 0.007831733
vn 0.09097364 0.9958225 0.007831733
vn 0.06851295 0.9975273 0.01565901
vn 0.06851295 0.9975273 0.01565901
vn -0.9939229 0.1100787 0
vn -0.9939229 0.1100787 0
vn -0.9939229 0.1100787 0
vn -0.9939229 0.1100787 0
vn -0.9939229 0.1100787 0
vn -0.9939229 0.1100787 0
vn -0.9939229 0.1100787 0
vn -0.9939229 0.1100787 0
vn 0 0 -1
vn 0 0 -1
vn 0 0 -1
vn 0 0 -1
vn 0 0 -1
vn 0 0 -1
vn 0 0 -1
vn 0 0 -1
vn 0 0 -1
vn 0 0 -1
vn 0 0 -1
vn 0 0 -1
vn 0 0 -1
vn 0 0 -1
vn 0 0 -1
vn 0 0 -1
vn 0.7119415 0.7022388 0
vn 0.7119415 0.7022388 0
vn 0.7119415 0.7022388 0
vn 0.7119415 0.7022388 0
vn 0 0 1
vn 0 0 1
vn 0 0 1
vn 0 0 1
vn 0 0 1
vn 0 0 1
vn 0 0 1
vn 0 0 1
vn 0 0 1
vn 0 0 1
vn 0 0 1
vn 0 0 1
vn 0 0 1
vn 0 0 1
vn 0 0 1
vn 0 0 1
vn -0.9974425 -0.07147469 0
vn -0.9974425 -0.07147469 0
vn -0.9974425 -0.07147469 0
vn -0.9974425 -0.07147469 0
vn 0 1 0
vn -0.1304044 0.9914609 0
vn 0 1 0
vn -0.1304044 0.9914609 0
vn -0.1743563 0.9846827 0
vn -0.1743563 0.9846827 0
vn -0.08883304 0.9960465 0
vn -0.08883304 0.9960465 0
vn -1 -6.591455E-05 0
vn -1 -6.591455E-05 0
vn -1 -6.591455E-05 0
vn -1 -6.591455E-05 0
vn 0.07148291 -0.9974419 0
vn 0.07148291 -0.9974419 0
vn 0.07148291 -0.9974419 0
vn 0.07148291 -0.9974419 0
vn -0.06851295 0.9975273 -0.01565901
vn -0.06851295 0.9975273 -0.01565901
vn -0.09097364 0.9958225 -0.007831733
vn -0.09097364 0.9958225 -0.007831733
vn -0.09097364 0.9958225 0.007831733
vn -0.09097364 0.9958225 0.007831733
vn -0.06851295 0.9975273 0.01565901
vn -0.06851295 0.9975273 0.01565901
vn 0.9939229 0.1100787 0
vn 0.9939229 0.1100787 0
vn 0.9939229 0.1100787 0
vn 0.9939229 0.1100787 0
vn 0.9939229 0.1100787 0
vn 0.9939229 0.1100787 0
vn 0.9939229 0.1100787 0
vn 0.9939229 0.1100787 0
vn -0.7119415 0.7022388 0
vn -0.7119415 0.7022388 0
vn -0.7119415 0.7022388 0
vn -0.7119415 0.7022388 0
vn 0.5398645 0.8417519 0
vn 0.5398645 0.8417519 0
vn 0.5398645 0.8417519 0
vn 0.5398645 0.8417519 0
vn -0.5398645 0.8417519 0
vn -0.5398645 0.8417519 0
vn -0.5398645 0.8417519 0
vn -0.5398645 0.8417519 0
g SM_Prop_BookOpen_01_0
f 3/3/3 2/2/2 1/1/1
f 4/4/4 3/3/3 1/1/1
f 7/7/7 6/6/6 5/5/5
f 6/6/6 8/8/8 5/5/5
f 8/8/8 6/6/6 9/9/9
f 6/6/6 10/10/10 9/9/9
f 13/13/13 12/12/12 11/11/11
f 12/12/12 14/14/14 11/11/11
f 15/15/15 14/14/14 12/12/12
f 16/16/16 15/15/15 12/12/12
f 17/17/17 15/15/15 16/16/16
f 18/18/18 17/17/17 16/16/16
f 21/21/21 20/20/20 19/19/19
f 22/22/22 21/21/21 19/19/19
f 25/25/25 24/24/24 23/23/23
f 26/26/26 25/25/25 23/23/23
f 29/29/29 28/28/28 27/27/27
f 30/30/30 29/29/29 27/27/27
f 31/31/31 29/29/29 30/30/30
f 32/32/32 31/31/31 30/30/30
f 33/33/33 31/31/31 32/32/32
f 34/34/34 33/33/33 32/32/32
f 33/33/33 34/34/34 35/35/35
f 36/36/36 33/33/33 35/35/35
f 36/36/36 35/35/35 37/37/37
f 38/38/38 36/36/36 37/37/37
f 38/38/38 37/37/37 39/39/39
f 40/40/40 38/38/38 39/39/39
f 43/43/43 42/42/42 41/41/41
f 42/42/42 44/44/44 41/41/41
f 41/41/41 44/44/44 45/45/45
f 44/44/44 46/46/46 45/45/45
f 46/46/46 47/47/47 45/45/45
f 47/47/47 48/48/48 45/45/45
f 48/48/48 47/47/47 49/49/49
f 47/47/47 50/50/50 49/49/49
f 50/50/50 51/51/51 49/49/49
f 51/51/51 52/52/52 49/49/49
f 51/51/51 53/53/53 52/52/52
f 53/53/53 54/54/54 52/52/52
f 57/57/57 56/56/56 55/55/55
f 58/58/58 57/57/57 55/55/55
f 59/59/59 58/58/58 55/55/55
f 60/60/60 59/59/59 55/55/55
f 63/63/63 62/62/62 61/61/61
f 62/62/62 64/64/64 61/61/61
f 64/64/64 62/62/62 65/65/65
f 62/62/62 66/66/66 65/65/65
f 69/69/69 68/68/68 67/67/67
f 68/68/68 70/70/70 67/67/67
f 68/68/68 71/71/71 70/70/70
f 71/71/71 72/72/72 70/70/70
f 71/71/71 73/73/73 72/72/72
f 73/73/73 74/74/74 72/72/72
f 77/77/77 76/76/76 75/75/75
f 78/78/78 77/77/77 75/75/75
f 81/81/81 80/80/80 79/79/79
f 82/82/82 81/81/81 79/79/79
f 85/85/85 84/84/84 83/83/83
f 86/86/86 85/85/85 83/83/83
f 86/86/86 83/83/83 87/87/87
f 83/83/83 88/88/88 87/87/87
f 83/83/83 89/89/89 88/88/88
f 83/83/83 90/90/90 89/89/89
f 90/90/90 91/91/91 89/89/89
f 89/89/89 91/91/91 92/92/92
f 91/91/91 93/93/93 92/92/92
f 94/94/94 89/89/89 92/92/92
f 94/94/94 92/92/92 95/95/95
f 92/92/92 96/96/96 95/95/95
f 97/97/97 96/96/96 92/92/92
f 98/98/98 97/97/97 92/92/92
f 101/101/101 100/100/100 99/99/99
f 102/102/102 101/101/101 99/99/99
f 105/105/105 104/104/104 103/103/103
f 104/104/104 106/106/106 103/103/103
f 106/106/106 104/104/104 107/107/107
f 108/108/108 106/106/106 107/107/107
f 108/108/108 109/109/109 106/106/106
f 109/109/109 110/110/110 106/106/106
f 110/110/110 111/111/111 106/106/106
f 112/112/112 110/110/110 109/109/109
f 113/113/113 112/112/112 109/109/109
f 113/113/113 109/109/109 114/114/114
f 113/113/113 114/114/114 115/115/115
f 116/116/116 113/113/113 115/115/115
f 113/113/113 116/116/116 117/117/117
f 116/116/116 118/118/118 117/117/117
f 121/121/121 120/120/120 119/119/119
f 122/122/122 121/121/121 119/119/119
f 125/125/125 124/124/124 123/123/123
f 124/124/124 126/126/126 123/123/123
f 124/124/124 127/127/127 126/126/126
f 127/127/127 128/128/128 126/126/126
f 127/127/127 129/129/129 128/128/128
f 129/129/129 130/130/130 128/128/128
f 133/133/133 132/132/132 131/131/131
f 134/134/134 133/133/133 131/131/131
f 137/137/137 136/136/136 135/135/135
f 138/138/138 137/137/137 135/135/135
f 141/141/141 140/140/140 139/139/139
f 142/142/142 141/141/141 139/139/139
f 143/143/143 141/141/141 142/142/142
f 144/144/144 143/143/143 142/142/142
f 145/145/145 143/143/143 144/144/144
f 146/146/146 145/145/145 144/144/144
f 149/149/149 148/148/148 147/147/147
f 150/150/150 149/149/149 147/147/147
f 153/153/153 152/152/152 151/151/151
f 154/154/154 153/153/153 151/151/151
f 157/157/157 156/156/156 155/155/155
f 158/158/158 157/157/157 155/155/155
f 161/161/161 160/160/160 159/159/159
f 162/162/162 161/161/161 159/159/159
f 165/165/165 164/164/164 163/163/163
f 166/166/166 165/165/165 163/163/163
