g SM_Prop_ShopCounter_02
v -1.414932 0.925809 -0.2645947
v -1.414932 0.925809 0.2645947
v -1.414932 0.5073323 0.2645947
v -1.414932 0.08284073 -0.2645947
v -1.414932 0.08284073 0.2645947
v 1.414937 0.925809 -0.2645947
v 1.414937 0.5073323 0.2645947
v 1.414937 0.925809 0.2645947
v 1.414937 0.08284073 0.2645947
v 1.414937 0.08284073 -0.2645947
v 1.386738 0 -0.2293384
v 9.765625E-06 0 0.2293359
v 1.386738 0 0.2293359
v 9.765625E-06 0 -0.2293384
v -1.386743 0 0.2293359
v -1.386743 0 -0.2293384
v 0.09440795 0.7813609 0.2277124
v 1.288763 0.7813609 0.2277124
v 1.288763 0.5915993 0.2277124
v 0.09440795 0.5915993 0.2277124
v 0.09440795 0.4124258 0.2277124
v 1.288763 0.4124258 0.2277124
v 1.288763 0.2226644 0.2277124
v 0.09440795 0.2226644 0.2277124
v 1.295632 0.4543079 0.02160889
v 1.295632 0.831919 0.02160889
v 0.119314 0.831919 0.02160889
v 0.119314 0.4543079 0.02160889
v -0.1192969 0.831919 0.02160889
v -1.295625 0.831919 0.02160889
v -1.295625 0.4543079 0.02160889
v -0.1192969 0.4543079 0.02160889
v -1.29425 0.5915993 0.2277124
v -1.29425 0.7813609 0.2277124
v -0.08887329 0.7813609 0.2277124
v -0.08887329 0.5915993 0.2277124
v -1.294259 0.2226644 0.2277124
v -1.294259 0.4124258 0.2277124
v -0.08887329 0.4124258 0.2277124
v -0.08887329 0.2226644 0.2277124
v 0.04434326 0.8272326 0.2645947
v 0.09440795 0.7813609 0.2277124
v 0.09440795 0.5915993 0.2277124
v 0.04434326 0.5505092 0.2645947
v 1.329578 0.5505092 0.2645947
v 1.288763 0.5915993 0.2277124
v 1.288763 0.7813609 0.2277124
v 1.329578 0.8272326 0.2645947
v 0.04434326 0.4659244 0.2645947
v 0.09440795 0.4124258 0.2277124
v 0.09440795 0.2226644 0.2277124
v 0.04434326 0.1874319 0.2645947
v 1.329578 0.1874319 0.2645947
v 1.288763 0.2226644 0.2277124
v 1.288763 0.4124258 0.2277124
v 1.329578 0.4659244 0.2645947
v 1.329578 0.4659244 0.2645947
v 1.288763 0.4124258 0.2277124
v 0.09440795 0.4124258 0.2277124
v 0.04434326 0.4659244 0.2645947
v -0.04555664 0.5505092 0.2645947
v -0.08887329 0.5915993 0.2277124
v -0.08887329 0.7813609 0.2277124
v -0.04555664 0.8272326 0.2645947
v -0.04555664 0.8272326 0.2645947
v -0.08887329 0.7813609 0.2277124
v -1.29425 0.7813609 0.2277124
v -1.329564 0.8272326 0.2645947
v -1.329564 0.8272326 0.2645947
v -1.29425 0.7813609 0.2277124
v -1.29425 0.5915993 0.2277124
v -1.329564 0.5505092 0.2645947
v -0.04555664 0.1874319 0.2645947
v -0.08887329 0.2226644 0.2277124
v -0.08887329 0.4124258 0.2277124
v -0.04555664 0.4659244 0.2645947
v -0.04555664 0.4659244 0.2645947
v -0.08887329 0.4124258 0.2277124
v -1.294259 0.4124258 0.2277124
v -1.329573 0.4659244 0.2645947
v -1.329573 0.4659244 0.2645947
v -1.294259 0.4124258 0.2277124
v -1.294259 0.2226644 0.2277124
v -1.329573 0.1874319 0.2645947
v 2.441406E-06 0.9657044 0.1934863
v -0.4284912 0.9657044 0.1934863
v -0.4284912 0.9657044 -0.1934863
v 2.441406E-06 0.9657044 -0.1934863
v 0.4284912 0.9657044 -0.1934863
v 0.4284912 0.9657044 0.1934863
v 1.386738 0.08284073 -0.2293384
v 1.386738 0 -0.2293384
v 1.386738 0 0.2293359
v 1.386738 0.08284073 0.2293359
v 1.386738 0.08284073 0.2293359
v 1.386738 0 0.2293359
v 9.765625E-06 0 0.2293359
v 9.765625E-06 0.08284073 0.2293359
v -1.386743 0 0.2293359
v -1.386743 0.08284073 0.2293359
v 9.765625E-06 0.08284073 -0.2293384
v 1.386738 0 -0.2293384
v 1.386738 0.08284073 -0.2293384
v 9.765625E-06 0 -0.2293384
v -1.386743 0.08284073 -0.2293384
v -1.386743 0 -0.2293384
v -1.386743 0.08284073 0.2293359
v -1.386743 0 0.2293359
v -1.386743 0 -0.2293384
v -1.386743 0.08284073 -0.2293384
v 9.765625E-06 0.925809 -0.308645
v -1.453086 0.9657044 -0.308645
v -1.453086 0.925809 -0.308645
v 9.765625E-06 0.9657044 -0.308645
v 1.453086 0.925809 -0.308645
v 1.453086 0.9657044 -0.308645
v -1.453086 0.925809 -0.308645
v -1.453086 0.9657044 -0.308645
v -1.453086 0.9657044 0.308645
v -1.453086 0.925809 0.308645
v -1.453086 0.925809 0.308645
v -1.453086 0.9657044 0.308645
v 9.765625E-06 0.9657044 0.308645
v 9.765625E-06 0.925809 0.308645
v 1.453086 0.9657044 0.308645
v 1.453086 0.925809 0.308645
v 1.453086 0.925809 0.308645
v 1.453086 0.9657044 0.308645
v 1.453086 0.9657044 -0.308645
v 1.453086 0.925809 -0.308645
v 0.04434326 0.8272326 0.2645947
v 1.329578 0.8272326 0.2645947
v 1.288763 0.7813609 0.2277124
v 0.09440795 0.7813609 0.2277124
v 0.09440795 0.5915993 0.2277124
v 1.288763 0.5915993 0.2277124
v 1.329578 0.5505092 0.2645947
v 0.04434326 0.5505092 0.2645947
v 0.09440795 0.2226644 0.2277124
v 1.288763 0.2226644 0.2277124
v 1.329578 0.1874319 0.2645947
v 0.04434326 0.1874319 0.2645947
v -1.29425 0.5915993 0.2277124
v -0.08887329 0.5915993 0.2277124
v -0.04555664 0.5505092 0.2645947
v -1.329564 0.5505092 0.2645947
v -1.294259 0.2226644 0.2277124
v -0.08887329 0.2226644 0.2277124
v -0.04555664 0.1874319 0.2645947
v -1.329573 0.1874319 0.2645947
v 1.315627 0.4543079 -0.2645947
v 1.295632 0.4543079 0.02160889
v 0.119314 0.4543079 0.02160889
v 0.09931885 0.4543079 -0.2645947
v 0.09931885 0.4543079 -0.2645947
v 0.119314 0.4543079 0.02160889
v 0.119314 0.831919 0.02160889
v 0.09931885 0.831919 -0.2645947
v 0.09931885 0.831919 -0.2645947
v 0.119314 0.831919 0.02160889
v 1.295632 0.831919 0.02160889
v 1.315627 0.831919 -0.2645947
v 1.315627 0.831919 -0.2645947
v 1.295632 0.831919 0.02160889
v 1.295632 0.4543079 0.02160889
v 1.315627 0.4543079 -0.2645947
v -0.09930176 0.831919 -0.2645947
v -0.1192969 0.831919 0.02160889
v -0.1192969 0.4543079 0.02160889
v -0.09930176 0.4543079 -0.2645947
v -0.09930176 0.4543079 -0.2645947
v -0.1192969 0.4543079 0.02160889
v -1.295625 0.4543079 0.02160889
v -1.31562 0.4543079 -0.2645947
v -1.31562 0.4543079 -0.2645947
v -1.295625 0.4543079 0.02160889
v -1.295625 0.831919 0.02160889
v -1.31562 0.831919 -0.2645947
v -1.31562 0.831919 -0.2645947
v -1.295625 0.831919 0.02160889
v -0.1192969 0.831919 0.02160889
v -0.09930176 0.831919 -0.2645947
v 9.765625E-06 0.08284073 -0.2645947
v 9.765625E-06 0.08284073 -0.2293384
v 1.386738 0.08284073 -0.2293384
v 1.414937 0.08284073 -0.2645947
v -1.414932 0.08284073 -0.2645947
v 1.386738 0.08284073 0.2293359
v -1.386743 0.08284073 -0.2293384
v 1.414937 0.08284073 0.2645947
v -1.414932 0.08284073 0.2645947
v 9.765625E-06 0.08284073 0.2293359
v -1.386743 0.08284073 0.2293359
v 9.765625E-06 0.08284073 0.2645947
v 9.765625E-06 0.925809 -0.2645947
v 9.765625E-06 0.925809 -0.308645
v -1.453086 0.925809 -0.308645
v -1.414932 0.925809 -0.2645947
v 1.414937 0.925809 -0.2645947
v -1.453086 0.925809 0.308645
v 1.453086 0.925809 -0.308645
v -1.414932 0.925809 0.2645947
v 1.414937 0.925809 0.2645947
v 9.765625E-06 0.925809 0.308645
v 1.453086 0.925809 0.308645
v 9.765625E-06 0.925809 0.2645947
v -1.414932 0.5073323 0.2645947
v -1.329573 0.4659244 0.2645947
v -1.329573 0.1874319 0.2645947
v -1.414932 0.08284073 0.2645947
v -0.04555664 0.1874319 0.2645947
v 9.765625E-06 0.08284073 0.2645947
v -0.04555664 0.4659244 0.2645947
v 9.765625E-06 0.5073323 0.2645947
v -1.329564 0.5505092 0.2645947
v -1.414932 0.925809 0.2645947
v -0.04555664 0.5505092 0.2645947
v -1.329564 0.8272326 0.2645947
v 9.765625E-06 0.925809 0.2645947
v -0.04555664 0.8272326 0.2645947
v 0.04434326 0.1874319 0.2645947
v 1.329578 0.1874319 0.2645947
v 1.414937 0.08284073 0.2645947
v 1.329578 0.4659244 0.2645947
v 0.04434326 0.4659244 0.2645947
v 1.414937 0.5073323 0.2645947
v 0.04434326 0.5505092 0.2645947
v 0.04434326 0.8272326 0.2645947
v 1.329578 0.5505092 0.2645947
v 1.414937 0.925809 0.2645947
v 1.329578 0.8272326 0.2645947
v 1.414937 0.08284073 -0.2645947
v 1.315627 0.4543079 -0.2645947
v 0.09931885 0.4543079 -0.2645947
v 1.414937 0.925809 -0.2645947
v 1.315627 0.831919 -0.2645947
v 9.765625E-06 0.08284073 -0.2645947
v 9.765625E-06 0.925809 -0.2645947
v 0.09931885 0.831919 -0.2645947
v -0.09930176 0.4543079 -0.2645947
v -0.09930176 0.831919 -0.2645947
v -1.31562 0.4543079 -0.2645947
v -1.414932 0.925809 -0.2645947
v -1.414932 0.08284073 -0.2645947
v -1.31562 0.831919 -0.2645947
v 9.765625E-06 0.9657044 -0.308645
v 2.441406E-06 0.9657044 -0.1934863
v -0.4284912 0.9657044 -0.1934863
v -1.453086 0.9657044 -0.308645
v 1.453086 0.9657044 -0.308645
v -0.4284912 0.9657044 0.1934863
v 0.4284912 0.9657044 -0.1934863
v -1.453086 0.9657044 0.308645
v 1.453086 0.9657044 0.308645
v 2.441406E-06 0.9657044 0.1934863
v 0.4284912 0.9657044 0.1934863
v 9.765625E-06 0.9657044 0.308645
vt 0.100935 0.2799186
vt 0.1009349 0.2799186
vt 0.1009349 0.2799186
vt 0.100935 0.2799186
vt 0.1009349 0.2799186
vt 0.100935 0.2799186
vt 0.1009349 0.2799186
vt 0.1009349 0.2799186
vt 0.1009349 0.2799186
vt 0.100935 0.2799186
vt 0.02587171 0.2749576
vt 0.02587171 0.2749576
vt 0.02587171 0.2749576
vt 0.02587171 0.2749576
vt 0.02587171 0.2749576
vt 0.02587171 0.2749576
vt 0.1009349 0.2799186
vt 0.1009349 0.2799186
vt 0.1009349 0.2799186
vt 0.1009349 0.2799186
vt 0.1009349 0.2799186
vt 0.1009349 0.2799186
vt 0.1009349 0.2799186
vt 0.1009349 0.2799186
vt 0.1009349 0.2799186
vt 0.1009349 0.2799186
vt 0.100935 0.2799186
vt 0.100935 0.2799186
vt 0.100935 0.2799186
vt 0.100935 0.2799186
vt 0.100935 0.2799186
vt 0.100935 0.2799186
vt 0.1009349 0.2799186
vt 0.1009349 0.2799186
vt 0.1009349 0.2799186
vt 0.1009349 0.2799186
vt 0.1009349 0.2799186
vt 0.1009349 0.2799186
vt 0.1009349 0.2799186
vt 0.1009349 0.2799186
vt 0.1009349 0.2799186
vt 0.1009349 0.2799186
vt 0.1009349 0.2799186
vt 0.1009349 0.2799186
vt 0.1009349 0.2799186
vt 0.1009349 0.2799186
vt 0.1009349 0.2799186
vt 0.1009349 0.2799186
vt 0.1009349 0.2799186
vt 0.1009349 0.2799186
vt 0.1009349 0.2799186
vt 0.1009349 0.2799186
vt 0.1009349 0.2799186
vt 0.1009349 0.2799186
vt 0.1009349 0.2799186
vt 0.1009349 0.2799186
vt 0.1009349 0.2799186
vt 0.1009349 0.2799186
vt 0.1009349 0.2799186
vt 0.1009349 0.2799186
vt 0.1009349 0.2799186
vt 0.1009349 0.2799186
vt 0.1009349 0.2799186
vt 0.1009349 0.2799186
vt 0.1009349 0.2799186
vt 0.1009349 0.2799186
vt 0.1009349 0.2799186
vt 0.1009349 0.2799186
vt 0.1009349 0.2799186
vt 0.1009349 0.2799186
vt 0.1009349 0.2799186
vt 0.1009349 0.2799186
vt 0.1009349 0.2799186
vt 0.1009349 0.2799186
vt 0.1009349 0.2799186
vt 0.1009349 0.2799186
vt 0.1009349 0.2799186
vt 0.1009349 0.2799186
vt 0.1009349 0.2799186
vt 0.1009349 0.2799186
vt 0.1009349 0.2799186
vt 0.1009349 0.2799186
vt 0.1009349 0.2799186
vt 0.1009349 0.2799186
vt 0.1140137 0.3290405
vt 0.1140137 0.3290405
vt 0.1140137 0.3290405
vt 0.1140137 0.3290405
vt 0.1140137 0.3290405
vt 0.1140137 0.3290405
vt 0.02587171 0.2749576
vt 0.02587171 0.2749576
vt 0.02587171 0.2749576
vt 0.02587171 0.2749576
vt 0.02587171 0.2749576
vt 0.02587171 0.2749576
vt 0.02587171 0.2749576
vt 0.02587171 0.2749576
vt 0.02587171 0.2749576
vt 0.02587171 0.2749576
vt 0.02587171 0.2749576
vt 0.02587171 0.2749576
vt 0.02587171 0.2749576
vt 0.02587171 0.2749576
vt 0.02587171 0.2749576
vt 0.02587171 0.2749576
vt 0.02587171 0.2749576
vt 0.02587171 0.2749576
vt 0.02587171 0.2749576
vt 0.02587171 0.2749576
vt 0.02660413 0.2807436
vt 0.02660413 0.2807436
vt 0.02660413 0.2807436
vt 0.02660413 0.2807436
vt 0.02660413 0.2807436
vt 0.02660413 0.2807436
vt 0.02660413 0.2807436
vt 0.02660413 0.2807436
vt 0.02660413 0.2807436
vt 0.02660413 0.2807436
vt 0.02660413 0.2807436
vt 0.02660413 0.2807436
vt 0.02660413 0.2807436
vt 0.02660413 0.2807436
vt 0.02660413 0.2807436
vt 0.02660413 0.2807436
vt 0.02660413 0.2807436
vt 0.02660413 0.2807436
vt 0.02660413 0.2807436
vt 0.02660413 0.2807436
vt 0.1009349 0.2799186
vt 0.1009349 0.2799186
vt 0.1009349 0.2799186
vt 0.1009349 0.2799186
vt 0.1009349 0.2799186
vt 0.1009349 0.2799186
vt 0.1009349 0.2799186
vt 0.1009349 0.2799186
vt 0.1009349 0.2799186
vt 0.1009349 0.2799186
vt 0.1009349 0.2799186
vt 0.1009349 0.2799186
vt 0.1009349 0.2799186
vt 0.1009349 0.2799186
vt 0.1009349 0.2799186
vt 0.1009349 0.2799186
vt 0.1009349 0.2799186
vt 0.1009349 0.2799186
vt 0.1009349 0.2799186
vt 0.1009349 0.2799186
vt 0.1009349 0.2799186
vt 0.1009349 0.2799186
vt 0.100935 0.2799186
vt 0.100935 0.2799186
vt 0.100935 0.2799186
vt 0.100935 0.2799186
vt 0.100935 0.2799186
vt 0.100935 0.2799186
vt 0.100935 0.2799186
vt 0.100935 0.2799186
vt 0.1009349 0.2799186
vt 0.1009349 0.2799186
vt 0.1009349 0.2799186
vt 0.1009349 0.2799186
vt 0.1009349 0.2799186
vt 0.1009349 0.2799186
vt 0.100935 0.2799186
vt 0.100935 0.2799186
vt 0.100935 0.2799186
vt 0.100935 0.2799186
vt 0.100935 0.2799186
vt 0.100935 0.2799186
vt 0.100935 0.2799186
vt 0.100935 0.2799186
vt 0.100935 0.2799186
vt 0.100935 0.2799186
vt 0.100935 0.2799186
vt 0.100935 0.2799186
vt 0.100935 0.2799186
vt 0.100935 0.2799186
vt 0.100935 0.2799186
vt 0.100935 0.2799186
vt 0.100935 0.2799186
vt 0.100935 0.2799186
vt 0.100935 0.2799186
vt 0.100935 0.2799186
vt 0.100935 0.2799186
vt 0.1009349 0.2799186
vt 0.100935 0.2799186
vt 0.1009349 0.2799186
vt 0.1009349 0.2799186
vt 0.1009349 0.2799186
vt 0.1009349 0.2799186
vt 0.1009349 0.2799186
vt 0.02660413 0.2807436
vt 0.02660413 0.2807436
vt 0.02660413 0.2807436
vt 0.02660413 0.2807436
vt 0.02660413 0.2807436
vt 0.02660413 0.2807436
vt 0.02660413 0.2807436
vt 0.02660413 0.2807436
vt 0.02660413 0.2807436
vt 0.02660413 0.2807436
vt 0.02660413 0.2807436
vt 0.02660413 0.2807436
vt 0.1009349 0.2799186
vt 0.1009349 0.2799186
vt 0.1009349 0.2799186
vt 0.1009349 0.2799186
vt 0.1009349 0.2799186
vt 0.1009349 0.2799186
vt 0.1009349 0.2799186
vt 0.1009349 0.2799186
vt 0.1009349 0.2799186
vt 0.1009349 0.2799186
vt 0.1009349 0.2799186
vt 0.1009349 0.2799186
vt 0.1009349 0.2799186
vt 0.1009349 0.2799186
vt 0.1009349 0.2799186
vt 0.1009349 0.2799186
vt 0.1009349 0.2799186
vt 0.1009349 0.2799186
vt 0.1009349 0.2799186
vt 0.1009349 0.2799186
vt 0.1009349 0.2799186
vt 0.1009349 0.2799186
vt 0.1009349 0.2799186
vt 0.1009349 0.2799186
vt 0.1009349 0.2799186
vt 0.1009349 0.2799186
vt 0.1009349 0.2799186
vt 0.100935 0.2799186
vt 0.1009349 0.2799186
vt 0.1009349 0.2799186
vt 0.100935 0.2799186
vt 0.100935 0.2799186
vt 0.100935 0.2799186
vt 0.100935 0.2799186
vt 0.100935 0.2799186
vt 0.100935 0.2799186
vt 0.100935 0.2799186
vt 0.100935 0.2799186
vt 0.100935 0.2799186
vt 0.02660413 0.2807436
vt 0.02660413 0.2807436
vt 0.02660413 0.2807436
vt 0.02660413 0.2807436
vt 0.02660413 0.2807436
vt 0.02660413 0.2807436
vt 0.02660413 0.2807436
vt 0.02660413 0.2807436
vt 0.02660413 0.2807436
vt 0.02660413 0.2807436
vt 0.02660413 0.2807436
vt 0.02660413 0.2807436
vn -1 0 0
vn -1 0 0
vn -1 0 0
vn -1 0 0
vn -1 0 0
vn 1 0 0
vn 1 0 0
vn 1 0 0
vn 1 0 0
vn 1 0 0
vn 0 -1 0
vn 0 -1 0
vn 0 -1 0
vn 0 -1 0
vn 0 -1 0
vn 0 -1 0
vn 0 0 1
vn 0 0 1
vn 0 0 1
vn 0 0 1
vn 0 0 1
vn 0 0 1
vn 0 0 1
vn 0 0 1
vn 0 0 -1
vn 0 0 -1
vn 0 0 -1
vn 0 0 -1
vn 0 0 -1
vn 0 0 -1
vn 0 0 -1
vn 0 0 -1
vn 0 0 1
vn 0 0 1
vn 0 0 1
vn 0 0 1
vn 0 0 1
vn 0 0 1
vn 0 0 1
vn 0 0 1
vn 0.5931213 0 0.8051131
vn 0.5931213 0 0.8051131
vn 0.5931213 0 0.8051131
vn 0.5931213 0 0.8051131
vn -0.6704652 0 0.741941
vn -0.6704652 0 0.741941
vn -0.6704652 0 0.741941
vn -0.6704652 0 0.741941
vn 0.5931213 0 0.8051131
vn 0.5931213 0 0.8051131
vn 0.5931213 0 0.8051131
vn 0.5931213 0 0.8051131
vn -0.6704652 0 0.741941
vn -0.6704652 0 0.741941
vn -0.6704652 0 0.741941
vn -0.6704652 0 0.741941
vn 0 -0.5675952 0.8233079
vn 0 -0.5675952 0.8233079
vn 0 -0.5675952 0.8233079
vn 0 -0.5675952 0.8233079
vn -0.6482929 0 0.7613911
vn -0.6482929 0 0.7613911
vn -0.6482929 0 0.7613911
vn -0.6482929 0 0.7613911
vn 0 -0.626609 0.7793339
vn 0 -0.626609 0.7793339
vn 0 -0.626609 0.7793339
vn 0 -0.626609 0.7793339
vn 0.7222996 0 0.6915802
vn 0.7222996 0 0.6915802
vn 0.7222996 0 0.6915802
vn 0.7222996 0 0.6915802
vn -0.6482928 0 0.7613911
vn -0.6482928 0 0.7613911
vn -0.6482928 0 0.7613911
vn -0.6482928 0 0.7613911
vn 0 -0.5675952 0.8233079
vn 0 -0.5675952 0.8233079
vn 0 -0.5675952 0.8233079
vn 0 -0.5675952 0.8233079
vn 0.7222996 0 0.6915803
vn 0.7222996 0 0.6915803
vn 0.7222996 0 0.6915803
vn 0.7222996 0 0.6915803
vn 0 1 0
vn 0 1 0
vn 0 1 0
vn 0 1 0
vn 0 1 0
vn 0 1 0
vn 1 0 0
vn 1 0 0
vn 1 0 0
vn 1 0 0
vn 0 0 1
vn 0 0 1
vn 0 0 1
vn 0 0 1
vn 0 0 1
vn 0 0 1
vn 0 0 -1
vn 0 0 -1
vn 0 0 -1
vn 0 0 -1
vn 0 0 -1
vn 0 0 -1
vn -1 0 0
vn -1 0 0
vn -1 0 0
vn -1 0 0
vn 0 0 -1
vn 0 0 -1
vn 0 0 -1
vn 0 0 -1
vn 0 0 -1
vn 0 0 -1
vn -1 0 0
vn -1 0 0
vn -1 0 0
vn -1 0 0
vn 0 0 1
vn 0 0 1
vn 0 0 1
vn 0 0 1
vn 0 0 1
vn 0 0 1
vn 1 0 0
vn 1 0 0
vn 1 0 0
vn 1 0 0
vn 0 -0.626609 0.7793337
vn 0 -0.626609 0.7793337
vn 0 -0.626609 0.7793337
vn 0 -0.626609 0.7793337
vn 0 0.6679749 0.7441838
vn 0 0.6679749 0.7441838
vn 0 0.6679749 0.7441838
vn 0 0.6679749 0.7441838
vn 0 0.7230951 0.6907485
vn 0 0.7230951 0.6907485
vn 0 0.7230951 0.6907485
vn 0 0.7230951 0.6907485
vn 0 0.6679749 0.7441837
vn 0 0.6679749 0.7441837
vn 0 0.6679749 0.7441837
vn 0 0.6679749 0.7441837
vn 0 0.7230951 0.6907485
vn 0 0.7230951 0.6907485
vn 0 0.7230951 0.6907485
vn 0 0.7230951 0.6907485
vn 0 1 0
vn 0 1 0
vn 0 1 0
vn 0 1 0
vn 0.9975684 0 -0.06969338
vn 0.9975684 0 -0.06969338
vn 0.9975684 0 -0.06969338
vn 0.9975684 0 -0.06969338
vn 0 -1 0
vn 0 -1 0
vn 0 -1 0
vn 0 -1 0
vn -0.9975684 0 -0.06969338
vn -0.9975684 0 -0.06969338
vn -0.9975684 0 -0.06969338
vn -0.9975684 0 -0.06969338
vn -0.9975684 0 -0.06969338
vn -0.9975684 0 -0.06969338
vn -0.9975684 0 -0.06969338
vn -0.9975684 0 -0.06969338
vn 0 1 0
vn 0 1 0
vn 0 1 0
vn 0 1 0
vn 0.9975684 0 -0.06969338
vn 0.9975684 0 -0.06969338
vn 0.9975684 0 -0.06969338
vn 0.9975684 0 -0.06969338
vn 0 -1 0
vn 0 -1 0
vn 0 -1 0
vn 0 -1 0
vn 0 -1 0
vn 0 -1 0
vn 0 -1 0
vn 0 -1 0
vn 0 -1 0
vn 0 -1 0
vn 0 -1 0
vn 0 -1 0
vn 0 -1 0
vn 0 -1 0
vn 0 -1 0
vn 0 -1 0
vn 0 -1 0
vn 0 -1 0
vn 0 -1 0
vn 0 -1 0
vn 0 -1 0
vn 0 -1 0
vn 0 -1 0
vn 0 -1 0
vn 0 -1 0
vn 0 -1 0
vn 0 -1 0
vn 0 -1 0
vn 0 0 1
vn 0 0 1
vn 0 0 1
vn 0 0 1
vn 0 0 1
vn 0 0 1
vn 0 0 1
vn 0 0 1
vn 0 0 1
vn 0 0 1
vn 0 0 1
vn 0 0 1
vn 0 0 1
vn 0 0 1
vn 0 0 1
vn 0 0 1
vn 0 0 1
vn 0 0 1
vn 0 0 1
vn 0 0 1
vn 0 0 1
vn 0 0 1
vn 0 0 1
vn 0 0 1
vn 0 0 1
vn 0 0 -1
vn 0 0 -1
vn 0 0 -1
vn 0 0 -1
vn 0 0 -1
vn 0 0 -1
vn 0 0 -1
vn 0 0 -1
vn 0 0 -1
vn 0 0 -1
vn 0 0 -1
vn 0 0 -1
vn 0 0 -1
vn 0 0 -1
vn 0 1 0
vn 0 1 0
vn 0 1 0
vn 0 1 0
vn 0 1 0
vn 0 1 0
vn 0 1 0
vn 0 1 0
vn 0 1 0
vn 0 1 0
vn 0 1 0
vn 0 1 0
g SM_Prop_ShopCounter_02_0
f 3/3/3 2/2/2 1/1/1
f 3/3/3 1/1/1 4/4/4
f 5/5/5 3/3/3 4/4/4
f 8/8/8 7/7/7 6/6/6
f 7/7/7 9/9/9 6/6/6
f 9/9/9 10/10/10 6/6/6
f 13/13/13 12/12/12 11/11/11
f 12/12/12 14/14/14 11/11/11
f 12/12/12 15/15/15 14/14/14
f 15/15/15 16/16/16 14/14/14
f 19/19/19 18/18/18 17/17/17
f 20/20/20 19/19/19 17/17/17
f 23/23/23 22/22/22 21/21/21
f 24/24/24 23/23/23 21/21/21
f 27/27/27 26/26/26 25/25/25
f 28/28/28 27/27/27 25/25/25
f 31/31/31 30/30/30 29/29/29
f 32/32/32 31/31/31 29/29/29
f 35/35/35 34/34/34 33/33/33
f 36/36/36 35/35/35 33/33/33
f 39/39/39 38/38/38 37/37/37
f 40/40/40 39/39/39 37/37/37
f 43/43/43 42/42/42 41/41/41
f 44/44/44 43/43/43 41/41/41
f 47/47/47 46/46/46 45/45/45
f 48/48/48 47/47/47 45/45/45
f 51/51/51 50/50/50 49/49/49
f 52/52/52 51/51/51 49/49/49
f 55/55/55 54/54/54 53/53/53
f 56/56/56 55/55/55 53/53/53
f 59/59/59 58/58/58 57/57/57
f 60/60/60 59/59/59 57/57/57
f 63/63/63 62/62/62 61/61/61
f 64/64/64 63/63/63 61/61/61
f 67/67/67 66/66/66 65/65/65
f 68/68/68 67/67/67 65/65/65
f 71/71/71 70/70/70 69/69/69
f 72/72/72 71/71/71 69/69/69
f 75/75/75 74/74/74 73/73/73
f 76/76/76 75/75/75 73/73/73
f 79/79/79 78/78/78 77/77/77
f 80/80/80 79/79/79 77/77/77
f 83/83/83 82/82/82 81/81/81
f 84/84/84 83/83/83 81/81/81
f 87/87/87 86/86/86 85/85/85
f 88/88/88 87/87/87 85/85/85
f 89/89/89 88/88/88 85/85/85
f 90/90/90 89/89/89 85/85/85
f 93/93/93 92/92/92 91/91/91
f 94/94/94 93/93/93 91/91/91
f 97/97/97 96/96/96 95/95/95
f 98/98/98 97/97/97 95/95/95
f 99/99/99 97/97/97 98/98/98
f 100/100/100 99/99/99 98/98/98
f 103/103/103 102/102/102 101/101/101
f 102/102/102 104/104/104 101/101/101
f 101/101/101 104/104/104 105/105/105
f 104/104/104 106/106/106 105/105/105
f 109/109/109 108/108/108 107/107/107
f 110/110/110 109/109/109 107/107/107
f 113/113/113 112/112/112 111/111/111
f 112/112/112 114/114/114 111/111/111
f 111/111/111 114/114/114 115/115/115
f 114/114/114 116/116/116 115/115/115
f 119/119/119 118/118/118 117/117/117
f 120/120/120 119/119/119 117/117/117
f 123/123/123 122/122/122 121/121/121
f 124/124/124 123/123/123 121/121/121
f 125/125/125 123/123/123 124/124/124
f 126/126/126 125/125/125 124/124/124
f 129/129/129 128/128/128 127/127/127
f 130/130/130 129/129/129 127/127/127
f 133/133/133 132/132/132 131/131/131
f 134/134/134 133/133/133 131/131/131
f 137/137/137 136/136/136 135/135/135
f 138/138/138 137/137/137 135/135/135
f 141/141/141 140/140/140 139/139/139
f 142/142/142 141/141/141 139/139/139
f 145/145/145 144/144/144 143/143/143
f 146/146/146 145/145/145 143/143/143
f 149/149/149 148/148/148 147/147/147
f 150/150/150 149/149/149 147/147/147
f 153/153/153 152/152/152 151/151/151
f 154/154/154 153/153/153 151/151/151
f 157/157/157 156/156/156 155/155/155
f 158/158/158 157/157/157 155/155/155
f 161/161/161 160/160/160 159/159/159
f 162/162/162 161/161/161 159/159/159
f 165/165/165 164/164/164 163/163/163
f 166/166/166 165/165/165 163/163/163
f 169/169/169 168/168/168 167/167/167
f 170/170/170 169/169/169 167/167/167
f 173/173/173 172/172/172 171/171/171
f 174/174/174 173/173/173 171/171/171
f 177/177/177 176/176/176 175/175/175
f 178/178/178 177/177/177 175/175/175
f 181/181/181 180/180/180 179/179/179
f 182/182/182 181/181/181 179/179/179
f 185/185/185 184/184/184 183/183/183
f 186/186/186 185/185/185 183/183/183
f 183/183/183 184/184/184 187/187/187
f 188/188/188 185/185/185 186/186/186
f 184/184/184 189/189/189 187/187/187
f 190/190/190 188/188/188 186/186/186
f 187/187/187 189/189/189 191/191/191
f 192/192/192 188/188/188 190/190/190
f 189/189/189 193/193/193 191/191/191
f 194/194/194 192/192/192 190/190/190
f 191/191/191 193/193/193 194/194/194
f 193/193/193 192/192/192 194/194/194
f 197/197/197 196/196/196 195/195/195
f 198/198/198 197/197/197 195/195/195
f 195/195/195 196/196/196 199/199/199
f 200/200/200 197/197/197 198/198/198
f 196/196/196 201/201/201 199/199/199
f 202/202/202 200/200/200 198/198/198
f 199/199/199 201/201/201 203/203/203
f 204/204/204 200/200/200 202/202/202
f 201/201/201 205/205/205 203/203/203
f 206/206/206 204/204/204 202/202/202
f 203/203/203 205/205/205 206/206/206
f 205/205/205 204/204/204 206/206/206
f 209/209/209 208/208/208 207/207/207
f 210/210/210 209/209/209 207/207/207
f 211/211/211 209/209/209 210/210/210
f 212/212/212 211/211/211 210/210/210
f 213/213/213 211/211/211 212/212/212
f 214/214/214 213/213/213 212/212/212
f 215/215/215 207/207/207 208/208/208
f 215/215/215 208/208/208 213/213/213
f 207/207/207 215/215/215 216/216/216
f 217/217/217 215/215/215 213/213/213
f 213/213/213 214/214/214 217/217/217
f 215/215/215 218/218/218 216/216/216
f 216/216/216 218/218/218 219/219/219
f 220/220/220 217/217/217 214/214/214
f 218/218/218 220/220/220 219/219/219
f 219/219/219 220/220/220 214/214/214
f 214/214/214 212/212/212 221/221/221
f 222/222/222 221/221/221 212/212/212
f 223/223/223 222/222/222 212/212/212
f 224/224/224 222/222/222 223/223/223
f 221/221/221 225/225/225 214/214/214
f 226/226/226 224/224/224 223/223/223
f 227/227/227 214/214/214 225/225/225
f 219/219/219 214/214/214 227/227/227
f 227/227/227 225/225/225 224/224/224
f 227/227/227 228/228/228 219/219/219
f 229/229/229 227/227/227 224/224/224
f 224/224/224 226/226/226 229/229/229
f 219/219/219 228/228/228 230/230/230
f 231/231/231 229/229/229 226/226/226
f 230/230/230 231/231/231 226/226/226
f 228/228/228 231/231/231 230/230/230
f 234/234/234 233/233/233 232/232/232
f 232/232/232 233/233/233 235/235/235
f 233/233/233 236/236/236 235/235/235
f 237/237/237 234/234/234 232/232/232
f 235/235/235 236/236/236 238/238/238
f 239/239/239 234/234/234 237/237/237
f 236/236/236 239/239/239 238/238/238
f 238/238/238 239/239/239 237/237/237
f 237/237/237 240/240/240 238/238/238
f 240/240/240 241/241/241 238/238/238
f 242/242/242 240/240/240 237/237/237
f 238/238/238 241/241/241 243/243/243
f 244/244/244 242/242/242 237/237/237
f 241/241/241 245/245/245 243/243/243
f 245/245/245 242/242/242 244/244/244
f 243/243/243 245/245/245 244/244/244
f 248/248/248 247/247/247 246/246/246
f 249/249/249 248/248/248 246/246/246
f 246/246/246 247/247/247 250/250/250
f 251/251/251 248/248/248 249/249/249
f 247/247/247 252/252/252 250/250/250
f 253/253/253 251/251/251 249/249/249
f 250/250/250 252/252/252 254/254/254
f 255/255/255 251/251/251 253/253/253
f 252/252/252 256/256/256 254/254/254
f 257/257/257 255/255/255 253/253/253
f 254/254/254 256/256/256 257/257/257
f 256/256/256 255/255/255 257/257/257
