g SM_Prop_Pot_05
v 0.09027217 0.2050663 -0.09086525
v 0.08088886 0.2076207 -0.07269798
v 0.08393909 0.2052621 -0.08409423
v -0.01930641 0.1974198 -0.1225393
v -0.01543957 0.199012 -0.09903133
v -0.01543957 0.195861 -0.1317142
v 0.07217117 -0.01178174 0.07217083
v 0.1020652 0.00639366 -3.433227E-07
v 0.1020652 -0.01178174 -3.433227E-07
v 0.07217117 0.00639366 0.07217083
v 0.1237772 0.1966744 -3.433227E-07
v 0.08752353 0.1966744 0.08752319
v 0.1020652 -0.01178174 -3.433227E-07
v 0.07217117 0.00639366 -0.07217148
v 0.07217117 -0.01178174 -0.07217148
v 0.1020652 0.00639366 -3.433227E-07
v 0.08393909 0.2052621 -0.08409423
v 0.1237772 0.1966744 -3.433227E-07
v 0.07217117 -0.01178174 -0.07217148
v 0 0.00639366 -0.1020655
v 0 -0.01178174 -0.1020655
v 0.07217117 0.00639366 -0.07217148
v 0.04745601 0.125964 -0.09318504
v 0.08393909 0.2052621 -0.08409423
v -0.01930641 0.1974198 -0.1225393
v 0 -0.01178174 -0.1020655
v -0.07217114 0.00639366 -0.07217148
v -0.07217114 -0.01178174 -0.07217148
v 0 0.00639366 -0.1020655
v -0.08752319 0.1966744 -0.08752384
v -0.01930641 0.1974198 -0.1225393
v -0.07217114 -0.01178174 -0.07217148
v -0.1020649 0.00639366 -3.433227E-07
v -0.1020649 -0.01178174 -3.433227E-07
v -0.07217114 0.00639366 -0.07217148
v -0.1237768 0.1966744 -3.433227E-07
v -0.08752319 0.1966744 -0.08752384
v -0.1020649 -0.01178174 -3.433227E-07
v -0.07217114 0.00639366 0.07217083
v -0.07217114 -0.01178174 0.07217083
v -0.1020649 0.00639366 -3.433227E-07
v -0.08752319 0.1966744 0.08752319
v -0.1237768 0.1966744 -3.433227E-07
v -0.07217114 -0.01178174 0.07217083
v 0 0.00639366 0.1020649
v 0 -0.01178174 0.1020649
v -0.07217114 0.00639366 0.07217083
v 0 0.1966744 0.1237768
v -0.08752319 0.1966744 0.08752319
v 0 -0.01178174 0.1020649
v 0.07217117 0.00639366 0.07217083
v 0.07217117 -0.01178174 0.07217083
v 0 0.00639366 0.1020649
v 0.08752353 0.1966744 0.08752319
v 0 0.1966744 0.1237768
v 0.08273685 0.003763237 -3.433227E-07
v 0.07094902 0.1980557 0.07094837
v 0.05850395 0.003763237 0.05850361
v 0.1003371 0.1980557 -3.433227E-07
v 0.08363785 0.2600459 0.08363751
v 0.1182816 0.2600459 -3.433227E-07
v 0.1003371 0.1980557 -3.433227E-07
v 0.08273685 0.003763237 -3.433227E-07
v 0.05850395 0.003763237 -0.05850395
v 0.04545494 0.1441752 -0.09262852
v 0.08088886 0.2076207 -0.07269798
v 0.1182816 0.2600459 -3.433227E-07
v 0.0996196 0.2698941 -0.04476769
v -0.05850361 0.003763237 -0.05850395
v -0.01543957 0.199012 -0.09903133
v 0 0.003763237 -0.08273685
v -0.07094868 0.1980557 -0.07094902
v -0.08363751 0.2600459 -0.08363815
v 0.000401001 0.2625444 -0.103371
v -0.01543957 0.199012 -0.09903133
v -0.08273651 0.003763237 -3.433227E-07
v -0.07094868 0.1980557 -0.07094902
v -0.05850361 0.003763237 -0.05850395
v -0.1003368 0.1980557 -3.433227E-07
v -0.08363751 0.2600459 -0.08363815
v -0.1182813 0.2600459 -3.433227E-07
v -0.05850361 0.003763237 0.05850361
v -0.1003368 0.1980557 -3.433227E-07
v -0.08273651 0.003763237 -3.433227E-07
v -0.07094868 0.1980557 0.07094837
v -0.1182813 0.2600459 -3.433227E-07
v -0.08363751 0.2600459 0.08363751
v 0 0.003763237 0.08273651
v -0.07094868 0.1980557 0.07094837
v -0.05850361 0.003763237 0.05850361
v 0 0.1980557 0.1003365
v -0.08363751 0.2600459 0.08363751
v 0 0.2600459 0.1182813
v 0.05850395 0.003763237 0.05850361
v 0 0.1980557 0.1003365
v 0 0.003763237 0.08273651
v 0.07094902 0.1980557 0.07094837
v 0 0.2600459 0.1182813
v 0.08363785 0.2600459 0.08363751
v 0.09405918 0.1949046 0.09405883
v 0.0992789 0.2591717 0.09927826
v 0.1404015 0.2591717 -3.433227E-07
v 0.1330203 0.1949046 -3.433227E-07
v 0.1330203 0.1949046 -3.433227E-07
v 0.1404015 0.2591717 -3.433227E-07
v 0.1152607 0.2690199 -0.06040844
v 0.09027217 0.2050663 -0.09086525
v -0.01543957 0.195861 -0.1317142
v 0.000401001 0.2616702 -0.1254902
v -0.09927856 0.2591717 -0.0992789
v -0.09405883 0.1949046 -0.09405952
v -0.09405883 0.1949046 -0.09405952
v -0.09927856 0.2591717 -0.0992789
v -0.1404012 0.2591717 -3.433227E-07
v -0.13302 0.1949046 -3.433227E-07
v -0.13302 0.1949046 -3.433227E-07
v -0.1404012 0.2591717 -3.433227E-07
v -0.09927856 0.2591717 0.09927826
v -0.09405918 0.1949046 0.09405883
v -0.09405918 0.1949046 0.09405883
v -0.09927856 0.2591717 0.09927826
v 0 0.2591717 0.1404012
v 0 0.1949046 0.1330196
v 0 0.1949046 0.1330196
v 0 0.2591717 0.1404012
v 0.0992789 0.2591717 0.09927826
v 0.09405918 0.1949046 0.09405883
v 0.1237772 0.1966744 -3.433227E-07
v 0.09027217 0.2050663 -0.09086525
v 0.08393909 0.2052621 -0.08409423
v 0.1330203 0.1949046 -3.433227E-07
v 0.08752353 0.1966744 0.08752319
v 0.09405918 0.1949046 0.09405883
v 0 0.1966744 0.1237768
v 0 0.1949046 0.1330196
v -0.08752319 0.1966744 0.08752319
v -0.09405918 0.1949046 0.09405883
v -0.1237768 0.1966744 -3.433227E-07
v -0.13302 0.1949046 -3.433227E-07
v -0.08752319 0.1966744 -0.08752384
v -0.09405883 0.1949046 -0.09405952
v -0.01930641 0.1974198 -0.1225393
v -0.01543957 0.195861 -0.1317142
v 0.0996196 0.2698941 -0.04476769
v 0.1152607 0.2690199 -0.06040844
v 0.1404015 0.2591717 -3.433227E-07
v 0.1182816 0.2600459 -3.433227E-07
v 0.0992789 0.2591717 0.09927826
v 0.08363785 0.2600459 0.08363751
v 0 0.2591717 0.1404012
v 0 0.2600459 0.1182813
v -0.09927856 0.2591717 0.09927826
v -0.08363751 0.2600459 0.08363751
v -0.1404012 0.2591717 -3.433227E-07
v -0.1182813 0.2600459 -3.433227E-07
v -0.09927856 0.2591717 -0.0992789
v -0.08363751 0.2600459 -0.08363815
v 0.000401001 0.2616702 -0.1254902
v 0.000401001 0.2625444 -0.103371
v 0.1152607 0.2690199 -0.06040844
v 0.0996196 0.2698941 -0.04476769
v 0.08088886 0.2076207 -0.07269798
v 0.09027217 0.2050663 -0.09086525
v 0.08393909 0.2052621 -0.08409423
v 0.04545494 0.1441752 -0.09262852
v 0.04745601 0.125964 -0.09318504
v -0.01543957 0.195861 -0.1317142
v -0.01543957 0.199012 -0.09903133
v 0.000401001 0.2625444 -0.103371
v 0.000401001 0.2616702 -0.1254902
v 0 0.003763237 -0.08273685
v -0.01543957 0.199012 -0.09903133
v 0.04545494 0.1441752 -0.09262852
v 0.05850395 0.003763237 -0.05850395
v -0.01543957 0.199012 -0.09903133
v -0.01930641 0.1974198 -0.1225393
v 0.04745601 0.125964 -0.09318504
v 0.04545494 0.1441752 -0.09262852
v 0.05850395 0.003763237 0.05850361
v 0 0.006407202 -3.433227E-07
v 0.08273685 0.003763237 -3.433227E-07
v 0 0.003763237 0.08273651
v 0.05850395 0.003763237 -0.05850395
v -0.05850361 0.003763237 0.05850361
v 0 0.003763237 -0.08273685
v -0.08273651 0.003763237 -3.433227E-07
v -0.05850361 0.003763237 -0.05850395
v 0.05667374 -0.006407205 0.05667339
v 0.07217117 -0.01178174 0.07217083
v 0.1020652 -0.01178174 -3.433227E-07
v 0.08014892 -0.006407205 -3.433227E-07
v 0 -0.006407205 -3.433227E-07
v 0.07217117 -0.01178174 -0.07217148
v 0 -0.006407205 0.08014827
v 0 -0.01178174 0.1020649
v 0.05667374 -0.006407205 -0.05667404
v 0 -0.01178174 -0.1020655
v -0.05667339 -0.006407205 0.05667339
v -0.07217114 -0.01178174 0.07217083
v 0 -0.006407205 -0.08014892
v -0.07217114 -0.01178174 -0.07217148
v -0.08014858 -0.006407205 -3.433227E-07
v -0.1020649 -0.01178174 -3.433227E-07
v -0.05667339 -0.006407205 -0.05667404
vt 0.219696 0.4913673
vt 0.219696 0.4913673
vt 0.219696 0.4913673
vt 0.219696 0.4913673
vt 0.219696 0.4913673
vt 0.219696 0.4913673
vt 0.1693047 0.4726204
vt 0.1693047 0.4726204
vt 0.1693047 0.4726204
vt 0.1693047 0.4726204
vt 0.1693047 0.4726204
vt 0.1693047 0.4726204
vt 0.1693047 0.4726204
vt 0.1693047 0.4726204
vt 0.1693047 0.4726204
vt 0.1693047 0.4726204
vt 0.1693047 0.4726204
vt 0.1693047 0.4726204
vt 0.1693047 0.4726204
vt 0.1693047 0.4726204
vt 0.1693047 0.4726204
vt 0.1693047 0.4726204
vt 0.1693047 0.4726204
vt 0.1693047 0.4726204
vt 0.1693047 0.4726204
vt 0.1693047 0.4726204
vt 0.1693047 0.4726204
vt 0.1693047 0.4726204
vt 0.1693047 0.4726204
vt 0.1693047 0.4726204
vt 0.1693047 0.4726204
vt 0.1693047 0.4726204
vt 0.1693047 0.4726204
vt 0.1693047 0.4726204
vt 0.1693047 0.4726204
vt 0.1693047 0.4726204
vt 0.1693047 0.4726204
vt 0.1693047 0.4726204
vt 0.1693047 0.4726204
vt 0.1693047 0.4726204
vt 0.1693047 0.4726204
vt 0.1693047 0.4726204
vt 0.1693047 0.4726204
vt 0.1693047 0.4726204
vt 0.1693047 0.4726204
vt 0.1693047 0.4726204
vt 0.1693047 0.4726204
vt 0.1693047 0.4726204
vt 0.1693047 0.4726204
vt 0.1693047 0.4726204
vt 0.1693047 0.4726204
vt 0.1693047 0.4726204
vt 0.1693047 0.4726204
vt 0.1693047 0.4726204
vt 0.1693047 0.4726204
vt 0.1693047 0.4726204
vt 0.1693047 0.4726204
vt 0.1693047 0.4726204
vt 0.1693047 0.4726204
vt 0.1693047 0.4726204
vt 0.1693047 0.4726204
vt 0.1693047 0.4726204
vt 0.1693047 0.4726204
vt 0.1693047 0.4726204
vt 0.1693047 0.4726204
vt 0.1693047 0.4726204
vt 0.1693047 0.4726204
vt 0.1693047 0.4726204
vt 0.1693047 0.4726204
vt 0.1693047 0.4726204
vt 0.1693047 0.4726204
vt 0.1693047 0.4726204
vt 0.1693047 0.4726204
vt 0.1693047 0.4726204
vt 0.1693047 0.4726204
vt 0.1693047 0.4726204
vt 0.1693047 0.4726204
vt 0.1693047 0.4726204
vt 0.1693047 0.4726204
vt 0.1693047 0.4726204
vt 0.1693047 0.4726204
vt 0.1693047 0.4726204
vt 0.1693047 0.4726204
vt 0.1693047 0.4726204
vt 0.1693047 0.4726204
vt 0.1693047 0.4726204
vt 0.1693047 0.4726204
vt 0.1693047 0.4726204
vt 0.1693047 0.4726204
vt 0.1693047 0.4726204
vt 0.1693047 0.4726204
vt 0.1693047 0.4726204
vt 0.1693047 0.4726204
vt 0.1693047 0.4726204
vt 0.1693047 0.4726204
vt 0.1693047 0.4726204
vt 0.1693047 0.4726204
vt 0.1693047 0.4726204
vt 0.1693047 0.4726204
vt 0.1693047 0.4726204
vt 0.1693047 0.4726204
vt 0.1693047 0.4726204
vt 0.1693047 0.4726204
vt 0.1693047 0.4726204
vt 0.1693047 0.4726204
vt 0.1693047 0.4726204
vt 0.1693047 0.4726204
vt 0.1693047 0.4726204
vt 0.1693047 0.4726204
vt 0.1693047 0.4726204
vt 0.1693047 0.4726204
vt 0.1693047 0.4726204
vt 0.1693047 0.4726204
vt 0.1693047 0.4726204
vt 0.1693047 0.4726204
vt 0.1693047 0.4726204
vt 0.1693047 0.4726204
vt 0.1693047 0.4726204
vt 0.1693047 0.4726204
vt 0.1693047 0.4726204
vt 0.1693047 0.4726204
vt 0.1693047 0.4726204
vt 0.1693047 0.4726204
vt 0.1693047 0.4726204
vt 0.1693047 0.4726204
vt 0.1693047 0.4726204
vt 0.1693047 0.4726204
vt 0.1693047 0.4726204
vt 0.1693047 0.4726204
vt 0.1693047 0.4726204
vt 0.1693047 0.4726204
vt 0.1693047 0.4726204
vt 0.1693047 0.4726204
vt 0.1693047 0.4726204
vt 0.1693047 0.4726204
vt 0.1693047 0.4726204
vt 0.1693047 0.4726204
vt 0.1693047 0.4726204
vt 0.1693047 0.4726204
vt 0.1693047 0.4726204
vt 0.1693047 0.4726204
vt 0.1693047 0.4726204
vt 0.1693047 0.4726204
vt 0.219696 0.4913673
vt 0.219696 0.4913673
vt 0.219696 0.4913673
vt 0.219696 0.4913673
vt 0.219696 0.4913673
vt 0.219696 0.4913673
vt 0.219696 0.4913673
vt 0.219696 0.4913673
vt 0.219696 0.4913673
vt 0.219696 0.4913673
vt 0.219696 0.4913673
vt 0.219696 0.4913673
vt 0.219696 0.4913673
vt 0.219696 0.4913673
vt 0.219696 0.4913673
vt 0.219696 0.4913673
vt 0.219696 0.4913673
vt 0.219696 0.4913673
vt 0.219696 0.4913673
vt 0.219696 0.4913673
vt 0.219696 0.4913673
vt 0.219696 0.4913673
vt 0.219696 0.4913673
vt 0.219696 0.4913673
vt 0.219696 0.4913673
vt 0.219696 0.4913673
vt 0.219696 0.4913673
vt 0.1693047 0.4726204
vt 0.1693047 0.4726204
vt 0.1693047 0.4726204
vt 0.1693047 0.4726204
vt 0.219696 0.4913673
vt 0.219696 0.4913673
vt 0.219696 0.4913673
vt 0.219696 0.4913673
vt 0.1693047 0.4726204
vt 0.1693047 0.4726204
vt 0.1693047 0.4726204
vt 0.1693047 0.4726204
vt 0.1693047 0.4726204
vt 0.1693047 0.4726204
vt 0.1693047 0.4726204
vt 0.1693047 0.4726204
vt 0.1693047 0.4726204
vt 0.1693047 0.4726204
vt 0.1693047 0.4726204
vt 0.1693047 0.4726204
vt 0.1693047 0.4726204
vt 0.1693047 0.4726204
vt 0.1693047 0.4726204
vt 0.1693047 0.4726204
vt 0.1693047 0.4726204
vt 0.1693047 0.4726204
vt 0.1693047 0.4726204
vt 0.1693047 0.4726204
vt 0.1693047 0.4726204
vt 0.1693047 0.4726204
vt 0.1693047 0.4726204
vt 0.1693047 0.4726204
vt 0.1693047 0.4726204
vt 0.1693047 0.4726204
vn -0.2488182 0.9330814 -0.2597089
vn -0.2488182 0.9330814 -0.2597089
vn -0.2488182 0.9330814 -0.2597089
vn -0.03342574 -0.98911 0.1433324
vn -0.1710121 -0.9807212 0.09455498
vn -0.03342574 -0.98911 0.1433324
vn 0.9238805 0 0.3826811
vn 0.9226064 -0.05249091 0.3821546
vn 0.9238805 0 0.3826811
vn 0.9226064 -0.05249091 0.3821546
vn 0.9187885 -0.1048371 0.3805745
vn 0.9187885 -0.1048371 0.3805745
vn 0.9238805 0 -0.3826813
vn 0.9167876 -0.04537393 -0.3967895
vn 0.9238805 0 -0.3826813
vn 0.9167876 -0.04537393 -0.3967895
vn 0.9075786 -0.09064313 -0.4099817
vn 0.9075786 -0.09064313 -0.4099817
vn 0.3826811 0 -0.9238805
vn 0.3688673 -0.04968641 -0.9281531
vn 0.3826811 0 -0.9238805
vn 0.3876612 -0.05381766 -0.9202295
vn 0.3738115 -0.07578857 -0.9244031
vn 0.3980549 -0.07835227 -0.9140094
vn 0.3416201 -0.06595509 -0.937521
vn -0.3826813 0 -0.9238805
vn -0.4001615 -0.06136406 -0.9143879
vn -0.3826813 0 -0.9238805
vn -0.4001615 -0.06136406 -0.9143879
vn -0.4159765 -0.1224728 -0.9010904
vn -0.4159765 -0.1224728 -0.9010904
vn -0.9238819 0 -0.382678
vn -0.9226074 -0.05249055 -0.3821524
vn -0.9238819 0 -0.382678
vn -0.9226074 -0.05249055 -0.3821524
vn -0.9187891 -0.1048364 -0.3805732
vn -0.9187891 -0.1048364 -0.3805732
vn -0.9238819 0 0.3826778
vn -0.9226074 -0.05249054 0.3821523
vn -0.9238819 0 0.3826778
vn -0.9226074 -0.05249054 0.3821523
vn -0.9187891 -0.1048364 0.380573
vn -0.9187891 -0.1048364 0.380573
vn -0.3826813 0 0.9238805
vn -0.3821551 -0.05249076 0.9226061
vn -0.3826813 0 0.9238805
vn -0.3821551 -0.05249076 0.9226061
vn -0.3805753 -0.1048368 0.9187882
vn -0.3805753 -0.1048368 0.9187882
vn 0.3826811 0 0.9238805
vn 0.3821546 -0.05249091 0.9226064
vn 0.3826811 0 0.9238805
vn 0.3821546 -0.05249091 0.9226064
vn 0.3805745 -0.1048371 0.9187885
vn 0.3805745 -0.1048371 0.9187885
vn -0.9206611 0.0833985 -0.3813502
vn -0.9101822 0.1715575 -0.3770099
vn -0.9206611 0.0833985 -0.3813502
vn -0.9101822 0.1715575 -0.3770099
vn -0.8925122 0.258361 -0.369691
vn -0.8925122 0.258361 -0.369691
vn -0.907914 0.1816733 0.3777392
vn -0.9206614 0.08339956 0.3813491
vn -0.8969519 0.06127825 0.4378611
vn -0.8900343 0.2229491 0.3976589
vn -0.9022765 0.2991585 0.3104856
vn -0.9223747 0.1976265 0.3319165
vn -0.9223747 0.1976265 0.3319165
vn 0.414434 0.09643231 0.904956
vn 0.3673007 0.1081264 0.923796
vn 0.414434 0.09643231 0.904956
vn 0.3673007 0.1081264 0.923796
vn 0.3191707 0.1195271 0.9401295
vn 0.3191707 0.1195271 0.9401295
vn 0.1880488 0.119687 0.9748397
vn 0.9206607 0.0833988 0.3813511
vn 0.9101819 0.1715576 0.3770104
vn 0.9206607 0.0833988 0.3813511
vn 0.9101819 0.1715576 0.3770104
vn 0.8925122 0.258361 0.3696912
vn 0.8925122 0.258361 0.3696912
vn 0.9206611 0.0833985 -0.3813502
vn 0.9101822 0.1715575 -0.3770099
vn 0.9206611 0.0833985 -0.3813502
vn 0.9101822 0.1715575 -0.3770099
vn 0.8925122 0.258361 -0.369691
vn 0.8925122 0.258361 -0.369691
vn 0.3813511 0.08339737 -0.9206608
vn 0.3770107 0.1715586 -0.9101816
vn 0.3813511 0.08339737 -0.9206608
vn 0.3770107 0.1715586 -0.9101816
vn 0.3696915 0.2583643 -0.8925112
vn 0.3696915 0.2583643 -0.8925112
vn -0.3813494 0.08339737 -0.9206615
vn -0.3770091 0.1715586 -0.9101823
vn -0.3813494 0.08339737 -0.9206615
vn -0.3770091 0.1715586 -0.9101823
vn -0.36969 0.2583643 -0.8925117
vn -0.36969 0.2583643 -0.8925117
vn 0.9187206 -0.1055206 0.3805496
vn 0.9187206 -0.1055206 0.3805496
vn 0.9187206 -0.1055206 0.3805496
vn 0.9187206 -0.1055206 0.3805496
vn 0.8985546 -0.1270629 -0.4200651
vn 0.8985546 -0.1270629 -0.4200651
vn 0.8985546 -0.1270629 -0.4200651
vn 0.8985546 -0.1270629 -0.4200651
vn -0.3376092 0.03483054 -0.9406417
vn -0.3376092 0.03483054 -0.9406417
vn -0.3376092 0.03483054 -0.9406417
vn -0.3376092 0.03483054 -0.9406417
vn -0.9187206 -0.1055204 -0.3805496
vn -0.9187206 -0.1055204 -0.3805496
vn -0.9187206 -0.1055204 -0.3805496
vn -0.9187206 -0.1055204 -0.3805496
vn -0.9187214 -0.1055181 0.3805483
vn -0.9187214 -0.1055181 0.3805483
vn -0.9187214 -0.1055181 0.3805483
vn -0.9187214 -0.1055181 0.3805483
vn -0.3805495 -0.1055207 0.9187206
vn -0.3805495 -0.1055207 0.9187206
vn -0.3805495 -0.1055207 0.9187206
vn -0.3805495 -0.1055207 0.9187206
vn 0.3805488 -0.1055217 0.9187207
vn 0.3805488 -0.1055217 0.9187207
vn 0.3805488 -0.1055217 0.9187207
vn 0.3805488 -0.1055217 0.9187207
vn -0.164718 -0.9846109 -0.05838947
vn -0.141799 -0.9891243 -0.03906541
vn -0.141799 -0.9891243 -0.03906541
vn -0.164718 -0.9846109 -0.05838947
vn -0.1329749 -0.9821584 -0.1329761
vn -0.1329749 -0.9821584 -0.1329761
vn 0 -0.9821583 -0.1880563
vn 0 -0.9821583 -0.1880563
vn 0.132973 -0.9821588 -0.1329745
vn 0.132973 -0.9821588 -0.1329745
vn 0.1880518 -0.9821591 0
vn 0.1880518 -0.9821591 0
vn 0.1465332 -0.9801322 0.1336745
vn 0.1465332 -0.9801322 0.1336745
vn -0.03342574 -0.98911 0.1433324
vn -0.03342574 -0.98911 0.1433324
vn 0.1040103 0.9845226 0.141057
vn 0.1040103 0.9845226 0.141057
vn 0.07192653 0.9942841 0.07890268
vn 0.07192653 0.9942841 0.07890268
vn 0.02792318 0.99922 0.0279232
vn 0.02792318 0.99922 0.0279232
vn 0 0.99922 0.0394894
vn 0 0.99922 0.0394894
vn -0.0279232 0.99922 0.02792319
vn -0.0279232 0.99922 0.02792319
vn -0.03948927 0.99922 0
vn -0.03948927 0.99922 0
vn -0.0372928 0.9990153 -0.02403365
vn -0.0372928 0.9990153 -0.02403365
vn -0.03509925 0.9988806 -0.03171097
vn -0.03509925 0.9988806 -0.03171097
vn -0.6766746 0.4889864 -0.5504578
vn -0.6766746 0.4889864 -0.5504578
vn -0.5577043 0.4422312 -0.7024226
vn -0.6766746 0.4889864 -0.5504578
vn -0.4167418 0.3780374 -0.8266885
vn -0.4167418 0.3780374 -0.8266885
vn -0.4167418 0.3780374 -0.8266885
vn 0.9710801 -0.2381127 0.01748956
vn 0.9710801 -0.2381127 0.01748956
vn 0.9710801 -0.2381127 0.01748956
vn 0.9710801 -0.2381127 0.01748956
vn -0.1899626 0.130051 0.9731396
vn 0.06681561 0.129061 0.989383
vn -0.1899626 0.130051 0.9731396
vn -0.1899626 0.130051 0.9731396
vn 0.6761828 0.5422927 -0.4986938
vn 0.6761828 0.5422927 -0.4986938
vn 0.6761828 0.5422927 -0.4986938
vn 0.6761828 0.5422927 -0.4986938
vn 0.02258494 0.9994898 0.02258494
vn 0 1 0
vn 0.03194002 0.9994898 0
vn 0 0.9994898 0.03194002
vn 0.02258497 0.9994898 -0.02258504
vn -0.02258504 0.9994898 0.02258497
vn 0 0.9994898 -0.03194015
vn -0.03194015 0.9994898 0
vn -0.02258507 0.9994898 -0.02258507
vn -0.08461286 -0.9928148 -0.08461279
vn -0.1684117 -0.9712235 -0.1684116
vn -0.2381709 -0.9712233 0
vn -0.1196611 -0.9928148 0
vn 0 -1 0
vn -0.1684117 -0.9712235 0.1684116
vn 0 -0.9928149 -0.1196602
vn 0 -0.9712237 -0.2381692
vn -0.08461285 -0.9928148 0.08461281
vn 0 -0.9712237 0.2381692
vn 0.08461252 -0.9928149 -0.08461232
vn 0.168411 -0.9712237 -0.1684106
vn 0 -0.9928149 0.1196602
vn 0.168411 -0.9712237 0.1684107
vn 0.1196604 -0.9928149 0
vn 0.2381696 -0.9712237 0
vn 0.0846125 -0.9928149 0.08461233
g SM_Prop_Pot_05_0
f 3/3/3 2/2/2 1/1/1
f 6/6/6 5/5/5 4/4/4
f 9/9/9 8/8/8 7/7/7
f 8/8/8 10/10/10 7/7/7
f 8/8/8 11/11/11 10/10/10
f 11/11/11 12/12/12 10/10/10
f 15/15/15 14/14/14 13/13/13
f 14/14/14 16/16/16 13/13/13
f 14/14/14 17/17/17 16/16/16
f 17/17/17 18/18/18 16/16/16
f 21/21/21 20/20/20 19/19/19
f 20/20/20 22/22/22 19/19/19
f 20/20/20 23/23/23 22/22/22
f 22/22/22 23/23/23 24/24/24
f 23/23/23 20/20/20 25/25/25
f 28/28/28 27/27/27 26/26/26
f 27/27/27 29/29/29 26/26/26
f 27/27/27 30/30/30 29/29/29
f 30/30/30 31/31/31 29/29/29
f 34/34/34 33/33/33 32/32/32
f 33/33/33 35/35/35 32/32/32
f 33/33/33 36/36/36 35/35/35
f 36/36/36 37/37/37 35/35/35
f 40/40/40 39/39/39 38/38/38
f 39/39/39 41/41/41 38/38/38
f 39/39/39 42/42/42 41/41/41
f 42/42/42 43/43/43 41/41/41
f 46/46/46 45/45/45 44/44/44
f 45/45/45 47/47/47 44/44/44
f 45/45/45 48/48/48 47/47/47
f 48/48/48 49/49/49 47/47/47
f 52/52/52 51/51/51 50/50/50
f 51/51/51 53/53/53 50/50/50
f 51/51/51 54/54/54 53/53/53
f 54/54/54 55/55/55 53/53/53
f 58/58/58 57/57/57 56/56/56
f 57/57/57 59/59/59 56/56/56
f 57/57/57 60/60/60 59/59/59
f 60/60/60 61/61/61 59/59/59
f 64/64/64 63/63/63 62/62/62
f 62/62/62 65/65/65 64/64/64
f 62/62/62 66/66/66 65/65/65
f 62/62/62 67/67/67 66/66/66
f 67/67/67 68/68/68 66/66/66
f 71/71/71 70/70/70 69/69/69
f 70/70/70 72/72/72 69/69/69
f 74/74/74 73/73/73 72/72/72
f 75/75/75 74/74/74 72/72/72
f 78/78/78 77/77/77 76/76/76
f 77/77/77 79/79/79 76/76/76
f 77/77/77 80/80/80 79/79/79
f 80/80/80 81/81/81 79/79/79
f 84/84/84 83/83/83 82/82/82
f 83/83/83 85/85/85 82/82/82
f 83/83/83 86/86/86 85/85/85
f 86/86/86 87/87/87 85/85/85
f 90/90/90 89/89/89 88/88/88
f 89/89/89 91/91/91 88/88/88
f 89/89/89 92/92/92 91/91/91
f 92/92/92 93/93/93 91/91/91
f 96/96/96 95/95/95 94/94/94
f 95/95/95 97/97/97 94/94/94
f 95/95/95 98/98/98 97/97/97
f 98/98/98 99/99/99 97/97/97
f 102/102/102 101/101/101 100/100/100
f 103/103/103 102/102/102 100/100/100
f 106/106/106 105/105/105 104/104/104
f 107/107/107 106/106/106 104/104/104
f 110/110/110 109/109/109 108/108/108
f 111/111/111 110/110/110 108/108/108
f 114/114/114 113/113/113 112/112/112
f 115/115/115 114/114/114 112/112/112
f 118/118/118 117/117/117 116/116/116
f 119/119/119 118/118/118 116/116/116
f 122/122/122 121/121/121 120/120/120
f 123/123/123 122/122/122 120/120/120
f 126/126/126 125/125/125 124/124/124
f 127/127/127 126/126/126 124/124/124
f 130/130/130 129/129/129 128/128/128
f 129/129/129 131/131/131 128/128/128
f 128/128/128 131/131/131 132/132/132
f 131/131/131 133/133/133 132/132/132
f 132/132/132 133/133/133 134/134/134
f 133/133/133 135/135/135 134/134/134
f 134/134/134 135/135/135 136/136/136
f 135/135/135 137/137/137 136/136/136
f 136/136/136 137/137/137 138/138/138
f 137/137/137 139/139/139 138/138/138
f 138/138/138 139/139/139 140/140/140
f 139/139/139 141/141/141 140/140/140
f 140/140/140 141/141/141 142/142/142
f 141/141/141 143/143/143 142/142/142
f 146/146/146 145/145/145 144/144/144
f 147/147/147 146/146/146 144/144/144
f 148/148/148 146/146/146 147/147/147
f 149/149/149 148/148/148 147/147/147
f 150/150/150 148/148/148 149/149/149
f 151/151/151 150/150/150 149/149/149
f 152/152/152 150/150/150 151/151/151
f 153/153/153 152/152/152 151/151/151
f 154/154/154 152/152/152 153/153/153
f 155/155/155 154/154/154 153/153/153
f 156/156/156 154/154/154 155/155/155
f 157/157/157 156/156/156 155/155/155
f 158/158/158 156/156/156 157/157/157
f 159/159/159 158/158/158 157/157/157
f 162/162/162 161/161/161 160/160/160
f 163/163/163 162/162/162 160/160/160
f 165/165/165 162/162/162 164/164/164
f 166/166/166 165/165/165 164/164/164
f 169/169/169 168/168/168 167/167/167
f 170/170/170 169/169/169 167/167/167
f 173/173/173 172/172/172 171/171/171
f 174/174/174 173/173/173 171/171/171
f 177/177/177 176/176/176 175/175/175
f 178/178/178 177/177/177 175/175/175
f 181/181/181 180/180/180 179/179/179
f 179/179/179 180/180/180 182/182/182
f 183/183/183 180/180/180 181/181/181
f 182/182/182 180/180/180 184/184/184
f 185/185/185 180/180/180 183/183/183
f 184/184/184 180/180/180 186/186/186
f 187/187/187 180/180/180 185/185/185
f 186/186/186 180/180/180 187/187/187
f 190/190/190 189/189/189 188/188/188
f 191/191/191 190/190/190 188/188/188
f 188/188/188 192/192/192 191/191/191
f 193/193/193 190/190/190 191/191/191
f 188/188/188 189/189/189 194/194/194
f 194/194/194 192/192/192 188/188/188
f 189/189/189 195/195/195 194/194/194
f 196/196/196 193/193/193 191/191/191
f 191/191/191 192/192/192 196/196/196
f 197/197/197 193/193/193 196/196/196
f 194/194/194 195/195/195 198/198/198
f 198/198/198 192/192/192 194/194/194
f 195/195/195 199/199/199 198/198/198
f 200/200/200 197/197/197 196/196/196
f 196/196/196 192/192/192 200/200/200
f 201/201/201 197/197/197 200/200/200
f 198/198/198 199/199/199 202/202/202
f 202/202/202 192/192/192 198/198/198
f 199/199/199 203/203/203 202/202/202
f 200/200/200 192/192/192 204/204/204
f 204/204/204 201/201/201 200/200/200
f 204/204/204 192/192/192 202/202/202
f 203/203/203 201/201/201 204/204/204
f 202/202/202 203/203/203 204/204/204
