g SM_Prop_Newspaper_01
v -0.2282753 0.02679511 0.1938012
v -0.2282753 0.05358857 0.181097
v 0.2282754 0.05358857 0.181097
v 0.2282754 0.02679511 0.1938012
v -0.2282753 0.05358857 0.181097
v -0.2282753 0.05358696 -0.1787026
v 0.2282754 0.05358696 -0.1787026
v 0.2282754 0.05358857 0.181097
v -0.2282753 0.03425063 -0.185903
v -0.2282753 0.02201663 -0.185903
v 0.2282754 0.02201663 -0.185903
v 0.2282754 0.03425063 -0.185903
v -0.2282753 1.609325E-06 -0.1949372
v -0.2282753 1.609325E-06 0.181097
v 0.2282754 1.609325E-06 0.181097
v 0.2282754 1.609325E-06 -0.1949372
v 0.2282754 0.03425063 0.1625815
v 0.2282754 0.03425063 -0.185903
v 0.2282754 0.02201663 -0.185903
v 0.2282754 0.02201663 0.1625815
v -0.2282753 0.05358696 -0.1787026
v -0.2282753 0.04298663 -0.1787026
v 0.2282754 0.04298663 -0.1787026
v 0.2282754 0.05358696 -0.1787026
v 0.2282754 0.05358857 0.181097
v 0.2282754 0.05358696 -0.1787026
v 0.2282754 0.04298663 -0.1787026
v 0.2282754 0.04298663 0.1714516
v 0.2282754 0.02679511 0.1938012
v 0.2282754 0.01328063 0.1714516
v 0.2282754 1.609325E-06 0.181097
v 0.2282754 0.01328063 -0.1949372
v 0.2282754 1.609325E-06 -0.1949372
v -0.2282753 0.01328063 -0.1949372
v -0.2282753 1.609325E-06 -0.1949372
v 0.2282754 1.609325E-06 -0.1949372
v 0.2282754 0.01328063 -0.1949372
v -0.2282753 0.04298663 -0.1787026
v -0.2282753 0.05358696 -0.1787026
v -0.2282753 0.05358857 0.181097
v -0.2282753 0.04298663 0.1714516
v -0.2282753 0.02679511 0.1938012
v -0.2282753 0.01328063 0.1714516
v -0.2282753 1.609325E-06 0.181097
v -0.2282753 1.609325E-06 -0.1949372
v -0.2282753 0.01328063 -0.1949372
v -0.2282753 0.02201663 -0.185903
v -0.2282753 0.03425063 -0.185903
v -0.2282753 0.03425063 0.1625815
v -0.2282753 0.02201663 0.1625815
v -0.2282753 0.04298663 -0.1787026
v -0.2282753 0.03425063 -0.185903
v 0.2282754 0.03425063 -0.185903
v 0.2282754 0.04298663 -0.1787026
v 0.2282754 0.01328063 -0.1949372
v 0.2282754 0.02201663 -0.185903
v -0.2282753 0.02201663 -0.185903
v -0.2282753 0.01328063 -0.1949372
v 0.2282754 0.01328063 0.1714516
v 0.2282754 0.02201663 -0.185903
v 0.2282754 0.01328063 -0.1949372
v 0.2282754 0.02201663 0.1625815
v 0.2282754 0.04298663 0.1714516
v 0.2282754 0.03425063 0.1625815
v 0.2282754 0.04298663 -0.1787026
v 0.2282754 0.03425063 -0.185903
v -0.2282753 0.01328063 -0.1949372
v -0.2282753 0.02201663 -0.185903
v -0.2282753 0.02201663 0.1625815
v -0.2282753 0.01328063 0.1714516
v -0.2282753 0.03425063 0.1625815
v -0.2282753 0.04298663 0.1714516
v -0.2282753 0.03425063 -0.185903
v -0.2282753 0.04298663 -0.1787026
v -0.2282753 1.609325E-06 0.181097
v -0.2282753 0.02679511 0.1938012
v 0.2282754 0.02679511 0.1938012
v 0.2282754 1.609325E-06 0.181097
vt 0.2600098 0.9272461
vt 0.2600098 0.9282227
vt 0.3303223 0.9282227
vt 0.3303223 0.9272461
vt 0.2600098 0.9282227
vt 0.2600098 0.9960938
vt 0.3303223 0.9960938
vt 0.3303223 0.9282227
vt 0.1350098 0.3024902
vt 0.1350098 0.3024902
vt 0.1350098 0.3024902
vt 0.1350098 0.3024902
vt 0.1350098 0.3024902
vt 0.1350098 0.3024902
vt 0.1350098 0.3024902
vt 0.1350098 0.3024902
vt 0.1350098 0.3024902
vt 0.1350098 0.3024902
vt 0.1350098 0.3024902
vt 0.1350098 0.3024902
vt 0.1350098 0.3024902
vt 0.1350098 0.3024902
vt 0.1350098 0.3024902
vt 0.1350098 0.3024902
vt 0.1350098 0.3024902
vt 0.1350098 0.3024902
vt 0.1350098 0.3024902
vt 0.1350098 0.3024902
vt 0.1350098 0.3024902
vt 0.1350098 0.3024902
vt 0.1350098 0.3024902
vt 0.1350098 0.3024902
vt 0.1350098 0.3024902
vt 0.1350098 0.3024902
vt 0.1350098 0.3024902
vt 0.1350098 0.3024902
vt 0.1350098 0.3024902
vt 0.1350098 0.3024902
vt 0.1350098 0.3024902
vt 0.1350098 0.3024902
vt 0.1350098 0.3024902
vt 0.1350098 0.3024902
vt 0.1350098 0.3024902
vt 0.1350098 0.3024902
vt 0.1350098 0.3024902
vt 0.1350098 0.3024902
vt 0.1350098 0.3024902
vt 0.1350098 0.3024902
vt 0.1350098 0.3024902
vt 0.1350098 0.3024902
vt 0.1350098 0.2512207
vt 0.1350098 0.2512207
vt 0.1350098 0.2512207
vt 0.1350098 0.2512207
vt 0.1350098 0.2512207
vt 0.1350098 0.2512207
vt 0.1350098 0.2512207
vt 0.1350098 0.2512207
vt 0.1350098 0.2512207
vt 0.1350098 0.2512207
vt 0.1350098 0.2512207
vt 0.1350098 0.2512207
vt 0.1350098 0.2512207
vt 0.1350098 0.2512207
vt 0.1350098 0.2512207
vt 0.1350098 0.2512207
vt 0.1350098 0.2512207
vt 0.1350098 0.2512207
vt 0.1350098 0.2512207
vt 0.1350098 0.2512207
vt 0.1350098 0.2512207
vt 0.1350098 0.2512207
vt 0.1350098 0.2512207
vt 0.1350098 0.2512207
vt 0.1350098 0.3024902
vt 0.1350098 0.3024902
vt 0.1350098 0.3024902
vt 0.1350098 0.3024902
vn 0 0.4284668 0.9038086
vn 0 0.4284668 0.9038086
vn 0 0.4284668 0.9038086
vn 0 0.4284668 0.9038086
vn 0 1 0
vn 0 1 0
vn 0 1 0
vn 0 1 0
vn 0 0 -1
vn 0 0 -1
vn 0 0 -1
vn 0 0 -1
vn 0 -1 0
vn 0 -1 0
vn 0 -1 0
vn 0 -1 0
vn 1 0 0
vn 1 0 0
vn 1 0 0
vn 1 0 0
vn 0 0 -1
vn 0 0 -1
vn 0 0 -1
vn 0 0 -1
vn 1 0 0
vn 1 0 0
vn 1 0 0
vn 1 0 0
vn 1 0 0
vn 1 0 0
vn 1 0 0
vn 1 0 0
vn 1 0 0
vn 0 0 -1
vn 0 0 -1
vn 0 0 -1
vn 0 0 -1
vn -1 0 0
vn -1 0 0
vn -1 0 0
vn -1 0 0
vn -1 0 0
vn -1 0 0
vn -1 0 0
vn -1 0 0
vn -1 0 0
vn -1 0 0
vn -1 0 0
vn -1 0 0
vn -1 0 0
vn 0 0.6362305 -0.7714844
vn 0 0.6362305 -0.7714844
vn 0 0.6362305 -0.7714844
vn 0 0.6362305 -0.7714844
vn 0 0.71875 -0.6953125
vn 0 0.71875 -0.6953125
vn 0 0.71875 -0.6953125
vn 0 0.71875 -0.6953125
vn 1 0 0
vn 1 0 0
vn 1 0 0
vn 1 0 0
vn 1 0 0
vn 1 0 0
vn 1 0 0
vn 1 0 0
vn -1 0 0
vn -1 0 0
vn -1 0 0
vn -1 0 0
vn -1 0 0
vn -1 0 0
vn -1 0 0
vn -1 0 0
vn 0 -0.4284668 0.9038086
vn 0 -0.4284668 0.9038086
vn 0 -0.4284668 0.9038086
vn 0 -0.4284668 0.9038086
g SM_Prop_Newspaper_01_0
f 3/3/3 2/2/2 1/1/1
f 4/4/4 3/3/3 1/1/1
f 7/7/7 6/6/6 5/5/5
f 8/8/8 7/7/7 5/5/5
f 11/11/11 10/10/10 9/9/9
f 12/12/12 11/11/11 9/9/9
f 15/15/15 14/14/14 13/13/13
f 16/16/16 15/15/15 13/13/13
f 19/19/19 18/18/18 17/17/17
f 20/20/20 19/19/19 17/17/17
f 23/23/23 22/22/22 21/21/21
f 24/24/24 23/23/23 21/21/21
f 27/27/27 26/26/26 25/25/25
f 28/28/28 27/27/27 25/25/25
f 28/28/28 25/25/25 29/29/29
f 30/30/30 28/28/28 29/29/29
f 30/30/30 29/29/29 31/31/31
f 32/32/32 30/30/30 31/31/31
f 33/33/33 32/32/32 31/31/31
f 36/36/36 35/35/35 34/34/34
f 37/37/37 36/36/36 34/34/34
f 40/40/40 39/39/39 38/38/38
f 41/41/41 40/40/40 38/38/38
f 42/42/42 40/40/40 41/41/41
f 43/43/43 42/42/42 41/41/41
f 43/43/43 44/44/44 42/42/42
f 44/44/44 43/43/43 45/45/45
f 43/43/43 46/46/46 45/45/45
f 49/49/49 48/48/48 47/47/47
f 50/50/50 49/49/49 47/47/47
f 53/53/53 52/52/52 51/51/51
f 54/54/54 53/53/53 51/51/51
f 57/57/57 56/56/56 55/55/55
f 58/58/58 57/57/57 55/55/55
f 61/61/61 60/60/60 59/59/59
f 60/60/60 62/62/62 59/59/59
f 59/59/59 62/62/62 63/63/63
f 62/62/62 64/64/64 63/63/63
f 63/63/63 64/64/64 65/65/65
f 64/64/64 66/66/66 65/65/65
f 69/69/69 68/68/68 67/67/67
f 70/70/70 69/69/69 67/67/67
f 71/71/71 69/69/69 70/70/70
f 72/72/72 71/71/71 70/70/70
f 73/73/73 71/71/71 72/72/72
f 74/74/74 73/73/73 72/72/72
f 77/77/77 76/76/76 75/75/75
f 78/78/78 77/77/77 75/75/75
