g SM_Prop_Note_01
v 0.07530975 -0.08308746 0.02868469
v 0.07037658 -0.1160648 0.04850204
v -0.003196411 -0.1254872 0.03074295
v 0.004729309 -0.1257732 0.01897659
v 0.07269195 -0.1197531 0.03755356
v 0.07557251 -0.08931243 0.0172139
v -0.003196411 -0.1254872 0.03074295
v 0.07037658 -0.1160648 0.04850204
v 0.07269195 -0.1197531 0.03755356
v 0.004729309 -0.1257732 0.01897659
v -0.07269379 0.02113678 0.01178314
v -0.07269379 0.02113678 3.051758E-07
v 0.07065307 0.02718994 3.051758E-07
v 0.07065307 0.02718994 0.01178314
v 0.07557251 -0.08931243 0.0172139
v 0.07269195 -0.1197531 0.03755356
v 0.07037658 -0.1160648 0.04850204
v 0.07530975 -0.08308746 0.02868469
v -0.07167327 -0.003026581 3.051758E-07
v -0.0664032 -0.12783 0.03072586
v -0.06636322 -0.1287754 0.01897659
v -0.07167327 -0.003026581 0.009785461
v -0.07269379 0.02113678 0.01178314
v -0.07269379 0.02113678 3.051758E-07
v 0.07167327 0.003026581 0.009785461
v 0.07530975 -0.08308746 0.02868469
v -0.003196411 -0.1254872 0.03074295
v -0.0664032 -0.12783 0.03072586
v -0.07167327 -0.003026581 0.009785461
v 0.07530975 -0.08308746 0.02868469
v 0.07167327 0.003026581 3.051758E-07
v 0.07557251 -0.08931243 0.0172139
v 0.07167327 0.003026581 0.009785461
v 0.07065307 0.02718994 3.051758E-07
v 0.07065307 0.02718994 0.01178314
v 0.004729309 -0.1257732 0.01897659
v 0.07557251 -0.08931243 0.0172139
v 0.07167327 0.003026581 3.051758E-07
v -0.06636322 -0.1287754 0.01897659
v -0.07167327 -0.003026581 3.051758E-07
v -0.06636322 -0.1287754 0.01897659
v -0.0664032 -0.12783 0.03072586
v -0.003196411 -0.1254872 0.03074295
v 0.004729309 -0.1257732 0.01897659
v -0.07167327 -0.003026581 0.009785461
v -0.07269379 0.02113678 0.01178314
v 0.07065307 0.02718994 0.01178314
v 0.07167327 0.003026581 0.009785461
v 0.07167327 0.003026581 3.051758E-07
v 0.07065307 0.02718994 3.051758E-07
v -0.07269379 0.02113678 3.051758E-07
v -0.07167327 -0.003026581 3.051758E-07
vt 0.2262434 0.3729864
vt 0.2247872 0.3668233
vt 0.2077586 0.3656354
vt 0.218186 0.4692116
vt 0.2177461 0.4691897
vt 0.2179424 0.4689707
vt 0.2181849 0.4690824
vt 0.2177379 0.4690142
vt 0.2177461 0.4691897
vt 0.218186 0.4692116
vt 0.218738 0.4688071
vt 0.2187307 0.4689764
vt 0.2180585 0.4688412
vt 0.2180556 0.468676
vt 0.2179424 0.4689707
vt 0.2177461 0.4691897
vt 0.2177379 0.4690142
vt 0.2179383 0.4688009
vt 0.2187307 0.4689764
vt 0.218506 0.4691253
vt 0.218515 0.4692644
vt 0.218738 0.4688071
vt 0.218738 0.4688071
vt 0.2187307 0.4689764
vt 0.2262434 0.3892117
vt 0.2262434 0.3729864
vt 0.2077586 0.3656354
vt 0.1931852 0.3656968
vt 0.1931852 0.3892117
vt 0.2179383 0.4688009
vt 0.2180585 0.4688412
vt 0.2179424 0.4689707
vt 0.2180556 0.468676
vt 0.2180585 0.4688412
vt 0.2180556 0.468676
vt 0.218186 0.4692116
vt 0.2179424 0.4689707
vt 0.2180585 0.4688412
vt 0.218515 0.4692644
vt 0.2187307 0.4689764
vt 0.218515 0.4692644
vt 0.218506 0.4691253
vt 0.2181849 0.4690824
vt 0.218186 0.4692116
vt 0.218738 0.4688071
vt 0.218738 0.4688071
vt 0.2180556 0.468676
vt 0.2180556 0.468676
vt 0.2180585 0.4688412
vt 0.2180585 0.4688412
vt 0.2187307 0.4689764
vt 0.2187307 0.4689764
vn -0.262634 0.5255674 0.8091986
vn -0.2626339 0.5255674 0.8091986
vn -0.262634 0.5255674 0.8091986
vn 0.2649163 -0.5529238 -0.7899967
vn 0.2649163 -0.5529237 -0.7899966
vn 0.2649163 -0.5529238 -0.7899967
vn 0.05631281 -0.9788537 0.1966574
vn 0.05631282 -0.9788537 0.1966574
vn 0.05631282 -0.9788537 0.1966574
vn 0.05631282 -0.9788537 0.1966574
vn -0.04218978 0.9991096 0
vn -0.04218978 0.9991096 0
vn -0.04218978 0.9991096 0
vn -0.04218978 0.9991096 0
vn 0.9905939 -0.03899953 0.131159
vn 0.9905939 -0.03899953 0.131159
vn 0.9905939 -0.03899953 0.131159
vn 0.9905939 -0.03899953 0.131159
vn -0.9991096 -0.04219114 0
vn -0.9991096 -0.0421901 0
vn -0.9991096 -0.0421901 0
vn -0.9991096 -0.04219101 0
vn -0.9991093 -0.04219607 0
vn -0.9991093 -0.04219607 0
vn -0.01749512 0.1710138 0.9851133
vn -0.08788454 0.209994 0.9737447
vn -0.01216675 0.1680197 0.9857085
vn -0.006788173 0.1649913 0.9862716
vn -0.006788174 0.1649913 0.9862716
vn 0.9991096 0.04218934 0
vn 0.9991097 0.04218801 0
vn 0.9991096 0.04218934 0
vn 0.9991097 0.04218821 0
vn 0.9991098 0.04218348 0
vn 0.9991098 0.04218348 0
vn 0.01058537 -0.1511326 -0.9884568
vn 0.06824859 -0.1800471 -0.9812875
vn 0.01305259 -0.1523824 -0.9882355
vn 0.006290034 -0.1489542 -0.9888241
vn 0.006290034 -0.1489542 -0.9888241
vn 0.03967355 -0.9970537 0.06564929
vn 0.03967356 -0.9970537 0.06564929
vn 0.03967355 -0.9970537 0.06564929
vn 0.03967355 -0.9970537 0.06564929
vn 0.003473066 -0.08224671 0.996606
vn 0.003473066 -0.08224671 0.996606
vn 0.003473066 -0.08224671 0.996606
vn 0.003473067 -0.08224671 0.996606
vn 0 0 -1
vn 0 0 -1
vn 0 0 -1
vn 0 0 -1
g SM_Prop_Note_01_0
f 3/3/3 2/2/2 1/1/1
f 6/6/6 5/5/5 4/4/4
f 9/9/9 8/8/8 7/7/7
f 10/10/10 9/9/9 7/7/7
f 13/13/13 12/12/12 11/11/11
f 14/14/14 13/13/13 11/11/11
f 17/17/17 16/16/16 15/15/15
f 18/18/18 17/17/17 15/15/15
f 21/21/21 20/20/20 19/19/19
f 20/20/20 22/22/22 19/19/19
f 22/22/22 23/23/23 19/19/19
f 23/23/23 24/24/24 19/19/19
f 27/27/27 26/26/26 25/25/25
f 27/27/27 25/25/25 28/28/28
f 25/25/25 29/29/29 28/28/28
f 32/32/32 31/31/31 30/30/30
f 31/31/31 33/33/33 30/30/30
f 31/31/31 34/34/34 33/33/33
f 34/34/34 35/35/35 33/33/33
f 38/38/38 37/37/37 36/36/36
f 38/38/38 36/36/36 39/39/39
f 40/40/40 38/38/38 39/39/39
f 43/43/43 42/42/42 41/41/41
f 44/44/44 43/43/43 41/41/41
f 47/47/47 46/46/46 45/45/45
f 48/48/48 47/47/47 45/45/45
f 51/51/51 50/50/50 49/49/49
f 52/52/52 51/51/51 49/49/49
