g SM_Prop_Dresser_01
v 0.3678564 0 0.1740784
v 0.3678564 0 0.2158472
v 0.373905 0.1103951 0.2218958
v 0.373905 0.1103951 0.1680298
v 0.373905 0.1103951 0.1680298
v 0.373905 0.1103951 0.2218958
v 0.3200378 0.1103951 0.2218958
v 0.3200378 0.1103951 0.1680298
v 0.3200378 0.1103951 0.1680298
v 0.3200378 0.1103951 0.2218958
v 0.3260864 0 0.2158472
v 0.3260864 0 0.1740784
v 0.3260864 0 0.1740784
v 0.3260864 0 0.2158472
v 0.3678564 0 0.2158472
v 0.3678564 0 0.1740784
v 0.3678564 0 0.2158472
v 0.3260864 0 0.2158472
v 0.3200378 0.1103951 0.2218958
v 0.373905 0.1103951 0.2218958
v 0.3260864 0 0.1740784
v 0.3678564 0 0.1740784
v 0.373905 0.1103951 0.1680298
v 0.3200378 0.1103951 0.1680298
v 0.3678564 0 -0.2179126
v 0.3678564 0 -0.1761438
v 0.373905 0.1103951 -0.170094
v 0.373905 0.1103951 -0.2239612
v 0.373905 0.1103951 -0.2239612
v 0.373905 0.1103951 -0.170094
v 0.3200378 0.1103951 -0.170094
v 0.3200378 0.1103951 -0.2239612
v 0.3200378 0.1103951 -0.2239612
v 0.3200378 0.1103951 -0.170094
v 0.3260877 0 -0.1761438
v 0.3260877 0 -0.2179126
v 0.3260877 0 -0.2179126
v 0.3260877 0 -0.1761438
v 0.3678564 0 -0.1761438
v 0.3678564 0 -0.2179126
v 0.3678564 0 -0.1761438
v 0.3260877 0 -0.1761438
v 0.3200378 0.1103951 -0.170094
v 0.373905 0.1103951 -0.170094
v 0.3260877 0 -0.2179126
v 0.3678564 0 -0.2179126
v 0.373905 0.1103951 -0.2239612
v 0.3200378 0.1103951 -0.2239612
v -0.367854 0 0.1740784
v -0.3739026 0.1103951 0.1680298
v -0.3739026 0.1103951 0.2218958
v -0.367854 0 0.2158472
v -0.3739026 0.1103951 0.1680298
v -0.3200354 0.1103951 0.1680298
v -0.3200354 0.1103951 0.2218958
v -0.3739026 0.1103951 0.2218958
v -0.3200354 0.1103951 0.1680298
v -0.326084 0 0.1740784
v -0.326084 0 0.2158472
v -0.3200354 0.1103951 0.2218958
v -0.326084 0 0.1740784
v -0.367854 0 0.1740784
v -0.367854 0 0.2158472
v -0.326084 0 0.2158472
v -0.367854 0 0.2158472
v -0.3739026 0.1103951 0.2218958
v -0.3200354 0.1103951 0.2218958
v -0.326084 0 0.2158472
v -0.326084 0 0.1740784
v -0.3200354 0.1103951 0.1680298
v -0.3739026 0.1103951 0.1680298
v -0.367854 0 0.1740784
v -0.367854 0 -0.2179126
v -0.3739026 0.1103951 -0.2239612
v -0.3739026 0.1103951 -0.170094
v -0.367854 0 -0.1761438
v -0.3739026 0.1103951 -0.2239612
v -0.3200354 0.1103951 -0.2239612
v -0.3200354 0.1103951 -0.170094
v -0.3739026 0.1103951 -0.170094
v -0.3200354 0.1103951 -0.2239612
v -0.326084 0 -0.2179126
v -0.326084 0 -0.1761438
v -0.3200354 0.1103951 -0.170094
v -0.326084 0 -0.2179126
v -0.367854 0 -0.2179126
v -0.367854 0 -0.1761438
v -0.326084 0 -0.1761438
v -0.367854 0 -0.1761438
v -0.3739026 0.1103951 -0.170094
v -0.3200354 0.1103951 -0.170094
v -0.326084 0 -0.1761438
v -0.326084 0 -0.2179126
v -0.3200354 0.1103951 -0.2239612
v -0.3739026 0.1103951 -0.2239612
v -0.367854 0 -0.2179126
v -0.4006897 0.3943115 -0.25
v -0.4006897 0.6664569 -0.25
v -0.4006897 0.6664569 0.25
v -0.4006897 0.4923995 0.25
v -0.4006897 0.2962236 0.25
v -0.4006897 0.1103951 -0.25
v -0.4006897 0.1103951 0.25
v -0.4346789 0.7000237 0.2816345
v -0.4346789 0.7000237 -0.2816333
v -0.2876953 0.7000237 -0.2816333
v -0.2238306 0.7000237 -0.261864
v -0.310083 0.7000237 0.26224
v -0.3564392 0.7000237 0.2816357
v 0.2964709 0.7000237 0.2275037
v 0.1191846 0.7000237 0.2816345
v -0.2575842 0.7000237 0.2816345
v 0.3018726 0.6960195 0.2699341
v 0.4346802 0.7000237 0.2262122
v 0.4118481 0.7000237 0.2640979
v 0.4346802 0.6881168 0.2816345
v 0.4346802 0.7000237 -0.2816333
v 0.009650879 0.7000237 -0.2816333
v 0.4006885 0.6664569 -0.25
v 0.4006885 0.4923995 0.25
v 0.4006885 0.6664569 0.25
v 0.4006885 0.3943115 -0.25
v 0.4006885 0.2962236 0.25
v 0.4006885 0.1103951 0.25
v 0.4006885 0.1103951 -0.25
v 0.4006885 0.1103951 -0.25
v -0.4006897 0.1103951 -0.25
v -0.4006897 0.1103951 0.25
v 0.4006885 0.1103951 0.25
v -0.3648731 0.5083705 -0.1917078
v -0.3648731 0.6504855 -0.1917078
v 0.3648718 0.6504855 -0.1917078
v 0.3648718 0.5083705 -0.1917078
v 0.4006885 0.3943115 -0.25
v 0.4006885 0.6664569 -0.25
v -0.4006897 0.6664569 -0.25
v -0.4006897 0.3943115 -0.25
v 0.4006885 0.1103951 -0.25
v -0.4006897 0.1103951 -0.25
v -0.4346789 0.6664569 -0.2816333
v -0.4346789 0.7000237 -0.2816333
v -0.4346789 0.7000237 0.2816345
v -0.4346789 0.6664569 0.2816345
v -0.4346789 0.6664569 0.2816345
v -0.4346789 0.7000237 0.2816345
v -0.3564392 0.7000237 0.2816357
v -0.3095984 0.685515 0.2816345
v 0.2953491 0.684702 0.2816345
v 0.4346802 0.6664569 0.2816345
v 0.4346802 0.6881168 0.2816345
v 0.1191846 0.7000237 0.2816345
v -0.2575842 0.7000237 0.2816345
v 0.4346802 0.7000237 -0.2816333
v 0.4346802 0.6664569 -0.2816333
v 0.4346802 0.6664569 0.2816345
v 0.4346802 0.6881168 0.2816345
v 0.4346802 0.7000237 0.2262122
v 0.4346802 0.6664569 -0.2816333
v 0.4346802 0.7000237 -0.2816333
v 0.009650879 0.7000237 -0.2816333
v -0.2138745 0.6843877 -0.2816333
v -0.4346789 0.6664569 -0.2816333
v -0.4346789 0.7000237 -0.2816333
v -0.2876953 0.7000237 -0.2816333
v -0.3648731 0.332644 -0.1917078
v -0.3648731 0.4743987 -0.1917078
v 0.3648718 0.4743987 -0.1917078
v 0.3648718 0.332644 -0.1917078
v -0.3648731 0.1638538 -0.1917078
v -0.3648731 0.2853669 -0.1917078
v 0.3648718 0.2853669 -0.1917078
v 0.3648718 0.1638538 -0.1917078
v -0.3648731 0.5083705 0.25
v -0.3648731 0.5083705 -0.1917078
v 0.3648718 0.5083705 -0.1917078
v 0.3648718 0.5083705 0.25
v 0.3648718 0.5083705 0.25
v 0.3648718 0.5083705 -0.1917078
v 0.3648718 0.6504855 -0.1917078
v 0.3648718 0.6504855 0.25
v 0.3648718 0.6504855 0.25
v 0.3648718 0.6504855 -0.1917078
v -0.3648731 0.6504855 -0.1917078
v -0.3648731 0.6504855 0.25
v -0.3648731 0.6504855 0.25
v -0.3648731 0.6504855 -0.1917078
v -0.3648731 0.5083705 -0.1917078
v -0.3648731 0.5083705 0.25
v -0.3648731 0.332644 0.25
v -0.3648731 0.332644 -0.1917078
v 0.3648718 0.332644 -0.1917078
v 0.3648718 0.332644 0.25
v 0.3648718 0.332644 0.25
v 0.3648718 0.332644 -0.1917078
v 0.3648718 0.4743987 -0.1917078
v 0.3648718 0.4743987 0.25
v 0.3648718 0.4743987 0.25
v 0.3648718 0.4743987 -0.1917078
v -0.3648731 0.4743987 -0.1917078
v -0.3648731 0.4743987 0.25
v -0.3648731 0.4743987 0.25
v -0.3648731 0.4743987 -0.1917078
v -0.3648731 0.332644 -0.1917078
v -0.3648731 0.332644 0.25
v -0.3648731 0.1638538 0.25
v -0.3648731 0.1638538 -0.1917078
v 0.3648718 0.1638538 -0.1917078
v 0.3648718 0.1638538 0.25
v 0.3648718 0.1638538 0.25
v 0.3648718 0.1638538 -0.1917078
v 0.3648718 0.2853669 -0.1917078
v 0.3648718 0.2853669 0.25
v 0.3648718 0.2853669 0.25
v 0.3648718 0.2853669 -0.1917078
v -0.3648731 0.2853669 -0.1917078
v -0.3648731 0.2853669 0.25
v -0.3648731 0.2853669 0.25
v -0.3648731 0.2853669 -0.1917078
v -0.3648731 0.1638538 -0.1917078
v -0.3648731 0.1638538 0.25
v 0.1191846 0.7000237 0.2816345
v 0.3018726 0.6960195 0.2699341
v 0.2953491 0.684702 0.2816345
v 0.4346802 0.6881168 0.2816345
v 0.4118481 0.7000237 0.2640979
v 0.009650879 0.7000237 -0.2816333
v -0.2238306 0.7000237 -0.261864
v -0.2138745 0.6843877 -0.2816333
v -0.2876953 0.7000237 -0.2816333
v -0.3564392 0.7000237 0.2816357
v -0.310083 0.7000237 0.26224
v -0.3095984 0.685515 0.2816345
v -0.2575842 0.7000237 0.2816345
v -0.4006897 0.6664569 -0.25
v -0.4346789 0.6664569 -0.2816333
v -0.4346789 0.6664569 0.2816345
v -0.4006897 0.6664569 0.25
v 0.4006885 0.6664569 -0.25
v 0.4346802 0.6664569 0.2816345
v 0.4346802 0.6664569 -0.2816333
v 0.4006885 0.6664569 0.25
v 0.3648718 0.5083705 0.25
v 0.4006885 0.4923995 0.25
v 0.3648718 0.4743987 0.25
v 0.3648718 0.6504855 0.25
v -0.3648731 0.5083705 0.25
v 0.4006885 0.6664569 0.25
v -0.3648731 0.6504855 0.25
v -0.4006897 0.6664569 0.25
v 0.4006885 0.2962236 0.25
v -0.4006897 0.4923995 0.25
v -0.3648731 0.4743987 0.25
v -0.3648731 0.332644 0.25
v 0.3648718 0.332644 0.25
v -0.4006897 0.2962236 0.25
v 0.3648718 0.2853669 0.25
v 0.4006885 0.1103951 0.25
v -0.3648731 0.2853669 0.25
v 0.3648718 0.1638538 0.25
v -0.3648731 0.1638538 0.25
v -0.4006897 0.1103951 0.25
vt 0.005264062 0.3017537
vt 0.005263943 0.3017537
vt 0.005263943 0.3017538
vt 0.005264062 0.3017538
vt 0.005264062 0.3017538
vt 0.005263943 0.3017538
vt 0.005263943 0.3017538
vt 0.005264062 0.3017538
vt 0.005264062 0.3017538
vt 0.005263943 0.3017538
vt 0.005263943 0.3017537
vt 0.005264062 0.3017537
vt 0.005264062 0.3017537
vt 0.005263943 0.3017537
vt 0.005263943 0.3017538
vt 0.005264062 0.3017538
vt 0.005263943 0.3017537
vt 0.005263943 0.3017537
vt 0.005263943 0.3017538
vt 0.005263943 0.3017538
vt 0.005264018 0.3017537
vt 0.005264062 0.3017537
vt 0.005264062 0.3017538
vt 0.005264018 0.3017538
vt 0.005264062 0.3017537
vt 0.005263943 0.3017537
vt 0.005263943 0.3017538
vt 0.005264062 0.3017538
vt 0.005264062 0.3017538
vt 0.005263943 0.3017538
vt 0.005263943 0.3017538
vt 0.005264062 0.3017538
vt 0.005264062 0.3017538
vt 0.005263943 0.3017538
vt 0.005263943 0.3017537
vt 0.005264062 0.3017537
vt 0.005264062 0.3017537
vt 0.005263943 0.3017537
vt 0.005263943 0.3017538
vt 0.005264062 0.3017538
vt 0.005263943 0.3017537
vt 0.005263943 0.3017537
vt 0.005263943 0.3017538
vt 0.005263943 0.3017538
vt 0.005264018 0.3017537
vt 0.005264062 0.3017537
vt 0.005264062 0.3017538
vt 0.005264018 0.3017538
vt 0.005264062 0.3017537
vt 0.005264062 0.3017538
vt 0.005263943 0.3017538
vt 0.005263943 0.3017537
vt 0.005264062 0.3017538
vt 0.005264062 0.3017538
vt 0.005263943 0.3017538
vt 0.005263943 0.3017538
vt 0.005264062 0.3017538
vt 0.005264062 0.3017537
vt 0.005263943 0.3017537
vt 0.005263943 0.3017538
vt 0.005264062 0.3017537
vt 0.005264062 0.3017538
vt 0.005263943 0.3017538
vt 0.005263943 0.3017537
vt 0.005263943 0.3017537
vt 0.005263943 0.3017538
vt 0.005263943 0.3017538
vt 0.005263943 0.3017537
vt 0.005264018 0.3017537
vt 0.005264018 0.3017538
vt 0.005264062 0.3017538
vt 0.005264062 0.3017537
vt 0.005264062 0.3017537
vt 0.005264062 0.3017538
vt 0.005263943 0.3017538
vt 0.005263943 0.3017537
vt 0.005264062 0.3017538
vt 0.005264062 0.3017538
vt 0.005263943 0.3017538
vt 0.005263943 0.3017538
vt 0.005264062 0.3017538
vt 0.005264062 0.3017537
vt 0.005263943 0.3017537
vt 0.005263943 0.3017538
vt 0.005264062 0.3017537
vt 0.005264062 0.3017538
vt 0.005263943 0.3017538
vt 0.005263943 0.3017537
vt 0.005263943 0.3017537
vt 0.005263943 0.3017538
vt 0.005263943 0.3017538
vt 0.005263943 0.3017537
vt 0.005264018 0.3017537
vt 0.005264018 0.3017538
vt 0.005264062 0.3017538
vt 0.005264062 0.3017537
vt 0.03935233 0.3034303
vt 0.03935233 0.3034303
vt 0.03935233 0.3034303
vt 0.03935233 0.3034303
vt 0.03935233 0.3034303
vt 0.03935233 0.3034303
vt 0.03935233 0.3034303
vt 0.03935233 0.3034303
vt 0.03935233 0.3034303
vt 0.03935233 0.3034303
vt 0.03935233 0.3034303
vt 0.03935233 0.3034303
vt 0.03935233 0.3034303
vt 0.03935233 0.3034303
vt 0.03935233 0.3034303
vt 0.03935233 0.3034303
vt 0.03935233 0.3034303
vt 0.03935233 0.3034303
vt 0.03935233 0.3034303
vt 0.03935233 0.3034303
vt 0.03935233 0.3034303
vt 0.03935233 0.3034303
vt 0.03935233 0.3034303
vt 0.03935233 0.3034303
vt 0.03935233 0.3034303
vt 0.03935233 0.3034303
vt 0.03935233 0.3034303
vt 0.03935233 0.3034303
vt 0.03935233 0.3034303
vt 0.03935233 0.3034303
vt 0.03935233 0.3034303
vt 0.03935233 0.3034303
vt 0.03935233 0.3034303
vt 0.03935233 0.3034303
vt 0.03935233 0.3034303
vt 0.03935233 0.3034303
vt 0.03935233 0.3034303
vt 0.03935233 0.3034303
vt 0.03935233 0.3034303
vt 0.03935233 0.3034303
vt 0.03935233 0.3034303
vt 0.03935233 0.3034303
vt 0.03935233 0.3034303
vt 0.03935233 0.3034303
vt 0.03935233 0.3034303
vt 0.03935233 0.3034303
vt 0.03935233 0.3034303
vt 0.03935233 0.3034303
vt 0.03935233 0.3034303
vt 0.03935233 0.3034303
vt 0.03935233 0.3034303
vt 0.03935233 0.3034304
vt 0.03935233 0.3034303
vt 0.03935233 0.3034303
vt 0.03935233 0.3034303
vt 0.03935233 0.3034303
vt 0.03935233 0.3034303
vt 0.03935233 0.3034303
vt 0.03935233 0.3034303
vt 0.03935233 0.3034303
vt 0.03935233 0.3034303
vt 0.03935233 0.3034303
vt 0.03935233 0.3034303
vt 0.03935233 0.3034303
vt 0.03935233 0.3034303
vt 0.03935233 0.3034303
vt 0.03935233 0.3034303
vt 0.03935233 0.3034303
vt 0.03935233 0.3034303
vt 0.03935233 0.3034303
vt 0.03935233 0.3034303
vt 0.03935233 0.3034303
vt 0.03935233 0.3034303
vt 0.03935233 0.3034303
vt 0.03935233 0.3034303
vt 0.03935233 0.3034303
vt 0.03935233 0.3034303
vt 0.03935233 0.3034303
vt 0.03935233 0.3034303
vt 0.03935233 0.3034303
vt 0.03935233 0.3034303
vt 0.03935233 0.3034303
vt 0.03935233 0.3034303
vt 0.03935233 0.3034303
vt 0.03935233 0.3034303
vt 0.03935233 0.3034303
vt 0.03935233 0.3034303
vt 0.03935233 0.3034303
vt 0.03935233 0.3034303
vt 0.03935233 0.3034303
vt 0.03935233 0.3034303
vt 0.03935233 0.3034303
vt 0.03935233 0.3034303
vt 0.03935233 0.3034303
vt 0.03935233 0.3034303
vt 0.03935233 0.3034303
vt 0.03935233 0.3034303
vt 0.03935233 0.3034303
vt 0.03935233 0.3034303
vt 0.03935233 0.3034303
vt 0.03935233 0.3034303
vt 0.03935233 0.3034303
vt 0.03935233 0.3034303
vt 0.03935233 0.3034303
vt 0.03935233 0.3034303
vt 0.03935233 0.3034303
vt 0.03935233 0.3034303
vt 0.03935233 0.3034303
vt 0.03935233 0.3034303
vt 0.03935233 0.3034303
vt 0.03935233 0.3034303
vt 0.03935233 0.3034303
vt 0.03935233 0.3034303
vt 0.03935233 0.3034303
vt 0.03935233 0.3034303
vt 0.03935233 0.3034303
vt 0.03935233 0.3034303
vt 0.03935233 0.3034303
vt 0.03935233 0.3034303
vt 0.03935233 0.3034303
vt 0.03935233 0.3034303
vt 0.03935233 0.3034303
vt 0.03935233 0.3034303
vt 0.03935233 0.3034303
vt 0.03935233 0.3034303
vt 0.03935233 0.3034303
vt 0.03935233 0.3034304
vt 0.03935233 0.3034303
vt 0.03935233 0.3034303
vt 0.03935233 0.3034303
vt 0.03935233 0.3034303
vt 0.03935233 0.3034303
vt 0.03935233 0.3034303
vt 0.03935233 0.3034303
vt 0.03935233 0.3034303
vt 0.03935233 0.3034303
vt 0.03935233 0.3034303
vt 0.03935233 0.3034303
vt 0.03935233 0.3034303
vt 0.03935233 0.3034303
vt 0.03935233 0.3034303
vt 0.03935233 0.3034303
vt 0.03935233 0.3034303
vt 0.03935233 0.3034303
vt 0.03935233 0.3034303
vt 0.03935233 0.3034303
vt 0.03935233 0.3034303
vt 0.03935233 0.3034303
vt 0.03935233 0.3034303
vt 0.03935233 0.3034303
vt 0.03935233 0.3034303
vt 0.03935233 0.3034303
vt 0.03935233 0.3034303
vt 0.03935233 0.3034303
vt 0.03935233 0.3034303
vt 0.03935233 0.3034303
vt 0.03935233 0.3034303
vt 0.03935233 0.3034303
vt 0.03935233 0.3034303
vt 0.03935233 0.3034303
vt 0.03935233 0.3034303
vt 0.03935233 0.3034303
vt 0.03935233 0.3034303
vt 0.03935233 0.3034303
vt 0.03935233 0.3034303
vn 0.9985024 -0.05470826 0
vn 0.9985024 -0.05470826 0
vn 0.9985024 -0.05470826 0
vn 0.9985024 -0.05470826 0
vn 0 1 0
vn 0 1 0
vn 0 1 0
vn 0 1 0
vn -0.9985024 -0.05470826 0
vn -0.9985024 -0.05470826 0
vn -0.9985024 -0.05470826 0
vn -0.9985024 -0.05470826 0
vn 0 -1 0
vn 0 -1 0
vn 0 -1 0
vn 0 -1 0
vn 0 -0.05470826 0.9985024
vn 0 -0.05470826 0.9985024
vn 0 -0.05470826 0.9985024
vn 0 -0.05470826 0.9985024
vn 0 -0.05470826 -0.9985024
vn 0 -0.05470826 -0.9985024
vn 0 -0.05470826 -0.9985024
vn 0 -0.05470826 -0.9985024
vn 0.9985024 -0.05470826 0
vn 0.9985024 -0.05470826 0
vn 0.9985024 -0.05470826 0
vn 0.9985024 -0.05470826 0
vn 0 1 0
vn 0 1 0
vn 0 1 0
vn 0 1 0
vn -0.9985018 -0.05471928 0
vn -0.9985018 -0.05471928 0
vn -0.9985018 -0.05471928 0
vn -0.9985018 -0.05471928 0
vn 0 -1 0
vn 0 -1 0
vn 0 -1 0
vn 0 -1 0
vn 0 -0.05471928 0.9985018
vn 0 -0.05471928 0.9985018
vn 0 -0.05471928 0.9985018
vn 0 -0.05471928 0.9985018
vn 0 -0.05470826 -0.9985024
vn 0 -0.05470826 -0.9985024
vn 0 -0.05470826 -0.9985024
vn 0 -0.05470826 -0.9985024
vn -0.9985024 -0.05470826 0
vn -0.9985024 -0.05470826 0
vn -0.9985024 -0.05470826 0
vn -0.9985024 -0.05470826 0
vn 0 1 0
vn 0 1 0
vn 0 1 0
vn 0 1 0
vn 0.9985024 -0.05470826 0
vn 0.9985024 -0.05470826 0
vn 0.9985024 -0.05470826 0
vn 0.9985024 -0.05470826 0
vn 0 -1 0
vn 0 -1 0
vn 0 -1 0
vn 0 -1 0
vn 0 -0.05470826 0.9985024
vn 0 -0.05470826 0.9985024
vn 0 -0.05470826 0.9985024
vn 0 -0.05470826 0.9985024
vn 0 -0.05470826 -0.9985024
vn 0 -0.05470826 -0.9985024
vn 0 -0.05470826 -0.9985024
vn 0 -0.05470826 -0.9985024
vn -0.9985024 -0.05470826 0
vn -0.9985024 -0.05470826 0
vn -0.9985024 -0.05470826 0
vn -0.9985024 -0.05470826 0
vn 0 1 0
vn 0 1 0
vn 0 1 0
vn 0 1 0
vn 0.9985024 -0.05470826 0
vn 0.9985024 -0.05470826 0
vn 0.9985024 -0.05470826 0
vn 0.9985024 -0.05470826 0
vn 0 -1 0
vn 0 -1 0
vn 0 -1 0
vn 0 -1 0
vn 0 -0.05471928 0.9985018
vn 0 -0.05471928 0.9985018
vn 0 -0.05471928 0.9985018
vn 0 -0.05471928 0.9985018
vn 0 -0.05470826 -0.9985024
vn 0 -0.05470826 -0.9985024
vn 0 -0.05470826 -0.9985024
vn 0 -0.05470826 -0.9985024
vn -1 0 0
vn -1 0 0
vn -1 0 0
vn -1 0 0
vn -1 0 0
vn -1 0 0
vn -1 0 0
vn 0 1 0
vn 0 1 0
vn 0 1 0
vn 0 1 0
vn 0 1 0
vn 0 1 0
vn 0.002568953 0.9996206 0.02742469
vn 0.009213002 0.9995022 0.03017391
vn 0 1 0
vn 0.006420521 0.9976276 0.06854188
vn 0.07973666 0.9948778 0.06213036
vn 0.16014 0.9791757 0.1247802
vn 0.329116 0.9232241 0.1983434
vn 0 1 0
vn 0 1 0
vn 1 0 0
vn 1 0 0
vn 1 0 0
vn 1 0 0
vn 1 0 0
vn 1 0 0
vn 1 0 0
vn 0 -1 0
vn 0 -1 0
vn 0 -1 0
vn 0 -1 0
vn 0 0 1
vn 0 0 1
vn 0 0 1
vn 0 0 1
vn 0 0 -1
vn 0 0 -1
vn 0 0 -1
vn 0 0 -1
vn 0 0 -1
vn 0 0 -1
vn -1 0 0
vn -1 0 0
vn -1 0 0
vn -1 0 0
vn 0 -1.431335E-05 1
vn 0 -2.862669E-05 1
vn 0 -2.862669E-05 1
vn 0 -9.542232E-06 1
vn 0 0 1
vn 0 0 1
vn 0 0 1
vn 0 0 1
vn 0 0 1
vn 1 0 0
vn 1 0 0
vn 1 0 0
vn 1 0 0
vn 1 0 0
vn 0 0 -1
vn 0 0 -1
vn 0 0 -1
vn 0 0 -1
vn 0 0 -1
vn 0 0 -1
vn 0 0 -1
vn 0 0 1
vn 0 0 1
vn 0 0 1
vn 0 0 1
vn 0 0 1
vn 0 0 1
vn 0 0 1
vn 0 0 1
vn 0 1 0
vn 0 1 0
vn 0 1 0
vn 0 1 0
vn -1 0 0
vn -1 0 0
vn -1 0 0
vn -1 0 0
vn 0 -1 0
vn 0 -1 0
vn 0 -1 0
vn 0 -1 0
vn 1 0 0
vn 1 0 0
vn 1 0 0
vn 1 0 0
vn 0 1 0
vn 0 1 0
vn 0 1 0
vn 0 1 0
vn -1 0 0
vn -1 0 0
vn -1 0 0
vn -1 0 0
vn 0 -1 0
vn 0 -1 0
vn 0 -1 0
vn 0 -1 0
vn 1 0 0
vn 1 0 0
vn 1 0 0
vn 1 0 0
vn 0 1 0
vn 0 1 0
vn 0 1 0
vn 0 1 0
vn -1 0 0
vn -1 0 0
vn -1 0 0
vn -1 0 0
vn 0 -1 0
vn 0 -1 0
vn 0 -1 0
vn 0 -1 0
vn 1 0 0
vn 1 0 0
vn 1 0 0
vn 1 0 0
vn 0.0609035 0.7002531 0.711292
vn 0.0262122 0.742195 0.6696711
vn 0.0262122 0.742195 0.6696711
vn -0.008602157 0.7806524 0.6249062
vn -0.008602157 0.7806524 0.6249062
vn -0.05384998 0.7698202 -0.6359851
vn 0.05961529 0.797326 -0.6005975
vn 0.05961529 0.797326 -0.6005975
vn 0.1721933 0.8129649 -0.556271
vn 0.2415859 0.7799048 0.5773948
vn 0.01248113 0.8008245 0.5987691
vn 0.01248113 0.8008245 0.5987691
vn -0.21729 0.7789933 0.5881791
vn 0 -1 0
vn 0 -1 0
vn 0 -1 0
vn 0 -1 0
vn 0 -1 0
vn 0 -1 0
vn 0 -1 0
vn 0 -1 0
vn 0 0 1
vn 0 0 1
vn 0 0 1
vn 0 0 1
vn 0 0 1
vn 0 0 1
vn 0 0 1
vn 0 0 1
vn 0 0 1
vn 0 0 1
vn 0 0 1
vn 0 0 1
vn 0 0 1
vn 0 0 1
vn 0 0 1
vn 0 0 1
vn 0 0 1
vn 0 0 1
vn 0 0 1
vn 0 0 1
g SM_Prop_Dresser_01_0
f 3/3/3 2/2/2 1/1/1
f 4/4/4 3/3/3 1/1/1
f 7/7/7 6/6/6 5/5/5
f 8/8/8 7/7/7 5/5/5
f 11/11/11 10/10/10 9/9/9
f 12/12/12 11/11/11 9/9/9
f 15/15/15 14/14/14 13/13/13
f 16/16/16 15/15/15 13/13/13
f 19/19/19 18/18/18 17/17/17
f 20/20/20 19/19/19 17/17/17
f 23/23/23 22/22/22 21/21/21
f 24/24/24 23/23/23 21/21/21
f 27/27/27 26/26/26 25/25/25
f 28/28/28 27/27/27 25/25/25
f 31/31/31 30/30/30 29/29/29
f 32/32/32 31/31/31 29/29/29
f 35/35/35 34/34/34 33/33/33
f 36/36/36 35/35/35 33/33/33
f 39/39/39 38/38/38 37/37/37
f 40/40/40 39/39/39 37/37/37
f 43/43/43 42/42/42 41/41/41
f 44/44/44 43/43/43 41/41/41
f 47/47/47 46/46/46 45/45/45
f 48/48/48 47/47/47 45/45/45
f 51/51/51 50/50/50 49/49/49
f 52/52/52 51/51/51 49/49/49
f 55/55/55 54/54/54 53/53/53
f 56/56/56 55/55/55 53/53/53
f 59/59/59 58/58/58 57/57/57
f 60/60/60 59/59/59 57/57/57
f 63/63/63 62/62/62 61/61/61
f 64/64/64 63/63/63 61/61/61
f 67/67/67 66/66/66 65/65/65
f 68/68/68 67/67/67 65/65/65
f 71/71/71 70/70/70 69/69/69
f 72/72/72 71/71/71 69/69/69
f 75/75/75 74/74/74 73/73/73
f 76/76/76 75/75/75 73/73/73
f 79/79/79 78/78/78 77/77/77
f 80/80/80 79/79/79 77/77/77
f 83/83/83 82/82/82 81/81/81
f 84/84/84 83/83/83 81/81/81
f 87/87/87 86/86/86 85/85/85
f 88/88/88 87/87/87 85/85/85
f 91/91/91 90/90/90 89/89/89
f 92/92/92 91/91/91 89/89/89
f 95/95/95 94/94/94 93/93/93
f 96/96/96 95/95/95 93/93/93
f 99/99/99 98/98/98 97/97/97
f 100/100/100 99/99/99 97/97/97
f 101/101/101 100/100/100 97/97/97
f 101/101/101 97/97/97 102/102/102
f 103/103/103 101/101/101 102/102/102
f 106/106/106 105/105/105 104/104/104
f 104/104/104 107/107/107 106/106/106
f 104/104/104 108/108/108 107/107/107
f 104/104/104 109/109/109 108/108/108
f 110/110/110 107/107/107 108/108/108
f 108/108/108 111/111/111 110/110/110
f 108/108/108 112/112/112 111/111/111
f 110/110/110 111/111/111 113/113/113
f 110/110/110 113/113/113 114/114/114
f 107/107/107 110/110/110 114/114/114
f 113/113/113 115/115/115 114/114/114
f 114/114/114 115/115/115 116/116/116
f 107/107/107 114/114/114 117/117/117
f 117/117/117 118/118/118 107/107/107
f 121/121/121 120/120/120 119/119/119
f 120/120/120 122/122/122 119/119/119
f 120/120/120 123/123/123 122/122/122
f 123/123/123 124/124/124 122/122/122
f 124/124/124 125/125/125 122/122/122
f 128/128/128 127/127/127 126/126/126
f 129/129/129 128/128/128 126/126/126
f 132/132/132 131/131/131 130/130/130
f 133/133/133 132/132/132 130/130/130
f 136/136/136 135/135/135 134/134/134
f 137/137/137 136/136/136 134/134/134
f 137/137/137 134/134/134 138/138/138
f 139/139/139 137/137/137 138/138/138
f 142/142/142 141/141/141 140/140/140
f 143/143/143 142/142/142 140/140/140
f 146/146/146 145/145/145 144/144/144
f 147/147/147 146/146/146 144/144/144
f 148/148/148 147/147/147 144/144/144
f 149/149/149 148/148/148 144/144/144
f 149/149/149 150/150/150 148/148/148
f 148/148/148 151/151/151 147/147/147
f 151/151/151 152/152/152 147/147/147
f 155/155/155 154/154/154 153/153/153
f 153/153/153 156/156/156 155/155/155
f 153/153/153 157/157/157 156/156/156
f 160/160/160 159/159/159 158/158/158
f 161/161/161 160/160/160 158/158/158
f 162/162/162 161/161/161 158/158/158
f 162/162/162 163/163/163 161/161/161
f 163/163/163 164/164/164 161/161/161
f 167/167/167 166/166/166 165/165/165
f 168/168/168 167/167/167 165/165/165
f 171/171/171 170/170/170 169/169/169
f 172/172/172 171/171/171 169/169/169
f 175/175/175 174/174/174 173/173/173
f 176/176/176 175/175/175 173/173/173
f 179/179/179 178/178/178 177/177/177
f 180/180/180 179/179/179 177/177/177
f 183/183/183 182/182/182 181/181/181
f 184/184/184 183/183/183 181/181/181
f 187/187/187 186/186/186 185/185/185
f 188/188/188 187/187/187 185/185/185
f 191/191/191 190/190/190 189/189/189
f 192/192/192 191/191/191 189/189/189
f 195/195/195 194/194/194 193/193/193
f 196/196/196 195/195/195 193/193/193
f 199/199/199 198/198/198 197/197/197
f 200/200/200 199/199/199 197/197/197
f 203/203/203 202/202/202 201/201/201
f 204/204/204 203/203/203 201/201/201
f 207/207/207 206/206/206 205/205/205
f 208/208/208 207/207/207 205/205/205
f 211/211/211 210/210/210 209/209/209
f 212/212/212 211/211/211 209/209/209
f 215/215/215 214/214/214 213/213/213
f 216/216/216 215/215/215 213/213/213
f 219/219/219 218/218/218 217/217/217
f 220/220/220 219/219/219 217/217/217
f 223/223/223 222/222/222 221/221/221
f 223/223/223 224/224/224 222/222/222
f 224/224/224 225/225/225 222/222/222
f 228/228/228 227/227/227 226/226/226
f 228/228/228 229/229/229 227/227/227
f 232/232/232 231/231/231 230/230/230
f 232/232/232 233/233/233 231/231/231
f 236/236/236 235/235/235 234/234/234
f 237/237/237 236/236/236 234/234/234
f 234/234/234 235/235/235 238/238/238
f 239/239/239 236/236/236 237/237/237
f 235/235/235 240/240/240 238/238/238
f 241/241/241 239/239/239 237/237/237
f 238/238/238 240/240/240 241/241/241
f 240/240/240 239/239/239 241/241/241
f 244/244/244 243/243/243 242/242/242
f 245/245/245 242/242/242 243/243/243
f 242/242/242 246/246/246 244/244/244
f 247/247/247 245/245/245 243/243/243
f 248/248/248 245/245/245 247/247/247
f 249/249/249 248/248/248 247/247/247
f 246/246/246 248/248/248 249/249/249
f 243/243/243 244/244/244 250/250/250
f 251/251/251 246/246/246 249/249/249
f 246/246/246 252/252/252 244/244/244
f 246/246/246 251/251/251 252/252/252
f 253/253/253 252/252/252 251/251/251
f 244/244/244 254/254/254 250/250/250
f 255/255/255 253/253/253 251/251/251
f 256/256/256 250/250/250 254/254/254
f 254/254/254 253/253/253 256/256/256
f 250/250/250 256/256/256 257/257/257
f 253/253/253 258/258/258 256/256/256
f 253/253/253 255/255/255 258/258/258
f 256/256/256 259/259/259 257/257/257
f 260/260/260 258/258/258 255/255/255
f 257/257/257 259/259/259 261/261/261
f 261/261/261 260/260/260 255/255/255
f 259/259/259 260/260/260 261/261/261
