g SM_Prop_Toy_Plane_03_Prop
v 0.002477377 0.004290943 0.003203365
v -0.001140768 -0.001975868 0.003203365
v 0.04938669 -0.02327167 0.002801125
v 0.04450644 -0.0317245 0.001501152
v 0.04972744 -0.02268145 -0.0001489906
v 0.0448472 -0.03113429 -0.001448963
v 0.002477377 0.004290943 0.0002082177
v -0.001140768 -0.001975868 0.0002082177
v 0.02191858 -0.00693344 0.003203365
v 0.01696383 -0.01551533 0.003203365
v 0.01696383 -0.01551533 0.0002082177
v 0.02191858 -0.00693344 0.0002082177
v -0.004954754 0 0.003203365
v 0.002281536 0 0.003203365
v -0.004539486 0.05440595 0.002801125
v 0.005221003 0.05440595 0.001501152
v -0.005221003 0.05440595 -0.0001489906
v 0.004539486 0.05440595 -0.001448963
v -0.004954754 0 0.0002082177
v 0.002281536 0 0.0002082177
v -0.004954754 0.02244877 0.003203365
v 0.004954754 0.02244877 0.003203365
v 0.004954754 0.02244877 0.0002082177
v -0.004954754 0.02244877 0.0002082177
v 0.002477377 -0.004290943 0.003203365
v -0.001140768 0.001975868 0.003203365
v -0.0448472 -0.03113429 0.002801125
v -0.04972744 -0.02268145 0.001501152
v -0.04450644 -0.0317245 -0.0001489906
v -0.04938669 -0.02327167 -0.001448963
v 0.002477377 -0.004290943 0.0002082177
v -0.001140768 0.001975868 0.0002082177
v -0.01696383 -0.01551533 0.003203365
v -0.02191858 -0.00693344 0.003203365
v -0.02191858 -0.00693344 0.0002082177
v -0.01696383 -0.01551533 0.0002082177
v 0.005759851 0.004184777 -0.005983036
v -0.002200068 0.006771111 -0.005983036
v -0.007119569 -5.960464E-10 -0.005983036
v -0.002200067 -0.006771111 -0.005983036
v 0.005759851 -0.004184776 -0.005983036
v 0.005759851 0.004184777 0.006241256
v -0.002200068 0.006771111 0.006241256
v -0.007119569 -5.960464E-10 0.006241256
v -0.002200067 -0.006771111 0.006241256
v 0.005759851 -0.004184776 0.006241256
v 0.04972744 -0.02268145 -0.0001489906
v 0.0448472 -0.03113429 -0.001448963
v 0.01696383 -0.01551533 0.003203365
v 0.04450644 -0.0317245 0.001501152
v 0.0448472 -0.03113429 -0.001448963
v 0.01696383 -0.01551533 0.0002082177
v 0.02191858 -0.00693344 0.0002082177
v 0.04972744 -0.02268145 -0.0001489906
v -0.001140768 -0.001975868 0.003203365
v -0.001140768 -0.001975868 0.0002082177
v 0.002477377 0.004290943 0.0002082177
v -0.005221003 0.05440595 -0.0001489906
v 0.004539486 0.05440595 -0.001448963
v 0.004954754 0.02244877 0.003203365
v 0.005221003 0.05440595 0.001501152
v 0.004539486 0.05440595 -0.001448963
v 0.004954754 0.02244877 0.0002082177
v -0.004954754 0.02244877 0.0002082177
v -0.004954754 0.02244877 0.003203365
v 0.002281536 0 0.003203365
v 0.002281536 0 0.0002082177
v -0.004954754 0 0.0002082177
v -0.004954754 0 0.003203365
v -0.04450644 -0.0317245 -0.0001489906
v -0.04938669 -0.02327167 -0.001448963
v -0.02191858 -0.00693344 0.003203365
v -0.04972744 -0.02268145 0.001501152
v -0.04938669 -0.02327167 -0.001448963
v -0.02191858 -0.00693344 0.0002082177
v -0.01696383 -0.01551533 0.0002082177
v -0.04450644 -0.0317245 -0.0001489906
v -0.001140768 0.001975868 0.003203365
v -0.001140768 0.001975868 0.0002082177
v 0.002477377 -0.004290943 0.0002082177
v -0.002200068 0.006771111 -0.005983036
v -0.002200068 0.006771111 0.006241256
v -0.007119569 -5.960464E-10 -0.005983036
v -0.007119569 -5.960464E-10 0.006241256
v 0.005759851 0.004184777 0.006241256
v 0.005759851 0.004184777 -0.005983036
v 0.005759851 -0.004184776 -0.005983036
v 0.005759851 -0.004184776 0.006241256
v 0.005759851 0.004184777 0.006241256
v 0.005759851 -0.004184776 0.006241256
v -0.002200067 -0.006771111 0.006241256
v -0.007119569 -5.960464E-10 0.006241256
v -0.002200068 0.006771111 0.006241256
vt 0.01380718 0.03001302
vt 0.01371294 0.0300008
vt 0.01381257 0.02917233
vt 0.01368982 0.02915546
vt 0.01384121 0.02916146
vt 0.0137189 0.02914475
vt 0.01382622 0.02999648
vt 0.01373249 0.0299844
vt 0.01381055 0.02967467
vt 0.01367974 0.02965984
vt 0.01369974 0.02964531
vt 0.01382989 0.02965997
vt 0.01380718 0.03001302
vt 0.01371294 0.0300008
vt 0.01381257 0.02917233
vt 0.01368982 0.02915546
vt 0.01384121 0.02916146
vt 0.0137189 0.02914475
vt 0.01382622 0.02999648
vt 0.01373249 0.0299844
vt 0.01381055 0.02967467
vt 0.01367974 0.02965984
vt 0.01369974 0.02964531
vt 0.01382989 0.02965997
vt 0.01380718 0.03001302
vt 0.01371294 0.0300008
vt 0.01381257 0.02917233
vt 0.01368982 0.02915546
vt 0.01384121 0.02916146
vt 0.0137189 0.02914475
vt 0.01382622 0.02999648
vt 0.01373249 0.0299844
vt 0.01381055 0.02967467
vt 0.01367974 0.02965984
vt 0.01369974 0.02964531
vt 0.01382989 0.02965997
vt 0.013482 0.02391752
vt 0.01373181 0.02373722
vt 0.01387975 0.0238961
vt 0.01372525 0.02417148
vt 0.01347956 0.02418729
vt 0.01408282 0.02419655
vt 0.01433465 0.02401083
vt 0.01447961 0.02417026
vt 0.01432136 0.02445127
vt 0.01407623 0.02447016
vt 0.01384121 0.02916146
vt 0.0137189 0.02914475
vt 0.01367974 0.02965984
vt 0.01368982 0.02915546
vt 0.0137189 0.02914475
vt 0.01369974 0.02964531
vt 0.01382989 0.02965997
vt 0.01384121 0.02916146
vt 0.01371294 0.0300008
vt 0.01373249 0.0299844
vt 0.01382622 0.02999648
vt 0.01384121 0.02916146
vt 0.0137189 0.02914475
vt 0.01367974 0.02965984
vt 0.01368982 0.02915546
vt 0.0137189 0.02914475
vt 0.01369974 0.02964531
vt 0.01382989 0.02965997
vt 0.01381055 0.02967467
vt 0.01371294 0.0300008
vt 0.01373249 0.0299844
vt 0.01382622 0.02999648
vt 0.01380718 0.03001302
vt 0.01384121 0.02916146
vt 0.0137189 0.02914475
vt 0.01367974 0.02965984
vt 0.01368982 0.02915546
vt 0.0137189 0.02914475
vt 0.01369974 0.02964531
vt 0.01382989 0.02965997
vt 0.01384121 0.02916146
vt 0.01371294 0.0300008
vt 0.01373249 0.0299844
vt 0.01382622 0.02999648
vt 0.01373181 0.02373722
vt 0.01433465 0.02401083
vt 0.01387975 0.0238961
vt 0.01447961 0.02417026
vt 0.01408282 0.02419655
vt 0.013482 0.02391752
vt 0.01347956 0.02418729
vt 0.01407623 0.02447016
vt 0.01408282 0.02419655
vt 0.01407623 0.02447016
vt 0.01432136 0.02445127
vt 0.01447961 0.02417026
vt 0.01433465 0.02401083
vn 0.1649119 0.2856358 0.9440425
vn -0.1862205 -0.249009 0.9504296
vn 0.2173328 0.1285042 0.9676018
vn -0.08241759 -0.3740458 0.9237409
vn 0.8660254 -0.5000001 0
vn 0.8660254 -0.5000001 0
vn 0 0 -1
vn -0.5988957 -0.800827 0
vn 0.1487633 0.2187445 0.9643756
vn -0.171317 -0.3038459 0.9371917
vn 0.003268405 0.0466412 -0.9989064
vn 0.003190862 0.04553464 -0.9989576
vn 0 0 1
vn 0 0 1
vn -0.2199543 0.1239636 0.9676018
vn 0.365142 0.1156472 0.9237407
vn -0.3549111 0.05608154 -0.9332165
vn 0.2121294 0.06270726 -0.9752275
vn 0 0 -1
vn 0.9929844 -0.1182454 0
vn 0.04081853 0.01990088 0.9989684
vn 0.04223318 0.02059059 0.9988955
vn -0.04202665 -0.02049006 -0.9989064
vn -0.04102958 -0.02000394 -0.9989576
vn 0.1649119 -0.2856358 0.9440424
vn -0.1225378 0.2857762 0.9504296
vn 0.002621563 -0.2524679 0.9676018
vn -0.2827245 0.2583988 0.9237406
vn -0.01617832 -0.0853651 -0.9962184
vn -0.02531534 -0.09059063 -0.9955664
vn 0 0 -1
vn -0.3940886 0.9190725 0
vn 0.1150566 -0.238205 0.9643756
vn -0.1774797 0.3002879 0.9371916
vn 0.03875824 -0.02615112 -0.9989064
vn 0.03783871 -0.02553069 -0.9989576
vn 0.3090168 0.9510565 0
vn 0.3090168 0.9510565 0
vn -0.8090171 0.5877852 0
vn -0.3090168 -0.9510565 0
vn 0.3090171 -0.9510565 0
vn 0.3090168 0.9510565 0
vn 0.3090168 0.9510565 0
vn -0.8090171 0.5877852 0
vn -0.2612024 -0.8038986 0.5343412
vn 0.2160262 -0.66486 0.7150482
vn 0.005125899 0.07314825 -0.9973079
vn 0.005125899 0.07314826 -0.9973079
vn -0.171317 -0.3038459 0.9371917
vn -0.08241759 -0.3740458 0.9237409
vn -0.4999214 -0.8585503 -0.1138854
vn -0.5418848 -0.8377151 -0.06778009
vn 0.500744 0.8629855 0.06716818
vn 0.4999214 0.8585503 0.1138854
vn -0.1862205 -0.249009 0.9504296
vn 0 0 -1
vn 0.5 0.8660254 0
vn -0.3549111 0.05608154 -0.9332165
vn 0.2121294 0.06270726 -0.9752275
vn 0.996453 -0.05229706 -0.06592706
vn 0.365142 0.1156472 0.9237407
vn 0.2121294 0.06270726 -0.9752275
vn 0.996425 -0.05042844 -0.06778012
vn -0.9977393 0.002164264 0.06716814
vn -0.9977674 0.002150788 0.06674992
vn 0.9929844 -0.1182454 0
vn 0 0 -1
vn -1 0 0
vn -1 0 0
vn -0.01617832 -0.0853651 -0.9962184
vn -0.02531534 -0.09059063 -0.9955664
vn -0.1774797 0.3002879 0.9371916
vn -0.2827245 0.2583988 0.9237406
vn -0.4935656 0.8622199 -0.1138857
vn -0.4545401 0.8881436 -0.06778028
vn 0.4969953 -0.8651497 0.0671681
vn 0.4935656 -0.8622198 0.1138854
vn -0.1225378 0.2857762 0.9504296
vn 0 0 -1
vn 0.4999999 -0.8660254 0
vn -0.8090171 0.5877852 0
vn -0.8090171 0.5877852 0
vn -0.8090168 -0.5877855 0
vn -0.8090168 -0.5877855 0
vn 1 0 0
vn 1 0 0
vn 1 0 0
vn 1 0 0
vn 0 0 1
vn 0.2160262 -0.66486 0.7150482
vn -0.2612024 -0.8038986 0.5343412
vn 0 0 1
vn 0 0 1
g SM_Prop_Toy_Plane_03_Prop_0
f 6/6/6 5/5/5 3/3/3
f 4/4/4 6/6/6 3/3/3
f 4/4/4 3/3/3 9/9/9
f 10/10/10 4/4/4 9/9/9
f 9/9/9 3/3/3 53/53/53
f 3/3/3 54/54/54 53/53/53
f 9/9/9 53/53/53 57/57/57
f 1/1/1 9/9/9 57/57/57
f 10/10/10 9/9/9 1/1/1
f 2/2/2 10/10/10 1/1/1
f 48/48/48 11/11/11 47/47/47
f 11/11/11 12/12/12 47/47/47
f 11/11/11 56/56/56 12/12/12
f 56/56/56 7/7/7 12/12/12
f 51/51/51 50/50/50 49/49/49
f 52/52/52 51/51/51 49/49/49
f 52/52/52 49/49/49 55/55/55
f 8/8/8 52/52/52 55/55/55
f 59/59/59 23/23/23 58/58/58
f 23/23/23 24/24/24 58/58/58
f 23/23/23 67/67/67 24/24/24
f 67/67/67 19/19/19 24/24/24
f 62/62/62 61/61/61 60/60/60
f 63/63/63 62/62/62 60/60/60
f 63/63/63 60/60/60 66/66/66
f 20/20/20 63/63/63 66/66/66
f 14/14/14 22/22/22 13/13/13
f 22/22/22 21/21/21 13/13/13
f 22/22/22 16/16/16 21/21/21
f 16/16/16 15/15/15 21/21/21
f 16/16/16 18/18/18 15/15/15
f 18/18/18 17/17/17 15/15/15
f 15/15/15 17/17/17 64/64/64
f 65/65/65 15/15/15 64/64/64
f 65/65/65 64/64/64 68/68/68
f 69/69/69 65/65/65 68/68/68
f 30/30/30 29/29/29 27/27/27
f 28/28/28 30/30/30 27/27/27
f 28/28/28 27/27/27 33/33/33
f 34/34/34 28/28/28 33/33/33
f 33/33/33 27/27/27 76/76/76
f 27/27/27 77/77/77 76/76/76
f 33/33/33 76/76/76 80/80/80
f 25/25/25 33/33/33 80/80/80
f 34/34/34 33/33/33 25/25/25
f 26/26/26 34/34/34 25/25/25
f 71/71/71 35/35/35 70/70/70
f 35/35/35 36/36/36 70/70/70
f 35/35/35 79/79/79 36/36/36
f 79/79/79 31/31/31 36/36/36
f 74/74/74 73/73/73 72/72/72
f 75/75/75 74/74/74 72/72/72
f 75/75/75 72/72/72 78/78/78
f 32/32/32 75/75/75 78/78/78
f 37/37/37 38/38/38 43/43/43
f 42/42/42 37/37/37 43/43/43
f 81/81/81 39/39/39 44/44/44
f 82/82/82 81/81/81 44/44/44
f 84/84/84 83/83/83 45/45/45
f 83/83/83 40/40/40 45/45/45
f 45/45/45 40/40/40 46/46/46
f 40/40/40 41/41/41 46/46/46
f 87/87/87 86/86/86 85/85/85
f 88/88/88 87/87/87 85/85/85
f 91/91/91 90/90/90 89/89/89
f 92/92/92 91/91/91 89/89/89
f 93/93/93 92/92/92 89/89/89
