g SM_Prop_Paper_Pile_01
v -0.09718505 0.1002509 0.1677631
v -0.1016797 0.1002509 0.1152792
v 0.1145654 0.1002509 0.04865601
v 0.12315 0.1002509 0.1488919
v -0.09718505 0.08836038 0.1677631
v 0.12315 0.08836038 0.1488919
v 0.1146826 0.08836038 0.05003296
v -0.1015625 0.08836038 0.1166568
v -0.09718505 0.08836038 0.1677631
v -0.09718505 0.1002509 0.1677631
v 0.12315 0.1002509 0.1488919
v 0.12315 0.08836038 0.1488919
v 0.12315 0.08836038 0.1488919
v 0.12315 0.1002509 0.1488919
v 0.1145654 0.1002509 0.04865601
v 0.1146826 0.08836038 0.05003296
v 0.08689697 0.08836038 -0.1587176
v 0.08689697 0.1002509 -0.1587176
v -0.1334375 0.1002509 -0.1398465
v -0.1334375 0.08836038 -0.1398465
v -0.1334375 0.08836038 -0.1398465
v -0.1334375 0.1002509 -0.1398465
v -0.1177014 0.1002509 0.04389191
v -0.1174414 0.08836038 0.04692779
v -0.1116583 0.1026713 0.07697967
v -0.1118372 0.1145617 0.07489471
v -0.1015625 0.08836038 0.1166568
v -0.1016797 0.1002509 0.1152792
v -0.1177014 0.1002509 0.04389191
v -0.1334375 0.1002509 -0.1398465
v 0.08689697 0.1002509 -0.1587176
v 0.09513488 0.1002509 -0.06253784
v 0.09539428 0.08836038 -0.05950104
v 0.08689697 0.08836038 -0.1587176
v -0.1334375 0.08836038 -0.1398465
v -0.1174414 0.08836038 0.04692779
v 0.09513488 0.1002509 -0.06253784
v 0.08689697 0.1002509 -0.1587176
v 0.08689697 0.08836038 -0.1587176
v 0.09539428 0.08836038 -0.05950104
v 0.1026697 0.1145617 -0.01203613
v 0.1028473 0.1026713 -0.009951477
v 0.1145654 0.1002509 0.04865601
v 0.1146826 0.08836038 0.05003296
v -0.1118372 0.1145617 0.07489471
v -0.1177014 0.1002509 0.04389191
v 0.09513488 0.1002509 -0.06253784
v 0.1026697 0.1145617 -0.01203613
v 0.1028473 0.1026713 -0.009951477
v 0.09539428 0.08836038 -0.05950104
v -0.1174414 0.08836038 0.04692779
v -0.1116583 0.1026713 0.07697967
v -0.1016797 0.1002509 0.1152792
v -0.1118372 0.1145617 0.07489471
v 0.1026697 0.1145617 -0.01203613
v 0.1145654 0.1002509 0.04865601
v 0.1146826 0.08836038 0.05003296
v 0.1028473 0.1026713 -0.009951477
v -0.1116583 0.1026713 0.07697967
v -0.1015625 0.08836038 0.1166568
v -0.1016797 0.1002509 0.1152792
v -0.09718505 0.1002509 0.1677631
v -0.09718505 0.08836038 0.1677631
v -0.1015625 0.08836038 0.1166568
v -0.08543152 0.03585531 0.180838
v -0.1331177 0.03585531 -0.149216
v 0.08575073 0.03585531 -0.1808383
v 0.1334375 0.03585531 0.1492157
v -0.08543152 0.02512271 0.180838
v 0.1334375 0.02512271 0.1492157
v 0.08575073 0.02512271 -0.1808383
v -0.1331177 0.02512271 -0.149216
v -0.08543152 0.02512271 0.180838
v -0.08543152 0.03585531 0.180838
v 0.1334375 0.03585531 0.1492157
v 0.1334375 0.02512271 0.1492157
v 0.1334375 0.02512271 0.1492157
v 0.1334375 0.03585531 0.1492157
v 0.08575073 0.03585531 -0.1808383
v 0.08575073 0.02512271 -0.1808383
v 0.08575073 0.02512271 -0.1808383
v 0.08575073 0.03585531 -0.1808383
v -0.1331177 0.03585531 -0.149216
v -0.1331177 0.02512271 -0.149216
v -0.1331177 0.02512271 -0.149216
v -0.1331177 0.03585531 -0.149216
v -0.08543152 0.03585531 0.180838
v -0.08543152 0.02512271 0.180838
v -0.1104108 0.08774778 0.1667404
v -0.1104108 0.08774778 -0.1667407
v 0.1107306 0.08774778 -0.1667407
v 0.1107306 0.08774778 0.1667404
v -0.1104108 0 0.1667404
v 0.1107306 0 0.1667404
v 0.1107306 1.501226E-16 -0.1667407
v -0.1104108 1.501226E-16 -0.1667407
v -0.1104108 0 0.1667404
v -0.1104108 0.08774778 0.1667404
v 0.1107306 0.08774778 0.1667404
v 0.1107306 0 0.1667404
v 0.1107306 0 0.1667404
v 0.1107306 0.08774778 0.1667404
v 0.1107306 0.08774778 -0.1667407
v 0.1107306 1.501226E-16 -0.1667407
v 0.1107306 1.501226E-16 -0.1667407
v 0.1107306 0.08774778 -0.1667407
v -0.1104108 0.08774778 -0.1667407
v -0.1104108 1.501226E-16 -0.1667407
v -0.1104108 1.501226E-16 -0.1667407
v -0.1104108 0.08774778 -0.1667407
v -0.1104108 0.08774778 0.1667404
v -0.1104108 0 0.1667404
v -0.1305456 0.06228833 0.151474
v -0.08851257 0.06228833 -0.1793475
v 0.1308649 0.06228833 -0.151474
v 0.08883178 0.06228833 0.1793475
v -0.1305456 0.05142175 0.151474
v 0.08883178 0.05142175 0.1793475
v 0.1308649 0.05142175 -0.151474
v -0.08851257 0.05142175 -0.1793475
v -0.1305456 0.05142175 0.151474
v -0.1305456 0.06228833 0.151474
v 0.08883178 0.06228833 0.1793475
v 0.08883178 0.05142175 0.1793475
v 0.08883178 0.05142175 0.1793475
v 0.08883178 0.06228833 0.1793475
v 0.1308649 0.06228833 -0.151474
v 0.1308649 0.05142175 -0.151474
v 0.1308649 0.05142175 -0.151474
v 0.1308649 0.06228833 -0.151474
v -0.08851257 0.06228833 -0.1793475
v -0.08851257 0.05142175 -0.1793475
v -0.08851257 0.05142175 -0.1793475
v -0.08851257 0.06228833 -0.1793475
v -0.1305456 0.06228833 0.151474
v -0.1305456 0.05142175 0.151474
vt 0.3898926 0.3259277
vt 0.3898926 0.3308105
vt 0.4157715 0.3354492
vt 0.4157715 0.3259277
vt 0.3898926 0.3259277
vt 0.4157715 0.3259277
vt 0.4157715 0.3352051
vt 0.3898926 0.3308105
vt 0.3898926 0.3259277
vt 0.3898926 0.3259277
vt 0.4157715 0.3259277
vt 0.4157715 0.3259277
vt 0.4157715 0.3259277
vt 0.4157715 0.3259277
vt 0.4157715 0.3354492
vt 0.4157715 0.3352051
vt 0.4157715 0.357666
vt 0.4157715 0.357666
vt 0.3898926 0.357666
vt 0.3898926 0.357666
vt 0.3898926 0.357666
vt 0.3898926 0.357666
vt 0.3898926 0.3400879
vt 0.3898926 0.3398438
vt 0.3898926 0.3359375
vt 0.3898926 0.3361816
vt 0.3898926 0.3308105
vt 0.3898926 0.3308105
vt 0.3898926 0.3400879
vt 0.3898926 0.357666
vt 0.4157715 0.357666
vt 0.4157715 0.3483887
vt 0.4157715 0.3481445
vt 0.4157715 0.357666
vt 0.3898926 0.357666
vt 0.3898926 0.3398438
vt 0.4157715 0.3483887
vt 0.4157715 0.357666
vt 0.4157715 0.357666
vt 0.4157715 0.3481445
vt 0.4157715 0.3425293
vt 0.4157715 0.3422852
vt 0.4157715 0.3354492
vt 0.4157715 0.3352051
vt 0.3898926 0.3361816
vt 0.3898926 0.3400879
vt 0.4157715 0.3483887
vt 0.4157715 0.3425293
vt 0.4157715 0.3422852
vt 0.4157715 0.3481445
vt 0.3898926 0.3398438
vt 0.3898926 0.3359375
vt 0.3898926 0.3308105
vt 0.3898926 0.3361816
vt 0.4157715 0.3425293
vt 0.4157715 0.3354492
vt 0.4157715 0.3352051
vt 0.4157715 0.3422852
vt 0.3898926 0.3359375
vt 0.3898926 0.3308105
vt 0.3898926 0.3308105
vt 0.3898926 0.3259277
vt 0.3898926 0.3259277
vt 0.3898926 0.3308105
vt 0.3820801 0.3620605
vt 0.3830566 0.3620605
vt 0.3825684 0.3618164
vt 0.3820801 0.3620605
vt 0.3820801 0.3623047
vt 0.3820801 0.3620605
vt 0.3825684 0.3620605
vt 0.3830566 0.3620605
vt 0.3820801 0.3623047
vt 0.3820801 0.3620605
vt 0.3820801 0.3620605
vt 0.3820801 0.3620605
vt 0.3820801 0.3620605
vt 0.3820801 0.3620605
vt 0.3825684 0.3618164
vt 0.3825684 0.3620605
vt 0.3825684 0.3620605
vt 0.3825684 0.3618164
vt 0.3830566 0.3620605
vt 0.3830566 0.3620605
vt 0.3830566 0.3620605
vt 0.3830566 0.3620605
vt 0.3820801 0.3620605
vt 0.3820801 0.3623047
vt 0.362793 0.3586426
vt 0.362793 0.3903809
vt 0.3886719 0.3903809
vt 0.3886719 0.3586426
vt 0.362793 0.3586426
vt 0.3886719 0.3586426
vt 0.3886719 0.3903809
vt 0.362793 0.3903809
vt 0.3947754 0.3620605
vt 0.3947754 0.3847656
vt 0.4106445 0.3847656
vt 0.4106445 0.3620605
vt 0.4106445 0.3620605
vt 0.4106445 0.3847656
vt 0.4106445 0.3847656
vt 0.4106445 0.3620605
vt 0.4106445 0.3620605
vt 0.4106445 0.3847656
vt 0.3947754 0.3847656
vt 0.3947754 0.3620605
vt 0.3947754 0.3620605
vt 0.3947754 0.3847656
vt 0.3947754 0.3847656
vt 0.3947754 0.3620605
vt 0.3820801 0.3620605
vt 0.3830566 0.3620605
vt 0.3825684 0.3618164
vt 0.3820801 0.3620605
vt 0.3820801 0.3623047
vt 0.3820801 0.3620605
vt 0.3825684 0.3620605
vt 0.3830566 0.3620605
vt 0.3820801 0.3623047
vt 0.3820801 0.3620605
vt 0.3820801 0.3620605
vt 0.3820801 0.3620605
vt 0.3820801 0.3620605
vt 0.3820801 0.3620605
vt 0.3825684 0.3618164
vt 0.3825684 0.3620605
vt 0.3825684 0.3620605
vt 0.3825684 0.3618164
vt 0.3830566 0.3620605
vt 0.3830566 0.3620605
vt 0.3830566 0.3620605
vt 0.3830566 0.3620605
vt 0.3820801 0.3620605
vt 0.3820801 0.3623047
vn 0 1 0
vn 0 1 0
vn 0 1 0
vn 0 1 0
vn 0 -1 0
vn 0 -1 0
vn 0 -1 0
vn 0 -1 0
vn 0.08532715 0 0.996582
vn 0.08532715 0 0.996582
vn 0.08532715 0 0.996582
vn 0.08532715 0 0.996582
vn 0.996582 -3.123283E-05 -0.08532715
vn 0.996582 -3.123283E-05 -0.08532715
vn 0.996582 -3.123283E-05 -0.08532715
vn 0.996582 -3.123283E-05 -0.08532715
vn -0.08532715 0 -0.996582
vn -0.08532715 0 -0.996582
vn -0.08532715 0 -0.996582
vn -0.08532715 0 -0.996582
vn -0.996582 0 0.08532715
vn -0.996582 0 0.08532715
vn -0.9951172 0.003030777 0.0993042
vn -0.9951172 0.003265381 0.1004028
vn -0.9750977 0.02287292 0.2209473
vn -0.9765625 0.0224762 0.2147217
vn -0.9667969 0.02487183 0.253418
vn -0.9667969 0.02487183 0.253418
vn 0 1 0
vn 0 1 0
vn 0 1 0
vn 0 1 0
vn 0 -1 0
vn 0 -1 0
vn 0 -1 0
vn 0 -1 0
vn 0.9946289 -0.004211426 -0.1045532
vn 0.996582 -2.914667E-05 -0.08532715
vn 0.996582 -2.914667E-05 -0.08532715
vn 0.9941406 -0.005069733 -0.1084595
vn 0.9853516 -0.01460266 -0.1689453
vn 0.984375 -0.01494598 -0.1740723
vn 0.9804688 -0.01647949 -0.1966553
vn 0.9804688 -0.01647949 -0.1966553
vn -0.1391602 0.9414063 -0.3076172
vn -0.1391602 0.9414063 -0.3076172
vn -0.1391602 0.9414063 -0.3076172
vn -0.1391602 0.9414063 -0.3076172
vn 0.1420898 -0.9389648 0.3139648
vn 0.1420898 -0.9389648 0.3139648
vn 0.1420898 -0.9389648 0.3139648
vn 0.1420898 -0.9389648 0.3139648
vn 0.09020996 0.9633789 0.2531738
vn 0.09020996 0.9633789 0.2531738
vn 0.09020996 0.9633789 0.2531738
vn 0.09020996 0.9633789 0.2531738
vn -0.09136963 -0.9624023 -0.2563477
vn -0.09136963 -0.9624023 -0.2563477
vn -0.09136963 -0.9624023 -0.2563477
vn -0.09136963 -0.9624023 -0.2563477
vn -0.996582 3.3319E-05 0.08532715
vn -0.996582 3.3319E-05 0.08532715
vn -0.996582 3.3319E-05 0.08532715
vn -0.996582 3.3319E-05 0.08532715
vn 0 1 0
vn 0 1 0
vn 0 1 0
vn 0 1 0
vn 0 -1 0
vn 0 -1 0
vn 0 -1 0
vn 0 -1 0
vn 0.1429443 0 0.9897461
vn 0.1429443 0 0.9897461
vn 0.1429443 0 0.9897461
vn 0.1429443 0 0.9897461
vn 0.9897461 0 -0.1429443
vn 0.9897461 0 -0.1429443
vn 0.9897461 0 -0.1429443
vn 0.9897461 0 -0.1429443
vn -0.1429443 0 -0.9897461
vn -0.1429443 0 -0.9897461
vn -0.1429443 0 -0.9897461
vn -0.1429443 0 -0.9897461
vn -0.9897461 0 0.1429443
vn -0.9897461 0 0.1429443
vn -0.9897461 0 0.1429443
vn -0.9897461 0 0.1429443
vn 0 1 0
vn 0 1 0
vn 0 1 0
vn 0 1 0
vn 0 -1 0
vn 0 -1 0
vn 0 -1 0
vn 0 -1 0
vn 0 0 1
vn 0 0 1
vn 0 0 1
vn 0 0 1
vn 1 0 0
vn 1 0 0
vn 1 0 0
vn 1 0 0
vn 0 0 -1
vn 0 0 -1
vn 0 0 -1
vn 0 0 -1
vn -1 0 0
vn -1 0 0
vn -1 0 0
vn -1 0 0
vn 0 1 0
vn 0 1 0
vn 0 1 0
vn 0 1 0
vn 0 -1 0
vn 0 -1 0
vn 0 -1 0
vn 0 -1 0
vn -0.1260986 0 0.9921875
vn -0.1260986 0 0.9921875
vn -0.1260986 0 0.9921875
vn -0.1260986 0 0.9921875
vn 0.9921875 0 0.1260986
vn 0.9921875 0 0.1260986
vn 0.9921875 0 0.1260986
vn 0.9921875 0 0.1260986
vn 0.1260986 0 -0.9921875
vn 0.1260986 0 -0.9921875
vn 0.1260986 0 -0.9921875
vn 0.1260986 0 -0.9921875
vn -0.9921875 0 -0.1260986
vn -0.9921875 0 -0.1260986
vn -0.9921875 0 -0.1260986
vn -0.9921875 0 -0.1260986
g SM_Prop_Paper_Pile_01_0
f 3/3/3 2/2/2 1/1/1
f 4/4/4 3/3/3 1/1/1
f 7/7/7 6/6/6 5/5/5
f 8/8/8 7/7/7 5/5/5
f 11/11/11 10/10/10 9/9/9
f 12/12/12 11/11/11 9/9/9
f 15/15/15 14/14/14 13/13/13
f 16/16/16 15/15/15 13/13/13
f 19/19/19 18/18/18 17/17/17
f 20/20/20 19/19/19 17/17/17
f 23/23/23 22/22/22 21/21/21
f 24/24/24 23/23/23 21/21/21
f 24/24/24 25/25/25 23/23/23
f 25/25/25 26/26/26 23/23/23
f 25/25/25 27/27/27 26/26/26
f 27/27/27 28/28/28 26/26/26
f 31/31/31 30/30/30 29/29/29
f 32/32/32 31/31/31 29/29/29
f 35/35/35 34/34/34 33/33/33
f 36/36/36 35/35/35 33/33/33
f 39/39/39 38/38/38 37/37/37
f 40/40/40 39/39/39 37/37/37
f 40/40/40 37/37/37 41/41/41
f 42/42/42 40/40/40 41/41/41
f 42/42/42 41/41/41 43/43/43
f 44/44/44 42/42/42 43/43/43
f 47/47/47 46/46/46 45/45/45
f 48/48/48 47/47/47 45/45/45
f 51/51/51 50/50/50 49/49/49
f 52/52/52 51/51/51 49/49/49
f 55/55/55 54/54/54 53/53/53
f 56/56/56 55/55/55 53/53/53
f 59/59/59 58/58/58 57/57/57
f 60/60/60 59/59/59 57/57/57
f 63/63/63 62/62/62 61/61/61
f 64/64/64 63/63/63 61/61/61
f 67/67/67 66/66/66 65/65/65
f 68/68/68 67/67/67 65/65/65
f 71/71/71 70/70/70 69/69/69
f 72/72/72 71/71/71 69/69/69
f 75/75/75 74/74/74 73/73/73
f 76/76/76 75/75/75 73/73/73
f 79/79/79 78/78/78 77/77/77
f 80/80/80 79/79/79 77/77/77
f 83/83/83 82/82/82 81/81/81
f 84/84/84 83/83/83 81/81/81
f 87/87/87 86/86/86 85/85/85
f 88/88/88 87/87/87 85/85/85
f 91/91/91 90/90/90 89/89/89
f 92/92/92 91/91/91 89/89/89
f 95/95/95 94/94/94 93/93/93
f 96/96/96 95/95/95 93/93/93
f 99/99/99 98/98/98 97/97/97
f 100/100/100 99/99/99 97/97/97
f 103/103/103 102/102/102 101/101/101
f 104/104/104 103/103/103 101/101/101
f 107/107/107 106/106/106 105/105/105
f 108/108/108 107/107/107 105/105/105
f 111/111/111 110/110/110 109/109/109
f 112/112/112 111/111/111 109/109/109
f 115/115/115 114/114/114 113/113/113
f 116/116/116 115/115/115 113/113/113
f 119/119/119 118/118/118 117/117/117
f 120/120/120 119/119/119 117/117/117
f 123/123/123 122/122/122 121/121/121
f 124/124/124 123/123/123 121/121/121
f 127/127/127 126/126/126 125/125/125
f 128/128/128 127/127/127 125/125/125
f 131/131/131 130/130/130 129/129/129
f 132/132/132 131/131/131 129/129/129
f 135/135/135 134/134/134 133/133/133
f 136/136/136 135/135/135 133/133/133
