g SM_Prop_Plate_01
v 0.2008166 0.02557854 0.08317871
v 0.1956671 0.03324806 0.0810498
v 0.1956665 0.03324806 -0.08104736
v 0.2008185 0.02557854 -0.08318359
v 0.2008185 0.02557854 -0.08318359
v 0.1956665 0.03324806 -0.08104736
v 0.08104675 0.03324806 -0.1956689
v 0.08318115 0.02557854 -0.2008179
v 0.08318115 0.02557854 -0.2008179
v 0.08104675 0.03324806 -0.1956689
v -0.08104736 0.03324806 -0.1956665
v -0.08318054 0.02557854 -0.2008179
v -0.08318054 0.02557854 -0.2008179
v -0.08104736 0.03324806 -0.1956665
v -0.1956665 0.03324806 -0.0810498
v -0.2008173 0.02557854 -0.08318359
v -0.2008173 0.02557854 -0.08318359
v -0.1956665 0.03324806 -0.0810498
v -0.1956659 0.03324806 0.08104736
v -0.2008179 0.02557854 0.08318359
v -0.2008179 0.02557854 0.08318359
v -0.1956659 0.03324806 0.08104736
v -0.08104614 0.03324806 0.1956689
v -0.08318176 0.02557854 0.2008154
v -0.08318176 0.02557854 0.2008154
v -0.08104614 0.03324806 0.1956689
v 0.08104859 0.03324806 0.1956665
v 0.08318176 0.02557854 0.2008179
v 0.08318176 0.02557854 0.2008179
v 0.08104859 0.03324806 0.1956665
v 0.1956671 0.03324806 0.0810498
v 0.2008166 0.02557854 0.08317871
v 0.1365765 0 0.05656982
v 0.2008166 0.02557854 0.08317871
v 0.2008185 0.02557854 -0.08318359
v 0.1365778 0 -0.05657227
v 6.103515E-07 0 0
v 0.08318115 0.02557854 -0.2008179
v 0.05657287 0 0.1365771
v 0.08318176 0.02557854 0.2008179
v 0.05657227 0 -0.1365771
v -0.08318054 0.02557854 -0.2008179
v -0.05657227 0 0.1365747
v -0.08318176 0.02557854 0.2008154
v -0.05657165 0 -0.1365771
v -0.2008173 0.02557854 -0.08318359
v -0.1365771 0 0.05657227
v -0.2008179 0.02557854 0.08318359
v -0.1365765 0 -0.05657227
v 0.1109222 0.01336395 -0.04594482
v 0.1956665 0.03324806 -0.08104736
v 0.1956671 0.03324806 0.0810498
v 0.1109222 0.01336395 0.04594726
v 6.103515E-07 0.01336395 0
v 0.08104859 0.03324806 0.1956665
v 0.04594482 0.01336395 -0.1109229
v 0.08104675 0.03324806 -0.1956689
v 0.04594604 0.01336395 0.1109229
v -0.08104614 0.03324806 0.1956689
v -0.04594482 0.01336395 -0.1109229
v -0.08104736 0.03324806 -0.1956665
v -0.04594421 0.01336395 0.1109229
v -0.1956659 0.03324806 0.08104736
v -0.1109216 0.01336395 -0.04594726
v -0.1956665 0.03324806 -0.0810498
v -0.1109216 0.01336395 0.04594482
vt 0.06893957 0.3807797
vt 0.06893957 0.3807797
vt 0.06893957 0.3807797
vt 0.06893957 0.3807797
vt 0.06893957 0.3807797
vt 0.06893957 0.3807797
vt 0.06893957 0.3807797
vt 0.06893957 0.3807797
vt 0.06893957 0.3807797
vt 0.06893957 0.3807797
vt 0.06893957 0.3807797
vt 0.06893957 0.3807797
vt 0.06893957 0.3807797
vt 0.06893957 0.3807797
vt 0.06893957 0.3807797
vt 0.06893957 0.3807797
vt 0.06893957 0.3807797
vt 0.06893957 0.3807797
vt 0.06893957 0.3807797
vt 0.06893957 0.3807797
vt 0.06893957 0.3807797
vt 0.06893957 0.3807797
vt 0.06893957 0.3807797
vt 0.06893957 0.3807797
vt 0.06893957 0.3807797
vt 0.06893957 0.3807797
vt 0.06893957 0.3807797
vt 0.06893957 0.3807797
vt 0.06893957 0.3807797
vt 0.06893957 0.3807797
vt 0.06893957 0.3807797
vt 0.06893957 0.3807797
vt 0.06893957 0.3807797
vt 0.06893957 0.3807797
vt 0.06893957 0.3807797
vt 0.06893957 0.3807797
vt 0.06893957 0.3807797
vt 0.06893957 0.3807797
vt 0.06893957 0.3807797
vt 0.06893957 0.3807797
vt 0.06893957 0.3807797
vt 0.06893957 0.3807797
vt 0.06893957 0.3807797
vt 0.06893957 0.3807797
vt 0.06893957 0.3807797
vt 0.06893957 0.3807797
vt 0.06893957 0.3807797
vt 0.06893957 0.3807797
vt 0.06893957 0.3807797
vt 0.06893957 0.3807797
vt 0.06893957 0.3807797
vt 0.06893957 0.3807797
vt 0.06893957 0.3807797
vt 0.06893957 0.3807797
vt 0.06893957 0.3807797
vt 0.06893957 0.3807797
vt 0.06893957 0.3807797
vt 0.06893957 0.3807797
vt 0.06893957 0.3807797
vt 0.06893957 0.3807797
vt 0.06893957 0.3807797
vt 0.06893957 0.3807797
vt 0.06893957 0.3807797
vt 0.06893957 0.3807797
vt 0.06893957 0.3807797
vt 0.06893957 0.3807797
vn 0.8301601 0.5575251 0
vn 0.8301601 0.5575251 0
vn 0.8301601 0.5575251 0
vn 0.8301601 0.5575251 0
vn 0.5869728 0.557604 -0.5869759
vn 0.5869728 0.557604 -0.5869759
vn 0.5869728 0.557604 -0.5869759
vn 0.5869728 0.557604 -0.5869759
vn 0 0.5574795 -0.8301907
vn 0 0.5574795 -0.8301907
vn 0 0.5574795 -0.8301907
vn 0 0.5574795 -0.8301907
vn -0.5869987 0.5575398 -0.587011
vn -0.5869987 0.5575398 -0.587011
vn -0.5869987 0.5575398 -0.587011
vn -0.5869987 0.5575398 -0.587011
vn -0.8301295 0.5575707 0
vn -0.8301295 0.5575707 0
vn -0.8301295 0.5575707 0
vn -0.8301295 0.5575707 0
vn -0.5869865 0.5575719 0.5869926
vn -0.5869865 0.5575719 0.5869926
vn -0.5869865 0.5575719 0.5869926
vn -0.5869865 0.5575719 0.5869926
vn 0 0.5573885 0.8302518
vn 0 0.5573885 0.8302518
vn 0 0.5573885 0.8302518
vn 0 0.5573885 0.8302518
vn 0.5870845 0.5573786 0.5870783
vn 0.5870845 0.5573786 0.5870783
vn 0.5870845 0.5573786 0.5870783
vn 0.5870845 0.5573786 0.5870783
vn 0.1611721 -0.9846659 0.06675892
vn 0.3189647 -0.9385129 0.1321181
vn 0.3189593 -0.9385149 -0.1321161
vn 0.1611691 -0.9846663 -0.06675785
vn 0 -1 0
vn 0.1321156 -0.9385145 -0.3189607
vn 0.06675893 -0.9846663 0.1611691
vn 0.1321183 -0.9385146 0.3189591
vn 0.06675763 -0.9846662 -0.1611699
vn -0.132116 -0.9385146 -0.3189603
vn -0.06675855 -0.9846661 0.1611702
vn -0.1321173 -0.9385141 0.3189612
vn -0.06675784 -0.9846663 -0.1611698
vn -0.3189588 -0.9385148 -0.1321184
vn -0.161168 -0.9846665 0.06675878
vn -0.3189571 -0.9385155 0.1321179
vn -0.1611689 -0.9846663 -0.06675907
vn -0.09823558 0.994331 0.04069017
vn -0.1957284 0.9773012 0.08107269
vn -0.1957277 0.9773013 -0.08107363
vn -0.09823524 0.994331 -0.04069065
vn 0 1 0
vn -0.08107389 0.9773011 -0.1957284
vn -0.04069003 0.994331 0.09823484
vn -0.08107242 0.9773015 0.195727
vn -0.04069077 0.9943309 -0.09823557
vn 0.08107242 0.9773015 -0.195727
vn 0.04069063 0.9943309 0.0982357
vn 0.08107361 0.9773011 0.1957287
vn 0.04069003 0.994331 -0.09823484
vn 0.1957284 0.9773012 -0.08107269
vn 0.09823509 0.994331 0.04069077
vn 0.1957275 0.9773013 0.0810739
vn 0.09823558 0.994331 -0.04069017
g SM_Prop_Plate_01_0
f 3/3/3 2/2/2 1/1/1
f 4/4/4 3/3/3 1/1/1
f 7/7/7 6/6/6 5/5/5
f 8/8/8 7/7/7 5/5/5
f 11/11/11 10/10/10 9/9/9
f 12/12/12 11/11/11 9/9/9
f 15/15/15 14/14/14 13/13/13
f 16/16/16 15/15/15 13/13/13
f 19/19/19 18/18/18 17/17/17
f 20/20/20 19/19/19 17/17/17
f 23/23/23 22/22/22 21/21/21
f 24/24/24 23/23/23 21/21/21
f 27/27/27 26/26/26 25/25/25
f 28/28/28 27/27/27 25/25/25
f 31/31/31 30/30/30 29/29/29
f 32/32/32 31/31/31 29/29/29
f 35/35/35 34/34/34 33/33/33
f 36/36/36 35/35/35 33/33/33
f 33/33/33 37/37/37 36/36/36
f 38/38/38 35/35/35 36/36/36
f 33/33/33 34/34/34 39/39/39
f 39/39/39 37/37/37 33/33/33
f 34/34/34 40/40/40 39/39/39
f 41/41/41 38/38/38 36/36/36
f 36/36/36 37/37/37 41/41/41
f 42/42/42 38/38/38 41/41/41
f 39/39/39 40/40/40 43/43/43
f 43/43/43 37/37/37 39/39/39
f 40/40/40 44/44/44 43/43/43
f 45/45/45 42/42/42 41/41/41
f 41/41/41 37/37/37 45/45/45
f 46/46/46 42/42/42 45/45/45
f 43/43/43 44/44/44 47/47/47
f 47/47/47 37/37/37 43/43/43
f 44/44/44 48/48/48 47/47/47
f 45/45/45 37/37/37 49/49/49
f 49/49/49 46/46/46 45/45/45
f 49/49/49 37/37/37 47/47/47
f 48/48/48 46/46/46 49/49/49
f 47/47/47 48/48/48 49/49/49
f 52/52/52 51/51/51 50/50/50
f 53/53/53 52/52/52 50/50/50
f 50/50/50 54/54/54 53/53/53
f 55/55/55 52/52/52 53/53/53
f 50/50/50 51/51/51 56/56/56
f 56/56/56 54/54/54 50/50/50
f 51/51/51 57/57/57 56/56/56
f 58/58/58 55/55/55 53/53/53
f 53/53/53 54/54/54 58/58/58
f 59/59/59 55/55/55 58/58/58
f 56/56/56 57/57/57 60/60/60
f 60/60/60 54/54/54 56/56/56
f 57/57/57 61/61/61 60/60/60
f 62/62/62 59/59/59 58/58/58
f 58/58/58 54/54/54 62/62/62
f 63/63/63 59/59/59 62/62/62
f 60/60/60 61/61/61 64/64/64
f 64/64/64 54/54/54 60/60/60
f 61/61/61 65/65/65 64/64/64
f 62/62/62 54/54/54 66/66/66
f 66/66/66 63/63/63 62/62/62
f 66/66/66 54/54/54 64/64/64
f 65/65/65 63/63/63 66/66/66
f 64/64/64 65/65/65 66/66/66
