g SM_Prop_HandDryer_01
v -0.1788604 0.7285507 0.3690266
v -0.1788604 0.8865508 0.3690266
v 0.1788604 0.8865508 0.3690266
v 0.1788604 0.7285507 0.3690266
v -0.1853737 0.6306579 0.2329736
v -0.1853737 0.6301379 0.1597542
v 0.1853737 0.6301379 0.1597542
v 0.1853737 0.6306579 0.2329736
v -0.2116302 0 0
v -0.2116302 0 0.2398027
v 0.2116302 0 0.2398027
v 0.2116302 0 0
v -0.1788604 0.05792068 0.3223572
v -0.1788604 0.62443 0.3223572
v 0.1788604 0.62443 0.3223572
v 0.1788604 0.05792068 0.3223572
v 0.2116302 0.62443 0.2398027
v 0.2116302 0 0
v 0.2116302 0 0.2398027
v 0.2116302 0.62443 0.1506966
v 0.2116302 0.8098829 0
v 0.2116302 0.7285507 0.106644
v 0.2116302 0.8865508 0.106644
v 0.2116302 1.143821 0
v 0.2116302 1 0.1506966
v 0.2116302 1.036187 0.1506966
v 0.2116302 1.143821 0.03872299
v -0.2116302 0.8098829 0
v -0.2116302 0 0
v 0.2116302 0 0
v 0.2116302 0.8098829 0
v -0.2116302 1.143821 0
v 0.2116302 1.143821 0
v -0.2116302 0.62443 0.1506966
v -0.2116302 0.62443 0.2398027
v -0.2116302 0 0.2398027
v -0.2116302 0 0
v -0.2116302 0.8098829 0
v -0.2116302 0.7285507 0.106644
v -0.2116302 0.8865508 0.106644
v -0.2116302 1.143821 0
v -0.2116302 1 0.1506966
v -0.2116302 1.036187 0.1506966
v -0.2116302 1.143821 0.03872299
v -0.1788604 1.03749 0.3008919
v -0.1949768 1.024483 0.275348
v 0.1949768 1.024483 0.275348
v 0.1788604 1.03749 0.3008919
v 0.1788604 0.7285507 0.3690266
v 0.1788604 0.8865508 0.3690266
v 0.2116302 0.8865508 0.3025632
v 0.2116302 0.7285507 0.3025632
v 0.1788604 0.05792068 0.3223572
v 0.1788604 0.62443 0.3223572
v 0.2116302 0.62443 0.2398027
v 0.2116302 0 0.2398027
v -0.2116302 0 0.2398027
v -0.1788604 0.05792068 0.3223572
v 0.1788604 0.05792068 0.3223572
v 0.2116302 0 0.2398027
v -0.2116302 0.62443 0.2398027
v -0.1788604 0.62443 0.3223572
v -0.1788604 0.05792068 0.3223572
v -0.2116302 0 0.2398027
v -0.1788604 0.8865508 0.3690266
v -0.1788604 0.7285507 0.3690266
v -0.2116302 0.7285507 0.3025632
v -0.2116302 0.8865508 0.3025632
v -0.2116302 1.143821 0.03872299
v -0.2116302 1.143821 0
v 0.2116302 1.143821 0
v 0.2116302 1.143821 0.03872299
v -0.1853737 0.8845625 0.2854022
v -0.1853737 0.7306712 0.2854705
v 0.1853737 0.7306712 0.2854705
v 0.1853737 0.8845625 0.2854022
v 0.1853737 0.7301512 0.1240016
v 0.1853737 0.6301379 0.1597542
v -0.1853737 0.6301379 0.1597542
v -0.1853737 0.7301512 0.1240016
v -0.2116302 1 0.2727341
v -0.1788604 1.024528 0.3209042
v -0.1788604 0.8865508 0.3690266
v -0.2116302 0.8865508 0.3025632
v -0.1853737 0.997121 0.2595549
v -0.1853737 0.8845625 0.2854022
v 0.1853737 0.8845625 0.2854022
v 0.1853737 0.997121 0.2595549
v 0.1788604 0.8865508 0.3690266
v 0.1788604 1.024528 0.3209042
v 0.2116302 1 0.2727341
v 0.2116302 0.8865508 0.3025632
v -0.1788604 0.8865508 0.3690266
v -0.1788604 1.024528 0.3209042
v 0.1788604 1.024528 0.3209042
v 0.1788604 0.8865508 0.3690266
v -0.1788604 0.62443 0.3223572
v -0.1788604 0.7285507 0.3690266
v 0.1788604 0.7285507 0.3690266
v 0.1788604 0.62443 0.3223572
v 0.1788604 0.62443 0.3223572
v 0.1788604 0.7285507 0.3690266
v 0.2116302 0.7285507 0.3025632
v 0.2116302 0.62443 0.2398027
v -0.1853737 0.7306712 0.2854705
v -0.1853737 0.6306579 0.2329736
v 0.1853737 0.6306579 0.2329736
v 0.1853737 0.7306712 0.2854705
v -0.1788604 0.7285507 0.3690266
v -0.1788604 0.62443 0.3223572
v -0.2116302 0.62443 0.2398027
v -0.2116302 0.7285507 0.3025632
v 0.1980663 0.8850641 0.1240429
v 0.1853737 0.7301512 0.1240016
v -0.1853737 0.7301512 0.1240016
v -0.1980663 0.8850641 0.1240429
v 0.1867836 0.9758783 0.1723476
v 0.1867836 0.9521886 0.1641143
v -0.1867836 0.9521886 0.1641143
v -0.1867836 0.9758783 0.1723476
v -0.1980663 0.9985132 0.1634718
v -0.1853737 1.02994 0.1637211
v 0.1853737 1.02994 0.1637211
v 0.1980663 0.9985132 0.1634718
v -0.2116302 1.036187 0.1506966
v -0.2116302 1.143821 0.03872299
v 0.2116302 1.143821 0.03872299
v 0.2116302 1.036187 0.1506966
v -0.1788604 1.024528 0.3209042
v -0.1788604 1.03749 0.3008919
v 0.1788604 1.03749 0.3008919
v 0.1788604 1.024528 0.3209042
v 0.1788604 1.024528 0.3209042
v 0.1788604 1.03749 0.3008919
v 0.1949768 1.024483 0.275348
v 0.2116302 1 0.2727341
v 0.1853737 0.997121 0.2595549
v 0.1707864 1.017979 0.261571
v -0.1707864 1.017979 0.261571
v -0.1853737 0.997121 0.2595549
v -0.2116302 1 0.2727341
v -0.1949768 1.024483 0.275348
v -0.1788604 1.03749 0.3008919
v -0.1788604 1.024528 0.3209042
v 0.1913045 0.984785 0.1585937
v 0.1867836 0.9758783 0.1723476
v -0.1867836 0.9758783 0.1723476
v -0.1913045 0.984785 0.1585937
v -0.1913045 0.984785 0.1585937
v -0.1867836 0.9758783 0.1723476
v -0.1867836 0.9521886 0.1641143
v -0.1913045 0.9559863 0.1485848
v -0.1913045 0.9559863 0.1485848
v -0.1867836 0.9521886 0.1641143
v 0.1867836 0.9521886 0.1641143
v 0.1913045 0.9559863 0.1485848
v 0.1913045 0.9559863 0.1485848
v 0.1867836 0.9521886 0.1641143
v 0.1867836 0.9758783 0.1723476
v 0.1913045 0.984785 0.1585937
v 0.2116302 0.62443 0.2398027
v 0.1853737 0.6306579 0.2329736
v 0.1853737 0.6301379 0.1597542
v 0.2116302 0.62443 0.1506966
v -0.2116302 0.62443 0.1506966
v -0.1853737 0.6301379 0.1597542
v -0.1853737 0.6306579 0.2329736
v -0.2116302 0.62443 0.2398027
v 0.2116302 0.8865508 0.3025632
v 0.1853737 0.8845625 0.2854022
v 0.1853737 0.7306712 0.2854705
v 0.2116302 0.7285507 0.3025632
v -0.2116302 0.7285507 0.3025632
v -0.1853737 0.7306712 0.2854705
v -0.1853737 0.8845625 0.2854022
v -0.2116302 0.8865508 0.3025632
v -0.2116302 0.7285507 0.106644
v -0.1853737 0.7301512 0.1240016
v -0.1853737 0.6301379 0.1597542
v -0.2116302 0.62443 0.1506966
v 0.2116302 0.62443 0.1506966
v 0.1853737 0.6301379 0.1597542
v 0.1853737 0.7301512 0.1240016
v 0.2116302 0.7285507 0.106644
v 0.2116302 1 0.2727341
v 0.1853737 0.997121 0.2595549
v 0.1853737 0.8845625 0.2854022
v 0.2116302 0.8865508 0.3025632
v -0.2116302 0.8865508 0.3025632
v -0.1853737 0.8845625 0.2854022
v -0.1853737 0.997121 0.2595549
v -0.2116302 1 0.2727341
v 0.2116302 0.7285507 0.3025632
v 0.1853737 0.7306712 0.2854705
v 0.1853737 0.6306579 0.2329736
v 0.2116302 0.62443 0.2398027
v -0.2116302 0.62443 0.2398027
v -0.1853737 0.6306579 0.2329736
v -0.1853737 0.7306712 0.2854705
v -0.2116302 0.7285507 0.3025632
v -0.2116302 0.8865508 0.106644
v -0.1980663 0.8850641 0.1240429
v -0.1853737 0.7301512 0.1240016
v -0.2116302 0.7285507 0.106644
v 0.2116302 0.7285507 0.106644
v 0.1853737 0.7301512 0.1240016
v 0.1980663 0.8850641 0.1240429
v 0.2116302 0.8865508 0.106644
v 0.2116302 1 0.1506966
v 0.1980663 0.9985132 0.1634718
v 0.1853737 1.02994 0.1637211
v 0.2116302 1.036187 0.1506966
v 0.2116302 1.036187 0.1506966
v 0.1853737 1.02994 0.1637211
v -0.1853737 1.02994 0.1637211
v -0.2116302 1.036187 0.1506966
v -0.2116302 1.036187 0.1506966
v -0.1853737 1.02994 0.1637211
v -0.1980663 0.9985132 0.1634718
v -0.2116302 1 0.1506966
v -0.2116302 1 0.2727341
v -0.1853737 0.997121 0.2595549
v -0.1707864 1.017979 0.261571
v -0.1949768 1.024483 0.275348
v -0.1949768 1.024483 0.275348
v -0.1707864 1.017979 0.261571
v 0.1707864 1.017979 0.261571
v 0.1949768 1.024483 0.275348
v 0.1949768 1.024483 0.275348
v 0.1707864 1.017979 0.261571
v 0.1853737 0.997121 0.2595549
v 0.2116302 1 0.2727341
v -0.2116302 1 0.1506966
v -0.1980663 0.9985132 0.1634718
v -0.1980663 0.8850641 0.1240429
v -0.2116302 0.8865508 0.106644
v 0.2116302 0.8865508 0.106644
v 0.1980663 0.8850641 0.1240429
v 0.1980663 0.9985132 0.1634718
v 0.2116302 1 0.1506966
v 0.1980663 0.9985132 0.1634718
v 0.1913045 0.984785 0.1585937
v -0.1913045 0.984785 0.1585937
v -0.1980663 0.9985132 0.1634718
v 0.1980663 0.8850641 0.1240429
v -0.1913045 0.9559863 0.1485848
v 0.1913045 0.9559863 0.1485848
v -0.1980663 0.8850641 0.1240429
vt 0.1133058 0.3276559
vt 0.1133097 0.3275491
vt 0.1131433 0.3277445
vt 0.1131448 0.3278512
vt 0.07955416 0.2535846
vt 0.07970501 0.2535449
vt 0.07929236 0.253293
vt 0.07915521 0.2533222
vt 0.1131002 0.3279672
vt 0.1132064 0.3280135
vt 0.1130364 0.3282343
vt 0.1129261 0.3281822
vt 0.1132493 0.3280244
vt 0.1132561 0.327704
vt 0.1130966 0.3278967
vt 0.113106 0.328214
vt 0.1130171 0.327888
vt 0.1129261 0.3281822
vt 0.1130364 0.3282343
vt 0.1129493 0.3278588
vt 0.1128233 0.3276868
vt 0.1129103 0.3277779
vt 0.112901 0.3276711
vt 0.1127964 0.3274468
vt 0.1129296 0.3276041
vt 0.1129275 0.3275773
vt 0.1128281 0.3274591
vt 0.1130307 0.3274723
vt 0.1131002 0.3279672
vt 0.1129261 0.3281822
vt 0.1128233 0.3276868
vt 0.1130199 0.3272343
vt 0.1127964 0.3274468
vt 0.1131438 0.3276378
vt 0.1132088 0.3276633
vt 0.1132064 0.3280135
vt 0.1131002 0.3279672
vt 0.1130307 0.3274723
vt 0.1131106 0.3275587
vt 0.1131081 0.3274522
vt 0.1130199 0.3272343
vt 0.1131405 0.3273838
vt 0.1131401 0.3273572
vt 0.1130502 0.3272449
vt 0.1132252 0.3274085
vt 0.1132133 0.3273922
vt 0.1130048 0.3276164
vt 0.1130496 0.3275991
vt 0.1131448 0.3278512
vt 0.1131433 0.3277445
vt 0.1130586 0.3277356
vt 0.1130629 0.3278424
vt 0.113106 0.328214
vt 0.1130966 0.3278967
vt 0.1130171 0.327888
vt 0.1130364 0.3282343
vt 0.1132064 0.3280135
vt 0.1132493 0.3280244
vt 0.113106 0.328214
vt 0.1130364 0.3282343
vt 0.1132088 0.3276633
vt 0.1132561 0.327704
vt 0.1132493 0.3280244
vt 0.1132064 0.3280135
vt 0.1133097 0.3275491
vt 0.1133058 0.3276559
vt 0.1132565 0.3276148
vt 0.1132588 0.3275082
vt 0.1130502 0.3272449
vt 0.1130199 0.3272343
vt 0.1127964 0.3274468
vt 0.1128281 0.3274591
vt 0.07943928 0.2530932
vt 0.07944208 0.2534128
vt 0.07904774 0.2531678
vt 0.0790354 0.2528901
vt 0.07935554 0.2531094
vt 0.07929236 0.253293
vt 0.07970501 0.2535449
vt 0.07978155 0.2533332
vt 0.1132104 0.3274091
vt 0.1132463 0.3274257
vt 0.1133097 0.3275491
vt 0.1132588 0.3275082
vt 0.07955538 0.2528333
vt 0.07943928 0.2530932
vt 0.0790354 0.2528901
vt 0.07913238 0.2526687
vt 0.1131433 0.3277445
vt 0.1130721 0.3276175
vt 0.1130029 0.3276334
vt 0.1130586 0.3277356
vt 0.1133097 0.3275491
vt 0.1132463 0.3274257
vt 0.1130721 0.3276175
vt 0.1131433 0.3277445
vt 0.1132561 0.327704
vt 0.1133058 0.3276559
vt 0.1131448 0.3278512
vt 0.1130966 0.3278967
vt 0.1130966 0.3278967
vt 0.1131448 0.3278512
vt 0.1130629 0.3278424
vt 0.1130171 0.327888
vt 0.07944208 0.2534128
vt 0.07955416 0.2535846
vt 0.07915521 0.2533222
vt 0.07904774 0.2531678
vt 0.1133058 0.3276559
vt 0.1132561 0.327704
vt 0.1132088 0.3276633
vt 0.1132565 0.3276148
vt 0.07935119 0.252842
vt 0.07935554 0.2531094
vt 0.07978155 0.2533332
vt 0.07978843 0.253027
vt 0.2171673 0.472174
vt 0.2172096 0.472272
vt 0.218001 0.4728371
vt 0.2179529 0.4727185
vt 0.07971661 0.2528083
vt 0.07971783 0.2527319
vt 0.07927653 0.2525846
vt 0.07927802 0.2526506
vt 0.1131401 0.3273572
vt 0.1130502 0.3272449
vt 0.1128281 0.3274591
vt 0.1129275 0.3275773
vt 0.1132463 0.3274257
vt 0.1132252 0.3274085
vt 0.1130496 0.3275991
vt 0.1130721 0.3276175
vt 0.1130721 0.3276175
vt 0.1130496 0.3275991
vt 0.1130048 0.3276164
vt 0.1130029 0.3276334
vt 0.07913238 0.2526687
vt 0.07912505 0.252624
vt 0.07954909 0.2527816
vt 0.07955538 0.2528333
vt 0.1132104 0.3274091
vt 0.1132133 0.3273922
vt 0.1132252 0.3274085
vt 0.1132463 0.3274257
vt 0.2172537 0.472084
vt 0.2171673 0.472174
vt 0.2179529 0.4727185
vt 0.2180917 0.4726272
vt 0.2180917 0.4726272
vt 0.2179529 0.4727185
vt 0.218001 0.4728371
vt 0.2181673 0.4728172
vt 0.2181673 0.4728172
vt 0.218001 0.4728371
vt 0.2172096 0.472272
vt 0.21732 0.4722399
vt 0.21732 0.4722399
vt 0.2172096 0.472272
vt 0.2171673 0.472174
vt 0.2172537 0.472084
vt 0.07915521 0.2533222
vt 0.07915521 0.2533222
vt 0.07929236 0.253293
vt 0.07929236 0.253293
vt 0.07970501 0.2535449
vt 0.07970501 0.2535449
vt 0.07955416 0.2535846
vt 0.07955416 0.2535846
vt 0.0790354 0.2528901
vt 0.0790354 0.2528901
vt 0.07904774 0.2531678
vt 0.07904774 0.2531678
vt 0.07944208 0.2534128
vt 0.07944208 0.2534128
vt 0.07943928 0.2530932
vt 0.07943928 0.2530932
vt 0.07978155 0.2533332
vt 0.07978155 0.2533332
vt 0.07970501 0.2535449
vt 0.07970501 0.2535449
vt 0.07929236 0.253293
vt 0.07929236 0.253293
vt 0.07935554 0.2531094
vt 0.07935554 0.2531094
vt 0.07913238 0.2526687
vt 0.07913238 0.2526687
vt 0.0790354 0.2528901
vt 0.0790354 0.2528901
vt 0.07943928 0.2530932
vt 0.07943928 0.2530932
vt 0.07955538 0.2528333
vt 0.07955538 0.2528333
vt 0.07904774 0.2531678
vt 0.07904774 0.2531678
vt 0.07915521 0.2533222
vt 0.07915521 0.2533222
vt 0.07955416 0.2535846
vt 0.07955416 0.2535846
vt 0.07944208 0.2534128
vt 0.07944208 0.2534128
vt 0.07978843 0.253027
vt 0.07978843 0.253027
vt 0.07978155 0.2533332
vt 0.07978155 0.2533332
vt 0.07935554 0.2531094
vt 0.07935554 0.2531094
vt 0.07935119 0.252842
vt 0.07935119 0.252842
vt 0.07927802 0.2526506
vt 0.07927802 0.2526506
vt 0.07927653 0.2525846
vt 0.07927653 0.2525846
vt 0.07927653 0.2525846
vt 0.07927653 0.2525846
vt 0.07971783 0.2527319
vt 0.07971783 0.2527319
vt 0.07971783 0.2527319
vt 0.07971783 0.2527319
vt 0.07971661 0.2528083
vt 0.07971661 0.2528083
vt 0.07955538 0.2528333
vt 0.07955538 0.2528333
vt 0.07954909 0.2527816
vt 0.07954909 0.2527816
vt 0.07954909 0.2527816
vt 0.07954909 0.2527816
vt 0.07912505 0.252624
vt 0.07912505 0.252624
vt 0.07912505 0.252624
vt 0.07912505 0.252624
vt 0.07913238 0.2526687
vt 0.07913238 0.2526687
vt 0.07971661 0.2528083
vt 0.07971661 0.2528083
vt 0.07978843 0.253027
vt 0.07978843 0.253027
vt 0.07935119 0.252842
vt 0.07935119 0.252842
vt 0.07927802 0.2526506
vt 0.07927802 0.2526506
vt 0.07927802 0.2526506
vt 0.07930693 0.252682
vt 0.07969908 0.2528262
vt 0.07971661 0.2528083
vt 0.07935119 0.252842
vt 0.07971559 0.2528759
vt 0.07932368 0.252726
vt 0.07978843 0.253027
vn 0 0 1
vn 0 0 1
vn 0 0 1
vn 0 0 1
vn 0 0.9999748 -0.007100995
vn 0 0.9999748 -0.007100995
vn 0 0.9999748 -0.007100995
vn 0 0.9999748 -0.007100995
vn 0 -1 0
vn 0 -1 0
vn 0 -1 0
vn 0 -1 0
vn 0 0 1
vn 0 0 1
vn 0 0 1
vn 0 0 1
vn 1 0 0
vn 1 0 0
vn 1 0 0
vn 1 0 0
vn 1 0 0
vn 1 0 0
vn 1 0 0
vn 1 0 0
vn 1 0 0
vn 1 0 0
vn 1 0 0
vn 0 0 -1
vn 0 0 -1
vn 0 0 -1
vn 0 0 -1
vn 0 0 -1
vn 0 0 -1
vn -1 0 0
vn -1 0 0
vn -1 0 0
vn -1 0 0
vn -1 0 0
vn -1 0 0
vn -1 0 0
vn -1 0 0
vn -1 0 0
vn -1 0 0
vn -1 0 0
vn 0 0.8911247 -0.4537584
vn 0 0.8940394 -0.4479884
vn 0 0.8940394 -0.4479884
vn 0 0.8911247 -0.4537584
vn 0.8969063 0 0.4422206
vn 0.8969063 0 0.4422206
vn 0.8969063 0 0.4422206
vn 0.8969063 0 0.4422206
vn 0.9294516 0 0.368944
vn 0.9294516 0 0.368944
vn 0.9294516 0 0.368944
vn 0.9294516 0 0.368944
vn 0 -0.818614 0.574344
vn 0 -0.8186141 0.574344
vn 0 -0.8186141 0.574344
vn 0 -0.818614 0.574344
vn -0.9294516 0 0.368944
vn -0.9294516 0 0.368944
vn -0.9294516 0 0.368944
vn -0.9294516 0 0.368944
vn -0.8969063 0 0.4422206
vn -0.8969063 0 0.4422206
vn -0.8969063 0 0.4422206
vn -0.8969063 0 0.4422206
vn 0 1 0
vn 0 1 0
vn 0 1 0
vn 0 1 0
vn 0 -0.0004439574 -0.9999999
vn 0 -0.0004439574 -0.9999999
vn 0 -0.0004439574 -0.9999999
vn 0 -0.0004439574 -0.9999999
vn 0 0.3366168 0.9416417
vn 0 0.3366168 0.9416417
vn 0 0.3366168 0.9416417
vn 0 0.3366168 0.9416417
vn -0.8720065 0.1449544 0.4675393
vn -0.8720065 0.1449544 0.4675393
vn -0.8720065 0.1449544 0.4675392
vn -0.8720065 0.1449544 0.4675392
vn 0 -0.2238096 -0.9746329
vn 0 -0.2238096 -0.9746329
vn 0 -0.2238096 -0.9746329
vn 0 -0.2238096 -0.9746329
vn 0.8720065 0.1449544 0.4675392
vn 0.8720065 0.1449544 0.4675393
vn 0.8720065 0.1449544 0.4675393
vn 0.8720065 0.1449544 0.4675392
vn 0 0.3293164 0.9442195
vn 0 0.3293164 0.9442195
vn 0 0.3293164 0.9442195
vn 0 0.3293164 0.9442195
vn 0 -0.4090161 0.9125272
vn 0 -0.4090161 0.9125272
vn 0 -0.4090161 0.9125272
vn 0 -0.4090161 0.9125272
vn 0.8955565 -0.2069796 0.3938755
vn 0.8955565 -0.2069796 0.3938755
vn 0.8955565 -0.2069796 0.3938755
vn 0.8955565 -0.2069796 0.3938755
vn 0 0.464764 -0.8854346
vn 0 0.464764 -0.8854346
vn 0 0.464764 -0.8854346
vn 0 0.464764 -0.8854346
vn -0.8955565 -0.2069796 0.3938755
vn -0.8955565 -0.2069796 0.3938755
vn -0.8955565 -0.2069796 0.3938755
vn -0.8955565 -0.2069796 0.3938755
vn 0 -0.0002664403 1
vn 0 -0.0002664403 1
vn 0 -0.0002664403 1
vn 0 -0.0002664403 1
vn 0 -0.3282846 0.9445788
vn 0 -0.3282846 0.9445788
vn 0 -0.3282846 0.9445788
vn 0 -0.3282846 0.9445788
vn 0 -0.007932116 0.9999685
vn 0 -0.007932116 0.9999685
vn 0 -0.007932116 0.9999685
vn 0 -0.007932116 0.9999685
vn 0 0.7209398 0.6929977
vn 0 0.7209398 0.6929977
vn 0 0.7209398 0.6929977
vn 0 0.7209398 0.6929977
vn 0 0.8393226 0.5436336
vn 0 0.8393226 0.5436336
vn 0 0.8393226 0.5436336
vn 0 0.8393226 0.5436336
vn 0.8177473 0.4978766 0.2888047
vn 0.8177473 0.4978766 0.2888047
vn 0.8177473 0.4978766 0.2888046
vn 0.8177473 0.4978767 0.2888047
vn 0 0.09621288 -0.9953608
vn 0 0.09621286 -0.9953608
vn 0 0.09621286 -0.9953608
vn 0 0.09621288 -0.9953608
vn -0.8177473 0.4978767 0.2888046
vn -0.8177473 0.4978768 0.2888046
vn -0.8177473 0.4978768 0.2888047
vn -0.8177473 0.4978768 0.2888046
vn 0 0.8393723 0.543557
vn 0 0.8393723 0.543557
vn 0 0.8393723 0.543557
vn 0 0.8393723 0.543557
vn -0.9619438 -0.08970296 0.2581036
vn -0.9619438 -0.08970296 0.2581036
vn -0.9619438 -0.08970296 0.2581036
vn -0.9619438 -0.08970296 0.2581036
vn 0 -0.9713764 -0.2375455
vn 0 -0.9713764 -0.2375455
vn 0 -0.9713764 -0.2375455
vn 0 -0.9713764 -0.2375455
vn 0.9619438 -0.08970299 0.2581036
vn 0.9619438 -0.08970299 0.2581036
vn 0.9619438 -0.08970298 0.2581036
vn 0.9619438 -0.08970298 0.2581036
vn 0.2215107 0.975153 -0.003123502
vn 0.2215107 0.975153 -0.003123502
vn 0.2215107 0.975153 -0.003123502
vn 0.2215107 0.975153 -0.003123502
vn -0.2215107 0.975153 -0.003123501
vn -0.2215107 0.975153 -0.003123501
vn -0.2215107 0.975153 -0.003123502
vn -0.2215107 0.975153 -0.003123502
vn 0.5463344 -0.0001834694 -0.8375672
vn 0.5463344 -0.0001834694 -0.8375672
vn 0.5463344 -0.0001834694 -0.8375671
vn 0.5463343 -0.0001834693 -0.8375672
vn -0.5463343 -0.0001834741 -0.8375672
vn -0.5463344 -0.0001834741 -0.8375671
vn -0.5463344 -0.0001834741 -0.8375672
vn -0.5463344 -0.0001834741 -0.8375672
vn -0.4607716 0.3231539 0.8265961
vn -0.4607716 0.3231539 0.8265961
vn -0.4607716 0.3231539 0.8265961
vn -0.4607716 0.3231539 0.8265961
vn 0.4607716 0.3231539 0.8265961
vn 0.4607716 0.3231539 0.8265961
vn 0.4607716 0.3231539 0.8265961
vn 0.4607716 0.3231539 0.8265961
vn 0.5037625 -0.2066278 -0.838766
vn 0.5037625 -0.2066278 -0.838766
vn 0.5037625 -0.2066278 -0.838766
vn 0.5037625 -0.2066277 -0.8387659
vn -0.5037625 -0.2066277 -0.8387659
vn -0.5037625 -0.2066278 -0.838766
vn -0.5037625 -0.2066278 -0.838766
vn -0.5037625 -0.2066277 -0.838766
vn 0.4289386 0.4441335 -0.7866112
vn 0.4289385 0.4441335 -0.7866112
vn 0.4289386 0.4441335 -0.7866111
vn 0.4289386 0.4441336 -0.7866112
vn -0.4289386 0.4441336 -0.7866112
vn -0.4289386 0.4441335 -0.7866111
vn -0.4289385 0.4441335 -0.7866112
vn -0.4289386 0.4441335 -0.7866112
vn -0.6573007 -0.02676134 0.753153
vn -0.6573007 -0.02676134 0.753153
vn -0.6573007 -0.02676134 0.753153
vn -0.6573008 -0.02676134 0.753153
vn 0.6573008 -0.02676134 0.753153
vn 0.6573008 -0.02676133 0.753153
vn 0.6573008 -0.02676133 0.753153
vn 0.6573008 -0.02676133 0.753153
vn 0.528038 0.09601293 0.8437757
vn 0.528038 0.09601293 0.8437757
vn 0.528038 0.09601291 0.8437757
vn 0.5280379 0.09601291 0.8437757
vn 0 0.9016493 0.4324678
vn 0 0.9016493 0.4324678
vn 0 0.9016493 0.4324678
vn 0 0.9016493 0.4324678
vn -0.5280379 0.09601289 0.8437757
vn -0.5280379 0.0960129 0.8437757
vn -0.5280379 0.0960129 0.8437757
vn -0.5280379 0.09601289 0.8437757
vn -0.3885171 0.3545458 -0.8505008
vn -0.3885171 0.3545458 -0.8505009
vn -0.388517 0.3545458 -0.8505009
vn -0.388517 0.3545458 -0.8505009
vn 0 0.8940394 -0.4479884
vn 0 0.9042833 -0.4269328
vn 0 0.9042833 -0.4269328
vn 0 0.8940394 -0.4479884
vn 0.3885171 0.3545459 -0.8505008
vn 0.3885171 0.3545459 -0.8505008
vn 0.3885171 0.3545459 -0.8505008
vn 0.3885171 0.3545459 -0.8505008
vn -0.7343038 -0.2343938 0.6370695
vn -0.7343038 -0.2343938 0.6370695
vn -0.7343038 -0.2343938 0.6370695
vn -0.7343037 -0.2343938 0.6370695
vn 0.7343037 -0.2343938 0.6370695
vn 0.7343038 -0.2343938 0.6370695
vn 0.7343038 -0.2343938 0.6370695
vn 0.7343038 -0.2343938 0.6370695
vn -0.0004959423 -0.3346123 0.9423558
vn -0.001614863 -0.3341225 0.9425282
vn 0.001614863 -0.3341225 0.9425282
vn 0.0004959423 -0.3346123 0.9423558
vn -1.578325E-05 -0.3270149 0.9450191
vn 0.0004636284 -0.327053 0.9450058
vn -0.0004636284 -0.327053 0.9450058
vn 1.578325E-05 -0.3270149 0.9450191
g SM_Prop_HandDryer_01_0
f 3/3/3 2/2/2 1/1/1
f 4/4/4 3/3/3 1/1/1
f 7/7/7 6/6/6 5/5/5
f 8/8/8 7/7/7 5/5/5
f 11/11/11 10/10/10 9/9/9
f 12/12/12 11/11/11 9/9/9
f 15/15/15 14/14/14 13/13/13
f 16/16/16 15/15/15 13/13/13
f 19/19/19 18/18/18 17/17/17
f 18/18/18 20/20/20 17/17/17
f 20/20/20 18/18/18 21/21/21
f 22/22/22 20/20/20 21/21/21
f 23/23/23 22/22/22 21/21/21
f 23/23/23 21/21/21 24/24/24
f 24/24/24 25/25/25 23/23/23
f 24/24/24 26/26/26 25/25/25
f 24/24/24 27/27/27 26/26/26
f 30/30/30 29/29/29 28/28/28
f 31/31/31 30/30/30 28/28/28
f 28/28/28 32/32/32 31/31/31
f 32/32/32 33/33/33 31/31/31
f 36/36/36 35/35/35 34/34/34
f 37/37/37 36/36/36 34/34/34
f 38/38/38 37/37/37 34/34/34
f 39/39/39 38/38/38 34/34/34
f 39/39/39 40/40/40 38/38/38
f 41/41/41 38/38/38 40/40/40
f 40/40/40 42/42/42 41/41/41
f 42/42/42 43/43/43 41/41/41
f 43/43/43 44/44/44 41/41/41
f 47/47/47 46/46/46 45/45/45
f 48/48/48 47/47/47 45/45/45
f 51/51/51 50/50/50 49/49/49
f 52/52/52 51/51/51 49/49/49
f 55/55/55 54/54/54 53/53/53
f 56/56/56 55/55/55 53/53/53
f 59/59/59 58/58/58 57/57/57
f 60/60/60 59/59/59 57/57/57
f 63/63/63 62/62/62 61/61/61
f 64/64/64 63/63/63 61/61/61
f 67/67/67 66/66/66 65/65/65
f 68/68/68 67/67/67 65/65/65
f 71/71/71 70/70/70 69/69/69
f 72/72/72 71/71/71 69/69/69
f 75/75/75 74/74/74 73/73/73
f 76/76/76 75/75/75 73/73/73
f 79/79/79 78/78/78 77/77/77
f 80/80/80 79/79/79 77/77/77
f 83/83/83 82/82/82 81/81/81
f 84/84/84 83/83/83 81/81/81
f 87/87/87 86/86/86 85/85/85
f 88/88/88 87/87/87 85/85/85
f 91/91/91 90/90/90 89/89/89
f 92/92/92 91/91/91 89/89/89
f 95/95/95 94/94/94 93/93/93
f 96/96/96 95/95/95 93/93/93
f 99/99/99 98/98/98 97/97/97
f 100/100/100 99/99/99 97/97/97
f 103/103/103 102/102/102 101/101/101
f 104/104/104 103/103/103 101/101/101
f 107/107/107 106/106/106 105/105/105
f 108/108/108 107/107/107 105/105/105
f 111/111/111 110/110/110 109/109/109
f 112/112/112 111/111/111 109/109/109
f 115/115/115 114/114/114 113/113/113
f 116/116/116 115/115/115 113/113/113
f 119/119/119 118/118/118 117/117/117
f 120/120/120 119/119/119 117/117/117
f 123/123/123 122/122/122 121/121/121
f 124/124/124 123/123/123 121/121/121
f 127/127/127 126/126/126 125/125/125
f 128/128/128 127/127/127 125/125/125
f 131/131/131 130/130/130 129/129/129
f 132/132/132 131/131/131 129/129/129
f 135/135/135 134/134/134 133/133/133
f 136/136/136 135/135/135 133/133/133
f 139/139/139 138/138/138 137/137/137
f 140/140/140 139/139/139 137/137/137
f 143/143/143 142/142/142 141/141/141
f 144/144/144 143/143/143 141/141/141
f 147/147/147 146/146/146 145/145/145
f 148/148/148 147/147/147 145/145/145
f 151/151/151 150/150/150 149/149/149
f 152/152/152 151/151/151 149/149/149
f 155/155/155 154/154/154 153/153/153
f 156/156/156 155/155/155 153/153/153
f 159/159/159 158/158/158 157/157/157
f 160/160/160 159/159/159 157/157/157
f 163/163/163 162/162/162 161/161/161
f 164/164/164 163/163/163 161/161/161
f 167/167/167 166/166/166 165/165/165
f 168/168/168 167/167/167 165/165/165
f 171/171/171 170/170/170 169/169/169
f 172/172/172 171/171/171 169/169/169
f 175/175/175 174/174/174 173/173/173
f 176/176/176 175/175/175 173/173/173
f 179/179/179 178/178/178 177/177/177
f 180/180/180 179/179/179 177/177/177
f 183/183/183 182/182/182 181/181/181
f 184/184/184 183/183/183 181/181/181
f 187/187/187 186/186/186 185/185/185
f 188/188/188 187/187/187 185/185/185
f 191/191/191 190/190/190 189/189/189
f 192/192/192 191/191/191 189/189/189
f 195/195/195 194/194/194 193/193/193
f 196/196/196 195/195/195 193/193/193
f 199/199/199 198/198/198 197/197/197
f 200/200/200 199/199/199 197/197/197
f 203/203/203 202/202/202 201/201/201
f 204/204/204 203/203/203 201/201/201
f 207/207/207 206/206/206 205/205/205
f 208/208/208 207/207/207 205/205/205
f 211/211/211 210/210/210 209/209/209
f 212/212/212 211/211/211 209/209/209
f 215/215/215 214/214/214 213/213/213
f 216/216/216 215/215/215 213/213/213
f 219/219/219 218/218/218 217/217/217
f 220/220/220 219/219/219 217/217/217
f 223/223/223 222/222/222 221/221/221
f 224/224/224 223/223/223 221/221/221
f 227/227/227 226/226/226 225/225/225
f 228/228/228 227/227/227 225/225/225
f 231/231/231 230/230/230 229/229/229
f 232/232/232 231/231/231 229/229/229
f 235/235/235 234/234/234 233/233/233
f 236/236/236 235/235/235 233/233/233
f 239/239/239 238/238/238 237/237/237
f 240/240/240 239/239/239 237/237/237
f 243/243/243 242/242/242 241/241/241
f 244/244/244 243/243/243 241/241/241
f 241/241/241 242/242/242 245/245/245
f 246/246/246 243/243/243 244/244/244
f 242/242/242 247/247/247 245/245/245
f 248/248/248 246/246/246 244/244/244
f 245/245/245 247/247/247 248/248/248
f 247/247/247 246/246/246 248/248/248
