g SM_Prop_Snack_07
v -0.03771643 0.04571731 -0.05615702
v -0.03771643 0.03192518 -0.09715646
v 0.03771649 0.03192518 -0.09715646
v 0.03771649 0.04571731 -0.05615702
v -0.03771643 0.03192518 -0.09715646
v -0.03771643 0.01379213 -0.09715646
v 0.03771649 0.01379213 -0.09715646
v 0.03771649 0.03192518 -0.09715646
v -0.03771643 0.01379213 -0.09715646
v -0.03771643 0 -0.05615702
v 0.03771649 0 -0.05615702
v 0.03771649 0.01379213 -0.09715646
v -0.03771643 0.01379214 0.09715646
v -0.03771643 0.03192518 0.09715646
v 0.03771649 0.03192518 0.09715646
v 0.03771649 0.01379214 0.09715646
v 0.03771649 0.04571731 -0.05615702
v 0.03771649 0.03192518 -0.09715646
v 0.03771649 0.01379213 -0.09715646
v 0.03771649 0 -0.05615702
v 0.03771649 0.04571731 -0.01807826
v 0.03771649 0 -0.01807826
v -0.03771643 0 -0.05615702
v -0.03771643 0.01379213 -0.09715646
v -0.03771643 0.03192518 -0.09715646
v -0.03771643 0.04571731 -0.05615702
v -0.03771643 0 -0.01807826
v -0.03771643 0.04571731 -0.01807826
v -0.03771643 0.04571731 0.06242849
v -0.03771643 0.04571731 -0.01807826
v 0.03771649 0.04571731 -0.01807826
v 0.03771649 0.04571731 0.06242849
v 0.03771649 0.04571731 0.06242849
v 0.03771649 0.04571731 -0.01807826
v 0.03771649 0 -0.01807826
v 0.03771649 0 0.06242849
v 0.03771649 0.03192518 0.09715646
v 0.03771649 0.01379214 0.09715646
v -0.03771643 0 -0.01807826
v -0.03771643 0 0.06242849
v 0.03771649 0 0.06242849
v 0.03771649 0 -0.01807826
v -0.03771643 0 0.06242849
v -0.03771643 0 -0.01807826
v -0.03771643 0.04571731 -0.01807826
v -0.03771643 0.04571731 0.06242849
v -0.03771643 0.01379214 0.09715646
v -0.03771643 0.03192518 0.09715646
v -0.03771643 0.03192518 0.09715646
v -0.03771643 0.04571731 0.06242849
v 0.03771649 0.04571731 0.06242849
v 0.03771649 0.03192518 0.09715646
v -0.03771643 0 0.06242849
v -0.03771643 0.01379214 0.09715646
v 0.03771649 0.01379214 0.09715646
v 0.03771649 0 0.06242849
v -0.03771643 0.04571731 -0.01807826
v -0.03771643 0.04571731 -0.05615702
v 0.03771649 0.04571731 -0.05615702
v 0.03771649 0.04571731 -0.01807826
v -0.03771643 0 -0.05615702
v -0.03771643 0 -0.01807826
v 0.03771649 0 -0.01807826
v 0.03771649 0 -0.05615702
vt 0.3983712 0.488712
vt 0.3983781 0.4881943
vt 0.3974319 0.4881951
vt 0.3974179 0.4887116
vt 0.3983781 0.4881943
vt 0.3983869 0.4881981
vt 0.3974512 0.4881986
vt 0.3974319 0.4881951
vt 0.3983869 0.4881981
vt 0.3983934 0.4887068
vt 0.3974665 0.4887065
vt 0.3974512 0.4881986
vt 0.1391179 0.4005893
vt 0.1391119 0.4006053
vt 0.1384651 0.4006024
vt 0.1384783 0.4005864
vt 0.3974179 0.4887116
vt 0.3974319 0.4881951
vt 0.3974512 0.4881986
vt 0.3974665 0.4887065
vt 0.3974189 0.489193
vt 0.3974674 0.4891745
vt 0.3983934 0.4887068
vt 0.3983869 0.4881981
vt 0.3983781 0.4881943
vt 0.3983712 0.488712
vt 0.3983933 0.4891758
vt 0.3983711 0.4891944
vt 0.1391073 0.4003173
vt 0.1391074 0.3996189
vt 0.138453 0.399618
vt 0.1384543 0.400315
vt 0.1384543 0.400315
vt 0.138453 0.399618
vt 0.1384864 0.3996052
vt 0.1384876 0.400283
vt 0.1384651 0.4006024
vt 0.1384783 0.4005864
vt 0.1391226 0.3996062
vt 0.1391225 0.4002853
vt 0.1384876 0.400283
vt 0.1384864 0.3996052
vt 0.1391225 0.4002853
vt 0.1391226 0.3996062
vt 0.1391074 0.3996189
vt 0.1391073 0.4003173
vt 0.1391179 0.4005893
vt 0.1391119 0.4006053
vt 0.1391119 0.4006053
vt 0.1391073 0.4003173
vt 0.1384543 0.400315
vt 0.1384651 0.4006024
vt 0.1391225 0.4002853
vt 0.1391179 0.4005893
vt 0.1384783 0.4005864
vt 0.1384876 0.400283
vt 0.3983711 0.4891944
vt 0.3983712 0.488712
vt 0.3974179 0.4887116
vt 0.3974189 0.489193
vt 0.3983934 0.4887068
vt 0.3983933 0.4891758
vt 0.3974674 0.4891745
vt 0.3974665 0.4887065
vn 0 0.9478082 -0.3188409
vn 0 0.9478082 -0.3188409
vn 0 0.9478082 -0.3188409
vn 0 0.9478082 -0.3188409
vn 0 0 -1
vn 0 0 -1
vn 0 0 -1
vn 0 0 -1
vn 0 -0.9478082 -0.3188409
vn 0 -0.9478082 -0.3188409
vn 0 -0.9478082 -0.3188409
vn 0 -0.9478082 -0.3188409
vn 0 0 1
vn 0 0 1
vn 0 0 1
vn 0 0 1
vn 1 0 0
vn 1 0 0
vn 1 0 0
vn 1 0 0
vn 1 0 0
vn 1 0 0
vn -1 0 0
vn -1 0 0
vn -1 0 0
vn -1 0 0
vn -1 0 0
vn -1 0 0
vn 0 1 0
vn 0 1 0
vn 0 1 0
vn 0 1 0
vn 1 0 0
vn 1 0 0
vn 1 0 0
vn 1 0 0
vn 1 0 0
vn 1 0 0
vn 0 -1 0
vn 0 -1 0
vn 0 -1 0
vn 0 -1 0
vn -1 0 0
vn -1 0 0
vn -1 0 0
vn -1 0 0
vn -1 0 0
vn -1 0 0
vn 0 0.9293879 0.3691045
vn 0 0.9293879 0.3691045
vn 0 0.9293879 0.3691045
vn 0 0.9293879 0.3691045
vn 0 -0.9293879 0.3691045
vn 0 -0.9293879 0.3691045
vn 0 -0.9293879 0.3691045
vn 0 -0.9293879 0.3691045
vn 0 1 0
vn 0 1 0
vn 0 1 0
vn 0 1 0
vn 0 -1 0
vn 0 -1 0
vn 0 -1 0
vn 0 -1 0
g SM_Prop_Snack_07_0
f 3/3/3 2/2/2 1/1/1
f 4/4/4 3/3/3 1/1/1
f 7/7/7 6/6/6 5/5/5
f 8/8/8 7/7/7 5/5/5
f 11/11/11 10/10/10 9/9/9
f 12/12/12 11/11/11 9/9/9
f 15/15/15 14/14/14 13/13/13
f 16/16/16 15/15/15 13/13/13
f 19/19/19 18/18/18 17/17/17
f 20/20/20 19/19/19 17/17/17
f 20/20/20 17/17/17 21/21/21
f 22/22/22 20/20/20 21/21/21
f 25/25/25 24/24/24 23/23/23
f 26/26/26 25/25/25 23/23/23
f 26/26/26 23/23/23 27/27/27
f 28/28/28 26/26/26 27/27/27
f 31/31/31 30/30/30 29/29/29
f 32/32/32 31/31/31 29/29/29
f 35/35/35 34/34/34 33/33/33
f 36/36/36 35/35/35 33/33/33
f 36/36/36 33/33/33 37/37/37
f 38/38/38 36/36/36 37/37/37
f 41/41/41 40/40/40 39/39/39
f 42/42/42 41/41/41 39/39/39
f 45/45/45 44/44/44 43/43/43
f 46/46/46 45/45/45 43/43/43
f 46/46/46 43/43/43 47/47/47
f 48/48/48 46/46/46 47/47/47
f 51/51/51 50/50/50 49/49/49
f 52/52/52 51/51/51 49/49/49
f 55/55/55 54/54/54 53/53/53
f 56/56/56 55/55/55 53/53/53
f 59/59/59 58/58/58 57/57/57
f 60/60/60 59/59/59 57/57/57
f 63/63/63 62/62/62 61/61/61
f 64/64/64 63/63/63 61/61/61
