g SM_Prop_Papers_01
v -0.2112456 0.009073789 -0.05833809
v -0.05355438 0.009073789 0.08401329
v -0.07643753 0.009073789 0.09639785
v -0.1281875 0.009073789 -0.1188971
v 0.1059116 0.009073789 -0.1272824
v -0.03804985 0.009073789 -0.246418
v -0.2965433 0.006127604 0.02641563
v -0.2965433 0.006127604 -0.2737832
v -0.1096793 0.006127604 -0.2737832
v -0.1096793 0.006127604 0.02641563
v 0.1766573 0.006127604 0.05611221
v -0.07258507 0.006127604 -0.1180667
v 0.08811233 0.006127604 -0.2134319
v 0.291126 0.006127604 -0.09158729
v -0.4551619 0.004458451 -0.2504762
v -0.3927498 0.004458451 -0.2798779
v -0.2386692 0.004458451 -0.1459028
v -0.3755263 0.004458451 -0.08143082
v 0.3187085 0.006127604 -0.4745172
v 0.3482944 0.006127604 -0.3781843
v 0.1696651 0.006127604 -0.3233235
v 0.1546462 0.006127604 -0.4530509
v 0.09730499 0.006127604 0.3624785
v -0.0442247 0.006127604 0.4745171
v -0.1427486 0.006127604 0.3157359
v 0.02469063 0.006127604 0.2112022
v 0.8519577 0.006127604 0.4038147
v 0.794423 0.02651407 0.4123839
v 0.6999608 0.02651407 0.2552916
v 0.8093776 0.006127604 0.2462458
v 0.794423 0.02651407 0.4123839
v 0.6109717 0.006127604 0.4397072
v 0.584927 0.006127604 0.2648417
v 0.6999608 0.02651407 0.2552916
v 0.6912207 0.004065415 0.1528503
v 0.73114 0.004065415 0.1072932
v 0.7950873 0.004065415 0.1630173
v 0.6695331 0.004065415 0.2601148
v 0.7292582 0.004065415 0.3014395
v -0.8519577 0.004065415 0.02661247
v -0.7160149 0.004065415 -0.03427048
v -0.6878669 0.004065415 0.0326812
v -0.8279901 0.004065415 0.1079757
v -0.7698396 0.004065415 0.09101929
vt 0.3630288 0.3258624
vt 0.3887091 0.3302471
vt 0.3887091 0.3258624
vt 0.3630288 0.3415459
vt 0.3887091 0.3570549
vt 0.3630288 0.3570549
vt 0.390193 0.3255709
vt 0.390193 0.3571656
vt 0.4156913 0.3571656
vt 0.4156913 0.3255709
vt 0.390193 0.3255709
vt 0.390193 0.3571656
vt 0.4156913 0.3571656
vt 0.4156913 0.3255709
vt 0.3630288 0.3258624
vt 0.3630288 0.333031
vt 0.3887091 0.3415816
vt 0.3887091 0.3258624
vt 0.3630288 0.3465839
vt 0.3630288 0.3570549
vt 0.3887091 0.3570549
vt 0.3887091 0.340533
vt 0.390193 0.3255709
vt 0.390193 0.3463995
vt 0.4156913 0.3463455
vt 0.4156913 0.3255709
vt 0.3630288 0.3258624
vt 0.3630288 0.33481
vt 0.3887091 0.3411095
vt 0.3887091 0.3258624
vt 0.3630288 0.33481
vt 0.3630288 0.3570549
vt 0.3887091 0.3570549
vt 0.3887091 0.3411095
vt 0.4061444 0.3463657
vt 0.4156913 0.3463455
vt 0.4156913 0.3360344
vt 0.390193 0.3391042
vt 0.3901929 0.3294244
vt 0.4156913 0.3360344
vt 0.3901929 0.3294244
vt 0.390193 0.3391042
vt 0.4156913 0.3463455
vt 0.4061444 0.3463657
vn 0 1 0
vn 0 1 0
vn 0 1 0
vn 0 1 0
vn 0 1 0
vn 0 1 0
vn 0 1 0
vn 0 1 0
vn 0 1 0
vn 0 1 0
vn 0 1 0
vn 0 1 0
vn 0 1 0
vn 0 1 0
vn 0 1 0
vn 0 1 0
vn 0 1 0
vn 0 1 0
vn 0 1 0
vn 0 1 0
vn 0 1 0
vn 0 1 0
vn 0 1 0
vn 0 1 0
vn 0 1 0
vn 0 1 0
vn 0.2262684 0.9690673 -0.09854518
vn 0.2262684 0.9690673 -0.09854518
vn 0.2262684 0.9690673 -0.09854518
vn 0.2262684 0.9690673 -0.09854519
vn -0.1294902 0.9904659 0.04700732
vn -0.1294902 0.9904659 0.04700732
vn -0.1294902 0.9904659 0.04700733
vn -0.1294902 0.9904659 0.04700733
vn 0 1 0
vn 0 1 0
vn 0 1 0
vn 0 1 0
vn 0 1 0
vn 0 1 0
vn 0 1 0
vn 0 1 0
vn 0 1 0
vn 0 1 0
g SM_Prop_Papers_01_0
f 3/3/3 2/2/2 1/1/1
f 2/2/2 4/4/4 1/1/1
f 2/2/2 5/5/5 4/4/4
f 5/5/5 6/6/6 4/4/4
f 9/9/9 8/8/8 7/7/7
f 10/10/10 9/9/9 7/7/7
f 13/13/13 12/12/12 11/11/11
f 14/14/14 13/13/13 11/11/11
f 17/17/17 16/16/16 15/15/15
f 18/18/18 17/17/17 15/15/15
f 21/21/21 20/20/20 19/19/19
f 22/22/22 21/21/21 19/19/19
f 25/25/25 24/24/24 23/23/23
f 26/26/26 25/25/25 23/23/23
f 29/29/29 28/28/28 27/27/27
f 30/30/30 29/29/29 27/27/27
f 33/33/33 32/32/32 31/31/31
f 34/34/34 33/33/33 31/31/31
f 37/37/37 36/36/36 35/35/35
f 35/35/35 38/38/38 37/37/37
f 38/38/38 39/39/39 37/37/37
f 42/42/42 41/41/41 40/40/40
f 40/40/40 43/43/43 42/42/42
f 43/43/43 44/44/44 42/42/42
