g SM_Prop_Art_07
v -0.01454834 0.2888394 0.008195801
v -0.02757568 0.3306079 0.008195801
v -0.00741394 0.3239639 0.008195801
v 0.0282959 0.3317258 0.008195801
v 0.01997436 0.2922913 0.008195801
v 0.009729004 0.3246942 0.008195801
v -0.03922912 0.3180341 0.008195801
v -0.02757568 0.3306079 0.008195801
v -0.01454834 0.2888394 0.008195801
v -0.07276978 0.312334 0.008195801
v -0.0925061 0.27936 0.008195801
v -0.0001611328 0.2650696 0.008195801
v -0.09380188 0.2459204 0.008195801
v -0.09898803 0.1121625 0.008195801
v 0.09964233 0.1121625 0.008195801
v 0.09399414 0.2459204 0.008195801
v 0.09258423 0.27936 0.008195801
v 0.07312622 0.3095419 0.008195801
v 0.01997436 0.2922913 0.008195801
v 0.04452148 0.3109888 0.008195801
v 0.0282959 0.3317258 0.008195801
v -0.03440186 0.4300342 0.008195801
v -0.01832397 0.441618 0.008195801
v 0.03468811 0.4398633 0.008195801
v 0.04413391 0.4228412 0.008195801
v 0.04225464 0.3990774 0.008195801
v -0.001442871 0.3966314 0.008195801
v -0.03636352 0.398876 0.008195801
v -0.04637207 0.392782 0.008195801
v -0.03515137 0.3874127 0.008195801
v 0.0370105 0.3856992 0.008195801
v 0.05037292 0.3913296 0.008195801
v 0.01997436 0.2922913 0.008195801
v 0.0007214355 0.3212827 0.008195801
v 0.009729004 0.3246942 0.008195801
v -0.01454834 0.2888394 0.008195801
v -0.0001611328 0.2650696 0.008195801
v -0.00741394 0.3239639 0.008195801
v -0.0925061 0.27936 0.008195801
v -0.09380188 0.2459204 0.008195801
v -0.1360742 0.2459204 0.008195801
v -0.1360742 0.27936 0.008195801
v 0.1360742 0.2459204 0.008195801
v 0.1360742 0.1121625 0.008195801
v 0.09964233 0.1121625 0.008195801
v 0.09399414 0.2459204 0.008195801
v -0.09380188 0.2459204 0.008195801
v -0.09898803 0.1121625 0.008195801
v -0.1360742 0.1121625 0.008195801
v -0.1360742 0.2459204 0.008195801
v 0.1360742 0.27936 0.008195801
v 0.1360742 0.2459204 0.008195801
v 0.09399414 0.2459204 0.008195801
v 0.09258423 0.27936 0.008195801
v -0.03440186 0.4300342 0.008195801
v -0.03636352 0.398876 0.008195801
v -0.04637207 0.392782 0.008195801
v -0.1360742 0.3943347 0.008195801
v -0.1360742 0.5093091 0.008195801
v -0.01832397 0.441618 0.008195801
v 0 0.5093091 0.008195801
v 0.03468811 0.4398633 0.008195801
v 0.1360742 0.5093091 0.008195801
v 0.04413391 0.4228412 0.008195801
v 0.1360742 0.3943347 0.008195801
v 0.04225464 0.3990774 0.008195801
v 0.05037292 0.3913296 0.008195801
v 0.0370105 0.3856992 0.008195801
v 0.03603638 0.3615192 0.008195801
v 0.0282959 0.3317258 0.008195801
v 0.04452148 0.3109888 0.008195801
v 0.07312622 0.3095419 0.008195801
v 0.09258423 0.27936 0.008195801
v 0.1360742 0.27936 0.008195801
v 0.0007214355 0.3212827 0.008195801
v -0.00741394 0.3239639 0.008195801
v -0.02757568 0.3306079 0.008195801
v 0.0002355957 0.3626813 0.008195801
v -0.03556519 0.3638437 0.008195801
v -0.03515137 0.3874127 0.008195801
v -0.001442871 0.3966314 0.008195801
v 0.0370105 0.3856992 0.008195801
v 0.03603638 0.3615192 0.008195801
v 0.0282959 0.3317258 0.008195801
v 0.009729004 0.3246942 0.008195801
v -0.07276978 0.312334 0.008195801
v -0.0925061 0.27936 0.008195801
v -0.1360742 0.27936 0.008195801
v -0.03922912 0.3180341 0.008195801
v -0.02757568 0.3306079 0.008195801
v -0.03556519 0.3638437 0.008195801
v -0.03515137 0.3874127 0.008195801
v 0.2499994 0 -0.03023682
v 0.2499994 0.6214709 -0.03023682
v -0.2499988 0.6214709 -0.03023682
v -0.2499988 0 -0.03023682
v 0.2499994 0.6214709 -0.03023682
v 0.2499994 0.6214709 0.03023743
v -0.2499988 0.6214709 0.03023743
v -0.2499988 0.6214709 -0.03023682
v 0.2499994 0 0.03023743
v 0.2499994 0 -0.03023682
v -0.2499988 0 -0.03023682
v -0.2499988 0 0.03023743
v -0.2499988 0 -0.03023682
v -0.2499988 0.6214709 -0.03023682
v -0.2499988 0.6214709 0.03023743
v -0.2499988 0 0.03023743
v 0.2499994 0 0.03023743
v 0.2499994 0.6214709 0.03023743
v 0.2499994 0.6214709 -0.03023682
v 0.2499994 0 -0.03023682
v 0.2038574 0.5728278 0.03023743
v 0.1928772 0.5619799 0.008195801
v -0.192876 0.5619799 0.008195801
v -0.2038562 0.5728278 0.03023743
v -0.2038562 0.5728278 0.03023743
v -0.192876 0.5619799 0.008195801
v -0.192876 0.05949157 0.008195801
v -0.2038562 0.04864471 0.03023743
v -0.2038562 0.04864471 0.03023743
v -0.192876 0.05949157 0.008195801
v 0.1928772 0.05949157 0.008195801
v 0.2038574 0.04864471 0.03023743
v 0.2038574 0.04864471 0.03023743
v 0.1928772 0.05949157 0.008195801
v 0.1928772 0.5619799 0.008195801
v 0.2038574 0.5728278 0.03023743
v 0.2499994 0.6214709 0.03023743
v 0.2038574 0.5728278 0.03023743
v -0.2038562 0.5728278 0.03023743
v -0.2499988 0.6214709 0.03023743
v 0.2499994 0 0.03023743
v -0.2038562 0.04864471 0.03023743
v 0.2038574 0.04864471 0.03023743
v -0.2499988 0 0.03023743
v 0.1928772 0.5619799 0.008195801
v 0.1360748 0.5093091 0.008195801
v -0.1360742 0.5093091 0.008195801
v -0.192876 0.5619799 0.008195801
v 0.1928772 0.05949157 0.008195801
v -0.1360742 0.1121625 0.008195801
v 0.1360748 0.1121625 0.008195801
v -0.192876 0.05949157 0.008195801
vt 0.1367188 0.379364
vt 0.1367188 0.379364
vt 0.1367188 0.379364
vt 0.1367188 0.379364
vt 0.1367188 0.379364
vt 0.1367188 0.379364
vt 0.08679199 0.2274933
vt 0.08679199 0.2274933
vt 0.08679199 0.2274933
vt 0.08679199 0.2274933
vt 0.08679199 0.2274933
vt 0.08679199 0.2274933
vt 0.08679199 0.2274933
vt 0.08679199 0.2274933
vt 0.08679199 0.2274933
vt 0.08679199 0.2274933
vt 0.08679199 0.2274933
vt 0.08679199 0.2274933
vt 0.08679199 0.2274933
vt 0.08679199 0.2274933
vt 0.08679199 0.2274933
vt 0.08679199 0.2274933
vt 0.08679199 0.2274933
vt 0.08679199 0.2274933
vt 0.08679199 0.2274933
vt 0.08679199 0.2274933
vt 0.08679199 0.2274933
vt 0.08679199 0.2274933
vt 0.08679199 0.2274933
vt 0.08679199 0.2274933
vt 0.08679199 0.2274933
vt 0.08679199 0.2274933
vt 0.1397705 0.4476471
vt 0.1397705 0.4476471
vt 0.1397705 0.4476471
vt 0.1397705 0.4476471
vt 0.1397705 0.4476471
vt 0.1397705 0.4476471
vt 0.05822754 0.2988434
vt 0.05822754 0.2988434
vt 0.05822754 0.2988434
vt 0.05822754 0.2988434
vt 0.06030273 0.3569412
vt 0.06030273 0.3569412
vt 0.06030273 0.3569412
vt 0.06030273 0.3569412
vt 0.06030273 0.3569412
vt 0.06030273 0.3569412
vt 0.06030273 0.3569412
vt 0.06030273 0.3569412
vt 0.05822754 0.2988434
vt 0.05822754 0.2988434
vt 0.05822754 0.2988434
vt 0.05822754 0.2988434
vt 0.06945801 0.3273773
vt 0.06945801 0.3273773
vt 0.06945801 0.3273773
vt 0.06945801 0.3273849
vt 0.06945801 0.3273926
vt 0.06945801 0.3273773
vt 0.06945801 0.3273926
vt 0.06945801 0.3273773
vt 0.06945801 0.3273926
vt 0.06945801 0.3273773
vt 0.06945801 0.3273849
vt 0.06945801 0.3273773
vt 0.06945801 0.3273773
vt 0.06945801 0.3273773
vt 0.06945801 0.3273773
vt 0.06945801 0.3273773
vt 0.06945801 0.3273773
vt 0.06945801 0.3273773
vt 0.06945801 0.3273773
vt 0.06945801 0.3273773
vt 0.03942871 0.3578491
vt 0.03942871 0.3578491
vt 0.03942871 0.3578491
vt 0.03942871 0.3578491
vt 0.03942871 0.3578491
vt 0.03942871 0.3578491
vt 0.03942871 0.3578491
vt 0.03942871 0.3578491
vt 0.03942871 0.3578491
vt 0.03942871 0.3578491
vt 0.03942871 0.3578491
vt 0.06945801 0.3273773
vt 0.06945801 0.3273773
vt 0.06945801 0.3273773
vt 0.06945801 0.3273773
vt 0.06945801 0.3273773
vt 0.06945801 0.3273773
vt 0.06945801 0.3273773
vt 0.09163044 0.2299372
vt 0.09163044 0.2299372
vt 0.09163044 0.2299372
vt 0.09163044 0.2299372
vt 0.09163044 0.2299372
vt 0.09163044 0.2299372
vt 0.09163044 0.2299372
vt 0.09163044 0.2299372
vt 0.09163044 0.2299372
vt 0.09163044 0.2299372
vt 0.09163044 0.2299372
vt 0.09163044 0.2299372
vt 0.09163044 0.2299372
vt 0.09163044 0.2299372
vt 0.09163044 0.2299372
vt 0.09163044 0.2299372
vt 0.09163044 0.2299372
vt 0.09163044 0.2299372
vt 0.09163044 0.2299372
vt 0.09163044 0.2299372
vt 0.09163044 0.2299372
vt 0.09163044 0.2299372
vt 0.09163044 0.2299372
vt 0.09163044 0.2299372
vt 0.09163044 0.2299372
vt 0.09163044 0.2299372
vt 0.09163044 0.2299372
vt 0.09163044 0.2299372
vt 0.09163044 0.2299372
vt 0.09163044 0.2299372
vt 0.09163044 0.2299372
vt 0.09163044 0.2299372
vt 0.09163044 0.2299372
vt 0.09163044 0.2299372
vt 0.09163044 0.2299372
vt 0.09163044 0.2299372
vt 0.09163044 0.2299372
vt 0.09163044 0.2299372
vt 0.09163044 0.2299372
vt 0.09163044 0.2299372
vt 0.09163044 0.2299372
vt 0.09163044 0.2299372
vt 0.09163044 0.2299372
vt 0.09163044 0.2299372
vt 0.07006836 0.3795166
vt 0.07006836 0.3795166
vt 0.07006836 0.3795166
vt 0.07006836 0.3795166
vt 0.07006836 0.3795166
vt 0.07006836 0.3795166
vt 0.07006836 0.3795166
vt 0.07006836 0.3795166
vn 0 0 1
vn 0 0 1
vn 0 0 1
vn 0 0 1
vn 0 0 1
vn 0 0 1
vn 0 0 1
vn 0 0 1
vn 0 0 1
vn 0 0 1
vn 0 0 1
vn 0 0 1
vn 0 0 1
vn 0 0 1
vn 0 0 1
vn 0 0 1
vn 0 0 1
vn 0 0 1
vn 0 0 1
vn 0 0 1
vn 0 0 1
vn 0 0 1
vn 0 0 1
vn 0 0 1
vn 0 0 1
vn 0 0 1
vn 0 0 1
vn 0 0 1
vn 0 0 1
vn 0 0 1
vn 0 0 1
vn 0 0 1
vn 0 0 1
vn 0 0 1
vn 0 0 1
vn 0 0 1
vn 0 0 1
vn 0 0 1
vn 0 0 1
vn 0 0 1
vn 0 0 1
vn 0 0 1
vn 0 0 1
vn 0 0 1
vn 0 0 1
vn 0 0 1
vn 0 0 1
vn 0 0 1
vn 0 0 1
vn 0 0 1
vn 0 0 1
vn 0 0 1
vn 0 0 1
vn 0 0 1
vn 0 0 1
vn 0 0 1
vn 0 0 1
vn 0 0 1
vn 0 0 1
vn 0 0 1
vn 0 0 1
vn 0 0 1
vn 0 0 1
vn 0 0 1
vn 0 0 1
vn 0 0 1
vn 0 0 1
vn 0 0 1
vn 0 0 1
vn 0 0 1
vn 0 0 1
vn 0 0 1
vn 0 0 1
vn 0 0 1
vn 0 0 1
vn 0 0 1
vn 0 0 1
vn 0 0 1
vn 0 0 1
vn 0 0 1
vn 0 0 1
vn 0 0 1
vn 0 0 1
vn 0 0 1
vn 0 0 1
vn 0 0 1
vn 0 0 1
vn 0 0 1
vn 0 0 1
vn 0 0 1
vn 0 0 1
vn 0 0 1
vn 0 0 -1
vn 0 0 -1
vn 0 0 -1
vn 0 0 -1
vn 0 1 0
vn 0 1 0
vn 0 1 0
vn 0 1 0
vn 0 -1 0
vn 0 -1 0
vn 0 -1 0
vn 0 -1 0
vn -1 0 0
vn -1 0 0
vn -1 0 0
vn -1 0 0
vn 1 0 0
vn 1 0 0
vn 1 0 0
vn 1 0 0
vn 0 -0.8972269 0.4415699
vn 0 -0.8972269 0.4415699
vn 0 -0.8972269 0.4415699
vn 0 -0.8972269 0.4415699
vn 0.8950855 0 0.4458945
vn 0.8950855 0 0.4458945
vn 0.8950855 0 0.4458945
vn 0.8950855 0 0.4458945
vn 0 0.8972416 0.4415398
vn 0 0.8972416 0.4415398
vn 0 0.8972416 0.4415398
vn 0 0.8972416 0.4415398
vn -0.8950855 0 0.4458945
vn -0.8950855 0 0.4458945
vn -0.8950855 0 0.4458945
vn -0.8950855 0 0.4458945
vn 0 0 1
vn 0 0 1
vn 0 0 1
vn 0 0 1
vn 0 0 1
vn 0 0 1
vn 0 0 1
vn 0 0 1
vn 0 0 1
vn 0 0 1
vn 0 0 1
vn 0 0 1
vn 0 0 1
vn 0 0 1
vn 0 0 1
vn 0 0 1
g SM_Prop_Art_07_0
f 3/3/3 2/2/2 1/1/1
f 6/6/6 5/5/5 4/4/4
f 9/9/9 8/8/8 7/7/7
f 9/9/9 7/7/7 10/10/10
f 9/9/9 10/10/10 11/11/11
f 12/12/12 9/9/9 11/11/11
f 12/12/12 11/11/11 13/13/13
f 12/12/12 13/13/13 14/14/14
f 12/12/12 14/14/14 15/15/15
f 16/16/16 12/12/12 15/15/15
f 16/16/16 17/17/17 12/12/12
f 17/17/17 18/18/18 12/12/12
f 18/18/18 19/19/19 12/12/12
f 18/18/18 20/20/20 19/19/19
f 20/20/20 21/21/21 19/19/19
f 24/24/24 23/23/23 22/22/22
f 25/25/25 24/24/24 22/22/22
f 26/26/26 25/25/25 22/22/22
f 22/22/22 27/27/27 26/26/26
f 22/22/22 28/28/28 27/27/27
f 28/28/28 29/29/29 27/27/27
f 29/29/29 30/30/30 27/27/27
f 26/26/26 27/27/27 31/31/31
f 32/32/32 26/26/26 31/31/31
f 35/35/35 34/34/34 33/33/33
f 34/34/34 36/36/36 33/33/33
f 36/36/36 37/37/37 33/33/33
f 34/34/34 38/38/38 36/36/36
f 41/41/41 40/40/40 39/39/39
f 42/42/42 41/41/41 39/39/39
f 45/45/45 44/44/44 43/43/43
f 46/46/46 45/45/45 43/43/43
f 49/49/49 48/48/48 47/47/47
f 50/50/50 49/49/49 47/47/47
f 53/53/53 52/52/52 51/51/51
f 54/54/54 53/53/53 51/51/51
f 57/57/57 56/56/56 55/55/55
f 58/58/58 57/57/57 55/55/55
f 59/59/59 58/58/58 55/55/55
f 59/59/59 55/55/55 60/60/60
f 61/61/61 59/59/59 60/60/60
f 61/61/61 60/60/60 62/62/62
f 61/61/61 62/62/62 63/63/63
f 62/62/62 64/64/64 63/63/63
f 64/64/64 65/65/65 63/63/63
f 64/64/64 66/66/66 65/65/65
f 66/66/66 67/67/67 65/65/65
f 67/67/67 68/68/68 65/65/65
f 68/68/68 69/69/69 65/65/65
f 69/69/69 70/70/70 65/65/65
f 70/70/70 71/71/71 65/65/65
f 71/71/71 72/72/72 65/65/65
f 72/72/72 73/73/73 65/65/65
f 73/73/73 74/74/74 65/65/65
f 77/77/77 76/76/76 75/75/75
f 78/78/78 77/77/77 75/75/75
f 78/78/78 79/79/79 77/77/77
f 78/78/78 80/80/80 79/79/79
f 78/78/78 81/81/81 80/80/80
f 78/78/78 82/82/82 81/81/81
f 78/78/78 83/83/83 82/82/82
f 83/83/83 78/78/78 84/84/84
f 78/78/78 75/75/75 84/84/84
f 75/75/75 85/85/85 84/84/84
f 88/88/88 87/87/87 86/86/86
f 58/58/58 88/88/88 86/86/86
f 58/58/58 86/86/86 89/89/89
f 58/58/58 89/89/89 90/90/90
f 58/58/58 90/90/90 91/91/91
f 58/58/58 91/91/91 57/57/57
f 91/91/91 92/92/92 57/57/57
f 95/95/95 94/94/94 93/93/93
f 96/96/96 95/95/95 93/93/93
f 99/99/99 98/98/98 97/97/97
f 100/100/100 99/99/99 97/97/97
f 103/103/103 102/102/102 101/101/101
f 104/104/104 103/103/103 101/101/101
f 107/107/107 106/106/106 105/105/105
f 108/108/108 107/107/107 105/105/105
f 111/111/111 110/110/110 109/109/109
f 112/112/112 111/111/111 109/109/109
f 115/115/115 114/114/114 113/113/113
f 116/116/116 115/115/115 113/113/113
f 119/119/119 118/118/118 117/117/117
f 120/120/120 119/119/119 117/117/117
f 123/123/123 122/122/122 121/121/121
f 124/124/124 123/123/123 121/121/121
f 127/127/127 126/126/126 125/125/125
f 128/128/128 127/127/127 125/125/125
f 131/131/131 130/130/130 129/129/129
f 132/132/132 131/131/131 129/129/129
f 129/129/129 130/130/130 133/133/133
f 134/134/134 131/131/131 132/132/132
f 130/130/130 135/135/135 133/133/133
f 136/136/136 134/134/134 132/132/132
f 133/133/133 135/135/135 136/136/136
f 135/135/135 134/134/134 136/136/136
f 139/139/139 138/138/138 137/137/137
f 140/140/140 139/139/139 137/137/137
f 137/137/137 138/138/138 141/141/141
f 142/142/142 139/139/139 140/140/140
f 138/138/138 143/143/143 141/141/141
f 144/144/144 142/142/142 140/140/140
f 141/141/141 143/143/143 144/144/144
f 143/143/143 142/142/142 144/144/144
