g SM_Prop_DeskToy_NewtownsCradle_01
v -0.2141894 0 0.1326914
v -0.1884961 0.05323774 0.1167743
v 0.1884961 0.05323774 0.1167743
v 0.2141894 0 0.1326914
v -0.1884961 0.05323774 0.1167743
v -0.1884961 0.05323774 -0.1167743
v 0.1884961 0.05323774 -0.1167743
v 0.1884961 0.05323774 0.1167743
v -0.1884961 0.05323774 -0.1167743
v -0.2141894 0 -0.1326914
v 0.2141894 0 -0.1326914
v 0.1884961 0.05323774 -0.1167743
v -0.2141894 0 -0.1326914
v -0.2141894 0 0.1326914
v 0.2141894 0 0.1326914
v 0.2141894 0 -0.1326914
v 0.2141894 0 0.1326914
v 0.1884961 0.05323774 0.1167743
v 0.1884961 0.05323774 -0.1167743
v 0.2141894 0 -0.1326914
v -0.2141894 0 -0.1326914
v -0.1884961 0.05323774 -0.1167743
v -0.1884961 0.05323774 0.1167743
v -0.2141894 0 0.1326914
v 0.147027 0.05323774 0.09378276
v 0.1663559 0.3832154 0.09378276
v 0.1663559 0.05323774 0.09378276
v 0.147027 0.3638865 0.09378276
v -0.1663559 0.3832154 0.09378276
v -0.147027 0.3638865 0.09378276
v -0.147027 0.05323774 0.09378276
v -0.1663559 0.05323774 0.09378276
v 0.147027 0.3638865 0.07445386
v 0.147027 0.05323774 0.07445386
v 0.1663559 0.05323774 0.07445386
v 0.1663559 0.3832154 0.07445386
v -0.147027 0.3638865 0.07445386
v -0.1663559 0.3832154 0.07445386
v -0.1663559 0.05323774 0.07445386
v -0.147027 0.05323774 0.07445386
v 0.1663559 0.05323774 0.09378276
v 0.1663559 0.3832154 0.09378276
v 0.1663559 0.3832154 0.07445386
v 0.1663559 0.05323774 0.07445386
v 0.147027 0.05323774 0.07445386
v 0.147027 0.3638865 0.07445386
v 0.147027 0.3638865 0.09378276
v 0.147027 0.05323774 0.09378276
v -0.1663559 0.05323774 0.09378276
v -0.1663559 0.05323774 0.07445386
v -0.1663559 0.3832154 0.07445386
v -0.1663559 0.3832154 0.09378276
v -0.147027 0.05323774 0.07445386
v -0.147027 0.05323774 0.09378276
v -0.147027 0.3638865 0.09378276
v -0.147027 0.3638865 0.07445386
v 0.1663559 0.3832154 0.09378276
v -0.1663559 0.3832154 0.09378276
v -0.1663559 0.3832154 0.07445386
v 0.1663559 0.3832154 0.07445386
v 0.147027 0.3638865 0.07445386
v -0.147027 0.3638865 0.07445386
v -0.147027 0.3638865 0.09378276
v 0.147027 0.3638865 0.09378276
v 0.147027 0.05323774 -0.09378276
v 0.1663559 0.05323774 -0.09378276
v 0.1663559 0.3832154 -0.09378276
v 0.147027 0.3638865 -0.09378276
v -0.1663559 0.3832154 -0.09378276
v -0.147027 0.3638865 -0.09378276
v -0.147027 0.05323774 -0.09378276
v -0.1663559 0.05323774 -0.09378276
v 0.147027 0.3638865 -0.07445386
v 0.1663559 0.05323774 -0.07445386
v 0.147027 0.05323774 -0.07445386
v 0.1663559 0.3832154 -0.07445386
v -0.147027 0.3638865 -0.07445386
v -0.1663559 0.3832154 -0.07445386
v -0.1663559 0.05323774 -0.07445386
v -0.147027 0.05323774 -0.07445386
v 0.1663559 0.05323774 -0.09378276
v 0.1663559 0.05323774 -0.07445386
v 0.1663559 0.3832154 -0.07445386
v 0.1663559 0.3832154 -0.09378276
v 0.147027 0.05323774 -0.07445386
v 0.147027 0.05323774 -0.09378276
v 0.147027 0.3638865 -0.09378276
v 0.147027 0.3638865 -0.07445386
v -0.1663559 0.05323774 -0.09378276
v -0.1663559 0.3832154 -0.09378276
v -0.1663559 0.3832154 -0.07445386
v -0.1663559 0.05323774 -0.07445386
v -0.147027 0.05323774 -0.07445386
v -0.147027 0.3638865 -0.07445386
v -0.147027 0.3638865 -0.09378276
v -0.147027 0.05323774 -0.09378276
v 0.1663559 0.3832154 -0.09378276
v 0.1663559 0.3832154 -0.07445386
v -0.1663559 0.3832154 -0.07445386
v -0.1663559 0.3832154 -0.09378276
v 0.147027 0.3638865 -0.07445386
v 0.147027 0.3638865 -0.09378276
v -0.147027 0.3638865 -0.09378276
v -0.147027 0.3638865 -0.07445386
vt 0.08023855 0.2803541
vt 0.08018807 0.2802283
vt 0.07933992 0.2801573
vt 0.07928181 0.2802713
vt 0.08018807 0.2802283
vt 0.08023071 0.2799528
vt 0.07944769 0.2798925
vt 0.07933992 0.2801573
vt 0.08023071 0.2799528
vt 0.08028176 0.2800349
vt 0.07940698 0.2799659
vt 0.07944769 0.2798925
vt 0.08028176 0.2800349
vt 0.08023855 0.2803541
vt 0.07928181 0.2802713
vt 0.07940698 0.2799659
vt 0.07928181 0.2802713
vt 0.07933992 0.2801573
vt 0.07944769 0.2798925
vt 0.07940698 0.2799659
vt 0.08028176 0.2800349
vt 0.08023071 0.2799528
vt 0.08018807 0.2802283
vt 0.08023855 0.2803541
vt 0.0786261 0.2120093
vt 0.07849687 0.211195
vt 0.07857656 0.2120053
vt 0.07855773 0.2112511
vt 0.0794948 0.2112444
vt 0.0794327 0.2112962
vt 0.07940245 0.2120711
vt 0.07945505 0.2120753
vt 0.07857466 0.2112292
vt 0.07864016 0.211979
vt 0.07859141 0.2119752
vt 0.07851493 0.2111738
vt 0.0794358 0.2112728
vt 0.07949695 0.2112217
vt 0.07945752 0.2120431
vt 0.07940567 0.2120391
vt 0.07857656 0.2120053
vt 0.07849687 0.211195
vt 0.07851493 0.2111738
vt 0.07859141 0.2119752
vt 0.07864016 0.211979
vt 0.07857466 0.2112292
vt 0.07855773 0.2112511
vt 0.0786261 0.2120093
vt 0.07945505 0.2120753
vt 0.07945752 0.2120431
vt 0.07949695 0.2112217
vt 0.0794948 0.2112444
vt 0.07940567 0.2120391
vt 0.07940245 0.2120711
vt 0.0794327 0.2112962
vt 0.0794358 0.2112728
vt 0.07849687 0.211195
vt 0.0794948 0.2112444
vt 0.07949695 0.2112217
vt 0.07851493 0.2111738
vt 0.07857466 0.2112292
vt 0.0794358 0.2112728
vt 0.0794327 0.2112962
vt 0.07855773 0.2112511
vt 0.0786261 0.2120093
vt 0.07857656 0.2120053
vt 0.07849687 0.211195
vt 0.07855773 0.2112511
vt 0.0794948 0.2112444
vt 0.0794327 0.2112962
vt 0.07940245 0.2120711
vt 0.07945505 0.2120753
vt 0.07857466 0.2112292
vt 0.07859141 0.2119752
vt 0.07864016 0.211979
vt 0.07851493 0.2111738
vt 0.0794358 0.2112728
vt 0.07949695 0.2112217
vt 0.07945752 0.2120431
vt 0.07940567 0.2120391
vt 0.07857656 0.2120053
vt 0.07859141 0.2119752
vt 0.07851493 0.2111738
vt 0.07849687 0.211195
vt 0.07864016 0.211979
vt 0.0786261 0.2120093
vt 0.07855773 0.2112511
vt 0.07857466 0.2112292
vt 0.07945505 0.2120753
vt 0.0794948 0.2112444
vt 0.07949695 0.2112217
vt 0.07945752 0.2120431
vt 0.07940567 0.2120391
vt 0.0794358 0.2112728
vt 0.0794327 0.2112962
vt 0.07940245 0.2120711
vt 0.07849687 0.211195
vt 0.07851493 0.2111738
vt 0.07949695 0.2112217
vt 0.0794948 0.2112444
vt 0.07857466 0.2112292
vt 0.07855773 0.2112511
vt 0.0794327 0.2112962
vt 0.0794358 0.2112728
vn 0 0.2864529 0.9580943
vn 0 0.2864529 0.9580943
vn 0 0.2864529 0.9580943
vn 0 0.2864529 0.9580943
vn 0 1 0
vn 0 1 0
vn 0 1 0
vn 0 1 0
vn 0 0.2864529 -0.9580943
vn 0 0.2864529 -0.9580943
vn 0 0.2864529 -0.9580943
vn 0 0.2864529 -0.9580943
vn 0 -1 0
vn 0 -1 0
vn 0 -1 0
vn 0 -1 0
vn 0.9006026 0.4346435 0
vn 0.9006025 0.4346435 0
vn 0.9006025 0.4346435 0
vn 0.9006026 0.4346435 0
vn -0.9006026 0.4346435 0
vn -0.9006026 0.4346435 0
vn -0.9006026 0.4346435 0
vn -0.9006026 0.4346435 0
vn 0 0 1
vn 0 0 1
vn 0 0 1
vn 0 0 1
vn 0 0 1
vn 0 0 1
vn 0 0 1
vn 0 0 1
vn 0 0 -1
vn 0 0 -1
vn 0 0 -1
vn 0 0 -1
vn 0 0 -1
vn 0 0 -1
vn 0 0 -1
vn 0 0 -1
vn 1 0 0
vn 1 0 0
vn 1 0 0
vn 1 0 0
vn -1 0 0
vn -1 0 0
vn -1 0 0
vn -1 0 0
vn -1 0 0
vn -1 0 0
vn -1 0 0
vn -1 0 0
vn 1 0 0
vn 1 0 0
vn 1 0 0
vn 1 0 0
vn 0 1 0
vn 0 1 0
vn 0 1 0
vn 0 1 0
vn 0 -1 0
vn 0 -1 0
vn 0 -1 0
vn 0 -1 0
vn 0 0 -1
vn 0 0 -1
vn 0 0 -1
vn 0 0 -1
vn 0 0 -1
vn 0 0 -1
vn 0 0 -1
vn 0 0 -1
vn 0 0 1
vn 0 0 1
vn 0 0 1
vn 0 0 1
vn 0 0 1
vn 0 0 1
vn 0 0 1
vn 0 0 1
vn 1 0 0
vn 1 0 0
vn 1 0 0
vn 1 0 0
vn -1 0 0
vn -1 0 0
vn -1 0 0
vn -1 0 0
vn -1 0 0
vn -1 0 0
vn -1 0 0
vn -1 0 0
vn 1 0 0
vn 1 0 0
vn 1 0 0
vn 1 0 0
vn 0 1 0
vn 0 1 0
vn 0 1 0
vn 0 1 0
vn 0 -1 0
vn 0 -1 0
vn 0 -1 0
vn 0 -1 0
g SM_Prop_DeskToy_NewtownsCradle_01_0
f 3/3/3 2/2/2 1/1/1
f 4/4/4 3/3/3 1/1/1
f 7/7/7 6/6/6 5/5/5
f 8/8/8 7/7/7 5/5/5
f 11/11/11 10/10/10 9/9/9
f 12/12/12 11/11/11 9/9/9
f 15/15/15 14/14/14 13/13/13
f 16/16/16 15/15/15 13/13/13
f 19/19/19 18/18/18 17/17/17
f 20/20/20 19/19/19 17/17/17
f 23/23/23 22/22/22 21/21/21
f 24/24/24 23/23/23 21/21/21
f 27/27/27 26/26/26 25/25/25
f 26/26/26 28/28/28 25/25/25
f 26/26/26 29/29/29 28/28/28
f 29/29/29 30/30/30 28/28/28
f 30/30/30 29/29/29 31/31/31
f 29/29/29 32/32/32 31/31/31
f 35/35/35 34/34/34 33/33/33
f 36/36/36 35/35/35 33/33/33
f 33/33/33 37/37/37 36/36/36
f 37/37/37 38/38/38 36/36/36
f 39/39/39 38/38/38 37/37/37
f 40/40/40 39/39/39 37/37/37
f 43/43/43 42/42/42 41/41/41
f 44/44/44 43/43/43 41/41/41
f 47/47/47 46/46/46 45/45/45
f 48/48/48 47/47/47 45/45/45
f 51/51/51 50/50/50 49/49/49
f 52/52/52 51/51/51 49/49/49
f 55/55/55 54/54/54 53/53/53
f 56/56/56 55/55/55 53/53/53
f 59/59/59 58/58/58 57/57/57
f 60/60/60 59/59/59 57/57/57
f 63/63/63 62/62/62 61/61/61
f 64/64/64 63/63/63 61/61/61
f 67/67/67 66/66/66 65/65/65
f 68/68/68 67/67/67 65/65/65
f 69/69/69 67/67/67 68/68/68
f 70/70/70 69/69/69 68/68/68
f 69/69/69 70/70/70 71/71/71
f 72/72/72 69/69/69 71/71/71
f 75/75/75 74/74/74 73/73/73
f 74/74/74 76/76/76 73/73/73
f 77/77/77 73/73/73 76/76/76
f 78/78/78 77/77/77 76/76/76
f 78/78/78 79/79/79 77/77/77
f 79/79/79 80/80/80 77/77/77
f 83/83/83 82/82/82 81/81/81
f 84/84/84 83/83/83 81/81/81
f 87/87/87 86/86/86 85/85/85
f 88/88/88 87/87/87 85/85/85
f 91/91/91 90/90/90 89/89/89
f 92/92/92 91/91/91 89/89/89
f 95/95/95 94/94/94 93/93/93
f 96/96/96 95/95/95 93/93/93
f 99/99/99 98/98/98 97/97/97
f 100/100/100 99/99/99 97/97/97
f 103/103/103 102/102/102 101/101/101
f 104/104/104 103/103/103 101/101/101
