g SM_Prop_Barber_Comb_01
v -0.02664097 -0.00441606 0.1124678
v 0.01487568 -0.00441606 0.1124678
v -0.02664097 0.00441606 0.1124678
v 0.01487568 0.00441606 0.1124678
v -0.02387266 0.00441606 -0.1124678
v 0.01487568 0.00441606 -0.1124678
v -0.02387266 -0.00441606 -0.1124678
v 0.01487568 -0.00441606 -0.1124678
v -0.03010134 0.00441606 -0.003358944
v -0.03010134 -0.00441606 -0.003358944
v -0.02387266 -0.004416059 -0.1023614
v -0.02387266 0.00441606 -0.1023614
v -0.02664097 0.00441606 0.1001396
v -0.02664097 -0.00441606 0.1001396
v -0.002054746 0.00441606 -0.003358944
v -0.002054746 -0.00441606 -0.003358944
v -0.002054746 -0.004416059 -0.1023614
v -0.002054746 0.00441606 -0.1023614
v -0.002054746 0.00441606 0.1001396
v -0.002054746 -0.00441606 0.1001396
v -0.02986069 -0.00441606 0.00383863
v -0.02986069 0.00441606 0.003838635
v -0.002054746 -0.00441606 0.00383863
v -0.002054746 0.00441606 0.003838635
v 0.01487568 0.00441606 -0.1124678
v -0.02387266 0.00441606 -0.1124678
v 0.01487568 0.00441606 0.1124678
v 0.01487568 0.00441606 -0.1124678
v 0.01487568 -0.00441606 -0.1124678
v 0.01487568 -0.00441606 0.1124678
v -0.02387266 -0.00441606 -0.1124678
v -0.02387266 0.00441606 -0.1124678
v -0.02387266 0.00441606 -0.1023614
v -0.02387266 0.00441606 -0.1023614
v -0.002054746 0.00441606 -0.1023614
v -0.03010134 0.00441606 -0.003358944
v -0.02986069 -0.00441606 0.00383863
v -0.03010134 -0.00441606 -0.003358944
v -0.02387266 -0.004416059 -0.1023614
v -0.03010134 -0.00441606 -0.003358944
v -0.002054746 -0.00441606 -0.003358944
v -0.02387266 0.00441606 -0.1023614
v -0.03010134 0.00441606 -0.003358944
v -0.03010134 -0.00441606 -0.003358944
v -0.02387266 -0.004416059 -0.1023614
v -0.02986069 0.00441606 0.003838635
v -0.02664097 0.00441606 0.1001396
v -0.02664097 0.00441606 0.1124678
v -0.02664097 -0.00441606 0.1124678
v -0.02664097 -0.00441606 0.1001396
v -0.02664097 -0.00441606 0.1124678
v 0.01487568 -0.00441606 0.1124678
v -0.02986069 -0.00441606 0.00383863
v -0.02664097 -0.00441606 0.1001396
v -0.002054746 -0.00441606 0.1001396
v -0.002054746 -0.00441606 0.00383863
v -0.02986069 0.00441606 0.003838635
v -0.02664097 0.00441606 0.1001396
v -0.02664097 -0.00441606 0.1001396
v -0.02986069 -0.00441606 0.00383863
v -0.02986069 0.00441606 0.003838635
v -0.03010134 0.00441606 -0.003358944
v -0.002054746 0.00441606 -0.003358944
v -0.002054746 0.00441606 0.003838635
v 0.01487568 -0.00441606 -0.1124678
v -0.002054746 -0.004416059 -0.1023614
v -0.002054746 0.00441606 0.1001396
v 0.01487568 0.00441606 0.1124678
v -0.02664097 0.00441606 0.1124678
v -0.02664097 0.00441606 0.1001396
v -0.02387266 -0.00441606 -0.1124678
v -0.02387266 -0.004416059 -0.1023614
vt 0.2605364 0.2070988
vt 0.2605364 0.2070988
vt 0.2605364 0.2070988
vt 0.2605364 0.2070988
vt 0.2605364 0.2070988
vt 0.2605364 0.2070988
vt 0.2605364 0.2070988
vt 0.2605364 0.2070988
vt 0.2612547 0.1682248
vt 0.2605364 0.2070988
vt 0.2605364 0.2070988
vt 0.2605364 0.2070988
vt 0.2612547 0.1682248
vt 0.2605364 0.2070988
vt 0.2612546 0.1682248
vt 0.2605364 0.2070988
vt 0.2612546 0.1682248
vt 0.2605364 0.2070988
vt 0.2612546 0.1682248
vt 0.2605364 0.2070988
vt 0.2605364 0.2070988
vt 0.2605364 0.2070988
vt 0.2605364 0.2070988
vt 0.2612546 0.1682248
vt 0.2605364 0.2070988
vt 0.2605364 0.2070988
vt 0.2605364 0.2070988
vt 0.2605364 0.2070988
vt 0.2605364 0.2070988
vt 0.2605364 0.2070988
vt 0.2605364 0.2070988
vt 0.2605364 0.2070988
vt 0.2605364 0.2070988
vt 0.2612545 0.1682248
vt 0.2612546 0.1682248
vt 0.2605364 0.2070988
vt 0.2605364 0.2070988
vt 0.2605364 0.2070988
vt 0.2612545 0.1682248
vt 0.2612547 0.1682248
vt 0.2612546 0.1682248
vt 0.2612545 0.1682248
vt 0.2612547 0.1682248
vt 0.2612547 0.1682248
vt 0.2612545 0.1682248
vt 0.2612547 0.1682248
vt 0.2605364 0.2070988
vt 0.2605364 0.2070988
vt 0.2605364 0.2070988
vt 0.2605364 0.2070988
vt 0.2605364 0.2070988
vt 0.2605364 0.2070988
vt 0.2612547 0.1682248
vt 0.2612547 0.1682248
vt 0.2612546 0.1682248
vt 0.2612546 0.1682248
vt 0.2612547 0.1682248
vt 0.2612547 0.1682248
vt 0.2612547 0.1682248
vt 0.2612547 0.1682248
vt 0.2605364 0.2070988
vt 0.2605364 0.2070988
vt 0.2605364 0.2070988
vt 0.2605364 0.2070988
vt 0.2605364 0.2070988
vt 0.2605364 0.2070988
vt 0.2605364 0.2070988
vt 0.2605364 0.2070988
vt 0.2605364 0.2070988
vt 0.2605364 0.2070988
vt 0.2605364 0.2070988
vt 0.2605364 0.2070988
vn 0 0 1
vn 0 0 1
vn 0 0 1
vn 0 0 1
vn 0 1 0
vn 0 1 0
vn 0 0 -1
vn 0 0 -1
vn 0 1 0
vn 0 -1 0
vn -0.9983745 0 -0.0569941
vn 0 1 0
vn 0 1 0
vn -0.999561 0 0.0296266
vn 0 1 0
vn 0 -1 0
vn 0 -1 0
vn 0 1 0
vn 0 1 0
vn 0 -1 0
vn 0 -1 0
vn -0.9994416 0 0.03341535
vn 0 -1 0
vn 0 1 0
vn 0 0 -1
vn 0 0 -1
vn 1 0 0
vn 1 0 0
vn 1 0 0
vn 1 0 0
vn -1 0 0
vn -1 0 0
vn -0.9983745 0 -0.0569941
vn 0 1 0
vn 0 1 0
vn -0.9984142 0 -0.05629504
vn -0.9994416 0 0.03341535
vn -0.9984142 0 -0.05629504
vn 0 -1 0
vn 0 -1 0
vn 0 -1 0
vn -0.9983745 0 -0.0569941
vn -0.9984142 0 -0.05629504
vn -0.9984142 0 -0.05629504
vn -0.9983745 0 -0.0569941
vn 0 1 0
vn -0.999561 0 0.0296266
vn -1 0 0
vn -1 0 0
vn 0 -1 0
vn 0 -1 0
vn 0 -1 0
vn 0 -1 0
vn 0 -1 0
vn 0 -1 0
vn 0 -1 0
vn -0.9994416 0 0.03341535
vn -0.999561 0 0.0296266
vn -0.999561 0 0.0296266
vn -0.9994416 0 0.03341535
vn 0 1 0
vn 0 1 0
vn 0 1 0
vn 0 1 0
vn 0 -1 0
vn 0 -1 0
vn 0 1 0
vn 0 1 0
vn 0 1 0
vn 0 1 0
vn 0 -1 0
vn 0 -1 0
g SM_Prop_Barber_Comb_01_0
f 2/2/2 4/4/4 3/3/3
f 1/1/1 2/2/2 3/3/3
f 5/5/5 12/12/12 18/18/18
f 6/6/6 5/5/5 18/18/18
f 68/68/68 6/6/6 18/18/18
f 18/18/18 63/63/63 68/68/68
f 63/63/63 64/64/64 68/68/68
f 64/64/64 63/63/63 61/61/61
f 63/63/63 62/62/62 61/61/61
f 64/64/64 67/67/67 68/68/68
f 69/69/69 68/68/68 67/67/67
f 70/70/70 69/69/69 67/67/67
f 25/25/25 8/8/8 7/7/7
f 26/26/26 25/25/25 7/7/7
f 29/29/29 28/28/28 27/27/27
f 30/30/30 29/29/29 27/27/27
f 33/33/33 32/32/32 31/31/31
f 11/11/11 33/33/33 31/31/31
f 35/35/35 34/34/34 9/9/9
f 15/15/15 35/35/35 9/9/9
f 23/23/23 21/21/21 10/10/10
f 16/16/16 23/23/23 10/10/10
f 52/52/52 23/23/23 16/16/16
f 52/52/52 16/16/16 66/66/66
f 52/52/52 20/20/20 23/23/23
f 52/52/52 51/51/51 20/20/20
f 51/51/51 50/50/50 20/20/20
f 66/66/66 65/65/65 52/52/52
f 66/66/66 72/72/72 65/65/65
f 72/72/72 71/71/71 65/65/65
f 37/37/37 22/22/22 36/36/36
f 38/38/38 37/37/37 36/36/36
f 41/41/41 40/40/40 39/39/39
f 17/17/17 41/41/41 39/39/39
f 44/44/44 43/43/43 42/42/42
f 45/45/45 44/44/44 42/42/42
f 24/24/24 46/46/46 13/13/13
f 19/19/19 24/24/24 13/13/13
f 49/49/49 48/48/48 47/47/47
f 14/14/14 49/49/49 47/47/47
f 55/55/55 54/54/54 53/53/53
f 56/56/56 55/55/55 53/53/53
f 59/59/59 58/58/58 57/57/57
f 60/60/60 59/59/59 57/57/57
