g SM_Prop_Child_Art_01
v -0.1722255 0.234327 0.01932781
v -0.1720868 0.1397482 0
v -0.1201985 0.2369627 0
v 0.1720868 -0.1580991 0.02491734
v 0.1605753 -0.2244709 0.05048677
v -0.02942783 -0.2369627 0.02491734
v -0.02437519 -0.2369627 -1.192093E-09
v 0.1697106 -0.2343009 0.02949176
v 0.1720868 -0.1600764 0
v 0.03468837 0.2369627 0.02491734
v 0.1636478 0.2264956 0.04134701
v 0.1720868 0.1539767 0.02491734
v 0.1720868 0.1485564 -1.192093E-09
v 0.1716553 0.235215 0.01942156
v 0.02571418 0.2369627 0
v -0.1720868 0.143121 0.02491734
v -0.1630776 0.2273836 0.04144074
v -0.1219988 0.2369627 0.02491734
v 0.03468837 0.2369627 0.02491734
v 0.1720868 0.1539767 0.02491734
v 0.1720868 -0.1580991 0.02491734
v -0.02942783 -0.2369627 0.02491734
v -0.1219988 0.2369627 0.02491734
v -0.1720868 -0.2369627 0.02491734
v -0.1720868 0.143121 0.02491734
v -0.1630776 0.2273836 0.04144074
v -0.1722255 0.234327 0.01932781
v -0.1201985 0.2369627 0
v -0.1219988 0.2369627 0.02491734
v -0.1720868 -0.2369627 0
v -0.1720868 -0.2369627 0.02491734
v -0.02942783 -0.2369627 0.02491734
v -0.02437519 -0.2369627 -1.192093E-09
v 0.1605753 -0.2244709 0.05048677
v 0.1720868 -0.1580991 0.02491734
v 0.1720868 -0.1600764 0
v 0.1697106 -0.2343009 0.02949176
v -0.1720868 -0.2369627 0
v -0.1720868 0.1397482 0
v -0.1720868 0.143121 0.02491734
v -0.1720868 -0.2369627 0.02491734
v -0.02942783 -0.2369627 0.02491734
v 0.1605753 -0.2244709 0.05048677
v 0.1697106 -0.2343009 0.02949176
v -0.02437519 -0.2369627 -1.192093E-09
v 0.1720868 -0.1580991 0.02491734
v 0.1720868 0.1539767 0.02491734
v 0.1720868 0.1485564 -1.192093E-09
v 0.1720868 -0.1600764 0
v 0.02571418 0.2369627 0
v 0.1716553 0.235215 0.01942156
v 0.1636478 0.2264956 0.04134701
v 0.03468837 0.2369627 0.02491734
v 0.1720868 0.1539767 0.02491734
v 0.1636478 0.2264956 0.04134701
v 0.1716553 0.235215 0.01942156
v 0.1720868 0.1485564 -1.192093E-09
v -0.1201985 0.2369627 0
v 0.02571418 0.2369627 0
v 0.03468837 0.2369627 0.02491734
v -0.1219988 0.2369627 0.02491734
v -0.02437519 -0.2369627 -1.192093E-09
v 0.1720868 -0.1600764 0
v 0.1720868 0.1485564 -1.192093E-09
v 0.02571418 0.2369627 0
v -0.1201985 0.2369627 0
v -0.1720868 -0.2369627 0
v -0.1720868 0.1397482 0
v -0.1720868 0.1397482 0
v -0.1722255 0.234327 0.01932781
v -0.1630776 0.2273836 0.04144074
v -0.1720868 0.143121 0.02491734
vt 0.5033722 0.1367431
vt 0.5033653 0.1368417
vt 0.5032998 0.1367443
vt 0.5681909 0.1483741
vt 0.5681909 0.1347915
vt 0.5287897 0.1347916
vt 0.5031616 0.137228
vt 0.5029259 0.1372331
vt 0.5029204 0.137155
vt 0.541326 0.2164151
vt 0.5681909 0.2164151
vt 0.5681909 0.2021225
vt 0.5028983 0.1368411
vt 0.5028919 0.1367512
vt 0.5030962 0.1367478
vt 0.5008962 0.2002529
vt 0.5008962 0.2164151
vt 0.5106897 0.2164151
vt 0.541326 0.2164151
vt 0.5681909 0.2021225
vt 0.5681909 0.1483741
vt 0.5287897 0.1347916
vt 0.5106897 0.2164151
vt 0.5008962 0.1347915
vt 0.5008962 0.2002529
vt 0.5008962 0.2164151
vt 0.5008962 0.2164151
vt 0.5110416 0.2164151
vt 0.5106897 0.2164151
vt 0.5008962 0.1347915
vt 0.5008962 0.1347915
vt 0.5287897 0.1347916
vt 0.5297776 0.1347916
vt 0.5681909 0.1347915
vt 0.5681909 0.1483741
vt 0.5681909 0.1480336
vt 0.5681909 0.1347915
vt 0.5008962 0.1347915
vt 0.5008962 0.199672
vt 0.5008962 0.2002529
vt 0.5008962 0.1347915
vt 0.5287897 0.1347916
vt 0.5681909 0.1347915
vt 0.5681909 0.1347915
vt 0.5297776 0.1347916
vt 0.5681909 0.1483741
vt 0.5681909 0.2021225
vt 0.5681909 0.201189
vt 0.5681909 0.1480336
vt 0.5395713 0.2164151
vt 0.5681909 0.2164151
vt 0.5681909 0.2164151
vt 0.541326 0.2164151
vt 0.5681909 0.2021225
vt 0.5681909 0.2164151
vt 0.5681909 0.2164151
vt 0.5681909 0.201189
vt 0.5110416 0.2164151
vt 0.5395713 0.2164151
vt 0.541326 0.2164151
vt 0.5106897 0.2164151
vt 0.5031616 0.137228
vt 0.5029204 0.137155
vt 0.5028983 0.1368411
vt 0.5030962 0.1367478
vt 0.5032998 0.1367443
vt 0.5033388 0.1372242
vt 0.5033653 0.1368417
vt 0.5008962 0.199672
vt 0.5008962 0.2164151
vt 0.5008962 0.2164151
vt 0.5008962 0.2002529
vn -0.3504091 0.1870311 -0.9177325
vn -0.3504091 0.1870311 -0.9177325
vn -0.3504091 0.1870311 -0.9177325
vn -0.1478396 0.3777643 0.9140227
vn -0.1478396 0.3777643 0.9140227
vn -0.1478396 0.3777643 0.9140227
vn 0.1445534 -0.3693671 -0.9179718
vn 0.1445534 -0.3693671 -0.9179718
vn 0.1445534 -0.3693672 -0.9179718
vn -0.1415562 -0.2343722 0.9617857
vn -0.1415562 -0.2343722 0.9617857
vn -0.1415562 -0.2343722 0.9617857
vn 0.1313172 0.2174197 -0.9672045
vn 0.1313172 0.2174197 -0.9672045
vn 0.1313172 0.2174197 -0.9672045
vn 0.407475 -0.2174901 0.8869398
vn 0.407475 -0.2174901 0.8869398
vn 0.407475 -0.2174901 0.8869398
vn 0 0 1
vn 0 0 1
vn 0 0 1
vn 0 0 1
vn 0 0 1
vn 0 0 1
vn 0 0 1
vn -0.06909341 0.9852964 0.1562597
vn -0.06909341 0.9852964 0.1562597
vn -0.06909341 0.9852964 0.1562597
vn -0.06909341 0.9852964 0.1562597
vn 0 -1 0
vn 0 -1 0
vn 0 -1 0
vn 0 -1 0
vn 0.9796806 -0.01856102 0.1997034
vn 0.9796806 -0.01856102 0.1997034
vn 0.9796806 -0.01856102 0.1997034
vn 0.9796806 -0.01856102 0.1997034
vn -1 0 0
vn -1 0 0
vn -1 0 0
vn -1 0 0
vn 0.008198104 -0.9772843 0.2117738
vn 0.008198103 -0.9772843 0.2117738
vn 0.008198103 -0.9772843 0.2117738
vn 0.008198104 -0.9772843 0.2117739
vn 1 0 0
vn 1 0 0
vn 1 0 0
vn 1 0 0
vn 0.01986808 0.9829928 0.1825666
vn 0.01986808 0.9829928 0.1825666
vn 0.01986808 0.9829928 0.1825666
vn 0.01986808 0.9829928 0.1825666
vn 0.9853678 0.01670889 0.1696202
vn 0.9853678 0.01670889 0.1696202
vn 0.9853678 0.01670889 0.1696202
vn 0.9853678 0.01670889 0.1696202
vn 0 1 0
vn 0 1 0
vn 0 1 0
vn 0 1 0
vn 0 0 -1
vn 0 0 -1
vn 0 0 -1
vn 0 0 -1
vn 0 0 -1
vn 0 0 -1
vn 0 0 -1
vn -0.9814057 0.01025465 0.1916713
vn -0.9814057 0.01025465 0.1916713
vn -0.9814057 0.01025465 0.1916713
vn -0.9814057 0.01025465 0.1916713
g SM_Prop_Child_Art_01_0
f 3/3/3 2/2/2 1/1/1
f 6/6/6 5/5/5 4/4/4
f 9/9/9 8/8/8 7/7/7
f 12/12/12 11/11/11 10/10/10
f 15/15/15 14/14/14 13/13/13
f 18/18/18 17/17/17 16/16/16
f 21/21/21 20/20/20 19/19/19
f 19/19/19 22/22/22 21/21/21
f 19/19/19 23/23/23 22/22/22
f 23/23/23 24/24/24 22/22/22
f 23/23/23 25/25/25 24/24/24
f 28/28/28 27/27/27 26/26/26
f 29/29/29 28/28/28 26/26/26
f 32/32/32 31/31/31 30/30/30
f 33/33/33 32/32/32 30/30/30
f 36/36/36 35/35/35 34/34/34
f 37/37/37 36/36/36 34/34/34
f 40/40/40 39/39/39 38/38/38
f 41/41/41 40/40/40 38/38/38
f 44/44/44 43/43/43 42/42/42
f 45/45/45 44/44/44 42/42/42
f 48/48/48 47/47/47 46/46/46
f 49/49/49 48/48/48 46/46/46
f 52/52/52 51/51/51 50/50/50
f 53/53/53 52/52/52 50/50/50
f 56/56/56 55/55/55 54/54/54
f 57/57/57 56/56/56 54/54/54
f 60/60/60 59/59/59 58/58/58
f 61/61/61 60/60/60 58/58/58
f 64/64/64 63/63/63 62/62/62
f 62/62/62 65/65/65 64/64/64
f 62/62/62 66/66/66 65/65/65
f 62/62/62 67/67/67 66/66/66
f 67/67/67 68/68/68 66/66/66
f 71/71/71 70/70/70 69/69/69
f 72/72/72 71/71/71 69/69/69
