g SM_Prop_Wardrobe_02_Door_2
v -0.6833816 -0.06743009 0.04551452
v -0.6434915 -0.05674162 0.04551452
v -0.6142898 -0.08594313 0.04551452
v -0.6249783 -0.1258331 0.04551452
v -0.6648685 -0.1365216 0.04551452
v -0.6940701 -0.1073201 0.04551452
v -0.6833816 -0.06743009 0.1031403
v -0.6434915 -0.05674162 0.1031403
v -0.6142898 -0.08594313 0.1031403
v -0.6249783 -0.1258331 0.1031403
v -0.6648685 -0.1365216 0.1031403
v -0.6940701 -0.1073201 0.1031403
v -0.6833816 -0.06743009 0.06367554
v -0.6940701 -0.1073201 0.06367554
v -0.6648685 -0.1365216 0.06367554
v -0.6249783 -0.1258331 0.06367554
v -0.6142898 -0.08594313 0.06367554
v -0.6434915 -0.05674162 0.06367554
v -0.6833816 -0.06743009 0.08588012
v -0.6940701 -0.1073201 0.08588012
v -0.6648685 -0.1365216 0.08588012
v -0.6249783 -0.1258331 0.08588012
v -0.6142898 -0.08594313 0.08588012
v -0.6434915 -0.05674162 0.08588012
v -0.670574 -0.08023618 0.06854431
v -0.676575 -0.1026327 0.06854431
v -0.670574 -0.08023618 0.08101135
v -0.676575 -0.1026327 0.08101135
v -0.6601809 -0.1190283 0.06854431
v -0.6601809 -0.1190283 0.08101135
v -0.6377835 -0.113027 0.06854431
v -0.6377835 -0.113027 0.08101135
v -0.6317825 -0.09063047 0.06854431
v -0.6317825 -0.09063047 0.08101135
v -0.648179 -0.0742349 0.06854431
v -0.648179 -0.0742349 0.08101135
v -0.65418 -0.0966316 0.1179913
v 0.006000671 -0.9053939 -2.842171E-16
v -0.7040164 -0.9053939 -2.842171E-16
v -0.7040164 0.6940263 -2.842171E-16
v 0.006000671 0.6940263 -2.842171E-16
v -3.051758E-07 -0.8993937 0.04577881
v -0.7012894 -0.8993937 0.04577881
v -0.7012894 0.688026 0.04577881
v -3.051758E-07 0.688026 0.04577881
v -0.7040164 0.125936 -2.842171E-16
v 0.006000671 0.125936 -2.842171E-16
v -3.051758E-07 0.1239305 0.04577881
v -0.7012894 0.1239305 0.04577881
v -0.09399933 0.1856545 0.04577881
v -0.6072879 0.1856545 0.04577881
v -0.6072879 0.594026 0.04577881
v -0.09399933 0.594026 0.04577881
v -0.09399933 -0.8053939 0.04577881
v -0.6072879 -0.8053939 0.04577881
v -0.6072879 0.0622069 0.04577881
v -0.09399933 0.0622069 0.04577881
v -0.1078177 0.1966478 0.01947082
v -0.5934695 0.1966478 0.01947082
v -0.5934695 0.583033 0.01947082
v -0.1078177 0.583033 0.01947082
v -0.1078177 -0.7843053 0.01947082
v -0.5934695 -0.7843053 0.01947082
v -0.5934695 0.04111833 0.01947082
v -0.1078177 0.04111833 0.01947082
v -0.6434915 -0.05674162 0.04551452
v -0.6434915 -0.05674162 0.06367554
v -0.6142898 -0.08594313 0.04551452
v -0.6142898 -0.08594313 0.06367554
v -0.6249783 -0.1258331 0.04551452
v -0.6249783 -0.1258331 0.06367554
v -0.6648685 -0.1365216 0.04551452
v -0.6648685 -0.1365216 0.06367554
v -0.6940701 -0.1073201 0.04551452
v -0.6833816 -0.06743009 0.04551452
v -0.6833816 -0.06743009 0.06367554
v -0.6940701 -0.1073201 0.06367554
v -0.6249783 -0.1258331 0.04551452
v -0.6142898 -0.08594313 0.04551452
v -0.6434915 -0.05674162 0.04551452
v -0.6648685 -0.1365216 0.04551452
v -0.6833816 -0.06743009 0.04551452
v -0.6940701 -0.1073201 0.04551452
v -0.676575 -0.1026327 0.06854431
v -0.676575 -0.1026327 0.08101135
v -0.6601809 -0.1190283 0.06854431
v -0.6601809 -0.1190283 0.08101135
v -0.6377835 -0.113027 0.06854431
v -0.6377835 -0.113027 0.08101135
v -0.6317825 -0.09063047 0.06854431
v -0.6317825 -0.09063047 0.08101135
v -0.670574 -0.08023618 0.06854431
v -0.648179 -0.0742349 0.06854431
v -0.648179 -0.0742349 0.08101135
v -0.670574 -0.08023618 0.08101135
v -0.6940701 -0.1073201 0.08588012
v -0.6940701 -0.1073201 0.1031403
v -0.6648685 -0.1365216 0.08588012
v -0.6648685 -0.1365216 0.1031403
v -0.6249783 -0.1258331 0.08588012
v -0.6249783 -0.1258331 0.1031403
v -0.6142898 -0.08594313 0.08588012
v -0.6142898 -0.08594313 0.1031403
v -0.6833816 -0.06743009 0.08588012
v -0.6434915 -0.05674162 0.08588012
v -0.6434915 -0.05674162 0.1031403
v -0.6833816 -0.06743009 0.1031403
v -0.6940701 -0.1073201 0.06367554
v -0.6833816 -0.06743009 0.06367554
v -0.670574 -0.08023618 0.06854431
v -0.676575 -0.1026327 0.06854431
v -0.6833816 -0.06743009 0.08588012
v -0.6940701 -0.1073201 0.08588012
v -0.676575 -0.1026327 0.08101135
v -0.670574 -0.08023618 0.08101135
v -0.6648685 -0.1365216 0.06367554
v -0.6940701 -0.1073201 0.06367554
v -0.676575 -0.1026327 0.06854431
v -0.6601809 -0.1190283 0.06854431
v -0.6940701 -0.1073201 0.08588012
v -0.6648685 -0.1365216 0.08588012
v -0.6601809 -0.1190283 0.08101135
v -0.676575 -0.1026327 0.08101135
v -0.6249783 -0.1258331 0.06367554
v -0.6648685 -0.1365216 0.06367554
v -0.6601809 -0.1190283 0.06854431
v -0.6377835 -0.113027 0.06854431
v -0.6648685 -0.1365216 0.08588012
v -0.6249783 -0.1258331 0.08588012
v -0.6377835 -0.113027 0.08101135
v -0.6601809 -0.1190283 0.08101135
v -0.6142898 -0.08594313 0.06367554
v -0.6249783 -0.1258331 0.06367554
v -0.6377835 -0.113027 0.06854431
v -0.6317825 -0.09063047 0.06854431
v -0.6249783 -0.1258331 0.08588012
v -0.6142898 -0.08594313 0.08588012
v -0.6317825 -0.09063047 0.08101135
v -0.6377835 -0.113027 0.08101135
v -0.6434915 -0.05674162 0.06367554
v -0.6142898 -0.08594313 0.06367554
v -0.6317825 -0.09063047 0.06854431
v -0.648179 -0.0742349 0.06854431
v -0.6142898 -0.08594313 0.08588012
v -0.6434915 -0.05674162 0.08588012
v -0.648179 -0.0742349 0.08101135
v -0.6317825 -0.09063047 0.08101135
v -0.6833816 -0.06743009 0.06367554
v -0.6434915 -0.05674162 0.06367554
v -0.648179 -0.0742349 0.06854431
v -0.670574 -0.08023618 0.06854431
v -0.6434915 -0.05674162 0.08588012
v -0.6833816 -0.06743009 0.08588012
v -0.670574 -0.08023618 0.08101135
v -0.648179 -0.0742349 0.08101135
v -0.6833816 -0.06743009 0.1031403
v -0.6434915 -0.05674162 0.1031403
v -0.6434915 -0.05674162 0.1031403
v -0.6142898 -0.08594313 0.1031403
v -0.65418 -0.0966316 0.1179913
v -0.6142898 -0.08594313 0.1031403
v -0.6249783 -0.1258331 0.1031403
v -0.65418 -0.0966316 0.1179913
v -0.6249783 -0.1258331 0.1031403
v -0.6648685 -0.1365216 0.1031403
v -0.65418 -0.0966316 0.1179913
v -0.6648685 -0.1365216 0.1031403
v -0.6940701 -0.1073201 0.1031403
v -0.65418 -0.0966316 0.1179913
v -0.6940701 -0.1073201 0.1031403
v -0.6833816 -0.06743009 0.1031403
v -0.65418 -0.0966316 0.1179913
v -0.7040164 0.125936 -2.842171E-16
v -0.7040164 0.6940263 -2.842171E-16
v -0.7040164 0.6940263 -2.842171E-16
v 0.006000671 0.6940263 -2.842171E-16
v -0.7012894 0.688026 0.04577881
v 0.006000671 0.6940263 -2.842171E-16
v 0.006000671 0.125936 -2.842171E-16
v -3.051758E-07 0.688026 0.04577881
v 0.006000671 -0.9053939 -2.842171E-16
v -0.7040164 -0.9053939 -2.842171E-16
v 0.006000671 -0.9053939 -2.842171E-16
v -3.051758E-07 -0.8993937 0.04577881
v -0.7040164 -0.9053939 -2.842171E-16
v -0.7012894 -0.8993937 0.04577881
v -3.051758E-07 0.1239305 0.04577881
v -0.7012894 0.1239305 0.04577881
v -0.7012894 0.688026 0.04577881
v -3.051758E-07 0.688026 0.04577881
v -3.051758E-07 -0.8993937 0.04577881
v -0.7012894 -0.8993937 0.04577881
v -0.09399933 0.1856545 0.04577881
v -0.6072879 0.1856545 0.04577881
v -0.5934695 0.1966478 0.01947082
v -0.1078177 0.1966478 0.01947082
v -0.6072879 0.1856545 0.04577881
v -0.6072879 0.594026 0.04577881
v -0.5934695 0.583033 0.01947082
v -0.5934695 0.1966478 0.01947082
v -0.6072879 0.594026 0.04577881
v -0.09399933 0.594026 0.04577881
v -0.1078177 0.583033 0.01947082
v -0.5934695 0.583033 0.01947082
v -0.09399933 0.594026 0.04577881
v -0.09399933 0.1856545 0.04577881
v -0.1078177 0.1966478 0.01947082
v -0.1078177 0.583033 0.01947082
v -0.09399933 -0.8053939 0.04577881
v -0.6072879 -0.8053939 0.04577881
v -0.5934695 -0.7843053 0.01947082
v -0.1078177 -0.7843053 0.01947082
v -0.6072879 -0.8053939 0.04577881
v -0.6072879 0.0622069 0.04577881
v -0.5934695 0.04111833 0.01947082
v -0.5934695 -0.7843053 0.01947082
v -0.6072879 0.0622069 0.04577881
v -0.09399933 0.0622069 0.04577881
v -0.1078177 0.04111833 0.01947082
v -0.5934695 0.04111833 0.01947082
v -0.09399933 0.0622069 0.04577881
v -0.09399933 -0.8053939 0.04577881
v -0.1078177 -0.7843053 0.01947082
v -0.1078177 0.04111833 0.01947082
vt 0.445475 0.02209365
vt 0.4459645 0.02209824
vt 0.4462031 0.0225135
vt 0.4459534 0.02292054
vt 0.4454676 0.0229153
vt 0.4452277 0.02250361
vt 0.445468 0.02224188
vt 0.4459699 0.02224677
vt 0.4462145 0.02267193
vt 0.4459585 0.02308857
vt 0.4454604 0.02308306
vt 0.4452144 0.0226615
vt 0.4454728 0.02213954
vt 0.4452237 0.02255251
vt 0.4454654 0.02296724
vt 0.445955 0.02297258
vt 0.4462066 0.02256253
vt 0.4459662 0.02214425
vt 0.4454701 0.0221967
vt 0.4452185 0.02261337
vt 0.4454626 0.02303194
vt 0.4459569 0.02303737
vt 0.446211 0.02262362
vt 0.4459683 0.02220147
vt 0.4455787 0.022336
vt 0.4454382 0.02256795
vt 0.4455778 0.02236902
vt 0.4454366 0.02260217
vt 0.4455741 0.02280172
vt 0.4455731 0.02283713
vt 0.44585 0.02280464
vt 0.4458506 0.02284008
vt 0.4459913 0.02257361
vt 0.4459926 0.02260789
vt 0.4458559 0.02233874
vt 0.4458565 0.02237182
vt 0.4457139 0.02270877
vt 0.4467378 0.03737962
vt 0.4459951 0.03734195
vt 0.4459577 0.03797179
vt 0.4466768 0.03801167
vt 0.4467378 0.03737962
vt 0.4459951 0.03734195
vt 0.4459577 0.03797179
vt 0.4466768 0.03801167
vt 0.4459701 0.03776214
vt 0.4466971 0.03780127
vt 0.4466971 0.03780127
vt 0.4459701 0.03776214
vt 0.4466971 0.03780127
vt 0.4459701 0.03776214
vt 0.4459577 0.03797179
vt 0.4466768 0.03801167
vt 0.4467378 0.03737962
vt 0.4459951 0.03734195
vt 0.4459701 0.03776214
vt 0.4466971 0.03780127
vt 0.4477443 0.02219027
vt 0.4480803 0.02220333
vt 0.4480744 0.02190995
vt 0.4477327 0.02190417
vt 0.4477719 0.02287481
vt 0.4480943 0.02290419
vt 0.4480825 0.02231854
vt 0.4477489 0.02230275
vt 0.4459645 0.02209824
vt 0.4459662 0.02214425
vt 0.4462031 0.0225135
vt 0.4462066 0.02256253
vt 0.4459534 0.02292054
vt 0.445955 0.02297258
vt 0.4454676 0.0229153
vt 0.4454654 0.02296724
vt 0.4452277 0.02250361
vt 0.445475 0.02209365
vt 0.4454728 0.02213954
vt 0.4452237 0.02255251
vt 0.4459534 0.02292054
vt 0.4462031 0.0225135
vt 0.4459645 0.02209824
vt 0.4454676 0.0229153
vt 0.445475 0.02209365
vt 0.4452277 0.02250361
vt 0.4454382 0.02256795
vt 0.4454366 0.02260217
vt 0.4455741 0.02280172
vt 0.4455731 0.02283713
vt 0.44585 0.02280464
vt 0.4458506 0.02284008
vt 0.4459913 0.02257361
vt 0.4459926 0.02260789
vt 0.4455787 0.022336
vt 0.4458559 0.02233874
vt 0.4458565 0.02237182
vt 0.4455778 0.02236902
vt 0.4452185 0.02261337
vt 0.4452144 0.0226615
vt 0.4454626 0.02303194
vt 0.4454604 0.02308306
vt 0.4459569 0.02303737
vt 0.4459585 0.02308857
vt 0.446211 0.02262362
vt 0.4462145 0.02267193
vt 0.4454701 0.0221967
vt 0.4459683 0.02220147
vt 0.4459699 0.02224677
vt 0.445468 0.02224188
vt 0.4452237 0.02255251
vt 0.4454728 0.02213954
vt 0.4455787 0.022336
vt 0.4454382 0.02256795
vt 0.4454701 0.0221967
vt 0.4452185 0.02261337
vt 0.4454366 0.02260217
vt 0.4455778 0.02236902
vt 0.4454654 0.02296724
vt 0.4452237 0.02255251
vt 0.4454382 0.02256795
vt 0.4455741 0.02280172
vt 0.4452185 0.02261337
vt 0.4454626 0.02303194
vt 0.4455731 0.02283713
vt 0.4454366 0.02260217
vt 0.445955 0.02297258
vt 0.4454654 0.02296724
vt 0.4455741 0.02280172
vt 0.44585 0.02280464
vt 0.4454626 0.02303194
vt 0.4459569 0.02303737
vt 0.4458506 0.02284008
vt 0.4455731 0.02283713
vt 0.4462066 0.02256253
vt 0.445955 0.02297258
vt 0.44585 0.02280464
vt 0.4459913 0.02257361
vt 0.4459569 0.02303737
vt 0.446211 0.02262362
vt 0.4459926 0.02260789
vt 0.4458506 0.02284008
vt 0.4459662 0.02214425
vt 0.4462066 0.02256253
vt 0.4459913 0.02257361
vt 0.4458559 0.02233874
vt 0.446211 0.02262362
vt 0.4459683 0.02220147
vt 0.4458565 0.02237182
vt 0.4459926 0.02260789
vt 0.4454728 0.02213954
vt 0.4459662 0.02214425
vt 0.4458559 0.02233874
vt 0.4455787 0.022336
vt 0.4459683 0.02220147
vt 0.4454701 0.0221967
vt 0.4455778 0.02236902
vt 0.4458565 0.02237182
vt 0.445468 0.02224188
vt 0.4459699 0.02224677
vt 0.4459699 0.02224677
vt 0.4462145 0.02267193
vt 0.4457139 0.02270877
vt 0.4462145 0.02267193
vt 0.4459585 0.02308857
vt 0.4457139 0.02270877
vt 0.4459585 0.02308857
vt 0.4454604 0.02308306
vt 0.4457139 0.02270877
vt 0.4454604 0.02308306
vt 0.4452144 0.0226615
vt 0.4457139 0.02270877
vt 0.4452144 0.0226615
vt 0.445468 0.02224188
vt 0.4457139 0.02270877
vt 0.4459701 0.03776214
vt 0.4459577 0.03797179
vt 0.4459577 0.03797179
vt 0.4466768 0.03801167
vt 0.4459577 0.03797179
vt 0.4466768 0.03801167
vt 0.4466971 0.03780127
vt 0.4466768 0.03801167
vt 0.4467378 0.03737962
vt 0.4459951 0.03734195
vt 0.4467378 0.03737962
vt 0.4467378 0.03737962
vt 0.4459951 0.03734195
vt 0.4459951 0.03734195
vt 0.4466971 0.03780127
vt 0.4459701 0.03776214
vt 0.4459577 0.03797179
vt 0.4466768 0.03801167
vt 0.4467378 0.03737962
vt 0.4459951 0.03734195
vt 0.4466971 0.03780127
vt 0.4459701 0.03776214
vt 0.4459701 0.03776214
vt 0.4466971 0.03780127
vt 0.4459701 0.03776214
vt 0.4459577 0.03797179
vt 0.4459577 0.03797179
vt 0.4459701 0.03776214
vt 0.4459577 0.03797179
vt 0.4466768 0.03801167
vt 0.4466768 0.03801167
vt 0.4459577 0.03797179
vt 0.4466768 0.03801167
vt 0.4466971 0.03780127
vt 0.4466971 0.03780127
vt 0.4466768 0.03801167
vt 0.4467378 0.03737962
vt 0.4459951 0.03734195
vt 0.4459951 0.03734195
vt 0.4467378 0.03737962
vt 0.4459951 0.03734195
vt 0.4459701 0.03776214
vt 0.4459701 0.03776214
vt 0.4459951 0.03734195
vt 0.4459701 0.03776214
vt 0.4466971 0.03780127
vt 0.4466971 0.03780127
vt 0.4459701 0.03776214
vt 0.4466971 0.03780127
vt 0.4467378 0.03737962
vt 0.4467378 0.03737962
vt 0.4466971 0.03780127
vn -0.2588179 0.9659262 0
vn -0.2588179 0.9659262 0
vn 0.7071049 0.7071086 0
vn 0.9659258 -0.2588187 0
vn 0.2588179 -0.9659262 0
vn -0.7071049 -0.7071086 0
vn -0.9659258 0.2588187 0
vn 0.7071049 0.7071086 0
vn 0.9659258 -0.2588187 0
vn 0.2588179 -0.9659262 0
vn -0.7071049 -0.7071086 0
vn -0.9659258 0.2588187 0
vn -0.2588179 0.9659262 0
vn -0.7071049 -0.7071086 0
vn 0.2588179 -0.9659262 0
vn 0.9659258 -0.2588187 0
vn 0.7071049 0.7071086 0
vn -0.2588179 0.9659262 0
vn -0.9659258 0.2588187 0
vn -0.9659258 0.2588187 0
vn -0.7071049 -0.7071086 0
vn 0.2588179 -0.9659262 0
vn 0.9659258 -0.2588187 0
vn 0.7071049 0.7071086 0
vn -0.9659275 0.2588126 0
vn -0.9659275 0.2588126 0
vn -0.9659275 0.2588126 0
vn -0.9659275 0.2588126 0
vn -0.7071396 -0.7070739 0
vn -0.7071396 -0.7070739 0
vn 0.2588151 -0.9659269 0
vn 0.2588151 -0.9659269 0
vn 0.9659275 -0.2588126 0
vn 0.9659275 -0.2588126 0
vn 0.707087 0.7071265 0
vn 0.707087 0.7071265 0
vn -0.09925615 0.3704309 0.9235416
vn 0 -0.9915197 0.1299565
vn 0 -0.9915197 0.1299565
vn 0 0 -1
vn 0 0 -1
vn 0 -0.9915197 0.1299565
vn 0 -0.9915197 0.1299565
vn -0.9982304 0 0.05946474
vn 0 0.991519 0.1299614
vn 0 0 -1
vn 0 0 -1
vn 0.9915173 0 0.1299744
vn -0.9982304 0 0.05946475
vn 0 0 1
vn 0 0 1
vn 0 0 1
vn 0 0 1
vn 0 0 1
vn 0 0 1
vn 0 0 1
vn 0 0 1
vn 0 0 1
vn 0 0 1
vn 0 0 1
vn 0 0 1
vn 0 0 1
vn 0 0 1
vn 0 0 1
vn 0 0 1
vn 0.7071049 0.7071086 0
vn 0.7071049 0.7071086 0
vn 0.9659258 -0.2588187 0
vn 0.9659258 -0.2588187 0
vn 0.2588179 -0.9659262 0
vn 0.2588179 -0.9659262 0
vn -0.7071049 -0.7071086 0
vn -0.7071049 -0.7071086 0
vn -0.9659258 0.2588187 0
vn -0.9659258 0.2588187 0
vn -0.9659258 0.2588187 0
vn -0.9659258 0.2588187 0
vn 0 0 -1
vn 0 0 -1
vn 0 0 -1
vn 0 0 -1
vn 0 0 -1
vn 0 0 -1
vn -0.7071396 -0.7070739 0
vn -0.7071396 -0.7070739 0
vn 0.2588151 -0.9659269 0
vn 0.2588151 -0.9659269 0
vn 0.9659275 -0.2588126 0
vn 0.9659275 -0.2588126 0
vn 0.707087 0.7071265 0
vn 0.707087 0.7071265 0
vn -0.2588414 0.9659199 0
vn -0.2588414 0.9659199 0
vn -0.2588414 0.9659199 0
vn -0.2588414 0.9659199 0
vn -0.7071049 -0.7071086 0
vn -0.7071049 -0.7071086 0
vn 0.2588179 -0.9659262 0
vn 0.2588179 -0.9659262 0
vn 0.9659258 -0.2588187 0
vn 0.9659258 -0.2588187 0
vn 0.7071049 0.7071086 0
vn 0.7071049 0.7071086 0
vn -0.2588179 0.9659262 0
vn -0.2588179 0.9659262 0
vn -0.2588179 0.9659262 0
vn -0.2588179 0.9659262 0
vn -0.2863421 0.07672433 0.9550505
vn -0.2863421 0.07672433 0.9550505
vn -0.286342 0.07672433 0.9550505
vn -0.2863421 0.07672433 0.9550505
vn -0.2863421 0.07672433 -0.9550505
vn -0.2863421 0.07672433 -0.9550505
vn -0.2863421 0.07672433 -0.9550505
vn -0.286342 0.07672433 -0.9550505
vn -0.2096316 -0.2096253 0.9550454
vn -0.2096316 -0.2096253 0.9550454
vn -0.2096316 -0.2096253 0.9550454
vn -0.2096316 -0.2096253 0.9550454
vn -0.2096316 -0.2096253 -0.9550454
vn -0.2096316 -0.2096253 -0.9550454
vn -0.2096316 -0.2096253 -0.9550454
vn -0.2096316 -0.2096253 -0.9550454
vn 0.07673226 -0.2863713 0.9550412
vn 0.07673226 -0.2863713 0.9550412
vn 0.07673226 -0.2863713 0.9550412
vn 0.07673226 -0.2863713 0.9550412
vn 0.07673226 -0.2863713 -0.9550412
vn 0.07673226 -0.2863713 -0.9550412
vn 0.07673226 -0.2863713 -0.9550412
vn 0.07673226 -0.2863713 -0.9550412
vn 0.2863813 -0.07673486 0.9550379
vn 0.2863813 -0.07673486 0.9550379
vn 0.2863813 -0.07673484 0.9550379
vn 0.2863813 -0.07673486 0.9550379
vn 0.2863813 -0.07673483 -0.9550379
vn 0.2863813 -0.07673483 -0.9550379
vn 0.2863812 -0.07673483 -0.9550379
vn 0.2863813 -0.07673484 -0.9550379
vn 0.2096366 0.2096415 0.9550409
vn 0.2096366 0.2096415 0.9550409
vn 0.2096366 0.2096415 0.9550409
vn 0.2096366 0.2096415 0.9550409
vn 0.2096366 0.2096415 -0.9550409
vn 0.2096366 0.2096415 -0.9550409
vn 0.2096366 0.2096415 -0.9550409
vn 0.2096366 0.2096415 -0.9550409
vn -0.07673366 0.2863653 0.9550429
vn -0.07673364 0.2863653 0.9550429
vn -0.07673366 0.2863653 0.9550429
vn -0.07673366 0.2863653 0.9550429
vn -0.07673366 0.2863653 -0.9550429
vn -0.07673366 0.2863653 -0.9550429
vn -0.07673366 0.2863653 -0.9550429
vn -0.07673366 0.2863653 -0.9550429
vn -0.09925615 0.3704309 0.9235416
vn -0.09925615 0.3704309 0.9235416
vn 0.2711733 0.2711747 0.9235417
vn 0.2711733 0.2711747 0.9235417
vn 0.2711734 0.2711748 0.9235417
vn 0.3704296 -0.09925622 0.9235421
vn 0.3704296 -0.09925622 0.9235421
vn 0.3704296 -0.09925622 0.9235421
vn 0.09925615 -0.3704309 0.9235416
vn 0.09925615 -0.3704309 0.9235416
vn 0.09925615 -0.3704309 0.9235416
vn -0.2711733 -0.2711747 0.9235417
vn -0.2711733 -0.2711747 0.9235417
vn -0.2711734 -0.2711748 0.9235417
vn -0.3704296 0.09925622 0.9235421
vn -0.3704296 0.09925622 0.9235421
vn -0.3704296 0.09925622 0.9235421
vn -0.9982304 0 0.05946475
vn -0.9982304 0 0.05946475
vn 0 0.991519 0.1299614
vn 0 0.991519 0.1299614
vn 0 0.991519 0.1299614
vn 0.9915173 0 0.1299743
vn 0.9915173 0 0.1299744
vn 0.9915173 0 0.1299743
vn 0 0 -1
vn 0 0 -1
vn 0.9915173 0 0.1299744
vn 0.9915173 0 0.1299744
vn -0.9982304 0 0.05946475
vn -0.9982304 0 0.05946475
vn 0 0 1
vn 0 0 1
vn 0 0 1
vn 0 0 1
vn 0 0 1
vn 0 0 1
vn 0 0.9226818 0.3855621
vn 0 0.9226818 0.3855621
vn 0 0.9226818 0.3855621
vn 0 0.9226818 0.3855621
vn 0.8853055 0 0.4650099
vn 0.8853055 0 0.4650098
vn 0.8853055 0 0.4650099
vn 0.8853055 0 0.4650098
vn 0 -0.9226857 0.385553
vn 0 -0.9226857 0.385553
vn 0 -0.9226857 0.385553
vn 0 -0.9226857 0.385553
vn -0.8853055 0 0.4650098
vn -0.8853055 0 0.4650099
vn -0.8853055 0 0.4650098
vn -0.8853055 0 0.4650099
vn 0 0.7802571 0.6254589
vn 0 0.7802571 0.6254589
vn 0 0.7802571 0.6254589
vn 0 0.7802571 0.6254589
vn 0.8853055 0 0.4650098
vn 0.8853055 0 0.4650098
vn 0.8853055 0 0.4650098
vn 0.8853055 0 0.4650098
vn 0 -0.7802582 0.6254575
vn 0 -0.7802582 0.6254575
vn 0 -0.7802582 0.6254575
vn 0 -0.7802582 0.6254575
vn -0.8853055 0 0.4650098
vn -0.8853055 0 0.4650098
vn -0.8853055 0 0.4650098
vn -0.8853055 0 0.4650098
g SM_Prop_Wardrobe_02_Door_2_0
f 37/37/37 157/157/157 156/156/156
f 160/160/160 159/159/159 158/158/158
f 163/163/163 162/162/162 161/161/161
f 166/166/166 165/165/165 164/164/164
f 169/169/169 168/168/168 167/167/167
f 172/172/172 171/171/171 170/170/170
f 18/18/18 2/2/2 1/1/1
f 13/13/13 18/18/18 1/1/1
f 17/17/17 3/3/3 66/66/66
f 67/67/67 17/17/17 66/66/66
f 16/16/16 4/4/4 68/68/68
f 69/69/69 16/16/16 68/68/68
f 15/15/15 5/5/5 70/70/70
f 71/71/71 15/15/15 70/70/70
f 14/14/14 6/6/6 72/72/72
f 73/73/73 14/14/14 72/72/72
f 76/76/76 75/75/75 74/74/74
f 77/77/77 76/76/76 74/74/74
f 80/80/80 79/79/79 78/78/78
f 78/78/78 81/81/81 80/80/80
f 81/81/81 82/82/82 80/80/80
f 81/81/81 83/83/83 82/82/82
f 27/27/27 25/25/25 26/26/26
f 28/28/28 27/27/27 26/26/26
f 85/85/85 84/84/84 29/29/29
f 30/30/30 85/85/85 29/29/29
f 87/87/87 86/86/86 31/31/31
f 32/32/32 87/87/87 31/31/31
f 89/89/89 88/88/88 33/33/33
f 34/34/34 89/89/89 33/33/33
f 91/91/91 90/90/90 35/35/35
f 36/36/36 91/91/91 35/35/35
f 94/94/94 93/93/93 92/92/92
f 95/95/95 94/94/94 92/92/92
f 7/7/7 19/19/19 20/20/20
f 12/12/12 7/7/7 20/20/20
f 97/97/97 96/96/96 21/21/21
f 11/11/11 97/97/97 21/21/21
f 99/99/99 98/98/98 22/22/22
f 10/10/10 99/99/99 22/22/22
f 101/101/101 100/100/100 23/23/23
f 9/9/9 101/101/101 23/23/23
f 103/103/103 102/102/102 24/24/24
f 8/8/8 103/103/103 24/24/24
f 106/106/106 105/105/105 104/104/104
f 107/107/107 106/106/106 104/104/104
f 110/110/110 109/109/109 108/108/108
f 111/111/111 110/110/110 108/108/108
f 114/114/114 113/113/113 112/112/112
f 115/115/115 114/114/114 112/112/112
f 118/118/118 117/117/117 116/116/116
f 119/119/119 118/118/118 116/116/116
f 122/122/122 121/121/121 120/120/120
f 123/123/123 122/122/122 120/120/120
f 126/126/126 125/125/125 124/124/124
f 127/127/127 126/126/126 124/124/124
f 130/130/130 129/129/129 128/128/128
f 131/131/131 130/130/130 128/128/128
f 134/134/134 133/133/133 132/132/132
f 135/135/135 134/134/134 132/132/132
f 138/138/138 137/137/137 136/136/136
f 139/139/139 138/138/138 136/136/136
f 142/142/142 141/141/141 140/140/140
f 143/143/143 142/142/142 140/140/140
f 146/146/146 145/145/145 144/144/144
f 147/147/147 146/146/146 144/144/144
f 150/150/150 149/149/149 148/148/148
f 151/151/151 150/150/150 148/148/148
f 154/154/154 153/153/153 152/152/152
f 155/155/155 154/154/154 152/152/152
f 60/60/60 59/59/59 58/58/58
f 61/61/61 60/60/60 58/58/58
f 40/40/40 41/41/41 46/46/46
f 41/41/41 47/47/47 46/46/46
f 46/46/46 47/47/47 181/181/181
f 182/182/182 46/46/46 181/181/181
f 43/43/43 39/39/39 38/38/38
f 42/42/42 43/43/43 38/38/38
f 44/44/44 174/174/174 49/49/49
f 174/174/174 173/173/173 49/49/49
f 49/49/49 173/173/173 185/185/185
f 186/186/186 49/49/49 185/185/185
f 45/45/45 176/176/176 175/175/175
f 177/177/177 45/45/45 175/175/175
f 180/180/180 48/48/48 178/178/178
f 48/48/48 179/179/179 178/178/178
f 183/183/183 179/179/179 48/48/48
f 184/184/184 183/183/183 48/48/48
f 64/64/64 63/63/63 62/62/62
f 65/65/65 64/64/64 62/62/62
f 195/195/195 194/194/194 193/193/193
f 196/196/196 195/195/195 193/193/193
f 199/199/199 198/198/198 197/197/197
f 200/200/200 199/199/199 197/197/197
f 203/203/203 202/202/202 201/201/201
f 204/204/204 203/203/203 201/201/201
f 207/207/207 206/206/206 205/205/205
f 208/208/208 207/207/207 205/205/205
f 211/211/211 210/210/210 209/209/209
f 212/212/212 211/211/211 209/209/209
f 215/215/215 214/214/214 213/213/213
f 216/216/216 215/215/215 213/213/213
f 219/219/219 218/218/218 217/217/217
f 220/220/220 219/219/219 217/217/217
f 223/223/223 222/222/222 221/221/221
f 224/224/224 223/223/223 221/221/221
f 50/50/50 51/51/51 187/187/187
f 50/50/50 187/187/187 190/190/190
f 53/53/53 50/50/50 190/190/190
f 53/53/53 190/190/190 189/189/189
f 52/52/52 53/53/53 189/189/189
f 52/52/52 189/189/189 188/188/188
f 51/51/51 52/52/52 188/188/188
f 51/51/51 188/188/188 187/187/187
f 57/57/57 187/187/187 188/188/188
f 56/56/56 57/57/57 188/188/188
f 57/57/57 54/54/54 187/187/187
f 56/56/56 188/188/188 192/192/192
f 54/54/54 191/191/191 187/187/187
f 55/55/55 56/56/56 192/192/192
f 55/55/55 192/192/192 191/191/191
f 54/54/54 55/55/55 191/191/191
