g SM_Prop_Paint_Can_Closed_Alt_01_Handle
v 0.1693627 0.07861544 -0.002033639
v 0.1558972 0.07325961 -0.00250679
v 0.09709825 0.1752412 -0.002540798
v 0.0893704 0.1622133 -0.002973823
v 0.1554821 -0.00350362 -0.002308393
v 0.1689942 0.01056941 -0.001857453
v 0.1688902 0.01060481 0.01160037
v 0.1692588 0.07865085 0.01142422
v 0.1557872 0.07329688 0.0118306
v 0.1553711 -0.003465778 0.01202932
v 0.09699503 0.1752761 0.01091688
v 0.08926013 0.1622505 0.01136353
v 0.1846805 0.01048449 -0.001801768
v 0.1845763 0.01051993 0.01165602
v 0.1981669 -0.00367284 0.01174111
v 0.1982712 -0.003708164 -0.001716776
v 0.1847569 0.02466136 -0.00183835
v 0.1846526 0.02469676 0.01161948
v 0.19832 0.0246229 0.01166805
v 0.1984242 0.02458743 -0.001789913
v -0.1691771 0.08044471 -0.00323533
v -0.1557642 0.07494323 -0.003613143
v -0.09587125 0.1762836 -0.003225841
v -0.08827817 0.1631726 -0.003604707
v -0.1561796 -0.001820004 -0.003414732
v -0.169546 0.01239855 -0.003059285
v -0.1696492 0.01243354 0.01039851
v -0.1692814 0.08048007 0.01022262
v -0.1558748 0.07498057 0.01072414
v -0.1562902 -0.001782047 0.01092285
v -0.09597552 0.176319 0.01023209
v -0.08838943 0.1632106 0.01073297
v -0.1852313 0.0124829 -0.003115013
v -0.1853355 0.01251841 0.01034289
v -0.1990788 -0.001526653 0.0103309
v -0.1989743 -0.001562016 -0.003127015
v -0.1851543 0.0266598 -0.003151552
v -0.1852592 0.02669512 0.01030628
v -0.1989258 0.02676909 0.01025782
v -0.1988219 0.02673358 -0.003200172
v 0.0007390205 0.1988677 -0.00294321
v 0.0006711428 0.1857982 -0.003349084
v 0.0005601207 0.1858361 0.01098852
v 0.0006343834 0.198903 0.01051474
v 0.1689942 0.01056941 -0.001857453
v 0.1688902 0.01060481 0.01160037
v 0.1692588 0.07865085 0.01142422
v 0.1693627 0.07861544 -0.002033639
v 0.1558972 0.07325961 -0.00250679
v 0.1557872 0.07329688 0.0118306
v 0.1553711 -0.003465778 0.01202932
v 0.1554821 -0.00350362 -0.002308393
v 0.1693627 0.07861544 -0.002033639
v 0.1692588 0.07865085 0.01142422
v 0.09699503 0.1752761 0.01091688
v 0.09709825 0.1752412 -0.002540798
v 0.0893704 0.1622133 -0.002973823
v 0.08926013 0.1622505 0.01136353
v 0.1557872 0.07329688 0.0118306
v 0.1558972 0.07325961 -0.00250679
v 0.0006343834 0.198903 0.01051474
v -0.09597552 0.176319 0.01023209
v -0.09587125 0.1762836 -0.003225841
v 0.0007390205 0.1988677 -0.00294321
v 0.0006711428 0.1857982 -0.003349084
v -0.08827817 0.1631726 -0.003604707
v -0.08838943 0.1632106 0.01073297
v 0.0005601207 0.1858361 0.01098852
v 0.1689942 0.01056941 -0.001857453
v 0.1688902 0.01060481 0.01160037
v 0.1845763 0.01051993 0.01165602
v 0.1553711 -0.003465778 0.01202932
v 0.1981669 -0.00367284 0.01174111
v 0.1554821 -0.00350362 -0.002308393
v 0.1982712 -0.003708164 -0.001716776
v 0.1846805 0.01048449 -0.001801768
v 0.1846805 0.01048449 -0.001801768
v 0.1847569 0.02466136 -0.00183835
v 0.1846526 0.02469676 0.01161948
v 0.1845763 0.01051993 0.01165602
v 0.1846526 0.02469676 0.01161948
v 0.19832 0.0246229 0.01166805
v 0.1981669 -0.00367284 0.01174111
v 0.19832 0.0246229 0.01166805
v 0.1984242 0.02458743 -0.001789913
v 0.1982712 -0.003708164 -0.001716776
v 0.1984242 0.02458743 -0.001789913
v 0.1847569 0.02466136 -0.00183835
v -0.169546 0.01239855 -0.003059285
v -0.1691771 0.08044471 -0.00323533
v -0.1692814 0.08048007 0.01022262
v -0.1696492 0.01243354 0.01039851
v -0.1557642 0.07494323 -0.003613143
v -0.1561796 -0.001820004 -0.003414732
v -0.1562902 -0.001782047 0.01092285
v -0.1558748 0.07498057 0.01072414
v -0.1691771 0.08044471 -0.00323533
v -0.09587125 0.1762836 -0.003225841
v -0.09597552 0.176319 0.01023209
v -0.1692814 0.08048007 0.01022262
v -0.08827817 0.1631726 -0.003604707
v -0.1557642 0.07494323 -0.003613143
v -0.1558748 0.07498057 0.01072414
v -0.08838943 0.1632106 0.01073297
v -0.169546 0.01239855 -0.003059285
v -0.1696492 0.01243354 0.01039851
v -0.1853355 0.01251841 0.01034289
v -0.1562902 -0.001782047 0.01092285
v -0.1561796 -0.001820004 -0.003414732
v -0.1990788 -0.001526653 0.0103309
v -0.1852313 0.0124829 -0.003115013
v -0.1989743 -0.001562016 -0.003127015
v -0.1852313 0.0124829 -0.003115013
v -0.1853355 0.01251841 0.01034289
v -0.1852592 0.02669512 0.01030628
v -0.1851543 0.0266598 -0.003151552
v -0.1989258 0.02676909 0.01025782
v -0.1852592 0.02669512 0.01030628
v -0.1990788 -0.001526653 0.0103309
v -0.1989743 -0.001562016 -0.003127015
v -0.1988219 0.02673358 -0.003200172
v -0.1989258 0.02676909 0.01025782
v -0.1851543 0.0266598 -0.003151552
v -0.1988219 0.02673358 -0.003200172
v 0.0893704 0.1622133 -0.002973823
v 0.0006711428 0.1857982 -0.003349084
v 0.0005601207 0.1858361 0.01098852
v 0.08926013 0.1622505 0.01136353
v 0.09699503 0.1752761 0.01091688
v 0.0006343834 0.198903 0.01051474
v 0.0007390205 0.1988677 -0.00294321
v 0.09709825 0.1752412 -0.002540798
vt 0.1020338 0.2781278
vt 0.1020338 0.2781278
vt 0.1020343 0.2781278
vt 0.1020343 0.2781278
vt 0.1020338 0.2781278
vt 0.1020338 0.2781278
vt 0.1020343 0.2781278
vt 0.1020343 0.2781278
vt 0.1020343 0.2781278
vt 0.1020343 0.2781278
vt 0.1020342 0.2781278
vt 0.1020342 0.2781278
vt 0.1020338 0.2781278
vt 0.1020343 0.2781278
vt 0.1020343 0.2781278
vt 0.1020338 0.2781278
vt 0.1020338 0.2781278
vt 0.1020343 0.2781278
vt 0.1020343 0.2781278
vt 0.1020338 0.2781278
vt 0.1020343 0.2781278
vt 0.1020343 0.2781278
vt 0.1020342 0.2781278
vt 0.1020342 0.2781278
vt 0.1020343 0.2781278
vt 0.1020343 0.2781278
vt 0.1020338 0.2781278
vt 0.1020338 0.2781278
vt 0.1020338 0.2781278
vt 0.1020338 0.2781278
vt 0.1020343 0.2781278
vt 0.1020343 0.2781278
vt 0.102034 0.2781278
vt 0.1020338 0.2781278
vt 0.1020338 0.2781278
vt 0.1020338 0.2781278
vt 0.102034 0.2781278
vt 0.1020338 0.2781278
vt 0.1020338 0.2781278
vt 0.1020338 0.2781278
vt 0.1020341 0.2781278
vt 0.1020341 0.2781278
vt 0.1020341 0.2781278
vt 0.1020341 0.2781278
vt 0.1020338 0.2781278
vt 0.1020343 0.2781278
vt 0.1020343 0.2781278
vt 0.1020338 0.2781278
vt 0.1020338 0.2781278
vt 0.1020343 0.2781278
vt 0.1020343 0.2781278
vt 0.1020338 0.2781278
vt 0.1020338 0.2781278
vt 0.1020343 0.2781278
vt 0.1020342 0.2781278
vt 0.1020343 0.2781278
vt 0.1020343 0.2781278
vt 0.1020342 0.2781278
vt 0.1020343 0.2781278
vt 0.1020338 0.2781278
vt 0.1020341 0.2781278
vt 0.1020343 0.2781278
vt 0.1020342 0.2781278
vt 0.1020341 0.2781278
vt 0.1020341 0.2781278
vt 0.1020342 0.2781278
vt 0.1020343 0.2781278
vt 0.1020341 0.2781278
vt 0.1020338 0.2781278
vt 0.1020343 0.2781278
vt 0.1020343 0.2781278
vt 0.1020343 0.2781278
vt 0.1020343 0.2781278
vt 0.1020338 0.2781278
vt 0.1020338 0.2781278
vt 0.1020338 0.2781278
vt 0.1020338 0.2781278
vt 0.1020338 0.2781278
vt 0.1020343 0.2781278
vt 0.1020343 0.2781278
vt 0.1020343 0.2781278
vt 0.1020343 0.2781278
vt 0.1020343 0.2781278
vt 0.1020343 0.2781278
vt 0.1020338 0.2781278
vt 0.1020338 0.2781278
vt 0.1020338 0.2781278
vt 0.1020338 0.2781278
vt 0.1020343 0.2781278
vt 0.1020343 0.2781278
vt 0.1020338 0.2781278
vt 0.1020338 0.2781278
vt 0.1020343 0.2781278
vt 0.1020343 0.2781278
vt 0.1020338 0.2781278
vt 0.1020338 0.2781278
vt 0.1020343 0.2781278
vt 0.1020342 0.2781278
vt 0.1020343 0.2781278
vt 0.1020338 0.2781278
vt 0.1020342 0.2781278
vt 0.1020343 0.2781278
vt 0.1020338 0.2781278
vt 0.1020343 0.2781278
vt 0.1020343 0.2781278
vt 0.1020338 0.2781278
vt 0.1020338 0.2781278
vt 0.1020338 0.2781278
vt 0.1020343 0.2781278
vt 0.1020338 0.2781278
vt 0.102034 0.2781278
vt 0.1020338 0.2781278
vt 0.102034 0.2781278
vt 0.1020338 0.2781278
vt 0.1020338 0.2781278
vt 0.102034 0.2781278
vt 0.1020338 0.2781278
vt 0.1020338 0.2781278
vt 0.1020338 0.2781278
vt 0.1020338 0.2781278
vt 0.1020338 0.2781278
vt 0.1020338 0.2781278
vt 0.102034 0.2781278
vt 0.1020338 0.2781278
vt 0.1020343 0.2781278
vt 0.1020341 0.2781278
vt 0.1020341 0.2781278
vt 0.1020342 0.2781278
vt 0.1020342 0.2781278
vt 0.1020341 0.2781278
vt 0.1020341 0.2781278
vt 0.1020343 0.2781278
vn 0.03134624 0.009506162 -0.9994634
vn 0.03162792 0.008798502 -0.999461
vn 0.02070607 0.02200629 -0.9995434
vn 0.02130665 0.02156927 -0.9995403
vn 0.02841491 0.002129096 -0.9995939
vn 0.02887001 0.001843357 -0.9995815
vn 0.02181702 0.007056635 0.9997371
vn 0.02430018 0.01472637 0.9995963
vn 0.02458156 0.01401867 0.9995995
vn 0.02136418 0.007340899 0.9997448
vn 0.01365471 0.02723408 0.9995358
vn 0.01425332 0.02679869 0.9995393
vn 0.005421255 0.999982 -0.002589914
vn 0.005421255 0.999982 -0.002589914
vn 0.001004918 0.01192015 0.9999285
vn -0.004818456 -0.9999851 0.002594929
vn 0.005415482 0.999982 -0.002591301
vn 0.005415482 0.999982 -0.002591301
vn 0.005415482 0.999982 -0.002591301
vn 0.005415482 0.999982 -0.002591301
vn -0.02414523 0.009806661 -0.9996604
vn -0.02443376 0.009102672 -0.99966
vn -0.01337489 0.02219298 -0.9996642
vn -0.01397806 0.02176391 -0.9996654
vn -0.02128892 0.002394543 -0.9997705
vn -0.0217443 0.002115528 -0.9997613
vn -0.02883479 0.007328773 0.9995573
vn -0.03123096 0.01502285 0.9993993
vn -0.03152067 0.01431722 0.9994006
vn -0.02837649 0.007609632 0.9995683
vn -0.02044885 0.02741549 0.9994149
vn -0.02105482 0.02698449 0.9994141
vn 0.005403109 0.9999821 -0.002577454
vn 0.005403109 0.9999821 -0.002577455
vn -0.00797459 0.01196839 0.9998966
vn -0.006007713 -0.9999787 0.002591221
vn 0.005414155 0.999982 -0.002589823
vn 0.005414155 0.999982 -0.002589823
vn 0.005414155 0.999982 -0.002589823
vn 0.005414155 0.999982 -0.002589823
vn 0.003702689 0.02873504 -0.9995802
vn 0.003703679 0.02873503 -0.9995802
vn -0.003363473 0.03396333 0.9994174
vn -0.003361942 0.03396332 0.9994174
vn 0.9999555 -0.005396018 0.007736592
vn 0.9999555 -0.005396018 0.007736591
vn 0.9999555 -0.005396018 0.007736591
vn 0.9999555 -0.005396018 0.007736592
vn -0.9999557 0.005393459 -0.007716654
vn -0.9999557 0.005393459 -0.007716654
vn -0.9999557 0.005393459 -0.007716654
vn -0.9999557 0.005393459 -0.007716655
vn 0.8007948 0.5989211 0.004597753
vn 0.8007948 0.5989212 0.004597753
vn 0.8007948 0.5989212 0.004597753
vn 0.8007948 0.5989211 0.004597753
vn -0.800793 -0.5989235 -0.004593187
vn -0.800793 -0.5989235 -0.004593187
vn -0.800793 -0.5989236 -0.004593188
vn -0.800793 -0.5989236 -0.004593187
vn -0.2276141 0.9737419 -0.004329331
vn -0.2276141 0.9737419 -0.004329331
vn -0.2276141 0.9737419 -0.004329331
vn -0.227614 0.9737419 -0.004329331
vn 0.2464996 -0.9691325 0.004473872
vn 0.2464996 -0.9691325 0.004473872
vn 0.2464996 -0.9691325 0.004473872
vn 0.2464996 -0.9691325 0.004473872
vn 0.005421255 0.999982 -0.002589914
vn 0.005421255 0.999982 -0.002589914
vn 0.0009018597 0.01170895 0.9999311
vn -0.004818456 -0.9999851 0.002594929
vn -0.004818456 -0.9999851 0.002594929
vn -0.004818456 -0.9999851 0.002594929
vn 0.008074755 0.006707691 -0.9999449
vn 0.007971873 0.006496781 -0.9999472
vn -0.9999555 0.00536874 -0.007758514
vn -0.9999555 0.00536874 -0.007758514
vn -0.9999555 0.00536874 -0.007758514
vn -0.9999555 0.00536874 -0.007758514
vn -0.003542987 0.0025996 0.9999903
vn -0.003542987 0.002599601 0.9999903
vn 0.9999554 -0.005387498 0.007761321
vn 0.9999554 -0.005387498 0.007761321
vn 0.9999554 -0.005387498 0.00776132
vn 0.9999554 -0.005387498 0.007761321
vn 0.003532969 -0.002602354 -0.9999903
vn 0.003532969 -0.002602354 -0.9999903
vn -0.9999557 0.005393116 -0.007720177
vn -0.9999557 0.005393116 -0.007720178
vn -0.9999557 0.005393116 -0.007720177
vn -0.9999557 0.005393116 -0.007720177
vn 0.9999557 -0.005391508 0.007727056
vn 0.9999557 -0.005391508 0.007727055
vn 0.9999557 -0.005391508 0.007727055
vn 0.9999557 -0.005391508 0.007727056
vn -0.7942644 0.6075228 -0.00775204
vn -0.7942644 0.6075228 -0.00775204
vn -0.7942644 0.6075228 -0.00775204
vn -0.7942644 0.6075228 -0.007752041
vn 0.7942645 -0.6075228 0.007740319
vn 0.7942645 -0.6075228 0.007740317
vn 0.7942645 -0.6075228 0.007740319
vn 0.7942645 -0.6075228 0.007740317
vn 0.00540311 0.9999821 -0.002577455
vn 0.00540311 0.9999821 -0.002577454
vn -0.007873932 0.01175618 0.9998999
vn -0.006007713 -0.9999787 0.002591221
vn -0.006007713 -0.9999787 0.002591221
vn -0.006007713 -0.9999787 0.002591221
vn -0.0008008577 0.006541298 -0.9999783
vn -0.0009014604 0.006753302 -0.9999769
vn 0.9999553 -0.00538752 0.007781201
vn 0.9999553 -0.00538752 0.007781201
vn 0.9999553 -0.00538752 0.007781202
vn 0.9999553 -0.00538752 0.007781202
vn -0.003531667 0.002601809 0.9999905
vn -0.003531667 0.002601808 0.9999905
vn -0.9999554 0.005375703 -0.007759164
vn -0.9999554 0.005375703 -0.007759164
vn -0.9999554 0.005375703 -0.007759164
vn -0.9999554 0.005375703 -0.007759164
vn 0.00353776 -0.00260183 -0.9999903
vn 0.003537759 -0.00260183 -0.9999903
vn -0.2569733 -0.9664184 0.0005482315
vn -0.2569733 -0.9664184 0.0005482315
vn -0.2569733 -0.9664184 0.0005482315
vn -0.2569733 -0.9664184 0.0005482315
vn 0.2381406 0.9712305 -0.000696645
vn 0.2381406 0.9712305 -0.0006966449
vn 0.2381406 0.9712305 -0.0006966449
vn 0.2381406 0.9712305 -0.0006966449
g SM_Prop_Paint_Can_Closed_Alt_01_Handle_0
f 47/47/47 46/46/46 45/45/45
f 48/48/48 47/47/47 45/45/45
f 51/51/51 50/50/50 49/49/49
f 52/52/52 51/51/51 49/49/49
f 55/55/55 54/54/54 53/53/53
f 56/56/56 55/55/55 53/53/53
f 59/59/59 58/58/58 57/57/57
f 60/60/60 59/59/59 57/57/57
f 63/63/63 62/62/62 61/61/61
f 64/64/64 63/63/63 61/61/61
f 67/67/67 66/66/66 65/65/65
f 68/68/68 67/67/67 65/65/65
f 14/14/14 13/13/13 69/69/69
f 70/70/70 14/14/14 69/69/69
f 16/16/16 73/73/73 72/72/72
f 74/74/74 16/16/16 72/72/72
f 19/19/19 20/20/20 17/17/17
f 18/18/18 19/19/19 17/17/17
f 79/79/79 78/78/78 77/77/77
f 80/80/80 79/79/79 77/77/77
f 82/82/82 81/81/81 71/71/71
f 15/15/15 82/82/82 71/71/71
f 15/15/15 71/71/71 7/7/7
f 10/10/10 15/15/15 7/7/7
f 9/9/9 10/10/10 7/7/7
f 8/8/8 9/9/9 7/7/7
f 12/12/12 9/9/9 8/8/8
f 11/11/11 12/12/12 8/8/8
f 11/11/11 44/44/44 12/12/12
f 44/44/44 43/43/43 12/12/12
f 44/44/44 31/31/31 43/43/43
f 31/31/31 32/32/32 43/43/43
f 32/32/32 31/31/31 28/28/28
f 29/29/29 32/32/32 28/28/28
f 29/29/29 28/28/28 27/27/27
f 30/30/30 29/29/29 27/27/27
f 35/35/35 30/30/30 27/27/27
f 107/107/107 35/35/35 27/27/27
f 117/117/117 35/35/35 107/107/107
f 118/118/118 117/117/117 107/107/107
f 85/85/85 84/84/84 83/83/83
f 86/86/86 85/85/85 83/83/83
f 88/88/88 87/87/87 75/75/75
f 76/76/76 88/88/88 75/75/75
f 76/76/76 75/75/75 5/5/5
f 6/6/6 76/76/76 5/5/5
f 5/5/5 2/2/2 6/6/6
f 2/2/2 1/1/1 6/6/6
f 2/2/2 4/4/4 1/1/1
f 4/4/4 3/3/3 1/1/1
f 4/4/4 42/42/42 3/3/3
f 42/42/42 41/41/41 3/3/3
f 42/42/42 24/24/24 41/41/41
f 24/24/24 23/23/23 41/41/41
f 23/23/23 24/24/24 21/21/21
f 24/24/24 22/22/22 21/21/21
f 21/21/21 22/22/22 26/26/26
f 22/22/22 25/25/25 26/26/26
f 111/111/111 26/26/26 25/25/25
f 112/112/112 111/111/111 25/25/25
f 123/123/123 111/111/111 112/112/112
f 124/124/124 123/123/123 112/112/112
f 91/91/91 90/90/90 89/89/89
f 92/92/92 91/91/91 89/89/89
f 95/95/95 94/94/94 93/93/93
f 96/96/96 95/95/95 93/93/93
f 99/99/99 98/98/98 97/97/97
f 100/100/100 99/99/99 97/97/97
f 103/103/103 102/102/102 101/101/101
f 104/104/104 103/103/103 101/101/101
f 34/34/34 106/106/106 105/105/105
f 33/33/33 34/34/34 105/105/105
f 36/36/36 109/109/109 108/108/108
f 110/110/110 36/36/36 108/108/108
f 39/39/39 38/38/38 37/37/37
f 40/40/40 39/39/39 37/37/37
f 115/115/115 114/114/114 113/113/113
f 116/116/116 115/115/115 113/113/113
f 121/121/121 120/120/120 119/119/119
f 122/122/122 121/121/121 119/119/119
f 127/127/127 126/126/126 125/125/125
f 128/128/128 127/127/127 125/125/125
f 131/131/131 130/130/130 129/129/129
f 132/132/132 131/131/131 129/129/129
