g SM_Prop_Snack_01
v 0.1339967 0.05377981 0.1225511
v 0.1347343 0.06045754 0.1634803
v 0.1225568 0.06731674 0.1487047
v -0.1347343 0.06047195 0.1634803
v -0.1345498 0.04796822 0.1632563
v -0.1345261 0.05377975 0.1173982
v 0.1134156 0.03949406 0.1376136
v 0.1345497 0.04799944 0.1632564
v 0.1339967 0.05377981 0.1225511
v -0.1052123 0.01199814 0.1139421
v -0.1345261 0.05377975 0.1173982
v -0.1134158 0.03924996 0.1376135
v 0.1345497 0.04799944 0.1632564
v 0.1347343 0.06045754 0.1634803
v 0.1339967 0.05377981 0.1225511
v -0.1347343 0.06047195 0.1634803
v -0.1345261 0.05377975 0.1173982
v -0.1225568 0.06752563 0.1487048
v -0.1345498 0.04796822 0.1632563
v -0.1134158 0.03924996 0.1376135
v -0.1345261 0.05377975 0.1173982
v 0.1051739 0.01200974 0.1139421
v 0.1134156 0.03949406 0.1376136
v 0.1339967 0.05377981 0.1225511
v -0.118163 0.002834675 3.671646E-07
v 6.892126E-17 -0.01491785 3.433227E-07
v -2.804507E-06 -0.01067825 -0.01787679
v 0.1339967 0.05377938 -0.1225505
v 0.1225568 0.06731661 -0.148704
v 0.1347343 0.06045773 -0.1634796
v -0.1347343 0.06047183 -0.1634795
v -0.1345261 0.05377957 -0.1173975
v -0.1345498 0.04796809 -0.1632556
v 0.1134156 0.03949382 -0.1376128
v 0.1339967 0.05377938 -0.1225505
v 0.1345497 0.04799944 -0.1632556
v -0.1052123 0.0119982 -0.1139415
v -0.1134158 0.03924995 -0.1376127
v -0.1345261 0.05377957 -0.1173975
v 0.1345497 0.04799944 -0.1632556
v 0.1339967 0.05377938 -0.1225505
v 0.1347343 0.06045773 -0.1634796
v -0.1347343 0.06047183 -0.1634795
v -0.1225568 0.06752514 -0.1487041
v -0.1345261 0.05377957 -0.1173975
v -0.1345498 0.04796809 -0.1632556
v -0.1345261 0.05377957 -0.1173975
v -0.1134158 0.03924995 -0.1376127
v 0.1051739 0.0013834 -0.1139414
v 0.1339967 0.05377938 -0.1225505
v 0.1134156 0.03949382 -0.1376128
v -3.595522E-06 0.1164201 -0.02428917
v -6.892183E-17 0.1214736 3.671646E-07
v -0.1276866 0.1042807 3.242493E-07
v 0.1051739 0.0013834 -0.1139414
v -1.934391E-05 0.01345439 -0.1196354
v -2.804507E-06 -0.01067825 -0.01787679
v 0.1276866 0.1042807 3.242493E-07
v 0.1136521 0.09564332 0.1231256
v -1.934391E-05 0.09457738 0.1292784
v -6.892183E-17 0.1214736 3.671646E-07
v -1.934391E-05 0.09457738 0.1292784
v -0.1136906 0.09564332 0.1231256
v -0.1276866 0.1042807 3.242493E-07
v -6.892183E-17 0.1214736 3.671646E-07
v 0.1051739 0.01200974 0.1139421
v 0.118163 0.002834675 3.671646E-07
v 6.892126E-17 -0.01491785 3.433227E-07
v -1.934391E-05 0.01345438 0.119636
v 6.892126E-17 -0.01491785 3.433227E-07
v -0.118163 0.002834675 3.671646E-07
v -0.1052123 0.01199814 0.1139421
v -1.934391E-05 0.01345438 0.119636
v 0.1051739 0.01200974 0.1139421
v 0.1339967 0.05377981 0.1225511
v 0.1530584 0.05327798 4.050032E-07
v 0.118163 0.002834675 3.671646E-07
v 0.1136521 0.09564332 0.1231256
v 0.1276866 0.1042807 3.242493E-07
v 0.1530584 0.05327798 4.050032E-07
v 0.1339967 0.05377981 0.1225511
v 0.1225568 0.06731674 0.1487047
v 0.1136521 0.09564332 0.1231256
v 0.1225568 0.06731674 0.1487047
v -1.454301E-17 0.06766746 0.1561358
v -1.934391E-05 0.09457738 0.1292784
v -0.1136906 0.09564332 0.1231256
v -0.1225568 0.06752563 0.1487048
v -1.934391E-05 0.01345438 0.119636
v 0.1134156 0.03949406 0.1376136
v 0.1051739 0.01200974 0.1139421
v 1.451443E-17 0.03891603 0.1444903
v -0.1134158 0.03924996 0.1376135
v -0.1052123 0.01199814 0.1139421
v -7.27073E-18 0.06047176 0.1716497
v 0.1347343 0.06045754 0.1634803
v 0.1345497 0.04799944 0.1632564
v 5.366089E-18 0.04796802 0.1714145
v -0.1345498 0.04796822 0.1632563
v -0.1347343 0.06047195 0.1634803
v -7.27073E-18 0.06047176 0.1716497
v 5.366089E-18 0.04796802 0.1714145
v 0.1225568 0.06731674 0.1487047
v 0.1347343 0.06045754 0.1634803
v -7.27073E-18 0.06047176 0.1716497
v -1.454301E-17 0.06766746 0.1561358
v -0.1225568 0.06752563 0.1487048
v -0.1347343 0.06047195 0.1634803
v 0.1345497 0.04799944 0.1632564
v 0.1134156 0.03949406 0.1376136
v 1.451443E-17 0.03891603 0.1444903
v 5.366089E-18 0.04796802 0.1714145
v -0.1345498 0.04796822 0.1632563
v -0.1134158 0.03924996 0.1376135
v -0.1345261 0.05377975 0.1173982
v -0.1136906 0.09564332 0.1231256
v -0.1225568 0.06752563 0.1487048
v -0.1530585 0.05327798 4.050032E-07
v -0.1276866 0.1042807 3.242493E-07
v -0.118163 0.002834675 3.671646E-07
v -0.1530585 0.05327798 4.050032E-07
v -0.1345261 0.05377975 0.1173982
v -0.1052123 0.01199814 0.1139421
v 0.1051739 0.0013834 -0.1139414
v -2.804507E-06 -0.01067825 -0.01787679
v 6.892126E-17 -0.01491785 3.433227E-07
v 0.118163 0.002834675 3.671646E-07
v 0.1051739 0.0013834 -0.1139414
v 0.118163 0.002834675 3.671646E-07
v 0.1530584 0.05327798 4.050032E-07
v 0.1339967 0.05377938 -0.1225505
v 0.1136521 0.09564308 -0.1231249
v 0.1530584 0.05327798 4.050032E-07
v 0.1276866 0.1042807 3.242493E-07
v 0.1339967 0.05377938 -0.1225505
v 0.1225568 0.06731661 -0.148704
v 0.1136521 0.09564308 -0.1231249
v -1.934391E-05 0.09457725 -0.1292777
v -1.454289E-17 0.06766734 -0.1561351
v 0.1225568 0.06731661 -0.148704
v -1.934391E-05 0.09457725 -0.1292777
v -0.1136906 0.09564308 -0.1231249
v -0.1225568 0.06752514 -0.1487041
v -1.454289E-17 0.06766734 -0.1561351
v -1.934391E-05 0.01345439 -0.1196354
v 0.1051739 0.0013834 -0.1139414
v 0.1134156 0.03949382 -0.1376128
v 1.451449E-17 0.03891597 -0.1444896
v 1.451449E-17 0.03891597 -0.1444896
v -0.1134158 0.03924995 -0.1376127
v -0.1052123 0.0119982 -0.1139415
v -1.934391E-05 0.01345439 -0.1196354
v -7.270915E-18 0.06047195 -0.1716489
v 5.366089E-18 0.04796802 -0.1714138
v 0.1345497 0.04799944 -0.1632556
v 0.1347343 0.06045773 -0.1634796
v -7.270915E-18 0.06047195 -0.1716489
v -0.1347343 0.06047183 -0.1634795
v -0.1345498 0.04796809 -0.1632556
v 5.366089E-18 0.04796802 -0.1714138
v 0.1225568 0.06731661 -0.148704
v -7.270915E-18 0.06047195 -0.1716489
v 0.1347343 0.06045773 -0.1634796
v -1.454289E-17 0.06766734 -0.1561351
v -0.1347343 0.06047183 -0.1634795
v -0.1225568 0.06752514 -0.1487041
v 0.1345497 0.04799944 -0.1632556
v 1.451449E-17 0.03891597 -0.1444896
v 0.1134156 0.03949382 -0.1376128
v 5.366089E-18 0.04796802 -0.1714138
v -0.1134158 0.03924995 -0.1376127
v -0.1345498 0.04796809 -0.1632556
v -0.1345261 0.05377957 -0.1173975
v -0.1225568 0.06752514 -0.1487041
v -0.1136906 0.09564308 -0.1231249
v -0.1530585 0.05327798 4.050032E-07
v -0.1276866 0.1042807 3.242493E-07
v -0.118163 0.002834675 3.671646E-07
v -0.1052123 0.0119982 -0.1139415
v -0.1345261 0.05377957 -0.1173975
v -0.1530585 0.05327798 4.050032E-07
v 0.1136521 0.09564308 -0.1231249
v 0.1276866 0.1042807 3.242493E-07
v -6.892183E-17 0.1214736 3.671646E-07
v -3.595522E-06 0.1164201 -0.02428917
v -0.009690364 0.1016779 -0.1031358
v 0.0324416 0.1057586 -0.0855628
v -0.0093334 0.1125127 -0.05309249
v -0.08223002 0.1081589 -0.05486326
v -0.076801 0.1025359 -0.09970835
v -1.934391E-05 0.01345439 -0.1196354
v -0.1052123 0.0119982 -0.1139415
v -0.118163 0.002834675 3.671646E-07
v -2.804507E-06 -0.01067825 -0.01787679
v -3.595522E-06 0.1164201 -0.02428917
v -0.0093334 0.1125127 -0.05309249
v 0.0324416 0.1057586 -0.0855628
v 0.1136521 0.09564308 -0.1231249
v 0.1136521 0.09564308 -0.1231249
v -0.009690364 0.1016779 -0.1031358
v -1.934391E-05 0.09457725 -0.1292777
v -0.076801 0.1025359 -0.09970835
v -0.1136906 0.09564308 -0.1231249
v -0.1136906 0.09564308 -0.1231249
v -0.076801 0.1025359 -0.09970835
v -0.08223002 0.1081589 -0.05486326
v -0.1276866 0.1042807 3.242493E-07
v -0.1276866 0.1042807 3.242493E-07
v -0.08223002 0.1081589 -0.05486326
v -0.0093334 0.1125127 -0.05309249
v -3.595522E-06 0.1164201 -0.02428917
vt 0.1737088 0.422287
vt 0.1736985 0.4224077
vt 0.1737304 0.4223706
vt 0.1744824 0.4224572
vt 0.1744836 0.4224497
vt 0.1744884 0.422318
vt 0.1737741 0.4223273
vt 0.1737069 0.4224009
vt 0.1737088 0.422287
vt 0.1744097 0.4222846
vt 0.1744884 0.422318
vt 0.1744259 0.4223666
vt 0.1737069 0.4224009
vt 0.1736985 0.4224077
vt 0.1737088 0.422287
vt 0.1744824 0.4224572
vt 0.1744884 0.422318
vt 0.1744468 0.4224151
vt 0.1744836 0.4224497
vt 0.1744259 0.4223666
vt 0.1744884 0.422318
vt 0.1738149 0.4222501
vt 0.1737741 0.4223273
vt 0.1737088 0.422287
vt 0.1744619 0.4219574
vt 0.1741313 0.4219376
vt 0.1741318 0.4218882
vt 0.1737328 0.4215774
vt 0.17376 0.4215013
vt 0.1737306 0.4214572
vt 0.2195361 0.4709742
vt 0.219536 0.4709742
vt 0.2195361 0.4709742
vt 0.1738014 0.4215363
vt 0.1737328 0.4215774
vt 0.1737388 0.4214591
vt 0.2195361 0.470974
vt 0.2195361 0.4709742
vt 0.219536 0.4709742
vt 0.1737388 0.4214591
vt 0.1737328 0.4215774
vt 0.1737306 0.4214572
vt 0.2195361 0.4709742
vt 0.2195361 0.4709742
vt 0.219536 0.4709742
vt 0.2195361 0.4709742
vt 0.219536 0.4709742
vt 0.2195361 0.4709742
vt 0.173843 0.4216058
vt 0.1737328 0.4215774
vt 0.1738014 0.4215363
vt 0.1740843 0.4218924
vt 0.1740795 0.4219678
vt 0.1744752 0.4219826
vt 0.2195361 0.470974
vt 0.219536 0.470974
vt 0.219536 0.4709744
vt 0.1737069 0.4219452
vt 0.173741 0.4223107
vt 0.174076 0.4223487
vt 0.1740795 0.4219678
vt 0.174076 0.4223487
vt 0.1744183 0.4223514
vt 0.1744752 0.4219826
vt 0.1740795 0.4219678
vt 0.1738149 0.4222501
vt 0.173795 0.4219254
vt 0.1741313 0.4219376
vt 0.1741084 0.4222839
vt 0.1741313 0.4219376
vt 0.1744619 0.4219574
vt 0.1744097 0.4222846
vt 0.1741084 0.4222839
vt 0.1738149 0.4222501
vt 0.1737088 0.422287
vt 0.173667 0.4219307
vt 0.173795 0.4219254
vt 0.173741 0.4223107
vt 0.1737069 0.4219452
vt 0.173667 0.4219307
vt 0.1737088 0.422287
vt 0.1737304 0.4223706
vt 0.173741 0.4223107
vt 0.1737304 0.4223706
vt 0.1740837 0.4224145
vt 0.174076 0.4223487
vt 0.1744183 0.4223514
vt 0.1744468 0.4224151
vt 0.1741084 0.4222839
vt 0.1737741 0.4223273
vt 0.1738149 0.4222501
vt 0.1740962 0.4223663
vt 0.1744259 0.4223666
vt 0.1744097 0.4222846
vt 0.1740848 0.422456
vt 0.1736985 0.4224077
vt 0.1737069 0.4224009
vt 0.1740897 0.4224485
vt 0.1744836 0.4224497
vt 0.1744824 0.4224572
vt 0.1740848 0.422456
vt 0.1740897 0.4224485
vt 0.1737304 0.4223706
vt 0.1736985 0.4224077
vt 0.1740848 0.422456
vt 0.1740837 0.4224145
vt 0.1744468 0.4224151
vt 0.1744824 0.4224572
vt 0.1737069 0.4224009
vt 0.1737741 0.4223273
vt 0.1740962 0.4223663
vt 0.1740897 0.4224485
vt 0.1744836 0.4224497
vt 0.1744259 0.4223666
vt 0.1744884 0.422318
vt 0.1744183 0.4223514
vt 0.1744468 0.4224151
vt 0.1745583 0.4219739
vt 0.1744752 0.4219826
vt 0.1744619 0.4219574
vt 0.1745583 0.4219739
vt 0.1744884 0.422318
vt 0.1744097 0.4222846
vt 0.173843 0.4216058
vt 0.1741318 0.4218882
vt 0.1741313 0.4219376
vt 0.173795 0.4219254
vt 0.173843 0.4216058
vt 0.173795 0.4219254
vt 0.173667 0.4219307
vt 0.1737328 0.4215774
vt 0.1737661 0.4215771
vt 0.173667 0.4219307
vt 0.1737069 0.4219452
vt 0.1737328 0.4215774
vt 0.17376 0.4215013
vt 0.2195361 0.470974
vt 0.219536 0.470974
vt 0.219536 0.4709742
vt 0.2195361 0.4709742
vt 0.219536 0.470974
vt 0.2195361 0.470974
vt 0.2195361 0.4709742
vt 0.219536 0.4709742
vt 0.219536 0.470974
vt 0.2195361 0.470974
vt 0.2195361 0.4709742
vt 0.219536 0.4709742
vt 0.219536 0.4709742
vt 0.2195361 0.4709742
vt 0.2195361 0.470974
vt 0.219536 0.470974
vt 0.219536 0.4709742
vt 0.219536 0.4709742
vt 0.2195361 0.4709742
vt 0.2195361 0.4709742
vt 0.219536 0.4709742
vt 0.2195361 0.4709742
vt 0.2195361 0.4709742
vt 0.219536 0.4709742
vt 0.2195361 0.4709742
vt 0.219536 0.4709742
vt 0.2195361 0.4709742
vt 0.219536 0.4709742
vt 0.2195361 0.4709742
vt 0.2195361 0.4709742
vt 0.2195361 0.4709742
vt 0.219536 0.4709742
vt 0.2195361 0.4709742
vt 0.219536 0.4709742
vt 0.2195361 0.4709742
vt 0.2195361 0.4709742
vt 0.219536 0.4709742
vt 0.2195361 0.4709742
vt 0.2195361 0.470974
vt 0.2195351 0.4709742
vt 0.2195361 0.470974
vt 0.2195361 0.470974
vt 0.2195361 0.470974
vt 0.219536 0.4709742
vt 0.2195351 0.4709742
vt 0.1737661 0.4215771
vt 0.1737069 0.4219452
vt 0.1740795 0.4219678
vt 0.1740843 0.4218924
vt 0.1385019 0.446214
vt 0.1381226 0.4463533
vt 0.1384581 0.446656
vt 0.1391226 0.4466716
vt 0.1390957 0.4462638
vt 0.219536 0.470974
vt 0.2195361 0.470974
vt 0.2195361 0.470974
vt 0.219536 0.4709744
vt 0.219536 0.4709744
vt 0.219536 0.4709744
vt 0.2195361 0.470974
vt 0.2195361 0.470974
vt 0.2195361 0.470974
vt 0.219536 0.470974
vt 0.219536 0.470974
vt 0.2195361 0.470974
vt 0.2195361 0.470974
vt 0.2195361 0.470974
vt 0.2195361 0.470974
vt 0.2195361 0.470974
vt 0.2195361 0.470974
vt 0.2195361 0.470974
vt 0.2195361 0.470974
vt 0.219536 0.4709744
vt 0.219536 0.4709744
vn 0.6082563 0.7815679 -0.1384766
vn 0.6082563 0.7815679 -0.1384766
vn 0.6082562 0.7815681 -0.1384767
vn -0.9998889 -0.01471342 -0.002380511
vn -0.9998889 -0.01471342 -0.002380511
vn -0.9998889 -0.01471342 -0.002380511
vn 0.5003712 -0.856239 -0.1283882
vn 0.5003712 -0.856239 -0.1283882
vn 0.5003712 -0.856239 -0.1283882
vn -0.7426861 -0.5523775 0.3785453
vn -0.7426861 -0.5523775 0.3785453
vn -0.7426861 -0.5523775 0.3785453
vn 0.999772 -0.01453258 -0.01564599
vn 0.999772 -0.01453258 -0.01564599
vn 0.999772 -0.01453258 -0.01564599
vn -0.6006902 0.790792 -0.1175555
vn -0.6006901 0.790792 -0.1175555
vn -0.6006902 0.7907919 -0.1175555
vn -0.490014 -0.8647662 -0.1098436
vn -0.490014 -0.8647662 -0.1098436
vn -0.490014 -0.8647662 -0.1098436
vn 0.7044275 -0.5725396 0.4194999
vn 0.7044276 -0.5725396 0.4194999
vn 0.7044275 -0.5725396 0.4194999
vn -0.1446465 -0.962785 -0.2283034
vn -0.1446465 -0.962785 -0.2283034
vn -0.1446465 -0.962785 -0.2283034
vn 0.6082511 0.7815698 0.1384891
vn 0.6082511 0.7815698 0.1384891
vn 0.6082511 0.7815698 0.1384891
vn -0.9998889 -0.01471344 0.002380494
vn -0.9998889 -0.01471344 0.002380494
vn -0.9998889 -0.01471344 0.002380494
vn 0.5003715 -0.85624 0.1283801
vn 0.5003715 -0.85624 0.1283801
vn 0.5003715 -0.85624 0.1283801
vn -0.7426832 -0.5523787 -0.3785489
vn -0.7426832 -0.5523787 -0.3785489
vn -0.7426832 -0.5523787 -0.3785489
vn 0.999772 -0.01453221 0.01564589
vn 0.999772 -0.01453221 0.01564589
vn 0.999772 -0.01453221 0.01564589
vn -0.6006756 0.7908027 0.1175582
vn -0.6006756 0.7908026 0.1175582
vn -0.6006757 0.7908027 0.1175582
vn -0.49001 -0.8647687 0.1098428
vn -0.49001 -0.8647687 0.1098428
vn -0.49001 -0.8647687 0.1098428
vn 0.7101001 -0.475887 -0.5189311
vn 0.7101 -0.475887 -0.5189311
vn 0.7101001 -0.475887 -0.5189311
vn -0.130696 0.9706413 -0.2019259
vn -0.130696 0.9706413 -0.2019259
vn -0.130696 0.9706413 -0.2019259
vn -0.09868042 -0.9682663 -0.2296139
vn -0.07870575 -0.9806801 -0.1790867
vn -0.07502299 -0.9826225 -0.1697777
vn 0.06961046 0.9872908 0.1428679
vn 0.06961045 0.9872908 0.1428679
vn 0.06961045 0.9872908 0.1428679
vn 0.06961045 0.9872908 0.142868
vn -0.0696102 0.9872938 0.1428471
vn -0.0696102 0.9872938 0.1428471
vn -0.06961021 0.9872938 0.1428471
vn -0.06961021 0.9872938 0.1428471
vn 0.0759694 -0.9838001 0.1623756
vn 0.07596941 -0.9838001 0.1623756
vn 0.07596941 -0.9838001 0.1623756
vn 0.07596941 -0.9838001 0.1623756
vn -0.07591771 -0.9838164 0.1623014
vn -0.07591769 -0.9838164 0.1623014
vn -0.07591771 -0.9838164 0.1623014
vn -0.07591769 -0.9838164 0.1623014
vn 0.8095242 -0.5717978 0.1331083
vn 0.8095242 -0.5717978 0.1331083
vn 0.8095242 -0.5717978 0.1331083
vn 0.8095242 -0.5717978 0.1331083
vn 0.889335 0.4366711 0.1356525
vn 0.8893829 0.4369962 0.1342843
vn 0.8893829 0.4369962 0.1342843
vn 0.8893225 0.4365876 0.1360028
vn 0.8878022 0.4291674 0.1662002
vn 0.03939584 0.6912925 0.7215003
vn 0.03939585 0.6912925 0.7215003
vn 0.0004102651 0.6924714 0.7214452
vn 0.0003695784 0.6924721 0.7214446
vn -0.03870948 0.6925955 0.7202867
vn -0.03870948 0.6925955 0.7202867
vn 0.0004723004 -0.6797626 0.733432
vn 0.03949208 -0.6784779 0.7335585
vn 0.03949208 -0.6784779 0.7335585
vn 0.0005198747 -0.6797617 0.7334328
vn -0.03861178 -0.6800109 0.7321846
vn -0.03861178 -0.6800109 0.7321846
vn 0.06051222 -0.01880028 0.9979904
vn 0.06051221 -0.01880028 0.9979904
vn 0.06051222 -0.01880028 0.9979904
vn 0.06051221 -0.01880028 0.9979904
vn -0.06051163 -0.01876883 0.997991
vn -0.06051163 -0.01876883 0.997991
vn -0.06051163 -0.01876883 0.997991
vn -0.06051163 -0.01876883 0.997991
vn 0.02627639 0.9107796 0.412056
vn 0.02627639 0.9107795 0.412056
vn 0.0002130144 0.9099613 0.4146931
vn 0.0002068856 0.909961 0.4146937
vn -0.0257868 0.9085223 0.4170399
vn -0.0257868 0.9085223 0.4170398
vn 0.02107799 -0.9507985 0.309092
vn 0.02107799 -0.9507985 0.309092
vn 0.0003967146 -0.9503945 0.311047
vn 0.0004015846 -0.9503946 0.3110466
vn -0.02024956 -0.9495819 0.3128648
vn -0.02024956 -0.9495819 0.3128648
vn -0.8905237 0.4340537 0.136253
vn -0.8905352 0.4340007 0.1363466
vn -0.8926749 0.4230024 0.1555649
vn -0.8903838 0.4346944 0.1351195
vn -0.8903838 0.4346944 0.1351194
vn -0.8109019 -0.5695973 0.1341534
vn -0.8109018 -0.5695973 0.1341535
vn -0.8109019 -0.5695972 0.1341534
vn -0.8109019 -0.5695973 0.1341534
vn 0.1184313 -0.9924248 -0.03266478
vn 0.1184313 -0.9924248 -0.03266477
vn 0.1184313 -0.9924248 -0.03266478
vn 0.1184313 -0.9924248 -0.03266478
vn 0.8405144 -0.5301324 -0.1117818
vn 0.8405144 -0.5301325 -0.1117818
vn 0.8405144 -0.5301324 -0.1117818
vn 0.8405144 -0.5301325 -0.1117818
vn 0.8893354 0.4366701 -0.1356534
vn 0.8893833 0.4369953 -0.1342854
vn 0.8893833 0.4369953 -0.1342854
vn 0.8893228 0.4365867 -0.1360037
vn 0.8878034 0.4291664 -0.166197
vn 0.03939582 0.6912925 -0.7215003
vn 0.000368917 0.6924709 -0.7214457
vn 0.0004095796 0.6924702 -0.7214463
vn 0.03939582 0.6912924 -0.7215004
vn 0.000368917 0.6924709 -0.7214457
vn -0.03871065 0.6925932 -0.7202889
vn -0.03871065 0.6925932 -0.7202889
vn 0.0004095796 0.6924702 -0.7214463
vn 0.01369984 -0.60782 -0.7939566
vn 0.01369984 -0.60782 -0.7939566
vn 0.01369984 -0.60782 -0.7939566
vn 0.01369984 -0.60782 -0.7939566
vn -0.03861269 -0.68001 -0.7321854
vn -0.03861269 -0.68001 -0.7321854
vn -0.03861269 -0.68001 -0.7321854
vn -0.03861269 -0.68001 -0.7321854
vn 0.06051284 -0.01880224 -0.9979904
vn 0.06051284 -0.01880224 -0.9979904
vn 0.06051284 -0.01880224 -0.9979904
vn 0.06051284 -0.01880224 -0.9979904
vn -0.06051181 -0.01876336 -0.9979911
vn -0.06051181 -0.01876336 -0.9979911
vn -0.0605118 -0.01876336 -0.9979911
vn -0.06051181 -0.01876336 -0.9979911
vn 0.02627535 0.9107867 -0.4120404
vn 0.00021185 0.9099687 -0.4146768
vn 0.02627535 0.9107867 -0.4120403
vn 0.0002057367 0.9099685 -0.4146773
vn -0.02578811 0.9085301 -0.4170229
vn -0.02578811 0.9085301 -0.4170229
vn 0.0210779 -0.9507968 -0.3090973
vn 0.0003967595 -0.9503938 -0.3110489
vn 0.0210779 -0.9507968 -0.3090973
vn 0.0004016233 -0.950394 -0.3110484
vn -0.02024936 -0.9495823 -0.3128631
vn -0.02024936 -0.9495823 -0.3128631
vn -0.8905236 0.4340536 -0.1362539
vn -0.8926744 0.4230021 -0.155569
vn -0.8905351 0.4340006 -0.1363475
vn -0.8903838 0.4346944 -0.1351202
vn -0.8903838 0.4346944 -0.1351202
vn -0.8109012 -0.5695981 -0.1341529
vn -0.8109013 -0.5695982 -0.134153
vn -0.8109013 -0.5695982 -0.134153
vn -0.8109012 -0.5695981 -0.1341529
vn 0.1089165 0.9884113 -0.1057369
vn 0.1134646 0.9882316 -0.1025872
vn 0.1134646 0.9882316 -0.1025872
vn 0.1060223 0.9885098 -0.1077383
vn -0.008101023 0.9733915 -0.2290054
vn 0.02849323 0.9799692 -0.1971001
vn 0.01187032 0.9866148 -0.1626364
vn -0.02662481 0.9846998 -0.1722132
vn -0.0266248 0.9846998 -0.1722132
vn -0.07870575 -0.9806801 -0.1790867
vn -0.06967573 -0.9852545 -0.1562649
vn -0.06967574 -0.9852545 -0.1562649
vn -0.07502299 -0.9826225 -0.1697777
vn 0.1060223 0.9885098 -0.1077383
vn 0.01187032 0.9866148 -0.1626364
vn 0.02849323 0.9799692 -0.1971001
vn 0.1089165 0.9884113 -0.1057369
vn 0.006456716 0.9676293 -0.2522929
vn -0.008101023 0.9733915 -0.2290054
vn 0.00303224 0.9661468 -0.2579753
vn -0.004043997 0.9629418 -0.2696787
vn -0.004043997 0.9629418 -0.2696787
vn -0.1674402 0.9805279 -0.1026104
vn -0.1674402 0.9805279 -0.1026104
vn -0.1674402 0.9805279 -0.1026104
vn -0.1674402 0.9805279 -0.1026104
vn -0.08607615 0.995582 -0.03751459
vn -0.08607615 0.995582 -0.03751459
vn -0.08607615 0.995582 -0.03751459
vn -0.08607615 0.995582 -0.03751459
g SM_Prop_Snack_01_0
f 3/3/3 2/2/2 1/1/1
f 6/6/6 5/5/5 4/4/4
f 9/9/9 8/8/8 7/7/7
f 12/12/12 11/11/11 10/10/10
f 15/15/15 14/14/14 13/13/13
f 18/18/18 17/17/17 16/16/16
f 21/21/21 20/20/20 19/19/19
f 24/24/24 23/23/23 22/22/22
f 27/27/27 26/26/26 25/25/25
f 30/30/30 29/29/29 28/28/28
f 33/33/33 32/32/32 31/31/31
f 36/36/36 35/35/35 34/34/34
f 39/39/39 38/38/38 37/37/37
f 42/42/42 41/41/41 40/40/40
f 45/45/45 44/44/44 43/43/43
f 48/48/48 47/47/47 46/46/46
f 51/51/51 50/50/50 49/49/49
f 54/54/54 53/53/53 52/52/52
f 57/57/57 56/56/56 55/55/55
f 60/60/60 59/59/59 58/58/58
f 61/61/61 60/60/60 58/58/58
f 64/64/64 63/63/63 62/62/62
f 65/65/65 64/64/64 62/62/62
f 68/68/68 67/67/67 66/66/66
f 69/69/69 68/68/68 66/66/66
f 72/72/72 71/71/71 70/70/70
f 73/73/73 72/72/72 70/70/70
f 76/76/76 75/75/75 74/74/74
f 77/77/77 76/76/76 74/74/74
f 80/80/80 79/79/79 78/78/78
f 81/81/81 80/80/80 78/78/78
f 78/78/78 82/82/82 81/81/81
f 85/85/85 84/84/84 83/83/83
f 86/86/86 85/85/85 83/83/83
f 86/86/86 87/87/87 85/85/85
f 87/87/87 88/88/88 85/85/85
f 91/91/91 90/90/90 89/89/89
f 90/90/90 92/92/92 89/89/89
f 92/92/92 93/93/93 89/89/89
f 93/93/93 94/94/94 89/89/89
f 97/97/97 96/96/96 95/95/95
f 98/98/98 97/97/97 95/95/95
f 101/101/101 100/100/100 99/99/99
f 102/102/102 101/101/101 99/99/99
f 105/105/105 104/104/104 103/103/103
f 106/106/106 105/105/105 103/103/103
f 106/106/106 107/107/107 105/105/105
f 107/107/107 108/108/108 105/105/105
f 111/111/111 110/110/110 109/109/109
f 112/112/112 111/111/111 109/109/109
f 112/112/112 113/113/113 111/111/111
f 113/113/113 114/114/114 111/111/111
f 117/117/117 116/116/116 115/115/115
f 115/115/115 116/116/116 118/118/118
f 116/116/116 119/119/119 118/118/118
f 122/122/122 121/121/121 120/120/120
f 123/123/123 122/122/122 120/120/120
f 126/126/126 125/125/125 124/124/124
f 127/127/127 126/126/126 124/124/124
f 130/130/130 129/129/129 128/128/128
f 131/131/131 130/130/130 128/128/128
f 134/134/134 133/133/133 132/132/132
f 133/133/133 135/135/135 132/132/132
f 136/136/136 132/132/132 135/135/135
f 139/139/139 138/138/138 137/137/137
f 140/140/140 139/139/139 137/137/137
f 143/143/143 142/142/142 141/141/141
f 144/144/144 143/143/143 141/141/141
f 147/147/147 146/146/146 145/145/145
f 148/148/148 147/147/147 145/145/145
f 151/151/151 150/150/150 149/149/149
f 152/152/152 151/151/151 149/149/149
f 155/155/155 154/154/154 153/153/153
f 156/156/156 155/155/155 153/153/153
f 159/159/159 158/158/158 157/157/157
f 160/160/160 159/159/159 157/157/157
f 163/163/163 162/162/162 161/161/161
f 162/162/162 164/164/164 161/161/161
f 162/162/162 165/165/165 164/164/164
f 165/165/165 166/166/166 164/164/164
f 169/169/169 168/168/168 167/167/167
f 168/168/168 170/170/170 167/167/167
f 168/168/168 171/171/171 170/170/170
f 171/171/171 172/172/172 170/170/170
f 175/175/175 174/174/174 173/173/173
f 175/175/175 173/173/173 176/176/176
f 177/177/177 175/175/175 176/176/176
f 180/180/180 179/179/179 178/178/178
f 181/181/181 180/180/180 178/178/178
f 184/184/184 183/183/183 182/182/182
f 185/185/185 184/184/184 182/182/182
f 188/188/188 187/187/187 186/186/186
f 189/189/189 188/188/188 186/186/186
f 190/190/190 189/189/189 186/186/186
f 193/193/193 192/192/192 191/191/191
f 194/194/194 193/193/193 191/191/191
f 197/197/197 196/196/196 195/195/195
f 198/198/198 197/197/197 195/195/195
f 200/200/200 197/197/197 199/199/199
f 201/201/201 200/200/200 199/199/199
f 202/202/202 200/200/200 201/201/201
f 203/203/203 202/202/202 201/201/201
f 206/206/206 205/205/205 204/204/204
f 207/207/207 206/206/206 204/204/204
f 210/210/210 209/209/209 208/208/208
f 211/211/211 210/210/210 208/208/208
