g SM_Prop_Kitchen_Counter_01_Door_01
v 0.4738281 0.5369424 -4.263256E-16
v -4.263256E-16 0.5369424 -4.263256E-16
v -4.263256E-16 2.384186E-09 -4.263256E-16
v 0.4738281 2.384186E-09 -4.263256E-16
v -4.263256E-16 2.384186E-09 -4.263256E-16
v -4.263256E-16 2.384186E-09 0.03182373
v 0.4726391 2.384186E-09 0.03182373
v 0.4738281 2.384186E-09 -4.263256E-16
v 0.4738281 2.384186E-09 -4.263256E-16
v 0.4726391 2.384186E-09 0.03182373
v 0.4726391 0.5369424 0.03182373
v 0.4738281 0.5369424 -4.263256E-16
v 0.4738281 0.5369424 -4.263256E-16
v 0.4726391 0.5369424 0.03182373
v -4.263256E-16 0.5369424 0.03182373
v -4.263256E-16 0.5369424 -4.263256E-16
v -4.263256E-16 0.5369424 -4.263256E-16
v -4.263256E-16 0.5369424 0.03182373
v -4.263256E-16 2.384186E-09 0.03182373
v -4.263256E-16 2.384186E-09 -4.263256E-16
v 0.02496582 0.02167388 0.03182373
v 0.06209229 0.05141134 0.01419189
v 0.4117358 0.05141134 0.01419189
v 0.4488623 0.02167388 0.03182373
v 0.4488623 0.02167388 0.03182373
v 0.4117358 0.05141134 0.01419189
v 0.4117358 0.4855311 0.01419189
v 0.4488623 0.5152685 0.03182373
v 0.4488623 0.5152685 0.03182373
v 0.4117358 0.4855311 0.01419189
v 0.06209229 0.4855311 0.01419189
v 0.02496582 0.5152685 0.03182373
v 0.02496582 0.5152685 0.03182373
v 0.06209229 0.4855311 0.01419189
v 0.06209229 0.05141134 0.01419189
v 0.02496582 0.02167388 0.03182373
v 0.3893335 0.3087634 0.01419189
v 0.3893335 0.4446529 0.01419189
v 0.3893335 0.4646983 0.01419189
v 0.3893335 0.3288088 0.01419189
v 0.3534253 0.3288088 0.01419189
v 0.3893335 0.4446529 0.01419189
v 0.3893335 0.3288088 0.01419189
v 0.3534253 0.4446529 0.01419189
v 0.06209229 0.4855311 0.01419189
v 0.3534253 0.4646983 0.01419189
v 0.3534253 0.3087634 0.01419189
v 0.4117358 0.4855311 0.01419189
v 0.06209229 0.05141134 0.01419189
v 0.3893335 0.4646983 0.01419189
v 0.3893335 0.3087634 0.01419189
v 0.4117358 0.05141134 0.01419189
v -4.263256E-16 2.384186E-09 0.03182373
v 0.02496582 0.02167388 0.03182373
v 0.4488623 0.02167388 0.03182373
v 0.4726391 2.384186E-09 0.03182373
v -4.263256E-16 0.5369424 0.03182373
v 0.4488623 0.5152685 0.03182373
v 0.02496582 0.5152685 0.03182373
v 0.4726391 0.5369424 0.03182373
v 0.3534253 0.4446529 0.01419189
v 0.3592309 0.4397206 0.04559814
v 0.3835278 0.4397206 0.04559814
v 0.3893335 0.4446529 0.01419189
v 0.3893335 0.4446529 0.01419189
v 0.3835278 0.458059 0.05660645
v 0.3893335 0.4646983 0.01419189
v 0.3835278 0.4397206 0.04559814
v 0.3808936 0.3867308 0.06478027
v 0.3808936 0.3867308 0.04887207
v 0.3835278 0.3154028 0.05660645
v 0.3835278 0.3337412 0.04559814
v 0.3893335 0.3087634 0.01419189
v 0.3893335 0.3288088 0.01419189
v 0.3893335 0.4646983 0.01419189
v 0.3835278 0.458059 0.05660645
v 0.3592334 0.458059 0.05660645
v 0.3534253 0.4646983 0.01419189
v 0.3534253 0.4646983 0.01419189
v 0.3592309 0.4397206 0.04559814
v 0.3534253 0.4446529 0.01419189
v 0.3592334 0.458059 0.05660645
v 0.3618652 0.3867308 0.04887207
v 0.3618652 0.3867308 0.06478027
v 0.3592309 0.3337412 0.04559814
v 0.3592334 0.3154028 0.05660645
v 0.3534253 0.3288088 0.01419189
v 0.3534253 0.3087634 0.01419189
v 0.3534253 0.3087634 0.01419189
v 0.3592334 0.3154028 0.05660645
v 0.3835278 0.3154028 0.05660645
v 0.3893335 0.3087634 0.01419189
v 0.3893335 0.3288088 0.01419189
v 0.3835278 0.3337412 0.04559814
v 0.3592309 0.3337412 0.04559814
v 0.3534253 0.3288088 0.01419189
v 0.3592309 0.4397206 0.04559814
v 0.3808936 0.3867308 0.04887207
v 0.3835278 0.4397206 0.04559814
v 0.3618652 0.3867308 0.04887207
v 0.3835278 0.3337412 0.04559814
v 0.3592309 0.3337412 0.04559814
v 0.3835278 0.458059 0.05660645
v 0.3618652 0.3867308 0.06478027
v 0.3592334 0.458059 0.05660645
v 0.3808936 0.3867308 0.06478027
v 0.3592334 0.3154028 0.05660645
v 0.3835278 0.3154028 0.05660645
vt 0.03710938 0.3499756
vt 0.03710938 0.3499756
vt 0.03710938 0.3499775
vt 0.03710938 0.3499775
vt 0.06977493 0.3786832
vt 0.06977493 0.3786832
vt 0.06977493 0.3786832
vt 0.06977493 0.3786832
vt 0.06977493 0.3786832
vt 0.06977493 0.3786832
vt 0.06977493 0.3786832
vt 0.06977493 0.3786832
vt 0.06977493 0.3786832
vt 0.06977493 0.3786832
vt 0.06977493 0.3786832
vt 0.06977493 0.3786832
vt 0.06977493 0.3786832
vt 0.06977493 0.3786832
vt 0.06977493 0.3786832
vt 0.06977493 0.3786832
vt 0.06977493 0.3786832
vt 0.06977493 0.3786832
vt 0.06977493 0.3786832
vt 0.06977493 0.3786832
vt 0.06977493 0.3786832
vt 0.06977493 0.3786832
vt 0.06977493 0.3786832
vt 0.06977493 0.3786832
vt 0.06977493 0.3786832
vt 0.06977493 0.3786832
vt 0.06977493 0.3786832
vt 0.06977493 0.3786832
vt 0.06977493 0.3786832
vt 0.06977493 0.3786832
vt 0.06977493 0.3786832
vt 0.06977493 0.3786832
vt 0.06977493 0.3786832
vt 0.06977493 0.3786832
vt 0.06977493 0.3786832
vt 0.06977493 0.3786832
vt 0.06977493 0.3786832
vt 0.06977493 0.3786832
vt 0.06977493 0.3786832
vt 0.06977493 0.3786832
vt 0.06977493 0.3786832
vt 0.06977493 0.3786832
vt 0.06977493 0.3786832
vt 0.06977493 0.3786832
vt 0.06977493 0.3786832
vt 0.06977493 0.3786832
vt 0.06977493 0.3786832
vt 0.06977493 0.3786832
vt 0.06977493 0.3786832
vt 0.06977493 0.3786832
vt 0.06977493 0.3786832
vt 0.06977493 0.3786832
vt 0.06977493 0.3786832
vt 0.06977493 0.3786832
vt 0.06977493 0.3786832
vt 0.06977493 0.3786832
vt 0.2084008 0.3787804
vt 0.2084008 0.3787804
vt 0.2084008 0.3787804
vt 0.2084008 0.3787804
vt 0.2084008 0.3787804
vt 0.2084008 0.3787842
vt 0.2084008 0.3787842
vt 0.2084008 0.3787804
vt 0.2084008 0.3787804
vt 0.2084008 0.3787804
vt 0.2084008 0.3787804
vt 0.2084008 0.3787804
vt 0.2084008 0.3787804
vt 0.2084008 0.3787804
vt 0.2084008 0.3787842
vt 0.2084008 0.3787842
vt 0.2084008 0.3787842
vt 0.2084008 0.3787842
vt 0.2084008 0.3787842
vt 0.2084008 0.3787804
vt 0.2084008 0.3787804
vt 0.2084008 0.3787842
vt 0.2084008 0.3787804
vt 0.2084008 0.3787804
vt 0.2084008 0.3787804
vt 0.2084008 0.3787804
vt 0.2084008 0.3787804
vt 0.2084008 0.3787804
vt 0.2084008 0.3787804
vt 0.2084008 0.3787804
vt 0.2084008 0.3787804
vt 0.2084008 0.3787804
vt 0.2084008 0.3787804
vt 0.2084008 0.3787804
vt 0.2084008 0.3787804
vt 0.2084008 0.3787804
vt 0.2084008 0.3787804
vt 0.2084008 0.3787804
vt 0.2084008 0.3787804
vt 0.2084008 0.3787804
vt 0.2084008 0.3787804
vt 0.2084008 0.3787804
vt 0.2084008 0.3787842
vt 0.2084008 0.3787804
vt 0.2084008 0.3787842
vt 0.2084008 0.3787804
vt 0.2084008 0.3787804
vt 0.2084008 0.3787804
vn 0 0 -1
vn 0 0 -1
vn 0 0 -1
vn 0 0 -1
vn 0 -1 0
vn 0 -1 0
vn 0 -1 0
vn 0 -1 0
vn 0.9993029 0 0.0373349
vn 0.9993029 0 0.0373349
vn 0.9993029 0 0.0373349
vn 0.9993029 0 0.0373349
vn 0 1 0
vn 0 1 0
vn 0 1 0
vn 0 1 0
vn -1 0 0
vn -1 0 0
vn -1 0 0
vn -1 0 0
vn 0 0.1755452 0.9844714
vn 0 0.1755452 0.9844714
vn 0 0.1309826 0.9913846
vn 0 0.1755452 0.9844714
vn -0.1461729 0 0.9892591
vn -0.1092471 0 0.9940147
vn -0.1461729 0 0.9892591
vn -0.1461729 0 0.9892591
vn 0 -0.1755453 0.9844714
vn 0 -0.1755453 0.9844714
vn 0 -0.08670202 0.9962342
vn 0 -0.1755453 0.9844714
vn 0.1461729 0 0.9892591
vn 0.07247874 0 0.99737
vn 0.1461729 0 0.9892591
vn 0.1461729 0 0.9892591
vn 0 1 0
vn 0 1 0
vn 0 0.9969878 0.07755911
vn 0 0.9969682 -0.07780967
vn 0 0 1
vn 0 0 1
vn 0 0 1
vn 0 0 1
vn 0.06312212 -0.0750429 0.9951805
vn 0 0 1
vn 0 0 1
vn -0.1122421 -0.1334394 0.9846805
vn 0.1122421 0.1334393 0.9846805
vn 0 0 1
vn 0 0 1
vn -0.08919004 0.1060338 0.9903544
vn 0 0 1
vn 0.1122421 0.1334393 0.9846805
vn -0.1122421 0.1334393 0.9846805
vn 0 0 1
vn 0 0 1
vn -0.1122421 -0.1334394 0.9846805
vn 0.1122421 -0.1334394 0.9846805
vn 0 0 1
vn 0 -0.9878916 -0.1551464
vn 0 -0.9878916 -0.1551464
vn 0 -0.9878916 -0.1551464
vn 0 -0.9878916 -0.1551464
vn 0.9879605 -0.04264985 0.1487115
vn 0.9952553 -0.04131773 0.08808877
vn 0.9879605 -0.04264985 0.1487115
vn 0.9952553 -0.04131773 0.08808877
vn 0.9996312 0 0.02715902
vn 0.9996312 0 0.02715902
vn 0.9952553 0.04131772 0.08808882
vn 0.9952553 0.04131772 0.08808882
vn 0.9879605 0.04264976 0.1487115
vn 0.9879605 0.04264976 0.1487115
vn 0 0.9969878 0.07755911
vn 0 0.9879692 0.154651
vn 0 0.9879692 0.154651
vn 0 0.9879692 0.154651
vn -0.9879566 -0.04259851 0.1487516
vn -0.9952519 -0.04127876 0.08814514
vn -0.9879566 -0.04259851 0.1487516
vn -0.9952519 -0.04127876 0.08814514
vn -0.9996291 0 0.02723169
vn -0.9996291 0 0.02723169
vn -0.9952519 0.04127876 0.0881452
vn -0.9952519 0.04127876 0.0881452
vn -0.9879566 0.04259843 0.1487516
vn -0.9879566 0.04259843 0.1487516
vn 0 -0.9879692 0.154651
vn 0 -0.9879692 0.154651
vn 0 -0.9879692 0.154651
vn 0 -0.9879692 0.154651
vn 0 0.9969682 -0.07780967
vn 0 0.9878913 -0.1551476
vn 0 0.9878913 -0.1551476
vn 0 0.9878913 -0.1551476
vn 0 -0.06166648 -0.9980968
vn 0 0 -1
vn 0 -0.06166648 -0.9980968
vn 0 0 -1
vn 0 0.06166666 -0.9980968
vn 0 0.06166666 -0.9980968
vn 0 0.1138496 0.993498
vn 0 0 1
vn 0 0.1138496 0.993498
vn 0 0 1
vn 0 -0.1138497 0.993498
vn 0 -0.1138497 0.993498
g SM_Prop_Kitchen_Counter_01_Door_01_0
f 3/3/3 2/2/2 1/1/1
f 4/4/4 3/3/3 1/1/1
f 7/7/7 6/6/6 5/5/5
f 8/8/8 7/7/7 5/5/5
f 11/11/11 10/10/10 9/9/9
f 12/12/12 11/11/11 9/9/9
f 15/15/15 14/14/14 13/13/13
f 16/16/16 15/15/15 13/13/13
f 19/19/19 18/18/18 17/17/17
f 20/20/20 19/19/19 17/17/17
f 23/23/23 22/22/22 21/21/21
f 24/24/24 23/23/23 21/21/21
f 27/27/27 26/26/26 25/25/25
f 28/28/28 27/27/27 25/25/25
f 31/31/31 30/30/30 29/29/29
f 32/32/32 31/31/31 29/29/29
f 35/35/35 34/34/34 33/33/33
f 36/36/36 35/35/35 33/33/33
f 39/39/39 38/38/38 37/37/37
f 38/38/38 40/40/40 37/37/37
f 43/43/43 42/42/42 41/41/41
f 42/42/42 44/44/44 41/41/41
f 45/45/45 41/41/41 44/44/44
f 44/44/44 46/46/46 45/45/45
f 45/45/45 47/47/47 41/41/41
f 45/45/45 46/46/46 48/48/48
f 45/45/45 49/49/49 47/47/47
f 46/46/46 50/50/50 48/48/48
f 51/51/51 47/47/47 49/49/49
f 52/52/52 48/48/48 50/50/50
f 52/52/52 51/51/51 49/49/49
f 50/50/50 51/51/51 52/52/52
f 55/55/55 54/54/54 53/53/53
f 56/56/56 55/55/55 53/53/53
f 53/53/53 54/54/54 57/57/57
f 58/58/58 55/55/55 56/56/56
f 54/54/54 59/59/59 57/57/57
f 60/60/60 58/58/58 56/56/56
f 57/57/57 59/59/59 60/60/60
f 59/59/59 58/58/58 60/60/60
g SM_Prop_Kitchen_Counter_01_Door_01_1
f 63/63/63 62/62/62 61/61/61
f 64/64/64 63/63/63 61/61/61
f 67/67/67 66/66/66 65/65/65
f 66/66/66 68/68/68 65/65/65
f 66/66/66 69/69/69 68/68/68
f 69/69/69 70/70/70 68/68/68
f 70/70/70 69/69/69 71/71/71
f 72/72/72 70/70/70 71/71/71
f 72/72/72 71/71/71 73/73/73
f 74/74/74 72/72/72 73/73/73
f 77/77/77 76/76/76 75/75/75
f 78/78/78 77/77/77 75/75/75
f 81/81/81 80/80/80 79/79/79
f 80/80/80 82/82/82 79/79/79
f 80/80/80 83/83/83 82/82/82
f 83/83/83 84/84/84 82/82/82
f 84/84/84 83/83/83 85/85/85
f 86/86/86 84/84/84 85/85/85
f 86/86/86 85/85/85 87/87/87
f 88/88/88 86/86/86 87/87/87
f 91/91/91 90/90/90 89/89/89
f 92/92/92 91/91/91 89/89/89
f 95/95/95 94/94/94 93/93/93
f 96/96/96 95/95/95 93/93/93
f 99/99/99 98/98/98 97/97/97
f 98/98/98 100/100/100 97/97/97
f 100/100/100 98/98/98 101/101/101
f 102/102/102 100/100/100 101/101/101
f 105/105/105 104/104/104 103/103/103
f 104/104/104 106/106/106 103/103/103
f 106/106/106 104/104/104 107/107/107
f 108/108/108 106/106/106 107/107/107
