g SM_Prop_PetBowl_02_Food
v 0.2152716 0.1202569 -0.04472046
v 0.2399676 0.07958213 -0.04648681
v 0.2434393 0.0795821 -0.04841797
v 0.1342188 0.148236 -0.02440796
v 0.1046613 0.113141 -0.01761475
v 0.143573 0.119195 -0.04860473
v 0.176131 0.148236 -0.03667847
v 0.1342188 0.148236 -0.02440796
v 0.1046613 0.113141 -0.01761475
v 0.1595782 0.07958211 -0.09683593
v 0.176131 0.148236 -0.03667847
v 0.07571655 0.07958211 -0.04841919
v 0.07571716 0.07958213 0.04841553
v 0.1578259 0.07958213 -0.09391113
v 0.2152716 0.1202569 -0.04472046
v 0.2399676 0.07958213 -0.04648681
v 0.1440356 0.1472387 0.01668945
v 0.1342188 0.148236 -0.02440796
v 0.1213959 0.1117312 0.03151123
v 0.1440356 0.1472387 0.01668945
v 0.1342188 0.148236 -0.02440796
v 0.1885431 0.1472387 -0.004515381
v 0.176131 0.148236 -0.03667847
v 0.2186267 0.1167926 0.03484131
v 0.2434406 0.07958214 0.04841675
v 0.2434393 0.0795821 -0.04841797
v 0.2186267 0.1167926 0.03484131
v 0.1440356 0.1472387 0.01668945
v 0.1595789 0.07958217 0.09683471
v 0.07571716 0.07958213 0.04841553
v 0.1046613 0.113141 -0.01761475
v 0.2186267 0.1167926 0.03484131
v 0.1440356 0.1472387 0.01668945
v 0.07571716 0.07958213 0.04841553
vt 0.03698578 0.3063076
vt 0.03698578 0.3063076
vt 0.03698578 0.3063076
vt 0.03698578 0.3063076
vt 0.03698578 0.3063076
vt 0.03698578 0.3063076
vt 0.03698578 0.3063076
vt 0.03698578 0.3063076
vt 0.03698578 0.3063076
vt 0.03698578 0.3063076
vt 0.03698578 0.3063076
vt 0.03698578 0.3063076
vt 0.03698578 0.3063076
vt 0.03698578 0.3063076
vt 0.03698578 0.3063076
vt 0.03698578 0.3063076
vt 0.03698578 0.3063076
vt 0.03698578 0.3063076
vt 0.03698578 0.3063076
vt 0.03698578 0.3063076
vt 0.03698578 0.3063076
vt 0.03698578 0.3063076
vt 0.03698578 0.3063076
vt 0.03698578 0.3063076
vt 0.03698578 0.3063076
vt 0.03698578 0.3063076
vt 0.03698578 0.3063076
vt 0.03698578 0.3063076
vt 0.03698578 0.3063076
vt 0.03698578 0.3063076
vt 0.03698578 0.3063076
vt 0.03698578 0.3063076
vt 0.03698578 0.3063076
vt 0.03698578 0.3063076
vn -0.4707919 -0.2490917 -0.84635
vn -0.4707919 -0.2490917 -0.84635
vn -0.4707919 -0.2490917 -0.84635
vn -0.6193439 0.6179534 -0.4843003
vn -0.6998094 0.6536577 -0.2880942
vn -0.3968891 0.594723 -0.6991305
vn -0.07448657 0.7849939 -0.6150092
vn -0.3226947 0.7603945 -0.5636207
vn -0.6771895 0.7115644 -0.1873243
vn -0.3578009 0.6868598 -0.6326154
vn 0.06360219 0.8334597 -0.5489078
vn -0.6210665 0.7200812 -0.3094501
vn -0.5137557 0.8360796 0.1924213
vn 0.1519829 0.5614287 -0.8134488
vn 0.6288106 0.6673447 -0.3990593
vn 0.4732132 0.3229094 -0.8196332
vn -0.3183929 0.8220058 0.4721572
vn -0.5492777 0.8167771 -0.1765482
vn -0.3881516 0.6800648 0.6219729
vn -0.1930206 0.9398547 0.2818089
vn -0.3923777 0.8949437 -0.2124041
vn 0.4043339 0.9105122 0.08649695
vn 0.1448751 0.8751912 -0.4615751
vn 0.5998231 0.728945 0.3299264
vn 0.6862426 0.6092843 0.3972955
vn 0.8270977 0.5620385 -0.004699435
vn 0.3174045 0.7641432 0.5615509
vn 0.06945693 0.8456948 0.5291275
vn 0.1178259 0.7979049 0.5911556
vn -0.426838 0.815708 0.3904224
vn -0.6528803 0.7564262 -0.03958293
vn 0.07199489 0.6972811 0.7131731
vn -0.2230863 0.7379565 0.6369087
vn -0.2784641 0.8177066 0.5037992
g SM_Prop_PetBowl_02_Food_0
f 3/3/3 2/2/2 1/1/1
f 6/6/6 5/5/5 4/4/4
f 6/6/6 8/8/8 7/7/7
f 6/6/6 10/10/10 9/9/9
f 6/6/6 11/11/11 10/10/10
f 10/10/10 12/12/12 9/9/9
f 12/12/12 13/13/13 9/9/9
f 11/11/11 14/14/14 10/10/10
f 14/14/14 11/11/11 15/15/15
f 16/16/16 14/14/14 15/15/15
f 18/18/18 9/9/9 17/17/17
f 9/9/9 19/19/19 17/17/17
f 21/21/21 20/20/20 11/11/11
f 20/20/20 22/22/22 11/11/11
f 23/23/23 22/22/22 15/15/15
f 22/22/22 24/24/24 15/15/15
f 15/15/15 24/24/24 25/25/25
f 26/26/26 15/15/15 25/25/25
f 22/22/22 28/28/28 27/27/27
f 25/25/25 27/27/27 29/29/29
f 31/31/31 30/30/30 19/19/19
f 30/30/30 29/29/29 32/32/32
f 32/32/32 33/33/33 19/19/19
f 32/32/32 19/19/19 34/34/34
