g SM_Prop_Paper_02
v -0.1105704 0.01189047 0.1667404
v -0.1105704 0.01189047 -0.1667407
v 0.1105707 0.01189047 -0.1667407
v 0.1105707 0.01189047 0.1667404
v -0.1105704 0 0.1667404
v 0.1105707 0 0.1667404
v 0.1105707 1.501226E-16 -0.1667407
v -0.1105704 1.501226E-16 -0.1667407
v -0.1105704 0 0.1667404
v -0.1105704 0.01189047 0.1667404
v 0.1105707 0.01189047 0.1667404
v 0.1105707 0 0.1667404
v 0.1105707 0 0.1667404
v 0.1105707 0.01189047 0.1667404
v 0.1105707 0.01189047 -0.1667407
v 0.1105707 1.501226E-16 -0.1667407
v 0.1105707 1.501226E-16 -0.1667407
v 0.1105707 0.01189047 -0.1667407
v -0.1105704 0.01189047 -0.1667407
v -0.1105704 1.501226E-16 -0.1667407
v -0.1105704 1.501226E-16 -0.1667407
v -0.1105704 0.01189047 -0.1667407
v -0.1105704 0.01189047 0.1667404
v -0.1105704 0 0.1667404
vt 0.362793 0.3259277
vt 0.362793 0.357666
vt 0.3886719 0.357666
vt 0.3886719 0.3259277
vt 0.362793 0.3259277
vt 0.3886719 0.3259277
vt 0.3886719 0.357666
vt 0.362793 0.357666
vt 0.362793 0.3259277
vt 0.362793 0.3259277
vt 0.3886719 0.3259277
vt 0.3886719 0.3259277
vt 0.3886719 0.3259277
vt 0.3886719 0.3259277
vt 0.3886719 0.357666
vt 0.3886719 0.357666
vt 0.3886719 0.357666
vt 0.3886719 0.357666
vt 0.362793 0.357666
vt 0.362793 0.357666
vt 0.362793 0.357666
vt 0.362793 0.357666
vt 0.362793 0.3259277
vt 0.362793 0.3259277
vn 0 1 0
vn 0 1 0
vn 0 1 0
vn 0 1 0
vn 0 -1 0
vn 0 -1 0
vn 0 -1 0
vn 0 -1 0
vn 0 0 1
vn 0 0 1
vn 0 0 1
vn 0 0 1
vn 1 0 0
vn 1 0 0
vn 1 0 0
vn 1 0 0
vn 0 0 -1
vn 0 0 -1
vn 0 0 -1
vn 0 0 -1
vn -1 0 0
vn -1 0 0
vn -1 0 0
vn -1 0 0
g SM_Prop_Paper_02_0
f 3/3/3 2/2/2 1/1/1
f 4/4/4 3/3/3 1/1/1
f 7/7/7 6/6/6 5/5/5
f 8/8/8 7/7/7 5/5/5
f 11/11/11 10/10/10 9/9/9
f 12/12/12 11/11/11 9/9/9
f 15/15/15 14/14/14 13/13/13
f 16/16/16 15/15/15 13/13/13
f 19/19/19 18/18/18 17/17/17
f 20/20/20 19/19/19 17/17/17
f 23/23/23 22/22/22 21/21/21
f 24/24/24 23/23/23 21/21/21
