g SM_Prop_Pot_06
v -0.07217082 0.006393661 0.07217082
v -0.03866234 0.1966744 0.1077623
v -5.823135E-05 0.1349799 0.1041346
v -0.07217082 0.006393661 0.07217082
v -0.08752351 0.1966744 0.08752321
v -0.03866234 0.1966744 0.1077623
v -0.08752351 0.1966744 0.08752321
v -0.09405919 0.2043038 0.09405919
v -0.03866234 0.1966744 0.1077623
v 0.009149685 0.1994721 -0.1230237
v 0.01301656 0.2010643 -0.09951565
v 0.01301657 0.2073124 -0.1321985
v 0.07217082 -0.01178174 0.07217082
v 0.07217082 0.006393661 0.07217082
v 0.1020652 0.006393661 0
v 0.1020652 -0.01178174 0
v 0.1020652 -0.01178174 0
v 0.07217082 0.006393661 -0.07217112
v 0.07217082 -0.01178174 -0.07217112
v 0.1020652 0.006393661 0
v 0.05828533 0.1126003 -0.09970012
v 0.1106034 0.08122328 -3.147125E-07
v 0.07217082 -0.01178174 -0.07217112
v 0.07217082 0.006393661 -0.07217112
v 0 0.006393661 -0.1020652
v 0 -0.01178174 -0.1020652
v 0 -0.01178174 -0.1020652
v -0.07217082 0.006393661 -0.07217112
v -0.07217082 -0.01178174 -0.07217112
v 0 0.006393661 -0.1020652
v -0.08752351 0.1966744 -0.08752384
v 0.009149685 0.1994721 -0.1230237
v -0.07217082 -0.01178174 -0.07217112
v -0.07217082 0.006393661 -0.07217112
v -0.1020652 0.006393661 0
v -0.1020652 -0.01178174 0
v -0.1020652 -0.01178174 0
v -0.1020652 0.006393661 0
v -0.07217082 0.006393661 0.07217082
v -0.07217082 -0.01178174 0.07217082
v -0.07217082 -0.01178174 0.07217082
v 0 0.006393661 0.1020649
v 0 -0.01178174 0.1020649
v -0.07217082 0.006393661 0.07217082
v -5.823135E-05 0.1349799 0.1041346
v 0 -0.01178174 0.1020649
v 0.07217082 0.006393661 0.07217082
v 0.07217082 -0.01178174 0.07217082
v 0 0.006393661 0.1020649
v 0.08143383 0.121199 0.0814335
v -5.823135E-05 0.1349799 0.1041346
v 0.05667372 -0.006407203 0.05667372
v 0.07217082 -0.01178174 0.07217082
v 0.1020652 -0.01178174 0
v 0.08014892 -0.006407203 0
v 0.08014892 -0.006407203 0
v 0.1020652 -0.01178174 0
v 0.07217082 -0.01178174 -0.07217112
v 0.05667372 -0.006407203 -0.05667372
v 0.05667372 -0.006407203 -0.05667372
v 0.07217082 -0.01178174 -0.07217112
v 0 -0.01178174 -0.1020652
v 0 -0.006407203 -0.08014892
v 0 -0.006407203 -0.08014892
v 0 -0.01178174 -0.1020652
v -0.07217082 -0.01178174 -0.07217112
v -0.05667372 -0.006407203 -0.05667372
v -0.05667372 -0.006407203 -0.05667372
v -0.07217082 -0.01178174 -0.07217112
v -0.1020652 -0.01178174 0
v -0.08014862 -0.006407203 0
v -0.08014862 -0.006407203 0
v -0.1020652 -0.01178174 0
v -0.07217082 -0.01178174 0.07217082
v -0.05667372 -0.006407203 0.05667372
v -0.05667372 -0.006407203 0.05667372
v -0.07217082 -0.01178174 0.07217082
v 0 -0.01178174 0.1020649
v 0 -0.006407203 0.08014862
v 0 -0.006407203 0.08014862
v 0 -0.01178174 0.1020649
v 0.07217082 -0.01178174 0.07217082
v 0.05667372 -0.006407203 0.05667372
v 0.08273683 0.003763238 0
v 0.09304801 0.09229742 -0.00584733
v 0.07191974 0.1228846 0.07193478
v 0.05850361 0.003763238 0.05850361
v 0.07217082 0.006393661 0.07217082
v 0.08143383 0.121199 0.0814335
v 0.1106034 0.08122328 -3.147125E-07
v 0.1020652 0.006393661 0
v 0.05850361 0.003763238 -0.05850391
v 0.04668158 0.1309759 -0.08942068
v 0.09304801 0.09229742 -0.00584733
v 0.08273683 0.003763238 0
v 0.07217082 0.006393661 -0.07217112
v 0.05828533 0.1126003 -0.09970012
v 0.009149685 0.1994721 -0.1230237
v 0 0.006393661 -0.1020652
v -0.08273653 0.003763238 0
v -0.1003368 0.1980558 -3.147125E-07
v -0.0709487 0.1980558 -0.07094902
v -0.05850361 0.003763238 -0.05850391
v -0.07217082 0.006393661 -0.07217112
v -0.08752351 0.1966744 -0.08752384
v -0.1237768 0.1966744 -3.147125E-07
v -0.1020652 0.006393661 0
v -0.05850361 0.003763238 0.05850361
v -0.0709487 0.1980558 0.07094869
v -0.1003368 0.1980558 -3.147125E-07
v -0.08273653 0.003763238 0
v -0.1020652 0.006393661 0
v -0.1237768 0.1966744 -3.147125E-07
v -0.08752351 0.1966744 0.08752321
v -0.07217082 0.006393661 0.07217082
v 0 0.003763238 0.08273653
v 0.0007001304 0.1367262 0.09498111
v -0.03713824 0.1980558 0.08495342
v -0.05850361 0.003763238 0.05850361
v -0.0709487 0.1980558 0.07094869
v 0.05850361 0.003763238 0.05850361
v 0.07191974 0.1228846 0.07193478
v 0.0007001304 0.1367262 0.09498111
v 0 0.003763238 0.08273653
v -0.0709487 0.1980558 -0.07094902
v -0.08363783 0.2600459 -0.08363785
v 0.03601791 0.2628006 -0.1133708
v 0.01301656 0.2010643 -0.09951565
v 0.01301657 0.2073124 -0.1321985
v 0.03601791 0.2619265 -0.1354904
v -0.09927858 0.2591718 -0.0992789
v -0.09405919 0.2043038 -0.09405951
v -0.1003368 0.1980558 -3.147125E-07
v -0.1182816 0.2600459 -3.242493E-07
v -0.08363783 0.2600459 -0.08363785
v -0.0709487 0.1980558 -0.07094902
v -0.09405919 0.2043038 -0.09405951
v -0.09927858 0.2591718 -0.0992789
v -0.1404012 0.2591718 -3.242493E-07
v -0.13302 0.2043038 -3.147125E-07
v -0.0709487 0.1980558 0.07094869
v -0.08363783 0.2600459 0.08363751
v -0.1182816 0.2600459 -3.242493E-07
v -0.1003368 0.1980558 -3.147125E-07
v -0.13302 0.2043038 -3.147125E-07
v -0.1404012 0.2591718 -3.242493E-07
v -0.09927859 0.2591718 0.09927857
v -0.09405919 0.2043038 0.09405919
v -0.05828045 0.2600459 0.0941408
v -0.08363783 0.2600459 0.08363751
v -0.0709487 0.1980558 0.07094869
v -0.03713824 0.1980558 0.08495342
v -0.09405919 0.2043038 0.09405919
v -0.09927859 0.2591718 0.09927857
v -0.05952175 0.2591717 0.1157464
v -0.03866234 0.1966744 0.1077623
v 0.009149685 0.1994721 -0.1230237
v 0.01301657 0.2073124 -0.1321985
v -0.09405919 0.2043038 -0.09405951
v -0.08752351 0.1966744 -0.08752384
v -0.08363783 0.2600459 -0.08363785
v 0.03601791 0.2619265 -0.1354904
v 0.03601791 0.2628006 -0.1133708
v -0.09927858 0.2591718 -0.0992789
v -0.1182816 0.2600459 -3.242493E-07
v -0.1404012 0.2591718 -3.242493E-07
v -0.08363783 0.2600459 0.08363751
v -0.09927859 0.2591718 0.09927857
v -0.05952175 0.2591717 0.1157464
v -0.05828045 0.2600459 0.0941408
v -0.08752351 0.1966744 -0.08752384
v -0.09405919 0.2043038 -0.09405951
v -0.13302 0.2043038 -3.147125E-07
v -0.1237768 0.1966744 -3.147125E-07
v -0.1237768 0.1966744 -3.147125E-07
v -0.13302 0.2043038 -3.147125E-07
v -0.09405919 0.2043038 0.09405919
v -0.08752351 0.1966744 0.08752321
v 0.01301657 0.2073124 -0.1321985
v 0.01301656 0.2010643 -0.09951565
v 0.03601791 0.2628006 -0.1133708
v 0.03601791 0.2619265 -0.1354904
v 0 0.003763238 -0.08273683
v 0.01301656 0.2010643 -0.09951565
v 0.04668158 0.1309759 -0.08942068
v 0.05850361 0.003763238 -0.05850391
v 0.01301656 0.2010643 -0.09951565
v 0.009149685 0.1994721 -0.1230237
v 0.05828533 0.1126003 -0.09970012
v 0.04668158 0.1309759 -0.08942068
v 0.04668158 0.1309759 -0.08942068
v 0.05828533 0.1126003 -0.09970012
v 0.1106034 0.08122328 -3.147125E-07
v 0.09304801 0.09229742 -0.00584733
v 0.08143383 0.121199 0.0814335
v 0.07191974 0.1228846 0.07193478
v 0.09304801 0.09229742 -0.00584733
v 0.1106034 0.08122328 -3.147125E-07
v -5.823135E-05 0.1349799 0.1041346
v 0.0007001304 0.1367262 0.09498111
v 0.07191974 0.1228846 0.07193478
v 0.08143383 0.121199 0.0814335
v -0.03866234 0.1966744 0.1077623
v -0.03713824 0.1980558 0.08495342
v 0.0007001304 0.1367262 0.09498111
v -5.823135E-05 0.1349799 0.1041346
v -0.03866234 0.1966744 0.1077623
v -0.05952175 0.2591717 0.1157464
v -0.05828045 0.2600459 0.0941408
v -0.03713824 0.1980558 0.08495342
v -0.05850361 0.003763238 -0.05850391
v -0.0709487 0.1980558 -0.07094902
v 0.01301656 0.2010643 -0.09951565
v 0 0.003763238 -0.08273683
v 0.08014892 -0.006407203 0
v 0 -0.006407203 0
v 0.05667372 -0.006407203 0.05667372
v 0.05667372 -0.006407203 -0.05667372
v 0 -0.006407203 0.08014862
v 0 -0.006407203 -0.08014892
v -0.05667372 -0.006407203 0.05667372
v -0.05667372 -0.006407203 -0.05667372
v -0.08014862 -0.006407203 0
v 0.05850361 0.003763238 0.05850361
v 0 0.006407206 -5.960464E-10
v 0.08273683 0.003763238 0
v 0 0.003763238 0.08273653
v 0.05850361 0.003763238 -0.05850391
v -0.05850361 0.003763238 0.05850361
v 0 0.003763238 -0.08273683
v -0.08273653 0.003763238 0
v -0.05850361 0.003763238 -0.05850391
vt 0.1606445 0.46875
vt 0.1606445 0.46875
vt 0.1606445 0.46875
vt 0.1606445 0.46875
vt 0.1606445 0.46875
vt 0.1606445 0.46875
vt 0.1606445 0.46875
vt 0.1606445 0.46875
vt 0.1606445 0.46875
vt 0.2181396 0.4914551
vt 0.2181396 0.4914551
vt 0.2181396 0.4914551
vt 0.1606445 0.46875
vt 0.1606445 0.46875
vt 0.1606445 0.46875
vt 0.1606445 0.46875
vt 0.1606445 0.46875
vt 0.1606445 0.46875
vt 0.1606445 0.46875
vt 0.1606445 0.46875
vt 0.1606445 0.46875
vt 0.1606445 0.46875
vt 0.1606445 0.46875
vt 0.1606445 0.46875
vt 0.1606445 0.46875
vt 0.1606445 0.46875
vt 0.1606445 0.46875
vt 0.1606445 0.46875
vt 0.1606445 0.46875
vt 0.1606445 0.46875
vt 0.1606445 0.46875
vt 0.1606445 0.46875
vt 0.1606445 0.46875
vt 0.1606445 0.46875
vt 0.1606445 0.46875
vt 0.1606445 0.46875
vt 0.1606445 0.46875
vt 0.1606445 0.46875
vt 0.1606445 0.46875
vt 0.1606445 0.46875
vt 0.1606445 0.46875
vt 0.1606445 0.46875
vt 0.1606445 0.46875
vt 0.1606445 0.46875
vt 0.1606445 0.46875
vt 0.1606445 0.46875
vt 0.1606445 0.46875
vt 0.1606445 0.46875
vt 0.1606445 0.46875
vt 0.1606445 0.46875
vt 0.1606445 0.46875
vt 0.1606445 0.46875
vt 0.1606445 0.46875
vt 0.1606445 0.46875
vt 0.1606445 0.46875
vt 0.1606445 0.46875
vt 0.1606445 0.46875
vt 0.1606445 0.46875
vt 0.1606445 0.46875
vt 0.1606445 0.46875
vt 0.1606445 0.46875
vt 0.1606445 0.46875
vt 0.1606445 0.46875
vt 0.1606445 0.46875
vt 0.1606445 0.46875
vt 0.1606445 0.46875
vt 0.1606445 0.46875
vt 0.1606445 0.46875
vt 0.1606445 0.46875
vt 0.1606445 0.46875
vt 0.1606445 0.46875
vt 0.1606445 0.46875
vt 0.1606445 0.46875
vt 0.1606445 0.46875
vt 0.1606445 0.46875
vt 0.1606445 0.46875
vt 0.1606445 0.46875
vt 0.1606445 0.46875
vt 0.1606445 0.46875
vt 0.1606445 0.46875
vt 0.1606445 0.46875
vt 0.1606445 0.46875
vt 0.1606445 0.46875
vt 0.1606445 0.46875
vt 0.1606445 0.46875
vt 0.1606445 0.46875
vt 0.1606445 0.46875
vt 0.1606445 0.46875
vt 0.1606445 0.46875
vt 0.1606445 0.46875
vt 0.1606445 0.46875
vt 0.1606445 0.46875
vt 0.1606445 0.46875
vt 0.1606445 0.46875
vt 0.1606445 0.46875
vt 0.1606445 0.46875
vt 0.1606445 0.46875
vt 0.1606445 0.46875
vt 0.1606445 0.46875
vt 0.1606445 0.46875
vt 0.1606445 0.46875
vt 0.1606445 0.46875
vt 0.1606445 0.46875
vt 0.1606445 0.46875
vt 0.1606445 0.46875
vt 0.1606445 0.46875
vt 0.1606445 0.46875
vt 0.1606445 0.46875
vt 0.1606445 0.46875
vt 0.1606445 0.46875
vt 0.1606445 0.46875
vt 0.1606445 0.46875
vt 0.1606445 0.46875
vt 0.1606445 0.46875
vt 0.1606445 0.46875
vt 0.1606445 0.46875
vt 0.1606445 0.46875
vt 0.1606445 0.46875
vt 0.1606445 0.46875
vt 0.1606445 0.46875
vt 0.1606445 0.46875
vt 0.1606445 0.46875
vt 0.1606445 0.46875
vt 0.1606445 0.46875
vt 0.1606445 0.46875
vt 0.1606445 0.46875
vt 0.1606445 0.46875
vt 0.1606445 0.46875
vt 0.1606445 0.46875
vt 0.1606445 0.46875
vt 0.1606445 0.46875
vt 0.1606445 0.46875
vt 0.1606445 0.46875
vt 0.1606445 0.46875
vt 0.1606445 0.46875
vt 0.1606445 0.46875
vt 0.1606445 0.46875
vt 0.1606445 0.46875
vt 0.1606445 0.46875
vt 0.1606445 0.46875
vt 0.1606445 0.46875
vt 0.1606445 0.46875
vt 0.1606445 0.46875
vt 0.1606445 0.46875
vt 0.1606445 0.46875
vt 0.1606445 0.46875
vt 0.1606445 0.46875
vt 0.1606445 0.46875
vt 0.1606445 0.46875
vt 0.1606445 0.46875
vt 0.1606445 0.46875
vt 0.1606445 0.46875
vt 0.1606445 0.46875
vt 0.1606445 0.46875
vt 0.1606445 0.46875
vt 0.1606445 0.46875
vt 0.1606445 0.46875
vt 0.1606445 0.46875
vt 0.1606445 0.46875
vt 0.1606445 0.46875
vt 0.2181396 0.4914551
vt 0.2181396 0.4914551
vt 0.2181396 0.4914551
vt 0.2181396 0.4914551
vt 0.2181396 0.4914551
vt 0.2181396 0.4914551
vt 0.2181396 0.4914551
vt 0.2181396 0.4914551
vt 0.2181396 0.4914551
vt 0.2181396 0.4914551
vt 0.1606445 0.46875
vt 0.1606445 0.46875
vt 0.1606445 0.46875
vt 0.1606445 0.46875
vt 0.1606445 0.46875
vt 0.1606445 0.46875
vt 0.1606445 0.46875
vt 0.1606445 0.46875
vt 0.2181396 0.4914551
vt 0.2181396 0.4914551
vt 0.2181396 0.4914551
vt 0.2181396 0.4914551
vt 0.1606445 0.46875
vt 0.1606445 0.46875
vt 0.1606445 0.46875
vt 0.1606445 0.46875
vt 0.2181396 0.4914551
vt 0.2181396 0.4914551
vt 0.2181396 0.4914551
vt 0.2181396 0.4914551
vt 0.2181396 0.4914551
vt 0.2181396 0.4914551
vt 0.2181396 0.4914551
vt 0.2181396 0.4914551
vt 0.2181396 0.4914551
vt 0.2181396 0.4914551
vt 0.2181396 0.4914551
vt 0.2181396 0.4914551
vt 0.2181396 0.4914551
vt 0.2181396 0.4914551
vt 0.2181396 0.4914551
vt 0.2181396 0.4914551
vt 0.2181396 0.4914551
vt 0.2181396 0.4914551
vt 0.2181396 0.4914551
vt 0.2181396 0.4914551
vt 0.2181396 0.4914551
vt 0.2181396 0.4914551
vt 0.2181396 0.4914551
vt 0.2181396 0.4914551
vt 0.1606445 0.46875
vt 0.1606445 0.46875
vt 0.1606445 0.46875
vt 0.1606445 0.46875
vt 0.1606445 0.46875
vt 0.1606445 0.46875
vt 0.1606445 0.46875
vt 0.1606445 0.46875
vt 0.1606445 0.46875
vt 0.1606445 0.46875
vt 0.1606445 0.46875
vt 0.1606445 0.46875
vt 0.1606445 0.46875
vt 0.1606445 0.46875
vt 0.1606445 0.46875
vt 0.1606445 0.46875
vt 0.1606445 0.46875
vt 0.1606445 0.46875
vt 0.1606445 0.46875
vt 0.1606445 0.46875
vt 0.1606445 0.46875
vt 0.1606445 0.46875
vn -0.1560059 -0.1550293 0.9755859
vn -0.1560059 -0.1550293 0.9755859
vn -0.1560059 -0.1550293 0.9755859
vn -0.3820801 -0.05999756 0.9223633
vn -0.3806152 -0.1048584 0.9189453
vn -0.3806152 -0.1048584 0.9189453
vn -0.2548828 -0.7456055 0.6157227
vn -0.2548828 -0.7456055 0.6157227
vn -0.2548828 -0.7456055 0.6157227
vn 0.8398438 -0.5336914 -0.1019897
vn 0.8398438 -0.5336914 -0.1019897
vn 0.8398438 -0.5336914 -0.1019897
vn 0.9238281 0 0.3825684
vn 0.9238281 0 0.3825684
vn 0.9238281 0 0.3825684
vn 0.9238281 0 0.3825684
vn 0.9238281 0 -0.3825684
vn 0.9116211 -0.01997375 -0.4101563
vn 0.9238281 0 -0.3825684
vn 0.9116211 -0.01997375 -0.4101563
vn 0.8984375 -0.03991699 -0.4370117
vn 0.8984375 -0.03991699 -0.4370117
vn 0.3825684 0 -0.9238281
vn 0.3825684 0 -0.9238281
vn 0.3825684 0 -0.9238281
vn 0.3825684 0 -0.9238281
vn -0.3825684 0 -0.9238281
vn -0.3708496 -0.04693604 -0.9277344
vn -0.3825684 0 -0.9238281
vn -0.3708496 -0.04693604 -0.9277344
vn -0.3581543 -0.09381104 -0.9287109
vn -0.3581543 -0.09381104 -0.9287109
vn -0.9238281 0 -0.3825684
vn -0.9238281 0 -0.3825684
vn -0.9238281 0 -0.3825684
vn -0.9238281 0 -0.3825684
vn -0.9238281 0 0.3825684
vn -0.9238281 0 0.3825684
vn -0.9238281 0 0.3825684
vn -0.9238281 0 0.3825684
vn -0.3825684 0 0.9238281
vn -0.3825684 -0.007522583 0.9238281
vn -0.3825684 0 0.9238281
vn -0.3825684 -0.007522583 0.9238281
vn -0.3825684 -0.01504517 0.9238281
vn 0.3825684 0 0.9238281
vn 0.3510742 -0.02807617 0.9360352
vn 0.3825684 0 0.9238281
vn 0.3510742 -0.02807617 0.9360352
vn 0.3188477 -0.05612183 0.9462891
vn 0.3188477 -0.05612183 0.9462891
vn -0.2370605 -0.9663086 -0.09820557
vn -0.2370605 -0.9663086 -0.09820557
vn -0.2370605 -0.9663086 -0.09820557
vn -0.2370605 -0.9663086 -0.09820557
vn -0.2370605 -0.9663086 0.09820557
vn -0.2370605 -0.9663086 0.09820557
vn -0.2370605 -0.9663086 0.09820557
vn -0.2370605 -0.9663086 0.09820557
vn -0.09820557 -0.9663086 0.2370605
vn -0.09820557 -0.9663086 0.2370605
vn -0.09820557 -0.9663086 0.2370605
vn -0.09820557 -0.9663086 0.2370605
vn 0.09820557 -0.9663086 0.2370605
vn 0.09820557 -0.9663086 0.2370605
vn 0.09820557 -0.9663086 0.2370605
vn 0.09820557 -0.9663086 0.2370605
vn 0.2370605 -0.9663086 0.09820557
vn 0.2370605 -0.9663086 0.09820557
vn 0.2370605 -0.9663086 0.09820557
vn 0.2370605 -0.9663086 0.09820557
vn 0.2370605 -0.9663086 -0.09820557
vn 0.2370605 -0.9663086 -0.09820557
vn 0.2370605 -0.9663086 -0.09820557
vn 0.2370605 -0.9663086 -0.09820557
vn 0.09820557 -0.9663086 -0.2370605
vn 0.09820557 -0.9663086 -0.2370605
vn 0.09820557 -0.9663086 -0.2370605
vn 0.09820557 -0.9663086 -0.2370605
vn -0.09820557 -0.9663086 -0.2370605
vn -0.09820557 -0.9663086 -0.2370605
vn -0.09820557 -0.9663086 -0.2370605
vn -0.09820557 -0.9663086 -0.2370605
vn -0.9335938 0.1190186 -0.3374023
vn -0.9335938 0.1190186 -0.3374023
vn -0.9335938 0.1190186 -0.3374023
vn -0.9335938 0.1190186 -0.3374023
vn 0.9189453 -0.1048584 0.3806152
vn 0.9189453 -0.1048584 0.3806152
vn 0.9189453 -0.1048584 0.3806152
vn 0.9189453 -0.1048584 0.3806152
vn -0.8852539 0.07208252 0.4594727
vn -0.8852539 0.07208252 0.4594727
vn -0.8852539 0.07208252 0.4594727
vn -0.8852539 0.07208252 0.4594727
vn 0.3068848 -0.1474609 -0.9404297
vn 0.3068848 -0.1474609 -0.9404297
vn 0.3068848 -0.1474609 -0.9404297
vn 0.3068848 -0.1474609 -0.9404297
vn 0.9208984 0.08337402 0.3813477
vn 0.9208984 0.08337402 0.3813477
vn 0.9208984 0.08337402 0.3813477
vn 0.9208984 0.08337402 0.3813477
vn -0.9189453 -0.1048584 -0.3806152
vn -0.9189453 -0.1048584 -0.3806152
vn -0.9189453 -0.1048584 -0.3806152
vn -0.9189453 -0.1048584 -0.3806152
vn 0.9208984 0.08337402 -0.3813477
vn 0.9208984 0.08337402 -0.3813477
vn 0.9208984 0.08337402 -0.3813477
vn 0.9208984 0.08337402 -0.3813477
vn -0.9189453 -0.1048584 0.3806152
vn -0.9189453 -0.1048584 0.3806152
vn -0.9189453 -0.1048584 0.3806152
vn -0.9189453 -0.1048584 0.3806152
vn 0.3798828 0.08312988 -0.9213867
vn 0.3786621 0.08288574 -0.921875
vn 0.3803711 0.08325195 -0.9208984
vn 0.3813477 0.08337402 -0.9208984
vn 0.3813477 0.08337402 -0.9208984
vn -0.3293457 0.1138916 -0.9375
vn -0.3293457 0.1138916 -0.9375
vn -0.3293457 0.1138916 -0.9375
vn -0.3293457 0.1138916 -0.9375
vn 0.2658691 0.1809082 0.9467773
vn 0.2658691 0.1809082 0.9467773
vn 0.2658691 0.1809082 0.9467773
vn 0.2658691 0.1809082 0.9467773
vn -0.2924805 -0.02679443 -0.9560547
vn -0.2924805 -0.02679443 -0.9560547
vn -0.2924805 -0.02679443 -0.9560547
vn -0.2924805 -0.02679443 -0.9560547
vn 0.8925781 0.2583008 0.3696289
vn 0.8925781 0.2583008 0.3696289
vn 0.8925781 0.2583008 0.3696289
vn 0.8925781 0.2583008 0.3696289
vn -0.9169922 -0.1233521 -0.3798828
vn -0.9169922 -0.1233521 -0.3798828
vn -0.9169922 -0.1233521 -0.3798828
vn -0.9169922 -0.1233521 -0.3798828
vn 0.8925781 0.2583008 -0.3696289
vn 0.8925781 0.2583008 -0.3696289
vn 0.8925781 0.2583008 -0.3696289
vn 0.8925781 0.2583008 -0.3696289
vn -0.9169922 -0.1233521 0.3798828
vn -0.9169922 -0.1233521 0.3798828
vn -0.9169922 -0.1233521 0.3798828
vn -0.9169922 -0.1233521 0.3798828
vn 0.3696289 0.2583008 -0.8925781
vn 0.3696289 0.2583008 -0.8925781
vn 0.3696289 0.2583008 -0.8925781
vn 0.3696289 0.2583008 -0.8925781
vn -0.3103027 -0.1740723 0.9345703
vn -0.3103027 -0.1740723 0.9345703
vn -0.3103027 -0.1740723 0.9345703
vn -0.3103027 -0.1740723 0.9345703
vn -0.2200928 -0.7133789 -0.6650391
vn -0.2200928 -0.7133789 -0.6650391
vn -0.2200928 -0.7133789 -0.6650391
vn -0.2200928 -0.7133789 -0.6650391
vn -0.03488159 0.9990234 -0.02502441
vn -0.03030396 0.9990234 -0.03369141
vn -0.03030396 0.9990234 -0.03369141
vn -0.03488159 0.9990234 -0.02502441
vn -0.03948975 0.9990234 0
vn -0.03948975 0.9990234 0
vn -0.02792358 0.9990234 0.02792358
vn -0.02792358 0.9990234 0.02792358
vn -0.01635742 0.9990234 0.03948975
vn -0.01635742 0.9990234 0.03948975
vn -0.6157227 -0.7456055 -0.2548828
vn -0.6157227 -0.7456055 -0.2548828
vn -0.6157227 -0.7456055 -0.2548828
vn -0.6157227 -0.7456055 -0.2548828
vn -0.6157227 -0.7456055 0.2548828
vn -0.6157227 -0.7456055 0.2548828
vn -0.6157227 -0.7456055 0.2548828
vn -0.6157227 -0.7456055 0.2548828
vn 0.9272461 -0.3720703 -0.03649902
vn 0.9272461 -0.3720703 -0.03649902
vn 0.9272461 -0.3720703 -0.03649902
vn 0.9272461 -0.3720703 -0.03649902
vn -0.2490234 0.1417236 0.9580078
vn -0.2490234 0.1417236 0.9580078
vn -0.2490234 0.1417236 0.9580078
vn -0.2490234 0.1417236 0.9580078
vn 0.8881836 0.4545898 -0.06530762
vn 0.8881836 0.4545898 -0.06530762
vn 0.8881836 0.4545898 -0.06530762
vn 0.8881836 0.4545898 -0.06530762
vn 0.6987305 0.7075195 -0.1057129
vn 0.6987305 0.7075195 -0.1057129
vn 0.6987305 0.7075195 -0.1057129
vn 0.6987305 0.7075195 -0.1057129
vn 0.5112305 0.8339844 -0.2081299
vn 0.5112305 0.8339844 -0.2081299
vn 0.5112305 0.8339844 -0.2081299
vn 0.5112305 0.8339844 -0.2081299
vn 0.2019043 0.9755859 0.08477783
vn 0.2019043 0.9755859 0.08477783
vn 0.2019043 0.9755859 0.08477783
vn 0.2019043 0.9755859 0.08477783
vn 0.8413086 0.5288086 0.1118164
vn 0.8413086 0.5288086 0.1118164
vn 0.8413086 0.5288086 0.1118164
vn 0.8413086 0.5288086 0.1118164
vn 0.9477539 0.3095703 0.07476807
vn 0.9477539 0.3095703 0.07476807
vn 0.9477539 0.3095703 0.07476807
vn 0.9477539 0.3095703 0.07476807
vn 0.345459 0.06933594 0.9360352
vn 0.345459 0.06933594 0.9360352
vn 0.345459 0.06933594 0.9360352
vn 0.345459 0.06933594 0.9360352
vn 0 -1 0
vn 0 -1 0
vn 0 -1 0
vn 0 -1 0
vn 0 -1 0
vn 0 -1 0
vn 0 -1 0
vn 0 -1 0
vn 0 -1 0
vn 0.02258301 0.9995117 0.02258301
vn 0 1 0
vn 0.0319519 0.9995117 0
vn 0 0.9995117 0.0319519
vn 0.02258301 0.9995117 -0.02258301
vn -0.02258301 0.9995117 0.02258301
vn 0 0.9995117 -0.0319519
vn -0.0319519 0.9995117 0
vn -0.02258301 0.9995117 -0.02258301
g SM_Prop_Pot_06_0
f 3/3/3 2/2/2 1/1/1
f 6/6/6 5/5/5 4/4/4
f 9/9/9 8/8/8 7/7/7
f 12/12/12 11/11/11 10/10/10
f 15/15/15 14/14/14 13/13/13
f 16/16/16 15/15/15 13/13/13
f 19/19/19 18/18/18 17/17/17
f 18/18/18 20/20/20 17/17/17
f 18/18/18 21/21/21 20/20/20
f 21/21/21 22/22/22 20/20/20
f 25/25/25 24/24/24 23/23/23
f 26/26/26 25/25/25 23/23/23
f 29/29/29 28/28/28 27/27/27
f 28/28/28 30/30/30 27/27/27
f 30/30/30 28/28/28 31/31/31
f 32/32/32 30/30/30 31/31/31
f 35/35/35 34/34/34 33/33/33
f 36/36/36 35/35/35 33/33/33
f 39/39/39 38/38/38 37/37/37
f 40/40/40 39/39/39 37/37/37
f 43/43/43 42/42/42 41/41/41
f 42/42/42 44/44/44 41/41/41
f 44/44/44 42/42/42 45/45/45
f 48/48/48 47/47/47 46/46/46
f 47/47/47 49/49/49 46/46/46
f 47/47/47 50/50/50 49/49/49
f 50/50/50 51/51/51 49/49/49
f 54/54/54 53/53/53 52/52/52
f 55/55/55 54/54/54 52/52/52
f 58/58/58 57/57/57 56/56/56
f 59/59/59 58/58/58 56/56/56
f 62/62/62 61/61/61 60/60/60
f 63/63/63 62/62/62 60/60/60
f 66/66/66 65/65/65 64/64/64
f 67/67/67 66/66/66 64/64/64
f 70/70/70 69/69/69 68/68/68
f 71/71/71 70/70/70 68/68/68
f 74/74/74 73/73/73 72/72/72
f 75/75/75 74/74/74 72/72/72
f 78/78/78 77/77/77 76/76/76
f 79/79/79 78/78/78 76/76/76
f 82/82/82 81/81/81 80/80/80
f 83/83/83 82/82/82 80/80/80
f 86/86/86 85/85/85 84/84/84
f 87/87/87 86/86/86 84/84/84
f 90/90/90 89/89/89 88/88/88
f 91/91/91 90/90/90 88/88/88
f 94/94/94 93/93/93 92/92/92
f 95/95/95 94/94/94 92/92/92
f 98/98/98 97/97/97 96/96/96
f 99/99/99 98/98/98 96/96/96
f 102/102/102 101/101/101 100/100/100
f 103/103/103 102/102/102 100/100/100
f 106/106/106 105/105/105 104/104/104
f 107/107/107 106/106/106 104/104/104
f 110/110/110 109/109/109 108/108/108
f 111/111/111 110/110/110 108/108/108
f 114/114/114 113/113/113 112/112/112
f 115/115/115 114/114/114 112/112/112
f 118/118/118 117/117/117 116/116/116
f 116/116/116 119/119/119 118/118/118
f 119/119/119 120/120/120 118/118/118
f 123/123/123 122/122/122 121/121/121
f 124/124/124 123/123/123 121/121/121
f 127/127/127 126/126/126 125/125/125
f 128/128/128 127/127/127 125/125/125
f 131/131/131 130/130/130 129/129/129
f 132/132/132 131/131/131 129/129/129
f 135/135/135 134/134/134 133/133/133
f 136/136/136 135/135/135 133/133/133
f 139/139/139 138/138/138 137/137/137
f 140/140/140 139/139/139 137/137/137
f 143/143/143 142/142/142 141/141/141
f 144/144/144 143/143/143 141/141/141
f 147/147/147 146/146/146 145/145/145
f 148/148/148 147/147/147 145/145/145
f 151/151/151 150/150/150 149/149/149
f 152/152/152 151/151/151 149/149/149
f 155/155/155 154/154/154 153/153/153
f 156/156/156 155/155/155 153/153/153
f 159/159/159 158/158/158 157/157/157
f 160/160/160 159/159/159 157/157/157
f 163/163/163 162/162/162 161/161/161
f 162/162/162 164/164/164 161/161/161
f 161/161/161 164/164/164 165/165/165
f 164/164/164 166/166/166 165/165/165
f 165/165/165 166/166/166 167/167/167
f 166/166/166 168/168/168 167/167/167
f 167/167/167 168/168/168 169/169/169
f 170/170/170 167/167/167 169/169/169
f 173/173/173 172/172/172 171/171/171
f 174/174/174 173/173/173 171/171/171
f 177/177/177 176/176/176 175/175/175
f 178/178/178 177/177/177 175/175/175
f 181/181/181 180/180/180 179/179/179
f 182/182/182 181/181/181 179/179/179
f 185/185/185 184/184/184 183/183/183
f 186/186/186 185/185/185 183/183/183
f 189/189/189 188/188/188 187/187/187
f 190/190/190 189/189/189 187/187/187
f 193/193/193 192/192/192 191/191/191
f 194/194/194 193/193/193 191/191/191
f 197/197/197 196/196/196 195/195/195
f 198/198/198 197/197/197 195/195/195
f 201/201/201 200/200/200 199/199/199
f 202/202/202 201/201/201 199/199/199
f 205/205/205 204/204/204 203/203/203
f 206/206/206 205/205/205 203/203/203
f 209/209/209 208/208/208 207/207/207
f 210/210/210 209/209/209 207/207/207
f 213/213/213 212/212/212 211/211/211
f 214/214/214 213/213/213 211/211/211
f 217/217/217 216/216/216 215/215/215
f 215/215/215 216/216/216 218/218/218
f 219/219/219 216/216/216 217/217/217
f 218/218/218 216/216/216 220/220/220
f 221/221/221 216/216/216 219/219/219
f 220/220/220 216/216/216 222/222/222
f 223/223/223 216/216/216 221/221/221
f 222/222/222 216/216/216 223/223/223
f 226/226/226 225/225/225 224/224/224
f 224/224/224 225/225/225 227/227/227
f 228/228/228 225/225/225 226/226/226
f 227/227/227 225/225/225 229/229/229
f 230/230/230 225/225/225 228/228/228
f 229/229/229 225/225/225 231/231/231
f 232/232/232 225/225/225 230/230/230
f 231/231/231 225/225/225 232/232/232
