g SM_Prop_Paper_05
v -0.1038971 0.01189047 0.1529773
v -0.1038971 0.01189047 0.1003012
v 0.1172446 0.01189047 0.05237457
v 0.1172443 0.01189047 0.1529773
v -0.1038971 0 0.1529773
v 0.1172443 0 0.1529773
v 0.1172443 4.466594E-17 0.05375671
v -0.1038971 2.309093E-17 0.1016837
v -0.1038971 0 0.1529773
v -0.1038971 0.01189047 0.1529773
v 0.1172443 0.01189047 0.1529773
v 0.1172443 0 0.1529773
v 0.1172443 0 0.1529773
v 0.1172443 0.01189047 0.1529773
v 0.1172446 0.01189047 0.05237457
v 0.1172443 4.466594E-17 0.05375671
v 0.107373 1.501226E-16 -0.1566037
v 0.107373 0.01189047 -0.1566037
v -0.1137683 0.01189047 -0.1566037
v -0.1137683 1.501226E-16 -0.1566037
v -0.1137683 1.501226E-16 -0.1566037
v -0.1137683 0.01189047 -0.1566037
v -0.1137683 0.01189047 0.02780731
v -0.1137683 6.57347E-17 0.0308548
v -0.110571 0.01431091 0.06128998
v -0.110571 0.02620138 0.05919738
v -0.1038971 2.309093E-17 0.1016837
v -0.1038971 0.01189047 0.1003012
v -0.1137683 0.01189047 0.02780731
v -0.1137683 0.01189047 -0.1566037
v 0.107373 0.01189047 -0.1566037
v 0.1073737 0.01189047 -0.06007171
v 0.107373 1.05295E-16 -0.05702392
v 0.107373 1.501226E-16 -0.1566037
v -0.1137683 1.501226E-16 -0.1566037
v -0.1137683 6.57347E-17 0.0308548
v 0.1073737 0.01189047 -0.06007171
v 0.107373 0.01189047 -0.1566037
v 0.107373 1.501226E-16 -0.1566037
v 0.107373 1.05295E-16 -0.05702392
v 0.1105707 0.02620138 -0.009111328
v 0.1105704 0.01431091 -0.007019043
v 0.1172446 0.01189047 0.05237457
v 0.1172443 4.466594E-17 0.05375671
v -0.110571 0.02620138 0.05919738
v -0.1137683 0.01189047 0.02780731
v 0.1073737 0.01189047 -0.06007171
v 0.1105707 0.02620138 -0.009111328
v 0.1105704 0.01431091 -0.007019043
v 0.107373 1.05295E-16 -0.05702392
v -0.1137683 6.57347E-17 0.0308548
v -0.110571 0.01431091 0.06128998
v -0.1038971 0.01189047 0.1003012
v -0.110571 0.02620138 0.05919738
v 0.1105707 0.02620138 -0.009111328
v 0.1172446 0.01189047 0.05237457
v 0.1172443 4.466594E-17 0.05375671
v 0.1105704 0.01431091 -0.007019043
v -0.110571 0.01431091 0.06128998
v -0.1038971 2.309093E-17 0.1016837
v -0.1038971 0.01189047 0.1003012
v -0.1038971 0.01189047 0.1529773
v -0.1038971 0 0.1529773
v -0.1038971 2.309093E-17 0.1016837
vt 0.362897 0.3258505
vt 0.362897 0.330858
vt 0.388783 0.3354141
vt 0.388783 0.3258505
vt 0.362897 0.3258505
vt 0.388783 0.3258505
vt 0.388783 0.3352827
vt 0.362897 0.3307267
vt 0.362897 0.3258505
vt 0.362897 0.3258505
vt 0.388783 0.3258505
vt 0.388783 0.3258505
vt 0.388783 0.3258505
vt 0.388783 0.3258505
vt 0.388783 0.3354141
vt 0.388783 0.3352827
vt 0.388783 0.3575523
vt 0.388783 0.3575523
vt 0.362897 0.3575523
vt 0.362897 0.3575523
vt 0.362897 0.3575523
vt 0.362897 0.3575523
vt 0.362897 0.3400216
vt 0.362897 0.3397319
vt 0.362897 0.335875
vt 0.362897 0.3360739
vt 0.362897 0.3307267
vt 0.362897 0.330858
vt 0.362897 0.3400216
vt 0.362897 0.3575523
vt 0.388783 0.3575523
vt 0.388783 0.3483756
vt 0.388783 0.3480859
vt 0.388783 0.3575523
vt 0.362897 0.3575523
vt 0.362897 0.3397319
vt 0.388783 0.3483756
vt 0.388783 0.3575523
vt 0.388783 0.3575523
vt 0.388783 0.3480859
vt 0.388783 0.3425675
vt 0.388783 0.3423686
vt 0.388783 0.3354141
vt 0.388783 0.3352827
vt 0.362897 0.3360739
vt 0.362897 0.3400216
vt 0.388783 0.3483756
vt 0.388783 0.3425675
vt 0.388783 0.3423686
vt 0.388783 0.3480859
vt 0.362897 0.3397319
vt 0.362897 0.335875
vt 0.362897 0.330858
vt 0.362897 0.3360739
vt 0.388783 0.3425675
vt 0.388783 0.3354141
vt 0.388783 0.3352827
vt 0.388783 0.3423686
vt 0.362897 0.335875
vt 0.362897 0.3307267
vt 0.362897 0.330858
vt 0.362897 0.3258505
vt 0.362897 0.3258505
vt 0.362897 0.3307267
vn 0 1 0
vn 0 1 0
vn 0 1 0
vn 0 1 0
vn 0 -1 0
vn 0 -1 0
vn 0 -1 0
vn 0 -1 0
vn 0 0 1
vn 0 0 1
vn 0 0 1
vn 0 0 1
vn 1 -1.274403E-05 0
vn 1 -1.274403E-05 0
vn 1 -1.274403E-05 0
vn 1 -1.274403E-05 0
vn 0 0 -1
vn 0 0 -1
vn 0 0 -1
vn 0 0 -1
vn -1 0 0
vn -1 0 0
vn -0.999897 0.003032037 0.01402794
vn -0.9998803 0.003267814 0.01511878
vn -0.9903157 0.02286001 0.1369391
vn -0.9911867 0.02247415 0.1305528
vn -0.9851183 0.02485213 0.1700721
vn -0.9851182 0.02485213 0.1700721
vn 0 1 0
vn 0 1 0
vn 0 1 0
vn 0 1 0
vn 0 -1 0
vn 0 -1 0
vn 0 -1 0
vn 0 -1 0
vn 0.999805 -0.004199839 -0.01929379
vn 1 -2.606445E-05 0
vn 1 -2.606445E-05 0
vn 0.9997168 -0.005056193 -0.02325176
vn 0.9963349 -0.01456603 -0.0842891
vn 0.9958795 -0.01491081 -0.08945148
vn 0.9935367 -0.01643497 -0.1123157
vn 0.9935367 -0.01643497 -0.1123157
vn -0.1124445 0.9412591 -0.318414
vn -0.1124445 0.9412591 -0.318414
vn -0.1124445 0.9412591 -0.318414
vn -0.1124445 0.9412591 -0.318414
vn 0.1147368 -0.9387611 0.3249047
vn 0.1147368 -0.9387611 0.3249047
vn 0.1147368 -0.9387611 0.3249047
vn 0.1147368 -0.9387611 0.3249046
vn 0.06829044 0.9632313 0.2598497
vn 0.06829044 0.9632313 0.2598497
vn 0.06829043 0.9632313 0.2598497
vn 0.06829044 0.9632313 0.2598498
vn -0.06914932 -0.9622829 -0.2631161
vn -0.06914932 -0.9622829 -0.2631161
vn -0.06914932 -0.9622829 -0.2631161
vn -0.06914932 -0.9622829 -0.263116
vn -1 0 0
vn -1 0 0
vn -1 0 0
vn -1 0 0
g SM_Prop_Paper_05_0
f 3/3/3 2/2/2 1/1/1
f 4/4/4 3/3/3 1/1/1
f 7/7/7 6/6/6 5/5/5
f 8/8/8 7/7/7 5/5/5
f 11/11/11 10/10/10 9/9/9
f 12/12/12 11/11/11 9/9/9
f 15/15/15 14/14/14 13/13/13
f 16/16/16 15/15/15 13/13/13
f 19/19/19 18/18/18 17/17/17
f 20/20/20 19/19/19 17/17/17
f 23/23/23 22/22/22 21/21/21
f 24/24/24 23/23/23 21/21/21
f 24/24/24 25/25/25 23/23/23
f 25/25/25 26/26/26 23/23/23
f 25/25/25 27/27/27 26/26/26
f 27/27/27 28/28/28 26/26/26
f 31/31/31 30/30/30 29/29/29
f 32/32/32 31/31/31 29/29/29
f 35/35/35 34/34/34 33/33/33
f 36/36/36 35/35/35 33/33/33
f 39/39/39 38/38/38 37/37/37
f 40/40/40 39/39/39 37/37/37
f 40/40/40 37/37/37 41/41/41
f 42/42/42 40/40/40 41/41/41
f 42/42/42 41/41/41 43/43/43
f 44/44/44 42/42/42 43/43/43
f 47/47/47 46/46/46 45/45/45
f 48/48/48 47/47/47 45/45/45
f 51/51/51 50/50/50 49/49/49
f 52/52/52 51/51/51 49/49/49
f 55/55/55 54/54/54 53/53/53
f 56/56/56 55/55/55 53/53/53
f 59/59/59 58/58/58 57/57/57
f 60/60/60 59/59/59 57/57/57
f 63/63/63 62/62/62 61/61/61
f 64/64/64 63/63/63 61/61/61
