g SM_Prop_Rubbish_02
v -0.005115967 -0.0285778 0.05203125
v 0.08815307 -0.02587612 4.150391E-05
v 0.05254028 0.01278093 0.04784668
v -0.05592102 0.002503749 0.01245361
v -0.08641785 -0.03101476 -0.001535645
v -0.005115967 -0.0285778 0.05203125
v 0 -0.02831309 -0.08576415
v 0.0477655 0.007907078 -0.04776489
v 0.08815307 -0.02587612 4.150391E-05
v -0.08641785 -0.03101476 -0.001535645
v -0.0477655 0.007907013 -0.04776489
v 0 -0.02831309 -0.08576415
v -0.08641785 -0.03101476 -0.001535645
v 0 -0.02831309 -0.08576415
v -0.0001519775 -0.04824619 -0.001248779
v -0.0001519775 -0.04824619 -0.001248779
v 0 -0.02831309 -0.08576415
v 0.08815307 -0.02587612 4.150391E-05
v -0.005115967 -0.0285778 0.05203125
v -0.0001519775 -0.04824619 -0.001248779
v 0.08815307 -0.02587612 4.150391E-05
v -0.08641785 -0.03101476 -0.001535645
v -0.0001519775 -0.04824619 -0.001248779
v -0.005115967 -0.0285778 0.05203125
v -0.006851196 -0.03622012 0.06625732
v 0.06049621 0 0.06049683
v 0.09849609 -0.03622012 1.220703E-06
v -0.06734802 0 0.02825806
v -0.006851196 -0.03622012 0.06625732
v -0.09849548 -0.03622012 1.220703E-06
v 0 -0.03622012 -0.09849487
v 0.09849609 -0.03622012 1.220703E-06
v 0.06049621 0 -0.0604956
v -0.09849548 -0.03622012 1.220703E-06
v 0 -0.03622012 -0.09849487
v -0.0604956 0 -0.0604956
v -0.09849548 -0.03622012 1.220703E-06
v 0 -0.0678694 1.220703E-06
v 0 -0.03622012 -0.09849487
v 0 -0.0678694 1.220703E-06
v 0.09849609 -0.03622012 1.220703E-06
v 0 -0.03622012 -0.09849487
v -0.006851196 -0.03622012 0.06625732
v 0.09849609 -0.03622012 1.220703E-06
v 0 -0.0678694 1.220703E-06
v -0.09849548 -0.03622012 1.220703E-06
v -0.006851196 -0.03622012 0.06625732
v 0 -0.0678694 1.220703E-06
v -0.006851196 -0.03622012 0.06625732
v -0.005115967 -0.0285778 0.05203125
v 0.05254028 0.01278093 0.04784668
v 0.06049621 0 0.06049683
v 0.06049621 0 0.06049683
v 0.05254028 0.01278093 0.04784668
v 0.08815307 -0.02587612 4.150391E-05
v 0.09849609 -0.03622012 1.220703E-06
v -0.06734802 0 0.02825806
v -0.05592102 0.002503749 0.01245361
v -0.005115967 -0.0285778 0.05203125
v -0.006851196 -0.03622012 0.06625732
v -0.09849548 -0.03622012 1.220703E-06
v -0.08641785 -0.03101476 -0.001535645
v -0.05592102 0.002503749 0.01245361
v -0.06734802 0 0.02825806
v 0.09849609 -0.03622012 1.220703E-06
v 0.08815307 -0.02587612 4.150391E-05
v 0.0477655 0.007907078 -0.04776489
v 0.06049621 0 -0.0604956
v 0.06049621 0 -0.0604956
v 0.0477655 0.007907078 -0.04776489
v 0 -0.02831309 -0.08576415
v 0 -0.03622012 -0.09849487
v 0 -0.03622012 -0.09849487
v 0 -0.02831309 -0.08576415
v -0.0477655 0.007907013 -0.04776489
v -0.0604956 0 -0.0604956
v -0.0604956 0 -0.0604956
v -0.0477655 0.007907013 -0.04776489
v -0.08641785 -0.03101476 -0.001535645
v -0.09849548 -0.03622012 1.220703E-06
vt 0.3807448 0.3628056
vt 0.3807448 0.3628056
vt 0.3807448 0.3628056
vt 0.3807448 0.3628056
vt 0.3807448 0.3628056
vt 0.3807448 0.3628056
vt 0.3807448 0.3628056
vt 0.3807448 0.3628056
vt 0.3807448 0.3628056
vt 0.3807448 0.3628056
vt 0.3807448 0.3628056
vt 0.3807448 0.3628056
vt 0.3807448 0.3628056
vt 0.3807448 0.3628056
vt 0.3807448 0.3628056
vt 0.3807448 0.3628056
vt 0.3807448 0.3628056
vt 0.3807448 0.3628056
vt 0.3807448 0.3628056
vt 0.3807448 0.3628056
vt 0.3807448 0.3628056
vt 0.3807448 0.3628056
vt 0.3807448 0.3628056
vt 0.3807448 0.3628056
vt 0.3807448 0.3628056
vt 0.3807448 0.3628056
vt 0.3807448 0.3628056
vt 0.3807448 0.3628056
vt 0.3807448 0.3628056
vt 0.3807448 0.3628056
vt 0.3807448 0.3628056
vt 0.3807448 0.3628056
vt 0.3807448 0.3628056
vt 0.3807448 0.3628056
vt 0.3807448 0.3628056
vt 0.3807448 0.3628056
vt 0.3807448 0.3628056
vt 0.3807448 0.3628056
vt 0.3807448 0.3628056
vt 0.3807448 0.3628056
vt 0.3807448 0.3628056
vt 0.3807448 0.3628056
vt 0.3807448 0.3628056
vt 0.3807448 0.3628056
vt 0.3807448 0.3628056
vt 0.3807448 0.3628056
vt 0.3807448 0.3628056
vt 0.3807448 0.3628056
vt 0.3807448 0.3628056
vt 0.3807448 0.3628056
vt 0.3807448 0.3628056
vt 0.3807448 0.3628056
vt 0.3807448 0.3628056
vt 0.3807448 0.3628056
vt 0.3807448 0.3628056
vt 0.3807448 0.3628056
vt 0.3807448 0.3628056
vt 0.3807448 0.3628056
vt 0.3807448 0.3628056
vt 0.3807448 0.3628056
vt 0.3807448 0.3628056
vt 0.3807448 0.3628056
vt 0.3807448 0.3628056
vt 0.3807448 0.3628056
vt 0.3807448 0.3628056
vt 0.3807448 0.3628056
vt 0.3807448 0.3628056
vt 0.3807448 0.3628056
vt 0.3807448 0.3628056
vt 0.3807448 0.3628056
vt 0.3807448 0.3628056
vt 0.3807448 0.3628056
vt 0.3807448 0.3628056
vt 0.3807448 0.3628056
vt 0.3807448 0.3628056
vt 0.3807448 0.3628056
vt 0.3807448 0.3628056
vt 0.3807448 0.3628056
vt 0.3807448 0.3628056
vt 0.3807448 0.3628056
vn -0.4271408 0.5206636 -0.7392294
vn -0.4271408 0.5206636 -0.7392294
vn -0.4271408 0.5206636 -0.7392294
vn 0.5468284 -0.1540674 -0.8229471
vn 0.5468284 -0.1540675 -0.8229471
vn 0.5468284 -0.1540674 -0.8229471
vn -0.689624 0.1712567 0.7036263
vn -0.689624 0.1712567 0.7036263
vn -0.689624 0.1712567 0.7036263
vn 0.6862965 0.1609199 0.7092968
vn 0.6862965 0.1609199 0.7092968
vn 0.6862965 0.1609199 0.7092968
vn 0.1901029 0.9554707 0.2256913
vn 0.1901029 0.9554707 0.2256913
vn 0.1901029 0.9554707 0.2256913
vn -0.2424769 0.9443474 0.2222899
vn -0.2424769 0.9443474 0.22229
vn -0.242477 0.9443474 0.22229
vn -0.2246109 0.9071661 -0.3558082
vn -0.2246109 0.9071661 -0.3558082
vn -0.2246109 0.9071661 -0.3558082
vn 0.186289 0.9272109 -0.3249251
vn 0.186289 0.9272109 -0.3249251
vn 0.186289 0.9272109 -0.3249251
vn 0.4045898 -0.6499802 0.6432984
vn 0.4045898 -0.6499802 0.6432984
vn 0.4045898 -0.6499802 0.6432984
vn -0.5811194 -0.1273405 0.803794
vn -0.5811192 -0.1273405 0.803794
vn -0.5811193 -0.1273405 0.803794
vn 0.6474171 -0.402122 -0.6474171
vn 0.6474171 -0.402122 -0.6474171
vn 0.6474171 -0.4021219 -0.6474171
vn -0.6474205 -0.4021176 -0.6474165
vn -0.6474205 -0.4021176 -0.6474165
vn -0.6474205 -0.4021176 -0.6474165
vn -0.2925389 -0.9104083 -0.2925371
vn -0.2925389 -0.9104083 -0.2925371
vn -0.2925389 -0.9104083 -0.2925371
vn 0.2925372 -0.9104087 -0.2925372
vn 0.2925372 -0.9104087 -0.2925372
vn 0.2925372 -0.9104087 -0.2925372
vn 0.2751019 -0.8561479 0.4374124
vn 0.2751019 -0.8561481 0.4374124
vn 0.2751019 -0.8561479 0.4374123
vn -0.2817369 -0.8767914 0.3896936
vn -0.2817369 -0.8767914 0.3896936
vn -0.281737 -0.8767914 0.3896936
vn -0.3804923 0.6917691 0.6137435
vn -0.3804923 0.6917691 0.6137435
vn -0.3804923 0.6917691 0.6137435
vn -0.3804923 0.6917691 0.6137435
vn 0.7622028 0.6431633 0.07340239
vn 0.7622028 0.6431633 0.07340237
vn 0.7622028 0.6431633 0.0734024
vn 0.7622027 0.6431633 0.07340239
vn 0.2486782 0.8793467 0.4060895
vn 0.2486782 0.8793467 0.4060895
vn 0.2486782 0.8793467 0.4060895
vn 0.2486782 0.8793467 0.4060895
vn -0.543982 0.7307147 -0.4124799
vn -0.543982 0.7307147 -0.4124799
vn -0.543982 0.7307147 -0.4124799
vn -0.543982 0.7307147 -0.4124799
vn 0.6336357 0.772558 0.04074252
vn 0.6336357 0.772558 0.04074252
vn 0.6336356 0.772558 0.04074252
vn 0.6336357 0.772558 0.04074252
vn -0.1394927 0.8084111 -0.5718508
vn -0.1394927 0.8084111 -0.5718508
vn -0.1394927 0.808411 -0.5718508
vn -0.1394927 0.808411 -0.5718508
vn 0.1394958 0.8084125 -0.571848
vn 0.1394958 0.8084125 -0.5718479
vn 0.1394958 0.8084125 -0.571848
vn 0.1394958 0.8084125 -0.571848
vn -0.5274066 0.8252009 0.2022023
vn -0.5274066 0.8252009 0.2022023
vn -0.5274066 0.8252009 0.2022023
vn -0.5274066 0.8252009 0.2022023
g SM_Prop_Rubbish_02_0
f 3/3/3 2/2/2 1/1/1
f 6/6/6 5/5/5 4/4/4
f 9/9/9 8/8/8 7/7/7
f 12/12/12 11/11/11 10/10/10
f 15/15/15 14/14/14 13/13/13
f 18/18/18 17/17/17 16/16/16
f 21/21/21 20/20/20 19/19/19
f 24/24/24 23/23/23 22/22/22
f 27/27/27 26/26/26 25/25/25
f 30/30/30 29/29/29 28/28/28
f 33/33/33 32/32/32 31/31/31
f 36/36/36 35/35/35 34/34/34
f 39/39/39 38/38/38 37/37/37
f 42/42/42 41/41/41 40/40/40
f 45/45/45 44/44/44 43/43/43
f 48/48/48 47/47/47 46/46/46
f 51/51/51 50/50/50 49/49/49
f 52/52/52 51/51/51 49/49/49
f 55/55/55 54/54/54 53/53/53
f 56/56/56 55/55/55 53/53/53
f 59/59/59 58/58/58 57/57/57
f 60/60/60 59/59/59 57/57/57
f 63/63/63 62/62/62 61/61/61
f 64/64/64 63/63/63 61/61/61
f 67/67/67 66/66/66 65/65/65
f 68/68/68 67/67/67 65/65/65
f 71/71/71 70/70/70 69/69/69
f 72/72/72 71/71/71 69/69/69
f 75/75/75 74/74/74 73/73/73
f 76/76/76 75/75/75 73/73/73
f 79/79/79 78/78/78 77/77/77
f 80/80/80 79/79/79 77/77/77
