g SM_Prop_Food_Cheese_Stack_02
v 0.09065048 0.04611722 0.08748443
v -0.06887832 0.04611722 0.08318603
v 0.09065048 0.05718727 0.08748443
v -0.06887832 0.05718727 0.08318603
v 0.07943969 0.05718727 -0.07246185
v -0.0645797 0.05718727 -0.07634246
v 0.07943969 0.04611722 -0.07246185
v -0.0645797 0.04611722 -0.07634246
v 0.01132462 0.05135143 0.08534698
v 0.01070519 0.06242146 0.0853305
v -0.06727188 0.06242146 0.023573
v -0.06722328 0.05135143 0.02176697
v 0.06956352 0.02645635 0.06665344
v -0.08582862 0.02381391 0.07024597
v 0.069375 0.03752479 0.06664184
v -0.08601715 0.03488235 0.07023437
v 0.0678933 0.03734405 -0.08185455
v -0.09147072 0.03462187 -0.08982452
v 0.06808182 0.02627561 -0.08184295
v -0.0912822 0.02355343 -0.08981293
v 0.06435882 0.03010296 -0.00870697
v 0.06451393 0.01903467 -0.008027039
v 0.007802353 0.0290601 -0.08485809
v 0.00619873 0.01796107 -0.08493622
v 0.0785907 0 0.07984192
v -0.07854957 0 0.07984192
v 0.0785907 0.07766379 0.07984192
v -0.07854957 0.07766379 0.07984192
v 0.0785907 0.07766379 -0.07729828
v -0.07854957 0.07766379 -0.07729828
v 0.0785907 0 -0.07729828
v -0.07854957 0 -0.07729828
v -0.08948479 0.08128028 0.06672699
v -0.06732856 0.07863783 -0.08711945
v -0.08944213 0.09234872 0.06654297
v -0.06728622 0.08970628 -0.08730347
v 0.05725449 0.09216799 0.0896405
v 0.09147064 0.0894458 -0.06621124
v 0.05721183 0.08109954 0.08982452
v 0.09142799 0.07837735 -0.06602692
v -0.0143013 0.08492689 0.07405731
v -0.01499718 0.0738586 0.0740979
v 0.07015488 0.08388403 0.03087372
v 0.07049705 0.072785 0.02930511
v 0.09065048 0.05718727 0.08748443
v 0.01070519 0.06242146 0.0853305
v 0.01132462 0.05135143 0.08534698
v -0.06722328 0.05135143 0.02176697
v -0.06887832 0.04611722 0.08318603
v -0.06887832 0.05718727 0.08318603
v -0.06727188 0.06242146 0.023573
v 0.09065048 0.04611722 0.08748443
v 0.07943969 0.05718727 -0.07246185
v 0.07943969 0.04611722 -0.07246185
v 0.09065048 0.04611722 0.08748443
v 0.09065048 0.05718727 0.08748443
v 0.07943969 0.04611722 -0.07246185
v 0.07943969 0.05718727 -0.07246185
v -0.0645797 0.04611722 -0.07634246
v -0.0645797 0.04611722 -0.07634246
v -0.0645797 0.05718727 -0.07634246
v -0.0645797 0.05718727 -0.07634246
v -0.06727188 0.06242146 0.023573
v 0.01070519 0.06242146 0.0853305
v -0.06887832 0.05718727 0.08318603
v 0.01132462 0.05135143 0.08534698
v -0.06722328 0.05135143 0.02176697
v -0.06887832 0.04611722 0.08318603
v 0.069375 0.03752479 0.06664184
v -0.08601715 0.03488235 0.07023437
v 0.00619873 0.01796107 -0.08493622
v -0.08582862 0.02381391 0.07024597
v 0.06808182 0.02627561 -0.08184295
v 0.06451393 0.01903467 -0.008027039
v 0.06435882 0.03010296 -0.00870697
v 0.0678933 0.03734405 -0.08185455
v 0.007802353 0.0290601 -0.08485809
v 0.06956352 0.02645635 0.06665344
v 0.06435882 0.03010296 -0.00870697
v 0.06451393 0.01903467 -0.008027039
v 0.06956352 0.02645635 0.06665344
v 0.069375 0.03752479 0.06664184
v -0.0912822 0.02355343 -0.08981293
v -0.08601715 0.03488235 0.07023437
v -0.08582862 0.02381391 0.07024597
v -0.0912822 0.02355343 -0.08981293
v -0.09147072 0.03462187 -0.08982452
v -0.09147072 0.03462187 -0.08982452
v 0.06435882 0.03010296 -0.00870697
v 0.007802353 0.0290601 -0.08485809
v 0.0678933 0.03734405 -0.08185455
v 0.06808182 0.02627561 -0.08184295
v 0.00619873 0.01796107 -0.08493622
v 0.06451393 0.01903467 -0.008027039
v -0.08944213 0.09234872 0.06654297
v -0.06728622 0.08970628 -0.08730347
v 0.07049705 0.072785 0.02930511
v -0.06732856 0.07863783 -0.08711945
v 0.05721183 0.08109954 0.08982452
v -0.01499718 0.0738586 0.0740979
v -0.0143013 0.08492689 0.07405731
v 0.05725449 0.09216799 0.0896405
v 0.07015488 0.08388403 0.03087372
v -0.08948479 0.08128028 0.06672699
v -0.0143013 0.08492689 0.07405731
v -0.01499718 0.0738586 0.0740979
v -0.08948479 0.08128028 0.06672699
v -0.08944213 0.09234872 0.06654297
v 0.09142799 0.07837735 -0.06602692
v -0.06728622 0.08970628 -0.08730347
v -0.06732856 0.07863783 -0.08711945
v 0.09142799 0.07837735 -0.06602692
v 0.09147064 0.0894458 -0.06621124
v 0.09147064 0.0894458 -0.06621124
v -0.0143013 0.08492689 0.07405731
v 0.07015488 0.08388403 0.03087372
v 0.05725449 0.09216799 0.0896405
v 0.05721183 0.08109954 0.08982452
v 0.07049705 0.072785 0.02930511
v -0.01499718 0.0738586 0.0740979
v 0.0785907 0 -0.07729828
v 0.0785907 0 0.07984192
v 0.0785907 0.07766379 0.07984192
v 0.0785907 0.07766379 -0.07729828
v -0.07854957 0.07766379 -0.07729828
v -0.07854957 0 -0.07729828
v 0.0785907 0 -0.07729828
v 0.0785907 0.07766379 -0.07729828
v -0.07854957 0 0.07984192
v -0.07854957 0 -0.07729828
v -0.07854957 0.07766379 -0.07729828
v -0.07854957 0.07766379 0.07984192
v 0.0785907 0 0.07984192
v -0.07854957 0 0.07984192
v -0.07854957 0.07766379 0.07984192
v 0.0785907 0.07766379 0.07984192
vt 0.2065593 0.3293369
vt 0.205725 0.3292139
vt 0.2065605 0.3292747
vt 0.2057137 0.3291534
vt 0.2066036 0.3289011
vt 0.2060252 0.3287675
vt 0.2065993 0.3289572
vt 0.2060306 0.3288209
vt 0.2061445 0.3292757
vt 0.2061362 0.3292139
vt 0.2058301 0.3290092
vt 0.2058427 0.3290626
vt 0.2065593 0.3293369
vt 0.2059041 0.3291841
vt 0.2065605 0.3292747
vt 0.2058934 0.3291255
vt 0.2067138 0.3288451
vt 0.2060252 0.3287675
vt 0.2067109 0.3289001
vt 0.2060306 0.3288209
vt 0.2066434 0.3290423
vt 0.2066407 0.3291024
vt 0.2064536 0.3288158
vt 0.2064462 0.3288693
vt 0.2065593 0.3293369
vt 0.205725 0.3292139
vt 0.2065605 0.3292747
vt 0.2057137 0.3291534
vt 0.2067138 0.3288451
vt 0.2060252 0.3287675
vt 0.2067109 0.3289001
vt 0.2060306 0.3288209
vt 0.2065593 0.3293369
vt 0.2059041 0.3291841
vt 0.2065605 0.3292747
vt 0.2058934 0.3291255
vt 0.2067138 0.3288451
vt 0.2060252 0.3287675
vt 0.2067109 0.3289001
vt 0.2060306 0.3288209
vt 0.2066434 0.3290423
vt 0.2066407 0.3291024
vt 0.2064536 0.3288158
vt 0.2064462 0.3288693
vt 0.2065605 0.3292747
vt 0.2061362 0.3292139
vt 0.2061445 0.3292757
vt 0.2058427 0.3290626
vt 0.205725 0.3292139
vt 0.2057137 0.3291534
vt 0.2058301 0.3290092
vt 0.2065593 0.3293369
vt 0.2066036 0.3289011
vt 0.2065993 0.3289572
vt 0.2065593 0.3293369
vt 0.2065605 0.3292747
vt 0.2065993 0.3289572
vt 0.2066036 0.3289011
vt 0.2060306 0.3288209
vt 0.2060306 0.3288209
vt 0.2060252 0.3287675
vt 0.2060252 0.3287675
vt 0.2058301 0.3290092
vt 0.2061362 0.3292139
vt 0.2057137 0.3291534
vt 0.2061445 0.3292757
vt 0.2058427 0.3290626
vt 0.205725 0.3292139
vt 0.2065605 0.3292747
vt 0.2058934 0.3291255
vt 0.2064462 0.3288693
vt 0.2059041 0.3291841
vt 0.2067109 0.3289001
vt 0.2066407 0.3291024
vt 0.2066434 0.3290423
vt 0.2067138 0.3288451
vt 0.2064536 0.3288158
vt 0.2065593 0.3293369
vt 0.2066434 0.3290423
vt 0.2066407 0.3291024
vt 0.2065593 0.3293369
vt 0.2065605 0.3292747
vt 0.2060306 0.3288209
vt 0.2058934 0.3291255
vt 0.2059041 0.3291841
vt 0.2060306 0.3288209
vt 0.2060252 0.3287675
vt 0.2060252 0.3287675
vt 0.2066434 0.3290423
vt 0.2064536 0.3288158
vt 0.2067138 0.3288451
vt 0.2067109 0.3289001
vt 0.2064462 0.3288693
vt 0.2066407 0.3291024
vt 0.2065605 0.3292747
vt 0.2058934 0.3291255
vt 0.2064462 0.3288693
vt 0.2059041 0.3291841
vt 0.2067109 0.3289001
vt 0.2066407 0.3291024
vt 0.2066434 0.3290423
vt 0.2067138 0.3288451
vt 0.2064536 0.3288158
vt 0.2065593 0.3293369
vt 0.2066434 0.3290423
vt 0.2066407 0.3291024
vt 0.2065593 0.3293369
vt 0.2065605 0.3292747
vt 0.2060306 0.3288209
vt 0.2058934 0.3291255
vt 0.2059041 0.3291841
vt 0.2060306 0.3288209
vt 0.2060252 0.3287675
vt 0.2060252 0.3287675
vt 0.2066434 0.3290423
vt 0.2064536 0.3288158
vt 0.2067138 0.3288451
vt 0.2067109 0.3289001
vt 0.2064462 0.3288693
vt 0.2066407 0.3291024
vt 0.3240473 0.3551193
vt 0.3240473 0.3551193
vt 0.3240473 0.369196
vt 0.3240473 0.369196
vt 0.3347815 0.369196
vt 0.3347815 0.3551193
vt 0.3240473 0.3551193
vt 0.3240473 0.369196
vt 0.3347815 0.3551193
vt 0.3347815 0.3551193
vt 0.3347815 0.369196
vt 0.3347815 0.369196
vt 0.3240473 0.3551193
vt 0.3347815 0.3551193
vt 0.3347815 0.369196
vt 0.3240473 0.369196
vn -0.02693473 0 0.9996372
vn -0.9996371 0 -0.02693727
vn -0.02693473 0 0.9996372
vn -0.9996371 0 -0.02693727
vn 0.02460735 0.9992622 -0.0294882
vn 0.02693531 0 -0.9996372
vn -0.02494113 -0.9992515 0.02956899
vn 0.02693531 0 -0.9996372
vn -0.02693459 0 0.9996372
vn -0.02693458 0 0.9996372
vn -0.9996371 0 -0.02693616
vn -0.01257085 -0.9992748 0.03594154
vn 0.02308843 0.001440687 0.9997323
vn 0.02308843 0.001440687 0.9997323
vn 0.02308843 0.001440687 0.9997323
vn 0.02308843 0.001440687 0.9997323
vn 0.04994804 -0.0001910892 -0.9987518
vn 0.04995434 -0.0001915077 -0.9987515
vn 0.04994804 -0.0001910892 -0.9987518
vn 0.04995432 -0.0001915077 -0.9987515
vn 0.003832665 0.9985788 -0.05315659
vn -0.003829761 -0.9985544 0.0536143
vn 0.0499516 -0.0001913264 -0.9987516
vn 0.04995229 -0.0001913723 -0.9987516
vn 0 -1 0
vn 0 -1 0
vn 0 1 0
vn 0 1 0
vn 0 1 0
vn 0 1 0
vn 0 -1 0
vn 0 -1 0
vn -0.9897841 0.001429805 -0.1425675
vn -0.9897841 0.001429805 -0.1425675
vn -0.9897841 0.001429805 -0.1425675
vn -0.9897841 0.001429805 -0.1425675
vn 0.9767372 -0.0001961264 0.2144398
vn 0.9767373 -0.0001931729 0.2144394
vn 0.9767372 -0.0001961263 0.2144398
vn 0.9767373 -0.0001931729 0.2144394
vn 0.05179061 0.9985788 0.01257104
vn -0.05224252 -0.9985544 -0.01264381
vn 0.9767372 -0.0001944524 0.2144396
vn 0.9767372 -0.0001941281 0.2144395
vn 0.06545477 0.9978451 -0.004587786
vn 0.03842023 0.999127 -0.01640658
vn -0.03878884 -0.9991129 0.01639613
vn -0.9996371 0 -0.02693599
vn -0.02693444 0 0.9996372
vn -0.02693444 0 0.9996372
vn 0.01224681 0.9992856 -0.03575483
vn -0.06596372 -0.9978114 0.004623459
vn 0.9975527 0 -0.0699194
vn 0.9975527 0 -0.0699194
vn 0.9975527 0 -0.0699194
vn 0.9975527 0 -0.0699194
vn 0.02693531 0 -0.9996372
vn 0.02693531 0 -0.9996372
vn -0.001434456 -0.9985809 0.05323631
vn -0.9996372 0 -0.02693532
vn -0.9996372 0 -0.02693532
vn 0.001408599 0.9986317 -0.05227663
vn -0.06768063 0.9940405 0.08545581
vn -0.06768064 0.9940405 0.08545581
vn -0.06768063 0.9940405 0.08545581
vn 0.06712385 -0.9942926 -0.08292598
vn 0.06712384 -0.9942926 -0.08292598
vn 0.06712384 -0.9942926 -0.08292598
vn -0.01915868 0.9951249 -0.09674388
vn 0.02426195 0.9991265 -0.03402542
vn -0.03631441 -0.9992099 0.01615065
vn -0.02438862 -0.9991078 0.03447753
vn 0.9986065 0.01706146 0.04994126
vn 0.9986065 0.01706146 0.04994126
vn 0.9986065 0.01706146 0.04994126
vn 0.9986065 0.01706146 0.04994127
vn 0.03597741 0.9992286 -0.01574786
vn 0.01917686 -0.995042 0.0975897
vn 0.9975789 0.01335333 -0.0682507
vn 0.9975789 0.01335333 -0.06825071
vn 0.9975789 0.01335333 -0.0682507
vn 0.9975789 0.01335333 -0.06825071
vn -0.05745279 -0.9983418 0.003582261
vn -0.9992749 -0.01698436 0.03407518
vn -0.9992749 -0.01698436 0.03407518
vn -0.9992749 -0.01698436 0.03407518
vn -0.9992749 -0.01698436 0.03407518
vn 0.05611324 0.9984182 -0.003536743
vn -0.1404541 0.9859138 0.09081176
vn -0.1404541 0.9859138 0.09081177
vn -0.1404541 0.9859138 0.09081176
vn 0.1370448 -0.9864548 -0.09014185
vn 0.1370448 -0.9864548 -0.09014184
vn 0.1370448 -0.9864548 -0.09014185
vn 0.09858023 0.9951249 -0.002895246
vn 0.02954434 0.9991265 0.02955501
vn -0.009922497 -0.9992099 -0.03848531
vn -0.0299694 -0.9991078 -0.02975463
vn -0.2144066 0.01706208 0.9765954
vn -0.2144066 0.01706208 0.9765954
vn -0.2144066 0.01706208 0.9765954
vn -0.2144066 0.01706208 0.9765954
vn 0.009580964 0.9992286 0.03808636
vn -0.09941686 -0.995042 0.002773173
vn -0.09767196 0.0133556 0.995129
vn -0.09767196 0.0133556 0.995129
vn -0.09767196 0.0133556 0.995129
vn -0.09767196 0.0133556 0.995129
vn 0.005968814 -0.9983418 -0.0572541
vn 0.131656 -0.0169978 -0.9911497
vn 0.131656 -0.0169978 -0.9911497
vn 0.131656 -0.0169978 -0.9911497
vn 0.131656 -0.0169978 -0.9911497
vn -0.005792034 0.9984182 0.05592537
vn -0.06633246 0.9859137 -0.1535388
vn -0.06633247 0.9859137 -0.1535388
vn -0.06633247 0.9859137 -0.1535388
vn 0.066236 -0.9864548 0.1500655
vn 0.066236 -0.9864548 0.1500655
vn 0.066236 -0.9864548 0.1500655
vn 1 0 0
vn 1 0 0
vn 1 0 0
vn 1 0 0
vn 0 0 -1
vn 0 0 -1
vn 0 0 -1
vn 0 0 -1
vn -1 0 0
vn -1 0 0
vn -1 0 0
vn -1 0 0
vn 0 0 1
vn 0 0 1
vn 0 0 1
vn 0 0 1
g SM_Prop_Food_Cheese_Stack_02_0
f 65/65/65 64/64/64 63/63/63
f 68/68/68 67/67/67 66/66/66
f 91/91/91 90/90/90 89/89/89
f 94/94/94 93/93/93 92/92/92
f 117/117/117 116/116/116 115/115/115
f 120/120/120 119/119/119 118/118/118
f 3/3/3 10/10/10 1/1/1
f 10/10/10 9/9/9 1/1/1
f 49/49/49 9/9/9 10/10/10
f 50/50/50 49/49/49 10/10/10
f 5/5/5 46/46/46 45/45/45
f 51/51/51 46/46/46 5/5/5
f 62/62/62 51/51/51 5/5/5
f 4/4/4 11/11/11 2/2/2
f 11/11/11 48/48/48 2/2/2
f 60/60/60 48/48/48 11/11/11
f 61/61/61 60/60/60 11/11/11
f 52/52/52 47/47/47 7/7/7
f 47/47/47 12/12/12 7/7/7
f 59/59/59 7/7/7 12/12/12
f 55/55/55 54/54/54 53/53/53
f 56/56/56 55/55/55 53/53/53
f 6/6/6 58/58/58 57/57/57
f 8/8/8 6/6/6 57/57/57
f 16/16/16 14/14/14 13/13/13
f 15/15/15 16/16/16 13/13/13
f 21/21/21 70/70/70 69/69/69
f 77/77/77 70/70/70 21/21/21
f 88/88/88 70/70/70 77/77/77
f 19/19/19 24/24/24 17/17/17
f 24/24/24 23/23/23 17/17/17
f 18/18/18 23/23/23 24/24/24
f 20/20/20 18/18/18 24/24/24
f 75/75/75 74/74/74 73/73/73
f 76/76/76 75/75/75 73/73/73
f 78/78/78 72/72/72 22/22/22
f 72/72/72 71/71/71 22/22/22
f 83/83/83 71/71/71 72/72/72
f 81/81/81 80/80/80 79/79/79
f 82/82/82 81/81/81 79/79/79
f 86/86/86 85/85/85 84/84/84
f 87/87/87 86/86/86 84/84/84
f 30/30/30 28/28/28 27/27/27
f 29/29/29 30/30/30 27/27/27
f 26/26/26 32/32/32 31/31/31
f 25/25/25 26/26/26 31/31/31
f 36/36/36 34/34/34 33/33/33
f 35/35/35 36/36/36 33/33/33
f 41/41/41 96/96/96 95/95/95
f 103/103/103 96/96/96 41/41/41
f 114/114/114 96/96/96 103/103/103
f 39/39/39 44/44/44 37/37/37
f 44/44/44 43/43/43 37/37/37
f 38/38/38 43/43/43 44/44/44
f 40/40/40 38/38/38 44/44/44
f 101/101/101 100/100/100 99/99/99
f 102/102/102 101/101/101 99/99/99
f 104/104/104 98/98/98 42/42/42
f 98/98/98 97/97/97 42/42/42
f 109/109/109 97/97/97 98/98/98
f 107/107/107 106/106/106 105/105/105
f 108/108/108 107/107/107 105/105/105
f 112/112/112 111/111/111 110/110/110
f 113/113/113 112/112/112 110/110/110
f 123/123/123 122/122/122 121/121/121
f 124/124/124 123/123/123 121/121/121
f 127/127/127 126/126/126 125/125/125
f 128/128/128 127/127/127 125/125/125
f 131/131/131 130/130/130 129/129/129
f 132/132/132 131/131/131 129/129/129
f 135/135/135 134/134/134 133/133/133
f 136/136/136 135/135/135 133/133/133
