g SM_Prop_ToolBox_01
v -0.1014612 0.1549876 -0.03792478
v -0.1221152 0.1517723 -0.03335067
v -0.1114877 0.147916 -0.03880616
v -0.1114877 0.147916 0.03880616
v -0.1221152 0.1517723 0.03335068
v -0.1014612 0.1549876 0.03792477
v -0.08253916 0.1549886 0.3342872
v -0.08253916 0.1285652 0.3342872
v -0.03442158 0.1549886 0.3342872
v -0.08253916 0.1065655 -0.3342872
v -0.08253916 0.1549886 -0.3342872
v -0.06188205 0.1549886 -0.3342872
v -0.08253916 0.1549886 -0.3342872
v -0.08253916 0.1065655 -0.3342872
v -0.08253916 0.1549886 -0.2326873
v -0.1114877 0.1479163 0.3592754
v -0.1014612 0.1549886 0.3511154
v -0.03605654 0.1549886 0.3511154
v -0.04210203 0.1479163 0.3592754
v -0.1014612 0.1549886 -0.3511154
v -0.1114877 0.1479163 -0.3592754
v -0.058555 0.1479163 -0.3592754
v -0.05707686 0.1549886 -0.3511154
v -0.1114877 0 -0.3592754
v -0.1114877 0 0.3592754
v 0.1327412 0 0.3592754
v 0.1327412 0 -0.3592754
v 0.1327412 0.1479163 0.3592754
v 0.1227147 0.1549886 0.3511154
v 0.1227147 0.1549886 -0.3511154
v 0.1327412 0.1479163 -0.3592754
v -0.1014612 0.1549876 -0.03792478
v -0.1014612 0.1549876 0.03792477
v -0.1221152 0.1517723 0.03335068
v -0.1221152 0.1517723 -0.03335067
v -0.1114877 0.1479163 -0.3592754
v -0.1114877 0.1163631 -0.3592754
v -0.06635986 0.1183571 -0.3592754
v -0.058555 0.1479163 -0.3592754
v -0.1221152 0.1517723 -0.03335067
v -0.1221152 0.1517723 0.03335068
v -0.1221152 0.1088202 0.03335068
v -0.1221152 0.1088202 -0.03335067
v -0.1114877 0.1191254 0.3592754
v -0.1114877 0.1479163 0.3592754
v -0.04210203 0.1479163 0.3592754
v -0.06569888 0.1199707 0.3592754
v 0.1327412 0 0.3592754
v 0.1327412 0.1479163 0.3592754
v 0.1327412 0.1479163 -0.3592754
v 0.1327412 0 -0.3592754
v -0.1114877 0.1479163 -0.3592754
v -0.1014612 0.1549886 -0.3511154
v -0.1014612 0.1549882 -0.2334857
v -0.1114877 0.1479162 -0.2624709
v -0.1014612 0.1549879 0.1287745
v -0.1014612 0.1549886 0.3511154
v -0.1114877 0.1479163 0.3592754
v -0.1114877 0.1479161 0.1326524
v -0.1114877 0.06849869 0.3219254
v -0.1114877 0.110297 0.3392145
v -0.1114877 0.1191254 0.3592754
v -0.1114877 0 0.3592754
v -0.1114877 0.0651696 0.2574069
v -0.1114877 0 -0.3592754
v -0.1114877 0.1023251 0.03880616
v -0.1114877 0.1035971 0.2112643
v -0.1114877 0.1071423 0.1522414
v -0.1114877 0.1479161 0.1326524
v -0.1114877 0.147916 0.03880616
v -0.1114877 0.1023251 -0.03880616
v -0.1114877 0.1310265 -0.2718255
v -0.1114877 0.1479162 -0.2624709
v -0.1114877 0.147916 -0.03880616
v -0.1114877 0.1168211 -0.3162647
v -0.1114877 0.1315161 -0.3088037
v -0.1114877 0.1163631 -0.3592754
v -0.1114877 0.1479161 0.1326524
v -0.1114877 0.1035971 0.2112643
v -0.1114877 0.1071423 0.1522414
v -0.1114877 0.1479163 0.3592754
v -0.1114877 0.110297 0.3392145
v -0.1114877 0.1191254 0.3592754
v -0.1114877 0.0651696 0.2574069
v -0.1114877 0.06849869 0.3219254
v -0.1114877 0.147916 -0.03880616
v -0.1221152 0.1517723 -0.03335067
v -0.1221152 0.1088202 -0.03335067
v -0.1114877 0.1023251 -0.03880616
v -0.1114877 0.1023251 -0.03880616
v -0.1221152 0.1088202 -0.03335067
v -0.1221152 0.1088202 0.03335068
v -0.1114877 0.1023251 0.03880616
v -0.1114877 0.1023251 0.03880616
v -0.1221152 0.1088202 0.03335068
v -0.1221152 0.1517723 0.03335068
v -0.1114877 0.147916 0.03880616
v -0.08253916 0.01637123 0.3342872
v -0.08253916 0.01637123 -0.3342872
v 0.1037927 0.01637123 -0.3342872
v 0.1037927 0.01637123 0.3342872
v -0.09504162 0.1549879 0.1384705
v -0.1014612 0.1549886 0.3511154
v -0.1014612 0.1549879 0.1287745
v -0.08253916 0.1549886 0.3342872
v -0.08253916 0.1549886 0.1573543
v -0.03442158 0.1549886 0.3342872
v -0.03605654 0.1549886 0.3511154
v -0.06188205 0.1549886 -0.3342872
v -0.1014612 0.1549886 -0.3511154
v -0.05707686 0.1549886 -0.3511154
v -0.08253916 0.1549886 -0.3342872
v -0.08253916 0.1549886 -0.2326873
v -0.1014612 0.1549882 -0.2334857
v 0.1037927 0.1549886 0.3342872
v 0.1037927 0.01637123 0.3342872
v 0.1037927 0.01637123 -0.3342872
v 0.1037927 0.1549886 -0.3342872
v -0.1014612 0.1549882 -0.2334857
v -0.1014612 0.1549876 -0.03792478
v -0.1114877 0.147916 -0.03880616
v -0.1114877 0.1479162 -0.2624709
v -0.08253916 0.1549886 -0.2326873
v -0.1014612 0.1549876 -0.03792478
v -0.1014612 0.1549882 -0.2334857
v -0.08253916 0.1549886 0.1573543
v -0.1014612 0.1549876 0.03792477
v -0.09504162 0.1549879 0.1384705
v -0.1014612 0.1549879 0.1287745
v -0.08253916 0.1285652 0.3342872
v -0.08253916 0.1549886 0.3342872
v -0.08253916 0.1549886 0.1573543
v -0.08253916 0.1267942 0.2251971
v -0.06188205 0.1549886 -0.3342872
v 0.1037927 0.1549886 -0.3342872
v 0.1037927 0.01637123 -0.3342872
v -0.08253916 0.01637123 -0.3342872
v -0.08253916 0.1065655 -0.3342872
v 0.1227147 0.1549886 -0.3511154
v -0.06188205 0.1549886 -0.3342872
v -0.05707686 0.1549886 -0.3511154
v 0.1037927 0.1549886 -0.3342872
v 0.1227147 0.1549886 0.3511154
v 0.1037927 0.1549886 0.3342872
v -0.03442158 0.1549886 0.3342872
v -0.03605654 0.1549886 0.3511154
v -0.058555 0.1479163 -0.3592754
v 0.1327412 0.1479163 -0.3592754
v 0.1227147 0.1549886 -0.3511154
v -0.05707686 0.1549886 -0.3511154
v -0.1114877 0.1163631 -0.3592754
v -0.1114877 0 -0.3592754
v 0.1327412 0 -0.3592754
v -0.06635986 0.1183571 -0.3592754
v -0.058555 0.1479163 -0.3592754
v 0.1327412 0.1479163 -0.3592754
v -0.1114877 0.1163631 -0.3592754
v -0.1114877 0.1315161 -0.3088037
v -0.1114877 0.1168211 -0.3162647
v -0.1114877 0.1479163 -0.3592754
v -0.1114877 0.1310265 -0.2718255
v -0.1114877 0.1479162 -0.2624709
v -0.06569888 0.1199707 0.3592754
v -0.04210203 0.1479163 0.3592754
v 0.1327412 0.1479163 0.3592754
v 0.1327412 0 0.3592754
v -0.1114877 0 0.3592754
v -0.1114877 0.1191254 0.3592754
v -0.03605654 0.1549886 0.3511154
v 0.1227147 0.1549886 0.3511154
v 0.1327412 0.1479163 0.3592754
v -0.04210203 0.1479163 0.3592754
v -0.08253916 0.01637123 0.3342872
v 0.1037927 0.01637123 0.3342872
v 0.1037927 0.1549886 0.3342872
v -0.03442158 0.1549886 0.3342872
v -0.08253916 0.1285652 0.3342872
v -0.08253916 0.01637123 0.3342872
v -0.08253916 0.1285652 0.3342872
v -0.08253916 0.1267942 0.2251971
v -0.08253916 0.01637123 -0.3342872
v -0.08253916 0.1065655 -0.3342872
v -0.08253916 0.1549886 -0.2326873
v -0.08253916 0.1549886 0.1573543
v -0.1014612 0.1549876 0.03792477
v -0.1014612 0.1549879 0.1287745
v -0.1114877 0.1479161 0.1326524
v -0.1114877 0.147916 0.03880616
vt 0.1012864 0.2524934
vt 0.1012864 0.2524934
vt 0.1012864 0.2524934
vt 0.1012864 0.2524934
vt 0.1012864 0.2524934
vt 0.1012864 0.2524934
vt 0.8588991 0.1181412
vt 0.8588991 0.1181412
vt 0.8589001 0.1181412
vt 0.8530791 0.1152687
vt 0.8530791 0.156886
vt 0.8596343 0.1490528
vt 0.8530791 0.156886
vt 0.8530791 0.1152687
vt 0.8180169 0.1214586
vt 0.8635833 0.1314007
vt 0.8616439 0.1347404
vt 0.8696784 0.1434873
vt 0.8721065 0.14068
vt 0.8352262 0.1360064
vt 0.8354238 0.1292187
vt 0.8218533 0.14118
vt 0.8238473 0.1460361
vt 0.09091172 0.2784621
vt 0.09091172 0.278462
vt 0.09091172 0.278462
vt 0.09091172 0.2784621
vt 0.09091172 0.2784621
vt 0.09091172 0.2784621
vt 0.09091172 0.2784621
vt 0.09091172 0.2784621
vt 0.1012864 0.2524934
vt 0.1012864 0.2524934
vt 0.1012864 0.2524934
vt 0.1012864 0.2524934
vt 0.8354238 0.1292187
vt 0.8354238 0.1162968
vt 0.8238543 0.1273111
vt 0.8218533 0.14118
vt 0.1012864 0.2524934
vt 0.1012864 0.2524934
vt 0.1012864 0.2524934
vt 0.1012864 0.2524934
vt 0.8678341 0.1242532
vt 0.8635833 0.1314007
vt 0.8721065 0.14068
vt 0.873334 0.1305867
vt 0.09091172 0.2784621
vt 0.09091172 0.2784621
vt 0.09091172 0.2784621
vt 0.09091172 0.2784621
vt 0.8354238 0.1292187
vt 0.8352262 0.1360064
vt 0.8694322 0.1594406
vt 0.863574 0.1485042
vt 0.8036957 0.1413664
vt 0.8616439 0.1347404
vt 0.8635833 0.1314007
vt 0.8045189 0.1381544
vt 0.09091172 0.2784621
vt 0.09091172 0.278462
vt 0.09091172 0.2784621
vt 0.09091172 0.2784621
vt 0.09091172 0.2784621
vt 0.09091172 0.2784621
vt 0.09091172 0.2784621
vt 0.09091172 0.278462
vt 0.09091172 0.2784621
vt 0.09091172 0.2784621
vt 0.09091172 0.2784621
vt 0.09091172 0.2784621
vt 0.09091172 0.2784621
vt 0.09091172 0.2784621
vt 0.09091172 0.2784621
vt 0.09091172 0.2784621
vt 0.09091172 0.2784621
vt 0.09091172 0.2784621
vt 0.8045189 0.1381544
vt 0.8315509 0.1248093
vt 0.8156443 0.1274484
vt 0.8635833 0.1314007
vt 0.8639092 0.1226594
vt 0.8678341 0.1242532
vt 0.8492506 0.1138944
vt 0.8655747 0.1127981
vt 0.1012864 0.2524934
vt 0.1012864 0.2524934
vt 0.1012864 0.2524934
vt 0.1012864 0.2524934
vt 0.1012864 0.2524934
vt 0.1012864 0.2524934
vt 0.1012864 0.2524934
vt 0.1012864 0.2524934
vt 0.1012864 0.2524934
vt 0.1012864 0.2524934
vt 0.1012864 0.2524934
vt 0.1012864 0.2524934
vt 0.09091172 0.2784609
vt 0.09091172 0.2784609
vt 0.09091172 0.2784609
vt 0.09091172 0.2784609
vt 0.8070113 0.141936
vt 0.8616439 0.1347404
vt 0.8036957 0.1413664
vt 0.8595825 0.1377726
vt 0.8134688 0.1430454
vt 0.8654933 0.1442075
vt 0.8696784 0.1434873
vt 0.8299727 0.1483027
vt 0.8352262 0.1360064
vt 0.8238473 0.1460361
vt 0.8352686 0.1436348
vt 0.8648134 0.1638756
vt 0.8694322 0.1594406
vt 0.09091172 0.2784609
vt 0.09091172 0.2784609
vt 0.09091172 0.2784609
vt 0.09091172 0.2784609
vt 0.09091172 0.2784621
vt 0.09091172 0.2784621
vt 0.09091172 0.2784621
vt 0.09091172 0.2784621
vt 0.09091172 0.2784609
vt 0.09091172 0.2784609
vt 0.09091172 0.2784609
vt 0.09091172 0.2784609
vt 0.09091172 0.2784609
vt 0.09091172 0.2784609
vt 0.09091172 0.2784609
vt 0.8588991 0.1181412
vt 0.8588991 0.1181412
vt 0.8588991 0.1181412
vt 0.8588991 0.1181412
vt 0.09091172 0.2784609
vt 0.09091172 0.2784609
vt 0.09091172 0.2784609
vt 0.09091172 0.2784609
vt 0.09091172 0.2784609
vt 0.09091172 0.2784621
vt 0.09091172 0.2784621
vt 0.09091172 0.2784621
vt 0.09091172 0.2784621
vt 0.09091172 0.2784621
vt 0.09091172 0.2784621
vt 0.09091172 0.2784621
vt 0.09091172 0.2784621
vt 0.09091172 0.2784621
vt 0.09091172 0.2784621
vt 0.09091172 0.2784621
vt 0.09091172 0.2784621
vt 0.09091172 0.2784621
vt 0.09091172 0.2784621
vt 0.09091172 0.2784621
vt 0.09091172 0.2784621
vt 0.09091172 0.2784621
vt 0.09091172 0.2784621
vt 0.8354238 0.1162968
vt 0.8501006 0.1325574
vt 0.847931 0.125053
vt 0.8354238 0.1292187
vt 0.8608538 0.1397238
vt 0.863574 0.1485042
vt 0.09091172 0.2784621
vt 0.09091172 0.2784621
vt 0.09091172 0.2784621
vt 0.09091172 0.2784621
vt 0.09091172 0.2784621
vt 0.09091172 0.2784621
vt 0.09091172 0.2784621
vt 0.09091172 0.2784621
vt 0.09091172 0.2784621
vt 0.09091172 0.2784621
vt 0.09091172 0.2784609
vt 0.09091172 0.2784609
vt 0.09091172 0.2784609
vt 0.09091172 0.2784609
vt 0.09091172 0.2784609
vt 0.09091172 0.2784609
vt 0.09091172 0.2784609
vt 0.09091172 0.2784609
vt 0.09091172 0.2784609
vt 0.09091172 0.2784609
vt 0.09091172 0.2784609
vt 0.09091172 0.2784609
vt 0.09091172 0.2784621
vt 0.09091172 0.2784621
vt 0.09091172 0.2784621
vt 0.09091172 0.2784621
vn -0.2600832 0.473634 -0.8414437
vn -0.2600832 0.473634 -0.8414437
vn -0.2600832 0.473634 -0.8414437
vn -0.260083 0.4736343 0.8414436
vn -0.260083 0.4736343 0.8414436
vn -0.260083 0.4736343 0.8414436
vn 0 0 -1
vn 0 0 -1
vn 0 0 -1
vn 0 0 1
vn 0 0 1
vn 0 0 1
vn 1 0 0
vn 1 0 0
vn 1 0 0
vn 0 0.7556763 0.6549453
vn 0 0.7556763 0.6549453
vn 0 0.7556763 0.6549453
vn 0 0.7556763 0.6549453
vn 0 0.7556763 -0.6549454
vn 0 0.7556763 -0.6549454
vn 0 0.7556763 -0.6549454
vn 0 0.7556763 -0.6549454
vn 0 -1 0
vn 0 -1 0
vn 0 -1 0
vn 0 -1 0
vn 0.5763988 0.8171686 0
vn 0.5763988 0.8171686 0
vn 0.5763988 0.8171686 0
vn 0.5763988 0.8171686 0
vn -0.1538237 0.9880983 0
vn -0.1538237 0.9880983 0
vn -0.1538237 0.9880983 0
vn -0.1538237 0.9880983 0
vn 0 0 -1
vn 0 0 -1
vn 0 0 -1
vn 0 0 -1
vn -1 0 0
vn -1 0 0
vn -1 0 0
vn -1 0 0
vn 0 0 1
vn 0 0 1
vn 0 0 1
vn 0 0 1
vn 1 0 0
vn 1 0 0
vn 1 0 0
vn 1 0 0
vn -0.5763924 0.8171731 0
vn -0.5763924 0.8171731 0
vn -0.5763826 0.8171799 0
vn -0.5763826 0.8171799 0
vn -0.5763773 0.8171836 0
vn -0.5763868 0.817177 0
vn -0.5763868 0.817177 0
vn -0.5763773 0.8171836 0
vn -1 0 0
vn -1 0 0
vn -1 0 0
vn -1 0 0
vn -1 0 0
vn -1 0 0
vn -1 0 0
vn -1 0 0
vn -1 0 0
vn -1 0 0
vn -1 0 0
vn -1 0 0
vn -1 0 0
vn -1 0 0
vn -1 0 0
vn -1 0 0
vn -1 0 0
vn -1 0 0
vn -1 0 0
vn -1 0 0
vn -1 0 0
vn -1 0 0
vn -1 0 0
vn -1 0 0
vn -1 0 0
vn -1 0 0
vn -0.4566822 0 -0.88963
vn -0.4566822 0 -0.88963
vn -0.4566822 0 -0.88963
vn -0.4566822 0 -0.88963
vn -0.5214797 -0.8532636 0
vn -0.5214797 -0.8532636 0
vn -0.5214797 -0.8532636 0
vn -0.5214797 -0.8532636 0
vn -0.4566822 0 0.88963
vn -0.4566822 0 0.88963
vn -0.4566822 0 0.88963
vn -0.4566822 0 0.88963
vn 0 1 0
vn 0 1 0
vn 0 1 0
vn 0 1 0
vn -2.337874E-05 1 0
vn 0 1 0
vn 0 1 0
vn -1.654443E-05 1 0
vn -4.863551E-05 1 0
vn 0 1 0
vn 0 1 0
vn 0 1 0
vn -5.445241E-06 1 0
vn 0 1 0
vn -5.445241E-06 1 0
vn -2.651663E-05 1 0
vn -1.558288E-05 1 0
vn -1 0 0
vn -1 0 0
vn -1 0 0
vn -1 0 0
vn -0.5763826 0.8171799 0
vn -0.5763729 0.8171868 0
vn -0.5763729 0.8171868 0
vn -0.5763826 0.8171799 0
vn -2.651663E-05 1 0
vn -3.901451E-05 1 0
vn -1.558288E-05 1 0
vn -4.863551E-05 1 0
vn -3.075527E-05 1 0
vn -2.337874E-05 1 0
vn 0 1 0
vn 1 0 0
vn 1 0 0
vn 1 0 0
vn 1 0 0
vn 0 0 1
vn 0 0 1
vn 0 0 1
vn 0 0 1
vn 0 0 1
vn 0 1 0
vn 0 1 0
vn 0 1 0
vn 0 1 0
vn 0 1 0
vn 0 1 0
vn 0 1 0
vn 0 1 0
vn 0 0.7556763 -0.6549454
vn 0 0.7556763 -0.6549453
vn 0 0.7556763 -0.6549453
vn 0 0.7556763 -0.6549454
vn 0 0 -1
vn 0 0 -1
vn 0 0 -1
vn 0 0 -1
vn 0 0 -1
vn 0 0 -1
vn -1 0 0
vn -1 0 0
vn -1 0 0
vn -1 0 0
vn -1 0 0
vn -1 0 0
vn 0 0 1
vn 0 0 1
vn 0 0 1
vn 0 0 1
vn 0 0 1
vn 0 0 1
vn 0 0.7556763 0.6549453
vn 0 0.7556763 0.6549453
vn 0 0.7556763 0.6549453
vn 0 0.7556763 0.6549453
vn 0 0 -1
vn 0 0 -1
vn 0 0 -1
vn 0 0 -1
vn 0 0 -1
vn 1 0 0
vn 1 0 0
vn 1 0 0
vn 1 0 0
vn 1 0 0
vn 1 0 0
vn 1 0 0
vn -0.5763679 0.8171904 0
vn -0.5763773 0.8171836 0
vn -0.5763773 0.8171836 0
vn -0.5763679 0.8171904 0
g SM_Prop_ToolBox_01_0
f 3/3/3 2/2/2 1/1/1
f 6/6/6 5/5/5 4/4/4
f 9/9/9 8/8/8 7/7/7
f 12/12/12 11/11/11 10/10/10
f 15/15/15 14/14/14 13/13/13
f 18/18/18 17/17/17 16/16/16
f 19/19/19 18/18/18 16/16/16
f 22/22/22 21/21/21 20/20/20
f 23/23/23 22/22/22 20/20/20
f 26/26/26 25/25/25 24/24/24
f 27/27/27 26/26/26 24/24/24
f 30/30/30 29/29/29 28/28/28
f 31/31/31 30/30/30 28/28/28
f 34/34/34 33/33/33 32/32/32
f 35/35/35 34/34/34 32/32/32
f 38/38/38 37/37/37 36/36/36
f 39/39/39 38/38/38 36/36/36
f 42/42/42 41/41/41 40/40/40
f 43/43/43 42/42/42 40/40/40
f 46/46/46 45/45/45 44/44/44
f 47/47/47 46/46/46 44/44/44
f 50/50/50 49/49/49 48/48/48
f 51/51/51 50/50/50 48/48/48
f 54/54/54 53/53/53 52/52/52
f 55/55/55 54/54/54 52/52/52
f 58/58/58 57/57/57 56/56/56
f 59/59/59 58/58/58 56/56/56
f 62/62/62 61/61/61 60/60/60
f 63/63/63 62/62/62 60/60/60
f 63/63/63 60/60/60 64/64/64
f 65/65/65 63/63/63 64/64/64
f 65/65/65 64/64/64 66/66/66
f 64/64/64 67/67/67 66/66/66
f 67/67/67 68/68/68 66/66/66
f 68/68/68 69/69/69 66/66/66
f 69/69/69 70/70/70 66/66/66
f 71/71/71 65/65/65 66/66/66
f 65/65/65 71/71/71 72/72/72
f 73/73/73 72/72/72 71/71/71
f 74/74/74 73/73/73 71/71/71
f 75/75/75 65/65/65 72/72/72
f 76/76/76 75/75/75 72/72/72
f 75/75/75 77/77/77 65/65/65
f 80/80/80 79/79/79 78/78/78
f 79/79/79 81/81/81 78/78/78
f 79/79/79 82/82/82 81/81/81
f 82/82/82 83/83/83 81/81/81
f 79/79/79 84/84/84 82/82/82
f 84/84/84 85/85/85 82/82/82
f 88/88/88 87/87/87 86/86/86
f 89/89/89 88/88/88 86/86/86
f 92/92/92 91/91/91 90/90/90
f 93/93/93 92/92/92 90/90/90
f 96/96/96 95/95/95 94/94/94
f 97/97/97 96/96/96 94/94/94
f 100/100/100 99/99/99 98/98/98
f 101/101/101 100/100/100 98/98/98
f 104/104/104 103/103/103 102/102/102
f 103/103/103 105/105/105 102/102/102
f 102/102/102 105/105/105 106/106/106
f 107/107/107 105/105/105 103/103/103
f 108/108/108 107/107/107 103/103/103
f 111/111/111 110/110/110 109/109/109
f 110/110/110 112/112/112 109/109/109
f 113/113/113 112/112/112 110/110/110
f 114/114/114 113/113/113 110/110/110
f 117/117/117 116/116/116 115/115/115
f 118/118/118 117/117/117 115/115/115
f 121/121/121 120/120/120 119/119/119
f 122/122/122 121/121/121 119/119/119
f 125/125/125 124/124/124 123/123/123
f 126/126/126 123/123/123 124/124/124
f 124/124/124 127/127/127 126/126/126
f 127/127/127 128/128/128 126/126/126
f 129/129/129 128/128/128 127/127/127
f 132/132/132 131/131/131 130/130/130
f 133/133/133 132/132/132 130/130/130
f 136/136/136 135/135/135 134/134/134
f 134/134/134 137/137/137 136/136/136
f 134/134/134 138/138/138 137/137/137
f 141/141/141 140/140/140 139/139/139
f 140/140/140 142/142/142 139/139/139
f 139/139/139 142/142/142 143/143/143
f 142/142/142 144/144/144 143/143/143
f 143/143/143 144/144/144 145/145/145
f 146/146/146 143/143/143 145/145/145
f 149/149/149 148/148/148 147/147/147
f 150/150/150 149/149/149 147/147/147
f 153/153/153 152/152/152 151/151/151
f 154/154/154 153/153/153 151/151/151
f 154/154/154 155/155/155 153/153/153
f 155/155/155 156/156/156 153/153/153
f 159/159/159 158/158/158 157/157/157
f 158/158/158 160/160/160 157/157/157
f 158/158/158 161/161/161 160/160/160
f 161/161/161 162/162/162 160/160/160
f 165/165/165 164/164/164 163/163/163
f 166/166/166 165/165/165 163/163/163
f 166/166/166 163/163/163 167/167/167
f 163/163/163 168/168/168 167/167/167
f 171/171/171 170/170/170 169/169/169
f 172/172/172 171/171/171 169/169/169
f 175/175/175 174/174/174 173/173/173
f 173/173/173 176/176/176 175/175/175
f 173/173/173 177/177/177 176/176/176
f 180/180/180 179/179/179 178/178/178
f 180/180/180 178/178/178 181/181/181
f 180/180/180 181/181/181 182/182/182
f 182/182/182 183/183/183 180/180/180
f 183/183/183 184/184/184 180/180/180
f 187/187/187 186/186/186 185/185/185
f 188/188/188 187/187/187 185/185/185
