g SM_Prop_Cardboard_Box_04
v -0.2329702 -1.788139E-09 0.3544325
v 0.2311776 -1.788139E-09 0.3544325
v -0.2321206 0.3109368 0.3544325
v 0.231683 0.3086083 0.3614861
v -0.2321206 0.3109368 -0.3614861
v 0.2311776 0.3109366 -0.3614861
v -0.2329702 -1.788139E-09 -0.3614861
v 0.2311776 -1.788139E-09 -0.3614861
v 0.2312386 0.0355307 0.3258674
v 0.2313585 0.1292212 0.3243077
v 0.2312583 0.1242041 0.1554003
v 0.2311973 0.03057176 0.1570537
v 0.2311973 0.04344879 0.1832553
v 0.2312365 0.04800212 0.3025674
v 0.2312583 0.1117274 0.1824471
v 0.2313585 0.1163237 0.3018377
v -0.2329092 0.03152103 -0.3267192
v -0.2327262 0.1127564 -0.3267192
v -0.232748 0.1127563 -0.2104328
v -0.2329092 0.03152106 -0.2104328
v -0.2327872 0.08950178 -0.3267192
v -0.2327872 0.08944178 -0.2104328
v -0.2224965 0.3213813 0.3477166
v -0.2224965 0.3213813 -0.3566828
v 0.2183909 0.3213811 0.3494177
v 0.2182969 0.3213811 -0.3566828
v -0.03920093 0.321914 0.3505419
v -0.04013328 0.3132018 0.3572688
v 0.02952484 0.1637819 0.354614
v 0.0341539 0.3132018 0.3583994
v 0.03446541 0.3236462 0.3516856
v -0.04585588 0.1789826 0.3542523
v 0.02808929 0.3236462 -0.3566828
v -0.04740689 0.321914 -0.3566828
v -0.04896879 0.3132018 -0.3614861
v 0.02930483 0.1438666 -0.3527014
v 0.02815246 0.3132018 -0.3614861
v -0.04609551 0.144186 -0.3527014
v -0.005091823 0.3141998 -0.3567416
v -0.004850022 0.3141998 0.3542256
v -0.004930623 0.30874 0.3577916
v -0.005453434 0.3074754 -0.3614861
v 0.004898236 -1.788139E-09 0.3544325
v -0.006701647 -1.788139E-09 0.3544325
v 0.004898236 -1.788139E-09 -0.3614861
v -0.006701647 -1.788139E-09 -0.3614861
v -0.2321206 0.3046067 0.01236446
v 0.2329702 0.3027202 0.08873764
v -0.2329702 -1.788139E-09 -0.1050034
v 0.2311776 -1.788139E-09 -0.1085455
v -0.2224965 0.3150512 0.01894535
v 0.2171404 0.3155646 0.09703694
v 0.03692962 0.3158117 0.08389123
v -0.0292501 0.3142692 0.0640301
v 0.003877586 0.3073999 0.07878765
v 0.004898236 0.002682029 -0.1364736
v -0.006701647 0.002682029 -0.1363887
v 0.2311776 0.3109366 -0.3614861
v 0.2311776 -1.788139E-09 -0.3614861
v 0.2312365 0.04800212 0.3025674
v 0.2311973 0.04344879 0.1832553
v 0.2312583 0.1117274 0.1824471
v 0.2313585 0.1163237 0.3018377
v -0.232748 0.1127563 -0.2104328
v -0.2327872 0.08944178 -0.2104328
v -0.2327262 0.1127564 -0.3267192
v -0.2327872 0.08950178 -0.3267192
v -0.2329092 0.03152103 -0.3267192
v -0.2327872 0.08950178 -0.3267192
v -0.2327872 0.08944178 -0.2104328
v -0.2329092 0.03152106 -0.2104328
v 0.2313585 0.1292212 0.3243077
v 0.2312386 0.0355307 0.3258674
v 0.2311776 -1.788139E-09 -0.3614861
v 0.2311776 -1.788139E-09 -0.1085455
v -0.2321206 0.3109368 -0.3614861
v -0.2321206 0.3046067 0.01236446
v 0.231683 0.3086083 0.3614861
v 0.2329702 0.3027202 0.08873764
v -0.2224965 0.3213813 -0.3566828
v -0.2321206 0.3109368 -0.3614861
v 0.2311776 0.3109366 -0.3614861
v 0.02815246 0.3132018 -0.3614861
v -0.2224965 0.3213813 -0.3566828
v -0.04740689 0.321914 -0.3566828
v -0.2224965 0.3150512 0.01894535
v -0.2321206 0.3109368 0.3544325
v -0.04013328 0.3132018 0.3572688
v 0.231683 0.3086083 0.3614861
v 0.2311776 -1.788139E-09 0.3544325
v 0.2183909 0.3213811 0.3494177
v 0.231683 0.3086083 0.3614861
v 0.0341539 0.3132018 0.3583994
v 0.02808929 0.3236462 -0.3566828
v 0.2182969 0.3213811 -0.3566828
v 0.2171404 0.3155646 0.09703694
v 0.02815246 0.3132018 -0.3614861
v 0.02808929 0.3236462 -0.3566828
v -0.005091823 0.3141998 -0.3567416
v 0.02808929 0.3236462 -0.3566828
v 0.03692962 0.3158117 0.08389123
v 0.0341539 0.3132018 0.3583994
v 0.03446541 0.3236462 0.3516856
v -0.03920093 0.321914 0.3505419
v -0.0292501 0.3142692 0.0640301
v 0.003877586 0.3073999 0.07878765
v -0.004850022 0.3141998 0.3542256
v -0.004850022 0.3141998 0.3542256
v -0.004930623 0.30874 0.3577916
v -0.04013328 0.3132018 0.3572688
v -0.03920093 0.321914 0.3505419
v -0.04896879 0.3132018 -0.3614861
v -0.2321206 0.3109368 -0.3614861
v -0.2329702 -1.788139E-09 -0.3614861
v -0.005091823 0.3141998 -0.3567416
v -0.04740689 0.321914 -0.3566828
v -0.04896879 0.3132018 -0.3614861
v -0.005453434 0.3074754 -0.3614861
v -0.04013328 0.3132018 0.3572688
v -0.004930623 0.30874 0.3577916
v -0.04585588 0.1789826 0.3542523
v 0.02952484 0.1637819 0.354614
v 0.0341539 0.3132018 0.3583994
v 0.02815246 0.3132018 -0.3614861
v -0.005453434 0.3074754 -0.3614861
v 0.02930483 0.1438666 -0.3527014
v -0.04609551 0.144186 -0.3527014
v -0.04896879 0.3132018 -0.3614861
v -0.2329702 -1.788139E-09 -0.3614861
v -0.2329702 -1.788139E-09 -0.1050034
v -0.006701647 -1.788139E-09 -0.3614861
v 0.004898236 -1.788139E-09 -0.3614861
v 0.004898236 -1.788139E-09 0.3544325
v 0.004898236 0.002682029 -0.1364736
v -0.006701647 0.002682029 -0.1363887
v -0.006701647 -1.788139E-09 0.3544325
v 0.2311973 0.03057176 0.1570537
v 0.2312583 0.1242041 0.1554003
v -0.2321206 0.3109368 0.3544325
v -0.2329702 -1.788139E-09 0.3544325
v 0.004898236 -1.788139E-09 0.3544325
v 0.2311776 -1.788139E-09 0.3544325
v -0.2224965 0.3213813 0.3477166
v -0.2321206 0.3109368 0.3544325
v 0.2182969 0.3213811 -0.3566828
v 0.2311776 0.3109366 -0.3614861
v -0.03920093 0.321914 0.3505419
v -0.2224965 0.3213813 0.3477166
v 0.2183909 0.3213811 0.3494177
v 0.03446541 0.3236462 0.3516856
v 0.03446541 0.3236462 0.3516856
v -0.004850022 0.3141998 0.3542256
v -0.04740689 0.321914 -0.3566828
v -0.005091823 0.3141998 -0.3567416
v -0.2329702 -1.788139E-09 0.3544325
v -0.006701647 -1.788139E-09 0.3544325
v 0.004898236 -1.788139E-09 -0.3614861
v -0.006701647 -1.788139E-09 -0.3614861
vt 0.04792476 0.3534535
vt 0.04796597 0.3535002
vt 0.04885469 0.3108309
vt 0.04798402 0.3531671
vt 0.0473773 0.3531424
vt 0.0473659 0.3531711
vt 0.04737876 0.3534553
vt 0.04736873 0.3535053
vt 0.04878425 0.3266474
vt 0.04879754 0.3261696
vt 0.04806997 0.3261744
vt 0.04806134 0.3266327
vt 0.1335574 0.3540961
vt 0.1336289 0.3540975
vt 0.1335582 0.3540507
vt 0.1336302 0.3540502
vt 0.04740509 0.3534318
vt 0.1010738 0.3704653
vt 0.04749305 0.353372
vt 0.07951705 0.3669542
vt 0.1010735 0.3705483
vt 0.04749377 0.3533887
vt 0.04885767 0.3108059
vt 0.04774082 0.3532578
vt 0.04762356 0.3533573
vt 0.04749897 0.3105508
vt 0.04842797 0.3108572
vt 0.04842478 0.3108838
vt 0.04795656 0.3533115
vt 0.04795925 0.353157
vt 0.04824245 0.3108793
vt 0.04794827 0.353284
vt 0.04783353 0.3105295
vt 0.04795375 0.3105219
vt 0.04795399 0.3105386
vt 0.0473716 0.353329
vt 0.04737103 0.3531581
vt 0.04737308 0.3533142
vt 0.06925041 0.3772514
vt 0.06904695 0.3778324
vt 0.06904766 0.377812
vt 0.06925123 0.3772175
vt 0.04794664 0.3534783
vt 0.04794408 0.3534754
vt 0.04737343 0.3534819
vt 0.04737406 0.3534788
vt 0.04772661 0.3531491
vt 0.04774527 0.3531697
vt 0.04757432 0.3534569
vt 0.04757395 0.3535003
vt 0.04783386 0.3533021
vt 0.04760639 0.353325
vt 0.04771167 0.3533144
vt 0.04774847 0.3533105
vt 0.06953964 0.3771563
vt 0.04757734 0.3534806
vt 0.0475769 0.3534776
vt 0.0473659 0.3531711
vt 0.04736873 0.3535053
vt 0.04878425 0.3266474
vt 0.04806134 0.3266327
vt 0.04806997 0.3261744
vt 0.04879754 0.3261696
vt 0.1014606 0.3704917
vt 0.1014637 0.3705655
vt 0.04740534 0.353366
vt 0.04740527 0.3533848
vt 0.07911807 0.3669606
vt 0.07911885 0.3667536
vt 0.0795091 0.3667708
vt 0.04749558 0.3534303
vt 0.0479325 0.3533451
vt 0.04792948 0.3534534
vt 0.04736873 0.3535053
vt 0.04757395 0.3535003
vt 0.04774079 0.3532615
vt 0.04783166 0.3533062
vt 0.04762407 0.3533638
vt 0.04760624 0.3533295
vt 0.04822436 0.3105047
vt 0.04822421 0.3105208
vt 0.04750087 0.3105684
vt 0.0478343 0.3105465
vt 0.04774082 0.3532578
vt 0.04767945 0.3532617
vt 0.04783386 0.3533021
vt 0.04792742 0.3531442
vt 0.04795019 0.3531534
vt 0.04798402 0.3531671
vt 0.04796597 0.3535002
vt 0.04770729 0.3109433
vt 0.04770955 0.310972
vt 0.04824286 0.3109062
vt 0.04765218 0.3532635
vt 0.04757631 0.3532683
vt 0.04760639 0.353325
vt 0.06920969 0.3772308
vt 0.06920957 0.3772763
vt 0.06946068 0.37609
vt 0.06929442 0.376054
vt 0.06931634 0.3771139
vt 0.06901545 0.3778208
vt 0.06901451 0.3778505
vt 0.06980913 0.3777122
vt 0.06976117 0.3771209
vt 0.06953964 0.3771563
vt 0.06958579 0.3777795
vt 0.06904695 0.3778324
vt 0.06904766 0.377812
vt 0.06908531 0.3778323
vt 0.06908562 0.3778618
vt 0.04737293 0.3531534
vt 0.0473773 0.3531424
vt 0.04737876 0.3534553
vt 0.06925041 0.3772514
vt 0.06932151 0.3773076
vt 0.06932102 0.3772629
vt 0.06925123 0.3772175
vt 0.06908531 0.3778323
vt 0.06904766 0.377812
vt 0.06908957 0.3775016
vt 0.06902707 0.3774177
vt 0.06901545 0.3778208
vt 0.06920969 0.3772308
vt 0.06925123 0.3772175
vt 0.06921018 0.3765588
vt 0.06931404 0.3766443
vt 0.06932102 0.3772629
vt 0.04737876 0.3534553
vt 0.04757432 0.3534569
vt 0.04737406 0.3534788
vt 0.04737343 0.3534819
vt 0.04943034 0.3270862
vt 0.04780192 0.3270963
vt 0.04779997 0.327083
vt 0.04941905 0.3270734
vt 0.04776554 0.3534501
vt 0.04776749 0.3533461
vt 0.04792742 0.3531442
vt 0.04792476 0.3534535
vt 0.04794664 0.3534783
vt 0.04796597 0.3535002
vt 0.04788445 0.3533262
vt 0.04788377 0.3533318
vt 0.04757631 0.3532683
vt 0.04757674 0.3532723
vt 0.047787 0.3533378
vt 0.04788445 0.3533262
vt 0.04762356 0.3533573
vt 0.04774492 0.3533428
vt 0.06932859 0.3777064
vt 0.06958579 0.3777795
vt 0.06967529 0.3760617
vt 0.06946068 0.37609
vt 0.04792476 0.3534535
vt 0.04794408 0.3534754
vt 0.04690283 0.3271019
vt 0.04690557 0.3270882
vn -0.002601174 -0.004291676 0.9999875
vn 0.9999993 -0.001189353 -0.0002462576
vn -0.01660934 0.5804474 0.8141283
vn 0.9999818 -0.00537378 0.002748343
vn -0.999995 0.00315631 -3.077161E-05
vn 0.9999945 -0.002093635 -0.002573677
vn -0.9999975 0.002191131 -0.0005738972
vn 0.9999945 -0.002093635 -0.002573677
vn 0.9999993 -0.001214937 -0.0002809243
vn 0.9999877 -0.004534169 0.002033133
vn 0.9999809 -0.005631866 0.002562492
vn 0.9999897 -0.004228709 0.001613927
vn 0.9999995 -0.000896903 -0.0003694123
vn 0.9999994 -0.001050238 -0.0003892012
vn 0.9999994 -0.0009609474 -0.0004625881
vn 0.9999993 -0.001092295 -0.000478637
vn -0.999998 0.002016196 -1.295851E-05
vn -0.9999954 0.003050379 -0.0003042043
vn -0.9999954 0.003059971 5.735348E-05
vn -0.9999973 0.002339336 0.0002633516
vn -0.9999967 0.002430036 -0.0009495569
vn -0.999997 0.002433726 0.0003586476
vn -0.01660935 0.5804474 0.8141283
vn -0.7384363 0.6742271 0.01138893
vn 0.6616037 0.7496685 -0.01666298
vn 0.004842109 0.4202929 -0.9073756
vn -0.008405321 0.5810493 0.813825
vn -0.008292561 0.5810574 0.8138204
vn -0.01335965 -0.01843827 0.9997408
vn -0.01692926 -0.02354149 0.9995795
vn 0.009703621 0.6321847 0.7747568
vn -0.003634849 -0.006184919 0.9999743
vn 0.004842108 0.4202929 -0.9073756
vn -0.003513542 0.4499044 -0.8930699
vn -0.003513543 0.4499043 -0.8930699
vn -0.02113271 -0.005512982 -0.9997615
vn -0.02643054 -0.02003867 -0.9994498
vn 0.02248714 -0.00449691 -0.999737
vn -0.1093172 0.4845526 -0.8679046
vn -0.07563818 0.5425947 0.8365823
vn -0.07563818 0.5425947 0.8365823
vn -0.1093172 0.4845526 -0.8679047
vn -0.001364587 -0.0008061372 0.9999988
vn -0.001361506 0.0006205405 0.9999989
vn -0.005981563 -0.9999647 0.005901688
vn 0.006026028 -0.9999647 0.005859285
vn -0.9999961 0.00280443 0
vn 0.9999933 -0.003661332 -0.0002611608
vn -0.9999963 0.00271036 7.213604E-05
vn 0.9999949 -0.002587435 -0.001901595
vn -0.7366245 0.6762937 -0.003360006
vn 0.6475712 0.7620006 -0.002586393
vn 0.006733867 0.9999768 0.0010673
vn 0.001130146 0.9999939 -0.003300543
vn -0.2535006 0.9673319 0.00253388
vn -0.005648051 -0.999984 0.0002873189
vn 0.0056512 -0.999984 0.0003195754
vn -0.0283061 -0.01834872 -0.9994308
vn -0.02324197 -0.004130193 -0.9997213
vn 0.9999994 -0.001050238 -0.0003892012
vn 0.9999995 -0.000896903 -0.0003694123
vn 0.9999994 -0.0009609474 -0.0004625881
vn 0.9999993 -0.001092295 -0.000478637
vn -0.9999954 0.003059971 5.735348E-05
vn -0.999997 0.002433726 0.0003586476
vn -0.9999954 0.003050379 -0.0003042043
vn -0.9999967 0.002430036 -0.0009495569
vn -0.999998 0.002016196 -1.295851E-05
vn -0.9999967 0.002430036 -0.0009495569
vn -0.999997 0.002433726 0.0003586476
vn -0.9999973 0.002339336 0.0002633516
vn 0.9999877 -0.004534169 0.002033133
vn 0.9999993 -0.001214937 -0.0002809243
vn -0.006272442 -0.9999646 0.005611294
vn -0.005908652 -0.9999825 -0.0002854356
vn -0.7384363 0.6742271 0.01138892
vn -0.737464 0.6753784 0.003306842
vn 0.6616037 0.7496685 -0.01666298
vn 0.6408673 0.7676411 0.004016682
vn -0.003513543 0.4499043 -0.8930699
vn -0.003513542 0.4499043 -0.8930699
vn 0.004842109 0.4202929 -0.9073756
vn 0.004842108 0.4202929 -0.9073756
vn -0.001474927 0.9998443 0.01757973
vn -0.001474927 0.9998443 0.01757973
vn 0.0003907894 0.9999965 0.002625836
vn -0.003793305 -0.006719925 0.9999702
vn -0.004521154 -0.007510575 0.9999616
vn -0.01717129 -0.023462 0.9995772
vn -0.01311932 -0.01818712 0.9997485
vn 0.009703623 0.6321847 0.7747568
vn 0.009703624 0.6321847 0.7747568
vn 0.009703623 0.6321847 0.7747568
vn 0.006241572 0.9998648 0.01520885
vn 0.006241572 0.9998648 0.01520885
vn 0.006798064 0.9999766 -0.0007796996
vn -0.1093173 0.4845526 -0.8679047
vn -0.1093172 0.4845526 -0.8679046
vn -0.2618286 0.9648762 0.02143983
vn -0.2618285 0.9648762 0.02143983
vn -0.2513641 0.9678899 -0.002276524
vn -0.07563818 0.5425947 0.8365823
vn -0.07563819 0.5425947 0.8365823
vn 0.2158853 0.9762542 -0.01791853
vn 0.1951713 0.9807642 0.003151133
vn 0.2020646 0.9793647 -0.003840512
vn 0.2158853 0.9762542 -0.01791853
vn 0.05331509 0.5843135 0.8097748
vn 0.05331509 0.5843135 0.8097748
vn -0.008292561 0.5810574 0.8138204
vn -0.008405321 0.5810493 0.813825
vn 0.02829515 -0.02051307 -0.9993892
vn 0.03091357 -0.01816126 -0.999357
vn 0.02444939 -0.001610922 -0.9996998
vn 0.08038499 0.5170625 -0.8521646
vn 0.080385 0.5170624 -0.8521647
vn 0.08038499 0.5170625 -0.8521646
vn 0.08038499 0.5170624 -0.8521647
vn -0.004521154 -0.007510575 0.9999616
vn -0.01344647 -0.02370776 0.9996285
vn -0.003634849 -0.006184919 0.9999743
vn -0.01335965 -0.01843827 0.9997408
vn -0.01692926 -0.02354149 0.9995795
vn -0.02643054 -0.02003867 -0.9994498
vn 9.483768E-05 -0.05229318 -0.9986318
vn -0.02113271 -0.005512982 -0.9997615
vn 0.02248714 -0.00449691 -0.999737
vn 0.02829515 -0.02051307 -0.9993892
vn 0.006312679 -0.9999646 0.005569034
vn 0.005904391 -0.9999826 -0.0003195109
vn 7.846834E-05 0.0608414 -0.9981475
vn 7.219085E-05 0.06093027 -0.998142
vn -0.005465445 -0.9999808 -0.002944555
vn -0.005648051 -0.999984 0.0002873189
vn 0.0056512 -0.999984 0.0003195754
vn 0.005441534 -0.9999808 -0.002955235
vn 0.9999897 -0.004228709 0.001613927
vn 0.9999809 -0.005631866 0.002562492
vn -0.9999962 0.002764547 -2.183349E-05
vn -0.9999962 0.002764546 -2.183349E-05
vn -0.005465445 -0.9999808 -0.002944555
vn -0.005752737 -0.9999795 -0.002811637
vn -0.7353796 0.6775348 -0.01278642
vn -0.7353796 0.6775348 -0.01278642
vn 0.6331036 0.7739806 0.01156973
vn 0.6331035 0.7739806 0.01156973
vn 0.003543898 0.9997372 -0.02264961
vn 0.003543899 0.9997372 -0.02264961
vn 0.007679798 0.9996269 -0.02621535
vn 0.007679797 0.9996269 -0.02621535
vn -0.2384323 0.9706623 -0.03106142
vn -0.2384323 0.9706623 -0.03106142
vn 0.1877863 0.9821525 0.01061964
vn 0.1877863 0.9821525 0.01061964
vn 0.005730791 -0.9999796 -0.002822369
vn 0.005441534 -0.9999808 -0.002955235
vn -0.005981563 -0.9999647 0.005901688
vn 0.006026028 -0.9999647 0.005859285
g SM_Prop_Cardboard_Box_04_0
f 50/50/50 8/8/8 6/6/6
f 48/48/48 50/50/50 6/6/6
f 48/48/48 138/138/138 50/50/50
f 138/138/138 48/48/48 4/4/4
f 138/138/138 137/137/137 50/50/50
f 72/72/72 138/138/138 4/4/4
f 137/137/137 73/73/73 50/50/50
f 73/73/73 72/72/72 4/4/4
f 73/73/73 2/2/2 50/50/50
f 2/2/2 73/73/73 4/4/4
f 36/36/36 37/37/37 58/58/58
f 59/59/59 36/36/36 58/58/58
f 36/36/36 59/59/59 132/132/132
f 36/36/36 132/132/132 131/131/131
f 38/38/38 36/36/36 131/131/131
f 114/114/114 38/38/38 131/131/131
f 38/38/38 114/114/114 112/112/112
f 114/114/114 113/113/113 112/112/112
f 15/15/15 16/16/16 14/14/14
f 13/13/13 15/15/15 14/14/14
f 64/64/64 18/18/18 21/21/21
f 65/65/65 64/64/64 21/21/21
f 70/70/70 69/69/69 68/68/68
f 20/20/20 70/70/70 68/68/68
f 56/56/56 45/45/45 74/74/74
f 75/75/75 56/56/56 74/74/74
f 75/75/75 142/142/142 56/56/56
f 142/142/142 141/141/141 56/56/56
f 51/51/51 24/24/24 76/76/76
f 77/77/77 51/51/51 76/76/76
f 77/77/77 144/144/144 51/51/51
f 144/144/144 143/143/143 51/51/51
f 52/52/52 25/25/25 78/78/78
f 79/79/79 52/52/52 78/78/78
f 79/79/79 146/146/146 52/52/52
f 146/146/146 145/145/145 52/52/52
f 81/81/81 80/80/80 34/34/34
f 35/35/35 81/81/81 34/34/34
f 33/33/33 26/26/26 82/82/82
f 83/83/83 33/33/33 82/82/82
f 54/54/54 85/85/85 84/84/84
f 86/86/86 54/54/54 84/84/84
f 86/86/86 148/148/148 54/54/54
f 148/148/148 147/147/147 54/54/54
f 27/27/27 23/23/23 3/3/3
f 28/28/28 27/27/27 3/3/3
f 88/88/88 87/87/87 1/1/1
f 32/32/32 88/88/88 1/1/1
f 44/44/44 32/32/32 1/1/1
f 32/32/32 44/44/44 43/43/43
f 29/29/29 32/32/32 43/43/43
f 43/43/43 90/90/90 29/29/29
f 29/29/29 90/90/90 30/30/30
f 90/90/90 89/89/89 30/30/30
f 92/92/92 91/91/91 31/31/31
f 93/93/93 92/92/92 31/31/31
f 96/96/96 95/95/95 94/94/94
f 53/53/53 96/96/96 94/94/94
f 53/53/53 150/150/150 96/96/96
f 150/150/150 149/149/149 96/96/96
f 39/39/39 98/98/98 97/97/97
f 42/42/42 39/39/39 97/97/97
f 101/101/101 100/100/100 99/99/99
f 55/55/55 101/101/101 99/99/99
f 55/55/55 152/152/152 101/101/101
f 152/152/152 151/151/151 101/101/101
f 40/40/40 41/41/41 102/102/102
f 103/103/103 40/40/40 102/102/102
f 107/107/107 106/106/106 104/104/104
f 106/106/106 105/105/105 104/104/104
f 106/106/106 154/154/154 105/105/105
f 154/154/154 153/153/153 105/105/105
f 110/110/110 109/109/109 108/108/108
f 111/111/111 110/110/110 108/108/108
f 117/117/117 116/116/116 115/115/115
f 118/118/118 117/117/117 115/115/115
f 121/121/121 120/120/120 119/119/119
f 121/121/121 122/122/122 120/120/120
f 120/120/120 122/122/122 123/123/123
f 126/126/126 125/125/125 124/124/124
f 126/126/126 127/127/127 125/125/125
f 125/125/125 127/127/127 128/128/128
f 130/130/130 129/129/129 46/46/46
f 57/57/57 130/130/130 46/46/46
f 57/57/57 156/156/156 130/130/130
f 156/156/156 155/155/155 130/130/130
f 136/136/136 135/135/135 133/133/133
f 135/135/135 134/134/134 133/133/133
f 135/135/135 158/158/158 134/134/134
f 158/158/158 157/157/157 134/134/134
f 140/140/140 139/139/139 47/47/47
f 49/49/49 140/140/140 47/47/47
f 49/49/49 47/47/47 71/71/71
f 47/47/47 22/22/22 71/71/71
f 71/71/71 17/17/17 49/49/49
f 47/47/47 19/19/19 22/22/22
f 17/17/17 7/7/7 49/49/49
f 7/7/7 17/17/17 67/67/67
f 19/19/19 47/47/47 5/5/5
f 7/7/7 67/67/67 5/5/5
f 66/66/66 19/19/19 5/5/5
f 67/67/67 66/66/66 5/5/5
f 61/61/61 60/60/60 9/9/9
f 12/12/12 61/61/61 9/9/9
f 9/9/9 60/60/60 10/10/10
f 62/62/62 61/61/61 12/12/12
f 60/60/60 63/63/63 10/10/10
f 11/11/11 62/62/62 12/12/12
f 10/10/10 63/63/63 11/11/11
f 63/63/63 62/62/62 11/11/11
