g SM_Prop_Blender_01_Lid
v 0.07647576 0.4944678 -0.07647576
v -3.781511E-09 0.4944678 -0.1081531
v -0.07647577 0.4944678 -0.07647576
v -0.1081531 0.4944678 0
v -0.07647577 0.4944678 0.07647576
v -3.781511E-09 0.4944678 0.1081531
v 0.07647577 0.4944678 0.07647577
v 0.1081531 0.4944678 0
v 0.07647576 0.518536 -0.07647576
v -3.781511E-09 0.518536 -0.1081531
v -0.07647577 0.518536 -0.07647576
v -0.1081531 0.518536 0
v -0.07647577 0.518536 0.07647576
v -3.781511E-09 0.518536 0.1081531
v 0.07647577 0.518536 0.07647577
v 0.1081531 0.518536 0
v -4.416364E-10 0.4944678 2.05292E-10
v 0.04356498 0.5211478 -0.04356498
v -3.781511E-09 0.5211478 -0.0616102
v -0.04356499 0.5211478 -0.04356498
v -0.0616102 0.5211478 0
v -0.04356499 0.5211478 0.04356498
v -2.280141E-09 0.5211478 0.0616102
v 0.04356499 0.5211478 0.04356499
v 0.0616102 0.5211478 1.501371E-09
v 0.03591131 0.5391479 -0.03591131
v -3.781511E-09 0.5391479 -0.05078629
v 4.846346E-10 0.5391479 4.119412E-08
v -0.03591132 0.5391479 -0.0359113
v -0.05078628 0.5391479 0
v -0.03591132 0.5391479 0.0359113
v -1.058095E-09 0.5391479 0.05078629
v 0.03591132 0.5391479 0.03591131
v 0.05078628 0.5391479 4.382994E-08
v -3.781511E-09 0.4944678 -0.1081531
v -3.781511E-09 0.518536 -0.1081531
v -0.07647577 0.4944678 -0.07647576
v -0.07647577 0.518536 -0.07647576
v -0.1081531 0.4944678 0
v -0.1081531 0.518536 0
v -0.07647577 0.4944678 0.07647576
v -0.07647577 0.518536 0.07647576
v -3.781511E-09 0.4944678 0.1081531
v -3.781511E-09 0.518536 0.1081531
v 0.07647577 0.4944678 0.07647577
v 0.07647577 0.518536 0.07647577
v 0.1081531 0.4944678 0
v 0.1081531 0.518536 0
v 0.07647576 0.518536 -0.07647576
v 0.07647576 0.4944678 -0.07647576
v 0.07647577 0.4944678 0.07647577
v -3.781511E-09 0.4944678 0.1081531
v -0.07647577 0.4944678 0.07647576
v -0.1081531 0.4944678 0
v -0.07647577 0.4944678 -0.07647576
v -3.781511E-09 0.4944678 -0.1081531
v 0.07647576 0.4944678 -0.07647576
v 0.1081531 0.4944678 0
v 0.07647576 0.518536 -0.07647576
v -3.781511E-09 0.518536 -0.1081531
v -0.07647577 0.518536 -0.07647576
v -0.1081531 0.518536 0
v -0.07647577 0.518536 0.07647576
v -3.781511E-09 0.518536 0.1081531
v 0.07647577 0.518536 0.07647577
v 0.1081531 0.518536 0
v 0.04356498 0.5211478 -0.04356498
v 0.03591131 0.5391479 -0.03591131
v -3.781511E-09 0.5391479 -0.05078629
v -3.781511E-09 0.5211478 -0.0616102
v -3.781511E-09 0.5211478 -0.0616102
v -3.781511E-09 0.5391479 -0.05078629
v -0.03591132 0.5391479 -0.0359113
v -0.04356499 0.5211478 -0.04356498
v -0.04356499 0.5211478 -0.04356498
v -0.03591132 0.5391479 -0.0359113
v -0.05078628 0.5391479 0
v -0.0616102 0.5211478 0
v -0.0616102 0.5211478 0
v -0.05078628 0.5391479 0
v -0.03591132 0.5391479 0.0359113
v -0.04356499 0.5211478 0.04356498
v -0.04356499 0.5211478 0.04356498
v -0.03591132 0.5391479 0.0359113
v -1.058095E-09 0.5391479 0.05078629
v -2.280141E-09 0.5211478 0.0616102
v -2.280141E-09 0.5211478 0.0616102
v -1.058095E-09 0.5391479 0.05078629
v 0.03591132 0.5391479 0.03591131
v 0.04356499 0.5211478 0.04356499
v 0.04356499 0.5211478 0.04356499
v 0.03591132 0.5391479 0.03591131
v 0.05078628 0.5391479 4.382994E-08
v 0.0616102 0.5211478 1.501371E-09
v 0.0616102 0.5211478 1.501371E-09
v 0.05078628 0.5391479 4.382994E-08
v 0.03591131 0.5391479 -0.03591131
v 0.04356498 0.5211478 -0.04356498
vt 0.079265 0.2301619
vt 0.0795868 0.2301331
vt 0.07990365 0.2301662
vt 0.08007108 0.2302526
vt 0.0799516 0.2303547
vt 0.07955903 0.2304008
vt 0.07917893 0.2303485
vt 0.07908213 0.2302453
vt 0.07926184 0.23003
vt 0.07958689 0.2300052
vt 0.07990701 0.2300337
vt 0.08007665 0.2301081
vt 0.07995628 0.2301963
vt 0.07955885 0.2302361
vt 0.07917404 0.2301909
vt 0.07907659 0.2301019
vt 0.07957478 0.2302579
vt 0.07926184 0.23003
vt 0.07958689 0.2300052
vt 0.07990701 0.2300337
vt 0.08007665 0.2301081
vt 0.07995628 0.2301963
vt 0.07955885 0.2302361
vt 0.07917404 0.2301909
vt 0.07907659 0.2301019
vt 0.07926184 0.23003
vt 0.07958689 0.2300052
vt 0.07957477 0.2301128
vt 0.07990701 0.2300337
vt 0.08007665 0.2301081
vt 0.07995628 0.2301963
vt 0.07955885 0.2302361
vt 0.07917404 0.2301909
vt 0.07907659 0.2301019
vt 0.0795868 0.2301331
vt 0.07958689 0.2300052
vt 0.07990365 0.2301662
vt 0.07990701 0.2300337
vt 0.08007108 0.2302526
vt 0.08007665 0.2301081
vt 0.0799516 0.2303547
vt 0.07995628 0.2301963
vt 0.07955903 0.2304008
vt 0.07955885 0.2302361
vt 0.07917893 0.2303485
vt 0.07917404 0.2301909
vt 0.07908213 0.2302453
vt 0.07907659 0.2301019
vt 0.07926184 0.23003
vt 0.079265 0.2301619
vt 0.07917893 0.2303485
vt 0.07955903 0.2304008
vt 0.0799516 0.2303547
vt 0.08007108 0.2302526
vt 0.07990365 0.2301662
vt 0.0795868 0.2301331
vt 0.079265 0.2301619
vt 0.07908213 0.2302453
vt 0.07926184 0.23003
vt 0.07958689 0.2300052
vt 0.07990701 0.2300337
vt 0.08007665 0.2301081
vt 0.07995628 0.2301963
vt 0.07955885 0.2302361
vt 0.07917404 0.2301909
vt 0.07907659 0.2301019
vt 0.07926184 0.23003
vt 0.07926184 0.23003
vt 0.07958689 0.2300052
vt 0.07958689 0.2300052
vt 0.07958689 0.2300052
vt 0.07958689 0.2300052
vt 0.07990701 0.2300337
vt 0.07990701 0.2300337
vt 0.07990701 0.2300337
vt 0.07990701 0.2300337
vt 0.08007665 0.2301081
vt 0.08007665 0.2301081
vt 0.08007665 0.2301081
vt 0.08007665 0.2301081
vt 0.07995628 0.2301963
vt 0.07995628 0.2301963
vt 0.07995628 0.2301963
vt 0.07995628 0.2301963
vt 0.07955885 0.2302361
vt 0.07955885 0.2302361
vt 0.07955885 0.2302361
vt 0.07955885 0.2302361
vt 0.07917404 0.2301909
vt 0.07917404 0.2301909
vt 0.07917404 0.2301909
vt 0.07917404 0.2301909
vt 0.07907659 0.2301019
vt 0.07907659 0.2301019
vt 0.07907659 0.2301019
vt 0.07907659 0.2301019
vt 0.07926184 0.23003
vt 0.07926184 0.23003
vn 0.3826835 0 -0.9238795
vn 0.3826835 0 -0.9238795
vn -0.3826835 0 -0.9238795
vn -0.9238795 0 -0.3826834
vn -0.9238795 0 0.3826834
vn -0.3826835 0 0.9238795
vn 0.3826833 0 0.9238795
vn 0.9238795 0 0.3826833
vn 0.3826835 0 -0.9238795
vn 0.3826835 0 -0.9238795
vn -0.3826835 0 -0.9238795
vn -0.9238795 0 -0.3826834
vn -0.9238795 0 0.3826834
vn -0.3826835 0 0.9238795
vn 0.3826833 0 0.9238795
vn 0.9238795 0 0.3826833
vn 0 -1 0
vn 0.03961897 0.998429 -0.03961897
vn 0 0.9984291 -0.05602968
vn -0.03961897 0.998429 -0.03961896
vn -0.05602967 0.998429 0
vn -0.03961897 0.9984291 0.03961897
vn 0 0.998429 0.05602968
vn 0.03961897 0.9984291 0.03961897
vn 0.05602967 0.998429 0
vn 0 1 0
vn 0 1 0
vn 0 1 0
vn 0 1 0
vn 0 1 0
vn 0 1 0
vn 0 1 0
vn 0 1 0
vn 0 1 0
vn -0.3826835 0 -0.9238795
vn -0.3826835 0 -0.9238795
vn -0.9238795 0 -0.3826834
vn -0.9238795 0 -0.3826834
vn -0.9238795 0 0.3826834
vn -0.9238795 0 0.3826834
vn -0.3826835 0 0.9238795
vn -0.3826835 0 0.9238795
vn 0.3826833 0 0.9238795
vn 0.3826833 0 0.9238795
vn 0.9238795 0 0.3826833
vn 0.9238795 0 0.3826833
vn 0.9238795 0 -0.3826835
vn 0.9238795 0 -0.3826835
vn 0.9238795 0 -0.3826835
vn 0.9238795 0 -0.3826835
vn 0 -1 0
vn 0 -1 0
vn 0 -1 0
vn 0 -1 0
vn 0 -1 0
vn 0 -1 0
vn 0 -1 0
vn 0 -1 0
vn 0.03961896 0.998429 -0.03961897
vn 0 0.9984291 -0.05602968
vn -0.03961897 0.9984291 -0.03961897
vn -0.05602968 0.9984291 0
vn -0.03961896 0.998429 0.03961897
vn 0 0.9984291 0.05602968
vn 0.03961897 0.9984291 0.03961897
vn 0.05602967 0.998429 0
vn 0.3345258 0.485643 -0.8076158
vn 0.3345258 0.4856431 -0.8076158
vn 0.3345258 0.4856431 -0.8076158
vn 0.3345258 0.4856431 -0.8076158
vn -0.3345259 0.4856432 -0.8076157
vn -0.3345259 0.4856432 -0.8076157
vn -0.3345259 0.4856432 -0.8076157
vn -0.3345258 0.4856432 -0.8076157
vn -0.8076158 0.4856433 -0.3345255
vn -0.8076158 0.4856433 -0.3345255
vn -0.8076158 0.4856434 -0.3345256
vn -0.8076158 0.4856434 -0.3345256
vn -0.8076158 0.4856433 0.3345255
vn -0.8076158 0.4856433 0.3345255
vn -0.8076158 0.4856433 0.3345255
vn -0.8076158 0.4856433 0.3345255
vn -0.3345259 0.4856432 0.8076157
vn -0.3345259 0.4856431 0.8076157
vn -0.3345259 0.4856432 0.8076157
vn -0.3345259 0.4856431 0.8076157
vn 0.3345258 0.4856431 0.8076158
vn 0.3345257 0.4856431 0.8076158
vn 0.3345258 0.4856431 0.8076158
vn 0.3345258 0.4856431 0.8076158
vn 0.8076158 0.4856431 0.3345257
vn 0.8076158 0.4856431 0.3345257
vn 0.8076158 0.4856431 0.3345256
vn 0.8076158 0.485643 0.3345256
vn 0.8076157 0.4856436 -0.3345255
vn 0.8076157 0.4856436 -0.3345255
vn 0.8076157 0.4856436 -0.3345255
vn 0.8076157 0.4856436 -0.3345255
g SM_Prop_Blender_01_Lid_0
f 10/10/10 9/9/9 1/1/1
f 2/2/2 10/10/10 1/1/1
f 11/11/11 36/36/36 35/35/35
f 3/3/3 11/11/11 35/35/35
f 12/12/12 38/38/38 37/37/37
f 4/4/4 12/12/12 37/37/37
f 13/13/13 40/40/40 39/39/39
f 5/5/5 13/13/13 39/39/39
f 14/14/14 42/42/42 41/41/41
f 6/6/6 14/14/14 41/41/41
f 15/15/15 44/44/44 43/43/43
f 7/7/7 15/15/15 43/43/43
f 16/16/16 46/46/46 45/45/45
f 8/8/8 16/16/16 45/45/45
f 49/49/49 48/48/48 47/47/47
f 50/50/50 49/49/49 47/47/47
f 69/69/69 68/68/68 67/67/67
f 70/70/70 69/69/69 67/67/67
f 73/73/73 72/72/72 71/71/71
f 74/74/74 73/73/73 71/71/71
f 77/77/77 76/76/76 75/75/75
f 78/78/78 77/77/77 75/75/75
f 81/81/81 80/80/80 79/79/79
f 82/82/82 81/81/81 79/79/79
f 85/85/85 84/84/84 83/83/83
f 86/86/86 85/85/85 83/83/83
f 89/89/89 88/88/88 87/87/87
f 90/90/90 89/89/89 87/87/87
f 93/93/93 92/92/92 91/91/91
f 94/94/94 93/93/93 91/91/91
f 97/97/97 96/96/96 95/95/95
f 98/98/98 97/97/97 95/95/95
f 27/27/27 28/28/28 26/26/26
f 26/26/26 28/28/28 34/34/34
f 29/29/29 28/28/28 27/27/27
f 34/34/34 28/28/28 33/33/33
f 30/30/30 28/28/28 29/29/29
f 33/33/33 28/28/28 32/32/32
f 31/31/31 28/28/28 30/30/30
f 32/32/32 28/28/28 31/31/31
f 52/52/52 17/17/17 51/51/51
f 51/51/51 17/17/17 58/58/58
f 53/53/53 17/17/17 52/52/52
f 58/58/58 17/17/17 57/57/57
f 54/54/54 17/17/17 53/53/53
f 57/57/57 17/17/17 56/56/56
f 55/55/55 17/17/17 54/54/54
f 56/56/56 17/17/17 55/55/55
f 19/19/19 18/18/18 59/59/59
f 60/60/60 19/19/19 59/59/59
f 59/59/59 18/18/18 66/66/66
f 20/20/20 19/19/19 60/60/60
f 18/18/18 25/25/25 66/66/66
f 61/61/61 20/20/20 60/60/60
f 66/66/66 25/25/25 65/65/65
f 21/21/21 20/20/20 61/61/61
f 25/25/25 24/24/24 65/65/65
f 62/62/62 21/21/21 61/61/61
f 65/65/65 24/24/24 64/64/64
f 22/22/22 21/21/21 62/62/62
f 24/24/24 23/23/23 64/64/64
f 63/63/63 22/22/22 62/62/62
f 64/64/64 23/23/23 63/63/63
f 23/23/23 22/22/22 63/63/63
