g SM_Prop_PowerPlug_01
v -0.06035278 -7.629394E-08 0
v -0.06035278 0.1781419 0
v -0.05459595 0.1696452 0.02749756
v -0.05459595 0.008496627 0.02749756
v -0.06035278 0.1781419 0
v 0.06035522 0.1781419 0
v 0.05459839 0.1696452 0.02749756
v -0.05459595 0.1696452 0.02749756
v 0.06035522 0.1781419 0
v 0.06035522 -7.629394E-08 0
v 0.05459839 0.008496627 0.02749756
v 0.05459839 0.1696452 0.02749756
v 0.06035522 -7.629394E-08 0
v -0.06035278 -7.629394E-08 0
v -0.05459595 0.008496627 0.02749756
v 0.05459839 0.008496627 0.02749756
v 0.06035522 -7.629394E-08 0
v 0.06035522 0.1781419 0
v -0.06035278 0.1781419 0
v -0.06035278 -7.629394E-08 0
v 0.02864136 0.02340027 0.02749756
v 0.02864136 0.1052061 0.02749756
v 0.02864136 0.1547417 0.02749756
v 0.02864136 0.07293594 0.02749756
v 0.02864136 0.07293594 0.02749756
v -0.02863892 0.1052061 0.02749756
v 0.02864136 0.1052061 0.02749756
v -0.02863892 0.07293594 0.02749756
v -0.05459595 0.1696452 0.02749756
v -0.02863892 0.1547417 0.02749756
v -0.02863892 0.02340027 0.02749756
v 0.05459839 0.1696452 0.02749756
v -0.05459595 0.008496627 0.02749756
v 0.02864136 0.1547417 0.02749756
v 0.02864136 0.02340027 0.02749756
v 0.05459839 0.008496627 0.02749756
v 0.008289794 0.06176552 0.02749756
v 0.01657715 0.06176552 0.02749756
v 0.01657715 0.03386276 0.02749756
v 0.008289794 0.03386276 0.02749756
v 0.01657593 0.1163765 0.02749756
v 0.008288574 0.1163765 0.02749756
v 0.008288574 0.1442793 0.02749756
v 0.01657593 0.1442793 0.02749756
v -0.008287353 0.1163765 0.02749756
v -0.01657471 0.1163765 0.02749756
v -0.01657349 0.1442793 0.02749756
v -0.008286132 0.1442793 0.02749756
v -0.01657349 0.03386276 0.02749756
v -0.01657349 0.06176552 0.02749756
v -0.008286132 0.06176552 0.02749756
v -0.008286132 0.03386276 0.02749756
v -0.008286132 0.06176552 0.02749756
v -0.01657349 0.06176552 0.02749756
v -0.02863892 0.07293594 0.02749756
v -0.01657349 0.03386276 0.02749756
v 0.008289794 0.06176552 0.02749756
v -0.008286132 0.03386276 0.02749756
v 0.008289794 0.03386276 0.02749756
v 0.01657715 0.06176552 0.02749756
v 0.02864136 0.07293594 0.02749756
v 0.02864136 0.02340027 0.02749756
v 0.01657715 0.03386276 0.02749756
v -0.02863892 0.02340027 0.02749756
v -0.008286132 0.1442793 0.02749756
v -0.01657349 0.1442793 0.02749756
v -0.02863892 0.1547417 0.02749756
v -0.01657471 0.1163765 0.02749756
v -0.02863892 0.1052061 0.02749756
v -0.008287353 0.1163765 0.02749756
v 0.008288574 0.1163765 0.02749756
v 0.008288574 0.1442793 0.02749756
v 0.01657593 0.1163765 0.02749756
v 0.02864136 0.1052061 0.02749756
v 0.01657593 0.1442793 0.02749756
v 0.02864136 0.1547417 0.02749756
vt 0.06814227 0.3807441
vt 0.06814227 0.3807441
vt 0.06814227 0.3807441
vt 0.06814227 0.3807441
vt 0.06814227 0.3807441
vt 0.06814227 0.3807441
vt 0.06814227 0.3807441
vt 0.06814227 0.3807441
vt 0.06814227 0.3807441
vt 0.06814227 0.3807441
vt 0.06814227 0.3807441
vt 0.06814227 0.3807441
vt 0.06814227 0.3807441
vt 0.06814227 0.3807441
vt 0.06814227 0.3807441
vt 0.06814227 0.3807441
vt 0.06814227 0.3807441
vt 0.06814227 0.3807441
vt 0.06814227 0.3807441
vt 0.06814227 0.3807441
vt 0.06814227 0.3807441
vt 0.06814227 0.3807441
vt 0.06814227 0.3807441
vt 0.06814227 0.3807441
vt 0.06814227 0.3807441
vt 0.06814227 0.3807441
vt 0.06814227 0.3807441
vt 0.06814227 0.3807441
vt 0.06814227 0.3807441
vt 0.06814227 0.3807441
vt 0.06814227 0.3807441
vt 0.06814227 0.3807441
vt 0.06814227 0.3807441
vt 0.06814227 0.3807441
vt 0.06814227 0.3807441
vt 0.06814227 0.3807441
vt 0.1027832 0.2312241
vt 0.1027832 0.2312241
vt 0.1027832 0.2312241
vt 0.1027832 0.2312241
vt 0.1027832 0.2312241
vt 0.1027832 0.2312241
vt 0.1027832 0.2312317
vt 0.1027832 0.2312317
vt 0.1027832 0.2312241
vt 0.1027832 0.2312241
vt 0.1027832 0.2312317
vt 0.1027832 0.2312317
vt 0.1027832 0.2312241
vt 0.1027832 0.2312241
vt 0.1027832 0.2312241
vt 0.1027832 0.2312241
vt 0.06811523 0.3046265
vt 0.06811523 0.3046265
vt 0.06811523 0.3046265
vt 0.06811523 0.3046265
vt 0.06811523 0.3046265
vt 0.06811523 0.3046265
vt 0.06811523 0.3046265
vt 0.06811523 0.3046265
vt 0.06811523 0.3046265
vt 0.06811523 0.3046265
vt 0.06811523 0.3046265
vt 0.06811523 0.3046265
vt 0.06811523 0.3046265
vt 0.06811523 0.3046265
vt 0.06811523 0.3046265
vt 0.06811523 0.3046265
vt 0.06811523 0.3046265
vt 0.06811523 0.3046265
vt 0.06811523 0.3046265
vt 0.06811523 0.3046265
vt 0.06811523 0.3046265
vt 0.06811523 0.3046265
vt 0.06811523 0.3046265
vt 0.06811523 0.3046265
vn -0.9787797 0 0.2049154
vn -0.9787797 0 0.2049154
vn -0.9787797 0 0.2049154
vn -0.9787797 0 0.2049154
vn 0 0.9554275 0.2952257
vn 0 0.9554275 0.2952257
vn 0 0.9554275 0.2952257
vn 0 0.9554275 0.2952257
vn 0.9787797 0 0.2049154
vn 0.9787797 0 0.2049154
vn 0.9787797 0 0.2049154
vn 0.9787797 0 0.2049154
vn 0 -0.9554275 0.2952257
vn 0 -0.9554275 0.2952257
vn 0 -0.9554275 0.2952257
vn 0 -0.9554275 0.2952257
vn 0 0 -1
vn 0 0 -1
vn 0 0 -1
vn 0 0 -1
vn 0 1 0
vn 0 1 0
vn 0 1 0
vn 0 1 0
vn 0 0 1
vn 0 0 1
vn 0 0 1
vn 0 0 1
vn 0 0 1
vn 0 0 1
vn 0 0 1
vn 0 0 1
vn 0 0 1
vn 0 0 1
vn 0 0 1
vn 0 0 1
vn 0 0 1
vn 0 0 1
vn 0 0 1
vn 0 0 1
vn 0 0 1
vn 0 0 1
vn 0 0 1
vn 0 0 1
vn 0 0 1
vn 0 0 1
vn 0 0 1
vn 0 0 1
vn 0 0 1
vn 0 0 1
vn 0 0 1
vn 0 0 1
vn 0 0 1
vn 0 0 1
vn 0 0 1
vn 0 0 1
vn 0 0 1
vn 0 0 1
vn 0 0 1
vn 0 0 1
vn 0 0 1
vn 0 0 1
vn 0 0 1
vn 0 0 1
vn 0 0 1
vn 0 0 1
vn 0 0 1
vn 0 0 1
vn 0 0 1
vn 0 0 1
vn 0 0 1
vn 0 0 1
vn 0 0 1
vn 0 0 1
vn 0 0 1
vn 0 0 1
g SM_Prop_PowerPlug_01_0
f 3/3/3 2/2/2 1/1/1
f 4/4/4 3/3/3 1/1/1
f 7/7/7 6/6/6 5/5/5
f 8/8/8 7/7/7 5/5/5
f 11/11/11 10/10/10 9/9/9
f 12/12/12 11/11/11 9/9/9
f 15/15/15 14/14/14 13/13/13
f 16/16/16 15/15/15 13/13/13
f 19/19/19 18/18/18 17/17/17
f 20/20/20 19/19/19 17/17/17
f 23/23/23 22/22/22 21/21/21
f 22/22/22 24/24/24 21/21/21
f 27/27/27 26/26/26 25/25/25
f 26/26/26 28/28/28 25/25/25
f 29/29/29 28/28/28 26/26/26
f 26/26/26 30/30/30 29/29/29
f 29/29/29 31/31/31 28/28/28
f 29/29/29 30/30/30 32/32/32
f 29/29/29 33/33/33 31/31/31
f 30/30/30 34/34/34 32/32/32
f 35/35/35 31/31/31 33/33/33
f 36/36/36 32/32/32 34/34/34
f 36/36/36 35/35/35 33/33/33
f 34/34/34 35/35/35 36/36/36
f 39/39/39 38/38/38 37/37/37
f 40/40/40 39/39/39 37/37/37
f 43/43/43 42/42/42 41/41/41
f 44/44/44 43/43/43 41/41/41
f 47/47/47 46/46/46 45/45/45
f 48/48/48 47/47/47 45/45/45
f 51/51/51 50/50/50 49/49/49
f 52/52/52 51/51/51 49/49/49
f 55/55/55 54/54/54 53/53/53
f 56/56/56 54/54/54 55/55/55
f 55/55/55 53/53/53 57/57/57
f 57/57/57 53/53/53 58/58/58
f 59/59/59 57/57/57 58/58/58
f 55/55/55 57/57/57 60/60/60
f 60/60/60 61/61/61 55/55/55
f 61/61/61 60/60/60 62/62/62
f 60/60/60 63/63/63 62/62/62
f 64/64/64 56/56/56 55/55/55
f 58/58/58 56/56/56 64/64/64
f 59/59/59 58/58/58 64/64/64
f 64/64/64 62/62/62 63/63/63
f 63/63/63 59/59/59 64/64/64
f 67/67/67 66/66/66 65/65/65
f 68/68/68 66/66/66 67/67/67
f 69/69/69 68/68/68 67/67/67
f 70/70/70 68/68/68 69/69/69
f 65/65/65 70/70/70 71/71/71
f 71/71/71 70/70/70 69/69/69
f 72/72/72 65/65/65 71/71/71
f 67/67/67 65/65/65 72/72/72
f 73/73/73 71/71/71 69/69/69
f 69/69/69 74/74/74 73/73/73
f 67/67/67 72/72/72 75/75/75
f 75/75/75 73/73/73 74/74/74
f 75/75/75 76/76/76 67/67/67
f 76/76/76 75/75/75 74/74/74
