g SM_Prop_Candles_01
v 0.03105347 0 0.01793091
v 0.03105347 0.1631099 0.01793091
v 0.03105347 0.1631099 -0.01792908
v 0.03105347 0 -0.01792908
v 0.03105347 0 -0.01792908
v 0.03105347 0.1631099 -0.01792908
v -1.220703E-06 0.168956 -0.03585815
v -1.220703E-06 0 -0.03585815
v -1.220703E-06 0 -0.03585815
v -1.220703E-06 0.168956 -0.03585815
v -0.03105896 0.168956 -0.01792908
v -0.03105896 0 -0.01792908
v -0.03105896 0 -0.01792908
v -0.03105896 0.168956 -0.01792908
v -0.03105896 0.1600022 0.01793091
v -0.03105896 0 0.01793091
v -0.03105896 0 0.01793091
v -0.03105896 0.1600022 0.01793091
v -1.220703E-06 0.1600022 0.03586121
v -1.220703E-06 0 0.03586121
v -1.220703E-06 0 0.03586121
v -1.220703E-06 0.1600022 0.03586121
v 0.03105347 0.1631099 0.01793091
v 0.03105347 0 0.01793091
v -0.006137695 0.1831099 0.0002246094
v -0.0001715088 0.1831099 -0.006036377
v -0.00034729 0.1831099 0.005572509
v 0.005618896 0.1831099 -0.0006884765
v -0.01534851 0.1531099 -0.008858032
v -0.007254639 0.1531099 0.0003106689
v -0.01534851 0.1531099 0.008861694
v -1.831055E-06 0.1531099 -0.0177179
v -0.0001556396 0.1531099 -0.007140503
v 0.01534302 0.1531099 -0.008858032
v 0.00673706 0.1531099 -0.0007745361
v 0.01534302 0.1531099 0.008861694
v -1.831055E-06 0.1531099 0.01772217
v -0.0003631592 0.1531099 0.006677856
v -0.01534851 0.1531099 0.008861694
v -0.007254639 0.1531099 0.0003106689
v -0.007254639 0.1531099 0.0003106689
v -0.006137695 0.1831099 0.0002246094
v -0.00034729 0.1831099 0.005572509
v -0.0003631592 0.1531099 0.006677856
v -0.0001556396 0.1531099 -0.007140503
v -0.0001715088 0.1831099 -0.006036377
v -0.006137695 0.1831099 0.0002246094
v -0.007254639 0.1531099 0.0003106689
v -0.0003631592 0.1531099 0.006677856
v -0.00034729 0.1831099 0.005572509
v 0.005618896 0.1831099 -0.0006884765
v 0.00673706 0.1531099 -0.0007745361
v 0.00673706 0.1531099 -0.0007745361
v 0.005618896 0.1831099 -0.0006884765
v -0.0001715088 0.1831099 -0.006036377
v -0.0001556396 0.1531099 -0.007140503
v 0.03105347 0.1631099 0.01793091
v 0.01989319 0.1631099 0.01148865
v 0.01989319 0.1631099 -0.01148499
v 0.03105347 0.1631099 -0.01792908
v 0.03105347 0.1631099 -0.01792908
v 0.01989319 0.1631099 -0.01148499
v -1.831055E-06 0.168956 -0.02297119
v -1.220703E-06 0.168956 -0.03585815
v -1.220703E-06 0.168956 -0.03585815
v -1.831055E-06 0.168956 -0.02297119
v -0.01989807 0.168956 -0.01148499
v -0.03105896 0.168956 -0.01792908
v -0.03105896 0.168956 -0.01792908
v -0.01989807 0.168956 -0.01148499
v -0.01989807 0.1600022 0.01148865
v -0.03105896 0.1600022 0.01793091
v -0.03105896 0.1600022 0.01793091
v -0.01989807 0.1600022 0.01148865
v -1.831055E-06 0.1600022 0.02297607
v -1.220703E-06 0.1600022 0.03586121
v -1.220703E-06 0.1600022 0.03586121
v -1.831055E-06 0.1600022 0.02297607
v 0.01989319 0.1631099 0.01148865
v 0.03105347 0.1631099 0.01793091
v 0.01989319 0.1631099 0.01148865
v 0.01534302 0.1531099 0.008861694
v 0.01534302 0.1531099 -0.008858032
v 0.01989319 0.1631099 -0.01148499
v 0.01989319 0.1631099 -0.01148499
v 0.01534302 0.1531099 -0.008858032
v -1.831055E-06 0.1531099 -0.0177179
v -1.831055E-06 0.168956 -0.02297119
v -1.831055E-06 0.168956 -0.02297119
v -1.831055E-06 0.1531099 -0.0177179
v -0.01534851 0.1531099 -0.008858032
v -0.01989807 0.168956 -0.01148499
v -0.01989807 0.168956 -0.01148499
v -0.01534851 0.1531099 -0.008858032
v -0.01534851 0.1531099 0.008861694
v -0.01989807 0.1600022 0.01148865
v -0.01989807 0.1600022 0.01148865
v -0.01534851 0.1531099 0.008861694
v -1.831055E-06 0.1531099 0.01772217
v -1.831055E-06 0.1600022 0.02297607
v -1.831055E-06 0.1600022 0.02297607
v -1.831055E-06 0.1531099 0.01772217
v 0.01534302 0.1531099 0.008861694
v 0.01989319 0.1631099 0.01148865
v 0.03105347 0 -0.01792908
v -1.220703E-06 0 6.103515E-07
v 0.03105347 0 0.01793091
v -1.220703E-06 0 -0.03585815
v -1.220703E-06 0 0.03586121
v -0.03105896 0 -0.01792908
v -0.03105896 0 0.01793091
vt 0.03822803 0.3774356
vt 0.03822803 0.3774356
vt 0.03822806 0.3774356
vt 0.03822806 0.3774356
vt 0.03822806 0.3774356
vt 0.03822806 0.3774356
vt 0.03822809 0.3774356
vt 0.03822809 0.3774356
vt 0.03822809 0.3774356
vt 0.03822809 0.3774356
vt 0.03822806 0.3774356
vt 0.03822806 0.3774356
vt 0.03822806 0.3774356
vt 0.03822806 0.3774356
vt 0.03822806 0.3774356
vt 0.03822806 0.3774356
vt 0.03822806 0.3774356
vt 0.03822806 0.3774356
vt 0.03822806 0.3774356
vt 0.03822806 0.3774356
vt 0.03822806 0.3774356
vt 0.03822806 0.3774356
vt 0.03822806 0.3774356
vt 0.03822806 0.3774356
vt 0.1032104 0.2314758
vt 0.1032104 0.2314758
vt 0.1032715 0.2314758
vt 0.1032104 0.2314758
vt 0.03822806 0.3774356
vt 0.03822809 0.3774356
vt 0.03822806 0.3774356
vt 0.03822803 0.3774357
vt 0.03822803 0.3774357
vt 0.03822803 0.3774357
vt 0.03822803 0.3774357
vt 0.03822806 0.3774357
vt 0.03822806 0.3774357
vt 0.03822806 0.3774357
vt 0.03822806 0.3774356
vt 0.03822809 0.3774356
vt 0.1032104 0.2314758
vt 0.1032104 0.2314758
vt 0.1032715 0.2314758
vt 0.1032715 0.2314758
vt 0.1032104 0.2314758
vt 0.1032104 0.2314758
vt 0.1032104 0.2314758
vt 0.1032104 0.2314758
vt 0.1032715 0.2314758
vt 0.1032715 0.2314758
vt 0.1032104 0.2314758
vt 0.1032104 0.2314758
vt 0.1032104 0.2314758
vt 0.1032104 0.2314758
vt 0.1032104 0.2314758
vt 0.1032104 0.2314758
vt 0.03822806 0.3774357
vt 0.03822806 0.3774357
vt 0.03822803 0.3774357
vt 0.03822803 0.3774357
vt 0.03822803 0.3774357
vt 0.03822803 0.3774357
vt 0.03822803 0.3774357
vt 0.03822803 0.3774357
vt 0.03822803 0.3774357
vt 0.03822803 0.3774357
vt 0.03822806 0.3774356
vt 0.03822806 0.3774356
vt 0.03822806 0.3774356
vt 0.03822806 0.3774356
vt 0.03822806 0.3774356
vt 0.03822806 0.3774356
vt 0.03822806 0.3774356
vt 0.03822806 0.3774356
vt 0.03822806 0.3774357
vt 0.03822806 0.3774357
vt 0.03822806 0.3774357
vt 0.03822806 0.3774357
vt 0.03822806 0.3774357
vt 0.03822806 0.3774357
vt 0.03822806 0.3774357
vt 0.03822806 0.3774357
vt 0.03822803 0.3774357
vt 0.03822803 0.3774357
vt 0.03822803 0.3774357
vt 0.03822803 0.3774357
vt 0.03822803 0.3774357
vt 0.03822803 0.3774357
vt 0.03822803 0.3774357
vt 0.03822803 0.3774357
vt 0.03822806 0.3774356
vt 0.03822806 0.3774356
vt 0.03822806 0.3774356
vt 0.03822806 0.3774356
vt 0.03822806 0.3774356
vt 0.03822806 0.3774356
vt 0.03822806 0.3774356
vt 0.03822806 0.3774356
vt 0.03822806 0.3774357
vt 0.03822806 0.3774357
vt 0.03822806 0.3774357
vt 0.03822806 0.3774357
vt 0.03822806 0.3774357
vt 0.03822806 0.3774357
vt 0.03822806 0.3774356
vt 0.03822803 0.3774356
vt 0.03822806 0.3774356
vt 0.03822803 0.3774356
vt 0.03822806 0.3774356
vt 0.03822803 0.3774356
vt 0.03822806 0.3774356
vn 1 0 0
vn 1 0 0
vn 1 0 0
vn 1 0 0
vn 0.4999926 0 -0.8660297
vn 0.4999926 0 -0.8660297
vn 0.4999926 0 -0.8660297
vn 0.4999926 0 -0.8660297
vn -0.4999557 0 -0.866051
vn -0.4999557 0 -0.866051
vn -0.4999557 0 -0.866051
vn -0.4999557 0 -0.866051
vn -1 0 0
vn -1 0 0
vn -1 0 0
vn -1 0 0
vn -0.4999813 0 0.8660362
vn -0.4999813 0 0.8660362
vn -0.4999813 0 0.8660362
vn -0.4999813 0 0.8660362
vn 0.5000181 0 0.866015
vn 0.5000181 0 0.866015
vn 0.5000181 0 0.866015
vn 0.5000181 0 0.866015
vn 0 1 0
vn 0 1 0
vn 0 1 0
vn 0 1 0
vn 0 1 0
vn 0 1 0
vn 0 1 0
vn 0 1 0
vn 0 1 0
vn 0 1 0
vn 0 1 0
vn 0 1 0
vn 0 1 0
vn 0 1 0
vn 0 1 0
vn 0 1 0
vn -0.6782987 0.02738673 0.7342758
vn -0.6782987 0.02738673 0.7342758
vn -0.6782987 0.02738673 0.7342758
vn -0.6782987 0.02738673 0.7342758
vn -0.7237542 0.02498283 -0.6896056
vn -0.7237542 0.02498283 -0.6896056
vn -0.7237542 0.02498283 -0.6896056
vn -0.7237542 0.02498283 -0.6896056
vn 0.723752 0.02501156 0.6896067
vn 0.723752 0.02501156 0.6896067
vn 0.723752 0.02501156 0.6896067
vn 0.723752 0.02501156 0.6896067
vn 0.6782253 0.02738555 -0.7343436
vn 0.6782253 0.02738555 -0.7343436
vn 0.6782253 0.02738555 -0.7343436
vn 0.6782253 0.02738555 -0.7343436
vn 0 1 0
vn 0 1 0
vn 0 1 0
vn 0 1 0
vn 0.1688127 0.9808174 0.0974649
vn 0.1688127 0.9808174 0.0974649
vn 0.1688127 0.9808174 0.0974649
vn 0.1688127 0.9808174 0.0974649
vn 0 1 0
vn 0 1 0
vn 0 1 0
vn 0 1 0
vn -2.386343E-05 0.9566663 0.2911866
vn -2.386343E-05 0.9566663 0.2911866
vn -2.386343E-05 0.9566663 0.2911866
vn -2.386343E-05 0.9566663 0.2911866
vn 0 1 0
vn 0 1 0
vn 0 1 0
vn 0 1 0
vn -0.09098031 0.9944659 0.05253793
vn -0.09098031 0.9944659 0.05253793
vn -0.09098031 0.9944659 0.05253793
vn -0.09098031 0.9944659 0.05253793
vn -0.9102048 0.4141588 0
vn -0.9102048 0.4141588 0
vn -0.9102048 0.4141588 0
vn -0.9102048 0.4141588 0
vn -0.4298229 0.3317095 0.8397744
vn -0.4298229 0.3317095 0.8397744
vn -0.4298229 0.3317095 0.8397744
vn -0.4298229 0.3317095 0.8397744
vn 0.4805584 0.2759648 0.8324105
vn 0.4805584 0.2759648 0.8324105
vn 0.4805584 0.2759648 0.8324105
vn 0.4805584 0.2759648 0.8324105
vn 0.9253373 0.3702876 0.08147458
vn 0.9253373 0.3702876 0.08147458
vn 0.9253373 0.3702876 0.08147458
vn 0.9253373 0.3702876 0.08147458
vn 0.4172837 0.5509242 -0.7227427
vn 0.4172837 0.5509242 -0.7227427
vn 0.4172837 0.5509242 -0.7227427
vn 0.4172837 0.5509242 -0.7227427
vn -0.4712819 0.4739601 -0.7438112
vn -0.4712819 0.4739601 -0.7438112
vn -0.4712819 0.4739601 -0.7438112
vn -0.4712819 0.4739601 -0.7438112
vn 0 -1 0
vn 0 -1 0
vn 0 -1 0
vn 0 -1 0
vn 0 -1 0
vn 0 -1 0
vn 0 -1 0
g SM_Prop_Candles_01_0
f 3/3/3 2/2/2 1/1/1
f 4/4/4 3/3/3 1/1/1
f 7/7/7 6/6/6 5/5/5
f 8/8/8 7/7/7 5/5/5
f 11/11/11 10/10/10 9/9/9
f 12/12/12 11/11/11 9/9/9
f 15/15/15 14/14/14 13/13/13
f 16/16/16 15/15/15 13/13/13
f 19/19/19 18/18/18 17/17/17
f 20/20/20 19/19/19 17/17/17
f 23/23/23 22/22/22 21/21/21
f 24/24/24 23/23/23 21/21/21
f 27/27/27 26/26/26 25/25/25
f 28/28/28 26/26/26 27/27/27
f 31/31/31 30/30/30 29/29/29
f 29/29/29 30/30/30 32/32/32
f 30/30/30 33/33/33 32/32/32
f 32/32/32 33/33/33 34/34/34
f 33/33/33 35/35/35 34/34/34
f 34/34/34 35/35/35 36/36/36
f 36/36/36 35/35/35 37/37/37
f 35/35/35 38/38/38 37/37/37
f 37/37/37 38/38/38 39/39/39
f 38/38/38 40/40/40 39/39/39
f 43/43/43 42/42/42 41/41/41
f 44/44/44 43/43/43 41/41/41
f 47/47/47 46/46/46 45/45/45
f 48/48/48 47/47/47 45/45/45
f 51/51/51 50/50/50 49/49/49
f 52/52/52 51/51/51 49/49/49
f 55/55/55 54/54/54 53/53/53
f 56/56/56 55/55/55 53/53/53
f 59/59/59 58/58/58 57/57/57
f 60/60/60 59/59/59 57/57/57
f 63/63/63 62/62/62 61/61/61
f 64/64/64 63/63/63 61/61/61
f 67/67/67 66/66/66 65/65/65
f 68/68/68 67/67/67 65/65/65
f 71/71/71 70/70/70 69/69/69
f 72/72/72 71/71/71 69/69/69
f 75/75/75 74/74/74 73/73/73
f 76/76/76 75/75/75 73/73/73
f 79/79/79 78/78/78 77/77/77
f 80/80/80 79/79/79 77/77/77
f 83/83/83 82/82/82 81/81/81
f 84/84/84 83/83/83 81/81/81
f 87/87/87 86/86/86 85/85/85
f 88/88/88 87/87/87 85/85/85
f 91/91/91 90/90/90 89/89/89
f 92/92/92 91/91/91 89/89/89
f 95/95/95 94/94/94 93/93/93
f 96/96/96 95/95/95 93/93/93
f 99/99/99 98/98/98 97/97/97
f 100/100/100 99/99/99 97/97/97
f 103/103/103 102/102/102 101/101/101
f 104/104/104 103/103/103 101/101/101
f 107/107/107 106/106/106 105/105/105
f 105/105/105 106/106/106 108/108/108
f 109/109/109 106/106/106 107/107/107
f 108/108/108 106/106/106 110/110/110
f 111/111/111 106/106/106 109/109/109
f 110/110/110 106/106/106 111/111/111
