g SM_Prop_Microwave_01
v -0.2849292 0 -0.2178809
v -0.2849292 0.2850684 -0.2178809
v -0.2849292 0.2850684 0.2178857
v -0.2849292 0 0.2178857
v -0.2849292 0.2850684 -0.2178809
v 0.1409375 0.2850684 0.2178857
v -0.2849292 0.2850684 0.2178857
v 0.2849298 0.2850684 -0.2178809
v 0.2849298 0.2850684 0.2531152
v 0.1435699 0.2850684 0.2531152
v 0.2849298 0.2850684 -0.2178809
v 0.2849298 0 -0.2178809
v 0.2849298 0 0.2531152
v 0.2849298 0.2850684 0.2531152
v -0.2507617 0.02910179 -0.169834
v -0.2507617 0.2559667 -0.169834
v 0.1409375 0.2559667 -0.169834
v 0.1409375 0.02910179 -0.169834
v 0.2312457 0.02229645 -0.2072705
v 0.2312457 0.1872912 -0.2072705
v -0.1077258 0.1872912 -0.2072705
v -0.1077258 0.02229645 -0.2072705
v 0.252135 0.2498512 0.2531152
v 0.1435699 0.2582504 0.2531152
v 0.1435699 0.2850684 0.2531152
v 0.2849298 0.2850684 0.2531152
v 0.2849298 0 0.2531152
v 0.252135 0.05994499 0.2531152
v 0.1435699 0 0.2531152
v 0.1435699 0.0511644 0.2531152
v 0.1409375 0.2559667 0.2178857
v -0.2849292 0.2850684 0.2178857
v 0.1409375 0.2850684 0.2178857
v -0.2507617 0.2559667 0.2178857
v -0.2507617 0.02910179 0.2178857
v -0.2849292 0 0.2178857
v 0.1409375 0.02910179 0.2178857
v 0.1409375 0 0.2178857
v -0.2164062 0.04502434 0.01123291
v -0.1356506 0.04502434 -0.1286401
v 0.02585999 0.04502434 -0.1286401
v 0.1066156 0.04502434 0.01123291
v -0.1356506 0.04502434 0.1511035
v 0.02585999 0.04502434 0.1511035
v 0.1409375 0.02910179 0.2178857
v 0.1409375 0.02910179 -0.169834
v 0.1409375 0.2559667 -0.169834
v 0.1409375 0.2559667 0.2178857
v 0.1435699 0.0511644 0.2531152
v 0.1435699 0 0.2531152
v 0.1409375 0 0.2178857
v 0.1435699 0.2582504 0.2531152
v 0.1435699 0.2850684 0.2531152
v 0.1409375 0.2850684 0.2178857
v 0.1409375 0.2559667 0.2178857
v 0.1409375 0.2559667 -0.169834
v -0.2507617 0.2559667 -0.169834
v -0.2507617 0.2559667 0.2178857
v -0.2507617 0.2559667 0.2178857
v -0.2507617 0.2559667 -0.169834
v -0.2507617 0.02910179 -0.169834
v -0.2507617 0.02910179 0.2178857
v 0.2849298 0 -0.2178809
v -0.2849292 0 -0.2178809
v -0.2849292 0 0.2178857
v 0.1409375 0 0.2178857
v 0.2849298 0 0.2531152
v 0.1435699 0 0.2531152
v 0.1511792 0.07923027 0.2531152
v 0.1511792 0.2303399 0.2531152
v 0.2418933 0.2303399 0.2531152
v 0.2418933 0.07923027 0.2531152
v 0.0298053 0.02910179 -0.1354736
v 0.02585999 0.04502434 -0.1286401
v -0.1356506 0.04502434 -0.1286401
v -0.1395953 0.02910179 -0.1354736
v -0.1395953 0.02910179 -0.1354736
v -0.1356506 0.04502434 -0.1286401
v -0.2164062 0.04502434 0.01123291
v -0.2242969 0.02910179 0.01123291
v -0.2242969 0.02910179 0.01123291
v -0.2164062 0.04502434 0.01123291
v -0.1356506 0.04502434 0.1511035
v -0.1395959 0.02910179 0.157937
v -0.1395959 0.02910179 0.157937
v -0.1356506 0.04502434 0.1511035
v 0.02585999 0.04502434 0.1511035
v 0.0298053 0.02910179 0.157937
v 0.0298053 0.02910179 0.157937
v 0.02585999 0.04502434 0.1511035
v 0.1066156 0.04502434 0.01123291
v 0.1145062 0.02910179 0.01123291
v 0.1145062 0.02910179 0.01123291
v 0.1066156 0.04502434 0.01123291
v 0.02585999 0.04502434 -0.1286401
v 0.0298053 0.02910179 -0.1354736
v 0.2374426 0.01690948 -0.2178809
v 0.2312457 0.02229645 -0.2072705
v -0.1077258 0.02229645 -0.2072705
v -0.1139221 0.01690948 -0.2178809
v -0.1139221 0.01690948 -0.2178809
v -0.1077258 0.02229645 -0.2072705
v -0.1077258 0.1872912 -0.2072705
v -0.1139221 0.1926781 -0.2178809
v -0.1139221 0.1926781 -0.2178809
v -0.1077258 0.1872912 -0.2072705
v 0.2312457 0.1872912 -0.2072705
v 0.2374426 0.1926781 -0.2178809
v 0.2374426 0.1926781 -0.2178809
v 0.2312457 0.1872912 -0.2072705
v 0.2312457 0.02229645 -0.2072705
v 0.2374426 0.01690948 -0.2178809
v -0.2507617 0.02910179 0.2178857
v -0.1395959 0.02910179 0.157937
v 0.0298053 0.02910179 0.157937
v -0.2242969 0.02910179 0.01123291
v 0.1409375 0.02910179 0.2178857
v 0.1145062 0.02910179 0.01123291
v 0.1409375 0.02910179 -0.169834
v 0.0298053 0.02910179 -0.1354736
v -0.2507617 0.02910179 -0.169834
v -0.1395953 0.02910179 -0.1354736
v -0.1139221 0.1926781 -0.2178809
v 0.2374426 0.1926781 -0.2178809
v 0.2849298 0.2850684 -0.2178809
v 0.2374426 0.01690948 -0.2178809
v -0.2849292 0.2850684 -0.2178809
v 0.2849298 0 -0.2178809
v -0.2849292 0 -0.2178809
v -0.1139221 0.01690948 -0.2178809
v 0.1435699 0.0511644 0.2531152
v 0.1511792 0.07923027 0.2531152
v 0.2418933 0.07923027 0.2531152
v 0.252135 0.05994499 0.2531152
v 0.1435699 0.2582504 0.2531152
v 0.2418933 0.2303399 0.2531152
v 0.1511792 0.2303399 0.2531152
v 0.252135 0.2498512 0.2531152
vt 0.1356524 0.3756545
vt 0.1356524 0.3756545
vt 0.1356524 0.3756545
vt 0.1356524 0.3756545
vt 0.1356524 0.3756545
vt 0.1356524 0.3756545
vt 0.1356524 0.3756545
vt 0.1356524 0.3756545
vt 0.1356524 0.3756545
vt 0.1356524 0.3756545
vt 0.1356524 0.3756545
vt 0.1356524 0.3756545
vt 0.1356524 0.3756545
vt 0.1356524 0.3756545
vt 0.1125488 0.3755112
vt 0.1125488 0.3755188
vt 0.1125488 0.3755188
vt 0.1125488 0.3755112
vt 0.1005859 0.302124
vt 0.1005859 0.302124
vt 0.1005859 0.302124
vt 0.1005859 0.302124
vt 0.1356524 0.3756545
vt 0.1356524 0.3756545
vt 0.1356524 0.3756545
vt 0.1356524 0.3756545
vt 0.1356524 0.3756545
vt 0.1356524 0.3756545
vt 0.1356524 0.3756545
vt 0.1356524 0.3756545
vt 0.1125488 0.3755188
vt 0.1125488 0.3755188
vt 0.1125488 0.3755188
vt 0.1125488 0.3755188
vt 0.1125488 0.3755112
vt 0.1125488 0.3755112
vt 0.1125488 0.3755112
vt 0.1125488 0.3755112
vt 0.1130371 0.3573456
vt 0.1130371 0.3573456
vt 0.1130371 0.3573456
vt 0.1130371 0.3573456
vt 0.1130371 0.3573456
vt 0.1130371 0.3573456
vt 0.1125488 0.3755112
vt 0.1125488 0.3755112
vt 0.1125488 0.3755188
vt 0.1125488 0.3755188
vt 0.1125488 0.3755112
vt 0.1125488 0.3755112
vt 0.1125488 0.3755112
vt 0.1125488 0.3755188
vt 0.1125488 0.3755188
vt 0.1125488 0.3755188
vt 0.1125488 0.3755188
vt 0.1125488 0.3755188
vt 0.1125488 0.3755188
vt 0.1125488 0.3755188
vt 0.1125488 0.3755188
vt 0.1125488 0.3755188
vt 0.1125488 0.3755112
vt 0.1125488 0.3755112
vt 0.1356524 0.3756545
vt 0.1356524 0.3756545
vt 0.1356524 0.3756545
vt 0.1356524 0.3756545
vt 0.1356524 0.3756545
vt 0.1356524 0.3756545
vt 0.444691 0.3122719
vt 0.444691 0.3886186
vt 0.4972516 0.3886186
vt 0.4972516 0.3122719
vt 0.1130371 0.3573456
vt 0.1130371 0.3573456
vt 0.1130371 0.3573456
vt 0.1130371 0.3573456
vt 0.1130371 0.3573456
vt 0.1130371 0.3573456
vt 0.1130371 0.3573456
vt 0.1130371 0.3573456
vt 0.1130371 0.3573456
vt 0.1130371 0.3573456
vt 0.1130371 0.3573456
vt 0.1130371 0.3573456
vt 0.1130371 0.3573456
vt 0.1130371 0.3573456
vt 0.1130371 0.3573456
vt 0.1130371 0.3573456
vt 0.1130371 0.3573456
vt 0.1130371 0.3573456
vt 0.1130371 0.3573456
vt 0.1130371 0.3573456
vt 0.1130371 0.3573456
vt 0.1130371 0.3573456
vt 0.1130371 0.3573456
vt 0.1130371 0.3573456
vt 0.1356524 0.3756545
vt 0.1356524 0.3756545
vt 0.1356524 0.3756545
vt 0.1356524 0.3756545
vt 0.1356524 0.3756545
vt 0.1356524 0.3756545
vt 0.1356524 0.3756545
vt 0.1356524 0.3756545
vt 0.1356524 0.3756545
vt 0.1356524 0.3756545
vt 0.1356524 0.3756545
vt 0.1356524 0.3756545
vt 0.1356524 0.3756545
vt 0.1356524 0.3756545
vt 0.1356524 0.3756545
vt 0.1356524 0.3756545
vt 0.1125488 0.3755112
vt 0.1125488 0.3755112
vt 0.1125488 0.3755112
vt 0.1125488 0.3755112
vt 0.1125488 0.3755112
vt 0.1125488 0.3755112
vt 0.1125488 0.3755112
vt 0.1125488 0.3755112
vt 0.1125488 0.3755112
vt 0.1125488 0.3755112
vt 0.1356524 0.3756545
vt 0.1356524 0.3756545
vt 0.1356524 0.3756545
vt 0.1356524 0.3756545
vt 0.1356524 0.3756545
vt 0.1356524 0.3756545
vt 0.1356524 0.3756545
vt 0.1356524 0.3756545
vt 0.1035156 0.2311325
vt 0.1035156 0.2311325
vt 0.1035156 0.2311325
vt 0.1035156 0.2311325
vt 0.1035156 0.2311401
vt 0.1035156 0.2311401
vt 0.1035156 0.2311401
vt 0.1035156 0.2311401
vn -1 0 0
vn -1 0 0
vn -1 0 0
vn -1 0 0
vn 0 1 0
vn 0 1 0
vn 0 1 0
vn 0 1 0
vn 0 1 0
vn 0 1 0
vn 1 0 0
vn 1 0 0
vn 1 0 0
vn 1 0 0
vn 0 0 1
vn 0 0 1
vn 0 0 1
vn 0 0 1
vn 0 0 -1
vn 0 0 -1
vn 0 0 -1
vn 0 0 -1
vn 0 0 1
vn 0 0 1
vn 0 0 1
vn 0 0 1
vn 0 0 1
vn 0 0 1
vn 0 0 1
vn 0 0 1
vn 0 0 1
vn 0 0 1
vn 0 0 1
vn 0 0 1
vn 0 0 1
vn 0 0 1
vn 0 0 1
vn 0 0 1
vn 0 1 0
vn 0 1 0
vn 0 1 0
vn 0 1 0
vn 0 1 0
vn 0 1 0
vn -0.9984354 0 0.05591545
vn -1 0 0
vn -1 0 0
vn -0.99822 0 0.05963857
vn -0.9972199 0 0.07451506
vn -0.9972199 0 0.07451506
vn -0.9972199 0 0.07451506
vn -0.9972199 0 0.07451506
vn -0.9972199 0 0.07451506
vn -0.9972199 0 0.07451506
vn 0 -1 0
vn 0 -1 0
vn 0 -1 0
vn 0 -1 0
vn 1 0 0
vn 1 0 0
vn 1 0 0
vn 1 0 0
vn 0 -1 0
vn 0 -1 0
vn 0 -1 0
vn 0 -1 0
vn 0 -1 0
vn 0 -1 0
vn 0 0 1
vn 0 0 1
vn 0 0 1
vn 0 0 1
vn 0 0.3943847 -0.9189454
vn 0 0.3943847 -0.9189454
vn 0 0.3943847 -0.9189454
vn 0 0.3943847 -0.9189454
vn -0.7958347 0.3943713 -0.4594764
vn -0.7958347 0.3943713 -0.4594764
vn -0.7958347 0.3943713 -0.4594764
vn -0.7958347 0.3943713 -0.4594764
vn -0.7958272 0.3943842 0.4594781
vn -0.7958272 0.3943842 0.4594781
vn -0.7958272 0.3943842 0.4594781
vn -0.7958272 0.3943842 0.4594781
vn 0 0.3943848 0.9189454
vn 0 0.3943848 0.9189454
vn 0 0.3943848 0.9189454
vn 0 0.3943848 0.9189454
vn 0.7958272 0.3943842 0.4594781
vn 0.7958272 0.3943842 0.4594781
vn 0.7958272 0.3943842 0.4594781
vn 0.7958272 0.3943842 0.4594781
vn 0.7958305 0.3943842 -0.4594723
vn 0.7958305 0.3943842 -0.4594723
vn 0.7958305 0.3943842 -0.4594723
vn 0.7958305 0.3943842 -0.4594723
vn 0 0.891661 -0.4527037
vn 0 0.891661 -0.4527037
vn 0 0.891661 -0.4527037
vn 0 0.891661 -0.4527037
vn 0.8635338 0 -0.5042911
vn 0.8635338 0 -0.5042911
vn 0.8635338 0 -0.5042911
vn 0.8635338 0 -0.5042911
vn 0 -0.891661 -0.4527037
vn 0 -0.891661 -0.4527037
vn 0 -0.891661 -0.4527037
vn 0 -0.891661 -0.4527037
vn -0.8635122 0 -0.5043281
vn -0.8635122 0 -0.5043281
vn -0.8635122 0 -0.5043281
vn -0.8635122 0 -0.5043281
vn 0 1 0
vn 0 1 0
vn 0 1 0
vn 0 1 0
vn 0 1 0
vn 0 1 0
vn 0 1 0
vn 0 1 0
vn 0 1 0
vn 0 1 0
vn 0 0 -1
vn 0 0 -1
vn 0 0 -1
vn 0 0 -1
vn 0 0 -1
vn 0 0 -1
vn 0 0 -1
vn 0 0 -1
vn 0 0 1
vn 0 0 1
vn 0 0 1
vn 0 0 1
vn 0 0 1
vn 0 0 1
vn 0 0 1
vn 0 0 1
g SM_Prop_Microwave_01_0
f 3/3/3 2/2/2 1/1/1
f 4/4/4 3/3/3 1/1/1
f 7/7/7 6/6/6 5/5/5
f 6/6/6 8/8/8 5/5/5
f 6/6/6 9/9/9 8/8/8
f 6/6/6 10/10/10 9/9/9
f 13/13/13 12/12/12 11/11/11
f 11/11/11 14/14/14 13/13/13
f 17/17/17 16/16/16 15/15/15
f 18/18/18 17/17/17 15/15/15
f 21/21/21 20/20/20 19/19/19
f 22/22/22 21/21/21 19/19/19
f 25/25/25 24/24/24 23/23/23
f 23/23/23 26/26/26 25/25/25
f 27/27/27 26/26/26 23/23/23
f 28/28/28 27/27/27 23/23/23
f 29/29/29 27/27/27 28/28/28
f 28/28/28 30/30/30 29/29/29
f 33/33/33 32/32/32 31/31/31
f 32/32/32 34/34/34 31/31/31
f 35/35/35 34/34/34 32/32/32
f 36/36/36 35/35/35 32/32/32
f 37/37/37 35/35/35 36/36/36
f 38/38/38 37/37/37 36/36/36
f 41/41/41 40/40/40 39/39/39
f 39/39/39 42/42/42 41/41/41
f 39/39/39 43/43/43 42/42/42
f 43/43/43 44/44/44 42/42/42
f 47/47/47 46/46/46 45/45/45
f 48/48/48 47/47/47 45/45/45
f 49/49/49 48/48/48 45/45/45
f 45/45/45 50/50/50 49/49/49
f 51/51/51 50/50/50 45/45/45
f 49/49/49 52/52/52 48/48/48
f 52/52/52 53/53/53 48/48/48
f 48/48/48 53/53/53 54/54/54
f 57/57/57 56/56/56 55/55/55
f 58/58/58 57/57/57 55/55/55
f 61/61/61 60/60/60 59/59/59
f 62/62/62 61/61/61 59/59/59
f 65/65/65 64/64/64 63/63/63
f 66/66/66 65/65/65 63/63/63
f 67/67/67 66/66/66 63/63/63
f 67/67/67 68/68/68 66/66/66
f 71/71/71 70/70/70 69/69/69
f 72/72/72 71/71/71 69/69/69
f 75/75/75 74/74/74 73/73/73
f 76/76/76 75/75/75 73/73/73
f 79/79/79 78/78/78 77/77/77
f 80/80/80 79/79/79 77/77/77
f 83/83/83 82/82/82 81/81/81
f 84/84/84 83/83/83 81/81/81
f 87/87/87 86/86/86 85/85/85
f 88/88/88 87/87/87 85/85/85
f 91/91/91 90/90/90 89/89/89
f 92/92/92 91/91/91 89/89/89
f 95/95/95 94/94/94 93/93/93
f 96/96/96 95/95/95 93/93/93
f 99/99/99 98/98/98 97/97/97
f 100/100/100 99/99/99 97/97/97
f 103/103/103 102/102/102 101/101/101
f 104/104/104 103/103/103 101/101/101
f 107/107/107 106/106/106 105/105/105
f 108/108/108 107/107/107 105/105/105
f 111/111/111 110/110/110 109/109/109
f 112/112/112 111/111/111 109/109/109
f 115/115/115 114/114/114 113/113/113
f 114/114/114 116/116/116 113/113/113
f 117/117/117 115/115/115 113/113/113
f 118/118/118 115/115/115 117/117/117
f 118/118/118 117/117/117 119/119/119
f 120/120/120 118/118/118 119/119/119
f 116/116/116 121/121/121 113/113/113
f 120/120/120 119/119/119 121/121/121
f 116/116/116 122/122/122 121/121/121
f 122/122/122 120/120/120 121/121/121
f 125/125/125 124/124/124 123/123/123
f 126/126/126 124/124/124 125/125/125
f 127/127/127 125/125/125 123/123/123
f 128/128/128 126/126/126 125/125/125
f 127/127/127 123/123/123 129/129/129
f 130/130/130 126/126/126 128/128/128
f 129/129/129 130/130/130 128/128/128
f 123/123/123 130/130/130 129/129/129
f 133/133/133 132/132/132 131/131/131
f 134/134/134 133/133/133 131/131/131
f 131/131/131 132/132/132 135/135/135
f 136/136/136 133/133/133 134/134/134
f 132/132/132 137/137/137 135/135/135
f 138/138/138 136/136/136 134/134/134
f 135/135/135 137/137/137 138/138/138
f 137/137/137 136/136/136 138/138/138
