g SM_Prop_Rug_02
v 0.6624835 0.03671223 1.706328
v 0.7256054 0.03671223 1.675447
v 0.7256054 0 1.675447
v 0.6775366 0 1.706328
v -0.8708642 0.03671223 -1.675446
v -0.8708642 0 -1.675446
v -0.8164703 0 -1.706328
v -0.8274835 0.03671223 -1.706324
v 0.7256054 0 -1.675446
v 0.6711926 0 -1.706328
v -0.8164703 0 -1.706328
v -0.8708642 0 -1.675446
v 0.684613 0 0.2486169
v -0.8298721 0 -0.4877539
v -0.8708642 0 1.675447
v 0.7256054 0 1.675447
v 0.6775366 0 1.706328
v -0.8147461 0 1.706328
v 0.684613 0.03671223 0.2486169
v 0.7256054 0.03671223 -1.675446
v 0.7256054 0 -1.675446
v 0.684613 0 0.2486169
v 0.7256054 0.03671223 1.675447
v 0.7256054 0 1.675447
v -0.8298721 0 -0.4877539
v -0.8708642 0 -1.675446
v -0.8708642 0.03671223 -1.675446
v -0.8298721 0.03671223 -0.4877539
v -0.8708642 0 1.675447
v -0.8708642 0.03671223 1.675447
v -0.567387 0.03671223 -1.43884
v 0.3880847 0.03671223 -1.43949
v 0.4542615 0.03671223 -1.383801
v -0.6097922 0.03671223 -1.384449
v -0.5656826 0.03671223 -0.4462158
v 0.4216455 0.03671223 0.1680823
v -0.6010257 0.03671223 1.386648
v 0.4551581 0.03671223 1.385417
v 0.3971875 0.03671223 1.438076
v -0.5507495 0.03671223 1.436846
v -0.8708642 0 1.675447
v -0.8708642 0.03671223 1.675447
v -0.8016885 0.03671223 1.706328
v -0.8147461 0 1.706328
v -0.8016885 0.03671223 1.706328
v 0.6624835 0.03671223 1.706328
v 0.6775366 0 1.706328
v -0.8147461 0 1.706328
v 0.6711926 0 -1.706328
v 0.7256054 0 -1.675446
v 0.7256054 0.03671223 -1.675446
v 0.6274799 0.03671223 -1.706328
v -0.8164703 0 -1.706328
v 0.6711926 0 -1.706328
v 0.6274799 0.03671223 -1.706328
v -0.8274835 0.03671223 -1.706324
v 0.4871844 0.03671223 0.1972327
v 0.5250232 0.03671223 -1.468186
v 0.7256054 0.03671223 -1.675446
v 0.4658661 0.03671223 -1.505864
v 0.684613 0.03671223 0.2486169
v 0.6274799 0.03671223 -1.706328
v 0.7256054 0.03671223 1.675447
v 0.5250232 0.03671223 1.468187
v -0.8274835 0.03671223 -1.706324
v -0.6318948 0.03671223 -1.505864
v 0.6624835 0.03671223 1.706328
v 0.4872894 0.03671223 1.505865
v -0.6702814 0.03671223 -1.468186
v -0.8708642 0.03671223 -1.675446
v -0.6351541 0.03671223 1.505865
v -0.8016885 0.03671223 1.706328
v -0.8708642 0.03671223 1.675447
v -0.6702814 0.03671223 1.468187
v -0.8298721 0.03671223 -0.4877539
v -0.6324435 0.03671223 -0.4570276
v 0.4216455 0.03671223 0.1680823
v 0.4542615 0.03671223 -1.383801
v 0.5250232 0.03671223 -1.468186
v 0.3880847 0.03671223 -1.43949
v 0.4871844 0.03671223 0.1972327
v 0.4658661 0.03671223 -1.505864
v 0.4551581 0.03671223 1.385417
v -0.6318948 0.03671223 -1.505864
v 0.5250232 0.03671223 1.468187
v -0.567387 0.03671223 -1.43884
v 0.3971875 0.03671223 1.438076
v -0.6702814 0.03671223 -1.468186
v 0.4872894 0.03671223 1.505865
v -0.6097922 0.03671223 -1.384449
v -0.5507495 0.03671223 1.436846
v -0.6351541 0.03671223 1.505865
v -0.6702814 0.03671223 1.468187
v -0.6010257 0.03671223 1.386648
v -0.6324435 0.03671223 -0.4570276
v -0.5656826 0.03671223 -0.4462158
vt 0.1048472 0.1804237
vt 0.1048472 0.1804237
vt 0.1048472 0.1804237
vt 0.1048472 0.1804237
vt 0.1048472 0.1804237
vt 0.1048472 0.1804237
vt 0.1048472 0.1804237
vt 0.1048472 0.1804237
vt 0.1048472 0.1804237
vt 0.1048472 0.1804237
vt 0.1048472 0.1804237
vt 0.1048472 0.1804237
vt 0.1048472 0.1804237
vt 0.1048472 0.1804237
vt 0.1048472 0.1804237
vt 0.1048472 0.1804237
vt 0.1048472 0.1804237
vt 0.1048472 0.1804237
vt 0.1048472 0.1804237
vt 0.1048471 0.1804237
vt 0.1048471 0.1804237
vt 0.1048472 0.1804237
vt 0.1048472 0.1804237
vt 0.1048472 0.1804237
vt 0.1048472 0.1804237
vt 0.1048471 0.1804237
vt 0.1048471 0.1804237
vt 0.1048472 0.1804237
vt 0.1048472 0.1804237
vt 0.1048472 0.1804237
vt 0.1048472 0.1795244
vt 0.1048472 0.1795244
vt 0.1048472 0.1795244
vt 0.1048472 0.1795244
vt 0.1048472 0.1795244
vt 0.1048472 0.1795244
vt 0.1048472 0.1795243
vt 0.1048472 0.1795243
vt 0.1048472 0.1795243
vt 0.1048472 0.1795243
vt 0.1048472 0.1804237
vt 0.1048472 0.1804237
vt 0.1048472 0.1804237
vt 0.1048472 0.1804237
vt 0.1048472 0.1804237
vt 0.1048472 0.1804237
vt 0.1048472 0.1804237
vt 0.1048472 0.1804237
vt 0.1048472 0.1804237
vt 0.1048472 0.1804237
vt 0.1048472 0.1804237
vt 0.1048472 0.1804237
vt 0.1048472 0.1804237
vt 0.1048472 0.1804237
vt 0.1048472 0.1804237
vt 0.1048472 0.1804237
vt 0.1048472 0.1804237
vt 0.1048472 0.1804237
vt 0.1048472 0.1804237
vt 0.1048472 0.1804237
vt 0.1048472 0.1804237
vt 0.1048472 0.1804237
vt 0.1048472 0.1804237
vt 0.1048472 0.1804237
vt 0.1048472 0.1804237
vt 0.1048472 0.1804237
vt 0.1048472 0.1804237
vt 0.1048472 0.1804237
vt 0.1048472 0.1804237
vt 0.1048472 0.1804237
vt 0.1048472 0.1804237
vt 0.1048472 0.1804237
vt 0.1048472 0.1804237
vt 0.1048472 0.1804237
vt 0.1048472 0.1804237
vt 0.1048472 0.1804237
vt 0.1048472 0.1582521
vt 0.1048472 0.1582522
vt 0.1048472 0.1582522
vt 0.1048472 0.1582522
vt 0.1048472 0.1582521
vt 0.1048472 0.1582522
vt 0.1048472 0.1582521
vt 0.1048472 0.1582522
vt 0.1048472 0.1582521
vt 0.1048472 0.1582522
vt 0.1048472 0.1582521
vt 0.1048472 0.1582522
vt 0.1048472 0.1582521
vt 0.1048472 0.1582522
vt 0.1048472 0.1582521
vt 0.1048472 0.1582521
vt 0.1048472 0.1582521
vt 0.1048472 0.1582521
vt 0.1048472 0.1582521
vt 0.1048472 0.1582521
vn 0.4831946 0.09906205 0.8698907
vn 0.4831946 0.09906205 0.8698907
vn 0.4831946 0.09906205 0.8698907
vn 0.4831946 0.09906205 0.8698907
vn -0.5323456 -0.07980628 -0.8427569
vn -0.5323456 -0.07980628 -0.8427569
vn -0.5323457 -0.07980629 -0.8427569
vn -0.5323457 -0.0798063 -0.8427568
vn 0 -1 0
vn 0 -1 0
vn 0 -1 0
vn 0 -1 0
vn 0 -1 0
vn 0 -1 0
vn 0 -1 0
vn 0 -1 0
vn 0 -1 0
vn 0 -1 0
vn 1 0 0
vn 0.9997731 0 0.02130031
vn 0.9997731 0 0.02130031
vn 1 0 0
vn 0.9995876 0 -0.02871788
vn 0.9995876 0 -0.02871788
vn -1 0 0
vn -0.9994049 0 0.03449358
vn -0.9994049 0 0.03449358
vn -1 0 0
vn -0.9998205 0 -0.01894636
vn -0.9998205 0 -0.01894636
vn 0 1 0
vn 0 1 0
vn 0 1 0
vn 0 1 0
vn 0 1 0
vn 0 1 0
vn 0 1 0
vn 0 1 0
vn 0 1 0
vn 0 1 0
vn -0.4407819 0.07838716 0.8941849
vn -0.4407819 0.07838716 0.8941849
vn -0.4407819 0.07838718 0.8941849
vn -0.4407819 0.07838718 0.8941849
vn 0 0 1
vn 0 0 1
vn 0 0 1
vn 0 0 1
vn 0.3662827 0.218064 -0.9045911
vn 0.3662827 0.2180639 -0.9045911
vn 0.3662827 0.2180639 -0.9045911
vn 0.3662827 0.218064 -0.9045911
vn 0 4.894831E-05 -1
vn 0 4.894831E-05 -1
vn 0 4.894831E-05 -1
vn 0 4.894831E-05 -1
vn 0 1 0
vn 0 1 0
vn 0 1 0
vn 0 1 0
vn 0 1 0
vn 0 1 0
vn 0 1 0
vn 0 1 0
vn 0 1 0
vn 0 1 0
vn 0 1 0
vn 0 1 0
vn 0 1 0
vn 0 1 0
vn 0 1 0
vn 0 1 0
vn 0 1 0
vn 0 1 0
vn 0 1 0
vn 0 1 0
vn 0 1 0
vn 0 1 0
vn 0 1 0
vn 0 1 0
vn 0 1 0
vn 0 1 0
vn 0 1 0
vn 0 1 0
vn 0 1 0
vn 0 1 0
vn 0 1 0
vn 0 1 0
vn 0 1 0
vn 0 1 0
vn 0 1 0
vn 0 1 0
vn 0 1 0
vn 0 1 0
vn 0 1 0
vn 0 1 0
g SM_Prop_Rug_02_0
f 3/3/3 2/2/2 1/1/1
f 4/4/4 3/3/3 1/1/1
f 7/7/7 6/6/6 5/5/5
f 8/8/8 7/7/7 5/5/5
f 11/11/11 10/10/10 9/9/9
f 9/9/9 12/12/12 11/11/11
f 9/9/9 13/13/13 12/12/12
f 13/13/13 14/14/14 12/12/12
f 15/15/15 14/14/14 13/13/13
f 13/13/13 16/16/16 15/15/15
f 16/16/16 17/17/17 15/15/15
f 17/17/17 18/18/18 15/15/15
f 21/21/21 20/20/20 19/19/19
f 22/22/22 21/21/21 19/19/19
f 19/19/19 23/23/23 22/22/22
f 23/23/23 24/24/24 22/22/22
f 27/27/27 26/26/26 25/25/25
f 28/28/28 27/27/27 25/25/25
f 25/25/25 29/29/29 28/28/28
f 29/29/29 30/30/30 28/28/28
f 33/33/33 32/32/32 31/31/31
f 31/31/31 34/34/34 33/33/33
f 34/34/34 35/35/35 33/33/33
f 35/35/35 36/36/36 33/33/33
f 36/36/36 35/35/35 37/37/37
f 37/37/37 38/38/38 36/36/36
f 37/37/37 39/39/39 38/38/38
f 37/37/37 40/40/40 39/39/39
f 43/43/43 42/42/42 41/41/41
f 44/44/44 43/43/43 41/41/41
f 47/47/47 46/46/46 45/45/45
f 48/48/48 47/47/47 45/45/45
f 51/51/51 50/50/50 49/49/49
f 52/52/52 51/51/51 49/49/49
f 55/55/55 54/54/54 53/53/53
f 56/56/56 55/55/55 53/53/53
f 59/59/59 58/58/58 57/57/57
f 58/58/58 59/59/59 60/60/60
f 61/61/61 59/59/59 57/57/57
f 59/59/59 62/62/62 60/60/60
f 63/63/63 61/61/61 57/57/57
f 64/64/64 63/63/63 57/57/57
f 60/60/60 62/62/62 65/65/65
f 66/66/66 60/60/60 65/65/65
f 67/67/67 63/63/63 64/64/64
f 68/68/68 67/67/67 64/64/64
f 66/66/66 65/65/65 69/69/69
f 65/65/65 70/70/70 69/69/69
f 68/68/68 71/71/71 67/67/67
f 71/71/71 72/72/72 67/67/67
f 73/73/73 72/72/72 71/71/71
f 74/74/74 73/73/73 71/71/71
f 69/69/69 70/70/70 75/75/75
f 73/73/73 74/74/74 75/75/75
f 76/76/76 69/69/69 75/75/75
f 74/74/74 76/76/76 75/75/75
f 79/79/79 78/78/78 77/77/77
f 80/80/80 78/78/78 79/79/79
f 81/81/81 79/79/79 77/77/77
f 82/82/82 80/80/80 79/79/79
f 77/77/77 83/83/83 81/81/81
f 82/82/82 84/84/84 80/80/80
f 83/83/83 85/85/85 81/81/81
f 84/84/84 86/86/86 80/80/80
f 85/85/85 83/83/83 87/87/87
f 84/84/84 88/88/88 86/86/86
f 89/89/89 85/85/85 87/87/87
f 88/88/88 90/90/90 86/86/86
f 89/89/89 87/87/87 91/91/91
f 92/92/92 89/89/89 91/91/91
f 92/92/92 91/91/91 93/93/93
f 91/91/91 94/94/94 93/93/93
f 90/90/90 88/88/88 95/95/95
f 95/95/95 93/93/93 94/94/94
f 96/96/96 90/90/90 95/95/95
f 96/96/96 95/95/95 94/94/94
