g SM_Prop_Bookshelf_02
v -0.2465186 1.010586 0.146272
v -0.3730786 1.026045 0.146272
v -0.2404553 1.026045 0.09878418
v -0.09268676 1.026045 0.146272
v -0.2465186 1.010586 0.146272
v -0.2404553 1.026045 0.09878418
v 0.02111084 1.01164 0.146272
v -0.02353516 1.026045 0.146272
v 0.02635376 1.026045 0.1256384
v 0.07609375 1.026045 0.146272
v 0.02111084 1.01164 0.146272
v 0.02635376 1.026045 0.1256384
v 0.2421924 1.011948 -0.146272
v 0.3701379 1.026045 -0.146272
v 0.2375879 1.026045 -0.1093762
v 0.06432007 1.026045 -0.146272
v 0.2421924 1.011948 -0.146272
v 0.2375879 1.026045 -0.1093762
v 0.1656311 0.3495766 0.1255908
v 0.04059204 0.3656023 0.1255908
v 0.1802783 0.3656023 0.09494141
v 0.2672546 0.3656023 0.1255908
v 0.1656311 0.3495766 0.1255908
v 0.1802783 0.3656023 0.09494141
v -0.4287207 0.2077737 0.146272
v -0.4439148 0.1006221 0.146272
v -0.4439136 0.2041942 0.1273401
v -0.4439148 0.311932 0.146272
v -0.4287207 0.2077737 0.146272
v -0.4439136 0.2041942 0.1273401
v 0.4439136 0.6473246 0.146272
v 0.4439136 0.6062893 0.1105066
v 0.4256934 0.593141 0.146272
v 0.4439136 0.6062893 0.1105066
v 0.4439136 0.5374167 0.146272
v 0.4256934 0.593141 0.146272
v -0.4151172 0.6958237 -0.1222363
v 0.4151184 0.6958237 -0.1222363
v 0.4151184 0.6958237 0.1255908
v -0.4151172 0.6958237 0.1255908
v 0.4151184 0.6958237 0.1255908
v 0.4151184 0.6641546 0.1255908
v -0.4151172 0.6641546 0.1255908
v -0.4151172 0.6958237 0.1255908
v 0.4151184 0.6641546 0.1255908
v 0.4151184 0.6641546 -0.1222363
v -0.4151172 0.6641546 -0.1222363
v -0.4151172 0.6641546 0.1255908
v -0.4151172 0.3339334 0.1255908
v -0.4151172 0.3656023 0.1255908
v 0.04059204 0.3656023 0.1255908
v 0.1656311 0.3495766 0.1255908
v 0.4151184 0.3339334 0.1255908
v 0.4151184 0.3656023 0.1255908
v 0.2672546 0.3656023 0.1255908
v 0.4151184 0.3339334 0.1255908
v 0.4151184 0.3339334 -0.1222363
v -0.4151172 0.3339334 -0.1222363
v -0.4151172 0.3339334 0.1255908
v 0.2375879 1.026045 -0.1093762
v 0.07609375 1.026045 0.146272
v 0.02635376 1.026045 0.1256384
v 0.4439136 1.026045 0.146272
v 0.4439136 1.026045 -0.146272
v 0.3701379 1.026045 -0.146272
v 0.4439136 0 -0.146272
v 0.4439136 0 0.146272
v 0.4439136 0.5374167 0.146272
v 0.4439136 0.6062893 0.1105066
v 0.4439136 1.026045 -0.146272
v 0.4439136 0.6473246 0.146272
v 0.4439136 1.026045 0.146272
v 0.4439136 0 -0.146272
v -0.4439136 0 -0.146272
v -0.4439136 0 0.146272
v 0.4439136 0 0.146272
v -0.4151184 0.03166895 -0.1222351
v -0.4151184 0.9943759 -0.1222351
v 0.4151184 0.9943759 -0.1222351
v 0.4151184 0.03166895 -0.1222351
v 0.4439136 0 -0.146272
v 0.4439136 1.026045 -0.146272
v 0.3701379 1.026045 -0.146272
v 0.2421924 1.011948 -0.146272
v -0.4439136 0 -0.146272
v -0.4439136 1.026045 -0.146272
v 0.06432007 1.026045 -0.146272
v -0.4151184 0.03166895 0.146272
v -0.4151184 0.03166895 -0.1222351
v 0.4151184 0.03166895 -0.1222351
v 0.4151184 0.03166895 0.146272
v 0.4151184 0.03166895 0.146272
v 0.4151184 0.03166895 -0.1222351
v 0.4151184 0.9943759 -0.1222351
v 0.4151184 0.9943759 0.146272
v 0.4151184 0.9943759 0.146272
v 0.4151184 0.9943759 -0.1222351
v -0.4151184 0.9943759 -0.1222351
v -0.4151184 0.9943759 0.146272
v -0.4151184 0.9943759 0.146272
v -0.4151184 0.9943759 -0.1222351
v -0.4151184 0.03166895 -0.1222351
v -0.4151184 0.03166895 0.146272
v 0.02635376 1.026045 0.1256384
v -0.09268676 1.026045 0.146272
v -0.2404553 1.026045 0.09878418
v -0.02353516 1.026045 0.146272
v 0.06432007 1.026045 -0.146272
v 0.2375879 1.026045 -0.1093762
v 0.02635376 1.026045 0.1256384
v -0.2404553 1.026045 0.09878418
v -0.4439136 1.026045 -0.146272
v -0.3730786 1.026045 0.146272
v -0.4439136 1.026045 0.146272
v -0.2465186 1.010586 0.146272
v -0.09268676 1.026045 0.146272
v -0.02353516 1.026045 0.146272
v 0.02111084 1.01164 0.146272
v 0.4151184 0.9943759 0.146272
v 0.4439136 1.026045 0.146272
v 0.07609375 1.026045 0.146272
v 0.4439136 0.6473246 0.146272
v 0.4256934 0.593141 0.146272
v -0.4151184 0.9943759 0.146272
v -0.3730786 1.026045 0.146272
v -0.4439136 1.026045 0.146272
v 0.4151184 0.03166895 0.146272
v -0.4287207 0.2077737 0.146272
v -0.4439148 0.311932 0.146272
v -0.4151184 0.03166895 0.146272
v -0.4439148 0.1006221 0.146272
v -0.4439136 0 0.146272
v 0.4439136 0 0.146272
v 0.4439136 0.5374167 0.146272
v -0.4151172 0.3656023 -0.1222363
v 0.04059204 0.3656023 0.1255908
v -0.4151172 0.3656023 0.1255908
v 0.1802783 0.3656023 0.09494141
v 0.4151184 0.3656023 -0.1222363
v 0.2672546 0.3656023 0.1255908
v 0.4151184 0.3656023 0.1255908
v -0.4439136 0 -0.146272
v -0.4439148 0.1006221 0.146272
v -0.4439136 0 0.146272
v -0.4439136 0.2041942 0.1273401
v -0.4439136 1.026045 -0.146272
v -0.4439148 0.311932 0.146272
v -0.4439136 1.026045 0.146272
vt 0.02584988 0.3071333
vt 0.02584988 0.3071333
vt 0.02584988 0.3071333
vt 0.02584988 0.3071333
vt 0.02584988 0.3071333
vt 0.02584988 0.3071333
vt 0.02584988 0.3071333
vt 0.02584988 0.3071333
vt 0.02584988 0.3071333
vt 0.02584988 0.3071333
vt 0.02584988 0.3071333
vt 0.02584988 0.3071333
vt 0.02584988 0.3071333
vt 0.02584988 0.3071333
vt 0.02584988 0.3071333
vt 0.02584988 0.3071333
vt 0.02584988 0.3071333
vt 0.02584988 0.3071333
vt 0.02584988 0.3071333
vt 0.02584988 0.3071333
vt 0.02584988 0.3071333
vt 0.02584988 0.3071333
vt 0.02584988 0.3071333
vt 0.02584988 0.3071333
vt 0.02584988 0.3071333
vt 0.02584988 0.3071333
vt 0.02584988 0.3071333
vt 0.02584988 0.3071333
vt 0.02584988 0.3071333
vt 0.02584988 0.3071333
vt 0.02584988 0.3071333
vt 0.02584988 0.3071333
vt 0.02584988 0.3071333
vt 0.02584988 0.3071333
vt 0.02584988 0.3071333
vt 0.02584988 0.3071333
vt 0.02584988 0.3071333
vt 0.02584988 0.3071333
vt 0.02584988 0.3071333
vt 0.02584988 0.3071333
vt 0.02584988 0.3071333
vt 0.02584988 0.3071333
vt 0.02584988 0.3071333
vt 0.02584988 0.3071333
vt 0.02584988 0.3071333
vt 0.02584988 0.3071333
vt 0.02584988 0.3071333
vt 0.02584988 0.3071333
vt 0.02584988 0.3071333
vt 0.02584988 0.3071333
vt 0.02584988 0.3071333
vt 0.02584988 0.3071333
vt 0.02584988 0.3071333
vt 0.02584988 0.3071333
vt 0.02584988 0.3071333
vt 0.02584988 0.3071333
vt 0.02584988 0.3071333
vt 0.02584988 0.3071333
vt 0.02584988 0.3071333
vt 0.02584988 0.3071333
vt 0.02584988 0.3071333
vt 0.02584988 0.3071333
vt 0.02584988 0.3071333
vt 0.02584988 0.3071333
vt 0.02584988 0.3071333
vt 0.02584988 0.3071333
vt 0.02584988 0.3071333
vt 0.02584988 0.3071333
vt 0.02584988 0.3071333
vt 0.02584988 0.3071333
vt 0.02584988 0.3071333
vt 0.02584988 0.3071333
vt 0.02584988 0.3071333
vt 0.02584988 0.3071333
vt 0.02584988 0.3071333
vt 0.02584988 0.3071333
vt 0.02584988 0.3071333
vt 0.02584988 0.3071333
vt 0.02584988 0.3071333
vt 0.02584988 0.3071333
vt 0.02584988 0.3071333
vt 0.02584988 0.3071333
vt 0.02584988 0.3071333
vt 0.02584988 0.3071333
vt 0.02584988 0.3071333
vt 0.02584988 0.3071333
vt 0.02584988 0.3071333
vt 0.02584988 0.3071333
vt 0.02584988 0.3071333
vt 0.02584988 0.3071333
vt 0.02584988 0.3071333
vt 0.02584988 0.3071333
vt 0.02584988 0.3071333
vt 0.02584988 0.3071333
vt 0.02584988 0.3071333
vt 0.02584988 0.3071333
vt 0.02584988 0.3071333
vt 0.02584988 0.3071333
vt 0.02584988 0.3071333
vt 0.02584988 0.3071333
vt 0.02584988 0.3071333
vt 0.02584988 0.3071333
vt 0.02584988 0.3071333
vt 0.02584988 0.3071333
vt 0.02584988 0.3071333
vt 0.02584988 0.3071333
vt 0.02584988 0.3071333
vt 0.02584988 0.3071333
vt 0.02584988 0.3071333
vt 0.02584988 0.3071333
vt 0.02584988 0.3071333
vt 0.02584988 0.3071333
vt 0.02584988 0.3071333
vt 0.02584988 0.3071333
vt 0.02584988 0.3071333
vt 0.02584988 0.3071333
vt 0.02584988 0.3071333
vt 0.02584988 0.3071333
vt 0.02584988 0.3071333
vt 0.02584988 0.3071333
vt 0.02584988 0.3071333
vt 0.02584988 0.3071333
vt 0.02584988 0.3071333
vt 0.02584988 0.3071333
vt 0.02584988 0.3071333
vt 0.02584988 0.3071333
vt 0.02584988 0.3071333
vt 0.02584988 0.3071333
vt 0.02584988 0.3071333
vt 0.02584988 0.3071333
vt 0.02584988 0.3071333
vt 0.02584988 0.3071333
vt 0.02584988 0.3071333
vt 0.02584988 0.3071333
vt 0.02584988 0.3071333
vt 0.02584988 0.3071333
vt 0.02584988 0.3071333
vt 0.02584988 0.3071333
vt 0.02584988 0.3071333
vt 0.02584988 0.3071333
vt 0.02584988 0.3071333
vt 0.02584988 0.3071333
vt 0.02584988 0.3071333
vt 0.02584988 0.3071333
vt 0.02584988 0.3071333
vt 0.02584988 0.3071333
vt 0.02584988 0.3071333
vt 0.02584988 0.3071333
vn 0.114838 0.9401872 0.3207181
vn 0.114838 0.9401872 0.3207181
vn 0.114838 0.9401872 0.3207181
vn -0.09547205 0.950067 0.2970819
vn -0.09547205 0.950067 0.2970819
vn -0.09547205 0.950067 0.2970819
vn 0.2465399 0.764124 0.5960977
vn 0.2465399 0.764124 0.5960977
vn 0.2465399 0.764124 0.5960977
vn -0.2162667 0.8254895 0.5213405
vn -0.2162667 0.8254895 0.5213405
vn -0.2162667 0.8254895 0.5213405
vn -0.1019088 0.9249735 -0.3661129
vn -0.1019088 0.9249735 -0.3661129
vn -0.1019088 0.9249735 -0.3661129
vn 0.07406893 0.9346241 -0.3478385
vn 0.07406893 0.9346241 -0.3478385
vn 0.07406893 0.9346241 -0.3478385
vn 0.1099972 0.8582431 0.5013177
vn 0.1099972 0.8582431 0.5013177
vn 0.1099972 0.8582431 0.5013177
vn -0.1424725 0.9034591 0.4043058
vn -0.1424725 0.9034591 0.4043058
vn -0.1424725 0.9034591 0.4043058
vn -0.7852371 0.1113465 0.6091015
vn -0.7852371 0.1113465 0.6091015
vn -0.7852371 0.1113465 0.6091015
vn -0.7646483 -0.1115431 0.6347214
vn -0.7646483 -0.1115431 0.6347214
vn -0.7646483 -0.1115431 0.6347214
vn 0.8901893 -0.2993423 0.343449
vn 0.8901893 -0.2993423 0.343449
vn 0.8901893 -0.2993423 0.343449
vn 0.8155845 0.2666721 0.5135251
vn 0.8155845 0.2666721 0.5135251
vn 0.8155845 0.2666721 0.5135251
vn 0 1 0
vn 0 1 0
vn 0 1 0
vn 0 1 0
vn 0 0 1
vn 0 0 1
vn 0 0 1
vn 0 0 1
vn 0 -1 0
vn 0 -1 0
vn 0 -1 0
vn 0 -1 0
vn 0 0 1
vn 0 0 1
vn 0 0 1
vn 0 0 1
vn 0 0 1
vn 0 0 1
vn 0 0 1
vn 0 -1 0
vn 0 -1 0
vn 0 -1 0
vn 0 -1 0
vn 0 1 0
vn 0 1 0
vn 0 1 0
vn 0 1 0
vn 0 1 0
vn 0 1 0
vn 1 0 0
vn 1 0 0
vn 1 0 0
vn 1 0 0
vn 1 0 0
vn 1 0 0
vn 1 0 0
vn 0 -1 0
vn 0 -1 0
vn 0 -1 0
vn 0 -1 0
vn 0 0 1
vn 0 0 1
vn 0 0 1
vn 0 0 1
vn 0 0 -1
vn 0 0 -1
vn 0 0 -1
vn 0 0 -1
vn 0 0 -1
vn 0 0 -1
vn 0 0 -1
vn 0 1 0
vn 0 1 0
vn 0 1 0
vn 0 1 0
vn -1 0 0
vn -1 0 0
vn -1 0 0
vn -1 0 0
vn 0 -1 0
vn 0 -1 0
vn 0 -1 0
vn 0 -1 0
vn 1 0 0
vn 1 0 0
vn 1 0 0
vn 1 0 0
vn 0 1 0
vn 0 1 0
vn 0 1 0
vn 0 1 0
vn 0 1 0
vn 0 1 0
vn 0 1 0
vn 0 1 0
vn 0 1 0
vn 0 1 0
vn 0 1 0
vn 0 0 1
vn 0 0 1
vn 0 0 1
vn 0 0 1
vn 0 0 1
vn 0 0 1
vn 0 0 1
vn 0 0 1
vn 0 0 1
vn 0 0 1
vn 0 0 1
vn 0 0 1
vn 0 0 1
vn 0 0 1
vn 0 0 1
vn 0 0 1
vn 0 0 1
vn 0 0 1
vn 0 0 1
vn 0 0 1
vn 0 1 0
vn 0 1 0
vn 0 1 0
vn 0 1 0
vn 0 1 0
vn 0 1 0
vn 0 1 0
vn -1 0 0
vn -1 0 0
vn -1 0 0
vn -1 0 0
vn -1 0 0
vn -1 0 0
vn -1 0 0
g SM_Prop_Bookshelf_02_0
f 3/3/3 2/2/2 1/1/1
f 6/6/6 5/5/5 4/4/4
f 9/9/9 8/8/8 7/7/7
f 12/12/12 11/11/11 10/10/10
f 15/15/15 14/14/14 13/13/13
f 18/18/18 17/17/17 16/16/16
f 21/21/21 20/20/20 19/19/19
f 24/24/24 23/23/23 22/22/22
f 27/27/27 26/26/26 25/25/25
f 30/30/30 29/29/29 28/28/28
f 33/33/33 32/32/32 31/31/31
f 36/36/36 35/35/35 34/34/34
f 39/39/39 38/38/38 37/37/37
f 40/40/40 39/39/39 37/37/37
f 43/43/43 42/42/42 41/41/41
f 44/44/44 43/43/43 41/41/41
f 47/47/47 46/46/46 45/45/45
f 48/48/48 47/47/47 45/45/45
f 51/51/51 50/50/50 49/49/49
f 52/52/52 51/51/51 49/49/49
f 52/52/52 49/49/49 53/53/53
f 52/52/52 53/53/53 54/54/54
f 55/55/55 52/52/52 54/54/54
f 58/58/58 57/57/57 56/56/56
f 59/59/59 58/58/58 56/56/56
f 62/62/62 61/61/61 60/60/60
f 61/61/61 63/63/63 60/60/60
f 63/63/63 64/64/64 60/60/60
f 64/64/64 65/65/65 60/60/60
f 68/68/68 67/67/67 66/66/66
f 69/69/69 68/68/68 66/66/66
f 69/69/69 66/66/66 70/70/70
f 71/71/71 69/69/69 70/70/70
f 72/72/72 71/71/71 70/70/70
f 75/75/75 74/74/74 73/73/73
f 76/76/76 75/75/75 73/73/73
f 79/79/79 78/78/78 77/77/77
f 80/80/80 79/79/79 77/77/77
f 83/83/83 82/82/82 81/81/81
f 84/84/84 83/83/83 81/81/81
f 85/85/85 84/84/84 81/81/81
f 85/85/85 86/86/86 84/84/84
f 86/86/86 87/87/87 84/84/84
f 90/90/90 89/89/89 88/88/88
f 91/91/91 90/90/90 88/88/88
f 94/94/94 93/93/93 92/92/92
f 95/95/95 94/94/94 92/92/92
f 98/98/98 97/97/97 96/96/96
f 99/99/99 98/98/98 96/96/96
f 102/102/102 101/101/101 100/100/100
f 103/103/103 102/102/102 100/100/100
f 106/106/106 105/105/105 104/104/104
f 105/105/105 107/107/107 104/104/104
f 110/110/110 109/109/109 108/108/108
f 110/110/110 108/108/108 111/111/111
f 111/111/111 108/108/108 112/112/112
f 113/113/113 111/111/111 112/112/112
f 114/114/114 113/113/113 112/112/112
f 117/117/117 116/116/116 115/115/115
f 118/118/118 117/117/117 115/115/115
f 118/118/118 115/115/115 119/119/119
f 118/118/118 119/119/119 120/120/120
f 121/121/121 118/118/118 120/120/120
f 122/122/122 120/120/120 119/119/119
f 123/123/123 122/122/122 119/119/119
f 115/115/115 124/124/124 119/119/119
f 115/115/115 125/125/125 124/124/124
f 125/125/125 126/126/126 124/124/124
f 123/123/123 119/119/119 127/127/127
f 128/128/128 124/124/124 126/126/126
f 129/129/129 128/128/128 126/126/126
f 128/128/128 130/130/130 124/124/124
f 128/128/128 131/131/131 130/130/130
f 131/131/131 132/132/132 130/130/130
f 127/127/127 130/130/130 132/132/132
f 133/133/133 127/127/127 132/132/132
f 123/123/123 127/127/127 133/133/133
f 134/134/134 123/123/123 133/133/133
f 137/137/137 136/136/136 135/135/135
f 136/136/136 138/138/138 135/135/135
f 138/138/138 139/139/139 135/135/135
f 138/138/138 140/140/140 139/139/139
f 140/140/140 141/141/141 139/139/139
f 144/144/144 143/143/143 142/142/142
f 143/143/143 145/145/145 142/142/142
f 145/145/145 146/146/146 142/142/142
f 145/145/145 147/147/147 146/146/146
f 147/147/147 148/148/148 146/146/146
