g SM_Prop_Certificate_01
v 0.1735556 0.4068692 0.04177715
v 0.1520822 0.439632 0.04177715
v 0.1735556 0.439632 0.01304644
v -0.1492175 0.1023757 0.04177715
v -0.1735556 0.09904079 0.02998194
v -0.1735556 0.1431489 0.04177715
v -0.1492175 0.1023757 0.04177715
v -0.1735556 0.0504371 0.04177715
v -0.1735556 0.09904079 0.02998194
v -0.05456451 0.4258034 0
v 0.02798096 0.439632 0
v -0.05367493 0.439632 0.01737759
v -0.1007361 0.439632 0
v -0.05456451 0.4258034 0
v -0.05367493 0.439632 0.01737759
v -0.05367493 0.439632 0.01737759
v 0.02798096 0.439632 0
v 0.1735556 0.439632 0
v 0.1735556 0.439632 0.01304644
v 0.1520822 0.439632 0.04177715
v 0.1735556 0.439632 0
v 0.1735556 0.439632 0.01304644
v -0.05367493 0.439632 0.01737759
v -0.1380872 0.03090598 0.02932016
v -0.1380872 0.4029046 0.02932016
v 0.1380869 0.4029046 0.02932016
v 0.1380869 0.03090598 0.02932016
v -0.1735556 0.439632 0.04177715
v -0.05367493 0.439632 0.01737759
v 0.1520822 0.439632 0.04177715
v -0.1007361 0.439632 0
v -0.1735556 0.439632 0
v -0.1735556 -0.005821444 0
v 0.1735556 -0.005821444 0
v 0.1735556 0.439632 0
v 0.02798096 0.439632 0
v -0.05456451 0.4258034 0
v -0.1735556 0.439632 0
v -0.1007361 0.439632 0
v -0.1735556 -0.005821444 0
v -0.1735556 -0.005821444 0.04177715
v 0.1735556 -0.005821444 0.04177715
v 0.1735556 -0.005821444 0
v 0.1735556 0.439632 0
v 0.1735556 -0.005821444 0
v 0.1735556 -0.005821444 0.04177715
v 0.1735556 0.4068692 0.04177715
v 0.1735556 0.439632 0.01304644
v -0.1735556 0.439632 0.04177715
v -0.1492175 0.1023757 0.04177715
v -0.1735556 0.1431489 0.04177715
v -0.1492175 0.4152456 0.04177715
v 0.1520822 0.439632 0.04177715
v 0.1492175 0.4152456 0.04177715
v 0.1735556 0.4068692 0.04177715
v 0.1735556 -0.005821444 0.04177715
v 0.1492175 0.01856505 0.04177715
v -0.1735556 -0.005821444 0.04177715
v -0.1492175 0.01856505 0.04177715
v -0.1492175 0.1023757 0.04177715
v -0.1735556 0.0504371 0.04177715
v -0.1492175 0.01856505 0.04177715
v -0.1380872 0.03090598 0.02932016
v 0.1380869 0.03090598 0.02932016
v 0.1492175 0.01856505 0.04177715
v 0.1492175 0.01856505 0.04177715
v 0.1380869 0.03090598 0.02932016
v 0.1380869 0.4029046 0.02932016
v 0.1492175 0.4152456 0.04177715
v 0.1492175 0.4152456 0.04177715
v 0.1380869 0.4029046 0.02932016
v -0.1380872 0.4029046 0.02932016
v -0.1492175 0.4152456 0.04177715
v -0.1492175 0.4152456 0.04177715
v -0.1380872 0.4029046 0.02932016
v -0.1380872 0.03090598 0.02932016
v -0.1492175 0.1023757 0.04177715
v -0.1492175 0.01856505 0.04177715
v -0.1735556 -0.005821444 0
v -0.1735556 0.0504371 0.04177715
v -0.1735556 -0.005821444 0.04177715
v -0.1735556 0.09904079 0.02998194
v -0.1735556 0.439632 0
v -0.1735556 0.1431489 0.04177715
v -0.1735556 0.439632 0.04177715
vt 0.02599049 0.252421
vt 0.02601961 0.2523627
vt 0.02600623 0.2523502
vt 0.02663924 0.2531056
vt 0.02670392 0.2531096
vt 0.02671082 0.2530093
vt 0.02663924 0.2531056
vt 0.02670319 0.2532213
vt 0.02670392 0.2531096
vt 0.02655363 0.2523746
vt 0.02642277 0.2523512
vt 0.02652539 0.252354
vt 0.0266283 0.2523512
vt 0.02655363 0.2523746
vt 0.02652539 0.252354
vt 0.02652539 0.252354
vt 0.02642277 0.2523512
vt 0.02601457 0.2523513
vt 0.02600623 0.2523502
vt 0.02601961 0.2523627
vt 0.02601457 0.2523513
vt 0.02600623 0.2523502
vt 0.02652539 0.252354
vt 0.1412818 0.07983886
vt 0.1412818 0.1749908
vt 0.2085033 0.1749908
vt 0.2085033 0.07983886
vt 0.02673464 0.2523475
vt 0.02652539 0.252354
vt 0.02601961 0.2523627
vt 0.0266283 0.2523512
vt 0.02671086 0.2523512
vt 0.02667921 0.2532891
vt 0.02604574 0.2532865
vt 0.02601457 0.2523513
vt 0.02642277 0.2523512
vt 0.02655363 0.2523746
vt 0.02671086 0.2523512
vt 0.0266283 0.2523512
vt 0.02667921 0.2532891
vt 0.02669864 0.2533475
vt 0.02602363 0.2533446
vt 0.02604574 0.2532865
vt 0.02601457 0.2523513
vt 0.02604574 0.2532865
vt 0.02602363 0.2533446
vt 0.02599049 0.252421
vt 0.02600623 0.2523502
vt 0.02673464 0.2523475
vt 0.02663924 0.2531056
vt 0.02671082 0.2530093
vt 0.02665918 0.2524166
vt 0.02601961 0.2523627
vt 0.02606285 0.2524166
vt 0.02599049 0.252421
vt 0.02602363 0.2533446
vt 0.026088 0.2532879
vt 0.02669864 0.2533475
vt 0.0266339 0.2532902
vt 0.02663924 0.2531056
vt 0.02670319 0.2532213
vt 0.0266339 0.2532902
vt 0.02660032 0.2532484
vt 0.02612227 0.2532464
vt 0.026088 0.2532879
vt 0.026088 0.2532879
vt 0.02612227 0.2532464
vt 0.02610219 0.2524452
vt 0.02606285 0.2524166
vt 0.02606285 0.2524166
vt 0.02610219 0.2524452
vt 0.02662062 0.2524452
vt 0.02665918 0.2524166
vt 0.02665918 0.2524166
vt 0.02662062 0.2524452
vt 0.02660032 0.2532484
vt 0.02663924 0.2531056
vt 0.0266339 0.2532902
vt 0.02667921 0.2532891
vt 0.02670319 0.2532213
vt 0.02669864 0.2533475
vt 0.02670392 0.2531096
vt 0.02671086 0.2523512
vt 0.02671082 0.2530093
vt 0.02673464 0.2523475
vn 0.709205 0.4648266 0.5300609
vn 0.709205 0.4648265 0.530061
vn 0.7092049 0.4648266 0.5300611
vn -0.3971878 -0.2370869 0.8865843
vn -0.3971878 -0.2370869 0.8865843
vn -0.3971878 -0.2370869 0.8865842
vn -0.4495599 0.2106607 0.8680542
vn -0.4495599 0.2106607 0.8680542
vn -0.4495599 0.2106607 0.8680542
vn -0.1305093 0.7790306 -0.6132525
vn -0.1305093 0.7790306 -0.6132525
vn -0.1305093 0.7790306 -0.6132525
vn 0.2265607 0.7564479 -0.6135608
vn 0.2265607 0.7564479 -0.6135608
vn 0.2265607 0.7564479 -0.6135608
vn 0 1 0
vn 0 1 0
vn 0 1 0
vn 0 1 0
vn 0 1 0
vn 0 1 0
vn 0 1 0
vn 0 1 0
vn 0 0 1
vn 0 0 1
vn 0 0 1
vn 0 0 1
vn 0 1 0
vn 0 1 0
vn 0 1 0
vn 0 1 0
vn 0 1 0
vn 0 0 -1
vn 0 0 -1
vn 0 0 -1
vn 0 0 -1
vn 0 0 -1
vn 0 0 -1
vn 0 0 -1
vn 0 -1 0
vn 0 -1 0
vn 0 -1 0
vn 0 -1 0
vn 1 0 0
vn 1 0 0
vn 1 0 0
vn 1 0 0
vn 1 0 0
vn 0 0 1
vn 0 0 1
vn 0 0 1
vn 0 0 1
vn 0 0 1
vn 0 0 1
vn 0 0 1
vn 0 0 1
vn 0 0 1
vn 0 0 1
vn 0 0 1
vn 0 0 1
vn 0 0 1
vn 0 0.7104086 0.7037894
vn 0 0.7104086 0.7037894
vn 0 0.7104086 0.7037894
vn 0 0.7104086 0.7037895
vn -0.7456888 0 0.6662945
vn -0.7456889 0 0.6662944
vn -0.7456889 0 0.6662944
vn -0.7456889 0 0.6662944
vn 0 -0.7104074 0.7037907
vn 0 -0.7104074 0.7037907
vn 0 -0.7104074 0.7037907
vn 0 -0.7104074 0.7037908
vn 0.7456979 0 0.6662842
vn 0.7456979 0 0.6662842
vn 0.7456979 0 0.6662842
vn 0.7456979 0 0.6662842
vn 0.7456979 0 0.6662842
vn -1 0 0
vn -1 0 0
vn -1 0 0
vn -1 0 0
vn -1 0 0
vn -1 0 0
vn -1 0 0
g SM_Prop_Certificate_01_0
f 3/3/3 2/2/2 1/1/1
f 6/6/6 5/5/5 4/4/4
f 9/9/9 8/8/8 7/7/7
f 12/12/12 11/11/11 10/10/10
f 15/15/15 14/14/14 13/13/13
f 18/18/18 17/17/17 16/16/16
f 16/16/16 20/20/20 19/19/19
f 23/23/23 22/22/22 21/21/21
f 26/26/26 25/25/25 24/24/24
f 27/27/27 26/26/26 24/24/24
f 30/30/30 29/29/29 28/28/28
f 29/29/29 31/31/31 28/28/28
f 31/31/31 32/32/32 28/28/28
f 35/35/35 34/34/34 33/33/33
f 33/33/33 36/36/36 35/35/35
f 33/33/33 37/37/37 36/36/36
f 37/37/37 33/33/33 38/38/38
f 39/39/39 37/37/37 38/38/38
f 42/42/42 41/41/41 40/40/40
f 43/43/43 42/42/42 40/40/40
f 46/46/46 45/45/45 44/44/44
f 44/44/44 47/47/47 46/46/46
f 44/44/44 48/48/48 47/47/47
f 51/51/51 50/50/50 49/49/49
f 50/50/50 52/52/52 49/49/49
f 49/49/49 52/52/52 53/53/53
f 52/52/52 54/54/54 53/53/53
f 55/55/55 53/53/53 54/54/54
f 55/55/55 54/54/54 56/56/56
f 54/54/54 57/57/57 56/56/56
f 56/56/56 57/57/57 58/58/58
f 57/57/57 59/59/59 58/58/58
f 58/58/58 59/59/59 60/60/60
f 61/61/61 58/58/58 60/60/60
f 64/64/64 63/63/63 62/62/62
f 65/65/65 64/64/64 62/62/62
f 68/68/68 67/67/67 66/66/66
f 69/69/69 68/68/68 66/66/66
f 72/72/72 71/71/71 70/70/70
f 73/73/73 72/72/72 70/70/70
f 76/76/76 75/75/75 74/74/74
f 77/77/77 76/76/76 74/74/74
f 77/77/77 78/78/78 76/76/76
f 81/81/81 80/80/80 79/79/79
f 80/80/80 82/82/82 79/79/79
f 82/82/82 83/83/83 79/79/79
f 82/82/82 84/84/84 83/83/83
f 84/84/84 85/85/85 83/83/83
