g SM_Prop_Drop_Saw_01_Slide
v 0.5482225 -0.02319092 0.09786743
v 0.5482225 0.02319076 0.09786743
v 0.5482225 0.04638168 0.05769958
v 0.5482225 0.02319076 0.01753235
v 0.5482225 -0.04638168 0.01753235
v 0.5482225 -0.04638168 0.05769958
v 0.5817175 -0.02319092 0.09786743
v 0.5817175 0.02319076 0.09786743
v 0.5817175 0.04638168 0.05769958
v 0.5817175 0.02319076 0.01753235
v 0.5817175 -0.04638168 0.01753235
v 0.5817175 -0.04638168 0.05769958
v 0.5482225 -0.02319092 -0.09786712
v 0.5482225 0.02319076 -0.09786712
v 0.5482225 0.04638168 -0.05769989
v 0.5482225 0.02319076 -0.01753205
v 0.5482225 -0.04638168 -0.01753205
v 0.5482225 -0.04638168 -0.05769989
v 0.5817175 -0.02319092 -0.09786712
v 0.5817175 0.02319076 -0.09786712
v 0.5817175 0.04638168 -0.05769989
v 0.5817175 0.02319076 -0.01753205
v 0.5817175 -0.04638168 -0.01753205
v 0.5817175 -0.04638168 -0.05769989
v 0.03209408 -0.01397381 0.08190275
v 0.03209408 0.01397369 0.08190275
v 0.03209408 0.02794744 0.05769944
v 0.03209408 0.01397369 0.03349647
v 0.03209408 -0.01397381 0.03349647
v 0.03209408 -0.02794746 0.05769944
v 0.5612471 -0.01397381 0.08190275
v 0.5612471 0.01397369 0.08190275
v 0.5612471 0.02794744 0.05769944
v 0.5612471 0.01397369 0.03349647
v 0.5612471 -0.01397381 0.03349647
v 0.5612471 -0.02794746 0.05769944
v 0.03209408 -0.01397381 -0.08190302
v 0.03209408 0.01397369 -0.08190302
v 0.03209408 0.02794744 -0.05770005
v 0.03209408 0.01397369 -0.03349674
v 0.03209408 -0.01397381 -0.03349674
v 0.03209408 -0.02794746 -0.05770005
v 0.5612471 -0.01397381 -0.08190302
v 0.5612471 0.01397369 -0.08190302
v 0.5612471 0.02794744 -0.05770005
v 0.5612471 0.01397369 -0.03349674
v 0.5612471 -0.01397381 -0.03349674
v 0.5612471 -0.02794746 -0.05770005
v -0.05808718 -0.02319092 0.09786743
v -0.05808718 0.02319076 0.09786743
v -0.05808718 0.04638168 0.05769958
v -0.05808718 -0.04638168 0.05769958
v 0.05808714 -0.02319092 0.09786743
v 0.05808714 0.02319076 0.09786743
v 0.05808714 0.04638168 0.05769958
v 0.05808714 -0.04638168 0.05769958
v -0.05808718 -0.02319092 -0.09786712
v -0.05808718 0.02319076 -0.09786712
v -0.05808718 0.04638168 -0.05769989
v -0.05808718 -0.04638168 -0.05769989
v 0.05808714 -0.02319092 -0.09786712
v 0.05808714 0.02319076 -0.09786712
v 0.05808714 0.04638168 -0.05769989
v 0.05808714 -0.04638168 -0.05769989
v 0.5482225 0.02319076 0.09786743
v 0.5817175 0.02319076 0.09786743
v 0.5482225 0.04638168 0.05769958
v 0.5817175 0.04638168 0.05769958
v 0.5482225 -0.02319092 0.09786743
v 0.5817175 -0.02319092 0.09786743
v 0.5482225 -0.02319092 0.09786743
v 0.5482225 -0.04638168 0.05769958
v 0.5482225 0.04638168 0.05769958
v 0.5482225 0.02319076 0.09786743
v 0.5817175 0.04638168 0.05769958
v 0.5817175 0.02319076 0.01753235
v 0.5817175 -0.04638168 0.01753235
v 0.5817175 -0.04638168 0.05769958
v 0.5482225 0.02319076 -0.09786712
v 0.5817175 0.02319076 -0.09786712
v 0.5482225 0.04638168 -0.05769989
v 0.5817175 0.04638168 -0.05769989
v 0.5817175 -0.02319092 -0.09786712
v 0.5482225 -0.02319092 -0.09786712
v 0.5482225 0.04638168 -0.05769989
v 0.5482225 0.02319076 -0.01753205
v 0.5482225 -0.04638168 -0.01753205
v 0.5482225 -0.04638168 -0.05769989
v 0.5817175 -0.02319092 -0.09786712
v 0.5817175 -0.04638168 -0.05769989
v 0.5817175 0.04638168 -0.05769989
v 0.5817175 0.02319076 -0.09786712
v 0.5482225 -0.04638168 0.01753235
v 0.5482225 0.02319076 0.01753235
v 0.5817175 0.02319076 -0.01753205
v 0.5817175 -0.04638168 -0.01753205
v 0.5482225 -0.02319092 -0.09786712
v 0.5482225 0.02319076 -0.09786712
v 0.5817175 -0.02319092 0.09786743
v 0.5817175 0.02319076 0.09786743
v 0.03209408 0.01397369 0.08190275
v 0.5612471 0.01397369 0.08190275
v 0.03209408 0.02794744 0.05769944
v 0.5612471 0.02794744 0.05769944
v 0.03209408 0.01397369 0.03349647
v 0.5612471 0.01397369 0.03349647
v 0.03209408 -0.01397381 0.03349647
v 0.5612471 -0.01397381 0.03349647
v 0.03209408 -0.02794746 0.05769944
v 0.03209408 -0.01397381 0.08190275
v 0.5612471 -0.01397381 0.08190275
v 0.5612471 -0.02794746 0.05769944
v 0.03209408 -0.01397381 0.08190275
v 0.03209408 -0.02794746 0.05769944
v 0.03209408 -0.01397381 0.03349647
v 0.03209408 0.01397369 0.08190275
v 0.03209408 0.01397369 0.03349647
v 0.03209408 0.02794744 0.05769944
v 0.5612471 -0.01397381 0.03349647
v 0.5612471 -0.02794746 0.05769944
v 0.5612471 -0.01397381 0.08190275
v 0.5612471 0.01397369 0.03349647
v 0.5612471 0.01397369 0.08190275
v 0.5612471 0.02794744 0.05769944
v 0.03209408 0.01397369 -0.08190302
v 0.5612471 0.01397369 -0.08190302
v 0.03209408 0.02794744 -0.05770005
v 0.5612471 0.02794744 -0.05770005
v 0.03209408 0.01397369 -0.03349674
v 0.5612471 0.01397369 -0.03349674
v 0.03209408 -0.01397381 -0.03349674
v 0.5612471 -0.01397381 -0.03349674
v 0.03209408 -0.02794746 -0.05770005
v 0.5612471 -0.02794746 -0.05770005
v 0.5612471 -0.01397381 -0.08190302
v 0.03209408 -0.01397381 -0.08190302
v 0.03209408 -0.01397381 -0.03349674
v 0.03209408 -0.02794746 -0.05770005
v 0.03209408 -0.01397381 -0.08190302
v 0.03209408 0.01397369 -0.03349674
v 0.03209408 0.01397369 -0.08190302
v 0.03209408 0.02794744 -0.05770005
v 0.5612471 -0.01397381 -0.08190302
v 0.5612471 -0.02794746 -0.05770005
v 0.5612471 -0.01397381 -0.03349674
v 0.5612471 0.01397369 -0.08190302
v 0.5612471 0.01397369 -0.03349674
v 0.5612471 0.02794744 -0.05770005
v -0.05808718 0.02319076 0.09786743
v 0.05808714 0.02319076 0.09786743
v -0.05808718 -0.02319092 0.09786743
v 0.05808714 -0.02319092 0.09786743
v -0.05808718 -0.02319092 0.09786743
v -0.05808718 -0.04638168 0.05769958
v -0.05808718 0.04638168 0.05769958
v -0.05808718 0.02319076 0.09786743
v -0.05808718 0.02319076 -0.09786712
v 0.05808714 0.02319076 -0.09786712
v 0.05808714 0.04638168 0.05769958
v -0.05808718 0.04638168 0.05769958
v -0.05808718 -0.04638168 -0.05769989
v 0.05808714 -0.04638168 -0.05769989
v 0.05808714 -0.02319092 -0.09786712
v -0.05808718 -0.02319092 -0.09786712
v 0.05808714 -0.02319092 -0.09786712
v 0.05808714 -0.04638168 -0.05769989
v 0.05808714 0.04638168 -0.05769989
v 0.05808714 0.02319076 -0.09786712
v -0.05808718 -0.02319092 -0.09786712
v -0.05808718 0.02319076 -0.09786712
v -0.05808718 0.04638168 -0.05769989
v -0.05808718 -0.04638168 -0.05769989
v 0.05808714 -0.02319092 0.09786743
v 0.05808714 0.02319076 0.09786743
v 0.05808714 0.04638168 0.05769958
v 0.05808714 -0.04638168 0.05769958
vt 0.2297582 0.3026599
vt 0.229751 0.3024008
vt 0.2298775 0.3023875
vt 0.2300149 0.3026505
vt 0.2300181 0.3030452
vt 0.2298871 0.3029126
vt 0.2299486 0.302601
vt 0.2299452 0.3023435
vt 0.2300768 0.3023284
vt 0.2302152 0.3025877
vt 0.2302123 0.3029801
vt 0.2300784 0.3028504
vt 0.2304332 0.3033285
vt 0.2304403 0.3030528
vt 0.2302873 0.3027657
vt 0.230138 0.3027669
vt 0.2301374 0.303166
vt 0.2302802 0.3033104
vt 0.2306381 0.3032548
vt 0.2306497 0.3029808
vt 0.2304957 0.3026981
vt 0.230341 0.3027016
vt 0.2303342 0.3030983
vt 0.2304799 0.3032395
vt 0.132498 0.3746324
vt 0.132498 0.3745887
vt 0.1324745 0.374587
vt 0.1324508 0.3746302
vt 0.1324512 0.3746744
vt 0.1324749 0.3746749
vt 0.133443 0.3749382
vt 0.1334509 0.3748913
vt 0.1334381 0.3748938
vt 0.133417 0.3749445
vt 0.1334093 0.374992
vt 0.1334224 0.3749881
vt 0.1324521 0.3746554
vt 0.1324508 0.3746116
vt 0.1324754 0.3745676
vt 0.1325005 0.374568
vt 0.1325014 0.3746113
vt 0.1324775 0.3746547
vt 0.1334077 0.374992
vt 0.1334148 0.374945
vt 0.1334366 0.3748927
vt 0.1334509 0.3748883
vt 0.1334436 0.3749348
vt 0.1334223 0.3749861
vt 0.1341753 0.2764592
vt 0.1341758 0.2762266
vt 0.1341622 0.2761793
vt 0.1341617 0.2766585
vt 0.1349938 0.2764794
vt 0.1350068 0.2762452
vt 0.13503 0.2761982
vt 0.1350025 0.2766811
vt 0.1340991 0.2769235
vt 0.1340983 0.2766525
vt 0.1341165 0.276417
vt 0.1341174 0.2769415
vt 0.1350811 0.2769527
vt 0.1350983 0.2766793
vt 0.1350849 0.2764406
vt 0.1350525 0.2769695
vt 0.229751 0.3024008
vt 0.2299452 0.3023435
vt 0.2298775 0.3023875
vt 0.2300768 0.3023284
vt 0.2297582 0.3026599
vt 0.2299486 0.302601
vt 0.2297582 0.3026599
vt 0.2298871 0.3029126
vt 0.2298775 0.3023875
vt 0.229751 0.3024008
vt 0.2300768 0.3023284
vt 0.2302152 0.3025877
vt 0.2302123 0.3029801
vt 0.2300784 0.3028504
vt 0.2304403 0.3030528
vt 0.2306497 0.3029808
vt 0.2302873 0.3027657
vt 0.2304957 0.3026981
vt 0.2306381 0.3032548
vt 0.2304332 0.3033285
vt 0.2302873 0.3027657
vt 0.230138 0.3027669
vt 0.2301374 0.303166
vt 0.2302802 0.3033104
vt 0.2306381 0.3032548
vt 0.2304799 0.3032395
vt 0.2304957 0.3026981
vt 0.2306497 0.3029808
vt 0.2300181 0.3030452
vt 0.2300149 0.3026505
vt 0.230341 0.3027016
vt 0.2303342 0.3030983
vt 0.2304332 0.3033285
vt 0.2304403 0.3030528
vt 0.2299486 0.302601
vt 0.2299452 0.3023435
vt 0.132498 0.3745887
vt 0.1334509 0.3748913
vt 0.1324745 0.374587
vt 0.1334381 0.3748938
vt 0.1324508 0.3746302
vt 0.133417 0.3749445
vt 0.1324512 0.3746744
vt 0.1334093 0.374992
vt 0.1324749 0.3746749
vt 0.132498 0.3746324
vt 0.133443 0.3749382
vt 0.1334224 0.3749881
vt 0.132498 0.3746324
vt 0.1324749 0.3746749
vt 0.1324512 0.3746744
vt 0.132498 0.3745887
vt 0.1324508 0.3746302
vt 0.1324745 0.374587
vt 0.1334093 0.374992
vt 0.1334224 0.3749881
vt 0.133443 0.3749382
vt 0.133417 0.3749445
vt 0.1334509 0.3748913
vt 0.1334381 0.3748938
vt 0.1324508 0.3746116
vt 0.1334148 0.374945
vt 0.1324754 0.3745676
vt 0.1334366 0.3748927
vt 0.1325005 0.374568
vt 0.1334509 0.3748883
vt 0.1325014 0.3746113
vt 0.1334436 0.3749348
vt 0.1324775 0.3746547
vt 0.1334223 0.3749861
vt 0.1334077 0.374992
vt 0.1324521 0.3746554
vt 0.1325014 0.3746113
vt 0.1324775 0.3746547
vt 0.1324521 0.3746554
vt 0.1325005 0.374568
vt 0.1324508 0.3746116
vt 0.1324754 0.3745676
vt 0.1334077 0.374992
vt 0.1334223 0.3749861
vt 0.1334436 0.3749348
vt 0.1334148 0.374945
vt 0.1334509 0.3748883
vt 0.1334366 0.3748927
vt 0.1341758 0.2762266
vt 0.1350068 0.2762452
vt 0.1341753 0.2764592
vt 0.1349938 0.2764794
vt 0.1341753 0.2764592
vt 0.1341617 0.2766585
vt 0.1341622 0.2761793
vt 0.1341758 0.2762266
vt 0.1340983 0.2766525
vt 0.1350983 0.2766793
vt 0.13503 0.2761982
vt 0.1341622 0.2761793
vt 0.1341174 0.2769415
vt 0.1350525 0.2769695
vt 0.1350811 0.2769527
vt 0.1340991 0.2769235
vt 0.1350811 0.2769527
vt 0.1350525 0.2769695
vt 0.1350849 0.2764406
vt 0.1350983 0.2766793
vt 0.1340991 0.2769235
vt 0.1340983 0.2766525
vt 0.1341165 0.276417
vt 0.1341174 0.2769415
vt 0.1349938 0.2764794
vt 0.1350068 0.2762452
vt 0.13503 0.2761982
vt 0.1350025 0.2766811
vn 0 0 1
vn 0 0 1
vn 0 0.8660254 0.5000001
vn 0 0.9556263 -0.2945816
vn 0 -1 0
vn 0 -0.9607688 0.2773503
vn 0 0 1
vn 0 0 1
vn 0 0.8660254 0.5000001
vn 0 0.9556263 -0.2945816
vn 0 -1 0
vn 0 -0.9607688 0.2773503
vn 0 0 -1
vn 0 0 -1
vn 0 0.8660221 -0.5000057
vn 0 0.9556271 0.2945795
vn 0 -1 0
vn 0 -0.9607688 -0.2773504
vn 0 0 -1
vn 0 0 -1
vn 0 0.8660221 -0.5000057
vn 0 0.9556271 0.2945795
vn 0 -1 0
vn 0 -0.9607688 -0.2773504
vn 0 0 1
vn 0 0 1
vn 0 0.866026 0.499999
vn 0 0.8660229 -0.5000042
vn 0 0 -1
vn 0 -0.8660244 -0.5000017
vn 0 0 1
vn 0 0 1
vn 0 0.866026 0.499999
vn 0 0.8660229 -0.5000042
vn 0 0 -1
vn 0 -0.8660244 -0.5000017
vn 0 0 -1
vn 0 0 -1
vn 0 0.8660229 -0.5000044
vn 0 0.866026 0.499999
vn 0 0 1
vn 0 -0.8660275 0.4999965
vn 0 0 -1
vn 0 0 -1
vn 0 0.8660229 -0.5000044
vn 0 0.866026 0.499999
vn 0 0 1
vn 0 -0.8660275 0.4999965
vn 0 0 1
vn 0 0 1
vn 0 0.9890704 0.1474439
vn 0 -0.9890705 0.147443
vn 0 0 1
vn 0 0 1
vn 0 0.9890704 0.1474439
vn 0 -0.9890705 0.147443
vn 0 0 -1
vn 0 0 -1
vn 0 0.9890703 -0.1474444
vn 0 -0.9890704 -0.1474435
vn 0 0 -1
vn 0 0 -1
vn 0 0.9890703 -0.1474444
vn 0 -0.9890704 -0.1474435
vn 0 0.8660254 0.5000001
vn 0 0.8660254 0.5000001
vn 0 0.8660221 -0.5000057
vn 0 0.8660221 -0.5000057
vn 0 -0.8660269 0.4999975
vn 0 -0.8660269 0.4999975
vn -1 0 0
vn -1 0 0
vn -1 0 0
vn -1 0 0
vn 1 0 0
vn 1 0 0
vn 1 0 0
vn 1 0 0
vn 0 0.8660221 -0.5000057
vn 0 0.8660221 -0.5000057
vn 0 0.8660254 0.5000001
vn 0 0.8660254 0.5000001
vn 0 -0.8660235 -0.5000033
vn 0 -0.8660235 -0.5000033
vn -1 0 0
vn -1 0 0
vn -1 0 0
vn -1 0 0
vn 1 0 0
vn 1 0 0
vn 1 0 0
vn 1 0 0
vn -1 0 0
vn -1 0 0
vn 1 0 0
vn 1 0 0
vn -1 0 0
vn -1 0 0
vn 1 0 0
vn 1 0 0
vn 0 0.866026 0.499999
vn 0 0.866026 0.499999
vn 0 0.8660229 -0.5000042
vn 0 0.8660229 -0.5000042
vn 0 0 -1
vn 0 0 -1
vn 0 -0.8660244 -0.5000017
vn 0 -0.8660244 -0.5000017
vn 0 -0.8660275 0.4999965
vn 0 -0.8660275 0.4999965
vn 0 -0.8660275 0.4999965
vn 0 -0.8660275 0.4999965
vn -1 0 0
vn -1 0 0
vn -1 0 0
vn -1 0 0
vn -1 0 0
vn -1 0 0
vn 1 0 0
vn 1 0 0
vn 1 0 0
vn 1 0 0
vn 1 0 0
vn 1 0 0
vn 0 0.8660229 -0.5000044
vn 0 0.8660229 -0.5000044
vn 0 0.866026 0.499999
vn 0 0.866026 0.499999
vn 0 0 1
vn 0 0 1
vn 0 -0.8660275 0.4999965
vn 0 -0.8660275 0.4999965
vn 0 -0.8660244 -0.5000018
vn 0 -0.8660244 -0.5000018
vn 0 -0.8660244 -0.5000018
vn 0 -0.8660244 -0.5000018
vn -1 0 0
vn -1 0 0
vn -1 0 0
vn -1 0 0
vn -1 0 0
vn -1 0 0
vn 1 0 0
vn 1 0 0
vn 1 0 0
vn 1 0 0
vn 1 0 0
vn 1 0 0
vn 0 0.8660253 0.5000001
vn 0 0.8660253 0.5000001
vn 0 -0.8660269 0.4999976
vn 0 -0.8660269 0.4999976
vn -1 0 0
vn -1 0 0
vn -1 0 0
vn -1 0 0
vn 0 0.8660221 -0.5000057
vn 0 0.8660221 -0.5000057
vn 0 0.9890704 0.1474439
vn 0 0.9890704 0.1474439
vn 0 -0.9890704 -0.1474435
vn 0 -0.9890704 -0.1474435
vn 0 -0.8660235 -0.5000033
vn 0 -0.8660235 -0.5000033
vn 1 0 0
vn 1 0 0
vn 1 0 0
vn 1 0 0
vn -1 0 0
vn -1 0 0
vn -1 0 0
vn -1 0 0
vn 1 0 0
vn 1 0 0
vn 1 0 0
vn 1 0 0
g SM_Prop_Drop_Saw_01_Slide_0
f 8/8/8 2/2/2 1/1/1
f 7/7/7 8/8/8 1/1/1
f 9/9/9 3/3/3 65/65/65
f 66/66/66 9/9/9 65/65/65
f 68/68/68 10/10/10 67/67/67
f 10/10/10 4/4/4 67/67/67
f 10/10/10 22/22/22 4/4/4
f 22/22/22 16/16/16 4/4/4
f 16/16/16 22/22/22 81/81/81
f 22/22/22 82/82/82 81/81/81
f 70/70/70 69/69/69 6/6/6
f 12/12/12 70/70/70 6/6/6
f 12/12/12 6/6/6 5/5/5
f 11/11/11 12/12/12 5/5/5
f 5/5/5 17/17/17 11/11/11
f 17/17/17 23/23/23 11/11/11
f 24/24/24 23/23/23 17/17/17
f 18/18/18 24/24/24 17/17/17
f 83/83/83 24/24/24 18/18/18
f 84/84/84 83/83/83 18/18/18
f 74/74/74 73/73/73 71/71/71
f 73/73/73 72/72/72 71/71/71
f 73/73/73 94/94/94 72/72/72
f 94/94/94 93/93/93 72/72/72
f 94/94/94 86/86/86 93/93/93
f 86/86/86 87/87/87 93/93/93
f 87/87/87 86/86/86 85/85/85
f 88/88/88 87/87/87 85/85/85
f 88/88/88 85/85/85 97/97/97
f 85/85/85 98/98/98 97/97/97
f 20/20/20 19/19/19 13/13/13
f 14/14/14 20/20/20 13/13/13
f 21/21/21 80/80/80 79/79/79
f 15/15/15 21/21/21 79/79/79
f 92/92/92 91/91/91 89/89/89
f 91/91/91 90/90/90 89/89/89
f 91/91/91 95/95/95 90/90/90
f 95/95/95 96/96/96 90/90/90
f 96/96/96 95/95/95 76/76/76
f 77/77/77 96/96/96 76/76/76
f 77/77/77 76/76/76 75/75/75
f 78/78/78 77/77/77 75/75/75
f 78/78/78 75/75/75 99/99/99
f 75/75/75 100/100/100 99/99/99
f 32/32/32 26/26/26 25/25/25
f 31/31/31 32/32/32 25/25/25
f 33/33/33 27/27/27 101/101/101
f 102/102/102 33/33/33 101/101/101
f 34/34/34 28/28/28 103/103/103
f 104/104/104 34/34/34 103/103/103
f 35/35/35 29/29/29 105/105/105
f 106/106/106 35/35/35 105/105/105
f 36/36/36 30/30/30 107/107/107
f 108/108/108 36/36/36 107/107/107
f 111/111/111 110/110/110 109/109/109
f 112/112/112 111/111/111 109/109/109
f 115/115/115 114/114/114 113/113/113
f 113/113/113 116/116/116 115/115/115
f 116/116/116 117/117/117 115/115/115
f 116/116/116 118/118/118 117/117/117
f 121/121/121 120/120/120 119/119/119
f 119/119/119 122/122/122 121/121/121
f 122/122/122 123/123/123 121/121/121
f 122/122/122 124/124/124 123/123/123
f 44/44/44 43/43/43 37/37/37
f 38/38/38 44/44/44 37/37/37
f 45/45/45 126/126/126 125/125/125
f 39/39/39 45/45/45 125/125/125
f 46/46/46 128/128/128 127/127/127
f 40/40/40 46/46/46 127/127/127
f 47/47/47 130/130/130 129/129/129
f 41/41/41 47/47/47 129/129/129
f 48/48/48 132/132/132 131/131/131
f 42/42/42 48/48/48 131/131/131
f 135/135/135 134/134/134 133/133/133
f 136/136/136 135/135/135 133/133/133
f 139/139/139 138/138/138 137/137/137
f 137/137/137 140/140/140 139/139/139
f 140/140/140 141/141/141 139/139/139
f 140/140/140 142/142/142 141/141/141
f 145/145/145 144/144/144 143/143/143
f 143/143/143 146/146/146 145/145/145
f 146/146/146 147/147/147 145/145/145
f 146/146/146 148/148/148 147/147/147
f 54/54/54 50/50/50 49/49/49
f 53/53/53 54/54/54 49/49/49
f 55/55/55 51/51/51 149/149/149
f 150/150/150 55/55/55 149/149/149
f 52/52/52 60/60/60 64/64/64
f 56/56/56 52/52/52 64/64/64
f 56/56/56 152/152/152 52/52/52
f 152/152/152 151/151/151 52/52/52
f 156/156/156 155/155/155 153/153/153
f 155/155/155 154/154/154 153/153/153
f 154/154/154 155/155/155 172/172/172
f 155/155/155 171/171/171 172/172/172
f 172/172/172 171/171/171 169/169/169
f 171/171/171 170/170/170 169/169/169
f 62/62/62 61/61/61 57/57/57
f 58/58/58 62/62/62 57/57/57
f 63/63/63 158/158/158 157/157/157
f 59/59/59 63/63/63 157/157/157
f 59/59/59 160/160/160 63/63/63
f 160/160/160 159/159/159 63/63/63
f 163/163/163 162/162/162 161/161/161
f 164/164/164 163/163/163 161/161/161
f 168/168/168 167/167/167 165/165/165
f 167/167/167 166/166/166 165/165/165
f 167/167/167 175/175/175 166/166/166
f 175/175/175 176/176/176 166/166/166
f 176/176/176 175/175/175 173/173/173
f 175/175/175 174/174/174 173/173/173
