g SM_Prop_Mirror_02
v -0.8130255 -0.5121658 0
v -0.8130255 0.5121657 0
v -0.8130255 0.5121657 0.07159424
v -0.8130255 -0.5121658 0.07159424
v -0.8130255 0.5121657 0
v 0.8130255 0.5121657 0
v 0.8130255 0.5121657 0.07159424
v -0.8130255 0.5121657 0.07159424
v 0.8130255 0.5121657 0
v 0.8130255 -0.5121658 0
v 0.8130255 -0.5121658 0.07159424
v 0.8130255 0.5121657 0.07159424
v 0.8130255 -0.5121658 0
v -0.8130255 -0.5121658 0
v -0.8130255 -0.5121658 0.07159424
v 0.8130255 -0.5121658 0.07159424
v 0.8130255 -0.5121658 0
v 0.8130255 0.5121657 0
v -0.8130255 0.5121657 0
v -0.8130255 -0.5121658 0
v -0.7506354 -0.4534598 0.07159424
v -0.7506354 -0.4534598 0.05181152
v 0.7506347 -0.4534598 0.05181152
v 0.7506347 -0.4534598 0.07159424
v 0.7506347 -0.4534598 0.07159424
v 0.7506347 -0.4534598 0.05181152
v 0.7506347 0.4534595 0.05181152
v 0.7506347 0.4534595 0.07159424
v 0.7506347 0.4534595 0.07159424
v 0.7506347 0.4534595 0.05181152
v -0.7506354 0.4534595 0.05181152
v -0.7506354 0.4534595 0.07159424
v -0.7506354 0.4534595 0.07159424
v -0.7506354 0.4534595 0.05181152
v -0.7506354 -0.4534598 0.05181152
v -0.7506354 -0.4534598 0.07159424
v -0.8130255 -0.5121658 0.07159424
v -0.7506354 -0.4534598 0.07159424
v 0.7506347 -0.4534598 0.07159424
v 0.8130255 -0.5121658 0.07159424
v -0.8130255 0.5121657 0.07159424
v 0.7506347 0.4534595 0.07159424
v -0.7506354 0.4534595 0.07159424
v 0.8130255 0.5121657 0.07159424
vt 0.08123779 0.3038483
vt 0.08123779 0.3038483
vt 0.08123779 0.3038483
vt 0.08123779 0.3038483
vt 0.08123779 0.3038483
vt 0.08123779 0.3038483
vt 0.08123779 0.3038483
vt 0.08123779 0.3038483
vt 0.08123779 0.3038483
vt 0.08123779 0.3038483
vt 0.08123779 0.3038483
vt 0.08123779 0.3038483
vt 0.08123779 0.3038483
vt 0.08123779 0.3038483
vt 0.08123779 0.3038483
vt 0.08123779 0.3038483
vt 0.08123779 0.3038483
vt 0.08123779 0.3038483
vt 0.08123779 0.3038483
vt 0.08123779 0.3038483
vt 0.08123779 0.3038483
vt 0.08123779 0.3038483
vt 0.08123779 0.3038483
vt 0.08123779 0.3038483
vt 0.08123779 0.3038483
vt 0.08123779 0.3038483
vt 0.08123779 0.3038483
vt 0.08123779 0.3038483
vt 0.08123779 0.3038483
vt 0.08123779 0.3038483
vt 0.08123779 0.3038483
vt 0.08123779 0.3038483
vt 0.08123779 0.3038483
vt 0.08123779 0.3038483
vt 0.08123779 0.3038483
vt 0.08123779 0.3038483
vt 0.08123779 0.3038483
vt 0.08123779 0.3038483
vt 0.08123779 0.3038483
vt 0.08123779 0.3038483
vt 0.08123779 0.3038483
vt 0.08123779 0.3038483
vt 0.08123779 0.3038483
vt 0.08123779 0.3038483
vn -1 0 0
vn -1 0 0
vn -1 0 0
vn -1 0 0
vn 0 1 0
vn 0 1 0
vn 0 1 0
vn 0 1 0
vn 1 0 0
vn 1 0 0
vn 1 0 0
vn 1 0 0
vn 0 -1 0
vn 0 -1 0
vn 0 -1 0
vn 0 -1 0
vn 0 0 -1
vn 0 0 -1
vn 0 0 -1
vn 0 0 -1
vn 0 1 0
vn 0 1 0
vn 0 1 0
vn 0 1 0
vn -1 0 0
vn -1 0 0
vn -1 0 0
vn -1 0 0
vn 0 -1 0
vn 0 -1 0
vn 0 -1 0
vn 0 -1 0
vn 1 0 0
vn 1 0 0
vn 1 0 0
vn 1 0 0
vn 0 0 1
vn 0 0 1
vn 0 0 1
vn 0 0 1
vn 0 0 1
vn 0 0 1
vn 0 0 1
vn 0 0 1
g SM_Prop_Mirror_02_0
f 3/3/3 2/2/2 1/1/1
f 4/4/4 3/3/3 1/1/1
f 7/7/7 6/6/6 5/5/5
f 8/8/8 7/7/7 5/5/5
f 11/11/11 10/10/10 9/9/9
f 12/12/12 11/11/11 9/9/9
f 15/15/15 14/14/14 13/13/13
f 16/16/16 15/15/15 13/13/13
f 19/19/19 18/18/18 17/17/17
f 20/20/20 19/19/19 17/17/17
f 23/23/23 22/22/22 21/21/21
f 24/24/24 23/23/23 21/21/21
f 27/27/27 26/26/26 25/25/25
f 28/28/28 27/27/27 25/25/25
f 31/31/31 30/30/30 29/29/29
f 32/32/32 31/31/31 29/29/29
f 35/35/35 34/34/34 33/33/33
f 36/36/36 35/35/35 33/33/33
f 39/39/39 38/38/38 37/37/37
f 40/40/40 39/39/39 37/37/37
f 37/37/37 38/38/38 41/41/41
f 42/42/42 39/39/39 40/40/40
f 38/38/38 43/43/43 41/41/41
f 44/44/44 42/42/42 40/40/40
f 41/41/41 43/43/43 44/44/44
f 43/43/43 42/42/42 44/44/44
