g SM_Prop_Pool_Aboveground_Water_01
v -0.06364802 1.089467 -2.469997
v 0 1.089467 0
v -1.29012 1.089467 -2.107257
v 1.179878 1.089467 -2.170905
v 2.107257 1.089467 -1.29012
v 2.469997 1.089467 -0.06364802
v 2.170905 1.089467 1.179878
v -1.29012 1.089467 -2.107257
v 0 1.089467 0
v -2.170905 1.089467 -1.179878
v -2.469997 1.089467 0.06364802
v -2.107257 1.089467 1.29012
v -1.179878 1.089467 2.170905
v 0.06364802 1.089467 2.469997
v 1.29012 1.089467 2.107257
v 2.170905 1.089467 1.179878
vt 0.3494497 0.4939803
vt 0.3494497 0.4939803
vt 0.3494497 0.4939803
vt 0.3494497 0.4939803
vt 0.3494497 0.4939803
vt 0.3494497 0.4939803
vt 0.3494497 0.4939803
vt 0.3494497 0.4939803
vt 0.3494497 0.4939803
vt 0.3494497 0.4939803
vt 0.3494497 0.4939803
vt 0.3494497 0.4939803
vt 0.3494497 0.4939803
vt 0.3494497 0.4939803
vt 0.3494497 0.4939803
vt 0.3494497 0.4939803
vn 0 1 0
vn 0 1 0
vn 0 1 0
vn 0 1 0
vn 0 1 0
vn 0 1 0
vn 0 1 0
vn 0 1 0
vn 0 1 0
vn 0 1 0
vn 0 1 0
vn 0 1 0
vn 0 1 0
vn 0 1 0
vn 0 1 0
vn 0 1 0
g SM_Prop_Pool_Aboveground_Water_01_0
f 3/3/3 2/2/2 1/1/1
f 1/1/1 2/2/2 4/4/4
f 4/4/4 2/2/2 5/5/5
f 5/5/5 2/2/2 6/6/6
f 6/6/6 2/2/2 7/7/7
f 10/10/10 9/9/9 8/8/8
f 11/11/11 9/9/9 10/10/10
f 12/12/12 9/9/9 11/11/11
f 13/13/13 9/9/9 12/12/12
f 14/14/14 9/9/9 13/13/13
f 15/15/15 9/9/9 14/14/14
f 16/16/16 9/9/9 15/15/15
