g SM_Prop_Microwave_Door_01
v 0.06459866 -0.06701776 0.02379683
v 0.06459866 0.07706564 0.02379683
v 0.3478433 0.07706564 0.02379683
v 0.3478433 -0.06701776 0.02379683
v -0.008931606 0.1443329 0.00704634
v -0.008931606 0.1443329 0.03523726
v -0.008931606 -0.1407356 0.03523726
v -0.008931606 -0.1407355 0.00704634
v 0.416362 0.1443329 0.00704634
v 0.4140719 0.1443329 0.03523482
v 0.2759976 0.1443329 0.03523482
v 0.2759976 0.1443329 0.00704634
v -0.008931606 0.1443329 0.03523726
v -0.008931606 0.1443329 0.00704634
v 0.4080026 0.1366601 -1.999586E-06
v 0.4080026 -0.1330627 -1.999586E-06
v 0.416362 -0.1407355 0.00704634
v 0.416362 0.1443329 0.00704634
v 0.2759976 -0.1407356 0.00704634
v 0.4140719 -0.1407356 0.03523482
v 0.416362 -0.1407355 0.00704634
v 0.2759976 -0.1407356 0.03523482
v -0.008931606 -0.1407355 0.00704634
v -0.008931606 -0.1407356 0.03523726
v 0.2759976 0.1443329 0.03523482
v 0.4140719 0.1443329 0.03523482
v 0.4140719 0.1175149 0.03523482
v 0.2759976 0.1289765 0.03523482
v -0.008931606 0.1443329 0.03523726
v 0.0238638 0.1091157 0.03523482
v -0.008931606 -0.1407356 0.03523726
v 0.0238638 -0.08079042 0.03523482
v 0.2531448 -0.1105319 0.03523482
v 0.2531448 -0.1289203 0.03523482
v 0.2759976 -0.1407356 0.03523482
v 0.2759976 -0.1330836 0.03523482
v 0.4140719 -0.1407356 0.03523482
v 0.2988516 -0.1289203 0.03523482
v 0.2759976 -0.1063686 0.03523482
v 0.2759976 -0.1006513 0.03523482
v 0.4140719 -0.08957101 0.03523482
v 0.2988516 -0.1105319 0.03523482
v 0.2759976 -0.1063686 0.03523482
v 0.2531448 -0.1289203 0.03523482
v 0.2531448 -0.1105319 0.03523482
v 0.2759976 -0.1330836 0.03523482
v 0.2988516 -0.1105319 0.03523482
v 0.2988516 -0.1289203 0.03523482
v 0.3478433 0.07706579 -1.999586E-06
v 0.3478433 0.07706579 0.03523726
v 0.3478433 -0.06701776 0.03523726
v 0.3478433 -0.06701776 -1.999586E-06
v 0.3478433 -0.06701776 -1.999586E-06
v 0.3478433 -0.06701776 0.03523726
v 0.06459866 -0.06701776 0.03523726
v 0.06459989 -0.06701776 -1.999586E-06
v 0.06459989 -0.06701776 -1.999586E-06
v 0.06459866 -0.06701776 0.03523726
v 0.06459866 0.07706579 0.03523726
v 0.06459989 0.07706579 -1.999586E-06
v 0.06459989 0.07706579 -1.999586E-06
v 0.06459866 0.07706579 0.03523726
v 0.3478433 0.07706579 0.03523726
v 0.3478433 0.07706579 -1.999586E-06
v 0.2729776 0.1366601 -1.999586E-06
v 0.4080026 0.1366601 -1.999586E-06
v 0.416362 0.1443329 0.00704634
v 0.2759976 0.1443329 0.00704634
v 2.783498E-07 0.1366601 4.418203E-07
v -0.008931606 0.1443329 0.00704634
v 2.783498E-07 -0.1330627 4.418203E-07
v 2.783498E-07 0.1366601 4.418203E-07
v -0.008931606 0.1443329 0.00704634
v -0.008931606 -0.1407355 0.00704634
v 0.2729776 -0.1330627 -1.999586E-06
v 2.783498E-07 -0.1330627 4.418203E-07
v -0.008931606 -0.1407355 0.00704634
v 0.2759976 -0.1407356 0.00704634
v 0.4080026 -0.1330627 -1.999586E-06
v 0.416362 -0.1407355 0.00704634
v 0.416362 0.1443329 0.00704634
v 0.4140719 0.1175149 0.03523482
v 0.4140719 0.1443329 0.03523482
v 0.416362 -0.1407355 0.00704634
v 0.4140719 -0.08957101 0.03523482
v 0.4140719 -0.1407356 0.03523482
v 0.4080026 -0.1330627 -1.999586E-06
v 0.3478433 -0.06701776 -1.999586E-06
v 0.2729776 -0.1330627 -1.999586E-06
v 2.783498E-07 -0.1330627 4.418203E-07
v 0.06459989 -0.06701776 -1.999586E-06
v 2.783498E-07 0.1366601 4.418203E-07
v 0.06459989 0.07706579 -1.999586E-06
v 0.2729776 0.1366601 -1.999586E-06
v 0.3478433 0.07706579 -1.999586E-06
v 0.4080026 0.1366601 -1.999586E-06
v 0.4140719 0.1175149 0.03523482
v 0.3478433 0.07706579 0.03523726
v 0.2759976 0.1289765 0.03523482
v 0.4140719 -0.08957101 0.03523482
v 0.06459866 0.07706579 0.03523726
v 0.0238638 0.1091157 0.03523482
v 0.06459866 -0.06701776 0.03523726
v 0.0238638 -0.08079042 0.03523482
v 0.3478433 -0.06701776 0.03523726
v 0.2759976 -0.1006513 0.03523482
vt 0.302002 0.2652054
vt 0.302002 0.2652054
vt 0.302002 0.2652054
vt 0.302002 0.2652054
vt 0.1356524 0.3756545
vt 0.1356524 0.3756545
vt 0.1356524 0.3756545
vt 0.1356524 0.3756545
vt 0.1356524 0.3756545
vt 0.1356524 0.3756545
vt 0.1356524 0.3756545
vt 0.1356524 0.3756545
vt 0.1356524 0.3756545
vt 0.1356524 0.3756545
vt 0.112793 0.3788147
vt 0.112793 0.3788071
vt 0.112793 0.3788071
vt 0.112793 0.3788147
vt 0.1356524 0.3756545
vt 0.1356524 0.3756545
vt 0.1356524 0.3756545
vt 0.1356524 0.3756545
vt 0.1356524 0.3756545
vt 0.1356524 0.3756545
vt 0.1356524 0.3756545
vt 0.1356524 0.3756545
vt 0.1356524 0.3756545
vt 0.1356524 0.3756545
vt 0.1356524 0.3756545
vt 0.1356524 0.3756545
vt 0.1356524 0.3756545
vt 0.1356524 0.3756545
vt 0.1356524 0.3756545
vt 0.1356524 0.3756545
vt 0.1356524 0.3756545
vt 0.1356524 0.3756545
vt 0.1356524 0.3756545
vt 0.1356524 0.3756545
vt 0.1356524 0.3756545
vt 0.1356524 0.3756545
vt 0.1356524 0.3756545
vt 0.1356524 0.3756545
vt 0.1350098 0.3007464
vt 0.1350098 0.3007464
vt 0.1350098 0.3007464
vt 0.1350098 0.3007464
vt 0.1350098 0.3007464
vt 0.1350098 0.3007464
vt 0.1010742 0.2289886
vt 0.1010742 0.2289886
vt 0.1010742 0.2289886
vt 0.1010742 0.2289886
vt 0.1010742 0.2289886
vt 0.1010742 0.2289886
vt 0.1010742 0.2289886
vt 0.1010742 0.2289886
vt 0.1010742 0.2289886
vt 0.1010742 0.2289886
vt 0.1010742 0.2289886
vt 0.1010742 0.2289886
vt 0.1010742 0.2289886
vt 0.1010742 0.2289886
vt 0.1010742 0.2289886
vt 0.1010742 0.2289886
vt 0.1356524 0.3756545
vt 0.1356524 0.3756545
vt 0.1356524 0.3756545
vt 0.1356524 0.3756545
vt 0.1356524 0.3756545
vt 0.1356524 0.3756545
vt 0.1356524 0.3756545
vt 0.1356524 0.3756545
vt 0.1356524 0.3756545
vt 0.1356524 0.3756545
vt 0.1356524 0.3756545
vt 0.1356524 0.3756545
vt 0.1356524 0.3756545
vt 0.1356524 0.3756545
vt 0.1356524 0.3756545
vt 0.1356524 0.3756545
vt 0.112793 0.3788147
vt 0.112793 0.3788147
vt 0.112793 0.3788147
vt 0.112793 0.3788071
vt 0.112793 0.3788071
vt 0.112793 0.3788071
vt 0.112793 0.3788071
vt 0.112793 0.3788071
vt 0.112793 0.3788071
vt 0.112793 0.3788071
vt 0.112793 0.3788071
vt 0.112793 0.3788147
vt 0.112793 0.3788071
vt 0.112793 0.3788147
vt 0.112793 0.3788071
vt 0.112793 0.3788147
vt 0.1013184 0.2222443
vt 0.1013184 0.2222443
vt 0.1013184 0.2222443
vt 0.1013184 0.2222443
vt 0.1013184 0.2222443
vt 0.1013184 0.2222443
vt 0.1013184 0.2222443
vt 0.1013184 0.2222443
vt 0.1013184 0.2222443
vt 0.1013184 0.2222443
vn 0 0 1
vn 0 0 1
vn 0 0 1
vn 0 0 1
vn -1 0 0
vn -1 0 0
vn -1 0 0
vn -1 0 0
vn 0 1 0
vn 0 1 0
vn 0 1 0
vn 0 1 0
vn 0 1 0
vn 0 1 0
vn 0.64461 0 -0.7645115
vn 0.64461 0 -0.7645115
vn 0.64461 0 -0.7645115
vn 0.64461 0 -0.7645115
vn 0 -1 0
vn 0 -1 0
vn 0 -1 0
vn 0 -1 0
vn 0 -1 0
vn 0 -1 0
vn 0 -2.213243E-05 1
vn 0 0 1
vn 1.375804E-05 1.771185E-05 1
vn 0 1.606774E-05 1
vn 4.031316E-05 -2.213243E-05 1
vn 4.659268E-06 2.783855E-06 1
vn 2.953427E-05 1.480118E-05 1
vn 3.402353E-06 -1.32022E-05 1
vn 0 9.549663E-06 1
vn 4.719755E-06 1.480118E-05 1
vn 0 7.877281E-06 1
vn 0 3.93864E-06 1
vn 0 0 1
vn 0 0 1
vn 0 0 1
vn 0 -4.556649E-05 1
vn 1.09734E-05 -2.190149E-05 1
vn 0 0 1
vn 0 0 1
vn 4.719755E-06 1.480118E-05 1
vn 0 9.549663E-06 1
vn 0 3.93864E-06 1
vn 0 0 1
vn 0 0 1
vn -1 0 0
vn -1 0 0
vn -1 0 0
vn -1 0 0
vn 0 1 0
vn 0 1 0
vn 0 1 0
vn 0 1 0
vn 1 0 3.464043E-05
vn 1 0 3.464043E-05
vn 1 0 3.464043E-05
vn 1 0 3.464043E-05
vn 0 -1 0
vn 0 -1 0
vn 0 -1 0
vn 0 -1 0
vn 0 0.6764674 -0.7364725
vn 0 0.6764995 -0.7364432
vn 0 0.6764995 -0.7364432
vn 0 0.6764674 -0.7364725
vn 0 0.6764353 -0.7365021
vn 0 0.6764353 -0.7365021
vn -0.6193416 0 -0.7851217
vn -0.6193416 0 -0.7851217
vn -0.6193416 0 -0.7851217
vn -0.6193416 0 -0.7851217
vn 0 -0.6764692 -0.7364709
vn 0 -0.6764371 -0.7365004
vn 0 -0.6764371 -0.7365004
vn 0 -0.6764692 -0.7364709
vn 0 -0.6765012 -0.7364415
vn 0 -0.6765012 -0.7364415
vn 0.9967163 0 0.08097347
vn 0.9967163 0 0.08097347
vn 0.9967163 0 0.08097348
vn 0.9967163 0 0.08097347
vn 0.9967163 0 0.08097347
vn 0.9967163 0 0.08097347
vn 0 0 -1
vn 0 -4.616187E-06 -1
vn 0 -6.924281E-06 -1
vn -2.109109E-05 -6.924281E-06 -1
vn -2.109109E-05 -6.924281E-06 -1
vn -2.109109E-05 7.673784E-06 -1
vn -2.109109E-05 7.673784E-06 -1
vn 0 7.673784E-06 -1
vn 0 5.115856E-06 -1
vn 0 0 -1
vn 1.375804E-05 1.771185E-05 1
vn 1.307298E-05 3.617862E-05 1
vn 0 1.606774E-05 1
vn 1.09734E-05 -2.190149E-05 1
vn -3.099462E-05 2.770014E-05 1
vn 4.659268E-06 2.783855E-06 1
vn -3.172283E-05 -4.733E-05 1
vn 3.402353E-06 -1.32022E-05 1
vn 1.346066E-05 -6.075532E-05 1
vn 0 -4.556649E-05 1
g SM_Prop_Microwave_Door_01_0
f 3/3/3 2/2/2 1/1/1
f 4/4/4 3/3/3 1/1/1
g SM_Prop_Microwave_Door_01_1
f 7/7/7 6/6/6 5/5/5
f 8/8/8 7/7/7 5/5/5
f 11/11/11 10/10/10 9/9/9
f 12/12/12 11/11/11 9/9/9
f 13/13/13 11/11/11 12/12/12
f 14/14/14 13/13/13 12/12/12
f 17/17/17 16/16/16 15/15/15
f 18/18/18 17/17/17 15/15/15
f 21/21/21 20/20/20 19/19/19
f 20/20/20 22/22/22 19/19/19
f 19/19/19 22/22/22 23/23/23
f 22/22/22 24/24/24 23/23/23
f 27/27/27 26/26/26 25/25/25
f 28/28/28 27/27/27 25/25/25
f 28/28/28 25/25/25 29/29/29
f 30/30/30 28/28/28 29/29/29
f 30/30/30 29/29/29 31/31/31
f 32/32/32 30/30/30 31/31/31
f 33/33/33 32/32/32 31/31/31
f 34/34/34 33/33/33 31/31/31
f 34/34/34 31/31/31 35/35/35
f 36/36/36 34/34/34 35/35/35
f 36/36/36 35/35/35 37/37/37
f 38/38/38 36/36/36 37/37/37
f 33/33/33 39/39/39 32/32/32
f 39/39/39 40/40/40 32/32/32
f 38/38/38 37/37/37 41/41/41
f 40/40/40 39/39/39 41/41/41
f 42/42/42 38/38/38 41/41/41
f 39/39/39 42/42/42 41/41/41
f 45/45/45 44/44/44 43/43/43
f 44/44/44 46/46/46 43/43/43
f 47/47/47 43/43/43 46/46/46
f 48/48/48 47/47/47 46/46/46
f 51/51/51 50/50/50 49/49/49
f 52/52/52 51/51/51 49/49/49
f 55/55/55 54/54/54 53/53/53
f 56/56/56 55/55/55 53/53/53
f 59/59/59 58/58/58 57/57/57
f 60/60/60 59/59/59 57/57/57
f 63/63/63 62/62/62 61/61/61
f 64/64/64 63/63/63 61/61/61
f 67/67/67 66/66/66 65/65/65
f 68/68/68 67/67/67 65/65/65
f 68/68/68 65/65/65 69/69/69
f 70/70/70 68/68/68 69/69/69
f 73/73/73 72/72/72 71/71/71
f 74/74/74 73/73/73 71/71/71
f 77/77/77 76/76/76 75/75/75
f 78/78/78 77/77/77 75/75/75
f 78/78/78 75/75/75 79/79/79
f 80/80/80 78/78/78 79/79/79
f 83/83/83 82/82/82 81/81/81
f 81/81/81 82/82/82 84/84/84
f 82/82/82 85/85/85 84/84/84
f 85/85/85 86/86/86 84/84/84
f 89/89/89 88/88/88 87/87/87
f 89/89/89 90/90/90 88/88/88
f 90/90/90 91/91/91 88/88/88
f 91/91/91 90/90/90 92/92/92
f 93/93/93 91/91/91 92/92/92
f 93/93/93 92/92/92 94/94/94
f 88/88/88 95/95/95 87/87/87
f 95/95/95 93/93/93 94/94/94
f 95/95/95 96/96/96 87/87/87
f 95/95/95 94/94/94 96/96/96
f 99/99/99 98/98/98 97/97/97
f 97/97/97 98/98/98 100/100/100
f 101/101/101 98/98/98 99/99/99
f 102/102/102 101/101/101 99/99/99
f 103/103/103 101/101/101 102/102/102
f 104/104/104 103/103/103 102/102/102
f 98/98/98 105/105/105 100/100/100
f 105/105/105 103/103/103 104/104/104
f 100/100/100 105/105/105 106/106/106
f 106/106/106 105/105/105 104/104/104
