g SM_Prop_CardboardBox_01
v -0.1543707 7.105427E-17 -0.2223529
v -0.1543707 0.2163199 -0.2223529
v -0.1553671 0.2163199 0.2216583
v -0.1553671 7.105427E-17 0.2216583
v -0.1637344 0.2753829 -0.2358417
v 0.1647894 0.2753829 -0.2351038
v 0.1637338 0.2753829 0.2358411
v -0.1647922 0.2753829 0.2351038
v 0.1553644 0.2163198 -0.2216577
v 0.1553644 7.105427E-17 -0.2216577
v 0.1543683 7.105427E-17 0.2223541
v 0.1543683 0.2163198 0.2223541
v 0.1553644 7.105427E-17 -0.2216577
v -0.1543707 7.105427E-17 -0.2223529
v -0.1553671 7.105427E-17 0.2216583
v 0.1543683 7.105427E-17 0.2223541
v -0.07757934 0.05172138 0.2218323
v -0.07757752 0.133054 0.2218323
v 0.0765802 0.133054 0.2221796
v 0.0765802 0.05172138 0.2221796
v -0.06145019 0.1751333 -0.222146
v -0.06145019 0.2163198 -0.222146
v -0.1543707 0.2163199 -0.2223529
v -0.1543707 7.105427E-17 -0.2223529
v 0.1553644 7.105427E-17 -0.2216577
v 0.06244415 0.1751332 -0.2218646
v 0.06244415 0.2163198 -0.2218646
v 0.1553644 0.2163198 -0.2216577
v 0.1647894 0.2753829 -0.2351038
v 0.1647894 0.2163198 -0.2351038
v 0.1637338 0.2163198 0.2358411
v 0.1637338 0.2753829 0.2358411
v -0.1647922 0.2163199 0.2351038
v -0.1647922 0.2753829 0.2351038
v 0.1637338 0.2753829 0.2358411
v 0.1637338 0.2163198 0.2358411
v -0.1637344 0.2163199 -0.2358417
v -0.1637344 0.2753829 -0.2358417
v -0.1647922 0.2753829 0.2351038
v -0.1647922 0.2163199 0.2351038
v 0.1647894 0.2163198 -0.2351038
v 0.1647894 0.2753829 -0.2351038
v -0.1637344 0.2753829 -0.2358417
v -0.1637344 0.2163199 -0.2358417
v -0.06145019 0.2163198 -0.222146
v 0.06244415 0.2163198 -0.2218646
v 0.1553644 0.2163198 -0.2216577
v 0.1647894 0.2163198 -0.2351038
v -0.1543707 0.2163199 -0.2223529
v 0.1543683 0.2163198 0.2223541
v -0.1637344 0.2163199 -0.2358417
v 0.1637338 0.2163198 0.2358411
v -0.1647922 0.2163199 0.2351038
v -0.1553671 0.2163199 0.2216583
v 0.06144806 0.2163198 0.2221423
v -0.06244476 0.2163198 0.2218658
v -0.06240723 0.2163198 0.2048297
v 0.0614856 0.2163198 0.2051068
v 0.0614856 0.1751332 0.2051068
v -0.06240723 0.1751333 0.2048297
v 0.06240661 0.2163198 -0.2048279
v -0.06148865 0.2163198 -0.205105
v -0.06148865 0.1751333 -0.205105
v 0.06240661 0.1751332 -0.2048279
v -0.06244476 0.2163198 0.2218658
v -0.06240723 0.2163198 0.2048297
v -0.06240723 0.1751333 0.2048297
v -0.06244476 0.1751333 0.2218658
v -0.06244476 0.1751333 0.2218658
v -0.06240723 0.1751333 0.2048297
v 0.0614856 0.1751332 0.2051068
v 0.06144806 0.1751332 0.2221423
v 0.06144806 0.1751332 0.2221423
v 0.0614856 0.1751332 0.2051068
v 0.0614856 0.2163198 0.2051068
v 0.06144806 0.2163198 0.2221423
v 0.06144806 0.2163198 0.2221423
v 0.0614856 0.2163198 0.2051068
v -0.06240723 0.2163198 0.2048297
v -0.06244476 0.2163198 0.2218658
v 0.06244415 0.2163198 -0.2218646
v 0.06240661 0.2163198 -0.2048279
v 0.06240661 0.1751332 -0.2048279
v 0.06244415 0.1751332 -0.2218646
v 0.06244415 0.1751332 -0.2218646
v 0.06240661 0.1751332 -0.2048279
v -0.06148865 0.1751333 -0.205105
v -0.06145019 0.1751333 -0.222146
v -0.06145019 0.1751333 -0.222146
v -0.06148865 0.1751333 -0.205105
v -0.06148865 0.2163198 -0.205105
v -0.06145019 0.2163198 -0.222146
v -0.06145019 0.2163198 -0.222146
v -0.06148865 0.2163198 -0.205105
v 0.06240661 0.2163198 -0.2048279
v 0.06244415 0.2163198 -0.2218646
v -0.1553671 0.2163199 0.2216583
v -0.06244476 0.2163198 0.2218658
v -0.06244476 0.1751333 0.2218658
v -0.07757752 0.133054 0.2218323
v -0.1553671 7.105427E-17 0.2216583
v 0.06144806 0.1751332 0.2221423
v -0.07757934 0.05172138 0.2218323
v 0.0765802 0.05172138 0.2221796
v 0.1543683 7.105427E-17 0.2223541
v 0.1543683 0.2163198 0.2223541
v 0.06144806 0.2163198 0.2221423
v 0.0765802 0.133054 0.2221796
vt 0.04868338 0.3278023
vt 0.04868647 0.327654
vt 0.04886886 0.327848
vt 0.04885986 0.3280074
vt 0.04816028 0.3020562
vt 0.04762858 0.3020791
vt 0.04788166 0.3022162
vt 0.04862857 0.3021645
vt 0.04845071 0.3277108
vt 0.04845414 0.3278626
vt 0.04860997 0.3280827
vt 0.04861119 0.3279194
vt 0.04845414 0.3278626
vt 0.04868338 0.3278023
vt 0.04885986 0.3280074
vt 0.04860997 0.3280827
vt 0.3613251 0.3258194
vt 0.3613247 0.3552748
vt 0.3244381 0.3552748
vt 0.3244381 0.3258194
vt 0.04861718 0.3276997
vt 0.04861742 0.3276707
vt 0.04868647 0.327654
vt 0.04868338 0.3278023
vt 0.04845414 0.3278626
vt 0.04852343 0.3277227
vt 0.04852316 0.3276934
vt 0.04845071 0.3277108
vt 0.04762858 0.3020791
vt 0.04763126 0.3021829
vt 0.04788333 0.302374
vt 0.04788166 0.3022162
vt 0.04862383 0.3023021
vt 0.04862857 0.3021645
vt 0.04788166 0.3022162
vt 0.04788333 0.302374
vt 0.04815969 0.3021508
vt 0.04816028 0.3020562
vt 0.04862857 0.3021645
vt 0.04862383 0.3023021
vt 0.04763126 0.3021829
vt 0.04762858 0.3020791
vt 0.04816028 0.3020562
vt 0.04815969 0.3021508
vt 0.04801351 0.3021633
vt 0.04781294 0.3021756
vt 0.04765266 0.3021854
vt 0.04763126 0.3021829
vt 0.04815495 0.3021546
vt 0.04789639 0.3023635
vt 0.04815969 0.3021508
vt 0.04788333 0.302374
vt 0.04862383 0.3023021
vt 0.04858634 0.3022976
vt 0.04812276 0.3023418
vt 0.04839772 0.3023156
vt 0.08087856 0.2303584
vt 0.07987869 0.2303304
vt 0.07987857 0.2306779
vt 0.08087865 0.2306976
vt 0.08333564 0.2309757
vt 0.08233565 0.2309726
vt 0.08233571 0.2313118
vt 0.08333352 0.231311
vt 0.04879364 0.3278688
vt 0.04878607 0.3278603
vt 0.04878482 0.3278916
vt 0.0487923 0.3279002
vt 0.0487923 0.3279002
vt 0.04878482 0.3278916
vt 0.04868275 0.3279202
vt 0.04868987 0.327929
vt 0.04868987 0.327929
vt 0.04868275 0.3279202
vt 0.0486834 0.3278886
vt 0.04869059 0.3278974
vt 0.04869059 0.3278974
vt 0.0486834 0.3278886
vt 0.04878607 0.3278603
vt 0.04879364 0.3278688
vt 0.04852316 0.3276934
vt 0.04852891 0.3277004
vt 0.04852915 0.3277298
vt 0.04852343 0.3277227
vt 0.04852343 0.3277227
vt 0.04852915 0.3277298
vt 0.04862323 0.3277066
vt 0.04861718 0.3276997
vt 0.04861718 0.3276997
vt 0.04862323 0.3277066
vt 0.0486235 0.3276775
vt 0.04861742 0.3276707
vt 0.04861742 0.3276707
vt 0.0486235 0.3276775
vt 0.04852891 0.3277004
vt 0.04852316 0.3276934
vt 0.04886886 0.327848
vt 0.04879364 0.3278688
vt 0.0487923 0.3279002
vt 0.04880318 0.3279283
vt 0.04885986 0.3280074
vt 0.04868987 0.327929
vt 0.0488005 0.3279884
vt 0.04867527 0.3280253
vt 0.04860997 0.3280827
vt 0.04861119 0.3279194
vt 0.04869059 0.3278974
vt 0.04867649 0.3279646
vn -0.9999975 0 -0.00224408
vn -0.9999975 0 -0.00224408
vn -0.9999975 0 -0.00224408
vn -0.9999975 0 -0.00224408
vn 0 1 0
vn 0 1 0
vn 0 1 0
vn 0 1 0
vn 0.9999975 0 0.002243389
vn 0.9999975 0 0.002243389
vn 0.9999975 0 0.002243389
vn 0.9999975 0 0.002243389
vn 0 -1 0
vn 0 -1 0
vn 0 -1 0
vn 0 -1 0
vn -0.002245558 0 0.9999975
vn -0.00224228 0 0.9999975
vn -0.002250664 0 0.9999975
vn -0.002248167 0 0.9999975
vn 0.002244743 0 -0.9999975
vn 0.002226727 0 -0.9999975
vn 0.002226727 0 -0.9999975
vn 0.002248913 0 -0.9999975
vn 0.002248914 0 -0.9999975
vn 0.002244745 0 -0.9999975
vn 0.002226734 0 -0.9999975
vn 0.002226734 0 -0.9999975
vn 0.9999975 0 0.002241452
vn 0.9999975 0 0.002241452
vn 0.9999975 0 0.002241452
vn 0.9999975 0 0.002241452
vn -0.002244276 0 0.9999975
vn -0.002244276 0 0.9999975
vn -0.002244276 0 0.9999975
vn -0.002244276 0 0.9999975
vn -0.9999975 0 -0.002245985
vn -0.9999975 0 -0.002245985
vn -0.9999975 0 -0.002245985
vn -0.9999975 0 -0.002245985
vn 0.002246148 0 -0.9999975
vn 0.002246148 0 -0.9999975
vn 0.002246148 0 -0.9999975
vn 0.002246148 0 -0.9999975
vn 0 -1 0
vn 0 -1 0
vn 0 -1 0
vn 0 -1 0
vn 0 -1 0
vn 0 -1 0
vn 0 -1 0
vn 0 -1 0
vn 0 -1 0
vn 0 -1 0
vn 0 -1 0
vn 0 -1 0
vn -0.002236602 0 0.9999975
vn -0.002236602 0 0.9999975
vn -0.002236602 0 0.9999975
vn -0.002236602 0 0.9999975
vn 0.002236558 0 -0.9999975
vn 0.002236558 0 -0.9999975
vn 0.002236558 0 -0.9999975
vn 0.002236558 0 -0.9999975
vn 0.9999976 0 0.002203348
vn 0.9999976 0 0.002203348
vn 0.9999976 0 0.002203348
vn 0.9999976 0 0.002203348
vn 0 1 0
vn 0 1 0
vn 0 1 0
vn 0 1 0
vn -0.9999976 0 -0.002203427
vn -0.9999976 0 -0.002203427
vn -0.9999976 0 -0.002203427
vn -0.9999976 0 -0.002203427
vn 0 -1 0
vn 0 -1 0
vn 0 -1 0
vn 0 -1 0
vn -0.9999976 0 -0.002203269
vn -0.9999976 0 -0.002203269
vn -0.9999976 0 -0.002203269
vn -0.9999976 0 -0.002203269
vn 0 1 0
vn 0 1 0
vn 0 1 0
vn 0 1 0
vn 0.9999975 0 0.002256441
vn 0.9999975 0 0.002256441
vn 0.9999975 0 0.002256441
vn 0.9999975 0 0.002256441
vn 0 -1 0
vn 0 -1 0
vn 0 -1 0
vn 0 -1 0
vn -0.002235038 0 0.9999975
vn -0.002232138 0 0.9999975
vn -0.002237649 2.259046E-05 0.9999975
vn -0.00224228 0 0.9999975
vn -0.002240902 0 0.9999975
vn -0.00226861 3.686015E-05 0.9999975
vn -0.002245558 0 0.9999975
vn -0.002248167 0 0.9999975
vn -0.002245764 0 0.9999975
vn -0.002257816 0 0.9999975
vn -0.002292785 3.046412E-05 0.9999974
vn -0.002250664 0 0.9999975
g SM_Prop_CardboardBox_01_0
f 3/3/3 2/2/2 1/1/1
f 4/4/4 3/3/3 1/1/1
f 7/7/7 6/6/6 5/5/5
f 8/8/8 7/7/7 5/5/5
f 11/11/11 10/10/10 9/9/9
f 12/12/12 11/11/11 9/9/9
f 15/15/15 14/14/14 13/13/13
f 16/16/16 15/15/15 13/13/13
f 19/19/19 18/18/18 17/17/17
f 20/20/20 19/19/19 17/17/17
f 23/23/23 22/22/22 21/21/21
f 24/24/24 23/23/23 21/21/21
f 24/24/24 21/21/21 25/25/25
f 21/21/21 26/26/26 25/25/25
f 26/26/26 27/27/27 25/25/25
f 27/27/27 28/28/28 25/25/25
f 31/31/31 30/30/30 29/29/29
f 32/32/32 31/31/31 29/29/29
f 35/35/35 34/34/34 33/33/33
f 36/36/36 35/35/35 33/33/33
f 39/39/39 38/38/38 37/37/37
f 40/40/40 39/39/39 37/37/37
f 43/43/43 42/42/42 41/41/41
f 44/44/44 43/43/43 41/41/41
f 47/47/47 46/46/46 45/45/45
f 48/48/48 47/47/47 45/45/45
f 48/48/48 45/45/45 49/49/49
f 50/50/50 47/47/47 48/48/48
f 49/49/49 51/51/51 48/48/48
f 52/52/52 50/50/50 48/48/48
f 51/51/51 49/49/49 53/53/53
f 50/50/50 52/52/52 53/53/53
f 49/49/49 54/54/54 53/53/53
f 55/55/55 50/50/50 53/53/53
f 53/53/53 54/54/54 56/56/56
f 56/56/56 55/55/55 53/53/53
f 59/59/59 58/58/58 57/57/57
f 60/60/60 59/59/59 57/57/57
f 63/63/63 62/62/62 61/61/61
f 64/64/64 63/63/63 61/61/61
f 67/67/67 66/66/66 65/65/65
f 68/68/68 67/67/67 65/65/65
f 71/71/71 70/70/70 69/69/69
f 72/72/72 71/71/71 69/69/69
f 75/75/75 74/74/74 73/73/73
f 76/76/76 75/75/75 73/73/73
f 79/79/79 78/78/78 77/77/77
f 80/80/80 79/79/79 77/77/77
f 83/83/83 82/82/82 81/81/81
f 84/84/84 83/83/83 81/81/81
f 87/87/87 86/86/86 85/85/85
f 88/88/88 87/87/87 85/85/85
f 91/91/91 90/90/90 89/89/89
f 92/92/92 91/91/91 89/89/89
f 95/95/95 94/94/94 93/93/93
f 96/96/96 95/95/95 93/93/93
f 99/99/99 98/98/98 97/97/97
f 100/100/100 99/99/99 97/97/97
f 100/100/100 97/97/97 101/101/101
f 102/102/102 99/99/99 100/100/100
f 103/103/103 100/100/100 101/101/101
f 104/104/104 103/103/103 101/101/101
f 105/105/105 104/104/104 101/101/101
f 104/104/104 105/105/105 106/106/106
f 106/106/106 107/107/107 102/102/102
f 108/108/108 102/102/102 100/100/100
f 108/108/108 104/104/104 106/106/106
f 108/108/108 106/106/106 102/102/102
