g SM_Prop_LaundryBox_01
v 0.07375854 0.2046864 -0.06174316
v 0.01638428 0.1179193 -0.06174316
v 0.07375854 0.1482752 -0.06174316
v 0.01638428 0.2350423 -0.06174316
v -0.0409906 0.2046864 -0.06174316
v -0.0409906 0.1482752 -0.06174316
v -0.1569012 0.06332899 -0.04332947
v -0.1569012 0.2750283 -0.04332947
v -0.1569012 0.2750283 0.04332947
v -0.1569012 0.06332899 0.04333008
v 0.1569009 0.2750284 -0.04332947
v 0.1569009 0.06332902 0.04332947
v 0.1569009 0.2750284 0.04332947
v 0.1569009 0.06332902 -0.04332947
v 0.1569009 0.02568193 0.04332947
v 0.1569009 0.02568193 -0.04332947
v 0.1569009 3.814697E-08 -0.06174316
v -0.08182067 3.814697E-08 -0.06174316
v -0.08182067 3.814697E-08 0.06174316
v 0.1569009 3.814697E-08 0.06174316
v -0.08182067 3.814697E-08 -0.06174316
v -0.1569012 3.814697E-08 -0.06174316
v -0.1569012 3.814697E-08 0.06174316
v -0.08182067 3.814697E-08 0.06174316
v 0.1569009 0.303515 -0.06174316
v 0.1569009 0.3303306 -0.06174316
v -0.08182067 0.2914228 -0.06174316
v -0.08182067 0.2646072 -0.06174316
v 0.1569009 0.3303306 -0.06174316
v 0.1569009 0.303515 -0.06174316
v 0.1569009 0.303515 0.06174316
v 0.1569009 0.3303306 0.06174316
v 0.1569009 0.3303306 0.06174316
v 0.1569009 0.303515 0.06174316
v -0.08182067 0.2646072 0.06174316
v -0.08182067 0.2914228 0.06174316
v -0.1569012 3.814697E-08 -0.06174316
v -0.08182067 3.814697E-08 -0.06174316
v -0.08182067 0.06332902 -0.06174316
v -0.1569012 0.3491994 -0.06174316
v -0.08182067 0.2646072 -0.06174316
v -0.08182067 0.2914228 -0.06174316
v -0.08182067 0.3491994 -0.06174316
v -0.1569012 3.814697E-08 0.06174316
v -0.08182067 0.06332902 0.06174316
v -0.08182067 3.814697E-08 0.06174316
v -0.08182067 0.2646072 0.06174316
v -0.1569012 0.3491994 0.06174316
v -0.08182067 0.2914228 0.06174316
v -0.08182067 0.3491994 0.06174316
v 0.1569009 0.06332902 0.06174316
v 0.1569009 3.814697E-08 0.06174316
v -0.08182067 3.814697E-08 0.06174316
v -0.08182067 0.06332902 0.06174316
v 0.1569009 3.814697E-08 -0.06174316
v 0.1569009 0.06332902 -0.06174316
v -0.08182067 0.06332902 -0.06174316
v -0.08182067 3.814697E-08 -0.06174316
v 0.1569009 0.3491994 -0.06174316
v 0.1569009 0.3491994 0.06174316
v -0.08182067 0.3491994 0.06174316
v -0.08182067 0.3491994 -0.06174316
v -0.08182067 0.3491994 0.06174316
v -0.1569012 0.3491994 0.06174316
v -0.1569012 0.3491994 -0.06174316
v -0.08182067 0.3491994 -0.06174316
v 0.1569009 0.303515 0.06174316
v 0.1569009 0.06332902 0.04332947
v 0.1569009 0.06332902 0.06174316
v 0.1569009 0.2750284 0.04332947
v 0.1569009 0.303515 -0.06174316
v 0.1569009 0.2750284 -0.04332947
v 0.1569009 0.06332902 -0.06174316
v 0.1569009 0.06332902 -0.04332947
v 0.1569009 0.06332902 0.06174316
v 0.1569009 0.06332902 0.04332947
v 0.1569009 0.02568193 0.04332947
v 0.1569009 3.814697E-08 0.06174316
v 0.1569009 0.02568193 -0.04332947
v 0.1569009 3.814697E-08 -0.06174316
v 0.1569009 0.06332902 -0.04332947
v 0.1569009 0.06332902 -0.06174316
v 0.1569009 0.3303306 -0.06174316
v 0.1569009 0.3491994 -0.06174316
v -0.08182067 0.3491994 -0.06174316
v -0.08182067 0.2914228 -0.06174316
v 0.1569009 0.3491994 -0.06174316
v 0.1569009 0.3303306 -0.06174316
v 0.1569009 0.3303306 0.06174316
v 0.1569009 0.3491994 0.06174316
v -0.08182067 0.3491994 0.06174316
v 0.1569009 0.3491994 0.06174316
v 0.1569009 0.3303306 0.06174316
v -0.08182067 0.2914228 0.06174316
v 0.07375854 0.2046864 0.06174316
v 0.07375854 0.1482752 0.06174316
v 0.01638428 0.1179193 0.06174316
v 0.01638428 0.2350423 0.06174316
v -0.0409906 0.2046864 0.06174316
v -0.0409906 0.1482752 0.06174316
v -0.1569012 0.02568193 -0.04332947
v -0.1569012 0.06332899 -0.04332947
v -0.1569012 0.06332899 0.04333008
v -0.1569012 0.02568193 0.04332947
v -0.08182067 0.2646072 -0.06174316
v -0.0409906 0.1482752 -0.06174316
v -0.0409906 0.2046864 -0.06174316
v 0.01638428 0.2350423 -0.06174316
v -0.08182067 0.06332902 -0.06174316
v 0.1569009 0.303515 -0.06174316
v 0.01638428 0.1179193 -0.06174316
v 0.07375854 0.2046864 -0.06174316
v 0.1569009 0.06332902 -0.06174316
v 0.07375854 0.1482752 -0.06174316
v -0.08182067 0.2646072 0.06174316
v -0.0409906 0.2046864 0.06174316
v -0.0409906 0.1482752 0.06174316
v 0.01638428 0.2350423 0.06174316
v -0.08182067 0.06332902 0.06174316
v 0.1569009 0.303515 0.06174316
v 0.01638428 0.1179193 0.06174316
v 0.07375854 0.2046864 0.06174316
v 0.1569009 0.06332902 0.06174316
v 0.07375854 0.1482752 0.06174316
v -0.1569012 0.3491994 0.06174316
v -0.1569012 3.814697E-08 0.06174316
v -0.1569012 0.02568193 0.04332947
v -0.1569012 3.814697E-08 -0.06174316
v -0.1569012 0.02568193 -0.04332947
v -0.1569012 0.06332899 0.04333008
v -0.1569012 0.2750283 0.04332947
v -0.1569012 0.2750283 -0.04332947
v -0.1569012 0.3491994 -0.06174316
v -0.1569012 0.06332899 -0.04332947
vt 0.4237671 0.01057816
vt 0.4237671 0.01057816
vt 0.4237671 0.01057816
vt 0.4237671 0.01057816
vt 0.4237671 0.01057816
vt 0.4237671 0.01057816
vt 0.4168091 0.01087629
vt 0.4168091 0.0108757
vt 0.4168091 0.0108757
vt 0.4168091 0.01087629
vt 0.4168091 0.0108757
vt 0.4168091 0.01087642
vt 0.4168091 0.0108757
vt 0.4168091 0.01087642
vt 0.4168091 0.01087666
vt 0.4168091 0.01087666
vt 0.2078857 0.3300776
vt 0.2078857 0.3300776
vt 0.2078857 0.3300776
vt 0.2078857 0.3300776
vt 0.3501587 0.4465346
vt 0.3501587 0.4465348
vt 0.3501587 0.4465348
vt 0.3501587 0.4465346
vt 0.2077026 0.3274746
vt 0.2077026 0.3274746
vt 0.2077026 0.3274746
vt 0.2077026 0.3274746
vt 0.2077026 0.3274746
vt 0.2077026 0.3274746
vt 0.2077026 0.3274746
vt 0.2077026 0.3274746
vt 0.2077026 0.3274746
vt 0.2077026 0.3274746
vt 0.2077026 0.3274746
vt 0.2077026 0.3274746
vt 0.3501587 0.4465348
vt 0.3501587 0.4465346
vt 0.3501587 0.4465351
vt 0.3501587 0.4465332
vt 0.3501587 0.4465332
vt 0.3501587 0.4465332
vt 0.3501587 0.4465332
vt 0.3501587 0.4465348
vt 0.3501587 0.4465351
vt 0.3501587 0.4465346
vt 0.3501587 0.4465332
vt 0.3501587 0.4465332
vt 0.3501587 0.4465332
vt 0.3501587 0.4465332
vt 0.2078857 0.3300776
vt 0.2078857 0.3300776
vt 0.2078857 0.3300776
vt 0.2078857 0.3300776
vt 0.2078857 0.3300776
vt 0.2078857 0.3300776
vt 0.2078857 0.3300776
vt 0.2078857 0.3300776
vt 0.1380416 0.4462248
vt 0.1380416 0.4462248
vt 0.1380416 0.4462248
vt 0.1380416 0.4462248
vt 0.3501587 0.4465332
vt 0.3501587 0.4465332
vt 0.3501587 0.4465332
vt 0.3501587 0.4465332
vt 0.1380416 0.4462248
vt 0.1380416 0.4462248
vt 0.1380416 0.4462248
vt 0.1380416 0.4462248
vt 0.1380416 0.4462248
vt 0.1380416 0.4462248
vt 0.1380416 0.4462248
vt 0.1380416 0.4462248
vt 0.2078857 0.3300776
vt 0.2078857 0.3300776
vt 0.2078857 0.3300776
vt 0.2078857 0.3300776
vt 0.2078857 0.3300776
vt 0.2078857 0.3300776
vt 0.2078857 0.3300776
vt 0.2078857 0.3300776
vt 0.1380416 0.4462248
vt 0.1380416 0.4462248
vt 0.1380416 0.4462248
vt 0.1380416 0.4462248
vt 0.1380416 0.4462248
vt 0.1380416 0.4462248
vt 0.1380416 0.4462248
vt 0.1380416 0.4462248
vt 0.1380416 0.4462248
vt 0.1380416 0.4462248
vt 0.1380416 0.4462248
vt 0.1380416 0.4462248
vt 0.4237671 0.01057816
vt 0.4237671 0.01057816
vt 0.4237671 0.01057816
vt 0.4237671 0.01057816
vt 0.4237671 0.01057816
vt 0.4237671 0.01057816
vt 0.1032104 0.2275372
vt 0.1032104 0.2275376
vt 0.1032104 0.2275376
vt 0.1032104 0.2275372
vt 0.1380416 0.4462248
vt 0.1380416 0.4462248
vt 0.1380416 0.4462248
vt 0.1380416 0.4462248
vt 0.1380416 0.4462248
vt 0.1380416 0.4462248
vt 0.1380416 0.4462248
vt 0.1380416 0.4462248
vt 0.1380416 0.4462248
vt 0.1380416 0.4462248
vt 0.1380416 0.4462248
vt 0.1380416 0.4462248
vt 0.1380416 0.4462248
vt 0.1380416 0.4462248
vt 0.1380416 0.4462248
vt 0.1380416 0.4462248
vt 0.1380416 0.4462248
vt 0.1380416 0.4462248
vt 0.1380416 0.4462248
vt 0.1380416 0.4462248
vt 0.3501587 0.4465332
vt 0.3501587 0.4465348
vt 0.3501587 0.4465348
vt 0.3501587 0.4465348
vt 0.3501587 0.4465348
vt 0.3501587 0.4465343
vt 0.3501587 0.4465332
vt 0.3501587 0.4465332
vt 0.3501587 0.4465332
vt 0.3501587 0.4465343
vn 0 0 -1
vn 0 0 -1
vn 0 0 -1
vn 0 0 -1
vn 0 0 -1
vn 0 0 -1
vn -1 0 0
vn -1 0 0
vn -1 0 0
vn -1 0 0
vn 1 0 0
vn 1 0 0
vn 1 0 0
vn 1 0 0
vn 1 0 0
vn 1 0 0
vn 0 -1 0
vn 0 -1 0
vn 0 -1 0
vn 0 -1 0
vn 0 -1 0
vn 0 -1 0
vn 0 -1 0
vn 0 -1 0
vn 0 0 -1
vn 0 0 -1
vn 0 0 -1
vn 0 0 -1
vn 1 0 0
vn 1 0 0
vn 1 0 0
vn 1 0 0
vn 0 0 1
vn 0 0 1
vn 0 0 1
vn 0 0 1
vn 0 0 -1
vn 0 0 -1
vn 0 0 -1
vn 0 0 -1
vn 0 0 -1
vn 0 0 -1
vn 0 0 -1
vn 0 0 1
vn 0 0 1
vn 0 0 1
vn 0 0 1
vn 0 0 1
vn 0 0 1
vn 0 0 1
vn 0 0 1
vn 0 0 1
vn 0 0 1
vn 0 0 1
vn 0 0 -1
vn 0 0 -1
vn 0 0 -1
vn 0 0 -1
vn 0 1 0
vn 0 1 0
vn 0 1 0
vn 0 1 0
vn 0 1 0
vn 0 1 0
vn 0 1 0
vn 0 1 0
vn 1 0 0
vn 1 0 0
vn 1 0 0
vn 1 0 0
vn 1 0 0
vn 1 0 0
vn 1 0 0
vn 1 0 0
vn 1 0 0
vn 1 0 0
vn 1 0 0
vn 1 0 0
vn 1 0 0
vn 1 0 0
vn 1 0 0
vn 1 0 0
vn 0 0 -1
vn 0 0 -1
vn 0 0 -1
vn 0 0 -1
vn 1 0 0
vn 1 0 0
vn 1 0 0
vn 1 0 0
vn 0 0 1
vn 0 0 1
vn 0 0 1
vn 0 0 1
vn 0 0 1
vn 0 0 1
vn 0 0 1
vn 0 0 1
vn 0 0 1
vn 0 0 1
vn -1 0 0
vn -1 0 0
vn -1 0 0
vn -1 0 0
vn 0 0 -1
vn 0 0 -1
vn 0 0 -1
vn 0 0 -1
vn 0 0 -1
vn 0 0 -1
vn 0 0 -1
vn 0 0 -1
vn 0 0 -1
vn 0 0 -1
vn 0 0 1
vn 0 0 1
vn 0 0 1
vn 0 0 1
vn 0 0 1
vn 0 0 1
vn 0 0 1
vn 0 0 1
vn 0 0 1
vn 0 0 1
vn -1 0 0
vn -1 0 0
vn -1 0 0
vn -1 0 0
vn -1 0 0
vn -1 0 0
vn -1 0 0
vn -1 0 0
vn -1 0 0
vn -1 0 0
g SM_Prop_LaundryBox_01_0
f 3/3/3 2/2/2 1/1/1
f 2/2/2 4/4/4 1/1/1
f 5/5/5 4/4/4 2/2/2
f 6/6/6 5/5/5 2/2/2
f 9/9/9 8/8/8 7/7/7
f 10/10/10 9/9/9 7/7/7
f 13/13/13 12/12/12 11/11/11
f 12/12/12 14/14/14 11/11/11
f 12/12/12 15/15/15 14/14/14
f 15/15/15 16/16/16 14/14/14
f 19/19/19 18/18/18 17/17/17
f 20/20/20 19/19/19 17/17/17
f 23/23/23 22/22/22 21/21/21
f 24/24/24 23/23/23 21/21/21
f 27/27/27 26/26/26 25/25/25
f 28/28/28 27/27/27 25/25/25
f 31/31/31 30/30/30 29/29/29
f 32/32/32 31/31/31 29/29/29
f 35/35/35 34/34/34 33/33/33
f 36/36/36 35/35/35 33/33/33
f 39/39/39 38/38/38 37/37/37
f 39/39/39 37/37/37 40/40/40
f 41/41/41 39/39/39 40/40/40
f 42/42/42 41/41/41 40/40/40
f 42/42/42 40/40/40 43/43/43
f 46/46/46 45/45/45 44/44/44
f 45/45/45 47/47/47 44/44/44
f 47/47/47 48/48/48 44/44/44
f 47/47/47 49/49/49 48/48/48
f 49/49/49 50/50/50 48/48/48
f 53/53/53 52/52/52 51/51/51
f 54/54/54 53/53/53 51/51/51
f 57/57/57 56/56/56 55/55/55
f 58/58/58 57/57/57 55/55/55
f 61/61/61 60/60/60 59/59/59
f 62/62/62 61/61/61 59/59/59
f 65/65/65 64/64/64 63/63/63
f 66/66/66 65/65/65 63/63/63
f 69/69/69 68/68/68 67/67/67
f 68/68/68 70/70/70 67/67/67
f 67/67/67 70/70/70 71/71/71
f 70/70/70 72/72/72 71/71/71
f 71/71/71 72/72/72 73/73/73
f 72/72/72 74/74/74 73/73/73
f 77/77/77 76/76/76 75/75/75
f 78/78/78 77/77/77 75/75/75
f 79/79/79 77/77/77 78/78/78
f 80/80/80 79/79/79 78/78/78
f 81/81/81 79/79/79 80/80/80
f 82/82/82 81/81/81 80/80/80
f 85/85/85 84/84/84 83/83/83
f 86/86/86 85/85/85 83/83/83
f 89/89/89 88/88/88 87/87/87
f 90/90/90 89/89/89 87/87/87
f 93/93/93 92/92/92 91/91/91
f 94/94/94 93/93/93 91/91/91
f 97/97/97 96/96/96 95/95/95
f 98/98/98 97/97/97 95/95/95
f 98/98/98 99/99/99 97/97/97
f 99/99/99 100/100/100 97/97/97
f 103/103/103 102/102/102 101/101/101
f 104/104/104 103/103/103 101/101/101
f 107/107/107 106/106/106 105/105/105
f 107/107/107 105/105/105 108/108/108
f 106/106/106 109/109/109 105/105/105
f 108/108/108 105/105/105 110/110/110
f 106/106/106 111/111/111 109/109/109
f 112/112/112 108/108/108 110/110/110
f 111/111/111 113/113/113 109/109/109
f 112/112/112 110/110/110 113/113/113
f 114/114/114 113/113/113 111/111/111
f 114/114/114 112/112/112 113/113/113
f 117/117/117 116/116/116 115/115/115
f 115/115/115 116/116/116 118/118/118
f 119/119/119 117/117/117 115/115/115
f 115/115/115 118/118/118 120/120/120
f 121/121/121 117/117/117 119/119/119
f 118/118/118 122/122/122 120/120/120
f 123/123/123 121/121/121 119/119/119
f 120/120/120 122/122/122 123/123/123
f 123/123/123 124/124/124 121/121/121
f 122/122/122 124/124/124 123/123/123
f 127/127/127 126/126/126 125/125/125
f 126/126/126 127/127/127 128/128/128
f 127/127/127 129/129/129 128/128/128
f 125/125/125 130/130/130 127/127/127
f 125/125/125 131/131/131 130/130/130
f 132/132/132 131/131/131 125/125/125
f 133/133/133 128/128/128 129/129/129
f 133/133/133 132/132/132 125/125/125
f 129/129/129 134/134/134 133/133/133
f 134/134/134 132/132/132 133/133/133
