g SM_Prop_Poster_05
v -0.1287925 -0.1801415 0.02277326
v 0.1075511 -0.1760793 0.04506724
v -0.128828 -0.1790056 0.03687349
v 0.1037484 -0.1715424 0.05820634
v -0.1334852 -0.02903574 0.01174319
v 0.1090205 -0.06439089 0.01836623
v -0.1334852 -0.02903574 0
v 0.1090205 -0.06439089 0.006623046
v 0.1132539 -0.1322229 0.03442387
v 0.1134868 -0.139703 0.02065782
v -0.0214591 -0.1792685 0.03689395
v -0.008016337 -0.1799968 0.02277326
v -0.1343871 -1.907349E-08 0.01414054
v 0.109139 0.0002920342 0.01414054
v 0.109139 0.0002920342 0
v -0.1343871 -1.907349E-08 0
v 0.1037484 -0.1715424 0.05820634
v -0.0214591 -0.1792685 0.03689395
v 0.1075511 -0.1760793 0.04506724
v 0.1037484 -0.1715424 0.05820634
v 0.1132539 -0.1322229 0.03442387
v 0.1132539 -0.1322229 0.03442387
v -0.0214591 -0.1792685 0.03689395
v -0.008016337 -0.1799968 0.02277326
v 0.1075511 -0.1760793 0.04506724
v 0.1134868 -0.139703 0.02065782
v 0.1132539 -0.1322229 0.03442387
v 0.1090205 -0.06439089 0.01836623
v 0.1134868 -0.139703 0.02065782
v -0.008016337 -0.1799968 0.02277326
v 0.1134868 -0.139703 0.02065782
v 0.1090205 -0.06439089 0.006623046
v -0.128828 -0.1790056 0.03687349
v -0.1334852 -0.02903574 0.01174319
v -0.1287925 -0.1801415 0.02277326
v -0.128828 -0.1790056 0.03687349
v -0.0214591 -0.1792685 0.03689395
v -0.008016337 -0.1799968 0.02277326
v -0.1287925 -0.1801415 0.02277326
v -0.1334852 -0.02903574 0
v -0.1334852 -0.02903574 0.01174319
v -0.1343871 -1.907349E-08 0.01414054
v 0.109139 0.0002920342 0.01414054
v 0.1090205 -0.06439089 0.01836623
v 0.109139 0.0002920342 0.01414054
v 0.109139 0.0002920342 0
v 0.109139 0.0002920342 0
v -0.1343871 -1.907349E-08 0
v -0.1343871 -1.907349E-08 0
v -0.1343871 -1.907349E-08 0.01414054
vt 0.2944336 0.2484131
vt 0.3171387 0.2491455
vt 0.2944336 0.2486572
vt 0.3168945 0.25
vt 0.2939453 0.2736816
vt 0.3173828 0.269043
vt 0.2937012 0.2751465
vt 0.3173828 0.269043
vt 0.317627 0.2575684
vt 0.3178711 0.2556152
vt 0.3046875 0.2486572
vt 0.3061523 0.2485352
vt 0.2937012 0.2802734
vt 0.3173828 0.2802734
vt 0.3173828 0.2802734
vt 0.2937012 0.2802734
vt 0.3166504 0.2498779
vt 0.3044434 0.2484131
vt 0.3171387 0.2491455
vt 0.3168945 0.25
vt 0.3178711 0.2568359
vt 0.317627 0.2575684
vt 0.3044434 0.2484131
vt 0.3061523 0.2485352
vt 0.3171387 0.2491455
vt 0.3178711 0.2556152
vt 0.3178711 0.2568359
vt 0.3173828 0.269043
vt 0.3178711 0.2556152
vt 0.3061523 0.2485352
vt 0.3178711 0.2556152
vt 0.3173828 0.269043
vt 0.2939453 0.2485352
vt 0.2939453 0.2736816
vt 0.2944336 0.2484131
vt 0.2944336 0.2486572
vt 0.3046875 0.2486572
vt 0.3061523 0.2485352
vt 0.2944336 0.2484131
vt 0.2937012 0.2751465
vt 0.2939453 0.2736816
vt 0.2937012 0.2802734
vt 0.3173828 0.2802734
vt 0.3173828 0.269043
vt 0.3173828 0.2802734
vt 0.3173828 0.2802734
vt 0.3173828 0.2802734
vt 0.2937012 0.2802734
vt 0.2937012 0.2802734
vt 0.2937012 0.2802734
vn -0.9995117 -0.03103638 -1.060963E-05
vn 0.01176453 -0.9804688 0.1967773
vn -0.9995117 -0.03103638 -1.060963E-05
vn 0.01176453 -0.9804688 0.1967773
vn -0.9995117 -0.03103638 0
vn -0.01200867 0.1741943 0.9848633
vn -0.9995117 -0.03103638 0
vn 0.9995117 0.02796936 -0.004005432
vn -0.1734619 0.5400391 0.8237305
vn 0.9794922 -0.08276367 0.1838379
vn 0.01176453 -0.9804688 0.1967773
vn 0.01176453 -0.9804688 0.1967773
vn -0.001199722 1 0
vn -0.001199722 1 0
vn -0.001199722 1 0
vn -0.001199722 1 0
vn -0.1734619 0.5400391 0.8237305
vn -0.1734619 0.5400391 0.8237305
vn 0.9794922 -0.08276367 0.1838379
vn 0.9794922 -0.08276367 0.1838379
vn 0.9794922 -0.08276367 0.1838379
vn -0.06121826 0.2263184 0.972168
vn -0.003910065 0.1655273 0.9863281
vn 0.1744385 -0.5683594 -0.8041992
vn 0.1744385 -0.5683594 -0.8041992
vn 0.1744385 -0.5683594 -0.8041992
vn 0.9980469 0.05895996 -0.008171082
vn 0.9995117 0.0335083 -0.004753113
vn 0.9980469 0.05895996 -0.008171082
vn 0.005264282 -0.1472168 -0.9892578
vn 0.04278564 -0.180542 -0.9824219
vn 0.009147644 -0.1213379 -0.9926758
vn -0.002077103 0.1635742 0.9863281
vn -0.002077103 0.1635742 0.9863281
vn -0.0005226135 -0.9980469 0.06567383
vn -0.0005226135 -0.9980469 0.06567383
vn -0.0005226135 -0.9980469 0.06567383
vn -0.0005226135 -0.9980469 0.06567383
vn 0.003883362 -0.1459961 -0.9892578
vn 0.005550385 -0.1188965 -0.9926758
vn -0.01222229 0.01939392 0.9995117
vn -0.01222229 0.01939392 0.9995117
vn -0.01222229 0.01939392 0.9995117
vn -0.01222229 0.01939392 0.9995117
vn 1 -0.001832962 0
vn 1 -0.001832962 0
vn 0.008514404 -0.07043457 -0.9975586
vn 0.008514404 -0.07043457 -0.9975586
vn -0.9995117 -0.03105164 0
vn -0.9995117 -0.03105164 0
g SM_Prop_Poster_05_0
f 18/18/18 17/17/17 9/9/9
f 26/26/26 25/25/25 24/24/24
f 2/2/2 4/4/4 11/11/11
f 12/12/12 2/2/2 11/11/11
f 15/15/15 16/16/16 13/13/13
f 14/14/14 15/15/15 13/13/13
f 20/20/20 19/19/19 10/10/10
f 21/21/21 20/20/20 10/10/10
f 1/1/1 3/3/3 7/7/7
f 3/3/3 5/5/5 7/7/7
f 5/5/5 50/50/50 7/7/7
f 50/50/50 49/49/49 7/7/7
f 23/23/23 22/22/22 6/6/6
f 23/23/23 6/6/6 33/33/33
f 6/6/6 34/34/34 33/33/33
f 29/29/29 8/8/8 27/27/27
f 8/8/8 28/28/28 27/27/27
f 8/8/8 46/46/46 28/28/28
f 46/46/46 45/45/45 28/28/28
f 32/32/32 31/31/31 30/30/30
f 32/32/32 30/30/30 39/39/39
f 40/40/40 32/32/32 39/39/39
f 40/40/40 48/48/48 32/32/32
f 48/48/48 47/47/47 32/32/32
f 37/37/37 36/36/36 35/35/35
f 38/38/38 37/37/37 35/35/35
f 43/43/43 42/42/42 41/41/41
f 44/44/44 43/43/43 41/41/41
