g SM_Prop_Fan_Pedistal_01_Blades
v -0.2133621 -0.03034674 -0.01571259
v -0.04201355 0.0727691 0.01974273
v -0.0840271 -6.363482E-08 0.01974273
v 0.132959 -0.1696042 -0.01571411
v -0.04201355 -0.07276922 0.01974273
v 0.04201355 -0.07276922 0.01974273
v 0.08040161 0.1999471 -0.01571716
v 0.0840271 -6.363482E-08 0.01974273
v 0.04201355 0.0727691 0.01974273
v 0.132959 -0.1696042 -0.01571411
v -0.1198196 -0.1696043 0.04910979
v -0.04201355 -0.07276922 0.01974273
v 0.08040161 0.1999471 -0.01571716
v 0.2067932 -0.01896483 0.04910522
v 0.0840271 -6.363482E-08 0.01974273
v -0.2133621 -0.03034674 -0.01571259
v -0.08697357 0.1885691 0.04910979
v -0.04201355 0.0727691 0.01974273
v -0.009877014 -0.01710814 -0.01974396
v -0.009877014 -0.01710822 -0.05864471
v -0.009877014 0.01710809 -0.05864471
v -0.009877014 0.01710809 -0.01974396
v 0.01975479 1.265912E-08 -0.01974396
v 0.01975479 -6.363482E-08 -0.05864471
v -0.009877014 -0.01710822 -0.05864471
v -0.009877014 -0.01710814 -0.01974396
v -0.009877014 0.01710809 -0.01974396
v -0.009877014 0.01710809 -0.05864471
v 0.01975479 -6.363482E-08 -0.05864471
v 0.01975479 1.265912E-08 -0.01974396
v 0.04201355 0.0727691 -0.01974243
v 0.04201355 0.0727691 0.01974273
v -0.04201355 0.0727691 0.01974273
v -0.04201355 0.0727691 -0.01974243
v -0.1786407 0.2123597 0.03777404
v -0.183313 0.2042632 0.04910979
v -0.2732315 0.04851892 -0.01571259
v -0.2685577 0.05661539 -0.02704834
v -0.0840271 1.265912E-08 -0.01974396
v -0.0840271 -6.363482E-08 0.01974273
v -0.04201355 -0.07276922 0.01974273
v -0.04201355 -0.07276915 -0.01974243
v -0.09459076 -0.2608861 0.03777404
v -0.08524475 -0.2608861 0.04910979
v 0.09459076 -0.2608861 -0.01571411
v 0.08524475 -0.2608861 -0.02704834
v 0.04201355 -0.07276915 -0.01974243
v 0.04201355 -0.07276922 0.01974273
v 0.0840271 -6.363482E-08 0.01974273
v 0.0840271 1.265912E-08 -0.01974396
v 0.2732284 0.04852258 0.03777099
v 0.2685577 0.05661905 0.04910369
v 0.1786377 0.2123597 -0.01571716
v 0.183313 0.2042671 -0.02704987
v -0.04201355 0.0727691 -0.01974243
v -0.08040466 0.1999471 0.01187224
v -0.2067932 -0.01896857 -0.05295013
v -0.0840271 1.265912E-08 -0.01974396
v -0.0840271 1.265912E-08 -0.01974396
v -0.2067932 -0.01896857 -0.05295013
v -0.2133621 -0.03034674 -0.01571259
v -0.0840271 -6.363482E-08 0.01974273
v -0.04201355 0.0727691 0.01974273
v -0.08697357 0.1885691 0.04910979
v -0.08040466 0.1999471 0.01187224
v -0.04201355 0.0727691 -0.01974243
v -0.04201355 -0.07276915 -0.01974243
v -0.132959 -0.1696043 0.01187224
v 0.1198196 -0.1696042 -0.05295166
v 0.04201355 -0.07276915 -0.01974243
v 0.04201355 -0.07276915 -0.01974243
v 0.1198196 -0.1696042 -0.05295166
v 0.132959 -0.1696042 -0.01571411
v 0.04201355 -0.07276922 0.01974273
v -0.04201355 -0.07276922 0.01974273
v -0.1198196 -0.1696043 0.04910979
v -0.132959 -0.1696043 0.01187224
v -0.04201355 -0.07276915 -0.01974243
v 0.0840271 1.265912E-08 -0.01974396
v 0.2133606 -0.03034667 0.01187072
v 0.08697357 0.1885691 -0.05295166
v 0.04201355 0.0727691 -0.01974243
v 0.04201355 0.0727691 -0.01974243
v 0.08697357 0.1885691 -0.05295166
v 0.08040161 0.1999471 -0.01571716
v 0.04201355 0.0727691 0.01974273
v 0.0840271 -6.363482E-08 0.01974273
v 0.2067932 -0.01896483 0.04910522
v 0.2133606 -0.03034667 0.01187072
v 0.0840271 1.265912E-08 -0.01974396
v -0.08040466 0.1999471 0.01187224
v -0.1786407 0.2123597 0.03777404
v -0.2685577 0.05661539 -0.02704834
v -0.2067932 -0.01896857 -0.05295013
v -0.2067932 -0.01896857 -0.05295013
v -0.2685577 0.05661539 -0.02704834
v -0.2732315 0.04851892 -0.01571259
v -0.2133621 -0.03034674 -0.01571259
v -0.2133621 -0.03034674 -0.01571259
v -0.2732315 0.04851892 -0.01571259
v -0.183313 0.2042632 0.04910979
v -0.08697357 0.1885691 0.04910979
v -0.08697357 0.1885691 0.04910979
v -0.183313 0.2042632 0.04910979
v -0.1786407 0.2123597 0.03777404
v -0.08040466 0.1999471 0.01187224
v -0.132959 -0.1696043 0.01187224
v -0.09459076 -0.2608861 0.03777404
v 0.08524475 -0.2608861 -0.02704834
v 0.1198196 -0.1696042 -0.05295166
v 0.1198196 -0.1696042 -0.05295166
v 0.08524475 -0.2608861 -0.02704834
v 0.09459076 -0.2608861 -0.01571411
v 0.132959 -0.1696042 -0.01571411
v 0.132959 -0.1696042 -0.01571411
v 0.09459076 -0.2608861 -0.01571411
v -0.08524475 -0.2608861 0.04910979
v -0.1198196 -0.1696043 0.04910979
v -0.1198196 -0.1696043 0.04910979
v -0.08524475 -0.2608861 0.04910979
v -0.09459076 -0.2608861 0.03777404
v -0.132959 -0.1696043 0.01187224
v 0.2133606 -0.03034667 0.01187072
v 0.2732284 0.04852258 0.03777099
v 0.183313 0.2042671 -0.02704987
v 0.08697357 0.1885691 -0.05295166
v 0.08697357 0.1885691 -0.05295166
v 0.183313 0.2042671 -0.02704987
v 0.1786377 0.2123597 -0.01571716
v 0.08040161 0.1999471 -0.01571716
v 0.08040161 0.1999471 -0.01571716
v 0.1786377 0.2123597 -0.01571716
v 0.2685577 0.05661905 0.04910369
v 0.2067932 -0.01896483 0.04910522
v 0.2067932 -0.01896483 0.04910522
v 0.2685577 0.05661905 0.04910369
v 0.2732284 0.04852258 0.03777099
v 0.2133606 -0.03034667 0.01187072
v -0.04201355 0.0727691 -0.01974243
v 0 1.265912E-08 -0.01974396
v 0.04201355 0.0727691 -0.01974243
v -0.0840271 1.265912E-08 -0.01974396
v 0.0840271 1.265912E-08 -0.01974396
v -0.04201355 -0.07276915 -0.01974243
v 0.04201355 -0.07276915 -0.01974243
v 0.04201355 0.0727691 0.01974273
v 0 -6.363482E-08 0.01974273
v -0.04201355 0.0727691 0.01974273
v 0.0840271 -6.363482E-08 0.01974273
v -0.0840271 -6.363482E-08 0.01974273
v 0.04201355 -0.07276922 0.01974273
v -0.04201355 -0.07276922 0.01974273
vt 0.1340332 0.3349609
vt 0.1340332 0.3349609
vt 0.1340332 0.3349609
vt 0.1340332 0.3349609
vt 0.1340332 0.3349609
vt 0.1340332 0.3349609
vt 0.1340332 0.3349609
vt 0.1340332 0.3349609
vt 0.1340332 0.3349609
vt 0.1340332 0.3349609
vt 0.1340332 0.3349609
vt 0.1340332 0.3349609
vt 0.1340332 0.3349609
vt 0.1340332 0.3349609
vt 0.1340332 0.3349609
vt 0.1340332 0.3349609
vt 0.1340332 0.3349609
vt 0.1340332 0.3349609
vt 0.1341553 0.3811035
vt 0.1341553 0.3811035
vt 0.1341553 0.3811035
vt 0.1341553 0.3811035
vt 0.1341553 0.3811035
vt 0.1341553 0.3811035
vt 0.1341553 0.3811035
vt 0.1341553 0.3811035
vt 0.1341553 0.3811035
vt 0.1341553 0.3811035
vt 0.1341553 0.3811035
vt 0.1341553 0.3811035
vt 0.1340332 0.3349609
vt 0.1340332 0.3349609
vt 0.1340332 0.3349609
vt 0.1340332 0.3349609
vt 0.1340332 0.3349609
vt 0.1340332 0.3349609
vt 0.1340332 0.3349609
vt 0.1340332 0.3349609
vt 0.1340332 0.3349609
vt 0.1340332 0.3349609
vt 0.1340332 0.3349609
vt 0.1340332 0.3349609
vt 0.1340332 0.3349609
vt 0.1340332 0.3349609
vt 0.1340332 0.3349609
vt 0.1340332 0.3349609
vt 0.1340332 0.3349609
vt 0.1340332 0.3349609
vt 0.1340332 0.3349609
vt 0.1340332 0.3349609
vt 0.1340332 0.3349609
vt 0.1340332 0.3349609
vt 0.1340332 0.3349609
vt 0.1340332 0.3349609
vt 0.1340332 0.3349609
vt 0.1340332 0.3349609
vt 0.1340332 0.3349609
vt 0.1340332 0.3349609
vt 0.1340332 0.3349609
vt 0.1340332 0.3349609
vt 0.1340332 0.3349609
vt 0.1340332 0.3349609
vt 0.1340332 0.3349609
vt 0.1340332 0.3349609
vt 0.1340332 0.3349609
vt 0.1340332 0.3349609
vt 0.1340332 0.3349609
vt 0.1340332 0.3349609
vt 0.1340332 0.3349609
vt 0.1340332 0.3349609
vt 0.1340332 0.3349609
vt 0.1340332 0.3349609
vt 0.1340332 0.3349609
vt 0.1340332 0.3349609
vt 0.1340332 0.3349609
vt 0.1340332 0.3349609
vt 0.1340332 0.3349609
vt 0.1340332 0.3349609
vt 0.1340332 0.3349609
vt 0.1340332 0.3349609
vt 0.1340332 0.3349609
vt 0.1340332 0.3349609
vt 0.1340332 0.3349609
vt 0.1340332 0.3349609
vt 0.1340332 0.3349609
vt 0.1340332 0.3349609
vt 0.1340332 0.3349609
vt 0.1340332 0.3349609
vt 0.1340332 0.3349609
vt 0.1340332 0.3349609
vt 0.1340332 0.3349609
vt 0.1340332 0.3349609
vt 0.1340332 0.3349609
vt 0.1340332 0.3349609
vt 0.1340332 0.3349609
vt 0.1340332 0.3349609
vt 0.1340332 0.3349609
vt 0.1340332 0.3349609
vt 0.1340332 0.3349609
vt 0.1340332 0.3349609
vt 0.1340332 0.3349609
vt 0.1340332 0.3349609
vt 0.1340332 0.3349609
vt 0.1340332 0.3349609
vt 0.1340332 0.3349609
vt 0.1340332 0.3349609
vt 0.1340332 0.3349609
vt 0.1340332 0.3349609
vt 0.1340332 0.3349609
vt 0.1340332 0.3349609
vt 0.1340332 0.3349609
vt 0.1340332 0.3349609
vt 0.1340332 0.3349609
vt 0.1340332 0.3349609
vt 0.1340332 0.3349609
vt 0.1340332 0.3349609
vt 0.1340332 0.3349609
vt 0.1340332 0.3349609
vt 0.1340332 0.3349609
vt 0.1340332 0.3349609
vt 0.1340332 0.3349609
vt 0.1340332 0.3349609
vt 0.1340332 0.3349609
vt 0.1340332 0.3349609
vt 0.1340332 0.3349609
vt 0.1340332 0.3349609
vt 0.1340332 0.3349609
vt 0.1340332 0.3349609
vt 0.1340332 0.3349609
vt 0.1340332 0.3349609
vt 0.1340332 0.3349609
vt 0.1340332 0.3349609
vt 0.1340332 0.3349609
vt 0.1340332 0.3349609
vt 0.1340332 0.3349609
vt 0.1340332 0.3349609
vt 0.1340332 0.3349609
vt 0.1340332 0.3349609
vt 0.1340332 0.3349609
vt 0.1340332 0.3349609
vt 0.1340332 0.3349609
vt 0.1340332 0.3349609
vt 0.1340332 0.3349609
vt 0.1340332 0.3349609
vt 0.1340332 0.3349609
vt 0.1340332 0.3349609
vt 0.1340332 0.3349609
vt 0.1340332 0.3349609
vt 0.1340332 0.3349609
vt 0.1340332 0.3349609
vt 0.1340332 0.3349609
vt 0.1340332 0.3349609
vn -0.2978516 0.171875 0.9389648
vn -0.2978516 0.171875 0.9389648
vn -0.2978516 0.171875 0.9389648
vn 0 -0.34375 0.9389648
vn 0 -0.34375 0.9389648
vn 0 -0.34375 0.9389648
vn 0.2978516 0.171875 0.9389648
vn 0.2978516 0.171875 0.9389648
vn 0.2978516 0.171875 0.9389648
vn 0.2473145 0.09375 0.9643555
vn 0.2473145 0.09375 0.9643555
vn 0.2473145 0.09375 0.9643555
vn -0.204834 0.1673584 0.9643555
vn -0.204834 0.1673584 0.9643555
vn -0.204834 0.1673584 0.9643555
vn -0.04244995 -0.2609863 0.9643555
vn -0.04244995 -0.2609863 0.9643555
vn -0.04244995 -0.2609863 0.9643555
vn -1 0 0
vn -1 0 0
vn -1 0 0
vn -1 0 0
vn 0.5 -0.8662109 0
vn 0.5 -0.8662109 0
vn 0.5 -0.8662109 0
vn 0.5 -0.8662109 0
vn 0.5 0.8662109 0
vn 0.5 0.8662109 0
vn 0.5 0.8662109 0
vn 0.5 0.8662109 0
vn 0 1 0
vn 0 1 0
vn 0 1 0
vn 0 1 0
vn -0.8662109 0.5 8.410215E-05
vn -0.8662109 0.5 8.410215E-05
vn -0.8662109 0.5 8.410215E-05
vn -0.8662109 0.5 8.410215E-05
vn -0.8662109 -0.5 0
vn -0.8662109 -0.5 0
vn -0.8662109 -0.5 0
vn -0.8662109 -0.5 0
vn 0 -1 0
vn 0 -1 0
vn 0 -1 0
vn 0 -1 0
vn 0.8662109 -0.5 0
vn 0.8662109 -0.5 0
vn 0.8662109 -0.5 0
vn 0.8662109 -0.5 0
vn 0.8662109 0.5 -2.211332E-05
vn 0.8662109 0.5 -2.211332E-05
vn 0.8662109 0.5 -2.211332E-05
vn 0.8662109 0.5 -2.211332E-05
vn 0.1125488 0.1531982 -0.9819336
vn 0.1125488 0.1531982 -0.9819336
vn 0.1125488 0.1531982 -0.9819336
vn 0.1125488 0.1531982 -0.9819336
vn 0.2230225 -0.9667969 -0.1242676
vn 0.2230225 -0.9667969 -0.1242676
vn 0.2230225 -0.9667969 -0.1242676
vn 0.2230225 -0.9667969 -0.1242676
vn 0.9477539 0.2937012 0.1246948
vn 0.9477539 0.2937012 0.1246948
vn 0.9477539 0.2937012 0.1246948
vn 0.9477539 0.2937012 0.1246948
vn -0.1889648 0.02090454 -0.9819336
vn -0.1889648 0.02090454 -0.9819336
vn -0.1889648 0.02090454 -0.9819336
vn -0.1889648 0.02090454 -0.9819336
vn 0.7260742 0.6767578 -0.1243286
vn 0.7260742 0.6767578 -0.1243286
vn 0.7260742 0.6767578 -0.1243286
vn 0.7260742 0.6767578 -0.1243286
vn -0.7285156 0.6738281 0.1246948
vn -0.7285156 0.6738281 0.1246948
vn -0.7285156 0.6738281 0.1246948
vn -0.7285156 0.6738281 0.1246948
vn 0.07635498 -0.1740723 -0.9819336
vn 0.07635498 -0.1740723 -0.9819336
vn 0.07635498 -0.1740723 -0.9819336
vn 0.07635498 -0.1740723 -0.9819336
vn -0.9487305 0.2902832 -0.1243286
vn -0.9487305 0.2902832 -0.1243286
vn -0.9487305 0.2902832 -0.1243286
vn -0.9487305 0.2902832 -0.1243286
vn -0.2194824 -0.9677734 0.1247559
vn -0.2194824 -0.9677734 0.1247559
vn -0.2194824 -0.9677734 0.1247559
vn -0.2194824 -0.9677734 0.1247559
vn -0.09350586 0.373291 -0.9228516
vn -0.09350586 0.373291 -0.9228516
vn -0.09350586 0.373291 -0.9228516
vn -0.09350586 0.373291 -0.9228516
vn -0.7548828 -0.5297852 -0.3869629
vn -0.7548828 -0.5297852 -0.3869629
vn -0.7548828 -0.5297852 -0.3869629
vn -0.7548828 -0.5297852 -0.3869629
vn -0.1486816 -0.2456055 0.9580078
vn -0.1486816 -0.2456055 0.9580078
vn -0.1486816 -0.2456055 0.9580078
vn -0.1486816 -0.2456055 0.9580078
vn 0.1831055 0.8969727 0.4020996
vn 0.1831055 0.8969727 0.4020996
vn 0.1831055 0.8969727 0.4020996
vn 0.1831055 0.8969727 0.4020996
vn -0.2766113 -0.2675781 -0.9228516
vn -0.2766113 -0.2675781 -0.9228516
vn -0.2766113 -0.2675781 -0.9228516
vn -0.2766113 -0.2675781 -0.9228516
vn 0.8359375 -0.388916 -0.3869629
vn 0.8359375 -0.388916 -0.3869629
vn 0.8359375 -0.388916 -0.3869629
vn 0.8359375 -0.388916 -0.3869629
vn 0.2871094 -0.005966187 0.9580078
vn 0.2871094 -0.005966187 0.9580078
vn 0.2871094 -0.005966187 0.9580078
vn 0.2871094 -0.005966187 0.9580078
vn -0.8686523 -0.2900391 0.4020996
vn -0.8686523 -0.2900391 0.4020996
vn -0.8686523 -0.2900391 0.4020996
vn -0.8686523 -0.2900391 0.4020996
vn 0.3701172 -0.1057129 -0.9228516
vn 0.3701172 -0.1057129 -0.9228516
vn 0.3701172 -0.1057129 -0.9228516
vn 0.3701172 -0.1057129 -0.9228516
vn -0.08117676 0.918457 -0.3869629
vn -0.08117676 0.918457 -0.3869629
vn -0.08117676 0.918457 -0.3869629
vn -0.08117676 0.918457 -0.3869629
vn -0.1383057 0.2514648 0.9580078
vn -0.1383057 0.2514648 0.9580078
vn -0.1383057 0.2514648 0.9580078
vn -0.1383057 0.2514648 0.9580078
vn 0.6855469 -0.6069336 0.4020996
vn 0.6855469 -0.6069336 0.4020996
vn 0.6855469 -0.6069336 0.4020996
vn 0.6855469 -0.6069336 0.4020996
vn 0 2.098083E-05 -1
vn 0 0 -1
vn 0 2.098083E-05 -1
vn 0 0 -1
vn 0 0 -1
vn 0 -2.098083E-05 -1
vn 0 -2.098083E-05 -1
vn 0 0 1
vn 0 0 1
vn 0 0 1
vn 0 0 1
vn 0 0 1
vn 0 0 1
vn 0 0 1
g SM_Prop_Fan_Pedistal_01_Blades_0
f 3/3/3 2/2/2 1/1/1
f 6/6/6 5/5/5 4/4/4
f 9/9/9 8/8/8 7/7/7
f 12/12/12 11/11/11 10/10/10
f 15/15/15 14/14/14 13/13/13
f 18/18/18 17/17/17 16/16/16
f 21/21/21 20/20/20 19/19/19
f 22/22/22 21/21/21 19/19/19
f 25/25/25 24/24/24 23/23/23
f 26/26/26 25/25/25 23/23/23
f 29/29/29 28/28/28 27/27/27
f 30/30/30 29/29/29 27/27/27
f 33/33/33 32/32/32 31/31/31
f 34/34/34 33/33/33 31/31/31
f 37/37/37 36/36/36 35/35/35
f 38/38/38 37/37/37 35/35/35
f 41/41/41 40/40/40 39/39/39
f 42/42/42 41/41/41 39/39/39
f 45/45/45 44/44/44 43/43/43
f 46/46/46 45/45/45 43/43/43
f 49/49/49 48/48/48 47/47/47
f 50/50/50 49/49/49 47/47/47
f 53/53/53 52/52/52 51/51/51
f 54/54/54 53/53/53 51/51/51
f 57/57/57 56/56/56 55/55/55
f 58/58/58 57/57/57 55/55/55
f 61/61/61 60/60/60 59/59/59
f 62/62/62 61/61/61 59/59/59
f 65/65/65 64/64/64 63/63/63
f 66/66/66 65/65/65 63/63/63
f 69/69/69 68/68/68 67/67/67
f 70/70/70 69/69/69 67/67/67
f 73/73/73 72/72/72 71/71/71
f 74/74/74 73/73/73 71/71/71
f 77/77/77 76/76/76 75/75/75
f 78/78/78 77/77/77 75/75/75
f 81/81/81 80/80/80 79/79/79
f 82/82/82 81/81/81 79/79/79
f 85/85/85 84/84/84 83/83/83
f 86/86/86 85/85/85 83/83/83
f 89/89/89 88/88/88 87/87/87
f 90/90/90 89/89/89 87/87/87
f 93/93/93 92/92/92 91/91/91
f 94/94/94 93/93/93 91/91/91
f 97/97/97 96/96/96 95/95/95
f 98/98/98 97/97/97 95/95/95
f 101/101/101 100/100/100 99/99/99
f 102/102/102 101/101/101 99/99/99
f 105/105/105 104/104/104 103/103/103
f 106/106/106 105/105/105 103/103/103
f 109/109/109 108/108/108 107/107/107
f 110/110/110 109/109/109 107/107/107
f 113/113/113 112/112/112 111/111/111
f 114/114/114 113/113/113 111/111/111
f 117/117/117 116/116/116 115/115/115
f 118/118/118 117/117/117 115/115/115
f 121/121/121 120/120/120 119/119/119
f 122/122/122 121/121/121 119/119/119
f 125/125/125 124/124/124 123/123/123
f 126/126/126 125/125/125 123/123/123
f 129/129/129 128/128/128 127/127/127
f 130/130/130 129/129/129 127/127/127
f 133/133/133 132/132/132 131/131/131
f 134/134/134 133/133/133 131/131/131
f 137/137/137 136/136/136 135/135/135
f 138/138/138 137/137/137 135/135/135
f 141/141/141 140/140/140 139/139/139
f 139/139/139 140/140/140 142/142/142
f 143/143/143 140/140/140 141/141/141
f 142/142/142 140/140/140 144/144/144
f 145/145/145 140/140/140 143/143/143
f 144/144/144 140/140/140 145/145/145
f 148/148/148 147/147/147 146/146/146
f 146/146/146 147/147/147 149/149/149
f 150/150/150 147/147/147 148/148/148
f 149/149/149 147/147/147 151/151/151
f 152/152/152 147/147/147 150/150/150
f 151/151/151 147/147/147 152/152/152
