g SM_Prop_Cabinet_Stackable_02
v -0.7210831 4.547473E-15 0.3841985
v 0.7238764 4.547473E-15 0.3841985
v -0.7210831 0.05524055 0.3841985
v -0.7210831 0.05524058 0.3361737
v 0.7238764 0.05524058 0.3361737
v 0.7238764 4.547473E-15 -0.3351794
v -0.7210831 4.547473E-15 -0.3351794
v -0.7210831 0.7497572 0.3841985
v 0.7238764 0.7497572 0.3841985
v 0.7238764 0.8 0.3841985
v -0.7210831 0.8 -0.3361127
v 0.7238764 0.8 -0.3307439
v 0.7238764 0.7497572 0.3361737
v -0.7210831 0.7497572 0.3361737
v -0.6655037 0.8 0.3841985
v -0.7210831 0.7740668 0.3841985
v -0.7210831 0.8 0.2689389
v 0.7238764 0.05524055 0.3841985
v -0.7011437 0.05524056 0.3841985
v -0.5234665 0.05524055 0.3841985
v -0.6757879 0.05524055 0.361997
v -0.6571701 0.03499279 0.3841985
v -0.6759104 0.1022405 0.3361737
v -0.6759104 0.7027572 0.3361737
v 0.6787038 0.1022405 0.3361737
v 0.6787038 0.7027572 0.3361737
v -0.02406348 0.05524058 0.3361737
v 0.02685683 0.05524058 0.3361737
v -0.02406348 0.1022405 0.3361737
v 0.02685683 0.1022405 0.3361737
v -0.02406348 0.7027572 0.3361737
v 0.02685683 0.7027572 0.3361737
v 0.02685683 0.7497572 0.3361737
v -0.02406348 0.7497572 0.3361737
v -0.6759104 0.1022405 -0.2925961
v -0.6759104 0.7027572 -0.2925961
v -0.02406348 0.1022405 -0.2925961
v -0.02406348 0.7027572 -0.2925961
v 0.02685683 0.1022405 -0.2925961
v 0.02685683 0.7027572 -0.2925961
v 0.6787038 0.1022405 -0.2925961
v 0.6787038 0.7027572 -0.2925961
v 0.7238764 4.547473E-15 0.3360195
v -0.7210831 4.547473E-15 0.3360195
v 0.7238764 0.8 0.3362786
v -0.6764824 0.3702013 0.3081249
v -0.02417648 0.3702013 0.3081249
v -0.6764824 0.4206127 0.3081249
v -0.02417648 0.4206127 0.3081249
v -0.6764824 0.4206127 -0.2929663
v -0.02417648 0.4206127 -0.2929663
v -0.6764824 0.3702013 -0.2929663
v -0.02417648 0.3702013 -0.2929663
v 0.02719475 0.3702013 0.3081249
v 0.6795006 0.3702013 0.3081249
v 0.02719475 0.4206127 0.3081249
v 0.6795006 0.4206127 0.3081249
v 0.02719475 0.4206127 -0.2929663
v 0.6795006 0.4206127 -0.2929663
v 0.02719475 0.3702013 -0.2929663
v 0.6795006 0.3702013 -0.2929663
v -0.7210831 0.7497572 0.3361737
v -0.6757879 0.05524055 0.361997
v -0.6571701 0.03499279 0.3841985
v 0.7238764 0.7497572 0.3361737
v 0.7238764 4.547473E-15 -0.3351794
v 0.7238764 0.8 -0.3307439
v -0.7210831 0.8 -0.3361127
v -0.7210831 4.547473E-15 -0.3351794
v -0.7210831 0.05524058 0.3361737
v -0.6757879 0.05524055 0.361997
v -0.7011437 0.05524056 0.3841985
v -0.6571701 0.03499279 0.3841985
v -0.5234665 0.05524055 0.3841985
v -0.7210831 0.05524055 0.3841985
v -0.7011437 0.05524056 0.3841985
v 0.7238764 0.05524058 0.3361737
v 0.7238764 0.05524055 0.3841985
v -0.5234665 0.05524055 0.3841985
v 0.7238764 0.7497572 0.3841985
v -0.6655037 0.8 0.3841985
v -0.7210831 0.7497572 0.3841985
v -0.7210831 0.7740668 0.3841985
v -0.7210831 0.7497572 0.3361737
v -0.7210831 0.05524058 0.3361737
v 0.7238764 0.05524058 0.3361737
v 0.7238764 0.7497572 0.3361737
v -0.02406348 0.05524058 0.3361737
v -0.6757879 0.05524055 0.361997
v 0.02685683 0.05524058 0.3361737
v 0.7238764 0.05524058 0.3361737
v -0.6757879 0.05524055 0.361997
v -0.5234665 0.05524055 0.3841985
v -0.02406348 0.05524058 0.3361737
v 0.02685683 0.05524058 0.3361737
v -0.02406348 0.7027572 0.3361737
v -0.02406348 0.7497572 0.3361737
v 0.02685683 0.7497572 0.3361737
v 0.02685683 0.7027572 0.3361737
v 0.02685683 0.1022405 0.3361737
v 0.02685683 0.05524058 0.3361737
v 0.7238764 0.7497572 0.3361737
v 0.02685683 0.7027572 0.3361737
v 0.02685683 0.7497572 0.3361737
v -0.6759104 0.7027572 0.3361737
v -0.6759104 0.7027572 -0.2925961
v -0.6759104 0.1022405 -0.2925961
v -0.6759104 0.1022405 0.3361737
v -0.6759104 0.1022405 0.3361737
v -0.6759104 0.1022405 -0.2925961
v -0.02406348 0.1022405 -0.2925961
v -0.02406348 0.1022405 0.3361737
v -0.02406348 0.1022405 0.3361737
v -0.02406348 0.1022405 -0.2925961
v -0.02406348 0.7027572 -0.2925961
v -0.02406348 0.7027572 0.3361737
v -0.02406348 0.7027572 0.3361737
v -0.02406348 0.7027572 -0.2925961
v -0.6759104 0.7027572 -0.2925961
v -0.6759104 0.7027572 0.3361737
v 0.02685683 0.7027572 0.3361737
v 0.02685683 0.7027572 -0.2925961
v 0.02685683 0.1022405 -0.2925961
v 0.02685683 0.1022405 0.3361737
v 0.02685683 0.1022405 0.3361737
v 0.02685683 0.1022405 -0.2925961
v 0.6787038 0.1022405 -0.2925961
v 0.6787038 0.1022405 0.3361737
v 0.6787038 0.1022405 0.3361737
v 0.6787038 0.1022405 -0.2925961
v 0.6787038 0.7027572 -0.2925961
v 0.6787038 0.7027572 0.3361737
v 0.6787038 0.7027572 0.3361737
v 0.6787038 0.7027572 -0.2925961
v 0.02685683 0.7027572 -0.2925961
v 0.02685683 0.7027572 0.3361737
v 0.7238764 4.547473E-15 -0.3351794
v -0.7210831 4.547473E-15 -0.3351794
v -0.7210831 4.547473E-15 0.3841985
v 0.7238764 4.547473E-15 0.3841985
v -0.7210831 0.05524055 0.3841985
v -0.7210831 4.547473E-15 0.3841985
v -0.7210831 4.547473E-15 0.3360195
v -0.7210831 0.05524058 0.3361737
v -0.7210831 4.547473E-15 -0.3351794
v 0.7238764 4.547473E-15 0.3841985
v 0.7238764 0.05524055 0.3841985
v 0.7238764 4.547473E-15 0.3360195
v 0.7238764 0.8 0.3841985
v -0.6655037 0.8 0.3841985
v -0.7210831 0.8 0.2689389
v 0.7238764 0.8 -0.3307439
v -0.7210831 0.8 -0.3361127
v -0.7210831 0.8 -0.3361127
v -0.7210831 0.8 0.2689389
v -0.7210831 0.7497572 0.3361737
v -0.7210831 0.7740668 0.3841985
v -0.7210831 0.7497572 0.3841985
v 0.7238764 0.7497572 0.3841985
v 0.7238764 0.8 0.3841985
v 0.7238764 0.8 0.3362786
v 0.7238764 0.7497572 0.3361737
v 0.7238764 0.7497572 0.3361737
v 0.7238764 0.8 0.3362786
v 0.7238764 0.8 -0.3307439
v -0.6764824 0.4206127 0.3081249
v -0.02417648 0.4206127 0.3081249
v -0.6764824 0.3702013 0.3081249
v -0.02417648 0.3702013 0.3081249
v -0.02417648 0.3702013 0.3081249
v -0.02417648 0.4206127 0.3081249
v -0.02417648 0.4206127 -0.2929663
v -0.02417648 0.3702013 -0.2929663
v -0.6764824 0.3702013 -0.2929663
v -0.6764824 0.4206127 -0.2929663
v -0.6764824 0.4206127 0.3081249
v -0.6764824 0.3702013 0.3081249
v 0.02719475 0.4206127 0.3081249
v 0.6795006 0.4206127 0.3081249
v 0.02719475 0.3702013 0.3081249
v 0.6795006 0.3702013 0.3081249
v 0.6795006 0.3702013 0.3081249
v 0.6795006 0.4206127 0.3081249
v 0.6795006 0.4206127 -0.2929663
v 0.6795006 0.3702013 -0.2929663
v 0.02719475 0.3702013 -0.2929663
v 0.02719475 0.4206127 -0.2929663
v 0.02719475 0.4206127 0.3081249
v 0.02719475 0.3702013 0.3081249
vt 0.4487305 0.03710938
vt 0.447998 0.03707886
vt 0.4487305 0.03649902
vt 0.4487305 0.03649902
vt 0.447998 0.03643799
vt 0.447998 0.03649902
vt 0.4487305 0.03659058
vt 0.4487305 0.03710938
vt 0.447998 0.03707886
vt 0.447998 0.03643799
vt 0.4487305 0.03634644
vt 0.447998 0.03634644
vt 0.447998 0.03707886
vt 0.4487305 0.03710938
vt 0.4484863 0.03646851
vt 0.4487305 0.0368042
vt 0.4487305 0.03631592
vt 0.4484863 0.03646851
vt 0.4487305 0.03646851
vt 0.4487305 0.03646851
vt 0.4487305 0.03646851
vt 0.4487305 0.03671265
vt 0.4487305 0.03649902
vt 0.4487305 0.03710938
vt 0.447998 0.03643799
vt 0.447998 0.03707886
vt 0.4484863 0.03646851
vt 0.4482422 0.03646851
vt 0.4484863 0.03646851
vt 0.4482422 0.03646851
vt 0.4482422 0.03710938
vt 0.4482422 0.03707886
vt 0.4482422 0.03707886
vt 0.4482422 0.03710938
vt 0.4487305 0.03649902
vt 0.4487305 0.03710938
vt 0.4484863 0.03646851
vt 0.4482422 0.03710938
vt 0.4482422 0.03646851
vt 0.4482422 0.03707886
vt 0.447998 0.03643799
vt 0.447998 0.03707886
vt 0.447998 0.03704834
vt 0.4487305 0.03707886
vt 0.447998 0.03643799
vt 0.447998 0.03857422
vt 0.4472656 0.0385437
vt 0.447998 0.03793335
vt 0.4472656 0.03790283
vt 0.447998 0.03759766
vt 0.4472656 0.03756714
vt 0.447998 0.03820801
vt 0.4472656 0.03817749
vt 0.447998 0.03857422
vt 0.4472656 0.0385437
vt 0.447998 0.03793335
vt 0.4472656 0.03790283
vt 0.447998 0.03759766
vt 0.4472656 0.03756714
vt 0.447998 0.03820801
vt 0.4472656 0.03817749
vt 0.4487305 0.03710938
vt 0.4487305 0.03646851
vt 0.4487305 0.03671265
vt 0.447998 0.03707886
vt 0.447998 0.03649902
vt 0.447998 0.03634644
vt 0.4487305 0.03634644
vt 0.4487305 0.03659058
vt 0.4487305 0.03649902
vt 0.4487305 0.03646851
vt 0.4487305 0.03646851
vt 0.4487305 0.03671265
vt 0.4487305 0.03646851
vt 0.4487305 0.03649902
vt 0.4487305 0.03646851
vt 0.447998 0.03643799
vt 0.4484863 0.03646851
vt 0.4487305 0.03646851
vt 0.447998 0.03707886
vt 0.4484863 0.03646851
vt 0.4487305 0.03710938
vt 0.4487305 0.0368042
vt 0.4487305 0.03710938
vt 0.4487305 0.03649902
vt 0.447998 0.03643799
vt 0.447998 0.03707886
vt 0.4484863 0.03646851
vt 0.4487305 0.03646851
vt 0.4482422 0.03646851
vt 0.447998 0.03643799
vt 0.4487305 0.03646851
vt 0.4487305 0.03646851
vt 0.4484863 0.03646851
vt 0.4482422 0.03646851
vt 0.4482422 0.03710938
vt 0.4482422 0.03710938
vt 0.4482422 0.03707886
vt 0.4482422 0.03707886
vt 0.4482422 0.03646851
vt 0.4482422 0.03646851
vt 0.447998 0.03707886
vt 0.4482422 0.03707886
vt 0.4482422 0.03707886
vt 0.4487305 0.03710938
vt 0.4487305 0.03710938
vt 0.4487305 0.03649902
vt 0.4487305 0.03649902
vt 0.4487305 0.03649902
vt 0.4487305 0.03649902
vt 0.4484863 0.03646851
vt 0.4484863 0.03646851
vt 0.4484863 0.03646851
vt 0.4484863 0.03646851
vt 0.4482422 0.03710938
vt 0.4482422 0.03710938
vt 0.4482422 0.03710938
vt 0.4482422 0.03710938
vt 0.4487305 0.03710938
vt 0.4487305 0.03710938
vt 0.4482422 0.03707886
vt 0.4482422 0.03707886
vt 0.4482422 0.03646851
vt 0.4482422 0.03646851
vt 0.4482422 0.03646851
vt 0.4482422 0.03646851
vt 0.447998 0.03643799
vt 0.447998 0.03643799
vt 0.447998 0.03643799
vt 0.447998 0.03643799
vt 0.447998 0.03707886
vt 0.447998 0.03707886
vt 0.447998 0.03707886
vt 0.447998 0.03707886
vt 0.4482422 0.03707886
vt 0.4482422 0.03707886
vt 0.447998 0.03649902
vt 0.4487305 0.03659058
vt 0.4487305 0.03710938
vt 0.447998 0.03707886
vt 0.4487305 0.03649902
vt 0.4487305 0.03710938
vt 0.4487305 0.03707886
vt 0.4487305 0.03649902
vt 0.4487305 0.03659058
vt 0.447998 0.03707886
vt 0.4484863 0.03646851
vt 0.447998 0.03704834
vt 0.447998 0.03643799
vt 0.4484863 0.03646851
vt 0.4487305 0.03631592
vt 0.447998 0.03634644
vt 0.4487305 0.03634644
vt 0.4487305 0.03634644
vt 0.4487305 0.03631592
vt 0.4487305 0.03710938
vt 0.4487305 0.0368042
vt 0.4487305 0.03710938
vt 0.447998 0.03707886
vt 0.447998 0.03643799
vt 0.447998 0.03643799
vt 0.447998 0.03707886
vt 0.447998 0.03707886
vt 0.447998 0.03643799
vt 0.447998 0.03634644
vt 0.447998 0.03793335
vt 0.4472656 0.03790283
vt 0.447998 0.03857422
vt 0.4472656 0.0385437
vt 0.4472656 0.0385437
vt 0.4472656 0.03790283
vt 0.4472656 0.03756714
vt 0.4472656 0.03817749
vt 0.447998 0.03820801
vt 0.447998 0.03759766
vt 0.447998 0.03793335
vt 0.447998 0.03857422
vt 0.447998 0.03793335
vt 0.4472656 0.03790283
vt 0.447998 0.03857422
vt 0.4472656 0.0385437
vt 0.4472656 0.0385437
vt 0.4472656 0.03790283
vt 0.4472656 0.03756714
vt 0.4472656 0.03817749
vt 0.447998 0.03820801
vt 0.447998 0.03759766
vt 0.447998 0.03793335
vt 0.447998 0.03857422
vn 0 0 1
vn 0 0 1
vn 0 1 0
vn -1 0 0
vn 1 0 0
vn 1 0 0
vn -1 0 0
vn 0 -1 0
vn 0 -1 0
vn 0 0 1
vn -1 0 0
vn 1 0 0
vn 0 -1 0
vn -1 0 0
vn -0.4143066 0.8876953 0.1998291
vn -0.4143066 0.8876953 0.1998291
vn -0.4143066 0.8876953 0.1998291
vn 0 0 1
vn 0.3774414 0.8198242 0.4309082
vn -0.1044312 0.6894531 0.7167969
vn -0.1044312 0.6894531 0.7167969
vn -0.1044312 0.6894531 0.7167969
vn 0 0 1
vn 0 0 1
vn 0 0 1
vn 0 0 1
vn 0 1 0
vn 0 1 0
vn 0 0 1
vn 0 0 1
vn 0 0 1
vn 0 0 1
vn 0 -1 0
vn 0 -1 0
vn 0 0 1
vn 0 0 1
vn 0 0 1
vn 0 0 1
vn 0 0 1
vn 0 0 1
vn 0 0 1
vn 0 0 1
vn 0 -1 0
vn 0 -1 0
vn 0 1 0
vn 0 0 1
vn 0 0 1
vn 0 0 1
vn 0 0 1
vn 0 1 0
vn 0 1 0
vn 0 -1 0
vn 0 -1 0
vn 0 0 1
vn 0 0 1
vn 0 0 1
vn 0 0 1
vn 0 1 0
vn 0 1 0
vn 0 -1 0
vn 0 -1 0
vn 0 -1 0
vn 0.3774414 0.8198242 0.4309082
vn 0.3774414 0.8198242 0.4309082
vn 1 0 0
vn 0.001857758 0.002189636 -1
vn 0.001857758 0.002189636 -1
vn 0.001857758 0.002189636 -1
vn 0.001857758 0.002189636 -1
vn 0 1 0
vn 0 1 0
vn 0 1 0
vn 0 0 1
vn 0 0 1
vn 0 0 1
vn 0 0 1
vn 0 1 0
vn 0 1 0
vn 0 1 0
vn 0 0 1
vn 0 0 1
vn 0 0 1
vn 0 0 1
vn 0 0 1
vn 0 0 1
vn 0 0 1
vn 0 0 1
vn 0 1 0
vn 0 1 0
vn 0 1 0
vn 0 1 0
vn 0 1 0
vn 0 1 0
vn 0 0 1
vn 0 0 1
vn 0 0 1
vn 0 0 1
vn 0 0 1
vn 0 0 1
vn 0 0 1
vn 0 0 1
vn 0 0 1
vn 0 0 1
vn 0 0 1
vn 1 0 0
vn 1 0 0
vn 1 0 0
vn 1 0 0
vn 0 1 0
vn 0 1 0
vn 0 1 0
vn 0 1 0
vn -1 0 0
vn -1 0 0
vn -1 0 0
vn -1 0 0
vn 0 -1 0
vn 0 -1 0
vn 0 -1 0
vn 0 -1 0
vn 1 0 0
vn 1 0 0
vn 1 0 0
vn 1 0 0
vn 0 1 0
vn 0 1 0
vn 0 1 0
vn 0 1 0
vn -1 0 0
vn -1 0 0
vn -1 0 0
vn -1 0 0
vn 0 -1 0
vn 0 -1 0
vn 0 -1 0
vn 0 -1 0
vn 0 -1 0
vn 0 -1 0
vn 0 -1 0
vn 0 -1 0
vn -1 0 0
vn -1 0 0
vn -1 0 0
vn -1 0 0
vn -1 0 0
vn 1 0 0
vn 1 0 0
vn 1 0 0
vn 0 1 0
vn 0 1 0
vn 0 1 0
vn 0 1 0
vn 0 1 0
vn -1 0 0
vn -1 0 0
vn -1 0 0
vn -1 0 0
vn -1 0 0
vn 1 0 0
vn 1 0 0
vn 1 0 0
vn 1 0 0
vn 1 0 0
vn 1 0 0
vn 1 0 0
vn 0 1 0
vn 0 1 0
vn 0 -1 0
vn 0 -1 0
vn 1 0 0
vn 1 0 0
vn 1 0 0
vn 1 0 0
vn -1 0 0
vn -1 0 0
vn -1 0 0
vn -1 0 0
vn 0 1 0
vn 0 1 0
vn 0 -1 0
vn 0 -1 0
vn 1 0 0
vn 1 0 0
vn 1 0 0
vn 1 0 0
vn -1 0 0
vn -1 0 0
vn -1 0 0
vn -1 0 0
g SM_Prop_Cabinet_Stackable_02_0
f 16/16/16 15/15/15 17/17/17
f 22/22/22 20/20/20 21/21/21
f 64/64/64 63/63/63 19/19/19
f 79/79/79 78/78/78 77/77/77
f 89/89/89 28/28/28 88/88/88
f 165/165/165 164/164/164 163/163/163
f 11/11/11 7/7/7 4/4/4
f 14/14/14 11/11/11 4/4/4
f 33/33/33 13/13/13 9/9/9
f 9/9/9 34/34/34 33/33/33
f 9/9/9 62/62/62 34/34/34
f 9/9/9 8/8/8 62/62/62
f 6/6/6 12/12/12 65/65/65
f 5/5/5 6/6/6 65/65/65
f 6/6/6 5/5/5 148/148/148
f 148/148/148 5/5/5 146/146/146
f 5/5/5 147/147/147 146/146/146
f 68/68/68 67/67/67 66/66/66
f 69/69/69 68/68/68 66/66/66
f 72/72/72 71/71/71 3/3/3
f 71/71/71 70/70/70 3/3/3
f 27/27/27 70/70/70 71/71/71
f 18/18/18 74/74/74 73/73/73
f 2/2/2 18/18/18 73/73/73
f 2/2/2 73/73/73 1/1/1
f 73/73/73 76/76/76 1/1/1
f 76/76/76 75/75/75 1/1/1
f 81/81/81 80/80/80 10/10/10
f 81/81/81 83/83/83 80/80/80
f 83/83/83 82/82/82 80/80/80
f 87/87/87 26/26/26 86/86/86
f 26/26/26 25/25/25 86/86/86
f 86/86/86 25/25/25 100/100/100
f 101/101/101 86/86/86 100/100/100
f 103/103/103 26/26/26 102/102/102
f 104/104/104 103/103/103 102/102/102
f 92/92/92 91/91/91 90/90/90
f 92/92/92 93/93/93 91/91/91
f 95/95/95 30/30/30 94/94/94
f 30/30/30 29/29/29 94/94/94
f 30/30/30 32/32/32 29/29/29
f 32/32/32 31/31/31 29/29/29
f 94/94/94 29/29/29 85/85/85
f 29/29/29 23/23/23 85/85/85
f 85/85/85 23/23/23 84/84/84
f 23/23/23 24/24/24 84/84/84
f 84/84/84 24/24/24 96/96/96
f 97/97/97 84/84/84 96/96/96
f 98/98/98 97/97/97 96/96/96
f 99/99/99 98/98/98 96/96/96
f 37/37/37 38/38/38 36/36/36
f 35/35/35 37/37/37 36/36/36
f 41/41/41 42/42/42 40/40/40
f 39/39/39 41/41/41 40/40/40
f 107/107/107 106/106/106 105/105/105
f 108/108/108 107/107/107 105/105/105
f 111/111/111 110/110/110 109/109/109
f 112/112/112 111/111/111 109/109/109
f 115/115/115 114/114/114 113/113/113
f 116/116/116 115/115/115 113/113/113
f 119/119/119 118/118/118 117/117/117
f 120/120/120 119/119/119 117/117/117
f 123/123/123 122/122/122 121/121/121
f 124/124/124 123/123/123 121/121/121
f 127/127/127 126/126/126 125/125/125
f 128/128/128 127/127/127 125/125/125
f 131/131/131 130/130/130 129/129/129
f 132/132/132 131/131/131 129/129/129
f 135/135/135 134/134/134 133/133/133
f 136/136/136 135/135/135 133/133/133
f 138/138/138 137/137/137 43/43/43
f 44/44/44 138/138/138 43/43/43
f 44/44/44 43/43/43 139/139/139
f 43/43/43 140/140/140 139/139/139
f 143/143/143 142/142/142 141/141/141
f 144/144/144 143/143/143 141/141/141
f 145/145/145 143/143/143 144/144/144
f 150/150/150 149/149/149 45/45/45
f 151/151/151 150/150/150 45/45/45
f 151/151/151 45/45/45 152/152/152
f 153/153/153 151/151/151 152/152/152
f 156/156/156 155/155/155 154/154/154
f 157/157/157 155/155/155 156/156/156
f 158/158/158 157/157/157 156/156/156
f 161/161/161 160/160/160 159/159/159
f 162/162/162 161/161/161 159/159/159
f 49/49/49 48/48/48 46/46/46
f 47/47/47 49/49/49 46/46/46
f 51/51/51 50/50/50 166/166/166
f 167/167/167 51/51/51 166/166/166
f 169/169/169 168/168/168 52/52/52
f 53/53/53 169/169/169 52/52/52
f 172/172/172 171/171/171 170/170/170
f 173/173/173 172/172/172 170/170/170
f 176/176/176 175/175/175 174/174/174
f 177/177/177 176/176/176 174/174/174
f 57/57/57 56/56/56 54/54/54
f 55/55/55 57/57/57 54/54/54
f 59/59/59 58/58/58 178/178/178
f 179/179/179 59/59/59 178/178/178
f 181/181/181 180/180/180 60/60/60
f 61/61/61 181/181/181 60/60/60
f 184/184/184 183/183/183 182/182/182
f 185/185/185 184/184/184 182/182/182
f 188/188/188 187/187/187 186/186/186
f 189/189/189 188/188/188 186/186/186
