g SM_Prop_Chest_01_Latch
v -0.03197496 -0.1653292 0.006225376
v 0.03197496 -0.1653292 0.006225376
v -0.03197496 4.652368E-08 0.006225376
v 0.03197496 4.652368E-08 0.006225376
v -0.03197496 4.652368E-08 -0.006225318
v 0.03197496 4.652368E-08 -0.006225318
v -0.03197496 -0.1653292 -0.006225318
v 0.03197496 -0.1653292 -0.006225318
v -0.03197496 -0.07508107 -0.006225318
v -0.03197496 -0.07508107 0.006225376
v 0.03197496 -0.07508107 0.006225376
v 0.03197496 -0.07508107 -0.006225318
v -0.01209139 -0.1588217 0.006225376
v 0.01209139 -0.1588217 0.006225376
v 0.01209139 -0.08083129 0.006225376
v -0.01209139 -0.08083129 0.006225376
v 0.01209139 -0.08083129 -0.006225318
v -0.01209139 -0.08083129 -0.006225318
v 0.01209139 -0.1588217 -0.006225318
v -0.01209139 -0.1588217 -0.006225318
v -0.03197496 4.652368E-08 0.006225376
v 0.03197496 4.652368E-08 0.006225376
v -0.03197496 4.652368E-08 -0.006225318
v 0.03197496 4.652368E-08 -0.006225318
v 0.03197496 -0.07508107 0.006225376
v 0.03197496 4.652368E-08 0.006225376
v 0.03197496 4.652368E-08 -0.006225318
v 0.03197496 -0.07508107 -0.006225318
v -0.03197496 -0.07508107 -0.006225318
v -0.03197496 4.652368E-08 -0.006225318
v -0.03197496 4.652368E-08 0.006225376
v -0.03197496 -0.07508107 0.006225376
v -0.03197496 -0.1653292 -0.006225318
v -0.03197496 -0.1653292 0.006225376
v 0.03197496 -0.1653292 0.006225376
v 0.03197496 -0.1653292 -0.006225318
v -0.03197496 -0.1653292 0.006225376
v 0.03197496 -0.1653292 0.006225376
v 0.03197496 -0.1653292 -0.006225318
v -0.03197496 -0.1653292 -0.006225318
v 0.01209139 -0.1588217 0.006225376
v 0.01209139 -0.1588217 -0.006225318
v 0.01209139 -0.08083129 -0.006225318
v 0.01209139 -0.08083129 0.006225376
v 0.01209139 -0.08083129 0.006225376
v 0.01209139 -0.08083129 -0.006225318
v -0.01209139 -0.08083129 -0.006225318
v -0.01209139 -0.08083129 0.006225376
v -0.01209139 -0.08083129 0.006225376
v -0.01209139 -0.08083129 -0.006225318
v -0.01209139 -0.1588217 -0.006225318
v -0.01209139 -0.1588217 0.006225376
v -0.01209139 -0.1588217 0.006225376
v -0.01209139 -0.1588217 -0.006225318
v 0.01209139 -0.1588217 -0.006225318
v 0.01209139 -0.1588217 0.006225376
vt 0.1008697 0.2787156
vt 0.1005778 0.2786434
vt 0.1009091 0.2777789
vt 0.1006095 0.277725
vt 0.1009519 0.277769
vt 0.1006531 0.2777156
vt 0.1009119 0.2787008
vt 0.1006206 0.2786293
vt 0.1009335 0.2781975
vt 0.100891 0.2782097
vt 0.1005949 0.2781472
vt 0.1006382 0.2781357
vt 0.1007791 0.2786569
vt 0.1006686 0.2786299
vt 0.1006845 0.2781985
vt 0.1007963 0.2782224
vt 0.1007275 0.2781866
vt 0.100839 0.2782102
vt 0.1007112 0.2786158
vt 0.1008214 0.2786426
vt 0.1009091 0.2777789
vt 0.1006095 0.277725
vt 0.1009519 0.277769
vt 0.1006531 0.2777156
vt 0.1005949 0.2781472
vt 0.1006095 0.277725
vt 0.1006531 0.2777156
vt 0.1006382 0.2781357
vt 0.1009335 0.2781975
vt 0.1009519 0.277769
vt 0.1009091 0.2777789
vt 0.100891 0.2782097
vt 0.1009119 0.2787008
vt 0.1008697 0.2787156
vt 0.1005778 0.2786434
vt 0.1006206 0.2786293
vt 0.1008697 0.2787156
vt 0.1005778 0.2786434
vt 0.1006206 0.2786293
vt 0.1009119 0.2787008
vt 0.1006686 0.2786299
vt 0.1007112 0.2786158
vt 0.1007275 0.2781866
vt 0.1006845 0.2781985
vt 0.1006845 0.2781985
vt 0.1007275 0.2781866
vt 0.100839 0.2782102
vt 0.1007963 0.2782224
vt 0.1007963 0.2782224
vt 0.100839 0.2782102
vt 0.1008214 0.2786426
vt 0.1007791 0.2786569
vt 0.1007791 0.2786569
vt 0.1008214 0.2786426
vt 0.1007112 0.2786158
vt 0.1006686 0.2786299
vn 0 -1 0
vn 0 -1 0
vn 0 0 1
vn 0 0 1
vn 0 1 0
vn 0 1 0
vn 0 -1 0
vn 0 -1 0
vn 0 0 -1
vn 0 0 1
vn 0 0 1
vn 0 0 -1
vn 0 0 1
vn 0 0 1
vn 0 0 1
vn 0 0 1
vn 0 0 -1
vn 0 0 -1
vn 0 0 -1
vn 0 0 -1
vn 0 1 0
vn 0 1 0
vn 0 0 -1
vn 0 0 -1
vn 1 0 0
vn 1 0 0
vn 1 0 0
vn 1 0 0
vn -1 0 0
vn -1 0 0
vn -1 0 0
vn -1 0 0
vn -1 0 0
vn -1 0 0
vn 1 0 0
vn 1 0 0
vn 0 0 1
vn 0 0 1
vn 0 0 -1
vn 0 0 -1
vn -1 0 0
vn -1 0 0
vn -1 0 0
vn -1 0 0
vn 0 -1 0
vn 0 -1 0
vn 0 -1 0
vn 0 -1 0
vn 1 0 0
vn 1 0 0
vn 1 0 0
vn 1 0 0
vn 0 1 0
vn 0 1 0
vn 0 1 0
vn 0 1 0
g SM_Prop_Chest_01_Latch_0
f 4/4/4 3/3/3 10/10/10
f 11/11/11 4/4/4 10/10/10
f 10/10/10 16/16/16 11/11/11
f 16/16/16 15/15/15 11/11/11
f 13/13/13 16/16/16 10/10/10
f 11/11/11 15/15/15 38/38/38
f 37/37/37 13/13/13 10/10/10
f 15/15/15 14/14/14 38/38/38
f 14/14/14 13/13/13 37/37/37
f 38/38/38 14/14/14 37/37/37
f 6/6/6 5/5/5 21/21/21
f 22/22/22 6/6/6 21/21/21
f 24/24/24 12/12/12 23/23/23
f 12/12/12 9/9/9 23/23/23
f 12/12/12 17/17/17 9/9/9
f 17/17/17 18/18/18 9/9/9
f 19/19/19 17/17/17 12/12/12
f 9/9/9 18/18/18 40/40/40
f 39/39/39 19/19/19 12/12/12
f 18/18/18 20/20/20 40/40/40
f 20/20/20 19/19/19 39/39/39
f 40/40/40 20/20/20 39/39/39
f 2/2/2 1/1/1 7/7/7
f 8/8/8 2/2/2 7/7/7
f 27/27/27 26/26/26 25/25/25
f 28/28/28 27/27/27 25/25/25
f 28/28/28 25/25/25 35/35/35
f 36/36/36 28/28/28 35/35/35
f 31/31/31 30/30/30 29/29/29
f 32/32/32 31/31/31 29/29/29
f 32/32/32 29/29/29 33/33/33
f 34/34/34 32/32/32 33/33/33
f 43/43/43 42/42/42 41/41/41
f 44/44/44 43/43/43 41/41/41
f 47/47/47 46/46/46 45/45/45
f 48/48/48 47/47/47 45/45/45
f 51/51/51 50/50/50 49/49/49
f 52/52/52 51/51/51 49/49/49
f 55/55/55 54/54/54 53/53/53
f 56/56/56 55/55/55 53/53/53
