g SM_Prop_RubbishBin_01_Lid
v -0.1039261 0.08429674 -0.02056885
v -0.08828399 0.1480897 -0.02056885
v -0.08828399 0.1480897 0.02056976
v -0.1039261 0.08429674 0.02056976
v 0.08828095 0.1480897 -0.02056885
v 0.1039218 0.08429674 -0.02056885
v 0.1039218 0.08429674 0.02056976
v 0.08828095 0.1480897 0.02056976
v -0.08318878 0.08429674 0.02056976
v -0.1039261 0.08429674 0.02056976
v -0.08828399 0.1480897 0.02056976
v -0.07514618 0.1353787 0.02056976
v -0.05623505 0.1459308 0.02056976
v -0.0660672 0.1601977 0.02056976
v 0.06606354 0.1601977 0.02056976
v 0.05623138 0.1459308 0.02056976
v 0.07514191 0.1353787 0.02056976
v 0.08828095 0.1480897 0.02056976
v 0.1039218 0.08429674 0.02056976
v 0.08318451 0.08429674 0.02056976
v -0.07514618 0.1353787 -0.02056885
v -0.1039261 0.08429674 -0.02056885
v -0.08318878 0.08429674 -0.02056885
v -0.08828399 0.1480897 -0.02056885
v -0.0660672 0.1601977 -0.02056885
v -0.05623505 0.1459308 -0.02056885
v 0.05623138 0.1459308 -0.02056885
v 0.06606354 0.1601977 -0.02056885
v 0.08828095 0.1480897 -0.02056885
v 0.07514191 0.1353787 -0.02056885
v 0.08318451 0.08429674 -0.02056885
v 0.1039218 0.08429674 -0.02056885
v -0.08318878 0.08429674 -0.02056885
v -0.08318878 0.08429674 0.02056976
v -0.07514618 0.1353787 0.02056976
v -0.07514618 0.1353787 -0.02056885
v 0.07514191 0.1353787 -0.02056885
v 0.07514191 0.1353787 0.02056976
v 0.08318451 0.08429674 0.02056976
v 0.08318451 0.08429674 -0.02056885
v -0.08828399 0.1480897 -0.02056885
v -0.0660672 0.1601977 0.02056976
v -0.08828399 0.1480897 0.02056976
v -0.0660672 0.1601977 -0.02056885
v 0.06606354 0.1601977 0.02056976
v 0.06606354 0.1601977 -0.02056885
v 0.08828095 0.1480897 0.02056976
v 0.08828095 0.1480897 -0.02056885
v 0.07514191 0.1353787 -0.02056885
v 0.05623138 0.1459308 0.02056976
v 0.07514191 0.1353787 0.02056976
v 0.05623138 0.1459308 -0.02056885
v -0.05623505 0.1459308 -0.02056885
v -0.05623505 0.1459308 0.02056976
v -0.07514618 0.1353787 0.02056976
v -0.07514618 0.1353787 -0.02056885
v 0.2508383 1.66893E-08 0.1448218
v 0.2896433 0.02355982 1.355253E-22
v 0.2896433 1.66893E-08 1.355253E-22
v 0.2508383 0.02355982 0.1448218
v 0.1448215 1.66893E-08 0.2508389
v 0.1448215 0.02355982 0.2508389
v -3.051758E-07 1.66893E-08 0.2896436
v -3.051758E-07 0.02355982 0.2896436
v 0.2896433 1.66893E-08 1.355253E-22
v 0.2896433 0.02355982 1.355253E-22
v 0.2508383 0.02355982 -0.1448218
v 0.2508383 1.66893E-08 -0.1448218
v 0.1448215 0.02355982 -0.2508389
v 0.1448215 1.66893E-08 -0.2508389
v 0.1448215 1.66893E-08 -0.2508389
v 0.1448215 0.02355982 -0.2508389
v -3.051758E-07 0.02355982 -0.2896436
v -3.051758E-07 1.66893E-08 -0.2896436
v -0.1448202 0.02355982 -0.2508389
v -0.1448202 1.66893E-08 -0.2508389
v -0.1448202 1.66893E-08 -0.2508389
v -0.1448202 0.02355982 -0.2508389
v -0.2508377 0.02355982 -0.1448218
v -0.2508377 1.66893E-08 -0.1448218
v -0.2508377 1.66893E-08 -0.1448218
v -0.2508377 0.02355982 -0.1448218
v -0.2896433 0.02355982 1.355253E-22
v -0.2896433 1.66893E-08 1.355253E-22
v -0.2896433 1.66893E-08 1.355253E-22
v -0.2896433 0.02355982 1.355253E-22
v -0.2508377 0.02355982 0.1448218
v -0.2508377 1.66893E-08 0.1448218
v -0.2508377 1.66893E-08 0.1448218
v -0.2508377 0.02355982 0.1448218
v -0.1448202 0.02355982 0.2508389
v -0.1448202 1.66893E-08 0.2508389
v -0.1448202 1.66893E-08 0.2508389
v -0.1448202 0.02355982 0.2508389
v -3.051758E-07 0.02355982 0.2896436
v -3.051758E-07 1.66893E-08 0.2896436
v 0.120585 0.06618074 -0.06961914
v 3.051758E-07 0.06618074 3.051758E-07
v 0.1392392 0.06618074 3.051758E-07
v 0.120585 0.06618074 0.06961945
v 0.2566361 0.02300256 1.355253E-22
v 0.2222543 0.02300256 -0.1283179
v 0.120585 0.06618074 -0.06961914
v 0.2222543 0.02300256 0.1283179
v 0.1283188 0.02300256 -0.222254
v 0.06962006 0.06618074 0.1205853
v 0.1283188 0.02300256 0.2222546
v 0.06962006 0.06618074 -0.1205847
v -3.051758E-07 0.02300256 -0.2566361
v 3.051758E-07 0.06618074 3.051758E-07
v 3.051758E-07 0.06618074 0.1392395
v -3.051758E-07 0.02300256 0.2566369
v 3.051758E-07 0.06618074 -0.1392386
v -0.1283176 0.02300256 -0.222254
v -0.06961884 0.06618074 0.1205853
v -0.1205838 0.06618074 0.06961945
v -0.1283176 0.02300256 0.2222546
v -0.1205838 0.06618074 0.06961945
v -0.2222531 0.02300256 0.1283179
v -0.06961884 0.06618074 -0.1205847
v -0.2222531 0.02300256 -0.1283179
v -0.139238 0.06618074 3.051758E-07
v -0.2566348 0.02300256 1.355253E-22
v -0.1205838 0.06618074 -0.06961914
v 0.2508383 1.66893E-08 0.1448218
v 0.2288889 1.66893E-08 0.132149
v 0.1321494 1.66893E-08 0.2288895
v 0.1448215 1.66893E-08 0.2508389
v 0.2896433 1.66893E-08 1.355253E-22
v -3.051758E-07 1.66893E-08 0.2642987
v 0.2642978 1.66893E-08 1.355253E-22
v -3.051758E-07 1.66893E-08 0.2896436
v 0.2508383 1.66893E-08 -0.1448218
v -0.1321487 1.66893E-08 0.2288895
v 0.2288889 1.66893E-08 -0.132149
v -0.1448202 1.66893E-08 0.2508389
v 0.1448215 1.66893E-08 -0.2508389
v -0.2288882 1.66893E-08 0.132149
v 0.1321494 1.66893E-08 -0.2288895
v -0.2508377 1.66893E-08 0.1448218
v -3.051758E-07 1.66893E-08 -0.2896436
v -0.2642966 1.66893E-08 1.355253E-22
v -3.051758E-07 1.66893E-08 -0.2642981
v -0.2896433 1.66893E-08 1.355253E-22
v -0.1448202 1.66893E-08 -0.2508389
v -0.2288882 1.66893E-08 -0.132149
v -0.1321487 1.66893E-08 -0.2288895
v -0.2508377 1.66893E-08 -0.1448218
v 0.2288889 1.66893E-08 0.132149
v 0.2222543 0.02300256 0.1283179
v 0.1283188 0.02300256 0.2222546
v 0.1321494 1.66893E-08 0.2288895
v 0.2642978 1.66893E-08 1.355253E-22
v -3.051758E-07 0.02300256 0.2566369
v 0.2566361 0.02300256 1.355253E-22
v -3.051758E-07 1.66893E-08 0.2642987
v 0.2288889 1.66893E-08 -0.132149
v -0.1283176 0.02300256 0.2222546
v 0.2222543 0.02300256 -0.1283179
v -0.1321487 1.66893E-08 0.2288895
v 0.1321494 1.66893E-08 -0.2288895
v -0.2222531 0.02300256 0.1283179
v 0.1283188 0.02300256 -0.222254
v -0.2288882 1.66893E-08 0.132149
v -3.051758E-07 1.66893E-08 -0.2642981
v -0.2566348 0.02300256 1.355253E-22
v -3.051758E-07 0.02300256 -0.2566361
v -0.2642966 1.66893E-08 1.355253E-22
v -0.1321487 1.66893E-08 -0.2288895
v -0.2222531 0.02300256 -0.1283179
v -0.1283176 0.02300256 -0.222254
v -0.2288882 1.66893E-08 -0.132149
v 0.1448215 0.02355982 0.2508389
v 0.06590485 0.08429682 0.114151
v 0.1141507 0.08429682 0.06590515
v 0.2508383 0.02355982 0.1448218
v -3.051758E-07 0.02355982 0.2896436
v 0.13181 0.08429682 1.355253E-22
v 0.2896433 0.02355982 1.355253E-22
v -3.051758E-07 0.08429682 0.1318103
v -0.1448202 0.02355982 0.2508389
v -3.051758E-07 0.08429682 1.355253E-22
v 0.1141507 0.08429682 -0.06590515
v -0.06590424 0.08429682 0.114151
v 0.2508383 0.02355982 -0.1448218
v -0.2508377 0.02355982 0.1448218
v 0.06590485 0.08429682 -0.114151
v 0.1448215 0.02355982 -0.2508389
v -0.1141507 0.08429682 0.06590515
v -0.2896433 0.02355982 1.355253E-22
v -3.051758E-07 0.08429682 -0.1318103
v -3.051758E-07 0.02355982 -0.2896436
v -0.13181 0.08429682 1.355253E-22
v -0.2508377 0.02355982 -0.1448218
v -0.06590424 0.08429682 -0.114151
v -0.1448202 0.02355982 -0.2508389
v -0.1141507 0.08429682 -0.06590515
vt 0.1332429 0.2284902
vt 0.1332429 0.2284902
vt 0.1332428 0.2284902
vt 0.1332428 0.2284902
vt 0.1332429 0.2284902
vt 0.1332429 0.2284902
vt 0.1332428 0.2284902
vt 0.1332428 0.2284902
vt 0.1332428 0.2284902
vt 0.1332428 0.2284902
vt 0.1332428 0.2284902
vt 0.1332428 0.2284902
vt 0.1332428 0.2284902
vt 0.1332428 0.2284902
vt 0.1332428 0.2284902
vt 0.1332428 0.2284902
vt 0.1332428 0.2284902
vt 0.1332428 0.2284902
vt 0.1332428 0.2284902
vt 0.1332428 0.2284902
vt 0.1332429 0.2284902
vt 0.1332429 0.2284902
vt 0.1332429 0.2284902
vt 0.1332429 0.2284902
vt 0.1332429 0.2284902
vt 0.1332429 0.2284902
vt 0.1332429 0.2284902
vt 0.1332429 0.2284902
vt 0.1332429 0.2284902
vt 0.1332429 0.2284902
vt 0.1332429 0.2284902
vt 0.1332429 0.2284902
vt 0.1332429 0.2284902
vt 0.1332429 0.2284902
vt 0.1332429 0.2284902
vt 0.1332429 0.2284902
vt 0.1332428 0.2284902
vt 0.1332428 0.2284902
vt 0.1332428 0.2284902
vt 0.1332428 0.2284902
vt 0.1332429 0.2284902
vt 0.1332428 0.2284902
vt 0.1332428 0.2284902
vt 0.1332429 0.2284902
vt 0.1332428 0.2284902
vt 0.1332429 0.2284902
vt 0.1332428 0.2284902
vt 0.1332429 0.2284902
vt 0.1332428 0.2284902
vt 0.1332428 0.2284902
vt 0.1332428 0.2284902
vt 0.1332428 0.2284902
vt 0.1332429 0.2284902
vt 0.1332429 0.2284902
vt 0.1332429 0.2284902
vt 0.1332429 0.2284902
vt 0.1352275 0.3019218
vt 0.1352274 0.3019218
vt 0.1352274 0.3019218
vt 0.1352275 0.3019218
vt 0.1352275 0.3019218
vt 0.1352275 0.3019218
vt 0.1352275 0.3019218
vt 0.1352275 0.3019218
vt 0.1352274 0.3019218
vt 0.1352274 0.3019218
vt 0.1352275 0.3019218
vt 0.1352275 0.3019218
vt 0.1352275 0.3019218
vt 0.1352275 0.3019218
vt 0.1352275 0.3019218
vt 0.1352275 0.3019218
vt 0.1352275 0.3019218
vt 0.1352275 0.3019218
vt 0.1352274 0.3019218
vt 0.1352274 0.3019218
vt 0.1352274 0.3019218
vt 0.1352274 0.3019218
vt 0.1352275 0.3019218
vt 0.1352275 0.3019218
vt 0.1352275 0.3019218
vt 0.1352275 0.3019218
vt 0.1352274 0.3019218
vt 0.1352274 0.3019218
vt 0.1352274 0.3019218
vt 0.1352274 0.3019218
vt 0.1352275 0.3019218
vt 0.1352275 0.3019218
vt 0.1352275 0.3019218
vt 0.1352275 0.3019218
vt 0.1352274 0.3019218
vt 0.1352274 0.3019218
vt 0.1352274 0.3019218
vt 0.1352274 0.3019218
vt 0.1352275 0.3019218
vt 0.1352275 0.3019218
vt 0.1352275 0.3019218
vt 0.1352275 0.3019218
vt 0.1352275 0.3019218
vt 0.1352275 0.3019218
vt 0.1352275 0.3019218
vt 0.1352275 0.3019218
vt 0.1352275 0.3019218
vt 0.1352275 0.3019218
vt 0.1352275 0.3019218
vt 0.1352274 0.3019218
vt 0.1352274 0.3019218
vt 0.1352275 0.3019218
vt 0.1352275 0.3019218
vt 0.1352275 0.3019218
vt 0.1352274 0.3019218
vt 0.1352274 0.3019218
vt 0.1352275 0.3019218
vt 0.1352275 0.3019218
vt 0.1352274 0.3019218
vt 0.1352275 0.3019218
vt 0.1352274 0.3019218
vt 0.1352275 0.3019218
vt 0.1352275 0.3019218
vt 0.1352275 0.3019218
vt 0.1352275 0.3019218
vt 0.1352275 0.3019218
vt 0.1352275 0.3019218
vt 0.1352275 0.3019218
vt 0.1352275 0.3019218
vt 0.1352275 0.3019218
vt 0.1352274 0.3019218
vt 0.1352274 0.3019218
vt 0.1352275 0.3019218
vt 0.1352274 0.3019218
vt 0.1352275 0.3019218
vt 0.1352274 0.3019218
vt 0.1352275 0.3019218
vt 0.1352274 0.3019218
vt 0.1352275 0.3019218
vt 0.1352274 0.3019218
vt 0.1352275 0.3019218
vt 0.1352275 0.3019218
vt 0.1352275 0.3019218
vt 0.1352275 0.3019218
vt 0.1352275 0.3019218
vt 0.1352275 0.3019218
vt 0.1352275 0.3019218
vt 0.1352275 0.3019218
vt 0.1352275 0.3019218
vt 0.1352275 0.3019218
vt 0.1352275 0.3019218
vt 0.1352275 0.3019218
vt 0.1352275 0.3019218
vt 0.1352275 0.3019218
vt 0.1352274 0.3019218
vt 0.1352274 0.3019218
vt 0.1352275 0.3019218
vt 0.1352274 0.3019218
vt 0.1352275 0.3019218
vt 0.1352274 0.3019218
vt 0.1352275 0.3019218
vt 0.1352274 0.3019218
vt 0.1352275 0.3019218
vt 0.1352274 0.3019218
vt 0.1352275 0.3019218
vt 0.1352275 0.3019218
vt 0.1352275 0.3019218
vt 0.1352275 0.3019218
vt 0.1352275 0.3019218
vt 0.1352275 0.3019218
vt 0.1352275 0.3019218
vt 0.1352275 0.3019218
vt 0.1352275 0.3019218
vt 0.1352275 0.3019218
vt 0.1352275 0.3019218
vt 0.1352275 0.3019218
vt 0.1352274 0.3019218
vt 0.1352274 0.3019218
vt 0.1352275 0.3019218
vt 0.1352275 0.3019218
vt 0.1352274 0.3019218
vt 0.1352275 0.3019218
vt 0.1352275 0.3019218
vt 0.1352274 0.3019218
vt 0.1352274 0.3019218
vt 0.1352275 0.3019218
vt 0.1352275 0.3019218
vt 0.1352274 0.3019218
vt 0.1352275 0.3019218
vt 0.1352275 0.3019218
vt 0.1352275 0.3019218
vt 0.1352275 0.3019218
vt 0.1352275 0.3019218
vt 0.1352275 0.3019218
vt 0.1352275 0.3019218
vt 0.1352275 0.3019218
vt 0.1352275 0.3019218
vt 0.1352275 0.3019218
vt 0.1352275 0.3019218
vt 0.1352275 0.3019218
vt 0.1352275 0.3019218
vn -0.9712294 0.2381463 0
vn -0.9712294 0.2381463 0
vn -0.9712294 0.2381463 0
vn -0.9712294 0.2381463 0
vn 0.9712335 0.2381288 0
vn 0.9712335 0.2381288 0
vn 0.9712335 0.2381288 0
vn 0.9712335 0.2381288 0
vn 0 0 1
vn 0 0 1
vn 0 0 1
vn 0 0 1
vn 0 0 1
vn 0 0 1
vn 0 0 1
vn 0 0 1
vn 0 0 1
vn 0 0 1
vn 0 0 1
vn 0 0 1
vn 0 0 -1
vn 0 0 -1
vn 0 0 -1
vn 0 0 -1
vn 0 0 -1
vn 0 0 -1
vn 0 0 -1
vn 0 0 -1
vn 0 0 -1
vn 0 0 -1
vn 0 0 -1
vn 0 0 -1
vn 0.9878313 -0.1555293 0
vn 0.9878313 -0.1555293 0
vn 0.9878313 -0.1555293 0
vn 0.9878313 -0.1555293 0
vn -0.9878313 -0.1555293 0
vn -0.9878313 -0.1555293 0
vn -0.9878313 -0.1555293 0
vn -0.9878313 -0.1555293 0
vn -0.4785399 0.8780658 0
vn -0.2469151 0.9690371 0
vn -0.4785399 0.8780658 0
vn -0.2469151 0.9690371 0
vn 0.2469096 0.9690385 0
vn 0.2469096 0.9690385 0
vn 0.4785298 0.8780714 0
vn 0.4785298 0.8780714 0
vn -0.4872756 -0.8732483 0
vn -0.2517457 -0.9677935 0
vn -0.4872756 -0.8732483 0
vn -0.2517457 -0.9677935 0
vn 0.251739 -0.9677951 0
vn 0.251739 -0.9677951 0
vn 0.4872636 -0.8732549 0
vn 0.4872636 -0.8732549 0
vn 0.8660257 0 0.4999995
vn 1 0 0
vn 1 0 0
vn 0.8660257 0 0.4999995
vn 0.4999999 0 0.8660255
vn 0.4999999 0 0.8660255
vn 0 0 1
vn 0 0 1
vn 1 0 0
vn 1 0 0
vn 0.8660257 0 -0.4999995
vn 0.8660257 0 -0.4999995
vn 0.4999999 0 -0.8660255
vn 0.4999999 0 -0.8660255
vn 0.4999999 0 -0.8660255
vn 0.4999999 0 -0.8660255
vn 0 0 -1
vn 0 0 -1
vn -0.5000001 0 -0.8660254
vn -0.5000001 0 -0.8660254
vn -0.5000001 0 -0.8660254
vn -0.5000001 0 -0.8660254
vn -0.866024 0 -0.5000024
vn -0.866024 0 -0.5000024
vn -0.866024 0 -0.5000024
vn -0.866024 0 -0.5000024
vn -1 0 0
vn -1 0 0
vn -1 0 0
vn -1 0 0
vn -0.866024 0 0.5000024
vn -0.866024 0 0.5000024
vn -0.866024 0 0.5000024
vn -0.866024 0 0.5000024
vn -0.5000001 0 0.8660254
vn -0.5000001 0 0.8660254
vn -0.5000001 0 0.8660254
vn -0.5000001 0 0.8660254
vn 0 0 1
vn 0 0 1
vn -0.1514991 -0.9845799 0.08746693
vn 0 -1 0
vn -0.1749361 -0.9845798 0
vn -0.1514994 -0.9845798 -0.08746687
vn -0.3451889 -0.9385332 0
vn -0.2989424 -0.9385337 0.1725924
vn -0.1514991 -0.9845799 0.08746693
vn -0.298943 -0.9385334 -0.1725922
vn -0.172593 -0.9385338 0.2989412
vn -0.08746778 -0.9845799 -0.1514982
vn -0.1725941 -0.9385338 -0.2989408
vn -0.08746728 -0.9845799 0.1514984
vn 0 -0.9385335 0.3451882
vn 0 -1 0
vn 0 -0.9845799 -0.1749355
vn 0 -0.9385337 -0.345188
vn 0 -0.9845799 0.1749357
vn 0.1725935 -0.938534 0.2989409
vn 0.08746803 -0.9845799 -0.151498
vn 0.1514994 -0.9845798 -0.08746687
vn 0.1725945 -0.9385338 -0.2989404
vn 0.1514994 -0.9845798 -0.08746687
vn 0.298943 -0.9385334 -0.1725922
vn 0.08746752 -0.9845799 0.1514983
vn 0.2989424 -0.9385337 0.1725924
vn 0.1749361 -0.9845798 0
vn 0.3451889 -0.9385332 0
vn 0.1514991 -0.9845799 0.08746693
vn 0 -1 0
vn 0 -1 0
vn 0 -1 0
vn 0 -1 0
vn 0 -1 0
vn 0 -1 0
vn 0 -1 0
vn 0 -1 0
vn 0 -1 0
vn 0 -1 0
vn 0 -1 0
vn 0 -1 0
vn 0 -1 0
vn 0 -1 0
vn 0 -1 0
vn 0 -1 0
vn 0 -1 0
vn 0 -1 0
vn 0 -1 0
vn 0 -1 0
vn 0 -1 0
vn 0 -1 0
vn 0 -1 0
vn 0 -1 0
vn -0.8216521 -0.3159992 -0.4743758
vn -0.8216521 -0.3159992 -0.4743758
vn -0.4743807 -0.3160009 -0.8216486
vn -0.4743807 -0.3160009 -0.8216486
vn -0.9487588 -0.3160008 0
vn 0 -0.3160053 -0.9487575
vn -0.9487588 -0.3160008 0
vn 0 -0.3160053 -0.9487575
vn -0.8216507 -0.3160035 0.4743754
vn 0.4743798 -0.3160107 -0.8216453
vn -0.8216507 -0.3160035 0.4743754
vn 0.4743798 -0.3160107 -0.8216453
vn -0.4743769 -0.3160137 0.8216459
vn 0.8216486 -0.3160134 -0.4743723
vn -0.4743769 -0.3160137 0.8216459
vn 0.8216486 -0.3160134 -0.4743723
vn 0 -0.316022 0.9487519
vn 0.9487552 -0.316012 0
vn 0 -0.316022 0.9487519
vn 0.9487552 -0.316012 0
vn 0.474376 -0.3160234 0.8216426
vn 0.8216472 -0.3160176 0.474372
vn 0.474376 -0.3160234 0.8216426
vn 0.8216472 -0.3160176 0.474372
vn 0.1795715 0.9332825 0.311027
vn 0.09111143 0.9832572 0.1578096
vn 0.1578098 0.9832572 0.09111145
vn 0.3110273 0.9332825 0.1795716
vn 0 0.9332825 0.3591431
vn 0.182223 0.9832572 0
vn 0.3591433 0.9332824 0
vn 0 0.9832572 0.1822228
vn -0.179572 0.9332822 0.3110277
vn 0 1 0
vn 0.1578098 0.9832572 -0.09111145
vn -0.09111168 0.9832572 0.15781
vn 0.3110273 0.9332825 -0.1795716
vn -0.3110273 0.9332822 0.179573
vn 0.09111143 0.9832572 -0.1578096
vn 0.1795715 0.9332825 -0.311027
vn -0.1578097 0.9832571 0.09111215
vn -0.3591438 0.9332823 0
vn 0 0.9832572 -0.1822228
vn 0 0.9332825 -0.3591431
vn -0.1822232 0.9832572 0
vn -0.3110273 0.9332822 -0.179573
vn -0.09111168 0.9832572 -0.15781
vn -0.179572 0.9332822 -0.3110277
vn -0.1578097 0.9832571 -0.09111215
g SM_Prop_RubbishBin_01_Lid_0
f 3/3/3 2/2/2 1/1/1
f 4/4/4 3/3/3 1/1/1
f 7/7/7 6/6/6 5/5/5
f 8/8/8 7/7/7 5/5/5
f 11/11/11 10/10/10 9/9/9
f 12/12/12 11/11/11 9/9/9
f 12/12/12 13/13/13 11/11/11
f 13/13/13 14/14/14 11/11/11
f 15/15/15 14/14/14 13/13/13
f 16/16/16 15/15/15 13/13/13
f 15/15/15 16/16/16 17/17/17
f 18/18/18 15/15/15 17/17/17
f 19/19/19 18/18/18 17/17/17
f 20/20/20 19/19/19 17/17/17
f 23/23/23 22/22/22 21/21/21
f 22/22/22 24/24/24 21/21/21
f 24/24/24 25/25/25 21/21/21
f 25/25/25 26/26/26 21/21/21
f 26/26/26 25/25/25 27/27/27
f 25/25/25 28/28/28 27/27/27
f 27/27/27 28/28/28 29/29/29
f 30/30/30 27/27/27 29/29/29
f 30/30/30 29/29/29 31/31/31
f 29/29/29 32/32/32 31/31/31
f 35/35/35 34/34/34 33/33/33
f 36/36/36 35/35/35 33/33/33
f 39/39/39 38/38/38 37/37/37
f 40/40/40 39/39/39 37/37/37
f 43/43/43 42/42/42 41/41/41
f 42/42/42 44/44/44 41/41/41
f 42/42/42 45/45/45 44/44/44
f 45/45/45 46/46/46 44/44/44
f 46/46/46 45/45/45 47/47/47
f 48/48/48 46/46/46 47/47/47
f 51/51/51 50/50/50 49/49/49
f 50/50/50 52/52/52 49/49/49
f 52/52/52 50/50/50 53/53/53
f 50/50/50 54/54/54 53/53/53
f 53/53/53 54/54/54 55/55/55
f 56/56/56 53/53/53 55/55/55
f 59/59/59 58/58/58 57/57/57
f 58/58/58 60/60/60 57/57/57
f 57/57/57 60/60/60 61/61/61
f 60/60/60 62/62/62 61/61/61
f 61/61/61 62/62/62 63/63/63
f 62/62/62 64/64/64 63/63/63
f 67/67/67 66/66/66 65/65/65
f 68/68/68 67/67/67 65/65/65
f 69/69/69 67/67/67 68/68/68
f 70/70/70 69/69/69 68/68/68
f 73/73/73 72/72/72 71/71/71
f 74/74/74 73/73/73 71/71/71
f 75/75/75 73/73/73 74/74/74
f 76/76/76 75/75/75 74/74/74
f 79/79/79 78/78/78 77/77/77
f 80/80/80 79/79/79 77/77/77
f 83/83/83 82/82/82 81/81/81
f 84/84/84 83/83/83 81/81/81
f 87/87/87 86/86/86 85/85/85
f 88/88/88 87/87/87 85/85/85
f 91/91/91 90/90/90 89/89/89
f 92/92/92 91/91/91 89/89/89
f 95/95/95 94/94/94 93/93/93
f 96/96/96 95/95/95 93/93/93
f 99/99/99 98/98/98 97/97/97
f 100/100/100 98/98/98 99/99/99
f 100/100/100 99/99/99 101/101/101
f 101/101/101 99/99/99 102/102/102
f 99/99/99 103/103/103 102/102/102
f 104/104/104 100/100/100 101/101/101
f 102/102/102 103/103/103 105/105/105
f 106/106/106 100/100/100 104/104/104
f 106/106/106 98/98/98 100/100/100
f 107/107/107 106/106/106 104/104/104
f 103/103/103 108/108/108 105/105/105
f 105/105/105 108/108/108 109/109/109
f 103/103/103 110/110/110 108/108/108
f 111/111/111 106/106/106 107/107/107
f 111/111/111 98/98/98 106/106/106
f 112/112/112 111/111/111 107/107/107
f 108/108/108 113/113/113 109/109/109
f 108/108/108 110/110/110 113/113/113
f 109/109/109 113/113/113 114/114/114
f 115/115/115 98/98/98 111/111/111
f 115/115/115 111/111/111 112/112/112
f 116/116/116 98/98/98 115/115/115
f 117/117/117 115/115/115 112/112/112
f 118/118/118 115/115/115 117/117/117
f 119/119/119 118/118/118 117/117/117
f 113/113/113 120/120/120 114/114/114
f 113/113/113 110/110/110 120/120/120
f 114/114/114 120/120/120 121/121/121
f 122/122/122 118/118/118 119/119/119
f 122/122/122 110/110/110 118/118/118
f 123/123/123 122/122/122 119/119/119
f 120/120/120 124/124/124 121/121/121
f 120/120/120 110/110/110 124/124/124
f 124/124/124 110/110/110 122/122/122
f 124/124/124 122/122/122 123/123/123
f 121/121/121 124/124/124 123/123/123
f 127/127/127 126/126/126 125/125/125
f 128/128/128 127/127/127 125/125/125
f 125/125/125 126/126/126 129/129/129
f 130/130/130 127/127/127 128/128/128
f 126/126/126 131/131/131 129/129/129
f 132/132/132 130/130/130 128/128/128
f 129/129/129 131/131/131 133/133/133
f 134/134/134 130/130/130 132/132/132
f 131/131/131 135/135/135 133/133/133
f 136/136/136 134/134/134 132/132/132
f 133/133/133 135/135/135 137/137/137
f 138/138/138 134/134/134 136/136/136
f 135/135/135 139/139/139 137/137/137
f 140/140/140 138/138/138 136/136/136
f 137/137/137 139/139/139 141/141/141
f 142/142/142 138/138/138 140/140/140
f 139/139/139 143/143/143 141/141/141
f 144/144/144 142/142/142 140/140/140
f 141/141/141 143/143/143 145/145/145
f 146/146/146 142/142/142 144/144/144
f 143/143/143 147/147/147 145/145/145
f 148/148/148 146/146/146 144/144/144
f 145/145/145 147/147/147 148/148/148
f 147/147/147 146/146/146 148/148/148
f 151/151/151 150/150/150 149/149/149
f 152/152/152 151/151/151 149/149/149
f 149/149/149 150/150/150 153/153/153
f 154/154/154 151/151/151 152/152/152
f 150/150/150 155/155/155 153/153/153
f 156/156/156 154/154/154 152/152/152
f 153/153/153 155/155/155 157/157/157
f 158/158/158 154/154/154 156/156/156
f 155/155/155 159/159/159 157/157/157
f 160/160/160 158/158/158 156/156/156
f 157/157/157 159/159/159 161/161/161
f 162/162/162 158/158/158 160/160/160
f 159/159/159 163/163/163 161/161/161
f 164/164/164 162/162/162 160/160/160
f 161/161/161 163/163/163 165/165/165
f 166/166/166 162/162/162 164/164/164
f 163/163/163 167/167/167 165/165/165
f 168/168/168 166/166/166 164/164/164
f 165/165/165 167/167/167 169/169/169
f 170/170/170 166/166/166 168/168/168
f 167/167/167 171/171/171 169/169/169
f 172/172/172 170/170/170 168/168/168
f 169/169/169 171/171/171 172/172/172
f 171/171/171 170/170/170 172/172/172
f 175/175/175 174/174/174 173/173/173
f 176/176/176 175/175/175 173/173/173
f 173/173/173 174/174/174 177/177/177
f 178/178/178 175/175/175 176/176/176
f 179/179/179 178/178/178 176/176/176
f 174/174/174 180/180/180 177/177/177
f 177/177/177 180/180/180 181/181/181
f 175/175/175 182/182/182 174/174/174
f 178/178/178 182/182/182 175/175/175
f 174/174/174 182/182/182 180/180/180
f 183/183/183 182/182/182 178/178/178
f 183/183/183 178/178/178 179/179/179
f 180/180/180 182/182/182 184/184/184
f 180/180/180 184/184/184 181/181/181
f 185/185/185 183/183/183 179/179/179
f 181/181/181 184/184/184 186/186/186
f 187/187/187 183/183/183 185/185/185
f 187/187/187 182/182/182 183/183/183
f 188/188/188 187/187/187 185/185/185
f 184/184/184 189/189/189 186/186/186
f 184/184/184 182/182/182 189/189/189
f 186/186/186 189/189/189 190/190/190
f 191/191/191 187/187/187 188/188/188
f 191/191/191 182/182/182 187/187/187
f 192/192/192 191/191/191 188/188/188
f 189/189/189 193/193/193 190/190/190
f 189/189/189 182/182/182 193/193/193
f 190/190/190 193/193/193 194/194/194
f 195/195/195 191/191/191 192/192/192
f 195/195/195 182/182/182 191/191/191
f 196/196/196 195/195/195 192/192/192
f 194/194/194 197/197/197 196/196/196
f 193/193/193 197/197/197 194/194/194
f 193/193/193 182/182/182 197/197/197
f 197/197/197 182/182/182 195/195/195
f 197/197/197 195/195/195 196/196/196
