g SM_Prop_SafeDepositBox_Cover_03
v -0.4686666 -0.1404036 0.03964901
v -0.4686666 -0.1145347 0.03964901
v -0.4389119 -0.1145347 0.03964901
v -0.4389119 -0.1404036 0.03964901
v -0.4686666 -0.1145347 0.03964901
v -0.4686666 -0.1145347 0.0201807
v -0.4389119 -0.1145347 0.0201807
v -0.4389119 -0.1145347 0.03964901
v -0.4686666 -0.1404036 0.0201807
v -0.4686666 -0.1404036 0.03964901
v -0.4389119 -0.1404036 0.03964901
v -0.4389119 -0.1404036 0.0201807
v -0.4389119 -0.1404036 0.03964901
v -0.4389119 -0.1145347 0.03964901
v -0.4389119 -0.1145347 0.0201807
v -0.4389119 -0.1404036 0.0201807
v -0.4686666 -0.1404036 0.0201807
v -0.4686666 -0.1145347 0.0201807
v -0.4686666 -0.1145347 0.03964901
v -0.4686666 -0.1404036 0.03964901
v -0.5965514 -0.1910448 0
v -0.566361 -0.1735824 0.0201807
v -0.03019094 -0.1735824 0.0201807
v -4.768372E-07 -0.1910448 0
v -4.768372E-07 -0.1910448 0
v -0.03019094 -0.1735824 0.0201807
v -0.03019094 -0.01746225 0.0201807
v -4.768372E-07 0 0
v -4.768372E-07 0 0
v -0.03019094 -0.01746225 0.0201807
v -0.566361 -0.01746225 0.0201807
v -0.5965514 0 0
v -0.5965514 0 0
v -0.566361 -0.01746225 0.0201807
v -0.566361 -0.1735824 0.0201807
v -0.5965514 -0.1910448 0
v -0.566361 -0.1735824 0.0201807
v -0.566361 -0.01746225 0.0201807
v -0.03019094 -0.01746225 0.0201807
v -0.03019094 -0.1735824 0.0201807
v -0.4733176 -0.1515789 -0.0382843
v -0.1232343 -0.1515789 -0.0382843
v -0.1232343 -0.0394659 -0.0382843
v -0.4733176 -0.0394659 -0.0382843
v -0.5965514 -0.1910448 0
v -0.5965514 -0.1910448 -0.01810741
v -0.5965514 0 -0.01810741
v -0.5965514 0 0
v -0.5965514 0 0
v -0.5965514 0 -0.01810741
v -4.768372E-07 0 -0.01810741
v -4.768372E-07 0 0
v -4.768372E-07 0 0
v -4.768372E-07 0 -0.01810741
v -4.768372E-07 -0.1910448 -0.01810741
v -4.768372E-07 -0.1910448 0
v -4.768372E-07 -0.1910448 0
v -4.768372E-07 -0.1910448 -0.01810741
v -0.5965514 -0.1910448 -0.01810741
v -0.5965514 -0.1910448 0
v -0.4814811 -0.1541934 -0.01810741
v -0.4733176 -0.1515789 -0.0382843
v -0.4733176 -0.0394659 -0.0382843
v -0.4814811 -0.03685141 -0.01810741
v -0.4814811 -0.03685141 -0.01810741
v -0.4733176 -0.0394659 -0.0382843
v -0.1232343 -0.0394659 -0.0382843
v -0.1150708 -0.03685141 -0.01810741
v -0.1150708 -0.03685141 -0.01810741
v -0.1232343 -0.0394659 -0.0382843
v -0.1232343 -0.1515789 -0.0382843
v -0.1150708 -0.1541934 -0.01810741
v -0.1150708 -0.1541934 -0.01810741
v -0.1232343 -0.1515789 -0.0382843
v -0.4733176 -0.1515789 -0.0382843
v -0.4814811 -0.1541934 -0.01810741
v -0.5965514 -0.1910448 -0.01810741
v -0.4814811 -0.1541934 -0.01810741
v -0.4814811 -0.03685141 -0.01810741
v -0.5965514 0 -0.01810741
v -4.768372E-07 -0.1910448 -0.01810741
v -0.1150708 -0.03685141 -0.01810741
v -0.1150708 -0.1541934 -0.01810741
v -4.768372E-07 0 -0.01810741
vt 0.04758452 0.2100093
vt 0.04758452 0.2100093
vt 0.04758452 0.2100093
vt 0.04758452 0.2100093
vt 0.04758452 0.2100093
vt 0.04758452 0.2100093
vt 0.04758452 0.2100093
vt 0.04758452 0.2100093
vt 0.04758452 0.2100093
vt 0.04758452 0.2100093
vt 0.04758452 0.2100093
vt 0.04758452 0.2100093
vt 0.04758452 0.2100093
vt 0.04758452 0.2100093
vt 0.04758452 0.2100093
vt 0.04758452 0.2100093
vt 0.04758452 0.2100093
vt 0.04758452 0.2100093
vt 0.04758452 0.2100093
vt 0.04758452 0.2100093
vt 0.1032504 0.2761977
vt 0.1032504 0.2761977
vt 0.1032504 0.2761977
vt 0.1032504 0.2761977
vt 0.1032504 0.2761977
vt 0.1032504 0.2761977
vt 0.1032504 0.2761977
vt 0.1032504 0.2761977
vt 0.1032504 0.2761977
vt 0.1032504 0.2761977
vt 0.1032504 0.2761977
vt 0.1032504 0.2761977
vt 0.1032504 0.2761977
vt 0.1032504 0.2761977
vt 0.1032504 0.2761977
vt 0.1032504 0.2761977
vt 0.001900524 0.6344759
vt 0.001900524 0.6774685
vt 0.1792223 0.6774685
vt 0.1792223 0.6344759
vt 0.1032504 0.2761977
vt 0.1032504 0.2761977
vt 0.1032504 0.2761977
vt 0.1032504 0.2761977
vt 0.1032504 0.2761977
vt 0.1032504 0.2761977
vt 0.1032504 0.2761977
vt 0.1032504 0.2761977
vt 0.1032504 0.2761977
vt 0.1032504 0.2761977
vt 0.1032504 0.2761977
vt 0.1032504 0.2761977
vt 0.1032504 0.2761977
vt 0.1032504 0.2761977
vt 0.1032504 0.2761977
vt 0.1032504 0.2761977
vt 0.1032504 0.2761977
vt 0.1032504 0.2761977
vt 0.1032504 0.2761977
vt 0.1032504 0.2761977
vt 0.1032504 0.2761977
vt 0.1032504 0.2761977
vt 0.1032504 0.2761977
vt 0.1032504 0.2761977
vt 0.1032504 0.2761977
vt 0.1032504 0.2761977
vt 0.1032504 0.2761977
vt 0.1032504 0.2761977
vt 0.1032504 0.2761977
vt 0.1032504 0.2761977
vt 0.1032504 0.2761977
vt 0.1032504 0.2761977
vt 0.1032504 0.2761977
vt 0.1032504 0.2761977
vt 0.1032504 0.2761977
vt 0.1032504 0.2761977
vt 0.1032504 0.2761977
vt 0.1032504 0.2761977
vt 0.1032504 0.2761977
vt 0.1032504 0.2761977
vt 0.1032504 0.2761977
vt 0.1032504 0.2761977
vt 0.1032504 0.2761977
vt 0.1032504 0.2761977
vn 0 0 1
vn 0 0 1
vn 0 0 1
vn 0 0 1
vn 0 1 0
vn 0 1 0
vn 0 1 0
vn 0 1 0
vn 0 -1 0
vn 0 -1 0
vn 0 -1 0
vn 0 -1 0
vn 1 0 0
vn 1 0 0
vn 1 0 0
vn 1 0 0
vn -1 0 0
vn -1 0 0
vn -1 0 0
vn -1 0 0
vn 0 -0.7562002 0.6543404
vn 0 -0.7562002 0.6543404
vn 0 -0.7562002 0.6543404
vn 0 -0.7562002 0.6543404
vn 0.555724 0 0.8313668
vn 0.555724 0 0.8313668
vn 0.555724 0 0.8313668
vn 0.555724 0 0.8313668
vn 0 0.7562023 0.6543378
vn 0 0.7562023 0.6543378
vn 0 0.7562023 0.6543378
vn 0 0.7562023 0.6543378
vn -0.555724 0 0.8313668
vn -0.555724 0 0.8313668
vn -0.555724 0 0.8313668
vn -0.555724 0 0.8313668
vn 0 0 1
vn 0 0 1
vn 0 0 1
vn 0 0 1
vn 0 0 -1
vn 0 0 -1
vn 0 0 -1
vn 0 0 -1
vn -1 0 0
vn -1 0 0
vn -1 0 0
vn -1 0 0
vn 0 1 0
vn 0 1 0
vn 0 1 0
vn 0 1 0
vn 1 0 0
vn 1 0 0
vn 1 0 0
vn 1 0 0
vn 0 -1 0
vn 0 -1 0
vn 0 -1 0
vn 0 -1 0
vn -0.9270009 0 -0.3750592
vn -0.9270009 0 -0.3750592
vn -0.9270009 0 -0.3750592
vn -0.9270009 0 -0.3750592
vn 0 0.9917089 -0.1285045
vn 0 0.9917089 -0.1285045
vn 0 0.9917089 -0.1285045
vn 0 0.9917089 -0.1285045
vn 0.9270009 0 -0.3750592
vn 0.9270009 0 -0.3750592
vn 0.9270009 0 -0.3750592
vn 0.9270009 0 -0.3750592
vn 0 -0.9917089 -0.1285045
vn 0 -0.9917089 -0.1285045
vn 0 -0.9917089 -0.1285045
vn 0 -0.9917089 -0.1285045
vn 0 0 -1
vn 0 0 -1
vn 0 0 -1
vn 0 0 -1
vn 0 0 -1
vn 0 0 -1
vn 0 0 -1
vn 0 0 -1
g SM_Prop_SafeDepositBox_Cover_03_0
f 3/3/3 2/2/2 1/1/1
f 4/4/4 3/3/3 1/1/1
f 7/7/7 6/6/6 5/5/5
f 8/8/8 7/7/7 5/5/5
f 11/11/11 10/10/10 9/9/9
f 12/12/12 11/11/11 9/9/9
f 15/15/15 14/14/14 13/13/13
f 16/16/16 15/15/15 13/13/13
f 19/19/19 18/18/18 17/17/17
f 20/20/20 19/19/19 17/17/17
f 23/23/23 22/22/22 21/21/21
f 24/24/24 23/23/23 21/21/21
f 27/27/27 26/26/26 25/25/25
f 28/28/28 27/27/27 25/25/25
f 31/31/31 30/30/30 29/29/29
f 32/32/32 31/31/31 29/29/29
f 35/35/35 34/34/34 33/33/33
f 36/36/36 35/35/35 33/33/33
f 39/39/39 38/38/38 37/37/37
f 40/40/40 39/39/39 37/37/37
f 43/43/43 42/42/42 41/41/41
f 44/44/44 43/43/43 41/41/41
f 47/47/47 46/46/46 45/45/45
f 48/48/48 47/47/47 45/45/45
f 51/51/51 50/50/50 49/49/49
f 52/52/52 51/51/51 49/49/49
f 55/55/55 54/54/54 53/53/53
f 56/56/56 55/55/55 53/53/53
f 59/59/59 58/58/58 57/57/57
f 60/60/60 59/59/59 57/57/57
f 63/63/63 62/62/62 61/61/61
f 64/64/64 63/63/63 61/61/61
f 67/67/67 66/66/66 65/65/65
f 68/68/68 67/67/67 65/65/65
f 71/71/71 70/70/70 69/69/69
f 72/72/72 71/71/71 69/69/69
f 75/75/75 74/74/74 73/73/73
f 76/76/76 75/75/75 73/73/73
f 79/79/79 78/78/78 77/77/77
f 80/80/80 79/79/79 77/77/77
f 77/77/77 78/78/78 81/81/81
f 82/82/82 79/79/79 80/80/80
f 78/78/78 83/83/83 81/81/81
f 84/84/84 82/82/82 80/80/80
f 81/81/81 83/83/83 84/84/84
f 83/83/83 82/82/82 84/84/84
