g SM_Prop_Art_Standing_03
v 0.05844849 0.2131287 0.03927612
v 0.06184448 0.2129297 0.03933227
v 0.06937134 0.2124878 0.03945801
v -0.0186438 0.2173834 0.03807129
v -0.00602417 0.2351282 0.03304382
v 0.0133606 0.2092023 0.04038879
v -0.009780273 0.1846966 0.04733093
v -0.07793823 0.1514337 0.05675415
v -0.006918945 0.1481573 0.05768188
v -0.09205689 0.2069257 0.04103332
v -0.04656616 0.2439539 0.03054382
v -0.04405151 0.1181384 0.06618652
v -0.06713745 0.08352356 0.07599243
v -0.08041625 0.08352356 0.07599243
v -0.01031128 0.1121625 0.06787903
v 0.04769653 0.1136475 0.0674585
v 0.04810669 0.1427521 0.05921325
v -0.04656616 0.2439539 0.03054382
v -0.04716431 0.2656219 0.02440552
v -0.03045044 0.2530011 0.02798096
v -0.0186438 0.2173834 0.03807129
v -0.00602417 0.2351282 0.03304382
v -0.03074097 0.2727887 0.02237549
v -0.003170166 0.2484778 0.02926208
v 0.004034424 0.2821673 0.01971802
v 0.009202881 0.2477386 0.02947143
v 0.01244263 0.2290088 0.03477783
v 0.01617554 0.2592432 0.02621216
v 0.02734741 0.25677 0.02691284
v 0.0133606 0.2092023 0.04038879
v 0.04129761 0.2167828 0.03824097
v -0.05133911 0.2871136 0.01831665
v -0.02329712 0.2998157 0.01471863
v 0.004034424 0.2821673 0.01971802
v -0.03074097 0.2727887 0.02237549
v -0.04716431 0.2656219 0.02440552
v -0.03045044 0.2530011 0.02798096
v 0.01617554 0.2592432 0.02621216
v 0.009202881 0.2477386 0.02947143
v 0.02734741 0.25677 0.02691284
v 0.02764893 0.2902533 0.01742737
v 0.04679566 0.2748443 0.0217926
v 0.04129761 0.2167828 0.03824097
v 0.05357544 0.2258923 0.0356604
v 0.05844849 0.2131287 0.03927612
v 0.06972534 0.1835852 0.04764526
v 0.0133606 0.2092023 0.04038879
v -0.00602417 0.2351282 0.03304382
v -0.003170166 0.2484778 0.02926208
v 0.01244263 0.2290088 0.03477783
v -0.1372571 0.08352356 0.07599243
v -0.07793823 0.1514337 0.05675415
v -0.08041625 0.08352356 0.07599243
v -0.09205689 0.2069257 0.04103332
v -0.1051526 0.2977057 0.01531616
v -0.1372571 0.402146 -0.01427063
v -0.04339477 0.3521918 -0.0001190186
v 0.05834106 0.3757751 -0.006799927
v 0.1372595 0.4021448 -0.01427307
v 0.1372595 0.3486084 0.0008935547
v -0.05133911 0.2871136 0.01831665
v -0.04716431 0.2656219 0.02440552
v -0.04656616 0.2439539 0.03054382
v -0.02329712 0.2998157 0.01471863
v -0.02256348 0.3028308 0.01386475
v 0.02764893 0.2902533 0.01742737
v 0.004034424 0.2821673 0.01971802
v 0.04549194 0.3070538 0.01266846
v 0.04679566 0.2748443 0.0217926
v 0.05039673 0.2788165 0.02066772
v 0.05357544 0.2258923 0.0356604
v 0.05844849 0.2131287 0.03927612
v 0.06184448 0.2129297 0.03933227
v -0.01355469 0.08352356 0.07599243
v -0.01031128 0.1121625 0.06787903
v 0.04769653 0.1136475 0.0674585
v 0.06018188 0.09729004 0.07209229
v 0.06263062 0.08352356 0.07599243
v -0.01355469 0.08352356 0.07599243
v -0.06713745 0.08352356 0.07599243
v -0.04405151 0.1181384 0.06618652
v -0.01031128 0.1121625 0.06787903
v 0.06018188 0.09729004 0.07209229
v 0.04769653 0.1136475 0.0674585
v 0.04810669 0.1427521 0.05921325
v 0.06972534 0.1835852 0.04764526
v 0.1372595 0.08352295 0.07598999
v 0.06263062 0.08352356 0.07599243
v 0.1372595 0.226582 0.03546264
v 0.07876343 0.193996 0.04469604
v 0.07361206 0.2122388 0.0395282
v 0.1372595 0.3219556 0.008443603
v 0.07361206 0.2122388 0.0395282
v 0.07876343 0.193996 0.04469604
v 0.06972534 0.1835852 0.04764526
v 0.06937134 0.2124878 0.03945801
v 0.05844849 0.2131287 0.03927612
v 0.05039673 0.2788165 0.02066772
v 0.04549194 0.3070538 0.01266846
v 0.05666382 0.3088684 0.01215393
v 0.06047485 0.2799542 0.02034546
v 0.06937134 0.2124878 0.03945801
v 0.06184448 0.2129297 0.03933227
v -0.009780273 0.1846966 0.04733093
v 0.0133606 0.2092023 0.04038879
v 0.04129761 0.2167828 0.03824097
v 0.06972534 0.1835852 0.04764526
v 0.04810669 0.1427521 0.05921325
v -0.006918945 0.1481573 0.05768188
v -0.02256348 0.3028308 0.01386475
v -0.1051526 0.2977057 0.01531616
v -0.04339477 0.3521918 -0.0001190186
v 0.04549194 0.3070538 0.01266846
v 0.05834106 0.3757751 -0.006799927
v 0.05666382 0.3088684 0.01215393
v 0.1372595 0.3486084 0.0008935547
v 0.1372595 0.3219556 0.008443603
v 0.1372595 0.3219556 0.008443603
v 0.07361206 0.2122388 0.0395282
v 0.06937134 0.2124878 0.03945801
v 0.06047485 0.2799542 0.02034546
v 0.05666382 0.3088684 0.01215393
v 0.2306311 -0.01350891 0.07074218
v 0.2306311 0.4820068 -0.06963318
v -0.2306311 0.4820068 -0.06963318
v -0.2306311 -0.01350891 0.07074218
v 0.2306311 0.4820068 -0.06963318
v 0.2306311 0.4955164 -0.0219458
v -0.2306311 0.4955164 -0.0219458
v -0.2306311 0.4820068 -0.06963318
v 0.2306311 0 0.1184296
v 0.2306311 -0.01350891 0.07074218
v -0.2306311 -0.01350891 0.07074218
v -0.2306311 0 0.1184296
v -0.2306311 -0.01350891 0.07074218
v -0.2306311 0.4820068 -0.06963318
v -0.2306311 0.4955164 -0.0219458
v -0.2306311 0 0.1184296
v 0.2306311 0 0.1184296
v 0.2306311 0.4955164 -0.0219458
v 0.2306311 0.4820068 -0.06963318
v 0.2306311 -0.01350891 0.07074218
v 0.1928137 0.4571582 -0.0110791
v 0.1838135 0.4436804 -0.02603699
v -0.1838122 0.4436804 -0.02603699
v -0.1928125 0.4571582 -0.0110791
v -0.1928125 0.4571582 -0.0110791
v -0.1838122 0.4436804 -0.02603699
v -0.1838122 0.04198974 0.08775879
v -0.1928125 0.03835937 0.1075623
v -0.1928125 0.03835937 0.1075623
v -0.1838122 0.04198974 0.08775879
v 0.1838135 0.04198974 0.08775879
v 0.1928137 0.03835937 0.1075623
v 0.1928137 0.03835937 0.1075623
v 0.1838135 0.04198974 0.08775879
v 0.1838135 0.4436804 -0.02603699
v 0.1928137 0.4571582 -0.0110791
v -0.06817017 -0.002434387 -0.1184296
v -0.06817017 0.2587454 0.001619873
v -0.06817017 0.2131314 0.01608521
v -0.06817017 -0.01821747 -0.08832458
v 0.06223144 0.2587454 0.001619873
v 0.06223144 -0.002434387 -0.1184296
v 0.06223144 -0.01821747 -0.08832458
v 0.06223144 0.2131314 0.01608521
v 0.06223144 -0.002434387 -0.1184296
v -0.06817017 -0.002434387 -0.1184296
v -0.06817017 -0.01821747 -0.08832458
v 0.06223144 -0.01821747 -0.08832458
v -0.06817017 -0.01821747 -0.08832458
v -0.06817017 0.2131314 0.01608521
v 0.06223144 0.2131314 0.01608521
v 0.06223144 -0.01821747 -0.08832458
v 0.06223144 -0.002434387 -0.1184296
v 0.06223144 0.2587454 0.001619873
v -0.06817017 0.2587454 0.001619873
v -0.06817017 -0.002434387 -0.1184296
v 0.2306311 0.4955164 -0.0219458
v 0.1928137 0.4571582 -0.0110791
v -0.1928125 0.4571582 -0.0110791
v -0.2306311 0.4955164 -0.0219458
v 0.2306311 0 0.1184296
v -0.1928125 0.03835937 0.1075623
v 0.1928137 0.03835937 0.1075623
v -0.2306311 0 0.1184296
v 0.1838135 0.4436804 -0.02603699
v 0.1372595 0.402146 -0.01427063
v -0.1372583 0.402146 -0.01427063
v -0.1838122 0.4436804 -0.02603699
v 0.1838135 0.04198974 0.08775879
v -0.1372583 0.08352417 0.07599243
v 0.1372595 0.08352417 0.07599243
v -0.1838122 0.04198974 0.08775879
vt 0.03765869 0.3769684
vt 0.03765869 0.3769684
vt 0.03765869 0.3769684
vt 0.0390625 0.2312241
vt 0.0390625 0.2312241
vt 0.0390625 0.2312241
vt 0.0390625 0.2312241
vt 0.0390625 0.2312241
vt 0.0390625 0.2312241
vt 0.0390625 0.2312241
vt 0.0390625 0.2312241
vt 0.0390625 0.2312241
vt 0.0390625 0.2312241
vt 0.0390625 0.2312241
vt 0.0390625 0.2312241
vt 0.03912354 0.2312241
vt 0.03912354 0.2312241
vt 0.03845215 0.378479
vt 0.03845215 0.378479
vt 0.03845215 0.378479
vt 0.03845215 0.378479
vt 0.03845215 0.378479
vt 0.03845215 0.378479
vt 0.03845215 0.378479
vt 0.03845215 0.378479
vt 0.03845215 0.378479
vt 0.03845215 0.378479
vt 0.03845215 0.378479
vt 0.03845215 0.378479
vt 0.03845215 0.378479
vt 0.03839111 0.378479
vt 0.0390625 0.2312241
vt 0.0390625 0.2312241
vt 0.0390625 0.2312241
vt 0.0390625 0.2312241
vt 0.0390625 0.2312241
vt 0.0390625 0.2312241
vt 0.0390625 0.2312241
vt 0.0390625 0.2312241
vt 0.0390625 0.2312241
vt 0.0390625 0.2312241
vt 0.03912354 0.2312241
vt 0.03912354 0.2312241
vt 0.03912354 0.2312241
vt 0.03912354 0.2312241
vt 0.03912354 0.2312241
vt 0.07010779 0.3052287
vt 0.07010779 0.3052287
vt 0.07010779 0.3052287
vt 0.07010779 0.3052287
vt 0.07010779 0.3052287
vt 0.0701078 0.3052287
vt 0.07010779 0.3052287
vt 0.07010779 0.3052287
vt 0.07010779 0.3052287
vt 0.07010779 0.3052287
vt 0.07010779 0.3052287
vt 0.07010779 0.3052287
vt 0.07010779 0.3052287
vt 0.07010779 0.3052287
vt 0.07010779 0.3052287
vt 0.07010779 0.3052287
vt 0.07010779 0.3052287
vt 0.07010779 0.3052287
vt 0.07010779 0.3052287
vt 0.07010779 0.3052287
vt 0.07010779 0.3052287
vt 0.07010779 0.3052286
vt 0.07010779 0.3052287
vt 0.07010779 0.3052286
vt 0.07010779 0.3052287
vt 0.07010779 0.3052287
vt 0.07010779 0.3052287
vt 0.03527832 0.3044739
vt 0.03527832 0.3044739
vt 0.03540039 0.3044739
vt 0.03540039 0.3044739
vt 0.03540039 0.3044739
vt 0.04589844 0.3324127
vt 0.04589844 0.3324127
vt 0.04589844 0.3324127
vt 0.04589844 0.3324127
vt 0.07010779 0.3052287
vt 0.07010779 0.3052287
vt 0.07010779 0.3052287
vt 0.07010779 0.3052287
vt 0.07010779 0.3052287
vt 0.07010779 0.3052287
vt 0.0701078 0.3052287
vt 0.07010779 0.3052287
vt 0.07010779 0.3052287
vt 0.0701078 0.3052287
vt 0.03765869 0.3769684
vt 0.03765869 0.3769684
vt 0.03765869 0.3769684
vt 0.03765869 0.3769684
vt 0.03765869 0.3769684
vt 0.1026001 0.2297134
vt 0.1026001 0.2297134
vt 0.1026001 0.2297134
vt 0.1026001 0.2297134
vt 0.1026001 0.2297134
vt 0.1026001 0.2297134
vt 0.03527832 0.3044739
vt 0.03527832 0.3044739
vt 0.03540039 0.3044739
vt 0.03540039 0.3044739
vt 0.03540039 0.3044739
vt 0.03527832 0.3044739
vt 0.1468841 0.4464417
vt 0.1468506 0.4464417
vt 0.1468506 0.4464417
vt 0.1469116 0.4464417
vt 0.1469116 0.4464417
vt 0.1469116 0.4464417
vt 0.1469116 0.4464417
vt 0.1469116 0.4464417
vt 0.0701078 0.3052287
vt 0.07010779 0.3052287
vt 0.07010779 0.3052287
vt 0.07010779 0.3052287
vt 0.07010779 0.3052287
vt 0.09163044 0.2299372
vt 0.09163044 0.2299372
vt 0.09163044 0.2299372
vt 0.09163044 0.2299372
vt 0.09163044 0.2299372
vt 0.09163044 0.2299372
vt 0.09163044 0.2299372
vt 0.09163044 0.2299372
vt 0.09163044 0.2299372
vt 0.09163044 0.2299372
vt 0.09163044 0.2299372
vt 0.09163044 0.2299372
vt 0.09163044 0.2299372
vt 0.09163044 0.2299372
vt 0.09163044 0.2299372
vt 0.09163044 0.2299372
vt 0.09163044 0.2299372
vt 0.09163044 0.2299372
vt 0.09163044 0.2299372
vt 0.09163044 0.2299372
vt 0.09163044 0.2299372
vt 0.09163044 0.2299372
vt 0.09163044 0.2299372
vt 0.09163044 0.2299372
vt 0.09163044 0.2299372
vt 0.09163044 0.2299372
vt 0.09163044 0.2299372
vt 0.09163044 0.2299372
vt 0.09163044 0.2299372
vt 0.09163044 0.2299372
vt 0.09163044 0.2299372
vt 0.09163044 0.2299372
vt 0.09163044 0.2299372
vt 0.09163044 0.2299372
vt 0.09163044 0.2299372
vt 0.09163044 0.2299372
vt 0.08984375 0.2264404
vt 0.08984375 0.2264404
vt 0.08984375 0.2264404
vt 0.08984375 0.2264404
vt 0.08984375 0.2264404
vt 0.08984375 0.2264404
vt 0.08984375 0.2264404
vt 0.08984375 0.2264404
vt 0.08984375 0.2264404
vt 0.08984375 0.2264404
vt 0.08984375 0.2264404
vt 0.08984375 0.2264404
vt 0.08984375 0.2264404
vt 0.08984375 0.2264404
vt 0.08984375 0.2264404
vt 0.08984375 0.2264404
vt 0.08984375 0.2264404
vt 0.08984375 0.2264404
vt 0.08984375 0.2264404
vt 0.08984375 0.2264404
vt 0.09163044 0.2299372
vt 0.09163044 0.2299372
vt 0.09163044 0.2299372
vt 0.09163044 0.2299372
vt 0.09163044 0.2299372
vt 0.09163044 0.2299372
vt 0.09163044 0.2299372
vt 0.09163044 0.2299372
vt 0.07006836 0.3795166
vt 0.07006836 0.3795166
vt 0.07006836 0.3795166
vt 0.07006836 0.3795166
vt 0.07006836 0.3795166
vt 0.07006836 0.3795166
vt 0.07006836 0.3795166
vt 0.07006836 0.3795166
vn 0 0.8206867 0.5713784
vn 0 0.8206867 0.5713784
vn 0 0.8206867 0.5713784
vn 0 0.2725693 0.9621361
vn 3.563288E-06 0.2725665 0.962137
vn 0 0.2725654 0.9621372
vn 3.752922E-06 0.2725637 0.9621377
vn 0 0.2725658 0.9621371
vn 5.070207E-06 0.2725664 0.962137
vn -5.000754E-06 0.2725676 0.9621367
vn -6.425797E-06 0.2725644 0.9621376
vn 5.059658E-06 0.2725672 0.9621368
vn 0 0.2725639 0.9621377
vn 0 0.2725655 0.9621372
vn 3.806188E-06 0.2725669 0.9621369
vn 0 0.2725682 0.9621364
vn 3.738554E-06 0.2725672 0.9621368
vn -6.425797E-06 0.2725644 0.9621376
vn -1.316304E-05 0.272568 0.9621364
vn 0 0.2725662 0.9621371
vn 0 0.2725693 0.9621361
vn 3.563288E-06 0.2725665 0.962137
vn 0 0.272567 0.9621368
vn 0 0.2725672 0.9621368
vn 3.609445E-06 0.2725632 0.9621379
vn 4.328088E-06 0.2725755 0.9621344
vn 0 0.2725745 0.9621347
vn 0 0.2725695 0.9621361
vn 0 0.2725672 0.9621368
vn 0 0.2725654 0.9621372
vn 3.399093E-06 0.272562 0.9621382
vn -8.707661E-06 0.2725645 0.9621375
vn 0 0.2725504 0.9621415
vn 3.609445E-06 0.2725632 0.9621379
vn 0 0.272567 0.9621368
vn -1.316304E-05 0.272568 0.9621364
vn 0 0.2725662 0.9621371
vn 0 0.2725695 0.9621361
vn 4.328088E-06 0.2725755 0.9621344
vn 0 0.2725672 0.9621368
vn -5.359808E-06 0.2725511 0.9621413
vn -3.217112E-05 0.2725587 0.9621391
vn 3.399093E-06 0.272562 0.9621382
vn -2.253728E-05 0.2725598 0.9621388
vn 8.212514E-06 0.2725577 0.9621394
vn 1.448099E-05 0.2725589 0.9621391
vn 0 0.2725654 0.9621372
vn 3.563288E-06 0.2725665 0.962137
vn 0 0.2725672 0.9621368
vn 0 0.2725745 0.9621347
vn 0 0.2725664 0.962137
vn 0 0.2725658 0.9621371
vn 0 0.2725655 0.9621372
vn -5.000754E-06 0.2725676 0.9621367
vn 0 0.2725585 0.9621392
vn 3.796551E-06 0.2725818 0.9621326
vn -2.040277E-06 0.2725664 0.962137
vn 1.919843E-05 0.2725759 0.9621342
vn 2.159604E-05 0.2726018 0.962127
vn 3.286511E-05 0.2725634 0.9621378
vn -8.707661E-06 0.2725645 0.9621375
vn -1.316304E-05 0.272568 0.9621364
vn -6.425797E-06 0.2725644 0.9621376
vn 0 0.2725504 0.9621415
vn 0 0.2725492 0.9621419
vn -5.359808E-06 0.2725511 0.9621413
vn 3.609445E-06 0.2725632 0.9621379
vn 5.506478E-06 0.2725593 0.962139
vn -3.217112E-05 0.2725587 0.9621391
vn -1.042527E-05 0.2725601 0.9621388
vn -2.253728E-05 0.2725598 0.9621388
vn 8.212514E-06 0.2725577 0.9621394
vn 1.47946E-05 0.2725613 0.9621385
vn 0 0.2725704 0.9621358
vn 3.806188E-06 0.2725669 0.9621369
vn 0 0.2725682 0.9621364
vn 1.478159E-05 0.2725732 0.962135
vn 1.685223E-05 0.2725823 0.9621325
vn 0 0.2725704 0.9621358
vn 0 0.2725639 0.9621377
vn 5.059658E-06 0.2725672 0.9621368
vn 3.806188E-06 0.2725669 0.9621369
vn 1.478159E-05 0.2725732 0.962135
vn 0 0.2725682 0.9621364
vn 3.738554E-06 0.2725672 0.9621368
vn 1.448099E-05 0.2725589 0.9621391
vn 3.119641E-05 0.2725712 0.9621357
vn 1.685223E-05 0.2725823 0.9621325
vn 3.203073E-05 0.2725661 0.9621371
vn 2.12079E-05 0.2725618 0.9621384
vn 3.753421E-05 0.2725614 0.9621385
vn 3.447658E-05 0.2725689 0.9621362
vn 3.753421E-05 0.2725614 0.9621385
vn 2.12079E-05 0.2725618 0.9621384
vn 1.448099E-05 0.2725589 0.9621391
vn 1.494802E-05 0.2725542 0.9621404
vn 8.212514E-06 0.2725577 0.9621394
vn -1.042527E-05 0.2725601 0.9621388
vn 5.506478E-06 0.2725593 0.962139
vn 3.09669E-05 0.272568 0.9621366
vn 1.517103E-05 0.2725689 0.9621362
vn 1.494802E-05 0.2725542 0.9621404
vn 1.47946E-05 0.2725613 0.9621385
vn 3.752922E-06 0.2725637 0.9621377
vn 0 0.2725654 0.9621372
vn 3.399093E-06 0.272562 0.9621382
vn 1.448099E-05 0.2725589 0.9621391
vn 3.738554E-06 0.2725672 0.9621368
vn 5.070207E-06 0.2725664 0.962137
vn 0 0.2725492 0.9621419
vn 0 0.2725585 0.9621392
vn -2.040277E-06 0.2725664 0.962137
vn 5.506478E-06 0.2725593 0.962139
vn 1.919843E-05 0.2725759 0.9621342
vn 3.09669E-05 0.272568 0.9621366
vn 3.286511E-05 0.2725634 0.9621378
vn 3.447658E-05 0.2725689 0.9621362
vn 3.447658E-05 0.2725689 0.9621362
vn 3.753421E-05 0.2725614 0.9621385
vn 1.494802E-05 0.2725542 0.9621404
vn 1.517103E-05 0.2725689 0.9621362
vn 3.09669E-05 0.272568 0.9621366
vn 0 -0.2725652 -0.9621372
vn 0 -0.2725652 -0.9621372
vn 0 -0.2725652 -0.9621372
vn 0 -0.2725652 -0.9621372
vn 0 0.9621368 -0.272567
vn 0 0.9621368 -0.272567
vn 0 0.9621368 -0.272567
vn 0 0.9621368 -0.272567
vn 0 -0.96214 0.2725556
vn 0 -0.96214 0.2725556
vn 0 -0.96214 0.2725556
vn 0 -0.96214 0.2725556
vn -1 0 0
vn -1 0 0
vn -1 0 0
vn -1 0 0
vn 1 0 0
vn 1 0 0
vn 1 0 0
vn 1 0 0
vn 0 -0.7429066 0.6693951
vn 0 -0.7429066 0.6693951
vn 0 -0.7429066 0.6693951
vn 0 -0.7429066 0.6693951
vn 0.8950619 0.121548 0.4290575
vn 0.8950619 0.121548 0.4290575
vn 0.8950619 0.121548 0.4290575
vn 0.8950619 0.121548 0.4290575
vn 0 0.9836089 0.1803151
vn 0 0.9836089 0.1803151
vn 0 0.9836089 0.1803151
vn 0 0.9836089 0.1803151
vn -0.8950619 0.121548 0.4290575
vn -0.8950619 0.121548 0.4290575
vn -0.8950619 0.121548 0.4290575
vn -0.8950619 0.121548 0.4290575
vn -1 0 0
vn -1 0 0
vn -1 0 0
vn -1 0 0
vn 1 0 0
vn 1 0 0
vn 1 0 0
vn 1 0 0
vn 0 -0.8856645 -0.4643256
vn 0 -0.8856645 -0.4643256
vn 0 -0.8856645 -0.4643256
vn 0 -0.8856645 -0.4643256
vn 0 -0.4113565 0.9114746
vn 0 -0.4113565 0.9114746
vn 0 -0.4113565 0.9114746
vn 0 -0.4113565 0.9114746
vn 0 0.4176378 -0.9086136
vn 0 0.4176378 -0.9086136
vn 0 0.4176378 -0.9086136
vn 0 0.4176378 -0.9086136
vn 0 0.2725667 0.9621369
vn 0 0.2725667 0.9621369
vn 0 0.2725667 0.9621369
vn 0 0.2725667 0.9621369
vn 0 0.2725698 0.962136
vn 0 0.2725698 0.962136
vn 0 0.2725698 0.962136
vn 0 0.2725698 0.962136
vn 0 0.2725657 0.9621371
vn 0 0.2725657 0.9621371
vn 0 0.2725657 0.9621371
vn 0 0.2725657 0.9621371
vn 0 0.2725657 0.9621371
vn 0 0.2725657 0.9621371
vn 0 0.2725657 0.9621371
vn 0 0.2725657 0.9621371
g SM_Prop_Art_Standing_03_0
f 3/3/3 2/2/2 1/1/1
f 6/6/6 5/5/5 4/4/4
f 7/7/7 6/6/6 4/4/4
f 7/7/7 4/4/4 8/8/8
f 9/9/9 7/7/7 8/8/8
f 4/4/4 10/10/10 8/8/8
f 4/4/4 11/11/11 10/10/10
f 12/12/12 9/9/9 8/8/8
f 12/12/12 8/8/8 13/13/13
f 8/8/8 14/14/14 13/13/13
f 12/12/12 15/15/15 9/9/9
f 15/15/15 16/16/16 9/9/9
f 16/16/16 17/17/17 9/9/9
f 20/20/20 19/19/19 18/18/18
f 20/20/20 18/18/18 21/21/21
f 21/21/21 22/22/22 20/20/20
f 23/23/23 20/20/20 22/22/22
f 24/24/24 23/23/23 22/22/22
f 24/24/24 25/25/25 23/23/23
f 26/26/26 25/25/25 24/24/24
f 26/26/26 24/24/24 27/27/27
f 28/28/28 26/26/26 27/27/27
f 29/29/29 28/28/28 27/27/27
f 29/29/29 27/27/27 30/30/30
f 31/31/31 29/29/29 30/30/30
f 34/34/34 33/33/33 32/32/32
f 35/35/35 34/34/34 32/32/32
f 35/35/35 32/32/32 36/36/36
f 37/37/37 35/35/35 36/36/36
f 39/39/39 38/38/38 34/34/34
f 34/34/34 38/38/38 40/40/40
f 41/41/41 34/34/34 40/40/40
f 40/40/40 42/42/42 41/41/41
f 40/40/40 43/43/43 42/42/42
f 43/43/43 44/44/44 42/42/42
f 43/43/43 45/45/45 44/44/44
f 43/43/43 46/46/46 45/45/45
f 49/49/49 48/48/48 47/47/47
f 50/50/50 49/49/49 47/47/47
f 53/53/53 52/52/52 51/51/51
f 52/52/52 54/54/54 51/51/51
f 54/54/54 55/55/55 51/51/51
f 55/55/55 56/56/56 51/51/51
f 55/55/55 57/57/57 56/56/56
f 57/57/57 58/58/58 56/56/56
f 58/58/58 59/59/59 56/56/56
f 58/58/58 60/60/60 59/59/59
f 61/61/61 55/55/55 54/54/54
f 62/62/62 61/61/61 54/54/54
f 54/54/54 63/63/63 62/62/62
f 55/55/55 61/61/61 64/64/64
f 65/65/65 55/55/55 64/64/64
f 65/65/65 64/64/64 66/66/66
f 64/64/64 67/67/67 66/66/66
f 68/68/68 65/65/65 66/66/66
f 68/68/68 66/66/66 69/69/69
f 70/70/70 68/68/68 69/69/69
f 70/70/70 69/69/69 71/71/71
f 70/70/70 71/71/71 72/72/72
f 72/72/72 73/73/73 70/70/70
f 76/76/76 75/75/75 74/74/74
f 77/77/77 76/76/76 74/74/74
f 77/77/77 74/74/74 78/78/78
f 81/81/81 80/80/80 79/79/79
f 82/82/82 81/81/81 79/79/79
f 85/85/85 84/84/84 83/83/83
f 86/86/86 85/85/85 83/83/83
f 86/86/86 83/83/83 87/87/87
f 83/83/83 88/88/88 87/87/87
f 86/86/86 87/87/87 89/89/89
f 90/90/90 86/86/86 89/89/89
f 91/91/91 90/90/90 89/89/89
f 91/91/91 89/89/89 92/92/92
f 95/95/95 94/94/94 93/93/93
f 93/93/93 96/96/96 95/95/95
f 96/96/96 97/97/97 95/95/95
f 100/100/100 99/99/99 98/98/98
f 101/101/101 100/100/100 98/98/98
f 101/101/101 98/98/98 102/102/102
f 98/98/98 103/103/103 102/102/102
f 106/106/106 105/105/105 104/104/104
f 107/107/107 106/106/106 104/104/104
f 107/107/107 104/104/104 108/108/108
f 104/104/104 109/109/109 108/108/108
f 112/112/112 111/111/111 110/110/110
f 112/112/112 110/110/110 113/113/113
f 114/114/114 112/112/112 113/113/113
f 114/114/114 113/113/113 115/115/115
f 114/114/114 115/115/115 116/116/116
f 115/115/115 117/117/117 116/116/116
f 120/120/120 119/119/119 118/118/118
f 121/121/121 120/120/120 118/118/118
f 122/122/122 121/121/121 118/118/118
f 125/125/125 124/124/124 123/123/123
f 126/126/126 125/125/125 123/123/123
f 129/129/129 128/128/128 127/127/127
f 130/130/130 129/129/129 127/127/127
f 133/133/133 132/132/132 131/131/131
f 134/134/134 133/133/133 131/131/131
f 137/137/137 136/136/136 135/135/135
f 138/138/138 137/137/137 135/135/135
f 141/141/141 140/140/140 139/139/139
f 142/142/142 141/141/141 139/139/139
f 145/145/145 144/144/144 143/143/143
f 146/146/146 145/145/145 143/143/143
f 149/149/149 148/148/148 147/147/147
f 150/150/150 149/149/149 147/147/147
f 153/153/153 152/152/152 151/151/151
f 154/154/154 153/153/153 151/151/151
f 157/157/157 156/156/156 155/155/155
f 158/158/158 157/157/157 155/155/155
f 161/161/161 160/160/160 159/159/159
f 162/162/162 161/161/161 159/159/159
f 165/165/165 164/164/164 163/163/163
f 166/166/166 165/165/165 163/163/163
f 169/169/169 168/168/168 167/167/167
f 170/170/170 169/169/169 167/167/167
f 173/173/173 172/172/172 171/171/171
f 174/174/174 173/173/173 171/171/171
f 177/177/177 176/176/176 175/175/175
f 178/178/178 177/177/177 175/175/175
f 181/181/181 180/180/180 179/179/179
f 182/182/182 181/181/181 179/179/179
f 179/179/179 180/180/180 183/183/183
f 184/184/184 181/181/181 182/182/182
f 180/180/180 185/185/185 183/183/183
f 186/186/186 184/184/184 182/182/182
f 183/183/183 185/185/185 186/186/186
f 185/185/185 184/184/184 186/186/186
f 189/189/189 188/188/188 187/187/187
f 190/190/190 189/189/189 187/187/187
f 187/187/187 188/188/188 191/191/191
f 192/192/192 189/189/189 190/190/190
f 188/188/188 193/193/193 191/191/191
f 194/194/194 192/192/192 190/190/190
f 191/191/191 193/193/193 194/194/194
f 193/193/193 192/192/192 194/194/194
