g SM_Prop_Paper_Pile_03
v -0.1201373 0.3590058 -0.04891693
v -0.1213318 0.3664356 -0.04307281
v -0.1164233 0.3587609 -0.0299942
v 0.1126892 0.3594737 -0.07101104
v 0.1074127 0.3674185 -0.08475189
v 0.1086505 0.3594972 -0.08774353
v 0.1126892 0.3594737 -0.07101104
v 0.1086505 0.3594972 -0.08774353
v 0.1141144 0.351576 -0.07836486
v -0.1164233 0.3587609 -0.0299942
v -0.1147174 0.351576 -0.04239105
v -0.1201373 0.3590058 -0.04891693
v -0.1417474 0.3597967 0.1410184
v -0.1164233 0.3587609 -0.0299942
v 0.1126892 0.3594737 -0.07101104
v 0.07703125 0.3597967 0.1732614
v -0.1417474 0.351576 0.1410184
v 0.07703125 0.351576 0.1732614
v 0.1141144 0.351576 -0.07836486
v -0.1147174 0.351576 -0.04239105
v -0.1417474 0.351576 0.1410184
v -0.1417474 0.3597967 0.1410184
v 0.07703125 0.3597967 0.1732614
v 0.07703125 0.351576 0.1732614
v 0.07703125 0.351576 0.1732614
v 0.07703125 0.3597967 0.1732614
v 0.1126892 0.3594737 -0.07101104
v 0.1141144 0.351576 -0.07836486
v 0.1416357 0.3682494 -0.02299316
v 0.1417474 0.3600303 -0.02278564
v -0.05292968 0.3600303 0.0821164
v -0.05304138 0.3682494 0.08190826
v -0.05304138 0.3682494 0.08190826
v -0.05292968 0.3600303 0.0821164
v -0.1164233 0.3587609 -0.0299942
v -0.1213318 0.3664356 -0.04307281
v -0.1164233 0.3587609 -0.0299942
v -0.05292968 0.3600303 0.0821164
v 0.1417474 0.3600303 -0.02278564
v 0.1126892 0.3594737 -0.07101104
v 0.1074127 0.3674185 -0.08475189
v 0.1416357 0.3682494 -0.02299316
v -0.05304138 0.3682494 0.08190826
v -0.1213318 0.3664356 -0.04307281
v 0.1126892 0.3594737 -0.07101104
v 0.1417474 0.3600303 -0.02278564
v 0.1416357 0.3682494 -0.02299316
v 0.1074127 0.3674185 -0.08475189
v 0.1086505 0.3594972 -0.08774353
v 0.1074127 0.3674185 -0.08475189
v -0.1213318 0.3664356 -0.04307281
v -0.1201373 0.3590058 -0.04891693
v -0.1164233 0.3587609 -0.0299942
v -0.1417474 0.3597967 0.1410184
v -0.1417474 0.351576 0.1410184
v -0.1147174 0.351576 -0.04239105
v 0.1141144 0.351576 -0.07836486
v 0.1086505 0.3594972 -0.08774353
v -0.1201373 0.3590058 -0.04891693
v -0.1147174 0.351576 -0.04239105
v -0.1185364 0.1754956 0.1690671
v -0.1187604 0.2632433 0.162341
v 0.09632263 0.2632433 0.1666556
v 0.102605 0.1754956 0.1690671
v 0.102605 0.1754956 0.1690671
v 0.09632263 0.2632433 0.1666556
v 0.102829 0.2632433 -0.157688
v 0.102605 0.1754956 -0.1644141
v 0.102605 0.1754956 -0.1644141
v 0.102829 0.2632433 -0.157688
v -0.112254 0.2632433 -0.1620026
v -0.1185364 0.1754956 -0.1644141
v -0.1185364 0.1754956 -0.1644141
v -0.112254 0.2632433 -0.1620026
v -0.1187604 0.2632433 0.162341
v -0.1185364 0.1754956 0.1690671
v -0.1159003 0.2034092 0.1496588
v -0.1057001 0.2034092 -0.1836664
v 0.1153375 0.2034092 -0.1769025
v 0.1051373 0.2034092 0.1564227
v -0.1159003 0.195356 0.1496588
v 0.1051373 0.195356 0.1564227
v 0.1153375 0.195356 -0.1769025
v -0.1057001 0.195356 -0.1836664
v -0.1159003 0.195356 0.1496588
v -0.1159003 0.2034092 0.1496588
v 0.1051373 0.2034092 0.1564227
v 0.1051373 0.195356 0.1564227
v 0.1051373 0.195356 0.1564227
v 0.1051373 0.2034092 0.1564227
v 0.1153375 0.2034092 -0.1769025
v 0.1153375 0.195356 -0.1769025
v 0.1153375 0.195356 -0.1769025
v 0.1153375 0.2034092 -0.1769025
v -0.1057001 0.2034092 -0.1836664
v -0.1057001 0.195356 -0.1836664
v -0.1057001 0.195356 -0.1836664
v -0.1057001 0.2034092 -0.1836664
v -0.1159003 0.2034092 0.1496588
v -0.1159003 0.195356 0.1496588
v -0.1392584 0.296529 0.1532922
v -0.09594177 0.296529 -0.1773636
v 0.1233264 0.296529 -0.1486392
v 0.08001038 0.296529 0.1820166
v -0.1392584 0.2857122 0.1532922
v 0.08001038 0.2857122 0.1820166
v 0.1233264 0.2857122 -0.1486392
v -0.09594177 0.2857122 -0.1773636
v -0.1392584 0.2857122 0.1532922
v -0.1392584 0.296529 0.1532922
v 0.08001038 0.296529 0.1820166
v 0.08001038 0.2857122 0.1820166
v 0.08001038 0.2857122 0.1820166
v 0.08001038 0.296529 0.1820166
v 0.1233264 0.296529 -0.1486392
v 0.1233264 0.2857122 -0.1486392
v 0.1233264 0.2857122 -0.1486392
v 0.1233264 0.296529 -0.1486392
v -0.09594177 0.296529 -0.1773636
v -0.09594177 0.2857122 -0.1773636
v -0.09594177 0.2857122 -0.1773636
v -0.09594177 0.296529 -0.1773636
v -0.1392584 0.296529 0.1532922
v -0.1392584 0.2857122 0.1532922
v -0.1185364 0.3509911 0.1690671
v -0.1185364 0.3509911 -0.1644141
v 0.102605 0.3509911 -0.1644141
v 0.102605 0.3509911 0.1690671
v -0.1187604 0.2632433 0.162341
v -0.1185364 0.3509911 0.1690671
v 0.102605 0.3509911 0.1690671
v 0.09632263 0.2632433 0.1666556
v 0.09632263 0.2632433 0.1666556
v 0.102605 0.3509911 0.1690671
v 0.102605 0.3509911 -0.1644141
v 0.102829 0.2632433 -0.157688
v 0.102829 0.2632433 -0.157688
v 0.102605 0.3509911 -0.1644141
v -0.1185364 0.3509911 -0.1644141
v -0.112254 0.2632433 -0.1620026
v -0.112254 0.2632433 -0.1620026
v -0.1185364 0.3509911 -0.1644141
v -0.1185364 0.3509911 0.1690671
v -0.1187604 0.2632433 0.162341
v -0.1185364 0 0.1690671
v 0.102605 0 0.1690671
v 0.102605 1.501226E-16 -0.1644141
v -0.1185364 1.501226E-16 -0.1644141
v -0.1185364 0 0.1690671
v -0.1098706 0.08774778 0.1681439
v 0.1051269 0.08774778 0.1607251
v 0.102605 0 0.1690671
v 0.102605 0 0.1690671
v 0.1051269 0.08774778 0.1607251
v 0.09393921 0.08774778 -0.1634909
v 0.102605 1.501226E-16 -0.1644141
v 0.102605 1.501226E-16 -0.1644141
v 0.09393921 0.08774778 -0.1634909
v -0.1210583 0.08774778 -0.1560721
v -0.1185364 1.501226E-16 -0.1644141
v -0.1185364 1.501226E-16 -0.1644141
v -0.1210583 0.08774778 -0.1560721
v -0.1098706 0.08774778 0.1681439
v -0.1185364 0 0.1690671
v -0.1339374 0.06513242 0.1755362
v -0.1206567 0.06513242 -0.15768
v 0.1003088 0.06513242 -0.1488733
v 0.0870282 0.06513242 0.184343
v -0.1339374 0.05335466 0.1755362
v 0.0870282 0.05335466 0.184343
v 0.1003088 0.05335466 -0.1488733
v -0.1206567 0.05335466 -0.15768
v -0.1339374 0.05335466 0.1755362
v -0.1339374 0.06513242 0.1755362
v 0.0870282 0.06513242 0.184343
v 0.0870282 0.05335466 0.184343
v 0.0870282 0.05335466 0.184343
v 0.0870282 0.06513242 0.184343
v 0.1003088 0.06513242 -0.1488733
v 0.1003088 0.05335466 -0.1488733
v 0.1003088 0.05335466 -0.1488733
v 0.1003088 0.06513242 -0.1488733
v -0.1206567 0.06513242 -0.15768
v -0.1206567 0.05335466 -0.15768
v -0.1206567 0.05335466 -0.15768
v -0.1206567 0.06513242 -0.15768
v -0.1339374 0.06513242 0.1755362
v -0.1339374 0.05335466 0.1755362
v -0.09769958 0.122273 0.1811945
v -0.134046 0.122273 -0.1520935
v 0.08696655 0.122273 -0.176196
v 0.1233136 0.122273 0.157092
v -0.09769958 0.1106269 0.1811945
v 0.1233136 0.1106269 0.157092
v 0.08696655 0.1106269 -0.176196
v -0.134046 0.1106269 -0.1520935
v -0.09769958 0.1106269 0.1811945
v -0.09769958 0.122273 0.1811945
v 0.1233136 0.122273 0.157092
v 0.1233136 0.1106269 0.157092
v 0.1233136 0.1106269 0.157092
v 0.1233136 0.122273 0.157092
v 0.08696655 0.122273 -0.176196
v 0.08696655 0.1106269 -0.176196
v 0.08696655 0.1106269 -0.176196
v 0.08696655 0.122273 -0.176196
v -0.134046 0.122273 -0.1520935
v -0.134046 0.1106269 -0.1520935
v -0.134046 0.1106269 -0.1520935
v -0.134046 0.122273 -0.1520935
v -0.09769958 0.122273 0.1811945
v -0.09769958 0.1106269 0.1811945
v -0.1098706 0.08774778 0.1681439
v -0.1185364 0.1754956 0.1690671
v 0.102605 0.1754956 0.1690671
v 0.1051269 0.08774778 0.1607251
v 0.1051269 0.08774778 0.1607251
v 0.102605 0.1754956 0.1690671
v 0.102605 0.1754956 -0.1644141
v 0.09393921 0.08774778 -0.1634909
v 0.09393921 0.08774778 -0.1634909
v 0.102605 0.1754956 -0.1644141
v -0.1185364 0.1754956 -0.1644141
v -0.1210583 0.08774778 -0.1560721
v -0.1210583 0.08774778 -0.1560721
v -0.1185364 0.1754956 -0.1644141
v -0.1185364 0.1754956 0.1690671
v -0.1098706 0.08774778 0.1681439
vt 0.3898357 0.3433375
vt 0.3898357 0.3447284
vt 0.3898357 0.3435572
vt 0.4157217 0.3500891
vt 0.4157217 0.351557
vt 0.4157217 0.3502888
vt 0.4157217 0.3500891
vt 0.4157217 0.3502888
vt 0.4157217 0.3490205
vt 0.3898357 0.3435572
vt 0.3898357 0.3419466
vt 0.3898357 0.3433375
vt 0.3898357 0.3256277
vt 0.3898357 0.3435572
vt 0.4157217 0.3500891
vt 0.4157217 0.3256277
vt 0.3898357 0.3256277
vt 0.4157217 0.3256277
vt 0.4157217 0.3490205
vt 0.3898357 0.3419466
vt 0.3898357 0.3256277
vt 0.3898357 0.3256277
vt 0.4157217 0.3256277
vt 0.4157217 0.3256277
vt 0.4157217 0.3256277
vt 0.4157217 0.3256277
vt 0.4157217 0.3500891
vt 0.4157217 0.3490205
vt 0.4157217 0.3573295
vt 0.4157217 0.3573295
vt 0.3898357 0.3573295
vt 0.3898357 0.3573295
vt 0.3898357 0.3573295
vt 0.3898357 0.3573295
vt 0.3898357 0.3435572
vt 0.3898357 0.3447284
vt 0.3898357 0.3435572
vt 0.3898357 0.3573295
vt 0.4157217 0.3573295
vt 0.4157217 0.3500891
vt 0.4157217 0.351557
vt 0.4157217 0.3573295
vt 0.3898357 0.3573295
vt 0.3898357 0.3447284
vt 0.4157217 0.3500891
vt 0.4157217 0.3573295
vt 0.4157217 0.3573295
vt 0.4157217 0.351557
vt 0.4157217 0.3502888
vt 0.4157217 0.351557
vt 0.3898357 0.3447284
vt 0.3898357 0.3433375
vt 0.3898357 0.3435572
vt 0.3898357 0.3256277
vt 0.3898357 0.3256277
vt 0.3898357 0.3419466
vt 0.4157217 0.3490205
vt 0.4157217 0.3502888
vt 0.3898357 0.3433375
vt 0.3898357 0.3419466
vt 0.3948176 0.3629146
vt 0.3948176 0.3838632
vt 0.4105859 0.3838632
vt 0.4105859 0.3629146
vt 0.4105859 0.3629146
vt 0.4105859 0.3838632
vt 0.4105859 0.3838632
vt 0.4105859 0.3629238
vt 0.4105859 0.3629238
vt 0.4105859 0.3838632
vt 0.3948176 0.3838632
vt 0.3948176 0.3629146
vt 0.3948176 0.3629146
vt 0.3948176 0.3838632
vt 0.3948176 0.3838632
vt 0.3948176 0.3629146
vt 0.3821776 0.3621581
vt 0.3829583 0.36202
vt 0.3826535 0.3618904
vt 0.3819582 0.3619901
vt 0.3821788 0.3622426
vt 0.3819603 0.3620621
vt 0.3826525 0.3619548
vt 0.3829556 0.3620943
vt 0.3821788 0.3622426
vt 0.3821776 0.3621581
vt 0.3819582 0.3619901
vt 0.3819603 0.3620621
vt 0.3819603 0.3620621
vt 0.3819582 0.3619901
vt 0.3826535 0.3618904
vt 0.3826525 0.3619548
vt 0.3826525 0.3619548
vt 0.3826535 0.3618904
vt 0.3829583 0.36202
vt 0.3829556 0.3620943
vt 0.3829556 0.3620943
vt 0.3829583 0.36202
vt 0.3821776 0.3621581
vt 0.3821788 0.3622426
vt 0.3821776 0.3621581
vt 0.3829583 0.36202
vt 0.3826535 0.3618904
vt 0.3819582 0.3619901
vt 0.3821788 0.3622426
vt 0.3819603 0.3620621
vt 0.3826525 0.3619548
vt 0.3829556 0.3620943
vt 0.3821788 0.3622426
vt 0.3821776 0.3621581
vt 0.3819582 0.3619901
vt 0.3819603 0.3620621
vt 0.3819603 0.3620621
vt 0.3819582 0.3619901
vt 0.3826535 0.3618904
vt 0.3826525 0.3619548
vt 0.3826525 0.3619548
vt 0.3826535 0.3618904
vt 0.3829583 0.36202
vt 0.3829556 0.3620943
vt 0.3829556 0.3620943
vt 0.3829583 0.36202
vt 0.3821776 0.3621581
vt 0.3821788 0.3622426
vt 0.362897 0.3257631
vt 0.362897 0.3574649
vt 0.388783 0.3574649
vt 0.388783 0.3257631
vt 0.3948176 0.3629637
vt 0.3948176 0.3847478
vt 0.4105859 0.3847478
vt 0.4105859 0.3629637
vt 0.4105859 0.3629637
vt 0.4105859 0.3847478
vt 0.4105859 0.3838632
vt 0.4105859 0.3629637
vt 0.4105859 0.3629637
vt 0.4105859 0.3838632
vt 0.3948176 0.3847478
vt 0.3948176 0.3629637
vt 0.3948176 0.3629637
vt 0.3948176 0.3847478
vt 0.3948176 0.3847478
vt 0.3948176 0.3629637
vt 0.362897 0.3586581
vt 0.388783 0.3586581
vt 0.388783 0.3903599
vt 0.362897 0.3903599
vt 0.3948176 0.3620791
vt 0.3948176 0.3838632
vt 0.4105859 0.3838632
vt 0.4105859 0.3620791
vt 0.4105859 0.3620791
vt 0.4105859 0.3838632
vt 0.4105859 0.3838632
vt 0.4105859 0.3620791
vt 0.4105859 0.3620791
vt 0.4105859 0.3838632
vt 0.3948176 0.3838632
vt 0.3948176 0.3620791
vt 0.3948176 0.3620791
vt 0.3948176 0.3838632
vt 0.3948176 0.3838632
vt 0.3948176 0.3620791
vt 0.3821776 0.3621581
vt 0.3829583 0.36202
vt 0.3826535 0.3618904
vt 0.3819582 0.3619901
vt 0.3821788 0.3622426
vt 0.3819603 0.3620621
vt 0.3826525 0.3619548
vt 0.3829556 0.3620943
vt 0.3821788 0.3622426
vt 0.3821776 0.3621581
vt 0.3819582 0.3619901
vt 0.3819603 0.3620621
vt 0.3819603 0.3620621
vt 0.3819582 0.3619901
vt 0.3826535 0.3618904
vt 0.3826525 0.3619548
vt 0.3826525 0.3619548
vt 0.3826535 0.3618904
vt 0.3829583 0.36202
vt 0.3829556 0.3620943
vt 0.3829556 0.3620943
vt 0.3829583 0.36202
vt 0.3821776 0.3621581
vt 0.3821788 0.3622426
vt 0.3821776 0.3621581
vt 0.3829583 0.36202
vt 0.3826535 0.3618904
vt 0.3819582 0.3619901
vt 0.3821788 0.3622426
vt 0.3819603 0.3620621
vt 0.3826525 0.3619548
vt 0.3829556 0.3620943
vt 0.3821788 0.3622426
vt 0.3821776 0.3621581
vt 0.3819582 0.3619901
vt 0.3819603 0.3620621
vt 0.3819603 0.3620621
vt 0.3819582 0.3619901
vt 0.3826535 0.3618904
vt 0.3826525 0.3619548
vt 0.3826525 0.3619548
vt 0.3826535 0.3618904
vt 0.3829583 0.36202
vt 0.3829556 0.3620943
vt 0.3829556 0.3620943
vt 0.3829583 0.36202
vt 0.3821776 0.3621581
vt 0.3821788 0.3622426
vt 0.3948176 0.3629637
vt 0.3948176 0.3839123
vt 0.4105859 0.3839123
vt 0.4105859 0.3629637
vt 0.4105859 0.3629637
vt 0.4105859 0.3839123
vt 0.4105859 0.3840467
vt 0.4105859 0.3629637
vt 0.4105859 0.3629637
vt 0.4105859 0.3840467
vt 0.3948176 0.3839123
vt 0.3948176 0.3629637
vt 0.3948176 0.3629637
vt 0.3948176 0.3839123
vt 0.3948176 0.3839123
vt 0.3948176 0.3629637
vn -0.9389442 -0.2929244 0.1804967
vn -0.9389442 -0.2929244 0.1804967
vn -0.9389442 -0.2929244 0.1804967
vn 0.9452306 0.2337461 -0.2278197
vn 0.9452306 0.2337461 -0.2278197
vn 0.9452306 0.2337461 -0.2278197
vn 0.9047111 0.3661118 -0.217853
vn 0.9047112 0.3661118 -0.217853
vn 0.9047111 0.3661118 -0.217853
vn -0.8596307 -0.4844013 0.1624516
vn -0.8596306 -0.4844014 0.1624516
vn -0.8596306 -0.4844014 0.1624516
vn -0.001660265 0.9999925 -0.003515825
vn -0.001660265 0.9999925 -0.003515825
vn -0.001660265 0.9999925 -0.003515825
vn -0.001660265 0.9999925 -0.003515825
vn 0 -1 0
vn 0 -1 0
vn 0 -1 0
vn 0 -1 0
vn -0.1458025 0 0.9893137
vn -0.1458025 0 0.9893137
vn -0.1458025 0 0.9893137
vn -0.1458025 0 0.9893137
vn 0.9891905 0.02126974 0.1450859
vn 0.9891905 0.02126975 0.1450859
vn 0.9891905 0.02126975 0.1450859
vn 0.9891905 0.02126975 0.1450859
vn 0.4741695 0.02869477 0.879966
vn 0.4741695 0.02869477 0.8799658
vn 0.4741694 0.02869478 0.8799658
vn 0.4741695 0.02869477 0.879966
vn -0.8675997 0.1277163 0.4805822
vn -0.8675997 0.1277163 0.4805822
vn -0.8675997 0.1277163 0.4805821
vn -0.8675997 0.1277163 0.4805822
vn 0.004673942 -0.9999514 0.00868994
vn 0.004673942 -0.9999514 0.008689941
vn 0.004673942 -0.9999514 0.008689941
vn 0.004673942 -0.9999514 0.00868994
vn -0.006069785 0.999923 -0.01082885
vn -0.006069785 0.999923 -0.01082885
vn -0.006069786 0.999923 -0.01082885
vn -0.006069785 0.999923 -0.01082885
vn 0.8591502 -0.1386667 -0.4925774
vn 0.8591502 -0.1386667 -0.4925774
vn 0.8591502 -0.1386667 -0.4925774
vn 0.8591502 -0.1386668 -0.4925775
vn -0.1540303 0.4744512 -0.8667011
vn -0.1540303 0.4744512 -0.8667011
vn -0.1540303 0.4744512 -0.8667011
vn -0.1540303 0.4744512 -0.8667011
vn -0.9892296 0.00806418 -0.1461495
vn -0.9892296 0.00806418 -0.1461495
vn -0.9892296 0.008064179 -0.1461495
vn -0.9892296 0.00806418 -0.1461495
vn -0.1057913 -0.750672 -0.6521501
vn -0.1057913 -0.750672 -0.65215
vn -0.1057913 -0.750672 -0.65215
vn -0.1057913 -0.750672 -0.65215
vn -0.009877049 0.05162908 0.9986175
vn -0.009877049 0.05162909 0.9986175
vn -0.009877049 0.05162908 0.9986175
vn -0.009877049 0.05162909 0.9986175
vn 0.9999944 0.000762425 -0.003258595
vn 0.9999511 0 0.009890217
vn 0.9999511 0 0.009890218
vn 0.9999924 -0.0007432781 -0.003849323
vn 0.009877051 0.05162909 -0.9986175
vn 0.009877051 0.05162909 -0.9986175
vn 0.009877052 0.05162909 -0.9986175
vn 0.009877051 0.05162909 -0.9986175
vn -0.9999944 0.0007624206 0.003258598
vn -0.9999511 0 -0.009890217
vn -0.9999511 0 -0.009890218
vn -0.9999924 -0.0007432846 0.003849326
vn 0 1 0
vn 0 1 0
vn 0 1 0
vn 0 1 0
vn 0 -1 0
vn 0 -1 0
vn 0 -1 0
vn 0 -1 0
vn -0.03058643 0 0.9995321
vn -0.03058643 0 0.9995321
vn -0.03058643 0 0.9995321
vn -0.03058643 0 0.9995321
vn 0.9995321 0 0.03058702
vn 0.9995321 0 0.03058702
vn 0.9995321 0 0.03058702
vn 0.9995321 0 0.03058702
vn 0.03058643 0 -0.9995321
vn 0.03058643 0 -0.9995321
vn 0.03058643 0 -0.9995321
vn 0.03058643 0 -0.9995321
vn -0.9995321 0 -0.03058702
vn -0.9995321 0 -0.03058702
vn -0.9995321 0 -0.03058702
vn -0.9995321 0 -0.03058702
vn 0 1 0
vn 0 1 0
vn 0 1 0
vn 0 1 0
vn 0 -1 0
vn 0 -1 0
vn 0 -1 0
vn 0 -1 0
vn -0.1298909 0 0.9915283
vn -0.1298909 0 0.9915283
vn -0.1298909 0 0.9915283
vn -0.1298909 0 0.9915283
vn 0.9915283 0 0.1298906
vn 0.9915283 0 0.1298906
vn 0.9915283 0 0.1298906
vn 0.9915283 0 0.1298906
vn 0.1298913 0 -0.9915283
vn 0.1298913 0 -0.9915283
vn 0.1298913 0 -0.9915283
vn 0.1298913 0 -0.9915283
vn -0.991528 0 -0.1298924
vn -0.991528 0 -0.1298924
vn -0.991528 0 -0.1298924
vn -0.991528 0 -0.1298924
vn 0 1 0
vn 0 1 0
vn 0 1 0
vn 0 1 0
vn -0.00987705 -0.05162909 0.9986175
vn -0.00987705 -0.05162909 0.9986175
vn -0.009877051 -0.05162909 0.9986175
vn -0.00987705 -0.05162909 0.9986175
vn 0.9999511 0 0.009890217
vn 0.9993642 -0.03425644 0.009884416
vn 0.9993642 -0.03425643 0.009884414
vn 0.9999511 0 0.009890218
vn 0.009877051 -0.05162909 -0.9986175
vn 0.009877051 -0.05162909 -0.9986175
vn 0.009877051 -0.05162909 -0.9986175
vn 0.009877052 -0.05162909 -0.9986175
vn -0.9999511 0 -0.009890217
vn -0.9993642 -0.03425644 -0.009884414
vn -0.9993642 -0.03425644 -0.009884414
vn -0.9999511 0 -0.009890218
vn 0 -1 0
vn 0 -1 0
vn 0 -1 0
vn 0 -1 0
vn 0.01698508 0.0516333 0.9985216
vn 0.01698508 0.0516333 0.9985216
vn 0.01698508 0.0516333 0.9985216
vn 0.01698508 0.0516333 0.9985216
vn 0.9992682 0.0342641 -0.01699803
vn 0.9998554 0 -0.01700802
vn 0.9998554 0 -0.01700802
vn 0.9992682 0.0342641 -0.01699803
vn -0.01698508 0.0516333 -0.9985216
vn -0.01698508 0.0516333 -0.9985216
vn -0.01698508 0.05163329 -0.9985216
vn -0.01698508 0.0516333 -0.9985216
vn -0.9992682 0.0342641 0.01699804
vn -0.9998554 0 0.01700802
vn -0.9998554 0 0.01700802
vn -0.9992682 0.0342641 0.01699804
vn 0 1 0
vn 0 1 0
vn 0 1 0
vn 0 1 0
vn 0 -1 0
vn 0 -1 0
vn 0 -1 0
vn 0 -1 0
vn -0.0398242 0 0.9992067
vn -0.0398242 0 0.9992067
vn -0.0398242 0 0.9992067
vn -0.0398242 0 0.9992067
vn 0.9992067 0 0.0398243
vn 0.9992067 0 0.0398243
vn 0.9992067 0 0.0398243
vn 0.9992067 0 0.0398243
vn 0.0398242 0 -0.9992067
vn 0.0398242 0 -0.9992067
vn 0.0398242 0 -0.9992067
vn 0.0398242 0 -0.9992067
vn -0.9992067 0 -0.0398243
vn -0.9992067 0 -0.0398243
vn -0.9992067 0 -0.0398243
vn -0.9992067 0 -0.0398243
vn 0 1 0
vn 0 1 0
vn 0 1 0
vn 0 1 0
vn 0 -1 0
vn 0 -1 0
vn 0 -1 0
vn 0 -1 0
vn 0.1084117 0 0.9941061
vn 0.1084117 0 0.9941061
vn 0.1084117 0 0.9941061
vn 0.1084117 0 0.9941061
vn 0.9941059 0 -0.1084132
vn 0.9941059 0 -0.1084132
vn 0.9941059 0 -0.1084132
vn 0.9941059 0 -0.1084132
vn -0.108412 0 -0.9941061
vn -0.108412 0 -0.9941061
vn -0.108412 0 -0.9941061
vn -0.108412 0 -0.9941061
vn -0.9941061 0 0.1084114
vn -0.9941061 0 0.1084114
vn -0.9941061 0 0.1084114
vn -0.9941061 0 0.1084114
vn 0.01698508 -0.0516333 0.9985216
vn 0.01698508 -0.0516333 0.9985216
vn 0.01698508 -0.0516333 0.9985216
vn 0.01698508 -0.0516333 0.9985216
vn 0.9998554 0 -0.01700802
vn 0.9999944 0.000762425 -0.003258595
vn 0.9999924 -0.0007432781 -0.003849323
vn 0.9998554 0 -0.01700802
vn -0.01698508 -0.05163329 -0.9985216
vn -0.01698508 -0.05163329 -0.9985216
vn -0.01698508 -0.05163329 -0.9985216
vn -0.01698508 -0.05163329 -0.9985216
vn -0.9998554 0 0.01700802
vn -0.9999944 0.0007624206 0.003258598
vn -0.9999924 -0.0007432846 0.003849326
vn -0.9998554 0 0.01700802
g SM_Prop_Paper_Pile_03_0
f 3/3/3 2/2/2 1/1/1
f 6/6/6 5/5/5 4/4/4
f 9/9/9 8/8/8 7/7/7
f 12/12/12 11/11/11 10/10/10
f 15/15/15 14/14/14 13/13/13
f 16/16/16 15/15/15 13/13/13
f 19/19/19 18/18/18 17/17/17
f 20/20/20 19/19/19 17/17/17
f 23/23/23 22/22/22 21/21/21
f 24/24/24 23/23/23 21/21/21
f 27/27/27 26/26/26 25/25/25
f 28/28/28 27/27/27 25/25/25
f 31/31/31 30/30/30 29/29/29
f 32/32/32 31/31/31 29/29/29
f 35/35/35 34/34/34 33/33/33
f 36/36/36 35/35/35 33/33/33
f 39/39/39 38/38/38 37/37/37
f 40/40/40 39/39/39 37/37/37
f 43/43/43 42/42/42 41/41/41
f 44/44/44 43/43/43 41/41/41
f 47/47/47 46/46/46 45/45/45
f 48/48/48 47/47/47 45/45/45
f 51/51/51 50/50/50 49/49/49
f 52/52/52 51/51/51 49/49/49
f 55/55/55 54/54/54 53/53/53
f 56/56/56 55/55/55 53/53/53
f 59/59/59 58/58/58 57/57/57
f 60/60/60 59/59/59 57/57/57
f 63/63/63 62/62/62 61/61/61
f 64/64/64 63/63/63 61/61/61
f 67/67/67 66/66/66 65/65/65
f 68/68/68 67/67/67 65/65/65
f 71/71/71 70/70/70 69/69/69
f 72/72/72 71/71/71 69/69/69
f 75/75/75 74/74/74 73/73/73
f 76/76/76 75/75/75 73/73/73
f 79/79/79 78/78/78 77/77/77
f 80/80/80 79/79/79 77/77/77
f 83/83/83 82/82/82 81/81/81
f 84/84/84 83/83/83 81/81/81
f 87/87/87 86/86/86 85/85/85
f 88/88/88 87/87/87 85/85/85
f 91/91/91 90/90/90 89/89/89
f 92/92/92 91/91/91 89/89/89
f 95/95/95 94/94/94 93/93/93
f 96/96/96 95/95/95 93/93/93
f 99/99/99 98/98/98 97/97/97
f 100/100/100 99/99/99 97/97/97
f 103/103/103 102/102/102 101/101/101
f 104/104/104 103/103/103 101/101/101
f 107/107/107 106/106/106 105/105/105
f 108/108/108 107/107/107 105/105/105
f 111/111/111 110/110/110 109/109/109
f 112/112/112 111/111/111 109/109/109
f 115/115/115 114/114/114 113/113/113
f 116/116/116 115/115/115 113/113/113
f 119/119/119 118/118/118 117/117/117
f 120/120/120 119/119/119 117/117/117
f 123/123/123 122/122/122 121/121/121
f 124/124/124 123/123/123 121/121/121
f 127/127/127 126/126/126 125/125/125
f 128/128/128 127/127/127 125/125/125
f 131/131/131 130/130/130 129/129/129
f 132/132/132 131/131/131 129/129/129
f 135/135/135 134/134/134 133/133/133
f 136/136/136 135/135/135 133/133/133
f 139/139/139 138/138/138 137/137/137
f 140/140/140 139/139/139 137/137/137
f 143/143/143 142/142/142 141/141/141
f 144/144/144 143/143/143 141/141/141
f 147/147/147 146/146/146 145/145/145
f 148/148/148 147/147/147 145/145/145
f 151/151/151 150/150/150 149/149/149
f 152/152/152 151/151/151 149/149/149
f 155/155/155 154/154/154 153/153/153
f 156/156/156 155/155/155 153/153/153
f 159/159/159 158/158/158 157/157/157
f 160/160/160 159/159/159 157/157/157
f 163/163/163 162/162/162 161/161/161
f 164/164/164 163/163/163 161/161/161
f 167/167/167 166/166/166 165/165/165
f 168/168/168 167/167/167 165/165/165
f 171/171/171 170/170/170 169/169/169
f 172/172/172 171/171/171 169/169/169
f 175/175/175 174/174/174 173/173/173
f 176/176/176 175/175/175 173/173/173
f 179/179/179 178/178/178 177/177/177
f 180/180/180 179/179/179 177/177/177
f 183/183/183 182/182/182 181/181/181
f 184/184/184 183/183/183 181/181/181
f 187/187/187 186/186/186 185/185/185
f 188/188/188 187/187/187 185/185/185
f 191/191/191 190/190/190 189/189/189
f 192/192/192 191/191/191 189/189/189
f 195/195/195 194/194/194 193/193/193
f 196/196/196 195/195/195 193/193/193
f 199/199/199 198/198/198 197/197/197
f 200/200/200 199/199/199 197/197/197
f 203/203/203 202/202/202 201/201/201
f 204/204/204 203/203/203 201/201/201
f 207/207/207 206/206/206 205/205/205
f 208/208/208 207/207/207 205/205/205
f 211/211/211 210/210/210 209/209/209
f 212/212/212 211/211/211 209/209/209
f 215/215/215 214/214/214 213/213/213
f 216/216/216 215/215/215 213/213/213
f 219/219/219 218/218/218 217/217/217
f 220/220/220 219/219/219 217/217/217
f 223/223/223 222/222/222 221/221/221
f 224/224/224 223/223/223 221/221/221
f 227/227/227 226/226/226 225/225/225
f 228/228/228 227/227/227 225/225/225
