g SM_Prop_Laptop_02
v -0.2331475 0.02800892 0.1941906
v 0.2331475 0.02800892 0.1941906
v 0.2331475 0 0.1941906
v -0.2331475 0 0.1941906
v -0.2331498 0.3622829 -0.2473786
v 0.2331498 0.3622829 -0.2473786
v 0.2331498 0.3701904 -0.2222687
v -0.2331498 0.3701904 -0.2222687
v -0.2596479 0.02800892 -0.1478632
v -0.2596479 0.005017813 -0.142841
v 0.2596479 0.005017813 -0.142841
v 0.2596479 0.02800892 -0.1478632
v -0.2596479 0.005017813 -0.142841
v -0.2596479 9.950762E-18 -0.1215375
v 0.2596479 9.950762E-18 -0.1215375
v 0.2596479 0.005017813 -0.142841
v 0.2596479 9.950762E-18 -0.1215375
v 0.2596479 8.352038E-19 0.1676904
v 0.2596479 0.02800892 0.1676904
v 0.2596479 0.02800892 -0.1215375
v 0.2596479 0.005017813 -0.142841
v 0.2596479 0.02800892 -0.1478632
v 0.2596479 0.3368833 -0.239817
v 0.2596479 0.3447665 -0.2147844
v -0.2596479 8.352038E-19 0.1676904
v -0.2596479 0.02800892 -0.1215375
v -0.2596479 0.02800892 0.1676904
v -0.2596479 9.950762E-18 -0.1215375
v -0.2596479 0.005017813 -0.142841
v -0.2596479 0.02800892 -0.1478632
v -0.2596479 0.3447665 -0.2147844
v -0.2596479 0.3368833 -0.239817
v -0.2331448 0.02800892 0.1676878
v -0.2331448 0.02800892 -0.05190542
v 0.2331448 0.02800892 -0.05190542
v 0.2331448 0.02800892 0.1676878
v -0.2596479 8.352038E-19 0.1676904
v -0.2596479 0.02800892 0.1676904
v -0.2518861 0.02800892 0.1864289
v -0.2518861 2.446255E-19 0.1864289
v -0.2518861 2.446255E-19 0.1864289
v -0.2518861 0.02800892 0.1864289
v -0.2331475 0.02800892 0.1941906
v -0.2331475 0 0.1941906
v 0.2331475 0 0.1941906
v 0.2331475 0.02800892 0.1941906
v 0.2518861 0.02800892 0.1864289
v 0.2518861 2.446255E-19 0.1864289
v 0.2518861 2.446255E-19 0.1864289
v 0.2518861 0.02800892 0.1864289
v 0.2596479 0.02800892 0.1676904
v 0.2596479 8.352038E-19 0.1676904
v -0.2331475 0 0.1941906
v -0.2596479 8.352038E-19 0.1676904
v -0.2518861 2.446255E-19 0.1864289
v -0.2596479 9.950762E-18 -0.1215375
v 0.2596479 9.950762E-18 -0.1215375
v 0.2331475 0 0.1941906
v 0.2596479 8.352038E-19 0.1676904
v 0.2518861 2.446255E-19 0.1864289
v 0.2331498 0.3701904 -0.2222687
v 0.2331498 0.3622829 -0.2473786
v 0.2518868 0.3548435 -0.2451638
v 0.2518868 0.3627439 -0.2200766
v 0.2518868 0.3627439 -0.2200766
v 0.2518868 0.3548435 -0.2451638
v 0.2596479 0.3368833 -0.239817
v 0.2596479 0.3447665 -0.2147844
v -0.2596479 0.3447665 -0.2147844
v -0.2596479 0.3368833 -0.239817
v -0.2518868 0.3548435 -0.2451638
v -0.2518868 0.3627439 -0.2200766
v -0.2518868 0.3627439 -0.2200766
v -0.2518868 0.3548435 -0.2451638
v -0.2331498 0.3622829 -0.2473786
v -0.2331498 0.3701904 -0.2222687
v -0.2518868 0.3548435 -0.2451638
v -0.2596479 0.3368833 -0.239817
v -0.2596479 0.02800892 -0.1478632
v -0.2331498 0.3622829 -0.2473786
v -0.04058336 0.1737187 -0.1912421
v -0.04058336 0.2165735 -0.2039997
v 0 0.242362 -0.2116775
v 0.2596479 0.02800892 -0.1478632
v 0.2596479 0.3368833 -0.239817
v 0.2518868 0.3548435 -0.2451638
v 0.2331498 0.3622829 -0.2473786
v 0.04058336 0.2166207 -0.2040141
v 0.04058336 0.1736711 -0.1912277
v 0 0.1479298 -0.1835642
v -0.04058336 0.1737187 -0.1912421
v 0 0.1479298 -0.1835642
v 0 0.1917561 -0.1966116
v -0.04058336 0.2165735 -0.2039997
v 0 0.242362 -0.2116775
v 0.04058336 0.2166207 -0.2040141
v 0.2331498 0.3622829 -0.2473786
v -0.2331498 0.3622829 -0.2473786
v 0 0.1479298 -0.1835642
v -0.04058336 0.1737187 -0.1912421
v -0.2596479 0.02800892 -0.1478632
v 0.2596479 0.02800892 -0.1478632
v 0.04058336 0.1736711 -0.1912277
v 0.04058336 0.2166207 -0.2040141
v 0 0.1917561 -0.1966116
v 0 0.1479298 -0.1835642
v 0 0.242362 -0.2116775
v -0.04058336 0.2165735 -0.2039997
v 0 0.1917561 -0.1966116
v 0.04058336 0.2166207 -0.2040141
v 0.2596479 0.02800892 -0.1215375
v 0.2596479 0.02800892 0.1676904
v 0.2331448 0.02800892 0.1676878
v 0.2518861 0.02800892 0.1864289
v 0.2331475 0.02800892 0.1941906
v 0.2331448 0.02800892 -0.05190542
v -0.2596479 0.02800892 -0.1215375
v -0.2331448 0.02800892 -0.05190542
v -0.2596479 0.02800892 0.1676904
v -0.2331448 0.02800892 0.1676878
v -0.2331475 0.02800892 0.1941906
v -0.2518861 0.02800892 0.1864289
v -0.2596479 0.02800892 -0.1215375
v -0.2331448 0.05343303 -0.1290218
v 0.2331448 0.05343303 -0.1290218
v -0.2331448 0.3447663 -0.2147844
v 0.2596479 0.02800892 -0.1215375
v -0.2596479 0.3447665 -0.2147844
v -0.2518868 0.3627439 -0.2200766
v -0.2331498 0.3701904 -0.2222687
v 0.2331448 0.3447663 -0.2147844
v 0.2596479 0.3447665 -0.2147844
v 0.2331498 0.3701904 -0.2222687
v 0.2518868 0.3627439 -0.2200766
v -0.2331448 0.05343303 -0.1290218
v -0.2331448 0.3447663 -0.2147844
v 0.2331448 0.3447663 -0.2147844
v 0.2331448 0.05343303 -0.1290218
vt 0.4937313 0.3889219
vt 0.4929537 0.3888656
vt 0.4929587 0.3888949
vt 0.4937266 0.3889511
vt 0.4937743 0.3879941
vt 0.4930542 0.3879533
vt 0.4930441 0.3879656
vt 0.493775 0.388001
vt 0.4937575 0.3884881
vt 0.4937564 0.388514
vt 0.4930297 0.3884691
vt 0.4930263 0.3884372
vt 0.4937564 0.388514
vt 0.4937563 0.3885398
vt 0.4930248 0.3884941
vt 0.4930297 0.3884691
vt 0.4930248 0.3884941
vt 0.4929243 0.3888583
vt 0.4929188 0.388829
vt 0.4930213 0.3884648
vt 0.4930297 0.3884691
vt 0.4930263 0.3884372
vt 0.4930124 0.3879912
vt 0.4930039 0.3880008
vt 0.493769 0.3889195
vt 0.4937607 0.3885105
vt 0.4937743 0.3888903
vt 0.4937563 0.3885398
vt 0.4937564 0.388514
vt 0.4937575 0.3884881
vt 0.4938124 0.3880407
vt 0.4938093 0.3880303
vt 0.4206156 0.3605408
vt 0.4206155 0.3890762
vt 0.4812081 0.3890762
vt 0.4812081 0.3605408
vt 0.493769 0.3889195
vt 0.4937743 0.3888903
vt 0.4937755 0.3889251
vt 0.4937702 0.3889543
vt 0.4937702 0.3889543
vt 0.4937755 0.3889251
vt 0.4937313 0.3889219
vt 0.4937266 0.3889511
vt 0.4929587 0.3888949
vt 0.4929537 0.3888656
vt 0.4929095 0.3888624
vt 0.492915 0.3888917
vt 0.492915 0.3888917
vt 0.4929095 0.3888624
vt 0.4929188 0.388829
vt 0.4929243 0.3888583
vt 0.4937266 0.3889511
vt 0.493769 0.3889195
vt 0.4937702 0.3889543
vt 0.4937563 0.3885398
vt 0.4930248 0.3884941
vt 0.4929587 0.3888949
vt 0.4929243 0.3888583
vt 0.492915 0.3888917
vt 0.4930441 0.3879656
vt 0.4930542 0.3879533
vt 0.4930111 0.3879542
vt 0.4930025 0.3879636
vt 0.4930025 0.3879636
vt 0.4930111 0.3879542
vt 0.4930124 0.3879912
vt 0.4930039 0.3880008
vt 0.4938124 0.3880407
vt 0.4938093 0.3880303
vt 0.4938134 0.3879929
vt 0.4938165 0.388003
vt 0.4938165 0.388003
vt 0.4938134 0.3879929
vt 0.4937743 0.3879941
vt 0.493775 0.388001
vt 0.4938134 0.3879929
vt 0.4938093 0.3880303
vt 0.4937575 0.3884881
vt 0.4937743 0.3879941
vt 0.4937552 0.3884911
vt 0.4937762 0.3879972
vt 0.4934163 0.3879738
vt 0.4930263 0.3884372
vt 0.4930124 0.3879912
vt 0.4930111 0.3879542
vt 0.4930542 0.3879533
vt 0.4930565 0.3879503
vt 0.4930245 0.388434
vt 0.4933898 0.3884626
vt 0.3015328 0.008381844
vt 0.3020938 0.0087533
vt 0.3021081 0.008075714
vt 0.3015374 0.007753253
vt 0.4934163 0.3879738
vt 0.4930565 0.3879503
vt 0.4930542 0.3879533
vt 0.4937743 0.3879941
vt 0.4933898 0.3884626
vt 0.4937552 0.3884911
vt 0.4937575 0.3884881
vt 0.4930263 0.3884372
vt 0.4542544 0.009496331
vt 0.4542765 0.008863926
vt 0.4536899 0.009177446
vt 0.4536754 0.009864002
vt 0.1661099 0.009809375
vt 0.1656005 0.0101389
vt 0.166097 0.01041937
vt 0.1666006 0.01015028
vt 0.4930213 0.3884648
vt 0.4929188 0.388829
vt 0.4929404 0.3888454
vt 0.4929095 0.3888624
vt 0.4929537 0.3888656
vt 0.493003 0.3885825
vt 0.4937607 0.3885105
vt 0.4937571 0.3886317
vt 0.4937743 0.3888903
vt 0.4937496 0.3889036
vt 0.4937313 0.3889219
vt 0.4937755 0.3889251
vt 0.4937607 0.3885105
vt 0.4937607 0.3885105
vt 0.4930213 0.3884648
vt 0.4937899 0.3880245
vt 0.4930213 0.3884648
vt 0.4938124 0.3880407
vt 0.4938165 0.388003
vt 0.493775 0.388001
vt 0.4930273 0.3879873
vt 0.4930039 0.3880008
vt 0.4930441 0.3879656
vt 0.4930025 0.3879636
vt 1.192093E-07 -5.960464E-08
vt 1.192093E-07 1
vt 1 1
vt 1 -5.960464E-08
vn 0 0 1
vn 0 0 1
vn 0 0 1
vn 0 0 1
vn 0 0.9538214 -0.3003745
vn 0 0.9538214 -0.3003745
vn 0 0.9538214 -0.3003745
vn 0 0.9538214 -0.3003745
vn 0 -0.2660397 -0.9639621
vn 0 -0.2134088 -0.976963
vn 0 -0.2134088 -0.976963
vn 0 -0.2660438 -0.9639609
vn 0 -0.9733639 -0.2292654
vn 0 -0.9733639 -0.2292654
vn 0 -0.9733639 -0.2292654
vn 0 -0.9733639 -0.2292654
vn 1 0 0
vn 1 0 0
vn 1 0 0
vn 1 0 0
vn 1 0 0
vn 1 0 0
vn 1 0 0
vn 1 0 0
vn -1 0 0
vn -1 0 0
vn -1 0 0
vn -1 0 0
vn -1 0 0
vn -1 0 0
vn -1 0 0
vn -1 0 0
vn 0 1 0
vn 0 1 0
vn 0 1 0
vn 0 1 0
vn -0.9238782 0 0.3826865
vn -0.9238782 0 0.3826865
vn -0.9238782 0 0.3826865
vn -0.9238782 0 0.3826865
vn -0.382678 0 0.9238819
vn -0.382678 0 0.9238819
vn -0.382678 0 0.9238819
vn -0.382678 0 0.9238819
vn 0.382678 0 0.9238819
vn 0.382678 0 0.9238819
vn 0.382678 0 0.9238819
vn 0.382678 0 0.9238819
vn 0.9238782 0 0.3826865
vn 0.9238782 0 0.3826865
vn 0.9238782 0 0.3826865
vn 0.9238782 0 0.3826865
vn 0 -1 0
vn 0 -1 0
vn 0 -1 0
vn 0 -1 0
vn 0 -1 0
vn 0 -1 0
vn 0 -1 0
vn 0 -1 0
vn 0.3826828 0.8812158 -0.2775112
vn 0.3826828 0.8812158 -0.2775112
vn 0.3826829 0.8812158 -0.2775112
vn 0.3826828 0.8812158 -0.2775112
vn 0.9238782 0.3650143 -0.1149502
vn 0.9238782 0.3650144 -0.1149502
vn 0.9238782 0.3650144 -0.1149502
vn 0.9238782 0.3650143 -0.1149502
vn -0.9238782 0.3650143 -0.1149502
vn -0.9238782 0.3650144 -0.1149502
vn -0.9238782 0.3650144 -0.1149502
vn -0.9238782 0.3650143 -0.1149502
vn -0.3826828 0.8812159 -0.2775112
vn -0.3826828 0.8812159 -0.2775112
vn -0.3826828 0.8812159 -0.2775112
vn -0.3826828 0.8812159 -0.2775112
vn 0 -0.2853301 -0.9584294
vn 0 -0.2853301 -0.9584294
vn 0 -0.2660397 -0.9639621
vn 0 -0.2853297 -0.9584295
vn 0 -0.2853301 -0.9584294
vn 0 -0.2853301 -0.9584294
vn 0 -0.285331 -0.958429
vn 0 -0.2660438 -0.9639609
vn 0 -0.2853301 -0.9584294
vn 0 -0.2853301 -0.9584294
vn 0 -0.2853303 -0.9584293
vn 0 -0.2853305 -0.9584293
vn 0 -0.2853307 -0.9584292
vn 0 -0.2853295 -0.9584295
vn 0 -0.2853301 -0.9584294
vn 0 -0.2853295 -0.9584295
vn 0 -0.2853302 -0.9584293
vn 0 -0.2853301 -0.9584294
vn 0 -0.285331 -0.958429
vn 0 -0.2853305 -0.9584293
vn 0 -0.2853303 -0.9584293
vn 0 -0.2853297 -0.9584295
vn 0 -0.2853295 -0.9584295
vn 0 -0.2853301 -0.9584294
vn 0 -0.2660397 -0.9639621
vn 0 -0.2660438 -0.9639609
vn 0 -0.2853307 -0.9584292
vn 0 -0.2853305 -0.9584293
vn 0 -0.2853302 -0.9584293
vn 0 -0.2853295 -0.9584295
vn 0 -0.285331 -0.958429
vn 0 -0.2853301 -0.9584294
vn 0 -0.2853302 -0.9584293
vn 0 -0.2853305 -0.9584293
vn 0 1 0
vn 0 1 0
vn 0 1 0
vn 0 1 0
vn 0 1 0
vn 0 1 0
vn 0 1 0
vn 0 1 0
vn 0 1 0
vn 0 1 0
vn 0 1 0
vn 0 1 0
vn 0 0.2823966 0.9592978
vn 0 0.2823974 0.9592975
vn 0 0.2823974 0.9592975
vn 0 0.2823974 0.9592975
vn 0 0.2823966 0.9592978
vn 0 0.2823975 0.9592974
vn 0 0.2823965 0.9592978
vn 0 0.2823952 0.9592982
vn 0 0.2823974 0.9592975
vn 0 0.2823975 0.9592974
vn 0 0.2823952 0.9592982
vn 0 0.2823965 0.9592978
vn 0 0.2823974 0.9592975
vn 0 0.2823974 0.9592975
vn 0 0.2823974 0.9592975
vn 0 0.2823974 0.9592975
g SM_Prop_Laptop_02_0
f 3/3/3 2/2/2 1/1/1
f 4/4/4 3/3/3 1/1/1
f 7/7/7 6/6/6 5/5/5
f 8/8/8 7/7/7 5/5/5
f 11/11/11 10/10/10 9/9/9
f 12/12/12 11/11/11 9/9/9
f 15/15/15 14/14/14 13/13/13
f 16/16/16 15/15/15 13/13/13
f 19/19/19 18/18/18 17/17/17
f 20/20/20 19/19/19 17/17/17
f 17/17/17 21/21/21 20/20/20
f 21/21/21 22/22/22 20/20/20
f 22/22/22 23/23/23 20/20/20
f 23/23/23 24/24/24 20/20/20
f 27/27/27 26/26/26 25/25/25
f 26/26/26 28/28/28 25/25/25
f 28/28/28 26/26/26 29/29/29
f 26/26/26 30/30/30 29/29/29
f 26/26/26 31/31/31 30/30/30
f 31/31/31 32/32/32 30/30/30
f 35/35/35 34/34/34 33/33/33
f 36/36/36 35/35/35 33/33/33
f 39/39/39 38/38/38 37/37/37
f 40/40/40 39/39/39 37/37/37
f 43/43/43 42/42/42 41/41/41
f 44/44/44 43/43/43 41/41/41
f 47/47/47 46/46/46 45/45/45
f 48/48/48 47/47/47 45/45/45
f 51/51/51 50/50/50 49/49/49
f 52/52/52 51/51/51 49/49/49
f 55/55/55 54/54/54 53/53/53
f 54/54/54 56/56/56 53/53/53
f 56/56/56 57/57/57 53/53/53
f 57/57/57 58/58/58 53/53/53
f 57/57/57 59/59/59 58/58/58
f 59/59/59 60/60/60 58/58/58
f 63/63/63 62/62/62 61/61/61
f 64/64/64 63/63/63 61/61/61
f 67/67/67 66/66/66 65/65/65
f 68/68/68 67/67/67 65/65/65
f 71/71/71 70/70/70 69/69/69
f 72/72/72 71/71/71 69/69/69
f 75/75/75 74/74/74 73/73/73
f 76/76/76 75/75/75 73/73/73
f 79/79/79 78/78/78 77/77/77
f 80/80/80 79/79/79 77/77/77
f 81/81/81 79/79/79 80/80/80
f 82/82/82 81/81/81 80/80/80
f 83/83/83 82/82/82 80/80/80
f 86/86/86 85/85/85 84/84/84
f 87/87/87 86/86/86 84/84/84
f 88/88/88 87/87/87 84/84/84
f 89/89/89 88/88/88 84/84/84
f 90/90/90 89/89/89 84/84/84
f 93/93/93 92/92/92 91/91/91
f 94/94/94 93/93/93 91/91/91
f 97/97/97 96/96/96 95/95/95
f 97/97/97 95/95/95 98/98/98
f 101/101/101 100/100/100 99/99/99
f 101/101/101 99/99/99 102/102/102
f 105/105/105 104/104/104 103/103/103
f 106/106/106 105/105/105 103/103/103
f 109/109/109 108/108/108 107/107/107
f 110/110/110 109/109/109 107/107/107
f 113/113/113 112/112/112 111/111/111
f 114/114/114 112/112/112 113/113/113
f 115/115/115 114/114/114 113/113/113
f 116/116/116 113/113/113 111/111/111
f 111/111/111 117/117/117 116/116/116
f 117/117/117 118/118/118 116/116/116
f 117/117/117 119/119/119 118/118/118
f 115/115/115 113/113/113 120/120/120
f 119/119/119 120/120/120 118/118/118
f 121/121/121 115/115/115 120/120/120
f 119/119/119 122/122/122 120/120/120
f 122/122/122 121/121/121 120/120/120
f 125/125/125 124/124/124 123/123/123
f 123/123/123 124/124/124 126/126/126
f 127/127/127 125/125/125 123/123/123
f 128/128/128 123/123/123 126/126/126
f 129/129/129 128/128/128 126/126/126
f 130/130/130 129/129/129 126/126/126
f 131/131/131 125/125/125 127/127/127
f 130/130/130 126/126/126 131/131/131
f 132/132/132 131/131/131 127/127/127
f 133/133/133 130/130/130 131/131/131
f 132/132/132 134/134/134 131/131/131
f 134/134/134 133/133/133 131/131/131
g SM_Prop_Laptop_02_1
f 137/137/137 136/136/136 135/135/135
f 138/138/138 137/137/137 135/135/135
