g SM_Prop_Dresser_02
v -0.2422131 0.8167155 0.2230871
v -0.3220349 0.7955209 0.2230884
v -0.3220349 0.8167155 0.152522
v 0.1619556 0.8031007 0.2230884
v 0.05905639 0.8167155 0.2230884
v 0.1719482 0.8167155 0.1885962
v 0.2646997 0.8167155 0.2230884
v 0.1619556 0.8031007 0.2230884
v 0.1719482 0.8167155 0.1885962
v 0.2440723 0 0.09760498
v 0.2440723 0 0.1463367
v 0.2511316 0.1287977 0.1533936
v 0.2511316 0.1287977 0.09054809
v 0.2511316 0.1287977 0.09054809
v 0.2511316 0.1287977 0.1533936
v 0.1882849 0.1287977 0.1533936
v 0.1882849 0.1287977 0.09054809
v 0.1882849 0.1287977 0.09054809
v 0.1882849 0.1287977 0.1533936
v 0.1953394 0 0.1463367
v 0.1953394 0 0.09760498
v 0.1953394 0 0.09760498
v 0.1953394 0 0.1463367
v 0.2440723 0 0.1463367
v 0.2440723 0 0.09760498
v 0.2440723 0 0.1463367
v 0.1953394 0 0.1463367
v 0.1882849 0.1287977 0.1533936
v 0.2511316 0.1287977 0.1533936
v 0.1953394 0 0.09760498
v 0.2440723 0 0.09760498
v 0.2511316 0.1287977 0.09054809
v 0.1882849 0.1287977 0.09054809
v 0.2440723 0 -0.1487475
v 0.2440723 0 -0.1000159
v 0.2511316 0.1287977 -0.09295776
v 0.2511316 0.1287977 -0.1558044
v 0.2511316 0.1287977 -0.1558044
v 0.2511316 0.1287977 -0.09295776
v 0.1882849 0.1287977 -0.09295776
v 0.1882849 0.1287977 -0.1558044
v 0.1882849 0.1287977 -0.1558044
v 0.1882849 0.1287977 -0.09295776
v 0.1953418 0 -0.1000159
v 0.1953418 0 -0.1487475
v 0.1953418 0 -0.1487475
v 0.1953418 0 -0.1000159
v 0.2440723 0 -0.1000159
v 0.2440723 0 -0.1487475
v 0.2440723 0 -0.1000159
v 0.1953418 0 -0.1000159
v 0.1882849 0.1287977 -0.09295776
v 0.2511316 0.1287977 -0.09295776
v 0.1953418 0 -0.1487475
v 0.2440723 0 -0.1487475
v 0.2511316 0.1287977 -0.1558044
v 0.1882849 0.1287977 -0.1558044
v -0.244071 0 0.09760498
v -0.2511279 0.1287977 0.09054809
v -0.2511279 0.1287977 0.1533936
v -0.244071 0 0.1463367
v -0.2511279 0.1287977 0.09054809
v -0.1882813 0.1287977 0.09054809
v -0.1882813 0.1287977 0.1533936
v -0.2511279 0.1287977 0.1533936
v -0.1882813 0.1287977 0.09054809
v -0.1953394 0 0.09760498
v -0.1953394 0 0.1463367
v -0.1882813 0.1287977 0.1533936
v -0.1953394 0 0.09760498
v -0.244071 0 0.09760498
v -0.244071 0 0.1463367
v -0.1953394 0 0.1463367
v -0.244071 0 0.1463367
v -0.2511279 0.1287977 0.1533936
v -0.1882813 0.1287977 0.1533936
v -0.1953394 0 0.1463367
v -0.1953394 0 0.09760498
v -0.1882813 0.1287977 0.09054809
v -0.2511279 0.1287977 0.09054809
v -0.244071 0 0.09760498
v -0.244071 0 -0.1487475
v -0.2511279 0.1287977 -0.1558044
v -0.2511279 0.1287977 -0.09295776
v -0.244071 0 -0.1000159
v -0.2511279 0.1287977 -0.1558044
v -0.1882813 0.1287977 -0.1558044
v -0.1882813 0.1287977 -0.09295776
v -0.2511279 0.1287977 -0.09295776
v -0.1882813 0.1287977 -0.1558044
v -0.1953394 0 -0.1487475
v -0.1953394 0 -0.1000159
v -0.1882813 0.1287977 -0.09295776
v -0.1953394 0 -0.1487475
v -0.244071 0 -0.1487475
v -0.244071 0 -0.1000159
v -0.1953394 0 -0.1000159
v -0.244071 0 -0.1000159
v -0.2511279 0.1287977 -0.09295776
v -0.1882813 0.1287977 -0.09295776
v -0.1953394 0 -0.1000159
v -0.1953394 0 -0.1487475
v -0.1882813 0.1287977 -0.1558044
v -0.2511279 0.1287977 -0.1558044
v -0.244071 0 -0.1487475
v -0.2823804 0.4600422 -0.1861841
v -0.2823804 0.7775534 -0.1861841
v -0.2823804 0.7775534 0.1861804
v -0.2823804 0.5744811 0.1861804
v -0.2823804 0.3456033 0.1861804
v -0.2823804 0.1287977 -0.1861841
v -0.2823804 0.1287977 0.1861804
v 0.2823767 0.7775534 -0.1861841
v 0.2823767 0.5744811 0.1861804
v 0.2823767 0.7775534 0.1861804
v 0.2823767 0.4600422 -0.1861841
v 0.2823767 0.3456033 0.1861804
v 0.2823767 0.1287977 0.1861804
v 0.2823767 0.1287977 -0.1861841
v 0.2823767 0.1287977 -0.1861841
v -0.2823804 0.1287977 -0.1861841
v -0.2823804 0.1287977 0.1861804
v 0.2823767 0.1287977 0.1861804
v 0.2823767 0.4600422 -0.1861841
v 0.2823767 0.7775534 -0.1861841
v -0.2823804 0.7775534 -0.1861841
v -0.2823804 0.4600422 -0.1861841
v 0.2823767 0.1287977 -0.1861841
v -0.2823804 0.1287977 -0.1861841
v 0.3220349 0.7775534 0.2230884
v 0.3220349 0.8167155 0.2230884
v 0.3220349 0.8167155 -0.2230884
v 0.3220349 0.7775534 -0.2230884
v 0.3220349 0.7775534 -0.2230884
v 0.3220349 0.8167155 -0.2230884
v -0.3220349 0.8167155 -0.2230884
v -0.3220349 0.7775534 -0.2230884
v -0.2405945 0.5931144 0.1861804
v -0.2405945 0.5931144 -0.1298804
v 0.2405908 0.5931144 -0.1298804
v 0.2405908 0.5931144 0.1861804
v 0.2405908 0.5931144 0.1861804
v 0.2405908 0.5931144 -0.1298804
v 0.2405908 0.7589197 -0.1298804
v 0.2405908 0.7589197 0.1861804
v 0.2405908 0.7589197 0.1861804
v 0.2405908 0.7589197 -0.1298804
v -0.2405945 0.7589197 -0.1298804
v -0.2405945 0.7589197 0.1861804
v -0.2405945 0.7589197 0.1861804
v -0.2405945 0.7589197 -0.1298804
v -0.2405945 0.5931144 -0.1298804
v -0.2405945 0.5931144 0.1861804
v -0.2405945 0.3876745 0.1861804
v -0.2405945 0.3876745 -0.1298804
v 0.2405908 0.3876745 -0.1298804
v 0.2405908 0.3876745 0.1861804
v 0.2405908 0.3876745 0.1861804
v 0.2405908 0.3876745 -0.1298804
v 0.2405908 0.5534796 -0.1298804
v 0.2405908 0.5534796 0.1861804
v 0.2405908 0.5534796 0.1861804
v 0.2405908 0.5534796 -0.1298804
v -0.2405945 0.5534796 -0.1298804
v -0.2405945 0.5534796 0.1861804
v -0.2405945 0.5534796 0.1861804
v -0.2405945 0.5534796 -0.1298804
v -0.2405945 0.3876745 -0.1298804
v -0.2405945 0.3876745 0.1861804
v -0.2405945 0.1781419 0.1861804
v -0.2405945 0.1781419 -0.1298804
v 0.2405908 0.1781419 -0.1298804
v 0.2405908 0.1781419 0.1861804
v 0.2405908 0.1781419 0.1861804
v 0.2405908 0.1781419 -0.1298804
v 0.2405908 0.343947 -0.1298804
v 0.2405908 0.343947 0.1861804
v 0.2405908 0.343947 0.1861804
v 0.2405908 0.343947 -0.1298804
v -0.2405945 0.343947 -0.1298804
v -0.2405945 0.343947 0.1861804
v -0.2405945 0.343947 0.1861804
v -0.2405945 0.343947 -0.1298804
v -0.2405945 0.1781419 -0.1298804
v -0.2405945 0.1781419 0.1861804
v 0.2405908 0.5931144 -0.1298804
v -0.2405945 0.5931144 -0.1298804
v -0.2405945 0.7589197 -0.1298804
v 0.2405908 0.7589197 -0.1298804
v 0.2405908 0.3876745 -0.1298804
v -0.2405945 0.3876745 -0.1298804
v -0.2405945 0.5534796 -0.1298804
v 0.2405908 0.5534796 -0.1298804
v -0.2405945 0.1781419 -0.1298804
v -0.2405945 0.343947 -0.1298804
v 0.2405908 0.343947 -0.1298804
v 0.2405908 0.1781419 -0.1298804
v -0.3220349 0.7955209 0.2230884
v -0.3220349 0.7775534 0.2230884
v -0.3220349 0.7775534 -0.2230884
v -0.3220349 0.8167155 -0.2230884
v -0.3220349 0.8167155 0.152522
v -0.3220349 0.7955209 0.2230884
v -0.2422131 0.8167155 0.2230871
v 0.05905639 0.8167155 0.2230884
v 0.1619556 0.8031007 0.2230884
v -0.3220349 0.7775534 0.2230884
v 0.3220349 0.7775534 0.2230884
v 0.3220349 0.8167155 0.2230884
v 0.2646997 0.8167155 0.2230884
v 0.3220349 0.8167155 -0.2230884
v 0.3220349 0.8167155 0.2230884
v 0.2646997 0.8167155 0.2230884
v 0.1719482 0.8167155 0.1885962
v -0.3220349 0.8167155 0.152522
v -0.3220349 0.8167155 -0.2230884
v -0.2422131 0.8167155 0.2230871
v 0.05905639 0.8167155 0.2230884
v -0.2823804 0.7775534 -0.1861841
v -0.3220349 0.7775534 -0.2230884
v -0.3220349 0.7775534 0.2230884
v -0.2823804 0.7775534 0.1861804
v 0.2823767 0.7775534 -0.1861841
v 0.3220349 0.7775534 0.2230884
v 0.3220349 0.7775534 -0.2230884
v 0.2823767 0.7775534 0.1861804
v 0.2405908 0.5931144 0.1861804
v 0.2823767 0.5744811 0.1861804
v 0.2405908 0.5534796 0.1861804
v 0.2405908 0.7589197 0.1861804
v -0.2405945 0.5931144 0.1861804
v 0.2823767 0.7775534 0.1861804
v -0.2405945 0.7589197 0.1861804
v -0.2823804 0.7775534 0.1861804
v 0.2823767 0.3456033 0.1861804
v -0.2823804 0.5744811 0.1861804
v -0.2405945 0.5534796 0.1861804
v -0.2405945 0.3876745 0.1861804
v 0.2405908 0.3876745 0.1861804
v -0.2823804 0.3456033 0.1861804
v 0.2405908 0.343947 0.1861804
v 0.2823767 0.1287977 0.1861804
v -0.2405945 0.343947 0.1861804
v 0.2405908 0.1781419 0.1861804
v -0.2405945 0.1781419 0.1861804
v -0.2823804 0.1287977 0.1861804
vt 0.03863525 0.3532715
vt 0.03863525 0.3532715
vt 0.03863525 0.3532715
vt 0.03863525 0.3532715
vt 0.03863525 0.3532715
vt 0.03863525 0.3532715
vt 0.03863525 0.3532715
vt 0.03863525 0.3532715
vt 0.03863525 0.3532715
vt 0.03860474 0.3007813
vt 0.03860474 0.3007813
vt 0.03860474 0.3007813
vt 0.03860474 0.3007813
vt 0.03860474 0.3007813
vt 0.03860474 0.3007813
vt 0.03860474 0.3007813
vt 0.03860474 0.3007813
vt 0.03860474 0.3007813
vt 0.03860474 0.3007813
vt 0.03860474 0.3007813
vt 0.03860474 0.3007813
vt 0.03860474 0.3007813
vt 0.03860474 0.3007813
vt 0.03860474 0.3007813
vt 0.03860474 0.3007813
vt 0.03860474 0.3007813
vt 0.03860474 0.3007813
vt 0.03860474 0.3007813
vt 0.03860474 0.3007813
vt 0.03860474 0.3007813
vt 0.03860474 0.3007813
vt 0.03860474 0.3007813
vt 0.03860474 0.3007813
vt 0.03860474 0.3007813
vt 0.03860474 0.3007813
vt 0.03860474 0.3007813
vt 0.03860474 0.3007813
vt 0.03860474 0.3007813
vt 0.03860474 0.3007813
vt 0.03860474 0.3007813
vt 0.03860474 0.3007813
vt 0.03860474 0.3007813
vt 0.03860474 0.3007813
vt 0.03860474 0.3007813
vt 0.03860474 0.3007813
vt 0.03860474 0.3007813
vt 0.03860474 0.3007813
vt 0.03860474 0.3007813
vt 0.03860474 0.3007813
vt 0.03860474 0.3007813
vt 0.03860474 0.3007813
vt 0.03860474 0.3007813
vt 0.03860474 0.3007813
vt 0.03860474 0.3007813
vt 0.03860474 0.3007813
vt 0.03860474 0.3007813
vt 0.03860474 0.3007813
vt 0.03860474 0.3007813
vt 0.03860474 0.3007813
vt 0.03860474 0.3007813
vt 0.03860474 0.3007813
vt 0.03860474 0.3007813
vt 0.03860474 0.3007813
vt 0.03860474 0.3007813
vt 0.03860474 0.3007813
vt 0.03860474 0.3007813
vt 0.03860474 0.3007813
vt 0.03860474 0.3007813
vt 0.03860474 0.3007813
vt 0.03860474 0.3007813
vt 0.03860474 0.3007813
vt 0.03860474 0.3007813
vt 0.03860474 0.3007813
vt 0.03860474 0.3007813
vt 0.03860474 0.3007813
vt 0.03860474 0.3007813
vt 0.03860474 0.3007813
vt 0.03860474 0.3007813
vt 0.03860474 0.3007813
vt 0.03860474 0.3007813
vt 0.03860474 0.3007813
vt 0.03860474 0.3007813
vt 0.03860474 0.3007813
vt 0.03860474 0.3007813
vt 0.03860474 0.3007813
vt 0.03860474 0.3007813
vt 0.03860474 0.3007813
vt 0.03860474 0.3007813
vt 0.03860474 0.3007813
vt 0.03860474 0.3007813
vt 0.03860474 0.3007813
vt 0.03860474 0.3007813
vt 0.03860474 0.3007813
vt 0.03860474 0.3007813
vt 0.03860474 0.3007813
vt 0.03860474 0.3007813
vt 0.03860474 0.3007813
vt 0.03860474 0.3007813
vt 0.03860474 0.3007813
vt 0.03860474 0.3007813
vt 0.03860474 0.3007813
vt 0.03860474 0.3007813
vt 0.03860474 0.3007813
vt 0.03860474 0.3007813
vt 0.03860474 0.3007813
vt 0.03863525 0.3532715
vt 0.03863525 0.3532715
vt 0.03863525 0.3532715
vt 0.03863525 0.3532715
vt 0.03863525 0.3532715
vt 0.03863525 0.3532715
vt 0.03863525 0.3532715
vt 0.03863525 0.3532715
vt 0.03863525 0.3532715
vt 0.03863525 0.3532715
vt 0.03863525 0.3532715
vt 0.03863525 0.3532715
vt 0.03863525 0.3532715
vt 0.03863525 0.3532715
vt 0.03863525 0.3532715
vt 0.03863525 0.3532715
vt 0.03863525 0.3532715
vt 0.03863525 0.3532715
vt 0.03863525 0.3532715
vt 0.03863525 0.3532715
vt 0.03863525 0.3532715
vt 0.03863525 0.3532715
vt 0.03863525 0.3532715
vt 0.03863525 0.3532715
vt 0.03863525 0.3532715
vt 0.03863525 0.3532715
vt 0.03863525 0.3532715
vt 0.03863525 0.3532715
vt 0.03863525 0.3532715
vt 0.03863525 0.3532715
vt 0.03863525 0.3532715
vt 0.03863525 0.3532715
vt 0.03863525 0.3532715
vt 0.03863525 0.3532715
vt 0.03863525 0.3532715
vt 0.03863525 0.3532715
vt 0.03863525 0.3532715
vt 0.03863525 0.3532715
vt 0.03863525 0.3532715
vt 0.03863525 0.3532715
vt 0.03863525 0.3532715
vt 0.03863525 0.3532715
vt 0.03863525 0.3532715
vt 0.03863525 0.3532715
vt 0.03863525 0.3532715
vt 0.03863525 0.3532715
vt 0.03863525 0.3532715
vt 0.03863525 0.3532715
vt 0.03863525 0.3532715
vt 0.03863525 0.3532715
vt 0.03863525 0.3532715
vt 0.03863525 0.3532715
vt 0.03863525 0.3532715
vt 0.03863525 0.3532715
vt 0.03863525 0.3532715
vt 0.03863525 0.3532715
vt 0.03863525 0.3532715
vt 0.03863525 0.3532715
vt 0.03863525 0.3532715
vt 0.03863525 0.3532715
vt 0.03863525 0.3532715
vt 0.03863525 0.3532715
vt 0.03863525 0.3532715
vt 0.03863525 0.3532715
vt 0.03863525 0.3532715
vt 0.03863525 0.3532715
vt 0.03863525 0.3532715
vt 0.03863525 0.3532715
vt 0.03863525 0.3532715
vt 0.03863525 0.3532715
vt 0.03863525 0.3532715
vt 0.03863525 0.3532715
vt 0.03863525 0.3532715
vt 0.03863525 0.3532715
vt 0.03863525 0.3532715
vt 0.03863525 0.3532715
vt 0.03863525 0.3532715
vt 0.03863525 0.3532715
vt 0.03863525 0.3532715
vt 0.03863525 0.3532715
vt 0.03863525 0.3532715
vt 0.03863525 0.3532715
vt 0.03863525 0.3532715
vt 0.03863525 0.3532715
vt 0.03863525 0.3532715
vt 0.03863525 0.3532715
vt 0.03863525 0.3532715
vt 0.03863525 0.3532715
vt 0.03863525 0.3532715
vt 0.03863525 0.3532715
vt 0.03863525 0.3532715
vt 0.03863525 0.3532715
vt 0.03863525 0.3532715
vt 0.03863525 0.3532715
vt 0.03863525 0.3532715
vt 0.03863525 0.3532715
vt 0.03863525 0.3532715
vt 0.03863525 0.3532715
vt 0.03863525 0.3532715
vt 0.03863525 0.3532715
vt 0.03863525 0.3532715
vt 0.03863525 0.3532715
vt 0.03863525 0.3532715
vt 0.03863525 0.3532715
vt 0.03863525 0.3532715
vt 0.03863525 0.3532715
vt 0.03863525 0.3532715
vt 0.03863525 0.3532715
vt 0.03863525 0.3532715
vt 0.03863525 0.3532715
vt 0.03863525 0.3532715
vt 0.03863525 0.3532715
vt 0.03863525 0.3532715
vt 0.03863525 0.3532715
vt 0.03863525 0.3532715
vt 0.03863525 0.3532715
vt 0.03863525 0.3532715
vt 0.03863525 0.3532715
vt 0.03863525 0.3532715
vt 0.03863525 0.3532715
vt 0.03863525 0.3532715
vt 0.03863525 0.3532715
vt 0.03863525 0.3532715
vt 0.03863525 0.3532715
vt 0.03863525 0.3532715
vt 0.03863525 0.3532715
vt 0.03863525 0.3532715
vt 0.03863525 0.3532715
vt 0.03863525 0.3532715
vt 0.03863525 0.3532715
vt 0.03863525 0.3532715
vt 0.03863525 0.3532715
vt 0.03863525 0.3532715
vt 0.03863525 0.3532715
vt 0.03863525 0.3532715
vt 0.03863525 0.3532715
vt 0.03863525 0.3532715
vt 0.03863525 0.3532715
vt 0.03863525 0.3532715
vt 0.03863525 0.3532715
vt 0.03863525 0.3532715
vn -0.24646 0.9282227 0.2788086
vn -0.24646 0.9282227 0.2788086
vn -0.24646 0.9282227 0.2788086
vn 0.1205444 0.9111328 0.3945313
vn 0.1205444 0.9111328 0.3945313
vn 0.1205444 0.9111328 0.3945313
vn -0.1238403 0.9345703 0.3330078
vn -0.1238403 0.9345703 0.3330078
vn -0.1238403 0.9345703 0.3330078
vn 0.9985352 -0.05471802 0
vn 0.9985352 -0.05471802 0
vn 0.9985352 -0.05471802 0
vn 0.9985352 -0.05471802 0
vn 0 1 0
vn 0 1 0
vn 0 1 0
vn 0 1 0
vn -0.9985352 -0.0546875 0
vn -0.9985352 -0.0546875 0
vn -0.9985352 -0.0546875 0
vn -0.9985352 -0.0546875 0
vn 0 -1 0
vn 0 -1 0
vn 0 -1 0
vn 0 -1 0
vn 0 -0.05471802 0.9985352
vn 0 -0.05471802 0.9985352
vn 0 -0.05471802 0.9985352
vn 0 -0.05471802 0.9985352
vn 0 -0.05471802 -0.9985352
vn 0 -0.05471802 -0.9985352
vn 0 -0.05471802 -0.9985352
vn 0 -0.05471802 -0.9985352
vn 0.9985352 -0.05471802 0
vn 0.9985352 -0.05471802 0
vn 0.9985352 -0.05471802 0
vn 0.9985352 -0.05471802 0
vn 0 1 0
vn 0 1 0
vn 0 1 0
vn 0 1 0
vn -0.9985352 -0.05471802 0
vn -0.9985352 -0.05471802 0
vn -0.9985352 -0.05471802 0
vn -0.9985352 -0.05471802 0
vn 0 -1 0
vn 0 -1 0
vn 0 -1 0
vn 0 -1 0
vn 0 -0.05471802 0.9985352
vn 0 -0.05471802 0.9985352
vn 0 -0.05471802 0.9985352
vn 0 -0.05471802 0.9985352
vn 0 -0.05471802 -0.9985352
vn 0 -0.05471802 -0.9985352
vn 0 -0.05471802 -0.9985352
vn 0 -0.05471802 -0.9985352
vn -0.9985352 -0.05471802 0
vn -0.9985352 -0.05471802 0
vn -0.9985352 -0.05471802 0
vn -0.9985352 -0.05471802 0
vn 0 1 0
vn 0 1 0
vn 0 1 0
vn 0 1 0
vn 0.9985352 -0.05471802 0
vn 0.9985352 -0.05471802 0
vn 0.9985352 -0.05471802 0
vn 0.9985352 -0.05471802 0
vn 0 -1 0
vn 0 -1 0
vn 0 -1 0
vn 0 -1 0
vn 0 -0.05471802 0.9985352
vn 0 -0.05471802 0.9985352
vn 0 -0.05471802 0.9985352
vn 0 -0.05471802 0.9985352
vn 0 -0.05471802 -0.9985352
vn 0 -0.05471802 -0.9985352
vn 0 -0.05471802 -0.9985352
vn 0 -0.05471802 -0.9985352
vn -0.9985352 -0.05471802 0
vn -0.9985352 -0.05471802 0
vn -0.9985352 -0.05471802 0
vn -0.9985352 -0.05471802 0
vn 0 1 0
vn 0 1 0
vn 0 1 0
vn 0 1 0
vn 0.9985352 -0.05471802 0
vn 0.9985352 -0.05471802 0
vn 0.9985352 -0.05471802 0
vn 0.9985352 -0.05471802 0
vn 0 -1 0
vn 0 -1 0
vn 0 -1 0
vn 0 -1 0
vn 0 -0.05471802 0.9985352
vn 0 -0.05471802 0.9985352
vn 0 -0.05471802 0.9985352
vn 0 -0.05471802 0.9985352
vn 0 -0.05471802 -0.9985352
vn 0 -0.05471802 -0.9985352
vn 0 -0.05471802 -0.9985352
vn 0 -0.05471802 -0.9985352
vn -1 0 0
vn -1 0 0
vn -1 0 0
vn -1 0 0
vn -1 0 0
vn -1 0 0
vn -1 0 0
vn 1 0 0
vn 1 0 0
vn 1 0 0
vn 1 0 0
vn 1 0 0
vn 1 0 0
vn 1 0 0
vn 0 -1 0
vn 0 -1 0
vn 0 -1 0
vn 0 -1 0
vn 0 0 -1
vn 0 0 -1
vn 0 0 -1
vn 0 0 -1
vn 0 0 -1
vn 0 0 -1
vn 1 0 0
vn 1 0 0
vn 1 0 0
vn 1 0 0
vn 0 0 -1
vn 0 0 -1
vn 0 0 -1
vn 0 0 -1
vn 0 1 0
vn 0 1 0
vn 0 1 0
vn 0 1 0
vn -1 0 0
vn -1 0 0
vn -1 0 0
vn -1 0 0
vn 0 -1 0
vn 0 -1 0
vn 0 -1 0
vn 0 -1 0
vn 1 0 0
vn 1 0 0
vn 1 0 0
vn 1 0 0
vn 0 1 0
vn 0 1 0
vn 0 1 0
vn 0 1 0
vn -1 0 0
vn -1 0 0
vn -1 0 0
vn -1 0 0
vn 0 -1 0
vn 0 -1 0
vn 0 -1 0
vn 0 -1 0
vn 1 0 0
vn 1 0 0
vn 1 0 0
vn 1 0 0
vn 0 1 0
vn 0 1 0
vn 0 1 0
vn 0 1 0
vn -1 0 0
vn -1 0 0
vn -1 0 0
vn -1 0 0
vn 0 -1 0
vn 0 -1 0
vn 0 -1 0
vn 0 -1 0
vn 1 0 0
vn 1 0 0
vn 1 0 0
vn 1 0 0
vn 0 0 1
vn 0 0 1
vn 0 0 1
vn 0 0 1
vn 0 0 1
vn 0 0 1
vn 0 0 1
vn 0 0 1
vn 0 0 1
vn 0 0 1
vn 0 0 1
vn 0 0 1
vn -1 0 0
vn -1 0 0
vn -1 0 0
vn -1 0 0
vn -1 0 0
vn 0 1.692772E-05 1
vn 0 3.379583E-05 1
vn 0 3.379583E-05 1
vn 0 1.126528E-05 1
vn 0 0 1
vn 0 0 1
vn 0 0 1
vn 0 0 1
vn 0 1 0
vn 0 1 0
vn 0 1 0
vn 0 1 0
vn 0 1 0
vn 0 1 0
vn 0 1 0
vn 0 1 0
vn 0 -1 0
vn 0 -1 0
vn 0 -1 0
vn 0 -1 0
vn 0 -1 0
vn 0 -1 0
vn 0 -1 0
vn 0 -1 0
vn 0 0 1
vn 0 0 1
vn 0 0 1
vn 0 0 1
vn 0 0 1
vn 0 0 1
vn 0 0 1
vn 0 0 1
vn 0 0 1
vn 0 0 1
vn 0 0 1
vn 0 0 1
vn 0 0 1
vn 0 0 1
vn 0 0 1
vn 0 0 1
vn 0 0 1
vn 0 0 1
vn 0 0 1
vn 0 0 1
g SM_Prop_Dresser_02_0
f 3/3/3 2/2/2 1/1/1
f 6/6/6 5/5/5 4/4/4
f 9/9/9 8/8/8 7/7/7
f 12/12/12 11/11/11 10/10/10
f 13/13/13 12/12/12 10/10/10
f 16/16/16 15/15/15 14/14/14
f 17/17/17 16/16/16 14/14/14
f 20/20/20 19/19/19 18/18/18
f 21/21/21 20/20/20 18/18/18
f 24/24/24 23/23/23 22/22/22
f 25/25/25 24/24/24 22/22/22
f 28/28/28 27/27/27 26/26/26
f 29/29/29 28/28/28 26/26/26
f 32/32/32 31/31/31 30/30/30
f 33/33/33 32/32/32 30/30/30
f 36/36/36 35/35/35 34/34/34
f 37/37/37 36/36/36 34/34/34
f 40/40/40 39/39/39 38/38/38
f 41/41/41 40/40/40 38/38/38
f 44/44/44 43/43/43 42/42/42
f 45/45/45 44/44/44 42/42/42
f 48/48/48 47/47/47 46/46/46
f 49/49/49 48/48/48 46/46/46
f 52/52/52 51/51/51 50/50/50
f 53/53/53 52/52/52 50/50/50
f 56/56/56 55/55/55 54/54/54
f 57/57/57 56/56/56 54/54/54
f 60/60/60 59/59/59 58/58/58
f 61/61/61 60/60/60 58/58/58
f 64/64/64 63/63/63 62/62/62
f 65/65/65 64/64/64 62/62/62
f 68/68/68 67/67/67 66/66/66
f 69/69/69 68/68/68 66/66/66
f 72/72/72 71/71/71 70/70/70
f 73/73/73 72/72/72 70/70/70
f 76/76/76 75/75/75 74/74/74
f 77/77/77 76/76/76 74/74/74
f 80/80/80 79/79/79 78/78/78
f 81/81/81 80/80/80 78/78/78
f 84/84/84 83/83/83 82/82/82
f 85/85/85 84/84/84 82/82/82
f 88/88/88 87/87/87 86/86/86
f 89/89/89 88/88/88 86/86/86
f 92/92/92 91/91/91 90/90/90
f 93/93/93 92/92/92 90/90/90
f 96/96/96 95/95/95 94/94/94
f 97/97/97 96/96/96 94/94/94
f 100/100/100 99/99/99 98/98/98
f 101/101/101 100/100/100 98/98/98
f 104/104/104 103/103/103 102/102/102
f 105/105/105 104/104/104 102/102/102
f 108/108/108 107/107/107 106/106/106
f 109/109/109 108/108/108 106/106/106
f 110/110/110 109/109/109 106/106/106
f 110/110/110 106/106/106 111/111/111
f 112/112/112 110/110/110 111/111/111
f 115/115/115 114/114/114 113/113/113
f 114/114/114 116/116/116 113/113/113
f 114/114/114 117/117/117 116/116/116
f 117/117/117 118/118/118 116/116/116
f 118/118/118 119/119/119 116/116/116
f 122/122/122 121/121/121 120/120/120
f 123/123/123 122/122/122 120/120/120
f 126/126/126 125/125/125 124/124/124
f 127/127/127 126/126/126 124/124/124
f 127/127/127 124/124/124 128/128/128
f 129/129/129 127/127/127 128/128/128
f 132/132/132 131/131/131 130/130/130
f 133/133/133 132/132/132 130/130/130
f 136/136/136 135/135/135 134/134/134
f 137/137/137 136/136/136 134/134/134
f 140/140/140 139/139/139 138/138/138
f 141/141/141 140/140/140 138/138/138
f 144/144/144 143/143/143 142/142/142
f 145/145/145 144/144/144 142/142/142
f 148/148/148 147/147/147 146/146/146
f 149/149/149 148/148/148 146/146/146
f 152/152/152 151/151/151 150/150/150
f 153/153/153 152/152/152 150/150/150
f 156/156/156 155/155/155 154/154/154
f 157/157/157 156/156/156 154/154/154
f 160/160/160 159/159/159 158/158/158
f 161/161/161 160/160/160 158/158/158
f 164/164/164 163/163/163 162/162/162
f 165/165/165 164/164/164 162/162/162
f 168/168/168 167/167/167 166/166/166
f 169/169/169 168/168/168 166/166/166
f 172/172/172 171/171/171 170/170/170
f 173/173/173 172/172/172 170/170/170
f 176/176/176 175/175/175 174/174/174
f 177/177/177 176/176/176 174/174/174
f 180/180/180 179/179/179 178/178/178
f 181/181/181 180/180/180 178/178/178
f 184/184/184 183/183/183 182/182/182
f 185/185/185 184/184/184 182/182/182
f 188/188/188 187/187/187 186/186/186
f 189/189/189 188/188/188 186/186/186
f 192/192/192 191/191/191 190/190/190
f 193/193/193 192/192/192 190/190/190
f 196/196/196 195/195/195 194/194/194
f 197/197/197 196/196/196 194/194/194
f 200/200/200 199/199/199 198/198/198
f 198/198/198 201/201/201 200/200/200
f 198/198/198 202/202/202 201/201/201
f 205/205/205 204/204/204 203/203/203
f 206/206/206 205/205/205 203/203/203
f 206/206/206 203/203/203 207/207/207
f 208/208/208 206/206/206 207/207/207
f 208/208/208 209/209/209 206/206/206
f 209/209/209 210/210/210 206/206/206
f 213/213/213 212/212/212 211/211/211
f 214/214/214 213/213/213 211/211/211
f 215/215/215 214/214/214 211/211/211
f 216/216/216 215/215/215 211/211/211
f 215/215/215 217/217/217 214/214/214
f 217/217/217 218/218/218 214/214/214
f 221/221/221 220/220/220 219/219/219
f 222/222/222 221/221/221 219/219/219
f 219/219/219 220/220/220 223/223/223
f 224/224/224 221/221/221 222/222/222
f 220/220/220 225/225/225 223/223/223
f 226/226/226 224/224/224 222/222/222
f 223/223/223 225/225/225 226/226/226
f 225/225/225 224/224/224 226/226/226
f 229/229/229 228/228/228 227/227/227
f 230/230/230 227/227/227 228/228/228
f 227/227/227 231/231/231 229/229/229
f 232/232/232 230/230/230 228/228/228
f 233/233/233 230/230/230 232/232/232
f 234/234/234 233/233/233 232/232/232
f 231/231/231 233/233/233 234/234/234
f 228/228/228 229/229/229 235/235/235
f 236/236/236 231/231/231 234/234/234
f 231/231/231 237/237/237 229/229/229
f 231/231/231 236/236/236 237/237/237
f 238/238/238 237/237/237 236/236/236
f 229/229/229 239/239/239 235/235/235
f 240/240/240 238/238/238 236/236/236
f 241/241/241 235/235/235 239/239/239
f 239/239/239 238/238/238 241/241/241
f 235/235/235 241/241/241 242/242/242
f 238/238/238 243/243/243 241/241/241
f 238/238/238 240/240/240 243/243/243
f 241/241/241 244/244/244 242/242/242
f 245/245/245 243/243/243 240/240/240
f 242/242/242 244/244/244 246/246/246
f 246/246/246 245/245/245 240/240/240
f 244/244/244 245/245/245 246/246/246
