g SM_Prop_Rug_01
v -1.053655 0.03136459 -0.2397204
v -1.053655 0.03136459 0.2550366
v -1.066667 2.220446E-17 0.2605273
v -1.066667 2.220446E-17 -0.245083
v 1.066667 2.220446E-17 -0.245083
v 1.066667 2.220446E-17 0.2605273
v 1.053652 0.03136459 0.2550366
v 1.053652 0.03136459 -0.2397204
v -6.103515E-07 2.220446E-17 0.3568347
v 0.723559 2.220446E-17 0.3122559
v 0.723559 2.220446E-17 -0.2946228
v 0 2.220446E-17 -0.3392004
v -0.7235596 2.220446E-17 0.3122559
v -0.723559 2.220446E-17 -0.2946228
v -1.220703E-06 0.03136459 0.8628173
v 0.5194598 0.03136459 0.8628173
v 0.5258765 2.220446E-17 0.8817444
v -6.103515E-07 2.220446E-17 0.8817444
v -0.5194623 0.03136459 0.8628173
v -0.5258771 2.220446E-17 0.8817444
v 0.5194598 0.03136459 -0.8628186
v -6.103515E-07 2.220446E-17 -0.8817444
v 0.5258765 2.220446E-17 -0.8817444
v -1.220703E-06 0.03136459 -0.8628186
v -0.5258771 2.220446E-17 -0.8817444
v -0.5194623 0.03136459 -0.8628186
v -0.8648254 2.220446E-17 -0.663255
v -0.8542755 0.03136459 -0.6490179
v -1.053655 0.03136459 -0.2397204
v -1.066667 2.220446E-17 -0.245083
v 0.8542737 0.03136459 -0.6490179
v 0.8648248 2.220446E-17 -0.663255
v 1.066667 2.220446E-17 -0.245083
v 1.053652 0.03136459 -0.2397204
v 1.066667 2.220446E-17 0.2605273
v 0.8648248 2.220446E-17 0.6632556
v 0.8542737 0.03136459 0.6490173
v 1.053652 0.03136459 0.2550366
v -1.053655 0.03136459 0.2550366
v -0.8542755 0.03136459 0.6490173
v -0.8648254 2.220446E-17 0.6632556
v -1.066667 2.220446E-17 0.2605273
v -0.3099969 0.03136459 0.2076184
v -0.5098022 0.03136459 0.1561731
v -0.576809 0.03136459 0.06141846
v -0.3912701 0.03136459 0.07346069
v 0 0.03136459 0.2076184
v -0.576809 0.03136459 -0.05122681
v 0 0.03136459 0.07346069
v 0.3099976 0.03136459 0.2076184
v -0.3912701 0.03136459 -0.06174682
v -0.5098022 0.03136459 -0.1561743
v -0.3099969 0.03136459 -0.2076221
v 0 0.03136459 -0.06174682
v 0 0.03136459 -0.2076221
v 0.3912708 0.03136459 0.07346069
v 0.3912708 0.03136459 -0.06174682
v 0.3099976 0.03136459 -0.2076221
v 0.5768097 0.03136459 -0.05122681
v 0.5098022 0.03136459 -0.1561743
v 0.5768097 0.03136459 0.06141846
v 0.5098022 0.03136459 0.1561731
v -0.8648254 2.220446E-17 0.6632556
v -0.8542755 0.03136459 0.6490173
v -0.5194623 0.03136459 0.8628173
v -0.5258771 2.220446E-17 0.8817444
v -1.066667 2.220446E-17 0.2605273
v -0.8648254 2.220446E-17 0.6632556
v -0.5258771 2.220446E-17 0.8817444
v -0.7235596 2.220446E-17 0.3122559
v -1.066667 2.220446E-17 -0.245083
v -6.103515E-07 2.220446E-17 0.3568347
v -6.103515E-07 2.220446E-17 0.8817444
v 0.723559 2.220446E-17 0.3122559
v -0.723559 2.220446E-17 -0.2946228
v 0.5258765 2.220446E-17 0.8817444
v -0.5258771 2.220446E-17 -0.8817444
v -0.8648254 2.220446E-17 -0.663255
v -6.103515E-07 2.220446E-17 -0.8817444
v 0 2.220446E-17 -0.3392004
v 0.5258765 2.220446E-17 -0.8817444
v 0.723559 2.220446E-17 -0.2946228
v 0.8648248 2.220446E-17 -0.663255
v 1.066667 2.220446E-17 -0.245083
v 1.066667 2.220446E-17 0.2605273
v 0.8648248 2.220446E-17 0.6632556
v -0.5194623 0.03136459 -0.8628186
v -0.8542755 0.03136459 -0.6490179
v -0.8648254 2.220446E-17 -0.663255
v -0.5258771 2.220446E-17 -0.8817444
v 0.5194598 0.03136459 0.8628173
v 0.8542737 0.03136459 0.6490173
v 0.8648248 2.220446E-17 0.6632556
v 0.5258765 2.220446E-17 0.8817444
v 0.8648248 2.220446E-17 -0.663255
v 0.8542737 0.03136459 -0.6490179
v 0.5194598 0.03136459 -0.8628186
v 0.5258765 2.220446E-17 -0.8817444
v -0.9637988 0.03136459 0.2164368
v -0.7814221 0.03136459 0.5489856
v -0.8542755 0.03136459 0.6490173
v -0.4751617 0.03136459 0.7298328
v -1.053655 0.03136459 0.2550366
v -0.5194623 0.03136459 0.8628173
v -1.220703E-06 0.03136459 0.8628173
v -6.103515E-07 0.03136459 0.7298328
v 0.5194598 0.03136459 0.8628173
v 0.4751611 0.03136459 0.7298328
v -0.9637988 0.03136459 -0.202063
v -1.053655 0.03136459 -0.2397204
v 0.8542737 0.03136459 0.6490173
v 0.7814215 0.03136459 0.5489856
v -0.8542755 0.03136459 -0.6490179
v -0.7814221 0.03136459 -0.5489874
v -0.4751617 0.03136459 -0.7298364
v -0.5194623 0.03136459 -0.8628186
v -6.103515E-07 0.03136459 -0.7298364
v -1.220703E-06 0.03136459 -0.8628186
v 0.9637976 0.03136459 0.2164368
v 1.053652 0.03136459 0.2550366
v 1.053652 0.03136459 -0.2397204
v 0.9637976 0.03136459 -0.202063
v 0.4751611 0.03136459 -0.7298364
v 0.5194598 0.03136459 -0.8628186
v 0.8542737 0.03136459 -0.6490179
v 0.7814215 0.03136459 -0.5489874
v -0.787876 0.03136459 0.1405042
v -0.6512158 0.03136459 0.3450183
v -0.7814221 0.03136459 0.5489856
v -0.3872528 0.03136459 0.4502698
v -0.9637988 0.03136459 0.2164368
v -0.4751617 0.03136459 0.7298328
v -6.103515E-07 0.03136459 0.7298328
v 0 0.03136459 0.4502698
v 0.4751611 0.03136459 0.7298328
v 0.3872528 0.03136459 0.4502698
v -0.787876 0.03136459 -0.1288403
v -0.9637988 0.03136459 -0.202063
v 0.7814215 0.03136459 0.5489856
v 0.6512158 0.03136459 0.3450183
v -0.7814221 0.03136459 -0.5489874
v -0.6512158 0.03136459 -0.3450207
v -0.3872528 0.03136459 -0.4502734
v -0.4751617 0.03136459 -0.7298364
v 0 0.03136459 -0.4502734
v -6.103515E-07 0.03136459 -0.7298364
v 0.7878765 0.03136459 0.1405042
v 0.9637976 0.03136459 0.2164368
v 0.9637976 0.03136459 -0.202063
v 0.7878765 0.03136459 -0.1288403
v 0.3872528 0.03136459 -0.4502734
v 0.4751611 0.03136459 -0.7298364
v 0.7814215 0.03136459 -0.5489874
v 0.6512158 0.03136459 -0.3450207
v -0.7097473 0.03136459 0.1199561
v -0.6086444 0.03136459 0.2809277
v -0.6512158 0.03136459 0.3450183
v -0.3700995 0.03136459 0.3734705
v -0.787876 0.03136459 0.1405042
v -0.3872528 0.03136459 0.4502698
v 0 0.03136459 0.4502698
v 0 0.03136459 0.3734705
v 0.3872528 0.03136459 0.4502698
v 0.3701001 0.03136459 0.3734705
v -0.7097473 0.03136459 -0.108717
v -0.787876 0.03136459 -0.1288403
v 0.6512158 0.03136459 0.3450183
v 0.6086438 0.03136459 0.2809277
v -0.6512158 0.03136459 -0.3450207
v -0.6086444 0.03136459 -0.2809289
v -0.3700995 0.03136459 -0.3734741
v -0.3872528 0.03136459 -0.4502734
v 0 0.03136459 -0.3734741
v 0 0.03136459 -0.4502734
v 0.7097467 0.03136459 0.1199561
v 0.7878765 0.03136459 0.1405042
v 0.7878765 0.03136459 -0.1288403
v 0.7097467 0.03136459 -0.108717
v 0.3701001 0.03136459 -0.3734741
v 0.3872528 0.03136459 -0.4502734
v 0.6512158 0.03136459 -0.3450207
v 0.6086438 0.03136459 -0.2809289
v -0.6086444 0.03136459 -0.2809289
v -0.5098022 0.03136459 -0.1561743
v -0.576809 0.03136459 -0.05122681
v -0.3099969 0.03136459 -0.2076221
v -0.7097473 0.03136459 -0.108717
v -0.3700995 0.03136459 -0.3734741
v -0.7097473 0.03136459 0.1199561
v 0 0.03136459 -0.2076221
v -0.576809 0.03136459 0.06141846
v 0 0.03136459 -0.3734741
v -0.6086444 0.03136459 0.2809277
v -0.5098022 0.03136459 0.1561731
v 0.3099976 0.03136459 -0.2076221
v 0.3701001 0.03136459 -0.3734741
v -0.3099969 0.03136459 0.2076184
v -0.3700995 0.03136459 0.3734705
v 0 0.03136459 0.3734705
v 0 0.03136459 0.2076184
v 0.3701001 0.03136459 0.3734705
v 0.3099976 0.03136459 0.2076184
v 0.6086438 0.03136459 -0.2809289
v 0.5098022 0.03136459 -0.1561743
v 0.5768097 0.03136459 -0.05122681
v 0.7097467 0.03136459 -0.108717
v 0.6086438 0.03136459 0.2809277
v 0.5098022 0.03136459 0.1561731
v 0.5768097 0.03136459 0.06141846
v 0.7097467 0.03136459 0.1199561
vt 0.03743768 0.3317091
vt 0.03743768 0.3317091
vt 0.03743768 0.3317091
vt 0.03743768 0.3317091
vt 0.03743768 0.3317091
vt 0.03743768 0.3317091
vt 0.03743768 0.3317091
vt 0.03743768 0.3317091
vt 0.03743768 0.3296615
vt 0.03743768 0.3296615
vt 0.03743768 0.3296615
vt 0.03743768 0.3296615
vt 0.03743768 0.3296615
vt 0.03743768 0.3296615
vt 0.03743768 0.3317091
vt 0.03743768 0.3317091
vt 0.03743768 0.3317091
vt 0.03743768 0.3317091
vt 0.03743768 0.3317091
vt 0.03743768 0.3317091
vt 0.03743768 0.3317091
vt 0.03743768 0.3317091
vt 0.03743768 0.3317091
vt 0.03743768 0.3317091
vt 0.03743768 0.3317091
vt 0.03743768 0.3317091
vt 0.03743768 0.3317091
vt 0.03743768 0.3317091
vt 0.03743768 0.3317091
vt 0.03743768 0.3317091
vt 0.03743768 0.3317091
vt 0.03743768 0.3317091
vt 0.03743768 0.3317091
vt 0.03743768 0.3317091
vt 0.03743768 0.3317091
vt 0.03743768 0.3317091
vt 0.03743768 0.3317091
vt 0.03743768 0.3317091
vt 0.03743768 0.3317091
vt 0.03743768 0.3317091
vt 0.03743768 0.3317091
vt 0.03743768 0.3317091
vt 0.03743768 0.375997
vt 0.03743768 0.375997
vt 0.03743768 0.375997
vt 0.03743768 0.375997
vt 0.03743768 0.375997
vt 0.03743768 0.375997
vt 0.03743768 0.375997
vt 0.03743768 0.375997
vt 0.03743768 0.375997
vt 0.03743768 0.375997
vt 0.03743768 0.375997
vt 0.03743768 0.375997
vt 0.03743768 0.375997
vt 0.03743768 0.375997
vt 0.03743768 0.375997
vt 0.03743768 0.375997
vt 0.03743768 0.375997
vt 0.03743768 0.375997
vt 0.03743768 0.375997
vt 0.03743768 0.375997
vt 0.03743768 0.3317091
vt 0.03743768 0.3317091
vt 0.03743768 0.3317091
vt 0.03743768 0.3317091
vt 0.03743768 0.3317091
vt 0.03743768 0.3317091
vt 0.03743768 0.3317091
vt 0.03743768 0.3317091
vt 0.03743768 0.3317091
vt 0.03743768 0.3317091
vt 0.03743768 0.3317091
vt 0.03743768 0.3317091
vt 0.03743768 0.3317091
vt 0.03743768 0.3317091
vt 0.03743768 0.3317091
vt 0.03743768 0.3317091
vt 0.03743768 0.3317091
vt 0.03743768 0.3317091
vt 0.03743768 0.3317091
vt 0.03743768 0.3317091
vt 0.03743768 0.3317091
vt 0.03743768 0.3317091
vt 0.03743768 0.3317091
vt 0.03743768 0.3317091
vt 0.03743768 0.3317091
vt 0.03743768 0.3317091
vt 0.03743768 0.3317091
vt 0.03743768 0.3317091
vt 0.03743768 0.3317091
vt 0.03743768 0.3317091
vt 0.03743768 0.3317091
vt 0.03743768 0.3317091
vt 0.03743768 0.3317091
vt 0.03743768 0.3317091
vt 0.03743768 0.3317091
vt 0.03743768 0.3317091
vt 0.03743768 0.3317091
vt 0.03743768 0.3317091
vt 0.03743768 0.3317091
vt 0.03743768 0.3317091
vt 0.03743768 0.3317091
vt 0.03743768 0.3317091
vt 0.03743768 0.3317091
vt 0.03743768 0.3317091
vt 0.03743768 0.3317091
vt 0.03743768 0.3317091
vt 0.03743768 0.3317091
vt 0.03743768 0.3317091
vt 0.03743768 0.3317091
vt 0.03743768 0.3317091
vt 0.03743768 0.3317091
vt 0.03743768 0.3317091
vt 0.03743768 0.3317091
vt 0.03743768 0.3317091
vt 0.03743768 0.3317091
vt 0.03743768 0.3317091
vt 0.03743768 0.3317091
vt 0.03743768 0.3317091
vt 0.03743768 0.3317091
vt 0.03743768 0.3317091
vt 0.03743768 0.3317091
vt 0.03743768 0.3317091
vt 0.03743768 0.3317091
vt 0.03743768 0.3317091
vt 0.03718168 0.3527723
vt 0.03718168 0.3527723
vt 0.03718168 0.3527723
vt 0.03718168 0.3527723
vt 0.03718168 0.3527723
vt 0.03718168 0.3527723
vt 0.03718168 0.3527723
vt 0.03718168 0.3527723
vt 0.03718168 0.3527723
vt 0.03718168 0.3527723
vt 0.03718167 0.3527723
vt 0.03718167 0.3527723
vt 0.03718168 0.3527723
vt 0.03718168 0.3527723
vt 0.03718167 0.3527723
vt 0.03718167 0.3527723
vt 0.03718167 0.3527723
vt 0.03718167 0.3527723
vt 0.03718167 0.3527723
vt 0.03718167 0.3527723
vt 0.03718168 0.3527723
vt 0.03718168 0.3527723
vt 0.03718167 0.3527723
vt 0.03718167 0.3527723
vt 0.03718167 0.3527723
vt 0.03718167 0.3527723
vt 0.03718167 0.3527723
vt 0.03718167 0.3527723
vt 0.03730155 0.3784584
vt 0.03730155 0.3784584
vt 0.03730155 0.3784584
vt 0.03730155 0.3784584
vt 0.03730155 0.3784584
vt 0.03730155 0.3784584
vt 0.03730155 0.3784584
vt 0.03730155 0.3784584
vt 0.03730155 0.3784584
vt 0.03730155 0.3784584
vt 0.03730155 0.3784583
vt 0.03730155 0.3784583
vt 0.03730155 0.3784584
vt 0.03730155 0.3784584
vt 0.03730155 0.3784584
vt 0.03730155 0.3784584
vt 0.03730155 0.3784584
vt 0.03730155 0.3784584
vt 0.03730155 0.3784584
vt 0.03730155 0.3784584
vt 0.03730155 0.3784584
vt 0.03730155 0.3784584
vt 0.03730155 0.3784583
vt 0.03730155 0.3784583
vt 0.03730155 0.3784584
vt 0.03730155 0.3784584
vt 0.03730155 0.3784584
vt 0.03730155 0.3784584
vt 0.03718167 0.3527723
vt 0.03718167 0.3527723
vt 0.03718167 0.3527723
vt 0.03718167 0.3527723
vt 0.03718167 0.3527723
vt 0.03718167 0.3527723
vt 0.03718168 0.3527723
vt 0.03718167 0.3527723
vt 0.03718168 0.3527723
vt 0.03718167 0.3527723
vt 0.03718168 0.3527723
vt 0.03718168 0.3527723
vt 0.03718167 0.3527723
vt 0.03718167 0.3527723
vt 0.03718168 0.3527723
vt 0.03718168 0.3527723
vt 0.03718168 0.3527723
vt 0.03718168 0.3527723
vt 0.03718168 0.3527723
vt 0.03718168 0.3527723
vt 0.03718167 0.3527723
vt 0.03718167 0.3527723
vt 0.03718167 0.3527723
vt 0.03718167 0.3527723
vt 0.03718168 0.3527723
vt 0.03718168 0.3527723
vt 0.03718168 0.3527723
vt 0.03718168 0.3527723
vn -0.9236601 0.3832126 0
vn -0.9236601 0.3832126 0
vn -0.9236601 0.3832126 0
vn -0.9236601 0.3832126 0
vn 0.9236411 0.3832587 0
vn 0.9236411 0.3832587 0
vn 0.9236411 0.3832587 0
vn 0.9236411 0.3832587 0
vn 0 -1 0
vn 0 -1 0
vn 0 -1 0
vn 0 -1 0
vn 0 -1 0
vn 0 -1 0
vn 0 0.5166668 0.8561865
vn 0 0.5166668 0.8561865
vn 0 0.5166668 0.8561865
vn 0 0.5166668 0.8561865
vn 0 0.5166668 0.8561865
vn 0 0.5166668 0.8561865
vn 0 0.5166424 -0.8562013
vn 0 0.5166424 -0.8562013
vn 0 0.5166424 -0.8562013
vn 0 0.5166424 -0.8562013
vn 0 0.5166424 -0.8562013
vn 0 0.5166424 -0.8562013
vn -0.8129905 0.4285465 -0.3942008
vn -0.8129905 0.4285465 -0.3942008
vn -0.8129905 0.4285465 -0.3942008
vn -0.8129905 0.4285465 -0.3942008
vn 0.812977 0.4285787 -0.3941936
vn 0.812977 0.4285787 -0.3941936
vn 0.812977 0.4285787 -0.3941936
vn 0.812977 0.4285787 -0.3941936
vn 0.806129 0.4305214 0.4059646
vn 0.806129 0.4305214 0.4059646
vn 0.806129 0.4305214 0.4059646
vn 0.806129 0.4305214 0.4059646
vn -0.8061424 0.4304894 0.405972
vn -0.8061424 0.4304894 0.405972
vn -0.8061424 0.4304894 0.405972
vn -0.8061424 0.4304894 0.405972
vn 0 1 0
vn 0 1 0
vn 0 1 0
vn 0 1 0
vn 0 1 0
vn 0 1 0
vn 0 1 0
vn 0 1 0
vn 0 1 0
vn 0 1 0
vn 0 1 0
vn 0 1 0
vn 0 1 0
vn 0 1 0
vn 0 1 0
vn 0 1 0
vn 0 1 0
vn 0 1 0
vn 0 1 0
vn 0 1 0
vn -0.4648854 0.5088077 0.7245663
vn -0.4648854 0.5088077 0.7245663
vn -0.4648854 0.5088077 0.7245663
vn -0.4648854 0.5088077 0.7245663
vn 0 -1 0
vn 0 -1 0
vn 0 -1 0
vn 0 -1 0
vn 0 -1 0
vn 0 -1 0
vn 0 -1 0
vn 0 -1 0
vn 0 -1 0
vn 0 -1 0
vn 0 -1 0
vn 0 -1 0
vn 0 -1 0
vn 0 -1 0
vn 0 -1 0
vn 0 -1 0
vn 0 -1 0
vn 0 -1 0
vn 0 -1 0
vn 0 -1 0
vn -0.464893 0.5087867 -0.7245762
vn -0.464893 0.5087867 -0.7245762
vn -0.464893 0.5087867 -0.7245762
vn -0.464893 0.5087867 -0.7245762
vn 0.4648797 0.5088246 0.7245581
vn 0.4648797 0.5088246 0.7245581
vn 0.4648797 0.5088246 0.7245581
vn 0.4648797 0.5088246 0.7245581
vn 0.4648873 0.5088035 -0.7245679
vn 0.4648873 0.5088035 -0.7245679
vn 0.4648873 0.5088035 -0.7245679
vn 0.4648873 0.5088035 -0.7245679
vn 0 1 0
vn 0 1 0
vn 0 1 0
vn 0 1 0
vn 0 1 0
vn 0 1 0
vn 0 1 0
vn 0 1 0
vn 0 1 0
vn 0 1 0
vn 0 1 0
vn 0 1 0
vn 0 1 0
vn 0 1 0
vn 0 1 0
vn 0 1 0
vn 0 1 0
vn 0 1 0
vn 0 1 0
vn 0 1 0
vn 0 1 0
vn 0 1 0
vn 0 1 0
vn 0 1 0
vn 0 1 0
vn 0 1 0
vn 0 1 0
vn 0 1 0
vn 0 1 0
vn 0 1 0
vn 0 1 0
vn 0 1 0
vn 0 1 0
vn 0 1 0
vn 0 1 0
vn 0 1 0
vn 0 1 0
vn 0 1 0
vn 0 1 0
vn 0 1 0
vn 0 1 0
vn 0 1 0
vn 0 1 0
vn 0 1 0
vn 0 1 0
vn 0 1 0
vn 0 1 0
vn 0 1 0
vn 0 1 0
vn 0 1 0
vn 0 1 0
vn 0 1 0
vn 0 1 0
vn 0 1 0
vn 0 1 0
vn 0 1 0
vn 0 1 0
vn 0 1 0
vn 0 1 0
vn 0 1 0
vn 0 1 0
vn 0 1 0
vn 0 1 0
vn 0 1 0
vn 0 1 0
vn 0 1 0
vn 0 1 0
vn 0 1 0
vn 0 1 0
vn 0 1 0
vn 0 1 0
vn 0 1 0
vn 0 1 0
vn 0 1 0
vn 0 1 0
vn 0 1 0
vn 0 1 0
vn 0 1 0
vn 0 1 0
vn 0 1 0
vn 0 1 0
vn 0 1 0
vn 0 1 0
vn 0 1 0
vn 0 1 0
vn 0 1 0
vn 0 1 0
vn 0 1 0
vn 0 1 0
vn 0 1 0
vn 0 1 0
vn 0 1 0
vn 0 1 0
vn 0 1 0
vn 0 1 0
vn 0 1 0
vn 0 1 0
vn 0 1 0
vn 0 1 0
vn 0 1 0
vn 0 1 0
vn 0 1 0
vn 0 1 0
vn 0 1 0
vn 0 1 0
vn 0 1 0
vn 0 1 0
vn 0 1 0
vn 0 1 0
vn 0 1 0
vn 0 1 0
vn 0 1 0
g SM_Prop_Rug_01_0
f 3/3/3 2/2/2 1/1/1
f 4/4/4 3/3/3 1/1/1
f 7/7/7 6/6/6 5/5/5
f 8/8/8 7/7/7 5/5/5
f 11/11/11 10/10/10 9/9/9
f 12/12/12 11/11/11 9/9/9
f 12/12/12 9/9/9 13/13/13
f 14/14/14 12/12/12 13/13/13
f 17/17/17 16/16/16 15/15/15
f 18/18/18 17/17/17 15/15/15
f 18/18/18 15/15/15 19/19/19
f 20/20/20 18/18/18 19/19/19
f 23/23/23 22/22/22 21/21/21
f 22/22/22 24/24/24 21/21/21
f 22/22/22 25/25/25 24/24/24
f 25/25/25 26/26/26 24/24/24
f 29/29/29 28/28/28 27/27/27
f 30/30/30 29/29/29 27/27/27
f 33/33/33 32/32/32 31/31/31
f 34/34/34 33/33/33 31/31/31
f 37/37/37 36/36/36 35/35/35
f 38/38/38 37/37/37 35/35/35
f 41/41/41 40/40/40 39/39/39
f 42/42/42 41/41/41 39/39/39
f 45/45/45 44/44/44 43/43/43
f 46/46/46 45/45/45 43/43/43
f 46/46/46 43/43/43 47/47/47
f 48/48/48 45/45/45 46/46/46
f 49/49/49 46/46/46 47/47/47
f 49/49/49 47/47/47 50/50/50
f 51/51/51 48/48/48 46/46/46
f 51/51/51 46/46/46 49/49/49
f 48/48/48 51/51/51 52/52/52
f 51/51/51 53/53/53 52/52/52
f 51/51/51 54/54/54 53/53/53
f 54/54/54 51/51/51 49/49/49
f 54/54/54 55/55/55 53/53/53
f 56/56/56 49/49/49 50/50/50
f 54/54/54 49/49/49 56/56/56
f 54/54/54 57/57/57 55/55/55
f 57/57/57 54/54/54 56/56/56
f 57/57/57 58/58/58 55/55/55
f 57/57/57 59/59/59 58/58/58
f 57/57/57 56/56/56 59/59/59
f 59/59/59 60/60/60 58/58/58
f 56/56/56 61/61/61 59/59/59
f 56/56/56 50/50/50 61/61/61
f 50/50/50 62/62/62 61/61/61
f 65/65/65 64/64/64 63/63/63
f 66/66/66 65/65/65 63/63/63
f 69/69/69 68/68/68 67/67/67
f 70/70/70 69/69/69 67/67/67
f 70/70/70 67/67/67 71/71/71
f 70/70/70 72/72/72 69/69/69
f 72/72/72 73/73/73 69/69/69
f 72/72/72 74/74/74 73/73/73
f 75/75/75 70/70/70 71/71/71
f 74/74/74 76/76/76 73/73/73
f 75/75/75 71/71/71 77/77/77
f 71/71/71 78/78/78 77/77/77
f 75/75/75 77/77/77 79/79/79
f 80/80/80 75/75/75 79/79/79
f 80/80/80 79/79/79 81/81/81
f 82/82/82 80/80/80 81/81/81
f 82/82/82 81/81/81 83/83/83
f 84/84/84 82/82/82 83/83/83
f 82/82/82 84/84/84 74/74/74
f 84/84/84 85/85/85 74/74/74
f 74/74/74 85/85/85 76/76/76
f 85/85/85 86/86/86 76/76/76
f 89/89/89 88/88/88 87/87/87
f 90/90/90 89/89/89 87/87/87
f 93/93/93 92/92/92 91/91/91
f 94/94/94 93/93/93 91/91/91
f 97/97/97 96/96/96 95/95/95
f 98/98/98 97/97/97 95/95/95
f 101/101/101 100/100/100 99/99/99
f 102/102/102 100/100/100 101/101/101
f 103/103/103 101/101/101 99/99/99
f 104/104/104 102/102/102 101/101/101
f 104/104/104 105/105/105 102/102/102
f 105/105/105 106/106/106 102/102/102
f 105/105/105 107/107/107 106/106/106
f 107/107/107 108/108/108 106/106/106
f 103/103/103 99/99/99 109/109/109
f 110/110/110 103/103/103 109/109/109
f 107/107/107 111/111/111 108/108/108
f 111/111/111 112/112/112 108/108/108
f 110/110/110 109/109/109 113/113/113
f 109/109/109 114/114/114 113/113/113
f 113/113/113 114/114/114 115/115/115
f 116/116/116 113/113/113 115/115/115
f 116/116/116 115/115/115 117/117/117
f 118/118/118 116/116/116 117/117/117
f 119/119/119 112/112/112 111/111/111
f 120/120/120 119/119/119 111/111/111
f 120/120/120 121/121/121 119/119/119
f 121/121/121 122/122/122 119/119/119
f 118/118/118 117/117/117 123/123/123
f 124/124/124 118/118/118 123/123/123
f 121/121/121 125/125/125 122/122/122
f 124/124/124 123/123/123 125/125/125
f 125/125/125 126/126/126 122/122/122
f 123/123/123 126/126/126 125/125/125
f 129/129/129 128/128/128 127/127/127
f 130/130/130 128/128/128 129/129/129
f 131/131/131 129/129/129 127/127/127
f 132/132/132 130/130/130 129/129/129
f 132/132/132 133/133/133 130/130/130
f 133/133/133 134/134/134 130/130/130
f 133/133/133 135/135/135 134/134/134
f 135/135/135 136/136/136 134/134/134
f 131/131/131 127/127/127 137/137/137
f 138/138/138 131/131/131 137/137/137
f 135/135/135 139/139/139 136/136/136
f 139/139/139 140/140/140 136/136/136
f 138/138/138 137/137/137 141/141/141
f 137/137/137 142/142/142 141/141/141
f 141/141/141 142/142/142 143/143/143
f 144/144/144 141/141/141 143/143/143
f 144/144/144 143/143/143 145/145/145
f 146/146/146 144/144/144 145/145/145
f 147/147/147 140/140/140 139/139/139
f 148/148/148 147/147/147 139/139/139
f 148/148/148 149/149/149 147/147/147
f 149/149/149 150/150/150 147/147/147
f 146/146/146 145/145/145 151/151/151
f 152/152/152 146/146/146 151/151/151
f 149/149/149 153/153/153 150/150/150
f 152/152/152 151/151/151 153/153/153
f 153/153/153 154/154/154 150/150/150
f 151/151/151 154/154/154 153/153/153
f 157/157/157 156/156/156 155/155/155
f 158/158/158 156/156/156 157/157/157
f 159/159/159 157/157/157 155/155/155
f 160/160/160 158/158/158 157/157/157
f 160/160/160 161/161/161 158/158/158
f 161/161/161 162/162/162 158/158/158
f 161/161/161 163/163/163 162/162/162
f 163/163/163 164/164/164 162/162/162
f 159/159/159 155/155/155 165/165/165
f 166/166/166 159/159/159 165/165/165
f 163/163/163 167/167/167 164/164/164
f 167/167/167 168/168/168 164/164/164
f 166/166/166 165/165/165 169/169/169
f 165/165/165 170/170/170 169/169/169
f 169/169/169 170/170/170 171/171/171
f 172/172/172 169/169/169 171/171/171
f 172/172/172 171/171/171 173/173/173
f 174/174/174 172/172/172 173/173/173
f 175/175/175 168/168/168 167/167/167
f 176/176/176 175/175/175 167/167/167
f 176/176/176 177/177/177 175/175/175
f 177/177/177 178/178/178 175/175/175
f 174/174/174 173/173/173 179/179/179
f 180/180/180 174/174/174 179/179/179
f 177/177/177 181/181/181 178/178/178
f 180/180/180 179/179/179 181/181/181
f 181/181/181 182/182/182 178/178/178
f 179/179/179 182/182/182 181/181/181
f 185/185/185 184/184/184 183/183/183
f 183/183/183 184/184/184 186/186/186
f 187/187/187 185/185/185 183/183/183
f 188/188/188 183/183/183 186/186/186
f 187/187/187 189/189/189 185/185/185
f 188/188/188 186/186/186 190/190/190
f 189/189/189 191/191/191 185/185/185
f 192/192/192 188/188/188 190/190/190
f 189/189/189 193/193/193 191/191/191
f 193/193/193 194/194/194 191/191/191
f 192/192/192 190/190/190 195/195/195
f 196/196/196 192/192/192 195/195/195
f 197/197/197 194/194/194 193/193/193
f 198/198/198 197/197/197 193/193/193
f 198/198/198 199/199/199 197/197/197
f 199/199/199 200/200/200 197/197/197
f 199/199/199 201/201/201 200/200/200
f 201/201/201 202/202/202 200/200/200
f 196/196/196 195/195/195 203/203/203
f 195/195/195 204/204/204 203/203/203
f 203/203/203 204/204/204 205/205/205
f 206/206/206 203/203/203 205/205/205
f 201/201/201 207/207/207 202/202/202
f 207/207/207 208/208/208 202/202/202
f 206/206/206 205/205/205 209/209/209
f 209/209/209 208/208/208 207/207/207
f 210/210/210 206/206/206 209/209/209
f 210/210/210 209/209/209 207/207/207
