g SM_Prop_Toy_Train_03_Wheel_1
v -0.01175329 -0.02238105 -0.02238105
v -0.01175329 -1.629707E-09 -0.03165158
v -0.01175329 0.02238104 -0.02238105
v -0.01175329 0.03165158 -4.905344E-09
v -0.01175329 0.02238104 0.02238105
v -0.01175329 -1.629707E-09 0.03165158
v -0.01175329 -0.02238105 0.02238105
v -0.01175329 -0.03165159 -4.905344E-09
v 0.01175328 -0.02238105 -0.02238105
v 0.01175328 -1.629707E-09 -0.03165158
v 0.01175328 0.02238104 -0.02238105
v 0.01175328 0.03165158 -4.905344E-09
v 0.01175328 0.02238104 0.02238105
v 0.01175328 -1.629707E-09 0.03165158
v 0.01175328 -0.02238105 0.02238105
v 0.01175328 -0.03165159 -4.905344E-09
v -0.01175329 -1.629707E-09 -4.905344E-09
v 0.01175328 -1.629707E-09 -1.369728E-10
v -0.01175329 -1.629707E-09 -0.03165158
v 0.01175328 -1.629707E-09 -0.03165158
v -0.01175329 0.02238104 -0.02238105
v 0.01175328 0.02238104 -0.02238105
v -0.01175329 0.03165158 -4.905344E-09
v 0.01175328 0.03165158 -4.905344E-09
v -0.01175329 0.02238104 0.02238105
v 0.01175328 0.02238104 0.02238105
v -0.01175329 -1.629707E-09 0.03165158
v 0.01175328 -1.629707E-09 0.03165158
v -0.01175329 -0.02238105 0.02238105
v 0.01175328 -0.02238105 0.02238105
v -0.01175329 -0.03165159 -4.905344E-09
v 0.01175328 -0.03165159 -4.905344E-09
v 0.01175328 -0.02238105 -0.02238105
v -0.01175329 -0.02238105 -0.02238105
v -0.01175329 -0.02238105 -0.02238105
v -0.01175329 -0.03165159 -4.905344E-09
v -0.01175329 -0.02238105 0.02238105
v -0.01175329 -1.629707E-09 0.03165158
v -0.01175329 0.02238104 0.02238105
v -0.01175329 0.03165158 -4.905344E-09
v -0.01175329 0.02238104 -0.02238105
v -0.01175329 -1.629707E-09 -0.03165158
v 0.01175328 -0.02238105 -0.02238105
v 0.01175328 -1.629707E-09 -0.03165158
v 0.01175328 0.02238104 -0.02238105
v 0.01175328 0.03165158 -4.905344E-09
v 0.01175328 0.02238104 0.02238105
v 0.01175328 -1.629707E-09 0.03165158
v 0.01175328 -0.02238105 0.02238105
v 0.01175328 -0.03165159 -4.905344E-09
vt 0.005776376 0.04510119
vt 0.005686998 0.04480338
vt 0.005791813 0.044554
vt 0.006042659 0.04449725
vt 0.00629735 0.04468322
vt 0.00639233 0.0450047
vt 0.006267786 0.0452558
vt 0.006011337 0.04528883
vt 0.005528271 0.04517183
vt 0.005436301 0.04486699
vt 0.00553757 0.04461299
vt 0.005786508 0.04455679
vt 0.006042242 0.04474884
vt 0.006140292 0.04507855
vt 0.006018817 0.0453342
vt 0.005763918 0.04536556
vt 0.006033331 0.04489853
vt 0.00578174 0.04496697
vt 0.005686998 0.04480338
vt 0.005436301 0.04486699
vt 0.005791813 0.044554
vt 0.00553757 0.04461299
vt 0.006042659 0.04449725
vt 0.005786508 0.04455679
vt 0.00629735 0.04468322
vt 0.006042242 0.04474884
vt 0.00639233 0.0450047
vt 0.006140292 0.04507855
vt 0.006267786 0.0452558
vt 0.006018817 0.0453342
vt 0.006011337 0.04528883
vt 0.005763918 0.04536556
vt 0.005528271 0.04517183
vt 0.005776376 0.04510119
vt 0.005776376 0.04510119
vt 0.006011337 0.04528883
vt 0.006267786 0.0452558
vt 0.00639233 0.0450047
vt 0.00629735 0.04468322
vt 0.006042659 0.04449725
vt 0.005791813 0.044554
vt 0.005686998 0.04480338
vt 0.005528271 0.04517183
vt 0.005436301 0.04486699
vt 0.00553757 0.04461299
vt 0.005786508 0.04455679
vt 0.006042242 0.04474884
vt 0.006140292 0.04507855
vt 0.006018817 0.0453342
vt 0.005763918 0.04536556
vn 0 -0.3826832 -0.9238796
vn 0 -0.3826832 -0.9238796
vn 0 0.3826832 -0.9238796
vn 0 0.9238795 -0.3826834
vn 0 0.9238795 0.3826834
vn 0 0.3826834 0.9238795
vn 0 -0.3826834 0.9238795
vn 0 -0.9238794 0.3826835
vn 0 -0.3826832 -0.9238796
vn 0 -0.3826832 -0.9238796
vn 0 0.3826832 -0.9238796
vn 0 0.9238795 -0.3826834
vn 0 0.9238795 0.3826834
vn 0 0.3826834 0.9238795
vn 0 -0.3826834 0.9238795
vn 0 -0.9238794 0.3826835
vn -1 0 0
vn 1 0 0
vn 0 0.3826832 -0.9238796
vn 0 0.3826832 -0.9238796
vn 0 0.9238795 -0.3826834
vn 0 0.9238795 -0.3826834
vn 0 0.9238795 0.3826834
vn 0 0.9238795 0.3826834
vn 0 0.3826834 0.9238795
vn 0 0.3826834 0.9238795
vn 0 -0.3826834 0.9238795
vn 0 -0.3826834 0.9238795
vn 0 -0.9238794 0.3826835
vn 0 -0.9238794 0.3826835
vn 0 -0.9238794 -0.3826836
vn 0 -0.9238794 -0.3826836
vn 0 -0.9238794 -0.3826836
vn 0 -0.9238794 -0.3826836
vn -1 0 0
vn -1 0 0
vn -1 0 0
vn -1 0 0
vn -1 0 0
vn -1 0 0
vn -1 0 0
vn -1 0 0
vn 1 0 0
vn 1 0 0
vn 1 0 0
vn 1 0 0
vn 1 0 0
vn 1 0 0
vn 1 0 0
vn 1 0 0
g SM_Prop_Toy_Train_03_Wheel_1_0
f 10/10/10 9/9/9 1/1/1
f 2/2/2 10/10/10 1/1/1
f 11/11/11 20/20/20 19/19/19
f 3/3/3 11/11/11 19/19/19
f 12/12/12 22/22/22 21/21/21
f 4/4/4 12/12/12 21/21/21
f 13/13/13 24/24/24 23/23/23
f 5/5/5 13/13/13 23/23/23
f 14/14/14 26/26/26 25/25/25
f 6/6/6 14/14/14 25/25/25
f 15/15/15 28/28/28 27/27/27
f 7/7/7 15/15/15 27/27/27
f 16/16/16 30/30/30 29/29/29
f 8/8/8 16/16/16 29/29/29
f 33/33/33 32/32/32 31/31/31
f 34/34/34 33/33/33 31/31/31
f 36/36/36 17/17/17 35/35/35
f 35/35/35 17/17/17 42/42/42
f 37/37/37 17/17/17 36/36/36
f 42/42/42 17/17/17 41/41/41
f 38/38/38 17/17/17 37/37/37
f 41/41/41 17/17/17 40/40/40
f 39/39/39 17/17/17 38/38/38
f 40/40/40 17/17/17 39/39/39
f 44/44/44 18/18/18 43/43/43
f 43/43/43 18/18/18 50/50/50
f 45/45/45 18/18/18 44/44/44
f 50/50/50 18/18/18 49/49/49
f 46/46/46 18/18/18 45/45/45
f 49/49/49 18/18/18 48/48/48
f 47/47/47 18/18/18 46/46/46
f 48/48/48 18/18/18 47/47/47
