g SM_Prop_AirDuct_Ceiling_End_01
v 0.443201 0.3279308 -0.01607468
v 0.457648 0.3080462 -0.01607468
v 0.4367401 0.3080462 -0.01607468
v 0.443201 0.2881615 -0.01607468
v 0.4198253 0.2957567 -0.01607468
v 0.4198253 0.3203356 0.1206631
v 0.443201 0.3279308 0.1206631
v 0.4198253 0.3203356 -0.01607468
v 0.4198253 0.2957567 0.1206631
v 0.457648 0.3080462 0.1206631
v 0.443201 0.2881615 0.1206631
v 0.4744 0.3520567 0
v 0.4744 0.3520567 0.1099998
v 0.4744 -0.07541583 0
v -0.4744 -0.07541583 0.1099998
v -0.4744 -0.07541583 0
v 0.4743998 -0.07541583 0.1099998
v 0.4198253 -0.04121481 -0.01607468
v 0.457648 -0.02892536 -0.01607468
v 0.443201 -0.04881001 -0.01607468
v 0.443201 -0.04881001 0.1206631
v 0.457648 -0.02892536 0.1206631
v 0.4198253 -0.04121481 0.1206631
v 0.4198253 -0.01663593 -0.01607468
v 0.443201 -0.009040718 -0.01607468
v 0.4198253 -0.01663593 0.1206631
v 0.443201 -0.009040718 0.1206631
v -0.4744 0.3520567 0.1099998
v -0.4306002 -0.04881001 0.1206631
v -0.4161533 -0.02892536 0.1206631
v -0.4539759 -0.04121481 0.1206631
v -0.4539759 -0.04121481 -0.01607468
v -0.4161533 -0.02892536 -0.01607468
v -0.4306002 -0.04881001 -0.01607468
v -0.4306002 -0.009040718 0.1206631
v -0.4539759 -0.01663593 0.1206631
v -0.4306002 -0.009040718 -0.01607468
v -0.4539759 -0.01663593 -0.01607468
v -0.4744 0.3520567 0
v -0.4306002 0.2927386 0.1206631
v -0.4161533 0.3126226 0.1206631
v -0.4539759 0.3003338 0.1206631
v -0.4539759 0.3003338 -0.01607468
v -0.4161533 0.3126226 -0.01607468
v -0.4306002 0.2927386 -0.01607468
v -0.4306002 0.3325073 0.1206631
v -0.4539759 0.324912 0.1206631
v -0.4306002 0.3325073 -0.01607468
v -0.4539759 0.324912 -0.01607468
v 0.4033769 0.311002 0.1099998
v -0.4033769 0.311002 0.1099998
v -0.4033769 -0.03436115 0.1099998
v 0.4033766 -0.03436115 0.1099998
v 0.4033766 0.01406168 0.1099998
v -0.4033769 0.01406168 0.1099998
v 0.4033767 0.06248394 0.1099998
v -0.4033769 0.06248394 0.1099998
v 0.4033767 0.1109062 0.1099998
v -0.4033769 0.1109062 0.1099998
v 0.4033767 0.1593284 0.1099998
v -0.4033769 0.1593284 0.1099998
v 0.4033767 0.2077507 0.1099998
v -0.4033769 0.2077507 0.1099998
v 0.4033769 0.2625799 0.1099999
v -0.4033769 0.2625799 0.1099999
v -0.4033769 0.02411907 0.06742904
v -0.4033769 0.05242595 0.06742904
v 0.4033766 0.02411907 0.06742904
v 0.4033767 0.05242595 0.06742904
v -0.4033769 0.1209635 0.06742904
v -0.4033769 0.1492704 0.06742904
v 0.4033767 0.1209635 0.06742904
v 0.4033767 0.1492704 0.06742904
v -0.4033769 0.217808 0.06742904
v -0.4033769 0.2525218 0.06742914
v 0.4033767 0.217808 0.06742904
v 0.4033768 0.2525218 0.06742905
v 0.443201 0.3279308 -0.01607468
v 0.4198253 0.2957567 -0.01607468
v 0.4198253 0.3203356 -0.01607468
v 0.4198253 0.3203356 0.1206631
v 0.443201 0.3279308 0.1206631
v 0.443201 0.3279308 -0.01607468
v 0.457648 0.3080462 -0.01607468
v 0.443201 0.2881615 -0.01607468
v 0.4198253 0.2957567 -0.01607468
v 0.4198253 0.2957567 0.1206631
v 0.443201 0.2881615 0.1206631
v 0.4198253 0.2957567 0.1206631
v 0.457648 0.3080462 0.1206631
v 0.457648 0.3080462 0.1206631
v 0.457648 0.3080462 -0.01607468
v 0.443201 0.2881615 -0.01607468
v 0.443201 0.2881615 0.1206631
v 0.443201 0.3279308 0.1206631
v 0.4198253 0.3203356 0.1206631
v 0.4743998 -0.07541583 0.1099998
v 0.4744 -0.07541583 0
v 0.4198253 -0.01663593 -0.01607468
v 0.443201 -0.009040718 -0.01607468
v 0.4198253 -0.04121481 0.1206631
v 0.4198253 -0.04121481 -0.01607468
v 0.4198253 -0.01663593 -0.01607468
v 0.4198253 -0.01663593 0.1206631
v 0.443201 -0.009040718 0.1206631
v 0.443201 -0.009040718 -0.01607468
v 0.457648 -0.02892536 -0.01607468
v 0.457648 -0.02892536 0.1206631
v 0.443201 -0.04881001 0.1206631
v 0.443201 -0.04881001 -0.01607468
v 0.4198253 -0.04121481 -0.01607468
v 0.4198253 -0.04121481 0.1206631
v 0.457648 -0.02892536 0.1206631
v 0.457648 -0.02892536 -0.01607468
v 0.443201 -0.04881001 -0.01607468
v 0.443201 -0.04881001 0.1206631
v 0.443201 -0.009040718 0.1206631
v 0.4198253 -0.01663593 0.1206631
v 0.4744 0.3520567 0
v -0.4744 -0.07541583 0
v 0.4744 -0.07541583 0
v 0.4198253 0.3203356 -0.01607468
v -0.4161533 -0.02892536 0.1206631
v -0.4161533 -0.02892536 -0.01607468
v -0.4306002 -0.04881001 -0.01607468
v -0.4306002 -0.04881001 0.1206631
v -0.4306002 -0.04881001 0.1206631
v -0.4306002 -0.04881001 -0.01607468
v -0.4539759 -0.04121481 -0.01607468
v -0.4539759 -0.04121481 0.1206631
v -0.4306002 -0.009040718 0.1206631
v -0.4161533 -0.02892536 -0.01607468
v -0.4161533 -0.02892536 0.1206631
v -0.4539759 -0.04121481 0.1206631
v -0.4539759 -0.04121481 -0.01607468
v -0.4539759 -0.01663593 0.1206631
v -0.4539759 -0.01663593 0.1206631
v -0.4539759 -0.01663593 -0.01607468
v -0.4306002 -0.009040718 -0.01607468
v -0.4306002 -0.009040718 0.1206631
v -0.4306002 -0.009040718 -0.01607468
v -0.4539759 -0.01663593 -0.01607468
v -0.4744 0.3520567 0
v 0.4744 0.3520567 0
v 0.4744 0.3520567 0.1099998
v -0.4744 -0.07541583 0
v -0.4744 0.3520567 0
v -0.4744 0.3520567 0.1099998
v -0.4744 -0.07541583 0.1099998
v -0.4161533 0.3126226 0.1206631
v -0.4161533 0.3126226 -0.01607468
v -0.4306002 0.2927386 -0.01607468
v -0.4306002 0.2927386 0.1206631
v -0.4306002 0.2927386 0.1206631
v -0.4306002 0.2927386 -0.01607468
v -0.4539759 0.3003338 -0.01607468
v -0.4539759 0.3003338 0.1206631
v -0.4306002 0.3325073 0.1206631
v -0.4161533 0.3126226 -0.01607468
v -0.4161533 0.3126226 0.1206631
v -0.4539759 0.3003338 0.1206631
v -0.4539759 0.3003338 -0.01607468
v -0.4539759 0.324912 0.1206631
v -0.4539759 0.324912 0.1206631
v -0.4539759 0.324912 -0.01607468
v -0.4306002 0.3325073 -0.01607468
v -0.4306002 0.3325073 0.1206631
v -0.4306002 0.3325073 -0.01607468
v -0.4539759 0.324912 -0.01607468
v -0.4033769 0.06248394 0.1099998
v -0.4033769 0.05242595 0.06742904
v -0.4033769 0.02411907 0.06742904
v -0.4033769 0.01406168 0.1099998
v -0.4033769 0.01406168 0.1099998
v -0.4033769 0.02411907 0.06742904
v 0.4033766 0.02411907 0.06742904
v 0.4033766 0.01406168 0.1099998
v 0.4033766 0.01406168 0.1099998
v 0.4033766 0.02411907 0.06742904
v 0.4033767 0.05242595 0.06742904
v 0.4033767 0.06248394 0.1099998
v 0.4033767 0.06248394 0.1099998
v 0.4033767 0.05242595 0.06742904
v -0.4033769 0.05242595 0.06742904
v -0.4033769 0.06248394 0.1099998
v -0.4033769 0.1593284 0.1099998
v -0.4033769 0.1492704 0.06742904
v -0.4033769 0.1209635 0.06742904
v -0.4033769 0.1109062 0.1099998
v -0.4033769 0.1109062 0.1099998
v -0.4033769 0.1209635 0.06742904
v 0.4033767 0.1209635 0.06742904
v 0.4033767 0.1109062 0.1099998
v 0.4033767 0.1109062 0.1099998
v 0.4033767 0.1209635 0.06742904
v 0.4033767 0.1492704 0.06742904
v 0.4033767 0.1593284 0.1099998
v 0.4033767 0.1593284 0.1099998
v 0.4033767 0.1492704 0.06742904
v -0.4033769 0.1492704 0.06742904
v -0.4033769 0.1593284 0.1099998
v -0.4033769 0.2625799 0.1099999
v -0.4033769 0.2525218 0.06742914
v -0.4033769 0.217808 0.06742904
v -0.4033769 0.2077507 0.1099998
v -0.4033769 0.2077507 0.1099998
v -0.4033769 0.217808 0.06742904
v 0.4033767 0.217808 0.06742904
v 0.4033767 0.2077507 0.1099998
v 0.4033767 0.2077507 0.1099998
v 0.4033767 0.217808 0.06742904
v 0.4033768 0.2525218 0.06742905
v 0.4033769 0.2625799 0.1099999
v 0.4033769 0.2625799 0.1099999
v 0.4033768 0.2525218 0.06742905
v -0.4033769 0.2525218 0.06742914
v -0.4033769 0.2625799 0.1099999
v 0.4744 0.3520567 0.1099998
v -0.4744 0.3520567 0.1099998
v -0.4744 -0.07541583 0.1099998
v 0.4743998 -0.07541583 0.1099998
v 0.4744 0.3520567 0.1099998
v 0.4033767 0.1593284 0.1099998
v 0.4033767 0.2077507 0.1099998
v 0.4744 0.3520567 0.1099998
v 0.4033767 0.1109062 0.1099998
v 0.4033769 0.2625799 0.1099999
vt 0.09098434 0.2986336
vt 0.09098434 0.2986336
vt 0.09098434 0.2986336
vt 0.09098434 0.2986336
vt 0.09098434 0.2986336
vt 0.09098434 0.2986336
vt 0.09098434 0.2986336
vt 0.09098434 0.2986336
vt 0.09098434 0.2986336
vt 0.09098434 0.2986336
vt 0.09098434 0.2986336
vt 0.09193802 0.3801794
vt 0.09193802 0.3801794
vt 0.09193802 0.3801727
vt 0.09193802 0.3801727
vt 0.09193802 0.3801727
vt 0.0919342 0.3801727
vt 0.09098434 0.2986336
vt 0.09098434 0.2986336
vt 0.09098434 0.2986336
vt 0.09098434 0.2986336
vt 0.09098434 0.2986336
vt 0.09098434 0.2986336
vt 0.09098434 0.2986336
vt 0.09098434 0.2986336
vt 0.09098434 0.2986336
vt 0.09098434 0.2986336
vt 0.09193802 0.3801794
vt 0.09098434 0.2986336
vt 0.09098434 0.2986336
vt 0.09098434 0.2986336
vt 0.09098434 0.2986336
vt 0.09098434 0.2986336
vt 0.09098434 0.2986336
vt 0.09098434 0.2986336
vt 0.09098434 0.2986336
vt 0.09098434 0.2986336
vt 0.09098434 0.2986336
vt 0.09193802 0.3801794
vt 0.09098434 0.2986336
vt 0.09098434 0.2986336
vt 0.09098434 0.2986336
vt 0.09098434 0.2986336
vt 0.09098434 0.2986336
vt 0.09098434 0.2986336
vt 0.09098434 0.2986336
vt 0.09098434 0.2986336
vt 0.09098434 0.2986336
vt 0.09098434 0.2986336
vt 0.09193802 0.3801794
vt 0.09193802 0.3801794
vt 0.09193802 0.3801727
vt 0.0919342 0.3801727
vt 0.0919345 0.3801732
vt 0.09193802 0.3801732
vt 0.09193479 0.3801737
vt 0.09193802 0.3801737
vt 0.09193508 0.3801742
vt 0.09193802 0.3801742
vt 0.09193538 0.3801748
vt 0.09193802 0.3801748
vt 0.09193567 0.3801753
vt 0.09193802 0.3801753
vt 0.09193721 0.380178
vt 0.09193802 0.380178
vt 0.08123016 0.2492676
vt 0.08123016 0.2492676
vt 0.08123016 0.2492676
vt 0.08123016 0.2492676
vt 0.08123016 0.2492676
vt 0.08123016 0.2492676
vt 0.08123016 0.2492676
vt 0.08123016 0.2492676
vt 0.08123016 0.2492676
vt 0.08123016 0.2492676
vt 0.08123016 0.2492676
vt 0.08123016 0.2492676
vt 0.09098434 0.2986336
vt 0.09098434 0.2986336
vt 0.09098434 0.2986336
vt 0.09098434 0.2986336
vt 0.09098434 0.2986336
vt 0.09098434 0.2986336
vt 0.09098434 0.2986336
vt 0.09098434 0.2986336
vt 0.09098434 0.2986336
vt 0.09098434 0.2986336
vt 0.09098434 0.2986336
vt 0.09098434 0.2986336
vt 0.09098434 0.2986336
vt 0.09098434 0.2986336
vt 0.09098434 0.2986336
vt 0.09098434 0.2986336
vt 0.09098434 0.2986336
vt 0.09098434 0.2986336
vt 0.09098434 0.2986336
vt 0.0919342 0.3801727
vt 0.09193802 0.3801727
vt 0.09098434 0.2986336
vt 0.09098434 0.2986336
vt 0.09098434 0.2986336
vt 0.09098434 0.2986336
vt 0.09098434 0.2986336
vt 0.09098434 0.2986336
vt 0.09098434 0.2986336
vt 0.09098434 0.2986336
vt 0.09098434 0.2986336
vt 0.09098434 0.2986336
vt 0.09098434 0.2986336
vt 0.09098434 0.2986336
vt 0.09098434 0.2986336
vt 0.09098434 0.2986336
vt 0.09098434 0.2986336
vt 0.09098434 0.2986336
vt 0.09098434 0.2986336
vt 0.09098434 0.2986336
vt 0.09098434 0.2986336
vt 0.09098434 0.2986336
vt 0.09193802 0.3801794
vt 0.09193802 0.3801727
vt 0.09193802 0.3801727
vt 0.09098434 0.2986336
vt 0.09098434 0.2986336
vt 0.09098434 0.2986336
vt 0.09098434 0.2986336
vt 0.09098434 0.2986336
vt 0.09098434 0.2986336
vt 0.09098434 0.2986336
vt 0.09098434 0.2986336
vt 0.09098434 0.2986336
vt 0.09098434 0.2986336
vt 0.09098434 0.2986336
vt 0.09098434 0.2986336
vt 0.09098434 0.2986336
vt 0.09098434 0.2986336
vt 0.09098434 0.2986336
vt 0.09098434 0.2986336
vt 0.09098434 0.2986336
vt 0.09098434 0.2986336
vt 0.09098434 0.2986336
vt 0.09098434 0.2986336
vt 0.09098434 0.2986336
vt 0.09193802 0.3801794
vt 0.09193802 0.3801794
vt 0.09193802 0.3801794
vt 0.09193802 0.3801727
vt 0.09193802 0.3801794
vt 0.09193802 0.3801794
vt 0.09193802 0.3801727
vt 0.09098434 0.2986336
vt 0.09098434 0.2986336
vt 0.09098434 0.2986336
vt 0.09098434 0.2986336
vt 0.09098434 0.2986336
vt 0.09098434 0.2986336
vt 0.09098434 0.2986336
vt 0.09098434 0.2986336
vt 0.09098434 0.2986336
vt 0.09098434 0.2986336
vt 0.09098434 0.2986336
vt 0.09098434 0.2986336
vt 0.09098434 0.2986336
vt 0.09098434 0.2986336
vt 0.09098434 0.2986336
vt 0.09098434 0.2986336
vt 0.09098434 0.2986336
vt 0.09098434 0.2986336
vt 0.09098434 0.2986336
vt 0.09098434 0.2986336
vt 0.09193802 0.3801737
vt 0.09193802 0.3801737
vt 0.09193802 0.3801732
vt 0.09193802 0.3801732
vt 0.09193802 0.3801732
vt 0.09193802 0.3801732
vt 0.0919345 0.3801732
vt 0.0919345 0.3801732
vt 0.0919345 0.3801732
vt 0.0919345 0.3801732
vt 0.09193479 0.3801737
vt 0.09193479 0.3801737
vt 0.09193479 0.3801737
vt 0.09193479 0.3801737
vt 0.09193802 0.3801737
vt 0.09193802 0.3801737
vt 0.09193802 0.3801748
vt 0.09193802 0.3801748
vt 0.09193802 0.3801742
vt 0.09193802 0.3801742
vt 0.09193802 0.3801742
vt 0.09193802 0.3801742
vt 0.09193508 0.3801742
vt 0.09193508 0.3801742
vt 0.09193508 0.3801742
vt 0.09193508 0.3801742
vt 0.09193538 0.3801748
vt 0.09193538 0.3801748
vt 0.09193538 0.3801748
vt 0.09193538 0.3801748
vt 0.09193802 0.3801748
vt 0.09193802 0.3801748
vt 0.09193802 0.380178
vt 0.09193802 0.3801758
vt 0.09193802 0.3801753
vt 0.09193802 0.3801753
vt 0.09193802 0.3801753
vt 0.09193802 0.3801753
vt 0.09193567 0.3801753
vt 0.09193567 0.3801753
vt 0.09193567 0.3801753
vt 0.09193567 0.3801753
vt 0.09193596 0.3801758
vt 0.09193721 0.380178
vt 0.09193721 0.380178
vt 0.09193757 0.3801786
vt 0.09193802 0.3801786
vt 0.09193802 0.380178
vt 0.09193802 0.3801794
vt 0.09193802 0.3801794
vt 0.09193802 0.3801727
vt 0.0919342 0.3801727
vt 0.09193802 0.3801794
vt 0.09193538 0.3801748
vt 0.09193567 0.3801753
vt 0.09193802 0.3801794
vt 0.09193508 0.3801742
vt 0.09193721 0.380178
vn 0 0 -1
vn 0 0 -1
vn 0 0 -1
vn 0 0 -1
vn 0 0 -1
vn -0.309017 0.9510565 0
vn -0.309017 0.9510565 0
vn -0.309017 0.9510565 0
vn -1 0 0
vn 0.8090183 0.5877834 0
vn -0.309017 -0.9510565 0
vn 1 0 0
vn 1 0 0
vn 1 0 0
vn 0 -1 0
vn 0 -1 0
vn 1 0 0
vn 0 0 -1
vn 0 0 -1
vn 0 0 -1
vn 0 0 1
vn 0 0 1
vn 0 0 1
vn 0 0 -1
vn 0 0 -1
vn -0.309017 0.9510565 0
vn -0.309017 0.9510565 0
vn 0 1 0
vn 0 0 1
vn 0 0 1
vn 0 0 1
vn 0 0 -1
vn 0 0 -1
vn 0 0 -1
vn 0 0 1
vn 0 0 1
vn 0.8090181 0.5877838 0
vn -1 0 0
vn 0 0 -1
vn 0 0 1
vn 0 0 1
vn 0 0 1
vn 0 0 -1
vn 0 0 -1
vn 0 0 -1
vn 0 0 1
vn 0 0 1
vn 0.8090183 0.5877834 0
vn -1 0 0
vn 0 0 1
vn 0 0 1
vn 0 0 1
vn 0 0 1
vn 0 0 1
vn 0 0 1
vn 0 0 1
vn 0 0 1
vn 0 0 1
vn 0 0 1
vn 0 0 1
vn 0 0 1
vn 0 0 1
vn 0 0 1
vn 0 0 1
vn 0 0 1
vn 0 0 1
vn 0 0 1
vn 0 0 1
vn 0 0 1
vn 0 0 1
vn 0 0 1
vn 0 0 1
vn 0 0 1
vn 0 0 1
vn 0 0 1
vn 0 0 1
vn 0 0 1
vn -0.309017 0.9510565 0
vn -1 0 0
vn -1 0 0
vn -1 0 0
vn 0.8090183 0.5877834 0
vn 0.8090183 0.5877834 0
vn 0.8090183 0.5877834 0
vn -0.309017 -0.9510565 0
vn -0.309017 -0.9510565 0
vn -0.309017 -0.9510565 0
vn 0 0 1
vn 0 0 1
vn 0 0 1
vn 0.8090181 -0.5877838 0
vn 0.8090181 -0.5877838 0
vn 0.8090181 -0.5877838 0
vn 0.8090181 -0.5877838 0
vn 0 0 1
vn 0 0 1
vn 0 -1 0
vn 0 -1 0
vn -0.309017 0.9510565 0
vn -0.309017 0.9510565 0
vn -1 0 0
vn -1 0 0
vn -1 0 0
vn -1 0 0
vn 0.8090181 0.5877838 0
vn 0.8090181 0.5877838 0
vn 0.8090181 0.5877838 0
vn 0.8090181 0.5877838 0
vn -0.3090163 -0.9510567 0
vn -0.3090163 -0.9510567 0
vn -0.3090163 -0.9510567 0
vn -0.3090163 -0.9510567 0
vn 0.8090181 -0.5877838 0
vn 0.8090181 -0.5877838 0
vn 0.8090181 -0.5877838 0
vn 0.8090181 -0.5877838 0
vn 0 0 1
vn 0 0 1
vn 0 0 -1
vn 0 0 -1
vn 0 0 -1
vn 0 0 -1
vn 0.8090181 -0.5877838 0
vn 0.8090181 -0.5877838 0
vn 0.8090181 -0.5877838 0
vn 0.8090181 -0.5877838 0
vn -0.3090163 -0.9510567 0
vn -0.3090163 -0.9510567 0
vn -0.3090163 -0.9510567 0
vn -0.3090163 -0.9510567 0
vn 0.8090181 0.5877838 0
vn 0.8090181 0.5877838 0
vn 0.8090181 0.5877838 0
vn -1 0 0
vn -1 0 0
vn -1 0 0
vn -0.309017 0.9510565 0
vn -0.309017 0.9510565 0
vn -0.309017 0.9510565 0
vn -0.309017 0.9510565 0
vn 0 0 -1
vn 0 0 -1
vn 0 1 0
vn 0 1 0
vn 0 1 0
vn -1 0 0
vn -1 0 0
vn -1 0 0
vn -1 0 0
vn 0.8090092 -0.587796 0
vn 0.8090092 -0.587796 0
vn 0.8090092 -0.587796 0
vn 0.8090092 -0.587796 0
vn -0.309017 -0.9510565 0
vn -0.309017 -0.9510565 0
vn -0.309017 -0.9510565 0
vn -0.309017 -0.9510565 0
vn 0.8090183 0.5877834 0
vn 0.8090183 0.5877834 0
vn 0.8090183 0.5877834 0
vn -1 0 0
vn -1 0 0
vn -1 0 0
vn -0.309017 0.9510565 0
vn -0.309017 0.9510565 0
vn -0.309017 0.9510565 0
vn -0.309017 0.9510565 0
vn 0 0 -1
vn 0 0 -1
vn 1 0 0
vn 1 0 0
vn 1 0 0
vn 1 0 0
vn 0 0.9732091 0.2299216
vn 0 0.9732091 0.2299216
vn 0 0.9732091 0.2299216
vn 0 0.9732091 0.2299216
vn -1 0 0
vn -1 0 0
vn -1 0 0
vn -1 0 0
vn 0 -0.9732062 0.2299344
vn 0 -0.9732062 0.2299344
vn 0 -0.9732062 0.2299344
vn 0 -0.9732062 0.2299344
vn 1 0 0
vn 1 0 0
vn 1 0 0
vn 1 0 0
vn 0 0.9732093 0.2299208
vn 0 0.9732093 0.2299208
vn 0 0.9732093 0.2299208
vn 0 0.9732093 0.2299208
vn -1 0 0
vn -1 0 0
vn -1 0 0
vn -1 0 0
vn 0 -0.973206 0.2299346
vn 0 -0.973206 0.2299346
vn 0 -0.973206 0.2299346
vn 0 -0.973206 0.2299346
vn 1 0 0
vn 1 0 0
vn 1 0 0
vn 1 0 0
vn 0 0.9732092 0.2299212
vn 0 0.9732092 0.2299212
vn 0 0.9732092 0.2299212
vn 0 0.9732092 0.2299212
vn -1 0 0
vn -1 0 0
vn -1 0 0
vn -1 0 0
vn 0 -0.9732057 0.2299362
vn 0 -0.9732057 0.2299362
vn 0 -0.9732057 0.2299362
vn 0 -0.9732057 0.2299362
vn 0 0 1
vn 0 0 1
vn 0 0 1
vn 0 0 1
vn 0 0 1
vn 0 0 1
vn 0 0 1
vn 0 0 1
vn 0 0 1
vn 0 0 1
g SM_Prop_AirDuct_Ceiling_End_01_0
f 78/78/78 8/8/8 6/6/6
f 7/7/7 78/78/78 6/6/6
f 80/80/80 79/79/79 9/9/9
f 81/81/81 80/80/80 9/9/9
f 84/84/84 83/83/83 82/82/82
f 10/10/10 84/84/84 82/82/82
f 86/86/86 85/85/85 11/11/11
f 87/87/87 86/86/86 11/11/11
f 90/90/90 89/89/89 88/88/88
f 89/89/89 90/90/90 95/95/95
f 96/96/96 89/89/89 95/95/95
f 93/93/93 92/92/92 91/91/91
f 94/94/94 93/93/93 91/91/91
f 13/13/13 17/17/17 14/14/14
f 12/12/12 13/13/13 14/14/14
f 98/98/98 97/97/97 15/15/15
f 16/16/16 98/98/98 15/15/15
f 19/19/19 20/20/20 18/18/18
f 25/25/25 19/19/19 18/18/18
f 24/24/24 25/25/25 18/18/18
f 22/22/22 23/23/23 21/21/21
f 23/23/23 22/22/22 117/117/117
f 118/118/118 23/23/23 117/117/117
f 100/100/100 99/99/99 26/26/26
f 27/27/27 100/100/100 26/26/26
f 103/103/103 102/102/102 101/101/101
f 104/104/104 103/103/103 101/101/101
f 107/107/107 106/106/106 105/105/105
f 108/108/108 107/107/107 105/105/105
f 111/111/111 110/110/110 109/109/109
f 112/112/112 111/111/111 109/109/109
f 115/115/115 114/114/114 113/113/113
f 116/116/116 115/115/115 113/113/113
f 120/120/120 39/39/39 119/119/119
f 121/121/121 120/120/120 119/119/119
f 30/30/30 31/31/31 29/29/29
f 31/31/31 30/30/30 35/35/35
f 36/36/36 31/31/31 35/35/35
f 33/33/33 34/34/34 32/32/32
f 141/141/141 33/33/33 32/32/32
f 142/142/142 141/141/141 32/32/32
f 125/125/125 124/124/124 123/123/123
f 126/126/126 125/125/125 123/123/123
f 129/129/129 128/128/128 127/127/127
f 130/130/130 129/129/129 127/127/127
f 132/132/132 37/37/37 131/131/131
f 133/133/133 132/132/132 131/131/131
f 38/38/38 135/135/135 134/134/134
f 136/136/136 38/38/38 134/134/134
f 139/139/139 138/138/138 137/137/137
f 140/140/140 139/139/139 137/137/137
f 144/144/144 143/143/143 28/28/28
f 145/145/145 144/144/144 28/28/28
f 41/41/41 42/42/42 40/40/40
f 42/42/42 41/41/41 46/46/46
f 47/47/47 42/42/42 46/46/46
f 44/44/44 45/45/45 43/43/43
f 168/168/168 44/44/44 43/43/43
f 169/169/169 168/168/168 43/43/43
f 148/148/148 147/147/147 146/146/146
f 149/149/149 148/148/148 146/146/146
f 152/152/152 151/151/151 150/150/150
f 153/153/153 152/152/152 150/150/150
f 156/156/156 155/155/155 154/154/154
f 157/157/157 156/156/156 154/154/154
f 159/159/159 48/48/48 158/158/158
f 160/160/160 159/159/159 158/158/158
f 49/49/49 162/162/162 161/161/161
f 163/163/163 49/49/49 161/161/161
f 166/166/166 165/165/165 164/164/164
f 167/167/167 166/166/166 164/164/164
f 68/68/68 69/69/69 67/67/67
f 66/66/66 68/68/68 67/67/67
f 72/72/72 73/73/73 71/71/71
f 70/70/70 72/72/72 71/71/71
f 60/60/60 62/62/62 63/63/63
f 61/61/61 60/60/60 63/63/63
f 61/61/61 63/63/63 219/219/219
f 63/63/63 65/65/65 219/219/219
f 59/59/59 61/61/61 219/219/219
f 51/51/51 219/219/219 65/65/65
f 65/65/65 64/64/64 51/51/51
f 64/64/64 50/50/50 51/51/51
f 218/218/218 50/50/50 64/64/64
f 51/51/51 50/50/50 218/218/218
f 219/219/219 51/51/51 218/218/218
f 57/57/57 59/59/59 219/219/219
f 57/57/57 56/56/56 59/59/59
f 56/56/56 58/58/58 59/59/59
f 222/222/222 58/58/58 56/56/56
f 54/54/54 222/222/222 56/56/56
f 57/57/57 219/219/219 55/55/55
f 222/222/222 54/54/54 53/53/53
f 53/53/53 54/54/54 55/55/55
f 221/221/221 222/222/222 53/53/53
f 221/221/221 53/53/53 220/220/220
f 52/52/52 55/55/55 219/219/219
f 220/220/220 52/52/52 219/219/219
f 52/52/52 53/53/53 55/55/55
f 53/53/53 52/52/52 220/220/220
f 76/76/76 77/77/77 75/75/75
f 74/74/74 76/76/76 75/75/75
f 172/172/172 171/171/171 170/170/170
f 173/173/173 172/172/172 170/170/170
f 176/176/176 175/175/175 174/174/174
f 177/177/177 176/176/176 174/174/174
f 180/180/180 179/179/179 178/178/178
f 181/181/181 180/180/180 178/178/178
f 184/184/184 183/183/183 182/182/182
f 185/185/185 184/184/184 182/182/182
f 188/188/188 187/187/187 186/186/186
f 189/189/189 188/188/188 186/186/186
f 192/192/192 191/191/191 190/190/190
f 193/193/193 192/192/192 190/190/190
f 196/196/196 195/195/195 194/194/194
f 197/197/197 196/196/196 194/194/194
f 200/200/200 199/199/199 198/198/198
f 201/201/201 200/200/200 198/198/198
f 204/204/204 203/203/203 202/202/202
f 205/205/205 204/204/204 202/202/202
f 208/208/208 207/207/207 206/206/206
f 209/209/209 208/208/208 206/206/206
f 212/212/212 211/211/211 210/210/210
f 213/213/213 212/212/212 210/210/210
f 216/216/216 215/215/215 214/214/214
f 217/217/217 216/216/216 214/214/214
f 226/226/226 225/225/225 223/223/223
f 225/225/225 224/224/224 223/223/223
f 225/225/225 227/227/227 224/224/224
f 2/2/2 3/3/3 1/1/1
f 1/1/1 3/3/3 122/122/122
f 4/4/4 3/3/3 2/2/2
f 122/122/122 3/3/3 5/5/5
f 5/5/5 3/3/3 4/4/4
