g SM_Prop_Lunchbox_Plastic_01
v -0.1433028 -3.087498E-08 0.145408
v -0.1433028 0.09509187 0.145408
v 0.1480208 0.09509187 0.145408
v 0.1480208 -3.087498E-08 0.145408
v -0.1433028 0.09509187 -0.1511401
v -0.1433028 -3.087498E-08 -0.1511401
v 0.1480208 -3.087498E-08 -0.1511401
v 0.1480208 0.09509187 -0.1511401
v 0.1745656 -3.087498E-08 0.1101166
v 0.1745656 0.09509187 0.1101166
v 0.1745656 0.09509187 -0.1158484
v 0.1745656 -3.087498E-08 -0.1158484
v -0.1698474 -3.087498E-08 -0.1158484
v -0.1698474 0.09509187 -0.1158484
v -0.1698474 0.09509187 0.1101166
v -0.1698474 -3.087498E-08 0.1101166
v 0.1480208 -3.087498E-08 0.145408
v 0.1745656 -3.087498E-08 0.1101166
v 0.1745656 -3.087498E-08 -0.1158484
v 0.1480208 -3.087498E-08 -0.1511401
v -0.1433028 -3.087498E-08 -0.1511401
v -0.1433028 -3.087498E-08 0.145408
v -0.1698474 -3.087498E-08 0.1101166
v -0.1698474 -3.087498E-08 -0.1158484
v 0.1480208 -3.087498E-08 -0.1511401
v 0.1745656 -3.087498E-08 -0.1158484
v 0.1745656 0.09509187 -0.1158484
v 0.1480208 0.09509187 -0.1511401
v 0.1347528 0.02183988 -0.1373172
v 0.1592548 0.02183988 -0.1053162
v 0.1592548 0.02183988 0.09958404
v 0.1347528 0.02183988 0.1315857
v -0.1341496 0.02183988 0.1315857
v -0.1341496 0.02183988 -0.1373172
v -0.1586516 0.02183988 -0.1053162
v -0.1586516 0.02183988 0.09958404
v 0.1480208 0.09509187 0.145408
v 0.1745656 0.09509187 0.1101166
v 0.1745656 -3.087498E-08 0.1101166
v 0.1480208 -3.087498E-08 0.145408
v -0.1433028 -3.087498E-08 0.145408
v -0.1698474 -3.087498E-08 0.1101166
v -0.1698474 0.09509187 0.1101166
v -0.1433028 0.09509187 0.145408
v -0.1433028 0.09509187 -0.1511401
v -0.1698474 0.09509187 -0.1158484
v -0.1698474 -3.087498E-08 -0.1158484
v -0.1433028 -3.087498E-08 -0.1511401
v -0.1341496 0.09509187 0.1315857
v -0.1341496 0.02183988 0.1315857
v 0.1347528 0.02183988 0.1315857
v 0.1347528 0.09509187 0.1315857
v 0.1347528 0.09509187 -0.1373172
v 0.1347528 0.02183988 -0.1373172
v -0.1341496 0.02183988 -0.1373172
v -0.1341496 0.09509187 -0.1373172
v 0.1347528 0.09509187 0.1315857
v 0.1347528 0.02183988 0.1315857
v 0.1592548 0.02183988 0.09958404
v 0.1592548 0.09509187 0.09958404
v 0.1592548 0.09509187 0.09958404
v 0.1592548 0.02183988 0.09958404
v 0.1592548 0.02183988 -0.1053162
v 0.1592548 0.09509187 -0.1053162
v 0.1592548 0.09509187 -0.1053162
v 0.1592548 0.02183988 -0.1053162
v 0.1347528 0.02183988 -0.1373172
v 0.1347528 0.09509187 -0.1373172
v -0.1341496 0.09509187 -0.1373172
v -0.1341496 0.02183988 -0.1373172
v -0.1586516 0.02183988 -0.1053162
v -0.1586516 0.09509187 -0.1053162
v -0.1586516 0.09509187 -0.1053162
v -0.1586516 0.02183988 -0.1053162
v -0.1586516 0.02183988 0.09958404
v -0.1586516 0.09509187 0.09958404
v -0.1586516 0.09509187 0.09958404
v -0.1586516 0.02183988 0.09958404
v -0.1341496 0.02183988 0.1315857
v -0.1341496 0.09509187 0.1315857
v -0.1586516 0.09509187 -0.009354248
v -0.006187133 0.09509187 0.003622742
v -0.1586516 0.09509187 0.003622742
v -0.006187133 0.09509187 -0.009354248
v 0.006790008 0.09509187 -0.002865906
v -0.006187133 0.09509187 0.1315857
v 0.006790008 0.09509187 0.1315857
v 0.006790008 0.09509187 -0.1373172
v -0.006187133 0.09509187 -0.1373172
v -0.1586516 0.02183989 0.003622742
v -0.1586516 0.09509187 0.003622742
v -0.006187133 0.09509187 0.003622742
v -0.006187133 0.02183989 0.003622742
v -0.006187133 0.02183989 -0.009354248
v -0.006187133 0.09509187 -0.009354248
v -0.1586516 0.09509187 -0.009354248
v -0.1586516 0.02183989 -0.009354248
v 0.006790008 0.09509187 -0.002865906
v 0.006790008 0.09509187 -0.1373172
v 0.006790008 0.02183989 -0.1373172
v 0.006790008 0.02183989 -0.002865906
v 0.006790008 0.02183989 0.1315857
v 0.006790008 0.09509187 0.1315857
v -0.006187133 0.02183989 -0.1373172
v -0.006187133 0.09509187 -0.1373172
v -0.006187133 0.09509187 -0.009354248
v -0.006187133 0.02183989 -0.009354248
v -0.006187133 0.09509187 0.003622742
v -0.006187133 0.09509187 0.1315857
v -0.006187133 0.02183989 0.1315857
v -0.006187133 0.02183989 0.003622742
v -0.1433028 0.09509187 0.145408
v -0.1341496 0.09509187 0.1315857
v 0.1347528 0.09509187 0.1315857
v 0.1480208 0.09509187 0.145408
v -0.1698474 0.09509187 0.1101166
v 0.1592548 0.09509187 0.09958404
v -0.1586516 0.09509187 0.09958404
v 0.1745656 0.09509187 0.1101166
v -0.1698474 0.09509187 -0.1158484
v 0.1592548 0.09509187 -0.1053162
v -0.1586516 0.09509187 -0.1053162
v 0.1745656 0.09509187 -0.1158484
v -0.1433028 0.09509187 -0.1511401
v 0.1347528 0.09509187 -0.1373172
v -0.1341496 0.09509187 -0.1373172
v 0.1480208 0.09509187 -0.1511401
vt 0.1017052 0.3530785
vt 0.1017053 0.3528309
vt 0.1010858 0.3526874
vt 0.1011065 0.3529053
vt 0.1020622 0.3526153
vt 0.102051 0.3528176
vt 0.1015246 0.3527063
vt 0.1015196 0.3525245
vt 0.1011202 0.3528643
vt 0.1011007 0.3526537
vt 0.1014332 0.3525329
vt 0.1014406 0.3527167
vt 0.1020734 0.3528549
vt 0.1020858 0.3526459
vt 0.1018234 0.3528137
vt 0.1018188 0.3530579
vt 0.1011065 0.3529053
vt 0.1011202 0.3528643
vt 0.1014406 0.3527167
vt 0.1015246 0.3527063
vt 0.102051 0.3528176
vt 0.1017052 0.3530785
vt 0.1018188 0.3530579
vt 0.1020734 0.3528549
vt 0.1015246 0.3527063
vt 0.1014406 0.3527167
vt 0.1014332 0.3525329
vt 0.1015196 0.3525245
vt 0.101529 0.3526771
vt 0.1014507 0.3526863
vt 0.1011597 0.3528164
vt 0.1011495 0.3528522
vt 0.1017038 0.3530028
vt 0.1020217 0.3527777
vt 0.1020422 0.3528107
vt 0.1018071 0.3529856
vt 0.1010858 0.3526874
vt 0.1011007 0.3526537
vt 0.1011202 0.3528643
vt 0.1011065 0.3529053
vt 0.1017052 0.3530785
vt 0.1018188 0.3530579
vt 0.1018234 0.3528137
vt 0.1017053 0.3528309
vt 0.1020622 0.3526153
vt 0.1020858 0.3526459
vt 0.1020734 0.3528549
vt 0.102051 0.3528176
vt 0.1017038 0.3528131
vt 0.1017038 0.3530028
vt 0.1011495 0.3528522
vt 0.1011347 0.3526836
vt 0.1015252 0.3525344
vt 0.101529 0.3526771
vt 0.1020217 0.3527777
vt 0.1020297 0.3526199
vt 0.1011347 0.3526836
vt 0.1011495 0.3528522
vt 0.1011597 0.3528164
vt 0.1011457 0.352653
vt 0.1011457 0.352653
vt 0.1011597 0.3528164
vt 0.1014507 0.3526863
vt 0.1014451 0.3525422
vt 0.1014451 0.3525422
vt 0.1014507 0.3526863
vt 0.101529 0.3526771
vt 0.1015252 0.3525344
vt 0.1020297 0.3526199
vt 0.1020217 0.3527777
vt 0.1020422 0.3528107
vt 0.1020509 0.3526482
vt 0.1020509 0.3526482
vt 0.1020422 0.3528107
vt 0.1018071 0.3529856
vt 0.1018103 0.3527983
vt 0.1018103 0.3527983
vt 0.1018071 0.3529856
vt 0.1017038 0.3530028
vt 0.1017038 0.3528131
vt 0.1019483 0.3527122
vt 0.1016038 0.3526572
vt 0.1019332 0.3527216
vt 0.1016212 0.352649
vt 0.1015868 0.3526481
vt 0.1014128 0.3527469
vt 0.1013855 0.3527407
vt 0.1017508 0.3525726
vt 0.101775 0.3525768
vt 0.1019269 0.3528965
vt 0.1019332 0.3527216
vt 0.1016038 0.3526572
vt 0.1016063 0.3528212
vt 0.1016231 0.3528118
vt 0.1016212 0.352649
vt 0.1019483 0.3527122
vt 0.1019417 0.3528855
vt 0.1015868 0.3526481
vt 0.1017508 0.3525726
vt 0.1017496 0.3527222
vt 0.1015896 0.3528106
vt 0.1013942 0.3529187
vt 0.1013855 0.3527407
vt 0.1017734 0.352727
vt 0.101775 0.3525768
vt 0.1016212 0.352649
vt 0.1016231 0.3528118
vt 0.1016038 0.3526572
vt 0.1014128 0.3527469
vt 0.1014209 0.3529259
vt 0.1016063 0.3528212
vt 0.1017053 0.3528309
vt 0.1017038 0.3528131
vt 0.1011347 0.3526836
vt 0.1010858 0.3526874
vt 0.1018234 0.3528137
vt 0.1011457 0.352653
vt 0.1018103 0.3527983
vt 0.1011007 0.3526537
vt 0.1020858 0.3526459
vt 0.1014451 0.3525422
vt 0.1020509 0.3526482
vt 0.1014332 0.3525329
vt 0.1020622 0.3526153
vt 0.1015252 0.3525344
vt 0.1020297 0.3526199
vt 0.1015196 0.3525245
vn 0 0 1
vn 0 0 1
vn 0 0 1
vn 0 0 1
vn 0 0 -1
vn 0 0 -1
vn 0 0 -1
vn 0 0 -1
vn 1 0 0
vn 1 0 0
vn 1 0 0
vn 1 0 0
vn -1 0 0
vn -1 0 0
vn -1 0 0
vn -1 0 0
vn 0 -1 0
vn 0 -1 0
vn 0 -1 0
vn 0 -1 0
vn 0 -1 0
vn 0 -1 0
vn 0 -1 0
vn 0 -1 0
vn 0.7991733 0 -0.6011007
vn 0.7991733 0 -0.6011007
vn 0.7991733 0 -0.6011007
vn 0.7991733 0 -0.6011007
vn 0 1 0
vn 0 1 0
vn 0 1 0
vn 0 1 0
vn 0 1 0
vn 0 1 0
vn 0 1 0
vn 0 1 0
vn 0.7991708 0 0.601104
vn 0.7991708 0 0.601104
vn 0.7991708 0 0.601104
vn 0.7991708 0 0.601104
vn -0.7991725 0 0.6011018
vn -0.7991725 0 0.6011018
vn -0.7991725 0 0.6011018
vn -0.7991725 0 0.6011018
vn -0.7991749 0 -0.6010985
vn -0.7991749 0 -0.6010985
vn -0.7991749 0 -0.6010985
vn -0.7991749 0 -0.6010985
vn 0 0 -1
vn 0 0 -1
vn 0 0 -1
vn 0 0 -1
vn 0 0 1
vn 0 0 1
vn 0 0 1
vn 0 0 1
vn -0.7939972 0 -0.6079213
vn -0.7939972 0 -0.6079213
vn -0.7939972 0 -0.6079213
vn -0.7939972 0 -0.6079213
vn -1 0 0
vn -1 0 0
vn -1 0 0
vn -1 0 0
vn -0.7939917 0 0.6079286
vn -0.7939917 0 0.6079286
vn -0.7939917 0 0.6079286
vn -0.7939917 0 0.6079286
vn 0.7939917 0 0.6079286
vn 0.7939917 0 0.6079286
vn 0.7939917 0 0.6079286
vn 0.7939917 0 0.6079286
vn 1 0 0
vn 1 0 0
vn 1 0 0
vn 1 0 0
vn 0.7939972 0 -0.6079213
vn 0.7939972 0 -0.6079213
vn 0.7939972 0 -0.6079213
vn 0.7939972 0 -0.6079213
vn 0 1 0
vn 0 1 0
vn 0 1 0
vn 0 1 0
vn 0 1 0
vn 0 1 0
vn 0 1 0
vn 0 1 0
vn 0 1 0
vn 0 0 1
vn 0 0 1
vn 0 0 1
vn 0 0 1
vn 0 0 -1
vn 0 0 -1
vn 0 0 -1
vn 0 0 -1
vn 1 0 0
vn 1 0 0
vn 1 0 0
vn 1 0 0
vn 1 0 0
vn 1 0 0
vn -1 0 0
vn -1 0 0
vn -1 0 0
vn -1 0 0
vn -1 0 0
vn -1 0 0
vn -1 0 0
vn -1 0 0
vn 0 1 0
vn 0 1 0
vn 0 1 0
vn 0 1 0
vn 0 1 0
vn 0 1 0
vn 0 1 0
vn 0 1 0
vn 0 1 0
vn 0 1 0
vn 0 1 0
vn 0 1 0
vn 0 1 0
vn 0 1 0
vn 0 1 0
vn 0 1 0
g SM_Prop_Lunchbox_Plastic_01_0
f 3/3/3 2/2/2 1/1/1
f 4/4/4 3/3/3 1/1/1
f 7/7/7 6/6/6 5/5/5
f 8/8/8 7/7/7 5/5/5
f 11/11/11 10/10/10 9/9/9
f 12/12/12 11/11/11 9/9/9
f 15/15/15 14/14/14 13/13/13
f 16/16/16 15/15/15 13/13/13
f 19/19/19 18/18/18 17/17/17
f 20/20/20 19/19/19 17/17/17
f 20/20/20 17/17/17 21/21/21
f 17/17/17 22/22/22 21/21/21
f 22/22/22 23/23/23 21/21/21
f 23/23/23 24/24/24 21/21/21
f 27/27/27 26/26/26 25/25/25
f 28/28/28 27/27/27 25/25/25
f 31/31/31 30/30/30 29/29/29
f 32/32/32 31/31/31 29/29/29
f 32/32/32 29/29/29 33/33/33
f 29/29/29 34/34/34 33/33/33
f 34/34/34 35/35/35 33/33/33
f 35/35/35 36/36/36 33/33/33
f 39/39/39 38/38/38 37/37/37
f 40/40/40 39/39/39 37/37/37
f 43/43/43 42/42/42 41/41/41
f 44/44/44 43/43/43 41/41/41
f 47/47/47 46/46/46 45/45/45
f 48/48/48 47/47/47 45/45/45
f 51/51/51 50/50/50 49/49/49
f 52/52/52 51/51/51 49/49/49
f 55/55/55 54/54/54 53/53/53
f 56/56/56 55/55/55 53/53/53
f 59/59/59 58/58/58 57/57/57
f 60/60/60 59/59/59 57/57/57
f 63/63/63 62/62/62 61/61/61
f 64/64/64 63/63/63 61/61/61
f 67/67/67 66/66/66 65/65/65
f 68/68/68 67/67/67 65/65/65
f 71/71/71 70/70/70 69/69/69
f 72/72/72 71/71/71 69/69/69
f 75/75/75 74/74/74 73/73/73
f 76/76/76 75/75/75 73/73/73
f 79/79/79 78/78/78 77/77/77
f 80/80/80 79/79/79 77/77/77
f 83/83/83 82/82/82 81/81/81
f 82/82/82 84/84/84 81/81/81
f 85/85/85 84/84/84 82/82/82
f 85/85/85 82/82/82 86/86/86
f 87/87/87 85/85/85 86/86/86
f 85/85/85 88/88/88 84/84/84
f 88/88/88 89/89/89 84/84/84
f 92/92/92 91/91/91 90/90/90
f 93/93/93 92/92/92 90/90/90
f 96/96/96 95/95/95 94/94/94
f 97/97/97 96/96/96 94/94/94
f 100/100/100 99/99/99 98/98/98
f 101/101/101 100/100/100 98/98/98
f 101/101/101 98/98/98 102/102/102
f 98/98/98 103/103/103 102/102/102
f 106/106/106 105/105/105 104/104/104
f 107/107/107 106/106/106 104/104/104
f 110/110/110 109/109/109 108/108/108
f 111/111/111 110/110/110 108/108/108
f 114/114/114 113/113/113 112/112/112
f 115/115/115 114/114/114 112/112/112
f 112/112/112 113/113/113 116/116/116
f 117/117/117 114/114/114 115/115/115
f 113/113/113 118/118/118 116/116/116
f 119/119/119 117/117/117 115/115/115
f 116/116/116 118/118/118 120/120/120
f 121/121/121 117/117/117 119/119/119
f 118/118/118 122/122/122 120/120/120
f 123/123/123 121/121/121 119/119/119
f 120/120/120 122/122/122 124/124/124
f 125/125/125 121/121/121 123/123/123
f 122/122/122 126/126/126 124/124/124
f 127/127/127 125/125/125 123/123/123
f 124/124/124 126/126/126 127/127/127
f 126/126/126 125/125/125 127/127/127
