g SM_Prop_Bathroom_Mirror_01
v 0.008494685 0.8959705 0.0420155
v 0.008494685 2.695193 0.0420155
v 0.8248381 2.695193 0.0420155
v 0.8248381 0.8959705 0.0420155
v -1.871444E-07 2.702398 0.03255506
v -1.871444E-07 2.702398 1.062523E-07
v 0.833333 2.702398 1.062523E-07
v 0.833333 2.702398 0.03255506
v 1.666667 2.702398 1.062523E-07
v 1.666667 2.702398 0.03255506
v 2.5 2.702398 1.062523E-07
v 2.5 2.702398 0.03255506
v -1.871444E-07 2.702398 1.062523E-07
v -1.871444E-07 0.8887652 1.062523E-07
v 0.833333 0.8887652 1.062523E-07
v 0.833333 2.702398 1.062523E-07
v 1.666667 2.702398 1.062523E-07
v 1.666667 0.8887652 1.062523E-07
v 2.5 2.702398 1.062523E-07
v 2.5 0.8887652 1.062523E-07
v -1.871444E-07 0.8887652 1.062523E-07
v -1.871444E-07 0.8887652 0.03255506
v 0.833333 0.8887652 0.03255506
v 0.833333 0.8887652 1.062523E-07
v 1.666667 0.8887652 1.062523E-07
v 1.666667 0.8887652 0.03255506
v 2.5 0.8887652 1.062523E-07
v 2.5 0.8887652 0.03255506
v 2.5 0.8887652 0.03255506
v 2.5 2.702398 0.03255506
v 2.5 2.702398 1.062523E-07
v 2.5 0.8887652 1.062523E-07
v -1.871444E-07 0.8887652 1.062523E-07
v -1.871444E-07 2.702398 1.062523E-07
v -1.871444E-07 2.702398 0.03255506
v -1.871444E-07 0.8887652 0.03255506
v 1.675162 2.695193 0.0420155
v 2.491505 2.695193 0.0420155
v 2.491505 0.8959705 0.0420155
v 1.675162 0.8959705 0.0420155
v 0.8418278 2.695193 0.0420155
v 1.658172 2.695193 0.0420155
v 1.658172 0.8959705 0.0420155
v 0.8418278 0.8959705 0.0420155
v -1.871444E-07 0.8887652 0.03255506
v 0.008494685 0.8959705 0.0420155
v 0.8248381 0.8959705 0.0420155
v 0.833333 0.8887652 0.03255506
v 0.8418278 0.8959705 0.0420155
v 1.658172 0.8959705 0.0420155
v 1.666667 0.8887652 0.03255506
v 1.675162 0.8959705 0.0420155
v 2.491505 0.8959705 0.0420155
v 2.5 0.8887652 0.03255506
v 0.833333 0.8887652 0.03255506
v 0.8248381 0.8959705 0.0420155
v 0.8248381 2.695193 0.0420155
v 0.833333 2.702398 0.03255506
v 0.833333 2.702398 0.03255506
v 0.8248381 2.695193 0.0420155
v 0.008494685 2.695193 0.0420155
v -1.871444E-07 2.702398 0.03255506
v 1.666667 2.702398 0.03255506
v 0.8418278 2.695193 0.0420155
v 1.658172 2.695193 0.0420155
v 2.5 2.702398 0.03255506
v 1.675162 2.695193 0.0420155
v 2.491505 2.695193 0.0420155
v -1.871444E-07 2.702398 0.03255506
v 0.008494685 2.695193 0.0420155
v 0.008494685 0.8959705 0.0420155
v -1.871444E-07 0.8887652 0.03255506
v 1.666667 2.702398 0.03255506
v 1.675162 2.695193 0.0420155
v 1.675162 0.8959705 0.0420155
v 1.666667 0.8887652 0.03255506
v 2.5 0.8887652 0.03255506
v 2.491505 0.8959705 0.0420155
v 2.491505 2.695193 0.0420155
v 2.5 2.702398 0.03255506
v 0.833333 2.702398 0.03255506
v 0.8418278 2.695193 0.0420155
v 0.8418278 0.8959705 0.0420155
v 0.833333 0.8887652 0.03255506
v 1.666667 0.8887652 0.03255506
v 1.658172 0.8959705 0.0420155
v 1.658172 2.695193 0.0420155
v 1.666667 2.702398 0.03255506
vt 0.1345869 0.3776389
vt 0.1346328 0.3770744
vt 0.1342873 0.3770426
vt 0.1342675 0.377594
vt 0.07854292 0.2551976
vt 0.0785608 0.2551974
vt 0.0785045 0.2550532
vt 0.07848909 0.2550534
vt 0.07846197 0.2549444
vt 0.07844847 0.2549445
vt 0.07842875 0.2548593
vt 0.07841671 0.2548594
vt 0.0785608 0.2551974
vt 0.07852128 0.255859
vt 0.07847607 0.2556487
vt 0.0785045 0.2550532
vt 0.07846197 0.2549444
vt 0.07844087 0.2554848
vt 0.07842875 0.2548593
vt 0.07841265 0.2553535
vt 0.07852128 0.255859
vt 0.07850561 0.2558593
vt 0.07846236 0.2556489
vt 0.07847607 0.2556487
vt 0.07844087 0.2554848
vt 0.07842866 0.255485
vt 0.07841265 0.2553535
vt 0.07840165 0.2553536
vt 0.07840165 0.2553536
vt 0.07841671 0.2548594
vt 0.07842875 0.2548593
vt 0.07841265 0.2553535
vt 0.07852128 0.255859
vt 0.0785608 0.2551974
vt 0.07854292 0.2551976
vt 0.07850561 0.2558593
vt 0.1339483 0.3770114
vt 0.1336412 0.3769831
vt 0.1336666 0.3775097
vt 0.1339528 0.3775498
vt 0.1342803 0.377042
vt 0.1339549 0.377012
vt 0.133959 0.3775507
vt 0.1342611 0.3775931
vt 0.1345907 0.3538062
vt 0.1345869 0.3538048
vt 0.1342675 0.3537599
vt 0.1342651 0.3537605
vt 0.1342611 0.353759
vt 0.133959 0.3537166
vt 0.1339571 0.3537172
vt 0.1339528 0.3537157
vt 0.1336666 0.3536755
vt 0.1336652 0.3536761
vt 0.1342651 0.3537605
vt 0.1342675 0.3537599
vt 0.1342873 0.3532085
vt 0.1342849 0.3532041
vt 0.1342849 0.3532041
vt 0.1342873 0.3532085
vt 0.1346328 0.3532403
vt 0.1346374 0.3532364
vt 0.1339528 0.3531737
vt 0.1342803 0.3532079
vt 0.1339549 0.3531779
vt 0.1336395 0.353145
vt 0.1339483 0.3531773
vt 0.1336412 0.353149
vt 0.1346374 0.3532364
vt 0.1346328 0.3532403
vt 0.1345869 0.3538048
vt 0.1345907 0.3538062
vt 0.1339528 0.3531737
vt 0.1339483 0.3531773
vt 0.1339528 0.3537157
vt 0.1339571 0.3537172
vt 0.1336652 0.3536761
vt 0.1336666 0.3536755
vt 0.1336412 0.353149
vt 0.1336395 0.353145
vt 0.1342849 0.3532041
vt 0.1342803 0.3532079
vt 0.1342611 0.353759
vt 0.1342651 0.3537605
vt 0.1339571 0.3537172
vt 0.133959 0.3537166
vt 0.1339549 0.3531779
vt 0.1339528 0.3531737
vn 0 0 1
vn 0 0 1
vn 0 0 1
vn 0 0 1
vn 0 1 0
vn 0 1 0
vn 0 1 0
vn 0 1 0
vn 0 1 0
vn 0 1 0
vn 0 1 0
vn 0 1 0
vn 0 0 -1
vn 0 0 -1
vn 0 0 -1
vn 0 0 -1
vn 0 0 -1
vn 0 0 -1
vn 0 0 -1
vn 0 0 -1
vn 0 -1 0
vn 0 -1 0
vn 0 -1 0
vn 0 -1 0
vn 0 -1 0
vn 0 -1 0
vn 0 -1 0
vn 0 -1 0
vn 1 0 0
vn 1 0 0
vn 1 0 0
vn 1 0 0
vn -1 0 0
vn -1 0 0
vn -1 0 0
vn -1 0 0
vn 0 0 1
vn 0 0 1
vn 0 0 1
vn 0 0 1
vn 0 0 1
vn 0 0 1
vn 0 0 1
vn 0 0 1
vn 0 -0.7955405 0.6059005
vn 0 -0.7955405 0.6059005
vn 0 -0.7955405 0.6059005
vn 0 -0.7955405 0.6059005
vn 0 -0.7955405 0.6059005
vn 0 -0.7955405 0.6059005
vn 0 -0.7955405 0.6059005
vn 0 -0.7955405 0.6059005
vn 0 -0.7955405 0.6059005
vn 0 -0.7955405 0.6059005
vn 0.7440574 0 0.6681157
vn 0.7440574 0 0.6681157
vn 0.7440574 0 0.6681157
vn 0.7440575 0 0.6681156
vn 0 0.795556 0.6058801
vn 0 0.795556 0.6058801
vn 0 0.795556 0.6058801
vn 0 0.795556 0.6058801
vn 0 0.795556 0.6058801
vn 0 0.795556 0.6058801
vn 0 0.795556 0.6058801
vn 0 0.795556 0.6058801
vn 0 0.795556 0.6058801
vn 0 0.795556 0.6058801
vn -0.7440575 0 0.6681156
vn -0.7440574 0 0.6681157
vn -0.7440574 0 0.6681157
vn -0.7440574 0 0.6681157
vn -0.7440575 0 0.6681156
vn -0.7440574 0 0.6681157
vn -0.7440574 0 0.6681157
vn -0.7440574 0 0.6681157
vn 0.7440574 0 0.6681157
vn 0.7440574 0 0.6681157
vn 0.7440574 0 0.6681157
vn 0.7440575 0 0.6681156
vn -0.7440575 0 0.6681156
vn -0.7440574 0 0.6681157
vn -0.7440574 0 0.6681157
vn -0.7440574 0 0.6681157
vn 0.7440574 0 0.6681157
vn 0.7440574 0 0.6681157
vn 0.7440574 0 0.6681157
vn 0.7440575 0 0.6681156
g SM_Prop_Bathroom_Mirror_01_0
f 3/3/3 2/2/2 1/1/1
f 4/4/4 3/3/3 1/1/1
f 7/7/7 6/6/6 5/5/5
f 8/8/8 7/7/7 5/5/5
f 9/9/9 7/7/7 8/8/8
f 10/10/10 9/9/9 8/8/8
f 11/11/11 9/9/9 10/10/10
f 12/12/12 11/11/11 10/10/10
f 15/15/15 14/14/14 13/13/13
f 16/16/16 15/15/15 13/13/13
f 16/16/16 17/17/17 15/15/15
f 17/17/17 18/18/18 15/15/15
f 17/17/17 19/19/19 18/18/18
f 19/19/19 20/20/20 18/18/18
f 23/23/23 22/22/22 21/21/21
f 24/24/24 23/23/23 21/21/21
f 24/24/24 25/25/25 23/23/23
f 25/25/25 26/26/26 23/23/23
f 25/25/25 27/27/27 26/26/26
f 27/27/27 28/28/28 26/26/26
f 31/31/31 30/30/30 29/29/29
f 32/32/32 31/31/31 29/29/29
f 35/35/35 34/34/34 33/33/33
f 36/36/36 35/35/35 33/33/33
f 39/39/39 38/38/38 37/37/37
f 40/40/40 39/39/39 37/37/37
f 43/43/43 42/42/42 41/41/41
f 44/44/44 43/43/43 41/41/41
f 47/47/47 46/46/46 45/45/45
f 48/48/48 47/47/47 45/45/45
f 50/50/50 49/49/49 48/48/48
f 51/51/51 50/50/50 48/48/48
f 53/53/53 52/52/52 51/51/51
f 54/54/54 53/53/53 51/51/51
f 57/57/57 56/56/56 55/55/55
f 58/58/58 57/57/57 55/55/55
f 61/61/61 60/60/60 59/59/59
f 62/62/62 61/61/61 59/59/59
f 59/59/59 64/64/64 63/63/63
f 64/64/64 65/65/65 63/63/63
f 63/63/63 67/67/67 66/66/66
f 67/67/67 68/68/68 66/66/66
f 71/71/71 70/70/70 69/69/69
f 72/72/72 71/71/71 69/69/69
f 75/75/75 74/74/74 73/73/73
f 76/76/76 75/75/75 73/73/73
f 79/79/79 78/78/78 77/77/77
f 80/80/80 79/79/79 77/77/77
f 83/83/83 82/82/82 81/81/81
f 84/84/84 83/83/83 81/81/81
f 87/87/87 86/86/86 85/85/85
f 88/88/88 87/87/87 85/85/85
