g SM_Prop_Kitchen_Counter_02
v -1 0.9 0
v -1 0.9 0.9681762
v -1 0.09626832 0.9681762
v -1 0.09626832 0.8949218
v -1 0 0
v -1 4.291537E-09 0.8949218
v 0 0.09626832 0.8949218
v 0 0.09626832 0.9681762
v 0 0.9 0.9681762
v 0 0.9 0
v 0 0 0
v 0 4.291537E-09 0.8949218
v -1 0.09626832 0.8949218
v 0 0.09626832 0.8949218
v 0 4.291537E-09 0.8949218
v -1 4.291537E-09 0.8949218
v -1 0 0
v 0 0 0
v 0 0.9 0
v -1 0.9 0
v -1 0.09626832 0.9681762
v 0 0.09626832 0.9681762
v 0 0.09626832 0.8949218
v -1 0.09626832 0.8949218
v -1 4.291537E-09 0.8949218
v 0 4.291537E-09 0.8949218
v 0 0 0
v -1 0 0
v -1 0.9 0.9681762
v -0.9244653 0.8392907 0.9681762
v -0.9244653 0.1569776 0.9681762
v -1 0.09626832 0.9681762
v 0 0.9 0.9681762
v -0.07553466 0.1569776 0.9681762
v 0 0.09626832 0.9681762
v -0.07553466 0.8392907 0.9681762
v -0.8686841 0.2018106 0.9475561
v -0.1313159 0.2018106 0.9475561
v -0.8686841 0.7944579 0.9475561
v -0.1313159 0.7944579 0.9475561
v -1 0.9495731 0
v 0 0.9495731 0
v 0 0.9495731 1
v -1 0.9495731 1
v -1 0.9 0
v -1 0.9495731 0
v -1 0.9495731 1
v -1 0.9 0.9681762
v -1 0.9 1
v -1 0.9 1
v -1 0.9495731 1
v 0 0.9495731 1
v 0 0.9 1
v 0 0.9 0.9681762
v 0 0.9495731 0
v 0 0.9 0
v 0 0.9495731 1
v 0 0.9 1
v 0 0.9 0
v 0 0.9495731 0
v -1 0.9495731 0
v -1 0.9 0
v -1 0.9 0.9681762
v -1 0.9 1
v 0 0.9 1
v 0 0.9 0.9681762
vt 0.06977493 0.3786832
vt 0.06977493 0.3786832
vt 0.06977493 0.3786832
vt 0.06977493 0.3786832
vt 0.06977493 0.3786832
vt 0.06977493 0.3786832
vt 0.06977493 0.3786832
vt 0.06977493 0.3786832
vt 0.06977493 0.3786832
vt 0.06977493 0.3786832
vt 0.06977493 0.3786832
vt 0.06977493 0.3786832
vt 0.06977493 0.3786832
vt 0.06977493 0.3786832
vt 0.06977493 0.3786832
vt 0.06977493 0.3786832
vt 0.06977493 0.3786832
vt 0.06977493 0.3786832
vt 0.06977493 0.3786832
vt 0.06977493 0.3786832
vt 0.06977493 0.3786832
vt 0.06977493 0.3786832
vt 0.06977493 0.3786832
vt 0.06977493 0.3786832
vt 0.06977493 0.3786832
vt 0.06977493 0.3786832
vt 0.06977493 0.3786832
vt 0.06977493 0.3786832
vt 0.06977493 0.3786832
vt 0.06977493 0.3786832
vt 0.06977493 0.3786832
vt 0.06977493 0.3786832
vt 0.06977493 0.3786832
vt 0.06977493 0.3786832
vt 0.06977493 0.3786832
vt 0.06977493 0.3786832
vt 0.06977493 0.3786832
vt 0.06977493 0.3786832
vt 0.06977493 0.3786832
vt 0.06977493 0.3786832
vt 0.2092821 0.3754677
vt 0.2092821 0.3754677
vt 0.2092821 0.3754677
vt 0.2092821 0.3754677
vt 0.2092821 0.3754677
vt 0.2092821 0.3754677
vt 0.2092821 0.3754677
vt 0.2092821 0.3754677
vt 0.2092821 0.3754677
vt 0.2092821 0.3754677
vt 0.2092821 0.3754677
vt 0.2092821 0.3754677
vt 0.2092821 0.3754677
vt 0.2092821 0.3754677
vt 0.2092821 0.3754677
vt 0.2092821 0.3754677
vt 0.2092821 0.3754677
vt 0.2092821 0.3754677
vt 0.2092821 0.3754677
vt 0.2092821 0.3754677
vt 0.2092821 0.3754677
vt 0.2092821 0.3754677
vt 0.2092821 0.3754677
vt 0.2092821 0.3754677
vt 0.2092821 0.3754677
vt 0.2092821 0.3754677
vn -1 0 0
vn -1 0 0
vn -1 0 0
vn -1 0 0
vn -1 0 0
vn -1 0 0
vn 1 0 0
vn 1 0 0
vn 1 0 0
vn 1 0 0
vn 1 0 0
vn 1 0 0
vn 0 0 1
vn 0 0 1
vn 0 0 1
vn 0 0 1
vn 0 0 -1
vn 0 0 -1
vn 0 0 -1
vn 0 0 -1
vn 0 -1 0
vn 0 -1 0
vn 0 -1 0
vn 0 -1 0
vn 0 -1 0
vn 0 -1 0
vn 0 -1 0
vn 0 -1 0
vn 0 0 1
vn 0.08925693 -0.1075668 0.9901831
vn 0.08925693 0.1075664 0.9901832
vn 0 0 1
vn 0 0 1
vn -0.08925692 0.1075664 0.9901832
vn 0 0 1
vn -0.08925693 -0.1075668 0.9901831
vn 0.1196522 0.1441968 0.9822885
vn -0.1196522 0.1441967 0.9822885
vn 0.1196522 -0.1441973 0.9822884
vn -0.1196522 -0.1441973 0.9822884
vn 0 1 0
vn 0 1 0
vn 0 1 0
vn 0 1 0
vn -1 0 0
vn -1 0 0
vn -1 0 0
vn -1 0 0
vn -1 0 0
vn 0 0 1
vn 0 0 1
vn 0 0 1
vn 0 0 1
vn 1 0 0
vn 1 0 0
vn 1 0 0
vn 1 0 0
vn 1 0 0
vn 0 0 -1
vn 0 0 -1
vn 0 0 -1
vn 0 0 -1
vn 0 -1 0
vn 0 -1 0
vn 0 -1 0
vn 0 -1 0
g SM_Prop_Kitchen_Counter_02_0
f 3/3/3 2/2/2 1/1/1
f 4/4/4 3/3/3 1/1/1
f 4/4/4 1/1/1 5/5/5
f 4/4/4 5/5/5 6/6/6
f 9/9/9 8/8/8 7/7/7
f 10/10/10 9/9/9 7/7/7
f 7/7/7 11/11/11 10/10/10
f 7/7/7 12/12/12 11/11/11
f 15/15/15 14/14/14 13/13/13
f 16/16/16 15/15/15 13/13/13
f 19/19/19 18/18/18 17/17/17
f 20/20/20 19/19/19 17/17/17
f 23/23/23 22/22/22 21/21/21
f 24/24/24 23/23/23 21/21/21
f 27/27/27 26/26/26 25/25/25
f 28/28/28 27/27/27 25/25/25
f 31/31/31 30/30/30 29/29/29
f 32/32/32 31/31/31 29/29/29
f 29/29/29 30/30/30 33/33/33
f 34/34/34 31/31/31 32/32/32
f 35/35/35 34/34/34 32/32/32
f 33/33/33 36/36/36 35/35/35
f 30/30/30 36/36/36 33/33/33
f 36/36/36 34/34/34 35/35/35
f 31/31/31 37/37/37 30/30/30
f 34/34/34 38/38/38 31/31/31
f 38/38/38 37/37/37 31/31/31
f 37/37/37 39/39/39 30/30/30
f 30/30/30 39/39/39 36/36/36
f 37/37/37 38/38/38 39/39/39
f 40/40/40 38/38/38 34/34/34
f 36/36/36 40/40/40 34/34/34
f 38/38/38 40/40/40 39/39/39
f 39/39/39 40/40/40 36/36/36
g SM_Prop_Kitchen_Counter_02_1
f 43/43/43 42/42/42 41/41/41
f 44/44/44 43/43/43 41/41/41
f 47/47/47 46/46/46 45/45/45
f 48/48/48 47/47/47 45/45/45
f 48/48/48 49/49/49 47/47/47
f 52/52/52 51/51/51 50/50/50
f 53/53/53 52/52/52 50/50/50
f 56/56/56 55/55/55 54/54/54
f 55/55/55 57/57/57 54/54/54
f 57/57/57 58/58/58 54/54/54
f 61/61/61 60/60/60 59/59/59
f 62/62/62 61/61/61 59/59/59
f 65/65/65 64/64/64 63/63/63
f 66/66/66 65/65/65 63/63/63
