g SM_Prop_Rubbish_Papers_01
v -0.2112456 0.009073789 -0.05833809
v -0.07643753 0.009073789 0.09639785
v -0.03804985 0.009073789 -0.246418
v 0.1059116 0.009073789 -0.1272824
v -0.1281875 0.009073789 -0.1188971
v -0.05355438 0.009073789 0.08401329
v -0.2965433 0.006127604 0.02641563
v -0.1096793 0.006127604 0.02641563
v -0.2965433 0.006127604 -0.2737832
v -0.1096793 0.006127604 -0.2737832
v 0.1766573 0.006127604 0.05611221
v 0.291126 0.006127604 -0.09158729
v -0.07258507 0.006127604 -0.1180667
v 0.08811233 0.006127604 -0.2134319
v -0.4551619 0.004458451 -0.2504762
v -0.3755263 0.004458451 -0.08143082
v -0.3927498 0.004458451 -0.2798779
v -0.2386692 0.004458451 -0.1459028
v 0.3482944 0.006127604 -0.3781843
v 0.1696651 0.006127604 -0.3233235
v 0.3187085 0.006127604 -0.4745172
v 0.1546462 0.006127604 -0.4530509
v 0.09730499 0.006127604 0.3624785
v 0.02469063 0.006127604 0.2112022
v -0.0442247 0.006127604 0.4745171
v -0.1427486 0.006127604 0.3157359
v 0.8519577 0.006127604 0.4038147
v 0.8093776 0.006127604 0.2462458
v 0.6109717 0.006127604 0.4397072
v 0.584927 0.006127604 0.2648417
v 0.794423 0.02651407 0.4123839
v 0.6999608 0.02651407 0.2552916
v 0.73114 0.004065414 0.1072932
v 0.6695331 0.004065414 0.2601148
v 0.6912207 0.004065414 0.1528503
v 0.7292582 0.004065414 0.3014395
v 0.7950873 0.004065414 0.1630173
v -0.8279901 0.004065414 0.1079757
v -0.6878669 0.004065414 0.0326812
v -0.7698396 0.004065414 0.09101929
v -0.7160149 0.004065414 -0.03427048
v -0.8519577 0.004065414 0.02661247
v 0.794423 0.02651407 0.4123839
v 0.6999608 0.02651407 0.2552916
vt 0.2941978 0.2497113
vt 0.3171491 0.2497113
vt 0.2941978 0.2795108
vt 0.3171491 0.2795108
vt 0.2941978 0.2646945
vt 0.3171491 0.2539002
vt 0.3183643 0.2497113
vt 0.3413156 0.2497113
vt 0.3183643 0.2795108
vt 0.3413156 0.2795108
vt 0.3183643 0.2497113
vt 0.3413156 0.2497113
vt 0.3183643 0.2795108
vt 0.3413156 0.2795108
vt 0.2941978 0.2497113
vt 0.3171491 0.2497113
vt 0.2941978 0.2565598
vt 0.3171491 0.2647285
vt 0.2941978 0.2795108
vt 0.3171491 0.2795108
vt 0.2941978 0.2695074
vt 0.3171491 0.2637268
vt 0.3183643 0.2497113
vt 0.3413156 0.2497113
vt 0.3183643 0.2693564
vt 0.3413156 0.2693055
vt 0.2941978 0.2497113
vt 0.3171491 0.2497113
vt 0.2941978 0.2795108
vt 0.3171491 0.2795108
vt 0.2941978 0.2582594
vt 0.3171491 0.2642775
vt 0.3413156 0.2693055
vt 0.3183643 0.2624757
vt 0.3327224 0.2693245
vt 0.3183643 0.2533459
vt 0.3413156 0.2595803
vt 0.3413156 0.2693055
vt 0.3183643 0.2624757
vt 0.3327224 0.2693245
vt 0.3183643 0.2533459
vt 0.3413156 0.2595803
vt 0.2941978 0.2582594
vt 0.3171491 0.2642775
vn 0 1 0
vn 0 1 0
vn 0 1 0
vn 0 1 0
vn 0 1 0
vn 0 1 0
vn 0 1 0
vn 0 1 0
vn 0 1 0
vn 0 1 0
vn 0 1 0
vn 0 1 0
vn 0 1 0
vn 0 1 0
vn 0 1 0
vn 0 1 0
vn 0 1 0
vn 0 1 0
vn 0 1 0
vn 0 1 0
vn 0 1 0
vn 0 1 0
vn 0 1 0
vn 0 1 0
vn 0 1 0
vn 0 1 0
vn 0.2262684 0.9690673 -0.09854518
vn 0.2262684 0.9690673 -0.09854517
vn -0.1294902 0.9904659 0.04700733
vn -0.1294902 0.9904659 0.04700733
vn 0.2262684 0.9690673 -0.09854517
vn 0.2262684 0.9690673 -0.09854517
vn 0 1 0
vn 0 1 0
vn 0 1 0
vn 0 1 0
vn 0 1 0
vn 0 1 0
vn 0 1 0
vn 0 1 0
vn 0 1 0
vn 0 1 0
vn -0.1294902 0.9904659 0.04700733
vn -0.1294902 0.9904659 0.04700733
g SM_Prop_Rubbish_Papers_01_0
f 2/2/2 6/6/6 1/1/1
f 6/6/6 5/5/5 1/1/1
f 6/6/6 4/4/4 5/5/5
f 4/4/4 3/3/3 5/5/5
f 10/10/10 9/9/9 7/7/7
f 8/8/8 10/10/10 7/7/7
f 14/14/14 13/13/13 11/11/11
f 12/12/12 14/14/14 11/11/11
f 18/18/18 17/17/17 15/15/15
f 16/16/16 18/18/18 15/15/15
f 20/20/20 19/19/19 21/21/21
f 22/22/22 20/20/20 21/21/21
f 26/26/26 25/25/25 23/23/23
f 24/24/24 26/26/26 23/23/23
f 32/32/32 31/31/31 27/27/27
f 28/28/28 32/32/32 27/27/27
f 30/30/30 29/29/29 43/43/43
f 44/44/44 30/30/30 43/43/43
f 37/37/37 33/33/33 35/35/35
f 35/35/35 34/34/34 37/37/37
f 34/34/34 36/36/36 37/37/37
f 39/39/39 41/41/41 42/42/42
f 42/42/42 38/38/38 39/39/39
f 38/38/38 40/40/40 39/39/39
