g SM_Prop_Plans_06
v -0.345979 0.006512832 0.3415774
v 0.4726098 0.006512832 0.2764465
v -0.345979 0.01166885 0.3415774
v 0.4726098 0.01166885 0.2764465
v -0.4008154 0.01166885 -0.2562796
v 0.4536389 0.01166885 -0.2981531
v -0.4008154 0.006512832 -0.2562796
v 0.4536389 0.006512832 -0.2981531
v -0.1942688 0.006513443 0.3276623
v -0.1929895 0.01166885 0.3275447
v -0.07343628 0.01166885 -0.2863078
v -0.07470703 0.006512832 -0.286191
v -0.09646972 0.02927292 0.3186918
v -0.09593505 0.03442833 0.3186426
v -0.02058838 0.03442833 -0.2911549
v -0.02111938 0.02927238 -0.2911064
v -0.02616455 0.006513366 0.3184936
v -0.02659912 0.01166885 0.3185077
v 0.01015259 0.01166885 -0.2834123
v 0.01058472 0.006512832 -0.2834267
v 0.4614184 0.01166885 -0.06431564
v 0.4614026 0.006512832 -0.06459396
v 0.1803674 0.00651329 0.3116286
v 0.1805957 0.01166885 0.3116203
v 0.4645947 0.02709755 0.02963837
v 0.4646387 0.02194176 0.03109131
v 0.2998816 0.02194199 0.3021687
v 0.2989331 0.02709755 0.3022008
v 0.4666455 0.01166885 0.09690719
v 0.4667566 0.006512832 0.1002361
v 0.3793054 0.006513138 0.2795473
v 0.3775439 0.01166885 0.2796062
v -0.3820996 7.629394E-08 0.2426547
v 0.5034985 7.629394E-08 0.3423582
v -0.3146155 7.629394E-08 -0.3668004
v 0.571372 7.629394E-08 -0.268327
v 0.128949 0 -0.3165797
v 0.05829468 7.629394E-08 0.2892944
v -0.4361047 7.629394E-08 0.3978096
v -0.5713733 7.629394E-08 -0.2015619
v 0.2982019 7.629394E-08 -0.3978094
v -0.001318359 7.629394E-08 0.2996857
v -0.325664 7.629394E-08 -0.2569258
v -0.004470215 7.629394E-08 0.2846397
v 0.003039551 7.629394E-08 -0.3311696
v 0.3240393 0 -0.2944806
v -0.325664 0.006512832 -0.2569258
v 0.003039551 0.006512832 -0.3311696
v -0.3146155 0.006512832 -0.3668004
v 0.05829468 0.006512832 0.2892944
v 0.128949 0.006512756 -0.3165797
v 0.5034985 0.006512832 0.3423582
v 0.571372 0.006512832 -0.268327
v 0.3240393 0.006512756 -0.2944806
v 0.2982019 0.006512832 -0.3978094
v -0.4361047 0.006512832 0.3978096
v -0.001318359 0.006512832 0.2996857
v -0.004470215 0.006512832 0.2846397
v -0.3820996 0.006512832 0.2426547
v -0.5713733 0.006512832 -0.2015619
v -0.345979 0.01166885 0.3415774
v -0.1929895 0.01166885 0.3275447
v -0.4008154 0.01166885 -0.2562796
v -0.07343628 0.01166885 -0.2863078
v -0.4008154 0.006512832 -0.2562796
v -0.345979 0.006512832 0.3415774
v -0.1942688 0.006513443 0.3276623
v -0.07470703 0.006512832 -0.286191
v -0.4008154 0.006512832 -0.2562796
v -0.4008154 0.01166885 -0.2562796
v -0.345979 0.01166885 0.3415774
v -0.345979 0.006512832 0.3415774
v -0.09593505 0.03442833 0.3186426
v -0.02058838 0.03442833 -0.2911549
v -0.09646972 0.02927292 0.3186918
v -0.02111938 0.02927238 -0.2911064
v -0.02058838 0.03442833 -0.2911549
v -0.02659912 0.01166885 0.3185077
v -0.09593505 0.03442833 0.3186426
v 0.01015259 0.01166885 -0.2834123
v -0.09646972 0.02927292 0.3186918
v -0.02616455 0.006513366 0.3184936
v 0.01058472 0.006512832 -0.2834267
v -0.02111938 0.02927238 -0.2911064
v 0.1805957 0.01166885 0.3116203
v 0.4536389 0.01166885 -0.2981531
v 0.4536389 0.006512832 -0.2981531
v 0.1803674 0.00651329 0.3116286
v 0.4614184 0.01166885 -0.06431564
v 0.4536389 0.01166885 -0.2981531
v 0.4536389 0.006512832 -0.2981531
v 0.4614026 0.006512832 -0.06459396
v 0.2989331 0.02709755 0.3022008
v 0.2998816 0.02194199 0.3021687
v 0.4645947 0.02709755 0.02963837
v 0.4646387 0.02194176 0.03109131
v 0.4666455 0.01166885 0.09690719
v 0.3775439 0.01166885 0.2796062
v 0.3793054 0.006513138 0.2795473
v 0.4667566 0.006512832 0.1002361
v 0.4726098 0.01166885 0.2764465
v 0.4726098 0.006512832 0.2764465
v 0.4726098 0.01166885 0.2764465
v 0.4726098 0.006512832 0.2764465
v 0.3240393 0.006512756 -0.2944806
v 0.128949 0.006512756 -0.3165797
v -0.325664 0.006512832 -0.2569258
v 0.05829468 0.006512832 0.2892944
v -0.001318359 0.006512832 0.2996857
v -0.004470215 0.006512832 0.2846397
v 0.128949 0.006512756 -0.3165797
v 0.05829468 0.006512832 0.2892944
v -0.004470215 0.006512832 0.2846397
v 0.003039551 0.006512832 -0.3311696
v -0.3820996 0.006512832 0.2426547
v 0.003039551 7.629394E-08 -0.3311696
v 0.003039551 0.006512832 -0.3311696
v -0.3146155 0.006512832 -0.3668004
v -0.3146155 7.629394E-08 -0.3668004
v -0.3146155 7.629394E-08 -0.3668004
v -0.3146155 0.006512832 -0.3668004
v -0.325664 0.006512832 -0.2569258
v -0.325664 7.629394E-08 -0.2569258
v 0.05829468 7.629394E-08 0.2892944
v 0.05829468 0.006512832 0.2892944
v 0.5034985 0.006512832 0.3423582
v 0.5034985 7.629394E-08 0.3423582
v 0.5034985 7.629394E-08 0.3423582
v 0.5034985 0.006512832 0.3423582
v 0.571372 0.006512832 -0.268327
v 0.571372 7.629394E-08 -0.268327
v 0.571372 7.629394E-08 -0.268327
v 0.571372 0.006512832 -0.268327
v 0.3240393 0.006512756 -0.2944806
v 0.3240393 0 -0.2944806
v 0.3240393 0 -0.2944806
v 0.3240393 0.006512756 -0.2944806
v 0.2982019 0.006512832 -0.3978094
v 0.2982019 7.629394E-08 -0.3978094
v -0.4361047 7.629394E-08 0.3978096
v -0.4361047 0.006512832 0.3978096
v -0.001318359 0.006512832 0.2996857
v -0.001318359 7.629394E-08 0.2996857
v -0.325664 7.629394E-08 -0.2569258
v -0.325664 0.006512832 -0.2569258
v -0.5713733 0.006512832 -0.2015619
v -0.5713733 7.629394E-08 -0.2015619
v -0.5713733 7.629394E-08 -0.2015619
v -0.5713733 0.006512832 -0.2015619
v -0.4361047 0.006512832 0.3978096
v -0.4361047 7.629394E-08 0.3978096
v 0.2982019 7.629394E-08 -0.3978094
v 0.2982019 0.006512832 -0.3978094
vt 0.4008359 0.4719787
vt 0.4008359 0.4719787
vt 0.4008359 0.4719787
vt 0.4008359 0.4719787
vt 0.535682 0.4984326
vt 0.6732938 0.4984326
vt 0.4008359 0.4719787
vt 0.4008359 0.4719787
vt 0.4008359 0.4719787
vt 0.4008359 0.4719787
vt 0.5876218 0.4984326
vt 0.4008359 0.4719787
vt 0.4008359 0.4719787
vt 0.4008359 0.4719787
vt 0.5960062 0.4984325
vt 0.4008359 0.4719787
vt 0.4008359 0.4719787
vt 0.4008359 0.4719787
vt 0.603188 0.4984325
vt 0.4008359 0.4719787
vt 0.6732938 0.4624028
vt 0.4008359 0.4719787
vt 0.4008359 0.4719787
vt 0.4008359 0.4719787
vt 0.6732938 0.4470817
vt 0.4008359 0.4719787
vt 0.4008359 0.4719787
vt 0.4008359 0.4719787
vt 0.4008359 0.4719787
vt 0.4008359 0.4719787
vt 0.4008359 0.4719787
vt 0.4008359 0.4719787
vt 0.4021787 0.4748855
vt 0.4019346 0.4748855
vt 0.4021787 0.4748855
vt 0.4019346 0.4748855
vt 0.4021787 0.4748855
vt 0.4021787 0.4748855
vt 0.4021787 0.4748855
vt 0.4021787 0.4748855
vt 0.4021787 0.4748855
vt 0.4021787 0.4748855
vt 0.4021787 0.4748855
vt 0.4021787 0.4748855
vt 0.4021787 0.4748855
vt 0.4021787 0.4748855
vt 0.6754566 0.481744
vt 0.7248613 0.4984326
vt 0.6754566 0.4984326
vt 0.7441289 0.4059793
vt 0.7441289 0.4984326
vt 0.6755465 0.4059793
vt 0.6755465 0.4984326
vt 0.7134851 0.4984325
vt 0.6755465 0.4984326
vt 0.6754566 0.4059793
vt 0.7441289 0.4059793
vt 0.7441289 0.408129
vt 0.688936 0.4271308
vt 0.6754566 0.4984326
vt 0.535682 0.4059793
vt 0.5599524 0.4059793
vt 0.4008359 0.4719787
vt 0.4008359 0.4719787
vt 0.4008359 0.4719787
vt 0.4008359 0.4719787
vt 0.4008359 0.4719787
vt 0.4008359 0.4719787
vt 0.4008359 0.4719787
vt 0.4008359 0.4719787
vt 0.4008359 0.4719787
vt 0.4008359 0.4719787
vt 0.5753515 0.4059793
vt 0.4008359 0.4719787
vt 0.4008359 0.4719787
vt 0.4008359 0.4719787
vt 0.5960062 0.4984325
vt 0.5942255 0.4059793
vt 0.5753515 0.4059793
vt 0.4008359 0.4719787
vt 0.4008359 0.4719787
vt 0.4008359 0.4719787
vt 0.4008359 0.4719787
vt 0.4008359 0.4719787
vt 0.6269778 0.4059793
vt 0.4008359 0.4719787
vt 0.4008359 0.4719787
vt 0.4008359 0.4719787
vt 0.4008359 0.4719787
vt 0.4008359 0.4719787
vt 0.4008359 0.4719787
vt 0.4008359 0.4719787
vt 0.6457053 0.4059793
vt 0.4008359 0.4719787
vt 0.4008359 0.4719787
vt 0.4008359 0.4719787
vt 0.6732938 0.4336426
vt 0.6582657 0.4059793
vt 0.4008359 0.4719787
vt 0.4008359 0.4719787
vt 0.4008359 0.4719787
vt 0.4008359 0.4719787
vt 0.6732938 0.4059793
vt 0.4008359 0.4719787
vt 0.6755465 0.482327
vt 0.7038505 0.4920835
vt 0.7144547 0.4984326
vt 0.7378929 0.4059793
vt 0.7441289 0.4059793
vt 0.7441289 0.408129
vt 0.7441289 0.4984326
vt 0.7441289 0.4059793
vt 0.7340669 0.4059793
vt 0.7222695 0.4984326
vt 0.6754566 0.4059793
vt 0.4021787 0.4748855
vt 0.4021787 0.4748855
vt 0.4021787 0.4748855
vt 0.4021787 0.4748855
vt 0.4021787 0.4748855
vt 0.4021787 0.4748855
vt 0.4021787 0.4748855
vt 0.4021787 0.4748855
vt 0.4021787 0.4748855
vt 0.4021787 0.4748855
vt 0.4019346 0.4748855
vt 0.4019346 0.4748855
vt 0.4019346 0.4748855
vt 0.4019346 0.4748855
vt 0.4019346 0.4748855
vt 0.4019346 0.4748855
vt 0.4019346 0.4748855
vt 0.4019346 0.4748855
vt 0.4021787 0.4748855
vt 0.4021787 0.4748855
vt 0.4021787 0.4748855
vt 0.4021787 0.4748855
vt 0.4021787 0.4748855
vt 0.4021787 0.4748855
vt 0.4021787 0.4748855
vt 0.4021787 0.4748855
vt 0.4021787 0.4748855
vt 0.4021787 0.4748855
vt 0.4021787 0.4748855
vt 0.4021787 0.4748855
vt 0.4021787 0.4748855
vt 0.4021787 0.4748855
vt 0.4021787 0.4748855
vt 0.4021787 0.4748855
vt 0.4021787 0.4748855
vt 0.4021787 0.4748855
vt 0.4021787 0.4748855
vt 0.4021787 0.4748855
vn 0.09133918 2.951511E-05 0.9958198
vn 0.9994487 4.868031E-05 -0.03320061
vn 0.09133918 2.951511E-05 0.9958198
vn 0.9994487 4.868031E-05 -0.03320061
vn 0 1 0
vn 0 1 0
vn -0.09133917 -3.138864E-05 -0.9958198
vn -0.03322002 0 -0.999448
vn 0.09133592 3.646435E-05 0.99582
vn 0.09133333 4.198644E-05 0.9958203
vn -0.09431734 0.9954288 -0.01502263
vn -0.09133873 -3.021192E-05 -0.9958198
vn 0.05524652 0.001426076 0.9984717
vn 0.05183763 0.00155536 0.9986544
vn -0.2941701 0.9546039 -0.04685468
vn 0.03894604 -0.002211801 -0.9992388
vn 0.02746947 0.0007377739 0.9996223
vn 0.02401245 0.001119469 0.999711
vn 0.09732452 0.995212 0.009003685
vn -0.02318132 -0.0002071426 -0.9997312
vn -0.01425221 0.9998503 -0.009812495
vn 0.01421485 -0.999851 0.00979058
vn 0.04847042 0.001139117 0.9988239
vn 0.05139694 0.001338121 0.9986773
vn -0.1280175 0.987541 -0.0915109
vn 0.1267433 -0.9877916 0.09057466
vn 0.1740065 0.03226821 0.9842157
vn 0.1473616 0.02411824 0.9887885
vn 0.9994906 0.0004597774 -0.03190994
vn 0.9994592 0.000149996 -0.03288253
vn 0.1147956 0.02144519 0.9931577
vn 0.1821668 0.03923203 0.9824846
vn 0 -1 0
vn 0 -1 0
vn 0 -1 0
vn 0 -1 0
vn 0 -1 0
vn 0 -1 0
vn 0 -1 0
vn 0 -1 0
vn 0 -1 0
vn 0 -1 0
vn 0 -1 0
vn 0 -1 0
vn 0 -1 0
vn 0 -1 0
vn 0 1 0
vn 0 1 0
vn 0 1 0
vn 0 1 0
vn 0 1 0
vn 0 1 0
vn 0 1 0
vn 0 1 0
vn 0 1 0
vn 0 1 0
vn 0 1 0
vn 0 1 0
vn 0 1 0
vn 0 1 0
vn 0 1 0
vn -0.05503419 0.998446 -0.008765707
vn -0.09133917 -3.138864E-05 -0.9958198
vn -0.09133797 -2.80836E-05 -0.9958199
vn 0 -1 0
vn 0 -1 0
vn 0.05517318 -0.9984381 0.00878885
vn 0.09439898 -0.9954209 0.01503709
vn -0.9958199 0 0.09133822
vn -0.9958199 0 0.09133822
vn -0.9958199 0 0.09133822
vn -0.9958199 0 0.09133822
vn -0.2941701 0.9546039 -0.04685468
vn 0.03736653 -0.002185325 -0.9992993
vn 0.2915391 -0.9554309 0.04643935
vn 0.2915391 -0.9554309 0.04643935
vn 0.4113268 0.9106933 0.03805266
vn 0.1163666 0.993148 0.01076531
vn 0.4113267 0.9106933 0.03805265
vn -0.00622675 -0.0005537334 -0.9999804
vn -0.4049175 -0.9135856 -0.0374593
vn -0.1160013 -0.9931911 -0.01073072
vn -0.0967537 -0.995268 -0.008950167
vn -0.4049175 -0.9135856 -0.03745929
vn -0.03884576 0.9988872 -0.0267449
vn -0.03322002 0 -0.999448
vn 0 -1 0
vn 0.03875598 -0.9988921 0.02669222
vn 0.9994431 -0.0007938741 -0.03336014
vn 0.9994473 -0.0006409984 -0.03323649
vn 0.9994473 -0.0006409984 -0.03323649
vn 0.9994439 -0.0007607701 -0.03333337
vn -0.1122795 0.9902883 -0.08199117
vn 0.1110528 -0.9905019 0.08107546
vn 0.999466 -0.0005136468 -0.03267143
vn 0.999486 -0.0001284084 -0.03206024
vn 0.2473047 0.9590039 0.1383911
vn 0.211984 0.9700468 0.1186257
vn -0.2105424 -0.9704494 -0.117898
vn -0.2443859 -0.9599727 -0.1368498
vn 0.03321607 -3.469495E-05 0.9994482
vn 0.03321607 -3.469495E-05 0.9994482
vn 0 1 0
vn 0 -1 0
vn 0 1 0
vn 0 1 0
vn 0 1 0
vn 0 1 0
vn 0 1 0
vn 0 1 0
vn 0 1 0
vn 0 1 0
vn 0 1 0
vn 0 1 0
vn 0 1 0
vn -0.05053615 0 -0.9987221
vn -0.05053615 0 -0.9987221
vn 0.1114692 0 -0.9937679
vn 0.1114692 0 -0.9937679
vn -0.9949823 0 -0.1000518
vn -0.9949823 0 -0.1000518
vn -0.9949823 0 -0.1000518
vn -0.9949823 0 -0.1000518
vn -0.08423043 0 0.9964463
vn -0.08423043 0 0.9964463
vn -0.1183522 0 0.9929717
vn -0.1183522 0 0.9929717
vn 0.9938803 0 0.1104631
vn 0.9938803 0 0.1104631
vn 0.9938803 0 0.1104631
vn 0.9938803 0 0.1104631
vn 0.1051562 0 -0.9944558
vn 0.1051562 0 -0.9944558
vn 0.1051562 0 -0.9944558
vn 0.1051562 0 -0.9944558
vn 0.9701311 0 -0.2425815
vn 0.970131 0 -0.2425815
vn 0.9701311 0 -0.2425815
vn 0.970131 0 -0.2425815
vn 0.2201464 0 0.9754668
vn 0.2201464 0 0.9754668
vn 0.2143856 0 0.9767492
vn 0.2143856 0 0.9767492
vn -0.219812 0 -0.9755422
vn -0.219812 0 -0.9755422
vn -0.219812 0 -0.9755422
vn -0.219812 0 -0.9755422
vn -0.9754667 0 0.2201472
vn -0.9754667 0 0.2201472
vn -0.9754667 0 0.2201472
vn -0.9754667 0 0.2201472
vn -0.2202304 0 -0.9754479
vn -0.2202304 0 -0.9754479
g SM_Prop_Plans_06_0
f 110/110/110 109/109/109 108/108/108
f 10/10/10 3/3/3 1/1/1
f 9/9/9 10/10/10 1/1/1
f 9/9/9 13/13/13 10/10/10
f 13/13/13 14/14/14 10/10/10
f 13/13/13 17/17/17 14/14/14
f 17/17/17 18/18/18 14/14/14
f 17/17/17 23/23/23 18/18/18
f 23/23/23 24/24/24 18/18/18
f 23/23/23 27/27/27 24/24/24
f 27/27/27 28/28/28 24/24/24
f 27/27/27 31/31/31 28/28/28
f 31/31/31 32/32/32 28/28/28
f 31/31/31 102/102/102 32/32/32
f 102/102/102 101/101/101 32/32/32
f 11/11/11 5/5/5 61/61/61
f 62/62/62 11/11/11 61/61/61
f 62/62/62 73/73/73 11/11/11
f 73/73/73 15/15/15 11/11/11
f 12/12/12 7/7/7 63/63/63
f 64/64/64 12/12/12 63/63/63
f 64/64/64 74/74/74 12/12/12
f 74/74/74 16/16/16 12/12/12
f 74/74/74 80/80/80 16/16/16
f 80/80/80 20/20/20 16/16/16
f 80/80/80 86/86/86 20/20/20
f 86/86/86 8/8/8 20/20/20
f 67/67/67 66/66/66 65/65/65
f 68/68/68 67/67/67 65/65/65
f 68/68/68 76/76/76 67/67/67
f 76/76/76 75/75/75 67/67/67
f 29/29/29 4/4/4 2/2/2
f 30/30/30 29/29/29 2/2/2
f 30/30/30 96/96/96 29/29/29
f 96/96/96 95/95/95 29/29/29
f 96/96/96 92/92/92 95/95/95
f 92/92/92 89/89/89 95/95/95
f 92/92/92 91/91/91 89/89/89
f 91/91/91 90/90/90 89/89/89
f 71/71/71 70/70/70 69/69/69
f 72/72/72 71/71/71 69/69/69
f 79/79/79 78/78/78 77/77/77
f 78/78/78 19/19/19 77/77/77
f 19/19/19 78/78/78 21/21/21
f 21/21/21 6/6/6 19/19/19
f 78/78/78 85/85/85 21/21/21
f 85/85/85 93/93/93 21/21/21
f 93/93/93 25/25/25 21/21/21
f 93/93/93 98/98/98 25/25/25
f 98/98/98 97/97/97 25/25/25
f 98/98/98 103/103/103 97/97/97
f 84/84/84 83/83/83 81/81/81
f 83/83/83 82/82/82 81/81/81
f 22/22/22 82/82/82 83/83/83
f 83/83/83 87/87/87 22/22/22
f 22/22/22 88/88/88 82/82/82
f 22/22/22 26/26/26 88/88/88
f 26/26/26 94/94/94 88/88/88
f 26/26/26 100/100/100 94/94/94
f 100/100/100 99/99/99 94/94/94
f 100/100/100 104/104/104 99/99/99
f 48/48/48 49/49/49 47/47/47
f 111/111/111 48/48/48 47/47/47
f 47/47/47 112/112/112 111/111/111
f 47/47/47 113/113/113 112/112/112
f 113/113/113 47/47/47 115/115/115
f 54/54/54 51/51/51 50/50/50
f 50/50/50 53/53/53 54/54/54
f 50/50/50 52/52/52 53/53/53
f 106/106/106 105/105/105 55/55/55
f 106/106/106 55/55/55 114/114/114
f 60/60/60 59/59/59 107/107/107
f 56/56/56 59/59/59 60/60/60
f 58/58/58 59/59/59 56/56/56
f 58/58/58 56/56/56 57/57/57
f 35/35/35 45/45/45 43/43/43
f 43/43/43 45/45/45 37/37/37
f 41/41/41 37/37/37 45/45/45
f 46/46/46 37/37/37 41/41/41
f 38/38/38 37/37/37 46/46/46
f 37/37/37 38/38/38 43/43/43
f 46/46/46 36/36/36 38/38/38
f 36/36/36 34/34/34 38/38/38
f 38/38/38 44/44/44 43/43/43
f 42/42/42 44/44/44 38/38/38
f 39/39/39 44/44/44 42/42/42
f 43/43/43 44/44/44 33/33/33
f 33/33/33 44/44/44 39/39/39
f 33/33/33 40/40/40 43/43/43
f 33/33/33 39/39/39 40/40/40
f 119/119/119 118/118/118 116/116/116
f 118/118/118 117/117/117 116/116/116
f 116/116/116 117/117/117 152/152/152
f 117/117/117 153/153/153 152/152/152
f 122/122/122 121/121/121 120/120/120
f 123/123/123 122/122/122 120/120/120
f 127/127/127 126/126/126 124/124/124
f 126/126/126 125/125/125 124/124/124
f 124/124/124 125/125/125 143/143/143
f 125/125/125 142/142/142 143/143/143
f 143/143/143 142/142/142 140/140/140
f 142/142/142 141/141/141 140/140/140
f 130/130/130 129/129/129 128/128/128
f 131/131/131 130/130/130 128/128/128
f 134/134/134 133/133/133 132/132/132
f 135/135/135 134/134/134 132/132/132
f 138/138/138 137/137/137 136/136/136
f 139/139/139 138/138/138 136/136/136
f 146/146/146 145/145/145 144/144/144
f 147/147/147 146/146/146 144/144/144
f 150/150/150 149/149/149 148/148/148
f 151/151/151 150/150/150 148/148/148
