g SM_Prop_BabyCot_Door_01
v 0.02108826 0.5703576 0.3962596
v 0.003601684 0.5703576 0.2624422
v 0.02108826 0.5449014 0.2579175
v 0.003601684 0.5703576 0.2624422
v 0.02108826 0.5703576 0.1308896
v 0.02108826 0.5449014 0.2579175
v 0.02108826 0.5106456 -0.1617314
v 0.02108826 0.5249977 -0.2063379
v 0.01054749 0.5106456 -0.2153924
v 0.02108826 0.5249977 -0.2063379
v 0.02108826 0.5106456 -0.2733253
v 0.01054749 0.5106456 -0.2153924
v 0.008184204 0.5703576 -0.5895765
v 0.02108826 0.5528326 -0.5895768
v 0.02108826 0.5703576 -0.5254658
v -0.01561096 0.0597121 -0.1640664
v 0.01560974 0.0597121 -0.1640664
v 0.01560974 0.5106454 -0.1640664
v -0.01561096 0.5106454 -0.1640664
v -0.01561096 0.5106454 -0.113204
v 0.01560974 0.5106454 -0.113204
v 0.01560974 0.0597121 -0.113204
v -0.01561096 0.0597121 -0.113204
v 0.01560974 0.0597121 -0.1640664
v 0.01560974 0.0597121 -0.113204
v 0.01560974 0.5106454 -0.113204
v 0.01560974 0.5106454 -0.1640664
v -0.01561096 0.0597121 -0.113204
v -0.01561096 0.0597121 -0.1640664
v -0.01561096 0.5106454 -0.1640664
v -0.01561096 0.5106454 -0.113204
v -0.01561096 0.0597121 -0.3027003
v 0.01560974 0.0597121 -0.3027003
v 0.01560974 0.5106454 -0.3027003
v -0.01561096 0.5106454 -0.3027003
v -0.01561096 0.5106454 -0.2518377
v 0.01560974 0.5106454 -0.2518377
v 0.01560974 0.0597121 -0.2518377
v -0.01561096 0.0597121 -0.2518377
v 0.01560974 0.0597121 -0.3027003
v 0.01560974 0.0597121 -0.2518377
v 0.01560974 0.5106454 -0.2518377
v 0.01560974 0.5106454 -0.3027003
v -0.01561096 0.0597121 -0.2518377
v -0.01561096 0.0597121 -0.3027003
v -0.01561096 0.5106454 -0.3027003
v -0.01561096 0.5106454 -0.2518377
v -0.01561096 0.0597121 -0.4413345
v 0.01560974 0.0597121 -0.4413345
v 0.01560974 0.5106454 -0.4413345
v -0.01561096 0.5106454 -0.4413345
v -0.01561096 0.5106454 -0.3904716
v 0.01560974 0.5106454 -0.3904716
v 0.01560974 0.0597121 -0.3904716
v -0.01561096 0.0597121 -0.3904716
v 0.01560974 0.0597121 -0.4413345
v 0.01560974 0.0597121 -0.3904716
v 0.01560974 0.5106454 -0.3904716
v 0.01560974 0.5106454 -0.4413345
v -0.01561096 0.0597121 -0.3904716
v -0.01561096 0.0597121 -0.4413345
v -0.01561096 0.5106454 -0.4413345
v -0.01561096 0.5106454 -0.3904716
v -0.01561096 0.0597121 -0.5799682
v 0.01560974 0.0597121 -0.5799682
v 0.01560974 0.5106454 -0.5799682
v -0.01561096 0.5106454 -0.5799682
v -0.01561096 0.5106454 -0.5291055
v 0.01560974 0.5106454 -0.5291055
v 0.01560974 0.0597121 -0.5291055
v -0.01561096 0.0597121 -0.5291055
v 0.01560974 0.0597121 -0.5799682
v 0.01560974 0.0597121 -0.5291055
v 0.01560974 0.5106454 -0.5291055
v 0.01560974 0.5106454 -0.5799682
v -0.01561096 0.0597121 -0.5291055
v -0.01561096 0.0597121 -0.5799682
v -0.01561096 0.5106454 -0.5799682
v -0.01561096 0.5106454 -0.5291055
v -0.02108948 0.5106456 0.589577
v -0.02108948 0.5703576 0.589577
v 0.02108826 0.5703576 0.589577
v 0.02108826 0.5106456 0.589577
v -0.02108948 0.5106456 -0.5895767
v 0.02108826 0.5106456 -0.5895767
v 0.02108826 0.5528326 -0.5895768
v 0.008184204 0.5703576 -0.5895765
v -0.02108948 0.5703576 -0.5895767
v -0.02108948 0.5106456 0.589577
v 0.02108826 0.5106456 0.589577
v 0.02108826 0.5106456 -0.1617314
v 0.01054749 0.5106456 -0.2153924
v -0.02108948 0.5106456 -0.5895767
v 0.02108826 0.5106456 -0.2733253
v 0.02108826 0.5106456 -0.5895767
v 0.02108826 0.5528326 -0.5895768
v 0.02108826 0.5106456 -0.5895767
v 0.02108826 0.5106456 -0.2733253
v 0.02108826 0.5249977 -0.2063379
v 0.02108826 0.5703576 -0.5254658
v 0.02108826 0.5449014 0.2579175
v 0.02108826 0.5703576 0.1308896
v 0.02108826 0.5106456 0.589577
v 0.02108826 0.5106456 -0.1617314
v 0.02108826 0.5703576 0.3962596
v 0.02108826 0.5703576 0.589577
v -0.02108948 0.5106456 -0.5895767
v -0.02108948 0.5703576 -0.5895767
v -0.02108948 0.5703576 0.589577
v -0.02108948 0.5106456 0.589577
v -0.02108948 0.5703576 0.589577
v 0.02108826 0.5703576 0.3962596
v 0.02108826 0.5703576 0.589577
v 0.003601684 0.5703576 0.2624422
v -0.02108948 0.5703576 -0.5895767
v 0.008184204 0.5703576 -0.5895765
v 0.02108826 0.5703576 -0.5254658
v 0.02108826 0.5703576 0.1308896
v -0.01561096 0.0597121 0.1640642
v -0.01561096 0.5106454 0.1640642
v 0.01560974 0.5106454 0.1640642
v 0.01560974 0.0597121 0.1640642
v -0.01561096 0.5106454 0.1132013
v -0.01561096 0.0597121 0.1132013
v 0.01560974 0.0597121 0.1132013
v 0.01560974 0.5106454 0.1132013
v 0.01560974 0.0597121 0.1640642
v 0.01560974 0.5106454 0.1640642
v 0.01560974 0.5106454 0.1132013
v 0.01560974 0.0597121 0.1132013
v -0.01561096 0.0597121 0.1132013
v -0.01561096 0.5106454 0.1132013
v -0.01561096 0.5106454 0.1640642
v -0.01561096 0.0597121 0.1640642
v -0.01561096 0.0597121 0.3026981
v -0.01561096 0.5106454 0.3026981
v 0.01560974 0.5106454 0.3026981
v 0.01560974 0.0597121 0.3026981
v -0.01561096 0.5106454 0.2518355
v -0.01561096 0.0597121 0.2518355
v 0.01560974 0.0597121 0.2518355
v 0.01560974 0.5106454 0.2518355
v 0.01560974 0.0597121 0.3026981
v 0.01560974 0.5106454 0.3026981
v 0.01560974 0.5106454 0.2518355
v 0.01560974 0.0597121 0.2518355
v -0.01561096 0.0597121 0.2518355
v -0.01561096 0.5106454 0.2518355
v -0.01561096 0.5106454 0.3026981
v -0.01561096 0.0597121 0.3026981
v -0.01561096 0.0597121 0.4413318
v -0.01561096 0.5106454 0.4413318
v 0.01560974 0.5106454 0.4413318
v 0.01560974 0.0597121 0.4413318
v -0.01561096 0.5106454 0.3904694
v -0.01561096 0.0597121 0.3904694
v 0.01560974 0.0597121 0.3904694
v 0.01560974 0.5106454 0.3904694
v 0.01560974 0.0597121 0.4413318
v 0.01560974 0.5106454 0.4413318
v 0.01560974 0.5106454 0.3904694
v 0.01560974 0.0597121 0.3904694
v -0.01561096 0.0597121 0.3904694
v -0.01561096 0.5106454 0.3904694
v -0.01561096 0.5106454 0.4413318
v -0.01561096 0.0597121 0.4413318
v -0.01561096 0.0597121 0.5799658
v -0.01561096 0.5106454 0.5799658
v 0.01560974 0.5106454 0.5799658
v 0.01560974 0.0597121 0.5799658
v -0.01561096 0.5106454 0.5291033
v -0.01561096 0.0597121 0.5291033
v 0.01560974 0.0597121 0.5291033
v 0.01560974 0.5106454 0.5291033
v 0.01560974 0.0597121 0.5799658
v 0.01560974 0.5106454 0.5799658
v 0.01560974 0.5106454 0.5291033
v 0.01560974 0.0597121 0.5291033
v -0.01561096 0.0597121 0.5291033
v -0.01561096 0.5106454 0.5291033
v -0.01561096 0.5106454 0.5799658
v -0.01561096 0.0597121 0.5799658
v -0.01561096 0.0597121 0.02543018
v -0.01561096 0.5106454 0.02543018
v 0.01560974 0.5106454 0.02543018
v 0.01560974 0.0597121 0.02543018
v -0.01561096 0.5106454 -0.02543239
v -0.01561096 0.0597121 -0.02543239
v 0.01560974 0.0597121 -0.02543239
v 0.01560974 0.5106454 -0.02543239
v 0.01560974 0.0597121 0.02543018
v 0.01560974 0.5106454 0.02543018
v 0.01560974 0.5106454 -0.02543239
v 0.01560974 0.0597121 -0.02543239
v -0.01561096 0.0597121 -0.02543239
v -0.01561096 0.5106454 -0.02543239
v -0.01561096 0.5106454 0.02543018
v -0.01561096 0.0597121 0.02543018
v -0.02108948 0 0.589577
v -0.02108948 0.05971214 0.589577
v 0.02108826 0.05971214 0.589577
v 0.02108826 0 0.589577
v -0.02108948 0.05971214 0.589577
v -0.02108948 0.05971214 -0.5895767
v 0.02108826 0.05971214 -0.5895767
v 0.02108826 0.05971214 0.589577
v -0.02108948 0.05971214 -0.5895767
v -0.02108948 0 -0.5895767
v 0.02108826 0 -0.5895767
v 0.02108826 0.05971214 -0.5895767
v -0.02108948 0 -0.5895767
v -0.02108948 0 0.589577
v 0.02108826 0 0.589577
v 0.02108826 0 -0.5895767
v 0.02108826 0 0.589577
v 0.02108826 0.05971214 0.589577
v 0.02108826 0.05971214 -0.5895767
v 0.02108826 0 -0.5895767
v -0.02108948 0 -0.5895767
v -0.02108948 0.05971214 -0.5895767
v -0.02108948 0.05971214 0.589577
v -0.02108948 0 0.589577
vt 0.301937 0.265206
vt 0.301937 0.265206
vt 0.301937 0.265206
vt 0.301937 0.265206
vt 0.301937 0.265206
vt 0.301937 0.265206
vt 0.301937 0.265206
vt 0.301937 0.265206
vt 0.301937 0.265206
vt 0.301937 0.265206
vt 0.301937 0.265206
vt 0.301937 0.265206
vt 0.301937 0.265206
vt 0.301937 0.265206
vt 0.301937 0.265206
vt 0.301937 0.265206
vt 0.301937 0.265206
vt 0.301937 0.265206
vt 0.301937 0.265206
vt 0.301937 0.265206
vt 0.301937 0.265206
vt 0.301937 0.265206
vt 0.301937 0.265206
vt 0.301937 0.265206
vt 0.301937 0.265206
vt 0.301937 0.265206
vt 0.301937 0.265206
vt 0.301937 0.265206
vt 0.301937 0.265206
vt 0.301937 0.265206
vt 0.301937 0.265206
vt 0.301937 0.265206
vt 0.301937 0.265206
vt 0.301937 0.265206
vt 0.301937 0.265206
vt 0.301937 0.265206
vt 0.301937 0.265206
vt 0.301937 0.265206
vt 0.301937 0.265206
vt 0.301937 0.265206
vt 0.301937 0.265206
vt 0.301937 0.265206
vt 0.301937 0.265206
vt 0.301937 0.265206
vt 0.301937 0.265206
vt 0.301937 0.265206
vt 0.301937 0.265206
vt 0.301937 0.265206
vt 0.301937 0.265206
vt 0.301937 0.265206
vt 0.301937 0.265206
vt 0.301937 0.265206
vt 0.301937 0.265206
vt 0.301937 0.265206
vt 0.301937 0.265206
vt 0.301937 0.265206
vt 0.301937 0.265206
vt 0.301937 0.265206
vt 0.301937 0.265206
vt 0.301937 0.265206
vt 0.301937 0.265206
vt 0.301937 0.265206
vt 0.301937 0.265206
vt 0.301937 0.265206
vt 0.301937 0.265206
vt 0.301937 0.265206
vt 0.301937 0.265206
vt 0.301937 0.265206
vt 0.301937 0.265206
vt 0.301937 0.265206
vt 0.301937 0.265206
vt 0.301937 0.265206
vt 0.301937 0.265206
vt 0.301937 0.265206
vt 0.301937 0.265206
vt 0.301937 0.265206
vt 0.301937 0.265206
vt 0.301937 0.265206
vt 0.301937 0.265206
vt 0.301937 0.265206
vt 0.301937 0.265206
vt 0.301937 0.265206
vt 0.301937 0.265206
vt 0.301937 0.265206
vt 0.301937 0.265206
vt 0.301937 0.265206
vt 0.301937 0.265206
vt 0.301937 0.265206
vt 0.301937 0.265206
vt 0.301937 0.265206
vt 0.301937 0.265206
vt 0.301937 0.265206
vt 0.301937 0.265206
vt 0.301937 0.265206
vt 0.301937 0.265206
vt 0.301937 0.265206
vt 0.301937 0.265206
vt 0.301937 0.265206
vt 0.301937 0.265206
vt 0.301937 0.265206
vt 0.301937 0.265206
vt 0.301937 0.265206
vt 0.301937 0.265206
vt 0.301937 0.265206
vt 0.301937 0.265206
vt 0.301937 0.265206
vt 0.301937 0.265206
vt 0.301937 0.265206
vt 0.301937 0.265206
vt 0.301937 0.265206
vt 0.301937 0.265206
vt 0.301937 0.265206
vt 0.301937 0.265206
vt 0.301937 0.265206
vt 0.301937 0.265206
vt 0.301937 0.265206
vt 0.301937 0.265206
vt 0.301937 0.265206
vt 0.301937 0.265206
vt 0.301937 0.265206
vt 0.301937 0.265206
vt 0.301937 0.265206
vt 0.301937 0.265206
vt 0.301937 0.265206
vt 0.301937 0.265206
vt 0.301937 0.265206
vt 0.301937 0.265206
vt 0.301937 0.265206
vt 0.301937 0.265206
vt 0.301937 0.265206
vt 0.301937 0.265206
vt 0.301937 0.265206
vt 0.301937 0.265206
vt 0.301937 0.265206
vt 0.301937 0.265206
vt 0.301937 0.265206
vt 0.301937 0.265206
vt 0.301937 0.265206
vt 0.301937 0.265206
vt 0.301937 0.265206
vt 0.301937 0.265206
vt 0.301937 0.265206
vt 0.301937 0.265206
vt 0.301937 0.265206
vt 0.301937 0.265206
vt 0.301937 0.265206
vt 0.301937 0.265206
vt 0.301937 0.265206
vt 0.301937 0.265206
vt 0.301937 0.265206
vt 0.301937 0.265206
vt 0.301937 0.265206
vt 0.301937 0.265206
vt 0.301937 0.265206
vt 0.301937 0.265206
vt 0.301937 0.265206
vt 0.301937 0.265206
vt 0.301937 0.265206
vt 0.301937 0.265206
vt 0.301937 0.265206
vt 0.301937 0.265206
vt 0.301937 0.265206
vt 0.301937 0.265206
vt 0.301937 0.265206
vt 0.301937 0.265206
vt 0.301937 0.265206
vt 0.301937 0.265206
vt 0.301937 0.265206
vt 0.301937 0.265206
vt 0.301937 0.265206
vt 0.301937 0.265206
vt 0.301937 0.265206
vt 0.301937 0.265206
vt 0.301937 0.265206
vt 0.301937 0.265206
vt 0.301937 0.265206
vt 0.301937 0.265206
vt 0.301937 0.265206
vt 0.301937 0.265206
vt 0.301937 0.265206
vt 0.301937 0.265206
vt 0.301937 0.265206
vt 0.301937 0.265206
vt 0.301937 0.265206
vt 0.301937 0.265206
vt 0.301937 0.265206
vt 0.301937 0.265206
vt 0.301937 0.265206
vt 0.301937 0.265206
vt 0.301937 0.265206
vt 0.301937 0.265206
vt 0.301937 0.265206
vt 0.301937 0.265206
vt 0.301937 0.265206
vt 0.301937 0.265206
vt 0.301937 0.265206
vt 0.301937 0.265206
vt 0.301937 0.265206
vt 0.301937 0.265206
vt 0.301937 0.265206
vt 0.301937 0.265206
vt 0.301937 0.265206
vt 0.301937 0.265206
vt 0.301937 0.265206
vt 0.301937 0.265206
vt 0.301937 0.265206
vt 0.301937 0.265206
vt 0.301937 0.265206
vt 0.301937 0.265206
vt 0.301937 0.265206
vt 0.301937 0.265206
vt 0.301937 0.265206
vt 0.301937 0.265206
vt 0.301937 0.265206
vt 0.301937 0.265206
vt 0.301937 0.265206
vt 0.301937 0.265206
vt 0.301937 0.265206
vt 0.301937 0.265206
vt 0.301937 0.265206
vt 0.301937 0.265206
vt 0.301937 0.265206
vn 0.8107355 0.5757467 -0.1059427
vn 0.8107355 0.5757467 -0.1059427
vn 0.8107355 0.5757467 -0.1059427
vn 0.8282766 0.5493962 0.1100983
vn 0.8282766 0.5493962 0.1100983
vn 0.8282766 0.5493962 0.1100983
vn 0.8417602 -0.5139061 -0.165349
vn 0.8417602 -0.5139061 -0.165349
vn 0.8417602 -0.5139061 -0.165349
vn 0.755003 -0.6411705 0.1373713
vn 0.755003 -0.6411705 0.1373713
vn 0.755003 -0.6411705 0.1373713
vn 0.7948816 0.5852912 -0.1599919
vn 0.7948816 0.5852912 -0.1599919
vn 0.7948816 0.5852912 -0.1599919
vn 0 0 -1
vn 0 0 -1
vn 0 0 -1
vn 0 0 -1
vn 0 0 1
vn 0 0 1
vn 0 0 1
vn 0 0 1
vn 1 0 0
vn 1 0 0
vn 1 0 0
vn 1 0 0
vn -1 0 0
vn -1 0 0
vn -1 0 0
vn -1 0 0
vn 0 0 -1
vn 0 0 -1
vn 0 0 -1
vn 0 0 -1
vn 0 0 1
vn 0 0 1
vn 0 0 1
vn 0 0 1
vn 1 0 0
vn 1 0 0
vn 1 0 0
vn 1 0 0
vn -1 0 0
vn -1 0 0
vn -1 0 0
vn -1 0 0
vn 0 0 -1
vn 0 0 -1
vn 0 0 -1
vn 0 0 -1
vn 0 0 1
vn 0 0 1
vn 0 0 1
vn 0 0 1
vn 1 0 0
vn 1 0 0
vn 1 0 0
vn 1 0 0
vn -1 0 0
vn -1 0 0
vn -1 0 0
vn -1 0 0
vn 0 0 -1
vn 0 0 -1
vn 0 0 -1
vn 0 0 -1
vn 0 0 1
vn 0 0 1
vn 0 0 1
vn 0 0 1
vn 1 0 0
vn 1 0 0
vn 1 0 0
vn 1 0 0
vn -1 0 0
vn -1 0 0
vn -1 0 0
vn -1 0 0
vn 0 0 1
vn 0 0 1
vn 0 0 1
vn 0 0 1
vn 0 0 -1
vn 0 0 -1
vn -6.056863E-06 0 -1
vn 0 0 -1
vn 0 0 -1
vn 0 -1 0
vn 0 -1 0
vn 0 -1 0
vn 0 -1 0
vn 0 -1 0
vn 0 -1 0
vn 0 -1 0
vn 1 0 0
vn 1 0 0
vn 1 0 0
vn 1 0 0
vn 1 0 0
vn 1 0 0
vn 1 0 0
vn 1 0 0
vn 1 0 0
vn 1 0 0
vn 1 0 0
vn -1 0 0
vn -1 0 0
vn -1 0 0
vn -1 0 0
vn 0 1 0
vn 0 1 0
vn 0 1 0
vn 0 1 0
vn 0 1 0
vn 0 1 0
vn 0 1 0
vn 0 1 0
vn 0 0 1
vn 0 0 1
vn 0 0 1
vn 0 0 1
vn 0 0 -1
vn 0 0 -1
vn 0 0 -1
vn 0 0 -1
vn 1 0 0
vn 1 0 0
vn 1 0 0
vn 1 0 0
vn -1 0 0
vn -1 0 0
vn -1 0 0
vn -1 0 0
vn 0 0 1
vn 0 0 1
vn 0 0 1
vn 0 0 1
vn 0 0 -1
vn 0 0 -1
vn 0 0 -1
vn 0 0 -1
vn 1 0 0
vn 1 0 0
vn 1 0 0
vn 1 0 0
vn -1 0 0
vn -1 0 0
vn -1 0 0
vn -1 0 0
vn 0 0 1
vn 0 0 1
vn 0 0 1
vn 0 0 1
vn 0 0 -1
vn 0 0 -1
vn 0 0 -1
vn 0 0 -1
vn 1 0 0
vn 1 0 0
vn 1 0 0
vn 1 0 0
vn -1 0 0
vn -1 0 0
vn -1 0 0
vn -1 0 0
vn 0 0 1
vn 0 0 1
vn 0 0 1
vn 0 0 1
vn 0 0 -1
vn 0 0 -1
vn 0 0 -1
vn 0 0 -1
vn 1 0 0
vn 1 0 0
vn 1 0 0
vn 1 0 0
vn -1 0 0
vn -1 0 0
vn -1 0 0
vn -1 0 0
vn 0 0 1
vn 0 0 1
vn 0 0 1
vn 0 0 1
vn 0 0 -1
vn 0 0 -1
vn 0 0 -1
vn 0 0 -1
vn 1 0 0
vn 1 0 0
vn 1 0 0
vn 1 0 0
vn -1 0 0
vn -1 0 0
vn -1 0 0
vn -1 0 0
vn 0 0 1
vn 0 0 1
vn 0 0 1
vn 0 0 1
vn 0 1 0
vn 0 1 0
vn 0 1 0
vn 0 1 0
vn 0 0 -1
vn 0 0 -1
vn 0 0 -1
vn 0 0 -1
vn 0 -1 0
vn 0 -1 0
vn 0 -1 0
vn 0 -1 0
vn 1 0 0
vn 1 0 0
vn 1 0 0
vn 1 0 0
vn -1 0 0
vn -1 0 0
vn -1 0 0
vn -1 0 0
g SM_Prop_BabyCot_Door_01_0
f 3/3/3 2/2/2 1/1/1
f 6/6/6 5/5/5 4/4/4
f 9/9/9 8/8/8 7/7/7
f 12/12/12 11/11/11 10/10/10
f 15/15/15 14/14/14 13/13/13
f 18/18/18 17/17/17 16/16/16
f 19/19/19 18/18/18 16/16/16
f 22/22/22 21/21/21 20/20/20
f 23/23/23 22/22/22 20/20/20
f 26/26/26 25/25/25 24/24/24
f 27/27/27 26/26/26 24/24/24
f 30/30/30 29/29/29 28/28/28
f 31/31/31 30/30/30 28/28/28
f 34/34/34 33/33/33 32/32/32
f 35/35/35 34/34/34 32/32/32
f 38/38/38 37/37/37 36/36/36
f 39/39/39 38/38/38 36/36/36
f 42/42/42 41/41/41 40/40/40
f 43/43/43 42/42/42 40/40/40
f 46/46/46 45/45/45 44/44/44
f 47/47/47 46/46/46 44/44/44
f 50/50/50 49/49/49 48/48/48
f 51/51/51 50/50/50 48/48/48
f 54/54/54 53/53/53 52/52/52
f 55/55/55 54/54/54 52/52/52
f 58/58/58 57/57/57 56/56/56
f 59/59/59 58/58/58 56/56/56
f 62/62/62 61/61/61 60/60/60
f 63/63/63 62/62/62 60/60/60
f 66/66/66 65/65/65 64/64/64
f 67/67/67 66/66/66 64/64/64
f 70/70/70 69/69/69 68/68/68
f 71/71/71 70/70/70 68/68/68
f 74/74/74 73/73/73 72/72/72
f 75/75/75 74/74/74 72/72/72
f 78/78/78 77/77/77 76/76/76
f 79/79/79 78/78/78 76/76/76
f 82/82/82 81/81/81 80/80/80
f 83/83/83 82/82/82 80/80/80
f 86/86/86 85/85/85 84/84/84
f 84/84/84 87/87/87 86/86/86
f 84/84/84 88/88/88 87/87/87
f 91/91/91 90/90/90 89/89/89
f 92/92/92 91/91/91 89/89/89
f 92/92/92 89/89/89 93/93/93
f 94/94/94 92/92/92 93/93/93
f 95/95/95 94/94/94 93/93/93
f 98/98/98 97/97/97 96/96/96
f 96/96/96 99/99/99 98/98/98
f 96/96/96 100/100/100 99/99/99
f 99/99/99 100/100/100 101/101/101
f 100/100/100 102/102/102 101/101/101
f 99/99/99 101/101/101 103/103/103
f 104/104/104 99/99/99 103/103/103
f 101/101/101 105/105/105 103/103/103
f 105/105/105 106/106/106 103/103/103
f 109/109/109 108/108/108 107/107/107
f 110/110/110 109/109/109 107/107/107
f 113/113/113 112/112/112 111/111/111
f 112/112/112 114/114/114 111/111/111
f 114/114/114 115/115/115 111/111/111
f 116/116/116 115/115/115 114/114/114
f 114/114/114 117/117/117 116/116/116
f 114/114/114 118/118/118 117/117/117
f 121/121/121 120/120/120 119/119/119
f 122/122/122 121/121/121 119/119/119
f 125/125/125 124/124/124 123/123/123
f 126/126/126 125/125/125 123/123/123
f 129/129/129 128/128/128 127/127/127
f 130/130/130 129/129/129 127/127/127
f 133/133/133 132/132/132 131/131/131
f 134/134/134 133/133/133 131/131/131
f 137/137/137 136/136/136 135/135/135
f 138/138/138 137/137/137 135/135/135
f 141/141/141 140/140/140 139/139/139
f 142/142/142 141/141/141 139/139/139
f 145/145/145 144/144/144 143/143/143
f 146/146/146 145/145/145 143/143/143
f 149/149/149 148/148/148 147/147/147
f 150/150/150 149/149/149 147/147/147
f 153/153/153 152/152/152 151/151/151
f 154/154/154 153/153/153 151/151/151
f 157/157/157 156/156/156 155/155/155
f 158/158/158 157/157/157 155/155/155
f 161/161/161 160/160/160 159/159/159
f 162/162/162 161/161/161 159/159/159
f 165/165/165 164/164/164 163/163/163
f 166/166/166 165/165/165 163/163/163
f 169/169/169 168/168/168 167/167/167
f 170/170/170 169/169/169 167/167/167
f 173/173/173 172/172/172 171/171/171
f 174/174/174 173/173/173 171/171/171
f 177/177/177 176/176/176 175/175/175
f 178/178/178 177/177/177 175/175/175
f 181/181/181 180/180/180 179/179/179
f 182/182/182 181/181/181 179/179/179
f 185/185/185 184/184/184 183/183/183
f 186/186/186 185/185/185 183/183/183
f 189/189/189 188/188/188 187/187/187
f 190/190/190 189/189/189 187/187/187
f 193/193/193 192/192/192 191/191/191
f 194/194/194 193/193/193 191/191/191
f 197/197/197 196/196/196 195/195/195
f 198/198/198 197/197/197 195/195/195
f 201/201/201 200/200/200 199/199/199
f 202/202/202 201/201/201 199/199/199
f 205/205/205 204/204/204 203/203/203
f 206/206/206 205/205/205 203/203/203
f 209/209/209 208/208/208 207/207/207
f 210/210/210 209/209/209 207/207/207
f 213/213/213 212/212/212 211/211/211
f 214/214/214 213/213/213 211/211/211
f 217/217/217 216/216/216 215/215/215
f 218/218/218 217/217/217 215/215/215
f 221/221/221 220/220/220 219/219/219
f 222/222/222 221/221/221 219/219/219
