g SM_Prop_Kitchen_CounterWashing_Machine_01_Door
v -0.4398179 0.5809353 0.03573226
v -0.4398179 0.01049433 0.03573226
v -0.452147 -3.433006E-09 -1.604885E-07
v -0.452147 0.7255481 -1.604885E-07
v -0.4362632 0.7196324 0.04889388
v -0.4344797 0.5974188 0.04889388
v 0.4521474 0.7255481 -1.604885E-07
v 0.4521474 -3.433006E-09 -1.604885E-07
v 0.4398183 0.01049433 0.03573226
v 0.4398183 0.5809353 0.03573226
v 0.4362637 0.7196324 0.04889388
v 0.4344802 0.5974188 0.04889388
v 0.4521474 -3.433006E-09 -1.604885E-07
v -0.452147 -3.433006E-09 -1.604885E-07
v -0.4398179 0.01049433 0.03573226
v 0.4398183 0.01049433 0.03573226
v -0.4398179 0.01049433 0.03573226
v -0.4398179 0.5809353 0.03573226
v -0.08796485 0.5809353 0.03573226
v -0.07964697 0.5238943 0.03573226
v 0.4398183 0.01049433 0.03573226
v 0.07964623 0.5238943 0.03573226
v 0.08796288 0.5809353 0.03573226
v 0.4398183 0.5809353 0.03573226
v 0.309689 0.1013347 -0.006589516
v 0.309689 0.2974022 -0.006589516
v -0.309686 0.2974022 -0.006589516
v -0.309686 0.1013347 -0.006589516
v -0.3889048 0.6181482 0.04889388
v -0.3890659 0.6465818 0.04889388
v -0.3654148 0.6465818 0.04889388
v -0.3653501 0.6181482 0.04889388
v -0.08796485 0.5809353 0.03573226
v -0.4398179 0.5809353 0.03573226
v -0.4344797 0.5974188 0.04889388
v -0.1737925 0.5974188 0.04889388
v 0.08796288 0.5809353 0.03573226
v 0.1737918 0.5974188 0.04889388
v 0.4344802 0.5974188 0.04889388
v 0.4398183 0.5809353 0.03573226
v 0.3253274 0.704197 0.04889388
v 0.416542 0.704197 0.04889388
v 0.416542 0.6128542 0.04889388
v 0.3253274 0.6128542 0.04889388
v -0.452147 0.7255481 -1.604885E-07
v -0.1745054 0.7196324 0.04889388
v -0.4362632 0.7196324 0.04889388
v 0.1745059 0.7196324 0.04889388
v 0.4521474 0.7255481 -1.604885E-07
v 0.4362637 0.7196324 0.04889388
v 0.1929275 0.7041972 0.04889388
v 0.3064602 0.704197 0.04889388
v 0.3064602 0.6128542 0.04889388
v 0.1929263 0.6128541 0.04889388
v 0.4125173 0.02582216 -1.604885E-07
v 0.3954775 0.03959063 -0.02942643
v -0.3954746 0.03959063 -0.02942643
v -0.4125144 0.02582216 -1.604885E-07
v -0.4125144 0.6924704 -1.604885E-07
v -0.3954746 0.6787018 -0.02942643
v 0.3954775 0.6787018 -0.02942643
v 0.4125173 0.6924704 -1.604885E-07
v 0.3954775 0.3591463 -0.02942643
v 0.3954775 0.03959063 -0.02942643
v 0.4125173 0.02582216 -1.604885E-07
v 0.4125173 0.6924704 -1.604885E-07
v 0.3954775 0.6787018 -0.02942643
v -0.3954746 0.3591463 -0.02942643
v -0.3954746 0.6787018 -0.02942643
v -0.4125144 0.6924704 -1.604885E-07
v -0.4125144 0.02582216 -1.604885E-07
v -0.3954746 0.03959063 -0.02942643
v 0.309689 0.4208903 -0.006589516
v 0.309689 0.6169579 -0.006589516
v -0.309686 0.6169579 -0.006589516
v -0.309686 0.4208903 -0.006589516
v 0.3398049 0.07624488 -0.02942643
v 0.309689 0.1013347 -0.006589516
v -0.309686 0.1013347 -0.006589516
v -0.339802 0.07624488 -0.02942643
v -0.339802 0.07624488 -0.02942643
v -0.309686 0.1013347 -0.006589516
v -0.309686 0.2974022 -0.006589516
v -0.339802 0.322492 -0.02942643
v -0.339802 0.322492 -0.02942643
v -0.309686 0.2974022 -0.006589516
v 0.309689 0.2974022 -0.006589516
v 0.3398049 0.322492 -0.02942643
v 0.3398049 0.322492 -0.02942643
v 0.309689 0.2974022 -0.006589516
v 0.309689 0.1013347 -0.006589516
v 0.3398049 0.07624488 -0.02942643
v 0.3398049 0.3958005 -0.02942643
v 0.309689 0.4208903 -0.006589516
v -0.309686 0.4208903 -0.006589516
v -0.339802 0.3958005 -0.02942643
v -0.339802 0.3958005 -0.02942643
v -0.309686 0.4208903 -0.006589516
v -0.309686 0.6169579 -0.006589516
v -0.339802 0.6420476 -0.02942643
v -0.339802 0.6420476 -0.02942643
v -0.309686 0.6169579 -0.006589516
v 0.309689 0.6169579 -0.006589516
v 0.3398049 0.6420476 -0.02942643
v 0.3398049 0.6420476 -0.02942643
v 0.309689 0.6169579 -0.006589516
v 0.309689 0.4208903 -0.006589516
v 0.3398049 0.3958005 -0.02942643
v 0.4344802 0.5974188 0.04889388
v 0.416542 0.704197 0.04889388
v 0.4362637 0.7196324 0.04889388
v 0.1745059 0.7196324 0.04889388
v 0.3253274 0.704197 0.04889388
v 0.416542 0.6128542 0.04889388
v 0.1737918 0.5974188 0.04889388
v 0.3253274 0.6128542 0.04889388
v 0.3064602 0.704197 0.04889388
v 0.3064602 0.6128542 0.04889388
v 0.1929275 0.7041972 0.04889388
v 0.1929263 0.6128541 0.04889388
v 0.03760522 0.7016365 0.04889388
v 0.03745141 0.6811298 0.04889388
v -0.03760352 0.7016365 0.04889388
v -0.1737925 0.5974188 0.04889388
v -0.1745054 0.7196324 0.04889388
v -0.03744971 0.6811298 0.04889388
v -0.3654148 0.6465818 0.04889388
v -0.3653501 0.6181482 0.04889388
v -0.3890659 0.6465818 0.04889388
v -0.4344797 0.5974188 0.04889388
v -0.4362632 0.7196324 0.04889388
v -0.3889048 0.6181482 0.04889388
v 0.4521474 -3.433006E-09 -1.604885E-07
v 0.4125173 0.02582216 -1.604885E-07
v -0.4125144 0.02582216 -1.604885E-07
v -0.452147 -3.433006E-09 -1.604885E-07
v 0.4521474 0.7255481 -1.604885E-07
v -0.4125144 0.6924704 -1.604885E-07
v 0.4125173 0.6924704 -1.604885E-07
v -0.452147 0.7255481 -1.604885E-07
v 0.3954775 0.3591463 -0.02942643
v 0.3398049 0.3958005 -0.02942643
v -0.339802 0.3958005 -0.02942643
v 0.3954775 0.6787018 -0.02942643
v 0.3398049 0.6420476 -0.02942643
v -0.3954746 0.6787018 -0.02942643
v -0.339802 0.6420476 -0.02942643
v -0.3954746 0.3591463 -0.02942643
v 0.3398049 0.322492 -0.02942643
v -0.339802 0.322492 -0.02942643
v 0.3398049 0.07624488 -0.02942643
v -0.3954746 0.03959063 -0.02942643
v 0.3954775 0.03959063 -0.02942643
v -0.339802 0.07624488 -0.02942643
v 0.07964623 0.5238943 0.03573226
v 0.05929589 0.5670165 0.004448081
v 0.08796288 0.5809353 0.03573226
v -0.08796485 0.5809353 0.03573226
v -0.05929663 0.5670165 0.004448081
v -0.07964697 0.5238943 0.03573226
v -0.07964697 0.5238943 0.03573226
v -0.05929663 0.5670165 0.004448081
v 0.05929589 0.5670165 0.004448081
v 0.07964623 0.5238943 0.03573226
v 0.08796288 0.5809353 0.03573226
v 0.05929589 0.5670165 0.004448081
v -0.05929663 0.5670165 0.004448081
v -0.08796485 0.5809353 0.03573226
v -0.03760352 0.7016365 0.04889388
v 0.03760522 0.7016365 0.04889388
v 0.03745141 0.6811298 0.04889388
v -0.03744971 0.6811298 0.04889388
vt 0.1156775 0.3518671
vt 0.1156775 0.351868
vt 0.1156775 0.351868
vt 0.1156775 0.3518671
vt 0.1156775 0.3518671
vt 0.1156775 0.3518671
vt 0.1156775 0.3518671
vt 0.1156775 0.351868
vt 0.1156775 0.351868
vt 0.1156775 0.3518671
vt 0.1156775 0.3518671
vt 0.1156775 0.3518671
vt 0.1156775 0.351868
vt 0.1156775 0.351868
vt 0.1156775 0.351868
vt 0.1156775 0.351868
vt 0.1156775 0.351868
vt 0.1156775 0.3518671
vt 0.1156775 0.3518671
vt 0.1156775 0.3518671
vt 0.1156775 0.351868
vt 0.1156775 0.3518671
vt 0.1156775 0.3518671
vt 0.1156775 0.3518671
vt 0.109592 0.3808359
vt 0.109592 0.3808378
vt 0.109592 0.3808378
vt 0.109592 0.3808359
vt 0.1340332 0.3824234
vt 0.1340332 0.3824234
vt 0.1340332 0.3824234
vt 0.1340332 0.3824234
vt 0.1149902 0.3525696
vt 0.1149902 0.3525696
vt 0.1149902 0.3525696
vt 0.1149902 0.3525696
vt 0.1149902 0.3525696
vt 0.1149902 0.3525696
vt 0.1149902 0.3525696
vt 0.1149902 0.3525696
vt 0.3880725 0.3347808
vt 0.4417536 0.3347808
vt 0.4417536 0.2969432
vt 0.3880725 0.2969432
vt 0.1156775 0.3518671
vt 0.1156775 0.3518671
vt 0.1156775 0.3518671
vt 0.1156775 0.3518671
vt 0.1156775 0.3518671
vt 0.1156775 0.3518671
vt 0.3891033 0.3879354
vt 0.4412596 0.3879353
vt 0.4412596 0.337593
vt 0.3891029 0.337593
vt 0.109592 0.3808369
vt 0.109592 0.3808369
vt 0.109592 0.3808369
vt 0.109592 0.3808369
vt 0.109592 0.3808378
vt 0.109592 0.3808378
vt 0.109592 0.3808378
vt 0.109592 0.3808378
vt 0.109592 0.3808378
vt 0.109592 0.3808369
vt 0.109592 0.3808369
vt 0.109592 0.3808378
vt 0.109592 0.3808378
vt 0.109592 0.3808378
vt 0.109592 0.3808378
vt 0.109592 0.3808378
vt 0.109592 0.3808369
vt 0.109592 0.3808369
vt 0.109592 0.3808378
vt 0.109592 0.3808378
vt 0.109592 0.3808378
vt 0.109592 0.3808378
vt 0.109592 0.3808359
vt 0.109592 0.3808359
vt 0.109592 0.3808359
vt 0.109592 0.3808359
vt 0.109592 0.3808359
vt 0.109592 0.3808359
vt 0.109592 0.3808378
vt 0.109592 0.3808378
vt 0.109592 0.3808378
vt 0.109592 0.3808378
vt 0.109592 0.3808378
vt 0.109592 0.3808378
vt 0.109592 0.3808378
vt 0.109592 0.3808378
vt 0.109592 0.3808359
vt 0.109592 0.3808359
vt 0.109592 0.3808378
vt 0.109592 0.3808378
vt 0.109592 0.3808378
vt 0.109592 0.3808378
vt 0.109592 0.3808378
vt 0.109592 0.3808378
vt 0.109592 0.3808378
vt 0.109592 0.3808378
vt 0.109592 0.3808378
vt 0.109592 0.3808378
vt 0.109592 0.3808378
vt 0.109592 0.3808378
vt 0.109592 0.3808378
vt 0.109592 0.3808378
vt 0.109592 0.3808378
vt 0.109592 0.3808378
vt 0.4328613 0.346344
vt 0.4328613 0.346344
vt 0.4328613 0.346344
vt 0.4328613 0.346344
vt 0.4328613 0.346344
vt 0.4328613 0.346344
vt 0.4328613 0.346344
vt 0.4328613 0.346344
vt 0.4328613 0.346344
vt 0.4328613 0.346344
vt 0.4328613 0.346344
vt 0.4328613 0.346344
vt 0.4328613 0.346344
vt 0.4328613 0.346344
vt 0.4328613 0.346344
vt 0.4328613 0.346344
vt 0.4328613 0.346344
vt 0.4328613 0.346344
vt 0.4328613 0.346344
vt 0.4328613 0.346344
vt 0.4328613 0.346344
vt 0.4328613 0.346344
vt 0.4328613 0.346344
vt 0.4328613 0.346344
vt 0.112793 0.3530035
vt 0.112793 0.3530035
vt 0.112793 0.3530035
vt 0.112793 0.3530035
vt 0.112793 0.3530045
vt 0.112793 0.3530045
vt 0.112793 0.3530045
vt 0.112793 0.3530045
vt 0.109592 0.3808378
vt 0.109592 0.3808378
vt 0.109592 0.3808378
vt 0.109592 0.3808378
vt 0.109592 0.3808378
vt 0.109592 0.3808378
vt 0.109592 0.3808378
vt 0.109592 0.3808378
vt 0.109592 0.3808378
vt 0.109592 0.3808378
vt 0.109592 0.3808359
vt 0.109592 0.3808369
vt 0.109592 0.3808369
vt 0.109592 0.3808359
vt 0.206994 0.3770136
vt 0.206994 0.3770136
vt 0.206994 0.3770136
vt 0.206994 0.3770136
vt 0.206994 0.3770136
vt 0.206994 0.3770136
vt 0.206994 0.3770136
vt 0.206994 0.3770136
vt 0.206994 0.3770136
vt 0.206994 0.3770136
vt 0.206994 0.3770136
vt 0.206994 0.3770136
vt 0.206994 0.3770136
vt 0.206994 0.3770136
vt 0.2092658 0.377916
vt 0.2092658 0.377916
vt 0.2092658 0.377916
vt 0.2092658 0.377916
vn -0.9397343 -0.006112211 0.3418509
vn -0.9453112 0 0.3261698
vn -0.9453112 0 0.3261698
vn -0.9483175 -0.002444542 0.3173138
vn -0.9368323 -0.00917054 0.3496586
vn -0.9206254 -0.01343456 0.3902158
vn 0.9483175 -0.002444542 0.3173138
vn 0.9453112 0 0.3261698
vn 0.9453112 0 0.3261698
vn 0.9397343 -0.006112211 0.3418509
vn 0.9368323 -0.00917054 0.3496586
vn 0.9206254 -0.01343456 0.3902158
vn 0 -0.9594759 0.2817907
vn 0 -0.9594759 0.2817907
vn 0 -0.9594759 0.2817907
vn 0 -0.9594759 0.2817907
vn 0 0 1
vn 0 0 1
vn 0 0 1
vn 0 0 1
vn 0 0 1
vn 0 0 1
vn 0 0 1
vn 0 0 1
vn 0 0 -1
vn 0 0 -1
vn 0 0 -1
vn 0 0 -1
vn 0 0 1
vn 0 0 1
vn 0 0 1
vn 0 0 1
vn 0 -0.7392038 0.6734818
vn 0 -0.623966 0.7814515
vn 0 -0.623966 0.7814515
vn 0 -0.623966 0.7814515
vn 0 -0.7392038 0.6734818
vn 0 -0.623966 0.7814515
vn 0 -0.623966 0.7814515
vn 0 -0.623966 0.7814515
vn 0 0 1
vn 0 0 1
vn 0 0 1
vn 0 0 1
vn 0 0.9927602 0.1201138
vn 0 0.9927602 0.1201138
vn 0 0.9927602 0.1201138
vn 0 0.9927602 0.1201138
vn 0 0.9927602 0.1201138
vn 0 0.9927602 0.1201138
vn 0 0 1
vn 0 0 1
vn 0 0 1
vn 0 0 1
vn 0 -0.9057556 -0.4238006
vn 0 -0.9057556 -0.4238006
vn 0 -0.9057556 -0.4238006
vn 0 -0.9057556 -0.4238006
vn 0 0.9057548 -0.4238023
vn 0 0.9057548 -0.4238023
vn 0 0.9057548 -0.4238023
vn 0 0.9057548 -0.4238023
vn 0.8653813 0 -0.5011141
vn 0.8653812 0 -0.5011141
vn 0.8653812 0 -0.5011141
vn 0.8653812 0 -0.5011141
vn 0.8653812 0 -0.5011141
vn -0.8653813 0 -0.5011141
vn -0.8653812 0 -0.5011141
vn -0.8653812 0 -0.5011141
vn -0.8653812 0 -0.5011141
vn -0.8653813 0 -0.5011141
vn 0 0 -1
vn 0 0 -1
vn 0 0 -1
vn 0 0 -1
vn 0 0.6731246 -0.7395292
vn 0 0.6731246 -0.7395292
vn 0 0.6731246 -0.7395292
vn 0 0.6731246 -0.7395292
vn 0.6042237 0 -0.7968148
vn 0.6042237 0 -0.7968148
vn 0.6042237 0 -0.7968148
vn 0.6042237 0 -0.7968148
vn 0 -0.6731243 -0.7395293
vn 0 -0.6731243 -0.7395293
vn 0 -0.6731243 -0.7395293
vn 0 -0.6731243 -0.7395293
vn -0.6042241 0 -0.7968144
vn -0.6042241 0 -0.7968144
vn -0.6042241 0 -0.7968144
vn -0.6042241 0 -0.7968144
vn 0 0.6731246 -0.739529
vn 0 0.6731246 -0.739529
vn 0 0.6731246 -0.739529
vn 0 0.6731246 -0.739529
vn 0.6042237 0 -0.7968147
vn 0.6042237 0 -0.7968147
vn 0.6042237 0 -0.7968147
vn 0.6042237 0 -0.7968147
vn 0 -0.6731253 -0.7395285
vn 0 -0.6731253 -0.7395285
vn 0 -0.6731253 -0.7395285
vn 0 -0.6731253 -0.7395285
vn -0.6042241 0 -0.7968144
vn -0.6042241 0 -0.7968144
vn -0.6042241 0 -0.7968144
vn -0.6042241 0 -0.7968144
vn 0 0 1
vn 0 0 1
vn 0 0 1
vn 0 0 1
vn 0 0 1
vn 0 0 1
vn 0 0 1
vn 0 0 1
vn 0 0 1
vn 0 0 1
vn 0 0 1
vn 0 0 1
vn 0 0 1
vn 0 0 1
vn 0 0 1
vn 0 0 1
vn 0 0 1
vn 0 0 1
vn 0 0 1
vn 0 0 1
vn 0 0 1
vn 0 0 1
vn 0 0 1
vn 0 0 1
vn 0 0 -1
vn 0 0 -1
vn 0 0 -1
vn 0 0 -1
vn 0 0 -1
vn 0 0 -1
vn 0 0 -1
vn 0 0 -1
vn 0 0 -1
vn 0 0 -1
vn 0 0 -1
vn 0 0 -1
vn 0 0 -1
vn 0 0 -1
vn 0 0 -1
vn 0 0 -1
vn 0 0 -1
vn 0 0 -1
vn 0 0 -1
vn 0 0 -1
vn 0 0 -1
vn 0 0 -1
vn -0.7567373 0.1103332 0.6443409
vn -0.7567373 0.1103332 0.6443409
vn -0.7567373 0.1103332 0.6443409
vn 0.756725 0.1103476 0.6443529
vn 0.756725 0.1103476 0.6443529
vn 0.756725 0.1103476 0.6443529
vn 0 0.5872203 0.8094271
vn 0 0.5872203 0.8094271
vn 0 0.5872203 0.8094271
vn 0 0.5872203 0.8094271
vn 0 -0.7392038 0.6734818
vn 0 -0.9136523 0.4064965
vn 0 -0.9136523 0.4064965
vn 0 -0.7392038 0.6734818
vn 0 0 1
vn 0 0 1
vn 0 0 1
vn 0 0 1
g SM_Prop_Kitchen_CounterWashing_Machine_01_Door_0
f 3/3/3 2/2/2 1/1/1
f 4/4/4 3/3/3 1/1/1
f 1/1/1 5/5/5 4/4/4
f 1/1/1 6/6/6 5/5/5
f 9/9/9 8/8/8 7/7/7
f 10/10/10 9/9/9 7/7/7
f 11/11/11 10/10/10 7/7/7
f 11/11/11 12/12/12 10/10/10
f 15/15/15 14/14/14 13/13/13
f 16/16/16 15/15/15 13/13/13
f 19/19/19 18/18/18 17/17/17
f 20/20/20 19/19/19 17/17/17
f 20/20/20 17/17/17 21/21/21
f 22/22/22 20/20/20 21/21/21
f 23/23/23 22/22/22 21/21/21
f 24/24/24 23/23/23 21/21/21
f 27/27/27 26/26/26 25/25/25
f 28/28/28 27/27/27 25/25/25
f 31/31/31 30/30/30 29/29/29
f 32/32/32 31/31/31 29/29/29
f 35/35/35 34/34/34 33/33/33
f 36/36/36 35/35/35 33/33/33
f 36/36/36 33/33/33 37/37/37
f 38/38/38 36/36/36 37/37/37
f 38/38/38 37/37/37 39/39/39
f 37/37/37 40/40/40 39/39/39
f 43/43/43 42/42/42 41/41/41
f 44/44/44 43/43/43 41/41/41
f 47/47/47 46/46/46 45/45/45
f 46/46/46 48/48/48 45/45/45
f 48/48/48 49/49/49 45/45/45
f 48/48/48 50/50/50 49/49/49
f 53/53/53 52/52/52 51/51/51
f 54/54/54 53/53/53 51/51/51
f 57/57/57 56/56/56 55/55/55
f 58/58/58 57/57/57 55/55/55
f 61/61/61 60/60/60 59/59/59
f 62/62/62 61/61/61 59/59/59
f 65/65/65 64/64/64 63/63/63
f 65/65/65 63/63/63 66/66/66
f 63/63/63 67/67/67 66/66/66
f 70/70/70 69/69/69 68/68/68
f 70/70/70 68/68/68 71/71/71
f 68/68/68 72/72/72 71/71/71
f 75/75/75 74/74/74 73/73/73
f 76/76/76 75/75/75 73/73/73
f 79/79/79 78/78/78 77/77/77
f 80/80/80 79/79/79 77/77/77
f 83/83/83 82/82/82 81/81/81
f 84/84/84 83/83/83 81/81/81
f 87/87/87 86/86/86 85/85/85
f 88/88/88 87/87/87 85/85/85
f 91/91/91 90/90/90 89/89/89
f 92/92/92 91/91/91 89/89/89
f 95/95/95 94/94/94 93/93/93
f 96/96/96 95/95/95 93/93/93
f 99/99/99 98/98/98 97/97/97
f 100/100/100 99/99/99 97/97/97
f 103/103/103 102/102/102 101/101/101
f 104/104/104 103/103/103 101/101/101
f 107/107/107 106/106/106 105/105/105
f 108/108/108 107/107/107 105/105/105
f 111/111/111 110/110/110 109/109/109
f 110/110/110 111/111/111 112/112/112
f 112/112/112 113/113/113 110/110/110
f 110/110/110 114/114/114 109/109/109
f 115/115/115 109/109/109 114/114/114
f 114/114/114 116/116/116 115/115/115
f 113/113/113 117/117/117 116/116/116
f 112/112/112 117/117/117 113/113/113
f 117/117/117 118/118/118 116/116/116
f 116/116/116 118/118/118 115/115/115
f 112/112/112 119/119/119 117/117/117
f 118/118/118 120/120/120 115/115/115
f 120/120/120 119/119/119 112/112/112
f 115/115/115 120/120/120 112/112/112
f 112/112/112 121/121/121 115/115/115
f 121/121/121 122/122/122 115/115/115
f 123/123/123 121/121/121 112/112/112
f 115/115/115 122/122/122 124/124/124
f 125/125/125 123/123/123 112/112/112
f 122/122/122 126/126/126 124/124/124
f 126/126/126 123/123/123 125/125/125
f 124/124/124 126/126/126 125/125/125
f 125/125/125 127/127/127 124/124/124
f 127/127/127 128/128/128 124/124/124
f 129/129/129 127/127/127 125/125/125
f 124/124/124 128/128/128 130/130/130
f 131/131/131 129/129/129 125/125/125
f 128/128/128 132/132/132 130/130/130
f 132/132/132 129/129/129 131/131/131
f 130/130/130 132/132/132 131/131/131
f 135/135/135 134/134/134 133/133/133
f 136/136/136 135/135/135 133/133/133
f 133/133/133 134/134/134 137/137/137
f 138/138/138 135/135/135 136/136/136
f 134/134/134 139/139/139 137/137/137
f 140/140/140 138/138/138 136/136/136
f 137/137/137 139/139/139 140/140/140
f 139/139/139 138/138/138 140/140/140
f 143/143/143 142/142/142 141/141/141
f 141/141/141 142/142/142 144/144/144
f 142/142/142 145/145/145 144/144/144
f 144/144/144 145/145/145 146/146/146
f 145/145/145 147/147/147 146/146/146
f 146/146/146 147/147/147 148/148/148
f 147/147/147 143/143/143 148/148/148
f 148/148/148 143/143/143 141/141/141
f 141/141/141 149/149/149 148/148/148
f 149/149/149 150/150/150 148/148/148
f 151/151/151 149/149/149 141/141/141
f 148/148/148 150/150/150 152/152/152
f 153/153/153 151/151/151 141/141/141
f 150/150/150 154/154/154 152/152/152
f 154/154/154 151/151/151 153/153/153
f 152/152/152 154/154/154 153/153/153
g SM_Prop_Kitchen_CounterWashing_Machine_01_Door_1
f 157/157/157 156/156/156 155/155/155
f 160/160/160 159/159/159 158/158/158
f 163/163/163 162/162/162 161/161/161
f 164/164/164 163/163/163 161/161/161
f 167/167/167 166/166/166 165/165/165
f 168/168/168 167/167/167 165/165/165
f 171/171/171 170/170/170 169/169/169
f 172/172/172 171/171/171 169/169/169
