g SM_Prop_KitchenCabinet_01_Door_02
v 0.4738281 6.283761E-08 -4.263256E-16
v 0.4738281 0.9420877 -4.263256E-16
v -2.842171E-16 0.9420877 -4.263256E-16
v -2.842171E-16 6.283761E-08 -4.263256E-16
v -2.842171E-16 0.9420877 -4.263256E-16
v 0.4738281 0.9420877 -4.263256E-16
v 0.4726391 0.9420877 0.03182373
v -2.842171E-16 0.9420877 0.03182373
v 0.4738281 0.9420877 -4.263256E-16
v 0.4738281 6.283761E-08 -4.263256E-16
v 0.4726391 6.283761E-08 0.03182373
v 0.4726391 0.9420877 0.03182373
v 0.4738281 6.283761E-08 -4.263256E-16
v -2.842171E-16 6.283761E-08 -4.263256E-16
v -2.842171E-16 6.283761E-08 0.03182373
v 0.4726391 6.283761E-08 0.03182373
v -2.842171E-16 6.283761E-08 -4.263256E-16
v -2.842171E-16 0.9420877 -4.263256E-16
v -2.842171E-16 0.9420877 0.03182373
v -2.842171E-16 6.283761E-08 0.03182373
v 0.02496582 0.9204136 0.03182373
v 0.4488623 0.9204136 0.03182373
v 0.4117358 0.8906764 0.01419189
v 0.06209229 0.8906764 0.01419189
v 0.4488623 0.9204136 0.03182373
v 0.4488623 0.02167403 0.03182373
v 0.4117358 0.05141135 0.01419189
v 0.4117358 0.8906764 0.01419189
v 0.4488623 0.02167403 0.03182373
v 0.02496582 0.02167403 0.03182373
v 0.06209229 0.05141135 0.01419189
v 0.4117358 0.05141135 0.01419189
v 0.02496582 0.02167403 0.03182373
v 0.02496582 0.9204136 0.03182373
v 0.06209229 0.8906764 0.01419189
v 0.06209229 0.05141135 0.01419189
v 0.3757568 0.08726165 0.01419189
v 0.3757568 0.2437304 0.01419189
v 0.3757568 0.2637759 0.01419189
v 0.3757568 0.107307 0.01419189
v 0.3398511 0.2437304 0.01419189
v 0.3757568 0.2437304 0.01419189
v 0.3757568 0.107307 0.01419189
v 0.3398511 0.107307 0.01419189
v 0.06209229 0.8906764 0.01419189
v 0.3398511 0.2637759 0.01419189
v 0.3398511 0.08726165 0.01419189
v 0.3757568 0.2637759 0.01419189
v 0.06209229 0.05141135 0.01419189
v 0.4117358 0.8906764 0.01419189
v 0.4117358 0.05141135 0.01419189
v 0.3757568 0.08726165 0.01419189
v -2.842171E-16 0.9420877 0.03182373
v 0.4726391 0.9420877 0.03182373
v 0.4488623 0.9204136 0.03182373
v 0.02496582 0.9204136 0.03182373
v 0.4488623 0.02167403 0.03182373
v -2.842171E-16 6.283761E-08 0.03182373
v 0.4726391 6.283761E-08 0.03182373
v 0.02496582 0.02167403 0.03182373
v 0.3398511 0.107307 0.01419189
v 0.3757568 0.107307 0.01419189
v 0.3699512 0.1122394 0.04559814
v 0.3456567 0.1122394 0.04559814
v 0.3757568 0.107307 0.01419189
v 0.3757568 0.08726165 0.01419189
v 0.3699512 0.09390097 0.05660645
v 0.3699512 0.1122394 0.04559814
v 0.3673169 0.1734444 0.06478027
v 0.3673169 0.1734444 0.04887207
v 0.3699512 0.2571365 0.05660645
v 0.3699512 0.2387982 0.04559814
v 0.3757568 0.2637759 0.01419189
v 0.3757568 0.2437304 0.01419189
v 0.3757568 0.08726165 0.01419189
v 0.3398511 0.08726165 0.01419189
v 0.3456567 0.09390097 0.05660645
v 0.3699512 0.09390097 0.05660645
v 0.3398511 0.08726165 0.01419189
v 0.3398511 0.107307 0.01419189
v 0.3456567 0.1122394 0.04559814
v 0.3456567 0.09390097 0.05660645
v 0.348291 0.1734444 0.04887207
v 0.348291 0.1734444 0.06478027
v 0.3456567 0.2387982 0.04559814
v 0.3456567 0.2571365 0.05660645
v 0.3398511 0.2437304 0.01419189
v 0.3398511 0.2637759 0.01419189
v 0.3398511 0.2637759 0.01419189
v 0.3757568 0.2637759 0.01419189
v 0.3699512 0.2571365 0.05660645
v 0.3456567 0.2571365 0.05660645
v 0.3757568 0.2437304 0.01419189
v 0.3398511 0.2437304 0.01419189
v 0.3456567 0.2387982 0.04559814
v 0.3699512 0.2387982 0.04559814
v 0.3456567 0.1122394 0.04559814
v 0.3699512 0.1122394 0.04559814
v 0.3673169 0.1734444 0.04887207
v 0.348291 0.1734444 0.04887207
v 0.3699512 0.2387982 0.04559814
v 0.3456567 0.2387982 0.04559814
v 0.3699512 0.09390097 0.05660645
v 0.3456567 0.09390097 0.05660645
v 0.348291 0.1734444 0.06478027
v 0.3673169 0.1734444 0.06478027
v 0.3456567 0.2571365 0.05660645
v 0.3699512 0.2571365 0.05660645
vt 0.03833008 0.3499756
vt 0.03833008 0.3499775
vt 0.03833008 0.3499775
vt 0.03833008 0.3499756
vt 0.06977493 0.3786832
vt 0.06977493 0.3786832
vt 0.06977493 0.3786832
vt 0.06977493 0.3786832
vt 0.06977493 0.3786832
vt 0.06977493 0.3786832
vt 0.06977493 0.3786832
vt 0.06977493 0.3786832
vt 0.06977493 0.3786832
vt 0.06977493 0.3786832
vt 0.06977493 0.3786832
vt 0.06977493 0.3786832
vt 0.06977493 0.3786832
vt 0.06977493 0.3786832
vt 0.06977493 0.3786832
vt 0.06977493 0.3786832
vt 0.06977493 0.3786832
vt 0.06977493 0.3786832
vt 0.06977493 0.3786832
vt 0.06977493 0.3786832
vt 0.06977493 0.3786832
vt 0.06977493 0.3786832
vt 0.06977493 0.3786832
vt 0.06977493 0.3786832
vt 0.06977493 0.3786832
vt 0.06977493 0.3786832
vt 0.06977493 0.3786832
vt 0.06977493 0.3786832
vt 0.06977493 0.3786832
vt 0.06977493 0.3786832
vt 0.06977493 0.3786832
vt 0.06977493 0.3786832
vt 0.06977493 0.3786832
vt 0.06977493 0.3786832
vt 0.06977493 0.3786832
vt 0.06977493 0.3786832
vt 0.06977493 0.3786832
vt 0.06977493 0.3786832
vt 0.06977493 0.3786832
vt 0.06977493 0.3786832
vt 0.06977493 0.3786832
vt 0.06977493 0.3786832
vt 0.06977493 0.3786832
vt 0.06977493 0.3786832
vt 0.06977493 0.3786832
vt 0.06977493 0.3786832
vt 0.06977493 0.3786832
vt 0.06977493 0.3786832
vt 0.06977493 0.3786832
vt 0.06977493 0.3786832
vt 0.06977493 0.3786832
vt 0.06977493 0.3786832
vt 0.06977493 0.3786832
vt 0.06977493 0.3786832
vt 0.06977493 0.3786832
vt 0.06977493 0.3786832
vt 0.2075655 0.3754422
vt 0.2075655 0.3754422
vt 0.2075655 0.3754422
vt 0.2075655 0.3754422
vt 0.2075655 0.3754422
vt 0.2075655 0.375446
vt 0.2075655 0.375446
vt 0.2075655 0.3754422
vt 0.2075655 0.3754422
vt 0.2075655 0.3754422
vt 0.2075655 0.3754422
vt 0.2075655 0.3754422
vt 0.2075655 0.3754422
vt 0.2075655 0.3754422
vt 0.2075655 0.375446
vt 0.2075655 0.375446
vt 0.2075655 0.375446
vt 0.2075655 0.375446
vt 0.2075655 0.375446
vt 0.2075655 0.3754422
vt 0.2075655 0.3754422
vt 0.2075655 0.375446
vt 0.2075655 0.3754422
vt 0.2075655 0.3754422
vt 0.2075655 0.3754422
vt 0.2075655 0.3754422
vt 0.2075655 0.3754422
vt 0.2075655 0.3754422
vt 0.2075655 0.3754422
vt 0.2075655 0.3754422
vt 0.2075655 0.3754422
vt 0.2075655 0.3754422
vt 0.2075655 0.3754422
vt 0.2075655 0.3754422
vt 0.2075655 0.3754422
vt 0.2075655 0.3754422
vt 0.2075655 0.3754422
vt 0.2075655 0.3754422
vt 0.2075655 0.3754422
vt 0.2075655 0.3754422
vt 0.2075655 0.3754422
vt 0.2075655 0.3754422
vt 0.2075655 0.375446
vt 0.2075655 0.375446
vt 0.2075655 0.3754422
vt 0.2075655 0.3754422
vt 0.2075655 0.3754422
vt 0.2075655 0.3754422
vn 0 0 -1
vn 0 0 -1
vn 0 0 -1
vn 0 0 -1
vn 0 1 0
vn 0 1 0
vn 0 1 0
vn 0 1 0
vn 0.9993029 0 0.0373349
vn 0.9993029 0 0.0373349
vn 0.9993029 0 0.0373349
vn 0.9993029 0 0.0373349
vn 0 -1 0
vn 0 -1 0
vn 0 -1 0
vn 0 -1 0
vn -1 0 0
vn -1 0 0
vn -1 0 0
vn -1 0 0
vn 0 -0.1755466 0.9844712
vn 0 -0.1755466 0.9844712
vn 0 -0.1755466 0.9844712
vn 0 -0.08670262 0.9962342
vn -0.1461729 0 0.9892591
vn -0.1461729 0 0.9892591
vn -0.1092471 0 0.9940147
vn -0.1461729 0 0.9892591
vn 0 0.1755458 0.9844713
vn 0 0.1755458 0.9844713
vn 0 0.1755458 0.9844713
vn 0 0.130983 0.9913846
vn 0.1461729 0 0.9892591
vn 0.1461729 0 0.9892591
vn 0.07247874 0 0.99737
vn 0.1461729 0 0.9892591
vn 0 1 0
vn 0 1 0
vn 0 0.9969876 0.07755999
vn 0 0.9969682 -0.07780967
vn 0 0 1
vn 0 0 1
vn 0 0 1
vn 0 0 1
vn 0.06312215 -0.07504342 0.9951805
vn 0 0 1
vn 0 0 1
vn 0 0 1
vn 0.1122421 0.1334397 0.9846805
vn -0.1122422 -0.1334403 0.9846804
vn -0.08919006 0.1060341 0.9903544
vn 0 0 1
vn 0 0 1
vn 0 0 1
vn -0.1122422 -0.1334403 0.9846804
vn 0.1122422 -0.1334403 0.9846804
vn -0.1122421 0.1334397 0.9846805
vn 0 0 1
vn 0 0 1
vn 0.1122421 0.1334397 0.9846805
vn 0 0.9878913 -0.1551476
vn 0 0.9969682 -0.07780967
vn 0 0.9878913 -0.1551476
vn 0 0.9878913 -0.1551476
vn 0.9879605 0.04264981 0.1487115
vn 0.9879605 0.04264981 0.1487115
vn 0.9954751 0.03911894 0.08659666
vn 0.9954751 0.03911894 0.08659666
vn 0.9997229 0.000936248 0.02351813
vn 0.9997229 0.000936248 0.02351813
vn 0.9955665 -0.03818316 0.08596162
vn 0.9955665 -0.03818316 0.08596162
vn 0.9879605 -0.04264993 0.1487115
vn 0.9879605 -0.04264993 0.1487115
vn 0 -0.9879692 0.154651
vn 0 -0.9879692 0.154651
vn 0 -0.9879692 0.154651
vn 0 -0.9879692 0.154651
vn -0.9879605 0.04264981 0.1487115
vn -0.9879605 0.04264981 0.1487115
vn -0.9954751 0.03911894 0.08659666
vn -0.9954751 0.03911894 0.08659666
vn -0.9997229 0.000936248 0.02351813
vn -0.9997229 0.000936248 0.02351813
vn -0.9955665 -0.03818316 0.08596162
vn -0.9955665 -0.03818316 0.08596162
vn -0.9879605 -0.04264993 0.1487115
vn -0.9879605 -0.04264993 0.1487115
vn 0 0.9879689 0.1546527
vn 0 0.9969876 0.07755999
vn 0 0.9879689 0.1546527
vn 0 0.9879689 0.1546527
vn 0 -0.9878919 -0.1551441
vn 0 -0.9878919 -0.1551441
vn 0 -0.9878919 -0.1551441
vn 0 -0.9878919 -0.1551441
vn 0 0.05341477 -0.9985725
vn 0 0.05341477 -0.9985725
vn 0 0.001693336 -0.9999986
vn 0 0.001693336 -0.9999986
vn 0 -0.05003263 -0.9987476
vn 0 -0.05003263 -0.9987476
vn 0 -0.1022211 0.9947618
vn 0 -0.1022211 0.9947618
vn 0 -0.00252161 0.9999969
vn 0 -0.00252161 0.9999969
vn 0 0.09720298 0.9952645
vn 0 0.09720298 0.9952645
g SM_Prop_KitchenCabinet_01_Door_02_0
f 3/3/3 2/2/2 1/1/1
f 4/4/4 3/3/3 1/1/1
f 7/7/7 6/6/6 5/5/5
f 8/8/8 7/7/7 5/5/5
f 11/11/11 10/10/10 9/9/9
f 12/12/12 11/11/11 9/9/9
f 15/15/15 14/14/14 13/13/13
f 16/16/16 15/15/15 13/13/13
f 19/19/19 18/18/18 17/17/17
f 20/20/20 19/19/19 17/17/17
f 23/23/23 22/22/22 21/21/21
f 24/24/24 23/23/23 21/21/21
f 27/27/27 26/26/26 25/25/25
f 28/28/28 27/27/27 25/25/25
f 31/31/31 30/30/30 29/29/29
f 32/32/32 31/31/31 29/29/29
f 35/35/35 34/34/34 33/33/33
f 36/36/36 35/35/35 33/33/33
f 39/39/39 38/38/38 37/37/37
f 38/38/38 40/40/40 37/37/37
f 43/43/43 42/42/42 41/41/41
f 44/44/44 43/43/43 41/41/41
f 45/45/45 44/44/44 41/41/41
f 41/41/41 46/46/46 45/45/45
f 45/45/45 47/47/47 44/44/44
f 46/46/46 48/48/48 45/45/45
f 45/45/45 49/49/49 47/47/47
f 48/48/48 50/50/50 45/45/45
f 47/47/47 49/49/49 51/51/51
f 51/51/51 50/50/50 48/48/48
f 52/52/52 47/47/47 51/51/51
f 48/48/48 52/52/52 51/51/51
f 55/55/55 54/54/54 53/53/53
f 56/56/56 55/55/55 53/53/53
f 55/55/55 57/57/57 54/54/54
f 56/56/56 53/53/53 58/58/58
f 57/57/57 59/59/59 54/54/54
f 60/60/60 56/56/56 58/58/58
f 60/60/60 58/58/58 59/59/59
f 57/57/57 60/60/60 59/59/59
g SM_Prop_KitchenCabinet_01_Door_02_1
f 63/63/63 62/62/62 61/61/61
f 64/64/64 63/63/63 61/61/61
f 67/67/67 66/66/66 65/65/65
f 68/68/68 67/67/67 65/65/65
f 69/69/69 67/67/67 68/68/68
f 70/70/70 69/69/69 68/68/68
f 69/69/69 70/70/70 71/71/71
f 70/70/70 72/72/72 71/71/71
f 71/71/71 72/72/72 73/73/73
f 72/72/72 74/74/74 73/73/73
f 77/77/77 76/76/76 75/75/75
f 78/78/78 77/77/77 75/75/75
f 81/81/81 80/80/80 79/79/79
f 82/82/82 81/81/81 79/79/79
f 83/83/83 81/81/81 82/82/82
f 84/84/84 83/83/83 82/82/82
f 83/83/83 84/84/84 85/85/85
f 84/84/84 86/86/86 85/85/85
f 85/85/85 86/86/86 87/87/87
f 86/86/86 88/88/88 87/87/87
f 91/91/91 90/90/90 89/89/89
f 92/92/92 91/91/91 89/89/89
f 95/95/95 94/94/94 93/93/93
f 96/96/96 95/95/95 93/93/93
f 99/99/99 98/98/98 97/97/97
f 100/100/100 99/99/99 97/97/97
f 99/99/99 100/100/100 101/101/101
f 100/100/100 102/102/102 101/101/101
f 105/105/105 104/104/104 103/103/103
f 106/106/106 105/105/105 103/103/103
f 105/105/105 106/106/106 107/107/107
f 106/106/106 108/108/108 107/107/107
