g SM_Prop_CoffeeTable_03
v 0.1861853 0 -0.1861874
v 0.1861853 0.4629346 -0.1861874
v 0.2343127 0.4629346 -0.1861874
v 0.2343127 0 -0.1861874
v 0.1861853 0.4629346 -0.1861874
v 0.1861853 0.4629346 -0.2343166
v 0.2343127 0.4629346 -0.2343166
v 0.2343127 0.4629346 -0.1861874
v 0.1861853 0.4629346 -0.2343166
v 0.1861853 0 -0.2343166
v 0.2343127 0 -0.2343166
v 0.2343127 0.4629346 -0.2343166
v 0.1861853 0 -0.2343166
v 0.1861853 0 -0.1861874
v 0.2343127 0 -0.1861874
v 0.2343127 0 -0.2343166
v 0.2343127 0 -0.1861874
v 0.2343127 0.4629346 -0.1861874
v 0.2343127 0.4629346 -0.2343166
v 0.2343127 0 -0.2343166
v 0.1861853 0 -0.2343166
v 0.1861853 0.4629346 -0.2343166
v 0.1861853 0.4629346 -0.1861874
v 0.1861853 0 -0.1861874
v -0.2343164 0 -0.1861874
v -0.2343164 0.4629346 -0.1861874
v -0.186189 0.4629346 -0.1861874
v -0.186189 0 -0.1861874
v -0.2343164 0.4629346 -0.1861874
v -0.2343164 0.4629346 -0.2343166
v -0.186189 0.4629346 -0.2343166
v -0.186189 0.4629346 -0.1861874
v -0.2343164 0.4629346 -0.2343166
v -0.2343164 0 -0.2343166
v -0.186189 0 -0.2343166
v -0.186189 0.4629346 -0.2343166
v -0.2343164 0 -0.2343166
v -0.2343164 0 -0.1861874
v -0.186189 0 -0.1861874
v -0.186189 0 -0.2343166
v -0.186189 0 -0.1861874
v -0.186189 0.4629346 -0.1861874
v -0.186189 0.4629346 -0.2343166
v -0.186189 0 -0.2343166
v -0.2343164 0 -0.2343166
v -0.2343164 0.4629346 -0.2343166
v -0.2343164 0.4629346 -0.1861874
v -0.2343164 0 -0.1861874
v -0.2343164 0 0.2343167
v -0.2343164 0.4629346 0.2343167
v -0.186189 0.4629346 0.2343167
v -0.186189 0 0.2343167
v -0.2343164 0.4629346 0.2343167
v -0.2343164 0.4629346 0.1861877
v -0.186189 0.4629346 0.1861877
v -0.186189 0.4629346 0.2343167
v -0.2343164 0.4629346 0.1861877
v -0.2343164 0 0.1861877
v -0.186189 0 0.1861877
v -0.186189 0.4629346 0.1861877
v -0.2343164 0 0.1861877
v -0.2343164 0 0.2343167
v -0.186189 0 0.2343167
v -0.186189 0 0.1861877
v -0.186189 0 0.2343167
v -0.186189 0.4629346 0.2343167
v -0.186189 0.4629346 0.1861877
v -0.186189 0 0.1861877
v -0.2343164 0 0.1861877
v -0.2343164 0.4629346 0.1861877
v -0.2343164 0.4629346 0.2343167
v -0.2343164 0 0.2343167
v 0.1861853 0 0.2343167
v 0.1861853 0.4629346 0.2343167
v 0.2343127 0.4629346 0.2343167
v 0.2343127 0 0.2343167
v 0.1861853 0.4629346 0.2343167
v 0.1861853 0.4629346 0.1861877
v 0.2343127 0.4629346 0.1861877
v 0.2343127 0.4629346 0.2343167
v 0.1861853 0.4629346 0.1861877
v 0.1861853 0 0.1861877
v 0.2343127 0 0.1861877
v 0.2343127 0.4629346 0.1861877
v 0.1861853 0 0.1861877
v 0.1861853 0 0.2343167
v 0.2343127 0 0.2343167
v 0.2343127 0 0.1861877
v 0.2343127 0 0.2343167
v 0.2343127 0.4629346 0.2343167
v 0.2343127 0.4629346 0.1861877
v 0.2343127 0 0.1861877
v 0.1861853 0 0.1861877
v 0.1861853 0.4629346 0.1861877
v 0.1861853 0.4629346 0.2343167
v 0.1861853 0 0.2343167
v -0.2558691 0.2861997 0.2558679
v -0.2558691 0.3388722 0.2558679
v 0.2558667 0.3388722 0.2558679
v 0.2558667 0.2861997 0.2558679
v -0.2558691 0.3388722 -0.2558676
v -0.2558691 0.2861997 -0.2558676
v 0.2558667 0.2861997 -0.2558676
v 0.2558667 0.3388722 -0.2558676
v 0.2558667 0.2861997 0.2558679
v 0.2558667 0.3388722 0.2558679
v 0.2558667 0.3388722 -0.2558676
v 0.2558667 0.2861997 -0.2558676
v -0.2558691 0.2861997 -0.2558676
v -0.2558691 0.3388722 -0.2558676
v -0.2558691 0.3388722 0.2558679
v -0.2558691 0.2861997 0.2558679
v 0.2466992 0.4896855 0.3294247
v 0.2466992 0.4556321 0.3294247
v -0.2546008 0.4556321 0.3294247
v -0.2546008 0.4896855 0.3294247
v -0.2684167 0.5328214 -0.3473013
v 0.2600867 0.5328214 -0.3473016
v 0.347301 0.5328214 -0.2676364
v -0.3473022 0.5328214 -0.2676364
v -0.3473022 0.5328214 0.24164
v 0.3472986 0.5328214 0.24164
v -0.2684167 0.5328214 0.3473016
v 0.2600867 0.5328214 0.3473016
v -0.2546008 0.4556321 -0.3294246
v 0.2466992 0.4556321 -0.3294249
v 0.2466992 0.4896855 -0.3294249
v -0.2546008 0.4896855 -0.3294246
v 0.3294238 0.4556321 -0.2538606
v 0.2466992 0.4556321 -0.3294249
v -0.2546008 0.4556321 -0.3294246
v -0.329425 0.4556321 -0.2538606
v 0.3294238 0.4556321 0.229202
v -0.329425 0.4556321 0.229202
v 0.2466992 0.4556321 0.3294247
v -0.2546008 0.4556321 0.3294247
v 0.3294238 0.4896855 -0.2538606
v 0.3294238 0.4556321 -0.2538606
v 0.3294238 0.4556321 0.229202
v 0.3294226 0.4896855 0.229202
v -0.329425 0.4896855 0.229202
v -0.329425 0.4556321 0.229202
v -0.329425 0.4556321 -0.2538606
v -0.329425 0.4896855 -0.2538606
v 0.3294226 0.4896855 0.229202
v 0.3294238 0.4556321 0.229202
v 0.2466992 0.4556321 0.3294247
v 0.2466992 0.4896855 0.3294247
v 0.3294238 0.4556321 -0.2538606
v 0.3294238 0.4896855 -0.2538606
v 0.2466992 0.4896855 -0.3294249
v 0.2466992 0.4556321 -0.3294249
v -0.2546008 0.4896855 0.3294247
v -0.2546008 0.4556321 0.3294247
v -0.329425 0.4556321 0.229202
v -0.329425 0.4896855 0.229202
v -0.2546008 0.4556321 -0.3294246
v -0.2546008 0.4896855 -0.3294246
v -0.329425 0.4896855 -0.2538606
v -0.329425 0.4556321 -0.2538606
v -0.2029883 0.2861997 -0.2029871
v -0.2029883 0.3388722 -0.2029871
v 0.2029858 0.3388722 -0.2029871
v 0.2029858 0.2861997 -0.2029871
v 0.2029858 0.2861997 -0.2029871
v 0.2029858 0.3388722 -0.2029871
v 0.2029858 0.3388722 0.2029874
v 0.2029858 0.2861997 0.2029874
v 0.2029858 0.2861997 0.2029874
v 0.2029858 0.3388722 0.2029874
v -0.2029883 0.3388722 0.2029874
v -0.2029883 0.2861997 0.2029874
v -0.2029883 0.2861997 0.2029874
v -0.2029883 0.3388722 0.2029874
v -0.2029883 0.3388722 -0.2029871
v -0.2029883 0.2861997 -0.2029871
v -0.2684167 0.4961154 0.3473016
v -0.2546008 0.4896855 0.3294247
v -0.329425 0.4896855 0.229202
v -0.3473022 0.4961154 0.24164
v -0.3473022 0.4961154 0.24164
v -0.329425 0.4896855 0.229202
v -0.329425 0.4896855 -0.2538606
v -0.3473022 0.4961154 -0.2676367
v -0.2546008 0.4896855 -0.3294246
v -0.2684167 0.4961154 -0.3473013
v -0.3473022 0.4961154 -0.2676367
v -0.329425 0.4896855 -0.2538606
v 0.2466992 0.4896855 -0.3294249
v 0.2600867 0.4961154 -0.3473016
v -0.2684167 0.4961154 -0.3473013
v -0.2546008 0.4896855 -0.3294246
v 0.3294238 0.4896855 -0.2538606
v 0.347301 0.4961154 -0.2676366
v 0.2600867 0.4961154 -0.3473016
v 0.2466992 0.4896855 -0.3294249
v 0.347301 0.4961154 -0.2676366
v 0.3294238 0.4896855 -0.2538606
v 0.3294226 0.4896855 0.229202
v 0.3472998 0.4961154 0.24164
v 0.3472998 0.4961154 0.24164
v 0.3294226 0.4896855 0.229202
v 0.2466992 0.4896855 0.3294247
v 0.2600867 0.4961154 0.3473016
v 0.2600867 0.4961154 0.3473016
v 0.2466992 0.4896855 0.3294247
v -0.2546008 0.4896855 0.3294247
v -0.2684167 0.4961154 0.3473016
v -0.2684167 0.5328214 0.3473016
v -0.2684167 0.4961154 0.3473016
v -0.3473022 0.4961154 0.24164
v -0.3473022 0.5328214 0.24164
v -0.3473022 0.5328214 -0.2676364
v -0.3473022 0.5328214 0.24164
v -0.3473022 0.4961154 0.24164
v -0.3473022 0.4961154 -0.2676367
v -0.2684167 0.4961154 -0.3473013
v -0.2684167 0.5328214 -0.3473013
v -0.3473022 0.5328214 -0.2676364
v -0.3473022 0.4961154 -0.2676367
v 0.2600867 0.4961154 -0.3473016
v 0.2600867 0.5328214 -0.3473016
v -0.2684167 0.5328214 -0.3473013
v -0.2684167 0.4961154 -0.3473013
v 0.347301 0.4961154 -0.2676366
v 0.347301 0.5328214 -0.2676364
v 0.2600867 0.5328214 -0.3473016
v 0.2600867 0.4961154 -0.3473016
v 0.3472986 0.5328214 0.24164
v 0.347301 0.5328214 -0.2676364
v 0.347301 0.4961154 -0.2676366
v 0.3472998 0.4961154 0.24164
v 0.3472986 0.5328214 0.24164
v 0.3472998 0.4961154 0.24164
v 0.2600867 0.4961154 0.3473016
v 0.2600867 0.5328214 0.3473016
v -0.2684167 0.5328214 0.3473016
v 0.2600867 0.5328214 0.3473016
v 0.2600867 0.4961154 0.3473016
v -0.2684167 0.4961154 0.3473016
v -0.2558691 0.3388722 0.2558679
v -0.2029883 0.3388722 0.2029874
v 0.2029858 0.3388722 0.2029874
v 0.2558667 0.3388722 0.2558679
v -0.2558691 0.3388722 -0.2558676
v 0.2029858 0.3388722 -0.2029871
v -0.2029883 0.3388722 -0.2029871
v 0.2558667 0.3388722 -0.2558676
v -0.2558691 0.2861997 -0.2558676
v -0.2029883 0.2861997 -0.2029871
v 0.2029858 0.2861997 -0.2029871
v 0.2558667 0.2861997 -0.2558676
v -0.2558691 0.2861997 0.2558679
v 0.2029858 0.2861997 0.2029874
v -0.2029883 0.2861997 0.2029874
v 0.2558667 0.2861997 0.2558679
vt 0.08067405 0.2757401
vt 0.080589 0.2754327
vt 0.08052891 0.2754587
vt 0.08062279 0.2757646
vt 0.080589 0.2754327
vt 0.08056587 0.2753881
vt 0.08050638 0.2754135
vt 0.08052891 0.2754587
vt 0.08056587 0.2753881
vt 0.08065307 0.2756982
vt 0.08060229 0.2757221
vt 0.08050638 0.2754135
vt 0.08065307 0.2756982
vt 0.08067405 0.2757401
vt 0.08062279 0.2757646
vt 0.08060229 0.2757221
vt 0.08062279 0.2757646
vt 0.08052891 0.2754587
vt 0.08050638 0.2754135
vt 0.08060229 0.2757221
vt 0.08065307 0.2756982
vt 0.08056587 0.2753881
vt 0.080589 0.2754327
vt 0.08067405 0.2757401
vt 0.08109549 0.2755391
vt 0.08107841 0.2752206
vt 0.08102545 0.2752435
vt 0.08104953 0.275561
vt 0.08107841 0.2752206
vt 0.08105075 0.2751812
vt 0.08099824 0.2752036
vt 0.08102545 0.2752435
vt 0.08105075 0.2751812
vt 0.0810712 0.2755015
vt 0.0810256 0.2755229
vt 0.08099824 0.2752036
vt 0.0810712 0.2755015
vt 0.08109549 0.2755391
vt 0.08104953 0.275561
vt 0.0810256 0.2755229
vt 0.08104953 0.275561
vt 0.08102545 0.2752435
vt 0.08099824 0.2752036
vt 0.0810256 0.2755229
vt 0.0810712 0.2755015
vt 0.08105075 0.2751812
vt 0.08107841 0.2752206
vt 0.08109549 0.2755391
vt 0.08133182 0.2759054
vt 0.08135211 0.2756099
vt 0.08129495 0.2756387
vt 0.08128273 0.2759321
vt 0.08135211 0.2756099
vt 0.08131751 0.2755607
vt 0.08126086 0.2755887
vt 0.08129495 0.2756387
vt 0.08131751 0.2755607
vt 0.08130234 0.2758597
vt 0.08125365 0.2758858
vt 0.08126086 0.2755887
vt 0.08130234 0.2758597
vt 0.08133182 0.2759054
vt 0.08128273 0.2759321
vt 0.08125365 0.2758858
vt 0.08128273 0.2759321
vt 0.08129495 0.2756387
vt 0.08126086 0.2755887
vt 0.08125365 0.2758858
vt 0.08130234 0.2758597
vt 0.08131751 0.2755607
vt 0.08135211 0.2756099
vt 0.08133182 0.2759054
vt 0.08087927 0.2761511
vt 0.08082008 0.2758778
vt 0.08075416 0.275911
vt 0.0808239 0.2761812
vt 0.08082008 0.2758778
vt 0.0807907 0.2758212
vt 0.08072549 0.2758534
vt 0.08075416 0.275911
vt 0.0807907 0.2758212
vt 0.08085358 0.2760996
vt 0.08079863 0.2761289
vt 0.08072549 0.2758534
vt 0.08085358 0.2760996
vt 0.08087927 0.2761511
vt 0.0808239 0.2761812
vt 0.08079863 0.2761289
vt 0.0808239 0.2761812
vt 0.08075416 0.275911
vt 0.08072549 0.2758534
vt 0.08079863 0.2761289
vt 0.08085358 0.2760996
vt 0.0807907 0.2758212
vt 0.08082008 0.2758778
vt 0.08087927 0.2761511
vt 0.08140817 0.2757491
vt 0.08141178 0.275714
vt 0.08074856 0.2760603
vt 0.08075756 0.2760919
vt 0.0810743 0.2752314
vt 0.08107641 0.2752697
vt 0.08048868 0.2755283
vt 0.08047628 0.2754914
vt 0.08075756 0.2760919
vt 0.08074856 0.2760603
vt 0.08047628 0.2754914
vt 0.08048868 0.2755283
vt 0.08107641 0.2752697
vt 0.0810743 0.2752314
vt 0.08141178 0.275714
vt 0.08140817 0.2757491
vt 0.08091378 0.2757242
vt 0.08091176 0.2757631
vt 0.08127367 0.2756151
vt 0.08127373 0.275566
vt 0.03740875 0.349821
vt 0.03684592 0.34973
vt 0.03672081 0.3497686
vt 0.03747021 0.3498919
vt 0.03729124 0.3503
vt 0.03647161 0.3501498
vt 0.03715125 0.3503773
vt 0.03651506 0.3502579
vt 0.08189088 0.2757653
vt 0.08148372 0.2758584
vt 0.08148286 0.2758262
vt 0.08188775 0.2757266
vt 0.08137631 0.275862
vt 0.08148372 0.2758584
vt 0.08189088 0.2757653
vt 0.0819118 0.2757331
vt 0.08096832 0.2757974
vt 0.08146453 0.2756162
vt 0.08091176 0.2757631
vt 0.08127367 0.2756151
vt 0.08137596 0.2758301
vt 0.08137631 0.275862
vt 0.08096832 0.2757974
vt 0.08096987 0.2757609
vt 0.08146331 0.2755671
vt 0.08146453 0.2756162
vt 0.0819118 0.2757331
vt 0.08190832 0.275692
vt 0.08096987 0.2757609
vt 0.08096832 0.2757974
vt 0.08091176 0.2757631
vt 0.08091378 0.2757242
vt 0.08137631 0.275862
vt 0.08137596 0.2758301
vt 0.08148286 0.2758262
vt 0.08148372 0.2758584
vt 0.08127373 0.275566
vt 0.08127367 0.2756151
vt 0.08146453 0.2756162
vt 0.08146331 0.2755671
vt 0.08189088 0.2757653
vt 0.08188775 0.2757266
vt 0.08190832 0.275692
vt 0.0819118 0.2757331
vt 0.08107641 0.2752697
vt 0.08107641 0.2752697
vt 0.08048868 0.2755283
vt 0.08048868 0.2755283
vt 0.08048868 0.2755283
vt 0.08048868 0.2755283
vt 0.08075756 0.2760919
vt 0.08075756 0.2760919
vt 0.08075756 0.2760919
vt 0.08075756 0.2760919
vt 0.08140817 0.2757491
vt 0.08140817 0.2757491
vt 0.08140817 0.2757491
vt 0.08140817 0.2757491
vt 0.08107641 0.2752697
vt 0.08107641 0.2752697
vt 0.03715342 0.3503976
vt 0.0371538 0.3504011
vt 0.03729304 0.3503237
vt 0.03729277 0.3503202
vt 0.03729277 0.3503202
vt 0.03729304 0.3503237
vt 0.03747102 0.3499153
vt 0.0374709 0.3499118
vt 0.03740982 0.3498442
vt 0.03740966 0.3498408
vt 0.0374709 0.3499118
vt 0.03747102 0.3499153
vt 0.03684945 0.349753
vt 0.03684893 0.3497496
vt 0.03740966 0.3498408
vt 0.03740982 0.3498442
vt 0.03672491 0.3497918
vt 0.0367243 0.3497883
vt 0.03684893 0.3497496
vt 0.03684945 0.349753
vt 0.0367243 0.3497883
vt 0.03672491 0.3497918
vt 0.03647733 0.3501734
vt 0.03647648 0.3501698
vt 0.03647648 0.3501698
vt 0.03647733 0.3501734
vt 0.03652072 0.3502816
vt 0.03651988 0.350278
vt 0.03651988 0.350278
vt 0.03652072 0.3502816
vt 0.0371538 0.3504011
vt 0.03715342 0.3503976
vt 0.03715125 0.3503773
vt 0.03715342 0.3503976
vt 0.03729277 0.3503202
vt 0.03729124 0.3503
vt 0.03747021 0.3498919
vt 0.03729124 0.3503
vt 0.03729277 0.3503202
vt 0.0374709 0.3499118
vt 0.03740966 0.3498408
vt 0.03740875 0.349821
vt 0.03747021 0.3498919
vt 0.0374709 0.3499118
vt 0.03684893 0.3497496
vt 0.03684592 0.34973
vt 0.03740875 0.349821
vt 0.03740966 0.3498408
vt 0.0367243 0.3497883
vt 0.03672081 0.3497686
vt 0.03684592 0.34973
vt 0.03684893 0.3497496
vt 0.03647161 0.3501498
vt 0.03672081 0.3497686
vt 0.0367243 0.3497883
vt 0.03647648 0.3501698
vt 0.03647161 0.3501498
vt 0.03647648 0.3501698
vt 0.03651988 0.350278
vt 0.03651506 0.3502579
vt 0.03715125 0.3503773
vt 0.03651506 0.3502579
vt 0.03651988 0.350278
vt 0.03715342 0.3503976
vt 0.08141178 0.275714
vt 0.08141178 0.275714
vt 0.08074856 0.2760603
vt 0.08074856 0.2760603
vt 0.0810743 0.2752314
vt 0.08047628 0.2754914
vt 0.0810743 0.2752314
vt 0.08047628 0.2754914
vt 0.08107641 0.2752697
vt 0.08107641 0.2752697
vt 0.08048868 0.2755283
vt 0.08048868 0.2755283
vt 0.08140817 0.2757491
vt 0.08075756 0.2760919
vt 0.08140817 0.2757491
vt 0.08075756 0.2760919
vn 0 0 1
vn 0 0 1
vn 0 0 1
vn 0 0 1
vn 0 1 0
vn 0 1 0
vn 0 1 0
vn 0 1 0
vn 0 0 -1
vn 0 0 -1
vn 0 0 -1
vn 0 0 -1
vn 0 -1 0
vn 0 -1 0
vn 0 -1 0
vn 0 -1 0
vn 1 0 0
vn 1 0 0
vn 1 0 0
vn 1 0 0
vn -1 0 0
vn -1 0 0
vn -1 0 0
vn -1 0 0
vn 0 0 1
vn 0 0 1
vn 0 0 1
vn 0 0 1
vn 0 1 0
vn 0 1 0
vn 0 1 0
vn 0 1 0
vn 0 0 -1
vn 0 0 -1
vn 0 0 -1
vn 0 0 -1
vn 0 -1 0
vn 0 -1 0
vn 0 -1 0
vn 0 -1 0
vn 1 0 0
vn 1 0 0
vn 1 0 0
vn 1 0 0
vn -1 0 0
vn -1 0 0
vn -1 0 0
vn -1 0 0
vn 0 0 1
vn 0 0 1
vn 0 0 1
vn 0 0 1
vn 0 1 0
vn 0 1 0
vn 0 1 0
vn 0 1 0
vn 0 0 -1
vn 0 0 -1
vn 0 0 -1
vn 0 0 -1
vn 0 -1 0
vn 0 -1 0
vn 0 -1 0
vn 0 -1 0
vn 1 0 0
vn 1 0 0
vn 1 0 0
vn 1 0 0
vn -1 0 0
vn -1 0 0
vn -1 0 0
vn -1 0 0
vn 0 0 1
vn 0 0 1
vn 0 0 1
vn 0 0 1
vn 0 1 0
vn 0 1 0
vn 0 1 0
vn 0 1 0
vn 0 0 -1
vn 0 0 -1
vn 0 0 -1
vn 0 0 -1
vn 0 -1 0
vn 0 -1 0
vn 0 -1 0
vn 0 -1 0
vn 1 0 0
vn 1 0 0
vn 1 0 0
vn 1 0 0
vn -1 0 0
vn -1 0 0
vn -1 0 0
vn -1 0 0
vn 0 0 1
vn 0 0 1
vn 0 0 1
vn 0 0 1
vn 0 0 -1
vn 0 0 -1
vn 0 0 -1
vn 0 0 -1
vn 1 0 0
vn 1 0 0
vn 1 0 0
vn 1 0 0
vn -1 0 0
vn -1 0 0
vn -1 0 0
vn -1 0 0
vn 0 0 1
vn 0 0 1
vn 0 0 1
vn 0 0 1
vn 0 1 0
vn 0 1 0
vn 0 1 0
vn 0 1 0
vn 0 1 0
vn 0 1 0
vn 0 1 0
vn 0 1 0
vn 0 0 -1
vn 0 0 -1
vn 0 0 -1
vn 0 0 -1
vn 0 -1 0
vn 0 -1 0
vn 0 -1 0
vn 0 -1 0
vn 0 -1 0
vn 0 -1 0
vn 0 -1 0
vn 0 -1 0
vn 1 1.792334E-05 0
vn 1 1.792334E-05 0
vn 1 1.792334E-05 0
vn 1 1.792334E-05 0
vn -1 0 0
vn -1 0 0
vn -1 0 0
vn -1 0 0
vn 0.7712214 1.379954E-05 0.6365671
vn 0.7712214 1.379954E-05 0.6365671
vn 0.7712214 1.379954E-05 0.6365671
vn 0.7712214 1.379954E-05 0.6365671
vn 0.6744305 0 -0.7383384
vn 0.6744305 0 -0.7383384
vn 0.6744305 0 -0.7383384
vn 0.6744305 0 -0.7383384
vn -0.8013139 0 0.5982441
vn -0.8013139 0 0.5982441
vn -0.8013139 0 0.5982441
vn -0.8013139 0 0.5982441
vn -0.7105765 0 -0.70362
vn -0.7105765 0 -0.70362
vn -0.7105765 0 -0.70362
vn -0.7105765 0 -0.70362
vn 0 0 1
vn 0 0 1
vn 0 0 1
vn 0 0 1
vn -1 0 0
vn -1 0 0
vn -1 0 0
vn -1 0 0
vn 0 0 -1
vn 0 0 -1
vn 0 0 -1
vn 0 0 -1
vn 1 0 0
vn 1 0 0
vn 1 0 0
vn 1 0 0
vn -0.2270181 -0.9590291 0.1694877
vn -0.2270181 -0.9590291 0.1694877
vn -0.2270181 -0.9590291 0.1694877
vn -0.2270181 -0.9590291 0.1694877
vn -0.338445 -0.9409862 0
vn -0.338445 -0.9409861 0
vn -0.338445 -0.9409861 0
vn -0.338445 -0.9409861 0
vn -0.1960852 -0.9611711 -0.1941666
vn -0.1960852 -0.9611711 -0.1941666
vn -0.1960852 -0.9611711 -0.1941666
vn -0.1960852 -0.9611711 -0.1941666
vn 0 -0.9409834 -0.3384526
vn 0 -0.9409834 -0.3384526
vn 0 -0.9409834 -0.3384526
vn 0 -0.9409834 -0.3384526
vn 0.1874082 -0.9606168 -0.2051671
vn 0.1874082 -0.9606168 -0.2051671
vn 0.1874082 -0.9606168 -0.2051671
vn 0.1874082 -0.9606168 -0.2051671
vn 0.338445 -0.9409861 0
vn 0.338445 -0.9409861 0
vn 0.338445 -0.9409861 0
vn 0.338445 -0.9409861 0
vn 0.21906 -0.9588117 0.1808117
vn 0.2190601 -0.9588117 0.1808117
vn 0.21906 -0.9588117 0.1808117
vn 0.21906 -0.9588117 0.1808116
vn 0 -0.9409843 0.3384501
vn 0 -0.9409843 0.3384501
vn 0 -0.9409843 0.3384501
vn 0 -0.9409843 0.3384501
vn -0.8013112 0 0.5982478
vn -0.8013112 0 0.5982478
vn -0.8013112 0 0.5982478
vn -0.8013112 0 0.5982478
vn -1 0 0
vn -1 0 0
vn -1 0 0
vn -1 0 0
vn -0.7105737 0 -0.7036228
vn -0.7105737 0 -0.7036228
vn -0.7105736 0 -0.7036229
vn -0.7105736 0 -0.7036229
vn 0 0 -1
vn 0 0 -1
vn 0 0 -1
vn 0 0 -1
vn 0.6744293 0 -0.7383394
vn 0.6744293 0 -0.7383394
vn 0.6744292 0 -0.7383395
vn 0.6744292 0 -0.7383395
vn 1 1.662812E-05 0
vn 1 1.662812E-05 0
vn 1 1.662812E-05 0
vn 1 1.662812E-05 0
vn 0.7712239 1.28355E-05 0.636564
vn 0.7712238 1.28355E-05 0.636564
vn 0.7712238 1.28355E-05 0.636564
vn 0.7712238 1.28355E-05 0.636564
vn 0 0 1
vn 0 0 1
vn 0 0 1
vn 0 0 1
vn 0 1 0
vn 0 1 0
vn 0 1 0
vn 0 1 0
vn 0 1 0
vn 0 1 0
vn 0 1 0
vn 0 1 0
vn 0 -1 0
vn 0 -1 0
vn 0 -1 0
vn 0 -1 0
vn 0 -1 0
vn 0 -1 0
vn 0 -1 0
vn 0 -1 0
g SM_Prop_CoffeeTable_03_0
f 3/3/3 2/2/2 1/1/1
f 4/4/4 3/3/3 1/1/1
f 7/7/7 6/6/6 5/5/5
f 8/8/8 7/7/7 5/5/5
f 11/11/11 10/10/10 9/9/9
f 12/12/12 11/11/11 9/9/9
f 15/15/15 14/14/14 13/13/13
f 16/16/16 15/15/15 13/13/13
f 19/19/19 18/18/18 17/17/17
f 20/20/20 19/19/19 17/17/17
f 23/23/23 22/22/22 21/21/21
f 24/24/24 23/23/23 21/21/21
f 27/27/27 26/26/26 25/25/25
f 28/28/28 27/27/27 25/25/25
f 31/31/31 30/30/30 29/29/29
f 32/32/32 31/31/31 29/29/29
f 35/35/35 34/34/34 33/33/33
f 36/36/36 35/35/35 33/33/33
f 39/39/39 38/38/38 37/37/37
f 40/40/40 39/39/39 37/37/37
f 43/43/43 42/42/42 41/41/41
f 44/44/44 43/43/43 41/41/41
f 47/47/47 46/46/46 45/45/45
f 48/48/48 47/47/47 45/45/45
f 51/51/51 50/50/50 49/49/49
f 52/52/52 51/51/51 49/49/49
f 55/55/55 54/54/54 53/53/53
f 56/56/56 55/55/55 53/53/53
f 59/59/59 58/58/58 57/57/57
f 60/60/60 59/59/59 57/57/57
f 63/63/63 62/62/62 61/61/61
f 64/64/64 63/63/63 61/61/61
f 67/67/67 66/66/66 65/65/65
f 68/68/68 67/67/67 65/65/65
f 71/71/71 70/70/70 69/69/69
f 72/72/72 71/71/71 69/69/69
f 75/75/75 74/74/74 73/73/73
f 76/76/76 75/75/75 73/73/73
f 79/79/79 78/78/78 77/77/77
f 80/80/80 79/79/79 77/77/77
f 83/83/83 82/82/82 81/81/81
f 84/84/84 83/83/83 81/81/81
f 87/87/87 86/86/86 85/85/85
f 88/88/88 87/87/87 85/85/85
f 91/91/91 90/90/90 89/89/89
f 92/92/92 91/91/91 89/89/89
f 95/95/95 94/94/94 93/93/93
f 96/96/96 95/95/95 93/93/93
f 99/99/99 98/98/98 97/97/97
f 100/100/100 99/99/99 97/97/97
f 103/103/103 102/102/102 101/101/101
f 104/104/104 103/103/103 101/101/101
f 107/107/107 106/106/106 105/105/105
f 108/108/108 107/107/107 105/105/105
f 111/111/111 110/110/110 109/109/109
f 112/112/112 111/111/111 109/109/109
f 115/115/115 114/114/114 113/113/113
f 116/116/116 115/115/115 113/113/113
f 119/119/119 118/118/118 117/117/117
f 117/117/117 120/120/120 119/119/119
f 120/120/120 121/121/121 119/119/119
f 121/121/121 122/122/122 119/119/119
f 121/121/121 123/123/123 122/122/122
f 123/123/123 124/124/124 122/122/122
f 127/127/127 126/126/126 125/125/125
f 128/128/128 127/127/127 125/125/125
f 131/131/131 130/130/130 129/129/129
f 129/129/129 132/132/132 131/131/131
f 129/129/129 133/133/133 132/132/132
f 133/133/133 134/134/134 132/132/132
f 133/133/133 135/135/135 134/134/134
f 135/135/135 136/136/136 134/134/134
f 139/139/139 138/138/138 137/137/137
f 140/140/140 139/139/139 137/137/137
f 143/143/143 142/142/142 141/141/141
f 144/144/144 143/143/143 141/141/141
f 147/147/147 146/146/146 145/145/145
f 148/148/148 147/147/147 145/145/145
f 151/151/151 150/150/150 149/149/149
f 152/152/152 151/151/151 149/149/149
f 155/155/155 154/154/154 153/153/153
f 156/156/156 155/155/155 153/153/153
f 159/159/159 158/158/158 157/157/157
f 160/160/160 159/159/159 157/157/157
f 163/163/163 162/162/162 161/161/161
f 164/164/164 163/163/163 161/161/161
f 167/167/167 166/166/166 165/165/165
f 168/168/168 167/167/167 165/165/165
f 171/171/171 170/170/170 169/169/169
f 172/172/172 171/171/171 169/169/169
f 175/175/175 174/174/174 173/173/173
f 176/176/176 175/175/175 173/173/173
f 179/179/179 178/178/178 177/177/177
f 180/180/180 179/179/179 177/177/177
f 183/183/183 182/182/182 181/181/181
f 184/184/184 183/183/183 181/181/181
f 187/187/187 186/186/186 185/185/185
f 188/188/188 187/187/187 185/185/185
f 191/191/191 190/190/190 189/189/189
f 192/192/192 191/191/191 189/189/189
f 195/195/195 194/194/194 193/193/193
f 196/196/196 195/195/195 193/193/193
f 199/199/199 198/198/198 197/197/197
f 200/200/200 199/199/199 197/197/197
f 203/203/203 202/202/202 201/201/201
f 204/204/204 203/203/203 201/201/201
f 207/207/207 206/206/206 205/205/205
f 208/208/208 207/207/207 205/205/205
f 211/211/211 210/210/210 209/209/209
f 212/212/212 211/211/211 209/209/209
f 215/215/215 214/214/214 213/213/213
f 216/216/216 215/215/215 213/213/213
f 219/219/219 218/218/218 217/217/217
f 220/220/220 219/219/219 217/217/217
f 223/223/223 222/222/222 221/221/221
f 224/224/224 223/223/223 221/221/221
f 227/227/227 226/226/226 225/225/225
f 228/228/228 227/227/227 225/225/225
f 231/231/231 230/230/230 229/229/229
f 232/232/232 231/231/231 229/229/229
f 235/235/235 234/234/234 233/233/233
f 236/236/236 235/235/235 233/233/233
f 239/239/239 238/238/238 237/237/237
f 240/240/240 239/239/239 237/237/237
f 243/243/243 242/242/242 241/241/241
f 244/244/244 243/243/243 241/241/241
f 241/241/241 242/242/242 245/245/245
f 246/246/246 243/243/243 244/244/244
f 242/242/242 247/247/247 245/245/245
f 248/248/248 246/246/246 244/244/244
f 245/245/245 247/247/247 248/248/248
f 247/247/247 246/246/246 248/248/248
f 251/251/251 250/250/250 249/249/249
f 252/252/252 251/251/251 249/249/249
f 249/249/249 250/250/250 253/253/253
f 254/254/254 251/251/251 252/252/252
f 250/250/250 255/255/255 253/253/253
f 256/256/256 254/254/254 252/252/252
f 253/253/253 255/255/255 256/256/256
f 255/255/255 254/254/254 256/256/256
