g SM_Prop_Toilet_01_Lid
v -0.1275826 0.4546617 0.009230096
v -2.637078E-08 0.2357217 0.01066274
v -0.206433 0.3193493 0.01011556
v -2.637078E-08 0.5063465 0.008891809
v -2.637078E-08 0.2357217 0.01066274
v -0.1275826 0.4546617 0.009230096
v 0.1275825 0.4546617 0.009230096
v -2.637078E-08 0.2357217 0.01066274
v -2.637078E-08 0.5063465 0.008891809
v 0.1275825 0.4546617 0.009230096
v 0.123219 0.4474497 -0.01513346
v 0.1993724 0.3167655 -0.01427836
v 0.2064329 0.3193493 0.01011556
v 0.2064329 0.3193493 0.01011556
v 0.1993724 0.3167655 -0.01427836
v 0.1993724 0.1552307 -0.01322123
v 0.2064329 0.1520939 0.01121008
v 0.2064329 0.1520939 0.01121008
v 0.1993724 0.1552307 -0.01322123
v 0.123219 -0.0007445738 -0.01220042
v 0.1275825 -0.00940489 0.0122669
v 0.1275825 -0.00940489 0.0122669
v 0.123219 -0.0007445738 -0.01220042
v -2.637078E-08 -7.986281E-05 -0.01220484
v -2.637078E-08 -0.008716643 0.01226248
v -0.1232189 -0.0007445738 -0.01220042
v -0.1275826 -0.00940489 0.0122669
v -0.1275826 -0.00940489 0.0122669
v -0.1232189 -0.0007445738 -0.01220042
v -0.1993723 0.1552307 -0.01322123
v -0.206433 0.1520941 0.01121008
v -0.206433 0.1520941 0.01121008
v -0.1993723 0.1552307 -0.01322123
v -0.1993724 0.3167655 -0.01427836
v -0.206433 0.3193493 0.01011556
v -0.206433 0.3193493 0.01011556
v -0.1993724 0.3167655 -0.01427836
v -0.1232189 0.4474497 -0.01513346
v -0.1275826 0.4546617 0.009230096
v -0.1275826 0.4546617 0.009230096
v -0.1232189 0.4474497 -0.01513346
v -2.637078E-08 0.4973668 -0.01546015
v -2.637078E-08 0.5063465 0.008891809
v -2.637078E-08 0.5063465 0.008891809
v -2.637078E-08 0.4973668 -0.01546015
v 0.123219 0.4474497 -0.01513346
v 0.1275825 0.4546617 0.009230096
v 0.2064329 0.3193493 0.01011556
v -2.637078E-08 0.2357217 0.01066274
v 0.1275825 0.4546617 0.009230096
v 0.2064329 0.1520939 0.01121008
v 0.1275825 -0.00940489 0.0122669
v -2.637078E-08 -0.008716643 0.01226248
v -0.1275826 -0.00940489 0.0122669
v -0.206433 0.1520941 0.01121008
v -0.206433 0.3193493 0.01011556
v 0.123219 0.4474497 -0.01513346
v -2.637078E-08 0.235562 -0.01374689
v 0.1993724 0.3167655 -0.01427836
v -2.637078E-08 0.4973668 -0.01546015
v 0.1993724 0.1552307 -0.01322123
v -0.1232189 0.4474497 -0.01513346
v 0.123219 -0.0007445738 -0.01220042
v -0.1993724 0.3167655 -0.01427836
v -2.637078E-08 -7.986281E-05 -0.01220484
v -0.1993723 0.1552307 -0.01322123
v -0.1232189 -0.0007445738 -0.01220042
vt 0.4233913 0.01314691
vt 0.4233913 0.01314688
vt 0.4233912 0.01314691
vt 0.4233913 0.01314688
vt 0.4233913 0.01314688
vt 0.4233913 0.01314691
vt 0.4233913 0.01314691
vt 0.4233913 0.01314688
vt 0.4233913 0.01314688
vt 0.4233913 0.01314691
vt 0.4233913 0.01314688
vt 0.4233913 0.01314688
vt 0.4233913 0.01314691
vt 0.4233913 0.01314691
vt 0.4233913 0.01314688
vt 0.4233912 0.01314688
vt 0.4233912 0.01314691
vt 0.4233912 0.01314691
vt 0.4233912 0.01314688
vt 0.4233913 0.01314688
vt 0.4233913 0.01314691
vt 0.4233913 0.01314691
vt 0.4233913 0.01314688
vt 0.4233913 0.01314688
vt 0.4233913 0.01314691
vt 0.4233913 0.01314688
vt 0.4233913 0.01314691
vt 0.4233913 0.01314691
vt 0.4233913 0.01314688
vt 0.4233913 0.01314688
vt 0.4233913 0.01314691
vt 0.4233913 0.01314691
vt 0.4233913 0.01314688
vt 0.4233913 0.01314688
vt 0.4233913 0.01314691
vt 0.4233913 0.01314691
vt 0.4233913 0.01314688
vt 0.4233913 0.01314688
vt 0.4233913 0.01314691
vt 0.4233913 0.01314691
vt 0.4233913 0.01314688
vt 0.4233913 0.01314688
vt 0.4233913 0.01314691
vt 0.4233913 0.01314691
vt 0.4233913 0.01314688
vt 0.4233913 0.01314688
vt 0.4233913 0.01314691
vt 0.4233912 0.01314688
vt 0.4233913 0.01314688
vt 0.4233913 0.01314691
vt 0.4233913 0.01314685
vt 0.4233913 0.01314685
vt 0.4233913 0.01314685
vt 0.4233913 0.01314691
vt 0.4233913 0.01314691
vt 0.4233912 0.01314691
vt 0.4233913 0.01314688
vt 0.4233913 0.01314688
vt 0.4233912 0.01314688
vt 0.4233913 0.01314688
vt 0.4233913 0.01314688
vt 0.4233913 0.01314688
vt 0.4233913 0.01314688
vt 0.4233912 0.01314688
vt 0.4233913 0.01314688
vt 0.4233913 0.01314688
vt 0.4233913 0.01314688
vn 0 0.00654367 0.9999787
vn 0 0.006543847 0.9999787
vn 0 0.006543692 0.9999787
vn 0 0.006543737 0.9999787
vn 0 0.006543847 0.9999787
vn 0 0.00654367 0.9999787
vn 0 0.00654367 0.9999787
vn 0 0.006543847 0.9999787
vn 0 0.006543737 0.9999787
vn 0.827593 0.4803616 -0.290418
vn 0.827593 0.4803616 -0.290418
vn 0.827593 0.4803616 -0.290418
vn 0.827593 0.4803616 -0.290418
vn 0.960623 -0.001818275 -0.2778493
vn 0.960623 -0.001818275 -0.2778493
vn 0.960623 -0.001818276 -0.2778493
vn 0.960623 -0.001818275 -0.2778493
vn 0.8560715 -0.419941 -0.3013157
vn 0.8560715 -0.419941 -0.3013157
vn 0.8560715 -0.419941 -0.3013158
vn 0.8560715 -0.419941 -0.3013157
vn -0.0050751 -0.9429626 -0.3328597
vn -0.005075101 -0.9429626 -0.3328598
vn 0 -0.9429749 -0.332864
vn 0 -0.9429749 -0.3328641
vn 0.005075105 -0.9429626 -0.3328597
vn 0.005075105 -0.9429626 -0.3328598
vn -0.8560706 -0.4199403 -0.3013193
vn -0.8560706 -0.4199403 -0.3013193
vn -0.8560706 -0.4199403 -0.3013194
vn -0.8560706 -0.4199403 -0.3013193
vn -0.9606221 -0.001818742 -0.277852
vn -0.9606221 -0.001818742 -0.277852
vn -0.9606221 -0.001818742 -0.277852
vn -0.9606221 -0.001818742 -0.277852
vn -0.8275922 0.4803615 -0.2904204
vn -0.8275922 0.4803615 -0.2904204
vn -0.8275922 0.4803615 -0.2904204
vn -0.8275922 0.4803615 -0.2904204
vn -0.3560407 0.8767614 -0.3233025
vn -0.3560407 0.8767614 -0.3233025
vn -0.3560407 0.8767614 -0.3233025
vn -0.3560407 0.8767614 -0.3233025
vn 0.3560408 0.8767617 -0.3233015
vn 0.3560407 0.8767617 -0.3233015
vn 0.3560407 0.8767617 -0.3233015
vn 0.3560407 0.8767617 -0.3233015
vn 0 0.00654369 0.9999787
vn 0 0.006543847 0.9999787
vn 0 0.00654367 0.9999787
vn 0 0.006543855 0.9999787
vn 0 0.006544116 0.9999787
vn 0 0.006544379 0.9999787
vn 0 0.006544114 0.9999787
vn 0 0.006543856 0.9999787
vn 0 0.006543692 0.9999787
vn 0 -0.006543693 -0.9999787
vn 0 -0.00654399 -0.9999787
vn 0 -0.006543751 -0.9999787
vn 0 -0.006543885 -0.9999787
vn 0 -0.006544298 -0.9999787
vn 0 -0.006543693 -0.9999787
vn 0 -0.006544172 -0.9999787
vn 0 -0.006543753 -0.9999787
vn 0 -0.006543914 -0.9999787
vn 0 -0.006544298 -0.9999787
vn 0 -0.006544174 -0.9999787
g SM_Prop_Toilet_01_Lid_0
f 3/3/3 2/2/2 1/1/1
f 6/6/6 5/5/5 4/4/4
f 9/9/9 8/8/8 7/7/7
f 12/12/12 11/11/11 10/10/10
f 13/13/13 12/12/12 10/10/10
f 16/16/16 15/15/15 14/14/14
f 17/17/17 16/16/16 14/14/14
f 20/20/20 19/19/19 18/18/18
f 21/21/21 20/20/20 18/18/18
f 24/24/24 23/23/23 22/22/22
f 25/25/25 24/24/24 22/22/22
f 26/26/26 24/24/24 25/25/25
f 27/27/27 26/26/26 25/25/25
f 30/30/30 29/29/29 28/28/28
f 31/31/31 30/30/30 28/28/28
f 34/34/34 33/33/33 32/32/32
f 35/35/35 34/34/34 32/32/32
f 38/38/38 37/37/37 36/36/36
f 39/39/39 38/38/38 36/36/36
f 42/42/42 41/41/41 40/40/40
f 43/43/43 42/42/42 40/40/40
f 46/46/46 45/45/45 44/44/44
f 47/47/47 46/46/46 44/44/44
f 50/50/50 49/49/49 48/48/48
f 48/48/48 49/49/49 51/51/51
f 51/51/51 49/49/49 52/52/52
f 52/52/52 49/49/49 53/53/53
f 53/53/53 49/49/49 54/54/54
f 54/54/54 49/49/49 55/55/55
f 55/55/55 49/49/49 56/56/56
f 59/59/59 58/58/58 57/57/57
f 57/57/57 58/58/58 60/60/60
f 61/61/61 58/58/58 59/59/59
f 60/60/60 58/58/58 62/62/62
f 63/63/63 58/58/58 61/61/61
f 62/62/62 58/58/58 64/64/64
f 65/65/65 58/58/58 63/63/63
f 64/64/64 58/58/58 66/66/66
f 67/67/67 58/58/58 65/65/65
f 66/66/66 58/58/58 67/67/67
