g SM_Prop_Poster_07
v 0.09009026 -0.3213727 0.02277328
v -0.08369783 -0.316789 0.04506729
v 0.09010478 -0.3193341 0.03687347
v -0.08094542 -0.3087879 0.05820633
v 0.09207764 -0.05596378 0.01174316
v -0.09011193 -0.1004855 0.0161647
v 0.09207764 -0.05596378 0
v -0.09011193 -0.1004855 0.004421692
v -0.08835053 -0.2378113 0.03442383
v -0.08844384 -0.2512353 0.02065781
v 0.0111783 -0.3211346 0.03689392
v 0.001310623 -0.3230315 0.02277328
v 0.09233928 0.00191021 0.01414047
v -0.08669652 -3.814697E-08 0.01414047
v -0.08669652 -3.814697E-08 0
v 0.09233928 0.00191021 0
v 0.0111783 -0.3211346 0.03689392
v -0.08094542 -0.3087879 0.05820633
v -0.08835053 -0.2378113 0.03442383
v -0.08094542 -0.3087879 0.05820633
v -0.08369783 -0.316789 0.04506729
v 0.0111783 -0.3211346 0.03689392
v -0.08835053 -0.2378113 0.03442383
v 0.001310623 -0.3230315 0.02277328
v -0.08844384 -0.2512353 0.02065781
v -0.08369783 -0.316789 0.04506729
v -0.08835053 -0.2378113 0.03442383
v -0.08844384 -0.2512353 0.02065781
v -0.09011193 -0.1004855 0.0161647
v 0.001310623 -0.3230315 0.02277328
v -0.09011193 -0.1004855 0.004421692
v -0.08844384 -0.2512353 0.02065781
v 0.09010478 -0.3193341 0.03687347
v 0.09207764 -0.05596378 0.01174316
v 0.09009026 -0.3213727 0.02277328
v 0.001310623 -0.3230315 0.02277328
v 0.0111783 -0.3211346 0.03689392
v 0.09010478 -0.3193341 0.03687347
v 0.09009026 -0.3213727 0.02277328
v 0.09207764 -0.05596378 0
v -0.08669652 -3.814697E-08 0.01414047
v 0.09233928 0.00191021 0.01414047
v -0.08669652 -3.814697E-08 0
v -0.08669652 -3.814697E-08 0.01414047
v 0.09233928 0.00191021 0
v -0.08669652 -3.814697E-08 0
v 0.09233928 0.00191021 0.01414047
v 0.09233928 0.00191021 0
vt 0.3415527 0.2489014
vt 0.3183594 0.2489014
vt 0.3415527 0.2489014
vt 0.3183594 0.2489014
vt 0.3415527 0.2744141
vt 0.3183594 0.2700195
vt 0.3415527 0.2744141
vt 0.3183594 0.2700195
vt 0.3183594 0.2565918
vt 0.3183594 0.2553711
vt 0.3310547 0.2489014
vt 0.329834 0.2489014
vt 0.3415527 0.2800293
vt 0.3183594 0.2800293
vt 0.3183594 0.2800293
vt 0.3415527 0.2800293
vt 0.3310547 0.2489014
vt 0.3183594 0.2489014
vt 0.3183594 0.2565918
vt 0.3183594 0.2489014
vt 0.3183594 0.2489014
vt 0.3310547 0.2489014
vt 0.3183594 0.2565918
vt 0.329834 0.2489014
vt 0.3183594 0.2553711
vt 0.3183594 0.2489014
vt 0.3183594 0.2565918
vt 0.3183594 0.2553711
vt 0.3183594 0.2700195
vt 0.329834 0.2489014
vt 0.3183594 0.2700195
vt 0.3183594 0.2553711
vt 0.3415527 0.2489014
vt 0.3415527 0.2744141
vt 0.3415527 0.2489014
vt 0.329834 0.2489014
vt 0.3310547 0.2489014
vt 0.3415527 0.2489014
vt 0.3415527 0.2489014
vt 0.3415527 0.2744141
vt 0.3183594 0.2800293
vt 0.3415527 0.2800293
vt 0.3183594 0.2800293
vt 0.3183594 0.2800293
vt 0.3415527 0.2800293
vt 0.3183594 0.2800293
vt 0.3415527 0.2800293
vt 0.3415527 0.2800293
vn 1 -0.007488251 2.896786E-05
vn -0.01309967 -0.9379883 0.3466797
vn 1 -0.007488251 2.896786E-05
vn -0.01309967 -0.9379883 0.3466797
vn 1 -0.006969452 2.390146E-05
vn 0.007316589 0.06921387 0.9975586
vn 1 -0.006931305 2.354383E-05
vn -1 0.008178711 0.005382538
vn 0.2546387 0.3310547 0.9086914
vn -0.9897461 -0.03991699 0.1364746
vn -0.01309967 -0.9379883 0.3466797
vn -0.01309967 -0.9379883 0.3466797
vn -0.01066589 1 0
vn -0.01066589 1 0
vn -0.01066589 1 0
vn -0.01066589 1 0
vn 0.2546387 0.3310547 0.9086914
vn 0.2546387 0.3310547 0.9086914
vn -0.9897461 -0.03991699 0.1364746
vn -0.9897461 -0.03991699 0.1364746
vn -0.9897461 -0.03991699 0.1364746
vn 0.004074097 0.09606934 0.9956055
vn 0.08636475 0.1324463 0.9873047
vn -0.2614746 -0.3532715 -0.8979492
vn -0.2614746 -0.3532715 -0.8979492
vn -0.2614746 -0.3532715 -0.8979492
vn -1 -0.01078796 0.00933075
vn -1 -0.01078796 0.00933075
vn -1 0.00611496 0.005809784
vn -0.004882813 -0.08544922 -0.9960938
vn -0.00592041 -0.07019043 -0.9975586
vn -0.06262207 -0.1075439 -0.9921875
vn 0.0001952648 0.09436035 0.9956055
vn 0.004817963 0.05825806 0.9980469
vn 0.02046204 -0.9912109 0.1311035
vn 0.02046204 -0.9912109 0.1311035
vn 0.02046204 -0.9912109 0.1311035
vn 0.02046204 -0.9912109 0.1311035
vn -0.001888275 -0.08435059 -0.996582
vn -0.004360199 -0.0637207 -0.9980469
vn 0.01258087 -0.0026474 1
vn 0.01258087 -0.0026474 1
vn -0.9995117 0.03396606 0
vn -0.9995117 0.03396606 0
vn -0.008674622 -0.02770996 -0.9995117
vn -0.008674622 -0.02770996 -0.9995117
vn 1 -0.004520416 0
vn 1 -0.004520416 0
g SM_Prop_Poster_07_0
f 18/18/18 17/17/17 9/9/9
f 26/26/26 25/25/25 24/24/24
f 2/2/2 12/12/12 11/11/11
f 4/4/4 2/2/2 11/11/11
f 15/15/15 14/14/14 13/13/13
f 16/16/16 15/15/15 13/13/13
f 20/20/20 19/19/19 10/10/10
f 21/21/21 20/20/20 10/10/10
f 3/3/3 1/1/1 7/7/7
f 5/5/5 3/3/3 7/7/7
f 47/47/47 5/5/5 7/7/7
f 48/48/48 47/47/47 7/7/7
f 23/23/23 22/22/22 6/6/6
f 6/6/6 22/22/22 33/33/33
f 34/34/34 6/6/6 33/33/33
f 41/41/41 6/6/6 34/34/34
f 42/42/42 41/41/41 34/34/34
f 8/8/8 28/28/28 27/27/27
f 29/29/29 8/8/8 27/27/27
f 43/43/43 8/8/8 29/29/29
f 44/44/44 43/43/43 29/29/29
f 32/32/32 31/31/31 30/30/30
f 30/30/30 31/31/31 39/39/39
f 31/31/31 40/40/40 39/39/39
f 45/45/45 40/40/40 31/31/31
f 46/46/46 45/45/45 31/31/31
f 37/37/37 36/36/36 35/35/35
f 38/38/38 37/37/37 35/35/35
