g SM_Prop_Concrete_Slab_04
v 0.7678109 0.06191826 -0.2103309
v -0.7195715 0 -0.2103309
v 0.7044687 0.5778778 -0.2103309
v -0.6815124 0.5778778 -0.2103309
v 0.7678109 0.4880034 0.2103309
v -0.7678109 0.5778778 0.1584519
v 0.7678109 0.04855805 0.2103309
v -0.7678109 0.108656 0.2103309
v -0.7678109 0.411779 -0.2103309
v -0.7678109 0.5778778 0.002444077
v -0.7678109 0.05125961 -0.2103309
v -0.7678109 0 -0.1494352
v 0.7148874 0 0.2103309
v 0.7678109 0 0.1522274
v 0.4696369 0 -0.2103308
v 0.7678109 0 -0.1405197
v -0.7678109 0 0.1360187
v -0.5094491 0 0.2103309
v -0.7678109 0.4301669 0.2103309
v -0.6328985 0.5778778 0.2103309
v 0.554762 0.5778778 -0.2103309
v 0.1799881 0.5778778 -0.2103309
v 0.4189621 0.5778778 -0.1736427
v 0.4353824 0.5370283 -0.2103309
v -0.1816388 0.5778779 0.2103309
v -0.5173532 0.5778778 0.2103309
v -0.3605056 0.5778778 0.1740618
v -0.3603628 0.5339288 0.2103309
v -0.7678109 0.1115058 -0.2103309
v -0.7678109 0.3325651 -0.2103309
v -0.7336694 0.2131075 -0.2103309
v -0.7678109 0.2279862 -0.1906234
v 0.7678109 0.4392796 0.2103309
v 0.7678109 0.1287269 0.2103309
v 0.7678109 0.2545046 0.1776579
v 0.7280642 0.2953231 0.2103309
v 0.7678109 0.5778779 0.1031135
v 0.7047848 0.5778779 0.2103309
v 0.7678109 0.5778778 -0.1556454
v 0.7678109 0.4992872 -0.2103309
v -0.6815124 0.5778778 -0.2103309
v -0.7678109 0.4301669 0.2103309
v -0.7678109 0.411779 -0.2103309
v -0.7678109 0.5778778 0.002444077
v 0.7678109 0 0.1522274
v 0.7148874 0 0.2103309
v 0.7678109 0 -0.1405197
v 0.7678109 0 0.1522274
v 0.7678109 0.04855805 0.2103309
v 0.7678109 0.06191826 -0.2103309
v 0.7678109 0 -0.1405197
v 0.7678109 0.06191826 -0.2103309
v 0.4696369 0 -0.2103308
v -0.7678109 0.108656 0.2103309
v -0.5094491 0 0.2103309
v -0.7678109 0.4301669 0.2103309
v -0.7678109 0.5778778 0.1584519
v -0.6328985 0.5778778 0.2103309
v 0.554762 0.5778778 -0.2103309
v 0.4189621 0.5778778 -0.1736427
v 0.4353824 0.5370283 -0.2103309
v 0.4189621 0.5778778 -0.1736427
v 0.1799881 0.5778778 -0.2103309
v 0.4353824 0.5370283 -0.2103309
v -0.3603628 0.5339288 0.2103309
v -0.5173532 0.5778778 0.2103309
v -0.3605056 0.5778778 0.1740618
v -0.3603628 0.5339288 0.2103309
v -0.3605056 0.5778778 0.1740618
v -0.7678109 0.2279862 -0.1906234
v -0.7336694 0.2131075 -0.2103309
v -0.7678109 0.3325651 -0.2103309
v -0.7678109 0.2279862 -0.1906234
v 0.7678109 0.1287269 0.2103309
v 0.7678109 0.2545046 0.1776579
v 0.7280642 0.2953231 0.2103309
v 0.7678109 0.2545046 0.1776579
v 0.7678109 0.4992872 -0.2103309
v 0.7678109 0.4392796 0.2103309
v -0.7336694 0.2131075 -0.2103309
v 0.1799881 0.5778778 -0.2103309
v -0.6815124 0.5778778 -0.2103309
v -0.7678109 0.411779 -0.2103309
v -0.7678109 0.3325651 -0.2103309
v -0.7195715 0 -0.2103309
v 0.4696369 0 -0.2103308
v -0.7678109 0.05125961 -0.2103309
v -0.7678109 0.1115058 -0.2103309
v -0.7678109 0.108656 0.2103309
v -0.7678109 0 0.1360187
v -0.7678109 0 -0.1494352
v -0.7678109 0.05125961 -0.2103309
v -0.7678109 0.1115058 -0.2103309
v 0.7280642 0.2953231 0.2103309
v 0.7678109 0.1287269 0.2103309
v 0.7678109 0.04855805 0.2103309
v 0.7148874 0 0.2103309
v -0.5094491 0 0.2103309
v -0.7678109 0.5778778 0.002444077
v -0.7678109 0.5778778 0.1584519
v -0.6328985 0.5778778 0.2103309
v -0.5173532 0.5778778 0.2103309
v 0.7678109 0.4880034 0.2103309
v 0.7678109 0.5778779 0.1031135
v 0.7047848 0.5778779 0.2103309
v 0.7678109 0.4880034 0.2103309
v 0.7678109 0.4392796 0.2103309
v -0.1816388 0.5778779 0.2103309
v 0.554762 0.5778778 -0.2103309
v 0.7044687 0.5778778 -0.2103309
v 0.7678109 0.5778778 -0.1556454
v 0.7678109 0.5778779 0.1031135
v 0.7047848 0.5778779 0.2103309
v 0.7047848 0.5778779 0.2103309
v -0.1816388 0.5778779 0.2103309
v -0.3605056 0.5778778 0.1740618
v 0.7678109 0.5778778 -0.1556454
v 0.7044687 0.5778778 -0.2103309
v 0.7678109 0.4992872 -0.2103309
v -0.7195715 0 -0.2103309
v -0.7678109 0 -0.1494352
v -0.7678109 0 0.1360187
vt 0.05792236 0.3271484
vt 0.05819702 0.354248
vt 0.05789185 0.326416
vt 0.05712891 0.326416
vt 0.05764771 0.3266602
vt 0.05691528 0.326416
vt 0.05895996 0.3540039
vt 0.05691528 0.3269043
vt 0.05813599 0.3537598
vt 0.0581665 0.3537598
vt 0.0581665 0.354248
vt 0.05819702 0.354248
vt 0.05895996 0.3540039
vt 0.05899048 0.3540039
vt 0.05776978 0.3271484
vt 0.05786133 0.3271484
vt 0.05828857 0.3540039
vt 0.05706787 0.3271484
vt 0.05691528 0.3266602
vt 0.05697632 0.326416
vt 0.05780029 0.326416
vt 0.05761719 0.326416
vt 0.05773926 0.326416
vt 0.05773926 0.326416
vt 0.05856323 0.3537598
vt 0.05703735 0.326416
vt 0.05712891 0.326416
vt 0.05712891 0.3266602
vt 0.0581665 0.354248
vt 0.05706787 0.3269043
vt 0.05819702 0.354248
vt 0.05706787 0.3269043
vt 0.05899048 0.3540039
vt 0.05764771 0.3269043
vt 0.05767822 0.3269043
vt 0.05895996 0.3540039
vt 0.05767822 0.3266602
vt 0.05947876 0.3537598
vt 0.05786133 0.3266602
vt 0.05789185 0.3266602
vt 0.0581665 0.3537598
vt 0.05691528 0.3266602
vt 0.05706787 0.3266602
vt 0.05700684 0.326416
vt 0.05767822 0.3271484
vt 0.05764771 0.3271484
vt 0.05786133 0.3271484
vt 0.05767822 0.3271484
vt 0.05764771 0.3269043
vt 0.05792236 0.3271484
vt 0.05905151 0.354248
vt 0.05908203 0.354248
vt 0.05889893 0.354248
vt 0.05831909 0.3540039
vt 0.05841064 0.3540039
vt 0.05828857 0.3537598
vt 0.05825806 0.3537598
vt 0.05834961 0.3537598
vt 0.05899048 0.3537598
vt 0.05889893 0.3537598
vt 0.05889893 0.3537598
vt 0.05889893 0.3537598
vt 0.05874634 0.3537598
vt 0.05889893 0.3537598
vt 0.05847168 0.3537598
vt 0.05841064 0.3537598
vt 0.05847168 0.3537598
vt 0.05847168 0.3537598
vt 0.05847168 0.3537598
vt 0.0581665 0.354248
vt 0.05819702 0.354248
vt 0.0581665 0.354248
vt 0.0581665 0.354248
vt 0.05895996 0.3540039
vt 0.05899048 0.3540039
vt 0.05895996 0.3540039
vt 0.05899048 0.3540039
vt 0.05789185 0.3266602
vt 0.05764771 0.3269043
vt 0.05709839 0.3269043
vt 0.05761719 0.326416
vt 0.05712891 0.326416
vt 0.05706787 0.3266602
vt 0.05706787 0.3269043
vt 0.05709839 0.3271484
vt 0.05776978 0.3271484
vt 0.05706787 0.3271484
vt 0.05706787 0.3271484
vt 0.05691528 0.3269043
vt 0.05691528 0.3271484
vt 0.05706787 0.3271484
vt 0.05706787 0.3271484
vt 0.05706787 0.3271484
vt 0.05764771 0.3269043
vt 0.05764771 0.3269043
vt 0.05764771 0.3269043
vt 0.05764771 0.3271484
vt 0.05706787 0.3271484
vt 0.05700684 0.326416
vt 0.05691528 0.326416
vt 0.05697632 0.326416
vt 0.05703735 0.326416
vt 0.05941772 0.3540039
vt 0.05926514 0.3537598
vt 0.05761719 0.3266602
vt 0.05764771 0.3266602
vt 0.05764771 0.3269043
vt 0.05722046 0.326416
vt 0.05780029 0.326416
vt 0.05789185 0.326416
vt 0.05786133 0.3266602
vt 0.05767822 0.3266602
vt 0.05761719 0.3266602
vt 0.05761719 0.3266602
vt 0.05722046 0.326416
vt 0.05712891 0.326416
vt 0.05856323 0.3535156
vt 0.05853271 0.3535156
vt 0.0585022 0.3537598
vt 0.05709839 0.3271484
vt 0.05706787 0.3271484
vt 0.05691528 0.3271484
vn 1 0 0
vn -0.6308594 -0.59375 -0.4997559
vn 0 0 -1
vn 0 1 0
vn 1 0 0
vn -1 0 0
vn 0.5756836 -0.6274414 0.5244141
vn 0 0 1
vn -0.8349609 0.4338379 -0.338623
vn -0.8349609 0.4338379 -0.338623
vn -0.6308594 -0.59375 -0.4997559
vn -0.6308594 -0.59375 -0.4997559
vn 0.5756836 -0.6274414 0.5244141
vn 0.5756836 -0.6274414 0.5244141
vn 0 -1 0
vn 0 -1 0
vn -0.230957 -0.5493164 0.8032227
vn 0 -1 0
vn 0 0 1
vn 0 0 1
vn 0 0 -1
vn 0 1 0
vn 0 1 0
vn 0 0 -1
vn -0.154541 0.628418 0.762207
vn 0 0 1
vn 0 1 0
vn 0 0 1
vn -0.4445801 0.1494141 -0.8833008
vn -1 0 0
vn -0.4445801 0.1494141 -0.8833008
vn -1 0 0
vn 0.5332031 -0.1473389 0.8330078
vn 1 0 0
vn 1 0 0
vn 0.7255859 0.1730957 0.6660156
vn 1 0 0
vn 0.737793 0.5175781 0.4335938
vn 1 0 0
vn 0 0 -1
vn -0.8349609 0.4338379 -0.338623
vn -1 0 0
vn -1 0 0
vn -1 0 0
vn 0 -1 0
vn 0 -1 0
vn 1 0 0
vn 1 0 0
vn 1 0 0
vn 0 0 -1
vn 0.1535645 -0.7392578 -0.6557617
vn 0.1535645 -0.7392578 -0.6557617
vn 0.1535645 -0.7392578 -0.6557617
vn -0.230957 -0.5493164 0.8032227
vn -0.230957 -0.5493164 0.8032227
vn -0.3410645 0.3115234 0.8867188
vn -0.3410645 0.3115234 0.8867188
vn -0.3410645 0.3115234 0.8867188
vn -0.2073975 0.605957 -0.7675781
vn -0.2073975 0.605957 -0.7675781
vn -0.2073975 0.605957 -0.7675781
vn 0.1101074 0.6884766 -0.7172852
vn 0.1101074 0.6884766 -0.7172852
vn 0.1101074 0.6884766 -0.7172852
vn 0.1755371 0.6269531 0.7587891
vn 0.1755371 0.6269531 0.7587891
vn 0.1755371 0.6269531 0.7587891
vn -0.154541 0.628418 0.762207
vn -0.154541 0.628418 0.762207
vn -0.4445801 0.1494141 -0.8833008
vn -0.5439453 -0.1553955 -0.824707
vn -0.5439453 -0.1553955 -0.824707
vn -0.5439453 -0.1553955 -0.824707
vn 0.7255859 0.1730957 0.6660156
vn 0.7255859 0.1730957 0.6660156
vn 0.5332031 -0.1473389 0.8330078
vn 0.5332031 -0.1473389 0.8330078
vn 1 0 0
vn 1 0 0
vn 0 0 -1
vn 0 0 -1
vn 0 0 -1
vn 0 0 -1
vn 0 0 -1
vn 0 0 -1
vn 0 0 -1
vn 0 0 -1
vn 0 0 -1
vn -1 0 0
vn -1 0 0
vn -1 0 0
vn -1 0 0
vn -1 0 0
vn 0 0 1
vn 0 0 1
vn 0 0 1
vn 0 0 1
vn 0 0 1
vn 0 1 0
vn 0 1 0
vn 0 1 0
vn 0 1 0
vn 0.737793 0.5175781 0.4335938
vn 0.737793 0.5175781 0.4335938
vn 0 0 1
vn 0 0 1
vn 0 0 1
vn 0 0 1
vn 0 1 0
vn 0 1 0
vn 0 1 0
vn 0 1 0
vn 0 1 0
vn 0 1 0
vn 0 1 0
vn 0 1 0
vn 0.578125 0.4660645 -0.6699219
vn 0.578125 0.4660645 -0.6699219
vn 0.578125 0.4660645 -0.6699219
vn 0 -1 0
vn 0 -1 0
vn 0 -1 0
g SM_Prop_Concrete_Slab_04_0
f 13/13/13 14/14/14 7/7/7
f 12/12/12 11/11/11 2/2/2
f 10/10/10 41/41/41 9/9/9
f 53/53/53 52/52/52 51/51/51
f 55/55/55 54/54/54 17/17/17
f 58/58/58 57/57/57 56/56/56
f 61/61/61 60/60/60 59/59/59
f 64/64/64 63/63/63 62/62/62
f 67/67/67 66/66/66 65/65/65
f 69/69/69 68/68/68 25/25/25
f 70/70/70 31/31/31 29/29/29
f 73/73/73 72/72/72 71/71/71
f 75/75/75 36/36/36 74/74/74
f 77/77/77 33/33/33 76/76/76
f 104/104/104 38/38/38 103/103/103
f 116/116/116 115/115/115 114/114/114
f 119/119/119 118/118/118 117/117/117
f 20/20/20 19/19/19 8/8/8
f 26/26/26 20/20/20 8/8/8
f 8/8/8 28/28/28 26/26/26
f 28/28/28 8/8/8 94/94/94
f 8/8/8 98/98/98 94/94/94
f 94/94/94 98/98/98 97/97/97
f 94/94/94 97/97/97 96/96/96
f 96/96/96 95/95/95 94/94/94
f 105/105/105 28/28/28 94/94/94
f 105/105/105 108/108/108 28/28/28
f 105/105/105 94/94/94 107/107/107
f 107/107/107 106/106/106 105/105/105
f 42/42/42 6/6/6 44/44/44
f 42/42/42 44/44/44 43/43/43
f 42/42/42 43/43/43 30/30/30
f 30/30/30 32/32/32 42/42/42
f 42/42/42 32/32/32 93/93/93
f 89/89/89 42/42/42 93/93/93
f 89/89/89 93/93/93 92/92/92
f 89/89/89 92/92/92 91/91/91
f 91/91/91 90/90/90 89/89/89
f 45/45/45 46/46/46 18/18/18
f 16/16/16 45/45/45 18/18/18
f 18/18/18 15/15/15 16/16/16
f 15/15/15 18/18/18 121/121/121
f 121/121/121 120/120/120 15/15/15
f 18/18/18 122/122/122 121/121/121
f 48/48/48 47/47/47 1/1/1
f 1/1/1 49/49/49 48/48/48
f 1/1/1 34/34/34 49/49/49
f 1/1/1 35/35/35 34/34/34
f 1/1/1 78/78/78 35/35/35
f 79/79/79 35/35/35 78/78/78
f 78/78/78 5/5/5 79/79/79
f 78/78/78 37/37/37 5/5/5
f 78/78/78 39/39/39 37/37/37
f 24/24/24 21/21/21 3/3/3
f 24/24/24 3/3/3 40/40/40
f 40/40/40 50/50/50 24/24/24
f 80/80/80 24/24/24 50/50/50
f 86/86/86 80/80/80 50/50/50
f 81/81/81 24/24/24 80/80/80
f 80/80/80 86/86/86 85/85/85
f 80/80/80 82/82/82 81/81/81
f 85/85/85 87/87/87 80/80/80
f 87/87/87 88/88/88 80/80/80
f 80/80/80 83/83/83 82/82/82
f 80/80/80 84/84/84 83/83/83
f 101/101/101 102/102/102 27/27/27
f 100/100/100 101/101/101 27/27/27
f 99/99/99 100/100/100 27/27/27
f 27/27/27 4/4/4 99/99/99
f 22/22/22 4/4/4 27/27/27
f 23/23/23 22/22/22 27/27/27
f 112/112/112 23/23/23 27/27/27
f 27/27/27 113/113/113 112/112/112
f 23/23/23 112/112/112 111/111/111
f 23/23/23 111/111/111 110/110/110
f 110/110/110 109/109/109 23/23/23
