g SM_Prop_Bookshelf_01
v -0.3845727 2.185104 0.1531665
v -0.3233545 2.185104 0.1895837
v -0.3844726 2.165 0.1895837
v -0.4356335 2.185104 0.1895837
v -0.3845727 2.185104 0.1531665
v -0.3844726 2.165 0.1895837
v -0.5380334 1.757857 -0.1584302
v 0.5380347 1.757857 -0.1584302
v 0.5380347 1.757857 0.1627783
v -0.5380334 1.757857 0.1627783
v 0.5380347 1.757857 0.1627783
v 0.5380347 1.716811 0.1627783
v -0.5380334 1.716811 0.1627783
v -0.5380334 1.757857 0.1627783
v 0.5380347 1.716811 0.1627783
v 0.5380347 1.716811 -0.1584302
v -0.5380334 1.716811 -0.1584302
v -0.5380334 1.716811 0.1627783
v -0.5380334 1.329857 -0.1584302
v 0.5380347 1.329857 -0.1584302
v 0.5380347 1.329857 0.1627783
v -0.5380334 1.329857 0.1627783
v 0.5380347 1.329857 0.1627783
v 0.5380347 1.288811 0.1627783
v -0.5380334 1.288811 0.1627783
v -0.5380334 1.329857 0.1627783
v 0.5380347 1.288811 0.1627783
v 0.5380347 1.288811 -0.1584302
v -0.5380334 1.288811 -0.1584302
v -0.5380334 1.288811 0.1627783
v -0.5380334 0.9018574 -0.1584302
v 0.5380347 0.9018574 -0.1584302
v 0.5380347 0.9018574 0.1627783
v -0.5380334 0.9018574 0.1627783
v 0.5380347 0.9018574 0.1627783
v 0.5380347 0.8608112 0.1627783
v -0.5380334 0.8608112 0.1627783
v -0.5380334 0.9018574 0.1627783
v 0.5380347 0.8608112 0.1627783
v 0.5380347 0.8608112 -0.1584302
v -0.5380334 0.8608112 -0.1584302
v -0.5380334 0.8608112 0.1627783
v -0.5380334 0.4738574 -0.1584302
v 0.5380347 0.4738574 -0.1584302
v 0.5380347 0.4738574 0.1627783
v -0.5380334 0.4738574 0.1627783
v 0.5380347 0.4738574 0.1627783
v 0.5380347 0.4328113 0.1627783
v -0.5380334 0.4328113 0.1627783
v -0.5380334 0.4738574 0.1627783
v 0.5380347 0.4328113 0.1627783
v 0.5380347 0.4328113 -0.1584302
v -0.5380334 0.4328113 -0.1584302
v -0.5380334 0.4328113 0.1627783
v -0.5753564 0 -0.1895837
v -0.5753564 2.185104 -0.1895837
v -0.5753564 2.185104 0.1895837
v -0.5753564 0 0.1895837
v 0.5753564 2.185104 -0.1895837
v 0.5753564 2.185104 0.1895837
v 0.440166 2.185104 0.1895837
v 0.2619922 2.185104 0.148855
v -0.264143 2.185104 -0.1574109
v -0.1285181 2.185104 -0.1895837
v -0.3845727 2.185104 0.1531665
v 0.02706177 2.185104 0.1895837
v -0.3233545 2.185104 0.1895837
v -0.5753564 2.185104 -0.1895837
v -0.4115576 2.185104 -0.1895837
v -0.4356335 2.185104 0.1895837
v -0.5753564 2.185104 0.1895837
v 0.5753564 2.185104 -0.1895837
v 0.5753564 0 -0.1895837
v 0.5753564 0 0.1895837
v 0.5753564 2.185104 0.1895837
v 0.5753564 0 -0.1895837
v -0.5753564 0 -0.1895837
v -0.5753564 0 0.1895837
v 0.5753564 0 0.1895837
v -0.5380347 0.04104614 -0.158429
v -0.5380347 2.144058 -0.158429
v 0.5380347 2.144058 -0.158429
v 0.5380347 0.04104614 -0.158429
v 0.5753564 0 -0.1895837
v 0.5753564 2.185104 -0.1895837
v -0.1285181 2.185104 -0.1895837
v -0.2582593 2.149069 -0.1895837
v -0.5753564 0 -0.1895837
v -0.5753564 2.185104 -0.1895837
v -0.4115576 2.185104 -0.1895837
v -0.5380347 0.04104614 0.1895837
v -0.5380347 0.04104614 -0.158429
v 0.5380347 0.04104614 -0.158429
v 0.5380347 0.04104614 0.1895837
v 0.5380347 0.04104614 0.1895837
v 0.5380347 0.04104614 -0.158429
v 0.5380347 2.144058 -0.158429
v 0.5380347 2.144058 0.1895837
v 0.5380347 2.144058 0.1895837
v 0.5380347 2.144058 -0.158429
v -0.5380347 2.144058 -0.158429
v -0.5380347 2.144058 0.1895837
v -0.5380347 2.144058 0.1895837
v -0.5380347 2.144058 -0.158429
v -0.5380347 0.04104614 -0.158429
v -0.5380347 0.04104614 0.1895837
v 0.2619922 2.185104 0.148855
v 0.440166 2.185104 0.1895837
v 0.2594739 2.158854 0.1895837
v 0.02706177 2.185104 0.1895837
v -0.264143 2.185104 -0.1574109
v -0.4115576 2.185104 -0.1895837
v -0.2582593 2.149069 -0.1895837
v -0.1285181 2.185104 -0.1895837
v -0.3844726 2.165 0.1895837
v -0.3233545 2.185104 0.1895837
v 0.02706177 2.185104 0.1895837
v 0.2594739 2.158854 0.1895837
v 0.5380347 2.144058 0.1895837
v 0.5753564 2.185104 0.1895837
v 0.440166 2.185104 0.1895837
v 0.5753564 0 0.1895837
v 0.5380347 0.04104614 0.1895837
v -0.5753564 0 0.1895837
v -0.5380347 0.04104614 0.1895837
v -0.5753564 2.185104 0.1895837
v -0.5380347 2.144058 0.1895837
v -0.4356335 2.185104 0.1895837
vt 0.003989574 0.3034834
vt 0.003989574 0.3034834
vt 0.003989574 0.3034834
vt 0.003989574 0.3034834
vt 0.003989574 0.3034834
vt 0.003989574 0.3034834
vt 0.003989633 0.3034834
vt 0.003989633 0.3034833
vt 0.003989574 0.3034833
vt 0.003989574 0.3034834
vt 0.003989574 0.3034834
vt 0.003989574 0.3034834
vt 0.003989574 0.3034834
vt 0.003989574 0.3034834
vt 0.003989574 0.3034834
vt 0.003989574 0.3034834
vt 0.003989574 0.3034834
vt 0.003989574 0.3034834
vt 0.003989633 0.3034834
vt 0.003989633 0.3034833
vt 0.003989574 0.3034833
vt 0.003989574 0.3034834
vt 0.003989574 0.3034834
vt 0.003989574 0.3034834
vt 0.003989574 0.3034834
vt 0.003989574 0.3034834
vt 0.003989574 0.3034834
vt 0.003989574 0.3034834
vt 0.003989574 0.3034834
vt 0.003989574 0.3034834
vt 0.003989633 0.3034834
vt 0.003989633 0.3034833
vt 0.003989574 0.3034833
vt 0.003989574 0.3034834
vt 0.003989574 0.3034834
vt 0.003989574 0.3034834
vt 0.003989574 0.3034834
vt 0.003989574 0.3034834
vt 0.003989574 0.3034834
vt 0.003989574 0.3034834
vt 0.003989574 0.3034834
vt 0.003989574 0.3034834
vt 0.003989633 0.3034834
vt 0.003989633 0.3034833
vt 0.003989574 0.3034833
vt 0.003989574 0.3034834
vt 0.003989574 0.3034834
vt 0.003989574 0.3034834
vt 0.003989574 0.3034834
vt 0.003989574 0.3034834
vt 0.003989574 0.3034834
vt 0.003989574 0.3034834
vt 0.003989574 0.3034834
vt 0.003989574 0.3034834
vt 0.003989633 0.3034833
vt 0.003989633 0.3034834
vt 0.003989574 0.3034834
vt 0.003989574 0.3034833
vt 0.003989633 0.3034833
vt 0.003989574 0.3034833
vt 0.003989574 0.3034833
vt 0.003989576 0.3034834
vt 0.00398963 0.3034834
vt 0.003989633 0.3034834
vt 0.003989576 0.3034834
vt 0.003989574 0.3034834
vt 0.003989574 0.3034834
vt 0.003989633 0.3034834
vt 0.003989633 0.3034834
vt 0.003989574 0.3034834
vt 0.003989574 0.3034834
vt 0.003989633 0.3034833
vt 0.003989633 0.3034833
vt 0.003989574 0.3034833
vt 0.003989574 0.3034833
vt 0.003989633 0.3034833
vt 0.003989633 0.3034833
vt 0.003989574 0.3034833
vt 0.003989574 0.3034833
vt 0.003989574 0.3034833
vt 0.003989574 0.3034834
vt 0.003989574 0.3034834
vt 0.003989574 0.3034833
vt 0.003989603 0.3034833
vt 0.003989603 0.3034834
vt 0.003989622 0.3034834
vt 0.003989625 0.3034834
vt 0.003989633 0.3034833
vt 0.003989633 0.3034834
vt 0.003989629 0.3034834
vt 0.003989574 0.3034833
vt 0.003989574 0.3034833
vt 0.003989574 0.3034833
vt 0.003989574 0.3034833
vt 0.003989574 0.3034833
vt 0.003989574 0.3034833
vt 0.003989574 0.3034834
vt 0.003989574 0.3034834
vt 0.003989574 0.3034834
vt 0.003989574 0.3034834
vt 0.003989574 0.3034834
vt 0.003989574 0.3034834
vt 0.003989574 0.3034834
vt 0.003989574 0.3034834
vt 0.003989574 0.3034833
vt 0.003989574 0.3034833
vt 0.003989574 0.3034834
vt 0.003989574 0.3034834
vt 0.003989574 0.3034834
vt 0.003989574 0.3034834
vt 0.003989625 0.3034834
vt 0.003989629 0.3034834
vt 0.003989625 0.3034834
vt 0.003989622 0.3034834
vt 0.003989574 0.3034834
vt 0.003989574 0.3034834
vt 0.003989574 0.3034834
vt 0.003989574 0.3034834
vt 0.003989574 0.3034834
vt 0.003989574 0.3034834
vt 0.003989574 0.3034834
vt 0.003989574 0.3034833
vt 0.003989574 0.3034833
vt 0.003989574 0.3034833
vt 0.003989574 0.3034833
vt 0.003989574 0.3034834
vt 0.003989574 0.3034834
vt 0.003989574 0.3034834
vn -0.2766337 0.8409655 0.4650278
vn -0.2766337 0.8409655 0.4650278
vn -0.2766337 0.8409655 0.4650278
vn 0.325446 0.8281707 0.4563094
vn 0.325446 0.8281707 0.4563094
vn 0.325446 0.8281707 0.4563094
vn 0 1 0
vn 0 1 0
vn 0 1 0
vn 0 1 0
vn 0 0 1
vn 0 0 1
vn 0 0 1
vn 0 0 1
vn 0 -1 0
vn 0 -1 0
vn 0 -1 0
vn 0 -1 0
vn 0 1 0
vn 0 1 0
vn 0 1 0
vn 0 1 0
vn 0 0 1
vn 0 0 1
vn 0 0 1
vn 0 0 1
vn 0 -1 0
vn 0 -1 0
vn 0 -1 0
vn 0 -1 0
vn 0 1 0
vn 0 1 0
vn 0 1 0
vn 0 1 0
vn 0 0 1
vn 0 0 1
vn 0 0 1
vn 0 0 1
vn 0 -1 0
vn 0 -1 0
vn 0 -1 0
vn 0 -1 0
vn 0 1 0
vn 0 1 0
vn 0 1 0
vn 0 1 0
vn 0 0 1
vn 0 0 1
vn 0 0 1
vn 0 0 1
vn 0 -1 0
vn 0 -1 0
vn 0 -1 0
vn 0 -1 0
vn -1 0 0
vn -1 0 0
vn -1 0 0
vn -1 0 0
vn 0 1 0
vn 0 1 0
vn 0 1 0
vn 0 1 0
vn 0 1 0
vn 0 1 0
vn 0 1 0
vn 0 1 0
vn 0 1 0
vn 0 1 0
vn 0 1 0
vn 0 1 0
vn 0 1 0
vn 1 0 0
vn 1 0 0
vn 1 0 0
vn 1 0 0
vn 0 -1 0
vn 0 -1 0
vn 0 -1 0
vn 0 -1 0
vn 0 0 1
vn 0 0 1
vn 0 0 1
vn 0 0 1
vn 0 0 -1
vn 0 0 -1
vn 0 0 -1
vn 0 0 -1
vn 0 0 -1
vn 0 0 -1
vn 0 0 -1
vn 0 1 0
vn 0 1 0
vn 0 1 0
vn 0 1 0
vn -1 0 0
vn -1 0 0
vn -1 0 0
vn -1 0 0
vn 0 -1 0
vn 0 -1 0
vn 0 -1 0
vn 0 -1 0
vn 1 0 0
vn 1 0 0
vn 1 0 0
vn 1 0 0
vn -0.01382326 0.8408569 0.5410809
vn -0.1216974 0.8377101 0.5323829
vn -0.01382326 0.8408569 0.5410809
vn 0.09421293 0.8341468 0.5434362
vn -0.009935425 0.6650574 -0.7467262
vn 0.1579337 0.6718593 -0.7236449
vn -0.009935425 0.6650574 -0.7467262
vn -0.1775188 0.6391289 -0.7483323
vn 0 0 1
vn 0 0 1
vn 0 0 1
vn 0 0 1
vn 0 0 1
vn 0 0 1
vn 0 0 1
vn 0 0 1
vn 0 0 1
vn 0 0 1
vn 0 0 1
vn 0 0 1
vn 0 0 1
vn 0 0 1
g SM_Prop_Bookshelf_01_0
f 3/3/3 2/2/2 1/1/1
f 6/6/6 5/5/5 4/4/4
f 9/9/9 8/8/8 7/7/7
f 10/10/10 9/9/9 7/7/7
f 13/13/13 12/12/12 11/11/11
f 14/14/14 13/13/13 11/11/11
f 17/17/17 16/16/16 15/15/15
f 18/18/18 17/17/17 15/15/15
f 21/21/21 20/20/20 19/19/19
f 22/22/22 21/21/21 19/19/19
f 25/25/25 24/24/24 23/23/23
f 26/26/26 25/25/25 23/23/23
f 29/29/29 28/28/28 27/27/27
f 30/30/30 29/29/29 27/27/27
f 33/33/33 32/32/32 31/31/31
f 34/34/34 33/33/33 31/31/31
f 37/37/37 36/36/36 35/35/35
f 38/38/38 37/37/37 35/35/35
f 41/41/41 40/40/40 39/39/39
f 42/42/42 41/41/41 39/39/39
f 45/45/45 44/44/44 43/43/43
f 46/46/46 45/45/45 43/43/43
f 49/49/49 48/48/48 47/47/47
f 50/50/50 49/49/49 47/47/47
f 53/53/53 52/52/52 51/51/51
f 54/54/54 53/53/53 51/51/51
f 57/57/57 56/56/56 55/55/55
f 58/58/58 57/57/57 55/55/55
f 61/61/61 60/60/60 59/59/59
f 62/62/62 61/61/61 59/59/59
f 62/62/62 59/59/59 63/63/63
f 59/59/59 64/64/64 63/63/63
f 62/62/62 63/63/63 65/65/65
f 65/65/65 66/66/66 62/62/62
f 65/65/65 67/67/67 66/66/66
f 65/65/65 63/63/63 68/68/68
f 63/63/63 69/69/69 68/68/68
f 70/70/70 65/65/65 68/68/68
f 71/71/71 70/70/70 68/68/68
f 74/74/74 73/73/73 72/72/72
f 75/75/75 74/74/74 72/72/72
f 78/78/78 77/77/77 76/76/76
f 79/79/79 78/78/78 76/76/76
f 82/82/82 81/81/81 80/80/80
f 83/83/83 82/82/82 80/80/80
f 86/86/86 85/85/85 84/84/84
f 87/87/87 86/86/86 84/84/84
f 88/88/88 87/87/87 84/84/84
f 88/88/88 89/89/89 87/87/87
f 89/89/89 90/90/90 87/87/87
f 93/93/93 92/92/92 91/91/91
f 94/94/94 93/93/93 91/91/91
f 97/97/97 96/96/96 95/95/95
f 98/98/98 97/97/97 95/95/95
f 101/101/101 100/100/100 99/99/99
f 102/102/102 101/101/101 99/99/99
f 105/105/105 104/104/104 103/103/103
f 106/106/106 105/105/105 103/103/103
f 109/109/109 108/108/108 107/107/107
f 109/109/109 107/107/107 110/110/110
f 113/113/113 112/112/112 111/111/111
f 113/113/113 111/111/111 114/114/114
f 117/117/117 116/116/116 115/115/115
f 118/118/118 117/117/117 115/115/115
f 118/118/118 115/115/115 119/119/119
f 118/118/118 119/119/119 120/120/120
f 121/121/121 118/118/118 120/120/120
f 120/120/120 119/119/119 122/122/122
f 119/119/119 123/123/123 122/122/122
f 122/122/122 123/123/123 124/124/124
f 123/123/123 125/125/125 124/124/124
f 124/124/124 125/125/125 126/126/126
f 115/115/115 127/127/127 119/119/119
f 125/125/125 127/127/127 126/126/126
f 115/115/115 128/128/128 127/127/127
f 128/128/128 126/126/126 127/127/127
