g SM_Prop_Pot_01
v 0.08014892 -0.01178174 0
v 0.1020648 -0.01178174 0
v 0.07217102 -0.01178174 -0.07217102
v 0.05667358 -0.01178174 -0.05667358
v 0 -0.01178174 -0.1020651
v 0 -0.01178174 -0.08014832
v -0.07217041 -0.01178174 -0.07217102
v -0.05667358 -0.01178174 -0.05667358
v -0.1020648 -0.01178174 0
v -0.08014892 -0.01178174 0
v -0.07217041 -0.01178174 0.07217132
v -0.05667358 -0.01178174 0.05667389
v 0.05049805 -0.002124769 -0.05049805
v 0 -0.002124769 -0.0714151
v 0 -0.002124769 0
v 0.0714154 -0.002124769 0
v 0.08014892 -0.01178174 0
v -0.05049805 -0.002124769 -0.05049805
v -0.0714154 -0.002124769 0
v -0.05049805 -0.002124769 0.05049835
v 0 -0.01178174 0.08014862
v 0.05049805 -0.002124769 0.05049835
v 0 -0.002124769 0.0714154
v 0.05667358 -0.01178174 0.05667389
v 0.1020648 -0.01178174 0
v 0.07217102 -0.01178174 0.07217132
v 0 -0.01178174 0.1020654
v -0.05667358 -0.01178174 0.05667389
v -0.07217041 -0.01178174 0.07217132
v 0 -0.01178174 0.08014862
v 0.1020648 -0.01178174 0
v 0.08752319 0.1899882 0.0875235
v 0.1237769 0.1899882 0
v 0.07217102 -0.01178174 0.07217132
v 0 0.1899882 0.1237772
v 0 -0.01178174 0.1020654
v -0.08752319 0.1899882 0.0875235
v -0.07217041 -0.01178174 0.07217132
v -0.1237769 0.1899882 0
v -0.1020648 -0.01178174 0
v 0.05911865 0.009391937 -0.05911865
v 0.1013916 0.1973641 0
v 0.08360656 0.009391937 0
v 0.07169495 0.1973641 -0.07169464
v 0.1195251 0.2587062 0
v 0 0.009391937 -0.08360626
v 0.08451721 0.2587062 -0.08451691
v 0 0.1973641 -0.1013916
v -0.05911865 0.009391937 -0.05911865
v 0 0.2587062 -0.1195251
v -0.07169495 0.1973641 -0.07169464
v -0.08360656 0.009391937 0
v -0.0845166 0.2587062 -0.08451691
v -0.1013916 0.1973641 0
v -0.1195245 0.2587062 0
v -0.05911865 0.009391937 0.05911896
v -0.07169495 0.1973641 0.07169464
v 0.07217102 -0.01178174 -0.07217102
v 0.1020648 -0.01178174 0
v 0.1237769 0.1899882 0
v 0.08752319 0.1899882 -0.08752319
v 0 -0.01178174 -0.1020651
v 0 0.1899882 -0.1237769
v -0.07217041 -0.01178174 -0.07217102
v -0.08752319 0.1899882 -0.08752319
v -0.1020648 -0.01178174 0
v -0.1237769 0.1899882 0
v 0 0.009391937 0.08360656
v -0.07169495 0.1973641 0.07169464
v -0.05911865 0.009391937 0.05911896
v 0 0.1973641 0.1013919
v -0.08451721 0.2587062 0.08451691
v -0.1195245 0.2587062 0
v -0.1013916 0.1973641 0
v 0 0.2587062 0.1195254
v 0.07169495 0.1973641 0.07169464
v 0.08451721 0.2587062 0.08451691
v 0.05911865 0.009391937 0.05911896
v 0 0.009391937 0.08360656
v 0.08360656 0.009391937 0
v 0.1013916 0.1973641 0
v 0.1195251 0.2587062 0
v 0.09680847 0.1949046 0.09680878
v 0.144505 0.2591718 0
v 0.136908 0.1949046 0
v 0.1021802 0.2591718 0.1021805
v 0 0.1949046 0.1369083
v 0 0.2591718 0.1445053
v -0.09680847 0.1949046 0.09680878
v -0.1021808 0.2591718 0.1021805
v -0.136908 0.1949046 0
v -0.144505 0.2591718 0
v 0.136908 0.1949046 0
v 0.144505 0.2591718 0
v 0.1021802 0.2591718 -0.1021802
v 0.09680847 0.1949046 -0.09680847
v 0 0.2591718 -0.144505
v 0 0.1949046 -0.136908
v -0.1021802 0.2591718 -0.1021802
v -0.09680847 0.1949046 -0.09680847
v -0.144505 0.2591718 0
v -0.136908 0.1949046 0
v 0.05911865 0.009391937 0.05911896
v 0 0.01069614 0
v 0.08360656 0.009391937 0
v 0 0.009391937 0.08360656
v 0.05911865 0.009391937 -0.05911865
v -0.05911865 0.009391937 0.05911896
v 0 0.009391937 -0.08360626
v -0.08360656 0.009391937 0
v -0.05911865 0.009391937 -0.05911865
v 0.08752319 0.1899882 0.0875235
v 0.09680847 0.1949046 0.09680878
v 0.136908 0.1949046 0
v 0.1237769 0.1899882 0
v 0 0.1899882 0.1237772
v 0.09680847 0.1949046 -0.09680847
v 0 0.1949046 0.1369083
v 0.08752319 0.1899882 -0.08752319
v -0.08752319 0.1899882 0.0875235
v 0 0.1949046 -0.136908
v -0.09680847 0.1949046 0.09680878
v 0 0.1899882 -0.1237769
v -0.1237769 0.1899882 0
v -0.09680847 0.1949046 -0.09680847
v -0.136908 0.1949046 0
v -0.08752319 0.1899882 -0.08752319
v 0.1195251 0.2587062 0
v 0.144505 0.2591718 0
v 0.1021802 0.2591718 0.1021805
v 0.08451721 0.2587062 0.08451691
v 0.08451721 0.2587062 -0.08451691
v 0 0.2591718 0.1445053
v 0.1021802 0.2591718 -0.1021802
v 0 0.2587062 0.1195254
v 0 0.2587062 -0.1195251
v -0.1021808 0.2591718 0.1021805
v 0 0.2591718 -0.144505
v -0.08451721 0.2587062 0.08451691
v -0.0845166 0.2587062 -0.08451691
v -0.144505 0.2591718 0
v -0.1021802 0.2591718 -0.1021802
v -0.1195245 0.2587062 0
vt 0.1574061 0.4714034
vt 0.1574061 0.4714034
vt 0.1574059 0.4714034
vt 0.1574059 0.4714034
vt 0.1574059 0.4714034
vt 0.1574059 0.4714034
vt 0.1574059 0.4714034
vt 0.1574059 0.4714034
vt 0.1574061 0.4714034
vt 0.1574061 0.4714034
vt 0.1574059 0.4714034
vt 0.1574063 0.4714034
vt 0.1574059 0.4714034
vt 0.1574059 0.4714034
vt 0.1574061 0.4714034
vt 0.1574061 0.4714034
vt 0.1574061 0.4714034
vt 0.1574059 0.4714034
vt 0.1574061 0.4714034
vt 0.1574063 0.4714034
vt 0.1574059 0.4714034
vt 0.1574063 0.4714034
vt 0.1574059 0.4714034
vt 0.1574063 0.4714034
vt 0.1574061 0.4714034
vt 0.1574059 0.4714034
vt 0.1574059 0.4714034
vt 0.1574063 0.4714034
vt 0.1574059 0.4714034
vt 0.1574059 0.4714034
vt 0.1574061 0.4714034
vt 0.1574059 0.4714031
vt 0.1574061 0.4714031
vt 0.1574059 0.4714034
vt 0.1574059 0.4714031
vt 0.1574059 0.4714034
vt 0.1574059 0.4714031
vt 0.1574059 0.4714034
vt 0.1574061 0.4714031
vt 0.1574061 0.4714034
vt 0.1574059 0.4714034
vt 0.1574061 0.4714031
vt 0.1574061 0.4714034
vt 0.1574059 0.4714031
vt 0.1574061 0.4714012
vt 0.1574059 0.4714034
vt 0.1574059 0.4714012
vt 0.1574059 0.4714031
vt 0.1574059 0.4714034
vt 0.1574059 0.4714012
vt 0.1574059 0.4714031
vt 0.1574061 0.4714034
vt 0.1574059 0.4714012
vt 0.1574061 0.4714031
vt 0.1574061 0.4714012
vt 0.1574063 0.4714034
vt 0.1574059 0.4714031
vt 0.1574059 0.4714034
vt 0.1574061 0.4714034
vt 0.1574061 0.4714031
vt 0.1574059 0.4714031
vt 0.1574059 0.4714034
vt 0.1574059 0.4714031
vt 0.1574059 0.4714034
vt 0.1574059 0.4714031
vt 0.1574061 0.4714034
vt 0.1574061 0.4714031
vt 0.1574059 0.4714034
vt 0.1574059 0.4714031
vt 0.1574063 0.4714034
vt 0.1574059 0.4714031
vt 0.1574059 0.4714012
vt 0.1574061 0.4714012
vt 0.1574061 0.4714031
vt 0.1574059 0.4714012
vt 0.1574059 0.4714031
vt 0.1574059 0.4714012
vt 0.1574063 0.4714034
vt 0.1574059 0.4714034
vt 0.1574061 0.4714034
vt 0.1574061 0.4714031
vt 0.1574061 0.4714012
vt 0.1574059 0.4714031
vt 0.1574061 0.4714012
vt 0.1574061 0.4714031
vt 0.1574059 0.4714012
vt 0.1574059 0.4714031
vt 0.1574059 0.4714012
vt 0.1574059 0.4714031
vt 0.1574059 0.4714012
vt 0.1574061 0.4714031
vt 0.1574061 0.4714012
vt 0.1574061 0.4714031
vt 0.1574061 0.4714012
vt 0.1574059 0.4714012
vt 0.1574059 0.4714031
vt 0.1574059 0.4714012
vt 0.1574059 0.4714031
vt 0.1574059 0.4714012
vt 0.1574059 0.4714031
vt 0.1574061 0.4714012
vt 0.1574061 0.4714031
vt 0.1574063 0.4714034
vt 0.1574061 0.4714034
vt 0.1574061 0.4714034
vt 0.1574059 0.4714034
vt 0.1574059 0.4714034
vt 0.1574063 0.4714034
vt 0.1574059 0.4714034
vt 0.1574061 0.4714034
vt 0.1574059 0.4714034
vt 0.1574059 0.4714031
vt 0.1574059 0.4714031
vt 0.1574061 0.4714031
vt 0.1574061 0.4714031
vt 0.1574059 0.4714031
vt 0.1574059 0.4714031
vt 0.1574059 0.4714031
vt 0.1574059 0.4714031
vt 0.1574059 0.4714031
vt 0.1574059 0.4714031
vt 0.1574059 0.4714031
vt 0.1574059 0.4714031
vt 0.1574061 0.4714031
vt 0.1574059 0.4714031
vt 0.1574061 0.4714031
vt 0.1574059 0.4714031
vt 0.2180929 0.488284
vt 0.2180929 0.488284
vt 0.2180926 0.488284
vt 0.2180926 0.488284
vt 0.2180926 0.488284
vt 0.2180926 0.488284
vt 0.2180926 0.488284
vt 0.2180926 0.488284
vt 0.2180926 0.488284
vt 0.2180926 0.488284
vt 0.2180926 0.488284
vt 0.2180926 0.488284
vt 0.2180926 0.488284
vt 0.2180929 0.488284
vt 0.2180926 0.488284
vt 0.2180929 0.488284
vn -0.3965694 -0.9180048 0
vn 0 -1 0
vn 0 -1 0
vn -0.2804176 -0.9180034 0.2804204
vn 0 -1 0
vn 0 -0.9180026 0.3965741
vn 0 -1 0
vn 0.2804176 -0.9180034 0.2804204
vn 0 -1 0
vn 0.3965694 -0.9180048 0
vn 0 -1 0
vn 0.2804178 -0.9180036 -0.2804201
vn -0.2804176 -0.9180034 0.2804204
vn 0 -0.9180026 0.3965741
vn 0 -1 0
vn -0.3965694 -0.9180048 0
vn -0.3965694 -0.9180048 0
vn 0.2804176 -0.9180034 0.2804204
vn 0.3965694 -0.9180048 0
vn 0.2804178 -0.9180036 -0.2804201
vn 0 -0.9180026 -0.3965741
vn -0.2804178 -0.9180036 -0.2804201
vn 0 -0.9180026 -0.3965741
vn -0.2804178 -0.9180036 -0.2804201
vn 0 -1 0
vn 0 -1 0
vn 0 -1 0
vn 0.2804178 -0.9180036 -0.2804201
vn 0 -1 0
vn 0 -0.9180026 -0.3965741
vn 0.9942603 -0.1069883 0
vn 0.7030492 -0.1069879 0.7030471
vn 0.9942603 -0.1069883 0
vn 0.7030492 -0.1069879 0.7030471
vn 0 -0.1069879 0.9942603
vn 0 -0.1069879 0.9942603
vn -0.7030485 -0.1069889 0.7030477
vn -0.7030485 -0.1069889 0.7030477
vn -0.9942601 -0.1069899 0
vn -0.9942601 -0.1069899 0
vn -0.7039625 0.09419581 0.703963
vn -0.9817891 0.1899745 0
vn -0.9955537 0.09419541 0
vn -0.6942298 0.1899748 0.6942295
vn -0.9589766 0.2834854 0
vn 0 0.09419589 0.9955537
vn -0.6780994 0.2834857 0.6780981
vn 0 0.1899744 0.9817891
vn 0.7039625 0.09419581 0.703963
vn 0 0.2834848 0.9589767
vn 0.6942306 0.189972 0.6942294
vn 0.9955537 0.09419541 0
vn 0.6781012 0.2834803 0.6780985
vn 0.9817896 0.189971 0
vn 0.9589785 0.2834787 0
vn 0.7039636 0.09419522 -0.7039621
vn 0.6942317 0.1899734 -0.6942279
vn 0.7030488 -0.1069879 -0.7030477
vn 0.9942603 -0.1069883 0
vn 0.9942603 -0.1069883 0
vn 0.7030488 -0.1069879 -0.7030477
vn 0 -0.1069879 -0.9942603
vn 0 -0.1069879 -0.9942603
vn -0.703048 -0.1069888 -0.7030482
vn -0.703048 -0.1069888 -0.7030482
vn -0.9942601 -0.1069899 0
vn -0.9942601 -0.1069899 0
vn 0 0.09419517 -0.9955538
vn 0.6942317 0.1899734 -0.6942279
vn 0.7039636 0.09419522 -0.7039621
vn 0 0.1899746 -0.9817891
vn 0.6781023 0.2834835 -0.6780961
vn 0.9589785 0.2834787 0
vn 0.9817896 0.189971 0
vn 0 0.283486 -0.9589764
vn -0.6942309 0.1899745 -0.6942285
vn -0.6781006 0.2834856 -0.678097
vn -0.7039636 0.09419522 -0.7039621
vn 0 0.09419517 -0.9955538
vn -0.9955537 0.09419541 0
vn -0.9817891 0.1899745 0
vn -0.9589766 0.2834854 0
vn 0.7022181 -0.1173906 0.7022173
vn 0.9930859 -0.1173907 0
vn 0.9930859 -0.1173907 0
vn 0.7022181 -0.1173906 0.7022173
vn 0 -0.1173917 0.9930857
vn 0 -0.1173917 0.9930857
vn -0.7022183 -0.117394 0.7022166
vn -0.7022183 -0.117394 0.7022166
vn -0.9930855 -0.117393 0
vn -0.9930855 -0.117393 0
vn 0.9930859 -0.1173907 0
vn 0.9930859 -0.1173907 0
vn 0.7022177 -0.1173906 -0.7022177
vn 0.7022177 -0.1173906 -0.7022177
vn 0 -0.1173908 -0.9930859
vn 0 -0.1173908 -0.9930859
vn -0.7022177 -0.1173906 -0.7022177
vn -0.7022177 -0.1173906 -0.7022177
vn -0.9930855 -0.117393 0
vn -0.9930855 -0.117393 0
vn 0.01102897 0.9998784 0.01102899
vn 0 1 0
vn 0.01559735 0.9998784 0
vn 0 0.9998784 0.01559735
vn 0.01102898 0.9998784 -0.01102904
vn -0.01102897 0.9998784 0.01102899
vn 0 0.9998784 -0.0155974
vn -0.01559735 0.9998784 0
vn -0.01102898 0.9998784 -0.01102904
vn 0.2479375 -0.9365117 0.2479372
vn 0.2479375 -0.9365117 0.2479372
vn 0.3506359 -0.9365118 0
vn 0.3506359 -0.9365118 0
vn 0 -0.9365119 0.3506359
vn 0.2479374 -0.9365116 -0.2479374
vn 0 -0.9365119 0.3506359
vn 0.2479374 -0.9365116 -0.2479374
vn -0.2479375 -0.9365117 0.2479372
vn 0 -0.9365119 -0.3506359
vn -0.2479375 -0.9365117 0.2479372
vn 0 -0.9365119 -0.3506359
vn -0.3506359 -0.9365118 0
vn -0.2479374 -0.9365116 -0.2479374
vn -0.3506359 -0.9365118 0
vn -0.2479374 -0.9365116 -0.2479374
vn -0.01863759 0.9998264 0
vn -0.01863759 0.9998264 0
vn -0.01317876 0.9998264 -0.01317868
vn -0.01317876 0.9998264 -0.01317868
vn -0.01317879 0.9998264 0.01317876
vn 0 0.9998264 -0.01863737
vn -0.01317879 0.9998264 0.01317876
vn 0 0.9998264 -0.01863737
vn 0 0.9998264 0.01863748
vn 0.01317852 0.9998264 -0.01317849
vn 0 0.9998264 0.01863748
vn 0.01317852 0.9998264 -0.01317849
vn 0.01317855 0.9998264 0.01317861
vn 0.01863715 0.9998264 0
vn 0.01317855 0.9998264 0.01317861
vn 0.01863715 0.9998264 0
g SM_Prop_Pot_01_0
f 3/3/3 2/2/2 1/1/1
f 4/4/4 3/3/3 1/1/1
f 5/5/5 3/3/3 4/4/4
f 6/6/6 5/5/5 4/4/4
f 7/7/7 5/5/5 6/6/6
f 8/8/8 7/7/7 6/6/6
f 9/9/9 7/7/7 8/8/8
f 10/10/10 9/9/9 8/8/8
f 11/11/11 9/9/9 10/10/10
f 12/12/12 11/11/11 10/10/10
f 4/4/4 13/13/13 6/6/6
f 6/6/6 14/14/14 8/8/8
f 13/13/13 14/14/14 6/6/6
f 13/13/13 15/15/15 14/14/14
f 16/16/16 13/13/13 4/4/4
f 16/16/16 15/15/15 13/13/13
f 17/17/17 16/16/16 4/4/4
f 14/14/14 18/18/18 8/8/8
f 8/8/8 18/18/18 10/10/10
f 14/14/14 15/15/15 18/18/18
f 18/18/18 19/19/19 10/10/10
f 10/10/10 19/19/19 12/12/12
f 18/18/18 15/15/15 19/19/19
f 19/19/19 20/20/20 12/12/12
f 19/19/19 15/15/15 20/20/20
f 12/12/12 20/20/20 21/21/21
f 22/22/22 15/15/15 16/16/16
f 22/22/22 16/16/16 17/17/17
f 20/20/20 15/15/15 23/23/23
f 23/23/23 15/15/15 22/22/22
f 20/20/20 23/23/23 21/21/21
f 24/24/24 22/22/22 17/17/17
f 23/23/23 22/22/22 24/24/24
f 21/21/21 23/23/23 24/24/24
f 17/17/17 25/25/25 24/24/24
f 25/25/25 26/26/26 24/24/24
f 24/24/24 26/26/26 21/21/21
f 26/26/26 27/27/27 21/21/21
f 27/27/27 29/29/29 28/28/28
f 30/30/30 27/27/27 28/28/28
f 33/33/33 32/32/32 31/31/31
f 32/32/32 34/34/34 31/31/31
f 32/32/32 35/35/35 34/34/34
f 35/35/35 36/36/36 34/34/34
f 35/35/35 37/37/37 36/36/36
f 37/37/37 38/38/38 36/36/36
f 37/37/37 39/39/39 38/38/38
f 39/39/39 40/40/40 38/38/38
f 43/43/43 42/42/42 41/41/41
f 42/42/42 44/44/44 41/41/41
f 42/42/42 45/45/45 44/44/44
f 41/41/41 44/44/44 46/46/46
f 45/45/45 47/47/47 44/44/44
f 44/44/44 48/48/48 46/46/46
f 44/44/44 47/47/47 48/48/48
f 46/46/46 48/48/48 49/49/49
f 47/47/47 50/50/50 48/48/48
f 48/48/48 51/51/51 49/49/49
f 48/48/48 50/50/50 51/51/51
f 49/49/49 51/51/51 52/52/52
f 50/50/50 53/53/53 51/51/51
f 51/51/51 54/54/54 52/52/52
f 51/51/51 53/53/53 54/54/54
f 53/53/53 55/55/55 54/54/54
f 52/52/52 54/54/54 56/56/56
f 54/54/54 57/57/57 56/56/56
f 60/60/60 59/59/59 58/58/58
f 61/61/61 60/60/60 58/58/58
f 61/61/61 58/58/58 62/62/62
f 63/63/63 61/61/61 62/62/62
f 63/63/63 62/62/62 64/64/64
f 65/65/65 63/63/63 64/64/64
f 65/65/65 64/64/64 66/66/66
f 67/67/67 65/65/65 66/66/66
f 70/70/70 69/69/69 68/68/68
f 69/69/69 71/71/71 68/68/68
f 69/69/69 72/72/72 71/71/71
f 73/73/73 72/72/72 69/69/69
f 74/74/74 73/73/73 69/69/69
f 72/72/72 75/75/75 71/71/71
f 71/71/71 75/75/75 76/76/76
f 75/75/75 77/77/77 76/76/76
f 71/71/71 76/76/76 78/78/78
f 79/79/79 71/71/71 78/78/78
f 78/78/78 76/76/76 80/80/80
f 76/76/76 81/81/81 80/80/80
f 76/76/76 77/77/77 81/81/81
f 77/77/77 82/82/82 81/81/81
f 85/85/85 84/84/84 83/83/83
f 84/84/84 86/86/86 83/83/83
f 83/83/83 86/86/86 87/87/87
f 86/86/86 88/88/88 87/87/87
f 87/87/87 88/88/88 89/89/89
f 88/88/88 90/90/90 89/89/89
f 89/89/89 90/90/90 91/91/91
f 90/90/90 92/92/92 91/91/91
f 95/95/95 94/94/94 93/93/93
f 96/96/96 95/95/95 93/93/93
f 97/97/97 95/95/95 96/96/96
f 98/98/98 97/97/97 96/96/96
f 99/99/99 97/97/97 98/98/98
f 100/100/100 99/99/99 98/98/98
f 101/101/101 99/99/99 100/100/100
f 102/102/102 101/101/101 100/100/100
f 105/105/105 104/104/104 103/103/103
f 103/103/103 104/104/104 106/106/106
f 107/107/107 104/104/104 105/105/105
f 106/106/106 104/104/104 108/108/108
f 109/109/109 104/104/104 107/107/107
f 108/108/108 104/104/104 110/110/110
f 111/111/111 104/104/104 109/109/109
f 110/110/110 104/104/104 111/111/111
f 114/114/114 113/113/113 112/112/112
f 115/115/115 114/114/114 112/112/112
f 112/112/112 113/113/113 116/116/116
f 117/117/117 114/114/114 115/115/115
f 113/113/113 118/118/118 116/116/116
f 119/119/119 117/117/117 115/115/115
f 116/116/116 118/118/118 120/120/120
f 121/121/121 117/117/117 119/119/119
f 118/118/118 122/122/122 120/120/120
f 123/123/123 121/121/121 119/119/119
f 120/120/120 122/122/122 124/124/124
f 125/125/125 121/121/121 123/123/123
f 122/122/122 126/126/126 124/124/124
f 127/127/127 125/125/125 123/123/123
f 124/124/124 126/126/126 127/127/127
f 126/126/126 125/125/125 127/127/127
f 130/130/130 129/129/129 128/128/128
f 131/131/131 130/130/130 128/128/128
f 128/128/128 129/129/129 132/132/132
f 133/133/133 130/130/130 131/131/131
f 129/129/129 134/134/134 132/132/132
f 135/135/135 133/133/133 131/131/131
f 132/132/132 134/134/134 136/136/136
f 137/137/137 133/133/133 135/135/135
f 134/134/134 138/138/138 136/136/136
f 139/139/139 137/137/137 135/135/135
f 136/136/136 138/138/138 140/140/140
f 141/141/141 137/137/137 139/139/139
f 138/138/138 142/142/142 140/140/140
f 143/143/143 141/141/141 139/139/139
f 140/140/140 142/142/142 143/143/143
f 142/142/142 141/141/141 143/143/143
