g SM_Prop_Cabinet_Stackable_02_Door_1
v 0.6011114 0.53047 0.04470393
v 0.6011114 0.3413567 0.04470393
v 0.6463762 0.3413567 0.04470393
v 0.6463762 0.53047 0.04470393
v 0.6021352 0.5286339 0.07255835
v 0.6021352 0.3431928 0.07255835
v 0.6453523 0.3431928 0.07255835
v 0.6453523 0.5286339 0.07255835
v 0.7046738 0.663655 6.179779E-08
v -2.327067E-08 0.663655 6.179779E-08
v -2.327067E-08 0.663655 0.04825804
v 0.7046738 -4.405365E-15 0.04825804
v 0.7046738 -4.405365E-15 6.179779E-08
v 0.6645752 0.663655 0.04825804
v 0.7046738 0.663655 0.02334929
v 0.7046738 0.543655 0.04825804
v 0.00950315 0.009999008 6.179779E-08
v 0.0190064 -4.405365E-15 6.179779E-08
v -2.327067E-08 0.01999802 6.179779E-08
v 0.0190064 -4.405365E-15 0.02413145
v 0.05276838 -4.405365E-15 0.04825804
v -2.327067E-08 0.01999802 0.02413145
v -2.327067E-08 0.05552147 0.04825804
v 0.3453389 0.663655 6.179779E-08
v 0.5131148 0.4449286 6.179779E-08
v 0.5131148 0.4449286 6.179779E-08
v 0.6011114 0.53047 0.04470393
v 0.6021352 0.5286339 0.07255835
v 0.6021352 0.3431928 0.07255835
v 0.6011114 0.3413567 0.04470393
v 0.6011114 0.3413567 0.04470393
v 0.6021352 0.3431928 0.07255835
v 0.6453523 0.3431928 0.07255835
v 0.6463762 0.3413567 0.04470393
v 0.6463762 0.3413567 0.04470393
v 0.6453523 0.3431928 0.07255835
v 0.6453523 0.5286339 0.07255835
v 0.6463762 0.53047 0.04470393
v 0.6463762 0.53047 0.04470393
v 0.6453523 0.5286339 0.07255835
v 0.6021352 0.5286339 0.07255835
v 0.6011114 0.53047 0.04470393
v -2.327067E-08 0.663655 6.179779E-08
v 0.6645752 0.663655 0.04825804
v 0.7046738 0.543655 0.04825804
v -2.327067E-08 0.663655 0.04825804
v -2.327067E-08 0.05552147 0.04825804
v 0.5131148 0.4449286 6.179779E-08
v 0.5131148 0.4449286 6.179779E-08
v 0.00950315 0.009999008 6.179779E-08
v -2.327067E-08 0.01999802 6.179779E-08
v -2.327067E-08 0.01999802 6.179779E-08
v -2.327067E-08 0.01999802 0.02413145
v 0.00950315 0.009999008 6.179779E-08
v -2.327067E-08 0.01999802 6.179779E-08
v 0.0190064 -4.405365E-15 6.179779E-08
v 0.0190064 -4.405365E-15 0.02413145
v -2.327067E-08 0.01999802 0.02413145
v -2.327067E-08 0.05552147 0.04825804
v 0.05276838 -4.405365E-15 0.04825804
v 0.7046738 0.663655 6.179779E-08
v 0.7046738 -4.405365E-15 6.179779E-08
v 0.7046738 -4.405365E-15 0.04825804
v 0.7046738 0.543655 0.04825804
v 0.7046738 0.663655 0.02334929
v 0.7046738 -4.405365E-15 0.04825804
v 0.7046738 -4.405365E-15 6.179779E-08
v 0.0190064 -4.405365E-15 6.179779E-08
v 0.0190064 -4.405365E-15 0.02413145
v 0.05276838 -4.405365E-15 0.04825804
v -2.327067E-08 0.663655 0.04825804
v -2.327067E-08 0.663655 6.179779E-08
v 0.3453389 0.663655 6.179779E-08
v 0.6645752 0.663655 0.04825804
v 0.00950315 0.009999008 6.179779E-08
v 0.0190064 -4.405365E-15 6.179779E-08
v 0.7046738 0.663655 6.179779E-08
v 0.7046738 0.663655 0.02334929
vt 0.4487305 0.02191162
vt 0.447998 0.0218811
vt 0.447998 0.02250671
vt 0.4487305 0.02255249
vt 0.4487305 0.02191162
vt 0.447998 0.0218811
vt 0.447998 0.02250671
vt 0.4487305 0.02255249
vt 0.4487305 0.03710938
vt 0.447998 0.03707886
vt 0.447998 0.03643799
vt 0.4487305 0.03616333
vt 0.4487305 0.03677368
vt 0.4484863 0.03646851
vt 0.4487305 0.0368042
vt 0.4487305 0.03631592
vt 0.447998 0.03671265
vt 0.447998 0.03671265
vt 0.447998 0.03674316
vt 0.447998 0.03640747
vt 0.447998 0.03613281
vt 0.447998 0.03643799
vt 0.447998 0.03613281
vt 0.4484863 0.03710938
vt 0.4482422 0.03674316
vt 0.4482422 0.03710938
vt 0.4487305 0.02191162
vt 0.4487305 0.02191162
vt 0.447998 0.0218811
vt 0.447998 0.0218811
vt 0.447998 0.0218811
vt 0.447998 0.0218811
vt 0.447998 0.02250671
vt 0.447998 0.02250671
vt 0.447998 0.02250671
vt 0.447998 0.02250671
vt 0.4487305 0.02255249
vt 0.4487305 0.02255249
vt 0.4487305 0.02255249
vt 0.4487305 0.02255249
vt 0.4487305 0.02191162
vt 0.4487305 0.02191162
vt 0.447998 0.03707886
vt 0.4484863 0.03646851
vt 0.4487305 0.03631592
vt 0.447998 0.03643799
vt 0.447998 0.03613281
vt 0.4482422 0.03674316
vt 0.4482422 0.03710938
vt 0.447998 0.03671265
vt 0.447998 0.03674316
vt 0.447998 0.03674316
vt 0.447998 0.03643799
vt 0.447998 0.03671265
vt 0.447998 0.03674316
vt 0.447998 0.03671265
vt 0.447998 0.03640747
vt 0.447998 0.03643799
vt 0.447998 0.03613281
vt 0.447998 0.03613281
vt 0.4487305 0.03710938
vt 0.4487305 0.03677368
vt 0.4487305 0.03616333
vt 0.4487305 0.03631592
vt 0.4487305 0.0368042
vt 0.4487305 0.03616333
vt 0.4487305 0.03677368
vt 0.447998 0.03671265
vt 0.447998 0.03640747
vt 0.447998 0.03613281
vt 0.447998 0.03643799
vt 0.447998 0.03707886
vt 0.4484863 0.03710938
vt 0.4484863 0.03646851
vt 0.447998 0.03671265
vt 0.447998 0.03671265
vt 0.4487305 0.03710938
vt 0.4487305 0.0368042
vn 0 0 -1
vn 0 0 -1
vn 0 0 -1
vn 0 0 -1
vn 0 0 1
vn 0 0 1
vn 0 0 1
vn 0 0 1
vn 0 0 -1
vn -1 0 0
vn -1 0 0
vn 0 0 1
vn 0 0 -1
vn 0.5195313 0.173584 0.8364258
vn 0.5195313 0.173584 0.8364258
vn 0.5195313 0.173584 0.8364258
vn 0 1 0
vn -0.7246094 -0.6889648 0
vn -1 0 0
vn -0.7246094 -0.6889648 0
vn 0 0 1
vn -1 0 0
vn -1 0 0
vn 0 0 -1
vn 0 0 -1
vn 0 0 -1
vn -0.9995117 0 0.03674316
vn -0.9995117 0 0.03674316
vn -0.9995117 0 0.03674316
vn -0.9995117 0 0.03674316
vn 0 -0.9980469 0.0657959
vn 0 -0.9980469 0.0657959
vn 0 -0.9980469 0.0657959
vn 0 -0.9980469 0.0657959
vn 0.9995117 0 0.03674316
vn 0.9995117 0 0.03674316
vn 0.9995117 0 0.03674316
vn 0.9995117 0 0.03674316
vn 0 0.9980469 0.0657959
vn 0 0.9980469 0.0657959
vn 0 0.9980469 0.0657959
vn 0 0.9980469 0.0657959
vn 0 0 -1
vn 0 0 1
vn 0 0 1
vn 0 0 1
vn 0 0 1
vn 0 1 0
vn 0 1 0
vn 0 0 -1
vn 0 0 -1
vn -0.7246094 -0.6889648 0
vn -0.7246094 -0.6889648 0
vn 0 1 0
vn 0 1 0
vn 0 1 0
vn -0.5087891 -0.4836426 0.7119141
vn -0.5087891 -0.4836426 0.7119141
vn -0.5087891 -0.4836426 0.7119141
vn -0.5087891 -0.4836426 0.7119141
vn 1 0 0
vn 1 0 0
vn 1 0 0
vn 1 0 0
vn 1 0 0
vn 0 -1 0
vn 0 -1 0
vn 0 -1 0
vn 0 -1 0
vn 0 -1 0
vn 0 1 0
vn 0 1 0
vn 0 1 0
vn 0 1 0
vn 0 0 -1
vn 0 0 -1
vn 0 1 0
vn 0 1 0
g SM_Prop_Cabinet_Stackable_02_Door_1_0
f 15/15/15 14/14/14 16/16/16
f 49/49/49 48/48/48 17/17/17
f 56/56/56 55/55/55 54/54/54
f 7/7/7 8/8/8 5/5/5
f 6/6/6 7/7/7 5/5/5
f 3/3/3 2/2/2 1/1/1
f 4/4/4 3/3/3 1/1/1
f 29/29/29 28/28/28 27/27/27
f 30/30/30 29/29/29 27/27/27
f 33/33/33 32/32/32 31/31/31
f 34/34/34 33/33/33 31/31/31
f 37/37/37 36/36/36 35/35/35
f 38/38/38 37/37/37 35/35/35
f 41/41/41 40/40/40 39/39/39
f 42/42/42 41/41/41 39/39/39
f 19/19/19 22/22/22 23/23/23
f 23/23/23 10/10/10 19/19/19
f 23/23/23 11/11/11 10/10/10
f 12/12/12 45/45/45 44/44/44
f 44/44/44 21/21/21 12/12/12
f 44/44/44 46/46/46 21/21/21
f 46/46/46 47/47/47 21/21/21
f 50/50/50 51/51/51 43/43/43
f 50/50/50 43/43/43 26/26/26
f 43/43/43 24/24/24 26/26/26
f 24/24/24 9/9/9 26/26/26
f 25/25/25 26/26/26 9/9/9
f 13/13/13 25/25/25 9/9/9
f 13/13/13 76/76/76 25/25/25
f 76/76/76 75/75/75 25/25/25
f 52/52/52 18/18/18 20/20/20
f 53/53/53 52/52/52 20/20/20
f 59/59/59 58/58/58 57/57/57
f 60/60/60 59/59/59 57/57/57
f 63/63/63 62/62/62 61/61/61
f 61/61/61 64/64/64 63/63/63
f 61/61/61 65/65/65 64/64/64
f 68/68/68 67/67/67 66/66/66
f 66/66/66 69/69/69 68/68/68
f 66/66/66 70/70/70 69/69/69
f 73/73/73 72/72/72 71/71/71
f 74/74/74 73/73/73 71/71/71
f 74/74/74 78/78/78 73/73/73
f 78/78/78 77/77/77 73/73/73
