g SM_Prop_Book_Group_04
v 0.1441003 0.06499755 -0.1483386
v -0.1613513 0.06499755 -0.1316162
v -0.1613513 0.0552832 -0.1316162
v -0.1613513 0.009718018 -0.1316162
v -0.1613513 0 -0.1316162
v 0.1441003 0 -0.1483386
v 0.1613513 0.1299939 -0.1333667
v -0.1438525 0.1299939 -0.1547949
v -0.1438525 0.1202795 -0.1547949
v -0.1438525 0.07471436 -0.1547949
v -0.1438525 0.06499634 -0.1547949
v 0.1613513 0.06499634 -0.1333667
v 0.1441003 0.06499755 -0.1483386
v 0.1441003 0 -0.1483386
v 0.1573401 0 0.1380713
v 0.1573401 0.06499755 0.1380713
v -0.1045227 0 0.1523987
v -0.1481116 0 0.1547949
v -0.1481116 0.06499755 0.1547949
v -0.1045227 0.06499755 0.1523987
v 0.1441003 0.06499755 -0.1483386
v -0.1613513 0.0552832 -0.1316162
v -0.1613513 0.009718018 -0.1316162
v 0.1441003 0 -0.1483386
v -0.1613513 0 -0.1316162
v -0.1613513 0.009718018 -0.1316162
v -0.148877 0.009718018 0.1381885
v -0.1481116 0 0.1547949
v -0.148877 0.0552832 0.1381885
v -0.1481116 0.06499755 0.1547949
v -0.1613513 0.0552832 -0.1316162
v -0.1613513 0.06499755 -0.1316162
v -0.1613513 0.009718018 -0.1316162
v -0.1613513 0.0552832 -0.1316162
v -0.148877 0.0552832 0.1381885
v -0.148877 0.009718018 0.1381885
v 0.1573401 0 0.1380713
v 0.1267944 0 0.1397437
v 0.1267944 0.06499755 0.1397437
v 0.1573401 0.06499755 0.1380713
v 0.1267944 0 0.1397437
v 0.08744141 0 0.1418933
v 0.08744141 0.06499755 0.1418933
v 0.1267944 0.06499755 0.1397437
v 0.08744141 0 0.1418933
v -0.1045227 0 0.1523987
v -0.1045227 0.06499755 0.1523987
v 0.08744141 0.06499755 0.1418933
v 0.1441003 0 -0.1483386
v 0.1267944 0 0.1397437
v 0.1573401 0 0.1380713
v 0.08744141 0 0.1418933
v -0.1045227 0 0.1523987
v -0.1613513 0 -0.1316162
v -0.1481116 0 0.1547949
v -0.1613513 0.06499755 -0.1316162
v -0.1045227 0.06499755 0.1523987
v -0.1481116 0.06499755 0.1547949
v 0.08744141 0.06499755 0.1418933
v 0.1441003 0.06499755 -0.1483386
v 0.1267944 0.06499755 0.1397437
v 0.1573401 0.06499755 0.1380713
v 0.1613513 0.1299939 -0.1333667
v 0.1613513 0.06499634 -0.1333667
v 0.1443774 0.06499634 0.1528113
v 0.1443774 0.1299939 0.1528113
v -0.1172717 0.06499634 0.1344324
v -0.1608264 0.06499634 0.131383
v -0.1608264 0.1299939 0.131383
v -0.1172717 0.1299939 0.1344324
v 0.1613513 0.1299939 -0.1333667
v -0.1438525 0.1202795 -0.1547949
v -0.1438525 0.07471436 -0.1547949
v 0.1613513 0.06499634 -0.1333667
v -0.1438525 0.06499634 -0.1547949
v -0.1438525 0.07471436 -0.1547949
v -0.1598401 0.07471436 0.1147913
v -0.1608264 0.06499634 0.131383
v -0.1598401 0.1202795 0.1147913
v -0.1608264 0.1299939 0.131383
v -0.1438525 0.1202795 -0.1547949
v -0.1438525 0.1299939 -0.1547949
v -0.1438525 0.07471436 -0.1547949
v -0.1438525 0.1202795 -0.1547949
v -0.1598401 0.1202795 0.1147913
v -0.1598401 0.07471436 0.1147913
v 0.1443774 0.06499634 0.1528113
v 0.1138562 0.06499634 0.1506677
v 0.1138562 0.1299939 0.1506677
v 0.1443774 0.1299939 0.1528113
v 0.1138562 0.06499634 0.1506677
v 0.07453735 0.06499634 0.1479028
v 0.07453735 0.1299939 0.1479028
v 0.1138562 0.1299939 0.1506677
v 0.07453735 0.06499634 0.1479028
v -0.1172717 0.06499634 0.1344324
v -0.1172717 0.1299939 0.1344324
v 0.07453735 0.1299939 0.1479028
v 0.1613513 0.06499634 -0.1333667
v 0.1138562 0.06499634 0.1506677
v 0.1443774 0.06499634 0.1528113
v 0.07453735 0.06499634 0.1479028
v -0.1172717 0.06499634 0.1344324
v -0.1438525 0.06499634 -0.1547949
v -0.1608264 0.06499634 0.131383
v -0.1438525 0.1299939 -0.1547949
v -0.1172717 0.1299939 0.1344324
v -0.1608264 0.1299939 0.131383
v 0.07453735 0.1299939 0.1479028
v 0.1613513 0.1299939 -0.1333667
v 0.1138562 0.1299939 0.1506677
v 0.1443774 0.1299939 0.1528113
vt 0.1027546 0.3032661
vt 0.1027546 0.3032661
vt 0.1027546 0.3032661
vt 0.1027546 0.3032661
vt 0.1027546 0.3032661
vt 0.1027546 0.3032661
vt 0.1027546 0.3032661
vt 0.1027546 0.3032661
vt 0.1027546 0.3032661
vt 0.1027546 0.3032661
vt 0.1027546 0.3032661
vt 0.1027546 0.3032661
vt 0.03759766 0.3748212
vt 0.03759766 0.3748212
vt 0.03759766 0.3748212
vt 0.03759766 0.3748212
vt 0.1027546 0.3032661
vt 0.1027546 0.3032661
vt 0.1027546 0.3032661
vt 0.1027546 0.3032661
vt 0.03759766 0.3748212
vt 0.03759766 0.3748207
vt 0.03759766 0.3748207
vt 0.03759766 0.3748212
vt 0.1027546 0.3032661
vt 0.1027546 0.3032661
vt 0.1027546 0.3032661
vt 0.1027546 0.3032661
vt 0.1027546 0.303266
vt 0.1027546 0.3032661
vt 0.1027546 0.3032661
vt 0.1027546 0.3032661
vt 0.03930664 0.3721695
vt 0.03930664 0.3721695
vt 0.03930664 0.3721695
vt 0.03930664 0.3721695
vt 0.104248 0.2282104
vt 0.104248 0.2282104
vt 0.104248 0.2282104
vt 0.104248 0.2282104
vt 0.1027546 0.3032661
vt 0.1027546 0.3032661
vt 0.1027546 0.3032661
vt 0.1027546 0.3032661
vt 0.1356201 0.3554115
vt 0.1356201 0.3554115
vt 0.1356201 0.3554115
vt 0.1356201 0.3554115
vt 0.1027546 0.3032661
vt 0.1027546 0.3032661
vt 0.1027546 0.3032661
vt 0.1027546 0.3032661
vt 0.1027546 0.3032661
vt 0.1027546 0.3032661
vt 0.1027546 0.3032661
vt 0.1027546 0.3032661
vt 0.1027546 0.3032661
vt 0.1027546 0.3032661
vt 0.1027546 0.3032661
vt 0.1027546 0.3032661
vt 0.1027546 0.3032661
vt 0.1027546 0.3032661
vt 0.03759766 0.3748212
vt 0.03759766 0.3748212
vt 0.03759766 0.3748212
vt 0.03759766 0.3748212
vt 0.1027546 0.3032661
vt 0.1027546 0.3032661
vt 0.1027546 0.3032661
vt 0.1027546 0.3032661
vt 0.03759766 0.3748212
vt 0.03759766 0.3748207
vt 0.03759766 0.3748207
vt 0.03759766 0.3748212
vt 0.1027546 0.3032661
vt 0.1027546 0.3032661
vt 0.1027546 0.3032661
vt 0.1027546 0.3032661
vt 0.1027546 0.303266
vt 0.1027546 0.3032661
vt 0.1027546 0.3032661
vt 0.1027546 0.3032661
vt 0.03930664 0.3721695
vt 0.03930664 0.3721695
vt 0.03930664 0.3721695
vt 0.03930664 0.3721695
vt 0.104248 0.2282104
vt 0.104248 0.2282104
vt 0.104248 0.2282104
vt 0.104248 0.2282104
vt 0.1027546 0.3032661
vt 0.1027546 0.3032661
vt 0.1027546 0.3032661
vt 0.1027546 0.3032661
vt 0.1326904 0.3610497
vt 0.1326904 0.3610497
vt 0.1326904 0.3610497
vt 0.1326904 0.3610497
vt 0.1027546 0.3032661
vt 0.1027546 0.3032661
vt 0.1027546 0.3032661
vt 0.1027546 0.3032661
vt 0.1027546 0.3032661
vt 0.1027546 0.3032661
vt 0.1027546 0.3032661
vt 0.1027546 0.3032661
vt 0.1027546 0.3032661
vt 0.1027546 0.3032661
vt 0.1027546 0.3032661
vt 0.1027546 0.3032661
vt 0.1027546 0.3032661
vt 0.1027546 0.3032661
vn -0.05466464 0 -0.9985048
vn -0.05466464 0 -0.9985048
vn -0.05466464 0 -0.9985048
vn -0.05466465 0 -0.9985048
vn -0.05466465 0 -0.9985048
vn -0.05466465 0 -0.9985048
vn 0.07003713 0 -0.9975443
vn 0.07003713 0 -0.9975443
vn 0.07003713 0 -0.9975443
vn 0.07003713 0 -0.9975443
vn 0.07003713 0 -0.9975443
vn 0.07003713 0 -0.9975443
vn 0.9989333 0 -0.04617725
vn 0.9989333 0 -0.04617725
vn 0.9989333 0 -0.04617725
vn 0.9989333 0 -0.04617725
vn 0.05476737 0 0.9984992
vn 0.0548908 0 0.9984924
vn 0.0548908 0 0.9984924
vn 0.05476737 0 0.9984992
vn -0.05466464 0 -0.9985048
vn -0.05466464 0 -0.9985048
vn -0.05466465 0 -0.9985048
vn -0.05466465 0 -0.9985048
vn -0.998933 0.0001204102 0.04618113
vn -0.998933 6.020511E-05 0.0461833
vn -0.9989352 4.013673E-05 0.0461357
vn -0.9989364 6.02051E-05 0.04611081
vn -0.9989352 -4.015187E-05 0.0461357
vn -0.9989364 -6.02278E-05 0.04611081
vn -0.998933 -6.02278E-05 0.0461833
vn -0.998933 -0.0001204556 0.04618113
vn -0.998933 6.020511E-05 0.0461833
vn -0.998933 -6.02278E-05 0.0461833
vn -0.9989352 -4.015187E-05 0.0461357
vn -0.9989352 4.013673E-05 0.0461357
vn 0.05466776 0 0.9985046
vn 0.05460571 0 0.9985079
vn 0.05460571 0 0.9985079
vn 0.05466776 0 0.9985046
vn 0.05460571 0 0.9985079
vn 0.0545938 0 0.9985086
vn 0.0545938 0 0.9985086
vn 0.05460571 0 0.9985079
vn 0.0545938 0 0.9985086
vn 0.05476737 0 0.9984992
vn 0.05476737 0 0.9984992
vn 0.0545938 0 0.9985086
vn 0 -1 0
vn 0 -1 0
vn 0 -1 0
vn 0 -1 0
vn 0 -1 0
vn 0 -1 0
vn 0 -1 0
vn 0 1 0
vn 0 1 0
vn 0 1 0
vn 0 1 0
vn 0 1 0
vn 0 1 0
vn 0 1 0
vn 0.9982456 0 0.05920825
vn 0.9982456 0 0.05920825
vn 0.9982456 0 0.05920825
vn 0.9982456 0 0.05920825
vn -0.06994809 0 0.9975507
vn -0.06984026 0 0.9975582
vn -0.06984026 0 0.9975582
vn -0.06994809 0 0.9975507
vn 0.07003713 0 -0.9975443
vn 0.07003713 0 -0.9975443
vn 0.07003713 0 -0.9975443
vn 0.07003713 0 -0.9975443
vn -0.9982458 0.0001179574 -0.05920426
vn -0.998246 5.897872E-05 -0.05920214
vn -0.9982432 3.931914E-05 -0.05924875
vn -0.9982418 5.897872E-05 -0.05927311
vn -0.9982432 -3.933396E-05 -0.05924875
vn -0.9982418 -5.900095E-05 -0.05927311
vn -0.998246 -5.900094E-05 -0.05920215
vn -0.9982458 -0.0001180019 -0.05920426
vn -0.998246 5.897872E-05 -0.05920214
vn -0.998246 -5.900094E-05 -0.05920215
vn -0.9982432 -3.933396E-05 -0.05924875
vn -0.9982432 3.931914E-05 -0.05924875
vn -0.070059 0 0.9975429
vn -0.07010278 0 0.9975398
vn -0.07010278 0 0.9975398
vn -0.070059 0 0.9975429
vn -0.07010278 0 0.9975398
vn -0.07010125 0 0.9975399
vn -0.07010125 0 0.9975399
vn -0.07010278 0 0.9975398
vn -0.07010125 0 0.9975399
vn -0.06994809 0 0.9975507
vn -0.06994809 0 0.9975507
vn -0.07010125 0 0.9975399
vn 0 -1 0
vn 0 -1 0
vn 0 -1 0
vn 0 -1 0
vn 0 -1 0
vn 0 -1 0
vn 0 -1 0
vn 0 1 0
vn 0 1 0
vn 0 1 0
vn 0 1 0
vn 0 1 0
vn 0 1 0
vn 0 1 0
g SM_Prop_Book_Group_04_0
f 3/3/3 2/2/2 1/1/1
f 6/6/6 5/5/5 4/4/4
f 9/9/9 8/8/8 7/7/7
f 12/12/12 11/11/11 10/10/10
f 15/15/15 14/14/14 13/13/13
f 16/16/16 15/15/15 13/13/13
f 19/19/19 18/18/18 17/17/17
f 20/20/20 19/19/19 17/17/17
f 23/23/23 22/22/22 21/21/21
f 24/24/24 23/23/23 21/21/21
f 27/27/27 26/26/26 25/25/25
f 28/28/28 27/27/27 25/25/25
f 27/27/27 28/28/28 29/29/29
f 28/28/28 30/30/30 29/29/29
f 29/29/29 30/30/30 31/31/31
f 30/30/30 32/32/32 31/31/31
f 35/35/35 34/34/34 33/33/33
f 36/36/36 35/35/35 33/33/33
f 39/39/39 38/38/38 37/37/37
f 40/40/40 39/39/39 37/37/37
f 43/43/43 42/42/42 41/41/41
f 44/44/44 43/43/43 41/41/41
f 47/47/47 46/46/46 45/45/45
f 48/48/48 47/47/47 45/45/45
f 51/51/51 50/50/50 49/49/49
f 50/50/50 52/52/52 49/49/49
f 52/52/52 53/53/53 49/49/49
f 53/53/53 54/54/54 49/49/49
f 53/53/53 55/55/55 54/54/54
f 58/58/58 57/57/57 56/56/56
f 57/57/57 59/59/59 56/56/56
f 59/59/59 60/60/60 56/56/56
f 59/59/59 61/61/61 60/60/60
f 61/61/61 62/62/62 60/60/60
f 65/65/65 64/64/64 63/63/63
f 66/66/66 65/65/65 63/63/63
f 69/69/69 68/68/68 67/67/67
f 70/70/70 69/69/69 67/67/67
f 73/73/73 72/72/72 71/71/71
f 74/74/74 73/73/73 71/71/71
f 77/77/77 76/76/76 75/75/75
f 78/78/78 77/77/77 75/75/75
f 77/77/77 78/78/78 79/79/79
f 78/78/78 80/80/80 79/79/79
f 79/79/79 80/80/80 81/81/81
f 80/80/80 82/82/82 81/81/81
f 85/85/85 84/84/84 83/83/83
f 86/86/86 85/85/85 83/83/83
f 89/89/89 88/88/88 87/87/87
f 90/90/90 89/89/89 87/87/87
f 93/93/93 92/92/92 91/91/91
f 94/94/94 93/93/93 91/91/91
f 97/97/97 96/96/96 95/95/95
f 98/98/98 97/97/97 95/95/95
f 101/101/101 100/100/100 99/99/99
f 100/100/100 102/102/102 99/99/99
f 102/102/102 103/103/103 99/99/99
f 103/103/103 104/104/104 99/99/99
f 103/103/103 105/105/105 104/104/104
f 108/108/108 107/107/107 106/106/106
f 107/107/107 109/109/109 106/106/106
f 109/109/109 110/110/110 106/106/106
f 109/109/109 111/111/111 110/110/110
f 111/111/111 112/112/112 110/110/110
