g SM_Prop_Kitchen_Grill_01_Door_01
v 0.003608486 -0.2512274 0.0156785
v 0.003608486 0.2512274 0.0156785
v -0.5503033 0.2512274 0.0156785
v -0.5503033 -0.2512274 0.0156785
v -0.5503033 0.2512274 -0.00707827
v -0.5503033 -0.2512274 -0.00707827
v 0.003608486 -0.2512274 -0.00707827
v 0.003608486 0.2512274 -0.00707827
v 0.007191707 0.07719837 -0.01268881
v -0.007430332 0.07719837 -0.01268881
v -0.01474143 0.07719837 -2.569621E-05
v -0.007430332 0.07719837 0.01263742
v 0.007191707 0.07719837 0.01263742
v 0.0145028 0.07719837 -2.569621E-05
v 0.007191707 0.1922564 -0.01268881
v -0.007430332 0.1922564 -0.01268881
v -0.01474143 0.1922564 -2.569621E-05
v -0.007430332 0.1922564 0.01263742
v 0.007191707 0.1922564 0.01263742
v 0.0145028 0.1922564 -2.569621E-05
v 0.007191784 -0.1893804 -0.01268881
v -0.007430332 -0.1893804 -0.01268874
v -0.01474143 -0.1893804 -2.569621E-05
v -0.007430332 -0.1893804 0.01263742
v 0.007191784 -0.1893804 0.01263742
v 0.0145028 -0.1893804 -2.569621E-05
v 0.007191784 -0.07432224 -0.01268881
v -0.007430332 -0.07432224 -0.01268874
v -0.01474143 -0.07432224 -2.569621E-05
v -0.007430332 -0.07432224 0.01263742
v 0.007191784 -0.07432224 0.01263742
v 0.0145028 -0.07432224 -2.569621E-05
v -0.4861732 0.09587581 0.006739402
v -0.49477 0.09587581 0.006739402
v -0.4990685 0.08843075 0.006739402
v -0.49477 0.08098568 0.006739288
v -0.4861732 0.08098568 0.006739402
v -0.4818748 0.08843075 0.006739402
v -0.4861732 0.09587581 0.04316926
v -0.49477 0.09587581 0.04316926
v -0.4990685 0.08843075 0.04316926
v -0.49477 0.08098568 0.04316926
v -0.4861732 0.08098568 0.04316926
v -0.4818748 0.08843075 0.04316926
v -0.4861732 -0.08171104 0.006739402
v -0.49477 -0.08171104 0.006739402
v -0.4990685 -0.08915619 0.006739402
v -0.49477 -0.09660118 0.006739288
v -0.4861732 -0.09660118 0.006739402
v -0.4818748 -0.08915619 0.006739402
v -0.4861732 -0.08171104 0.04316926
v -0.49477 -0.08171104 0.04316926
v -0.4990685 -0.08915619 0.04316926
v -0.49477 -0.09660118 0.04316926
v -0.4861732 -0.09660118 0.04316926
v -0.4818748 -0.08915619 0.04316926
v -0.5037207 -0.1400278 0.05457918
v -0.4773687 -0.1400278 0.05457918
v -0.5037207 0.1501442 0.05457918
v -0.4773687 0.1501442 0.05457918
v -0.5037207 0.1501442 0.04078195
v -0.4773687 0.1501442 0.04078195
v -0.5037207 -0.1400278 0.04078195
v -0.4773687 -0.1400278 0.04078195
v -0.5503033 0.2512274 0.0156785
v -0.5503033 -0.2512274 0.0156785
v -0.5503033 -0.2512274 -0.00707827
v -0.5503033 0.2512274 -0.00707827
v -0.5503033 -0.2512274 0.0156785
v 0.003608486 -0.2512274 0.0156785
v 0.003608486 -0.2512274 -0.00707827
v -0.5503033 -0.2512274 -0.00707827
v 0.003608486 -0.2512274 0.0156785
v 0.003608486 0.2512274 0.0156785
v 0.003608486 0.2512274 -0.00707827
v 0.003608486 -0.2512274 -0.00707827
v 0.003608486 0.2512274 0.0156785
v -0.5503033 0.2512274 0.0156785
v -0.5503033 0.2512274 -0.00707827
v 0.003608486 0.2512274 -0.00707827
v -0.007430332 0.07719837 -0.01268881
v -0.007430332 0.1922564 -0.01268881
v -0.01474143 0.07719837 -2.569621E-05
v -0.01474143 0.1922564 -2.569621E-05
v -0.007430332 0.07719837 0.01263742
v -0.007430332 0.1922564 0.01263742
v 0.007191707 0.07719837 0.01263742
v 0.007191707 0.1922564 0.01263742
v 0.0145028 0.07719837 -2.569621E-05
v 0.0145028 0.1922564 -2.569621E-05
v 0.007191707 0.1922564 -0.01268881
v 0.007191707 0.07719837 -0.01268881
v 0.007191707 0.07719837 0.01263742
v 0.0145028 0.07719837 -2.569621E-05
v -0.01474143 0.07719837 -2.569621E-05
v -0.007430332 0.07719837 0.01263742
v -0.007430332 0.07719837 -0.01268881
v 0.007191707 0.07719837 -0.01268881
v -0.01474143 0.1922564 -2.569621E-05
v 0.0145028 0.1922564 -2.569621E-05
v 0.007191707 0.1922564 0.01263742
v -0.007430332 0.1922564 0.01263742
v -0.007430332 0.1922564 -0.01268881
v 0.007191707 0.1922564 -0.01268881
v -0.007430332 -0.1893804 -0.01268874
v -0.007430332 -0.07432224 -0.01268874
v -0.01474143 -0.1893804 -2.569621E-05
v -0.01474143 -0.07432224 -2.569621E-05
v -0.007430332 -0.1893804 0.01263742
v -0.007430332 -0.07432224 0.01263742
v 0.007191784 -0.1893804 0.01263742
v 0.007191784 -0.07432224 0.01263742
v 0.0145028 -0.1893804 -2.569621E-05
v 0.0145028 -0.07432224 -2.569621E-05
v 0.007191784 -0.07432224 -0.01268881
v 0.007191784 -0.1893804 -0.01268881
v 0.007191784 -0.1893804 0.01263742
v 0.0145028 -0.1893804 -2.569621E-05
v -0.01474143 -0.1893804 -2.569621E-05
v -0.007430332 -0.1893804 0.01263742
v -0.007430332 -0.1893804 -0.01268874
v 0.007191784 -0.1893804 -0.01268881
v -0.01474143 -0.07432224 -2.569621E-05
v 0.0145028 -0.07432224 -2.569621E-05
v 0.007191784 -0.07432224 0.01263742
v -0.007430332 -0.07432224 0.01263742
v -0.007430332 -0.07432224 -0.01268874
v 0.007191784 -0.07432224 -0.01268881
v -0.49477 0.09587581 0.006739402
v -0.49477 0.09587581 0.04316926
v -0.4990685 0.08843075 0.006739402
v -0.4990685 0.08843075 0.04316926
v -0.49477 0.08098568 0.006739288
v -0.49477 0.08098568 0.04316926
v -0.4861732 0.08098568 0.006739402
v -0.4861732 0.08098568 0.04316926
v -0.4818748 0.08843075 0.006739402
v -0.4818748 0.08843075 0.04316926
v -0.4861732 0.09587581 0.04316926
v -0.4861732 0.09587581 0.006739402
v -0.49477 -0.08171104 0.006739402
v -0.49477 -0.08171104 0.04316926
v -0.4990685 -0.08915619 0.006739402
v -0.4990685 -0.08915619 0.04316926
v -0.49477 -0.09660118 0.006739288
v -0.49477 -0.09660118 0.04316926
v -0.4861732 -0.09660118 0.006739402
v -0.4861732 -0.09660118 0.04316926
v -0.4818748 -0.08915619 0.006739402
v -0.4818748 -0.08915619 0.04316926
v -0.4861732 -0.08171104 0.04316926
v -0.4861732 -0.08171104 0.006739402
v -0.5037207 0.1501442 0.05457918
v -0.4773687 0.1501442 0.05457918
v -0.5037207 0.1501442 0.04078195
v -0.4773687 0.1501442 0.04078195
v -0.5037207 -0.1400278 0.04078195
v -0.5037207 -0.1400278 0.05457918
v -0.4773687 -0.1400278 0.05457918
v -0.4773687 -0.1400278 0.04078195
v -0.4773687 -0.1400278 0.05457918
v -0.4773687 0.1501442 0.05457918
v -0.4773687 0.1501442 0.04078195
v -0.4773687 -0.1400278 0.04078195
v -0.5037207 -0.1400278 0.04078195
v -0.5037207 0.1501442 0.04078195
v -0.5037207 0.1501442 0.05457918
v -0.5037207 -0.1400278 0.05457918
vt 0.09074402 0.3803234
vt 0.09074402 0.3803177
vt 0.09074402 0.3803177
vt 0.09074402 0.3803234
vt 0.09074402 0.3803177
vt 0.09074402 0.3803234
vt 0.09074402 0.3803234
vt 0.09074402 0.3803177
vt 0.09112549 0.3098297
vt 0.09112549 0.3098297
vt 0.09112549 0.3098297
vt 0.09112549 0.3098297
vt 0.09112549 0.3098297
vt 0.09112549 0.3098297
vt 0.09112549 0.3098297
vt 0.09112549 0.3098297
vt 0.09112549 0.3098297
vt 0.09112549 0.3098297
vt 0.09112549 0.3098297
vt 0.09112549 0.3098297
vt 0.09112549 0.3098278
vt 0.09112549 0.3098278
vt 0.09112549 0.3098278
vt 0.09112549 0.3098278
vt 0.09112549 0.3098278
vt 0.09112549 0.3098278
vt 0.09112549 0.3098297
vt 0.09112549 0.3098297
vt 0.09112549 0.3098297
vt 0.09112549 0.3098297
vt 0.09112549 0.3098297
vt 0.09112549 0.3098297
vt 0.09112549 0.3098297
vt 0.09112549 0.3098297
vt 0.09112549 0.3098297
vt 0.09112549 0.3098297
vt 0.09112549 0.3098297
vt 0.09112549 0.3098297
vt 0.09112549 0.3098297
vt 0.09112549 0.3098297
vt 0.09112549 0.3098297
vt 0.09112549 0.3098297
vt 0.09112549 0.3098297
vt 0.09112549 0.3098297
vt 0.09112549 0.3098297
vt 0.09112549 0.3098297
vt 0.09112549 0.3098297
vt 0.09112549 0.3098297
vt 0.09112549 0.3098297
vt 0.09112549 0.3098297
vt 0.09112549 0.3098297
vt 0.09112549 0.3098297
vt 0.09112549 0.3098297
vt 0.09112549 0.3098297
vt 0.09112549 0.3098297
vt 0.09112549 0.3098297
vt 0.09112549 0.3098297
vt 0.09112549 0.3098297
vt 0.09112549 0.3098297
vt 0.09112549 0.3098297
vt 0.09112549 0.3098297
vt 0.09112549 0.3098297
vt 0.09112549 0.3098297
vt 0.09112549 0.3098297
vt 0.09074402 0.3803177
vt 0.09074402 0.3803234
vt 0.09074402 0.3803234
vt 0.09074402 0.3803177
vt 0.09074402 0.3803234
vt 0.09074402 0.3803234
vt 0.09074402 0.3803234
vt 0.09074402 0.3803234
vt 0.09074402 0.3803234
vt 0.09074402 0.3803177
vt 0.09074402 0.3803177
vt 0.09074402 0.3803234
vt 0.09074402 0.3803177
vt 0.09074402 0.3803177
vt 0.09074402 0.3803177
vt 0.09074402 0.3803177
vt 0.09112549 0.3098297
vt 0.09112549 0.3098297
vt 0.09112549 0.3098297
vt 0.09112549 0.3098297
vt 0.09112549 0.3098297
vt 0.09112549 0.3098297
vt 0.09112549 0.3098297
vt 0.09112549 0.3098297
vt 0.09112549 0.3098297
vt 0.09112549 0.3098297
vt 0.09112549 0.3098297
vt 0.09112549 0.3098297
vt 0.09112549 0.3098297
vt 0.09112549 0.3098297
vt 0.09112549 0.3098297
vt 0.09112549 0.3098297
vt 0.09112549 0.3098297
vt 0.09112549 0.3098297
vt 0.09112549 0.3098297
vt 0.09112549 0.3098297
vt 0.09112549 0.3098297
vt 0.09112549 0.3098297
vt 0.09112549 0.3098297
vt 0.09112549 0.3098297
vt 0.09112549 0.3098278
vt 0.09112549 0.3098297
vt 0.09112549 0.3098278
vt 0.09112549 0.3098297
vt 0.09112549 0.3098278
vt 0.09112549 0.3098297
vt 0.09112549 0.3098278
vt 0.09112549 0.3098297
vt 0.09112549 0.3098278
vt 0.09112549 0.3098297
vt 0.09112549 0.3098297
vt 0.09112549 0.3098278
vt 0.09112549 0.3098278
vt 0.09112549 0.3098278
vt 0.09112549 0.3098278
vt 0.09112549 0.3098278
vt 0.09112549 0.3098278
vt 0.09112549 0.3098278
vt 0.09112549 0.3098297
vt 0.09112549 0.3098297
vt 0.09112549 0.3098297
vt 0.09112549 0.3098297
vt 0.09112549 0.3098297
vt 0.09112549 0.3098297
vt 0.09112549 0.3098297
vt 0.09112549 0.3098297
vt 0.09112549 0.3098297
vt 0.09112549 0.3098297
vt 0.09112549 0.3098297
vt 0.09112549 0.3098297
vt 0.09112549 0.3098297
vt 0.09112549 0.3098297
vt 0.09112549 0.3098297
vt 0.09112549 0.3098297
vt 0.09112549 0.3098297
vt 0.09112549 0.3098297
vt 0.09112549 0.3098297
vt 0.09112549 0.3098297
vt 0.09112549 0.3098297
vt 0.09112549 0.3098297
vt 0.09112549 0.3098297
vt 0.09112549 0.3098297
vt 0.09112549 0.3098297
vt 0.09112549 0.3098297
vt 0.09112549 0.3098297
vt 0.09112549 0.3098297
vt 0.09112549 0.3098297
vt 0.09112549 0.3098297
vt 0.09112549 0.3098297
vt 0.09112549 0.3098297
vt 0.09112549 0.3098297
vt 0.09112549 0.3098297
vt 0.09112549 0.3098297
vt 0.09112549 0.3098297
vt 0.09112549 0.3098297
vt 0.09112549 0.3098297
vt 0.09112549 0.3098297
vt 0.09112549 0.3098297
vt 0.09112549 0.3098297
vt 0.09112549 0.3098297
vt 0.09112549 0.3098297
vt 0.09112549 0.3098297
vt 0.09112549 0.3098297
vt 0.09112549 0.3098297
vn 0 0 1
vn 0 0 1
vn 0 0 1
vn 0 0 1
vn 0 0 -1
vn 0 0 -1
vn 0 0 -1
vn 0 0 -1
vn 0 0 -1
vn 0 0 -1
vn -0.8660242 0 -0.5000021
vn -0.8660242 0 0.5000021
vn 0 0 1
vn 0.8660242 0 0.5000022
vn 0 0 -1
vn 0 0 -1
vn -0.8660242 0 -0.5000021
vn -0.8660242 0 0.5000021
vn 0 0 1
vn 0.8660242 0 0.5000022
vn 0 0 -1
vn 0 0 -1
vn -0.8660229 0 -0.5000044
vn -0.8660241 0 0.5000021
vn 0 0 1
vn 0.8660264 0 0.4999983
vn 0 0 -1
vn 0 0 -1
vn -0.8660229 0 -0.5000044
vn -0.8660241 0 0.5000021
vn 0 0 1
vn 0.8660264 0 0.4999983
vn 0 1 0
vn 0 1 0
vn -0.8660183 0.5000123 0
vn -0.8660183 -0.5000123 0
vn 0 -1 0
vn 0.866026 -0.499999 0
vn 0 1 0
vn 0 1 0
vn -0.8660183 0.5000123 0
vn -0.8660183 -0.5000123 0
vn 0 -1 0
vn 0.866026 -0.499999 0
vn 0 1 0
vn 0 1 0
vn -0.8660205 0.5000085 0
vn -0.866016 -0.5000162 0
vn 0 -1 0
vn 0.8660237 -0.5000028 0
vn 0 1 0
vn 0 1 0
vn -0.8660205 0.5000085 0
vn -0.866016 -0.5000162 0
vn 0 -1 0
vn 0.8660237 -0.5000028 0
vn 0 0 1
vn 0 0 1
vn 0 0 1
vn 0 0 1
vn 0 1 0
vn 0 1 0
vn 0 0 -1
vn 0 0 -1
vn -1 0 0
vn -1 0 0
vn -1 0 0
vn -1 0 0
vn 0 -1 0
vn 0 -1 0
vn 0 -1 0
vn 0 -1 0
vn 1 0 0
vn 1 0 0
vn 1 0 0
vn 1 0 0
vn 0 1 0
vn 0 1 0
vn 0 1 0
vn 0 1 0
vn -0.8660242 0 -0.5000021
vn -0.8660242 0 -0.5000021
vn -0.8660242 0 0.5000021
vn -0.8660242 0 0.5000021
vn 0 0 1
vn 0 0 1
vn 0.8660242 0 0.5000022
vn 0.8660242 0 0.5000022
vn 0.8660242 0 -0.5000022
vn 0.8660242 0 -0.5000022
vn 0.8660242 0 -0.5000022
vn 0.8660242 0 -0.5000022
vn 0 -1 0
vn 0 -1 0
vn 0 -1 0
vn 0 -1 0
vn 0 -1 0
vn 0 -1 0
vn 0 1 0
vn 0 1 0
vn 0 1 0
vn 0 1 0
vn 0 1 0
vn 0 1 0
vn -0.8660229 0 -0.5000044
vn -0.8660229 0 -0.5000044
vn -0.8660241 0 0.5000021
vn -0.8660241 0 0.5000021
vn 0 0 1
vn 0 0 1
vn 0.8660264 0 0.4999983
vn 0.8660264 0 0.4999983
vn 0.8660264 0 -0.4999983
vn 0.8660264 0 -0.4999983
vn 0.8660264 0 -0.4999983
vn 0.8660264 0 -0.4999983
vn 0 -1 0
vn 0 -1 0
vn 0 -1 0
vn 0 -1 0
vn 0 -1 0
vn 0 -1 0
vn 0 1 0
vn 0 1 0
vn 0 1 0
vn 0 1 0
vn 0 1 0
vn 0 1 0
vn -0.8660183 0.5000123 0
vn -0.8660183 0.5000123 0
vn -0.8660183 -0.5000123 0
vn -0.8660183 -0.5000123 0
vn 0 -1 0
vn 0 -1 0
vn 0.866026 -0.499999 0
vn 0.866026 -0.499999 0
vn 0.866026 0.499999 0
vn 0.866026 0.499999 0
vn 0.866026 0.499999 0
vn 0.866026 0.499999 0
vn -0.8660205 0.5000085 0
vn -0.8660205 0.5000085 0
vn -0.866016 -0.5000162 0
vn -0.866016 -0.5000162 0
vn 0 -1 0
vn 0 -1 0
vn 0.8660237 -0.5000028 0
vn 0.8660237 -0.5000028 0
vn 0.8660282 0.4999952 0
vn 0.8660282 0.4999952 0
vn 0.8660282 0.4999952 0
vn 0.8660282 0.4999952 0
vn 0 1 0
vn 0 1 0
vn 0 0 -1
vn 0 0 -1
vn 0 -1 0
vn 0 -1 0
vn 0 -1 0
vn 0 -1 0
vn 1 0 0
vn 1 0 0
vn 1 0 0
vn 1 0 0
vn -1 0 0
vn -1 0 0
vn -1 0 0
vn -1 0 0
g SM_Prop_Kitchen_Grill_01_Door_01_0
f 7/7/7 6/6/6 5/5/5
f 8/8/8 7/7/7 5/5/5
f 1/1/1 2/2/2 3/3/3
f 4/4/4 1/1/1 3/3/3
f 67/67/67 66/66/66 65/65/65
f 68/68/68 67/67/67 65/65/65
f 71/71/71 70/70/70 69/69/69
f 72/72/72 71/71/71 69/69/69
f 75/75/75 74/74/74 73/73/73
f 76/76/76 75/75/75 73/73/73
f 79/79/79 78/78/78 77/77/77
f 80/80/80 79/79/79 77/77/77
f 16/16/16 15/15/15 9/9/9
f 10/10/10 16/16/16 9/9/9
f 17/17/17 82/82/82 81/81/81
f 11/11/11 17/17/17 81/81/81
f 18/18/18 84/84/84 83/83/83
f 12/12/12 18/18/18 83/83/83
f 19/19/19 86/86/86 85/85/85
f 13/13/13 19/19/19 85/85/85
f 20/20/20 88/88/88 87/87/87
f 14/14/14 20/20/20 87/87/87
f 91/91/91 90/90/90 89/89/89
f 92/92/92 91/91/91 89/89/89
f 96/96/96 95/95/95 93/93/93
f 95/95/95 94/94/94 93/93/93
f 94/94/94 95/95/95 97/97/97
f 98/98/98 94/94/94 97/97/97
f 102/102/102 101/101/101 99/99/99
f 101/101/101 100/100/100 99/99/99
f 100/100/100 104/104/104 99/99/99
f 104/104/104 103/103/103 99/99/99
f 28/28/28 27/27/27 21/21/21
f 22/22/22 28/28/28 21/21/21
f 29/29/29 106/106/106 105/105/105
f 23/23/23 29/29/29 105/105/105
f 30/30/30 108/108/108 107/107/107
f 24/24/24 30/30/30 107/107/107
f 31/31/31 110/110/110 109/109/109
f 25/25/25 31/31/31 109/109/109
f 32/32/32 112/112/112 111/111/111
f 26/26/26 32/32/32 111/111/111
f 115/115/115 114/114/114 113/113/113
f 116/116/116 115/115/115 113/113/113
f 120/120/120 119/119/119 117/117/117
f 119/119/119 118/118/118 117/117/117
f 118/118/118 119/119/119 121/121/121
f 122/122/122 118/118/118 121/121/121
f 126/126/126 125/125/125 123/123/123
f 125/125/125 124/124/124 123/123/123
f 124/124/124 128/128/128 123/123/123
f 128/128/128 127/127/127 123/123/123
f 40/40/40 39/39/39 33/33/33
f 34/34/34 40/40/40 33/33/33
f 41/41/41 130/130/130 129/129/129
f 35/35/35 41/41/41 129/129/129
f 42/42/42 132/132/132 131/131/131
f 36/36/36 42/42/42 131/131/131
f 43/43/43 134/134/134 133/133/133
f 37/37/37 43/43/43 133/133/133
f 44/44/44 136/136/136 135/135/135
f 38/38/38 44/44/44 135/135/135
f 139/139/139 138/138/138 137/137/137
f 140/140/140 139/139/139 137/137/137
f 52/52/52 51/51/51 45/45/45
f 46/46/46 52/52/52 45/45/45
f 53/53/53 142/142/142 141/141/141
f 47/47/47 53/53/53 141/141/141
f 54/54/54 144/144/144 143/143/143
f 48/48/48 54/54/54 143/143/143
f 55/55/55 146/146/146 145/145/145
f 49/49/49 55/55/55 145/145/145
f 56/56/56 148/148/148 147/147/147
f 50/50/50 56/56/56 147/147/147
f 151/151/151 150/150/150 149/149/149
f 152/152/152 151/151/151 149/149/149
f 60/60/60 59/59/59 57/57/57
f 58/58/58 60/60/60 57/57/57
f 62/62/62 61/61/61 153/153/153
f 154/154/154 62/62/62 153/153/153
f 64/64/64 63/63/63 155/155/155
f 156/156/156 64/64/64 155/155/155
f 159/159/159 158/158/158 157/157/157
f 160/160/160 159/159/159 157/157/157
f 163/163/163 162/162/162 161/161/161
f 164/164/164 163/163/163 161/161/161
f 167/167/167 166/166/166 165/165/165
f 168/168/168 167/167/167 165/165/165
