g SM_Prop_DeskLamp_05_Arm_02
v -0.02462067 0.1113796 0.3475274
v -0.02462067 0.136804 0.4096797
v 0.02462067 0.1368041 0.4096798
v 0.02462067 0.1113796 0.3475274
v -0.02462067 0.136804 0.4096797
v -0.02462067 0.1895432 0.3881061
v 0.02462067 0.1895432 0.3881061
v 0.02462067 0.1368041 0.4096798
v -0.02462067 0.1895432 0.3881061
v -0.02462067 0.1641187 0.3259535
v 0.02462067 0.1641187 0.3259535
v 0.02462067 0.1895432 0.3881061
v -0.01262066 0.01526297 -0.006243558
v -0.01262066 -0.01526285 0.006243529
v 0.01262066 -0.01526285 0.006243529
v 0.01262066 0.01526297 -0.006243558
v 0.02462067 0.1113796 0.3475274
v 0.02462067 0.1368041 0.4096798
v 0.02462067 0.1895432 0.3881061
v 0.02462067 0.1641187 0.3259535
v -0.02462067 0.1641187 0.3259535
v -0.02462067 0.1895432 0.3881061
v -0.02462067 0.136804 0.4096797
v -0.02462067 0.1113796 0.3475274
v -0.01262066 -0.01526285 0.006243529
v -0.01262066 0.1224862 0.3429839
v 0.01262066 0.1224862 0.3429839
v 0.01262066 -0.01526285 0.006243529
v 0.01262066 -0.01526285 0.006243529
v 0.01262066 0.1224862 0.3429839
v 0.01262066 0.153012 0.3304969
v 0.01262066 0.01526297 -0.006243558
v -0.01262066 0.153012 0.3304969
v -0.01262066 0.01526297 -0.006243558
v 0.01262066 0.01526297 -0.006243558
v 0.01262066 0.153012 0.3304969
v -0.01262066 0.01526297 -0.006243558
v -0.01262066 0.153012 0.3304969
v -0.01262066 0.1224862 0.3429839
v -0.01262066 -0.01526285 0.006243529
v -0.01262066 0.1224862 0.3429839
v -0.02462067 0.1113796 0.3475274
v 0.02462067 0.1113796 0.3475274
v 0.01262066 0.1224862 0.3429839
v -0.01262066 0.153012 0.3304969
v 0.02462067 0.1641187 0.3259535
v -0.02462067 0.1641187 0.3259535
v 0.01262066 0.153012 0.3304969
vt 0.4004396 0.491269
vt 0.4002825 0.4912222
vt 0.4002709 0.491172
vt 0.4004252 0.4912186
vt 0.4002825 0.4912222
vt 0.4003297 0.4910946
vt 0.400317 0.4910462
vt 0.4002709 0.491172
vt 0.4003297 0.4910946
vt 0.4004882 0.4911434
vt 0.4004728 0.4910946
vt 0.400317 0.4910462
vt 0.4012709 0.4914024
vt 0.401239 0.4914692
vt 0.4012249 0.4914428
vt 0.4012564 0.4913765
vt 0.4004252 0.4912186
vt 0.4002709 0.491172
vt 0.400317 0.4910462
vt 0.4004728 0.4910946
vt 0.4004882 0.4911434
vt 0.4003297 0.4910946
vt 0.4002825 0.4912222
vt 0.4004396 0.491269
vt 0.401239 0.4914692
vt 0.4004461 0.4912305
vt 0.4004386 0.4912047
vt 0.4012249 0.4914428
vt 0.4012249 0.4914428
vt 0.4004386 0.4912047
vt 0.4004663 0.4911328
vt 0.4012564 0.4913765
vt 0.4004741 0.491158
vt 0.4012709 0.4914024
vt 0.4012564 0.4913765
vt 0.4004663 0.4911328
vt 0.4012709 0.4914024
vt 0.4004741 0.491158
vt 0.4004461 0.4912305
vt 0.401239 0.4914692
vt 0.4004461 0.4912305
vt 0.4004396 0.491269
vt 0.4004252 0.4912186
vt 0.4004386 0.4912047
vt 0.4004741 0.491158
vt 0.4004728 0.4910946
vt 0.4004882 0.4911434
vt 0.4004663 0.4911328
vn 0 -0.9255548 0.378614
vn 0 -0.9255548 0.378614
vn 0 -0.9255548 0.378614
vn 0 -0.9255548 0.378614
vn 0 0.3786111 0.9255559
vn 0 0.3786111 0.9255559
vn 0 0.3786111 0.9255559
vn 0 0.3786111 0.9255559
vn 0 0.9255551 -0.3786131
vn 0 0.9255551 -0.3786131
vn 0 0.9255551 -0.3786131
vn 0 0.9255551 -0.3786131
vn 0 -0.3786134 -0.9255548
vn 0 -0.3786134 -0.9255548
vn 0 -0.3786134 -0.9255548
vn 0 -0.3786134 -0.9255548
vn 1 0 0
vn 1 0 0
vn 1 0 0
vn 1 0 0
vn -1 0 0
vn -1 0 0
vn -1 0 0
vn -1 0 0
vn 0 -0.9255551 0.3786131
vn 0 -0.9255551 0.3786131
vn 0 -0.9255551 0.3786131
vn 0 -0.9255551 0.3786131
vn 1 0 0
vn 1 0 0
vn 1 0 0
vn 1 0 0
vn 0 0.9255551 -0.3786131
vn 0 0.9255551 -0.3786131
vn 0 0.9255551 -0.3786131
vn 0 0.9255551 -0.3786131
vn -1 0 0
vn -1 0 0
vn -1 0 0
vn -1 0 0
vn 0 -0.3786152 -0.9255541
vn 0 -0.3786152 -0.9255541
vn 0 -0.3786151 -0.9255542
vn 0 -0.3786151 -0.9255542
vn 0 -0.3786127 -0.9255552
vn 0 -0.3786127 -0.9255552
vn 0 -0.3786127 -0.9255552
vn 0 -0.3786126 -0.9255552
g SM_Prop_DeskLamp_05_Arm_02_0
f 3/3/3 2/2/2 1/1/1
f 4/4/4 3/3/3 1/1/1
f 7/7/7 6/6/6 5/5/5
f 8/8/8 7/7/7 5/5/5
f 11/11/11 10/10/10 9/9/9
f 12/12/12 11/11/11 9/9/9
f 15/15/15 14/14/14 13/13/13
f 16/16/16 15/15/15 13/13/13
f 19/19/19 18/18/18 17/17/17
f 20/20/20 19/19/19 17/17/17
f 23/23/23 22/22/22 21/21/21
f 24/24/24 23/23/23 21/21/21
f 27/27/27 26/26/26 25/25/25
f 28/28/28 27/27/27 25/25/25
f 31/31/31 30/30/30 29/29/29
f 32/32/32 31/31/31 29/29/29
f 35/35/35 34/34/34 33/33/33
f 36/36/36 35/35/35 33/33/33
f 39/39/39 38/38/38 37/37/37
f 40/40/40 39/39/39 37/37/37
f 43/43/43 42/42/42 41/41/41
f 44/44/44 43/43/43 41/41/41
f 41/41/41 42/42/42 45/45/45
f 46/46/46 43/43/43 44/44/44
f 42/42/42 47/47/47 45/45/45
f 48/48/48 46/46/46 44/44/44
f 45/45/45 47/47/47 48/48/48
f 47/47/47 46/46/46 48/48/48
