g SM_Prop_ToiletStalls_01_Door_01
v -0.7035536 1.214281 -0.0185817
v -0.7167675 1.184003 -0.03034927
v -0.6785536 1.17098 -0.0185817
v -0.6785536 1.17098 -0.0185817
v -0.7167675 1.157956 -0.03034927
v -0.7035536 1.127679 -0.0185817
v -0.7535536 1.127679 -0.0185817
v -0.7403396 1.157956 -0.03034927
v -0.7785536 1.17098 -0.0185817
v -0.7785536 1.17098 -0.0185817
v -0.7403396 1.184003 -0.03034927
v -0.7535536 1.214281 -0.0185817
v -0.7403396 1.157956 -0.03034927
v -0.7403396 1.184003 -0.03034927
v -0.7785536 1.17098 -0.0185817
v -0.7167675 1.184003 -0.03034927
v -0.7167675 1.157956 -0.03034927
v -0.6785536 1.17098 -0.0185817
v -0.7035536 1.214281 -0.0185817
v -0.7035536 1.214281 0.05320953
v -0.7535536 1.214281 0.05320953
v -0.7535536 1.214281 -0.0185817
v -0.7535536 1.214281 -0.0185817
v -0.7535536 1.214281 0.05320953
v -0.7785536 1.17098 0.05320953
v -0.7785536 1.17098 -0.0185817
v -0.7785536 1.17098 -0.0185817
v -0.7785536 1.17098 0.05320953
v -0.7535536 1.127679 0.05320953
v -0.7535536 1.127679 -0.0185817
v -0.7535536 1.127679 -0.0185817
v -0.7535536 1.127679 0.05320953
v -0.7035536 1.127679 0.05320953
v -0.7035536 1.127679 -0.0185817
v -0.7035536 1.127679 -0.0185817
v -0.7035536 1.127679 0.05320953
v -0.6785536 1.17098 0.05320953
v -0.6785536 1.17098 -0.0185817
v -0.6785536 1.17098 -0.0185817
v -0.6785536 1.17098 0.05320953
v -0.7035536 1.214281 0.05320953
v -0.7035536 1.214281 -0.0185817
v -0.7161674 1.192433 0.06770737
v -0.7037812 1.17098 0.06770737
v -0.7161674 1.149526 0.06770737
v -0.7409398 1.192433 0.06770737
v -0.7409398 1.149526 0.06770737
v -0.7533259 1.17098 0.06770737
v -0.7061731 1.209744 0.05722382
v -0.7135479 1.19697 0.06369308
v -0.7435592 1.19697 0.06369308
v -0.7509341 1.209744 0.05722382
v -0.7509341 1.209744 0.05722382
v -0.7435592 1.19697 0.06369308
v -0.7557696 1.176746 0.0643898
v -0.7694517 1.176746 0.0565271
v -0.7785536 1.17098 0.05320953
v -0.7533259 1.17098 0.06770737
v -0.7409398 1.149526 0.06770737
v -0.7535536 1.127679 0.05320953
v -0.7535536 1.127679 0.05320953
v -0.7409398 1.149526 0.06770737
v -0.7161674 1.149526 0.06770737
v -0.7035536 1.127679 0.05320953
v -0.7035536 1.127679 0.05320953
v -0.7161674 1.149526 0.06770737
v -0.7037812 1.17098 0.06770737
v -0.6785536 1.17098 0.05320953
v -0.6876554 1.176746 0.0565271
v -0.7013376 1.176746 0.0643898
v -0.7135479 1.19697 0.06369308
v -0.7061731 1.209744 0.05722382
v -0.7035536 1.214281 0.05320953
v -0.7061731 1.209744 0.05722382
v -0.7509341 1.209744 0.05722382
v -0.7535536 1.214281 0.05320953
v -0.7409398 1.192433 0.06770737
v -0.7435592 1.19697 0.06369308
v -0.7135479 1.19697 0.06369308
v -0.7161674 1.192433 0.06770737
v -0.7535536 1.214281 0.05320953
v -0.7509341 1.209744 0.05722382
v -0.7694517 1.176746 0.0565271
v -0.7785536 1.17098 0.05320953
v -0.7557696 1.176746 0.0643898
v -0.7533259 1.17098 0.06770737
v -0.7435592 1.19697 0.06369308
v -0.7409398 1.192433 0.06770737
v -0.6785536 1.17098 0.05320953
v -0.7061731 1.209744 0.05722382
v -0.7035536 1.214281 0.05320953
v -0.6876554 1.176746 0.0565271
v -0.7037812 1.17098 0.06770737
v -0.7013376 1.176746 0.0643898
v -0.7161674 1.192433 0.06770737
v -0.7135479 1.19697 0.06369308
v -0.7035536 1.127679 -0.0185817
v -0.7167675 1.157956 -0.03034927
v -0.7403396 1.157956 -0.03034927
v -0.7535536 1.127679 -0.0185817
v -0.7535536 1.214281 -0.0185817
v -0.7403396 1.184003 -0.03034927
v -0.7167675 1.184003 -0.03034927
v -0.7035536 1.214281 -0.0185817
v -0.7167675 1.184003 -0.03034927
v -0.7167675 1.184003 -0.0498616
v -0.7167675 1.157956 -0.0498616
v -0.7167675 1.157956 -0.03034927
v -0.7167675 1.157956 -0.03034927
v -0.7403396 1.157956 -0.0498616
v -0.7403396 1.157956 -0.03034927
v -0.7167675 1.157956 -0.0498616
v -0.7403396 1.157956 -0.07762069
v -0.7167675 1.157956 -0.07762069
v -0.7403396 1.157956 -0.03034927
v -0.7403396 1.157956 -0.0498616
v -0.7403396 1.184003 -0.0498616
v -0.7403396 1.184003 -0.03034927
v -0.7403396 1.184003 -0.03034927
v -0.7167675 1.184003 -0.0498616
v -0.7167675 1.184003 -0.03034927
v -0.7403396 1.184003 -0.0498616
v -0.7167675 1.184003 -0.07762069
v -0.7403396 1.184003 -0.07762069
v -0.6727675 1.176619 -0.0498616
v -0.6727675 1.176619 -0.07762085
v -0.6727675 1.16534 -0.07762069
v -0.6727675 1.16534 -0.04986145
v -0.7843397 1.16534 -0.04986145
v -0.7843397 1.16534 -0.07762069
v -0.7843397 1.176619 -0.07762085
v -0.7843397 1.176619 -0.0498616
v -0.7167675 1.184003 -0.0498616
v -0.6727675 1.176619 -0.0498616
v -0.6727675 1.16534 -0.04986145
v -0.7167675 1.157956 -0.0498616
v -0.7167675 1.157956 -0.0498616
v -0.6727675 1.16534 -0.04986145
v -0.6727675 1.16534 -0.07762069
v -0.7167675 1.157956 -0.07762069
v -0.7167675 1.157956 -0.07762069
v -0.6727675 1.16534 -0.07762069
v -0.6727675 1.176619 -0.07762085
v -0.7167675 1.184003 -0.07762069
v -0.7403396 1.157956 -0.07762069
v -0.7403396 1.184003 -0.07762069
v -0.7843397 1.16534 -0.07762069
v -0.7843397 1.176619 -0.07762085
v -0.7167675 1.184003 -0.07762069
v -0.6727675 1.176619 -0.07762085
v -0.6727675 1.176619 -0.0498616
v -0.7167675 1.184003 -0.0498616
v -0.7403396 1.157956 -0.0498616
v -0.7843397 1.16534 -0.04986145
v -0.7843397 1.176619 -0.0498616
v -0.7403396 1.184003 -0.0498616
v -0.7403396 1.184003 -0.0498616
v -0.7843397 1.176619 -0.0498616
v -0.7843397 1.176619 -0.07762085
v -0.7403396 1.184003 -0.07762069
v -0.7403396 1.157956 -0.07762069
v -0.7843397 1.16534 -0.07762069
v -0.7843397 1.16534 -0.04986145
v -0.7403396 1.157956 -0.0498616
v -0.85 0.2538157 0
v -0.85 2.163014 0
v -0.85 2.163014 0.03359772
v -0.85 0.2538157 0.03359772
v -0.85 2.163014 0
v 4.291534E-08 2.163014 0
v 3.814697E-08 2.163014 0.03359772
v -0.85 2.163014 0.03359772
v 4.291534E-08 2.163014 0
v 4.291534E-08 0.2538157 0
v 3.814697E-08 0.2538157 0.03359772
v 3.814697E-08 2.163014 0.03359772
v 4.291534E-08 0.2538157 0
v -0.85 0.2538157 0
v -0.85 0.2538157 0.03359772
v 3.814697E-08 0.2538157 0.03359772
v -0.85 0.2538157 0.03359772
v -0.85 2.163014 0.03359772
v 3.814697E-08 2.163014 0.03359772
v 3.814697E-08 0.2538157 0.03359772
v 4.291534E-08 0.2538157 0
v 4.291534E-08 2.163014 0
v -0.85 2.163014 0
v -0.85 0.2538157 0
vt 0.1225057 0.353606
vt 0.1225057 0.353606
vt 0.1222976 0.3539526
vt 0.1222976 0.3539526
vt 0.1225123 0.3543119
vt 0.1225123 0.3543119
vt 0.1229341 0.354338
vt 0.1229341 0.354338
vt 0.1231538 0.3539997
vt 0.1231538 0.3539997
vt 0.1229401 0.3536268
vt 0.1229401 0.3536268
vt 0.1229341 0.354338
vt 0.1229401 0.3536268
vt 0.1231538 0.3539997
vt 0.1225057 0.353606
vt 0.1225123 0.3543119
vt 0.1222976 0.3539526
vt 0.1225057 0.353606
vt 0.1223754 0.3538039
vt 0.1228438 0.3538283
vt 0.1229401 0.3536268
vt 0.1229401 0.3536268
vt 0.1228438 0.3538283
vt 0.1230756 0.3542285
vt 0.1231538 0.3539997
vt 0.1231538 0.3539997
vt 0.1230756 0.3542285
vt 0.1228403 0.3545887
vt 0.1229341 0.354338
vt 0.1229341 0.354338
vt 0.1228403 0.3545887
vt 0.1223866 0.3545584
vt 0.1225123 0.3543119
vt 0.1225123 0.3543119
vt 0.1223866 0.3545584
vt 0.1221537 0.3541736
vt 0.1222976 0.3539526
vt 0.1222976 0.3539526
vt 0.1221537 0.3541736
vt 0.1223754 0.3538039
vt 0.1225057 0.353606
vt 0.1224684 0.3540515
vt 0.1223553 0.3542359
vt 0.1224726 0.3544312
vt 0.1227021 0.3540648
vt 0.1227026 0.354446
vt 0.1228191 0.354264
vt 0.1394914 0.4181561
vt 0.139568 0.4183394
vt 0.1399415 0.4183604
vt 0.140047 0.4181857
vt 0.140047 0.4181857
vt 0.1399415 0.4183604
vt 0.1400921 0.418612
vt 0.1402763 0.4185864
vt 0.1230756 0.3542285
vt 0.1228191 0.354264
vt 0.1227026 0.354446
vt 0.1228403 0.3545887
vt 0.1228403 0.3545887
vt 0.1227026 0.354446
vt 0.1224726 0.3544312
vt 0.1223866 0.3545584
vt 0.1223866 0.3545584
vt 0.1224726 0.3544312
vt 0.1223553 0.3542359
vt 0.1221537 0.3541736
vt 0.1392762 0.4185265
vt 0.1394202 0.4185713
vt 0.139568 0.4183394
vt 0.1394914 0.4181561
vt 0.1223754 0.3538039
vt 0.1223754 0.3538039
vt 0.1228438 0.3538283
vt 0.1228438 0.3538283
vt 0.1227021 0.3540648
vt 0.1227021 0.3540648
vt 0.1224684 0.3540515
vt 0.1224684 0.3540515
vt 0.1228438 0.3538283
vt 0.1228438 0.3538283
vt 0.1230756 0.3542285
vt 0.1230756 0.3542285
vt 0.1228191 0.354264
vt 0.1228191 0.354264
vt 0.1227021 0.3540648
vt 0.1227021 0.3540648
vt 0.1221537 0.3541736
vt 0.1223754 0.3538039
vt 0.1223754 0.3538039
vt 0.1221537 0.3541736
vt 0.1223553 0.3542359
vt 0.1223553 0.3542359
vt 0.1224684 0.3540515
vt 0.1224684 0.3540515
vt 0.1225123 0.3543119
vt 0.1225123 0.3543119
vt 0.1229341 0.354338
vt 0.1229341 0.354338
vt 0.1229401 0.3536268
vt 0.1229401 0.3536268
vt 0.1225057 0.353606
vt 0.1225057 0.353606
vt 0.1225057 0.353606
vt 0.1225057 0.353606
vt 0.1225123 0.3543119
vt 0.1225123 0.3543119
vt 0.1225123 0.3543119
vt 0.1229341 0.354338
vt 0.1229341 0.354338
vt 0.1225123 0.3543119
vt 0.1229341 0.354338
vt 0.1225123 0.3543119
vt 0.1229341 0.354338
vt 0.1229341 0.354338
vt 0.1229401 0.3536268
vt 0.1229401 0.3536268
vt 0.1229401 0.3536268
vt 0.1225057 0.353606
vt 0.1225057 0.353606
vt 0.1229401 0.3536268
vt 0.1225057 0.353606
vt 0.1229401 0.3536268
vt 0.1225057 0.353606
vt 0.1225057 0.353606
vt 0.1225123 0.3543119
vt 0.1225123 0.3543119
vt 0.1229341 0.354338
vt 0.1229341 0.354338
vt 0.1229401 0.3536268
vt 0.1229401 0.3536268
vt 0.1225057 0.353606
vt 0.1225057 0.353606
vt 0.1225123 0.3543119
vt 0.1225123 0.3543119
vt 0.1225123 0.3543119
vt 0.1225123 0.3543119
vt 0.1225123 0.3543119
vt 0.1225123 0.3543119
vt 0.1225123 0.3543119
vt 0.1225123 0.3543119
vt 0.1225057 0.353606
vt 0.1225057 0.353606
vt 0.1229341 0.354338
vt 0.1229401 0.3536268
vt 0.1229341 0.354338
vt 0.1229401 0.3536268
vt 0.1225057 0.353606
vt 0.1225057 0.353606
vt 0.1225057 0.353606
vt 0.1225057 0.353606
vt 0.1229341 0.354338
vt 0.1229341 0.354338
vt 0.1229401 0.3536268
vt 0.1229401 0.3536268
vt 0.1229401 0.3536268
vt 0.1229401 0.3536268
vt 0.1229401 0.3536268
vt 0.1229401 0.3536268
vt 0.1229341 0.354338
vt 0.1229341 0.354338
vt 0.1229341 0.354338
vt 0.1229341 0.354338
vt 0.1208894 0.2987497
vt 0.1209204 0.2979494
vt 0.1209063 0.2979526
vt 0.120877 0.2987543
vt 0.1209204 0.2979494
vt 0.1205546 0.2977543
vt 0.120542 0.2977566
vt 0.1209063 0.2979526
vt 0.1205546 0.2977543
vt 0.1205669 0.2984621
vt 0.1205556 0.2984655
vt 0.120542 0.2977566
vt 0.1205669 0.2984621
vt 0.1208894 0.2987497
vt 0.120877 0.2987543
vt 0.1205556 0.2984655
vt 0.120877 0.2987543
vt 0.1209063 0.2979526
vt 0.120542 0.2977566
vt 0.1205556 0.2984655
vt 0.1205669 0.2984621
vt 0.1205546 0.2977543
vt 0.1209204 0.2979494
vt 0.1208894 0.2987497
vn 0.3505597 0.2023959 -0.914409
vn 0.3505596 0.2023958 -0.914409
vn 0.3505597 0.2023958 -0.914409
vn 0.3505597 -0.2023959 -0.914409
vn 0.3505597 -0.2023959 -0.914409
vn 0.3505597 -0.2023959 -0.914409
vn -0.3505597 -0.2023959 -0.914409
vn -0.3505596 -0.2023958 -0.914409
vn -0.3505597 -0.2023958 -0.914409
vn -0.3505597 0.2023958 -0.914409
vn -0.3505596 0.2023958 -0.914409
vn -0.3505597 0.2023959 -0.914409
vn -0.2943015 0 -0.9557126
vn -0.2943015 0 -0.9557126
vn -0.2943015 0 -0.9557126
vn 0.2943015 0 -0.9557126
vn 0.2943015 0 -0.9557126
vn 0.2943015 0 -0.9557126
vn 0 1 0
vn 0 1 0
vn 0 1 0
vn 0 1 0
vn -0.8660253 0.5000003 0
vn -0.8660253 0.5000003 0
vn -0.8660253 0.5000003 0
vn -0.8660253 0.5000003 0
vn -0.8660253 -0.5000003 0
vn -0.8660253 -0.5000003 0
vn -0.8660253 -0.5000003 0
vn -0.8660253 -0.5000003 0
vn 0 -1 0
vn 0 -1 0
vn 0 -1 0
vn 0 -1 0
vn 0.8660253 -0.5000003 0
vn 0.8660253 -0.5000003 0
vn 0.8660253 -0.5000003 0
vn 0.8660253 -0.5000003 0
vn 0.8660253 0.5000003 0
vn 0.8660253 0.5000003 0
vn 0.8660253 0.5000003 0
vn 0.8660253 0.5000003 0
vn 0 0 1
vn 0 0 1
vn 0 0 1
vn 0 0 1
vn 0 0 1
vn 0 0 1
vn 0 0.4518135 0.8921124
vn 0 0.4518135 0.8921124
vn 0 0.4518135 0.8921124
vn 0 0.4518135 0.8921124
vn -0.4356555 0.2515259 0.8642564
vn -0.4356555 0.251526 0.8642564
vn -0.4607334 0.2701791 0.8454159
vn -0.4879824 0.2768135 0.8277967
vn -0.4788432 -0.2764603 0.833234
vn -0.4788432 -0.2764603 0.833234
vn -0.4788432 -0.2764603 0.833234
vn -0.4788431 -0.2764603 0.833234
vn 0 -0.5529209 0.8332338
vn 0 -0.5529209 0.8332338
vn 0 -0.5529209 0.8332338
vn 0 -0.5529209 0.8332338
vn 0.4788431 -0.2764603 0.8332341
vn 0.4788431 -0.2764603 0.833234
vn 0.4788431 -0.2764603 0.8332341
vn 0.4788431 -0.2764603 0.833234
vn 0.4879825 0.2768135 0.8277967
vn 0.4607335 0.2701791 0.8454159
vn 0.4356555 0.2515259 0.8642564
vn 0.4356555 0.2515259 0.8642564
vn 0 0.6626424 0.748936
vn 0 0.6626424 0.748936
vn 0 0.6626424 0.748936
vn 0 0.6626424 0.748936
vn 0 0.6626424 0.748936
vn 0 0.6626424 0.748936
vn 0 0.6626424 0.748936
vn 0 0.6626424 0.748936
vn -0.5288132 0.2943416 0.7960652
vn -0.5288132 0.2943416 0.7960652
vn -0.4879824 0.2768135 0.8277967
vn -0.5121791 0.2884385 0.8089967
vn -0.4607334 0.2701791 0.8454159
vn -0.4967409 0.2971398 0.8154485
vn -0.5128366 0.3159986 0.7982127
vn -0.5128366 0.3159986 0.7982127
vn 0.5121791 0.2884385 0.8089967
vn 0.5288132 0.2943416 0.796065
vn 0.5288132 0.2943416 0.796065
vn 0.4879825 0.2768135 0.8277967
vn 0.4967409 0.2971398 0.8154485
vn 0.4607335 0.2701791 0.8454159
vn 0.5128366 0.3159985 0.7982127
vn 0.5128366 0.3159985 0.7982127
vn 0 -0.362256 -0.9320787
vn 0 -0.362256 -0.9320787
vn 0 -0.362256 -0.9320787
vn 0 -0.362256 -0.9320787
vn 0 0.362256 -0.9320787
vn 0 0.362256 -0.9320787
vn 0 0.362256 -0.9320787
vn 0 0.362256 -0.9320787
vn 1 0 0
vn 1 0 0
vn 1 0 0
vn 1 0 0
vn 0 -1 0
vn 0 -1 0
vn 0 -1 0
vn 0 -1 0
vn 0 -1 0
vn 0 -1 0
vn -1 0 0
vn -1 0 0
vn -1 0 0
vn -1 0 0
vn 0 1 0
vn 0 1 0
vn 0 1 0
vn 0 1 0
vn 0 1 0
vn 0 1 0
vn 1 0 0
vn 1 0 0
vn 1 0 0
vn 1 0 0
vn -1 0 0
vn -1 0 0
vn -1 0 0
vn -1 0 0
vn 0 0 1
vn 0 0 1
vn 0 0 1
vn 0 0 1
vn 0.1655078 -0.9862084 0
vn 0.1655078 -0.9862084 0
vn 0.1655078 -0.9862084 0
vn 0.1655078 -0.9862084 0
vn 0 0 -1
vn 0 0 -1
vn 0 0 -1
vn 0 0 -1
vn 0 0 -1
vn 0 0 -1
vn 0 0 -1
vn 0 0 -1
vn 0.1655078 0.9862084 0
vn 0.1655078 0.9862084 0
vn 0.1655078 0.9862084 0
vn 0.1655078 0.9862084 0
vn 0 0 1
vn 0 0 1
vn 0 0 1
vn 0 0 1
vn -0.1655078 0.9862084 0
vn -0.1655078 0.9862084 0
vn -0.1655078 0.9862084 0
vn -0.1655078 0.9862084 0
vn -0.1655078 -0.9862084 0
vn -0.1655078 -0.9862084 0
vn -0.1655078 -0.9862084 0
vn -0.1655078 -0.9862084 0
vn -1 0 0
vn -1 0 0
vn -1 0 0
vn -1 0 0
vn 0 1 0
vn 0 1 0
vn 0 1 0
vn 0 1 0
vn 1 0 0
vn 1 0 0
vn 1 0 0
vn 1 0 0
vn 0 -1 0
vn 0 -1 0
vn 0 -1 0
vn 0 -1 0
vn 0 0 1
vn 0 0 1
vn 0 0 1
vn 0 0 1
vn 0 0 -1
vn 0 0 -1
vn 0 0 -1
vn 0 0 -1
g SM_Prop_ToiletStalls_01_Door_01_0
f 3/3/3 2/2/2 1/1/1
f 6/6/6 5/5/5 4/4/4
f 9/9/9 8/8/8 7/7/7
f 12/12/12 11/11/11 10/10/10
f 15/15/15 14/14/14 13/13/13
f 18/18/18 17/17/17 16/16/16
f 21/21/21 20/20/20 19/19/19
f 22/22/22 21/21/21 19/19/19
f 25/25/25 24/24/24 23/23/23
f 26/26/26 25/25/25 23/23/23
f 29/29/29 28/28/28 27/27/27
f 30/30/30 29/29/29 27/27/27
f 33/33/33 32/32/32 31/31/31
f 34/34/34 33/33/33 31/31/31
f 37/37/37 36/36/36 35/35/35
f 38/38/38 37/37/37 35/35/35
f 41/41/41 40/40/40 39/39/39
f 42/42/42 41/41/41 39/39/39
f 45/45/45 44/44/44 43/43/43
f 43/43/43 46/46/46 45/45/45
f 46/46/46 47/47/47 45/45/45
f 46/46/46 48/48/48 47/47/47
f 51/51/51 50/50/50 49/49/49
f 52/52/52 51/51/51 49/49/49
f 55/55/55 54/54/54 53/53/53
f 56/56/56 55/55/55 53/53/53
f 59/59/59 58/58/58 57/57/57
f 60/60/60 59/59/59 57/57/57
f 63/63/63 62/62/62 61/61/61
f 64/64/64 63/63/63 61/61/61
f 67/67/67 66/66/66 65/65/65
f 68/68/68 67/67/67 65/65/65
f 71/71/71 70/70/70 69/69/69
f 72/72/72 71/71/71 69/69/69
f 75/75/75 74/74/74 73/73/73
f 76/76/76 75/75/75 73/73/73
f 79/79/79 78/78/78 77/77/77
f 80/80/80 79/79/79 77/77/77
f 83/83/83 82/82/82 81/81/81
f 84/84/84 83/83/83 81/81/81
f 85/85/85 83/83/83 84/84/84
f 86/86/86 85/85/85 84/84/84
f 87/87/87 85/85/85 86/86/86
f 88/88/88 87/87/87 86/86/86
f 91/91/91 90/90/90 89/89/89
f 90/90/90 92/92/92 89/89/89
f 89/89/89 92/92/92 93/93/93
f 92/92/92 94/94/94 93/93/93
f 93/93/93 94/94/94 95/95/95
f 94/94/94 96/96/96 95/95/95
f 99/99/99 98/98/98 97/97/97
f 100/100/100 99/99/99 97/97/97
f 103/103/103 102/102/102 101/101/101
f 104/104/104 103/103/103 101/101/101
f 107/107/107 106/106/106 105/105/105
f 108/108/108 107/107/107 105/105/105
f 111/111/111 110/110/110 109/109/109
f 110/110/110 112/112/112 109/109/109
f 110/110/110 113/113/113 112/112/112
f 113/113/113 114/114/114 112/112/112
f 117/117/117 116/116/116 115/115/115
f 118/118/118 117/117/117 115/115/115
f 121/121/121 120/120/120 119/119/119
f 120/120/120 122/122/122 119/119/119
f 120/120/120 123/123/123 122/122/122
f 123/123/123 124/124/124 122/122/122
f 127/127/127 126/126/126 125/125/125
f 128/128/128 127/127/127 125/125/125
f 131/131/131 130/130/130 129/129/129
f 132/132/132 131/131/131 129/129/129
f 135/135/135 134/134/134 133/133/133
f 136/136/136 135/135/135 133/133/133
f 139/139/139 138/138/138 137/137/137
f 140/140/140 139/139/139 137/137/137
f 143/143/143 142/142/142 141/141/141
f 144/144/144 143/143/143 141/141/141
f 141/141/141 145/145/145 144/144/144
f 145/145/145 146/146/146 144/144/144
f 145/145/145 147/147/147 146/146/146
f 147/147/147 148/148/148 146/146/146
f 151/151/151 150/150/150 149/149/149
f 152/152/152 151/151/151 149/149/149
f 155/155/155 154/154/154 153/153/153
f 156/156/156 155/155/155 153/153/153
f 159/159/159 158/158/158 157/157/157
f 160/160/160 159/159/159 157/157/157
f 163/163/163 162/162/162 161/161/161
f 164/164/164 163/163/163 161/161/161
f 167/167/167 166/166/166 165/165/165
f 168/168/168 167/167/167 165/165/165
f 171/171/171 170/170/170 169/169/169
f 172/172/172 171/171/171 169/169/169
f 175/175/175 174/174/174 173/173/173
f 176/176/176 175/175/175 173/173/173
f 179/179/179 178/178/178 177/177/177
f 180/180/180 179/179/179 177/177/177
f 183/183/183 182/182/182 181/181/181
f 184/184/184 183/183/183 181/181/181
f 187/187/187 186/186/186 185/185/185
f 188/188/188 187/187/187 185/185/185
