g SM_Prop_Toy_Boat_01
v -0.002366218 0.09889408 0.02163344
v -0.002366218 0.09889408 -0.157811
v -0.002366218 0.3265771 0.02163344
v 0.002366218 0.3265771 0.02163344
v 0.002366218 0.09889408 -0.157811
v 0.002366218 0.09889408 0.02163344
v 0.05190364 0 0.06267798
v 0 -0.01252711 0.06267798
v 0 0 0.1106836
v 0 0 0.1106836
v 0 -0.01252711 0.06267798
v -0.05190364 0 0.06267798
v -0.005020343 0.04206917 0.03735204
v -0.005020343 0.0963112 0.03735204
v 0.005020343 0.0963112 0.03735204
v 0.005020343 0.04206917 0.03735204
v -0.006680609 0.3268384 0.0390123
v -0.006680609 0.3268384 0.0256511
v 0.006680609 0.3268384 0.0256511
v 0.006680609 0.3268384 0.0390123
v -0.005020343 0.0963112 0.02731135
v -0.005020343 0.04206917 0.02731135
v 0.005020343 0.04206917 0.02731135
v 0.005020343 0.0963112 0.02731135
v -0.005020343 0.04206917 0.02731135
v -0.005020343 0.04206917 0.03735204
v 0.005020343 0.04206917 0.03735204
v 0.005020343 0.04206917 0.02731135
v 0.005020343 0.04206917 0.03735204
v 0.005020343 0.0963112 0.03735204
v 0.005020343 0.0963112 0.02731135
v 0.005020343 0.04206917 0.02731135
v -0.005020343 0.04206917 0.02731135
v -0.005020343 0.0963112 0.02731135
v -0.005020343 0.0963112 0.03735204
v -0.005020343 0.04206917 0.03735204
v -0.005020343 0.0963112 0.03735204
v -0.006680609 0.09863281 0.0390123
v 0.006680609 0.09863281 0.0390123
v 0.005020343 0.0963112 0.03735204
v 0.005020343 0.0963112 0.03735204
v 0.006680609 0.09863281 0.0390123
v 0.006680609 0.09863281 0.0256511
v 0.005020343 0.0963112 0.02731135
v 0.005020343 0.0963112 0.02731135
v 0.006680609 0.09863281 0.0256511
v -0.006680609 0.09863281 0.0256511
v -0.005020343 0.0963112 0.02731135
v -0.005020343 0.0963112 0.02731135
v -0.006680609 0.09863281 0.0256511
v -0.006680609 0.09863281 0.0390123
v -0.005020343 0.0963112 0.03735204
v -0.006680609 0.09863281 0.0390123
v -0.006680609 0.3268384 0.0390123
v 0.006680609 0.3268384 0.0390123
v 0.006680609 0.09863281 0.0390123
v 0.006680609 0.09863281 0.0390123
v 0.006680609 0.3268384 0.0390123
v 0.006680609 0.3268384 0.0256511
v 0.006680609 0.09863281 0.0256511
v 0.002366218 0.3265771 0.02163344
v -0.002366218 0.3265771 0.02163344
v -0.002366218 0.09889408 -0.157811
v 0.002366218 0.09889408 -0.157811
v -0.006680609 0.09863281 0.0256511
v -0.006680609 0.3268384 0.0256511
v -0.006680609 0.3268384 0.0390123
v -0.006680609 0.09863281 0.0390123
v 0.006680609 0.09863281 0.0256511
v 0.002366218 0.09889408 0.02163344
v -0.002366218 0.09889408 0.02163344
v -0.006680609 0.09863281 0.0256511
v -0.006680609 0.09863281 0.0256511
v -0.002366218 0.09889408 0.02163344
v -0.002366218 0.3265771 0.02163344
v -0.006680609 0.3268384 0.0256511
v -0.006680609 0.3268384 0.0256511
v -0.002366218 0.3265771 0.02163344
v 0.002366218 0.3265771 0.02163344
v 0.006680609 0.3268384 0.0256511
v 0.006680609 0.3268384 0.0256511
v 0.002366218 0.3265771 0.02163344
v 0.002366218 0.09889408 0.02163344
v 0.006680609 0.09863281 0.0256511
v 0.002366218 0.09889408 0.02163344
v 0.002366218 0.09889408 -0.157811
v -0.002366218 0.09889408 -0.157811
v -0.002366218 0.09889408 0.02163344
v -0.03601943 0.04206916 0.06470849
v -0.02893282 0.04206916 -0.1039668
v 0.02893282 0.04206916 -0.1039668
v 0.03601943 0.04206916 0.06470849
v 0 0.04206916 0.0965877
v -0.05002794 0.05006916 -0.1259668
v -0.05002794 0.03423688 -0.1259668
v 0.05002794 0.03423688 -0.1259668
v 0.05002794 0.05006916 -0.1259668
v 0.05843947 0.05006916 0.07424455
v 0.05002794 0.05006916 -0.1259668
v 0.05002794 0.03423688 -0.1259668
v 0.05843947 0.03423688 0.07424455
v -0.05002794 0.03423688 -0.1259668
v -0.05002794 0.05006916 -0.1259668
v -0.05843947 0.05006916 0.07424455
v -0.05843947 0.03423688 0.07424455
v 0 0.03423688 0.1259668
v 0 0.05006916 0.1259668
v 0.05843947 0.05006916 0.07424455
v 0.05843947 0.03423688 0.07424455
v -0.05843947 0.05006916 0.07424455
v 0 0.05006916 0.1259668
v 0 0.03423688 0.1259668
v -0.05843947 0.03423688 0.07424455
v 0 0 0.1106836
v 0 0.03423688 0.1259668
v 0.05843947 0.03423688 0.07424455
v 0.05190364 0 0.06267798
v 0.05002794 0.03423688 -0.1259668
v 0.04443285 0 -0.1259668
v 0.05190364 0 0.06267798
v 0.05843947 0.03423688 0.07424455
v -0.05002794 0.03423688 -0.1259668
v 0.04443285 0 -0.1259668
v 0.05002794 0.03423688 -0.1259668
v -0.04443285 0 -0.1259668
v 0 -0.01252711 -0.1259668
v -0.04443285 0 -0.1259668
v -0.05002794 0.03423688 -0.1259668
v -0.05843947 0.03423688 0.07424455
v -0.05190364 0 0.06267798
v 0 0.03423688 0.1259668
v 0 0 0.1106836
v -0.05190364 0 0.06267798
v -0.05843947 0.03423688 0.07424455
v 0.04443285 0 -0.1259668
v 0 -0.01252711 -0.1259668
v 0 -0.01252711 0.06267798
v 0.05190364 0 0.06267798
v -0.05190364 0 0.06267798
v 0 -0.01252711 0.06267798
v 0 -0.01252711 -0.1259668
v -0.04443285 0 -0.1259668
v 0.05843947 0.05006916 0.07424455
v 0.04009579 0.05006916 0.06644233
v 0.0327683 0.05006916 -0.1079667
v 0.05002794 0.05006916 -0.1259668
v -0.0327683 0.05006916 -0.1079667
v -0.05002794 0.05006916 -0.1259668
v -0.04009579 0.05006916 0.06644233
v -0.05843947 0.05006916 0.07424455
v 0 0.05006916 0.1259668
v 0.04009579 0.05006916 0.06644233
v 0.05843947 0.05006916 0.07424455
v 0 0.05006916 0.1019293
v -0.05843947 0.05006916 0.07424455
v -0.04009579 0.05006916 0.06644233
v 0.04009579 0.05006916 0.06644233
v 0.03601943 0.04206916 0.06470849
v 0.02893282 0.04206916 -0.1039668
v 0.0327683 0.05006916 -0.1079667
v 0.0327683 0.05006916 -0.1079667
v 0.02893282 0.04206916 -0.1039668
v -0.02893282 0.04206916 -0.1039668
v -0.0327683 0.05006916 -0.1079667
v -0.0327683 0.05006916 -0.1079667
v -0.02893282 0.04206916 -0.1039668
v -0.03601943 0.04206916 0.06470849
v -0.04009579 0.05006916 0.06644233
v 0 0.05006916 0.1019293
v 0 0.04206916 0.0965877
v 0.03601943 0.04206916 0.06470849
v 0.04009579 0.05006916 0.06644233
v -0.04009579 0.05006916 0.06644233
v -0.03601943 0.04206916 0.06470849
v 0 0.04206916 0.0965877
v 0 0.05006916 0.1019293
v -0.000306412 0.1011143 0.02731135
v -0.000306412 0.1011143 -0.1606244
v 0.005968052 0.09483986 -0.1606244
v 0.005968052 0.09483986 0.02731135
v -0.000306412 0.1011143 -0.1606244
v -0.005968047 0.0954527 -0.1606244
v 0.0003064164 0.08917823 -0.1606244
v 0.005968052 0.09483986 -0.1606244
v -0.005968047 0.0954527 -0.1606244
v -0.005968047 0.0954527 0.02731135
v 0.0003064164 0.08917823 0.02731135
v 0.0003064164 0.08917823 -0.1606244
v -0.005968047 0.0954527 0.02731135
v -0.000306412 0.1011143 0.02731135
v 0.005968052 0.09483986 0.02731135
v 0.0003064164 0.08917823 0.02731135
v 0.005968052 0.09483986 0.02731135
v 0.005968052 0.09483986 -0.1606244
v 0.0003064164 0.08917823 -0.1606244
v 0.0003064164 0.08917823 0.02731135
v -0.005968047 0.0954527 0.02731135
v -0.005968047 0.0954527 -0.1606244
v -0.000306412 0.1011143 -0.1606244
v -0.000306412 0.1011143 0.02731135
vt 0.03825769 0.02260569
vt 0.03740877 0.02253985
vt 0.03830227 0.02190083
vt 0.03830087 0.02190417
vt 0.03740072 0.02254751
vt 0.03825608 0.02261439
vt 0.005271435 0.3286709
vt 0.005168736 0.3287285
vt 0.005008101 0.328675
vt 0.005008101 0.328675
vt 0.005168736 0.3287285
vt 0.005052269 0.3286866
vt 0.005425274 0.3281978
vt 0.005435765 0.3272315
vt 0.005400151 0.3272498
vt 0.00538978 0.3282261
vt 0.0384008 0.02189898
vt 0.03832594 0.02189702
vt 0.03832263 0.02190632
vt 0.0383994 0.0219084
vt 0.005252242 0.327226
vt 0.005242854 0.3281893
vt 0.005205572 0.3282174
vt 0.00521481 0.3272442
vt 0.005242854 0.3281893
vt 0.005425274 0.3281978
vt 0.00538978 0.3282261
vt 0.005205572 0.3282174
vt 0.00538978 0.3282261
vt 0.005400151 0.3272498
vt 0.00521481 0.3272442
vt 0.005205572 0.3282174
vt 0.005242854 0.3281893
vt 0.005252242 0.327226
vt 0.005435765 0.3272315
vt 0.005425274 0.3281978
vt 0.03833643 0.02262643
vt 0.03834653 0.02260581
vt 0.038344 0.02263075
vt 0.03833434 0.02264541
vt 0.03833434 0.02264541
vt 0.038344 0.02263075
vt 0.03827509 0.02262533
vt 0.03828287 0.0226413
vt 0.03828287 0.0226413
vt 0.03827509 0.02262533
vt 0.03827918 0.02260062
vt 0.03828579 0.02262247
vt 0.03828579 0.02262247
vt 0.03827918 0.02260062
vt 0.03834653 0.02260581
vt 0.03833643 0.02262643
vt 0.03834653 0.02260581
vt 0.0384008 0.02189898
vt 0.0383994 0.0219084
vt 0.038344 0.02263075
vt 0.038344 0.02263075
vt 0.0383994 0.0219084
vt 0.03832263 0.02190632
vt 0.03827509 0.02262533
vt 0.03830087 0.02190417
vt 0.03830227 0.02190083
vt 0.03740877 0.02253985
vt 0.03740072 0.02254751
vt 0.03827918 0.02260062
vt 0.03832594 0.02189702
vt 0.0384008 0.02189898
vt 0.03834653 0.02260581
vt 0.03827509 0.02262533
vt 0.03825608 0.02261439
vt 0.03825769 0.02260569
vt 0.03827918 0.02260062
vt 0.03827918 0.02260062
vt 0.03825769 0.02260569
vt 0.03830227 0.02190083
vt 0.03832594 0.02189702
vt 0.03832594 0.02189702
vt 0.03830227 0.02190083
vt 0.03830087 0.02190417
vt 0.03832263 0.02190632
vt 0.03832263 0.02190632
vt 0.03830087 0.02190417
vt 0.03825608 0.02261439
vt 0.03827509 0.02262533
vt 0.03825608 0.02261439
vt 0.03740072 0.02254751
vt 0.03740877 0.02253985
vt 0.03825769 0.02260569
vt 0.0147438 0.0249548
vt 0.01498783 0.02578494
vt 0.01537761 0.02570918
vt 0.01517075 0.02488273
vt 0.01492226 0.02478492
vt 0.005619079 0.02518472
vt 0.005618125 0.0252617
vt 0.005955338 0.02511603
vt 0.005959034 0.02504531
vt 0.005349159 0.02482027
vt 0.005959034 0.02504531
vt 0.005955338 0.02511603
vt 0.005350292 0.02488038
vt 0.005618125 0.0252617
vt 0.005619079 0.02518472
vt 0.004958987 0.02493116
vt 0.004963279 0.02499658
vt 0.005037665 0.02488464
vt 0.005034328 0.02482435
vt 0.005349159 0.02482027
vt 0.005350292 0.02488038
vt 0.004958987 0.02493116
vt 0.005034328 0.02482435
vt 0.005037665 0.02488464
vt 0.004963279 0.02499658
vt 0.005008101 0.328675
vt 0.004958987 0.3285416
vt 0.005246043 0.3285421
vt 0.005271435 0.3286709
vt 0.005959034 0.3285404
vt 0.005952656 0.3286851
vt 0.005271435 0.3286709
vt 0.005246043 0.3285421
vt 0.005822778 0.3285383
vt 0.005952656 0.3286851
vt 0.005959034 0.3285404
vt 0.005831689 0.3287021
vt 0.005895972 0.3287493
vt 0.005831689 0.3287021
vt 0.005822778 0.3285383
vt 0.004995167 0.3285401
vt 0.005052269 0.3286866
vt 0.004958987 0.3285416
vt 0.005008101 0.328675
vt 0.005052269 0.3286866
vt 0.004995167 0.3285401
vt 0.005952656 0.3286851
vt 0.005895972 0.3287493
vt 0.005168736 0.3287285
vt 0.005271435 0.3286709
vt 0.005052269 0.3286866
vt 0.005168736 0.3287285
vt 0.005895972 0.3287493
vt 0.005831689 0.3287021
vt 0.005349159 0.02482027
vt 0.005313516 0.02484348
vt 0.00583759 0.02504349
vt 0.005959034 0.02504531
vt 0.005614966 0.02513131
vt 0.005619079 0.02518472
vt 0.005045772 0.02492055
vt 0.004958987 0.02493116
vt 0.005034328 0.02482435
vt 0.005313516 0.02484348
vt 0.005349159 0.02482027
vt 0.005093038 0.0248464
vt 0.004958987 0.02493116
vt 0.005045772 0.02492055
vt 0.005313516 0.02484348
vt 0.005306184 0.02487996
vt 0.005809426 0.02507895
vt 0.00583759 0.02504349
vt 0.00583759 0.02504349
vt 0.005809426 0.02507895
vt 0.005613655 0.02515757
vt 0.005614966 0.02513131
vt 0.005614966 0.02513131
vt 0.005613655 0.02515757
vt 0.005066574 0.02495107
vt 0.005045772 0.02492055
vt 0.005093038 0.0248464
vt 0.00510788 0.0248827
vt 0.005306184 0.02487996
vt 0.005313516 0.02484348
vt 0.005045772 0.02492055
vt 0.005066574 0.02495107
vt 0.00510788 0.0248827
vt 0.005093038 0.0248464
vt 0.004911691 0.3271304
vt 0.00392741 0.3271124
vt 0.003912449 0.3271167
vt 0.004912525 0.3271352
vt 0.00392741 0.3271124
vt 0.003928304 0.3271533
vt 0.003913522 0.3271582
vt 0.003912449 0.3271167
vt 0.003928304 0.3271533
vt 0.004910648 0.3271739
vt 0.004911482 0.3271796
vt 0.003913522 0.3271582
vt 0.004910648 0.3271739
vt 0.004911691 0.3271304
vt 0.004912525 0.3271352
vt 0.004911482 0.3271796
vt 0.004912525 0.3271352
vt 0.003912449 0.3271167
vt 0.003913522 0.3271582
vt 0.004911482 0.3271796
vt 0.004910648 0.3271739
vt 0.003928304 0.3271533
vt 0.00392741 0.3271124
vt 0.004911691 0.3271304
vn -1 0 0
vn -1 0 0
vn -1 0 0
vn 1 0 0
vn 1 0 0
vn 1 0 0
vn 0.2274139 -0.9422452 0.2458799
vn 0.2274139 -0.9422452 0.2458799
vn 0.2274139 -0.9422452 0.2458799
vn -0.2274139 -0.9422452 0.2458799
vn -0.2274139 -0.9422452 0.2458799
vn -0.2274139 -0.9422452 0.2458799
vn 0 0 1
vn 0 0 1
vn 0 0 1
vn 0 0 1
vn 0 1 0
vn 0 1 0
vn 0 1 0
vn 0 1 0
vn 0 0 -1
vn 0 0 -1
vn 0 0 -1
vn 0 0 -1
vn 0 -1 0
vn 0 -1 0
vn 0 -1 0
vn 0 -1 0
vn 1 0 0
vn 1 0 0
vn 1 0 0
vn 1 0 0
vn -1 0 0
vn -1 0 0
vn -1 0 0
vn -1 0 0
vn 0 -0.5816965 0.813406
vn 0 -0.5816965 0.813406
vn 0 -0.5816965 0.813406
vn 0 -0.5816965 0.813406
vn 0.813406 -0.5816963 0
vn 0.813406 -0.5816963 0
vn 0.813406 -0.5816963 0
vn 0.813406 -0.5816963 0
vn 0 -0.5816942 -0.8134075
vn 0 -0.5816942 -0.8134075
vn 0 -0.5816942 -0.8134075
vn 0 -0.5816942 -0.8134075
vn -0.813406 -0.5816963 0
vn -0.813406 -0.5816963 0
vn -0.813406 -0.5816963 0
vn -0.813406 -0.5816963 0
vn 0 0 1
vn 0 0 1
vn 0 0 1
vn 0 0 1
vn 1 0 0
vn 1 0 0
vn 1 0 0
vn 1 0 0
vn 0 0.7941979 -0.6076592
vn 0 0.7941979 -0.6076592
vn 0 0.7941979 -0.6076592
vn 0 0.7941979 -0.6076592
vn -1 0 0
vn -1 0 0
vn -1 0 0
vn -1 0 0
vn 0 -0.9978922 -0.06489322
vn 0 -0.9978922 -0.06489322
vn 0 -0.9978922 -0.06489322
vn 0 -0.9978922 -0.06489322
vn -0.6814924 0 -0.7318252
vn -0.6814924 0 -0.7318252
vn -0.6814924 0 -0.7318252
vn -0.6814924 0 -0.7318252
vn 0 0.997892 -0.06489826
vn 0 0.997892 -0.06489826
vn 0 0.997892 -0.06489826
vn 0 0.997892 -0.06489826
vn 0.6814924 0 -0.7318252
vn 0.6814924 0 -0.7318252
vn 0.6814924 0 -0.7318252
vn 0.6814924 0 -0.7318252
vn 0 -1 0
vn 0 -1 0
vn 0 -1 0
vn 0 -1 0
vn 0 1 0
vn 0 1 0
vn 0 1 0
vn 0 1 0
vn 0 1 0
vn 0 0 -1
vn 0 0 -1
vn 0 0 -1
vn 0 0 -1
vn 0.9991186 0 -0.04197623
vn 0.9991186 0 -0.04197623
vn 0.9991186 0 -0.04197623
vn 0.9991186 0 -0.04197623
vn -0.9991186 0 -0.04197623
vn -0.9991186 0 -0.04197623
vn -0.9991186 0 -0.04197623
vn -0.9991186 0 -0.04197623
vn 0.6627591 0 0.7488328
vn 0.6627591 0 0.7488328
vn 0.6627591 0 0.7488328
vn 0.6627591 0 0.7488328
vn -0.6627591 0 0.7488328
vn -0.6627591 0 0.7488328
vn -0.6627591 0 0.7488328
vn -0.6627591 0 0.7488328
vn 0.6319021 -0.3344697 0.6991636
vn 0.6319021 -0.3344697 0.6991636
vn 0.6319021 -0.3344697 0.6991636
vn 0.6319021 -0.3344697 0.6991636
vn 0.985015 -0.1677108 -0.04023165
vn 0.985015 -0.1677108 -0.04023165
vn 0.985015 -0.1677108 -0.04023165
vn 0.985015 -0.1677108 -0.04023165
vn 0 0 -1
vn 0 0 -1
vn 0 0 -1
vn 0 0 -1
vn 0 0 -1
vn -0.985015 -0.1677108 -0.04023165
vn -0.985015 -0.1677108 -0.04023165
vn -0.985015 -0.1677108 -0.04023165
vn -0.985015 -0.1677108 -0.04023165
vn -0.6319021 -0.3344697 0.6991636
vn -0.6319021 -0.3344697 0.6991636
vn -0.6319021 -0.3344697 0.6991636
vn -0.6319021 -0.3344697 0.6991636
vn 0.2516941 -0.967794 -0.004983848
vn 0.2516941 -0.967794 -0.004983848
vn 0.2516941 -0.967794 -0.004983848
vn 0.2516941 -0.967794 -0.004983848
vn -0.2516941 -0.967794 -0.004983848
vn -0.2516941 -0.967794 -0.004983848
vn -0.2516941 -0.967794 -0.004983848
vn -0.2516941 -0.967794 -0.004983848
vn 0 1 0
vn 0 1 0
vn 0 1 0
vn 0 1 0
vn 0 1 0
vn 0 1 0
vn 0 1 0
vn 0 1 0
vn 0 1 1.345129E-07
vn 0 1 1.345129E-07
vn 0 1 1.345129E-07
vn 0 1 1.345129E-07
vn 0 1 1.345129E-07
vn 0 1 1.345129E-07
vn -0.8936391 0.447213 0.03754473
vn -0.8936391 0.447213 0.03754473
vn -0.8936391 0.447213 0.03754473
vn -0.8936391 0.447213 0.03754473
vn 0 0.4472134 0.8944273
vn 0 0.4472134 0.8944273
vn 0 0.4472134 0.8944273
vn 0 0.4472134 0.8944273
vn 0.8936391 0.447213 0.03754473
vn 0.8936391 0.447213 0.03754473
vn 0.8936391 0.447213 0.03754473
vn 0.8936391 0.447213 0.03754473
vn -0.5927898 0.4472133 -0.6697764
vn -0.5927898 0.4472133 -0.6697764
vn -0.5927898 0.4472133 -0.6697764
vn -0.5927898 0.4472133 -0.6697764
vn 0.5927897 0.4472133 -0.6697766
vn 0.5927897 0.4472133 -0.6697766
vn 0.5927897 0.4472133 -0.6697766
vn 0.5927897 0.4472133 -0.6697766
vn 0.7071071 0.7071064 0
vn 0.7071071 0.7071064 0
vn 0.7071071 0.7071064 0
vn 0.7071071 0.7071064 0
vn 0 0 -1
vn 0 0 -1
vn 0 0 -1
vn 0 0 -1
vn -0.7071066 -0.7071069 0
vn -0.7071066 -0.7071069 0
vn -0.7071066 -0.7071069 0
vn -0.7071066 -0.7071069 0
vn 0 0 1
vn 0 0 1
vn 0 0 1
vn 0 0 1
vn 0.7071064 -0.7071071 0
vn 0.7071064 -0.7071071 0
vn 0.7071064 -0.7071071 0
vn 0.7071064 -0.7071071 0
vn -0.7071071 0.7071065 0
vn -0.7071071 0.7071065 0
vn -0.7071071 0.7071065 0
vn -0.7071071 0.7071065 0
g SM_Prop_Toy_Boat_01_0
f 3/3/3 2/2/2 1/1/1
f 6/6/6 5/5/5 4/4/4
f 9/9/9 8/8/8 7/7/7
f 12/12/12 11/11/11 10/10/10
f 15/15/15 14/14/14 13/13/13
f 16/16/16 15/15/15 13/13/13
f 19/19/19 18/18/18 17/17/17
f 20/20/20 19/19/19 17/17/17
f 23/23/23 22/22/22 21/21/21
f 24/24/24 23/23/23 21/21/21
f 27/27/27 26/26/26 25/25/25
f 28/28/28 27/27/27 25/25/25
f 31/31/31 30/30/30 29/29/29
f 32/32/32 31/31/31 29/29/29
f 35/35/35 34/34/34 33/33/33
f 36/36/36 35/35/35 33/33/33
f 39/39/39 38/38/38 37/37/37
f 40/40/40 39/39/39 37/37/37
f 43/43/43 42/42/42 41/41/41
f 44/44/44 43/43/43 41/41/41
f 47/47/47 46/46/46 45/45/45
f 48/48/48 47/47/47 45/45/45
f 51/51/51 50/50/50 49/49/49
f 52/52/52 51/51/51 49/49/49
f 55/55/55 54/54/54 53/53/53
f 56/56/56 55/55/55 53/53/53
f 59/59/59 58/58/58 57/57/57
f 60/60/60 59/59/59 57/57/57
f 63/63/63 62/62/62 61/61/61
f 64/64/64 63/63/63 61/61/61
f 67/67/67 66/66/66 65/65/65
f 68/68/68 67/67/67 65/65/65
f 71/71/71 70/70/70 69/69/69
f 72/72/72 71/71/71 69/69/69
f 75/75/75 74/74/74 73/73/73
f 76/76/76 75/75/75 73/73/73
f 79/79/79 78/78/78 77/77/77
f 80/80/80 79/79/79 77/77/77
f 83/83/83 82/82/82 81/81/81
f 84/84/84 83/83/83 81/81/81
f 87/87/87 86/86/86 85/85/85
f 88/88/88 87/87/87 85/85/85
f 91/91/91 90/90/90 89/89/89
f 92/92/92 91/91/91 89/89/89
f 92/92/92 89/89/89 93/93/93
f 96/96/96 95/95/95 94/94/94
f 97/97/97 96/96/96 94/94/94
f 100/100/100 99/99/99 98/98/98
f 101/101/101 100/100/100 98/98/98
f 104/104/104 103/103/103 102/102/102
f 105/105/105 104/104/104 102/102/102
f 108/108/108 107/107/107 106/106/106
f 109/109/109 108/108/108 106/106/106
f 112/112/112 111/111/111 110/110/110
f 113/113/113 112/112/112 110/110/110
f 116/116/116 115/115/115 114/114/114
f 117/117/117 116/116/116 114/114/114
f 120/120/120 119/119/119 118/118/118
f 121/121/121 120/120/120 118/118/118
f 124/124/124 123/123/123 122/122/122
f 123/123/123 125/125/125 122/122/122
f 123/123/123 126/126/126 125/125/125
f 129/129/129 128/128/128 127/127/127
f 130/130/130 129/129/129 127/127/127
f 133/133/133 132/132/132 131/131/131
f 134/134/134 133/133/133 131/131/131
f 137/137/137 136/136/136 135/135/135
f 138/138/138 137/137/137 135/135/135
f 141/141/141 140/140/140 139/139/139
f 142/142/142 141/141/141 139/139/139
f 145/145/145 144/144/144 143/143/143
f 146/146/146 145/145/145 143/143/143
f 147/147/147 145/145/145 146/146/146
f 148/148/148 147/147/147 146/146/146
f 149/149/149 147/147/147 148/148/148
f 150/150/150 149/149/149 148/148/148
f 153/153/153 152/152/152 151/151/151
f 152/152/152 154/154/154 151/151/151
f 151/151/151 154/154/154 155/155/155
f 154/154/154 156/156/156 155/155/155
f 159/159/159 158/158/158 157/157/157
f 160/160/160 159/159/159 157/157/157
f 163/163/163 162/162/162 161/161/161
f 164/164/164 163/163/163 161/161/161
f 167/167/167 166/166/166 165/165/165
f 168/168/168 167/167/167 165/165/165
f 171/171/171 170/170/170 169/169/169
f 172/172/172 171/171/171 169/169/169
f 175/175/175 174/174/174 173/173/173
f 176/176/176 175/175/175 173/173/173
f 179/179/179 178/178/178 177/177/177
f 180/180/180 179/179/179 177/177/177
f 183/183/183 182/182/182 181/181/181
f 184/184/184 183/183/183 181/181/181
f 187/187/187 186/186/186 185/185/185
f 188/188/188 187/187/187 185/185/185
f 191/191/191 190/190/190 189/189/189
f 192/192/192 191/191/191 189/189/189
f 195/195/195 194/194/194 193/193/193
f 196/196/196 195/195/195 193/193/193
f 199/199/199 198/198/198 197/197/197
f 200/200/200 199/199/199 197/197/197
