g SM_Prop_Toy_Toolbox_01_Bolt
v 0.01077287 0.009841834 -0.04003418
v -0.003136854 0.01425049 -0.04003418
v -0.01390972 0.004408656 -0.04003418
v -0.01077286 -0.009841822 -0.04003418
v 0.003136845 -0.01425047 -0.04003418
v 0.01390972 -0.004408654 -0.04003418
v 0.02508891 0.02292066 0.03398249
v -0.007305412 0.03318797 0.03398249
v -0.03239432 0.01026731 0.03398249
v -0.02508892 -0.02292064 0.0339825
v 0.007305393 -0.03318795 0.0339825
v 0.03239433 -0.01026731 0.03398249
v 0.02508891 0.02292066 0.01514797
v 0.03239433 -0.01026731 0.01514797
v 0.007305393 -0.03318795 0.01514797
v -0.02508892 -0.02292064 0.01514797
v -0.03239432 0.01026731 0.01514797
v -0.007305412 0.03318797 0.01514797
v 0.01077287 0.00984183 0.0143751
v -0.003136854 0.01425049 0.0143751
v -0.01390972 0.004408651 0.0143751
v -0.01077286 -0.009841817 0.0143751
v 0.003136845 -0.01425047 0.0143751
v 0.01390972 -0.004408658 0.0143751
v 0.02822876 0.008656498 0.02824855
v 0.02925451 0.003996612 0.02824855
v 0.02947208 0.003008209 0.03398249
v 0.02801115 0.009645134 0.03398249
v -0.02822877 -0.008656467 0.02824855
v -0.02925452 -0.003996595 0.02824855
v -0.02947209 -0.003008207 0.03398249
v -0.02801116 -0.009645131 0.03398249
v -0.003136854 0.01425049 0.0143751
v 0.003136845 -0.01425047 0.0143751
v 0.007305393 -0.03318795 0.01514797
v 0.02508891 0.02292066 0.01514797
v 0.01077287 0.00984183 0.0143751
v 0.007305393 -0.03318795 0.01514797
v 0.007305393 -0.03318795 0.0339825
v 0.03239433 -0.01026731 0.03398249
v 0.03239433 -0.01026731 0.01514797
v -0.02508892 -0.02292064 0.01514797
v -0.02508892 -0.02292064 0.0339825
v 0.007305393 -0.03318795 0.0339825
v 0.007305393 -0.03318795 0.01514797
v -0.007305412 0.03318797 0.01514797
v -0.03239432 0.01026731 0.01514797
v 0.02508891 0.02292066 0.01514797
v -0.007305412 0.03318797 0.03398249
v -0.007305412 0.03318797 0.01514797
v 0.01077287 0.009841834 -0.04003418
v 0.01077287 0.00984183 0.0143751
v -0.003136854 0.01425049 0.0143751
v -0.003136854 0.01425049 -0.04003418
v -0.003136854 0.01425049 -0.04003418
v -0.003136854 0.01425049 0.0143751
v -0.01390972 0.004408651 0.0143751
v -0.01390972 0.004408656 -0.04003418
v -0.01390972 0.004408656 -0.04003418
v -0.01390972 0.004408651 0.0143751
v -0.01077286 -0.009841817 0.0143751
v -0.01077286 -0.009841822 -0.04003418
v -0.01077286 -0.009841817 0.0143751
v 0.003136845 -0.01425047 0.0143751
v 0.003136845 -0.01425047 -0.04003418
v 0.003136845 -0.01425047 0.0143751
v 0.01390972 -0.004408658 0.0143751
v 0.01390972 -0.004408654 -0.04003418
v 0.01390972 -0.004408654 -0.04003418
v 0.01390972 -0.004408658 0.0143751
v 0.01077287 0.00984183 0.0143751
v 0.01077287 0.009841834 -0.04003418
v -0.01077286 -0.009841822 -0.04003418
v 0.003136845 -0.01425047 -0.04003418
v 0.02508891 0.02292066 0.03398249
v -0.007305412 0.03318797 0.03398249
v -0.03239432 0.01026731 0.03398249
v 0.02947208 0.003008209 0.03398249
v -0.02801116 -0.009645131 0.03398249
v 0.02925451 0.003996612 0.02824855
v -0.02822877 -0.008656467 0.02824855
v 0.02822876 0.008656498 0.02824855
v -0.02925452 -0.003996595 0.02824855
v -0.02947209 -0.003008207 0.03398249
v 0.02801115 0.009645134 0.03398249
v 0.02822876 0.008656498 0.02824855
v 0.02801115 0.009645134 0.03398249
v 0.02508891 0.02292066 0.03398249
v 0.02508891 0.02292066 0.01514797
v -0.02822877 -0.008656467 0.02824855
v -0.02801116 -0.009645131 0.03398249
v -0.02508892 -0.02292064 0.0339825
v -0.02508892 -0.02292064 0.01514797
v 0.03239433 -0.01026731 0.01514797
v 0.02925451 0.003996612 0.02824855
v 0.03239433 -0.01026731 0.03398249
v 0.02947208 0.003008209 0.03398249
v -0.03239432 0.01026731 0.01514797
v -0.03239432 0.01026731 0.03398249
v -0.02947209 -0.003008207 0.03398249
v -0.02925452 -0.003996595 0.02824855
vt 0.005990386 0.3251717
vt 0.006010771 0.325173
vt 0.006009459 0.3254048
vt 0.005987138 0.3256263
vt 0.005967647 0.3256094
vt 0.005969554 0.3253866
vt 0.02604048 0.04442606
vt 0.0260049 0.04458349
vt 0.02599968 0.04504967
vt 0.02603118 0.04529342
vt 0.02606292 0.04509606
vt 0.02606709 0.04469072
vt 0.02631684 0.04442684
vt 0.02632619 0.0446915
vt 0.02632357 0.04509689
vt 0.02631111 0.04529435
vt 0.02629991 0.0450506
vt 0.02630307 0.04458432
vt 0.02632661 0.04467214
vt 0.02632125 0.04474506
vt 0.02632 0.04493706
vt 0.02632423 0.04504462
vt 0.02632935 0.04496433
vt 0.02633052 0.04478351
vt 0.02613412 0.04454426
vt 0.0261371 0.04458137
vt 0.02605687 0.04458893
vt 0.02605154 0.04453609
vt 0.02610593 0.0451931
vt 0.02610238 0.04515892
vt 0.02601279 0.04515131
vt 0.02601911 0.04519998
vt 0.02632125 0.04474506
vt 0.02632935 0.04496433
vt 0.02632357 0.04509689
vt 0.02631684 0.04442684
vt 0.02632661 0.04467214
vt 0.02632357 0.04509689
vt 0.02606292 0.04509606
vt 0.02606709 0.04469072
vt 0.02632619 0.0446915
vt 0.02631111 0.04529435
vt 0.02603118 0.04529342
vt 0.02606292 0.04509606
vt 0.02632357 0.04509689
vt 0.02630307 0.04458432
vt 0.02629991 0.0450506
vt 0.02631684 0.04442684
vt 0.0260049 0.04458349
vt 0.02630307 0.04458432
vt 0.005990386 0.3251717
vt 0.005044281 0.3251321
vt 0.005031049 0.325132
vt 0.006010771 0.325173
vt 0.006010771 0.325173
vt 0.005031049 0.325132
vt 0.005013764 0.3253592
vt 0.006009459 0.3254048
vt 0.006009459 0.3254048
vt 0.005013764 0.3253592
vt 0.005010724 0.3255777
vt 0.005987138 0.3256263
vt 0.005010724 0.3255777
vt 0.005024672 0.3255628
vt 0.005967647 0.3256094
vt 0.005024672 0.3255628
vt 0.005040884 0.3253442
vt 0.005969554 0.3253866
vt 0.005969554 0.3253866
vt 0.005040884 0.3253442
vt 0.005044281 0.3251321
vt 0.005990386 0.3251717
vt 0.005987138 0.3256263
vt 0.005967647 0.3256094
vt 0.02604048 0.04442606
vt 0.0260049 0.04458349
vt 0.02599968 0.04504967
vt 0.02605687 0.04458893
vt 0.02601911 0.04519998
vt 0.0261371 0.04458137
vt 0.02610593 0.0451931
vt 0.02613412 0.04454426
vt 0.02610238 0.04515892
vt 0.02601279 0.04515131
vt 0.02605154 0.04453609
vt 0.02613412 0.04454426
vt 0.02605154 0.04453609
vt 0.02604048 0.04442606
vt 0.02631684 0.04442684
vt 0.02610593 0.0451931
vt 0.02601911 0.04519998
vt 0.02603118 0.04529342
vt 0.02631111 0.04529435
vt 0.02632619 0.0446915
vt 0.0261371 0.04458137
vt 0.02606709 0.04469072
vt 0.02605687 0.04458893
vt 0.02629991 0.0450506
vt 0.02599968 0.04504967
vt 0.02601279 0.04515131
vt 0.02610238 0.04515892
vn 0 0 -1
vn 0 0 -1
vn 0 0 -1
vn -0.9766192 -0.2149765 0
vn -0.3021351 -0.9532651 0
vn 0 0 -1
vn 0.3021351 0.9532651 0
vn -0.6744842 0.7382892 0
vn -0.6744842 0.7382892 0
vn 0 0 1
vn 0 0 1
vn 0 0 1
vn 0.01389072 0.04382651 -0.9989426
vn 0.0310095 -0.03394303 -0.9989426
vn -0.01389071 -0.04382651 -0.9989426
vn -0.04490025 -0.009883557 -0.9989426
vn -0.03100954 0.03394299 -0.9989426
vn 0.01389072 0.04382652 -0.9989426
vn 0.01389072 0.04382652 -0.9989426
vn 0.01389072 0.04382652 -0.9989426
vn -0.03100954 0.03394299 -0.9989426
vn -0.04490025 -0.009883556 -0.9989426
vn -0.01389071 -0.0438265 -0.9989426
vn 0.0310095 -0.03394303 -0.9989426
vn 0 0 1
vn -0.2117003 0.9617499 0.1738397
vn 0 0 1
vn 0 0 1
vn -0.2117003 0.9617499 0.1738397
vn 0 0 1
vn 0 0 1
vn 0 0 1
vn -0.03100954 0.03394299 -0.9989426
vn 0.0310095 -0.03394303 -0.9989426
vn 0.0310095 -0.03394304 -0.9989426
vn 0.04490025 0.009883562 -0.9989426
vn 0.04490025 0.009883562 -0.9989426
vn 0.6744835 -0.7382899 0
vn 0.6744835 -0.7382899 0
vn 0.6744835 -0.7382899 0
vn 0.6744835 -0.7382899 0
vn -0.3021352 -0.9532651 0
vn -0.3021352 -0.9532651 0
vn -0.3021352 -0.9532651 0
vn -0.3021352 -0.9532651 0
vn -0.6744842 0.7382892 0
vn -0.6744842 0.7382892 0
vn 0.3021351 0.9532651 0
vn 0.3021351 0.9532651 0
vn 0.3021351 0.9532651 0
vn 0.3021356 0.953265 0
vn 0.3021356 0.953265 0
vn 0.3021356 0.953265 0
vn 0.3021356 0.953265 0
vn -0.6744839 0.7382895 0
vn -0.6744839 0.7382895 0
vn -0.6744839 0.7382895 0
vn -0.6744839 0.7382895 0
vn -0.9766192 -0.2149765 0
vn -0.9766192 -0.2149765 0
vn -0.9766192 -0.2149765 0
vn -0.3021351 -0.9532651 0
vn -0.3021351 -0.9532651 0
vn -0.3021351 -0.9532651 0
vn 0.6744826 -0.7382907 0
vn 0.6744826 -0.7382907 0
vn 0.6744826 -0.7382907 0
vn 0.6744826 -0.7382907 0
vn 0.9766193 0.2149759 0
vn 0.9766193 0.2149759 0
vn 0.9766193 0.2149759 0
vn 0.9766193 0.2149759 0
vn 0 0 -1
vn 0 0 -1
vn 0 0 1
vn 0 0 1
vn 0 0 1
vn -0.2117003 0.9617499 0.1738397
vn -0.2117003 0.9617499 0.1738397
vn 0 0 1
vn 0 0 1
vn 0.2117005 -0.9617505 0.1738361
vn 0.2117005 -0.9617505 0.1738361
vn 0.2117005 -0.9617505 0.1738361
vn 0.2117005 -0.9617505 0.1738361
vn 0.9766195 0.2149751 0
vn 0.9766195 0.2149751 0
vn 0.9766195 0.2149751 0
vn 0.9766195 0.2149751 0
vn -0.9766195 -0.2149752 0
vn -0.9766195 -0.2149753 0
vn -0.9766195 -0.2149753 0
vn -0.9766195 -0.2149753 0
vn 0.9766193 0.2149761 0
vn 0.9766193 0.2149762 0
vn 0.9766192 0.2149765 0
vn 0.9766192 0.2149765 0
vn -0.9766194 -0.2149755 0
vn -0.9766194 -0.2149755 0
vn -0.9766194 -0.2149755 0
vn -0.9766194 -0.2149755 0
g SM_Prop_Toy_Toolbox_01_Bolt_0
f 18/18/18 13/13/13 19/19/19
f 20/20/20 18/18/18 19/19/19
f 17/17/17 18/18/18 33/33/33
f 21/21/21 17/17/17 33/33/33
f 16/16/16 17/17/17 21/21/21
f 22/22/22 16/16/16 21/21/21
f 15/15/15 16/16/16 22/22/22
f 23/23/23 15/15/15 22/22/22
f 14/14/14 35/35/35 34/34/34
f 24/24/24 14/14/14 34/34/34
f 36/36/36 14/14/14 24/24/24
f 37/37/37 36/36/36 24/24/24
f 3/3/3 2/2/2 1/1/1
f 6/6/6 3/3/3 1/1/1
f 6/6/6 74/74/74 3/3/3
f 74/74/74 73/73/73 3/3/3
f 11/11/11 12/12/12 27/27/27
f 27/27/27 32/32/32 11/11/11
f 32/32/32 10/10/10 11/11/11
f 40/40/40 39/39/39 38/38/38
f 41/41/41 40/40/40 38/38/38
f 44/44/44 43/43/43 42/42/42
f 45/45/45 44/44/44 42/42/42
f 9/9/9 8/8/8 46/46/46
f 47/47/47 9/9/9 46/46/46
f 49/49/49 7/7/7 48/48/48
f 50/50/50 49/49/49 48/48/48
f 53/53/53 52/52/52 51/51/51
f 54/54/54 53/53/53 51/51/51
f 57/57/57 56/56/56 55/55/55
f 58/58/58 57/57/57 55/55/55
f 61/61/61 60/60/60 59/59/59
f 4/4/4 61/61/61 59/59/59
f 64/64/64 63/63/63 62/62/62
f 5/5/5 64/64/64 62/62/62
f 67/67/67 66/66/66 65/65/65
f 68/68/68 67/67/67 65/65/65
f 71/71/71 70/70/70 69/69/69
f 72/72/72 71/71/71 69/69/69
f 31/31/31 28/28/28 75/75/75
f 75/75/75 76/76/76 31/31/31
f 76/76/76 77/77/77 31/31/31
f 29/29/29 79/79/79 78/78/78
f 26/26/26 29/29/29 78/78/78
f 30/30/30 81/81/81 80/80/80
f 25/25/25 30/30/30 80/80/80
f 84/84/84 83/83/83 82/82/82
f 85/85/85 84/84/84 82/82/82
f 88/88/88 87/87/87 86/86/86
f 89/89/89 88/88/88 86/86/86
f 94/94/94 89/89/89 86/86/86
f 95/95/95 94/94/94 86/86/86
f 95/95/95 97/97/97 94/94/94
f 97/97/97 96/96/96 94/94/94
f 92/92/92 91/91/91 90/90/90
f 93/93/93 92/92/92 90/90/90
f 98/98/98 93/93/93 90/90/90
f 101/101/101 98/98/98 90/90/90
f 101/101/101 100/100/100 98/98/98
f 100/100/100 99/99/99 98/98/98
