g SM_Prop_Carrot_01
v 0.02169478 -0.2522365 -0.01252615
v 0 -0.2749951 -4.452952E-07
v 0.02169478 -0.2522365 0.01252482
v 0 -0.2522365 -0.02505186
v 0 -0.2749951 -4.452952E-07
v 0.02169478 -0.2522365 -0.01252615
v -0.02169389 -0.2522365 -0.01252615
v 0 -0.2749951 -4.452952E-07
v 0 -0.2522365 -0.02505186
v -0.02169389 -0.2522365 0.01252482
v 0 -0.2749951 -4.452952E-07
v -0.02169389 -0.2522365 -0.01252615
v 0 -0.2522365 0.02505053
v 0 -0.2749951 -4.452952E-07
v -0.02169389 -0.2522365 0.01252482
v 0.02169478 -0.2522365 0.01252482
v 0 -0.2749951 -4.452952E-07
v 0 -0.2522365 0.02505053
v 0.02418113 0.3302737 -0.07415649
v 0.04612382 0.3335255 -0.05648343
v 0.0292068 0.3429697 -0.05431276
v -0.01367896 0.370213 0.06022573
v -0.04259022 0.3716476 0.0597275
v -0.02703474 0.3789005 0.05115518
v -0.0641383 0.2527593 -0.0201153
v -0.05280848 0.2409578 -0.04102984
v -0.04977855 0.270942 -0.03403961
v 0.05739822 0.3684142 -0.002567391
v 0.04569541 0.3602055 0.01936874
v 0.03573578 0.3686768 0.008125062
v 0.04023709 0.07490042 0.02323077
v 0.02527317 0.09683803 0.01459099
v 0.02527317 0.09683803 -0.01459232
v 0.04023709 0.07490042 -0.0232321
v 0.04023709 0.07490042 -0.0232321
v 0.02527317 0.09683803 -0.01459232
v 0 0.09683803 -0.02918331
v 0 0.07490042 -0.04646328
v 0 0.07490042 -0.04646328
v 0 0.09683803 -0.02918331
v -0.02527317 0.09683803 -0.01459232
v -0.04023709 0.07490042 -0.0232321
v -0.04023709 0.07490042 -0.0232321
v -0.02527317 0.09683803 -0.01459232
v -0.02527317 0.09683803 0.01459099
v -0.04023709 0.07490042 0.02323077
v -0.04023709 0.07490042 0.02323077
v -0.02527317 0.09683803 0.01459099
v 0 0.09683803 0.02918198
v 0 0.07490042 0.04646194
v 0 0.07490042 0.04646194
v 0 0.09683803 0.02918198
v 0.02527317 0.09683803 0.01459099
v 0.04023709 0.07490042 0.02323077
v -0.03501971 -0.1276892 -0.02063437
v -0.03292943 -0.007096033 -0.02000653
v -0.03292943 -0.007096033 0.02536676
v -0.03501971 -0.1276892 0.01687513
v -0.002536627 -0.1276892 0.03562999
v 0.006363941 -0.007096033 0.04805328
v 0.04565765 -0.007096033 0.02536676
v 0.02994725 -0.1276892 0.01687512
v 0 -0.2522365 0.02505053
v 0.02169478 -0.2522365 0.01252482
v 0.02994725 -0.1276892 0.01687512
v 0.04565765 -0.007096033 0.02536676
v 0.04565765 -0.007096033 -0.02000653
v 0.02994725 -0.1276892 -0.02063437
v 0.02169478 -0.2522365 0.01252482
v 0.02169478 -0.2522365 -0.01252615
v -0.002536627 -0.1276892 -0.03938924
v -0.03292943 -0.007096033 -0.02000653
v -0.03501971 -0.1276892 -0.02063437
v 0.006363941 -0.007096033 -0.04269306
v -0.04023709 0.07490042 -0.0232321
v 0 0.07490042 -0.04646328
v -0.01328761 0.09683803 0.007608759
v 0.01160172 0.1255426 0.01388163
v 0.01160172 0.09683803 0.01388163
v -0.01328761 0.117371 0.007608759
v 0.002149259 0.1674868 0.01447918
v -0.02660681 0.1924751 0.006796152
v 0.01160172 0.09683803 0.01388163
v 0.01160172 0.1255426 0.01388163
v 0.01634501 0.117371 -0.00932181
v 0.01634501 0.09683803 -0.00932181
v 0.01634501 0.09683803 -0.00932181
v 0.01634501 0.117371 -0.00932181
v -0.008543434 0.1255426 -0.01559513
v -0.008543434 0.09683803 -0.01559513
v -0.008543434 0.09683803 -0.01559513
v -0.008543434 0.1255426 -0.01559513
v -0.01328761 0.117371 0.007608759
v -0.01328761 0.09683803 0.007608759
v -0.008543434 0.1255426 -0.01559513
v -0.006871392 0.2169732 -0.02717471
v 0.006100323 0.2428881 -0.01077089
v -0.0001647593 0.177431 -0.001933027
v 0.01160172 0.1255426 0.01388163
v 0.0165917 0.2176931 0.008223266
v 0.02721275 0.2374312 -0.01854102
v 0.01634501 0.117371 -0.00932181
v 0.01634501 0.117371 -0.00932181
v 0.02721275 0.2374312 -0.01854102
v -0.006871392 0.2169732 -0.02717471
v -0.008543434 0.1255426 -0.01559513
v -0.008677069 0.1983556 -0.005600634
v -0.01799346 0.1673326 -0.01656572
v -0.008543434 0.1255426 -0.01559513
v -0.0001647593 0.177431 -0.001933027
v -0.008543434 0.1255426 -0.01559513
v -0.01799346 0.1673326 -0.01656572
v -0.02660681 0.1924751 0.006796152
v -0.01328761 0.117371 0.007608759
v 0.01160172 0.1255426 0.01388163
v 0.002149259 0.1674868 0.01447918
v -0.008677069 0.1983556 -0.005600634
v -0.0001647593 0.177431 -0.001933027
v 0.006100323 0.2428881 -0.01077089
v 0.0165917 0.2176931 0.008223266
v 0.01160172 0.1255426 0.01388163
v -0.0001647593 0.177431 -0.001933027
v -0.01799346 0.1673326 -0.01656572
v -0.05280848 0.2409578 -0.04102984
v -0.0641383 0.2527593 -0.0201153
v -0.02660681 0.1924751 0.006796152
v -0.02660681 0.1924751 0.006796152
v -0.0641383 0.2527593 -0.0201153
v -0.04977855 0.270942 -0.03403961
v -0.008677069 0.1983556 -0.005600634
v -0.008677069 0.1983556 -0.005600634
v -0.04977855 0.270942 -0.03403961
v -0.05280848 0.2409578 -0.04102984
v -0.01799346 0.1673326 -0.01656572
v -0.02660681 0.1924751 0.006796152
v -0.04259022 0.3716476 0.0597275
v -0.01367896 0.370213 0.06022573
v 0.002149259 0.1674868 0.01447918
v 0.002149259 0.1674868 0.01447918
v -0.01367896 0.370213 0.06022573
v -0.02703474 0.3789005 0.05115518
v -0.008677069 0.1983556 -0.005600634
v -0.008677069 0.1983556 -0.005600634
v -0.02703474 0.3789005 0.05115518
v -0.04259022 0.3716476 0.0597275
v -0.02660681 0.1924751 0.006796152
v 0.02721275 0.2374312 -0.01854102
v 0.05739822 0.3684142 -0.002567391
v 0.03573578 0.3686768 0.008125062
v 0.006100323 0.2428881 -0.01077089
v 0.006100323 0.2428881 -0.01077089
v 0.03573578 0.3686768 0.008125062
v 0.04569541 0.3602055 0.01936874
v 0.0165917 0.2176931 0.008223266
v 0.0165917 0.2176931 0.008223266
v 0.04569541 0.3602055 0.01936874
v 0.05739822 0.3684142 -0.002567391
v 0.02721275 0.2374312 -0.01854102
v 0.02721275 0.2374312 -0.01854102
v 0.04612382 0.3335255 -0.05648343
v 0.02418113 0.3302737 -0.07415649
v -0.006871392 0.2169732 -0.02717471
v -0.006871392 0.2169732 -0.02717471
v 0.02418113 0.3302737 -0.07415649
v 0.0292068 0.3429697 -0.05431276
v 0.006100323 0.2428881 -0.01077089
v 0.006100323 0.2428881 -0.01077089
v 0.0292068 0.3429697 -0.05431276
v 0.04612382 0.3335255 -0.05648343
v 0.02721275 0.2374312 -0.01854102
v 0.006363941 -0.007096033 0.04805328
v 0 0.07490042 0.04646194
v 0.04023709 0.07490042 0.02323077
v 0.04565765 -0.007096033 0.02536676
v -0.03292943 -0.007096033 0.02536676
v -0.04023709 0.07490042 0.02323077
v 0 0.07490042 0.04646194
v 0.006363941 -0.007096033 0.04805328
v -0.03501971 -0.1276892 0.01687513
v -0.002536627 -0.1276892 0.03562999
v -0.02169389 -0.2522365 0.01252482
v 0 -0.2522365 0.02505053
v -0.03292943 -0.007096033 -0.02000653
v -0.04023709 0.07490042 -0.0232321
v -0.04023709 0.07490042 0.02323077
v -0.03292943 -0.007096033 0.02536676
v 0.04565765 -0.007096033 -0.02000653
v 0.04023709 0.07490042 -0.0232321
v 0 0.07490042 -0.04646328
v 0.006363941 -0.007096033 -0.04269306
v 0.02994725 -0.1276892 -0.02063437
v -0.002536627 -0.1276892 -0.03938924
v 0.02169478 -0.2522365 -0.01252615
v 0 -0.2522365 -0.02505186
v 0.04565765 -0.007096033 0.02536676
v 0.04023709 0.07490042 0.02323077
v 0.04023709 0.07490042 -0.0232321
v 0.04565765 -0.007096033 -0.02000653
v 0 -0.2522365 -0.02505186
v -0.002536627 -0.1276892 -0.03938924
v -0.03501971 -0.1276892 -0.02063437
v -0.02169389 -0.2522365 -0.01252615
v -0.02169389 -0.2522365 -0.01252615
v -0.03501971 -0.1276892 -0.02063437
v -0.03501971 -0.1276892 0.01687513
v -0.02169389 -0.2522365 0.01252482
v 0.02527317 0.09683803 -0.01459232
v -0.008543434 0.09683803 -0.01559513
v 0 0.09683803 -0.02918331
v -0.02527317 0.09683803 -0.01459232
v 0.01634501 0.09683803 -0.00932181
v -0.01328761 0.09683803 0.007608759
v 0.02527317 0.09683803 0.01459099
v -0.02527317 0.09683803 0.01459099
v 0.01160172 0.09683803 0.01388163
v 0 0.09683803 0.02918198
vt 0.0903101 0.1669475
vt 0.09342501 0.1662181
vt 0.0903101 0.1669475
vt 0.09031013 0.1662181
vt 0.09342501 0.1662181
vt 0.0903101 0.1669475
vt 0.09031013 0.1654888
vt 0.09342501 0.1662181
vt 0.09031013 0.1662181
vt 0.09031013 0.1654888
vt 0.09342501 0.1662181
vt 0.09031013 0.1654888
vt 0.09031013 0.1662181
vt 0.09342501 0.1662181
vt 0.09031013 0.1654888
vt 0.0903101 0.1669475
vt 0.09342501 0.1662181
vt 0.09031013 0.1662181
vt 0.1437459 0.3002892
vt 0.1437459 0.3002892
vt 0.1437459 0.3002892
vt 0.1437459 0.3002892
vt 0.1437459 0.3002892
vt 0.1437459 0.3002892
vt 0.1437459 0.3002892
vt 0.1437459 0.3002892
vt 0.1437459 0.3002892
vt 0.1437459 0.3002892
vt 0.1437459 0.3002892
vt 0.1437459 0.3002892
vt 0.04553664 0.1675708
vt 0.04253423 0.1670678
vt 0.04253423 0.1670678
vt 0.04553664 0.1675708
vt 0.04553664 0.1675708
vt 0.04253423 0.1670678
vt 0.04253426 0.1662182
vt 0.04553679 0.1662182
vt 0.04553679 0.1662182
vt 0.04253426 0.1662182
vt 0.04253422 0.1653685
vt 0.04553672 0.1648655
vt 0.04553672 0.1648655
vt 0.04253422 0.1653685
vt 0.04253422 0.1653685
vt 0.04553672 0.1648655
vt 0.04553672 0.1648655
vt 0.04253422 0.1653685
vt 0.04253426 0.1662182
vt 0.04553679 0.1662182
vt 0.04553679 0.1662182
vt 0.04253426 0.1662182
vt 0.04253423 0.1670678
vt 0.04553664 0.1675708
vt 0.07326403 0.1650409
vt 0.05675911 0.1651111
vt 0.05675911 0.1651111
vt 0.07326403 0.1650409
vt 0.07326406 0.1661329
vt 0.05675912 0.1664321
vt 0.05675912 0.167753
vt 0.073264 0.1672249
vt 0.09031013 0.1662181
vt 0.0903101 0.1669475
vt 0.073264 0.1672249
vt 0.05675912 0.167753
vt 0.05675912 0.167753
vt 0.073264 0.1672249
vt 0.0903101 0.1669475
vt 0.0903101 0.1669475
vt 0.07326406 0.1661329
vt 0.05675911 0.1651111
vt 0.07326403 0.1650409
vt 0.05675912 0.1664321
vt 0.04553672 0.1648655
vt 0.04553679 0.1662182
vt 0.1437459 0.3002882
vt 0.1437459 0.3002882
vt 0.1437459 0.3002882
vt 0.1437459 0.3002882
vt 0.143746 0.3002892
vt 0.1437459 0.3002892
vt 0.1437459 0.3002882
vt 0.1437459 0.3002882
vt 0.1437459 0.3002882
vt 0.1437459 0.3002882
vt 0.1437459 0.3002882
vt 0.1437459 0.3002882
vt 0.1437459 0.3002882
vt 0.1437459 0.3002882
vt 0.1437459 0.3002882
vt 0.1437459 0.3002882
vt 0.1437459 0.3002882
vt 0.1437459 0.3002882
vt 0.1437459 0.3002882
vt 0.1437459 0.3002892
vt 0.1437459 0.3002892
vt 0.1437459 0.3002892
vt 0.1437459 0.3002882
vt 0.1437459 0.3002892
vt 0.1437459 0.3002892
vt 0.1437459 0.3002882
vt 0.1437459 0.3002882
vt 0.1437459 0.3002892
vt 0.1437459 0.3002892
vt 0.1437459 0.3002882
vt 0.143746 0.3002892
vt 0.1437459 0.3002892
vt 0.1437459 0.3002882
vt 0.1437459 0.3002892
vt 0.1437459 0.3002882
vt 0.1437459 0.3002892
vt 0.1437459 0.3002892
vt 0.1437459 0.3002882
vt 0.1437459 0.3002882
vt 0.143746 0.3002892
vt 0.143746 0.3002892
vt 0.1437459 0.3002892
vt 0.1437459 0.3002892
vt 0.1437459 0.3002892
vt 0.1437459 0.3002882
vt 0.1437459 0.3002892
vt 0.1437459 0.3002892
vt 0.1437459 0.3002892
vt 0.1437459 0.3002892
vt 0.1437459 0.3002892
vt 0.1437459 0.3002892
vt 0.1437459 0.3002892
vt 0.1437459 0.3002892
vt 0.143746 0.3002892
vt 0.143746 0.3002892
vt 0.1437459 0.3002892
vt 0.1437459 0.3002892
vt 0.1437459 0.3002892
vt 0.1437459 0.3002892
vt 0.1437459 0.3002892
vt 0.1437459 0.3002892
vt 0.143746 0.3002892
vt 0.143746 0.3002892
vt 0.1437459 0.3002892
vt 0.1437459 0.3002892
vt 0.143746 0.3002892
vt 0.143746 0.3002892
vt 0.1437459 0.3002892
vt 0.1437459 0.3002892
vt 0.1437459 0.3002892
vt 0.1437459 0.3002892
vt 0.1437459 0.3002892
vt 0.1437459 0.3002892
vt 0.1437459 0.3002892
vt 0.1437459 0.3002892
vt 0.1437459 0.3002892
vt 0.1437459 0.3002892
vt 0.1437459 0.3002892
vt 0.1437459 0.3002892
vt 0.1437459 0.3002892
vt 0.1437459 0.3002892
vt 0.1437459 0.3002892
vt 0.1437459 0.3002892
vt 0.1437459 0.3002892
vt 0.1437459 0.3002892
vt 0.1437459 0.3002892
vt 0.1437459 0.3002892
vt 0.1437459 0.3002892
vt 0.1437459 0.3002892
vt 0.1437459 0.3002892
vt 0.1437459 0.3002892
vt 0.1437459 0.3002892
vt 0.1437459 0.3002892
vt 0.1437459 0.3002892
vt 0.05675912 0.1664321
vt 0.04553679 0.1662182
vt 0.04553664 0.1675708
vt 0.05675912 0.167753
vt 0.05675911 0.1651111
vt 0.04553672 0.1648655
vt 0.04553679 0.1662182
vt 0.05675912 0.1664321
vt 0.07326403 0.1650409
vt 0.07326406 0.1661329
vt 0.09031013 0.1654888
vt 0.09031013 0.1662181
vt 0.05675911 0.1651111
vt 0.04553672 0.1648655
vt 0.04553672 0.1648655
vt 0.05675911 0.1651111
vt 0.05675912 0.167753
vt 0.04553664 0.1675708
vt 0.04553679 0.1662182
vt 0.05675912 0.1664321
vt 0.073264 0.1672249
vt 0.07326406 0.1661329
vt 0.0903101 0.1669475
vt 0.09031013 0.1662181
vt 0.05675912 0.167753
vt 0.04553664 0.1675708
vt 0.04553664 0.1675708
vt 0.05675912 0.167753
vt 0.09031013 0.1662181
vt 0.07326406 0.1661329
vt 0.07326403 0.1650409
vt 0.09031013 0.1654888
vt 0.09031013 0.1654888
vt 0.07326403 0.1650409
vt 0.07326403 0.1650409
vt 0.09031013 0.1654888
vt 0.04553676 0.1675711
vt 0.04553658 0.1675711
vt 0.04553661 0.1675711
vt 0.04553676 0.1675711
vt 0.04553652 0.1675711
vt 0.04553658 0.1675711
vt 0.04553676 0.1675711
vt 0.04553676 0.1675711
vt 0.04553652 0.1675711
vt 0.04553661 0.1675711
vn 0.7238222 -0.6899866 0
vn 0.7238222 -0.6899866 0
vn 0.7238222 -0.6899866 0
vn 0.3619136 -0.6899912 -0.6268417
vn 0.3619136 -0.6899912 -0.6268417
vn 0.3619136 -0.6899912 -0.6268417
vn -0.3619266 -0.6899875 -0.6268383
vn -0.3619266 -0.6899875 -0.6268383
vn -0.3619266 -0.6899875 -0.6268383
vn -0.7238363 -0.6899716 0
vn -0.7238363 -0.6899716 0
vn -0.7238363 -0.6899716 0
vn -0.3619296 -0.6899812 0.6268436
vn -0.3619296 -0.6899812 0.6268436
vn -0.3619296 -0.6899812 0.6268436
vn 0.3619167 -0.6899849 0.626847
vn 0.3619167 -0.6899849 0.626847
vn 0.3619167 -0.6899849 0.626847
vn 0.3451741 0.748454 -0.5662786
vn 0.3451741 0.748454 -0.5662786
vn 0.3451741 0.748454 -0.5662786
vn 0.02515043 0.7402029 0.671913
vn 0.02515043 0.7402029 0.671913
vn 0.02515043 0.7402029 0.671913
vn -0.804818 0.2106843 -0.5548694
vn -0.804818 0.2106843 -0.5548694
vn -0.804818 0.2106843 -0.5548694
vn 0.230951 0.8643782 0.4466675
vn 0.230951 0.8643782 0.4466675
vn 0.230951 0.8643782 0.4466675
vn 0.8261142 0.5635027 0
vn 0.8261142 0.5635027 0
vn 0.8261142 0.5635027 0
vn 0.8261142 0.5635027 0
vn 0.4130498 0.5635192 -0.7154272
vn 0.4130498 0.5635192 -0.7154272
vn 0.4130498 0.5635192 -0.7154272
vn 0.4130498 0.5635192 -0.7154272
vn -0.4130498 0.5635192 -0.7154272
vn -0.4130498 0.5635192 -0.7154272
vn -0.4130498 0.5635192 -0.7154272
vn -0.4130498 0.5635192 -0.7154272
vn -0.8261142 0.5635027 0
vn -0.8261142 0.5635027 0
vn -0.8261142 0.5635027 0
vn -0.8261142 0.5635027 0
vn -0.4130498 0.5635191 0.7154272
vn -0.4130498 0.5635191 0.7154272
vn -0.4130498 0.5635191 0.7154272
vn -0.4130498 0.5635191 0.7154272
vn 0.4130498 0.5635191 0.7154272
vn 0.4130498 0.5635191 0.7154272
vn 0.4130498 0.5635191 0.7154272
vn 0.4130498 0.5635191 0.7154272
vn -0.9998498 0.01733074 0
vn -0.9998498 0.01733074 0
vn -0.9998498 0.01733074 0
vn -0.9998498 0.01733074 0
vn 0.4977806 -0.09423611 0.8621683
vn 0.4960755 -0.1251287 0.8592159
vn 0.4960755 -0.1251287 0.8592159
vn 0.4977806 -0.09423611 0.8621683
vn 0.4990048 -0.06325249 0.8642877
vn 0.4990048 -0.06325249 0.8642877
vn 0.995216 -0.09769863 0
vn 0.9916205 -0.1291844 0
vn 0.9916205 -0.1291844 0
vn 0.995216 -0.09769863 0
vn 0.997812 -0.06611475 0
vn 0.997812 -0.06611475 0
vn -0.4999678 0.01317582 -0.8659438
vn -0.4997424 -0.03263925 -0.8655589
vn -0.4999678 0.01317582 -0.8659438
vn -0.4997424 -0.03263925 -0.8655589
vn -0.4984679 -0.07838581 -0.8633571
vn -0.4984679 -0.07838581 -0.8633571
vn -0.2443884 0 0.9696773
vn -0.2553445 -0.02501061 0.9665266
vn -0.2443884 0 0.9696773
vn -0.2553445 -0.02501061 0.9665266
vn -0.2661077 -0.05000233 0.9626456
vn -0.2661077 -0.05000233 0.9626456
vn 0.9797387 0 0.2002797
vn 0.9797387 0 0.2002797
vn 0.9797387 0 0.2002797
vn 0.9797387 0 0.2002797
vn 0.2444129 0 -0.9696713
vn 0.2444129 0 -0.9696713
vn 0.2444129 0 -0.9696713
vn 0.2444129 0 -0.9696713
vn -0.979732 0 -0.2003121
vn -0.979732 0 -0.2003121
vn -0.979732 0 -0.2003121
vn -0.979732 0 -0.2003121
vn -0.9131833 0.09769133 0.3956672
vn -0.9131833 0.09769133 0.3956672
vn -0.9131833 0.09769133 0.3956672
vn -0.9131833 0.09769133 0.3956672
vn 0.9578566 -0.05176866 0.2825434
vn 0.9578566 -0.05176866 0.2825434
vn 0.9578566 -0.05176866 0.2825434
vn 0.9578566 -0.05176866 0.2825434
vn 0.2650504 -0.1099237 -0.9579483
vn 0.2650504 -0.1099237 -0.9579483
vn 0.2650504 -0.1099237 -0.9579483
vn 0.2650504 -0.1099237 -0.9579483
vn 0.5923351 0.1106309 -0.7980601
vn 0.5923351 0.1106309 -0.7980601
vn 0.5923351 0.1106309 -0.7980601
vn 0.5923351 0.1106309 -0.7980601
vn -0.9598932 -0.1901163 -0.2060604
vn -0.9598932 -0.1901163 -0.2060604
vn -0.9598932 -0.1901163 -0.2060604
vn -0.9598932 -0.1901163 -0.2060604
vn 0.9606164 0.2760503 0.03181889
vn 0.9606164 0.2760503 0.03181889
vn 0.9606164 0.2760503 0.03181889
vn 0.9606164 0.2760503 0.03181889
vn -0.7018811 0.1147809 0.7029853
vn -0.7018811 0.1147809 0.7029853
vn -0.7018811 0.1147809 0.7029853
vn -0.7018811 0.1147809 0.7029853
vn -0.8798476 -0.4752559 0.0002462253
vn -0.8798476 -0.4752559 0.0002462253
vn -0.8798476 -0.4752559 0.0002462253
vn -0.8798476 -0.4752559 0.0002462253
vn 0.2848504 0.5073691 0.8132878
vn 0.2848504 0.5073691 0.8132878
vn 0.2848504 0.5073691 0.8132878
vn 0.2848504 0.5073691 0.8132878
vn 0.6705234 0.08133533 -0.7374164
vn 0.6705234 0.08133533 -0.7374164
vn 0.6705234 0.08133533 -0.7374164
vn 0.6705234 0.08133533 -0.7374164
vn -0.2520913 -0.2617229 0.931639
vn -0.2520913 -0.2617229 0.931639
vn -0.2520913 -0.2617229 0.931639
vn -0.2520913 -0.2617229 0.931639
vn 0.8696154 0.1984708 -0.4520825
vn 0.8696154 0.1984708 -0.4520825
vn 0.8696154 0.1984708 -0.4520825
vn 0.8696154 0.1984708 -0.4520825
vn -0.5732598 0.188425 -0.7974141
vn -0.5732598 0.188425 -0.7974141
vn -0.5732598 0.188425 -0.7974141
vn -0.5732598 0.188425 -0.7974141
vn -0.3640222 0.2080929 -0.9078464
vn -0.3640222 0.2080929 -0.9078464
vn -0.3640222 0.2080929 -0.9078464
vn -0.3640222 0.2080929 -0.9078464
vn -0.7702559 0.098075 0.6301484
vn -0.7702559 0.098075 0.6301484
vn -0.7702559 0.098075 0.6301484
vn -0.7702559 0.098075 0.6301484
vn 0.9279072 -0.2302302 0.2932273
vn 0.9279072 -0.2302302 0.2932273
vn 0.9279072 -0.2302302 0.2932273
vn 0.9279072 -0.2302302 0.2932273
vn 0.5257507 -0.4244297 -0.7371877
vn 0.5257507 -0.4244297 -0.7371877
vn 0.5257507 -0.4244297 -0.7371877
vn 0.5257507 -0.4244297 -0.7371877
vn -0.9421421 0.301384 0.1467516
vn -0.9421421 0.301384 0.1467516
vn -0.9421421 0.301384 0.1467516
vn -0.9421421 0.301384 0.1467516
vn 0.3481855 0.2950126 0.8897946
vn 0.3481855 0.2950126 0.8897946
vn 0.3481855 0.2950126 0.8897946
vn 0.3481855 0.2950126 0.8897946
vn 0.4992331 0.05552796 0.8646865
vn 0.4992331 0.05552796 0.8646865
vn 0.4992331 0.05552796 0.8646865
vn 0.4992331 0.05552796 0.8646865
vn -0.4996639 -0.03712263 0.8654235
vn -0.4998852 -0.02199518 0.8658123
vn -0.4998852 -0.02199518 0.8658123
vn -0.4996639 -0.03712263 0.8654235
vn -0.4988619 -0.0678565 0.864021
vn -0.4988619 -0.0678565 0.864021
vn -0.4982735 -0.08345482 0.8629942
vn -0.4982735 -0.08345482 0.8629942
vn -0.9960522 -0.08876986 0
vn -0.9960522 -0.08876986 0
vn -0.9960522 -0.08876986 0
vn -0.9960522 -0.08876986 0
vn 0.4997681 -0.03077969 -0.8656122
vn 0.5000045 -0.001013489 -0.8660222
vn 0.5000045 -0.001013489 -0.8660222
vn 0.4997681 -0.03077969 -0.8656122
vn 0.4986033 -0.07484359 -0.8635932
vn 0.4986033 -0.07484359 -0.8635932
vn 0.498015 -0.0891531 -0.8625733
vn 0.498015 -0.0891531 -0.8625733
vn 0.997822 0.06596322 0
vn 0.997822 0.06596322 0
vn 0.997822 0.06596322 0
vn 0.997822 0.06596322 0
vn -0.4970266 -0.1092196 -0.8608343
vn -0.4970266 -0.1092196 -0.8608343
vn -0.4970266 -0.1092196 -0.8608343
vn -0.4970266 -0.1092196 -0.8608343
vn -0.9943247 -0.1063869 0
vn -0.9943247 -0.1063869 0
vn -0.9943247 -0.1063869 0
vn -0.9943247 -0.1063869 0
vn 0 1 0
vn 0 1 0
vn 0 1 0
vn 0 1 0
vn 0 1 0
vn 0 1 0
vn 0 1 0
vn 0 1 0
vn 0 1 0
vn 0 1 0
g SM_Prop_Carrot_01_0
f 3/3/3 2/2/2 1/1/1
f 6/6/6 5/5/5 4/4/4
f 9/9/9 8/8/8 7/7/7
f 12/12/12 11/11/11 10/10/10
f 15/15/15 14/14/14 13/13/13
f 18/18/18 17/17/17 16/16/16
f 21/21/21 20/20/20 19/19/19
f 24/24/24 23/23/23 22/22/22
f 27/27/27 26/26/26 25/25/25
f 30/30/30 29/29/29 28/28/28
f 33/33/33 32/32/32 31/31/31
f 34/34/34 33/33/33 31/31/31
f 37/37/37 36/36/36 35/35/35
f 38/38/38 37/37/37 35/35/35
f 41/41/41 40/40/40 39/39/39
f 42/42/42 41/41/41 39/39/39
f 45/45/45 44/44/44 43/43/43
f 46/46/46 45/45/45 43/43/43
f 49/49/49 48/48/48 47/47/47
f 50/50/50 49/49/49 47/47/47
f 53/53/53 52/52/52 51/51/51
f 54/54/54 53/53/53 51/51/51
f 57/57/57 56/56/56 55/55/55
f 58/58/58 57/57/57 55/55/55
f 61/61/61 60/60/60 59/59/59
f 62/62/62 61/61/61 59/59/59
f 62/62/62 59/59/59 63/63/63
f 64/64/64 62/62/62 63/63/63
f 67/67/67 66/66/66 65/65/65
f 68/68/68 67/67/67 65/65/65
f 68/68/68 65/65/65 69/69/69
f 70/70/70 68/68/68 69/69/69
f 73/73/73 72/72/72 71/71/71
f 72/72/72 74/74/74 71/71/71
f 72/72/72 75/75/75 74/74/74
f 75/75/75 76/76/76 74/74/74
f 79/79/79 78/78/78 77/77/77
f 78/78/78 80/80/80 77/77/77
f 78/78/78 81/81/81 80/80/80
f 81/81/81 82/82/82 80/80/80
f 85/85/85 84/84/84 83/83/83
f 86/86/86 85/85/85 83/83/83
f 89/89/89 88/88/88 87/87/87
f 90/90/90 89/89/89 87/87/87
f 93/93/93 92/92/92 91/91/91
f 94/94/94 93/93/93 91/91/91
f 97/97/97 96/96/96 95/95/95
f 98/98/98 97/97/97 95/95/95
f 101/101/101 100/100/100 99/99/99
f 102/102/102 101/101/101 99/99/99
f 105/105/105 104/104/104 103/103/103
f 106/106/106 105/105/105 103/103/103
f 109/109/109 108/108/108 107/107/107
f 110/110/110 109/109/109 107/107/107
f 113/113/113 112/112/112 111/111/111
f 114/114/114 113/113/113 111/111/111
f 117/117/117 116/116/116 115/115/115
f 118/118/118 117/117/117 115/115/115
f 121/121/121 120/120/120 119/119/119
f 122/122/122 121/121/121 119/119/119
f 125/125/125 124/124/124 123/123/123
f 126/126/126 125/125/125 123/123/123
f 129/129/129 128/128/128 127/127/127
f 130/130/130 129/129/129 127/127/127
f 133/133/133 132/132/132 131/131/131
f 134/134/134 133/133/133 131/131/131
f 137/137/137 136/136/136 135/135/135
f 138/138/138 137/137/137 135/135/135
f 141/141/141 140/140/140 139/139/139
f 142/142/142 141/141/141 139/139/139
f 145/145/145 144/144/144 143/143/143
f 146/146/146 145/145/145 143/143/143
f 149/149/149 148/148/148 147/147/147
f 150/150/150 149/149/149 147/147/147
f 153/153/153 152/152/152 151/151/151
f 154/154/154 153/153/153 151/151/151
f 157/157/157 156/156/156 155/155/155
f 158/158/158 157/157/157 155/155/155
f 161/161/161 160/160/160 159/159/159
f 162/162/162 161/161/161 159/159/159
f 165/165/165 164/164/164 163/163/163
f 166/166/166 165/165/165 163/163/163
f 169/169/169 168/168/168 167/167/167
f 170/170/170 169/169/169 167/167/167
f 173/173/173 172/172/172 171/171/171
f 174/174/174 173/173/173 171/171/171
f 177/177/177 176/176/176 175/175/175
f 178/178/178 177/177/177 175/175/175
f 178/178/178 175/175/175 179/179/179
f 180/180/180 178/178/178 179/179/179
f 180/180/180 179/179/179 181/181/181
f 182/182/182 180/180/180 181/181/181
f 185/185/185 184/184/184 183/183/183
f 186/186/186 185/185/185 183/183/183
f 189/189/189 188/188/188 187/187/187
f 190/190/190 189/189/189 187/187/187
f 190/190/190 187/187/187 191/191/191
f 192/192/192 190/190/190 191/191/191
f 192/192/192 191/191/191 193/193/193
f 194/194/194 192/192/192 193/193/193
f 197/197/197 196/196/196 195/195/195
f 198/198/198 197/197/197 195/195/195
f 201/201/201 200/200/200 199/199/199
f 202/202/202 201/201/201 199/199/199
f 205/205/205 204/204/204 203/203/203
f 206/206/206 205/205/205 203/203/203
f 209/209/209 208/208/208 207/207/207
f 210/210/210 208/208/208 209/209/209
f 208/208/208 211/211/211 207/207/207
f 212/212/212 208/208/208 210/210/210
f 207/207/207 211/211/211 213/213/213
f 214/214/214 212/212/212 210/210/210
f 211/211/211 215/215/215 213/213/213
f 215/215/215 212/212/212 214/214/214
f 213/213/213 215/215/215 216/216/216
f 216/216/216 215/215/215 214/214/214
