g SM_Prop_Poster_01
v -0.1990414 -0.3293895 0
v 0.1990417 -0.3293895 0
v -0.05657928 -0.2008401 0.03001404
v 0.2625873 0.03707452 0.03001404
v -0.1990414 -0.3293895 0.01479828
v 0.1990417 -0.3293895 0.01479828
v 0.2628406 0.03673447 0.01521881
v -0.05632599 -0.2011791 0.01521881
v 0.1854315 0.1380781 0.02851837
v -0.2110001 0.003815944 0.02674927
v 0.1984335 0.1149919 0.01421692
v -0.1988263 -0.01818742 0.01293365
v 0.1990417 0.1284627 0
v -0.1990411 0.004337832 0
v 0.18685 0.1437309 0.01425934
v -0.2104065 0.01453773 0.01337463
v 0.1987094 -0.08645647 0.01448029
v -0.1988736 -0.08646087 0.0133429
v -0.1990411 -0.08645592 0
v 0.1990417 -0.08645647 0
v -0.1990414 -0.3293895 0
v -0.1990414 -0.3293895 0.01479828
v 0.1990417 -0.3293895 0.01479828
v 0.1990417 -0.3293895 0
v 0.1990417 -0.3293895 0
v 0.1990417 -0.3293895 0.01479828
v 0.1987094 -0.08645647 0.01448029
v 0.1990417 -0.08645647 0
v -0.05657928 -0.2008401 0.03001404
v -0.05632599 -0.2011791 0.01521881
v -0.1988263 -0.01818742 0.01293365
v -0.05632599 -0.2011791 0.01521881
v 0.2628406 0.03673447 0.01521881
v 0.2625873 0.03707452 0.03001404
v -0.05657928 -0.2008401 0.03001404
v -0.2110001 0.003815944 0.02674927
v 0.1984335 0.1149919 0.01421692
v 0.2628406 0.03673447 0.01521881
v 0.2625873 0.03707452 0.03001404
v 0.1854315 0.1380781 0.02851837
v -0.2110001 0.003815944 0.02674927
v -0.1988263 -0.01818742 0.01293365
v 0.1854315 0.1380781 0.02851837
v -0.2110001 0.003815944 0.02674927
v -0.2104065 0.01453773 0.01337463
v 0.1984335 0.1149919 0.01421692
v 0.1854315 0.1380781 0.02851837
v 0.18685 0.1437309 0.01425934
v -0.1988736 -0.08646087 0.0133429
v -0.1990414 -0.3293895 0.01479828
v -0.1990414 -0.3293895 0
v -0.1990411 -0.08645592 0
v 0.1984335 0.1149919 0.01421692
v 0.18685 0.1437309 0.01425934
v 0.1990417 0.1284627 0
v 0.18685 0.1437309 0.01425934
v -0.2104065 0.01453773 0.01337463
v -0.1988263 -0.01818742 0.01293365
v -0.1990411 0.004337832 0
v -0.2104065 0.01453773 0.01337463
v -0.1988736 -0.08646087 0.0133429
v -0.1988263 -0.01818742 0.01293365
v 0.1984335 0.1149919 0.01421692
v 0.1987094 -0.08645647 0.01448029
v -0.1988263 -0.01818742 0.01293365
v -0.1990411 0.004337832 0
v 0.1990417 0.1284627 0
v -0.1990411 0.004337832 0
v 0.1984335 0.1149919 0.01421692
v 0.1990417 0.1284627 0
vt 0.4015577 0.4618776
vt 0.4003407 0.4618407
vt 0.6825655 0.02759031
vt 0.6427128 0.02759031
vt 0.6825655 0.001083981
vt 0.6427128 0.001083981
vt 0.6427128 0.02759031
vt 0.6825655 0.02759031
vt 0.4003407 0.4639974
vt 0.6825655 0.02541926
vt 0.6427128 0.02634284
vt 0.6825655 0.02521747
vt 0.6427128 0.02615875
vt 0.4015577 0.4633856
vt 0.4003407 0.4639346
vt 0.6825655 0.02517961
vt 0.6427128 0.02680959
vt 0.6825655 0.02680959
vt 0.4015577 0.4629695
vt 0.4003407 0.4629208
vt 0.6825655 0.001083981
vt 0.6825655 0.001083981
vt 0.6427128 0.001083981
vt 0.6427128 0.001083981
vt 0.6427128 0.001083981
vt 0.6427128 0.001083981
vt 0.6427128 0.02680959
vt 0.6427128 0.02680959
vt 0.6825655 0.02759031
vt 0.6825655 0.02759031
vt 0.6825655 0.02521747
vt 0.6825655 0.02759031
vt 0.6427128 0.02759031
vt 0.4003407 0.4645742
vt 0.4015577 0.4646322
vt 0.4015577 0.4635232
vt 0.6427128 0.02634284
vt 0.6427128 0.02759031
vt 0.6427128 0.02759031
vt 0.6427128 0.02659576
vt 0.6825655 0.02541926
vt 0.6825655 0.02521747
vt 0.4003407 0.4639974
vt 0.4015577 0.4635232
vt 0.4015577 0.4634587
vt 0.6427128 0.02634284
vt 0.6427128 0.02659576
vt 0.6427128 0.02637725
vt 0.6825655 0.02680959
vt 0.6825655 0.001083981
vt 0.6825655 0.001083981
vt 0.6825655 0.02680959
vt 0.6427128 0.02634284
vt 0.6427128 0.02637725
vt 0.4003407 0.4638456
vt 0.4003407 0.4639346
vt 0.4015577 0.4634587
vt 0.6825655 0.02521747
vt 0.6825655 0.02493997
vt 0.6825655 0.02517961
vt 0.6825655 0.02680959
vt 0.6825655 0.02521747
vt 0.6427128 0.02634284
vt 0.6427128 0.02680959
vt 0.6825655 0.02521747
vt 0.6825655 0.02493997
vt 0.4003407 0.4638456
vt 0.4015577 0.4633856
vt 0.6427128 0.02634284
vt 0.6427128 0.02615875
vn 0 0 -1
vn 0 0 -1
vn 0.5974041 -0.8014296 0.0286176
vn 0.5974041 -0.8014296 0.0286176
vn -0.00142949 0.003649449 0.9999924
vn -0.001429491 0.003649449 0.9999924
vn 0.5974041 -0.8014296 0.0286176
vn 0.5974041 -0.8014296 0.0286176
vn -0.007583344 0.009827747 0.999923
vn -0.7882626 -0.6019464 0.1276818
vn 0.005891232 -0.007915623 -0.9999514
vn -0.7882625 -0.6019464 0.1276818
vn 0.8632858 0.3474158 0.3661144
vn -0.1997439 0.6297551 -0.7506737
vn -0.2787447 0.8349695 0.4744758
vn -0.9025969 -0.3154477 -0.2929361
vn -0.002154091 0.003236527 0.9999925
vn -0.002154492 0.003236298 0.9999925
vn 0 0 -1
vn 0 0 -1
vn 0 -1 0
vn 0 -1 0
vn 0 -1 0
vn 0 -1 0
vn 0.9999354 0.0006913926 0.01135011
vn 0.9999354 0.0006913927 0.01135011
vn 0.9997737 0.0006876708 0.02126238
vn 0.9997736 0.0006876675 0.02127115
vn -0.7882625 -0.6019464 0.1276818
vn -0.7882626 -0.6019464 0.1276818
vn 0.005891232 -0.007915625 -0.9999514
vn 0.005891231 -0.007915625 -0.9999514
vn 0.005891232 -0.007915625 -0.9999514
vn -0.007583344 0.009827746 0.999923
vn -0.007583344 0.009827747 0.999923
vn -0.007583344 0.009827746 0.999923
vn 0.7781491 0.6125737 -0.1386984
vn 0.7781491 0.6125737 -0.1386985
vn 0.7781491 0.6125737 -0.1386984
vn 0.7781491 0.6125737 -0.1386984
vn -0.9025969 -0.3154477 -0.2929362
vn -0.9025969 -0.3154477 -0.2929362
vn -0.2787446 0.8349696 0.4744757
vn -0.2787447 0.8349696 0.4744757
vn -0.2787447 0.8349696 0.4744757
vn 0.9019298 0.3631871 0.2337045
vn 0.9019298 0.363187 0.2337045
vn 0.9019298 0.363187 0.2337044
vn -0.9999678 0.000357322 0.008017586
vn -0.9999822 0.0003639172 0.005953567
vn -0.9999822 0.0003639171 0.005953567
vn -0.9999677 0.0003572784 0.008031184
vn 0.8632859 0.3474158 0.3661144
vn 0.8632858 0.3474158 0.3661144
vn -0.1997439 0.629755 -0.7506736
vn -0.1997439 0.629755 -0.7506736
vn -0.1997439 0.629755 -0.7506736
vn -0.8267567 -0.2860305 -0.4844173
vn -0.8267567 -0.2860305 -0.4844173
vn -0.8267567 -0.2860304 -0.4844172
vn -0.002154492 0.003236298 0.9999925
vn -0.003462772 0.00249075 0.9999909
vn -0.003462773 0.002490751 0.9999909
vn -0.002154091 0.003236527 0.9999925
vn -0.9998899 0.0003355156 0.01483842
vn -0.9998899 0.0003355156 0.01483841
vn 0 0 -1
vn 0 0 -1
vn 0.9994525 0.0006831451 0.03307776
vn 0.9994525 0.0006831452 0.03307777
g SM_Prop_Poster_01_0
f 42/42/42 41/41/41 16/16/16
f 48/48/48 47/47/47 46/46/46
f 13/13/13 54/54/54 53/53/53
f 60/60/60 59/59/59 58/58/58
f 17/17/17 18/18/18 5/5/5
f 6/6/6 17/17/17 5/5/5
f 20/20/20 2/2/2 1/1/1
f 19/19/19 20/20/20 1/1/1
f 19/19/19 68/68/68 20/20/20
f 68/68/68 67/67/67 20/20/20
f 23/23/23 22/22/22 21/21/21
f 24/24/24 23/23/23 21/21/21
f 27/27/27 26/26/26 25/25/25
f 28/28/28 27/27/27 25/25/25
f 28/28/28 70/70/70 27/27/27
f 70/70/70 69/69/69 27/27/27
f 8/8/8 7/7/7 4/4/4
f 3/3/3 8/8/8 4/4/4
f 12/12/12 30/30/30 29/29/29
f 10/10/10 12/12/12 29/29/29
f 33/33/33 32/32/32 31/31/31
f 11/11/11 33/33/33 31/31/31
f 35/35/35 34/34/34 9/9/9
f 36/36/36 35/35/35 9/9/9
f 39/39/39 38/38/38 37/37/37
f 40/40/40 39/39/39 37/37/37
f 44/44/44 43/43/43 15/15/15
f 45/45/45 44/44/44 15/15/15
f 51/51/51 50/50/50 49/49/49
f 52/52/52 51/51/51 49/49/49
f 52/52/52 49/49/49 65/65/65
f 66/66/66 52/52/52 65/65/65
f 57/57/57 56/56/56 55/55/55
f 14/14/14 57/57/57 55/55/55
f 63/63/63 62/62/62 61/61/61
f 64/64/64 63/63/63 61/61/61
