g SM_Prop_Shelf_07
v -0.01720337 0.03664429 -0.1798556
v -0.01720337 1.634342 -0.1798556
v -0.01720337 1.634342 0.2269499
v -0.01720337 0.03664429 0.2269499
v 0.02343872 1.634342 -0.1798556
v 0.02343872 0.03664429 -0.1798556
v 0.02343872 0.03664429 0.2269499
v 0.02343872 1.634342 0.2269499
v -0.01720337 0.03664429 0.2269499
v -0.01720337 1.634342 0.2269499
v 0.02343872 1.634342 0.2269499
v 0.02343872 0.03664429 0.2269499
v -1.53406 0 -0.2389597
v -1.53406 0 0.2389597
v 0.1106982 0 0.2389597
v 0.1106982 0 -0.2389597
v 1.53406 0 -0.2389597
v 1.53406 0 0.2389597
v 0.1685791 0.04007416 -0.1606236
v -1.482799 0.04007416 0.2389597
v -1.482799 0.04007416 -0.1606236
v 0.1685791 0.04007416 0.2389597
v 1.482797 0.04007416 -0.1606236
v 1.482797 0.04007416 0.2389597
v 1.53406 0 -0.2389597
v 1.53406 0 0.2389597
v 1.53406 0.430393 0.2389597
v 1.53406 0.8393087 0.2389597
v 1.53406 1.240049 0.2389597
v 1.53406 1.671661 -0.2389597
v 1.53406 1.671661 0.2389597
v 1.482797 0.419214 -0.1606236
v 1.482797 0.419214 0.2389597
v 1.482797 0.04007416 0.2389597
v 1.482797 0.04007416 -0.1606236
v -1.482799 0.419214 -0.1606236
v -1.482799 0.419214 0.2389597
v 0.1751343 0.4063777 0.2167191
v 0.1751343 0.4063777 -0.1606236
v 1.482797 0.419214 -0.1606236
v 1.482797 0.419214 0.2389597
v -1.53406 0 -0.2389597
v -1.53406 0.430393 0.2389597
v -1.53406 0 0.2389597
v -1.53406 1.671661 -0.2389597
v -1.53406 0.8393087 0.2389597
v -1.53406 1.240049 0.2389597
v -1.53406 1.671661 0.2389597
v -1.482799 0.04007416 -0.1606236
v -1.482799 0.04007416 0.2389597
v -1.482799 0.419214 0.2389597
v -1.482799 0.419214 -0.1606236
v 0.1751343 0.4324618 -0.1606236
v -1.482799 0.4452981 0.2389597
v -1.482799 0.4452981 -0.1606236
v 0.1751343 0.4324618 0.2167191
v 1.482797 0.4452981 -0.1606236
v 1.482797 0.4452981 0.2389597
v 1.482797 0.824403 -0.1606236
v 1.482797 0.824403 0.2389597
v 1.482797 0.4452981 0.2389597
v 1.482797 0.4452981 -0.1606236
v -1.482799 0.824403 -0.1606236
v -1.482799 0.824403 0.2389597
v -0.5843359 0.8115726 0.212284
v -0.5843359 0.8115726 -0.1606236
v 1.482797 0.824403 -0.1606236
v 1.482797 0.824403 0.2389597
v -1.482799 0.4452981 -0.1606236
v -1.482799 0.4452981 0.2389597
v -1.482799 0.824403 0.2389597
v -1.482799 0.824403 -0.1606236
v -0.5843359 0.8413829 -0.1606236
v -1.482799 0.8542134 0.2389597
v -1.482799 0.8542134 -0.1606236
v -0.5843359 0.8413829 0.212284
v 1.482797 0.8542134 -0.1606236
v 1.482797 0.8542134 0.2389597
v 1.482797 1.225143 -0.1606236
v 1.482797 1.225143 0.2389597
v 1.482797 0.8542134 0.2389597
v 1.482797 0.8542134 -0.1606236
v -1.482799 1.225143 -0.1606236
v -1.482799 1.225143 0.2389597
v 0.01901733 1.225143 0.2301456
v 0.01901733 1.225143 -0.1606236
v 1.482797 1.225143 -0.1606236
v 1.482797 1.225143 0.2389597
v -1.482799 0.8542134 -0.1606236
v -1.482799 0.8542134 0.2389597
v -1.482799 1.225143 0.2389597
v -1.482799 1.225143 -0.1606236
v 0.01901733 1.254954 -0.1606236
v -1.482799 1.254954 0.2389597
v -1.482799 1.254954 -0.1606236
v 0.01901733 1.254954 0.2301456
v 1.482797 1.254954 -0.1606236
v 1.482797 1.254954 0.2389597
v 1.482797 1.62798 -0.1606236
v 1.482797 1.62798 0.2389597
v 1.482797 1.254954 0.2389597
v 1.482797 1.254954 -0.1606236
v -0.03886475 1.672861 -0.2389597
v -1.53406 1.671661 0.2389597
v -1.53406 1.671661 -0.2389597
v -0.03886475 1.672861 0.2210824
v 1.53406 1.671661 -0.2389597
v 1.53406 1.671661 0.2389597
v -1.482799 1.62798 -0.1606236
v -1.482799 1.62798 0.2389597
v 0.01901733 1.629182 0.2210824
v 0.01901733 1.629182 -0.1606236
v 1.482797 1.62798 -0.1606236
v 1.482797 1.62798 0.2389597
v -1.482799 1.254954 -0.1606236
v -1.482799 1.254954 0.2389597
v -1.482799 1.62798 0.2389597
v -1.482799 1.62798 -0.1606236
v -1.482799 0.4452981 -0.1606236
v -1.482799 0.824403 -0.1606236
v -0.5843359 0.8115726 -0.1606236
v 0.1751343 0.4324618 -0.1606236
v 1.482797 0.4452981 -0.1606236
v 1.482797 0.824403 -0.1606236
v 0.01901733 1.225143 -0.1606236
v -1.482799 0.8542134 -0.1606236
v -1.482799 1.225143 -0.1606236
v -0.5843359 0.8413829 -0.1606236
v 1.482797 1.225143 -0.1606236
v 1.482797 0.8542134 -0.1606236
v 0.01901733 1.629182 -0.1606236
v -1.482799 1.254954 -0.1606236
v -1.482799 1.62798 -0.1606236
v 0.01901733 1.254954 -0.1606236
v 1.482797 1.62798 -0.1606236
v 1.482797 1.254954 -0.1606236
v -1.482799 0.04007416 -0.1606236
v -1.482799 0.419214 -0.1606236
v 0.1751343 0.4063777 -0.1606236
v 0.1685791 0.04007416 -0.1606236
v 1.482797 0.04007416 -0.1606236
v 1.482797 0.419214 -0.1606236
v -0.03886475 1.672861 -0.2389597
v -1.53406 1.671661 -0.2389597
v -1.53406 0 -0.2389597
v 0.1106982 0 -0.2389597
v 1.53406 1.671661 -0.2389597
v 1.53406 0 -0.2389597
v -1.017203 0.03664429 -0.1798556
v -1.017203 1.634342 -0.1798556
v -1.017203 1.634342 0.2269499
v -1.017203 0.03664429 0.2269499
v -0.9765612 1.634342 -0.1798556
v -0.9765612 0.03664429 -0.1798556
v -0.9765612 0.03664429 0.2269499
v -0.9765612 1.634342 0.2269499
v -1.017203 0.03664429 0.2269499
v -1.017203 1.634342 0.2269499
v -0.9765612 1.634342 0.2269499
v -0.9765612 0.03664429 0.2269499
v -0.5172033 0.03664429 -0.1798556
v -0.5172033 1.634342 -0.1798556
v -0.5172033 1.634342 0.2269499
v -0.5172033 0.03664429 0.2269499
v -0.4765613 1.634342 -0.1798556
v -0.4765613 0.03664429 -0.1798556
v -0.4765613 0.03664429 0.2269499
v -0.4765613 1.634342 0.2269499
v -0.5172033 0.03664429 0.2269499
v -0.5172033 1.634342 0.2269499
v -0.4765613 1.634342 0.2269499
v -0.4765613 0.03664429 0.2269499
v 0.9827966 0.03664429 -0.1798556
v 0.9827966 1.634342 -0.1798556
v 0.9827966 1.634342 0.2269499
v 0.9827966 0.03664429 0.2269499
v 1.023439 1.634342 -0.1798556
v 1.023439 0.03664429 -0.1798556
v 1.023439 0.03664429 0.2269499
v 1.023439 1.634342 0.2269499
v 0.9827966 0.03664429 0.2269499
v 0.9827966 1.634342 0.2269499
v 1.023439 1.634342 0.2269499
v 1.023439 0.03664429 0.2269499
v 0.4827966 0.03664429 -0.1798556
v 0.4827966 1.634342 -0.1798556
v 0.4827966 1.634342 0.2269499
v 0.4827966 0.03664429 0.2269499
v 0.5234387 1.634342 -0.1798556
v 0.5234387 0.03664429 -0.1798556
v 0.5234387 0.03664429 0.2269499
v 0.5234387 1.634342 0.2269499
v 0.4827966 0.03664429 0.2269499
v 0.4827966 1.634342 0.2269499
v 0.5234387 1.634342 0.2269499
v 0.5234387 0.03664429 0.2269499
v 1.53406 0 0.2389597
v 1.482797 0.04007416 0.2389597
v 1.482797 0.419214 0.2389597
v 0.1685791 0.04007416 0.2389597
v 0.1106982 0 0.2389597
v -1.53406 0 0.2389597
v -1.482799 0.04007416 0.2389597
v -1.53406 0.430393 0.2389597
v -1.482799 0.419214 0.2389597
v 1.53406 0.430393 0.2389597
v -1.482799 0.4452981 0.2389597
v 0.1751343 0.4063777 0.2167191
v -1.53406 0.8393087 0.2389597
v 0.1751343 0.4324618 0.2167191
v 1.482797 0.4452981 0.2389597
v 1.482797 0.824403 0.2389597
v -1.482799 0.824403 0.2389597
v 1.53406 0.8393087 0.2389597
v -1.482799 0.8542134 0.2389597
v -0.5843359 0.8115726 0.212284
v -1.53406 1.240049 0.2389597
v -0.5843359 0.8413829 0.212284
v 1.482797 0.8542134 0.2389597
v 1.482797 1.225143 0.2389597
v -1.482799 1.225143 0.2389597
v 1.53406 1.240049 0.2389597
v -1.482799 1.254954 0.2389597
v 0.01901733 1.225143 0.2301456
v -1.53406 1.671661 0.2389597
v 0.01901733 1.254954 0.2301456
v -1.482799 1.62798 0.2389597
v 1.482797 1.254954 0.2389597
v 1.482797 1.62798 0.2389597
v 1.53406 1.671661 0.2389597
v 0.01901733 1.629182 0.2210824
v -0.03886475 1.672861 0.2210824
vt 0.1022148 0.3517407
vt 0.1022335 0.3509591
vt 0.1021136 0.3509489
vt 0.1020985 0.3517752
vt 0.1022163 0.3509601
vt 0.1021983 0.3517375
vt 0.1020818 0.3517715
vt 0.1020963 0.35095
vt 0.1020985 0.3517752
vt 0.1021136 0.3509489
vt 0.1020963 0.35095
vt 0.1020818 0.3517715
vt 0.1022227 0.3733526
vt 0.1022227 0.3733526
vt 0.1022226 0.3733526
vt 0.1022226 0.3733526
vt 0.1022226 0.3733526
vt 0.1022226 0.3733526
vt 0.1022226 0.3601231
vt 0.1022227 0.3733526
vt 0.1022227 0.3601231
vt 0.1022226 0.3733526
vt 0.1022226 0.3733526
vt 0.1022226 0.3733526
vt 0.1022226 0.3733526
vt 0.1022226 0.3733526
vt 0.1022226 0.3733526
vt 0.1022226 0.3733526
vt 0.1022226 0.3733526
vt 0.1022226 0.3733525
vt 0.1022226 0.3733525
vt 0.1022226 0.3733526
vt 0.1022226 0.3733526
vt 0.1022226 0.3733526
vt 0.1022226 0.3733526
vt 0.1022227 0.3733526
vt 0.1022227 0.3733526
vt 0.1022226 0.3733526
vt 0.1022226 0.3733526
vt 0.1022226 0.3733526
vt 0.1022226 0.3733526
vt 0.1022227 0.3733526
vt 0.1022227 0.3733526
vt 0.1022227 0.3733526
vt 0.1022227 0.3733526
vt 0.1022227 0.3733526
vt 0.1022227 0.3733526
vt 0.1022227 0.3733525
vt 0.1022227 0.3601231
vt 0.1022227 0.3733526
vt 0.1022227 0.3733526
vt 0.1022227 0.3733526
vt 0.1022226 0.3601231
vt 0.1022227 0.3733526
vt 0.1022227 0.3733526
vt 0.1022226 0.3733526
vt 0.1022226 0.3601231
vt 0.1022226 0.3733526
vt 0.1022226 0.3733526
vt 0.1022226 0.3733526
vt 0.1022226 0.3733526
vt 0.1022226 0.3601231
vt 0.1022227 0.3733526
vt 0.1022227 0.3733526
vt 0.1022226 0.3733526
vt 0.1022226 0.3733526
vt 0.1022226 0.3733526
vt 0.1022226 0.3733526
vt 0.1022227 0.3733526
vt 0.1022227 0.3733526
vt 0.1022227 0.3733526
vt 0.1022227 0.3733526
vt 0.1022226 0.3733526
vt 0.1022227 0.3733526
vt 0.1022227 0.3733526
vt 0.1022226 0.3733526
vt 0.1022226 0.3733526
vt 0.1022226 0.3733526
vt 0.1022226 0.3733526
vt 0.1022226 0.3733526
vt 0.1022226 0.3733526
vt 0.1022226 0.3733526
vt 0.1022227 0.3733526
vt 0.1022227 0.3733526
vt 0.1022226 0.3733526
vt 0.1022226 0.3733526
vt 0.1022226 0.3733526
vt 0.1022226 0.3733526
vt 0.1022227 0.3733526
vt 0.1022227 0.3733526
vt 0.1022227 0.3733526
vt 0.1022227 0.3733526
vt 0.1022226 0.3733526
vt 0.1022227 0.3733526
vt 0.1022227 0.3733526
vt 0.1022226 0.3733526
vt 0.1022226 0.3733526
vt 0.1022226 0.3733526
vt 0.1022226 0.3733525
vt 0.1022226 0.3733525
vt 0.1022226 0.3733526
vt 0.1022226 0.3733526
vt 0.1022226 0.3733525
vt 0.1022227 0.3733525
vt 0.1022227 0.3733526
vt 0.1022226 0.3733525
vt 0.1022226 0.3733525
vt 0.1022226 0.3733525
vt 0.1022227 0.3733525
vt 0.1022227 0.3733525
vt 0.1022226 0.3733525
vt 0.1022226 0.3733525
vt 0.1022226 0.3733525
vt 0.1022226 0.3733525
vt 0.1022227 0.3733526
vt 0.1022227 0.3733526
vt 0.1022227 0.3733525
vt 0.1022227 0.3733525
vt 0.1022227 0.3490904
vt 0.1022227 0.3490904
vt 0.1022227 0.3490904
vt 0.1022227 0.3358609
vt 0.1022227 0.3358609
vt 0.1022227 0.3490904
vt 0.1022227 0.3490904
vt 0.1022227 0.3490904
vt 0.1022227 0.3490904
vt 0.1022227 0.3490904
vt 0.1022227 0.3490904
vt 0.1022227 0.3490904
vt 0.1022227 0.3490904
vt 0.1022227 0.3490904
vt 0.1022227 0.3490904
vt 0.1022227 0.3490904
vt 0.1022227 0.3490904
vt 0.1022227 0.3490904
vt 0.1022227 0.3358609
vt 0.1022227 0.3490904
vt 0.1022227 0.3490904
vt 0.1022227 0.3358609
vt 0.1022227 0.3490904
vt 0.1022227 0.3490904
vt 0.1022227 0.3733526
vt 0.1022227 0.3733526
vt 0.1022227 0.3733526
vt 0.1022227 0.3733526
vt 0.1022227 0.3733526
vt 0.1022227 0.3733526
vt 0.1026808 0.3518315
vt 0.1027227 0.3509322
vt 0.1026165 0.3509185
vt 0.1025766 0.3518773
vt 0.1026999 0.3509334
vt 0.1026592 0.3518273
vt 0.1025543 0.3518725
vt 0.1025928 0.3509198
vt 0.1025766 0.3518773
vt 0.1026165 0.3509185
vt 0.1025928 0.3509198
vt 0.1025543 0.3518725
vt 0.1024316 0.351783
vt 0.1024604 0.3509466
vt 0.1023458 0.3509348
vt 0.10232 0.3518225
vt 0.1024407 0.3509477
vt 0.1024129 0.3517792
vt 0.1023007 0.3518184
vt 0.1023256 0.3509361
vt 0.10232 0.3518225
vt 0.1023458 0.3509348
vt 0.1023256 0.3509361
vt 0.1023007 0.3518184
vt 0.1018557 0.3516709
vt 0.1018603 0.3509797
vt 0.1017363 0.3509718
vt 0.1017355 0.3516976
vt 0.101847 0.3509803
vt 0.1018428 0.3516684
vt 0.1017227 0.3516949
vt 0.1017229 0.3509727
vt 0.1017355 0.3516976
vt 0.1017363 0.3509718
vt 0.1017229 0.3509727
vt 0.1017227 0.3516949
vt 0.1020243 0.3517037
vt 0.1020352 0.3509701
vt 0.1019124 0.3509611
vt 0.1019054 0.3517339
vt 0.1020201 0.3509709
vt 0.1020098 0.3517008
vt 0.1018908 0.3517309
vt 0.1018972 0.3509621
vt 0.1019054 0.3517339
vt 0.1019124 0.3509611
vt 0.1018972 0.3509621
vt 0.1018908 0.3517309
vt 0.1022226 0.3733526
vt 0.1022226 0.3733526
vt 0.1022226 0.3733526
vt 0.1022226 0.3733526
vt 0.1022226 0.3733526
vt 0.1022227 0.3733526
vt 0.1022227 0.3733526
vt 0.1022227 0.3733526
vt 0.1022227 0.3733526
vt 0.1022226 0.3733526
vt 0.1022227 0.3733526
vt 0.1022226 0.3733526
vt 0.1022227 0.3733526
vt 0.1022226 0.3733526
vt 0.1022226 0.3733526
vt 0.1022226 0.3733526
vt 0.1022227 0.3733526
vt 0.1022226 0.3733526
vt 0.1022227 0.3733526
vt 0.1022226 0.3733526
vt 0.1022227 0.3733526
vt 0.1022226 0.3733526
vt 0.1022226 0.3733526
vt 0.1022226 0.3733526
vt 0.1022227 0.3733526
vt 0.1022226 0.3733526
vt 0.1022227 0.3733526
vt 0.1022226 0.3733526
vt 0.1022227 0.3733525
vt 0.1022226 0.3733526
vt 0.1022227 0.3733525
vt 0.1022226 0.3733526
vt 0.1022226 0.3733525
vt 0.1022226 0.3733525
vt 0.1022226 0.3733525
vt 0.1022226 0.3733525
vn -1 0 0
vn -1 0 0
vn -1 0 0
vn -1 0 0
vn 1 0 0
vn 1 0 0
vn 1 0 0
vn 1 0 0
vn 0 0 1
vn 0 0 1
vn 0 0 1
vn 0 0 1
vn 0 -1 0
vn 0 -1 0
vn 0 -1 0
vn 0 -1 0
vn 0 -1 0
vn 0 -1 0
vn 0 1 0
vn 0 1 0
vn 0 1 0
vn 0 1 0
vn 0 1 0
vn 0 1 0
vn 1 0 0
vn 1 0 0
vn 1 0 0
vn 1 0 0
vn 1 0 0
vn 1 0 0
vn 1 0 0
vn -1 0 0
vn -1 0 0
vn -1 0 0
vn -1 0 0
vn -0.007742167 -0.9999701 0
vn -0.007742167 -0.9999701 0
vn 0 -1 0
vn 0 -1 0
vn 0.009815807 -0.9999518 0
vn 0.009815807 -0.9999518 0
vn -1 0 0
vn -1 0 0
vn -1 0 0
vn -1 0 0
vn -1 0 0
vn -1 0 0
vn -1 0 0
vn 1 0 0
vn 1 0 0
vn 1 0 0
vn 1 0 0
vn 0 1 0
vn 0.007742167 0.9999701 0
vn 0.007742167 0.9999701 0
vn 0 1 0
vn -0.009815807 0.9999518 0
vn -0.009815807 0.9999518 0
vn -1 0 0
vn -1 0 0
vn -1 0 0
vn -1 0 0
vn -0.01427905 -0.9998981 0
vn -0.01427905 -0.9998981 0
vn -4.568034E-05 -1 0
vn 0 -1 0
vn 0.00620679 -0.9999808 0
vn 0.00620679 -0.9999808 0
vn 1 0 0
vn 1 0 0
vn 1 0 0
vn 1 0 0
vn 0 1 0
vn 0.01427905 0.9998981 0
vn 0.01427905 0.9998981 0
vn 4.568034E-05 1 0
vn -0.00620679 0.9999808 0
vn -0.00620679 0.9999808 0
vn -1 0 0
vn -1 0 0
vn -1 0 0
vn -1 0 0
vn 0 -1 0
vn 0 -1 0
vn 0 -1 0
vn 0 -1 0
vn 0 -1 0
vn 0 -1 0
vn 1 0 0
vn 1 0 0
vn 1 0 0
vn 1 0 0
vn 0 1 0
vn 0 1 0
vn 0 1 0
vn 0 1 0
vn 0 1 0
vn 0 1 0
vn -1 0 0
vn -1 0 0
vn -1 0 0
vn -1 0 0
vn 0 1 0
vn -0.0008025379 0.9999998 0
vn -0.000802538 0.9999998 0
vn 0 1 0
vn 0.0007628788 0.9999998 0
vn 0.0007628789 0.9999998 0
vn 0.000800219 -0.9999998 0
vn 0.000800219 -0.9999998 0
vn 0 -1 0
vn 0 -1 0
vn -0.0008210129 -0.9999996 0
vn -0.000821013 -0.9999996 0
vn 1 0 0
vn 1 0 0
vn 1 0 0
vn 1 0 0
vn 0 0 1
vn 0 0 1
vn 0 0 1
vn 0 0 1
vn 0 0 1
vn 0 0 1
vn 0 0 1
vn 0 0 1
vn 0 0 1
vn 0 0 1
vn 0 0 1
vn 0 0 1
vn 0 0 1
vn 0 0 1
vn 0 0 1
vn 0 0 1
vn 0 0 1
vn 0 0 1
vn 0 0 1
vn 0 0 1
vn 0 0 1
vn 0 0 1
vn 0 0 1
vn 0 0 1
vn 0 0 -1
vn 0 0 -1
vn 0 0 -1
vn 0 0 -1
vn 0 0 -1
vn 0 0 -1
vn -1 0 0
vn -1 0 0
vn -1 0 0
vn -1 0 0
vn 1 0 0
vn 1 0 0
vn 1 0 0
vn 1 0 0
vn 0 0 1
vn 0 0 1
vn 0 0 1
vn 0 0 1
vn -1 0 0
vn -1 0 0
vn -1 0 0
vn -1 0 0
vn 1 0 0
vn 1 0 0
vn 1 0 0
vn 1 0 0
vn 0 0 1
vn 0 0 1
vn 0 0 1
vn 0 0 1
vn -1 0 0
vn -1 0 0
vn -1 0 0
vn -1 0 0
vn 1 0 0
vn 1 0 0
vn 1 0 0
vn 1 0 0
vn 0 0 1
vn 0 0 1
vn 0 0 1
vn 0 0 1
vn -1 0 0
vn -1 0 0
vn -1 0 0
vn -1 0 0
vn 1 0 0
vn 1 0 0
vn 1 0 0
vn 1 0 0
vn 0 0 1
vn 0 0 1
vn 0 0 1
vn 0 0 1
vn 0 0 1
vn 0 0 1
vn -0.007062903 0 0.9999751
vn 0 0 1
vn 0 0 1
vn 0 0 1
vn 0 0 1
vn 0 0 1
vn 0.006351656 0 0.9999799
vn 0 0 1
vn 0.006288168 0 0.9999802
vn 0 0 1
vn 0 0 1
vn 0 0 1
vn -0.006973721 0 0.9999757
vn -0.007205677 0 0.999974
vn 0.01056454 0 0.9999442
vn 0 0 1
vn 0.01057991 0 0.9999441
vn -4.645793E-05 0 1
vn 0 0 1
vn 4.596692E-05 0 1
vn -0.007245529 0 0.9999738
vn -0.002869336 0 0.9999959
vn 0.002834302 0 0.9999961
vn 0 0 1
vn 0.002774634 0 0.9999962
vn 0 0 1
vn 0.008602225 0.01074714 0.9999052
vn 0 0 1
vn 0.009207344 0.01150315 0.9998914
vn -0.0028082 0 0.9999961
vn -0.00912211 -0.0006911053 0.9999582
vn -0.0085274 -0.0006460492 0.9999634
vn -0.006941772 0.002327062 0.9999732
vn 0.00699782 0.0116118 0.9999081
g SM_Prop_Shelf_07_0
f 3/3/3 2/2/2 1/1/1
f 4/4/4 3/3/3 1/1/1
f 7/7/7 6/6/6 5/5/5
f 8/8/8 7/7/7 5/5/5
f 11/11/11 10/10/10 9/9/9
f 12/12/12 11/11/11 9/9/9
f 15/15/15 14/14/14 13/13/13
f 16/16/16 15/15/15 13/13/13
f 16/16/16 17/17/17 15/15/15
f 17/17/17 18/18/18 15/15/15
f 21/21/21 20/20/20 19/19/19
f 20/20/20 22/22/22 19/19/19
f 19/19/19 22/22/22 23/23/23
f 22/22/22 24/24/24 23/23/23
f 27/27/27 26/26/26 25/25/25
f 28/28/28 27/27/27 25/25/25
f 29/29/29 28/28/28 25/25/25
f 30/30/30 29/29/29 25/25/25
f 31/31/31 29/29/29 30/30/30
f 34/34/34 33/33/33 32/32/32
f 35/35/35 34/34/34 32/32/32
f 38/38/38 37/37/37 36/36/36
f 39/39/39 38/38/38 36/36/36
f 39/39/39 40/40/40 38/38/38
f 40/40/40 41/41/41 38/38/38
f 44/44/44 43/43/43 42/42/42
f 42/42/42 43/43/43 45/45/45
f 43/43/43 46/46/46 45/45/45
f 46/46/46 47/47/47 45/45/45
f 47/47/47 48/48/48 45/45/45
f 51/51/51 50/50/50 49/49/49
f 52/52/52 51/51/51 49/49/49
f 55/55/55 54/54/54 53/53/53
f 54/54/54 56/56/56 53/53/53
f 53/53/53 56/56/56 57/57/57
f 56/56/56 58/58/58 57/57/57
f 61/61/61 60/60/60 59/59/59
f 62/62/62 61/61/61 59/59/59
f 65/65/65 64/64/64 63/63/63
f 66/66/66 65/65/65 63/63/63
f 66/66/66 67/67/67 65/65/65
f 67/67/67 68/68/68 65/65/65
f 71/71/71 70/70/70 69/69/69
f 72/72/72 71/71/71 69/69/69
f 75/75/75 74/74/74 73/73/73
f 74/74/74 76/76/76 73/73/73
f 73/73/73 76/76/76 77/77/77
f 76/76/76 78/78/78 77/77/77
f 81/81/81 80/80/80 79/79/79
f 82/82/82 81/81/81 79/79/79
f 85/85/85 84/84/84 83/83/83
f 86/86/86 85/85/85 83/83/83
f 86/86/86 87/87/87 85/85/85
f 87/87/87 88/88/88 85/85/85
f 91/91/91 90/90/90 89/89/89
f 92/92/92 91/91/91 89/89/89
f 95/95/95 94/94/94 93/93/93
f 94/94/94 96/96/96 93/93/93
f 93/93/93 96/96/96 97/97/97
f 96/96/96 98/98/98 97/97/97
f 101/101/101 100/100/100 99/99/99
f 102/102/102 101/101/101 99/99/99
f 105/105/105 104/104/104 103/103/103
f 104/104/104 106/106/106 103/103/103
f 103/103/103 106/106/106 107/107/107
f 106/106/106 108/108/108 107/107/107
f 111/111/111 110/110/110 109/109/109
f 112/112/112 111/111/111 109/109/109
f 112/112/112 113/113/113 111/111/111
f 113/113/113 114/114/114 111/111/111
f 117/117/117 116/116/116 115/115/115
f 118/118/118 117/117/117 115/115/115
f 121/121/121 120/120/120 119/119/119
f 122/122/122 121/121/121 119/119/119
f 122/122/122 123/123/123 121/121/121
f 123/123/123 124/124/124 121/121/121
f 127/127/127 126/126/126 125/125/125
f 126/126/126 128/128/128 125/125/125
f 125/125/125 128/128/128 129/129/129
f 128/128/128 130/130/130 129/129/129
f 133/133/133 132/132/132 131/131/131
f 132/132/132 134/134/134 131/131/131
f 131/131/131 134/134/134 135/135/135
f 134/134/134 136/136/136 135/135/135
f 139/139/139 138/138/138 137/137/137
f 140/140/140 139/139/139 137/137/137
f 140/140/140 141/141/141 139/139/139
f 141/141/141 142/142/142 139/139/139
f 145/145/145 144/144/144 143/143/143
f 146/146/146 145/145/145 143/143/143
f 146/146/146 143/143/143 147/147/147
f 148/148/148 146/146/146 147/147/147
f 151/151/151 150/150/150 149/149/149
f 152/152/152 151/151/151 149/149/149
f 155/155/155 154/154/154 153/153/153
f 156/156/156 155/155/155 153/153/153
f 159/159/159 158/158/158 157/157/157
f 160/160/160 159/159/159 157/157/157
f 163/163/163 162/162/162 161/161/161
f 164/164/164 163/163/163 161/161/161
f 167/167/167 166/166/166 165/165/165
f 168/168/168 167/167/167 165/165/165
f 171/171/171 170/170/170 169/169/169
f 172/172/172 171/171/171 169/169/169
f 175/175/175 174/174/174 173/173/173
f 176/176/176 175/175/175 173/173/173
f 179/179/179 178/178/178 177/177/177
f 180/180/180 179/179/179 177/177/177
f 183/183/183 182/182/182 181/181/181
f 184/184/184 183/183/183 181/181/181
f 187/187/187 186/186/186 185/185/185
f 188/188/188 187/187/187 185/185/185
f 191/191/191 190/190/190 189/189/189
f 192/192/192 191/191/191 189/189/189
f 195/195/195 194/194/194 193/193/193
f 196/196/196 195/195/195 193/193/193
f 199/199/199 198/198/198 197/197/197
f 197/197/197 198/198/198 200/200/200
f 201/201/201 197/197/197 200/200/200
f 201/201/201 200/200/200 202/202/202
f 200/200/200 203/203/203 202/202/202
f 202/202/202 203/203/203 204/204/204
f 203/203/203 205/205/205 204/204/204
f 206/206/206 199/199/199 197/197/197
f 207/207/207 204/204/204 205/205/205
f 207/207/207 205/205/205 208/208/208
f 204/204/204 207/207/207 209/209/209
f 208/208/208 210/210/210 207/207/207
f 210/210/210 208/208/208 199/199/199
f 211/211/211 210/210/210 199/199/199
f 199/199/199 206/206/206 211/211/211
f 212/212/212 211/211/211 206/206/206
f 207/207/207 213/213/213 209/209/209
f 214/214/214 212/212/212 206/206/206
f 215/215/215 209/209/209 213/213/213
f 215/215/215 213/213/213 216/216/216
f 209/209/209 215/215/215 217/217/217
f 216/216/216 218/218/218 215/215/215
f 218/218/218 216/216/216 212/212/212
f 219/219/219 218/218/218 212/212/212
f 212/212/212 214/214/214 219/219/219
f 220/220/220 219/219/219 214/214/214
f 215/215/215 221/221/221 217/217/217
f 222/222/222 220/220/220 214/214/214
f 223/223/223 217/217/217 221/221/221
f 223/223/223 221/221/221 224/224/224
f 217/217/217 223/223/223 225/225/225
f 224/224/224 226/226/226 223/223/223
f 226/226/226 224/224/224 220/220/220
f 223/223/223 227/227/227 225/225/225
f 228/228/228 226/226/226 220/220/220
f 220/220/220 222/222/222 228/228/228
f 229/229/229 228/228/228 222/222/222
f 230/230/230 229/229/229 222/222/222
f 225/225/225 227/227/227 231/231/231
f 231/231/231 229/229/229 230/230/230
f 232/232/232 225/225/225 231/231/231
f 232/232/232 231/231/231 230/230/230
