g SM_Prop_BedsideTable_Drawer_01
v -0.1271176 0.003699055 -0.33953
v -0.1251999 0.007830677 -0.3376111
v -0.1251999 0.007830562 0.001917725
v -0.1271176 0.003699055 0
v -0.1271176 -0.05798319 -0.33953
v -0.1271176 -0.05798319 0
v -0.1106815 -0.04385145 -0.2866748
v 0.1106821 -0.04385145 -0.2866748
v 0.1106821 -0.04385145 -0.0174707
v -0.1106815 -0.04385145 -0.0174707
v 0.1252017 0.007830791 -0.3376111
v 0.1271176 0.003699055 0
v 0.1252017 0.007830791 0.001917725
v 0.1271176 0.003699055 -0.33953
v 0.1271176 -0.05798319 0
v 0.1271176 -0.05798319 -0.33953
v 0.1271176 -0.05798319 -0.33953
v -0.1271176 -0.05798319 -0.33953
v -0.1271176 -0.05798319 0
v 0.1271176 -0.05798319 0
v -0.1554221 0.001989155 0.01742554
v -0.1535043 0.005478344 0.01550537
v 0.1535062 0.005478344 0.01550537
v 0.1554221 0.001989155 0.01742554
v -0.01463837 -0.00880228 0.01742554
v 0.01464142 -0.00880228 0.01742554
v -0.01463837 -0.03615747 0.01742554
v 0.1554221 -0.06388757 0.01742554
v -0.1554221 -0.06388757 0.01742554
v 0.01464142 -0.03615747 0.01742554
v 0.1271176 0.003699055 -0.33953
v 0.1252017 0.007830791 -0.3376111
v -0.1251999 0.007830677 -0.3376111
v -0.1271176 0.003699055 -0.33953
v 0.1271176 -0.05798319 -0.33953
v -0.1271176 -0.05798319 -0.33953
v 0.1554221 0.001989155 0
v 0.1535062 0.005478344 0.001917725
v 0.1252017 0.007830791 0.001917725
v 0.1271176 0.003699055 0
v 0.1271176 -0.05798319 0
v 0.1554221 -0.06388757 0
v -0.1271176 -0.05798319 0
v -0.1554221 -0.06388757 0
v -0.1554221 0.001989155 0
v -0.1271176 0.003699055 0
v -0.1535043 0.005478191 0.001917725
v -0.1251999 0.007830562 0.001917725
v -0.1554221 -0.06388757 0
v -0.1554221 -0.06388757 0.01742554
v 0.1554221 -0.06388757 0.01742554
v 0.1554221 -0.06388757 0
v 0.1554221 0.001989155 0.01742554
v 0.1535062 0.005478344 0.01550537
v 0.1535062 0.005478344 0.001917725
v 0.1554221 0.001989155 0
v 0.1554221 -0.06388757 0
v 0.1554221 -0.06388757 0.01742554
v 0.1554221 0.06388757 0
v 0.1554221 0.06388757 0.01742554
v -0.1554221 0.06388757 0.01742554
v -0.1554221 0.06388757 0
v -0.1535043 0.005478344 0.01550537
v -0.1554221 0.001989155 0
v -0.1535043 0.005478191 0.001917725
v -0.1554221 0.001989155 0.01742554
v -0.1554221 -0.06388757 0
v -0.1554221 -0.06388757 0.01742554
v -0.1106815 0.05707189 -0.2866748
v -0.1106815 -0.04385145 -0.2866748
v -0.1106815 -0.04385145 -0.0174707
v -0.1106815 0.05707189 -0.0174707
v -0.1106815 0.05707189 -0.0174707
v -0.1106815 -0.04385145 -0.0174707
v 0.1106821 -0.04385145 -0.0174707
v 0.1106821 0.05707189 -0.0174707
v 0.1106821 0.05707189 -0.0174707
v 0.1106821 -0.04385145 -0.0174707
v 0.1106821 -0.04385145 -0.2866748
v 0.1106821 0.05707189 -0.2866748
v 0.1106821 0.05707189 -0.2866748
v 0.1106821 -0.04385145 -0.2866748
v -0.1106815 -0.04385145 -0.2866748
v -0.1106815 0.05707189 -0.2866748
v 0.1535062 0.005478344 0.001917725
v 0.1271176 0.01096476 0
v 0.1252017 0.007830791 0.001917725
v 0.1554221 0.009703502 0
v 0.1271176 0.05707189 0
v 0.1554221 0.06388757 0
v -0.1554221 0.06388757 0
v -0.1271176 0.05707189 0
v -0.1554221 0.009703464 0
v -0.127117 0.01096476 0
v -0.1251999 0.007830562 0.001917725
v -0.1535043 0.005478191 0.001917725
v 0.1535062 0.005478344 0.01550537
v 0.1554221 0.009703502 0
v 0.1535062 0.005478344 0.001917725
v 0.1554221 0.009703502 0.01742554
v 0.1554221 0.06388757 0
v 0.1554221 0.06388757 0.01742554
v -0.1535043 0.005478344 0.01550537
v 0.1554221 0.009703502 0.01742554
v 0.1535062 0.005478344 0.01550537
v -0.1554221 0.009703464 0.01742554
v 0.1554221 0.06388757 0.01742554
v -0.1554221 0.06388757 0.01742554
v -0.1554221 0.009703464 0.01742554
v -0.1535043 0.005478344 0.01550537
v -0.1535043 0.005478191 0.001917725
v -0.1554221 0.009703464 0
v -0.1554221 0.06388757 0
v -0.1554221 0.06388757 0.01742554
v -0.1251999 0.007830677 -0.3376111
v -0.127117 0.01096476 0
v -0.1251999 0.007830562 0.001917725
v -0.127117 0.01096476 -0.33953
v -0.1271176 0.05707189 0
v -0.1271176 0.05707189 -0.33953
v 0.1252017 0.007830791 -0.3376111
v -0.127117 0.01096476 -0.33953
v -0.1251999 0.007830677 -0.3376111
v 0.1271176 0.01096476 -0.33953
v -0.1271176 0.05707189 -0.33953
v 0.1271176 0.05707189 -0.33953
v 0.1271176 0.01096476 -0.33953
v 0.1252017 0.007830791 -0.3376111
v 0.1252017 0.007830791 0.001917725
v 0.1271176 0.01096476 0
v 0.1271176 0.05707189 -0.33953
v 0.1271176 0.05707189 0
v -0.01463837 -0.03615747 0.03358032
v -0.01463837 -0.00880228 0.03358032
v 0.01464142 -0.00880228 0.03358032
v 0.01464142 -0.03615747 0.03358032
v -0.01463837 -0.03615747 0.01742554
v -0.01463837 -0.03615747 0.03358032
v 0.01464142 -0.03615747 0.03358032
v 0.01464142 -0.03615747 0.01742554
v 0.01464142 -0.03615747 0.01742554
v 0.01464142 -0.03615747 0.03358032
v 0.01464142 -0.00880228 0.03358032
v 0.01464142 -0.00880228 0.01742554
v 0.01464142 -0.00880228 0.01742554
v 0.01464142 -0.00880228 0.03358032
v -0.01463837 -0.00880228 0.03358032
v -0.01463837 -0.00880228 0.01742554
v -0.01463837 -0.00880228 0.01742554
v -0.01463837 -0.00880228 0.03358032
v -0.01463837 -0.03615747 0.03358032
v -0.01463837 -0.03615747 0.01742554
v -0.1271176 0.05707189 -0.33953
v -0.1106815 0.05707189 -0.2866748
v -0.1106815 0.05707189 -0.0174707
v -0.1271176 0.05707189 0
v 0.1271176 0.05707189 -0.33953
v 0.1106821 0.05707189 -0.0174707
v 0.1106821 0.05707189 -0.2866748
v 0.1271176 0.05707189 0
vt 0.005263995 0.3017538
vt 0.005263995 0.3017538
vt 0.005263995 0.3017538
vt 0.005263995 0.3017538
vt 0.005263995 0.3017538
vt 0.005263995 0.3017538
vt 0.005263995 0.3017537
vt 0.005263995 0.3017538
vt 0.005263995 0.3017538
vt 0.005263995 0.3017537
vt 0.005263995 0.3017538
vt 0.005263988 0.3017538
vt 0.005263995 0.3017538
vt 0.005263988 0.3017538
vt 0.005263995 0.3017538
vt 0.005263995 0.3017538
vt 0.005263995 0.3017538
vt 0.005263995 0.3017538
vt 0.005263995 0.3017538
vt 0.005263995 0.3017538
vt 0.005263995 0.3017538
vt 0.005263995 0.3017538
vt 0.005263995 0.3017538
vt 0.005263988 0.3017538
vt 0.005263995 0.3017538
vt 0.005263988 0.3017538
vt 0.005263995 0.3017538
vt 0.005263995 0.3017538
vt 0.005263995 0.3017538
vt 0.005263995 0.3017538
vt 0.005264025 0.3017538
vt 0.005264025 0.3017538
vt 0.005263995 0.3017538
vt 0.005263995 0.3017538
vt 0.005264025 0.3017538
vt 0.005263995 0.3017538
vt 0.005263988 0.3017538
vt 0.005263995 0.3017538
vt 0.005263995 0.3017538
vt 0.005263988 0.3017538
vt 0.005263995 0.3017538
vt 0.005263995 0.3017538
vt 0.005263995 0.3017538
vt 0.005263995 0.3017538
vt 0.005263995 0.3017538
vt 0.005263995 0.3017538
vt 0.005263995 0.3017538
vt 0.005263995 0.3017538
vt 0.005263995 0.3017538
vt 0.005263995 0.3017538
vt 0.005263995 0.3017538
vt 0.005263995 0.3017538
vt 0.005263988 0.3017538
vt 0.005263995 0.3017538
vt 0.005263995 0.3017538
vt 0.005263988 0.3017538
vt 0.005263995 0.3017538
vt 0.005263995 0.3017538
vt 0.005263995 0.3017537
vt 0.005263995 0.3017537
vt 0.005263995 0.3017537
vt 0.005263995 0.3017537
vt 0.005263995 0.3017538
vt 0.005263995 0.3017538
vt 0.005263995 0.3017538
vt 0.005263995 0.3017538
vt 0.005263995 0.3017538
vt 0.005263995 0.3017538
vt 0.005263995 0.3017537
vt 0.005263995 0.3017537
vt 0.005263995 0.3017537
vt 0.005263995 0.3017537
vt 0.005263995 0.3017537
vt 0.005263995 0.3017537
vt 0.005263995 0.3017538
vt 0.005263995 0.3017538
vt 0.005263995 0.3017538
vt 0.005263995 0.3017538
vt 0.005263995 0.3017538
vt 0.005263995 0.3017538
vt 0.005263995 0.3017538
vt 0.005263995 0.3017538
vt 0.005263995 0.3017537
vt 0.005263995 0.3017537
vt 0.005263995 0.3017538
vt 0.005263995 0.3017538
vt 0.005263995 0.3017538
vt 0.005263995 0.3017538
vt 0.005263995 0.3017537
vt 0.005263995 0.3017537
vt 0.005263995 0.3017537
vt 0.005263995 0.3017537
vt 0.005263988 0.3017538
vt 0.005263988 0.3017538
vt 0.005263995 0.3017538
vt 0.005263995 0.3017538
vt 0.005263995 0.3017538
vt 0.005263995 0.3017538
vt 0.005263995 0.3017538
vt 0.005263995 0.3017538
vt 0.005263995 0.3017537
vt 0.005263995 0.3017537
vt 0.005263995 0.3017538
vt 0.005263995 0.3017538
vt 0.005263995 0.3017538
vt 0.005263988 0.3017538
vt 0.005263995 0.3017537
vt 0.005263995 0.3017537
vt 0.005263988 0.3017538
vt 0.005263995 0.3017538
vt 0.005263995 0.3017538
vt 0.005263988 0.3017538
vt 0.005263995 0.3017537
vt 0.005263995 0.3017537
vt 0.005263995 0.3017538
vt 0.005263988 0.3017538
vt 0.005263995 0.3017538
vt 0.005263988 0.3017538
vt 0.005263995 0.3017537
vt 0.005263995 0.3017537
vt 0.005264025 0.3017538
vt 0.005263988 0.3017538
vt 0.005263995 0.3017538
vt 0.005264025 0.3017538
vt 0.005263995 0.3017537
vt 0.005264025 0.3017537
vt 0.005263995 0.3017538
vt 0.005263995 0.3017538
vt 0.005263995 0.3017538
vt 0.005263995 0.3017538
vt 0.005263995 0.3017538
vt 0.005263995 0.3017538
vt 0.1031494 0.2998657
vt 0.1031494 0.2998657
vt 0.1031494 0.2998657
vt 0.1031494 0.2998657
vt 0.1031494 0.2998657
vt 0.1031494 0.2998657
vt 0.1031494 0.2998657
vt 0.1031494 0.2998657
vt 0.1031494 0.2998657
vt 0.1031494 0.2998657
vt 0.1031494 0.2998657
vt 0.1031494 0.2998657
vt 0.1031494 0.2998657
vt 0.1031494 0.2998657
vt 0.1031494 0.2998657
vt 0.1031494 0.2998657
vt 0.1031494 0.2998657
vt 0.1031494 0.2998657
vt 0.1031494 0.2998657
vt 0.1031494 0.2998657
vt 0.005263995 0.3017537
vt 0.005263995 0.3017537
vt 0.005263995 0.3017537
vt 0.005263995 0.3017537
vt 0.005263995 0.3017538
vt 0.005263995 0.3017538
vt 0.005263995 0.3017538
vt 0.005263995 0.3017538
vn -0.9764863 0.2155794 0
vn -0.9070511 0.4210206 0
vn -0.9070511 0.4210206 0
vn -0.9764863 0.2155794 0
vn -1 0 0
vn -1 0 0
vn 0 1 0
vn 0 1 0
vn 0 1 0
vn 0 1 0
vn 0.9072112 0.4206755 0
vn 0.9765273 0.2153936 0
vn 0.9072112 0.4206755 0
vn 0.9765273 0.2153936 0
vn 1 0 0
vn 1 0 0
vn 0 -1 0
vn 0 -1 0
vn 0 -1 0
vn 0 -1 0
vn 0 0.1653276 0.9862387
vn 0 0.4821331 0.876098
vn 0 0.4821331 0.876098
vn 0 0.1653276 0.9862387
vn 0 0 1
vn 0 0 1
vn 0 0 1
vn 0 0 1
vn 0 0 1
vn 0 0 1
vn 0 0.2156929 -0.9764613
vn 0 0.4212314 -0.9069531
vn 0 0.4212314 -0.9069531
vn 0 0.2156929 -0.9764613
vn 0 0 -1
vn 0 0 -1
vn 0.01709201 0.2381775 -0.9710713
vn 0.03319512 0.4625745 -0.8859587
vn 0.03319512 0.4625745 -0.8859587
vn 0.01709201 0.2381775 -0.9710713
vn 0 0 -1
vn 0 0 -1
vn 0 0 -1
vn 0 0 -1
vn -0.01709293 0.2381947 -0.971067
vn -0.01709293 0.2381947 -0.971067
vn -0.03319676 0.4626061 -0.8859422
vn -0.03319676 0.4626061 -0.8859422
vn 0 -1 0
vn 0 -1 0
vn 0 -1 0
vn 0 -1 0
vn 0.9686462 0.2484442 0
vn 0.876551 0.481309 0
vn 0.876551 0.481309 0
vn 0.9686462 0.2484442 0
vn 1 0 0
vn 1 0 0
vn 0 1 0
vn 0 1 0
vn 0 1 0
vn 0 1 0
vn -0.8763525 0.4816705 0
vn -0.968595 0.2486439 0
vn -0.8763525 0.4816705 0
vn -0.968595 0.2486439 0
vn -1 0 0
vn -1 0 0
vn 1 0 0
vn 1 0 0
vn 1 0 0
vn 1 0 0
vn 0 0 -1
vn 0 0 -1
vn 0 0 -1
vn 0 0 -1
vn -1 0 0
vn -1 0 0
vn -1 0 0
vn -1 0 0
vn 0 0 1
vn 0 0 1
vn 0 0 1
vn 0 0 1
vn -0.02873779 -0.4501796 -0.8924755
vn -0.01477145 -0.2313959 -0.9727475
vn -0.02873779 -0.4501796 -0.8924755
vn -0.01477145 -0.2313959 -0.9727475
vn 0 0 -1
vn 0 0 -1
vn 0 0 -1
vn 0 0 -1
vn 0.01477027 -0.2313822 -0.9727508
vn 0.01477027 -0.2313822 -0.9727508
vn 0.02873557 -0.4501545 -0.8924882
vn 0.02873557 -0.4501545 -0.8924882
vn 0.9107423 -0.4129751 0
vn 0.9774309 -0.2112554 0
vn 0.9107423 -0.4129751 0
vn 0.9774309 -0.2112554 0
vn 1 0 0
vn 1 0 0
vn 0 -0.4137401 0.9103951
vn 0 -0.2116659 0.9773421
vn 0 -0.4137401 0.9103951
vn 0 -0.2116659 0.9773421
vn 0 0 1
vn 0 0 1
vn -0.9773933 -0.2114294 0
vn -0.9105952 -0.4132992 0
vn -0.9105952 -0.4132992 0
vn -0.9773933 -0.2114294 0
vn -1 0 0
vn -1 0 0
vn -0.8530627 -0.5218084 0
vn -0.9625633 -0.2710574 0
vn -0.8530627 -0.5218084 0
vn -0.9625633 -0.2710574 0
vn -1 -1.323768E-05 0
vn -1 -1.323768E-05 0
vn 0 -0.5221848 -0.8528323
vn 0 -0.2712634 -0.9625052
vn 0 -0.5221848 -0.8528323
vn 0 -0.2712634 -0.9625052
vn 0 0 -1
vn 0 0 -1
vn 0.9626002 -0.2709263 0
vn 0.8531979 -0.5215873 0
vn 0.8531979 -0.5215873 0
vn 0.9626002 -0.2709263 0
vn 1 0 0
vn 1 0 0
vn 0 0 1
vn 0 0 1
vn 0 0 1
vn 0 0 1
vn 0 -1 0
vn 0 -1 0
vn 0 -1 0
vn 0 -1 0
vn 1 0 0
vn 1 0 0
vn 1 0 0
vn 1 0 0
vn 0 1 0
vn 0 1 0
vn 0 1 0
vn 0 1 0
vn -1 0 0
vn -1 0 0
vn -1 0 0
vn -1 0 0
vn 0 1 0
vn 0 1 0
vn 0 1 0
vn 0 1 0
vn 0 1 0
vn 0 1 0
vn 0 1 0
vn 0 1 0
g SM_Prop_BedsideTable_Drawer_01_0
f 3/3/3 2/2/2 1/1/1
f 4/4/4 3/3/3 1/1/1
f 4/4/4 1/1/1 5/5/5
f 6/6/6 4/4/4 5/5/5
f 9/9/9 8/8/8 7/7/7
f 10/10/10 9/9/9 7/7/7
f 13/13/13 12/12/12 11/11/11
f 12/12/12 14/14/14 11/11/11
f 12/12/12 15/15/15 14/14/14
f 15/15/15 16/16/16 14/14/14
f 19/19/19 18/18/18 17/17/17
f 20/20/20 19/19/19 17/17/17
f 23/23/23 22/22/22 21/21/21
f 24/24/24 23/23/23 21/21/21
f 21/21/21 25/25/25 24/24/24
f 25/25/25 26/26/26 24/24/24
f 27/27/27 25/25/25 21/21/21
f 24/24/24 26/26/26 28/28/28
f 29/29/29 27/27/27 21/21/21
f 26/26/26 30/30/30 28/28/28
f 30/30/30 27/27/27 29/29/29
f 28/28/28 30/30/30 29/29/29
f 33/33/33 32/32/32 31/31/31
f 34/34/34 33/33/33 31/31/31
f 34/34/34 31/31/31 35/35/35
f 36/36/36 34/34/34 35/35/35
f 39/39/39 38/38/38 37/37/37
f 40/40/40 39/39/39 37/37/37
f 40/40/40 37/37/37 41/41/41
f 37/37/37 42/42/42 41/41/41
f 41/41/41 42/42/42 43/43/43
f 42/42/42 44/44/44 43/43/43
f 43/43/43 44/44/44 45/45/45
f 46/46/46 43/43/43 45/45/45
f 46/46/46 45/45/45 47/47/47
f 48/48/48 46/46/46 47/47/47
f 51/51/51 50/50/50 49/49/49
f 52/52/52 51/51/51 49/49/49
f 55/55/55 54/54/54 53/53/53
f 56/56/56 55/55/55 53/53/53
f 56/56/56 53/53/53 57/57/57
f 53/53/53 58/58/58 57/57/57
f 61/61/61 60/60/60 59/59/59
f 62/62/62 61/61/61 59/59/59
f 65/65/65 64/64/64 63/63/63
f 64/64/64 66/66/66 63/63/63
f 64/64/64 67/67/67 66/66/66
f 67/67/67 68/68/68 66/66/66
f 71/71/71 70/70/70 69/69/69
f 72/72/72 71/71/71 69/69/69
f 75/75/75 74/74/74 73/73/73
f 76/76/76 75/75/75 73/73/73
f 79/79/79 78/78/78 77/77/77
f 80/80/80 79/79/79 77/77/77
f 83/83/83 82/82/82 81/81/81
f 84/84/84 83/83/83 81/81/81
f 87/87/87 86/86/86 85/85/85
f 86/86/86 88/88/88 85/85/85
f 86/86/86 89/89/89 88/88/88
f 89/89/89 90/90/90 88/88/88
f 91/91/91 90/90/90 89/89/89
f 92/92/92 91/91/91 89/89/89
f 93/93/93 91/91/91 92/92/92
f 94/94/94 93/93/93 92/92/92
f 94/94/94 95/95/95 93/93/93
f 95/95/95 96/96/96 93/93/93
f 99/99/99 98/98/98 97/97/97
f 98/98/98 100/100/100 97/97/97
f 98/98/98 101/101/101 100/100/100
f 101/101/101 102/102/102 100/100/100
f 105/105/105 104/104/104 103/103/103
f 104/104/104 106/106/106 103/103/103
f 104/104/104 107/107/107 106/106/106
f 107/107/107 108/108/108 106/106/106
f 111/111/111 110/110/110 109/109/109
f 112/112/112 111/111/111 109/109/109
f 112/112/112 109/109/109 113/113/113
f 109/109/109 114/114/114 113/113/113
f 117/117/117 116/116/116 115/115/115
f 116/116/116 118/118/118 115/115/115
f 116/116/116 119/119/119 118/118/118
f 119/119/119 120/120/120 118/118/118
f 123/123/123 122/122/122 121/121/121
f 122/122/122 124/124/124 121/121/121
f 122/122/122 125/125/125 124/124/124
f 125/125/125 126/126/126 124/124/124
f 129/129/129 128/128/128 127/127/127
f 130/130/130 129/129/129 127/127/127
f 130/130/130 127/127/127 131/131/131
f 132/132/132 130/130/130 131/131/131
f 135/135/135 134/134/134 133/133/133
f 136/136/136 135/135/135 133/133/133
f 139/139/139 138/138/138 137/137/137
f 140/140/140 139/139/139 137/137/137
f 143/143/143 142/142/142 141/141/141
f 144/144/144 143/143/143 141/141/141
f 147/147/147 146/146/146 145/145/145
f 148/148/148 147/147/147 145/145/145
f 151/151/151 150/150/150 149/149/149
f 152/152/152 151/151/151 149/149/149
f 155/155/155 154/154/154 153/153/153
f 156/156/156 155/155/155 153/153/153
f 153/153/153 154/154/154 157/157/157
f 158/158/158 155/155/155 156/156/156
f 154/154/154 159/159/159 157/157/157
f 160/160/160 158/158/158 156/156/156
f 157/157/157 159/159/159 160/160/160
f 159/159/159 158/158/158 160/160/160
