g SM_Prop_Bookshelf_01
v 0.5380347 0.4461672 0.1627783
v 0.5380347 0.405121 0.1627783
v -0.5380334 0.405121 0.1627783
v -0.5380334 0.4461672 0.1627783
v 0.5380347 0.405121 0.1627783
v 0.5380347 0.405121 -0.1584302
v -0.5380334 0.405121 -0.1584302
v -0.5380334 0.405121 0.1627783
v -0.5380334 0.01816719 -0.1584302
v 0.5380347 0.01816719 -0.1584302
v 0.5380347 0.01816719 0.1627783
v -0.5380334 0.01816719 0.1627783
v 0.5380347 0.01816719 0.1627783
v 0.5380347 -0.02287895 0.1627783
v -0.5380334 -0.02287895 0.1627783
v -0.5380334 0.01816719 0.1627783
v 0.5380347 -0.02287895 0.1627783
v 0.5380347 -0.02287895 -0.1584302
v -0.5380334 -0.02287895 -0.1584302
v -0.5380334 -0.02287895 0.1627783
v -0.5753564 -0.4556902 -0.1895837
v -0.5753564 0.4556898 -0.1895837
v -0.5753564 0.4556898 0.1895837
v -0.5753564 -0.4556902 0.1895837
v 0.5753564 0.4556898 -0.1895837
v 0.5753564 -0.4556902 -0.1895837
v 0.5753564 -0.4556902 0.1895837
v 0.5753564 0.4556898 0.1895837
v 0.5753564 -0.4556902 -0.1895837
v -0.5753564 -0.4556902 -0.1895837
v -0.5753564 -0.4556902 0.1895837
v 0.5753564 -0.4556902 0.1895837
v 0.5753564 -0.4556902 0.1895837
v 0.5380347 0.4556902 0.1895837
v 0.5753564 0.4556898 0.1895837
v 0.5380347 -0.4146441 0.1895837
v -0.5753564 -0.4556902 0.1895837
v -0.5380347 -0.4146441 0.1895837
v -0.5380347 0.4556902 0.1895837
v -0.5753564 0.4556898 0.1895837
v -0.5380347 -0.4146441 0.1895837
v -0.5380347 -0.4146441 -0.158429
v 0.5380347 -0.4146441 -0.158429
v 0.5380347 -0.4146441 0.1895837
v 0.5380347 -0.4146441 0.1895837
v 0.5380347 -0.4146441 -0.158429
v 0.5380347 0.4556902 -0.158429
v 0.5380347 0.4556902 0.1895837
v -0.5380347 0.4556902 0.1895837
v -0.5380347 0.4556902 -0.158429
v -0.5380347 -0.4146441 -0.158429
v -0.5380347 -0.4146441 0.1895837
v 0.5753564 0.4556898 0.1895837
v 0.5380347 0.4556902 0.1895837
v 0.5380347 0.4556902 -0.158429
v 0.5753564 0.4556898 -0.1895837
v -0.5380334 0.4461672 0.1627783
v 0.5380347 0.4461672 0.1627783
v -0.5380347 0.4556902 -0.158429
v -0.5753564 0.4556898 -0.1895837
v -0.5380347 0.4556902 0.1895837
v -0.5753564 0.4556898 0.1895837
v -0.5380334 0.01816719 -0.1584302
v -0.5380334 -0.02287895 -0.1584302
v 0.5380347 -0.02287895 -0.1584302
v 0.5380347 0.01816719 -0.1584302
v -0.5753564 -0.4556902 -0.1895837
v -0.5380347 -0.4146441 -0.158429
v -0.5380347 0.4556902 -0.158429
v -0.5753564 0.4556898 -0.1895837
v 0.5753564 0.4556898 -0.1895837
v 0.5380347 0.4556902 -0.158429
v 0.5380347 -0.4146441 -0.158429
v 0.5753564 -0.4556902 -0.1895837
v 0.5753564 -0.4556902 -0.1895837
v 0.5380347 -0.4146441 -0.158429
v -0.5380347 -0.4146441 -0.158429
v -0.5753564 -0.4556902 -0.1895837
v 0.5380347 0.405121 -0.1584302
v 0.5380347 0.4556902 -0.158429
v -0.5380347 0.4556902 -0.158429
v -0.5380334 0.405121 -0.1584302
vt 0.003989574 0.3034834
vt 0.003989574 0.3034834
vt 0.003989574 0.3034834
vt 0.003989574 0.3034834
vt 0.003989574 0.3034834
vt 0.003989574 0.3034834
vt 0.003989574 0.3034834
vt 0.003989574 0.3034834
vt 0.003989633 0.3034834
vt 0.003989633 0.3034833
vt 0.003989574 0.3034833
vt 0.003989574 0.3034834
vt 0.003989574 0.3034834
vt 0.003989574 0.3034834
vt 0.003989574 0.3034834
vt 0.003989574 0.3034834
vt 0.003989574 0.3034834
vt 0.003989574 0.3034834
vt 0.003989574 0.3034834
vt 0.003989574 0.3034834
vt 0.003989633 0.3034833
vt 0.003989633 0.3034833
vt 0.003989574 0.3034833
vt 0.003989574 0.3034833
vt 0.003989618 0.3034833
vt 0.003989633 0.3034833
vt 0.003989574 0.3034833
vt 0.003989574 0.3034833
vt 0.003989633 0.3034833
vt 0.003989633 0.3034833
vt 0.003989574 0.3034833
vt 0.003989574 0.3034833
vt 0.003989574 0.3034833
vt 0.003989574 0.3034833
vt 0.003989574 0.3034833
vt 0.003989574 0.3034833
vt 0.003989574 0.3034833
vt 0.003989574 0.3034833
vt 0.003989574 0.3034833
vt 0.003989574 0.3034833
vt 0.003989574 0.3034833
vt 0.003989574 0.3034833
vt 0.003989574 0.3034833
vt 0.003989574 0.3034833
vt 0.003989574 0.3034833
vt 0.003989574 0.3034833
vt 0.003989574 0.3034833
vt 0.003989574 0.3034833
vt 0.003989574 0.3034833
vt 0.003989574 0.3034833
vt 0.003989574 0.3034833
vt 0.003989574 0.3034833
vt 0.003989574 0.3034833
vt 0.003989574 0.3034833
vt 0.003989574 0.3034833
vt 0.003989618 0.3034833
vt 0.003989574 0.3034834
vt 0.003989574 0.3034834
vt 0.003989574 0.3034833
vt 0.003989633 0.3034833
vt 0.003989574 0.3034833
vt 0.003989574 0.3034833
vt 0.003989633 0.3034834
vt 0.003989574 0.3034834
vt 0.003989574 0.3034834
vt 0.003989633 0.3034833
vt 0.003989633 0.3034833
vt 0.003989574 0.3034833
vt 0.003989574 0.3034833
vt 0.003989633 0.3034833
vt 0.003989618 0.3034833
vt 0.003989574 0.3034833
vt 0.003989574 0.3034833
vt 0.003989633 0.3034833
vt 0.003989633 0.3034833
vt 0.003989574 0.3034833
vt 0.003989574 0.3034833
vt 0.003989633 0.3034833
vt 0.003989574 0.3034834
vt 0.003989574 0.3034833
vt 0.003989574 0.3034833
vt 0.003989574 0.3034834
vn 0 0 1
vn 0 0 1
vn 0 0 1
vn 0 0 1
vn 0 -1 0
vn 0 -1 0
vn 0 -1 0
vn 0 -1 0
vn 0 1 0
vn 0 1 0
vn 0 1 0
vn 0 1 0
vn 0 0 1
vn 0 0 1
vn 0 0 1
vn 0 0 1
vn 0 -1 0
vn 0 -1 0
vn 0 -1 0
vn 0 -1 0
vn -1 0 0
vn -1 0 0
vn -1 0 0
vn -1 0 0
vn 1 0 0
vn 1 0 0
vn 1 0 0
vn 1 0 0
vn 0 -1 0
vn 0 -1 0
vn 0 -1 0
vn 0 -1 0
vn 0 0 1
vn -2.524133E-07 0 1
vn -2.524134E-07 0 1
vn 0 0 1
vn 0 0 1
vn 0 0 1
vn 3.671469E-07 0 1
vn 3.671469E-07 0 1
vn 0 1 0
vn 0 1 0
vn 0 1 0
vn 0 1 0
vn -1 0 0
vn -1 0 0
vn -1 0 0
vn -1 0 0
vn 1 0 0
vn 1 0 0
vn 1 0 0
vn 1 0 0
vn 1.022111E-05 1 -2.24893E-07
vn 1.022111E-05 1 -2.248929E-07
vn 1.022111E-05 1 -2.24893E-07
vn 1.022111E-05 1 -2.24893E-07
vn 0 0.9995608 0.02963458
vn 0 0.9995608 0.02963457
vn -1.022111E-05 1 2.24893E-07
vn -1.022111E-05 1 2.24893E-07
vn -1.022111E-05 1 2.24893E-07
vn -1.022111E-05 1 2.24893E-07
vn 0 0 -1
vn 0 0 -1
vn 0 0 -1
vn 0 0 -1
vn 0.6408312 0 -0.7676819
vn 0.6408312 0 -0.7676819
vn 0.6408312 0 -0.7676819
vn 0.6408312 0 -0.7676819
vn -0.6408315 0 -0.7676815
vn -0.6408316 0 -0.7676815
vn -0.6408316 0 -0.7676815
vn -0.6408316 0 -0.7676815
vn 0 0.6045877 -0.7965387
vn 0 0.6045877 -0.7965387
vn 0 0.6045877 -0.7965387
vn 0 0.6045877 -0.7965387
vn 0 2.413923E-05 -1
vn 0 2.413923E-05 -1
vn 0 2.413922E-05 -1
vn 0 2.413923E-05 -1
g SM_Prop_Bookshelf_01_0
f 3/3/3 2/2/2 1/1/1
f 4/4/4 3/3/3 1/1/1
f 7/7/7 6/6/6 5/5/5
f 8/8/8 7/7/7 5/5/5
f 11/11/11 10/10/10 9/9/9
f 12/12/12 11/11/11 9/9/9
f 15/15/15 14/14/14 13/13/13
f 16/16/16 15/15/15 13/13/13
f 19/19/19 18/18/18 17/17/17
f 20/20/20 19/19/19 17/17/17
f 23/23/23 22/22/22 21/21/21
f 24/24/24 23/23/23 21/21/21
f 27/27/27 26/26/26 25/25/25
f 28/28/28 27/27/27 25/25/25
f 31/31/31 30/30/30 29/29/29
f 32/32/32 31/31/31 29/29/29
f 35/35/35 34/34/34 33/33/33
f 34/34/34 36/36/36 33/33/33
f 33/33/33 36/36/36 37/37/37
f 36/36/36 38/38/38 37/37/37
f 37/37/37 38/38/38 39/39/39
f 40/40/40 37/37/37 39/39/39
f 43/43/43 42/42/42 41/41/41
f 44/44/44 43/43/43 41/41/41
f 47/47/47 46/46/46 45/45/45
f 48/48/48 47/47/47 45/45/45
f 51/51/51 50/50/50 49/49/49
f 52/52/52 51/51/51 49/49/49
f 55/55/55 54/54/54 53/53/53
f 56/56/56 55/55/55 53/53/53
f 58/58/58 55/55/55 57/57/57
f 55/55/55 59/59/59 57/57/57
f 61/61/61 59/59/59 60/60/60
f 62/62/62 61/61/61 60/60/60
f 65/65/65 64/64/64 63/63/63
f 66/66/66 65/65/65 63/63/63
f 69/69/69 68/68/68 67/67/67
f 70/70/70 69/69/69 67/67/67
f 73/73/73 72/72/72 71/71/71
f 74/74/74 73/73/73 71/71/71
f 77/77/77 76/76/76 75/75/75
f 78/78/78 77/77/77 75/75/75
f 81/81/81 80/80/80 79/79/79
f 82/82/82 81/81/81 79/79/79
