g SM_Prop_Toilet_01_Lid
v -2.637078E-08 0.2357217 0.01066274
v 0.1112048 0.4265566 0.009414002
v 0.1440747 0.4263601 0.0094153
v -0.03080166 0.4938684 0.008973481
v -2.637078E-08 0.4735965 0.009106118
v -2.637078E-08 0.2357217 0.01066274
v 0.1855324 0.126884 -0.0130357
v 0.123219 -0.0007445738 -0.01220042
v 0.1275825 -0.00940489 0.0122669
v 0.1925929 0.1237472 0.01139557
v 0.2064329 0.1839026 0.01100193
v 0.1993724 0.1870394 -0.0134294
v 0.1993724 0.2848085 -0.01406922
v 0.2064329 0.2873923 0.01032468
v 0.1903895 0.3468808 0.009935396
v 0.183329 0.344297 -0.01445851
v 0.1397111 0.4191481 -0.01494827
v 0.1440747 0.4263601 0.0094153
v 0.09752707 0.4668374 0.009150407
v 0.09316353 0.4596255 -0.01521315
v 0.1275825 -0.00940489 0.0122669
v 0.123219 -0.0007445738 -0.01220042
v -2.637078E-08 -7.986281E-05 -0.01220484
v -2.637078E-08 -0.008716643 0.01226248
v -0.1232189 -0.0007445738 -0.01220042
v -0.1275826 -0.00940489 0.0122669
v -0.1275826 -0.00940489 0.0122669
v -0.1232189 -0.0007445738 -0.01220042
v -0.1855323 0.126884 -0.0130357
v -0.1925929 0.1237474 0.01139557
v -0.1993723 0.1870393 -0.0134294
v -0.206433 0.1839028 0.01100193
v -0.206433 0.2873923 0.01032468
v -0.1993724 0.2848085 -0.01406922
v -0.183329 0.344297 -0.01445851
v -0.1903896 0.3468808 0.009935396
v -0.183329 0.344297 -0.01445851
v -0.1440747 0.4263601 0.0094153
v -0.1903896 0.3468808 0.009935396
v -0.1397111 0.4191481 -0.01494827
v -0.09316344 0.4596255 -0.01521315
v -0.09752713 0.4668374 0.009150407
v -0.03080166 0.4938684 0.008973481
v -0.03080166 0.4848888 -0.01537848
v 0.03080161 0.4848888 -0.01537848
v 0.03080161 0.4938684 0.008973481
v 0.09752707 0.4668374 0.009150407
v 0.09316353 0.4596255 -0.01521315
v 0.09752707 0.4668374 0.009150407
v 0.1112048 0.4265566 0.009414002
v -2.637078E-08 0.2357217 0.01066274
v 0.1440747 0.4263601 0.0094153
v -2.637078E-08 0.2357217 0.01066274
v 0.03080161 0.4938684 0.008973481
v 0.09752707 0.4668374 0.009150407
v -2.637078E-08 0.4735965 0.009106118
v -0.03080166 0.4938684 0.008973481
v -0.176584 0.3072573 0.01019468
v -2.637078E-08 0.2357217 0.01066274
v -0.1764698 0.1642324 0.01113064
v -0.1112049 0.4265565 0.009414002
v -0.03080166 0.4938684 0.008973481
v -0.09752713 0.4668374 0.009150407
v -0.1440747 0.4263601 0.0094153
v -0.1903896 0.3468808 0.009935396
v -0.206433 0.2873923 0.01032468
v -0.206433 0.1839028 0.01100193
v -0.1764698 0.1642324 0.01113064
v -0.176584 0.3072573 0.01019468
v -0.1925929 0.1237474 0.01139557
v -0.1275826 -0.00940489 0.0122669
v -2.637078E-08 0.2357217 0.01066274
v -2.637078E-08 -0.008716643 0.01226248
v 0.1275825 -0.00940489 0.0122669
v 0.1764698 0.1642322 0.01113064
v 0.1925929 0.1237472 0.01139557
v 0.2064329 0.1839026 0.01100193
v 0.1765839 0.3072573 0.01019468
v 0.1440747 0.4263601 0.0094153
v 0.2064329 0.2873923 0.01032468
v 0.1903895 0.3468808 0.009935396
v 0.123219 -0.0007445738 -0.01220042
v -2.637078E-08 0.235562 -0.01374689
v -2.637078E-08 -7.986281E-05 -0.01220484
v -0.1232189 -0.0007445738 -0.01220042
v 0.1708027 0.166742 -0.01329655
v 0.1855324 0.126884 -0.0130357
v 0.1993724 0.1870394 -0.0134294
v 0.1993724 0.2848085 -0.01406922
v -0.1708026 0.166742 -0.01329655
v 0.1708462 0.3051469 -0.01420231
v 0.1397111 0.4191481 -0.01494827
v 0.183329 0.344297 -0.01445851
v -0.1855323 0.126884 -0.0130357
v -0.1993723 0.1870393 -0.0134294
v -0.1708462 0.3051469 -0.01420231
v -0.1993724 0.2848085 -0.01406922
v -0.183329 0.344297 -0.01445851
v -0.1397111 0.4191481 -0.01494827
v -0.1077349 0.4208235 -0.01495922
v -0.09316344 0.4596255 -0.01521315
v -0.03080166 0.4848888 -0.01537848
v -2.637078E-08 0.4665658 -0.01525858
v 0.03080161 0.4848888 -0.01537848
v 0.09316353 0.4596255 -0.01521315
v 0.107735 0.4208235 -0.01495922
vt 0.4233398 0.01314545
vt 0.4233398 0.01314545
vt 0.4233398 0.01314545
vt 0.4233398 0.01314545
vt 0.4233398 0.01314545
vt 0.4233398 0.01314545
vt 0.4233398 0.01314545
vt 0.4233398 0.01314545
vt 0.4233398 0.01314545
vt 0.4233398 0.01314545
vt 0.4233398 0.01314545
vt 0.4233398 0.01314545
vt 0.4233398 0.01314545
vt 0.4233398 0.01314545
vt 0.4233398 0.01314545
vt 0.4233398 0.01314545
vt 0.4233398 0.01314545
vt 0.4233398 0.01314545
vt 0.4233398 0.01314545
vt 0.4233398 0.01314545
vt 0.4233398 0.01314545
vt 0.4233398 0.01314545
vt 0.4233398 0.01314545
vt 0.4233398 0.01314545
vt 0.4233398 0.01314545
vt 0.4233398 0.01314545
vt 0.4233398 0.01314545
vt 0.4233398 0.01314545
vt 0.4233398 0.01314545
vt 0.4233398 0.01314545
vt 0.4233398 0.01314545
vt 0.4233398 0.01314545
vt 0.4233398 0.01314545
vt 0.4233398 0.01314545
vt 0.4233398 0.01314545
vt 0.4233398 0.01314545
vt 0.4233398 0.01314545
vt 0.4233398 0.01314545
vt 0.4233398 0.01314545
vt 0.4233398 0.01314545
vt 0.4233398 0.01314545
vt 0.4233398 0.01314545
vt 0.4233398 0.01314545
vt 0.4233398 0.01314545
vt 0.4233398 0.01314545
vt 0.4233398 0.01314545
vt 0.4233398 0.01314545
vt 0.4233398 0.01314545
vt 0.4233398 0.01314545
vt 0.4233398 0.01314545
vt 0.4233398 0.01314545
vt 0.4233398 0.01314545
vt 0.4233398 0.01314545
vt 0.4233398 0.01314545
vt 0.4233398 0.01314545
vt 0.4233398 0.01314545
vt 0.4233398 0.01314545
vt 0.4233398 0.01314545
vt 0.4233398 0.01314545
vt 0.4233398 0.01314545
vt 0.4233398 0.01314545
vt 0.4233398 0.01314545
vt 0.4233398 0.01314545
vt 0.4233398 0.01314545
vt 0.4233398 0.01314545
vt 0.4233398 0.01314545
vt 0.4233398 0.01314545
vt 0.4233398 0.01314545
vt 0.4233398 0.01314545
vt 0.4233398 0.01314545
vt 0.4233398 0.01314545
vt 0.4233398 0.01314545
vt 0.4233398 0.01314545
vt 0.4233398 0.01314545
vt 0.4233398 0.01314545
vt 0.4233398 0.01314545
vt 0.4233398 0.01314545
vt 0.4233398 0.01314545
vt 0.4233398 0.01314545
vt 0.4233398 0.01314545
vt 0.4233398 0.01314545
vt 0.4233398 0.01314545
vt 0.4233398 0.01314545
vt 0.4233398 0.01314545
vt 0.4233398 0.01314545
vt 0.4233398 0.01314545
vt 0.4233398 0.01314545
vt 0.4233398 0.01314545
vt 0.4233398 0.01314545
vt 0.4233398 0.01314545
vt 0.4233398 0.01314545
vt 0.4233398 0.01314545
vt 0.4233398 0.01314545
vt 0.4233398 0.01314545
vt 0.4233398 0.01314545
vt 0.4233398 0.01314545
vt 0.4233398 0.01314545
vt 0.4233398 0.01314545
vt 0.4233398 0.01314545
vt 0.4233398 0.01314545
vt 0.4233398 0.01314545
vt 0.4233398 0.01314545
vt 0.4233398 0.01314545
vt 0.4233398 0.01314545
vt 0.4233398 0.01314545
vt 0.4233398 0.01314545
vn 0 0.006542206 1
vn -4.768372E-07 0.006542206 1
vn -3.576279E-07 0.006542206 1
vn 5.364418E-07 0.006542206 1
vn 0 0.006542206 1
vn 0 0.006542206 1
vn 0.8833008 -0.359375 -0.3012695
vn 0.855957 -0.4199219 -0.3012695
vn 0.855957 -0.4199219 -0.3012695
vn 0.8818359 -0.3625488 -0.3015137
vn 0.9536133 -0.09051514 -0.2871094
vn 0.9550781 -0.07800293 -0.2861328
vn 0.9541016 0.08947754 -0.2856445
vn 0.953125 0.09814453 -0.286377
vn 0.8740234 0.3867188 -0.2939453
vn 0.8730469 0.3894043 -0.2939453
vn 0.7583008 0.5756836 -0.3061523
vn 0.7456055 0.5908203 -0.3083496
vn 0.4870605 0.8100586 -0.3269043
vn 0.4868164 0.8100586 -0.3269043
vn -0.005073547 -0.9428711 -0.3327637
vn -0.005073547 -0.9428711 -0.3327637
vn -0.005073547 -0.9428711 -0.3327637
vn -0.005073547 -0.9428711 -0.3327637
vn 0.005073547 -0.9428711 -0.3327637
vn 0.005073547 -0.9428711 -0.3327637
vn -0.855957 -0.4199219 -0.3012695
vn -0.855957 -0.4199219 -0.3012695
vn -0.8833008 -0.359375 -0.3012695
vn -0.8818359 -0.3625488 -0.3015137
vn -0.9550781 -0.07800293 -0.2861328
vn -0.9536133 -0.09051514 -0.2871094
vn -0.953125 0.09814453 -0.286377
vn -0.9541016 0.08947754 -0.2856445
vn -0.8730469 0.3894043 -0.2939453
vn -0.8740234 0.3867188 -0.2939453
vn -0.8730469 0.3894043 -0.2939453
vn -0.7456055 0.5908203 -0.3083496
vn -0.8740234 0.3867188 -0.2939453
vn -0.7583008 0.5756836 -0.3061523
vn -0.4868164 0.8100586 -0.3269043
vn -0.4870605 0.8100586 -0.3269043
vn -0.1837158 0.9223633 -0.3400879
vn -0.1983643 0.9194336 -0.3391113
vn 0.1983643 0.9194336 -0.3391113
vn 0.1837158 0.9223633 -0.3400879
vn 0.4870605 0.8100586 -0.3269043
vn 0.4868164 0.8100586 -0.3269043
vn -5.364418E-07 0.006542206 1
vn -4.768372E-07 0.006542206 1
vn 0 0.006542206 1
vn -3.576279E-07 0.006542206 1
vn 0 0.006542206 1
vn -5.364418E-07 0.006542206 1
vn -5.364418E-07 0.006542206 1
vn 0 0.006542206 1
vn 5.364418E-07 0.006542206 1
vn 2.980232E-07 0.006542206 1
vn 0 0.006542206 1
vn 3.576279E-07 0.006542206 1
vn 3.576279E-07 0.006542206 1
vn 5.364418E-07 0.006542206 1
vn 5.364418E-07 0.006542206 1
vn 1.788139E-07 0.006542206 1
vn 1.788139E-07 0.006542206 1
vn 3.576279E-07 0.006542206 1
vn 3.576279E-07 0.006542206 1
vn 3.576279E-07 0.006542206 1
vn 2.980232E-07 0.006542206 1
vn 4.172325E-07 0.006542206 1
vn -1.192093E-07 0.006546021 1
vn 0 0.006542206 1
vn 0 0.006546021 1
vn 1.192093E-07 0.006546021 1
vn -4.172325E-07 0.006542206 1
vn -4.768372E-07 0.006542206 1
vn -3.576279E-07 0.006542206 1
vn -3.576279E-07 0.006542206 1
vn -3.576279E-07 0.006542206 1
vn -3.576279E-07 0.006542206 1
vn -3.576279E-07 0.006542206 1
vn 1.192093E-07 -0.006546021 -1
vn 0 -0.006542206 -1
vn 0 -0.006542206 -1
vn -1.192093E-07 -0.006546021 -1
vn -1.788139E-07 -0.006546021 -1
vn -1.192093E-07 -0.006546021 -1
vn -2.980232E-07 -0.006546021 -1
vn -2.980232E-07 -0.006546021 -1
vn 2.384186E-07 -0.006546021 -1
vn -4.768372E-07 -0.006542206 -1
vn -5.960464E-07 -0.006542206 -1
vn -5.960464E-07 -0.006542206 -1
vn 1.788139E-07 -0.006546021 -1
vn 2.980232E-07 -0.006546021 -1
vn 4.172325E-07 -0.006542206 -1
vn 2.980232E-07 -0.006546021 -1
vn 5.364418E-07 -0.006542206 -1
vn 5.364418E-07 -0.006542206 -1
vn 1.788139E-07 -0.006542206 -1
vn -1.788139E-07 -0.006542206 -1
vn -1.788139E-07 -0.006542206 -1
vn 0 -0.006542206 -1
vn 1.788139E-07 -0.006542206 -1
vn 1.788139E-07 -0.006542206 -1
vn -1.788139E-07 -0.006542206 -1
g SM_Prop_Toilet_01_Lid_0
f 3/3/3 2/2/2 1/1/1
f 6/6/6 5/5/5 4/4/4
f 9/9/9 8/8/8 7/7/7
f 10/10/10 9/9/9 7/7/7
f 10/10/10 7/7/7 11/11/11
f 7/7/7 12/12/12 11/11/11
f 11/11/11 12/12/12 13/13/13
f 14/14/14 11/11/11 13/13/13
f 14/14/14 13/13/13 15/15/15
f 13/13/13 16/16/16 15/15/15
f 15/15/15 16/16/16 17/17/17
f 18/18/18 15/15/15 17/17/17
f 18/18/18 17/17/17 19/19/19
f 17/17/17 20/20/20 19/19/19
f 23/23/23 22/22/22 21/21/21
f 24/24/24 23/23/23 21/21/21
f 25/25/25 23/23/23 24/24/24
f 26/26/26 25/25/25 24/24/24
f 29/29/29 28/28/28 27/27/27
f 30/30/30 29/29/29 27/27/27
f 31/31/31 29/29/29 30/30/30
f 32/32/32 31/31/31 30/30/30
f 32/32/32 33/33/33 31/31/31
f 33/33/33 34/34/34 31/31/31
f 35/35/35 34/34/34 33/33/33
f 36/36/36 35/35/35 33/33/33
f 39/39/39 38/38/38 37/37/37
f 38/38/38 40/40/40 37/37/37
f 41/41/41 40/40/40 38/38/38
f 42/42/42 41/41/41 38/38/38
f 42/42/42 43/43/43 41/41/41
f 43/43/43 44/44/44 41/41/41
f 45/45/45 44/44/44 43/43/43
f 46/46/46 45/45/45 43/43/43
f 46/46/46 47/47/47 45/45/45
f 47/47/47 48/48/48 45/45/45
f 51/51/51 50/50/50 49/49/49
f 52/52/52 49/49/49 50/50/50
f 55/55/55 54/54/54 53/53/53
f 54/54/54 56/56/56 53/53/53
f 54/54/54 57/57/57 56/56/56
f 60/60/60 59/59/59 58/58/58
f 58/58/58 59/59/59 61/61/61
f 62/62/62 61/61/61 59/59/59
f 62/62/62 63/63/63 61/61/61
f 63/63/63 64/64/64 61/61/61
f 61/61/61 64/64/64 58/58/58
f 64/64/64 65/65/65 58/58/58
f 65/65/65 66/66/66 58/58/58
f 58/58/58 66/66/66 67/67/67
f 69/69/69 67/67/67 68/68/68
f 67/67/67 70/70/70 68/68/68
f 70/70/70 71/71/71 68/68/68
f 71/71/71 72/72/72 68/68/68
f 73/73/73 72/72/72 71/71/71
f 74/74/74 72/72/72 73/73/73
f 75/75/75 72/72/72 74/74/74
f 76/76/76 75/75/75 74/74/74
f 76/76/76 77/77/77 75/75/75
f 78/78/78 72/72/72 75/75/75
f 78/78/78 75/75/75 77/77/77
f 79/79/79 72/72/72 78/78/78
f 77/77/77 80/80/80 78/78/78
f 78/78/78 81/81/81 79/79/79
f 80/80/80 81/81/81 78/78/78
f 84/84/84 83/83/83 82/82/82
f 85/85/85 83/83/83 84/84/84
f 82/82/82 83/83/83 86/86/86
f 87/87/87 82/82/82 86/86/86
f 88/88/88 87/87/87 86/86/86
f 89/89/89 88/88/88 86/86/86
f 90/90/90 83/83/83 85/85/85
f 86/86/86 83/83/83 91/91/91
f 86/86/86 91/91/91 89/89/89
f 91/91/91 83/83/83 92/92/92
f 93/93/93 89/89/89 91/91/91
f 92/92/92 93/93/93 91/91/91
f 94/94/94 90/90/90 85/85/85
f 94/94/94 95/95/95 90/90/90
f 90/90/90 95/95/95 96/96/96
f 96/96/96 83/83/83 90/90/90
f 95/95/95 97/97/97 96/96/96
f 97/97/97 98/98/98 96/96/96
f 96/96/96 98/98/98 99/99/99
f 96/96/96 99/99/99 100/100/100
f 100/100/100 83/83/83 96/96/96
f 99/99/99 101/101/101 100/100/100
f 100/100/100 101/101/101 102/102/102
f 100/100/100 102/102/102 103/103/103
f 103/103/103 83/83/83 100/100/100
f 102/102/102 104/104/104 103/103/103
f 83/83/83 103/103/103 104/104/104
f 83/83/83 104/104/104 105/105/105
f 83/83/83 106/106/106 92/92/92
f 105/105/105 106/106/106 83/83/83
f 105/105/105 92/92/92 106/106/106
