g SM_Prop_Speaker_Computer_01
v 0.059 0.08976589 0.03387371
v 0 0.1481082 0.02507192
v 0.04424999 0.1335226 0.02727236
v 0 0.08976589 0.03387371
v 0 0.03142359 0.0426755
v 0.04424999 0.04600918 0.04047505
v -0.059 0.08976589 0.03387371
v -0.04425 0.1335226 0.02727237
v -0.04424999 0.04600918 0.04047505
v 0 0.2443258 0.01055608
v -0.03863534 0.2061212 0.0163198
v -0.02897652 0.2347747 0.01199702
v 0 0.2061212 0.0163198
v 0.03863534 0.2061212 0.0163198
v 0.02897652 0.2347747 0.01199702
v 0 0.1679165 0.02208354
v -0.02897652 0.1774677 0.02064261
v 0.02897652 0.1774677 0.02064261
v 0.04425284 0.2652168 -0.003059006
v 0.04425284 0.2652167 -0.04729913
v 0.06599424 0.2563118 -0.04729913
v 0.06599424 0.2563119 -0.001715577
v 0.06599424 0.2563119 -0.001715577
v 0.06599424 0.2563118 -0.04729913
v 0.07500009 0.2348135 -0.04729913
v 0.07500009 0.2348136 0.001527753
v 0.075 0.03194662 0.04259659
v 0.075 0.03040323 0.03236605
v 0.06599434 0.008904896 0.03560939
v 0.06599434 0.0104483 0.04583992
v 0.06599434 0.0104483 0.04583992
v 0.06599434 0.008904896 0.03560939
v 0.04425276 -9.536743E-09 0.03695282
v 0.04425276 0.001543417 0.04718336
v -0.04425272 0.2652167 -0.003059006
v -0.04425272 0.2667602 0.007171531
v -0.06599433 0.2578552 0.00851497
v -0.06599433 0.2563118 -0.001715574
v -0.06599433 0.2563118 -0.001715574
v -0.06599433 0.2578552 0.00851497
v -0.075 0.2363569 0.0117583
v -0.075 0.2348135 0.001527765
v -0.075 0.03040319 0.03236605
v -0.075 0.03194662 0.04259659
v -0.06599434 0.01044832 0.04583992
v -0.06599434 0.008904892 0.03560939
v -0.06599434 0.008904892 0.03560939
v -0.06599434 0.01044832 0.04583992
v -0.04425276 0.001543427 0.04718335
v -0.04425276 0 0.03695282
v 0.04425276 -9.536743E-09 0.03695282
v 0.04425276 0 -0.04729913
v -0.04425276 0 -0.04729913
v -0.04425276 0 0.03695282
v -0.04425272 0.2652167 -0.04729913
v 0.04425284 0.2652167 -0.04729913
v 0.04425284 0.2652168 -0.003059006
v -0.04425272 0.2652167 -0.003059006
v 0.075 0.1510431 -0.04729913
v 0.075 0.03040319 -0.04729913
v 0.075 0.03040323 0.03236605
v 0.075 0.1510431 0.01416575
v 0.07500009 0.2348136 0.001527753
v 0.07500009 0.2348135 -0.04729913
v -0.075 0.03040319 0.03236605
v -0.075 0.03040319 -0.04729913
v -0.075 0.1510431 -0.04729913
v -0.075 0.1510431 0.01416575
v -0.075 0.2348135 0.001527765
v -0.075 0.2348135 -0.04729913
v 0.07500009 0.2348136 0.001527753
v 0.075 0.1525866 0.02439629
v 0.07500009 0.236357 0.0117583
v 0.075 0.1510431 0.01416575
v 0.075 0.03040323 0.03236605
v 0.075 0.03194662 0.04259659
v -0.04425276 0.001543427 0.04718335
v 0.04425276 0.001543417 0.04718336
v 0.04425276 -9.536743E-09 0.03695282
v -0.04425276 0 0.03695282
v -0.075 0.1525866 0.02439629
v -0.075 0.03194662 0.04259659
v -0.075 0.03040319 0.03236605
v -0.075 0.1510431 0.01416575
v -0.075 0.2348135 0.001527765
v -0.075 0.2363569 0.0117583
v 0.04425284 0.2652168 -0.003059006
v 0.04425284 0.2667602 0.007171526
v -0.04425272 0.2667602 0.007171531
v -0.04425272 0.2652167 -0.003059006
v 0.06599424 0.2563118 -0.04729913
v 0.075 0.1510431 -0.04729913
v 0.07500009 0.2348135 -0.04729913
v 0.04425284 0.2652167 -0.04729913
v -0.075 0.1510431 -0.04729913
v -0.04425272 0.2652167 -0.04729913
v -0.075 0.2348135 -0.04729913
v -0.06599433 0.2563118 -0.04729913
v -0.04425276 0 -0.04729913
v -0.06599434 0.008904892 -0.04729913
v -0.075 0.03040319 -0.04729913
v 0.04425276 0 -0.04729913
v 0.06599434 0.008904896 -0.04729913
v 0.075 0.03040319 -0.04729913
v 0.04425284 0.2667602 0.007171526
v 0.04425284 0.2652168 -0.003059006
v 0.06599424 0.2563119 -0.001715577
v 0.06599424 0.2578553 0.008514959
v 0.06599424 0.2578553 0.008514959
v 0.06599424 0.2563119 -0.001715577
v 0.07500009 0.2348136 0.001527753
v 0.07500009 0.236357 0.0117583
v 0.075 0.03040323 0.03236605
v 0.075 0.03040319 -0.04729913
v 0.06599434 0.008904896 -0.04729913
v 0.06599434 0.008904896 0.03560939
v 0.06599434 0.008904896 0.03560939
v 0.06599434 0.008904896 -0.04729913
v 0.04425276 0 -0.04729913
v 0.04425276 -9.536743E-09 0.03695282
v -0.04425272 0.2652167 -0.04729913
v -0.04425272 0.2652167 -0.003059006
v -0.06599433 0.2563118 -0.001715574
v -0.06599433 0.2563118 -0.04729913
v -0.06599433 0.2563118 -0.04729913
v -0.06599433 0.2563118 -0.001715574
v -0.075 0.2348135 0.001527765
v -0.075 0.2348135 -0.04729913
v -0.075 0.03040319 -0.04729913
v -0.075 0.03040319 0.03236605
v -0.06599434 0.008904892 0.03560939
v -0.06599434 0.008904892 -0.04729913
v -0.06599434 0.008904892 -0.04729913
v -0.06599434 0.008904892 0.03560939
v -0.04425276 0 0.03695282
v -0.04425276 0 -0.04729913
v -0.075 0.1525866 0.02439629
v -0.04425 0.1335226 0.02727237
v -0.059 0.08976589 0.03387371
v 0 0.1481082 0.02507192
v -0.075 0.03194662 0.04259659
v -0.04424999 0.04600918 0.04047505
v -0.06599434 0.01044832 0.04583992
v -0.04425276 0.001543427 0.04718335
v 0 0.03142359 0.0426755
v 0.04425276 0.001543417 0.04718336
v 0.04424999 0.04600918 0.04047505
v 0.06599434 0.0104483 0.04583992
v 0.075 0.03194662 0.04259659
v 0.059 0.08976589 0.03387371
v 0.075 0.1525866 0.02439629
v 0.04424999 0.1335226 0.02727236
v 0 0.1519708 0.02448919
v 0 0.1679165 0.02208354
v -0.02897652 0.1774677 0.02064261
v 0.02897652 0.1774677 0.02064261
v -0.03863534 0.2061212 0.0163198
v 0.03863534 0.2061212 0.0163198
v -0.075 0.2363569 0.0117583
v 0.07500009 0.236357 0.0117583
v -0.02897652 0.2347747 0.01199702
v -0.06599433 0.2578552 0.00851497
v -0.04425272 0.2667602 0.007171531
v 0 0.2443258 0.01055608
v 0.04425284 0.2667602 0.007171526
v 0.02897652 0.2347747 0.01199702
v 0.06599424 0.2578553 0.008514959
vt 0.08143276 0.2753396
vt 0.08159822 0.2754937
vt 0.08155674 0.2753788
vt 0.08143771 0.275494
vt 0.08127707 0.2754942
vt 0.08131219 0.2753788
vt 0.08144242 0.2756405
vt 0.08155936 0.2756044
vt 0.08132211 0.2756045
vt 0.08227712 0.2754926
vt 0.0821048 0.2756393
vt 0.08222659 0.2756029
vt 0.08211702 0.2754928
vt 0.0821299 0.2753387
vt 0.08224808 0.2753775
vt 0.08195686 0.2754931
vt 0.08198994 0.2756036
vt 0.08200416 0.2753782
vt 0.08120213 0.2501047
vt 0.08106559 0.250049
vt 0.08107266 0.2499846
vt 0.08121154 0.2500366
vt 0.08121154 0.2500366
vt 0.08107266 0.2499846
vt 0.0810141 0.2499947
vt 0.08115053 0.2500484
vt 0.0153105 0.323685
vt 0.01529612 0.323674
vt 0.01521093 0.3236904
vt 0.0152247 0.3237017
vt 0.0152247 0.3237017
vt 0.01521093 0.3236904
vt 0.01521457 0.3237764
vt 0.01522814 0.3237884
vt 0.01615148 0.3237871
vt 0.01617007 0.3237966
vt 0.01617035 0.3238554
vt 0.01616814 0.323869
vt 0.01616814 0.323869
vt 0.01617035 0.3238554
vt 0.01609308 0.3238876
vt 0.01610356 0.3239241
vt 0.01530887 0.3241478
vt 0.01530517 0.3241092
vt 0.01523239 0.3241204
vt 0.01523562 0.3241287
vt 0.01523562 0.3241287
vt 0.01523239 0.3241204
vt 0.01523806 0.3240379
vt 0.01522505 0.3240239
vt 0.08030871 0.250291
vt 0.08021609 0.2502089
vt 0.08022906 0.2504238
vt 0.08031841 0.2505198
vt 0.08104525 0.2502345
vt 0.08106559 0.250049
vt 0.08120213 0.2501047
vt 0.08117503 0.2503008
vt 0.08068019 0.2500528
vt 0.08028575 0.2501214
vt 0.0803841 0.2501963
vt 0.08080174 0.2501157
vt 0.08115053 0.2500484
vt 0.0810141 0.2499947
vt 0.0803945 0.2505795
vt 0.08030238 0.2504814
vt 0.08066911 0.2503905
vt 0.08078112 0.2504739
vt 0.08110823 0.2503846
vt 0.08098299 0.2503127
vt 0.016125 0.3235141
vt 0.01576537 0.323596
vt 0.01614463 0.3235218
vt 0.01574783 0.3235869
vt 0.01529612 0.323674
vt 0.0153105 0.323685
vt 0.01523806 0.3240379
vt 0.01522814 0.3237884
vt 0.01521457 0.3237764
vt 0.01522505 0.3240239
vt 0.01574261 0.3239861
vt 0.01530517 0.3241092
vt 0.01530887 0.3241478
vt 0.01576035 0.3240207
vt 0.01610356 0.3239241
vt 0.01609308 0.3238876
vt 0.01618079 0.323575
vt 0.0162004 0.323583
vt 0.01617007 0.3237966
vt 0.01615148 0.3237871
vt 0.08107266 0.2499846
vt 0.08068019 0.2500528
vt 0.0810141 0.2499947
vt 0.08106559 0.250049
vt 0.08066911 0.2503905
vt 0.08104525 0.2502345
vt 0.08098299 0.2503127
vt 0.08103818 0.250299
vt 0.08022906 0.2504238
vt 0.08023357 0.2504985
vt 0.08030238 0.2504814
vt 0.08021609 0.2502089
vt 0.08021158 0.2501343
vt 0.08028575 0.2501214
vt 0.0162004 0.323583
vt 0.01618079 0.323575
vt 0.01619098 0.3235013
vt 0.01621094 0.3235089
vt 0.01621094 0.3235089
vt 0.01619098 0.3235013
vt 0.016125 0.3235141
vt 0.01614463 0.3235218
vt 0.0803841 0.2501963
vt 0.08028575 0.2501214
vt 0.08021158 0.2501343
vt 0.08030534 0.2502115
vt 0.08030534 0.2502115
vt 0.08021158 0.2501343
vt 0.08021609 0.2502089
vt 0.08030871 0.250291
vt 0.08104525 0.2502345
vt 0.08117503 0.2503008
vt 0.08116561 0.250369
vt 0.08103818 0.250299
vt 0.08103818 0.250299
vt 0.08116561 0.250369
vt 0.08110823 0.2503846
vt 0.08098299 0.2503127
vt 0.08030238 0.2504814
vt 0.0803945 0.2505795
vt 0.08032179 0.2505993
vt 0.08023357 0.2504985
vt 0.08023357 0.2504985
vt 0.08032179 0.2505993
vt 0.08031841 0.2505198
vt 0.08022906 0.2504238
vt 0.01574261 0.3239861
vt 0.01555514 0.3239608
vt 0.01544213 0.3240284
vt 0.01559538 0.323836
vt 0.01530517 0.3241092
vt 0.01531943 0.3240207
vt 0.01523239 0.3241204
vt 0.01523806 0.3240379
vt 0.01527941 0.3239111
vt 0.01522814 0.3237884
vt 0.01531402 0.3237718
vt 0.0152247 0.3237017
vt 0.0153105 0.323685
vt 0.01544261 0.3237061
vt 0.01576537 0.323596
vt 0.01556093 0.3237234
vt 0.01575348 0.3237911
vt 0.01590639 0.3237621
vt 0.01592821 0.3238635
vt 0.01594973 0.3236405
vt 0.01601681 0.3238742
vt 0.01605025 0.3235816
vt 0.01609308 0.3238876
vt 0.01614463 0.3235218
vt 0.01610941 0.3238156
vt 0.01617035 0.3238554
vt 0.01617007 0.3237966
vt 0.01615292 0.3237035
vt 0.0162004 0.323583
vt 0.01613757 0.3235968
vt 0.01621094 0.3235089
vn 0 0.1491765 0.9888105
vn 0 0.1491765 0.9888105
vn 0 0.1491765 0.9888105
vn 0 0.1491765 0.9888105
vn 0 0.1491765 0.9888105
vn 0 0.1491765 0.9888105
vn 0 0.1491766 0.9888105
vn 0 0.1491765 0.9888105
vn 0 0.1491765 0.9888105
vn 0 0.1491764 0.9888107
vn 0 0.1491765 0.9888105
vn 0 0.1491764 0.9888105
vn 0 0.1491765 0.9888105
vn 0 0.1491765 0.9888105
vn 0 0.1491765 0.9888105
vn 0 0.1491767 0.9888105
vn 0 0.1491767 0.9888105
vn 0 0.1491767 0.9888105
vn 0.3790228 0.9253874 0
vn 0.3790228 0.9253874 0
vn 0.3790228 0.9253874 0
vn 0.3790228 0.9253874 0
vn 0.9228159 0.3851203 -0.009651304
vn 0.9223409 0.3863773 0
vn 0.9223409 0.3863774 0
vn 0.9228818 0.3849217 -0.01115073
vn 0.9238796 -0.3784014 0.05708625
vn 0.9226509 -0.3855892 0.006031317
vn 0.9226995 -0.3854556 0.007051917
vn 0.9238796 -0.3784014 0.05708625
vn 0.3826837 -0.9135419 0.1378203
vn 0.3826837 -0.9135419 0.1378203
vn 0.3826837 -0.9135419 0.1378203
vn 0.3826837 -0.9135419 0.1378203
vn -0.3826853 0.913541 -0.137821
vn -0.3826853 0.913541 -0.137821
vn -0.3826853 0.913541 -0.137821
vn -0.3826853 0.913541 -0.137821
vn -0.9228187 0.3851136 -0.009650622
vn -0.9238794 0.3784019 -0.05708706
vn -0.9238794 0.3784019 -0.05708705
vn -0.9228846 0.3849151 -0.01115005
vn -0.9226507 -0.3855895 0.006031377
vn -0.9238794 -0.3784015 0.05708747
vn -0.9238794 -0.3784015 0.05708747
vn -0.9226994 -0.3854558 0.007051985
vn -0.3826835 -0.9135417 0.1378213
vn -0.3826836 -0.9135419 0.1378213
vn -0.3826835 -0.9135417 0.1378213
vn -0.3826835 -0.9135417 0.1378213
vn 0 -1 0
vn 0 -1 0
vn 0 -1 0
vn 0 -1 0
vn 0 1 0
vn 0 1 0
vn 0 1 0
vn 0 1 0
vn 1 0 0
vn 1 0 0
vn 1 0 0
vn 1 0 0
vn 1 0 0
vn 1 0 0
vn -1 0 0
vn -1 0 0
vn -1 0 0
vn -1 0 0
vn -1 0 0
vn -1 0 0
vn 1 0 0
vn 1 0 0
vn 1 0 0
vn 1 0 0
vn 1 0 0
vn 1 0 0
vn 0 -0.9888105 0.1491765
vn 0 -0.9888105 0.1491765
vn 0 -0.9888105 0.1491765
vn 0 -0.9888105 0.1491765
vn -1 0 0
vn -1 0 0
vn -1 0 0
vn -1 0 0
vn -1 0 0
vn -1 0 0
vn 0 0.9888102 -0.1491793
vn 0 0.9888102 -0.1491793
vn 0 0.9888102 -0.1491793
vn 0 0.9888102 -0.1491793
vn 0 0 -1
vn 0 0 -1
vn 0 0 -1
vn 0 0 -1
vn 0 0 -1
vn 0 0 -1
vn 0 0 -1
vn 0 0 -1
vn 0 0 -1
vn 0 0 -1
vn 0 0 -1
vn 0 0 -1
vn 0 0 -1
vn 0 0 -1
vn 0.382686 0.9135404 -0.1378236
vn 0.382686 0.9135404 -0.1378236
vn 0.382686 0.9135404 -0.1378236
vn 0.382686 0.9135404 -0.1378236
vn 0.9238769 0.3784079 -0.05708842
vn 0.9228159 0.3851203 -0.009651304
vn 0.9228818 0.3849217 -0.01115073
vn 0.9238768 0.378408 -0.05708842
vn 0.9226509 -0.3855892 0.006031317
vn 0.9223437 -0.3863705 0
vn 0.9223437 -0.3863705 0
vn 0.9226995 -0.3854556 0.007051917
vn 0.3790199 -0.9253885 0
vn 0.3790199 -0.9253885 0
vn 0.3790199 -0.9253885 0
vn 0.3790199 -0.9253885 0
vn -0.37902 0.9253885 0
vn -0.37902 0.9253885 0
vn -0.37902 0.9253885 0
vn -0.37902 0.9253885 0
vn -0.9223437 0.3863705 0
vn -0.9228187 0.3851136 -0.009650622
vn -0.9228846 0.3849151 -0.01115005
vn -0.9223437 0.3863705 0
vn -0.9223436 -0.3863707 0
vn -0.9226507 -0.3855895 0.006031377
vn -0.9226994 -0.3854558 0.007051985
vn -0.9223436 -0.3863707 0
vn -0.3790196 -0.9253886 0
vn -0.3790196 -0.9253886 0
vn -0.3790196 -0.9253886 0
vn -0.3790196 -0.9253886 0
vn 0 0.1491766 0.9888105
vn 0 0.1491765 0.9888105
vn 0 0.1491766 0.9888105
vn 0 0.1491765 0.9888105
vn 0 0.1491765 0.9888105
vn 0 0.1491765 0.9888105
vn 0 0.1491765 0.9888105
vn 0 0.1491765 0.9888105
vn 0 0.1491765 0.9888105
vn 0 0.1491765 0.9888105
vn 0 0.1491765 0.9888105
vn 0 0.1491765 0.9888105
vn 0 0.1491764 0.9888105
vn 0 0.1491765 0.9888105
vn 0 0.1491766 0.9888105
vn 0 0.1491765 0.9888105
vn 0 0.1491765 0.9888105
vn 0 0.1491767 0.9888105
vn 0 0.1491767 0.9888105
vn 0 0.1491767 0.9888105
vn 0 0.1491765 0.9888105
vn 0 0.1491765 0.9888105
vn 0 0.1491765 0.9888105
vn 0 0.1491765 0.9888105
vn 0 0.1491764 0.9888105
vn 0 0.1491765 0.9888105
vn 0 0.1491763 0.9888107
vn 0 0.1491764 0.9888107
vn 0 0.1491766 0.9888105
vn 0 0.1491765 0.9888105
vn 0 0.1491765 0.9888105
g SM_Prop_Speaker_Computer_01_0
f 3/3/3 2/2/2 1/1/1
f 2/2/2 4/4/4 1/1/1
f 1/1/1 4/4/4 5/5/5
f 6/6/6 1/1/1 5/5/5
f 7/7/7 4/4/4 2/2/2
f 5/5/5 4/4/4 7/7/7
f 8/8/8 7/7/7 2/2/2
f 9/9/9 5/5/5 7/7/7
f 12/12/12 11/11/11 10/10/10
f 11/11/11 13/13/13 10/10/10
f 10/10/10 13/13/13 14/14/14
f 15/15/15 10/10/10 14/14/14
f 16/16/16 13/13/13 11/11/11
f 14/14/14 13/13/13 16/16/16
f 17/17/17 16/16/16 11/11/11
f 18/18/18 14/14/14 16/16/16
f 21/21/21 20/20/20 19/19/19
f 22/22/22 21/21/21 19/19/19
f 25/25/25 24/24/24 23/23/23
f 26/26/26 25/25/25 23/23/23
f 29/29/29 28/28/28 27/27/27
f 30/30/30 29/29/29 27/27/27
f 33/33/33 32/32/32 31/31/31
f 34/34/34 33/33/33 31/31/31
f 37/37/37 36/36/36 35/35/35
f 38/38/38 37/37/37 35/35/35
f 41/41/41 40/40/40 39/39/39
f 42/42/42 41/41/41 39/39/39
f 45/45/45 44/44/44 43/43/43
f 46/46/46 45/45/45 43/43/43
f 49/49/49 48/48/48 47/47/47
f 50/50/50 49/49/49 47/47/47
f 53/53/53 52/52/52 51/51/51
f 54/54/54 53/53/53 51/51/51
f 57/57/57 56/56/56 55/55/55
f 58/58/58 57/57/57 55/55/55
f 61/61/61 60/60/60 59/59/59
f 62/62/62 61/61/61 59/59/59
f 62/62/62 59/59/59 63/63/63
f 59/59/59 64/64/64 63/63/63
f 67/67/67 66/66/66 65/65/65
f 68/68/68 67/67/67 65/65/65
f 67/67/67 68/68/68 69/69/69
f 70/70/70 67/67/67 69/69/69
f 73/73/73 72/72/72 71/71/71
f 72/72/72 74/74/74 71/71/71
f 74/74/74 72/72/72 75/75/75
f 72/72/72 76/76/76 75/75/75
f 79/79/79 78/78/78 77/77/77
f 80/80/80 79/79/79 77/77/77
f 83/83/83 82/82/82 81/81/81
f 84/84/84 83/83/83 81/81/81
f 84/84/84 81/81/81 85/85/85
f 81/81/81 86/86/86 85/85/85
f 89/89/89 88/88/88 87/87/87
f 90/90/90 89/89/89 87/87/87
f 93/93/93 92/92/92 91/91/91
f 92/92/92 94/94/94 91/91/91
f 92/92/92 95/95/95 94/94/94
f 95/95/95 96/96/96 94/94/94
f 95/95/95 97/97/97 96/96/96
f 97/97/97 98/98/98 96/96/96
f 99/99/99 95/95/95 92/92/92
f 99/99/99 100/100/100 95/95/95
f 100/100/100 101/101/101 95/95/95
f 102/102/102 99/99/99 92/92/92
f 102/102/102 92/92/92 103/103/103
f 92/92/92 104/104/104 103/103/103
f 107/107/107 106/106/106 105/105/105
f 108/108/108 107/107/107 105/105/105
f 111/111/111 110/110/110 109/109/109
f 112/112/112 111/111/111 109/109/109
f 115/115/115 114/114/114 113/113/113
f 116/116/116 115/115/115 113/113/113
f 119/119/119 118/118/118 117/117/117
f 120/120/120 119/119/119 117/117/117
f 123/123/123 122/122/122 121/121/121
f 124/124/124 123/123/123 121/121/121
f 127/127/127 126/126/126 125/125/125
f 128/128/128 127/127/127 125/125/125
f 131/131/131 130/130/130 129/129/129
f 132/132/132 131/131/131 129/129/129
f 135/135/135 134/134/134 133/133/133
f 136/136/136 135/135/135 133/133/133
f 139/139/139 138/138/138 137/137/137
f 137/137/137 138/138/138 140/140/140
f 141/141/141 139/139/139 137/137/137
f 141/141/141 142/142/142 139/139/139
f 141/141/141 143/143/143 142/142/142
f 143/143/143 144/144/144 142/142/142
f 144/144/144 145/145/145 142/142/142
f 144/144/144 146/146/146 145/145/145
f 146/146/146 147/147/147 145/145/145
f 146/146/146 148/148/148 147/147/147
f 148/148/148 149/149/149 147/147/147
f 149/149/149 150/150/150 147/147/147
f 149/149/149 151/151/151 150/150/150
f 151/151/151 152/152/152 150/150/150
f 140/140/140 152/152/152 151/151/151
f 153/153/153 137/137/137 140/140/140
f 153/153/153 140/140/140 151/151/151
f 153/153/153 154/154/154 137/137/137
f 153/153/153 151/151/151 154/154/154
f 154/154/154 155/155/155 137/137/137
f 151/151/151 156/156/156 154/154/154
f 137/137/137 155/155/155 157/157/157
f 158/158/158 156/156/156 151/151/151
f 159/159/159 137/137/137 157/157/157
f 160/160/160 158/158/158 151/151/151
f 159/159/159 157/157/157 161/161/161
f 162/162/162 159/159/159 161/161/161
f 163/163/163 162/162/162 161/161/161
f 163/163/163 161/161/161 164/164/164
f 165/165/165 163/163/163 164/164/164
f 160/160/160 166/166/166 158/158/158
f 165/165/165 164/164/164 166/166/166
f 160/160/160 167/167/167 166/166/166
f 167/167/167 165/165/165 166/166/166
