g SM_Prop_Paper_Pile_02
v 0.09940308 0.187386 -0.1783569
v 0.1035724 0.187386 -0.109249
v 0.01971313 0.187386 -0.1735492
v 0.1035278 0.1754956 -0.1099893
v 0.09940308 0.1754956 -0.1783569
v 0.02056763 0.1754956 -0.1736008
v -0.1033124 0.1754956 0.1576639
v 0.117829 0.1754956 0.1574969
v 0.117785 0.1790332 0.09955414
v -0.1034338 0.1790332 -0.003209534
v -0.1033124 0.1754956 0.1576639
v -0.1033124 0.187386 0.1576639
v 0.117829 0.187386 0.1574969
v 0.117829 0.1754956 0.1574969
v 0.117829 0.1754956 0.1574969
v 0.117829 0.187386 0.1574969
v 0.1177936 0.1909237 0.1106244
v 0.117785 0.1790332 0.09955414
v 0.09940308 0.1754956 -0.1783569
v 0.09940308 0.187386 -0.1783569
v 0.01971313 0.187386 -0.1735492
v 0.02056763 0.1754956 -0.1736008
v -0.006824951 0.1818279 -0.1717297
v -0.007476196 0.1937184 -0.1716904
v -0.1179358 0.1754956 -0.1699252
v -0.1179358 0.187386 -0.1699252
v -0.1085455 0.187386 -0.01427246
v -0.1088391 0.1754956 -0.01914337
v 0.1078229 0.1937184 -0.08745544
v 0.1096747 0.187386 -0.0693634
v -0.03825012 0.187386 -0.174732
v -0.007476196 0.1937184 -0.1716904
v 0.1077905 0.1818279 -0.08799438
v 0.1035278 0.1754956 -0.1099893
v 0.02056763 0.1754956 -0.1736008
v -0.006824951 0.1818279 -0.1717297
v 0.1078229 0.1937184 -0.08745544
v 0.1035724 0.187386 -0.109249
v 0.1035278 0.1754956 -0.1099893
v 0.1077905 0.1818279 -0.08799438
v 0.1096747 0.187386 -0.0693634
v 0.1096826 0.1754956 -0.0692276
v 0.1191724 0.187386 0.08806518
v 0.1188782 0.1754956 0.08319427
v -0.007476196 0.1937184 -0.1716904
v -0.03825012 0.187386 -0.174732
v -0.03841736 0.1754956 -0.1747223
v -0.006824951 0.1818279 -0.1717297
v 0.1096826 0.1754956 -0.0692276
v 0.1077905 0.1818279 -0.08799438
v -0.006824951 0.1818279 -0.1717297
v -0.03841736 0.1754956 -0.1747223
v -0.1179358 0.187386 -0.1699252
v -0.03825012 0.187386 -0.174732
v 0.1096747 0.187386 -0.0693634
v -0.1085455 0.187386 -0.01427246
v 0.1191724 0.187386 0.08806518
v -0.03825012 0.187386 -0.174732
v -0.1179358 0.187386 -0.1699252
v -0.1179358 0.1754956 -0.1699252
v -0.03841736 0.1754956 -0.1747223
v 0.1035724 0.187386 -0.109249
v 0.1078229 0.1937184 -0.08745544
v -0.007476196 0.1937184 -0.1716904
v 0.01971313 0.187386 -0.1735492
v 0.1035724 0.187386 -0.109249
v 0.09940308 0.187386 -0.1783569
v 0.09940308 0.1754956 -0.1783569
v 0.1035278 0.1754956 -0.1099893
v 0.117785 0.1790332 0.09955414
v 0.1188782 0.1754956 0.08319427
v -0.1088391 0.1754956 -0.01914337
v -0.1034338 0.1790332 -0.003209534
v 0.1177936 0.1909237 0.1106244
v 0.1191724 0.187386 0.08806518
v 0.1188782 0.1754956 0.08319427
v 0.117785 0.1790332 0.09955414
v -0.1034253 0.1909237 0.007861023
v -0.1033124 0.187386 0.1576639
v -0.1033124 0.1754956 0.1576639
v -0.1034338 0.1790332 -0.003209534
v 0.1177936 0.1909237 0.1106244
v 0.117829 0.187386 0.1574969
v -0.1033124 0.187386 0.1576639
v -0.1034253 0.1909237 0.007861023
v -0.1085455 0.187386 -0.01427246
v -0.1034253 0.1909237 0.007861023
v -0.1034338 0.1790332 -0.003209534
v -0.1088391 0.1754956 -0.01914337
v 0.1191724 0.187386 0.08806518
v 0.1177936 0.1909237 0.1106244
v -0.1034253 0.1909237 0.007861023
v -0.1085455 0.187386 -0.01427246
v 0.1096826 0.1754956 -0.0692276
v -0.03841736 0.1754956 -0.1747223
v -0.1179358 0.1754956 -0.1699252
v -0.1088391 0.1754956 -0.01914337
v 0.1188782 0.1754956 0.08319427
v -0.1105707 0 0.1667404
v 0.1105707 0 0.1667404
v 0.1105707 1.501226E-16 -0.1667407
v -0.1105707 1.501226E-16 -0.1667407
v -0.1105707 0 0.1667404
v -0.1075629 0.08774778 0.1622043
v 0.1075629 0.08774778 0.1622043
v 0.1105707 0 0.1667404
v 0.1105707 0 0.1667404
v 0.1075629 0.08774778 0.1622043
v 0.1075629 0.08774778 -0.1622046
v 0.1105707 1.501226E-16 -0.1667407
v 0.1105707 1.501226E-16 -0.1667407
v 0.1075629 0.08774778 -0.1622046
v -0.1075629 0.08774778 -0.1622046
v -0.1105707 1.501226E-16 -0.1667407
v -0.1105707 1.501226E-16 -0.1667407
v -0.1075629 0.08774778 -0.1622046
v -0.1075629 0.08774778 0.1622043
v -0.1105707 0 0.1667404
v -0.1307056 0.05092273 0.151474
v -0.08867248 0.05092273 -0.1793475
v 0.130705 0.05092273 -0.151474
v 0.08867187 0.05092273 0.1793475
v -0.1307056 0.04011893 0.151474
v 0.08867187 0.04011893 0.1793475
v 0.130705 0.04011893 -0.151474
v -0.08867248 0.04011893 -0.1793475
v -0.1307056 0.04011893 0.151474
v -0.1307056 0.05092273 0.151474
v 0.08867187 0.05092273 0.1793475
v 0.08867187 0.04011893 0.1793475
v 0.08867187 0.04011893 0.1793475
v 0.08867187 0.05092273 0.1793475
v 0.130705 0.05092273 -0.151474
v 0.130705 0.04011893 -0.151474
v 0.130705 0.04011893 -0.151474
v 0.130705 0.05092273 -0.151474
v -0.08867248 0.05092273 -0.1793475
v -0.08867248 0.04011893 -0.1793475
v -0.08867248 0.04011893 -0.1793475
v -0.08867248 0.05092273 -0.1793475
v -0.1307056 0.05092273 0.151474
v -0.1307056 0.04011893 0.151474
v -0.08559143 0.1216664 0.180838
v -0.1332776 0.1216664 -0.149216
v 0.08559082 0.1216664 -0.1808383
v 0.1332776 0.1216664 0.1492157
v -0.08559143 0.1104171 0.180838
v 0.1332776 0.1104171 0.1492157
v 0.08559082 0.1104171 -0.1808383
v -0.1332776 0.1104171 -0.149216
v -0.08559143 0.1104171 0.180838
v -0.08559143 0.1216664 0.180838
v 0.1332776 0.1216664 0.1492157
v 0.1332776 0.1104171 0.1492157
v 0.1332776 0.1104171 0.1492157
v 0.1332776 0.1216664 0.1492157
v 0.08559082 0.1216664 -0.1808383
v 0.08559082 0.1104171 -0.1808383
v 0.08559082 0.1104171 -0.1808383
v 0.08559082 0.1216664 -0.1808383
v -0.1332776 0.1216664 -0.149216
v -0.1332776 0.1104171 -0.149216
v -0.1332776 0.1104171 -0.149216
v -0.1332776 0.1216664 -0.149216
v -0.08559143 0.1216664 0.180838
v -0.08559143 0.1104171 0.180838
v -0.1105707 0.1754956 0.1667404
v -0.1105707 0.1754956 -0.1667407
v 0.1105707 0.1754956 -0.1667407
v 0.1105707 0.1754956 0.1667404
v -0.1075629 0.08774778 0.1622043
v -0.1105707 0.1754956 0.1667404
v 0.1105707 0.1754956 0.1667404
v 0.1075629 0.08774778 0.1622043
v 0.1075629 0.08774778 0.1622043
v 0.1105707 0.1754956 0.1667404
v 0.1105707 0.1754956 -0.1667407
v 0.1075629 0.08774778 -0.1622046
v 0.1075629 0.08774778 -0.1622046
v 0.1105707 0.1754956 -0.1667407
v -0.1105707 0.1754956 -0.1667407
v -0.1075629 0.08774778 -0.1622046
v -0.1075629 0.08774778 -0.1622046
v -0.1105707 0.1754956 -0.1667407
v -0.1105707 0.1754956 0.1667404
v -0.1075629 0.08774778 0.1622043
vt 0.3889261 0.3903031
vt 0.3889261 0.3837215
vt 0.3795809 0.3903031
vt 0.3889261 0.383792
vt 0.3889261 0.3903031
vt 0.3796811 0.3903031
vt 0.36304 0.3586013
vt 0.3889261 0.3586013
vt 0.3889261 0.3641095
vt 0.36304 0.3738944
vt 0.36304 0.3586013
vt 0.36304 0.3586013
vt 0.3889261 0.3586013
vt 0.3889261 0.3586013
vt 0.3889261 0.3586013
vt 0.3889261 0.3586013
vt 0.3889261 0.3630572
vt 0.3889261 0.3641095
vt 0.3889261 0.3903031
vt 0.3889261 0.3903031
vt 0.3795809 0.3903031
vt 0.3796811 0.3903031
vt 0.3761242 0.3903031
vt 0.3760478 0.3903031
vt 0.36304 0.3903031
vt 0.36304 0.3903031
vt 0.36304 0.3754794
vt 0.36304 0.3759432
vt 0.3889261 0.3816499
vt 0.3889261 0.3794577
vt 0.3723847 0.3903031
vt 0.3760478 0.3903031
vt 0.3889261 0.3817013
vt 0.3889261 0.383792
vt 0.3796811 0.3903031
vt 0.3761242 0.3903031
vt 0.3889261 0.3816499
vt 0.3889261 0.3837215
vt 0.3889261 0.383792
vt 0.3889261 0.3817013
vt 0.3889261 0.3794577
vt 0.3889261 0.3794448
vt 0.3889261 0.3644649
vt 0.3889261 0.3649288
vt 0.3760478 0.3903031
vt 0.3723847 0.3903031
vt 0.3723651 0.3903031
vt 0.3761242 0.3903031
vt 0.3889261 0.3794448
vt 0.3889261 0.3817013
vt 0.3761242 0.3903031
vt 0.3723651 0.3903031
vt 0.36304 0.3903031
vt 0.3723847 0.3903031
vt 0.3889261 0.3794577
vt 0.36304 0.3754794
vt 0.3889261 0.3644649
vt 0.3723847 0.3903031
vt 0.36304 0.3903031
vt 0.36304 0.3903031
vt 0.3723651 0.3903031
vt 0.3889261 0.3837215
vt 0.3889261 0.3816499
vt 0.3760478 0.3903031
vt 0.3795809 0.3903031
vt 0.3889261 0.3837215
vt 0.3889261 0.3903031
vt 0.3889261 0.3903031
vt 0.3889261 0.383792
vt 0.3889261 0.3641095
vt 0.3889261 0.3649288
vt 0.36304 0.3759432
vt 0.36304 0.3738944
vt 0.3889261 0.3630572
vt 0.3889261 0.3644649
vt 0.3889261 0.3649288
vt 0.3889261 0.3641095
vt 0.36304 0.372842
vt 0.36304 0.3586013
vt 0.36304 0.3586013
vt 0.36304 0.3738944
vt 0.3889261 0.3630572
vt 0.3889261 0.3586013
vt 0.36304 0.3586013
vt 0.36304 0.372842
vt 0.36304 0.3754794
vt 0.36304 0.372842
vt 0.36304 0.3738944
vt 0.36304 0.3759432
vt 0.3889261 0.3644649
vt 0.3889261 0.3630572
vt 0.36304 0.372842
vt 0.36304 0.3754794
vt 0.3889261 0.3794448
vt 0.3723651 0.3903031
vt 0.36304 0.3903031
vt 0.36304 0.3759432
vt 0.3889261 0.3649288
vt 0.362897 0.3586581
vt 0.388783 0.3586581
vt 0.388783 0.3903599
vt 0.362897 0.3903599
vt 0.3948176 0.3620791
vt 0.3948176 0.3838632
vt 0.4105859 0.3838632
vt 0.4105859 0.3620791
vt 0.4105859 0.3620791
vt 0.4105859 0.3838632
vt 0.4105859 0.3838632
vt 0.4105859 0.3620791
vt 0.4105859 0.3620791
vt 0.4105859 0.3838632
vt 0.3948176 0.3838632
vt 0.3948176 0.3620791
vt 0.3948176 0.3620791
vt 0.3948176 0.3838632
vt 0.3948176 0.3838632
vt 0.3948176 0.3620791
vt 0.3821776 0.3621581
vt 0.3829583 0.36202
vt 0.3826535 0.3618904
vt 0.3819582 0.3619901
vt 0.3821788 0.3622426
vt 0.3819603 0.3620621
vt 0.3826525 0.3619548
vt 0.3829556 0.3620943
vt 0.3821788 0.3622426
vt 0.3821776 0.3621581
vt 0.3819582 0.3619901
vt 0.3819603 0.3620621
vt 0.3819603 0.3620621
vt 0.3819582 0.3619901
vt 0.3826535 0.3618904
vt 0.3826525 0.3619548
vt 0.3826525 0.3619548
vt 0.3826535 0.3618904
vt 0.3829583 0.36202
vt 0.3829556 0.3620943
vt 0.3829556 0.3620943
vt 0.3829583 0.36202
vt 0.3821776 0.3621581
vt 0.3821788 0.3622426
vt 0.3821776 0.3621581
vt 0.3829583 0.36202
vt 0.3826535 0.3618904
vt 0.3819582 0.3619901
vt 0.3821788 0.3622426
vt 0.3819603 0.3620621
vt 0.3826525 0.3619548
vt 0.3829556 0.3620943
vt 0.3821788 0.3622426
vt 0.3821776 0.3621581
vt 0.3819582 0.3619901
vt 0.3819603 0.3620621
vt 0.3819603 0.3620621
vt 0.3819582 0.3619901
vt 0.3826535 0.3618904
vt 0.3826525 0.3619548
vt 0.3826525 0.3619548
vt 0.3826535 0.3618904
vt 0.3829583 0.36202
vt 0.3829556 0.3620943
vt 0.3829556 0.3620943
vt 0.3829583 0.36202
vt 0.3821776 0.3621581
vt 0.3821788 0.3622426
vt 0.362897 0.3586581
vt 0.362897 0.3903599
vt 0.388783 0.3903599
vt 0.388783 0.3586581
vt 0.3948176 0.3629637
vt 0.3948176 0.3847478
vt 0.4105859 0.3847478
vt 0.4105859 0.3629637
vt 0.4105859 0.3629637
vt 0.4105859 0.3847478
vt 0.4105859 0.3838632
vt 0.4105859 0.3629637
vt 0.4105859 0.3629637
vt 0.4105859 0.3838632
vt 0.3948176 0.3847478
vt 0.3948176 0.3629637
vt 0.3948176 0.3629637
vt 0.3948176 0.3847478
vt 0.3948176 0.3847478
vt 0.3948176 0.3629637
vn 0 1 0
vn 0 1 0
vn 0 1 0
vn 0 -1 0
vn 0 -1 0
vn 0 -1 0
vn 0.007496492 -0.9994494 -0.03232216
vn 0.007496491 -0.9994494 -0.03232216
vn 0.007496491 -0.9994494 -0.03232216
vn 0.007496492 -0.9994494 -0.03232217
vn 0.0007548617 0 0.9999998
vn 0.0007548617 0 0.9999998
vn 0.0007548617 0 0.9999998
vn 0.0007548617 0 0.9999998
vn 0.9999998 0 -0.0007574574
vn 0.9999998 0 -0.0007574575
vn 0.9999998 0 -0.0007574574
vn 0.9999998 0 -0.0007574575
vn -0.06022092 0 -0.998185
vn -0.06022092 0 -0.998185
vn -0.06262372 -0.0001507673 -0.9980372
vn -0.06190172 -0.000105171 -0.9980823
vn -0.06829361 -0.0005088947 -0.9976652
vn -0.06829361 -0.0005088947 -0.9976652
vn -0.9981851 -1.169524E-05 0.06021966
vn -0.9981851 -1.169524E-05 0.06021966
vn -0.9981851 -1.169524E-05 0.06021966
vn -0.9981851 -1.169524E-05 0.06021966
vn -0.2331297 0.9170064 0.3236506
vn -0.2331297 0.9170064 0.3236505
vn -0.2331297 0.9170064 0.3236505
vn -0.2331297 0.9170064 0.3236506
vn -0.2144332 -0.9334582 0.2875311
vn -0.2144332 -0.9334582 0.2875311
vn -0.2144332 -0.9334582 0.2875311
vn -0.2144332 -0.9334582 0.2875311
vn 0.9886504 0.004174054 -0.1501763
vn 0.9812029 0.007200993 -0.1928444
vn 0.9812029 0.007200993 -0.1928444
vn 0.9884809 0.004252629 -0.1512861
vn 0.997856 6.701765E-05 -0.06544821
vn 0.9979689 3.644487E-05 -0.06370398
vn 0.9981851 -2.460563E-05 -0.06022037
vn 0.9981851 -2.460563E-05 -0.06022037
vn 0.09566353 0.003186083 -0.9954086
vn 0.09566353 0.003186083 -0.9954086
vn 0.09566353 0.003186083 -0.9954086
vn 0.09566353 0.003186083 -0.9954086
vn 0.2262955 -0.9220003 -0.3141748
vn 0.2262955 -0.9220003 -0.3141748
vn 0.2262955 -0.9220003 -0.3141748
vn 0.2262955 -0.9220003 -0.3141748
vn 0 1 0
vn 0 1 0
vn 0 1 0
vn 0 1 0
vn 0 1 0
vn -0.06021487 1.354643E-05 -0.9981855
vn -0.06021487 1.354643E-05 -0.9981855
vn -0.06021487 1.354643E-05 -0.9981855
vn -0.06021487 1.354643E-05 -0.9981855
vn 0.2160697 0.9324067 -0.2897097
vn 0.2160697 0.9324067 -0.2897097
vn 0.2160697 0.9324067 -0.2897097
vn 0.2160697 0.9324067 -0.2897097
vn 0.998185 0 -0.06022169
vn 0.998185 0 -0.0602217
vn 0.998185 0 -0.0602217
vn 0.998185 0 -0.0602217
vn -0.103254 -0.9686378 0.2260076
vn -0.103254 -0.9686378 0.2260076
vn -0.103254 -0.9686378 0.2260076
vn -0.103254 -0.9686378 0.2260076
vn 0.995241 -0.06268135 0.07460733
vn 0.995241 -0.06268133 0.07460733
vn 0.995241 -0.06268135 0.07460733
vn 0.995241 -0.06268135 0.07460734
vn -0.9999998 0 0.0007545857
vn -0.9999998 0 0.0007545857
vn -0.9999998 0 0.0007545857
vn -0.9999998 0 0.0007545857
vn -0.008339292 0.9993186 0.03595614
vn -0.008339293 0.9993186 0.03595614
vn -0.008339292 0.9993186 0.03595614
vn -0.008339292 0.9993186 0.03595614
vn -0.9378377 -0.1849567 0.2936861
vn -0.9378377 -0.1849567 0.2936861
vn -0.9378377 -0.1849567 0.2936861
vn -0.9378377 -0.1849567 0.2936861
vn 0.07399931 0.9840165 -0.1619739
vn 0.07399932 0.9840165 -0.1619739
vn 0.0739993 0.9840165 -0.1619739
vn 0.0739993 0.9840165 -0.1619739
vn 0 -1 0
vn 0 -1 0
vn 0 -1 0
vn 0 -1 0
vn 0 -1 0
vn 0 -1 0
vn 0 -1 0
vn 0 -1 0
vn 0 -1 0
vn 0 0.05162619 0.9986664
vn 0 0.05162619 0.9986664
vn 0 0.05162619 0.9986664
vn 0 0.05162619 0.9986664
vn 0.999413 0.03425781 0
vn 1 0 0
vn 1 0 0
vn 0.999413 0.03425781 0
vn 0 0.05162619 -0.9986664
vn 0 0.05162619 -0.9986664
vn 0 0.05162619 -0.9986664
vn 0 0.05162619 -0.9986664
vn -0.999413 0.03425781 0
vn -1 0 0
vn -1 0 0
vn -0.999413 0.03425781 0
vn 0 1 0
vn 0 1 0
vn 0 1 0
vn 0 1 0
vn 0 -1 0
vn 0 -1 0
vn 0 -1 0
vn 0 -1 0
vn -0.1260441 0 0.9920247
vn -0.1260441 0 0.9920247
vn -0.1260441 0 0.9920247
vn -0.1260441 0 0.9920247
vn 0.9920248 0 0.1260434
vn 0.9920248 0 0.1260434
vn 0.9920248 0 0.1260434
vn 0.9920248 0 0.1260434
vn 0.1260441 0 -0.9920247
vn 0.1260441 0 -0.9920247
vn 0.1260441 0 -0.9920247
vn 0.1260441 0 -0.9920247
vn -0.9920248 0 -0.1260434
vn -0.9920248 0 -0.1260434
vn -0.9920248 0 -0.1260434
vn -0.9920248 0 -0.1260434
vn 0 1 0
vn 0 1 0
vn 0 1 0
vn 0 1 0
vn 0 -1 0
vn 0 -1 0
vn 0 -1 0
vn 0 -1 0
vn 0.1429957 0 0.9897233
vn 0.1429957 0 0.9897233
vn 0.1429957 0 0.9897233
vn 0.1429957 0 0.9897233
vn 0.9897231 0 -0.1429969
vn 0.9897231 0 -0.1429969
vn 0.9897231 0 -0.1429969
vn 0.9897231 0 -0.1429969
vn -0.1429962 0 -0.9897232
vn -0.1429962 0 -0.9897232
vn -0.1429962 0 -0.9897232
vn -0.1429962 0 -0.9897232
vn -0.9897233 0 0.1429951
vn -0.9897233 0 0.1429951
vn -0.9897233 0 0.1429951
vn -0.9897233 0 0.1429951
vn 0 1 0
vn 0 1 0
vn 0 1 0
vn 0 1 0
vn 0 -0.05162619 0.9986664
vn 0 -0.05162618 0.9986664
vn 0 -0.05162618 0.9986664
vn 0 -0.05162619 0.9986664
vn 1 0 0
vn 0.999413 -0.03425781 0
vn 0.999413 -0.03425781 0
vn 1 0 0
vn 0 -0.05162619 -0.9986664
vn 0 -0.05162618 -0.9986664
vn 0 -0.05162618 -0.9986664
vn 0 -0.05162619 -0.9986664
vn -1 0 0
vn -0.999413 -0.03425781 0
vn -0.999413 -0.03425781 0
vn -1 0 0
g SM_Prop_Paper_Pile_02_0
f 3/3/3 2/2/2 1/1/1
f 6/6/6 5/5/5 4/4/4
f 9/9/9 8/8/8 7/7/7
f 10/10/10 9/9/9 7/7/7
f 13/13/13 12/12/12 11/11/11
f 14/14/14 13/13/13 11/11/11
f 17/17/17 16/16/16 15/15/15
f 18/18/18 17/17/17 15/15/15
f 21/21/21 20/20/20 19/19/19
f 22/22/22 21/21/21 19/19/19
f 22/22/22 23/23/23 21/21/21
f 23/23/23 24/24/24 21/21/21
f 27/27/27 26/26/26 25/25/25
f 28/28/28 27/27/27 25/25/25
f 31/31/31 30/30/30 29/29/29
f 32/32/32 31/31/31 29/29/29
f 35/35/35 34/34/34 33/33/33
f 36/36/36 35/35/35 33/33/33
f 39/39/39 38/38/38 37/37/37
f 40/40/40 39/39/39 37/37/37
f 40/40/40 37/37/37 41/41/41
f 42/42/42 40/40/40 41/41/41
f 42/42/42 41/41/41 43/43/43
f 44/44/44 42/42/42 43/43/43
f 47/47/47 46/46/46 45/45/45
f 48/48/48 47/47/47 45/45/45
f 51/51/51 50/50/50 49/49/49
f 52/52/52 51/51/51 49/49/49
f 55/55/55 54/54/54 53/53/53
f 53/53/53 56/56/56 55/55/55
f 56/56/56 57/57/57 55/55/55
f 60/60/60 59/59/59 58/58/58
f 61/61/61 60/60/60 58/58/58
f 64/64/64 63/63/63 62/62/62
f 65/65/65 64/64/64 62/62/62
f 68/68/68 67/67/67 66/66/66
f 69/69/69 68/68/68 66/66/66
f 72/72/72 71/71/71 70/70/70
f 73/73/73 72/72/72 70/70/70
f 76/76/76 75/75/75 74/74/74
f 77/77/77 76/76/76 74/74/74
f 80/80/80 79/79/79 78/78/78
f 81/81/81 80/80/80 78/78/78
f 84/84/84 83/83/83 82/82/82
f 85/85/85 84/84/84 82/82/82
f 88/88/88 87/87/87 86/86/86
f 89/89/89 88/88/88 86/86/86
f 92/92/92 91/91/91 90/90/90
f 93/93/93 92/92/92 90/90/90
f 96/96/96 95/95/95 94/94/94
f 94/94/94 97/97/97 96/96/96
f 94/94/94 98/98/98 97/97/97
f 101/101/101 100/100/100 99/99/99
f 102/102/102 101/101/101 99/99/99
f 105/105/105 104/104/104 103/103/103
f 106/106/106 105/105/105 103/103/103
f 109/109/109 108/108/108 107/107/107
f 110/110/110 109/109/109 107/107/107
f 113/113/113 112/112/112 111/111/111
f 114/114/114 113/113/113 111/111/111
f 117/117/117 116/116/116 115/115/115
f 118/118/118 117/117/117 115/115/115
f 121/121/121 120/120/120 119/119/119
f 122/122/122 121/121/121 119/119/119
f 125/125/125 124/124/124 123/123/123
f 126/126/126 125/125/125 123/123/123
f 129/129/129 128/128/128 127/127/127
f 130/130/130 129/129/129 127/127/127
f 133/133/133 132/132/132 131/131/131
f 134/134/134 133/133/133 131/131/131
f 137/137/137 136/136/136 135/135/135
f 138/138/138 137/137/137 135/135/135
f 141/141/141 140/140/140 139/139/139
f 142/142/142 141/141/141 139/139/139
f 145/145/145 144/144/144 143/143/143
f 146/146/146 145/145/145 143/143/143
f 149/149/149 148/148/148 147/147/147
f 150/150/150 149/149/149 147/147/147
f 153/153/153 152/152/152 151/151/151
f 154/154/154 153/153/153 151/151/151
f 157/157/157 156/156/156 155/155/155
f 158/158/158 157/157/157 155/155/155
f 161/161/161 160/160/160 159/159/159
f 162/162/162 161/161/161 159/159/159
f 165/165/165 164/164/164 163/163/163
f 166/166/166 165/165/165 163/163/163
f 169/169/169 168/168/168 167/167/167
f 170/170/170 169/169/169 167/167/167
f 173/173/173 172/172/172 171/171/171
f 174/174/174 173/173/173 171/171/171
f 177/177/177 176/176/176 175/175/175
f 178/178/178 177/177/177 175/175/175
f 181/181/181 180/180/180 179/179/179
f 182/182/182 181/181/181 179/179/179
f 185/185/185 184/184/184 183/183/183
f 186/186/186 185/185/185 183/183/183
