g SM_Prop_Clock_01
v 0.1582821 0.1149987 0
v 0.1582821 0.1149987 0.04307228
v 0.06045841 0.1860719 0.04307229
v 0.06045841 0.1860719 0
v 0.06045841 0.1860719 0
v 0.06045841 0.1860719 0.04307229
v -0.06045843 0.1860719 0.04307228
v -0.06045843 0.1860719 0
v -0.06045843 0.1860719 0
v -0.06045843 0.1860719 0.04307228
v -0.1582822 0.1149987 0.04307228
v -0.1582822 0.1149987 0
v -0.1582822 0.1149987 0
v -0.1582822 0.1149987 0.04307228
v -0.1956475 -1.192093E-08 0.04307228
v -0.1956475 -9.536743E-09 5.960464E-10
v -0.1956475 -9.536743E-09 5.960464E-10
v -0.1956475 -1.192093E-08 0.04307228
v -0.1582821 -0.1149987 0.04307228
v -0.1582821 -0.1149987 0
v -0.1582821 -0.1149987 0
v -0.1582821 -0.1149987 0.04307228
v -0.06045841 -0.1860719 0.04307228
v -0.06045841 -0.1860719 0
v -0.06045841 -0.1860719 0
v -0.06045841 -0.1860719 0.04307228
v 0.06045841 -0.1860719 0.04307228
v 0.06045841 -0.1860719 0
v 0.06045841 -0.1860719 0
v 0.06045841 -0.1860719 0.04307228
v 0.1582821 -0.1149987 0.04307228
v 0.1582821 -0.1149987 0
v 0.1582821 -0.1149987 0
v 0.1582821 -0.1149987 0.04307228
v 0.1956475 0 0.04307228
v 0.1956475 0 0
v 0.1956475 0 0
v 0.1956475 0 0.04307228
v 0.1582821 0.1149987 0.04307228
v 0.1582821 0.1149987 0
v 0.1582821 0.1149987 0.04307228
v 0.1337107 0.09714653 0.05417228
v 0.05107294 0.1571864 0.05417228
v 0.06045841 0.1860719 0.04307229
v 0.06045841 0.1860719 0.04307229
v 0.05107294 0.1571864 0.05417228
v -0.05107297 0.1571864 0.05417228
v -0.06045843 0.1860719 0.04307228
v -0.06045843 0.1860719 0.04307228
v -0.05107297 0.1571864 0.05417228
v -0.1337107 0.09714648 0.05417228
v -0.1582822 0.1149987 0.04307228
v -0.1582822 0.1149987 0.04307228
v -0.1337107 0.09714648 0.05417228
v -0.1652755 -9.536743E-09 0.05417228
v -0.1956475 -1.192093E-08 0.04307228
v -0.1956475 -1.192093E-08 0.04307228
v -0.1652755 -9.536743E-09 0.05417228
v -0.1337107 -0.09714649 0.05417228
v -0.1582821 -0.1149987 0.04307228
v -0.1582821 -0.1149987 0.04307228
v -0.1337107 -0.09714649 0.05417228
v -0.05107294 -0.1571863 0.05417228
v -0.06045841 -0.1860719 0.04307228
v -0.06045841 -0.1860719 0.04307228
v -0.05107294 -0.1571863 0.05417228
v 0.05107296 -0.1571863 0.05417228
v 0.06045841 -0.1860719 0.04307228
v 0.06045841 -0.1860719 0.04307228
v 0.05107296 -0.1571863 0.05417228
v 0.1337107 -0.09714645 0.05417228
v 0.1582821 -0.1149987 0.04307228
v 0.1582821 -0.1149987 0.04307228
v 0.1337107 -0.09714645 0.05417228
v 0.1652755 0 0.05417228
v 0.1956475 0 0.04307228
v 0.1956475 0 0.04307228
v 0.1652755 0 0.05417228
v 0.1337107 0.09714653 0.05417228
v 0.1582821 0.1149987 0.04307228
v 0.1337107 0.09714653 0.05417228
v 0.1258256 0.09141763 0.03750075
v 0.04806108 0.1479168 0.03750075
v 0.05107294 0.1571864 0.05417228
v 0.05107294 0.1571864 0.05417228
v 0.04806108 0.1479168 0.03750075
v -0.04806112 0.1479168 0.03750075
v -0.05107297 0.1571864 0.05417228
v -0.05107297 0.1571864 0.05417228
v -0.04806112 0.1479168 0.03750075
v -0.1258256 0.09141762 0.03750075
v -0.1337107 0.09714648 0.05417228
v -0.1337107 0.09714648 0.05417228
v -0.1258256 0.09141762 0.03750075
v -0.155529 -7.152557E-09 0.03750075
v -0.1652755 -9.536743E-09 0.05417228
v -0.1652755 -9.536743E-09 0.05417228
v -0.155529 -7.152557E-09 0.03750075
v -0.1258256 -0.09141762 0.03750075
v -0.1337107 -0.09714649 0.05417228
v -0.1337107 -0.09714649 0.05417228
v -0.1258256 -0.09141762 0.03750075
v -0.04806109 -0.1479168 0.03750075
v -0.05107294 -0.1571863 0.05417228
v -0.05107294 -0.1571863 0.05417228
v -0.04806109 -0.1479168 0.03750075
v 0.0480611 -0.1479168 0.03750075
v 0.05107296 -0.1571863 0.05417228
v 0.05107296 -0.1571863 0.05417228
v 0.0480611 -0.1479168 0.03750075
v 0.1258256 -0.0914176 0.03750075
v 0.1337107 -0.09714645 0.05417228
v 0.1337107 -0.09714645 0.05417228
v 0.1258256 -0.0914176 0.03750075
v 0.155529 2.384186E-09 0.03750075
v 0.1652755 0 0.05417228
v 0.1652755 0 0.05417228
v 0.155529 2.384186E-09 0.03750075
v 0.1258256 0.09141763 0.03750075
v 0.1337107 0.09714653 0.05417228
v 0.1582821 0.1149987 0
v -9.329198E-09 4.768371E-09 6.935986E-10
v 0.1956475 0 0
v 0.06045841 0.1860719 0
v 0.1582821 -0.1149987 0
v -0.06045843 0.1860719 0
v 0.06045841 -0.1860719 0
v -0.1582822 0.1149987 0
v -0.06045841 -0.1860719 0
v -0.1956475 -9.536743E-09 5.960464E-10
v -0.1582821 -0.1149987 0
v 0.1258256 0.09141763 0.03750075
v -9.329198E-09 8.34465E-09 0.03750075
v 0.04806108 0.1479168 0.03750075
v 0.155529 2.384186E-09 0.03750075
v -0.04806112 0.1479168 0.03750075
v 0.1258256 -0.0914176 0.03750075
v -0.1258256 0.09141762 0.03750075
v 0.0480611 -0.1479168 0.03750075
v -0.155529 -7.152557E-09 0.03750075
v -0.04806109 -0.1479168 0.03750075
v -0.1258256 -0.09141762 0.03750075
vt 0.08031893 0.2515377
vt 0.08024222 0.2515469
vt 0.08041257 0.251383
vt 0.08048981 0.2513767
vt 0.08048981 0.2513767
vt 0.08041257 0.251383
vt 0.08065027 0.2514003
vt 0.08072667 0.2513933
vt 0.08072667 0.2513933
vt 0.08065027 0.2514003
vt 0.08086104 0.2516207
vt 0.08093534 0.2516083
vt 0.08093534 0.2516083
vt 0.08086104 0.2516207
vt 0.0809404 0.2519587
vt 0.08101285 0.2519382
vt 0.08101285 0.2519382
vt 0.0809404 0.2519587
vt 0.08085013 0.2522524
vt 0.08092204 0.2522259
vt 0.08092204 0.2522259
vt 0.08085013 0.2522524
vt 0.08064514 0.2523768
vt 0.08071755 0.252349
vt 0.08071755 0.252349
vt 0.08064514 0.2523768
vt 0.08042002 0.2523079
vt 0.08049321 0.252283
vt 0.08049321 0.252283
vt 0.08042002 0.2523079
vt 0.08025199 0.2520948
vt 0.08032614 0.252075
vt 0.08032614 0.252075
vt 0.08025199 0.2520948
vt 0.08018631 0.2518134
vt 0.08026177 0.2517992
vt 0.08026177 0.2517992
vt 0.08018631 0.2518134
vt 0.08024222 0.2515469
vt 0.08031893 0.2515377
vt 0.08024222 0.2515469
vt 0.08026439 0.2515988
vt 0.08041018 0.2514621
vt 0.08041257 0.251383
vt 0.08041257 0.251383
vt 0.08041018 0.2514621
vt 0.08061031 0.2514806
vt 0.08065027 0.2514003
vt 0.08065027 0.2514003
vt 0.08061031 0.2514806
vt 0.08078541 0.2516677
vt 0.08086104 0.2516207
vt 0.08086104 0.2516207
vt 0.08078541 0.2516677
vt 0.08085174 0.2519506
vt 0.0809404 0.2519587
vt 0.0809404 0.2519587
vt 0.08085174 0.2519506
vt 0.08077849 0.2521982
vt 0.08085013 0.2522524
vt 0.08085013 0.2522524
vt 0.08077849 0.2521982
vt 0.0806078 0.2523064
vt 0.08064514 0.2523768
vt 0.08064514 0.2523768
vt 0.0806078 0.2523064
vt 0.08041674 0.2522506
vt 0.08042002 0.2523079
vt 0.08042002 0.2523079
vt 0.08041674 0.2522506
vt 0.0802722 0.2520689
vt 0.08025199 0.2520948
vt 0.08025199 0.2520948
vt 0.0802722 0.2520689
vt 0.08021569 0.2518268
vt 0.08018631 0.2518134
vt 0.08018631 0.2518134
vt 0.08021569 0.2518268
vt 0.08026439 0.2515988
vt 0.08024222 0.2515469
vt 0.08026439 0.2515988
vt 0.08030844 0.2516107
vt 0.08044648 0.2514836
vt 0.08041018 0.2514621
vt 0.08041018 0.2514621
vt 0.08044648 0.2514836
vt 0.08063424 0.2515019
vt 0.08061031 0.2514806
vt 0.08061031 0.2514806
vt 0.08063424 0.2515019
vt 0.08079742 0.2516761
vt 0.08078541 0.2516677
vt 0.08078541 0.2516677
vt 0.08079742 0.2516761
vt 0.08085901 0.2519385
vt 0.08085174 0.2519506
vt 0.08085174 0.2519506
vt 0.08085901 0.2519385
vt 0.08079065 0.252169
vt 0.08077849 0.2521982
vt 0.08077849 0.2521982
vt 0.08079065 0.252169
vt 0.08063087 0.2522713
vt 0.0806078 0.2523064
vt 0.0806078 0.2523064
vt 0.08063087 0.2522713
vt 0.08045107 0.2522207
vt 0.08041674 0.2522506
vt 0.08041674 0.2522506
vt 0.08045107 0.2522207
vt 0.0803147 0.2520511
vt 0.0802722 0.2520689
vt 0.0802722 0.2520689
vt 0.0803147 0.2520511
vt 0.08026165 0.2518241
vt 0.08021569 0.2518268
vt 0.08021569 0.2518268
vt 0.08026165 0.2518241
vt 0.08030844 0.2516107
vt 0.08026439 0.2515988
vt 0.08031893 0.2515377
vt 0.08060357 0.2518624
vt 0.08026177 0.2517992
vt 0.08048981 0.2513767
vt 0.08032614 0.252075
vt 0.08072667 0.2513933
vt 0.08049321 0.252283
vt 0.08093534 0.2516083
vt 0.08071755 0.252349
vt 0.08101285 0.2519382
vt 0.08092204 0.2522259
vt 0.439541 0.05988432
vt 0.4238906 0.08142525
vt 0.4492135 0.07319736
vt 0.4238906 0.05479922
vt 0.4492135 0.08965313
vt 0.4082402 0.05988432
vt 0.439541 0.1029662
vt 0.3985677 0.07319736
vt 0.4238906 0.1080513
vt 0.3985677 0.08965313
vt 0.4082402 0.1029662
vn 0.5877859 0.8090165 0
vn 0.5877859 0.8090165 0
vn 0.5877858 0.8090166 0
vn 0.5877859 0.8090165 0
vn 0 1 0
vn 0 1 0
vn 0 1 0
vn 0 1 0
vn -0.5877859 0.8090165 0
vn -0.5877859 0.8090165 0
vn -0.5877859 0.8090165 0
vn -0.5877859 0.8090165 0
vn -0.9510565 0.3090168 0
vn -0.9510565 0.3090168 0
vn -0.9510565 0.3090168 0
vn -0.9510565 0.3090168 0
vn -0.9510565 -0.309017 0
vn -0.9510565 -0.309017 0
vn -0.9510565 -0.309017 0
vn -0.9510565 -0.309017 0
vn -0.5877858 -0.8090166 0
vn -0.5877858 -0.8090166 0
vn -0.5877858 -0.8090166 0
vn -0.5877858 -0.8090166 0
vn 0 -1 0
vn 0 -1 0
vn 0 -1 0
vn 0 -1 0
vn 0.587786 -0.8090165 0
vn 0.587786 -0.8090165 0
vn 0.5877859 -0.8090165 0
vn 0.587786 -0.8090165 0
vn 0.9510565 -0.309017 0
vn 0.9510565 -0.309017 0
vn 0.9510565 -0.309017 0
vn 0.9510565 -0.309017 0
vn 0.9510565 0.3090167 0
vn 0.9510565 0.3090167 0
vn 0.9510565 0.3090167 0
vn 0.9510565 0.3090167 0
vn 0.2108401 0.2901963 0.933452
vn 0.2108402 0.2901963 0.933452
vn 0.2108401 0.2901964 0.933452
vn 0.2108401 0.2901964 0.933452
vn 0 0.3587017 0.9334523
vn 0 0.3587017 0.9334523
vn 0 0.3587017 0.9334523
vn 0 0.3587017 0.9334523
vn -0.2108403 0.2901964 0.933452
vn -0.2108403 0.2901964 0.9334519
vn -0.2108403 0.2901964 0.9334519
vn -0.2108403 0.2901964 0.933452
vn -0.3411471 0.1108453 0.9334517
vn -0.3411471 0.1108453 0.9334517
vn -0.3411471 0.1108453 0.9334517
vn -0.341147 0.1108453 0.9334517
vn -0.3411472 -0.1108454 0.9334515
vn -0.3411472 -0.1108454 0.9334515
vn -0.3411472 -0.1108454 0.9334515
vn -0.3411472 -0.1108454 0.9334515
vn -0.2108402 -0.2901964 0.9334519
vn -0.2108402 -0.2901964 0.9334519
vn -0.2108402 -0.2901964 0.9334519
vn -0.2108402 -0.2901964 0.9334519
vn 0 -0.3587019 0.9334522
vn 0 -0.3587019 0.9334522
vn 0 -0.3587019 0.9334522
vn 0 -0.3587019 0.9334522
vn 0.2108403 -0.2901964 0.933452
vn 0.2108403 -0.2901964 0.933452
vn 0.2108403 -0.2901964 0.933452
vn 0.2108403 -0.2901964 0.933452
vn 0.3411472 -0.1108454 0.9334517
vn 0.3411471 -0.1108454 0.9334517
vn 0.3411471 -0.1108454 0.9334517
vn 0.3411471 -0.1108454 0.9334517
vn 0.3411472 0.1108453 0.9334517
vn 0.3411472 0.1108453 0.9334517
vn 0.3411472 0.1108453 0.9334517
vn 0.3411472 0.1108453 0.9334517
vn -0.5137174 -0.707072 0.485946
vn -0.5137174 -0.707072 0.485946
vn -0.5137175 -0.707072 0.485946
vn -0.5137174 -0.707072 0.485946
vn 0 -0.8739889 0.485946
vn 0 -0.8739889 0.485946
vn 0 -0.8739889 0.485946
vn 0 -0.8739889 0.485946
vn 0.513718 -0.707072 0.4859453
vn 0.513718 -0.707072 0.4859453
vn 0.5137179 -0.7070721 0.4859454
vn 0.513718 -0.707072 0.4859453
vn 0.8312132 -0.2700772 0.4859454
vn 0.8312132 -0.2700772 0.4859454
vn 0.8312132 -0.2700772 0.4859454
vn 0.8312132 -0.2700772 0.4859454
vn 0.8312131 0.2700772 0.4859457
vn 0.8312131 0.2700773 0.4859457
vn 0.8312131 0.2700773 0.4859457
vn 0.8312131 0.2700772 0.4859457
vn 0.5137175 0.7070721 0.4859456
vn 0.5137177 0.7070721 0.4859456
vn 0.5137177 0.7070721 0.4859457
vn 0.5137177 0.7070721 0.4859456
vn 0 0.873989 0.4859457
vn 0 0.873989 0.4859457
vn 0 0.873989 0.4859456
vn 0 0.873989 0.4859457
vn -0.513718 0.707072 0.4859454
vn -0.513718 0.707072 0.4859454
vn -0.513718 0.707072 0.4859454
vn -0.513718 0.707072 0.4859454
vn -0.8312133 0.2700773 0.4859451
vn -0.8312133 0.2700773 0.4859451
vn -0.8312133 0.2700773 0.4859451
vn -0.8312133 0.2700773 0.485945
vn -0.8312132 -0.2700771 0.4859455
vn -0.8312132 -0.2700771 0.4859454
vn -0.8312132 -0.270077 0.4859454
vn -0.8312132 -0.270077 0.4859454
vn 0 0 -1
vn 0 0 -1
vn 0 0 -1
vn 0 0 -1
vn 0 0 -1
vn 0 0 -1
vn 0 0 -1
vn 0 0 -1
vn 0 0 -1
vn 0 0 -1
vn 0 0 -1
vn 0 0 1
vn 0 0 1
vn 0 0 1
vn 0 0 1
vn 0 0 1
vn 0 0 1
vn 0 0 1
vn 0 0 1
vn 0 0 1
vn 0 0 1
vn 0 0 1
g SM_Prop_Clock_01_0
f 3/3/3 2/2/2 1/1/1
f 4/4/4 3/3/3 1/1/1
f 7/7/7 6/6/6 5/5/5
f 8/8/8 7/7/7 5/5/5
f 11/11/11 10/10/10 9/9/9
f 12/12/12 11/11/11 9/9/9
f 15/15/15 14/14/14 13/13/13
f 16/16/16 15/15/15 13/13/13
f 19/19/19 18/18/18 17/17/17
f 20/20/20 19/19/19 17/17/17
f 23/23/23 22/22/22 21/21/21
f 24/24/24 23/23/23 21/21/21
f 27/27/27 26/26/26 25/25/25
f 28/28/28 27/27/27 25/25/25
f 31/31/31 30/30/30 29/29/29
f 32/32/32 31/31/31 29/29/29
f 35/35/35 34/34/34 33/33/33
f 36/36/36 35/35/35 33/33/33
f 39/39/39 38/38/38 37/37/37
f 40/40/40 39/39/39 37/37/37
f 43/43/43 42/42/42 41/41/41
f 44/44/44 43/43/43 41/41/41
f 47/47/47 46/46/46 45/45/45
f 48/48/48 47/47/47 45/45/45
f 51/51/51 50/50/50 49/49/49
f 52/52/52 51/51/51 49/49/49
f 55/55/55 54/54/54 53/53/53
f 56/56/56 55/55/55 53/53/53
f 59/59/59 58/58/58 57/57/57
f 60/60/60 59/59/59 57/57/57
f 63/63/63 62/62/62 61/61/61
f 64/64/64 63/63/63 61/61/61
f 67/67/67 66/66/66 65/65/65
f 68/68/68 67/67/67 65/65/65
f 71/71/71 70/70/70 69/69/69
f 72/72/72 71/71/71 69/69/69
f 75/75/75 74/74/74 73/73/73
f 76/76/76 75/75/75 73/73/73
f 79/79/79 78/78/78 77/77/77
f 80/80/80 79/79/79 77/77/77
f 83/83/83 82/82/82 81/81/81
f 84/84/84 83/83/83 81/81/81
f 87/87/87 86/86/86 85/85/85
f 88/88/88 87/87/87 85/85/85
f 91/91/91 90/90/90 89/89/89
f 92/92/92 91/91/91 89/89/89
f 95/95/95 94/94/94 93/93/93
f 96/96/96 95/95/95 93/93/93
f 99/99/99 98/98/98 97/97/97
f 100/100/100 99/99/99 97/97/97
f 103/103/103 102/102/102 101/101/101
f 104/104/104 103/103/103 101/101/101
f 107/107/107 106/106/106 105/105/105
f 108/108/108 107/107/107 105/105/105
f 111/111/111 110/110/110 109/109/109
f 112/112/112 111/111/111 109/109/109
f 115/115/115 114/114/114 113/113/113
f 116/116/116 115/115/115 113/113/113
f 119/119/119 118/118/118 117/117/117
f 120/120/120 119/119/119 117/117/117
f 123/123/123 122/122/122 121/121/121
f 121/121/121 122/122/122 124/124/124
f 125/125/125 122/122/122 123/123/123
f 124/124/124 122/122/122 126/126/126
f 127/127/127 122/122/122 125/125/125
f 126/126/126 122/122/122 128/128/128
f 129/129/129 122/122/122 127/127/127
f 128/128/128 122/122/122 130/130/130
f 131/131/131 122/122/122 129/129/129
f 130/130/130 122/122/122 131/131/131
f 134/134/134 133/133/133 132/132/132
f 132/132/132 133/133/133 135/135/135
f 136/136/136 133/133/133 134/134/134
f 135/135/135 133/133/133 137/137/137
f 138/138/138 133/133/133 136/136/136
f 137/137/137 133/133/133 139/139/139
f 140/140/140 133/133/133 138/138/138
f 139/139/139 133/133/133 141/141/141
f 142/142/142 133/133/133 140/140/140
f 141/141/141 133/133/133 142/142/142
