g SM_Prop_Toilet_01_Seat
v 0.1347651 -0.01318028 0.4756858
v 0.1330653 0.01318027 0.472938
v 0.2153042 0.01318027 0.3318043
v 0.2180544 -0.01318028 0.3327486
v 0.2180544 -0.01318028 0.3327486
v 0.2153042 0.01318027 0.3318043
v 0.2153042 0.01318027 0.1573584
v 0.2180544 -0.01318028 0.1560754
v 0.2180544 -0.01318028 0.1560754
v 0.2153042 0.01318027 0.1573584
v 0.1330653 0.01318027 -0.01108535
v 0.134765 -0.01318028 -0.01451675
v 0.134765 -0.01318028 -0.01451675
v 0.1330653 0.01318027 -0.01108535
v 1.177619E-08 0.01318027 -0.01036285
v 1.177619E-08 -0.01318028 -0.01379272
v -0.1330653 0.01318027 -0.01108535
v -0.1347651 -0.01318028 -0.01451675
v -0.1347651 -0.01318028 -0.01451675
v -0.1330653 0.01318027 -0.01108535
v -0.2153042 0.01318027 0.1573584
v -0.2180544 -0.01318028 0.1560754
v -0.2180544 -0.01318028 0.1560754
v -0.2153042 0.01318027 0.1573584
v -0.2153041 0.01318027 0.3318043
v -0.2180544 -0.01318028 0.3327486
v -0.2180544 -0.01318028 0.3327486
v -0.2153041 0.01318027 0.3318043
v -0.1330653 0.01318027 0.472938
v -0.134765 -0.01318028 0.4756858
v -0.134765 -0.01318028 0.4756858
v -0.1330653 0.01318027 0.472938
v 1.177619E-08 0.01318027 0.5268443
v 1.177619E-08 -0.01318028 0.5302804
v 1.177619E-08 -0.01318028 0.5302804
v 1.177619E-08 0.01318027 0.5268443
v 0.1330653 0.01318027 0.472938
v 0.1347651 -0.01318028 0.4756858
v -0.124999 0.01318027 0.300799
v -0.1224038 -0.01318028 0.2999078
v -0.07564971 -0.01318028 0.3801453
v -0.07725363 0.01318027 0.382737
v -0.1224038 -0.01318028 0.2999078
v -0.124999 0.01318027 0.300799
v -0.124999 0.01318027 0.199521
v -0.1224038 -0.01318028 0.2007333
v -0.1224038 -0.01318028 0.2007333
v -0.124999 0.01318027 0.199521
v -0.07725363 0.01318027 0.1017278
v -0.07564971 -0.01318028 0.1049721
v -0.07564971 -0.01318028 0.1049721
v -0.07725363 0.01318027 0.1017278
v 1.177619E-08 0.01318027 0.1021472
v 1.177619E-08 -0.01318028 0.1053784
v 0.07725362 0.01318027 0.1017278
v 0.07564972 -0.01318028 0.1049721
v 1.177619E-08 -0.01318028 0.1053784
v 1.177619E-08 0.01318027 0.1021472
v 0.07564972 -0.01318028 0.1049721
v 0.07725362 0.01318027 0.1017278
v 0.124999 0.01318027 0.199521
v 0.1224038 -0.01318028 0.2007333
v 0.1224038 -0.01318028 0.2007333
v 0.124999 0.01318027 0.199521
v 0.1249991 0.01318027 0.300799
v 0.1224039 -0.01318028 0.2999078
v 0.1224039 -0.01318028 0.2999078
v 0.1249991 0.01318027 0.300799
v 0.07725365 0.01318027 0.382737
v 0.07564977 -0.01318028 0.3801453
v 0.07564977 -0.01318028 0.3801453
v 0.07725365 0.01318027 0.382737
v 1.177619E-08 0.01318027 0.4140334
v 1.177619E-08 -0.01318028 0.4107915
v 1.177619E-08 -0.01318028 0.4107915
v 1.177619E-08 0.01318027 0.4140334
v -0.07725363 0.01318027 0.382737
v -0.07564971 -0.01318028 0.3801453
v 0.2180544 -0.01318028 0.3327486
v 0.1224039 -0.01318028 0.2999078
v 0.07564977 -0.01318028 0.3801453
v 0.1347651 -0.01318028 0.4756858
v 0.2180544 -0.01318028 0.1560754
v 1.177619E-08 -0.01318028 0.4107915
v 0.1224038 -0.01318028 0.2007333
v 1.177619E-08 -0.01318028 0.5302804
v 0.134765 -0.01318028 -0.01451675
v -0.07564971 -0.01318028 0.3801453
v 0.07564972 -0.01318028 0.1049721
v -0.134765 -0.01318028 0.4756858
v 1.177619E-08 -0.01318028 -0.01379272
v -0.1224038 -0.01318028 0.2999078
v 1.177619E-08 -0.01318028 0.1053784
v -0.2180544 -0.01318028 0.3327486
v -0.1347651 -0.01318028 -0.01451675
v -0.1224038 -0.01318028 0.2007333
v -0.07564971 -0.01318028 0.1049721
v -0.2180544 -0.01318028 0.1560754
v 0.1330653 0.01318027 0.472938
v 0.07725365 0.01318027 0.382737
v 0.1249991 0.01318027 0.300799
v 0.2153042 0.01318027 0.3318043
v 1.177619E-08 0.01318027 0.5268443
v 0.124999 0.01318027 0.199521
v 1.177619E-08 0.01318027 0.4140334
v 0.2153042 0.01318027 0.1573584
v -0.1330653 0.01318027 0.472938
v 0.07725362 0.01318027 0.1017278
v -0.07725363 0.01318027 0.382737
v 0.1330653 0.01318027 -0.01108535
v -0.2153041 0.01318027 0.3318043
v 1.177619E-08 0.01318027 0.1021472
v -0.124999 0.01318027 0.300799
v 1.177619E-08 0.01318027 -0.01036285
v -0.2153042 0.01318027 0.1573584
v -0.07725363 0.01318027 0.1017278
v -0.124999 0.01318027 0.199521
v -0.1330653 0.01318027 -0.01108535
vt 0.4217274 0.009819359
vt 0.4217274 0.009819359
vt 0.4217275 0.009819359
vt 0.4217275 0.009819359
vt 0.4217275 0.009819359
vt 0.4217275 0.009819359
vt 0.4217275 0.009819359
vt 0.4217275 0.009819359
vt 0.4217275 0.009819359
vt 0.4217275 0.009819359
vt 0.4217275 0.009819359
vt 0.4217275 0.009819359
vt 0.4217275 0.009819359
vt 0.4217275 0.009819359
vt 0.4217274 0.009819359
vt 0.4217274 0.009819359
vt 0.4217274 0.009819359
vt 0.4217274 0.009819359
vt 0.4217274 0.009819359
vt 0.4217274 0.009819359
vt 0.4217275 0.009819359
vt 0.4217275 0.009819359
vt 0.4217275 0.009819359
vt 0.4217275 0.009819359
vt 0.4217275 0.009819359
vt 0.4217275 0.009819359
vt 0.4217275 0.009819359
vt 0.4217275 0.009819359
vt 0.4217275 0.009819359
vt 0.4217275 0.009819359
vt 0.4217275 0.009819359
vt 0.4217275 0.009819359
vt 0.4217275 0.009819359
vt 0.4217275 0.009819359
vt 0.4217275 0.009819359
vt 0.4217275 0.009819359
vt 0.4217275 0.009819359
vt 0.4217275 0.009819359
vt 0.4217275 0.009819359
vt 0.4217275 0.009819329
vt 0.4217275 0.009819329
vt 0.4217275 0.009819359
vt 0.4217275 0.009819269
vt 0.4217275 0.009819359
vt 0.4217275 0.009819359
vt 0.4217275 0.009819269
vt 0.4217275 0.009819359
vt 0.4217275 0.009819329
vt 0.4217275 0.009819329
vt 0.4217275 0.009819359
vt 0.4217275 0.009819359
vt 0.4217275 0.009819329
vt 0.4217275 0.009819329
vt 0.4217275 0.009819359
vt 0.4217275 0.009819359
vt 0.4217275 0.009819269
vt 0.4217275 0.009819329
vt 0.4217275 0.009819359
vt 0.4217275 0.009819359
vt 0.4217275 0.009819329
vt 0.4217275 0.009819329
vt 0.4217275 0.009819359
vt 0.4217275 0.009819359
vt 0.4217275 0.009819269
vt 0.4217275 0.009819269
vt 0.4217275 0.009819359
vt 0.4217275 0.009819359
vt 0.4217275 0.009819329
vt 0.4217275 0.009819329
vt 0.4217275 0.009819359
vt 0.4217275 0.009819359
vt 0.4217275 0.009819329
vt 0.4217275 0.009819329
vt 0.4217275 0.009819359
vt 0.4217275 0.009819359
vt 0.4217275 0.009819329
vt 0.4217275 0.009819329
vt 0.4217275 0.009819359
vt 0.4217274 0.009819359
vt 0.4217274 0.009819359
vt 0.4217275 0.009819359
vt 0.4217275 0.009819359
vt 0.4217274 0.009819358
vt 0.4217275 0.009819359
vt 0.4217274 0.009819358
vt 0.4217275 0.009819359
vt 0.4217274 0.009819358
vt 0.4217275 0.009819359
vt 0.4217274 0.009819358
vt 0.4217275 0.009819359
vt 0.4217274 0.009819358
vt 0.4217275 0.009819359
vt 0.4217274 0.009819358
vt 0.4217275 0.009819359
vt 0.4217274 0.009819359
vt 0.4217275 0.009819359
vt 0.4217274 0.009819359
vt 0.4217275 0.009819359
vt 0.4217275 0.009819359
vt 0.4217275 0.009819359
vt 0.4217275 0.009819359
vt 0.4217275 0.009819359
vt 0.4217275 0.009819359
vt 0.4217275 0.009819359
vt 0.4217275 0.009819359
vt 0.4217275 0.009819359
vt 0.4217275 0.009819359
vt 0.4217274 0.009819359
vt 0.4217275 0.009819359
vt 0.4217274 0.009819359
vt 0.4217274 0.009819359
vt 0.4217274 0.009819359
vt 0.4217274 0.009819359
vt 0.4217274 0.009819359
vt 0.4217274 0.009819359
vt 0.4217274 0.009819359
vt 0.4217274 0.009819359
vt 0.4217274 0.009819359
vn 0.8590044 0.1075579 0.5005423
vn 0.8590044 0.1075579 0.5005423
vn 0.8590044 0.1075579 0.5005423
vn 0.8590044 0.1075579 0.5005423
vn 0.9946015 0.1037686 0
vn 0.9946015 0.1037686 0
vn 0.9946015 0.1037686 0
vn 0.9946015 0.1037686 0
vn 0.8927251 0.1143263 -0.4358572
vn 0.8927251 0.1143263 -0.4358572
vn 0.8927251 0.1143263 -0.4358572
vn 0.8927251 0.1143263 -0.4358572
vn -0.00535581 0.1288827 -0.9916454
vn -0.00535581 0.1288827 -0.9916454
vn 0 0.1288846 -0.9916596
vn 0 0.1288846 -0.9916596
vn 0.005355808 0.1288827 -0.9916454
vn 0.005355808 0.1288828 -0.9916454
vn -0.8927251 0.1143263 -0.435857
vn -0.8927252 0.1143264 -0.4358571
vn -0.8927251 0.1143263 -0.435857
vn -0.8927252 0.1143264 -0.4358571
vn -0.9946015 0.1037686 0
vn -0.9946015 0.1037686 0
vn -0.9946015 0.1037686 0
vn -0.9946015 0.1037686 0
vn -0.8590046 0.1075579 0.5005423
vn -0.8590046 0.1075579 0.5005422
vn -0.8590046 0.1075579 0.5005423
vn -0.8590046 0.1075579 0.5005423
vn -0.3727595 0.1199459 0.9201431
vn -0.3727595 0.1199459 0.9201431
vn -0.3727595 0.1199459 0.9201431
vn -0.3727595 0.1199459 0.9201431
vn 0.3727595 0.1199463 0.920143
vn 0.3727595 0.1199463 0.9201431
vn 0.3727594 0.1199463 0.9201431
vn 0.3727594 0.1199463 0.920143
vn 0.8595507 0.1015491 -0.5008596
vn 0.8595507 0.1015491 -0.5008597
vn 0.8595507 0.1015491 -0.5008596
vn 0.8595507 0.1015491 -0.5008597
vn 0.9951887 0.09797703 0
vn 0.9951887 0.09797703 0
vn 0.9951887 0.09797704 0
vn 0.9951887 0.09797702 0
vn 0.8933586 0.1080246 0.4361663
vn 0.8933586 0.1080246 0.4361663
vn 0.8933586 0.1080246 0.4361662
vn 0.8933586 0.1080245 0.4361662
vn -0.005360581 0.1217475 0.9925466
vn -0.005360581 0.1217475 0.9925466
vn 0 0.1217493 0.9925609
vn 0 0.1217492 0.9925609
vn 0.005360584 0.1217475 0.9925466
vn 0.005360584 0.1217475 0.9925466
vn 0 0.1217492 0.9925609
vn 0 0.1217493 0.9925609
vn -0.8933588 0.1080233 0.4361664
vn -0.8933588 0.1080233 0.4361664
vn -0.8933588 0.1080233 0.4361664
vn -0.8933588 0.1080233 0.4361664
vn -0.9951888 0.09797562 0
vn -0.9951888 0.09797562 0
vn -0.9951888 0.09797562 0
vn -0.9951888 0.0979756 0
vn -0.8595509 0.1015478 -0.5008597
vn -0.8595508 0.1015478 -0.5008597
vn -0.8595509 0.1015478 -0.5008597
vn -0.8595509 0.1015478 -0.5008597
vn -0.3730542 0.1132437 -0.9208727
vn -0.3730542 0.1132437 -0.9208727
vn -0.3730542 0.1132437 -0.9208727
vn -0.3730542 0.1132437 -0.9208727
vn 0.3730542 0.1132439 -0.9208726
vn 0.3730542 0.1132439 -0.9208726
vn 0.3730542 0.1132439 -0.9208726
vn 0.3730542 0.1132439 -0.9208726
vn 0 -1 0
vn 0 -1 0
vn 0 -1 0
vn 0 -1 0
vn 0 -1 0
vn 0 -1 0
vn 0 -1 0
vn 0 -1 0
vn 0 -1 0
vn 0 -1 0
vn 0 -1 0
vn 0 -1 0
vn 0 -1 0
vn 0 -1 0
vn 0 -1 0
vn 0 -1 0
vn 0 -1 0
vn 0 -1 0
vn 0 -1 0
vn 0 -1 0
vn 0 1 0
vn 0 1 0
vn 0 1 0
vn 0 1 0
vn 0 1 0
vn 0 1 0
vn 0 1 0
vn 0 1 0
vn 0 1 0
vn 0 1 0
vn 0 1 0
vn 0 1 0
vn 0 1 0
vn 0 1 0
vn 0 1 0
vn 0 1 0
vn 0 1 0
vn 0 1 0
vn 0 1 0
vn 0 1 0
g SM_Prop_Toilet_01_Seat_0
f 3/3/3 2/2/2 1/1/1
f 4/4/4 3/3/3 1/1/1
f 7/7/7 6/6/6 5/5/5
f 8/8/8 7/7/7 5/5/5
f 11/11/11 10/10/10 9/9/9
f 12/12/12 11/11/11 9/9/9
f 15/15/15 14/14/14 13/13/13
f 16/16/16 15/15/15 13/13/13
f 17/17/17 15/15/15 16/16/16
f 18/18/18 17/17/17 16/16/16
f 21/21/21 20/20/20 19/19/19
f 22/22/22 21/21/21 19/19/19
f 25/25/25 24/24/24 23/23/23
f 26/26/26 25/25/25 23/23/23
f 29/29/29 28/28/28 27/27/27
f 30/30/30 29/29/29 27/27/27
f 33/33/33 32/32/32 31/31/31
f 34/34/34 33/33/33 31/31/31
f 37/37/37 36/36/36 35/35/35
f 38/38/38 37/37/37 35/35/35
f 41/41/41 40/40/40 39/39/39
f 42/42/42 41/41/41 39/39/39
f 45/45/45 44/44/44 43/43/43
f 46/46/46 45/45/45 43/43/43
f 49/49/49 48/48/48 47/47/47
f 50/50/50 49/49/49 47/47/47
f 53/53/53 52/52/52 51/51/51
f 54/54/54 53/53/53 51/51/51
f 57/57/57 56/56/56 55/55/55
f 58/58/58 57/57/57 55/55/55
f 61/61/61 60/60/60 59/59/59
f 62/62/62 61/61/61 59/59/59
f 65/65/65 64/64/64 63/63/63
f 66/66/66 65/65/65 63/63/63
f 69/69/69 68/68/68 67/67/67
f 70/70/70 69/69/69 67/67/67
f 73/73/73 72/72/72 71/71/71
f 74/74/74 73/73/73 71/71/71
f 77/77/77 76/76/76 75/75/75
f 78/78/78 77/77/77 75/75/75
f 81/81/81 80/80/80 79/79/79
f 82/82/82 81/81/81 79/79/79
f 79/79/79 80/80/80 83/83/83
f 84/84/84 81/81/81 82/82/82
f 80/80/80 85/85/85 83/83/83
f 86/86/86 84/84/84 82/82/82
f 83/83/83 85/85/85 87/87/87
f 88/88/88 84/84/84 86/86/86
f 85/85/85 89/89/89 87/87/87
f 90/90/90 88/88/88 86/86/86
f 87/87/87 89/89/89 91/91/91
f 92/92/92 88/88/88 90/90/90
f 89/89/89 93/93/93 91/91/91
f 94/94/94 92/92/92 90/90/90
f 91/91/91 93/93/93 95/95/95
f 96/96/96 92/92/92 94/94/94
f 93/93/93 97/97/97 95/95/95
f 98/98/98 96/96/96 94/94/94
f 95/95/95 97/97/97 98/98/98
f 97/97/97 96/96/96 98/98/98
f 101/101/101 100/100/100 99/99/99
f 102/102/102 101/101/101 99/99/99
f 99/99/99 100/100/100 103/103/103
f 104/104/104 101/101/101 102/102/102
f 100/100/100 105/105/105 103/103/103
f 106/106/106 104/104/104 102/102/102
f 103/103/103 105/105/105 107/107/107
f 108/108/108 104/104/104 106/106/106
f 105/105/105 109/109/109 107/107/107
f 110/110/110 108/108/108 106/106/106
f 107/107/107 109/109/109 111/111/111
f 112/112/112 108/108/108 110/110/110
f 109/109/109 113/113/113 111/111/111
f 114/114/114 112/112/112 110/110/110
f 111/111/111 113/113/113 115/115/115
f 116/116/116 112/112/112 114/114/114
f 113/113/113 117/117/117 115/115/115
f 118/118/118 116/116/116 114/114/114
f 115/115/115 117/117/117 118/118/118
f 117/117/117 116/116/116 118/118/118
