g SM_Prop_Mirror_01_Mirror
v -0.3585472 0.3777599 0.02912025
v -0.3926044 0.3437024 0.02912025
v -0.3926044 0.3437024 -0.02912025
v -0.3585472 0.3777599 -0.02912025
v 0.3926068 0.3437024 0.02912025
v 0.3585508 0.3777599 0.02912025
v 0.3926068 0.3437024 -0.02912025
v 0.3585508 0.3777599 -0.02912025
v -0.3926044 -0.4667467 0.02912025
v -0.3585472 -0.5008044 0.02912025
v -0.3926044 -0.4667467 -0.02912025
v -0.3585472 -0.5008044 -0.02912025
v 0.3585508 -0.5008044 0.02912025
v 0.3926068 -0.4667467 0.02912025
v 0.3585508 -0.5008044 -0.02912025
v 0.3926068 -0.4667467 -0.02912025
v -0.3530554 -0.427657 0.02948809
v -0.317751 -0.4629594 0.02948809
v 0.3177595 -0.4629594 0.02948809
v 0.3530613 -0.427657 0.02948809
v 0.3530613 0.3046131 0.02948809
v 0.3177595 0.3399151 0.02948809
v -0.317751 0.3399151 0.02948809
v -0.3530554 0.3046131 0.02948809
v -0.326643 -0.4060042 0.008624072
v -0.2939798 -0.4392188 0.008624072
v 0.3266491 -0.4060042 0.008624072
v 0.2939881 -0.4392188 0.008624072
v 0.2939881 0.3161744 0.008624072
v 0.3266491 0.2829603 0.008624072
v -0.326643 0.2829603 0.008624072
v -0.2939798 0.3161744 0.008624072
v -0.3926044 0.3437024 0.02912025
v -0.3926044 0.3437024 -0.02912025
v -0.3585472 0.3777599 -0.02912025
v -0.3585472 0.3777599 0.02912025
v 0.3585508 0.3777599 0.02912025
v 0.3585508 0.3777599 -0.02912025
v 0.3926068 0.3437024 -0.02912025
v 0.3926068 0.3437024 0.02912025
v -0.3585472 -0.5008044 0.02912025
v -0.3585472 -0.5008044 -0.02912025
v -0.3926044 -0.4667467 -0.02912025
v -0.3926044 -0.4667467 0.02912025
v 0.3926068 -0.4667467 0.02912025
v 0.3926068 -0.4667467 -0.02912025
v 0.3585508 -0.5008044 -0.02912025
v 0.3585508 -0.5008044 0.02912025
v -0.3530554 -0.427657 0.02948809
v -0.326643 -0.4060042 0.008624072
v -0.2939798 -0.4392188 0.008624072
v -0.317751 -0.4629594 0.02948809
v 0.3177595 -0.4629594 0.02948809
v 0.2939881 -0.4392188 0.008624072
v 0.3266491 -0.4060042 0.008624072
v 0.3530613 -0.427657 0.02948809
v 0.3530613 0.3046131 0.02948809
v 0.3266491 0.2829603 0.008624072
v 0.2939881 0.3161744 0.008624072
v 0.3177595 0.3399151 0.02948809
v -0.317751 0.3399151 0.02948809
v -0.2939798 0.3161744 0.008624072
v -0.326643 0.2829603 0.008624072
v -0.3530554 0.3046131 0.02948809
v -0.3585472 0.3777599 0.02912025
v -0.3585472 0.3777599 -0.02912025
v 0.3585508 0.3777599 -0.02912025
v 0.3585508 0.3777599 0.02912025
v -0.3585472 -0.5008044 0.02912025
v 0.3585508 -0.5008044 0.02912025
v 0.3585508 -0.5008044 -0.02912025
v -0.3585472 -0.5008044 -0.02912025
v 0.3926068 -0.4667467 0.02912025
v 0.3926068 0.3437024 0.02912025
v 0.3926068 0.3437024 -0.02912025
v 0.3926068 -0.4667467 -0.02912025
v -0.3926044 -0.4667467 -0.02912025
v -0.3926044 0.3437024 -0.02912025
v -0.3926044 0.3437024 0.02912025
v -0.3926044 -0.4667467 0.02912025
v -0.3585472 -0.5008044 0.02912025
v -0.317751 -0.4629594 0.02948809
v 0.3177595 -0.4629594 0.02948809
v 0.3585508 -0.5008044 0.02912025
v 0.3585508 0.3777599 0.02912025
v 0.3177595 0.3399151 0.02948809
v -0.317751 0.3399151 0.02948809
v -0.3585472 0.3777599 0.02912025
v -0.317751 -0.4629594 0.02948809
v -0.2939798 -0.4392188 0.008624072
v 0.2939881 -0.4392188 0.008624072
v 0.3177595 -0.4629594 0.02948809
v 0.3530613 -0.427657 0.02948809
v 0.3266491 -0.4060042 0.008624072
v 0.3266491 0.2829603 0.008624072
v 0.3530613 0.3046131 0.02948809
v 0.3177595 0.3399151 0.02948809
v 0.2939881 0.3161744 0.008624072
v -0.2939798 0.3161744 0.008624072
v -0.317751 0.3399151 0.02948809
v -0.3530554 0.3046131 0.02948809
v -0.326643 0.2829603 0.008624072
v -0.326643 -0.4060042 0.008624072
v -0.3530554 -0.427657 0.02948809
vt 0.4940138 0.03475672
vt 0.4940437 0.03478286
vt 0.4940246 0.03444827
vt 0.4939962 0.03442305
vt 0.4933019 0.0347451
vt 0.4933355 0.03472233
vt 0.4933189 0.03441408
vt 0.493351 0.03439194
vt 0.4939874 0.03536591
vt 0.4939539 0.03538868
vt 0.4939715 0.0350129
vt 0.4939396 0.03503504
vt 0.4932971 0.03535226
vt 0.4932674 0.03532612
vt 0.4933138 0.03500202
vt 0.4932855 0.03497681
vt 0.4939877 0.03536263
vt 0.4939491 0.03538841
vt 0.4933018 0.03535253
vt 0.4932675 0.03532284
vt 0.4933017 0.03474841
vt 0.4933405 0.03472257
vt 0.4940089 0.03475648
vt 0.4940434 0.03478616
vt 0.08038555 0.2154172
vt 0.08035445 0.2154491
vt 0.07977983 0.2152435
vt 0.07981077 0.2152885
vt 0.07979617 0.2144616
vt 0.07976483 0.2144942
vt 0.08040409 0.2145698
vt 0.08037294 0.2145254
vt 0.4940437 0.03478286
vt 0.4940246 0.03444827
vt 0.4939962 0.03442305
vt 0.4940138 0.03475672
vt 0.4933355 0.03472233
vt 0.493351 0.03439194
vt 0.4933189 0.03441408
vt 0.4933019 0.0347451
vt 0.4939539 0.03538868
vt 0.4939396 0.03503504
vt 0.4939715 0.0350129
vt 0.4939874 0.03536591
vt 0.4932674 0.03532612
vt 0.4932855 0.03497681
vt 0.4933138 0.03500202
vt 0.4932971 0.03535226
vt 0.4939877 0.03536263
vt 0.4939877 0.03536263
vt 0.4939491 0.03538841
vt 0.4939491 0.03538841
vt 0.4933018 0.03535253
vt 0.4933018 0.03535253
vt 0.4932675 0.03532284
vt 0.4932675 0.03532284
vt 0.4933017 0.03474841
vt 0.4933017 0.03474838
vt 0.4933405 0.03472257
vt 0.4933405 0.03472257
vt 0.4940089 0.03475648
vt 0.4940089 0.03475648
vt 0.4940434 0.03478613
vt 0.4940434 0.03478616
vt 0.4940138 0.03475672
vt 0.4939962 0.03442305
vt 0.493351 0.03439194
vt 0.4933355 0.03472233
vt 0.4939539 0.03538868
vt 0.4932971 0.03535226
vt 0.4933138 0.03500202
vt 0.4939396 0.03503504
vt 0.4932674 0.03532612
vt 0.4933019 0.0347451
vt 0.4933189 0.03441408
vt 0.4932855 0.03497681
vt 0.4939715 0.0350129
vt 0.4940246 0.03444827
vt 0.4940437 0.03478286
vt 0.4939874 0.03536591
vt 0.4939539 0.03538868
vt 0.4939491 0.03538841
vt 0.4933018 0.03535253
vt 0.4932971 0.03535226
vt 0.4933355 0.03472233
vt 0.4933405 0.03472257
vt 0.4940089 0.03475648
vt 0.4940138 0.03475672
vt 0.4939491 0.03538841
vt 0.4939491 0.03538841
vt 0.4933018 0.03535253
vt 0.4933018 0.03535253
vt 0.4932675 0.03532284
vt 0.4932675 0.03532284
vt 0.4933017 0.03474838
vt 0.4933017 0.03474841
vt 0.4933405 0.03472257
vt 0.4933405 0.03472257
vt 0.4940089 0.03475648
vt 0.4940089 0.03475648
vt 0.4940434 0.03478616
vt 0.4940434 0.03478613
vt 0.4939877 0.03536263
vt 0.4939877 0.03536263
vn -0.0008719466 0.00877944 0.9999611
vn -0.008605948 0.0007027735 0.9999628
vn 0 0 -1
vn 0 0 -1
vn 0.008606649 0.0007028546 0.9999627
vn 0.0008718686 0.008779621 0.9999611
vn 0 0 -1
vn 0 0 -1
vn -0.008605937 -0.000702779 0.9999628
vn -0.0008719474 -0.008779409 0.9999611
vn 0 0 -1
vn 0 0 -1
vn 0.0008718693 -0.008779592 0.9999611
vn 0.008606639 -0.0007028602 0.9999627
vn 0 0 -1
vn 0 0 -1
vn -0.009038967 -0.0002646407 0.9999591
vn -0.0002988446 -0.009397133 0.9999558
vn 0.0002988707 -0.00939714 0.9999558
vn 0.009039791 -0.0002646322 0.9999591
vn 0.00903979 0.0002646345 0.9999591
vn 0.0002988677 0.009397171 0.9999558
vn -0.0002988416 0.009397166 0.9999558
vn -0.009038966 0.0002646431 0.9999591
vn 0 0 1
vn 0 0 1
vn 0 0 1
vn 0 0 1
vn 0 0 1
vn 0 0 1
vn 0 0 1
vn 0 0 1
vn -0.7071107 0.7071028 0
vn -0.7071107 0.7071028 0
vn -0.7071107 0.7071028 0
vn -0.7071107 0.7071028 0
vn 0.7071234 0.7070901 0
vn 0.7071234 0.7070901 0
vn 0.7071234 0.7070901 0
vn 0.7071234 0.7070901 0
vn -0.7071123 -0.7071012 0
vn -0.7071123 -0.7071012 0
vn -0.7071123 -0.7071012 0
vn -0.7071123 -0.7071012 0
vn 0.707125 -0.7070885 0
vn 0.707125 -0.7070885 0
vn 0.707125 -0.7070885 0
vn 0.707125 -0.7070885 0
vn 0.3729261 0.3699361 0.850925
vn 0.3729261 0.3699361 0.850925
vn 0.3729261 0.3699361 0.850925
vn 0.3729261 0.3699361 0.850925
vn -0.3729384 0.369922 0.8509258
vn -0.3729384 0.369922 0.8509258
vn -0.3729384 0.369922 0.8509258
vn -0.3729383 0.369922 0.8509258
vn -0.3729362 -0.3699246 0.8509256
vn -0.3729362 -0.3699246 0.8509256
vn -0.3729362 -0.3699246 0.8509256
vn -0.3729362 -0.3699246 0.8509256
vn 0.3729239 -0.3699387 0.8509248
vn 0.3729239 -0.3699387 0.8509248
vn 0.3729239 -0.3699387 0.8509248
vn 0.372924 -0.3699388 0.8509248
vn 0 1 0
vn 0 1 0
vn 0 1 0
vn 0 1 0
vn 0 -1 0
vn 0 -1 0
vn 0 -1 0
vn 0 -1 0
vn 1 0 0
vn 1 0 0
vn 1 0 0
vn 1 0 0
vn -1 0 0
vn -1 0 0
vn -1 0 0
vn -1 0 0
vn -0.0008719474 -0.008779409 0.9999611
vn -0.0002988446 -0.009397133 0.9999558
vn 0.0002988707 -0.00939714 0.9999558
vn 0.0008718693 -0.008779592 0.9999611
vn 0.0008718686 0.008779621 0.9999611
vn 0.0002988677 0.009397171 0.9999558
vn -0.0002988416 0.009397166 0.9999558
vn -0.0008719466 0.00877944 0.9999611
vn 0 0.6601334 0.7511483
vn 0 0.6601334 0.7511483
vn 0 0.6601334 0.7511483
vn 0 0.6601334 0.7511483
vn -0.6198679 0 0.7847061
vn -0.6198679 0 0.7847062
vn -0.6198679 0 0.7847062
vn -0.619868 0 0.7847061
vn 0 -0.6601334 0.7511483
vn 0 -0.6601334 0.7511483
vn 0 -0.6601334 0.7511483
vn 0 -0.6601334 0.7511483
vn 0.6198668 0 0.784707
vn 0.6198668 0 0.7847071
vn 0.6198668 0 0.784707
vn 0.6198668 0 0.784707
g SM_Prop_Mirror_01_Mirror_0
f 7/7/7 16/16/16 15/15/15
f 15/15/15 8/8/8 7/7/7
f 15/15/15 12/12/12 8/8/8
f 12/12/12 4/4/4 8/8/8
f 12/12/12 11/11/11 4/4/4
f 11/11/11 3/3/3 4/4/4
f 27/27/27 30/30/30 29/29/29
f 29/29/29 28/28/28 27/27/27
f 29/29/29 32/32/32 28/28/28
f 32/32/32 26/26/26 28/28/28
f 32/32/32 31/31/31 26/26/26
f 31/31/31 25/25/25 26/26/26
f 24/24/24 23/23/23 1/1/1
f 2/2/2 24/24/24 1/1/1
f 17/17/17 24/24/24 2/2/2
f 9/9/9 17/17/17 2/2/2
f 18/18/18 17/17/17 9/9/9
f 10/10/10 18/18/18 9/9/9
f 35/35/35 34/34/34 33/33/33
f 36/36/36 35/35/35 33/33/33
f 6/6/6 22/22/22 5/5/5
f 22/22/22 21/21/21 5/5/5
f 5/5/5 21/21/21 14/14/14
f 21/21/21 20/20/20 14/14/14
f 14/14/14 20/20/20 13/13/13
f 20/20/20 19/19/19 13/13/13
f 39/39/39 38/38/38 37/37/37
f 40/40/40 39/39/39 37/37/37
f 43/43/43 42/42/42 41/41/41
f 44/44/44 43/43/43 41/41/41
f 47/47/47 46/46/46 45/45/45
f 48/48/48 47/47/47 45/45/45
f 51/51/51 50/50/50 49/49/49
f 52/52/52 51/51/51 49/49/49
f 55/55/55 54/54/54 53/53/53
f 56/56/56 55/55/55 53/53/53
f 59/59/59 58/58/58 57/57/57
f 60/60/60 59/59/59 57/57/57
f 63/63/63 62/62/62 61/61/61
f 64/64/64 63/63/63 61/61/61
f 67/67/67 66/66/66 65/65/65
f 68/68/68 67/67/67 65/65/65
f 71/71/71 70/70/70 69/69/69
f 72/72/72 71/71/71 69/69/69
f 75/75/75 74/74/74 73/73/73
f 76/76/76 75/75/75 73/73/73
f 79/79/79 78/78/78 77/77/77
f 80/80/80 79/79/79 77/77/77
f 83/83/83 82/82/82 81/81/81
f 84/84/84 83/83/83 81/81/81
f 87/87/87 86/86/86 85/85/85
f 88/88/88 87/87/87 85/85/85
f 91/91/91 90/90/90 89/89/89
f 92/92/92 91/91/91 89/89/89
f 95/95/95 94/94/94 93/93/93
f 96/96/96 95/95/95 93/93/93
f 99/99/99 98/98/98 97/97/97
f 100/100/100 99/99/99 97/97/97
f 103/103/103 102/102/102 101/101/101
f 104/104/104 103/103/103 101/101/101
