g SM_Prop_PoolBall_02
v 0 -0.03584449 -0.02604264
v 0 -0.04430618 0
v 0.01841484 -0.03584449 -0.01841469
v -0.01841484 -0.03584449 -0.01841469
v 0 -0.04430618 0
v 0 -0.03584449 -0.02604264
v -0.02604257 -0.03584449 0
v 0 -0.04430618 0
v -0.01841484 -0.03584449 -0.01841469
v -0.01841484 -0.03584449 0.01841499
v 0 -0.04430618 0
v -0.02604257 -0.03584449 0
v 0 -0.03584449 0.02604234
v 0 -0.04430618 0
v -0.01841484 -0.03584449 0.01841499
v 0.01841484 -0.03584449 0.01841499
v 0 -0.04430618 0
v 0 -0.03584449 0.02604234
v 0.02604249 -0.03584449 0
v 0 -0.04430618 0
v 0.01841484 -0.03584449 0.01841499
v 0.01841484 -0.03584449 -0.01841469
v 0 -0.04430618 0
v 0.02604249 -0.03584449 0
v 0.01841484 0.03584449 -0.01841469
v 0 0.04430622 0
v 0 0.03584449 -0.02604264
v 0 0.03584449 -0.02604264
v 0 0.04430622 0
v -0.01841484 0.03584449 -0.01841469
v -0.01841484 0.03584449 -0.01841469
v 0 0.04430622 0
v -0.02604257 0.03584449 0
v -0.02604257 0.03584449 0
v 0 0.04430622 0
v -0.01841484 0.03584449 0.01841499
v -0.01841484 0.03584449 0.01841499
v 0 0.04430622 0
v 0 0.03584449 0.02604234
v 0 0.03584449 0.02604234
v 0 0.04430622 0
v 0.01841484 0.03584449 0.01841499
v 0.01841484 0.03584449 0.01841499
v 0 0.04430622 0
v 0.02604249 0.03584449 0
v 0.02604249 0.03584449 0
v 0 0.04430622 0
v 0.01841484 0.03584449 -0.01841469
v 0.01841484 -0.03584449 -0.01841469
v 0.02979589 -0.01369137 -0.02979566
v 0 -0.01369137 -0.04213752
v 0 -0.03584449 -0.02604264
v 0 -0.03584449 -0.02604264
v 0 -0.01369137 -0.04213752
v -0.02979589 -0.01369137 -0.02979566
v -0.01841484 -0.03584449 -0.01841469
v -0.01841484 -0.03584449 -0.01841469
v -0.02979589 -0.01369137 -0.02979566
v -0.04213775 -0.01369137 0
v -0.02604257 -0.03584449 0
v -0.02604257 -0.03584449 0
v -0.04213775 -0.01369137 0
v -0.02979589 -0.01369137 0.02979597
v -0.01841484 -0.03584449 0.01841499
v -0.01841484 -0.03584449 0.01841499
v -0.02979589 -0.01369137 0.02979597
v 0 -0.01369137 0.04213782
v 0 -0.03584449 0.02604234
v 0 -0.03584449 0.02604234
v 0 -0.01369137 0.04213782
v 0.02979589 -0.01369137 0.02979597
v 0.01841484 -0.03584449 0.01841499
v 0.01841484 -0.03584449 0.01841499
v 0.02979589 -0.01369137 0.02979597
v 0.04213767 -0.01369137 0
v 0.02604249 -0.03584449 0
v 0.02604249 -0.03584449 0
v 0.04213767 -0.01369137 0
v 0.02979589 -0.01369137 -0.02979566
v 0.01841484 -0.03584449 -0.01841469
v 0.02979589 -0.01369137 -0.02979566
v 0.02979589 0.0136914 -0.02979566
v 0 0.0136914 -0.04213752
v 0 -0.01369137 -0.04213752
v 0 -0.01369137 -0.04213752
v 0 0.0136914 -0.04213752
v -0.02979589 0.0136914 -0.02979566
v -0.02979589 -0.01369137 -0.02979566
v -0.02979589 -0.01369137 -0.02979566
v -0.02979589 0.0136914 -0.02979566
v -0.04213775 0.0136914 0
v -0.04213775 -0.01369137 0
v -0.04213775 -0.01369137 0
v -0.04213775 0.0136914 0
v -0.02979589 0.0136914 0.02979597
v -0.02979589 -0.01369137 0.02979597
v -0.02979589 -0.01369137 0.02979597
v -0.02979589 0.0136914 0.02979597
v 0 0.0136914 0.04213782
v 0 -0.01369137 0.04213782
v 0 -0.01369137 0.04213782
v 0 0.0136914 0.04213782
v 0.02979589 0.0136914 0.02979597
v 0.02979589 -0.01369137 0.02979597
v 0.02979589 -0.01369137 0.02979597
v 0.02979589 0.0136914 0.02979597
v 0.04213767 0.0136914 0
v 0.04213767 -0.01369137 0
v 0.04213767 -0.01369137 0
v 0.04213767 0.0136914 0
v 0.02979589 0.0136914 -0.02979566
v 0.02979589 -0.01369137 -0.02979566
v 0.02979589 0.0136914 -0.02979566
v 0.01841484 0.03584449 -0.01841469
v 0 0.03584449 -0.02604264
v 0 0.0136914 -0.04213752
v 0 0.0136914 -0.04213752
v 0 0.03584449 -0.02604264
v -0.01841484 0.03584449 -0.01841469
v -0.02979589 0.0136914 -0.02979566
v -0.02979589 0.0136914 -0.02979566
v -0.01841484 0.03584449 -0.01841469
v -0.02604257 0.03584449 0
v -0.04213775 0.0136914 0
v -0.04213775 0.0136914 0
v -0.02604257 0.03584449 0
v -0.01841484 0.03584449 0.01841499
v -0.02979589 0.0136914 0.02979597
v -0.02979589 0.0136914 0.02979597
v -0.01841484 0.03584449 0.01841499
v 0 0.03584449 0.02604234
v 0 0.0136914 0.04213782
v 0 0.0136914 0.04213782
v 0 0.03584449 0.02604234
v 0.01841484 0.03584449 0.01841499
v 0.02979589 0.0136914 0.02979597
v 0.02979589 0.0136914 0.02979597
v 0.01841484 0.03584449 0.01841499
v 0.02604249 0.03584449 0
v 0.04213767 0.0136914 0
v 0.04213767 0.0136914 0
v 0.02604249 0.03584449 0
v 0.01841484 0.03584449 -0.01841469
v 0.02979589 0.0136914 -0.02979566
vt 0.4036191 0.4916275
vt 0.4035777 0.4917957
vt 0.4034151 0.4916407
vt 0.4038033 0.491657
vt 0.4035777 0.4917957
vt 0.4036191 0.4916275
vt 0.4038705 0.4917175
vt 0.4035777 0.4917957
vt 0.4038033 0.491657
vt 0.4037625 0.4917769
vt 0.4035777 0.4917957
vt 0.4038705 0.4917175
vt 0.4035294 0.4917945
vt 0.4035777 0.4917957
vt 0.4037625 0.4917769
vt 0.4033301 0.4917566
vt 0.4035777 0.4917957
vt 0.4035294 0.4917945
vt 0.4032919 0.4916919
vt 0.4035777 0.4917957
vt 0.4033301 0.4917566
vt 0.4034151 0.4916407
vt 0.4035777 0.4917957
vt 0.4032919 0.4916919
vt 0.4034088 0.4908796
vt 0.4035777 0.4907957
vt 0.4036207 0.4908763
vt 0.4036207 0.4908763
vt 0.4035777 0.4907957
vt 0.4038123 0.4908837
vt 0.4038123 0.4908837
vt 0.4035777 0.4907957
vt 0.4038828 0.4908989
vt 0.4038828 0.4908989
vt 0.4035777 0.4907957
vt 0.4037707 0.490914
vt 0.4037707 0.490914
vt 0.4035777 0.4907957
vt 0.4035272 0.4909184
vt 0.4035272 0.4909184
vt 0.4035777 0.4907957
vt 0.4033194 0.4909088
vt 0.4033194 0.4909088
vt 0.4035777 0.4907957
vt 0.4032803 0.4908925
vt 0.4032803 0.4908925
vt 0.4035777 0.4907957
vt 0.4034088 0.4908796
vt 0.1039272 0.1807103
vt 0.1038488 0.1804288
vt 0.1041924 0.1804165
vt 0.1041413 0.1807018
vt 0.1041413 0.1807018
vt 0.1041924 0.1804165
vt 0.104471 0.1805111
vt 0.1043115 0.1807668
vt 0.1043115 0.1807668
vt 0.104471 0.1805111
vt 0.1045302 0.180673
vt 0.1043408 0.1808737
vt 0.1043408 0.1808737
vt 0.1045302 0.180673
vt 0.1042974 0.1808122
vt 0.1041982 0.1809616
vt 0.1041982 0.1809616
vt 0.1042974 0.1808122
vt 0.1038982 0.1808287
vt 0.1039638 0.1809718
vt 0.1039638 0.1809718
vt 0.1038982 0.1808287
vt 0.10361 0.1807094
vt 0.1037902 0.180897
vt 0.1037902 0.180897
vt 0.10361 0.1807094
vt 0.1036062 0.1805433
vt 0.1037811 0.1807884
vt 0.1037811 0.1807884
vt 0.1036062 0.1805433
vt 0.1038488 0.1804288
vt 0.1039272 0.1807103
vt 0.1038488 0.1804288
vt 0.1038439 0.1801553
vt 0.1041955 0.1801443
vt 0.1041924 0.1804165
vt 0.1041924 0.1804165
vt 0.1041955 0.1801443
vt 0.1044811 0.1802303
vt 0.104471 0.1805111
vt 0.104471 0.1805111
vt 0.1044811 0.1802303
vt 0.1045425 0.1803778
vt 0.1045302 0.180673
vt 0.1045302 0.180673
vt 0.1045425 0.1803778
vt 0.104304 0.1805051
vt 0.1042974 0.1808122
vt 0.1042974 0.1808122
vt 0.104304 0.1805051
vt 0.1038939 0.1805203
vt 0.1038982 0.1808287
vt 0.1038982 0.1808287
vt 0.1038939 0.1805203
vt 0.1035983 0.1804111
vt 0.10361 0.1807094
vt 0.3977208 0.4925613
vt 0.3977582 0.4917529
vt 0.3967736 0.4917086
vt 0.3967581 0.4924994
vt 0.1036062 0.1805433
vt 0.1035951 0.1802595
vt 0.1038439 0.1801553
vt 0.1038488 0.1804288
vt 0.1038439 0.1801553
vt 0.1039189 0.1799784
vt 0.1041468 0.1799718
vt 0.1041955 0.1801443
vt 0.1041955 0.1801443
vt 0.1041468 0.1799718
vt 0.1043282 0.1800225
vt 0.1044811 0.1802303
vt 0.1044811 0.1802303
vt 0.1043282 0.1800225
vt 0.1043603 0.1801062
vt 0.1045425 0.1803778
vt 0.1045425 0.1803778
vt 0.1043603 0.1801062
vt 0.1042082 0.1801752
vt 0.104304 0.1805051
vt 0.104304 0.1805051
vt 0.1042082 0.1801752
vt 0.1039572 0.1801833
vt 0.1038939 0.1805203
vt 0.1038939 0.1805203
vt 0.1039572 0.1801833
vt 0.1037718 0.1801245
vt 0.1035983 0.1804111
vt 0.1035983 0.1804111
vt 0.1037718 0.1801245
vt 0.1037628 0.1800393
vt 0.1035951 0.1802595
vt 0.1035951 0.1802595
vt 0.1037628 0.1800393
vt 0.1039189 0.1799784
vt 0.1038439 0.1801553
vn 0.1269666 -0.9433605 -0.3065135
vn 0.1269666 -0.9433605 -0.3065135
vn 0.1269666 -0.9433605 -0.3065135
vn -0.1269666 -0.9433605 -0.3065135
vn -0.1269666 -0.9433605 -0.3065135
vn -0.1269666 -0.9433605 -0.3065135
vn -0.3065144 -0.9433605 -0.1269642
vn -0.3065144 -0.9433605 -0.1269642
vn -0.3065144 -0.9433605 -0.1269642
vn -0.3065144 -0.9433607 0.1269622
vn -0.3065144 -0.9433607 0.1269622
vn -0.3065144 -0.9433607 0.1269622
vn -0.126958 -0.9433604 0.3065171
vn -0.126958 -0.9433604 0.3065171
vn -0.126958 -0.9433604 0.3065171
vn 0.126958 -0.9433604 0.3065171
vn 0.126958 -0.9433604 0.3065171
vn 0.126958 -0.9433604 0.3065171
vn 0.3065153 -0.9433606 0.1269613
vn 0.3065153 -0.9433606 0.1269613
vn 0.3065153 -0.9433606 0.1269613
vn 0.3065152 -0.9433603 -0.1269633
vn 0.3065152 -0.9433603 -0.1269633
vn 0.3065152 -0.9433603 -0.1269633
vn 0.1269671 0.94336 -0.3065147
vn 0.1269671 0.94336 -0.3065147
vn 0.1269671 0.94336 -0.3065147
vn -0.1269671 0.94336 -0.3065147
vn -0.1269671 0.94336 -0.3065147
vn -0.1269671 0.94336 -0.3065147
vn -0.3065156 0.94336 -0.1269647
vn -0.3065156 0.94336 -0.1269647
vn -0.3065156 0.94336 -0.1269647
vn -0.3065157 0.9433602 0.1269627
vn -0.3065157 0.9433602 0.1269627
vn -0.3065157 0.9433603 0.1269627
vn -0.1269585 0.94336 0.3065183
vn -0.1269585 0.94336 0.3065183
vn -0.1269585 0.94336 0.3065183
vn 0.1269585 0.94336 0.3065183
vn 0.1269585 0.94336 0.3065183
vn 0.1269585 0.94336 0.3065183
vn 0.3065165 0.9433601 0.1269618
vn 0.3065165 0.9433601 0.1269618
vn 0.3065165 0.9433601 0.1269618
vn 0.3065164 0.9433599 -0.1269639
vn 0.3065165 0.9433599 -0.1269639
vn 0.3065164 0.9433599 -0.1269639
vn 0.3177446 -0.5573208 -0.7670932
vn 0.3177447 -0.5573208 -0.7670932
vn 0.3177446 -0.5573208 -0.7670932
vn 0.3177447 -0.5573208 -0.7670931
vn -0.3177447 -0.5573208 -0.7670932
vn -0.3177446 -0.5573207 -0.7670932
vn -0.3177447 -0.5573208 -0.7670932
vn -0.3177446 -0.5573207 -0.7670932
vn -0.7670909 -0.5573249 -0.3177426
vn -0.7670909 -0.5573249 -0.3177426
vn -0.767091 -0.5573249 -0.3177426
vn -0.767091 -0.5573249 -0.3177426
vn -0.7670925 -0.5573248 0.3177392
vn -0.7670925 -0.5573248 0.3177392
vn -0.7670925 -0.5573248 0.3177392
vn -0.7670925 -0.5573248 0.3177392
vn -0.3177345 -0.557328 0.767092
vn -0.3177345 -0.557328 0.7670921
vn -0.3177345 -0.557328 0.767092
vn -0.3177345 -0.557328 0.7670921
vn 0.3177345 -0.5573282 0.767092
vn 0.3177345 -0.5573281 0.767092
vn 0.3177345 -0.5573281 0.767092
vn 0.3177345 -0.5573281 0.767092
vn 0.7670932 -0.5573249 0.3177371
vn 0.7670932 -0.5573249 0.3177371
vn 0.7670932 -0.5573249 0.3177371
vn 0.7670933 -0.5573249 0.3177371
vn 0.7670919 -0.5573249 -0.3177406
vn 0.7670919 -0.5573249 -0.3177406
vn 0.7670919 -0.5573249 -0.3177406
vn 0.7670919 -0.5573249 -0.3177406
vn 0.3826832 0 -0.9238796
vn 0.3826832 0 -0.9238796
vn 0.3826832 0 -0.9238796
vn 0.3826832 0 -0.9238796
vn -0.3826832 0 -0.9238796
vn -0.3826832 0 -0.9238796
vn -0.3826832 0 -0.9238796
vn -0.3826832 0 -0.9238796
vn -0.9238786 0 -0.3826857
vn -0.9238786 0 -0.3826857
vn -0.9238786 0 -0.3826857
vn -0.9238786 0 -0.3826857
vn -0.92388 0 0.3826824
vn -0.92388 0 0.3826824
vn -0.92388 0 0.3826824
vn -0.92388 0 0.3826824
vn -0.3826832 0 0.9238796
vn -0.3826832 0 0.9238796
vn -0.3826832 0 0.9238796
vn -0.3826832 0 0.9238796
vn 0.3826832 0 0.9238796
vn 0.3826832 0 0.9238796
vn 0.3826832 0 0.9238796
vn 0.3826832 0 0.9238796
vn 0.9238808 0 0.3826804
vn 0.9238808 0 0.3826804
vn 0.9238808 0 0.3826804
vn 0.9238808 0 0.3826804
vn 0.9238794 0 -0.3826837
vn 0.9238794 0 -0.3826837
vn 0.9238794 0 -0.3826837
vn 0.9238794 0 -0.3826837
vn 0.3177445 0.5573215 -0.7670928
vn 0.3177445 0.5573215 -0.7670928
vn 0.3177445 0.5573214 -0.7670928
vn 0.3177445 0.5573215 -0.7670928
vn -0.3177445 0.5573214 -0.7670928
vn -0.3177445 0.5573214 -0.7670928
vn -0.3177445 0.5573214 -0.7670928
vn -0.3177445 0.5573214 -0.7670928
vn -0.7670905 0.5573255 -0.3177425
vn -0.7670906 0.5573255 -0.3177425
vn -0.7670906 0.5573255 -0.3177425
vn -0.7670905 0.5573255 -0.3177425
vn -0.767092 0.5573256 0.317739
vn -0.767092 0.5573255 0.317739
vn -0.767092 0.5573255 0.317739
vn -0.767092 0.5573255 0.317739
vn -0.3177343 0.5573288 0.7670916
vn -0.3177343 0.5573288 0.7670916
vn -0.3177343 0.5573288 0.7670917
vn -0.3177343 0.5573287 0.7670917
vn 0.3177343 0.5573288 0.7670917
vn 0.3177343 0.5573289 0.7670916
vn 0.3177343 0.5573289 0.7670916
vn 0.3177343 0.5573288 0.7670916
vn 0.7670928 0.5573257 0.317737
vn 0.7670928 0.5573257 0.317737
vn 0.7670928 0.5573257 0.317737
vn 0.7670928 0.5573257 0.317737
vn 0.7670914 0.5573256 -0.3177404
vn 0.7670914 0.5573256 -0.3177404
vn 0.7670914 0.5573256 -0.3177404
vn 0.7670914 0.5573256 -0.3177404
g SM_Prop_PoolBall_02_0
f 3/3/3 2/2/2 1/1/1
f 6/6/6 5/5/5 4/4/4
f 9/9/9 8/8/8 7/7/7
f 12/12/12 11/11/11 10/10/10
f 15/15/15 14/14/14 13/13/13
f 18/18/18 17/17/17 16/16/16
f 21/21/21 20/20/20 19/19/19
f 24/24/24 23/23/23 22/22/22
f 27/27/27 26/26/26 25/25/25
f 30/30/30 29/29/29 28/28/28
f 33/33/33 32/32/32 31/31/31
f 36/36/36 35/35/35 34/34/34
f 39/39/39 38/38/38 37/37/37
f 42/42/42 41/41/41 40/40/40
f 45/45/45 44/44/44 43/43/43
f 48/48/48 47/47/47 46/46/46
f 51/51/51 50/50/50 49/49/49
f 52/52/52 51/51/51 49/49/49
f 55/55/55 54/54/54 53/53/53
f 56/56/56 55/55/55 53/53/53
f 59/59/59 58/58/58 57/57/57
f 60/60/60 59/59/59 57/57/57
f 63/63/63 62/62/62 61/61/61
f 64/64/64 63/63/63 61/61/61
f 67/67/67 66/66/66 65/65/65
f 68/68/68 67/67/67 65/65/65
f 71/71/71 70/70/70 69/69/69
f 72/72/72 71/71/71 69/69/69
f 75/75/75 74/74/74 73/73/73
f 76/76/76 75/75/75 73/73/73
f 79/79/79 78/78/78 77/77/77
f 80/80/80 79/79/79 77/77/77
f 83/83/83 82/82/82 81/81/81
f 84/84/84 83/83/83 81/81/81
f 87/87/87 86/86/86 85/85/85
f 88/88/88 87/87/87 85/85/85
f 91/91/91 90/90/90 89/89/89
f 92/92/92 91/91/91 89/89/89
f 95/95/95 94/94/94 93/93/93
f 96/96/96 95/95/95 93/93/93
f 99/99/99 98/98/98 97/97/97
f 100/100/100 99/99/99 97/97/97
f 103/103/103 102/102/102 101/101/101
f 104/104/104 103/103/103 101/101/101
f 107/107/107 106/106/106 105/105/105
f 108/108/108 107/107/107 105/105/105
f 111/111/111 110/110/110 109/109/109
f 112/112/112 111/111/111 109/109/109
f 115/115/115 114/114/114 113/113/113
f 116/116/116 115/115/115 113/113/113
f 119/119/119 118/118/118 117/117/117
f 120/120/120 119/119/119 117/117/117
f 123/123/123 122/122/122 121/121/121
f 124/124/124 123/123/123 121/121/121
f 127/127/127 126/126/126 125/125/125
f 128/128/128 127/127/127 125/125/125
f 131/131/131 130/130/130 129/129/129
f 132/132/132 131/131/131 129/129/129
f 135/135/135 134/134/134 133/133/133
f 136/136/136 135/135/135 133/133/133
f 139/139/139 138/138/138 137/137/137
f 140/140/140 139/139/139 137/137/137
f 143/143/143 142/142/142 141/141/141
f 144/144/144 143/143/143 141/141/141
