g SM_Prop_Paper_05
v -0.09519167 -0.0581084 0.03872155
v -0.06289835 -0.1643666 0.02044625
v -0.1547616 -0.1162476 0.0306483
v 0.03476119 -0.09339806 0.1182003
v 0.05551486 -0.05023546 0.05907097
v 0.03616481 -0.1642279 0.02963349
v -0.1660626 -0.1162476 -0.09305712
v -0.1547616 -0.1162476 0.0306483
v -0.1133194 -0.1648395 -0.1157579
v -0.1547616 -0.1162476 0.0306483
v -0.06289835 -0.1643666 0.02044625
v -0.1133194 -0.1648395 -0.1157579
v 0.03616481 -0.1642279 0.02963349
v 0.1337581 -0.1256295 0.005525535
v 0.02632726 -0.1641609 -0.08988295
v 0.1337581 -0.1256295 0.005525535
v 0.1818238 -0.09205394 -0.05212597
v 0.02632726 -0.1641609 -0.08988295
v -0.1453114 -0.05808477 -0.1335399
v -0.1133194 -0.1648395 -0.1157579
v -0.09431425 -0.1161002 -0.1863588
v -0.09431425 -0.1161002 -0.1863588
v -0.1133194 -0.1648395 -0.1157579
v -0.02029184 -0.09283684 -0.160251
v -0.1133194 -0.1648395 -0.1157579
v 0.02632726 -0.1641609 -0.08988295
v -0.02029184 -0.09283684 -0.160251
v 0.02632726 -0.1641609 -0.08988295
v 0.1818238 -0.09205394 -0.05212597
v 0.03616346 -0.03449925 -0.1073855
v 0.03616481 -0.1642279 0.02963349
v 0.05551486 -0.05023546 0.05907097
v 0.1337581 -0.1256295 0.005525535
v 0.02632726 -0.1641609 -0.08988295
v 0.03616346 -0.03449925 -0.1073855
v -0.02029184 -0.09283684 -0.160251
v -0.1660626 -0.1162476 -0.09305712
v -0.1133194 -0.1648395 -0.1157579
v -0.1453114 -0.05808477 -0.1335399
v -0.09519167 -0.0581084 0.03872155
v -0.04440141 -0.08329599 0.1283171
v -0.06289835 -0.1643666 0.02044625
v -0.08126993 -0.05579551 0.02166892
v -0.1442444 -0.1057241 0.01841583
v -0.05393191 -0.144887 0.009224363
v 0.02340865 -0.08345913 0.1052577
v 0.0257297 -0.144887 0.01950918
v 0.03908305 -0.04716551 0.04388582
v -0.05393191 -0.144887 0.009224363
v -0.1442444 -0.1057241 0.01841583
v -0.1031017 -0.144887 -0.1066367
v -0.1442444 -0.1057241 0.01841583
v -0.1555455 -0.1057241 -0.08202454
v -0.1031017 -0.144887 -0.1066367
v 0.0257297 -0.144887 0.01950918
v 0.01577199 -0.144887 -0.07975055
v 0.1195217 -0.1158885 -0.006477321
v 0.01577199 -0.144887 -0.07975055
v 0.1693956 -0.08345913 -0.04179502
v 0.1195217 -0.1158885 -0.006477321
v -0.1304245 -0.05579551 -0.1190812
v -0.0816323 -0.1057241 -0.1755022
v -0.1031017 -0.144887 -0.1066367
v 0.01577199 -0.144887 -0.07975055
v -0.1031017 -0.144887 -0.1066367
v -0.03083567 -0.08345913 -0.1486086
v -0.1031017 -0.144887 -0.1066367
v -0.0816323 -0.1057241 -0.1755022
v -0.03083567 -0.08345913 -0.1486086
v 0.01577199 -0.144887 -0.07975055
v 0.0211736 -0.03353055 -0.09219507
v 0.1693956 -0.08345913 -0.04179502
v 0.0257297 -0.144887 0.01950918
v 0.1195217 -0.1158885 -0.006477321
v 0.03908305 -0.04716551 0.04388582
v 0.01577199 -0.144887 -0.07975055
v -0.03083567 -0.08345913 -0.1486086
v 0.0211736 -0.03353055 -0.09219507
v -0.1555455 -0.1057241 -0.08202454
v -0.1304245 -0.05579551 -0.1190812
v -0.1031017 -0.144887 -0.1066367
v -0.08126993 -0.05579551 0.02166892
v -0.05393191 -0.144887 0.009224363
v -0.03384423 -0.0732901 0.1143841
v -0.1442444 -0.1057241 0.01841583
v -0.08126993 -0.05579551 0.02166892
v -0.09519167 -0.0581084 0.03872155
v -0.03384423 -0.0732901 0.1143841
v 0.02340865 -0.08345913 0.1052577
v -0.04440141 -0.08329599 0.1283171
v 0.02340865 -0.08345913 0.1052577
v 0.03476119 -0.09339806 0.1182003
v -0.04440141 -0.08329599 0.1283171
v 0.03476119 -0.09339806 0.1182003
v 0.02340865 -0.08345913 0.1052577
v 0.05551486 -0.05023546 0.05907097
v 0.02340865 -0.08345913 0.1052577
v 0.03908305 -0.04716551 0.04388582
v 0.05551486 -0.05023546 0.05907097
v -0.1660626 -0.1162476 -0.09305712
v -0.1555455 -0.1057241 -0.08202454
v -0.1547616 -0.1162476 0.0306483
v 0.1195217 -0.1158885 -0.006477321
v 0.1693956 -0.08345913 -0.04179502
v 0.1337581 -0.1256295 0.005525535
v 0.1693956 -0.08345913 -0.04179502
v 0.1818238 -0.09205394 -0.05212597
v 0.1337581 -0.1256295 0.005525535
v -0.0816323 -0.1057241 -0.1755022
v -0.1304245 -0.05579551 -0.1190812
v -0.1453114 -0.05808477 -0.1335399
v -0.03083567 -0.08345913 -0.1486086
v -0.0816323 -0.1057241 -0.1755022
v -0.02029184 -0.09283684 -0.160251
v 0.1818238 -0.09205394 -0.05212597
v 0.1693956 -0.08345913 -0.04179502
v 0.03616346 -0.03449925 -0.1073855
v 0.1693956 -0.08345913 -0.04179502
v 0.0211736 -0.03353055 -0.09219507
v 0.03616346 -0.03449925 -0.1073855
v 0.03908305 -0.04716551 0.04388582
v 0.1195217 -0.1158885 -0.006477321
v 0.05551486 -0.05023546 0.05907097
v 0.1195217 -0.1158885 -0.006477321
v 0.1337581 -0.1256295 0.005525535
v 0.05551486 -0.05023546 0.05907097
v 0.0211736 -0.03353055 -0.09219507
v -0.03083567 -0.08345913 -0.1486086
v 0.03616346 -0.03449925 -0.1073855
v -0.03083567 -0.08345913 -0.1486086
v -0.02029184 -0.09283684 -0.160251
v 0.03616346 -0.03449925 -0.1073855
v -0.1304245 -0.05579551 -0.1190812
v -0.1555455 -0.1057241 -0.08202454
v -0.1453114 -0.05808477 -0.1335399
v -0.1555455 -0.1057241 -0.08202454
v -0.1660626 -0.1162476 -0.09305712
v -0.1453114 -0.05808477 -0.1335399
v -0.08126993 -0.05579551 0.02166892
v -0.03384423 -0.0732901 0.1143841
v -0.09519167 -0.0581084 0.03872155
v -0.03384423 -0.0732901 0.1143841
v -0.04440141 -0.08329599 0.1283171
v -0.09519167 -0.0581084 0.03872155
v -0.06289835 -0.1643666 0.02044625
v -0.04440141 -0.08329599 0.1283171
v 0.03616481 -0.1642279 0.02963349
v 0.03476119 -0.09339806 0.1182003
v -0.1133194 -0.1648395 -0.1157579
v -0.06289835 -0.1643666 0.02044625
v 0.02632726 -0.1641609 -0.08988295
v 0.03616481 -0.1642279 0.02963349
v 0.02340865 -0.08345913 0.1052577
v -0.03384423 -0.0732901 0.1143841
v 0.0257297 -0.144887 0.01950918
v -0.05393191 -0.144887 0.009224363
v 0.0257297 -0.144887 0.01950918
v -0.05393191 -0.144887 0.009224363
v 0.01577199 -0.144887 -0.07975055
v -0.1031017 -0.144887 -0.1066367
v -0.1547616 -0.1162476 0.0306483
v -0.1442444 -0.1057241 0.01841583
v -0.09519167 -0.0581084 0.03872155
v -0.1555455 -0.1057241 -0.08202454
v -0.09431425 -0.1161002 -0.1863588
v -0.0816323 -0.1057241 -0.1755022
v -0.1453114 -0.05808477 -0.1335399
v -0.02029184 -0.09283684 -0.160251
vt 0.1331172 0.3534354
vt 0.1331172 0.3534354
vt 0.1331172 0.3534354
vt 0.1331171 0.3534354
vt 0.1331172 0.3534354
vt 0.1331171 0.3534354
vt 0.1331172 0.3534353
vt 0.1331172 0.3534354
vt 0.1331172 0.3534353
vt 0.1331172 0.3534354
vt 0.1331172 0.3534354
vt 0.1331172 0.3534353
vt 0.1331171 0.3534354
vt 0.1331172 0.3534354
vt 0.1331171 0.3534353
vt 0.1331172 0.3534354
vt 0.1331172 0.3534353
vt 0.1331171 0.3534353
vt 0.1331172 0.3534353
vt 0.1331172 0.3534353
vt 0.1331172 0.3534353
vt 0.1331172 0.3534353
vt 0.1331172 0.3534353
vt 0.1331171 0.3534353
vt 0.1331172 0.3534353
vt 0.1331171 0.3534353
vt 0.1331171 0.3534353
vt 0.1331171 0.3534353
vt 0.1331172 0.3534353
vt 0.1331172 0.3534353
vt 0.1331171 0.3534354
vt 0.1331172 0.3534354
vt 0.1331172 0.3534354
vt 0.1331171 0.3534353
vt 0.1331172 0.3534353
vt 0.1331171 0.3534353
vt 0.1331172 0.3534353
vt 0.1331172 0.3534353
vt 0.1331172 0.3534353
vt 0.1331172 0.3534354
vt 0.1331172 0.3534354
vt 0.1331172 0.3534354
vt 0.1331172 0.3534354
vt 0.1331172 0.3534354
vt 0.1331172 0.3534354
vt 0.1331171 0.3534354
vt 0.1331171 0.3534354
vt 0.1331172 0.3534354
vt 0.1331172 0.3534354
vt 0.1331172 0.3534354
vt 0.1331172 0.3534353
vt 0.1331172 0.3534354
vt 0.1331172 0.3534353
vt 0.1331172 0.3534353
vt 0.1331171 0.3534354
vt 0.1331171 0.3534353
vt 0.1331172 0.3534354
vt 0.1331171 0.3534353
vt 0.1331172 0.3534353
vt 0.1331172 0.3534354
vt 0.1331172 0.3534353
vt 0.1331172 0.3534353
vt 0.1331172 0.3534353
vt 0.1331171 0.3534353
vt 0.1331172 0.3534353
vt 0.1331171 0.3534353
vt 0.1331172 0.3534353
vt 0.1331172 0.3534353
vt 0.1331171 0.3534353
vt 0.1331171 0.3534353
vt 0.1331172 0.3534353
vt 0.1331172 0.3534353
vt 0.1331171 0.3534354
vt 0.1331172 0.3534354
vt 0.1331172 0.3534354
vt 0.1331171 0.3534353
vt 0.1331171 0.3534353
vt 0.1331172 0.3534353
vt 0.1331172 0.3534353
vt 0.1331172 0.3534353
vt 0.1331172 0.3534353
vt 0.1331172 0.3534354
vt 0.1331172 0.3534354
vt 0.1331172 0.3534354
vt 0.1331172 0.3534354
vt 0.1331172 0.3534354
vt 0.1331172 0.3534354
vt 0.1331172 0.3534354
vt 0.1331171 0.3534354
vt 0.1331172 0.3534354
vt 0.1331171 0.3534354
vt 0.1331171 0.3534354
vt 0.1331172 0.3534354
vt 0.1331171 0.3534354
vt 0.1331171 0.3534354
vt 0.1331172 0.3534354
vt 0.1331171 0.3534354
vt 0.1331172 0.3534354
vt 0.1331172 0.3534354
vt 0.1331172 0.3534353
vt 0.1331172 0.3534353
vt 0.1331172 0.3534354
vt 0.1331172 0.3534354
vt 0.1331172 0.3534353
vt 0.1331172 0.3534354
vt 0.1331172 0.3534353
vt 0.1331172 0.3534353
vt 0.1331172 0.3534354
vt 0.1331172 0.3534353
vt 0.1331172 0.3534353
vt 0.1331172 0.3534353
vt 0.1331171 0.3534353
vt 0.1331172 0.3534353
vt 0.1331171 0.3534353
vt 0.1331172 0.3534353
vt 0.1331172 0.3534353
vt 0.1331172 0.3534353
vt 0.1331172 0.3534353
vt 0.1331172 0.3534353
vt 0.1331172 0.3534353
vt 0.1331172 0.3534354
vt 0.1331172 0.3534354
vt 0.1331172 0.3534354
vt 0.1331172 0.3534354
vt 0.1331172 0.3534354
vt 0.1331172 0.3534354
vt 0.1331172 0.3534353
vt 0.1331171 0.3534353
vt 0.1331172 0.3534353
vt 0.1331171 0.3534353
vt 0.1331171 0.3534353
vt 0.1331172 0.3534353
vt 0.1331172 0.3534353
vt 0.1331172 0.3534353
vt 0.1331172 0.3534353
vt 0.1331172 0.3534353
vt 0.1331172 0.3534353
vt 0.1331172 0.3534353
vt 0.1331172 0.3534354
vt 0.1331172 0.3534354
vt 0.1331172 0.3534354
vt 0.1331172 0.3534354
vt 0.1331172 0.3534354
vt 0.1331172 0.3534354
vt 0.1331172 0.3534354
vt 0.1331172 0.3534354
vt 0.1331171 0.3534354
vt 0.1331171 0.3534354
vt 0.1331172 0.3534353
vt 0.1331172 0.3534354
vt 0.1331171 0.3534353
vt 0.1331171 0.3534354
vt 0.1331171 0.3534354
vt 0.1331172 0.3534354
vt 0.1331171 0.3534354
vt 0.1331172 0.3534354
vt 0.1331171 0.3534354
vt 0.1331172 0.3534354
vt 0.1331171 0.3534353
vt 0.1331172 0.3534353
vt 0.1331172 0.3534354
vt 0.1331172 0.3534354
vt 0.1331172 0.3534354
vt 0.1331172 0.3534353
vt 0.1331172 0.3534353
vt 0.1331172 0.3534353
vt 0.1331172 0.3534353
vt 0.1331171 0.3534353
vn 0.02459879 -0.1621839 0.9864538
vn 0.02459879 -0.1621839 0.9864538
vn 0.02459879 -0.1621839 0.9864538
vn 0.9602505 -0.2103795 0.1834656
vn 0.9602505 -0.2103795 0.1834656
vn 0.9602505 -0.2103795 0.1834656
vn -0.6621245 -0.7469487 0.06048802
vn -0.6621245 -0.7469487 0.06048802
vn -0.6621245 -0.7469487 0.06048802
vn -0.4428746 -0.8808924 0.1670052
vn -0.4428746 -0.8808924 0.1670052
vn -0.4428746 -0.8808924 0.1670052
vn 0.361144 -0.9320194 -0.0302482
vn 0.361144 -0.9320194 -0.0302482
vn 0.361144 -0.9320194 -0.0302482
vn 0.4448572 -0.8839624 -0.1439182
vn 0.4448572 -0.8839624 -0.1439182
vn 0.4448572 -0.8839624 -0.1439182
vn -0.8330709 -0.3242973 -0.448134
vn -0.8330709 -0.3242973 -0.448134
vn -0.8330709 -0.3242973 -0.448134
vn 0.4071221 -0.7992221 -0.4421491
vn 0.4071221 -0.7992221 -0.4421491
vn 0.4071221 -0.7992221 -0.4421491
vn 0.1420129 -0.6466131 -0.7494824
vn 0.1420129 -0.6466131 -0.7494824
vn 0.1420129 -0.6466131 -0.7494824
vn 0.2983793 -0.1498741 -0.9426069
vn 0.2983793 -0.1498741 -0.9426069
vn 0.2983793 -0.1498741 -0.9426069
vn 0.3356293 -0.2885409 0.8967146
vn 0.3356293 -0.2885409 0.8967146
vn 0.3356293 -0.2885409 0.8967146
vn 0.7515564 -0.1439147 -0.6437791
vn 0.7515564 -0.1439147 -0.6437791
vn 0.7515564 -0.1439147 -0.6437791
vn -0.5983084 -0.3028637 -0.7418225
vn -0.5983084 -0.3028637 -0.7418225
vn -0.5983084 -0.3028637 -0.7418225
vn -0.8582778 -0.3286332 0.3941566
vn -0.8582778 -0.3286332 0.3941566
vn -0.8582778 -0.3286332 0.3941566
vn -0.04710626 0.123994 -0.9911642
vn -0.04710626 0.123994 -0.9911642
vn -0.04710626 0.123994 -0.9911642
vn -0.9742158 0.1700982 -0.1482238
vn -0.9742158 0.1700982 -0.1482238
vn -0.9742158 0.1700982 -0.1482238
vn 0.3788483 0.911386 -0.160778
vn 0.3788483 0.911386 -0.160778
vn 0.3788483 0.911386 -0.160778
vn 0.5773239 0.8139273 -0.06495755
vn 0.5773239 0.8139273 -0.06495755
vn 0.5773239 0.8139273 -0.06495755
vn -0.2879456 0.957211 0.02888664
vn -0.2879456 0.957211 0.02888664
vn -0.2879456 0.957211 0.02888664
vn -0.409937 0.8823096 0.2312605
vn -0.409937 0.8823096 0.2312605
vn -0.409937 0.8823096 0.2312605
vn 0.8381053 0.3188577 0.4426166
vn 0.8381053 0.3188577 0.4426166
vn 0.8381053 0.3188577 0.4426166
vn -0.1618659 0.6794227 0.7156705
vn -0.1618659 0.6794227 0.7156705
vn -0.1618659 0.6794227 0.7156705
vn -0.5113643 0.8057469 0.2987952
vn -0.5113643 0.8057469 0.2987952
vn -0.5113643 0.8057469 0.2987952
vn -0.2831077 0.1200715 0.9515424
vn -0.2831077 0.1200715 0.9515424
vn -0.2831077 0.1200715 0.9515424
vn -0.3338911 0.2708445 -0.9028622
vn -0.3338911 0.2708445 -0.9028622
vn -0.3338911 0.2708445 -0.9028622
vn -0.7764244 0.1070671 0.621049
vn -0.7764244 0.1070671 0.621049
vn -0.7764244 0.1070671 0.621049
vn 0.5725046 0.2830611 0.7694899
vn 0.5725046 0.2830611 0.7694899
vn 0.5725046 0.2830611 0.7694899
vn 0.8667204 0.3194638 -0.3830647
vn 0.8667204 0.3194638 -0.3830647
vn 0.8667204 0.3194638 -0.3830647
vn -0.5673296 0.7392136 -0.3629054
vn -0.5673296 0.7392136 -0.3629054
vn -0.5673296 0.7392136 -0.3629054
vn 0.2319747 0.6982566 0.6772189
vn 0.2319747 0.6982566 0.6772189
vn 0.2319747 0.6982566 0.6772189
vn 0.1722314 0.8484485 0.5004715
vn 0.1722314 0.8484485 0.5004715
vn 0.1722314 0.8484485 0.5004715
vn 0.02482406 0.8032804 0.5950834
vn 0.02482406 0.8032804 0.5950834
vn 0.02482406 0.8032804 0.5950834
vn -0.2502612 0.8600194 0.444675
vn -0.2502612 0.8600194 0.444675
vn -0.2502612 0.8600194 0.444675
vn -0.7402599 0.668911 0.06762604
vn -0.7402599 0.668911 0.06762604
vn -0.7204012 0.6923668 0.04062358
vn -0.03110711 0.7577264 0.6518306
vn -0.03110711 0.7577264 0.6518306
vn -0.03110711 0.7577264 0.6518306
vn 0.700147 0.1828099 0.6901991
vn 0.700147 0.1828099 0.6901991
vn 0.700147 0.1828099 0.6901991
vn 0.3181723 0.8295447 -0.4589356
vn 0.3181723 0.8295447 -0.4589356
vn 0.3181723 0.8295447 -0.4589356
vn 0 0.7760223 -0.6307055
vn 0 0.7760223 -0.6307055
vn 0 0.7760223 -0.6307055
vn 0.4283321 0.8776942 -0.2149061
vn 0.4283321 0.8776942 -0.2149061
vn 0.4283321 0.8776942 -0.2149061
vn 0.2545176 0.9480796 0.1906977
vn 0.2545176 0.9480796 0.1906977
vn 0.2545176 0.9480796 0.1906977
vn 0.4731566 0.809153 -0.3484167
vn 0.4731566 0.809153 -0.3484167
vn 0.4731566 0.809153 -0.3484167
vn 0.636265 0.7588828 -0.1387935
vn 0.636265 0.7588828 -0.1387935
vn 0.636265 0.7588828 -0.1387935
vn -0.3606169 0.8381092 -0.4093024
vn -0.3606169 0.8381092 -0.4093024
vn -0.3606169 0.8381092 -0.4093024
vn -0.1092511 0.723456 -0.6816711
vn -0.1092511 0.723456 -0.6816711
vn -0.1092511 0.723456 -0.6816711
vn -0.5765199 0.6537987 0.4900736
vn -0.5765199 0.6537987 0.4900736
vn -0.5765199 0.6537987 0.4900736
vn -0.8133299 0.4987211 0.2996193
vn -0.8133299 0.4987211 0.2996193
vn -0.8133299 0.4987211 0.2996193
vn 0.03937234 0.9853745 0.1657923
vn 0.03937234 0.9853745 0.1657923
vn 0.03937234 0.9853745 0.1657923
vn -0.2862955 0.8677559 0.4062445
vn -0.2862955 0.8677559 0.4062445
vn -0.2862955 0.8677559 0.4062445
vn -0.05508042 -0.7936314 0.6059005
vn -0.03748961 -0.7874714 0.6152099
vn -0.03748961 -0.7874714 0.6152099
vn -0.01988253 -0.7809697 0.6242523
vn 0.004526575 -0.9999882 0.001796515
vn 0.002995132 -0.9999951 0.0008982591
vn 0.002995132 -0.9999951 0.0008982591
vn 0.00146368 -0.9999989 0
vn 0.05175358 0.8125037 -0.5806543
vn 0.06273071 0.8151889 -0.575788
vn 0.06273071 0.8151889 -0.575788
vn 0.07369836 0.8177509 -0.5708345
vn 0 1 0
vn 0 1 0
vn 0 1 0
vn 0 1 0
vn -0.7011281 0.7111428 0.05191707
vn -0.6806098 0.7313244 0.04398708
vn -0.6993367 0.7146639 0.01355313
vn -0.6608248 0.7468483 0.07435265
vn 0.03692509 0.7005308 -0.7126662
vn 0.03692509 0.7005308 -0.7126662
vn 0.04642697 0.6944956 -0.7179975
vn 0.02741746 0.7064574 -0.7072243
g SM_Prop_Paper_05_0
f 3/3/3 2/2/2 1/1/1
f 6/6/6 5/5/5 4/4/4
f 9/9/9 8/8/8 7/7/7
f 12/12/12 11/11/11 10/10/10
f 15/15/15 14/14/14 13/13/13
f 18/18/18 17/17/17 16/16/16
f 21/21/21 20/20/20 19/19/19
f 24/24/24 23/23/23 22/22/22
f 27/27/27 26/26/26 25/25/25
f 30/30/30 29/29/29 28/28/28
f 33/33/33 32/32/32 31/31/31
f 36/36/36 35/35/35 34/34/34
f 39/39/39 38/38/38 37/37/37
f 42/42/42 41/41/41 40/40/40
f 45/45/45 44/44/44 43/43/43
f 48/48/48 47/47/47 46/46/46
f 51/51/51 50/50/50 49/49/49
f 54/54/54 53/53/53 52/52/52
f 57/57/57 56/56/56 55/55/55
f 60/60/60 59/59/59 58/58/58
f 63/63/63 62/62/62 61/61/61
f 66/66/66 65/65/65 64/64/64
f 69/69/69 68/68/68 67/67/67
f 72/72/72 71/71/71 70/70/70
f 75/75/75 74/74/74 73/73/73
f 78/78/78 77/77/77 76/76/76
f 81/81/81 80/80/80 79/79/79
f 84/84/84 83/83/83 82/82/82
f 87/87/87 86/86/86 85/85/85
f 90/90/90 89/89/89 88/88/88
f 93/93/93 92/92/92 91/91/91
f 96/96/96 95/95/95 94/94/94
f 99/99/99 98/98/98 97/97/97
f 102/102/102 101/101/101 100/100/100
f 105/105/105 104/104/104 103/103/103
f 108/108/108 107/107/107 106/106/106
f 111/111/111 110/110/110 109/109/109
f 114/114/114 113/113/113 112/112/112
f 117/117/117 116/116/116 115/115/115
f 120/120/120 119/119/119 118/118/118
f 123/123/123 122/122/122 121/121/121
f 126/126/126 125/125/125 124/124/124
f 129/129/129 128/128/128 127/127/127
f 132/132/132 131/131/131 130/130/130
f 135/135/135 134/134/134 133/133/133
f 138/138/138 137/137/137 136/136/136
f 141/141/141 140/140/140 139/139/139
f 144/144/144 143/143/143 142/142/142
f 147/147/147 146/146/146 145/145/145
f 147/147/147 148/148/148 146/146/146
f 151/151/151 150/150/150 149/149/149
f 151/151/151 152/152/152 150/150/150
f 155/155/155 154/154/154 153/153/153
f 155/155/155 156/156/156 154/154/154
f 159/159/159 158/158/158 157/157/157
f 159/159/159 160/160/160 158/158/158
f 163/163/163 162/162/162 161/161/161
f 161/161/161 162/162/162 164/164/164
f 167/167/167 166/166/166 165/165/165
f 168/168/168 165/165/165 166/166/166
