g SM_Prop_Art_08
v 0.04841614 -1.373291E-05 -0.0001135254
v 0.04743835 0.1413144 2.197266E-05
v 0.1701556 0.08126068 2.197266E-05
v 0.1685699 -1.373291E-05 2.197266E-05
v -0.1580243 0.1760159 2.197266E-05
v -0.2499896 0.3916232 2.197266E-05
v -0.1557562 0.3924441 2.197266E-05
v -0.2499884 -1.373291E-05 2.197266E-05
v -0.1610712 -1.373291E-05 2.197266E-05
v 0.2500116 0.2553952 2.197266E-05
v 0.2500116 -1.373291E-05 2.197266E-05
v 0.2051373 -1.373291E-05 2.197266E-05
v 0.2043854 0.255033 2.197266E-05
v 0.2500116 0.5666189 2.197266E-05
v 0.1644098 0.2952872 2.197266E-05
v 0.1731512 0.2547846 2.197266E-05
v 0.1378326 0.322923 2.197266E-05
v 0.1390326 0.295065 2.197266E-05
v 0.1229987 0.5326196 2.197266E-05
v 0.123078 0.3227234 2.197266E-05
v 0.05684998 0.2538608 2.197266E-05
v 0.06468933 0.294415 2.197266E-05
v 0.09371887 0.2946689 2.197266E-05
v 0.1731512 0.2547846 2.197266E-05
v 0.04743835 0.1413144 2.197266E-05
v 0.0230426 0.2535925 2.197266E-05
v 0.02313049 0.1335675 2.197266E-05
v 0.1701556 0.08126068 2.197266E-05
v 0.2043854 0.255033 2.197266E-05
v 0.2051373 -1.373291E-05 2.197266E-05
v 0.1685699 -1.373291E-05 2.197266E-05
v 0.1390326 0.295065 2.197266E-05
v 0.1644098 0.2952872 2.197266E-05
v 0.1378326 0.322923 2.197266E-05
v 0.123078 0.3227234 2.197266E-05
v 0.1104095 0.3225519 2.197266E-05
v 0.09426574 0.322334 2.197266E-05
v 0.09426574 0.322334 2.197266E-05
v 0.09371887 0.2946689 2.197266E-05
v 0.06468933 0.294415 2.197266E-05
v -0.06676818 0.4583353 2.197266E-05
v 0.08150817 0.4595022 2.197266E-05
v 0.1104095 0.3225519 2.197266E-05
v 0.1089435 0.459718 2.197266E-05
v 0.0230426 0.2535925 2.197266E-05
v 0.05684998 0.2538608 2.197266E-05
v 0.002191772 0.1796234 2.197266E-05
v 0.001900024 0.1268005 2.197266E-05
v 0.02313049 0.1335675 2.197266E-05
v -0.09259827 0.177489 2.197266E-05
v -0.08912781 0.4581589 2.197266E-05
v -0.04209656 0.5130096 2.197266E-05
v -0.06612366 0.5129477 2.197266E-05
v 0.0625653 0.5132788 2.197266E-05
v 0.0819635 0.5133286 2.197266E-05
v -0.02319397 0.5503916 2.197266E-05
v -0.03805359 0.5505014 2.197266E-05
v 0.04478943 0.5498908 2.197266E-05
v 0.06077087 0.5497732 2.197266E-05
v 0.003649292 0.5621567 2.197266E-05
v -0.0203302 0.5624173 2.197266E-05
v 0.01963684 0.561983 2.197266E-05
v 0.04191833 0.5617413 2.197266E-05
v 0.007640991 0.6077994 2.197266E-05
v 0.01733948 0.6072113 2.197266E-05
v -0.09259827 0.177489 2.197266E-05
v -0.1580243 0.1760159 2.197266E-05
v -0.1557562 0.3924441 2.197266E-05
v -0.08912781 0.4581589 2.197266E-05
v -0.06612366 0.5129477 2.197266E-05
v -0.06676818 0.4583353 2.197266E-05
v -0.2499884 0.6268695 2.197266E-05
v -0.2499896 0.3916232 2.197266E-05
v -0.03805359 0.5505014 2.197266E-05
v -0.04209656 0.5130096 2.197266E-05
v 0.01305603 0.6268695 2.197266E-05
v 0.007640991 0.6077994 2.197266E-05
v -0.0203302 0.5624173 2.197266E-05
v -0.02319397 0.5503916 2.197266E-05
v 0.003649292 0.5621567 2.197266E-05
v 0.01733948 0.6072113 2.197266E-05
v 0.2500116 0.6268695 2.197266E-05
v 0.04191833 0.5617413 2.197266E-05
v 0.01963684 0.561983 2.197266E-05
v 0.06077087 0.5497732 2.197266E-05
v 0.04478943 0.5498908 2.197266E-05
v 0.1229987 0.5326196 2.197266E-05
v 0.2500116 0.5666189 2.197266E-05
v 0.0819635 0.5133286 2.197266E-05
v 0.0625653 0.5132788 2.197266E-05
v 0.1089435 0.459718 2.197266E-05
v 0.08150817 0.4595022 2.197266E-05
v 0.1104095 0.3225519 2.197266E-05
v 0.123078 0.3227234 2.197266E-05
v -0.1119928 0.09050049 2.197266E-05
v -0.115556 -1.373291E-05 2.197266E-05
v -0.1610712 -1.373291E-05 2.197266E-05
v -0.1580243 0.1760159 2.197266E-05
v 0.001900024 0.1268005 2.197266E-05
v -0.09259827 0.177489 2.197266E-05
v 0.002191772 0.1796234 2.197266E-05
v 0.04841614 -1.373291E-05 -0.0001135254
v -0.115556 -1.373291E-05 2.197266E-05
v -0.1119928 0.09050049 2.197266E-05
v 0.001900024 0.1268005 2.197266E-05
v 0.02313049 0.1335675 2.197266E-05
v 0.04743835 0.1413144 2.197266E-05
v 0.01305603 0.6268695 2.197266E-05
v 0.2500116 0.6268695 -0.04596924
v 0.2500116 0.6268695 2.197266E-05
v -0.2499884 0.6268695 -0.04596924
v -0.2499884 0.6268695 2.197266E-05
v 0.2500116 -1.373291E-05 2.197266E-05
v 0.2500116 -1.373291E-05 -0.04596924
v 0.2051373 -1.373291E-05 2.197266E-05
v 0.1685699 -1.373291E-05 2.197266E-05
v 0.04841614 -1.373291E-05 -0.0001135254
v -0.2499884 -1.373291E-05 -0.04596924
v -0.115556 -1.373291E-05 2.197266E-05
v -0.1610712 -1.373291E-05 2.197266E-05
v -0.2499884 -1.373291E-05 2.197266E-05
v 0.2500116 0.6268695 2.197266E-05
v 0.2500116 0.6268695 -0.04596924
v 0.2500116 0.5666189 2.197266E-05
v 0.2500116 -1.373291E-05 -0.04596924
v 0.2500116 0.2553952 2.197266E-05
v 0.2500116 -1.373291E-05 2.197266E-05
v -0.2499896 0.3916232 2.197266E-05
v -0.2499884 0.6268695 -0.04596924
v -0.2499884 0.6268695 2.197266E-05
v -0.2499884 -1.373291E-05 2.197266E-05
v -0.2499884 -1.373291E-05 -0.04596924
v -0.2499884 0.6268695 -0.04596924
v 0.2500116 -1.373291E-05 -0.04596924
v 0.2500116 0.6268695 -0.04596924
v -0.2499884 -1.373291E-05 -0.04596924
vt 0.3395996 0.472168
vt 0.3395996 0.472168
vt 0.3395996 0.472168
vt 0.3395996 0.472168
vt 0.2988281 0.4812012
vt 0.2988281 0.4812012
vt 0.2988281 0.4812012
vt 0.2988281 0.4812012
vt 0.2988281 0.4812012
vt 0.145874 0.4477539
vt 0.145874 0.4477539
vt 0.145874 0.4477539
vt 0.145874 0.4477539
vt 0.145874 0.4477539
vt 0.145874 0.4477539
vt 0.145874 0.4477539
vt 0.145874 0.4477539
vt 0.145874 0.4477539
vt 0.145874 0.4477539
vt 0.145874 0.4477539
vt 0.1734619 0.472168
vt 0.1734619 0.472168
vt 0.1734619 0.472168
vt 0.1734619 0.472168
vt 0.1734619 0.472168
vt 0.1734619 0.472168
vt 0.1734619 0.472168
vt 0.1734619 0.472168
vt 0.1734619 0.472168
vt 0.1734619 0.472168
vt 0.1734619 0.472168
vt 0.1734619 0.472168
vt 0.1734619 0.472168
vt 0.1734619 0.472168
vt 0.1734619 0.472168
vt 0.1734619 0.472168
vt 0.1734619 0.472168
vt 0.2161865 0.4711914
vt 0.2161865 0.4711914
vt 0.2161865 0.4711914
vt 0.2161865 0.4711914
vt 0.2161865 0.4711914
vt 0.2161865 0.4711914
vt 0.2161865 0.4711914
vt 0.2161865 0.4711914
vt 0.2161865 0.4711914
vt 0.2161865 0.4711914
vt 0.2161865 0.4711914
vt 0.2161865 0.4711914
vt 0.2161865 0.4711914
vt 0.2161865 0.4711914
vt 0.2161865 0.4711914
vt 0.2161865 0.4711914
vt 0.2161865 0.4711914
vt 0.2161865 0.4711914
vt 0.2161865 0.4711914
vt 0.2161865 0.4711914
vt 0.2161865 0.4711914
vt 0.2161865 0.4711914
vt 0.2161865 0.4711914
vt 0.2161865 0.4711914
vt 0.2161865 0.4711914
vt 0.2161865 0.4711914
vt 0.2161865 0.4711914
vt 0.2161865 0.4711914
vt 0.03659058 0.3789063
vt 0.03659058 0.3789063
vt 0.03659058 0.3789063
vt 0.03659058 0.3789063
vt 0.03659058 0.3789063
vt 0.03659058 0.3789063
vt 0.03659058 0.3789063
vt 0.03659058 0.3789063
vt 0.03659058 0.3789063
vt 0.03659058 0.3789063
vt 0.03659058 0.3789063
vt 0.03659058 0.3789063
vt 0.03659058 0.3789063
vt 0.03659058 0.3789063
vt 0.03659058 0.3789063
vt 0.03659058 0.3789063
vt 0.03659058 0.3789063
vt 0.03659058 0.3789063
vt 0.03659058 0.3789063
vt 0.03659058 0.3789063
vt 0.03659058 0.3789063
vt 0.03659058 0.3789063
vt 0.03659058 0.3789063
vt 0.03659058 0.3789063
vt 0.03659058 0.3789063
vt 0.03659058 0.3789063
vt 0.03659058 0.3789063
vt 0.03659058 0.3789063
vt 0.03659058 0.3789063
vt 0.309082 0.4689941
vt 0.309082 0.4689941
vt 0.309082 0.4689941
vt 0.309082 0.4689941
vt 0.309082 0.4689941
vt 0.309082 0.4689941
vt 0.309082 0.4689941
vt 0.3405762 0.4465332
vt 0.3405762 0.4465332
vt 0.3405762 0.4465332
vt 0.3405762 0.4465332
vt 0.3405762 0.4465332
vt 0.3405762 0.4465332
vt 0.03652954 0.3789063
vt 0.03652954 0.3789063
vt 0.03652954 0.3789063
vt 0.03652954 0.3789063
vt 0.03652954 0.3789063
vt 0.03652954 0.3789063
vt 0.03652954 0.3789063
vt 0.03652954 0.3789063
vt 0.03652954 0.3789063
vt 0.03652954 0.3789063
vt 0.03652954 0.3789063
vt 0.03652954 0.3789063
vt 0.03652954 0.3789063
vt 0.03652954 0.3789063
vt 0.03652954 0.3789063
vt 0.03652954 0.3789063
vt 0.03652954 0.3789063
vt 0.03652954 0.3789063
vt 0.03652954 0.3789063
vt 0.03652954 0.3789063
vt 0.03652954 0.3789063
vt 0.03652954 0.3789063
vt 0.03652954 0.3789063
vt 0.03652954 0.3789063
vt 0.03652954 0.3789063
vt 0.03652954 0.3789063
vt 0.03652954 0.3789063
vt 0.03652954 0.3789063
vt 0.03652954 0.3789063
vn 2.378225E-05 -0.0006403923 1
vn -3.319979E-05 -0.0003836155 1
vn -0.0003995895 -0.0002349615 1
vn -0.0005636215 1.102686E-05 1
vn 0 0 1
vn 0 0 1
vn 0 0 1
vn 0 0 1
vn 0 0 1
vn 0 0 1
vn 0 0 1
vn 0 0 1
vn 0 0 1
vn 0 0 1
vn 0 0 1
vn 0 0 1
vn 0 0 1
vn 0 0 1
vn 0 0 1
vn 0 0 1
vn 0 0 1
vn 0 0 1
vn 0 0 1
vn 0 0 1
vn -3.319979E-05 -0.0003836155 1
vn 0 0 1
vn 0.0001524687 -0.0004782677 1
vn -0.0003995895 -0.0002349615 1
vn 0 0 1
vn 0 0 1
vn -0.0005636215 1.102686E-05 1
vn 0 0 1
vn 0 0 1
vn 0 0 1
vn 0 0 1
vn 0 0 1
vn 0 0 1
vn 0 0 1
vn 0 0 1
vn 0 0 1
vn 0 0 1
vn 0 0 1
vn 0 0 1
vn 0 0 1
vn 0 0 1
vn 0 0 1
vn 0 0 1
vn 0.0001219511 -0.0003826618 1
vn 0.0001524687 -0.0004782677 1
vn 0 0 1
vn 0 0 1
vn 0 0 1
vn 0 0 1
vn 0 0 1
vn 0 0 1
vn 0 0 1
vn 0 0 1
vn 0 0 1
vn 0 0 1
vn 0 0 1
vn 0 0 1
vn 0 0 1
vn 0 0 1
vn 0 0 1
vn 0 0 1
vn 0 0 1
vn 0 0 1
vn 0 0 1
vn 0 0 1
vn 0 0 1
vn 0 0 1
vn 0 0 1
vn 0 0 1
vn 0 0 1
vn 0 0 1
vn 0 0 1
vn 0 0 1
vn 0 0 1
vn 0 0 1
vn 0 0 1
vn 0 0 1
vn 0 0 1
vn 0 0 1
vn 0 0 1
vn 0 0 1
vn 0 0 1
vn 0 0 1
vn 0 0 1
vn 0 0 1
vn 0 0 1
vn 0 0 1
vn 0 0 1
vn 0 0 1
vn 0 0 1
vn 0.0002827644 -0.0002472401 1
vn 0.0004131794 -1.627207E-05 1
vn 0 0 1
vn 0 0 1
vn 0.0001219511 -0.0003826618 1
vn 0 0 1
vn 0 0 1
vn 2.378225E-05 -0.0006403923 1
vn 0.0004131794 -1.627207E-05 1
vn 0.0002827644 -0.0002472401 1
vn 0.0001219511 -0.0003826618 1
vn 0.0001524687 -0.0004782677 1
vn -3.319979E-05 -0.0003836155 1
vn 0 1 0
vn 0 1 0
vn 0 1 0
vn 0 1 0
vn 0 1 0
vn 0 -1 0
vn 0 -1 0
vn 0 -1 0
vn 0 -1 0
vn 0 -1 0
vn 0 -1 0
vn 0 -1 0
vn 0 -1 0
vn 0 -1 0
vn 1 0 0
vn 1 0 0
vn 1 0 0
vn 1 0 0
vn 1 0 0
vn 1 0 0
vn -1 0 -8.165836E-06
vn -1 0 -8.165836E-06
vn -1 0 0
vn -1 0 -1.633167E-05
vn -1 0 -1.633167E-05
vn 0 0 -1
vn 0 0 -1
vn 0 0 -1
vn 0 0 -1
g SM_Prop_Art_08_0
f 3/3/3 2/2/2 1/1/1
f 3/3/3 1/1/1 4/4/4
f 7/7/7 6/6/6 5/5/5
f 6/6/6 8/8/8 5/5/5
f 8/8/8 9/9/9 5/5/5
f 12/12/12 11/11/11 10/10/10
f 13/13/13 12/12/12 10/10/10
f 13/13/13 10/10/10 14/14/14
f 15/15/15 13/13/13 14/14/14
f 15/15/15 16/16/16 13/13/13
f 17/17/17 15/15/15 14/14/14
f 17/17/17 18/18/18 15/15/15
f 19/19/19 17/17/17 14/14/14
f 19/19/19 20/20/20 17/17/17
f 23/23/23 22/22/22 21/21/21
f 23/23/23 21/21/21 24/24/24
f 24/24/24 21/21/21 25/25/25
f 21/21/21 26/26/26 25/25/25
f 26/26/26 27/27/27 25/25/25
f 24/24/24 25/25/25 28/28/28
f 29/29/29 24/24/24 28/28/28
f 29/29/29 28/28/28 30/30/30
f 28/28/28 31/31/31 30/30/30
f 32/32/32 23/23/23 24/24/24
f 33/33/33 32/32/32 24/24/24
f 23/23/23 32/32/32 34/34/34
f 34/34/34 35/35/35 23/23/23
f 35/35/35 36/36/36 23/23/23
f 36/36/36 37/37/37 23/23/23
f 40/40/40 39/39/39 38/38/38
f 41/41/41 40/40/40 38/38/38
f 42/42/42 41/41/41 38/38/38
f 42/42/42 38/38/38 43/43/43
f 44/44/44 42/42/42 43/43/43
f 41/41/41 45/45/45 40/40/40
f 45/45/45 46/46/46 40/40/40
f 47/47/47 45/45/45 41/41/41
f 47/47/47 48/48/48 45/45/45
f 48/48/48 49/49/49 45/45/45
f 41/41/41 50/50/50 47/47/47
f 41/41/41 51/51/51 50/50/50
f 52/52/52 41/41/41 42/42/42
f 52/52/52 53/53/53 41/41/41
f 54/54/54 52/52/52 42/42/42
f 55/55/55 54/54/54 42/42/42
f 56/56/56 52/52/52 54/54/54
f 56/56/56 57/57/57 52/52/52
f 58/58/58 56/56/56 54/54/54
f 59/59/59 58/58/58 54/54/54
f 60/60/60 56/56/56 58/58/58
f 60/60/60 61/61/61 56/56/56
f 62/62/62 60/60/60 58/58/58
f 63/63/63 62/62/62 58/58/58
f 64/64/64 60/60/60 62/62/62
f 65/65/65 64/64/64 62/62/62
f 68/68/68 67/67/67 66/66/66
f 68/68/68 66/66/66 69/69/69
f 68/68/68 69/69/69 70/70/70
f 69/69/69 71/71/71 70/70/70
f 72/72/72 68/68/68 70/70/70
f 72/72/72 73/73/73 68/68/68
f 72/72/72 70/70/70 74/74/74
f 70/70/70 75/75/75 74/74/74
f 76/76/76 72/72/72 74/74/74
f 76/76/76 74/74/74 77/77/77
f 74/74/74 78/78/78 77/77/77
f 74/74/74 79/79/79 78/78/78
f 78/78/78 80/80/80 77/77/77
f 76/76/76 77/77/77 81/81/81
f 76/76/76 81/81/81 82/82/82
f 81/81/81 83/83/83 82/82/82
f 81/81/81 84/84/84 83/83/83
f 83/83/83 85/85/85 82/82/82
f 83/83/83 86/86/86 85/85/85
f 85/85/85 87/87/87 82/82/82
f 87/87/87 88/88/88 82/82/82
f 85/85/85 89/89/89 87/87/87
f 85/85/85 90/90/90 89/89/89
f 89/89/89 91/91/91 87/87/87
f 89/89/89 92/92/92 91/91/91
f 91/91/91 93/93/93 87/87/87
f 93/93/93 94/94/94 87/87/87
f 97/97/97 96/96/96 95/95/95
f 98/98/98 97/97/97 95/95/95
f 98/98/98 95/95/95 99/99/99
f 100/100/100 98/98/98 99/99/99
f 101/101/101 100/100/100 99/99/99
f 104/104/104 103/103/103 102/102/102
f 105/105/105 104/104/104 102/102/102
f 106/106/106 105/105/105 102/102/102
f 107/107/107 106/106/106 102/102/102
f 110/110/110 109/109/109 108/108/108
f 109/109/109 111/111/111 108/108/108
f 108/108/108 111/111/111 112/112/112
f 115/115/115 114/114/114 113/113/113
f 116/116/116 114/114/114 115/115/115
f 117/117/117 114/114/114 116/116/116
f 118/118/118 114/114/114 117/117/117
f 119/119/119 118/118/118 117/117/117
f 120/120/120 118/118/118 119/119/119
f 121/121/121 118/118/118 120/120/120
f 124/124/124 123/123/123 122/122/122
f 125/125/125 123/123/123 124/124/124
f 126/126/126 125/125/125 124/124/124
f 127/127/127 125/125/125 126/126/126
f 130/130/130 129/129/129 128/128/128
f 128/128/128 129/129/129 131/131/131
f 129/129/129 132/132/132 131/131/131
f 135/135/135 134/134/134 133/133/133
f 134/134/134 136/136/136 133/133/133
