g SM_Prop_CardboardBox_03
v -0.2372693 0.407039 0.3581691
v -0.02999145 0.4517382 0.3375538
v -0.01680153 0.4661827 -0.3517731
v -0.2354575 0.3963727 -0.3641032
v -0.0293026 0.4644092 0.03613571
v -0.06184311 0.4555685 0.2414404
v -0.06376038 0.454633 0.3164327
v -0.115342 0.4399672 0.3247624
v -0.009731979 0.4358889 -0.3269879
v -0.02268272 0.4341991 0.03250816
v -0.04056412 0.4270996 0.3422064
v -0.2071363 0.3936818 0.3301616
v -0.1958678 0.393749 -0.3368109
v 0.2499999 0.3836936 0.3641029
v 0.04080849 0.441229 0.328405
v 0.07444069 0.4847246 -0.3369177
v 0.2397411 0.3919693 -0.335526
v 0.0395858 0.4759456 0.04960518
v 0.05650887 0.4572995 -0.3143707
v 0.02559715 0.4486936 0.04401131
v 0.02977989 0.415501 0.3023512
v 0.1680342 0.3833973 0.33912
v 0.2100628 0.3922657 -0.327329
v -0.2432423 0.005316677 -0.3587187
v 0.2499999 0 -0.3641032
v -0.2500001 0 0.3641029
v 0.2500001 1.144409E-07 0.3641032
v 0.1383208 0.4006064 -0.3641032
v 0.2499999 0.2987646 -0.3641032
v -0.1807471 0.4006064 0.3641029
v -0.2500001 0.3349492 0.3641029
v -0.2500001 0 -0.2950737
v -0.1933985 0 -0.3641032
v -0.2500001 0.0563702 -0.3641032
v -0.2113599 0.03715614 -0.3272118
v 0.2026864 0.02939453 -0.3158348
v -0.2052503 0.02992043 0.3218788
v 0.2113595 0.03715614 0.3272114
v -0.2500001 0.2396543 0.3641029
v 0.2244495 0.2187409 0.3357202
v 0.2499999 0.2179435 -0.3641032
v 0.1641465 0.2371708 0.304783
v -0.01680153 0.4661827 -0.3517731
v -0.0293026 0.4644092 0.03613571
v -0.02999145 0.4517382 0.3375538
v -0.02268272 0.4341991 0.03250816
v -0.009731979 0.4358889 -0.3269879
v -0.2354575 0.3963727 -0.3641032
v -0.1958678 0.393749 -0.3368109
v -0.009731979 0.4358889 -0.3269879
v -0.01680153 0.4661827 -0.3517731
v -0.115342 0.4399672 0.3247624
v -0.2071363 0.3936818 0.3301616
v -0.04056412 0.4270996 0.3422064
v -0.2372693 0.407039 0.3581691
v 0.07444069 0.4847246 -0.3369177
v 0.0395858 0.4759456 0.04960518
v 0.05650887 0.4572995 -0.3143707
v 0.02559715 0.4486936 0.04401131
v 0.02977989 0.415501 0.3023512
v 0.2100628 0.3922657 -0.327329
v 0.2397411 0.3919693 -0.335526
v 0.07444069 0.4847246 -0.3369177
v 0.05650887 0.4572995 -0.3143707
v 0.2499999 0.3836936 0.3641029
v 0.1680342 0.3833973 0.33912
v 0.02977989 0.415501 0.3023512
v 0.04080849 0.441229 0.328405
v -0.1933985 0 -0.3641032
v -0.2432423 0.005316677 -0.3587187
v -0.2432423 0.005316677 -0.3587187
v -0.2500001 0.0563702 -0.3641032
v -0.2500001 0 -0.2950737
v -0.2354575 0.3963727 -0.3641032
v -0.2372693 0.407039 0.3581691
v 0.2397411 0.3919693 -0.335526
v 0.2499999 0.3836936 0.3641029
v 0.2499999 0.2987646 -0.3641032
v -0.2372693 0.407039 0.3581691
v -0.2500001 0.3349492 0.3641029
v 0.2499999 0.2179435 -0.3641032
v 0.2499999 0.3836936 0.3641029
v 0.2244495 0.2187409 0.3357202
v -0.2500001 0.2396543 0.3641029
v 0.2100628 0.3922657 -0.327329
v 0.1383208 0.4006064 -0.3641032
v 0.2397411 0.3919693 -0.335526
v -0.2071363 0.3936818 0.3301616
v -0.1807471 0.4006064 0.3641029
v -0.2372693 0.407039 0.3581691
v 0.1680342 0.3833973 0.33912
v 0.2499999 0.3836936 0.3641029
v 0.2100628 0.3922657 -0.327329
v 0.2026864 0.02939453 -0.3158348
v -0.2113599 0.03715614 -0.3272118
v -0.1958678 0.393749 -0.3368109
v -0.1958678 0.393749 -0.3368109
v -0.2113599 0.03715614 -0.3272118
v -0.2052503 0.02992043 0.3218788
v -0.2071363 0.3936818 0.3301616
v -0.2071363 0.3936818 0.3301616
v -0.2052503 0.02992043 0.3218788
v 0.1680342 0.3833973 0.33912
v 0.2026864 0.02939453 -0.3158348
v 0.2100628 0.3922657 -0.327329
v 0.1680342 0.3833973 0.33912
v 0.1641465 0.2371708 0.304783
v -0.1958678 0.393749 -0.3368109
v -0.2354575 0.3963727 -0.3641032
v -0.2354575 0.3963727 -0.3641032
v 0.04080849 0.441229 0.328405
v -0.115342 0.4399672 0.3247624
v -0.02999145 0.4517382 0.3375538
v -0.04056412 0.4270996 0.3422064
v -0.2071363 0.3936818 0.3301616
v -0.2500001 0 0.3641029
v 0.2500001 1.144409E-07 0.3641032
v -0.2500001 0 0.3641029
v 0.2500001 1.144409E-07 0.3641032
v 0.2499999 0 -0.3641032
v 0.2499999 0 -0.3641032
v 0.2397411 0.3919693 -0.335526
v 0.2113595 0.03715614 0.3272114
v 0.2113595 0.03715614 0.3272114
vt 0.03787315 0.3035094
vt 0.03787315 0.3035094
vt 0.03787315 0.3035094
vt 0.03787315 0.2933538
vt 0.03787315 0.3035094
vt 0.03787315 0.3035094
vt 0.03787315 0.3035094
vt 0.03787315 0.3035094
vt 0.03787315 0.3035094
vt 0.03787315 0.3035094
vt 0.03787315 0.3035094
vt 0.03787315 0.3035094
vt 0.03787315 0.3035094
vt 0.03787315 0.3035094
vt 0.03787315 0.3035094
vt 0.03787315 0.3035094
vt 0.03787315 0.3035094
vt 0.03787315 0.3035094
vt 0.03787315 0.3035094
vt 0.03787315 0.3035094
vt 0.03787315 0.3035094
vt 0.03787315 0.3035094
vt 0.03787315 0.3035094
vt 0.03787315 0.2752995
vt 0.03786557 0.2752995
vt 0.03786557 0.2752995
vt 0.03786557 0.2752995
vt 0.03787315 0.3035094
vt 0.03787315 0.3035094
vt 0.03787315 0.3035094
vt 0.03787315 0.3035094
vt 0.03787315 0.2752995
vt 0.03787315 0.2752995
vt 0.03787315 0.2752995
vt 0.03787315 0.2752995
vt 0.03787315 0.2752995
vt 0.03787315 0.2752995
vt 0.03787315 0.2752995
vt 0.03787315 0.3035094
vt 0.03787315 0.2933538
vt 0.03787315 0.3035094
vt 0.03787315 0.3035094
vt 0.03787315 0.3035094
vt 0.03787315 0.3035094
vt 0.03787315 0.3035094
vt 0.03787315 0.3035094
vt 0.03787315 0.3035094
vt 0.03787315 0.2933538
vt 0.03787315 0.3035094
vt 0.03787315 0.3035094
vt 0.03787315 0.3035094
vt 0.03787315 0.3035094
vt 0.03787315 0.3035094
vt 0.03787315 0.3035094
vt 0.03787315 0.3035094
vt 0.03787315 0.3035094
vt 0.03787315 0.3035094
vt 0.03787315 0.3035094
vt 0.03787315 0.3035094
vt 0.03787315 0.3035094
vt 0.03787315 0.3035094
vt 0.03787315 0.3035094
vt 0.03787315 0.3035094
vt 0.03787315 0.3035094
vt 0.03787315 0.3035094
vt 0.03787315 0.3035094
vt 0.03787315 0.3035094
vt 0.03787315 0.3035094
vt 0.03787315 0.2752995
vt 0.03787315 0.2752995
vt 0.03787315 0.2752995
vt 0.03787315 0.2752995
vt 0.03787315 0.2752995
vt 0.03787315 0.2933538
vt 0.03787315 0.3035094
vt 0.03787315 0.3035094
vt 0.03787315 0.3035094
vt 0.03787315 0.3035094
vt 0.03787315 0.3035094
vt 0.03787315 0.3035094
vt 0.03787315 0.3035094
vt 0.03787315 0.3035094
vt 0.03787315 0.2933538
vt 0.03787315 0.3035094
vt 0.03787315 0.3035094
vt 0.03787315 0.3035094
vt 0.03787315 0.3035094
vt 0.03787315 0.3035094
vt 0.03787315 0.3035094
vt 0.03787315 0.3035094
vt 0.03787315 0.3035094
vt 0.03787315 0.3035094
vt 0.03787315 0.3035094
vt 0.03787315 0.2752995
vt 0.03787315 0.2752995
vt 0.03787315 0.3035094
vt 0.03787315 0.3035094
vt 0.03787315 0.2752995
vt 0.03787315 0.2752995
vt 0.03787315 0.3035094
vt 0.03787315 0.3035094
vt 0.03787315 0.2752995
vt 0.03787315 0.3035094
vt 0.03787315 0.2752995
vt 0.03787315 0.3035094
vt 0.03787315 0.3035094
vt 0.03787315 0.3035094
vt 0.03787315 0.3035094
vt 0.03787315 0.2933538
vt 0.03787315 0.2933538
vt 0.03787315 0.3035094
vt 0.03787315 0.3035094
vt 0.03787315 0.3035094
vt 0.03787315 0.3035094
vt 0.03787315 0.3035094
vt 0.03787315 0.2752995
vt 0.03787315 0.2752995
vt 0.03787315 0.2752995
vt 0.03787315 0.2752995
vt 0.03787315 0.2752995
vt 0.03787315 0.2752995
vt 0.03787315 0.3035094
vt 0.03787315 0.2752995
vt 0.03787315 0.2752995
vn 0.3588669 -0.6315407 0.6872924
vn -0.002718894 0.9966567 0.08165825
vn -0.302956 0.952986 -0.005951368
vn -0.2981947 0.9544755 -0.007523482
vn -0.3020049 0.9532889 -0.0057909
vn -0.2605129 0.9654343 -0.0083514
vn -0.1389178 0.9848044 0.1042218
vn -0.2576943 0.9659508 0.02307935
vn 0.9721377 0.231905 0.03417939
vn 0.9926846 0.1163768 0.03214981
vn 0.9970598 -0.07133205 0.02799038
vn 0.2122968 -0.977204 -0.001599276
vn 0.2203016 -0.9754254 0.003528289
vn 0.3813589 0.9231795 0.04800949
vn -0.9158943 0.396999 0.05940854
vn 0.4254323 0.9046763 0.02383915
vn 0.4254323 0.9046763 0.02383915
vn 0.4151584 0.9092695 0.02953989
vn -0.8704557 0.4878742 -0.06546511
vn -0.8908856 0.4539124 -0.01692543
vn -0.9158943 0.396999 0.05940854
vn -0.3269042 -0.9430264 -0.06192806
vn -0.3687564 -0.9285731 -0.04207848
vn -0.1192463 -0.1197357 -0.9856185
vn 0 -1 0
vn 0 -1 0
vn 0 -1 0
vn 0.004109922 0.004506916 -0.9999814
vn 0.007554533 0.008284256 -0.9999372
vn -0.004699547 0.004956923 0.9999768
vn -0.998283 0.05722703 -0.0124953
vn -0.0006226617 -0.9999998 -0.0005106748
vn -0.0006537676 -0.0006564508 -0.9999996
vn -0.0005367817 -0.0005389848 -0.9999998
vn 0.0006414405 0.9999998 -0.0004143338
vn 0.0006414405 0.9999998 -0.0004143338
vn 0.0006414405 0.9999998 -0.0004143338
vn 0.0006414405 0.9999998 -0.0004143338
vn 0.03116653 -0.002289418 0.9995116
vn 0.9997956 -0.000921199 0.0202
vn 0.9997967 5.57019E-05 0.0201622
vn -0.02280027 0.04238848 -0.9988411
vn 0.9721377 0.231905 0.03417938
vn 0.9948436 0.09632111 0.03175565
vn 0.9970598 -0.07133204 0.02799038
vn 0.2191499 -0.9756871 0.002789774
vn 0.2203016 -0.9754254 0.003528289
vn 0.2335262 -0.7137155 -0.6603602
vn 0.2335262 -0.7137156 -0.6603602
vn 0.2335262 -0.7137155 -0.6603602
vn 0.2335262 -0.7137155 -0.6603602
vn 0.3588669 -0.6315407 0.6872925
vn 0.3588669 -0.6315407 0.6872924
vn 0.1974584 -0.9802487 -0.01107025
vn -0.2754003 0.961224 -0.01426104
vn -0.8704556 0.4878742 -0.06546511
vn -0.8937166 0.4485323 -0.009456022
vn -0.3687564 -0.9285731 -0.04207847
vn -0.3630454 -0.930693 -0.04481742
vn -0.1936165 -0.9734697 -0.1219408
vn -0.2672456 -0.4787367 -0.836296
vn -0.2672456 -0.4787366 -0.836296
vn -0.2672455 -0.4787366 -0.836296
vn -0.2672456 -0.4787367 -0.836296
vn -0.2997429 -0.5100345 0.8062375
vn -0.2997429 -0.5100344 0.8062375
vn -0.2997429 -0.5100345 0.8062375
vn -0.2997429 -0.5100345 0.8062375
vn -0.0006806716 -0.9999996 -0.0005580013
vn -0.1157158 -0.9887401 -0.09488249
vn -0.982961 -0.142374 -0.116264
vn -0.9991043 0.04119559 -0.00966382
vn -0.9999998 -0.0005446626 -0.0004447768
vn -0.9977277 0.06582524 -0.01437269
vn -0.9977277 0.06582523 -0.01437269
vn 0.2822206 0.3094814 -0.9080599
vn 0.9948985 -0.09826563 0.02282286
vn 0.9979814 -0.0613135 0.01655004
vn -0.09287314 0.09795942 0.9908473
vn 0.02803445 -0.09989332 0.9946031
vn 0 0 -1
vn 0.03137094 -0.1088971 0.9935579
vn 0.03112938 0.00126811 0.9995146
vn -1 0 0
vn 0.00808713 0.9860036 0.166528
vn -0.005370924 0.9840215 0.1779689
vn 0.04672493 0.9899634 0.1333767
vn 0.04684514 0.9790366 -0.1982243
vn 0.03825385 0.9813219 -0.1885305
vn 0.1389392 0.9435974 -0.3005326
vn 0.03519995 0.9820931 -0.1850787
vn 0.03519995 0.9820931 -0.1850787
vn -0.02507961 0.03009272 0.9992324
vn -0.02507961 0.03009273 0.9992324
vn -0.02507961 0.03009273 0.9992324
vn -0.02507961 0.03009273 0.9992324
vn 0.9998146 -0.01887771 0.003814484
vn 0.9998146 -0.01887771 0.003814484
vn 0.9998146 -0.01887771 0.003814484
vn 0.9998146 -0.01887771 0.003814484
vn -0.03293763 0.08336308 -0.9959748
vn -0.02489039 0.05082934 -0.9983972
vn -0.03293763 0.08336308 -0.9959748
vn -0.9982596 0.001829581 -0.05894502
vn -0.9974846 0.02504533 -0.06631164
vn -0.9974846 0.02504533 -0.06631164
vn -0.9983959 -0.02708221 -0.04972252
vn -0.005637871 0.983979 0.1781953
vn -0.005637871 0.983979 0.1781953
vn 0 0 -1
vn 0.2444205 0.9623689 0.1187637
vn -0.1543759 0.3535697 0.9225815
vn -0.1543759 0.3535697 0.9225815
vn -0.1543759 0.3535697 0.9225815
vn -0.1543759 0.3535697 0.9225815
vn -1 0 0
vn 0.03041635 0.06346014 0.9975207
vn 0.03041635 0.06346014 0.9975207
vn 0.9980659 0.05955564 0.01782408
vn 0.9980659 0.05955565 0.01782408
vn 0 0 -1
vn 0.993461 0.1134028 -0.0132259
vn -0.9735274 -0.2280178 0.01588265
vn 0.01459991 -0.1080195 -0.9940415
g SM_Prop_CardboardBox_03_0
f 53/53/53 52/52/52 1/1/1
f 10/10/10 9/9/9 43/43/43
f 44/44/44 10/10/10 43/43/43
f 11/11/11 10/10/10 44/44/44
f 45/45/45 11/11/11 44/44/44
f 47/47/47 46/46/46 13/13/13
f 46/46/46 12/12/12 13/13/13
f 54/54/54 12/12/12 46/46/46
f 50/50/50 49/49/49 48/48/48
f 51/51/51 50/50/50 48/48/48
f 16/16/16 18/18/18 17/17/17
f 18/18/18 14/14/14 17/17/17
f 18/18/18 111/111/111 14/14/14
f 19/19/19 20/20/20 56/56/56
f 20/20/20 57/57/57 56/56/56
f 20/20/20 21/21/21 57/57/57
f 21/21/21 15/15/15 57/57/57
f 23/23/23 22/22/22 58/58/58
f 22/22/22 59/59/59 58/58/58
f 22/22/22 60/60/60 59/59/59
f 63/63/63 62/62/62 61/61/61
f 64/64/64 63/63/63 61/61/61
f 67/67/67 66/66/66 65/65/65
f 68/68/68 67/67/67 65/65/65
f 37/37/37 38/38/38 36/36/36
f 35/35/35 37/37/37 36/36/36
f 34/34/34 33/33/33 24/24/24
f 33/33/33 34/34/34 121/121/121
f 34/34/34 81/81/81 121/121/121
f 34/34/34 29/29/29 81/81/81
f 34/34/34 110/110/110 29/29/29
f 110/110/110 28/28/28 29/29/29
f 76/76/76 29/29/29 28/28/28
f 70/70/70 69/69/69 32/32/32
f 27/27/27 32/32/32 69/69/69
f 69/69/69 25/25/25 27/27/27
f 27/27/27 26/26/26 32/32/32
f 73/73/73 72/72/72 71/71/71
f 73/73/73 116/116/116 72/72/72
f 116/116/116 84/84/84 72/72/72
f 84/84/84 31/31/31 72/72/72
f 31/31/31 75/75/75 72/72/72
f 75/75/75 74/74/74 72/72/72
f 80/80/80 30/30/30 79/79/79
f 82/82/82 30/30/30 80/80/80
f 83/83/83 82/82/82 80/80/80
f 39/39/39 83/83/83 80/80/80
f 39/39/39 118/118/118 83/83/83
f 118/118/118 117/117/117 83/83/83
f 87/87/87 86/86/86 85/85/85
f 86/86/86 109/109/109 85/85/85
f 109/109/109 108/108/108 85/85/85
f 90/90/90 89/89/89 88/88/88
f 88/88/88 89/89/89 91/91/91
f 89/89/89 92/92/92 91/91/91
f 95/95/95 94/94/94 93/93/93
f 96/96/96 95/95/95 93/93/93
f 99/99/99 98/98/98 97/97/97
f 100/100/100 99/99/99 97/97/97
f 103/103/103 42/42/42 101/101/101
f 42/42/42 102/102/102 101/101/101
f 42/42/42 124/124/124 102/102/102
f 106/106/106 105/105/105 104/104/104
f 107/107/107 106/106/106 104/104/104
f 123/123/123 107/107/107 104/104/104
f 114/114/114 113/113/113 112/112/112
f 115/115/115 114/114/114 112/112/112
f 120/120/120 41/41/41 119/119/119
f 41/41/41 40/40/40 119/119/119
f 41/41/41 78/78/78 40/40/40
f 78/78/78 77/77/77 40/40/40
f 78/78/78 122/122/122 77/77/77
f 6/6/6 5/5/5 3/3/3
f 4/4/4 6/6/6 3/3/3
f 6/6/6 4/4/4 55/55/55
f 2/2/2 5/5/5 6/6/6
f 55/55/55 8/8/8 6/6/6
f 7/7/7 8/8/8 2/2/2
f 7/7/7 2/2/2 6/6/6
f 8/8/8 7/7/7 6/6/6
