g SM_Prop_Plate_02
v 0.1460284 0.0186293 0.06048584
v 0.140611 0.02707474 0.05824463
v 0.1406104 0.02707474 -0.05824219
v 0.1460297 0.0186293 -0.06048828
v 0.1460297 0.0186293 -0.06048828
v 0.1406104 0.02707474 -0.05824219
v 0.05824158 0.02707474 -0.1406128
v 0.06048706 0.0186293 -0.1460278
v 0.06048706 0.0186293 -0.1460278
v 0.05824158 0.02707474 -0.1406128
v -0.0582428 0.02707474 -0.1406104
v -0.06048706 0.0186293 -0.1460278
v -0.06048706 0.0186293 -0.1460278
v -0.0582428 0.02707474 -0.1406104
v -0.140611 0.02707474 -0.05824463
v -0.1460291 0.0186293 -0.06048828
v -0.1460291 0.0186293 -0.06048828
v -0.140611 0.02707474 -0.05824463
v -0.1406104 0.02707474 0.05824219
v -0.1460297 0.0186293 0.06048828
v -0.1460297 0.0186293 0.06048828
v -0.1406104 0.02707474 0.05824219
v -0.05824158 0.02707474 0.1406128
v -0.06048828 0.0186293 0.1460254
v -0.06048828 0.0186293 0.1460254
v -0.05824158 0.02707474 0.1406128
v 0.05824341 0.02707474 0.1406104
v 0.06048767 0.0186293 0.1460278
v 0.06048767 0.0186293 0.1460278
v 0.05824341 0.02707474 0.1406104
v 0.140611 0.02707474 0.05824463
v 0.1460284 0.0186293 0.06048584
v 0.09814697 0 0.04065185
v 0.1460284 0.0186293 0.06048584
v 0.1460297 0.0186293 -0.06048828
v 0.09814758 0 -0.04065429
v 0.09297668 0.009377594 -0.03851074
v 0.1406104 0.02707474 -0.05824219
v 0.140611 0.02707474 0.05824463
v 0.09297668 0.009377594 0.03851318
v 0.09814758 0 -0.04065429
v 0.1460297 0.0186293 -0.06048828
v 0.06048706 0.0186293 -0.1460278
v 0.04065369 0 -0.09814697
v 0.03851196 0.009377594 -0.09297607
v 0.05824158 0.02707474 -0.1406128
v 0.1406104 0.02707474 -0.05824219
v 0.09297668 0.009377594 -0.03851074
v 0.04065369 0 -0.09814697
v 0.06048706 0.0186293 -0.1460278
v -0.06048706 0.0186293 -0.1460278
v -0.04065369 0 -0.09814697
v -0.03851196 0.009377594 -0.09297607
v -0.0582428 0.02707474 -0.1406104
v 0.05824158 0.02707474 -0.1406128
v 0.03851196 0.009377594 -0.09297607
v -0.04065369 0 -0.09814697
v -0.06048706 0.0186293 -0.1460278
v -0.1460291 0.0186293 -0.06048828
v -0.09814758 0 -0.04065429
v -0.09297668 0.009377594 -0.03851318
v -0.140611 0.02707474 -0.05824463
v -0.0582428 0.02707474 -0.1406104
v -0.03851196 0.009377594 -0.09297607
v -0.09814758 0 -0.04065429
v -0.1460291 0.0186293 -0.06048828
v -0.1460297 0.0186293 0.06048828
v -0.09814758 0 0.04065429
v -0.09297668 0.009377594 0.03851074
v -0.1406104 0.02707474 0.05824219
v -0.140611 0.02707474 -0.05824463
v -0.09297668 0.009377594 -0.03851318
v -0.09814758 0 0.04065429
v -0.1460297 0.0186293 0.06048828
v -0.06048828 0.0186293 0.1460254
v -0.04065429 0 0.09814453
v -0.03851196 0.009377594 0.09297607
v -0.05824158 0.02707474 0.1406128
v -0.1406104 0.02707474 0.05824219
v -0.09297668 0.009377594 0.03851074
v -0.04065429 0 0.09814453
v -0.06048828 0.0186293 0.1460254
v 0.06048767 0.0186293 0.1460278
v 0.04065429 0 0.09814697
v 0.03851257 0.009377594 0.09297607
v 0.05824341 0.02707474 0.1406104
v -0.05824158 0.02707474 0.1406128
v -0.03851196 0.009377594 0.09297607
v 0.04065429 0 0.09814697
v 0.06048767 0.0186293 0.1460278
v 0.1460284 0.0186293 0.06048584
v 0.09814697 0 0.04065185
v 0.09297668 0.009377594 0.03851318
v 0.140611 0.02707474 0.05824463
v 0.05824341 0.02707474 0.1406104
v 0.03851257 0.009377594 0.09297607
v 0.09814758 0 -0.04065429
v 0 0 0
v 0.09814697 0 0.04065185
v 0.04065369 0 -0.09814697
v 0.04065429 0 0.09814697
v -0.04065369 0 -0.09814697
v -0.04065429 0 0.09814453
v -0.09814758 0 -0.04065429
v -0.09814758 0 0.04065429
v 0.09297668 0.009377594 0.03851318
v 0 0.009377594 0
v 0.09297668 0.009377594 -0.03851074
v 0.03851257 0.009377594 0.09297607
v 0.03851196 0.009377594 -0.09297607
v -0.03851196 0.009377594 0.09297607
v -0.03851196 0.009377594 -0.09297607
v -0.09297668 0.009377594 0.03851074
v -0.09297668 0.009377594 -0.03851318
vt 0.06893957 0.3807797
vt 0.06893957 0.3807797
vt 0.06893957 0.3807797
vt 0.06893957 0.3807797
vt 0.06893957 0.3807797
vt 0.06893957 0.3807797
vt 0.06893957 0.3807797
vt 0.06893957 0.3807797
vt 0.06893957 0.3807797
vt 0.06893957 0.3807797
vt 0.06893957 0.3807797
vt 0.06893957 0.3807797
vt 0.06893957 0.3807797
vt 0.06893957 0.3807797
vt 0.06893957 0.3807797
vt 0.06893957 0.3807797
vt 0.06893957 0.3807797
vt 0.06893957 0.3807797
vt 0.06893957 0.3807797
vt 0.06893957 0.3807797
vt 0.06893957 0.3807797
vt 0.06893957 0.3807797
vt 0.06893957 0.3807797
vt 0.06893957 0.3807797
vt 0.06893957 0.3807797
vt 0.06893957 0.3807797
vt 0.06893957 0.3807797
vt 0.06893957 0.3807797
vt 0.06893957 0.3807797
vt 0.06893957 0.3807797
vt 0.06893957 0.3807797
vt 0.06893957 0.3807797
vt 0.06893957 0.3807797
vt 0.06893957 0.3807797
vt 0.06893957 0.3807797
vt 0.06893957 0.3807797
vt 0.06893957 0.3807797
vt 0.06893957 0.3807797
vt 0.06893957 0.3807797
vt 0.06893957 0.3807797
vt 0.06893957 0.3807797
vt 0.06893957 0.3807797
vt 0.06893957 0.3807797
vt 0.06893957 0.3807797
vt 0.06893957 0.3807797
vt 0.06893957 0.3807797
vt 0.06893957 0.3807797
vt 0.06893957 0.3807797
vt 0.06893957 0.3807797
vt 0.06893957 0.3807797
vt 0.06893957 0.3807797
vt 0.06893957 0.3807797
vt 0.06893957 0.3807797
vt 0.06893957 0.3807797
vt 0.06893957 0.3807797
vt 0.06893957 0.3807797
vt 0.06893957 0.3807797
vt 0.06893957 0.3807797
vt 0.06893957 0.3807797
vt 0.06893957 0.3807797
vt 0.06893957 0.3807797
vt 0.06893957 0.3807797
vt 0.06893957 0.3807797
vt 0.06893957 0.3807797
vt 0.06893957 0.3807797
vt 0.06893957 0.3807797
vt 0.06893957 0.3807797
vt 0.06893957 0.3807797
vt 0.06893957 0.3807797
vt 0.06893957 0.3807797
vt 0.06893957 0.3807797
vt 0.06893957 0.3807797
vt 0.06893957 0.3807797
vt 0.06893957 0.3807797
vt 0.06893957 0.3807797
vt 0.06893957 0.3807797
vt 0.06893957 0.3807797
vt 0.06893957 0.3807797
vt 0.06893957 0.3807797
vt 0.06893957 0.3807797
vt 0.06893957 0.3807797
vt 0.06893957 0.3807797
vt 0.06893957 0.3807797
vt 0.06893957 0.3807797
vt 0.06893957 0.3807797
vt 0.06893957 0.3807797
vt 0.06893957 0.3807797
vt 0.06893957 0.3807797
vt 0.06893957 0.3807797
vt 0.06893957 0.3807797
vt 0.06893957 0.3807797
vt 0.06893957 0.3807797
vt 0.06893957 0.3807797
vt 0.06893957 0.3807797
vt 0.06893957 0.3807797
vt 0.06893957 0.3807797
vt 0.06893957 0.3807797
vt 0.06893957 0.3807797
vt 0.06893957 0.3807797
vt 0.06893957 0.3807797
vt 0.06893957 0.3807797
vt 0.06893957 0.3807797
vt 0.06893957 0.3807797
vt 0.06893957 0.3807797
vt 0.06893957 0.3807797
vt 0.06893957 0.3807797
vt 0.06893957 0.3807797
vt 0.06893957 0.3807797
vt 0.06893957 0.3807797
vt 0.06893957 0.3807797
vt 0.06893957 0.3807797
vt 0.06893957 0.3807797
vt 0.06893957 0.3807797
vt 0.06893957 0.3807797
vn 0.8416682 0.539995 0
vn 0.8416682 0.539995 0
vn 0.8416682 0.539995 0
vn 0.8416682 0.539995 0
vn 0.5951427 0.5400047 -0.5951471
vn 0.5951427 0.5400047 -0.5951471
vn 0.5951427 0.5400047 -0.5951471
vn 0.5951427 0.5400047 -0.5951471
vn 0 0.5398441 -0.841765
vn 0 0.5398441 -0.841765
vn 0 0.5398441 -0.841765
vn 0 0.5398441 -0.841765
vn -0.595164 0.5399436 -0.5951813
vn -0.595164 0.5399436 -0.5951813
vn -0.595164 0.5399436 -0.5951813
vn -0.595164 0.5399436 -0.5951813
vn -0.8416544 0.5400165 0
vn -0.8416544 0.5400165 0
vn -0.8416544 0.5400165 0
vn -0.8416544 0.5400165 0
vn -0.5951544 0.5399742 0.595163
vn -0.5951544 0.5399742 0.595163
vn -0.5951544 0.5399742 0.595163
vn -0.5951544 0.5399742 0.595163
vn 0 0.5397578 0.8418203
vn 0 0.5397578 0.8418203
vn 0 0.5397578 0.8418203
vn 0 0.5397578 0.8418203
vn 0.595206 0.5398676 0.5952081
vn 0.595206 0.5398676 0.5952081
vn 0.595206 0.5398676 0.5952081
vn 0.595206 0.5398676 0.5952081
vn 0.3625919 -0.9319479 0
vn 0.3625919 -0.9319479 0
vn 0.3625919 -0.9319479 0
vn 0.3625919 -0.9319479 0
vn -0.3482648 0.9373962 0
vn -0.3482648 0.9373962 0
vn -0.3482648 0.9373962 0
vn -0.3482648 0.9373962 0
vn 0.2563871 -0.9319482 -0.2563947
vn 0.2563871 -0.9319482 -0.2563947
vn 0.2563871 -0.9319482 -0.2563947
vn 0.2563871 -0.9319482 -0.2563947
vn -0.246259 0.9373981 0.2462546
vn -0.246259 0.9373981 0.2462546
vn -0.246259 0.9373981 0.2462546
vn -0.246259 0.9373981 0.2462546
vn 0 -0.9319457 -0.3625979
vn 0 -0.9319457 -0.3625979
vn 0 -0.9319457 -0.3625979
vn 0 -0.9319457 -0.3625979
vn 0 0.9373999 0.348255
vn 0 0.9373999 0.348255
vn 0 0.9373999 0.348255
vn 0 0.9373999 0.348255
vn -0.2563886 -0.9319476 -0.2563951
vn -0.2563886 -0.9319476 -0.2563951
vn -0.2563886 -0.9319476 -0.2563951
vn -0.2563886 -0.9319476 -0.2563951
vn 0.246254 0.9373976 0.2462617
vn 0.246254 0.9373976 0.2462617
vn 0.246254 0.9373976 0.2462617
vn 0.246254 0.9373976 0.2462617
vn -0.3625918 -0.9319481 0
vn -0.3625918 -0.9319481 0
vn -0.3625918 -0.9319481 0
vn -0.3625918 -0.9319481 0
vn 0.3482648 0.9373962 0
vn 0.3482648 0.9373962 0
vn 0.3482648 0.9373962 0
vn 0.3482648 0.9373962 0
vn -0.2563833 -0.9319488 0.2563964
vn -0.2563833 -0.9319488 0.2563964
vn -0.2563833 -0.9319488 0.2563964
vn -0.2563833 -0.9319488 0.2563964
vn 0.246259 0.9373981 -0.2462546
vn 0.246259 0.9373981 -0.2462546
vn 0.246259 0.9373981 -0.2462546
vn 0.246259 0.9373981 -0.2462546
vn 0 -0.9319457 0.3625979
vn 0 -0.9319457 0.3625979
vn 0 -0.9319457 0.3625979
vn 0 -0.9319457 0.3625979
vn 0 0.9373999 -0.348255
vn 0 0.9373999 -0.348255
vn 0 0.9373999 -0.348255
vn 0 0.9373999 -0.348255
vn 0.2563952 -0.9319476 0.2563886
vn 0.2563952 -0.9319476 0.2563886
vn 0.2563952 -0.9319476 0.2563886
vn 0.2563952 -0.9319476 0.2563886
vn -0.2462551 0.9373976 -0.2462605
vn -0.2462551 0.9373976 -0.2462605
vn -0.2462551 0.9373976 -0.2462605
vn -0.2462551 0.9373976 -0.2462605
vn 0 -1 0
vn 0 -1 0
vn 0 -1 0
vn 0 -1 0
vn 0 -1 0
vn 0 -1 0
vn 0 -1 0
vn 0 -1 0
vn 0 -1 0
vn 0 1 0
vn 0 1 0
vn 0 1 0
vn 0 1 0
vn 0 1 0
vn 0 1 0
vn 0 1 0
vn 0 1 0
vn 0 1 0
g SM_Prop_Plate_02_0
f 3/3/3 2/2/2 1/1/1
f 4/4/4 3/3/3 1/1/1
f 7/7/7 6/6/6 5/5/5
f 8/8/8 7/7/7 5/5/5
f 11/11/11 10/10/10 9/9/9
f 12/12/12 11/11/11 9/9/9
f 15/15/15 14/14/14 13/13/13
f 16/16/16 15/15/15 13/13/13
f 19/19/19 18/18/18 17/17/17
f 20/20/20 19/19/19 17/17/17
f 23/23/23 22/22/22 21/21/21
f 24/24/24 23/23/23 21/21/21
f 27/27/27 26/26/26 25/25/25
f 28/28/28 27/27/27 25/25/25
f 31/31/31 30/30/30 29/29/29
f 32/32/32 31/31/31 29/29/29
f 35/35/35 34/34/34 33/33/33
f 36/36/36 35/35/35 33/33/33
f 39/39/39 38/38/38 37/37/37
f 40/40/40 39/39/39 37/37/37
f 43/43/43 42/42/42 41/41/41
f 44/44/44 43/43/43 41/41/41
f 47/47/47 46/46/46 45/45/45
f 48/48/48 47/47/47 45/45/45
f 51/51/51 50/50/50 49/49/49
f 52/52/52 51/51/51 49/49/49
f 55/55/55 54/54/54 53/53/53
f 56/56/56 55/55/55 53/53/53
f 59/59/59 58/58/58 57/57/57
f 60/60/60 59/59/59 57/57/57
f 63/63/63 62/62/62 61/61/61
f 64/64/64 63/63/63 61/61/61
f 67/67/67 66/66/66 65/65/65
f 68/68/68 67/67/67 65/65/65
f 71/71/71 70/70/70 69/69/69
f 72/72/72 71/71/71 69/69/69
f 75/75/75 74/74/74 73/73/73
f 76/76/76 75/75/75 73/73/73
f 79/79/79 78/78/78 77/77/77
f 80/80/80 79/79/79 77/77/77
f 83/83/83 82/82/82 81/81/81
f 84/84/84 83/83/83 81/81/81
f 87/87/87 86/86/86 85/85/85
f 88/88/88 87/87/87 85/85/85
f 91/91/91 90/90/90 89/89/89
f 92/92/92 91/91/91 89/89/89
f 95/95/95 94/94/94 93/93/93
f 96/96/96 95/95/95 93/93/93
f 99/99/99 98/98/98 97/97/97
f 97/97/97 98/98/98 100/100/100
f 101/101/101 98/98/98 99/99/99
f 100/100/100 98/98/98 102/102/102
f 103/103/103 98/98/98 101/101/101
f 102/102/102 98/98/98 104/104/104
f 105/105/105 98/98/98 103/103/103
f 104/104/104 98/98/98 105/105/105
f 108/108/108 107/107/107 106/106/106
f 106/106/106 107/107/107 109/109/109
f 110/110/110 107/107/107 108/108/108
f 109/109/109 107/107/107 111/111/111
f 112/112/112 107/107/107 110/110/110
f 111/111/111 107/107/107 113/113/113
f 114/114/114 107/107/107 112/112/112
f 113/113/113 107/107/107 114/114/114
