g SM_Prop_Pillow_01
v 0.3445508 0.1007709 0.1375232
v 0.3555517 0.03837845 0.2144739
v 0.3061243 0.06713989 0.2348511
v 0.278031 0.1362443 0.135022
v 0.3590539 0.09559707 0.009707031
v 0.3804382 0.04201462 0.1464819
v 0.3555517 0.03837845 0.2144739
v 0.3210388 0.0351841 0.2456213
v 0.3445508 -0.001394806 0.1288159
v 0.3061243 0.007952346 0.2304578
v 0.1638708 -0.006360397 0.2234277
v 0.3555517 0.03837845 0.2144739
v 0.278031 -0.0173024 0.1208032
v 0.3590539 -0.009726867 0.0009997558
v 0.3964514 0.03918258 0.005354004
v 0.1638708 0.05177521 0.227821
v 0.1488318 0.1413832 0.1315637
v 0.1718542 0.01838318 0.2378601
v 0.2897302 -0.03162285 -0.003862305
v 0.3445508 -0.0246553 -0.1481201
v 0.1488318 -0.02178642 0.1166003
v 0.2897302 0.1439878 0.01195679
v 0.3445508 0.08400939 -0.1394116
v 0.155094 0.1533803 0.01234741
v 0.3804382 0.02976906 -0.1592969
v 0.3555517 0.03041748 -0.2144763
v 0.278031 -0.04450676 -0.1475708
v 0.155094 -0.02564102 -0.00425293
v 0.278031 0.121365 -0.133352
v 0.1488318 0.1323903 -0.128512
v 0.3061243 0.05475944 -0.219751
v 0.1638708 0.05873802 -0.2127222
v 0.3061243 -0.0008074951 -0.2241443
v 0.3210388 0.03124016 -0.2456226
v 0.1488318 -0.03530449 -0.1434741
v 0.1718542 0.03335274 -0.2378613
v 0.1638708 0.00535675 -0.2171155
v -1.220703E-06 -0.0288002 -0.1387549
v -1.220703E-06 0.04067787 -0.2289197
v -1.220703E-06 0.06502098 -0.204624
v -1.220703E-06 -0.0244487 -0.004702148
v -1.220703E-06 0.01382782 -0.2090173
v -1.220703E-06 0.1445744 -0.1229358
v -1.220703E-06 -0.02497604 0.1117603
v -1.220703E-06 0.1635181 0.01279785
v -1.220703E-06 0.1483395 0.1275793
v -1.220703E-06 0.05808357 0.2197229
v -1.220703E-06 0.02568512 0.2289184
v -0.1649902 0.06237175 0.2278772
v -0.1498498 0.1380805 0.1315918
v -1.220703E-06 0.0007571411 0.2153296
v -0.1649902 0.0006089783 0.2234827
v -0.1561548 0.1483884 0.01234497
v -0.1730286 0.02555244 0.2379211
v -0.1498486 -0.02054428 0.1166345
v -0.1561548 -0.02442856 -0.004249267
v -0.1498498 -0.02865631 -0.1435071
v -0.1649902 0.01457809 -0.2171704
v -0.1730286 0.04291405 -0.2379211
v -0.1649902 0.06666344 -0.2127771
v -0.3210388 0.05941902 -0.2456226
v -0.1498486 0.13286 -0.1285498
v -0.3061243 0.08143257 -0.219751
v -0.2780322 0.1355406 -0.133352
v -0.3555517 0.06118889 -0.2144763
v -0.3061243 0.02793777 -0.2241443
v -0.2780322 -0.02073044 -0.1475708
v -0.2897302 0.141505 0.01195679
v -0.2897302 -0.02302338 -0.003862305
v -0.344552 0.005381699 -0.1481201
v -0.344552 0.1067178 -0.1394116
v -0.2780322 0.1299552 0.135022
v -0.2780322 -0.01756554 0.1208032
v -0.3804382 0.05915817 -0.1592969
v -0.3590539 0.09653648 0.009707031
v -0.3964514 0.04650322 0.005354004
v -0.3590539 0.001841888 0.0009997558
v -0.3061243 0.06622749 0.2348511
v -0.3061243 0.006798858 0.2304578
v -0.3210388 0.03098129 0.2456213
v -0.344552 0.09285889 0.1375232
v -0.3555517 0.03982941 0.2144739
v -0.3555517 0.03982941 0.2144739
v -0.344552 0.0002189636 0.1288159
v -0.3555517 0.03982941 0.2144739
v -0.3804382 0.04114479 0.1464819
vt 0.06858425 0.383901
vt 0.06858425 0.383901
vt 0.06858425 0.383901
vt 0.06858425 0.383901
vt 0.06858425 0.383901
vt 0.06858425 0.383901
vt 0.06858425 0.383901
vt 0.06858425 0.383901
vt 0.06858425 0.383901
vt 0.06858425 0.383901
vt 0.06858425 0.383901
vt 0.06858425 0.383901
vt 0.06858425 0.383901
vt 0.06858425 0.383901
vt 0.06858425 0.383901
vt 0.06858425 0.383901
vt 0.06858425 0.383901
vt 0.06858425 0.383901
vt 0.06858425 0.383901
vt 0.06858425 0.383901
vt 0.06858425 0.383901
vt 0.06858425 0.383901
vt 0.06858425 0.383901
vt 0.06858425 0.383901
vt 0.06858425 0.383901
vt 0.06858425 0.383901
vt 0.06858425 0.383901
vt 0.06858425 0.383901
vt 0.06858425 0.383901
vt 0.06858425 0.383901
vt 0.06858425 0.383901
vt 0.06858425 0.383901
vt 0.06858425 0.383901
vt 0.06858425 0.383901
vt 0.06858425 0.383901
vt 0.06858425 0.383901
vt 0.06858425 0.383901
vt 0.06858425 0.383901
vt 0.06858425 0.383901
vt 0.06858425 0.383901
vt 0.06858425 0.383901
vt 0.06858425 0.383901
vt 0.06858425 0.383901
vt 0.06858425 0.383901
vt 0.06858425 0.383901
vt 0.06858425 0.383901
vt 0.06858425 0.383901
vt 0.06858425 0.383901
vt 0.06858425 0.383901
vt 0.06858425 0.383901
vt 0.06858425 0.383901
vt 0.06858425 0.383901
vt 0.06858425 0.383901
vt 0.06858425 0.383901
vt 0.06858425 0.383901
vt 0.06858425 0.383901
vt 0.06858425 0.383901
vt 0.06858425 0.383901
vt 0.06858425 0.383901
vt 0.06858425 0.383901
vt 0.06858425 0.383901
vt 0.06858425 0.383901
vt 0.06858425 0.383901
vt 0.06858425 0.383901
vt 0.06858425 0.383901
vt 0.06858425 0.383901
vt 0.06858425 0.383901
vt 0.06858425 0.383901
vt 0.06858425 0.383901
vt 0.06858425 0.383901
vt 0.06858425 0.383901
vt 0.06858425 0.383901
vt 0.06858425 0.383901
vt 0.06858425 0.383901
vt 0.06858425 0.383901
vt 0.06858425 0.383901
vt 0.06858425 0.383901
vt 0.06858425 0.383901
vt 0.06858425 0.383901
vt 0.06858425 0.383901
vt 0.06858425 0.383901
vt 0.06858425 0.383901
vt 0.06858425 0.383901
vt 0.06858425 0.383901
vt 0.06858425 0.383901
vt 0.06858425 0.383901
vn 0.6833127 0.6909964 0.2358129
vn 0.8069287 0.1243717 0.5774061
vn 0.2489691 0.6237421 0.7409186
vn 0.2710773 0.9036596 0.3315364
vn 0.6948611 0.7184959 -0.03052226
vn 0.9704801 -0.07551406 0.2290546
vn 0.8140762 -0.09906661 0.5722461
vn 0.3231015 -0.1075549 0.9402325
vn 0.5444357 -0.8205131 0.1742069
vn 0.2752351 -0.8216277 0.499173
vn -0.004228163 -0.8132395 0.5819137
vn 0.7910848 -0.3105317 0.5270247
vn 0.1737714 -0.9736239 0.1478517
vn 0.5609453 -0.8250896 0.06758299
vn 0.9993389 -0.03408397 0.01264299
vn -0.04331303 0.5332389 0.8448551
vn 0.01543552 0.9155964 0.4018022
vn -0.04682077 -0.1157398 0.9921754
vn 0.1226849 -0.988849 0.08441567
vn 0.5988142 -0.7745554 -0.2036801
vn 0.01003131 -0.9934616 0.1137255
vn 0.3042112 0.951806 -0.03899975
vn 0.6393441 0.7184035 -0.2741085
vn 0.06326646 0.9976962 -0.02448502
vn 0.9670397 0.007171301 -0.2545249
vn 0.7734687 0.0375399 -0.6327218
vn 0.1482946 -0.9652821 -0.2150329
vn -0.02032964 -0.9982481 0.0555651
vn 0.2685245 0.8888606 -0.3712431
vn 0.04472723 0.9068281 -0.4191208
vn 0.2151748 0.7834716 -0.5829856
vn 0.0002688288 0.7333904 -0.6798077
vn 0.2045366 -0.7539346 -0.6242976
vn 0.3176681 0.112018 -0.9415619
vn -0.05544863 -0.9719482 -0.2285651
vn -0.05047942 0.08983677 -0.9946765
vn -0.06594157 -0.7340905 -0.6758423
vn -0.01795804 -0.9696032 -0.2440227
vn 0.001129969 0.07914406 -0.9968626
vn 0.01372393 0.7261915 -0.6873554
vn -0.008376617 -0.9995739 0.02796081
vn -0.01944903 -0.739876 -0.6724621
vn 0.001054564 0.9070286 -0.4210675
vn -0.008184526 -0.9938611 0.110332
vn -0.01038066 0.9998884 -0.01074014
vn -0.002931754 0.909597 0.4154814
vn 0.007788808 0.5232323 0.8521544
vn -0.001543625 -0.1158552 0.9932649
vn 0.03431237 0.5493727 0.8348726
vn -0.03024351 0.9256286 0.3772227
vn -0.01235874 -0.8044646 0.593872
vn 0.01061011 -0.807439 0.5898557
vn -0.059228 0.9982442 0.0007508341
vn 0.04800097 -0.1271208 0.9907251
vn -0.01498043 -0.9928461 0.1184579
vn -0.01675501 -0.9996085 0.02240973
vn -0.01688114 -0.9661884 -0.2572842
vn -0.00287442 -0.7372126 -0.6756548
vn 0.05714216 0.0844994 -0.9947837
vn 0.0598334 0.7476226 -0.6614231
vn -0.3067575 0.1121354 -0.945159
vn -0.004187969 0.9255666 -0.3785616
vn -0.1388888 0.8155782 -0.5617315
vn -0.2022435 0.9329094 -0.2979557
vn -0.7741715 0.07454786 -0.6285706
vn -0.2705693 -0.7452369 -0.6094376
vn -0.2281079 -0.9370345 -0.2644486
vn -0.2739076 0.9614516 0.02419388
vn -0.1770609 -0.984151 0.009812479
vn -0.6072477 -0.7534128 -0.2522287
vn -0.6030957 0.7711942 -0.2038018
vn -0.2769539 0.9083973 0.3132262
vn -0.1887598 -0.9738674 0.1263017
vn -0.9673766 0.02839928 -0.251746
vn -0.6629341 0.7476495 0.03922482
vn -0.9996963 -0.02158435 0.0118937
vn -0.5713595 -0.8206152 -0.01178598
vn -0.2616706 0.6294062 0.7316942
vn -0.2740585 -0.8342867 0.4783906
vn -0.3243032 -0.1428007 0.9351125
vn -0.6584248 0.7154971 0.2335394
vn -0.8160346 0.119121 0.5655951
vn -0.8249726 -0.1061013 0.555124
vn -0.547938 -0.8240615 0.1438283
vn -0.7937386 -0.3258565 0.5136113
vn -0.9715755 -0.0623043 0.228384
g SM_Prop_Pillow_01_0
f 3/3/3 2/2/2 1/1/1
f 4/4/4 3/3/3 1/1/1
f 4/4/4 1/1/1 5/5/5
f 5/5/5 1/1/1 6/6/6
f 6/6/6 1/1/1 7/7/7
f 8/8/8 7/7/7 3/3/3
f 6/6/6 7/7/7 9/9/9
f 8/8/8 10/10/10 7/7/7
f 11/11/11 10/10/10 8/8/8
f 9/9/9 12/12/12 10/10/10
f 13/13/13 9/9/9 10/10/10
f 13/13/13 10/10/10 11/11/11
f 6/6/6 9/9/9 14/14/14
f 14/14/14 9/9/9 13/13/13
f 15/15/15 5/5/5 6/6/6
f 15/15/15 6/6/6 14/14/14
f 8/8/8 3/3/3 16/16/16
f 4/4/4 17/17/17 3/3/3
f 17/17/17 16/16/16 3/3/3
f 18/18/18 11/11/11 8/8/8
f 18/18/18 8/8/8 16/16/16
f 19/19/19 14/14/14 13/13/13
f 15/15/15 14/14/14 20/20/20
f 20/20/20 14/14/14 19/19/19
f 21/21/21 13/13/13 11/11/11
f 19/19/19 13/13/13 21/21/21
f 22/22/22 4/4/4 5/5/5
f 23/23/23 5/5/5 15/15/15
f 22/22/22 5/5/5 23/23/23
f 24/24/24 17/17/17 4/4/4
f 22/22/22 24/24/24 4/4/4
f 25/25/25 15/15/15 20/20/20
f 25/25/25 23/23/23 15/15/15
f 25/25/25 20/20/20 26/26/26
f 23/23/23 25/25/25 26/26/26
f 27/27/27 20/20/20 19/19/19
f 20/20/20 27/27/27 26/26/26
f 28/28/28 19/19/19 21/21/21
f 27/27/27 19/19/19 28/28/28
f 29/29/29 22/22/22 23/23/23
f 30/30/30 24/24/24 22/22/22
f 29/29/29 30/30/30 22/22/22
f 29/29/29 23/23/23 31/31/31
f 23/23/23 26/26/26 31/31/31
f 30/30/30 29/29/29 32/32/32
f 29/29/29 31/31/31 32/32/32
f 27/27/27 33/33/33 26/26/26
f 34/34/34 31/31/31 26/26/26
f 33/33/33 34/34/34 26/26/26
f 27/27/27 35/35/35 33/33/33
f 35/35/35 27/27/27 28/28/28
f 34/34/34 36/36/36 31/31/31
f 36/36/36 32/32/32 31/31/31
f 34/34/34 33/33/33 37/37/37
f 35/35/35 37/37/37 33/33/33
f 36/36/36 34/34/34 37/37/37
f 35/35/35 28/28/28 38/38/38
f 35/35/35 38/38/38 37/37/37
f 36/36/36 39/39/39 32/32/32
f 36/36/36 37/37/37 39/39/39
f 30/30/30 32/32/32 40/40/40
f 39/39/39 40/40/40 32/32/32
f 28/28/28 41/41/41 38/38/38
f 28/28/28 21/21/21 41/41/41
f 37/37/37 42/42/42 39/39/39
f 38/38/38 42/42/42 37/37/37
f 43/43/43 30/30/30 40/40/40
f 30/30/30 43/43/43 24/24/24
f 21/21/21 44/44/44 41/41/41
f 21/21/21 11/11/11 44/44/44
f 43/43/43 45/45/45 24/24/24
f 24/24/24 45/45/45 17/17/17
f 45/45/45 46/46/46 17/17/17
f 17/17/17 46/46/46 16/16/16
f 46/46/46 47/47/47 16/16/16
f 18/18/18 16/16/16 47/47/47
f 18/18/18 48/48/48 11/11/11
f 48/48/48 18/18/18 47/47/47
f 49/49/49 47/47/47 46/46/46
f 48/48/48 47/47/47 49/49/49
f 50/50/50 46/46/46 45/45/45
f 50/50/50 49/49/49 46/46/46
f 11/11/11 51/51/51 44/44/44
f 48/48/48 51/51/51 11/11/11
f 44/44/44 51/51/51 52/52/52
f 52/52/52 51/51/51 48/48/48
f 53/53/53 45/45/45 43/43/43
f 53/53/53 50/50/50 45/45/45
f 54/54/54 48/48/48 49/49/49
f 54/54/54 52/52/52 48/48/48
f 55/55/55 44/44/44 52/52/52
f 41/41/41 44/44/44 55/55/55
f 56/56/56 41/41/41 55/55/55
f 38/38/38 41/41/41 56/56/56
f 57/57/57 38/38/38 56/56/56
f 38/38/38 57/57/57 42/42/42
f 57/57/57 58/58/58 42/42/42
f 39/39/39 42/42/42 58/58/58
f 59/59/59 39/39/39 58/58/58
f 39/39/39 59/59/59 40/40/40
f 59/59/59 60/60/60 40/40/40
f 43/43/43 40/40/40 60/60/60
f 59/59/59 58/58/58 61/61/61
f 59/59/59 61/61/61 60/60/60
f 62/62/62 43/43/43 60/60/60
f 62/62/62 53/53/53 43/43/43
f 62/62/62 60/60/60 63/63/63
f 61/61/61 63/63/63 60/60/60
f 62/62/62 64/64/64 53/53/53
f 64/64/64 62/62/62 63/63/63
f 61/61/61 65/65/65 63/63/63
f 64/64/64 63/63/63 65/65/65
f 58/58/58 66/66/66 61/61/61
f 61/61/61 66/66/66 65/65/65
f 57/57/57 67/67/67 58/58/58
f 67/67/67 66/66/66 58/58/58
f 64/64/64 68/68/68 53/53/53
f 53/53/53 68/68/68 50/50/50
f 67/67/67 57/57/57 69/69/69
f 57/57/57 56/56/56 69/69/69
f 67/67/67 70/70/70 66/66/66
f 70/70/70 65/65/65 66/66/66
f 67/67/67 69/69/69 70/70/70
f 71/71/71 64/64/64 65/65/65
f 64/64/64 71/71/71 68/68/68
f 68/68/68 72/72/72 50/50/50
f 50/50/50 72/72/72 49/49/49
f 69/69/69 56/56/56 73/73/73
f 56/56/56 55/55/55 73/73/73
f 70/70/70 74/74/74 65/65/65
f 74/74/74 71/71/71 65/65/65
f 71/71/71 75/75/75 68/68/68
f 68/68/68 75/75/75 72/72/72
f 74/74/74 76/76/76 71/71/71
f 74/74/74 70/70/70 76/76/76
f 76/76/76 75/75/75 71/71/71
f 69/69/69 77/77/77 70/70/70
f 70/70/70 77/77/77 76/76/76
f 69/69/69 73/73/73 77/77/77
f 72/72/72 78/78/78 49/49/49
f 54/54/54 49/49/49 78/78/78
f 73/73/73 55/55/55 79/79/79
f 55/55/55 52/52/52 79/79/79
f 54/54/54 80/80/80 52/52/52
f 80/80/80 54/54/54 78/78/78
f 80/80/80 79/79/79 52/52/52
f 75/75/75 81/81/81 72/72/72
f 72/72/72 81/81/81 78/78/78
f 81/81/81 82/82/82 78/78/78
f 80/80/80 78/78/78 83/83/83
f 79/79/79 80/80/80 83/83/83
f 73/73/73 79/79/79 84/84/84
f 73/73/73 84/84/84 77/77/77
f 79/79/79 85/85/85 84/84/84
f 86/86/86 81/81/81 75/75/75
f 86/86/86 83/83/83 81/81/81
f 86/86/86 84/84/84 83/83/83
f 77/77/77 84/84/84 86/86/86
f 76/76/76 86/86/86 75/75/75
f 76/76/76 77/77/77 86/86/86
