g SM_Prop_NotePad_02
v 0.1446478 0.01974483 -0.02860962
v 0.1446478 0.009872413 -0.02860962
v 0.08390319 0.009872413 0.1212512
v 0.08390319 0.01780862 0.1212512
v 0.1164911 0.01780862 0.04085571
v 0.08390319 0.009872413 0.1212512
v 0.1164911 0.01780862 0.04085571
v 0.1446478 0.01974483 -0.02860962
v 0.08390319 0.01780862 0.1212512
v 0.05390472 0.01780862 0.1090918
v 0.1164911 0.01780862 0.04085571
v -0.1446481 0.009872413 0.02860718
v -0.1415478 0.01974483 0.0298645
v 0.03874328 0.01974483 0.1029468
v -0.1233105 0 0.08085327
v -0.1207361 0.009872412 0.07828247
v 0.1221951 0.009872412 0.07828247
v 0.1233032 0 0.08085327
v -0.1207361 0.009872412 0.07828247
v -0.1207361 0.009872412 -0.07827637
v 0.1221951 0.009872412 -0.07827637
v 0.1221951 0.009872412 0.07828247
v -0.1207361 0.009872412 -0.07827637
v -0.1233105 0 -0.08084472
v 0.1233032 0 -0.08084472
v 0.1221951 0.009872412 -0.07827637
v -0.1233105 0 -0.08084472
v -0.1233105 0 0.08085327
v 0.1233032 0 0.08085327
v 0.1233032 0 -0.08084472
v 0.1233032 0 0.08085327
v 0.1221951 0.009872412 0.07828247
v 0.1221951 0.009872412 -0.07827637
v 0.1233032 0 -0.08084472
v -0.1233105 0 -0.08084472
v -0.1207361 0.009872412 -0.07827637
v -0.1207361 0.009872412 0.07828247
v -0.1233105 0 0.08085327
v 0.003641357 0.01974482 0.04252075
v 0.003641357 0.02341528 0.04252075
v 0.06718688 0.02341528 0.007329101
v 0.06718688 0.01974482 0.007329101
v -0.004415893 0.02341528 0.01799805
v -0.01321564 0.02341528 0.002106934
v 0.01102081 0.02341528 -0.0113147
v 0.01982025 0.02341528 0.004575195
v -0.01943237 0.02341528 0.0008557129
v -0.01943237 0.01974482 0.0008557129
v 0.04411224 0.01974482 -0.03433472
v 0.04411224 0.02341528 -0.03433472
v -0.01943237 0.01974482 0.0008557129
v 0.003641357 0.01974482 0.04252075
v 0.06718688 0.01974482 0.007329101
v 0.04411224 0.01974482 -0.03433472
v 0.06718688 0.01974482 0.007329101
v 0.06718688 0.02341528 0.007329101
v 0.04411224 0.02341528 -0.03433472
v 0.04411224 0.01974482 -0.03433472
v -0.01943237 0.01974482 0.0008557129
v -0.01943237 0.02341528 0.0008557129
v 0.003641357 0.02341528 0.04252075
v 0.003641357 0.01974482 0.04252075
v 0.05390472 0.01780862 0.1090918
v 0.08390319 0.01780862 0.1212512
v 0.08390319 0.009872413 0.1212512
v -0.1446481 0.009872413 0.02860718
v -0.1415478 0.01974483 0.0298645
v 0.0591333 0.01974483 0.05839599
v 0.03874328 0.01974483 0.1029468
v 0.08983184 0.01974483 0.03567749
v -0.08080383 0.01974483 -0.1199951
v 0.1255862 0.01974483 0.01841675
v 0.1446478 0.01974483 -0.02860962
v -0.08080383 0.01974483 -0.1199951
v -0.08390411 0.009872413 -0.1212512
v 0.1446478 0.009872413 -0.02860962
v 0.1446478 0.01974483 -0.02860962
v -0.08390411 0.009872413 -0.1212512
v -0.1446481 0.009872413 0.02860718
v 0.08390319 0.009872413 0.1212512
v 0.1446478 0.009872413 -0.02860962
v 0.1164911 0.01780862 0.04085571
v 0.1255862 0.01974483 0.01841675
v 0.1446478 0.01974483 -0.02860962
v 0.1246378 0.02370553 0.02075684
v -0.08390411 0.009872413 -0.1212512
v -0.08080383 0.01974483 -0.1199951
v -0.1415478 0.01974483 0.0298645
v -0.1446481 0.009872413 0.02860718
v 0.1246378 0.02370553 0.02075684
v 0.0410495 0.02370553 0.1038794
v 0.06359527 0.02370553 0.05784668
v 0.08852356 0.02370553 0.03939697
v 0.1255862 0.01974483 0.01841675
v 0.1246378 0.02370553 0.02075684
v 0.08852356 0.02370553 0.03939697
v 0.08983184 0.01974483 0.03567749
v 0.08983184 0.01974483 0.03567749
v 0.08852356 0.02370553 0.03939697
v 0.06359527 0.02370553 0.05784668
v 0.0591333 0.01974483 0.05839599
v 0.0591333 0.01974483 0.05839599
v 0.06359527 0.02370553 0.05784668
v 0.0410495 0.02370553 0.1038794
v 0.03874328 0.01974483 0.1029468
v 0.0410495 0.02370553 0.1038794
v 0.1246378 0.02370553 0.02075684
v 0.1164911 0.01780862 0.04085571
v 0.05390472 0.01780862 0.1090918
v 0.03874328 0.01974483 0.1029468
v 0.0410495 0.02370553 0.1038794
v 0.05390472 0.01780862 0.1090918
v -0.1446481 0.009872413 0.02860718
v 0.003641357 0.02341528 0.04252075
v -0.004415893 0.02341528 0.01799805
v 0.01982025 0.02341528 0.004575195
v 0.06718688 0.02341528 0.007329101
v -0.01943237 0.02341528 0.0008557129
v 0.01102081 0.02341528 -0.0113147
v -0.01321564 0.02341528 0.002106934
v 0.04411224 0.02341528 -0.03433472
vt 0.1011353 0.3774414
vt 0.1011353 0.3774414
vt 0.1012573 0.3779297
vt 0.1012573 0.3779297
vt 0.1011963 0.3776855
vt 0.1012573 0.3779297
vt 0.1011963 0.3776855
vt 0.1011353 0.3774414
vt 0.1018066 0.3552246
vt 0.102356 0.3552246
vt 0.1016235 0.354248
vt 0.1021118 0.3776855
vt 0.1021729 0.3776855
vt 0.1014404 0.3779297
vt 0.1021118 0.3776855
vt 0.1021729 0.3774414
vt 0.1013184 0.3779297
vt 0.1013184 0.3779297
vt 0.3901367 0.3901367
vt 0.4157715 0.3901367
vt 0.4157715 0.3586426
vt 0.3901367 0.3586426
vt 0.1019287 0.3771973
vt 0.1018677 0.3771973
vt 0.1011353 0.3774414
vt 0.1011353 0.3774414
vt 0.1018677 0.3771973
vt 0.1021118 0.3776855
vt 0.1013184 0.3779297
vt 0.1011353 0.3774414
vt 0.1013184 0.3779297
vt 0.1013184 0.3779297
vt 0.1011353 0.3774414
vt 0.1011353 0.3774414
vt 0.1018677 0.3771973
vt 0.1019287 0.3771973
vt 0.1021729 0.3774414
vt 0.1021118 0.3776855
vt 0.1348877 0.3781738
vt 0.1348877 0.3781738
vt 0.1340332 0.378418
vt 0.1340332 0.378418
vt 0.1031494 0.2788086
vt 0.1029663 0.2783203
vt 0.1021729 0.2785645
vt 0.102356 0.2790527
vt 0.1347656 0.3779297
vt 0.1347656 0.3779297
vt 0.1339111 0.3781738
vt 0.1339111 0.3781738
vt 0.1347656 0.3779297
vt 0.1348877 0.3781738
vt 0.1340332 0.378418
vt 0.1339111 0.3781738
vt 0.1340332 0.378418
vt 0.1340332 0.378418
vt 0.1339111 0.3781738
vt 0.1339111 0.3781738
vt 0.1347656 0.3779297
vt 0.1347656 0.3779297
vt 0.1348877 0.3781738
vt 0.1348877 0.3781738
vt 0.1013794 0.3779297
vt 0.1012573 0.3779297
vt 0.1012573 0.3779297
vt 0.1021118 0.3776855
vt 0.3901367 0.3903809
vt 0.3979492 0.364502
vt 0.3901367 0.3647461
vt 0.4030762 0.3620605
vt 0.4160156 0.3903809
vt 0.4077148 0.3586426
vt 0.4160156 0.3586426
vt 0.1019897 0.3771973
vt 0.1019897 0.3771973
vt 0.1011353 0.3774414
vt 0.1011353 0.3774414
vt 0.1019897 0.3771973
vt 0.1021118 0.3776855
vt 0.1012573 0.3779297
vt 0.1011353 0.3774414
vt 0.1011963 0.3776855
vt 0.1011963 0.3774414
vt 0.1011353 0.3774414
vt 0.1011963 0.3774414
vt 0.1019897 0.3771973
vt 0.1019897 0.3771973
vt 0.1021729 0.3776855
vt 0.1021118 0.3776855
vt 0.1011963 0.3774414
vt 0.1014404 0.3779297
vt 0.1013794 0.3776855
vt 0.1012573 0.3776855
vt 0.1011963 0.3774414
vt 0.1011963 0.3774414
vt 0.1012573 0.3776855
vt 0.1012573 0.3776855
vt 0.1012573 0.3776855
vt 0.1012573 0.3776855
vt 0.1013794 0.3776855
vt 0.1013794 0.3776855
vt 0.1013794 0.3776855
vt 0.1013794 0.3776855
vt 0.1014404 0.3779297
vt 0.1014404 0.3779297
vt 0.1014404 0.3779297
vt 0.1011963 0.3774414
vt 0.1011963 0.3776855
vt 0.1013794 0.3779297
vt 0.1014404 0.3779297
vt 0.1014404 0.3779297
vt 0.1013794 0.3779297
vt 0.1021118 0.3776855
vt 0.1348877 0.3781738
vt 0.1348877 0.3781738
vt 0.1340332 0.378418
vt 0.1340332 0.378418
vt 0.1347656 0.3779297
vt 0.1339111 0.3781738
vt 0.1347656 0.3779297
vt 0.1339111 0.3781738
vn 0.9267578 0 0.3757324
vn 0.9267578 0 0.3757324
vn 0.9267578 0 0.3757324
vn 0.9267578 0 0.3757324
vn 0.9267578 -0.0001173019 0.3757324
vn 0.9267578 0 0.3757324
vn 0.9267578 -0.0001173019 0.3757324
vn 0.9267578 0 0.3757324
vn 0 1 0
vn 0 1 0
vn 0 1 0
vn -0.3757324 -5.76973E-05 0.9267578
vn -0.3757324 -5.680323E-05 0.9267578
vn -0.3757324 -0.0002342463 0.9267578
vn 0 0.2519531 0.9677734
vn 0 0.2519531 0.9677734
vn 0 0.2519531 0.9677734
vn 0 0.2519531 0.9677734
vn 0 1 0
vn 0 1 0
vn 0 1 0
vn 0 1 0
vn 0 0.251709 -0.9677734
vn 0 0.251709 -0.9677734
vn 0 0.251709 -0.9677734
vn 0 0.251709 -0.9677734
vn 0 -1 0
vn 0 -1 0
vn 0 -1 0
vn 0 -1 0
vn 0.9936523 0.1115112 0
vn 0.9936523 0.1115112 0
vn 0.9936523 0.1115112 0
vn 0.9936523 0.1115112 0
vn -0.9677734 0.2524414 0
vn -0.9677734 0.2524414 0
vn -0.9677734 0.2524414 0
vn -0.9677734 0.2524414 0
vn 0.484375 0 0.875
vn 0.484375 0 0.875
vn 0.484375 0 0.875
vn 0.484375 0 0.875
vn 0 1 0
vn 0 1 0
vn 0 1 0
vn 0 1 0
vn -0.484375 0 -0.875
vn -0.484375 0 -0.875
vn -0.484375 0 -0.875
vn -0.484375 0 -0.875
vn 0 -1 0
vn 0 -1 0
vn 0 -1 0
vn 0 -1 0
vn 0.875 0 -0.484375
vn 0.875 0 -0.484375
vn 0.875 0 -0.484375
vn 0.875 0 -0.484375
vn -0.875 0 0.484375
vn -0.875 0 0.484375
vn -0.875 0 0.484375
vn -0.875 0 0.484375
vn -0.3757324 -6.592274E-05 0.9267578
vn -0.3757324 0 0.9267578
vn -0.3757324 -3.784895E-05 0.9267578
vn -0.3757324 -5.76973E-05 0.9267578
vn 0 1 0
vn 0 1 0
vn 0 1 0
vn 0 1 0
vn 0 1 0
vn 0 1 0
vn 0 1 0
vn 0.3757324 -2.706051E-05 -0.9267578
vn 0.3757324 -2.706051E-05 -0.9267578
vn 0.3757324 -2.706051E-05 -0.9267578
vn 0.3757324 -2.706051E-05 -0.9267578
vn 0 -1 0
vn 0 -1 0
vn 0 -1 0
vn 0 -1 0
vn 0.9267578 -0.0001173019 0.3757324
vn 0.9267578 7.462502E-05 0.3757324
vn 0.9267578 0 0.3757324
vn 0.9267578 0 0.3757324
vn -0.8779297 0.3210449 -0.3557129
vn -0.8779297 0.3210449 -0.3557129
vn -0.8779297 0.3210449 -0.3557129
vn -0.8779297 0.3210449 -0.3557129
vn 0 1 0
vn 0 1 0
vn 0 1 0
vn 0 1 0
vn -0.3903809 0.4865723 -0.7817383
vn -0.3903809 0.4865723 -0.7817383
vn -0.3903809 0.4865723 -0.7817383
vn -0.3903809 0.4865723 -0.7817383
vn -0.5195313 0.4875488 -0.7016602
vn -0.5195313 0.4875488 -0.7016602
vn -0.5195313 0.4875488 -0.7016602
vn -0.5195313 0.4875488 -0.7016602
vn -0.7080078 0.6210938 -0.3356934
vn -0.7080078 0.6210938 -0.3356934
vn -0.7080078 0.6210938 -0.3356934
vn -0.7080078 0.6210938 -0.3356934
vn 0.3525391 0.871582 0.3405762
vn 0.3525391 0.871582 0.3405762
vn 0.3525391 0.871582 0.3405762
vn 0.3525391 0.871582 0.3405762
vn -0.3757324 -0.0002342463 0.9267578
vn -0.3754883 0.0004584789 0.9267578
vn -0.3757324 -6.592274E-05 0.9267578
vn -0.3757324 -5.76973E-05 0.9267578
vn 0 1 0
vn 0 1 0
vn 0 1 0
vn 0 1 0
vn 0 1 0
vn 0 1 0
vn 0 1 0
vn 0 1 0
g SM_Prop_NotePad_02_0
f 3/3/3 2/2/2 1/1/1
f 5/5/5 4/4/4 3/3/3
f 8/8/8 7/7/7 6/6/6
f 11/11/11 10/10/10 9/9/9
f 14/14/14 13/13/13 12/12/12
f 17/17/17 16/16/16 15/15/15
f 18/18/18 17/17/17 15/15/15
f 21/21/21 20/20/20 19/19/19
f 22/22/22 21/21/21 19/19/19
f 25/25/25 24/24/24 23/23/23
f 26/26/26 25/25/25 23/23/23
f 29/29/29 28/28/28 27/27/27
f 30/30/30 29/29/29 27/27/27
f 33/33/33 32/32/32 31/31/31
f 34/34/34 33/33/33 31/31/31
f 37/37/37 36/36/36 35/35/35
f 38/38/38 37/37/37 35/35/35
f 41/41/41 40/40/40 39/39/39
f 42/42/42 41/41/41 39/39/39
f 45/45/45 44/44/44 43/43/43
f 46/46/46 45/45/45 43/43/43
f 49/49/49 48/48/48 47/47/47
f 50/50/50 49/49/49 47/47/47
f 53/53/53 52/52/52 51/51/51
f 54/54/54 53/53/53 51/51/51
f 57/57/57 56/56/56 55/55/55
f 58/58/58 57/57/57 55/55/55
f 61/61/61 60/60/60 59/59/59
f 62/62/62 61/61/61 59/59/59
f 65/65/65 64/64/64 63/63/63
f 66/66/66 65/65/65 63/63/63
f 69/69/69 68/68/68 67/67/67
f 68/68/68 70/70/70 67/67/67
f 70/70/70 71/71/71 67/67/67
f 70/70/70 72/72/72 71/71/71
f 72/72/72 73/73/73 71/71/71
f 76/76/76 75/75/75 74/74/74
f 77/77/77 76/76/76 74/74/74
f 80/80/80 79/79/79 78/78/78
f 81/81/81 80/80/80 78/78/78
f 84/84/84 83/83/83 82/82/82
f 82/82/82 83/83/83 85/85/85
f 88/88/88 87/87/87 86/86/86
f 89/89/89 88/88/88 86/86/86
f 92/92/92 91/91/91 90/90/90
f 93/93/93 92/92/92 90/90/90
f 96/96/96 95/95/95 94/94/94
f 97/97/97 96/96/96 94/94/94
f 100/100/100 99/99/99 98/98/98
f 101/101/101 100/100/100 98/98/98
f 104/104/104 103/103/103 102/102/102
f 105/105/105 104/104/104 102/102/102
f 108/108/108 107/107/107 106/106/106
f 109/109/109 108/108/108 106/106/106
f 112/112/112 111/111/111 110/110/110
f 112/112/112 110/110/110 113/113/113
f 116/116/116 115/115/115 114/114/114
f 117/117/117 116/116/116 114/114/114
f 114/114/114 115/115/115 118/118/118
f 119/119/119 116/116/116 117/117/117
f 115/115/115 120/120/120 118/118/118
f 121/121/121 119/119/119 117/117/117
f 118/118/118 120/120/120 121/121/121
f 120/120/120 119/119/119 121/121/121
