g SM_Prop_Clock_01_Hand_01
v -0.00138706 0.1168217 -0.006252338
v -0.02967286 0.1141039 -0.006252338
v -0.02088224 0.1149485 -0.006252338
v -0.009390554 -0.004652489 0.006252342
v -0.02088224 0.1149485 0.006252342
v -0.00138706 0.1168217 0.006252342
v 0.01010463 -0.002779323 0.006252342
v -0.02088224 0.1149485 -0.006252338
v -0.009390554 -0.004652489 -0.00625234
v 0.01010463 -0.002779323 -0.00625234
v -0.00138706 0.1168217 -0.006252338
v -0.009390554 -0.004652489 -0.00625234
v -0.009390554 -0.004652489 0.006252342
v 0.01010463 -0.002779323 0.006252342
v 0.01010463 -0.002779323 -0.00625234
v 0.01010463 -0.002779323 0.006252342
v -0.00138706 0.1168217 0.006252342
v -0.00138706 0.1168217 -0.006252338
v 0.01010463 -0.002779323 -0.00625234
v -0.009390554 -0.004652489 -0.00625234
v -0.02088224 0.1149485 -0.006252338
v -0.02088224 0.1149485 0.006252342
v -0.009390554 -0.004652489 0.006252342
v -0.02088224 0.1149485 0.006252342
v -0.02088224 0.1149485 -0.006252338
v -0.00138706 0.1168217 -0.006252338
v -0.00138706 0.1168217 0.006252342
vt 0.08081396 0.2266825
vt 0.08101286 0.2266815
vt 0.08095072 0.2266818
vt 0.08093764 0.2273989
vt 0.08093806 0.2266787
vt 0.08079834 0.2266794
vt 0.08079921 0.2273958
vt 0.08095072 0.2266818
vt 0.08095019 0.2273865
vt 0.08081467 0.2273836
vt 0.08081396 0.2266825
vt 0.08095019 0.2273865
vt 0.08093764 0.2273989
vt 0.08079921 0.2273958
vt 0.08081467 0.2273836
vt 0.08079921 0.2273958
vt 0.08079834 0.2266794
vt 0.08081396 0.2266825
vt 0.08081467 0.2273836
vt 0.08095019 0.2273865
vt 0.08095072 0.2266818
vt 0.08093806 0.2266787
vt 0.08093764 0.2273989
vt 0.08093806 0.2266787
vt 0.08095072 0.2266818
vt 0.08081396 0.2266825
vt 0.08079834 0.2266794
vn 0 1 0
vn 0 1 0
vn 0 1 0
vn 0 0 1
vn 0 0 1
vn 0 0 1
vn 0 0 1
vn 0 0 -1
vn 0 0 -1
vn 0 0 -1
vn 0 0 -1
vn 0.09564306 -0.9954157 0
vn 0.09564306 -0.9954157 0
vn 0.09564306 -0.9954157 0
vn 0.09564306 -0.9954157 0
vn 0.9954157 0.09564307 0
vn 0.9954157 0.09564307 0
vn 0.9954157 0.09564307 0
vn 0.9954157 0.09564307 0
vn -0.9954157 -0.09564301 0
vn -0.9954157 -0.09564303 0
vn -0.9954157 -0.09564303 0
vn -0.9954157 -0.09564303 0
vn -0.09564323 0.9954157 0
vn -0.09564324 0.9954157 0
vn -0.09564323 0.9954157 0
vn -0.09564324 0.9954157 0
g SM_Prop_Clock_01_Hand_01_0
f 3/3/3 2/2/2 1/1/1
f 6/6/6 5/5/5 4/4/4
f 7/7/7 6/6/6 4/4/4
f 10/10/10 9/9/9 8/8/8
f 11/11/11 10/10/10 8/8/8
f 14/14/14 13/13/13 12/12/12
f 15/15/15 14/14/14 12/12/12
f 18/18/18 17/17/17 16/16/16
f 19/19/19 18/18/18 16/16/16
f 22/22/22 21/21/21 20/20/20
f 23/23/23 22/22/22 20/20/20
f 26/26/26 25/25/25 24/24/24
f 24/24/24 27/27/27 26/26/26
