g SM_Prop_LaptopStand_01
v -0.1855374 0.01578022 0.1669635
v 0.1855374 0.01578022 0.1669635
v 0.1855374 0 0.1669635
v -0.1855374 0 0.1669635
v 0.1858221 0.1193243 0.1705096
v 0.05651108 0.1193243 0.1727583
v 0.05651108 0.1344841 0.1727583
v 0.1858221 0.1344841 0.1705096
v -0.1858221 0.1344841 0.1705096
v -0.05651108 0.1344841 0.1727583
v -0.05651108 0.1193243 0.1727583
v -0.1858221 0.1193243 0.1705096
v -0.05651108 0.1193243 0.1727583
v -0.05651108 0.1305262 0.1854656
v 0.05651108 0.1305262 0.1854656
v 0.05651108 0.1193243 0.1727583
v 0.05651108 0.1193243 0.1727583
v 0.05651108 0.1305262 0.1854656
v 0.05651108 0.1344841 0.1727583
v 0.05651108 0.1579724 0.1773721
v 0.05651108 0.1546243 0.1903193
v 0.04627166 0.1646769 0.192344
v -0.04627166 0.1646769 0.192344
v -0.04627166 0.1680374 0.1793492
v 0.04627166 0.1680374 0.1793492
v -0.05651108 0.1344841 0.1727583
v -0.05651108 0.1305262 0.1854656
v -0.05651108 0.1193243 0.1727583
v -0.05651108 0.1546243 0.1903193
v -0.05651108 0.1579724 0.1773721
v 0.05651108 0.1579724 0.1773721
v 0.04627166 0.1680374 0.1793492
v -0.04627166 0.1680374 0.1793492
v -0.05651108 0.1579724 0.1773721
v 0.05651108 0.1344841 0.1727583
v -0.05651108 0.1344841 0.1727583
v -0.05651108 0.1305262 0.1854656
v 0.05651108 0.1546243 0.1903193
v 0.05651108 0.1305262 0.1854656
v -0.05651108 0.1546243 0.1903193
v 0.04627166 0.1646769 0.192344
v -0.04627166 0.1646769 0.192344
v 0.2181458 0.1868191 -0.08190892
v 0.2181458 0.127988 0.1376189
v 0.2181458 0.1432161 0.1376189
v 0.2181458 0.2064252 -0.09639996
v 0.2181458 0.2041175 -0.1080935
v 0.2181458 0.184495 -0.09359445
v 0.2181458 0.1934302 -0.1133706
v 0.2181458 0.1795718 -0.09707472
v 0.2181458 0.1349832 -0.08863192
v 0.2181458 0.1369035 -0.1025904
v 0.2181458 0.09262035 -0.1054389
v 0.2181458 0.09070003 -0.09148043
v 0.2181458 0.05056852 -0.1011991
v 0.2181458 0.04899906 -0.1174648
v 0.2181458 0.01316025 -0.1096511
v 0.2181458 0.029273 -0.09417294
v 0.2181458 -7.007827E-19 -0.08090623
v 0.2181458 0.01578022 -0.06539527
v 0.2181458 0.01578022 0.134355
v 0.2181458 -9.219126E-20 0.134355
v 0.2181458 0.2064252 -0.09639996
v -0.2181458 0.1432161 0.1376189
v -0.2181458 0.2064258 -0.09640256
v 0.2181458 0.1432161 0.1376189
v -0.1858221 0.1344841 0.1705096
v -0.2087111 0.1370328 0.1606754
v 0.1858221 0.1344841 0.1705096
v 0.2087111 0.1370328 0.1606754
v -0.2181458 0.2064258 -0.09640256
v -0.2181458 0.1432161 0.1376189
v -0.2181458 0.127988 0.1376189
v -0.2181458 0.1868183 -0.08190602
v -0.2181458 0.1844938 -0.09359355
v -0.2181458 0.2041187 -0.1080943
v -0.2181458 0.1795687 -0.09707472
v -0.2181458 0.1934328 -0.1133706
v -0.2181458 0.1369051 -0.1025904
v -0.2181458 0.134982 -0.08863202
v -0.2181458 0.09069824 -0.09148053
v -0.2181458 0.09262138 -0.1054389
v -0.2181458 0.04899902 -0.1174649
v -0.2181458 0.05056862 -0.1011989
v -0.2181458 0.02927303 -0.09417283
v -0.2181458 0.01316024 -0.1096512
v -0.2181458 0.01578022 -0.06539515
v -0.2181458 -7.007827E-19 -0.08090626
v -0.2181458 -9.219126E-20 0.134355
v -0.2181458 0.01578022 0.134355
v -0.2181458 0.1934328 -0.1133706
v 0.2181458 0.1934302 -0.1133706
v 0.2181458 0.2041175 -0.1080935
v -0.2181458 0.2041187 -0.1080943
v -0.2181458 0.2041187 -0.1080943
v 0.2181458 0.2041175 -0.1080935
v 0.2181458 0.2064252 -0.09639996
v -0.2181458 0.2064258 -0.09640256
v -0.2181458 0.1868183 -0.08190602
v 0.2181458 0.1868191 -0.08190892
v 0.2181458 0.184495 -0.09359445
v -0.2181458 0.1844938 -0.09359355
v -0.2181458 0.1844938 -0.09359355
v 0.2181458 0.184495 -0.09359445
v 0.2181458 0.1795718 -0.09707472
v -0.2181458 0.1795687 -0.09707472
v -0.2181458 0.134982 -0.08863202
v -0.2181458 0.1795687 -0.09707472
v 0.2181458 0.1795718 -0.09707472
v 0.2181458 0.1349832 -0.08863192
v 0.2181458 0.1369035 -0.1025904
v 0.2181458 0.1934302 -0.1133706
v -0.2181458 0.1934328 -0.1133706
v -0.2181458 0.1369051 -0.1025904
v -0.2181458 0.05056862 -0.1011989
v -0.2181458 0.09069824 -0.09148053
v 0.2181458 0.09070003 -0.09148043
v 0.2181458 0.05056852 -0.1011991
v 0.2181458 0.04899906 -0.1174648
v 0.2181458 0.09262035 -0.1054389
v -0.2181458 0.09262138 -0.1054389
v -0.2181458 0.04899902 -0.1174649
v -0.2181458 -7.007827E-19 -0.08090626
v 0.2181458 -7.007827E-19 -0.08090623
v 0.2181458 0.01316025 -0.1096511
v -0.2181458 0.01316024 -0.1096512
v -0.2181458 0.01316024 -0.1096512
v 0.2181458 0.01316025 -0.1096511
v 0.2181458 0.04899906 -0.1174648
v -0.2181458 0.04899902 -0.1174649
v -0.2181458 0.05056862 -0.1011989
v 0.2181458 0.05056852 -0.1011991
v 0.2181458 0.029273 -0.09417294
v -0.2181458 0.02927303 -0.09417283
v -0.2181458 0.02927303 -0.09417283
v 0.2181458 0.029273 -0.09417294
v 0.2181458 0.01578022 -0.06539527
v -0.2181458 0.01578022 -0.06539515
v 0.1858221 0.1344841 0.1705096
v 0.05651108 0.1344841 0.1727583
v -0.05651108 0.1344841 0.1727583
v -0.1858221 0.1344841 0.1705096
v -0.1858221 0.1193243 0.1705096
v -0.05651108 0.1193243 0.1727583
v 0.05651108 0.1193243 0.1727583
v 0.1858221 0.1193243 0.1705096
v -0.2181458 -9.219126E-20 0.134355
v -0.2181458 0.01578022 0.134355
v -0.208595 0.01578022 0.1574127
v -0.208595 -2.70022E-20 0.1574127
v -0.208595 -2.70022E-20 0.1574127
v -0.208595 0.01578022 0.1574127
v -0.1855374 0.01578022 0.1669635
v -0.1855374 0 0.1669635
v 0.1855374 0 0.1669635
v 0.1855374 0.01578022 0.1669635
v 0.208595 0.01578022 0.1574127
v 0.208595 -2.700222E-20 0.1574127
v 0.208595 -2.700222E-20 0.1574127
v 0.208595 0.01578022 0.1574127
v 0.2181458 0.01578022 0.134355
v 0.2181458 -9.219126E-20 0.134355
v 0.1858221 0.1193243 0.1705096
v 0.1858221 0.1344841 0.1705096
v 0.2087111 0.1370328 0.1606754
v 0.2087111 0.1218531 0.1606755
v 0.2087111 0.1218531 0.1606755
v 0.2087111 0.1370328 0.1606754
v 0.2181458 0.1432161 0.1376189
v 0.2181458 0.127988 0.1376189
v -0.2181458 0.127988 0.1376189
v -0.2181458 0.1432161 0.1376189
v -0.2087111 0.1370328 0.1606754
v -0.2087111 0.1218531 0.1606755
v -0.2087111 0.1218531 0.1606755
v -0.2087111 0.1370328 0.1606754
v -0.1858221 0.1344841 0.1705096
v -0.1858221 0.1193243 0.1705096
v 0.1858221 0.1193243 0.1705096
v 0.2087111 0.1218531 0.1606755
v 0.2181458 0.127988 0.1376189
v -0.2181458 0.127988 0.1376189
v -0.1858221 0.1193243 0.1705096
v -0.2087111 0.1218531 0.1606755
v -0.2181458 0.1868183 -0.08190602
v 0.2181458 0.1868191 -0.08190892
v -0.04627166 0.1680374 0.1793492
v -0.04627166 0.1646769 0.192344
v -0.05651108 0.1546243 0.1903193
v -0.05651108 0.1579724 0.1773721
v 0.05651108 0.1579724 0.1773721
v 0.05651108 0.1546243 0.1903193
v 0.04627166 0.1646769 0.192344
v 0.04627166 0.1680374 0.1793492
v 0.2181458 0.01578022 0.134355
v 0.208595 0.01578022 0.1574127
v 0.1855374 0.01578022 0.1669635
v -0.1855374 0.01578022 0.1669635
v -0.2181458 0.01578022 0.134355
v -0.208595 0.01578022 0.1574127
v -0.2181458 0.01578022 -0.06539515
v 0.2181458 0.01578022 -0.06539527
v -0.1855374 0 0.1669635
v -0.2181458 -9.219126E-20 0.134355
v -0.208595 -2.70022E-20 0.1574127
v 0.2181458 -9.219126E-20 0.134355
v 0.1855374 0 0.1669635
v 0.208595 -2.700222E-20 0.1574127
v -0.2181458 -7.007827E-19 -0.08090626
v 0.2181458 -7.007827E-19 -0.08090623
v 0.0835958 0.09968143 -0.09090272
v 0.08359579 0.1016018 -0.1048612
v 0.08359579 0.1279221 -0.1031682
v 0.0835958 0.1260017 -0.08920964
v 0.0835958 0.1260017 -0.08920964
v 0.08359579 0.1279221 -0.1031682
v -0.08359596 0.1279237 -0.1031681
v -0.08359596 0.1260006 -0.08920976
v -0.08359596 0.1260006 -0.08920976
v -0.08359596 0.1279237 -0.1031681
v -0.08359596 0.1016028 -0.1048612
v -0.08359596 0.09967972 -0.09090279
v -0.08359596 0.09967972 -0.09090279
v -0.08359596 0.1016028 -0.1048612
v 0.08359579 0.1016018 -0.1048612
v 0.0835958 0.09968143 -0.09090272
v 0.2181458 0.09070003 -0.09148043
v 0.0835958 0.09968143 -0.09090272
v 0.0835958 0.1260017 -0.08920964
v 0.2181458 0.1349832 -0.08863192
v -0.2181458 0.09069824 -0.09148053
v -0.08359596 0.1260006 -0.08920976
v -0.08359596 0.09967972 -0.09090279
v -0.2181458 0.134982 -0.08863202
v -0.2181458 0.09262138 -0.1054389
v -0.08359596 0.1016028 -0.1048612
v -0.08359596 0.1279237 -0.1031681
v -0.2181458 0.1369051 -0.1025904
v 0.2181458 0.09262035 -0.1054389
v 0.08359579 0.1279221 -0.1031682
v 0.08359579 0.1016018 -0.1048612
v 0.2181458 0.1369035 -0.1025904
vt 0.1205936 0.231111
vt 0.1197886 0.2310943
vt 0.1197935 0.2311182
vt 0.1205906 0.231135
vt 0.1197512 0.2309305
vt 0.1200496 0.2309396
vt 0.1200472 0.2309127
vt 0.1197457 0.2309037
vt 0.1206199 0.2309198
vt 0.1203136 0.2309177
vt 0.1203133 0.2309445
vt 0.1206165 0.2309467
vt 0.1203133 0.2309445
vt 0.120313 0.2309449
vt 0.1200439 0.2309398
vt 0.1200496 0.2309396
vt 0.1200496 0.2309396
vt 0.1200439 0.2309398
vt 0.1200472 0.2309127
vt 0.1200417 0.2308767
vt 0.1200382 0.2309033
vt 0.1200609 0.2308885
vt 0.1202881 0.2308927
vt 0.120289 0.2308658
vt 0.1200643 0.2308618
vt 0.1203136 0.2309177
vt 0.120313 0.2309449
vt 0.1203133 0.2309445
vt 0.1203132 0.2309084
vt 0.1203138 0.2308817
vt 0.1200417 0.2308767
vt 0.1200643 0.2308618
vt 0.120289 0.2308658
vt 0.1203138 0.2308817
vt 0.1200472 0.2309127
vt 0.1203136 0.2309177
vt 0.120313 0.2309449
vt 0.1200382 0.2309033
vt 0.1200439 0.2309398
vt 0.1203132 0.2309084
vt 0.1200609 0.2308885
vt 0.1202881 0.2308927
vt 0.1197919 0.2305055
vt 0.1196944 0.2308648
vt 0.1196884 0.2308379
vt 0.1197931 0.2304586
vt 0.119799 0.230452
vt 0.1197978 0.2304985
vt 0.1198041 0.2304654
vt 0.1198007 0.2305035
vt 0.1198089 0.2305844
vt 0.1198142 0.2305679
vt 0.1198264 0.2306339
vt 0.1198213 0.2306507
vt 0.1198347 0.2307006
vt 0.1198412 0.2306866
vt 0.1198463 0.2307453
vt 0.1198369 0.2307385
vt 0.1198386 0.2307937
vt 0.1198289 0.2307881
vt 0.1197368 0.2310427
vt 0.119742 0.2310663
vt 0.1197931 0.2304586
vt 0.1206884 0.2308556
vt 0.1206393 0.2304698
vt 0.1196884 0.2308379
vt 0.1206199 0.2309198
vt 0.1206719 0.230901
vt 0.1197457 0.2309037
vt 0.1196977 0.2308832
vt 0.1206393 0.2304698
vt 0.1206884 0.2308556
vt 0.1206843 0.2308826
vt 0.1206388 0.2305172
vt 0.1206357 0.23051
vt 0.1206362 0.230463
vt 0.1206339 0.230515
vt 0.120633 0.2304765
vt 0.1206248 0.2305796
vt 0.1206274 0.2305965
vt 0.1206188 0.230663
vt 0.1206164 0.230646
vt 0.1206068 0.2306988
vt 0.12061 0.2307131
vt 0.1206079 0.2307512
vt 0.1206024 0.2307579
vt 0.1206111 0.2308015
vt 0.1206055 0.2308068
vt 0.1206526 0.2310849
vt 0.1206561 0.2310612
vt 0.120633 0.2304765
vt 0.1198041 0.2304654
vt 0.119799 0.230452
vt 0.1206362 0.230463
vt 0.1206362 0.230463
vt 0.119799 0.230452
vt 0.1197931 0.2304586
vt 0.1206393 0.2304698
vt 0.1206388 0.2305172
vt 0.1197919 0.2305055
vt 0.1197978 0.2304985
vt 0.1206357 0.23051
vt 0.1206357 0.23051
vt 0.1197978 0.2304985
vt 0.1198007 0.2305035
vt 0.1206339 0.230515
vt 0.1206274 0.2305965
vt 0.1206339 0.230515
vt 0.1198007 0.2305035
vt 0.1198089 0.2305844
vt 0.1198142 0.2305679
vt 0.1198041 0.2304654
vt 0.120633 0.2304765
vt 0.1206248 0.2305796
vt 0.12061 0.2307131
vt 0.1206188 0.230663
vt 0.1198213 0.2306507
vt 0.1198347 0.2307006
vt 0.1198412 0.2306866
vt 0.1198264 0.2306339
vt 0.1206164 0.230646
vt 0.1206068 0.2306988
vt 0.1206055 0.2308068
vt 0.1198386 0.2307937
vt 0.1198463 0.2307453
vt 0.1206024 0.2307579
vt 0.1206024 0.2307579
vt 0.1198463 0.2307453
vt 0.1198412 0.2306866
vt 0.1206068 0.2306988
vt 0.12061 0.2307131
vt 0.1198347 0.2307006
vt 0.1198369 0.2307385
vt 0.1206079 0.2307512
vt 0.1206079 0.2307512
vt 0.1198369 0.2307385
vt 0.1198289 0.2307881
vt 0.1206111 0.2308015
vt 0.1197457 0.2309037
vt 0.1200472 0.2309127
vt 0.1203136 0.2309177
vt 0.1206199 0.2309198
vt 0.1206165 0.2309467
vt 0.1203133 0.2309445
vt 0.1200496 0.2309396
vt 0.1197512 0.2309305
vt 0.1206526 0.2310849
vt 0.1206561 0.2310612
vt 0.1206416 0.2310967
vt 0.1206382 0.2311206
vt 0.1206382 0.2311206
vt 0.1206416 0.2310967
vt 0.1205936 0.231111
vt 0.1205906 0.231135
vt 0.1197935 0.2311182
vt 0.1197886 0.2310943
vt 0.1197443 0.2310783
vt 0.1197496 0.2311021
vt 0.1197496 0.2311021
vt 0.1197443 0.2310783
vt 0.1197368 0.2310427
vt 0.119742 0.2310663
vt 0.1197512 0.2309305
vt 0.1197457 0.2309037
vt 0.1196977 0.2308832
vt 0.1197037 0.23091
vt 0.1197037 0.23091
vt 0.1196977 0.2308832
vt 0.1196884 0.2308379
vt 0.1196944 0.2308648
vt 0.1206843 0.2308826
vt 0.1206884 0.2308556
vt 0.1206719 0.230901
vt 0.120668 0.2309279
vt 0.120668 0.2309279
vt 0.1206719 0.230901
vt 0.1206199 0.2309198
vt 0.1206165 0.2309467
vt 0.1197512 0.2309305
vt 0.1197037 0.23091
vt 0.1196944 0.2308648
vt 0.1206843 0.2308826
vt 0.1206165 0.2309467
vt 0.120668 0.2309279
vt 0.1206388 0.2305172
vt 0.1197919 0.2305055
vt 0.120289 0.2308658
vt 0.1202881 0.2308927
vt 0.1203132 0.2309084
vt 0.1203138 0.2308817
vt 0.1200417 0.2308767
vt 0.1200382 0.2309033
vt 0.1200609 0.2308885
vt 0.1200643 0.2308618
vt 0.1197368 0.2310427
vt 0.1197443 0.2310783
vt 0.1197886 0.2310943
vt 0.1205936 0.231111
vt 0.1206561 0.2310612
vt 0.1206416 0.2310967
vt 0.1206111 0.2308015
vt 0.1198289 0.2307881
vt 0.1205906 0.231135
vt 0.1206526 0.2310849
vt 0.1206382 0.2311206
vt 0.119742 0.2310663
vt 0.1197935 0.2311182
vt 0.1197496 0.2311021
vt 0.1206055 0.2308068
vt 0.1198386 0.2307937
vt 0.1198213 0.2306507
vt 0.1198264 0.2306339
vt 0.1198142 0.2305679
vt 0.1198089 0.2305844
vt 0.1198089 0.2305844
vt 0.1198142 0.2305679
vt 0.1206248 0.2305796
vt 0.1206274 0.2305965
vt 0.1206274 0.2305965
vt 0.1206248 0.2305796
vt 0.1206164 0.230646
vt 0.1206188 0.230663
vt 0.1206188 0.230663
vt 0.1206164 0.230646
vt 0.1198264 0.2306339
vt 0.1198213 0.2306507
vt 0.1198213 0.2306507
vt 0.1198213 0.2306507
vt 0.1198089 0.2305844
vt 0.1198089 0.2305844
vt 0.1206188 0.230663
vt 0.1206274 0.2305965
vt 0.1206188 0.230663
vt 0.1206274 0.2305965
vt 0.1206164 0.230646
vt 0.1206164 0.230646
vt 0.1206248 0.2305796
vt 0.1206248 0.2305796
vt 0.1198264 0.2306339
vt 0.1198142 0.2305679
vt 0.1198264 0.2306339
vt 0.1198142 0.2305679
vn 0 0 1
vn 0 0 1
vn 0 0 1
vn 0 0 1
vn 0.01738713 0 0.9998488
vn 0.01738713 0 0.9998488
vn 0.01738713 0 0.9998488
vn 0.01738713 0 0.9998488
vn -0.01738713 0 0.9998488
vn -0.01738713 0 0.9998488
vn -0.01738713 0 0.9998488
vn -0.01738713 0 0.9998488
vn 0 -0.7501455 0.6612728
vn 0 -0.7501455 0.6612728
vn 0 -0.7501455 0.6612728
vn 0 -0.7501455 0.6612728
vn 1 0 0
vn 1 0 0
vn 1 0 0
vn 1 0 0
vn 1 0 0
vn 0 0.9681505 0.2503688
vn 0 0.9681505 0.2503688
vn 0 0.9681505 0.2503688
vn 0 0.9681505 0.2503688
vn -1 0 0
vn -1 0 0
vn -1 0 0
vn -1 0 0
vn -1 0 0
vn 0 0.1927469 -0.9812485
vn 0 0.1927461 -0.9812487
vn 0 0.1927461 -0.9812487
vn 0 0.1927469 -0.9812485
vn 0 0.1927471 -0.9812485
vn 0 0.1927471 -0.9812485
vn 0 -0.1974459 0.9803138
vn 0 -0.1974458 0.9803138
vn 0 -0.1974459 0.9803138
vn 0 -0.1974458 0.9803138
vn 0 -0.1974454 0.9803138
vn 0 -0.1974454 0.9803138
vn 1 0 0
vn 1 0 0
vn 1 0 0
vn 1 0 0
vn 1 0 0
vn 1 0 0
vn 1 0 0
vn 1 0 0
vn 1 0 0
vn 1 0 0
vn 1 0 0
vn 1 0 0
vn 1 0 0
vn 1 0 0
vn 1 0 0
vn 1 0 0
vn 1 0 0
vn 1 0 0
vn 1 0 0
vn 1 0 0
vn 0 0.9654042 0.2607582
vn 0 0.9654748 0.2604967
vn 0 0.9654042 0.2607582
vn 0 0.9654748 0.2604967
vn -1.251663E-05 0.9665155 0.2566079
vn -0.004537262 0.9653938 0.2607569
vn 1.251663E-05 0.9665155 0.2566079
vn 0.004537262 0.9653938 0.2607569
vn -1 0 0
vn -1 0 0
vn -1 0 0
vn -1 0 0
vn -1 0 0
vn -1 0 0
vn -1 0 0
vn -1 0 0
vn -1 0 0
vn -1 0 0
vn -1 0 0
vn -1 0 0
vn -1 0 0
vn -1 0 0
vn -1 0 0
vn -1 0 0
vn -1 0 0
vn -1 0 0
vn -1 0 0
vn -1 0 0
vn 0 0.442736 -0.896652
vn 0 0.442736 -0.896652
vn 0 0.442736 -0.896652
vn 0 0.442736 -0.896652
vn 0 0.9810787 -0.1936094
vn 0 0.9810787 -0.1936094
vn 0 0.9810787 -0.1936094
vn 0 0.9810787 -0.1936094
vn 0 -0.9807901 0.1950662
vn 0 -0.9807901 0.1950662
vn 0 -0.9807901 0.1950662
vn 0 -0.9807901 0.1950662
vn 0 -0.5772198 0.8165888
vn 0 -0.5772198 0.8165888
vn 0 -0.5772198 0.8165888
vn 0 -0.5772198 0.8165888
vn 0 0.186046 0.982541
vn 0 0.186046 0.982541
vn 0 0.186046 0.982541
vn 0 0.186046 0.982541
vn 0 -0.1873318 -0.9822966
vn 0 -0.1873318 -0.9822966
vn 0 -0.1873318 -0.9822968
vn 0 -0.1873318 -0.9822966
vn 0 -0.2353686 0.9719062
vn 0 -0.2353686 0.9719062
vn 0 -0.2353686 0.9719062
vn 0 -0.2353686 0.9719062
vn 0 0.2657715 -0.964036
vn 0 0.2657715 -0.964036
vn 0 0.2657715 -0.964036
vn 0 0.2657715 -0.964036
vn 0 -0.9092384 -0.4162757
vn 0 -0.9092384 -0.4162757
vn 0 -0.9092384 -0.4162757
vn 0 -0.9092384 -0.4162757
vn 0 -0.2130202 -0.9770478
vn 0 -0.2130202 -0.9770478
vn 0 -0.2130202 -0.9770478
vn 0 -0.2130202 -0.9770478
vn 0 0.3133199 0.9496477
vn 0 0.3133198 0.9496477
vn 0 0.3133198 0.9496477
vn 0 0.3133199 0.9496477
vn 0 0.9054195 0.424518
vn 0 0.9054195 0.4245181
vn 0 0.9054195 0.424518
vn 0 0.9054195 0.4245181
vn 0 1 0
vn 0 1 0
vn 0 1 0
vn 0 1 0
vn 0 -1 0
vn 0 -1 0
vn 0 -1 0
vn 0 -1 0
vn -0.9238796 0 0.3826831
vn -0.9238796 0 0.3826831
vn -0.9238796 0 0.3826831
vn -0.9238796 0 0.3826831
vn -0.3826833 0 0.9238795
vn -0.3826833 0 0.9238795
vn -0.3826833 0 0.9238795
vn -0.3826833 0 0.9238795
vn 0.3826833 0 0.9238795
vn 0.3826833 0 0.9238795
vn 0.3826833 0 0.9238795
vn 0.3826833 0 0.9238795
vn 0.9238796 0 0.3826831
vn 0.9238796 0 0.3826831
vn 0.9238796 0 0.3826831
vn 0.9238796 0 0.3826831
vn 0.3947529 0 0.9187873
vn 0.3947529 0 0.9187873
vn 0.3947529 0 0.9187873
vn 0.394753 0 0.9187873
vn 0.9255117 0 0.3787188
vn 0.9255117 0 0.3787188
vn 0.9255117 0 0.3787188
vn 0.9255117 0 0.3787188
vn -0.9255117 0 0.3787188
vn -0.9255117 0 0.3787188
vn -0.9255117 0 0.3787188
vn -0.9255117 0 0.3787188
vn -0.394753 0 0.9187873
vn -0.3947529 0 0.9187873
vn -0.3947529 0 0.9187873
vn -0.3947529 0 0.9187873
vn -1.241223E-05 -0.9670123 -0.2547299
vn -0.004500821 -0.965907 -0.2588498
vn 0 -0.96599 -0.2585794
vn 0 -0.96599 -0.2585793
vn 1.241223E-05 -0.9670123 -0.2547299
vn 0.004500821 -0.965907 -0.2588498
vn 0 -0.9659162 -0.2588552
vn 0 -0.9659162 -0.2588552
vn -0.7071066 0.6845862 0.1770365
vn -0.7071066 0.6845862 0.1770365
vn -0.7071066 0.6845862 0.1770365
vn -0.7071066 0.6845862 0.1770365
vn 0.7071066 0.6845862 0.1770365
vn 0.7071066 0.6845862 0.1770365
vn 0.7071066 0.6845862 0.1770365
vn 0.7071066 0.6845862 0.1770365
vn 0 1 0
vn 0 1 0
vn 0 1 0
vn 0 1 0
vn 0 1 0
vn 0 1 0
vn 0 1 0
vn 0 1 0
vn 0 -1 0
vn 0 -1 0
vn 0 -1 0
vn 0 -1 0
vn 0 -1 0
vn 0 -1 0
vn 0 -1 0
vn 0 -1 0
vn -1 0 0
vn -1 0 0
vn -1 0 0
vn -1 0 0
vn 0 -0.9906554 -0.1363887
vn 0 -0.9906554 -0.1363887
vn 0 -0.9906554 -0.1363887
vn 0 -0.9906554 -0.1363887
vn 1 0 0
vn 1 0 0
vn 1 0 0
vn 1 0 0
vn 0 0.9906555 0.1363885
vn 0 0.9906555 0.1363885
vn 0 0.9906555 0.1363885
vn 0 0.9906555 0.1363885
vn 0 -0.06419258 0.9979376
vn 0 -0.06419219 0.9979376
vn 0 -0.0641922 0.9979376
vn 0 -0.06419257 0.9979376
vn 0 -0.06419104 0.9979377
vn 0 -0.06419144 0.9979376
vn 0 -0.06419144 0.9979376
vn 0 -0.06419104 0.9979377
vn 0 0.06419156 -0.9979376
vn 0 0.06419116 -0.9979377
vn 0 0.06419117 -0.9979377
vn 0 0.06419156 -0.9979376
vn 0 0.06419251 -0.9979376
vn 0 0.06419163 -0.9979376
vn 0 0.06419163 -0.9979376
vn 0 0.06419251 -0.9979376
g SM_Prop_LaptopStand_01_0
f 3/3/3 2/2/2 1/1/1
f 4/4/4 3/3/3 1/1/1
f 7/7/7 6/6/6 5/5/5
f 8/8/8 7/7/7 5/5/5
f 11/11/11 10/10/10 9/9/9
f 12/12/12 11/11/11 9/9/9
f 15/15/15 14/14/14 13/13/13
f 16/16/16 15/15/15 13/13/13
f 19/19/19 18/18/18 17/17/17
f 19/19/19 20/20/20 18/18/18
f 20/20/20 21/21/21 18/18/18
f 24/24/24 23/23/23 22/22/22
f 25/25/25 24/24/24 22/22/22
f 28/28/28 27/27/27 26/26/26
f 27/27/27 29/29/29 26/26/26
f 29/29/29 30/30/30 26/26/26
f 33/33/33 32/32/32 31/31/31
f 34/34/34 33/33/33 31/31/31
f 34/34/34 31/31/31 35/35/35
f 36/36/36 34/34/34 35/35/35
f 39/39/39 38/38/38 37/37/37
f 38/38/38 40/40/40 37/37/37
f 38/38/38 41/41/41 40/40/40
f 41/41/41 42/42/42 40/40/40
f 45/45/45 44/44/44 43/43/43
f 46/46/46 45/45/45 43/43/43
f 46/46/46 43/43/43 47/47/47
f 43/43/43 48/48/48 47/47/47
f 47/47/47 48/48/48 49/49/49
f 48/48/48 50/50/50 49/49/49
f 49/49/49 50/50/50 51/51/51
f 52/52/52 49/49/49 51/51/51
f 53/53/53 52/52/52 51/51/51
f 54/54/54 53/53/53 51/51/51
f 53/53/53 54/54/54 55/55/55
f 56/56/56 53/53/53 55/55/55
f 56/56/56 55/55/55 57/57/57
f 55/55/55 58/58/58 57/57/57
f 57/57/57 58/58/58 59/59/59
f 58/58/58 60/60/60 59/59/59
f 59/59/59 60/60/60 61/61/61
f 62/62/62 59/59/59 61/61/61
f 65/65/65 64/64/64 63/63/63
f 64/64/64 66/66/66 63/63/63
f 64/64/64 67/67/67 66/66/66
f 64/64/64 68/68/68 67/67/67
f 67/67/67 69/69/69 66/66/66
f 70/70/70 66/66/66 69/69/69
f 73/73/73 72/72/72 71/71/71
f 74/74/74 73/73/73 71/71/71
f 75/75/75 74/74/74 71/71/71
f 76/76/76 75/75/75 71/71/71
f 77/77/77 75/75/75 76/76/76
f 78/78/78 77/77/77 76/76/76
f 77/77/77 78/78/78 79/79/79
f 80/80/80 77/77/77 79/79/79
f 80/80/80 79/79/79 81/81/81
f 79/79/79 82/82/82 81/81/81
f 81/81/81 82/82/82 83/83/83
f 84/84/84 81/81/81 83/83/83
f 85/85/85 84/84/84 83/83/83
f 86/86/86 85/85/85 83/83/83
f 87/87/87 85/85/85 86/86/86
f 88/88/88 87/87/87 86/86/86
f 88/88/88 89/89/89 87/87/87
f 89/89/89 90/90/90 87/87/87
f 93/93/93 92/92/92 91/91/91
f 94/94/94 93/93/93 91/91/91
f 97/97/97 96/96/96 95/95/95
f 98/98/98 97/97/97 95/95/95
f 101/101/101 100/100/100 99/99/99
f 102/102/102 101/101/101 99/99/99
f 105/105/105 104/104/104 103/103/103
f 106/106/106 105/105/105 103/103/103
f 109/109/109 108/108/108 107/107/107
f 110/110/110 109/109/109 107/107/107
f 113/113/113 112/112/112 111/111/111
f 114/114/114 113/113/113 111/111/111
f 117/117/117 116/116/116 115/115/115
f 118/118/118 117/117/117 115/115/115
f 121/121/121 120/120/120 119/119/119
f 122/122/122 121/121/121 119/119/119
f 125/125/125 124/124/124 123/123/123
f 126/126/126 125/125/125 123/123/123
f 129/129/129 128/128/128 127/127/127
f 130/130/130 129/129/129 127/127/127
f 133/133/133 132/132/132 131/131/131
f 134/134/134 133/133/133 131/131/131
f 137/137/137 136/136/136 135/135/135
f 138/138/138 137/137/137 135/135/135
f 141/141/141 140/140/140 139/139/139
f 142/142/142 141/141/141 139/139/139
f 145/145/145 144/144/144 143/143/143
f 146/146/146 145/145/145 143/143/143
f 149/149/149 148/148/148 147/147/147
f 150/150/150 149/149/149 147/147/147
f 153/153/153 152/152/152 151/151/151
f 154/154/154 153/153/153 151/151/151
f 157/157/157 156/156/156 155/155/155
f 158/158/158 157/157/157 155/155/155
f 161/161/161 160/160/160 159/159/159
f 162/162/162 161/161/161 159/159/159
f 165/165/165 164/164/164 163/163/163
f 166/166/166 165/165/165 163/163/163
f 169/169/169 168/168/168 167/167/167
f 170/170/170 169/169/169 167/167/167
f 173/173/173 172/172/172 171/171/171
f 174/174/174 173/173/173 171/171/171
f 177/177/177 176/176/176 175/175/175
f 178/178/178 177/177/177 175/175/175
f 181/181/181 180/180/180 179/179/179
f 181/181/181 179/179/179 182/182/182
f 179/179/179 183/183/183 182/182/182
f 184/184/184 182/182/182 183/183/183
f 181/181/181 182/182/182 185/185/185
f 186/186/186 181/181/181 185/185/185
f 189/189/189 188/188/188 187/187/187
f 190/190/190 189/189/189 187/187/187
f 193/193/193 192/192/192 191/191/191
f 194/194/194 193/193/193 191/191/191
f 197/197/197 196/196/196 195/195/195
f 198/198/198 197/197/197 195/195/195
f 199/199/199 198/198/198 195/195/195
f 199/199/199 200/200/200 198/198/198
f 201/201/201 199/199/199 195/195/195
f 202/202/202 201/201/201 195/195/195
f 205/205/205 204/204/204 203/203/203
f 204/204/204 206/206/206 203/203/203
f 206/206/206 207/207/207 203/203/203
f 206/206/206 208/208/208 207/207/207
f 204/204/204 209/209/209 206/206/206
f 209/209/209 210/210/210 206/206/206
f 213/213/213 212/212/212 211/211/211
f 214/214/214 213/213/213 211/211/211
f 217/217/217 216/216/216 215/215/215
f 218/218/218 217/217/217 215/215/215
f 221/221/221 220/220/220 219/219/219
f 222/222/222 221/221/221 219/219/219
f 225/225/225 224/224/224 223/223/223
f 226/226/226 225/225/225 223/223/223
f 229/229/229 228/228/228 227/227/227
f 230/230/230 229/229/229 227/227/227
f 227/227/227 228/228/228 231/231/231
f 232/232/232 229/229/229 230/230/230
f 228/228/228 233/233/233 231/231/231
f 234/234/234 232/232/232 230/230/230
f 231/231/231 233/233/233 234/234/234
f 233/233/233 232/232/232 234/234/234
f 237/237/237 236/236/236 235/235/235
f 238/238/238 237/237/237 235/235/235
f 235/235/235 236/236/236 239/239/239
f 240/240/240 237/237/237 238/238/238
f 236/236/236 241/241/241 239/239/239
f 242/242/242 240/240/240 238/238/238
f 239/239/239 241/241/241 242/242/242
f 241/241/241 240/240/240 242/242/242
