g SM_Prop_Art_03
v 0.05844665 0.2266333 0.006716309
v 0.06184387 0.2264261 0.006716309
v 0.0693695 0.2259668 0.006716309
v -0.01864441 0.2310553 0.006716309
v -0.006026001 0.249498 0.006716309
v 0.01335937 0.2225519 0.006716919
v -0.009781494 0.1970819 0.006716919
v -0.07794006 0.1625104 0.006716309
v -0.006920166 0.1591052 0.006716919
v -0.0920575 0.2201858 0.006716309
v -0.04656799 0.258671 0.006716309
v -0.04405334 0.1279047 0.006716309
v -0.06713867 0.09192749 0.006716919
v -0.08041687 0.09192749 0.006716309
v -0.01031189 0.1216934 0.006716309
v 0.04769531 0.123237 0.006716919
v 0.04810547 0.1534869 0.006716919
v -0.04656799 0.258671 0.006716309
v -0.04716492 0.281192 0.006716309
v -0.03045166 0.2680743 0.006716919
v -0.01864441 0.2310553 0.006716309
v -0.006026001 0.249498 0.006716309
v -0.0307428 0.2886404 0.006716309
v -0.003170776 0.2633731 0.006716309
v 0.004033203 0.2983887 0.006716919
v 0.00920227 0.2626047 0.006716309
v 0.01244202 0.2431375 0.006716309
v 0.01617432 0.2745621 0.006716919
v 0.02734558 0.2719913 0.006716309
v 0.01335937 0.2225519 0.006716919
v 0.041297 0.2304306 0.006716309
v -0.05134094 0.3035296 0.006716309
v -0.02329895 0.3167316 0.006716309
v 0.004033203 0.2983887 0.006716919
v -0.0307428 0.2886404 0.006716309
v -0.04716492 0.281192 0.006716309
v -0.03045166 0.2680743 0.006716919
v 0.01617432 0.2745621 0.006716919
v 0.00920227 0.2626047 0.006716309
v 0.02734558 0.2719913 0.006716309
v 0.0276477 0.3067923 0.006716919
v 0.04679504 0.2907776 0.006716309
v 0.041297 0.2304306 0.006716309
v 0.05357483 0.2398993 0.006716309
v 0.05844665 0.2266333 0.006716309
v 0.06972351 0.1959271 0.006716309
v 0.01335937 0.2225519 0.006716919
v -0.006026001 0.249498 0.006716309
v -0.003170776 0.2633731 0.006716309
v 0.01244202 0.2431375 0.006716309
v -0.1372589 0.09192749 0.006716309
v -0.07794006 0.1625104 0.006716309
v -0.08041687 0.09192749 0.006716309
v -0.0920575 0.2201858 0.006716309
v -0.1051532 0.3145376 0.006716309
v -0.1372589 0.4230884 0.006716309
v -0.04339539 0.3711679 0.006716309
v 0.05833923 0.3956796 0.006716309
v 0.1372577 0.4230884 0.006715088
v 0.1372577 0.3674448 0.006715088
v -0.05134094 0.3035296 0.006716309
v -0.04716492 0.281192 0.006716309
v -0.04656799 0.258671 0.006716309
v -0.02329895 0.3167316 0.006716309
v -0.0225647 0.3198648 0.006716919
v 0.0276477 0.3067923 0.006716919
v 0.004033203 0.2983887 0.006716919
v 0.04549011 0.3242542 0.006716309
v 0.04679504 0.2907776 0.006716309
v 0.05039612 0.2949057 0.006716309
v 0.05357483 0.2398993 0.006716309
v 0.05844665 0.2266333 0.006716309
v 0.06184387 0.2264261 0.006716309
v -0.01355591 0.09192749 0.006716919
v -0.01031189 0.1216934 0.006716309
v 0.04769531 0.123237 0.006716919
v 0.06018005 0.1062357 0.006716309
v 0.06263001 0.09192749 0.006716309
v -0.01355591 0.09192749 0.006716919
v -0.06713867 0.09192749 0.006716919
v -0.04405334 0.1279047 0.006716309
v -0.01031189 0.1216934 0.006716309
v 0.06018005 0.1062357 0.006716309
v 0.04769531 0.123237 0.006716919
v 0.04810547 0.1534869 0.006716919
v 0.06972351 0.1959271 0.006716309
v 0.1372577 0.09192749 0.006715088
v 0.06263001 0.09192749 0.006716309
v 0.1372577 0.2406171 0.006715088
v 0.07876159 0.2067474 0.006716309
v 0.07361023 0.225708 0.006716309
v 0.1372577 0.3397433 0.006715088
v 0.07361023 0.225708 0.006716309
v 0.07876159 0.2067474 0.006716309
v 0.06972351 0.1959271 0.006716309
v 0.0693695 0.2259668 0.006716309
v 0.05844665 0.2266333 0.006716309
v 0.05039612 0.2949057 0.006716309
v 0.04549011 0.3242542 0.006716309
v 0.05666199 0.3261398 0.006716309
v 0.06047363 0.296088 0.006716919
v 0.0693695 0.2259668 0.006716309
v 0.06184387 0.2264261 0.006716309
v -0.009781494 0.1970819 0.006716919
v 0.01335937 0.2225519 0.006716919
v 0.041297 0.2304306 0.006716309
v 0.06972351 0.1959271 0.006716309
v 0.04810547 0.1534869 0.006716919
v -0.006920166 0.1591052 0.006716919
v -0.0225647 0.3198648 0.006716919
v -0.1051532 0.3145376 0.006716309
v -0.04339539 0.3711679 0.006716309
v 0.04549011 0.3242542 0.006716309
v 0.05833923 0.3956796 0.006716309
v 0.05666199 0.3261398 0.006716309
v 0.1372577 0.3674448 0.006715088
v 0.1372577 0.3397433 0.006715088
v 0.1372577 0.3397433 0.006715088
v 0.07361023 0.225708 0.006716309
v 0.0693695 0.2259668 0.006716309
v 0.06047363 0.296088 0.006716919
v 0.05666199 0.3261398 0.006716309
v 0.2306299 -3.051758E-07 -0.0247821
v 0.2306299 0.5150158 -0.0247821
v -0.2306317 0.5150158 -0.02478271
v -0.2306317 -3.051758E-07 -0.02478271
v 0.2306299 0.5150158 -0.0247821
v 0.2306299 0.5150158 0.0247821
v -0.2306317 0.5150158 0.02478149
v -0.2306317 0.5150158 -0.02478271
v 0.2306299 -3.051758E-07 0.0247821
v 0.2306299 -3.051758E-07 -0.0247821
v -0.2306317 -3.051758E-07 -0.02478271
v -0.2306317 -3.051758E-07 0.02478149
v -0.2306317 -3.051758E-07 -0.02478271
v -0.2306317 0.5150158 -0.02478271
v -0.2306317 0.5150158 0.02478149
v -0.2306317 -3.051758E-07 0.02478149
v 0.2306299 -3.051758E-07 0.0247821
v 0.2306299 0.5150158 0.0247821
v 0.2306299 0.5150158 -0.0247821
v 0.2306299 -3.051758E-07 -0.0247821
v 0.1928119 0.475148 0.02478149
v 0.1838122 0.4662573 0.006716919
v -0.1838141 0.4662573 0.006716309
v -0.1928137 0.475148 0.0247821
v -0.1928137 0.475148 0.0247821
v -0.1838141 0.4662573 0.006716309
v -0.1838141 0.04875885 0.006716309
v -0.1928137 0.03986877 0.0247821
v -0.1928137 0.03986877 0.0247821
v -0.1838141 0.04875885 0.006716309
v 0.1838122 0.04875885 0.006716919
v 0.1928119 0.03986877 0.02478149
v 0.1928119 0.03986877 0.02478149
v 0.1838122 0.04875885 0.006716919
v 0.1838122 0.4662573 0.006716919
v 0.1928119 0.475148 0.02478149
v 0.2306299 0.5150158 0.0247821
v 0.1928119 0.475148 0.02478149
v -0.1928137 0.475148 0.0247821
v -0.2306317 0.5150158 0.02478149
v 0.2306299 -3.051758E-07 0.0247821
v -0.1928137 0.03986877 0.0247821
v 0.1928119 0.03986877 0.02478149
v -0.2306317 -3.051758E-07 0.02478149
v 0.1838122 0.4662573 0.006716919
v 0.1372577 0.4230884 0.006716309
v -0.1372595 0.4230884 0.006716919
v -0.1838141 0.4662573 0.006716309
v 0.1838122 0.04875885 0.006716919
v -0.1372595 0.0919278 0.006716919
v 0.1372577 0.0919278 0.006716309
v -0.1838141 0.04875885 0.006716309
vt 0.03765869 0.3769531
vt 0.03765869 0.3769531
vt 0.03765869 0.3769531
vt 0.0390625 0.2312012
vt 0.0390625 0.2312012
vt 0.0390625 0.2312012
vt 0.0390625 0.2312012
vt 0.0390625 0.2312012
vt 0.0390625 0.2312012
vt 0.0390625 0.2312012
vt 0.0390625 0.2312012
vt 0.0390625 0.2312012
vt 0.0390625 0.2312012
vt 0.0390625 0.2312012
vt 0.0390625 0.2312012
vt 0.03912354 0.2312012
vt 0.03912354 0.2312012
vt 0.03845215 0.378418
vt 0.03845215 0.378418
vt 0.03845215 0.378418
vt 0.03845215 0.378418
vt 0.03845215 0.378418
vt 0.03845215 0.378418
vt 0.03845215 0.378418
vt 0.03845215 0.378418
vt 0.03845215 0.378418
vt 0.03845215 0.378418
vt 0.03845215 0.378418
vt 0.03845215 0.378418
vt 0.03845215 0.378418
vt 0.03839111 0.378418
vt 0.0390625 0.2312012
vt 0.0390625 0.2312012
vt 0.0390625 0.2312012
vt 0.0390625 0.2312012
vt 0.0390625 0.2312012
vt 0.0390625 0.2312012
vt 0.0390625 0.2312012
vt 0.0390625 0.2312012
vt 0.0390625 0.2312012
vt 0.0390625 0.2312012
vt 0.03912354 0.2312012
vt 0.03912354 0.2312012
vt 0.03912354 0.2312012
vt 0.03912354 0.2312012
vt 0.03912354 0.2312012
vt 0.07012939 0.3051758
vt 0.07012939 0.3051758
vt 0.07012939 0.3051758
vt 0.07012939 0.3051758
vt 0.07012939 0.3051758
vt 0.07012939 0.3051758
vt 0.07012939 0.3051758
vt 0.07012939 0.3051758
vt 0.07012939 0.3051758
vt 0.07012939 0.3051758
vt 0.07012939 0.3051758
vt 0.07012939 0.3051758
vt 0.07012939 0.3051758
vt 0.07012939 0.3051758
vt 0.07012939 0.3051758
vt 0.07012939 0.3051758
vt 0.07012939 0.3051758
vt 0.07012939 0.3051758
vt 0.07012939 0.3051758
vt 0.07012939 0.3051758
vt 0.07012939 0.3051758
vt 0.07012939 0.3051758
vt 0.07012939 0.3051758
vt 0.07012939 0.3051758
vt 0.07012939 0.3051758
vt 0.07012939 0.3051758
vt 0.07012939 0.3051758
vt 0.03527832 0.3044434
vt 0.03527832 0.3044434
vt 0.03540039 0.3044434
vt 0.03540039 0.3044434
vt 0.03540039 0.3044434
vt 0.04589844 0.3325195
vt 0.04589844 0.3325195
vt 0.04589844 0.3325195
vt 0.04589844 0.3325195
vt 0.07012939 0.3051758
vt 0.07012939 0.3051758
vt 0.07012939 0.3051758
vt 0.07012939 0.3051758
vt 0.07012939 0.3051758
vt 0.07012939 0.3051758
vt 0.07012939 0.3051758
vt 0.07012939 0.3051758
vt 0.07012939 0.3051758
vt 0.07012939 0.3051758
vt 0.03765869 0.3769531
vt 0.03765869 0.3769531
vt 0.03765869 0.3769531
vt 0.03765869 0.3769531
vt 0.03765869 0.3769531
vt 0.1026001 0.2297363
vt 0.1026001 0.2297363
vt 0.1026001 0.2297363
vt 0.1026001 0.2297363
vt 0.1026001 0.2297363
vt 0.1026001 0.2297363
vt 0.03527832 0.3044434
vt 0.03527832 0.3044434
vt 0.03540039 0.3044434
vt 0.03540039 0.3044434
vt 0.03540039 0.3044434
vt 0.03527832 0.3044434
vt 0.1468506 0.4465332
vt 0.1468506 0.4465332
vt 0.1468506 0.4465332
vt 0.1469727 0.4465332
vt 0.1469727 0.4465332
vt 0.1469727 0.4465332
vt 0.1469727 0.4465332
vt 0.1469727 0.4465332
vt 0.07012939 0.3051758
vt 0.07012939 0.3051758
vt 0.07012939 0.3051758
vt 0.07012939 0.3051758
vt 0.07012939 0.3051758
vt 0.09161377 0.2299805
vt 0.09161377 0.2299805
vt 0.09161377 0.2299805
vt 0.09161377 0.2299805
vt 0.09161377 0.2299805
vt 0.09161377 0.2299805
vt 0.09161377 0.2299805
vt 0.09161377 0.2299805
vt 0.09161377 0.2299805
vt 0.09161377 0.2299805
vt 0.09161377 0.2299805
vt 0.09161377 0.2299805
vt 0.09161377 0.2299805
vt 0.09161377 0.2299805
vt 0.09161377 0.2299805
vt 0.09161377 0.2299805
vt 0.09161377 0.2299805
vt 0.09161377 0.2299805
vt 0.09161377 0.2299805
vt 0.09161377 0.2299805
vt 0.09161377 0.2299805
vt 0.09161377 0.2299805
vt 0.09161377 0.2299805
vt 0.09161377 0.2299805
vt 0.09161377 0.2299805
vt 0.09161377 0.2299805
vt 0.09161377 0.2299805
vt 0.09161377 0.2299805
vt 0.09161377 0.2299805
vt 0.09161377 0.2299805
vt 0.09161377 0.2299805
vt 0.09161377 0.2299805
vt 0.09161377 0.2299805
vt 0.09161377 0.2299805
vt 0.09161377 0.2299805
vt 0.09161377 0.2299805
vt 0.09161377 0.2299805
vt 0.09161377 0.2299805
vt 0.09161377 0.2299805
vt 0.09161377 0.2299805
vt 0.09161377 0.2299805
vt 0.09161377 0.2299805
vt 0.09161377 0.2299805
vt 0.09161377 0.2299805
vt 0.07006836 0.3796387
vt 0.07006836 0.3796387
vt 0.07006836 0.3796387
vt 0.07006836 0.3796387
vt 0.07006836 0.3796387
vt 0.07006836 0.3796387
vt 0.07006836 0.3796387
vt 0.07006836 0.3796387
vn 0 1 0
vn 0 1 0
vn 0 1 0
vn -5.781651E-06 -3.457069E-06 1
vn 7.987022E-06 8.702278E-06 1
vn 0 1.055002E-05 1
vn -2.801418E-06 4.947186E-06 1
vn -6.198883E-06 0 1
vn -4.291534E-06 -5.543232E-06 1
vn 0 0 1
vn -1.525879E-05 -6.020069E-06 1
vn -4.529953E-06 0 1
vn 0 1.275539E-05 1
vn 0 0 1
vn 0 0 1
vn 1.078844E-05 -3.933907E-06 1
vn 1.245737E-05 0 1
vn -1.525879E-05 -6.020069E-06 1
vn -1.084805E-05 3.397465E-06 1
vn -5.125999E-06 0 1
vn -5.781651E-06 -3.457069E-06 1
vn 7.987022E-06 8.702278E-06 1
vn 0 4.410744E-06 1
vn 3.516674E-06 0 1
vn -2.622604E-06 -8.34465E-06 1
vn -9.000301E-06 -1.54376E-05 1
vn 5.364418E-06 0 1
vn 8.642673E-06 -4.291534E-06 1
vn 1.680851E-05 -2.264977E-06 1
vn 0 1.055002E-05 1
vn 3.218651E-06 2.384186E-06 1
vn -3.159046E-06 -4.529953E-06 1
vn -8.523464E-06 -1.865625E-05 1
vn -2.622604E-06 -8.34465E-06 1
vn 0 4.410744E-06 1
vn -1.084805E-05 3.397465E-06 1
vn -5.125999E-06 0 1
vn 8.642673E-06 -4.291534E-06 1
vn -9.000301E-06 -1.54376E-05 1
vn 1.680851E-05 -2.264977E-06 1
vn 8.404255E-06 -5.424023E-06 1
vn 1.114607E-05 -4.410744E-06 1
vn 3.218651E-06 2.384186E-06 1
vn 0 0 1
vn 0 0 1
vn 9.834766E-06 0 1
vn 0 1.055002E-05 1
vn 7.987022E-06 8.702278E-06 1
vn 3.516674E-06 0 1
vn 5.364418E-06 0 1
vn 0 0 1
vn -6.198883E-06 0 1
vn 0 0 1
vn 0 0 1
vn 0 -6.079674E-06 1
vn 0 7.927418E-06 1
vn 0 4.768372E-06 1
vn 5.841255E-06 5.245209E-06 1
vn 9.953976E-06 1.585484E-05 1
vn 1.5378E-05 0 1
vn -3.159046E-06 -4.529953E-06 1
vn -1.084805E-05 3.397465E-06 1
vn -1.525879E-05 -6.020069E-06 1
vn -8.523464E-06 -1.865625E-05 1
vn 0 0 1
vn 8.404255E-06 -5.424023E-06 1
vn -2.622604E-06 -8.34465E-06 1
vn 2.145767E-06 8.106232E-06 1
vn 1.114607E-05 -4.410744E-06 1
vn -6.079674E-06 0 1
vn 0 0 1
vn 0 0 1
vn -1.716614E-05 0 1
vn 0 6.496906E-06 1
vn 0 0 1
vn 1.078844E-05 -3.933907E-06 1
vn 1.561642E-05 0 1
vn 1.215935E-05 0 1
vn 0 6.496906E-06 1
vn 0 1.275539E-05 1
vn -4.529953E-06 0 1
vn 0 0 1
vn 1.561642E-05 0 1
vn 1.078844E-05 -3.933907E-06 1
vn 1.245737E-05 0 1
vn 9.834766E-06 0 1
vn 1.686811E-05 0 1
vn 1.215935E-05 0 1
vn 1.865625E-05 0 1
vn 1.227856E-05 0 1
vn 1.239777E-05 0 1
vn 1.770258E-05 4.351139E-06 1
vn 1.239777E-05 0 1
vn 1.227856E-05 0 1
vn 9.834766E-06 0 1
vn 0 -3.397465E-06 1
vn 0 0 1
vn -6.079674E-06 0 1
vn 2.145767E-06 8.106232E-06 1
vn 0 6.854534E-06 1
vn -6.914139E-06 3.576279E-06 1
vn 0 -3.397465E-06 1
vn -1.716614E-05 0 1
vn -2.801418E-06 4.947186E-06 1
vn 0 1.055002E-05 1
vn 3.218651E-06 2.384186E-06 1
vn 9.834766E-06 0 1
vn 1.245737E-05 0 1
vn -4.291534E-06 -5.543232E-06 1
vn 0 0 1
vn 0 -6.079674E-06 1
vn 0 4.768372E-06 1
vn 2.145767E-06 8.106232E-06 1
vn 5.841255E-06 5.245209E-06 1
vn 0 6.854534E-06 1
vn 1.5378E-05 0 1
vn 1.770258E-05 4.351139E-06 1
vn 1.770258E-05 4.351139E-06 1
vn 1.239777E-05 0 1
vn 0 -3.397465E-06 1
vn -6.914139E-06 3.576279E-06 1
vn 0 6.854534E-06 1
vn 0 0 -1
vn 0 0 -1
vn 0 0 -1
vn 0 0 -1
vn 0 1 0
vn 0 1 0
vn 0 1 0
vn 0 1 0
vn 0 -1 0
vn 0 -1 0
vn 0 -1 0
vn 0 -1 0
vn -1 0 0
vn -1 0 0
vn -1 0 0
vn -1 0 0
vn 1 0 0
vn 1 0 0
vn 1 0 0
vn 1 0 0
vn 0 -0.8974609 0.4416504
vn 0 -0.8974609 0.4416504
vn 0 -0.8974609 0.4416504
vn 0 -0.8974609 0.4416504
vn 0.8950195 0 0.4458008
vn 0.8950195 0 0.4458008
vn 0.8950195 0 0.4458008
vn 0.8950195 0 0.4458008
vn 0 0.8974609 0.4416504
vn 0 0.8974609 0.4416504
vn 0 0.8974609 0.4416504
vn 0 0.8974609 0.4416504
vn -0.8950195 0 0.4458008
vn -0.8950195 0 0.4458008
vn -0.8950195 0 0.4458008
vn -0.8950195 0 0.4458008
vn -8.046627E-06 0 1
vn -8.046627E-06 0 1
vn -8.046627E-06 0 1
vn -8.046627E-06 0 1
vn -8.046627E-06 0 1
vn -8.046627E-06 0 1
vn -8.046627E-06 0 1
vn -8.046627E-06 0 1
vn -6.556511E-06 0 1
vn -6.556511E-06 0 1
vn -6.556511E-06 0 1
vn -6.556511E-06 0 1
vn -6.556511E-06 0 1
vn -6.556511E-06 0 1
vn -6.556511E-06 0 1
vn -6.556511E-06 0 1
g SM_Prop_Art_03_0
f 3/3/3 2/2/2 1/1/1
f 6/6/6 5/5/5 4/4/4
f 7/7/7 6/6/6 4/4/4
f 7/7/7 4/4/4 8/8/8
f 9/9/9 7/7/7 8/8/8
f 4/4/4 10/10/10 8/8/8
f 4/4/4 11/11/11 10/10/10
f 12/12/12 9/9/9 8/8/8
f 12/12/12 8/8/8 13/13/13
f 8/8/8 14/14/14 13/13/13
f 12/12/12 15/15/15 9/9/9
f 15/15/15 16/16/16 9/9/9
f 16/16/16 17/17/17 9/9/9
f 20/20/20 19/19/19 18/18/18
f 20/20/20 18/18/18 21/21/21
f 21/21/21 22/22/22 20/20/20
f 23/23/23 20/20/20 22/22/22
f 24/24/24 23/23/23 22/22/22
f 24/24/24 25/25/25 23/23/23
f 26/26/26 25/25/25 24/24/24
f 26/26/26 24/24/24 27/27/27
f 28/28/28 26/26/26 27/27/27
f 29/29/29 28/28/28 27/27/27
f 29/29/29 27/27/27 30/30/30
f 31/31/31 29/29/29 30/30/30
f 34/34/34 33/33/33 32/32/32
f 35/35/35 34/34/34 32/32/32
f 35/35/35 32/32/32 36/36/36
f 37/37/37 35/35/35 36/36/36
f 39/39/39 38/38/38 34/34/34
f 34/34/34 38/38/38 40/40/40
f 41/41/41 34/34/34 40/40/40
f 40/40/40 42/42/42 41/41/41
f 40/40/40 43/43/43 42/42/42
f 43/43/43 44/44/44 42/42/42
f 43/43/43 45/45/45 44/44/44
f 43/43/43 46/46/46 45/45/45
f 49/49/49 48/48/48 47/47/47
f 50/50/50 49/49/49 47/47/47
f 53/53/53 52/52/52 51/51/51
f 52/52/52 54/54/54 51/51/51
f 54/54/54 55/55/55 51/51/51
f 55/55/55 56/56/56 51/51/51
f 55/55/55 57/57/57 56/56/56
f 57/57/57 58/58/58 56/56/56
f 58/58/58 59/59/59 56/56/56
f 58/58/58 60/60/60 59/59/59
f 61/61/61 55/55/55 54/54/54
f 62/62/62 61/61/61 54/54/54
f 54/54/54 63/63/63 62/62/62
f 55/55/55 61/61/61 64/64/64
f 65/65/65 55/55/55 64/64/64
f 65/65/65 64/64/64 66/66/66
f 64/64/64 67/67/67 66/66/66
f 68/68/68 65/65/65 66/66/66
f 68/68/68 66/66/66 69/69/69
f 70/70/70 68/68/68 69/69/69
f 70/70/70 69/69/69 71/71/71
f 70/70/70 71/71/71 72/72/72
f 72/72/72 73/73/73 70/70/70
f 76/76/76 75/75/75 74/74/74
f 77/77/77 76/76/76 74/74/74
f 77/77/77 74/74/74 78/78/78
f 81/81/81 80/80/80 79/79/79
f 82/82/82 81/81/81 79/79/79
f 85/85/85 84/84/84 83/83/83
f 86/86/86 85/85/85 83/83/83
f 86/86/86 83/83/83 87/87/87
f 83/83/83 88/88/88 87/87/87
f 86/86/86 87/87/87 89/89/89
f 90/90/90 86/86/86 89/89/89
f 91/91/91 90/90/90 89/89/89
f 91/91/91 89/89/89 92/92/92
f 95/95/95 94/94/94 93/93/93
f 93/93/93 96/96/96 95/95/95
f 96/96/96 97/97/97 95/95/95
f 100/100/100 99/99/99 98/98/98
f 101/101/101 100/100/100 98/98/98
f 101/101/101 98/98/98 102/102/102
f 98/98/98 103/103/103 102/102/102
f 106/106/106 105/105/105 104/104/104
f 107/107/107 106/106/106 104/104/104
f 107/107/107 104/104/104 108/108/108
f 104/104/104 109/109/109 108/108/108
f 112/112/112 111/111/111 110/110/110
f 112/112/112 110/110/110 113/113/113
f 114/114/114 112/112/112 113/113/113
f 114/114/114 113/113/113 115/115/115
f 114/114/114 115/115/115 116/116/116
f 115/115/115 117/117/117 116/116/116
f 120/120/120 119/119/119 118/118/118
f 121/121/121 120/120/120 118/118/118
f 122/122/122 121/121/121 118/118/118
f 125/125/125 124/124/124 123/123/123
f 126/126/126 125/125/125 123/123/123
f 129/129/129 128/128/128 127/127/127
f 130/130/130 129/129/129 127/127/127
f 133/133/133 132/132/132 131/131/131
f 134/134/134 133/133/133 131/131/131
f 137/137/137 136/136/136 135/135/135
f 138/138/138 137/137/137 135/135/135
f 141/141/141 140/140/140 139/139/139
f 142/142/142 141/141/141 139/139/139
f 145/145/145 144/144/144 143/143/143
f 146/146/146 145/145/145 143/143/143
f 149/149/149 148/148/148 147/147/147
f 150/150/150 149/149/149 147/147/147
f 153/153/153 152/152/152 151/151/151
f 154/154/154 153/153/153 151/151/151
f 157/157/157 156/156/156 155/155/155
f 158/158/158 157/157/157 155/155/155
f 161/161/161 160/160/160 159/159/159
f 162/162/162 161/161/161 159/159/159
f 159/159/159 160/160/160 163/163/163
f 164/164/164 161/161/161 162/162/162
f 160/160/160 165/165/165 163/163/163
f 166/166/166 164/164/164 162/162/162
f 163/163/163 165/165/165 166/166/166
f 165/165/165 164/164/164 166/166/166
f 169/169/169 168/168/168 167/167/167
f 170/170/170 169/169/169 167/167/167
f 167/167/167 168/168/168 171/171/171
f 172/172/172 169/169/169 170/170/170
f 168/168/168 173/173/173 171/171/171
f 174/174/174 172/172/172 170/170/170
f 171/171/171 173/173/173 174/174/174
f 173/173/173 172/172/172 174/174/174
