g SM_Prop_Toilet_01_Lid
v -0.1275826 0.4546617 0.009230096
v -2.637078E-08 0.2357217 0.01066274
v -0.206433 0.3193493 0.01011556
v -2.637078E-08 0.5063465 0.008891809
v -2.637078E-08 0.2357217 0.01066274
v -0.1275826 0.4546617 0.009230096
v 0.1275825 0.4546617 0.009230096
v -2.637078E-08 0.2357217 0.01066274
v -2.637078E-08 0.5063465 0.008891809
v 0.1275825 0.4546617 0.009230096
v 0.123219 0.4474497 -0.01513346
v 0.1993724 0.3167655 -0.01427836
v 0.2064329 0.3193493 0.01011556
v 0.1993724 0.1552307 -0.01322123
v 0.2064329 0.1520939 0.01121008
v 0.2064329 0.1520939 0.01121008
v 0.1993724 0.1552307 -0.01322123
v 0.123219 -0.0007445738 -0.01220042
v 0.1275825 -0.00940489 0.0122669
v 0.1275825 -0.00940489 0.0122669
v 0.123219 -0.0007445738 -0.01220042
v -2.637078E-08 -7.986281E-05 -0.01220484
v -2.637078E-08 -0.008716643 0.01226248
v -0.1232189 -0.0007445738 -0.01220042
v -0.1275826 -0.00940489 0.0122669
v -0.1275826 -0.00940489 0.0122669
v -0.1232189 -0.0007445738 -0.01220042
v -0.1993723 0.1552307 -0.01322123
v -0.206433 0.1520941 0.01121008
v -0.1993724 0.3167655 -0.01427836
v -0.206433 0.3193493 0.01011556
v -0.1232189 0.4474497 -0.01513346
v -0.1275826 0.4546617 0.009230096
v -2.637078E-08 0.4973668 -0.01546015
v -2.637078E-08 0.5063465 0.008891809
v 0.123219 0.4474497 -0.01513346
v 0.1275825 0.4546617 0.009230096
v 0.2064329 0.3193493 0.01011556
v -2.637078E-08 0.2357217 0.01066274
v 0.1275825 0.4546617 0.009230096
v 0.2064329 0.1520939 0.01121008
v 0.1275825 -0.00940489 0.0122669
v -2.637078E-08 -0.008716643 0.01226248
v -0.1275826 -0.00940489 0.0122669
v -0.206433 0.1520941 0.01121008
v -0.206433 0.3193493 0.01011556
v 0.123219 0.4474497 -0.01513346
v -2.637078E-08 0.235562 -0.01374689
v 0.1993724 0.3167655 -0.01427836
v -2.637078E-08 0.4973668 -0.01546015
v 0.1993724 0.1552307 -0.01322123
v -0.1232189 0.4474497 -0.01513346
v 0.123219 -0.0007445738 -0.01220042
v -0.1993724 0.3167655 -0.01427836
v -2.637078E-08 -7.986281E-05 -0.01220484
v -0.1993723 0.1552307 -0.01322123
v -0.1232189 -0.0007445738 -0.01220042
vt 0.4233913 0.01314691
vt 0.4233913 0.01314688
vt 0.4233912 0.01314691
vt 0.4233913 0.01314688
vt 0.4233913 0.01314688
vt 0.4233913 0.01314691
vt 0.4233913 0.01314691
vt 0.4233913 0.01314688
vt 0.4233913 0.01314688
vt 0.4233913 0.01314691
vt 0.4233913 0.01314688
vt 0.4233913 0.01314688
vt 0.4233913 0.01314691
vt 0.4233912 0.01314688
vt 0.4233912 0.01314691
vt 0.4233912 0.01314691
vt 0.4233912 0.01314688
vt 0.4233913 0.01314688
vt 0.4233913 0.01314691
vt 0.4233913 0.01314691
vt 0.4233913 0.01314688
vt 0.4233913 0.01314688
vt 0.4233913 0.01314691
vt 0.4233913 0.01314688
vt 0.4233913 0.01314691
vt 0.4233913 0.01314691
vt 0.4233913 0.01314688
vt 0.4233913 0.01314688
vt 0.4233913 0.01314691
vt 0.4233913 0.01314688
vt 0.4233913 0.01314691
vt 0.4233913 0.01314688
vt 0.4233913 0.01314691
vt 0.4233913 0.01314688
vt 0.4233913 0.01314691
vt 0.4233913 0.01314688
vt 0.4233913 0.01314691
vt 0.4233912 0.01314688
vt 0.4233913 0.01314688
vt 0.4233913 0.01314691
vt 0.4233913 0.01314685
vt 0.4233913 0.01314685
vt 0.4233913 0.01314685
vt 0.4233913 0.01314691
vt 0.4233913 0.01314691
vt 0.4233912 0.01314691
vt 0.4233913 0.01314688
vt 0.4233913 0.01314688
vt 0.4233912 0.01314688
vt 0.4233913 0.01314688
vt 0.4233913 0.01314688
vt 0.4233913 0.01314688
vt 0.4233913 0.01314688
vt 0.4233912 0.01314688
vt 0.4233913 0.01314688
vt 0.4233913 0.01314688
vt 0.4233913 0.01314688
vn 0 0.006543659 0.9999787
vn 0 0.006543879 0.9999787
vn 0 0.006543703 0.9999787
vn 0 0.006543738 0.9999787
vn 0 0.006543879 0.9999787
vn 0 0.006543659 0.9999787
vn 0 0.006543658 0.9999787
vn 0 0.006543879 0.9999787
vn 0 0.006543738 0.9999787
vn 0.6221535 0.7133449 -0.3225896
vn 0.6221535 0.7133449 -0.3225896
vn 0.9234741 0.2471303 -0.2934658
vn 0.9234741 0.2471303 -0.2934658
vn 0.9302702 -0.2159692 -0.2965715
vn 0.9302702 -0.2159692 -0.2965715
vn 0.9302702 -0.2159692 -0.2965715
vn 0.9302702 -0.2159692 -0.2965715
vn 0.8560715 -0.419941 -0.3013157
vn 0.8560715 -0.419941 -0.3013157
vn -0.005075104 -0.9429626 -0.3328598
vn -0.005075104 -0.9429626 -0.3328598
vn 0 -0.9429749 -0.3328641
vn 0 -0.9429749 -0.3328641
vn 0.005075107 -0.9429626 -0.3328598
vn 0.005075107 -0.9429626 -0.3328598
vn -0.8560706 -0.4199403 -0.3013193
vn -0.8560706 -0.4199403 -0.3013193
vn -0.9302692 -0.2159691 -0.2965747
vn -0.9302692 -0.2159691 -0.2965747
vn -0.9234733 0.24713 -0.2934685
vn -0.9234733 0.24713 -0.2934685
vn -0.6221531 0.7133446 -0.3225914
vn -0.6221531 0.7133446 -0.3225914
vn 0 0.9382442 -0.3459737
vn 0 0.9382442 -0.3459737
vn 0.6221535 0.7133449 -0.3225896
vn 0.6221535 0.7133449 -0.3225896
vn 0 0.006543701 0.9999787
vn 0 0.006543879 0.9999787
vn 0 0.006543658 0.9999787
vn 0 0.006543849 0.9999787
vn 0 0.006544128 0.9999787
vn 0 0.00654438 0.9999787
vn 0 0.006544127 0.9999787
vn 0 0.006543851 0.9999787
vn 0 0.006543703 0.9999787
vn 0 -0.006543658 -0.9999787
vn 0 -0.006543955 -0.9999787
vn 0 -0.006543787 -0.9999787
vn 0 -0.006543885 -0.9999787
vn 0 -0.006544274 -0.9999787
vn 0 -0.006543658 -0.9999787
vn 0 -0.006544161 -0.9999787
vn 0 -0.006543786 -0.9999787
vn 0 -0.006543914 -0.9999787
vn 0 -0.006544274 -0.9999787
vn 0 -0.006544161 -0.9999787
g SM_Prop_Toilet_01_Lid_0
f 3/3/3 2/2/2 1/1/1
f 6/6/6 5/5/5 4/4/4
f 9/9/9 8/8/8 7/7/7
f 12/12/12 11/11/11 10/10/10
f 13/13/13 12/12/12 10/10/10
f 14/14/14 12/12/12 13/13/13
f 15/15/15 14/14/14 13/13/13
f 18/18/18 17/17/17 16/16/16
f 19/19/19 18/18/18 16/16/16
f 22/22/22 21/21/21 20/20/20
f 23/23/23 22/22/22 20/20/20
f 24/24/24 22/22/22 23/23/23
f 25/25/25 24/24/24 23/23/23
f 28/28/28 27/27/27 26/26/26
f 29/29/29 28/28/28 26/26/26
f 30/30/30 28/28/28 29/29/29
f 31/31/31 30/30/30 29/29/29
f 32/32/32 30/30/30 31/31/31
f 33/33/33 32/32/32 31/31/31
f 34/34/34 32/32/32 33/33/33
f 35/35/35 34/34/34 33/33/33
f 36/36/36 34/34/34 35/35/35
f 37/37/37 36/36/36 35/35/35
f 40/40/40 39/39/39 38/38/38
f 38/38/38 39/39/39 41/41/41
f 41/41/41 39/39/39 42/42/42
f 42/42/42 39/39/39 43/43/43
f 43/43/43 39/39/39 44/44/44
f 44/44/44 39/39/39 45/45/45
f 45/45/45 39/39/39 46/46/46
f 49/49/49 48/48/48 47/47/47
f 47/47/47 48/48/48 50/50/50
f 51/51/51 48/48/48 49/49/49
f 50/50/50 48/48/48 52/52/52
f 53/53/53 48/48/48 51/51/51
f 52/52/52 48/48/48 54/54/54
f 55/55/55 48/48/48 53/53/53
f 54/54/54 48/48/48 56/56/56
f 57/57/57 48/48/48 55/55/55
f 56/56/56 48/48/48 57/57/57
