g SM_Prop_KitchenCabinet_01
v -0.04388306 0.4801127 0.6482397
v -0.04388306 0.4552415 0.6171216
v -0.04388306 0.504984 0.6171216
v -0.9561169 0.4801127 0.6482397
v -0.9561169 0.504984 0.6171216
v -0.9561169 0.4552415 0.6171216
v -1 1.043816 1.220703E-06
v 0 1.043816 1.220703E-06
v 0 1.043816 0.6786292
v -1 1.043816 0.6786292
v 0 -9.155273E-07 0
v -1 -9.155273E-07 0
v -1 -9.155273E-07 0.6482397
v 0 -9.155273E-07 0.6482397
v -0.9561169 0.042323 0.6482397
v -0.9561169 0.042323 0.07043457
v -0.04388306 0.042323 0.07043457
v -0.04388306 0.042323 0.6482397
v -0.04388306 0.9221579 0.6482397
v -0.04388306 0.9221579 0.07043457
v -0.9561169 0.9221579 0.07043457
v -0.9561169 0.9221579 0.6482397
v -0.04388306 0.504984 0.07043457
v -0.04388306 0.9221579 0.07043457
v -0.04388306 0.9221579 0.6482397
v -0.04388306 0.504984 0.6171216
v -0.04388306 0.4801127 0.6482397
v -0.04388306 0.042323 0.6482397
v -0.04388306 0.4552415 0.6171216
v -0.04388306 0.4552415 0.0704309
v -0.04388306 0.042323 0.07043457
v -0.9561169 0.504984 0.07043457
v -0.9561169 0.9221579 0.07043457
v -0.04388306 0.9221579 0.07043457
v -0.04388306 0.504984 0.07043457
v -0.9561169 0.9221579 0.6482397
v -0.9561169 0.9221579 0.07043457
v -0.9561169 0.504984 0.07043457
v -0.9561169 0.504984 0.6171216
v -0.9561169 0.4801127 0.6482397
v -0.9561169 0.042323 0.6482397
v -0.9561169 0.4552415 0.6171216
v -0.9561169 0.4552415 0.07043457
v -0.9561169 0.042323 0.07043457
v 0 0.4801127 0
v 0 1.043816 1.220703E-06
v -1 1.043816 1.220703E-06
v -1 0.4801127 0
v 0 -9.155273E-07 0
v -1 -9.155273E-07 0
v -1 -9.155273E-07 0
v -1 0.4801127 0.6482397
v -1 -9.155273E-07 0.6482397
v -1 0.4801127 0
v -1 0.9644817 0.6482397
v -1 1.043816 1.220703E-06
v -1 0.9932258 0.6786292
v -1 1.043816 0.6786292
v -0.9561169 0.042323 0.07043457
v -0.9561169 0.4552415 0.07043457
v -0.04388306 0.4552415 0.0704309
v -0.04388306 0.042323 0.07043457
v 0 0.4801127 0
v 0 -9.155273E-07 0
v 0 -9.155273E-07 0.6482397
v 0 0.4801127 0.6482397
v 0 1.043816 1.220703E-06
v 0 0.9644817 0.6482397
v 0 0.9932258 0.6786292
v 0 1.043816 0.6786292
v -0.04388306 0.4552415 0.6171216
v -0.9561169 0.4552415 0.6171216
v -0.9561169 0.504984 0.6171216
v -0.04388306 0.504984 0.6171216
v -0.9561169 0.504984 0.07043457
v -0.04388306 0.504984 0.07043457
v -0.04388306 0.504984 0.6171216
v -0.9561169 0.504984 0.6171216
v -0.04388306 0.4552415 0.0704309
v -0.9561169 0.4552415 0.07043457
v -0.9561169 0.4552415 0.6171216
v -0.04388306 0.4552415 0.6171216
v -1 0.9644817 0.6482397
v -1 0.9932258 0.6786292
v 0 0.9932258 0.6786292
v 0 0.9644817 0.6482397
v -1 0.9932258 0.6786292
v -1 1.043816 0.6786292
v 0 1.043816 0.6786292
v 0 0.9932258 0.6786292
v -0.04388306 0.042323 0.6482397
v -1 -9.155273E-07 0.6482397
v -0.9561169 0.042323 0.6482397
v -0.9561169 0.4801127 0.6482397
v 0 -9.155273E-07 0.6482397
v -1 0.4801127 0.6482397
v -1 0.9644817 0.6482397
v -0.9561169 0.9221579 0.6482397
v -0.04388306 0.4801127 0.6482397
v 0 0.4801127 0.6482397
v 0 0.9644817 0.6482397
v -0.04388306 0.9221579 0.6482397
vt 0.04052734 0.3552856
vt 0.04052734 0.3552856
vt 0.04052734 0.3552856
vt 0.04052734 0.3552856
vt 0.04052734 0.3552856
vt 0.04052734 0.3552856
vt 0.07006836 0.377594
vt 0.07006836 0.377594
vt 0.07006836 0.377594
vt 0.07006836 0.377594
vt 0.07006836 0.3776093
vt 0.07006836 0.3776093
vt 0.07006836 0.3776093
vt 0.07006836 0.3776093
vt 0.03894698 0.3552711
vt 0.03894698 0.3552711
vt 0.03894698 0.3552711
vt 0.03894698 0.3552711
vt 0.03894698 0.3552711
vt 0.03894698 0.3552711
vt 0.03894698 0.3552711
vt 0.03894698 0.3552711
vt 0.038947 0.3552711
vt 0.03894698 0.3552711
vt 0.03894698 0.3552711
vt 0.038947 0.3552711
vt 0.03894698 0.3552711
vt 0.03894698 0.3552711
vt 0.03894698 0.3552711
vt 0.03894698 0.3552711
vt 0.03894698 0.3552711
vt 0.03894698 0.3552711
vt 0.03894698 0.3552711
vt 0.03894698 0.3552711
vt 0.038947 0.3552711
vt 0.03894698 0.3552711
vt 0.03894698 0.3552711
vt 0.03894698 0.3552711
vt 0.03894698 0.3552711
vt 0.03894698 0.3552711
vt 0.03894698 0.3552711
vt 0.03894698 0.3552711
vt 0.03894698 0.3552711
vt 0.03894698 0.3552711
vt 0.07006836 0.3776093
vt 0.07006836 0.377594
vt 0.07006836 0.377594
vt 0.07006836 0.3776093
vt 0.07006836 0.3776093
vt 0.07006836 0.3776093
vt 0.07006836 0.3776093
vt 0.07006836 0.3776093
vt 0.07006836 0.3776093
vt 0.07006836 0.3776093
vt 0.07006836 0.377594
vt 0.07006836 0.377594
vt 0.07006836 0.377594
vt 0.07006836 0.377594
vt 0.03894698 0.3552711
vt 0.03894698 0.3552711
vt 0.03894698 0.3552711
vt 0.03894698 0.3552711
vt 0.07006836 0.3776093
vt 0.07006836 0.3776093
vt 0.07006836 0.3776093
vt 0.07006836 0.3776093
vt 0.07006836 0.377594
vt 0.07006836 0.377594
vt 0.07006836 0.377594
vt 0.07006836 0.377594
vt 0.03540039 0.3531189
vt 0.03540039 0.3531189
vt 0.03540039 0.3531189
vt 0.03540039 0.3531189
vt 0.03894698 0.3552711
vt 0.038947 0.3552711
vt 0.038947 0.3552711
vt 0.03894698 0.3552711
vt 0.03894698 0.3552711
vt 0.03894698 0.3552711
vt 0.03894698 0.3552711
vt 0.03894698 0.3552711
vt 0.07006836 0.377594
vt 0.07006836 0.377594
vt 0.07006836 0.377594
vt 0.07006836 0.377594
vt 0.07006836 0.377594
vt 0.07006836 0.377594
vt 0.07006836 0.377594
vt 0.07006836 0.377594
vt 0.06933594 0.35672
vt 0.06933594 0.35672
vt 0.06933594 0.35672
vt 0.06933594 0.35672
vt 0.06933594 0.35672
vt 0.06933594 0.35672
vt 0.06933594 0.3566895
vt 0.06933594 0.3566895
vt 0.06933594 0.35672
vt 0.06933594 0.35672
vt 0.06933594 0.3566895
vt 0.06933594 0.3566895
vn -1 0 0
vn -1 0 0
vn -1 0 0
vn 1 0 0
vn 1 0 0
vn 1 0 0
vn 0 1 0
vn 0 1 0
vn 0 1 0
vn 0 1 0
vn 0 -1 0
vn 0 -1 0
vn 0 -1 0
vn 0 -1 0
vn 0 1 0
vn 0 1 0
vn 0 1 0
vn 0 1 0
vn 0 -1 0
vn 0 -1 0
vn 0 -1 0
vn 0 -1 0
vn -1 0 0
vn -1 0 0
vn -1 0 0
vn -1 0 0
vn -1 0 0
vn -1 0 0
vn -1 0 0
vn -1 0 0
vn -1 0 0
vn 0 0 1
vn 0 0 1
vn 0 0 1
vn 0 0 1
vn 1 0 0
vn 1 0 0
vn 1 0 0
vn 1 0 0
vn 1 0 0
vn 1 0 0
vn 1 0 0
vn 1 0 0
vn 1 0 0
vn 0 0 -1
vn 0 0 -1
vn 0 0 -1
vn 0 0 -1
vn 0 0 -1
vn 0 0 -1
vn -1 0 0
vn -1 0 0
vn -1 0 0
vn -1 0 0
vn -1 0 0
vn -1 0 0
vn -1 0 0
vn -1 0 0
vn 0 0 1
vn 0 0 1
vn 0 0 1
vn 0 0 1
vn 1 0 0
vn 1 0 0
vn 1 0 0
vn 1 0 0
vn 1 0 0
vn 1 0 0
vn 1 0 0
vn 1 0 0
vn 0 0 1
vn 0 0 1
vn 0 0 1
vn 0 0 1
vn 0 1 0
vn 0 1 0
vn 0 1 0
vn 0 1 0
vn 0 -1 0
vn 0 -1 0
vn 0 -1 0
vn 0 -1 0
vn 0 -0.7264986 0.6871679
vn 0 -0.7264986 0.6871679
vn 0 -0.7264986 0.6871679
vn 0 -0.7264986 0.6871679
vn 0 0 1
vn 0 0 1
vn 0 0 1
vn 0 0 1
vn 0 0 1
vn 0 0 1
vn 0 0 1
vn 0 0 1
vn 0 0 1
vn 0 0 1
vn 0 0 1
vn 0 0 1
vn 0 0 1
vn 0 0 1
vn 0 0 1
vn 0 0 1
g SM_Prop_KitchenCabinet_01_0
f 3/3/3 2/2/2 1/1/1
f 6/6/6 5/5/5 4/4/4
f 9/9/9 8/8/8 7/7/7
f 10/10/10 9/9/9 7/7/7
f 13/13/13 12/12/12 11/11/11
f 14/14/14 13/13/13 11/11/11
f 17/17/17 16/16/16 15/15/15
f 18/18/18 17/17/17 15/15/15
f 21/21/21 20/20/20 19/19/19
f 22/22/22 21/21/21 19/19/19
f 25/25/25 24/24/24 23/23/23
f 26/26/26 25/25/25 23/23/23
f 26/26/26 27/27/27 25/25/25
f 27/27/27 29/29/29 28/28/28
f 29/29/29 30/30/30 28/28/28
f 30/30/30 31/31/31 28/28/28
f 34/34/34 33/33/33 32/32/32
f 35/35/35 34/34/34 32/32/32
f 38/38/38 37/37/37 36/36/36
f 39/39/39 38/38/38 36/36/36
f 40/40/40 39/39/39 36/36/36
f 42/42/42 40/40/40 41/41/41
f 42/42/42 41/41/41 43/43/43
f 41/41/41 44/44/44 43/43/43
f 47/47/47 46/46/46 45/45/45
f 48/48/48 47/47/47 45/45/45
f 48/48/48 45/45/45 49/49/49
f 50/50/50 48/48/48 49/49/49
f 53/53/53 52/52/52 51/51/51
f 52/52/52 54/54/54 51/51/51
f 52/52/52 55/55/55 54/54/54
f 55/55/55 56/56/56 54/54/54
f 55/55/55 57/57/57 56/56/56
f 57/57/57 58/58/58 56/56/56
f 61/61/61 60/60/60 59/59/59
f 62/62/62 61/61/61 59/59/59
f 65/65/65 64/64/64 63/63/63
f 66/66/66 65/65/65 63/63/63
f 66/66/66 63/63/63 67/67/67
f 68/68/68 66/66/66 67/67/67
f 67/67/67 69/69/69 68/68/68
f 67/67/67 70/70/70 69/69/69
f 73/73/73 72/72/72 71/71/71
f 74/74/74 73/73/73 71/71/71
f 77/77/77 76/76/76 75/75/75
f 78/78/78 77/77/77 75/75/75
f 81/81/81 80/80/80 79/79/79
f 82/82/82 81/81/81 79/79/79
f 85/85/85 84/84/84 83/83/83
f 86/86/86 85/85/85 83/83/83
f 89/89/89 88/88/88 87/87/87
f 90/90/90 89/89/89 87/87/87
f 93/93/93 92/92/92 91/91/91
f 92/92/92 93/93/93 94/94/94
f 92/92/92 95/95/95 91/91/91
f 96/96/96 92/92/92 94/94/94
f 96/96/96 94/94/94 97/97/97
f 94/94/94 98/98/98 97/97/97
f 99/99/99 91/91/91 95/95/95
f 100/100/100 99/99/99 95/95/95
f 97/97/97 98/98/98 101/101/101
f 100/100/100 101/101/101 99/99/99
f 98/98/98 102/102/102 101/101/101
f 101/101/101 102/102/102 99/99/99
