g SM_Prop_Phone_Portable_01_Handset_01
v -0.0183114 0.2395932 0.03462216
v -0.0183114 0.2602914 0.03462216
v 0.0183114 0.2602914 0.03462216
v 0.0183114 0.2395932 0.03462216
v -0.04105745 0.2622913 0.03462216
v 0.04105745 0.2622913 0.00658811
v 0.04105745 0.2622913 0.03462216
v -0.04105745 0.2622913 0.00658811
v 0 0.2622913 -0.01296666
v 0.04105745 0.2375932 0.00658811
v 0.04105745 0.2622913 0.00658811
v 0 0.2622913 -0.01296666
v 0 0.2375932 -0.01296666
v 0.04105745 0.1740028 0.00658811
v 0 0.1740028 -0.01296666
v 0.04105745 0.1458505 0.00658811
v 0 0.1458505 -0.01296666
v 0.04105745 0.1030989 0.00658811
v 0 0.1030989 -0.01296666
v 0.04105745 0.06034726 0.00658811
v 0 0.06034725 -0.01296666
v 0 0.03116572 -0.01296666
v 0.04105745 0.03116572 0.00658811
v 0 0.03116572 -0.01296666
v -0.04105745 0.03116572 0.00658811
v 0.04105745 0.03116572 0.00658811
v -0.04105745 0.03116572 0.03462216
v 0.04105745 0.03116572 0.03462216
v 0.04105745 0.2375932 0.03462216
v 0.04105745 0.2622913 0.03462216
v 0.04105745 0.2622913 0.00658811
v 0.04105745 0.2375932 0.00658811
v 0.04105745 0.1740028 0.03462216
v 0.04105745 0.1740028 0.00658811
v 0.04105745 0.1458505 0.03462216
v 0.04105745 0.1458505 0.00658811
v 0.04105745 0.1030989 0.03462216
v 0.04105745 0.1030989 0.00658811
v 0.04105745 0.06034725 0.03462216
v 0.04105745 0.06034726 0.00658811
v 0.04105745 0.03116572 0.03462216
v 0.04105745 0.03116572 0.00658811
v -0.04105745 0.2375932 0.00658811
v -0.04105745 0.2622913 0.00658811
v -0.04105745 0.2622913 0.03462216
v -0.04105745 0.2375932 0.03462216
v -0.04105745 0.1740028 0.00658811
v -0.04105745 0.1740028 0.03462216
v -0.04105745 0.1458505 0.00658811
v -0.04105745 0.1458505 0.03462216
v -0.04105745 0.1030989 0.00658811
v -0.04105745 0.1030989 0.03462216
v -0.04105745 0.06034726 0.00658811
v -0.04105745 0.06034725 0.03462216
v -0.04105745 0.03116572 0.00658811
v -0.04105745 0.03116572 0.03462216
v -0.04105745 0.2622913 0.00658811
v 0 0.2375932 -0.01296666
v 0 0.2622913 -0.01296666
v -0.04105745 0.2375932 0.00658811
v 0 0.1740028 -0.01296666
v -0.04105745 0.1740028 0.00658811
v 0 0.1458505 -0.01296666
v -0.04105745 0.1458505 0.00658811
v 0 0.1030989 -0.01296666
v -0.04105745 0.1030989 0.00658811
v 0 0.06034725 -0.01296666
v -0.04105745 0.06034726 0.00658811
v 0 0.03116572 -0.01296666
v -0.04105745 0.03116572 0.00658811
v -0.03096665 0.1812608 0.03462216
v -0.03096665 0.2303352 0.03462216
v 0.03096665 0.2303352 0.03462216
v 0.03096665 0.1812608 0.03462216
v 0.003127243 0.168568 0.03462216
v 0.03127556 0.168568 0.03462216
v 0.03127556 0.1512855 0.03462216
v 0.003127243 0.1512855 0.03462216
v -0.03151526 0.07028321 0.03462216
v -0.03151526 0.1030989 0.03462216
v 0.03151526 0.1030989 0.03462216
v 0.03151526 0.07028321 0.03462216
v -0.0183114 0.03697094 0.03462216
v -0.0183114 0.05454203 0.03462216
v 0.0183114 0.05454203 0.03462216
v 0.0183114 0.03697094 0.03462216
v -0.03151526 0.1030989 0.03462216
v -0.03151526 0.1359145 0.03462216
v 0.03151526 0.1359145 0.03462216
v 0.03151526 0.1030989 0.03462216
v -0.03127556 0.1512855 0.03462216
v -0.03127556 0.168568 0.03462216
v -0.003127243 0.168568 0.03462216
v -0.003127243 0.1512855 0.03462216
v 0.003127243 0.168568 0.03462216
v 0.003127243 0.1512855 0.03462216
v -0.003127243 0.1512855 0.03462216
v -0.003127243 0.168568 0.03462216
v 0.04105745 0.1740028 0.03462216
v 0.03127556 0.168568 0.03462216
v -0.04105745 0.1740028 0.03462216
v -0.03127556 0.168568 0.03462216
v -0.03127556 0.1512855 0.03462216
v 0.04105745 0.1458505 0.03462216
v 0.03127556 0.1512855 0.03462216
v 0.003127243 0.1512855 0.03462216
v -0.04105745 0.1458505 0.03462216
v -0.003127243 0.1512855 0.03462216
v 0.03096665 0.1812608 0.03462216
v -0.03096665 0.1812608 0.03462216
v 0.03096665 0.2303352 0.03462216
v -0.04105745 0.2375932 0.03462216
v 0.04105745 0.2375932 0.03462216
v -0.03096665 0.2303352 0.03462216
v 0.0183114 0.2395932 0.03462216
v -0.0183114 0.2395932 0.03462216
v 0.0183114 0.2602914 0.03462216
v -0.04105745 0.2622913 0.03462216
v 0.04105745 0.2622913 0.03462216
v -0.0183114 0.2602914 0.03462216
v 0.04105745 0.1458505 0.03462216
v 0.03151526 0.1359145 0.03462216
v -0.03151526 0.1359145 0.03462216
v 0.03151526 0.1030989 0.03462216
v -0.04105745 0.1458505 0.03462216
v 0.04105745 0.1030989 0.03462216
v 0.04105745 0.06034725 0.03462216
v 0.03151526 0.07028321 0.03462216
v -0.03151526 0.1030989 0.03462216
v -0.04105745 0.1030989 0.03462216
v -0.04105745 0.06034725 0.03462216
v -0.03151526 0.07028321 0.03462216
v -0.04105745 0.03116572 0.03462216
v -0.0183114 0.03697094 0.03462216
v 0.0183114 0.03697094 0.03462216
v 0.04105745 0.03116572 0.03462216
v -0.04105745 0.06034725 0.03462216
v 0.0183114 0.05454203 0.03462216
v -0.0183114 0.05454203 0.03462216
v 0.04105745 0.06034725 0.03462216
vt 0.4650879 0.3720703
vt 0.4650879 0.3718262
vt 0.4648438 0.3718262
vt 0.4648438 0.3720703
vt 0.4914551 0.3859863
vt 0.4912109 0.3857422
vt 0.4912109 0.3857422
vt 0.4914551 0.3857422
vt 0.4914551 0.3857422
vt 0.4912109 0.3859863
vt 0.4912109 0.3857422
vt 0.4914551 0.3857422
vt 0.4914551 0.3859863
vt 0.4912109 0.3859863
vt 0.4914551 0.3862305
vt 0.4912109 0.3862305
vt 0.4914551 0.3862305
vt 0.4912109 0.3862305
vt 0.4914551 0.3864746
vt 0.4912109 0.3864746
vt 0.4914551 0.3864746
vt 0.4914551 0.3867188
vt 0.4912109 0.3867188
vt 0.4914551 0.3867188
vt 0.4914551 0.3867188
vt 0.4912109 0.3867188
vt 0.4914551 0.3867188
vt 0.4912109 0.3867188
vt 0.4912109 0.3859863
vt 0.4912109 0.3857422
vt 0.4912109 0.3857422
vt 0.4912109 0.3859863
vt 0.4912109 0.3862305
vt 0.4912109 0.3859863
vt 0.4912109 0.3862305
vt 0.4912109 0.3862305
vt 0.4912109 0.3864746
vt 0.4912109 0.3862305
vt 0.4912109 0.3864746
vt 0.4912109 0.3864746
vt 0.4912109 0.3867188
vt 0.4912109 0.3867188
vt 0.4914551 0.3859863
vt 0.4914551 0.3857422
vt 0.4914551 0.3859863
vt 0.4914551 0.3859863
vt 0.4914551 0.3862305
vt 0.4914551 0.3862305
vt 0.4914551 0.3862305
vt 0.4914551 0.3862305
vt 0.4914551 0.3864746
vt 0.4914551 0.3864746
vt 0.4914551 0.3867188
vt 0.4914551 0.3867188
vt 0.4914551 0.3867188
vt 0.4914551 0.3867188
vt 0.4914551 0.3857422
vt 0.4914551 0.3859863
vt 0.4914551 0.3857422
vt 0.4914551 0.3859863
vt 0.4914551 0.3862305
vt 0.4914551 0.3862305
vt 0.4914551 0.3862305
vt 0.4914551 0.3862305
vt 0.4914551 0.3864746
vt 0.4914551 0.3864746
vt 0.4914551 0.3864746
vt 0.4914551 0.3867188
vt 0.4914551 0.3867188
vt 0.4914551 0.3867188
vt 0.3989258 0.4460449
vt 0.3989258 0.4453125
vt 0.3979492 0.4453125
vt 0.3979492 0.4460449
vt 0.1384277 0.4160156
vt 0.1374512 0.4160156
vt 0.1374512 0.4165039
vt 0.1384277 0.4165039
vt 0.470459 0.3737793
vt 0.470459 0.3803711
vt 0.4802246 0.3803711
vt 0.4802246 0.3737793
vt 0.4650879 0.3728027
vt 0.4650879 0.3728027
vt 0.4648438 0.3728027
vt 0.4648438 0.3728027
vt 0.470459 0.3737793
vt 0.470459 0.3803711
vt 0.4802246 0.3803711
vt 0.4802246 0.3737793
vt 0.2663574 0.4213867
vt 0.2663574 0.4208984
vt 0.2653809 0.4208984
vt 0.2653809 0.4213867
vt 0.4914551 0.3862305
vt 0.4914551 0.3862305
vt 0.4914551 0.3862305
vt 0.4914551 0.3862305
vt 0.4912109 0.3862305
vt 0.4912109 0.3862305
vt 0.4914551 0.3862305
vt 0.4914551 0.3862305
vt 0.4914551 0.3862305
vt 0.4912109 0.3862305
vt 0.4912109 0.3862305
vt 0.4914551 0.3862305
vt 0.4914551 0.3862305
vt 0.4914551 0.3862305
vt 0.4912109 0.3862305
vt 0.4914551 0.3862305
vt 0.4912109 0.3859863
vt 0.4914551 0.3859863
vt 0.4912109 0.3859863
vt 0.4914551 0.3859863
vt 0.4912109 0.3859863
vt 0.4914551 0.3859863
vt 0.4912109 0.3857422
vt 0.4914551 0.3859863
vt 0.4912109 0.3857422
vt 0.4914551 0.3859863
vt 0.4921875 0.3859863
vt 0.4921875 0.3862305
vt 0.4929199 0.3862305
vt 0.4921875 0.3867188
vt 0.4931641 0.3859863
vt 0.4921875 0.3867188
vt 0.4921875 0.387207
vt 0.4921875 0.3869629
vt 0.4929199 0.3867188
vt 0.4931641 0.3867188
vt 0.4931641 0.387207
vt 0.4929199 0.3869629
vt 0.4914551 0.3867188
vt 0.4914551 0.3867188
vt 0.4912109 0.3867188
vt 0.4912109 0.3867188
vt 0.4914551 0.3867188
vt 0.4912109 0.3864746
vt 0.4914551 0.3867188
vt 0.4912109 0.3864746
vn 0 0 1
vn 0 0 1
vn 0 0 1
vn 0 0 1
vn 0 1 0
vn 0 1 0
vn 0 1 0
vn 0 1 0
vn 0 1 0
vn 0.4299316 0 -0.902832
vn 0.4299316 0 -0.902832
vn 0.4299316 0 -0.902832
vn 0.4299316 0 -0.902832
vn 0.4299316 0 -0.902832
vn 0.4299316 0 -0.902832
vn 0.4299316 0 -0.902832
vn 0.4299316 0 -0.902832
vn 0.4299316 0 -0.902832
vn 0.4299316 0 -0.902832
vn 0.4299316 0 -0.902832
vn 0.4299316 0 -0.902832
vn 0.4299316 0 -0.902832
vn 0.4299316 0 -0.902832
vn 0 -1 0
vn 0 -1 0
vn 0 -1 0
vn 0 -1 0
vn 0 -1 0
vn 1 0 0
vn 1 0 0
vn 1 0 0
vn 1 0 0
vn 1 0 0
vn 1 0 0
vn 1 0 0
vn 1 0 0
vn 1 0 0
vn 1 0 0
vn 1 0 0
vn 1 0 0
vn 1 0 0
vn 1 0 0
vn -1 0 0
vn -1 0 0
vn -1 0 0
vn -1 0 0
vn -1 0 0
vn -1 0 0
vn -1 0 0
vn -1 0 0
vn -1 0 0
vn -1 0 0
vn -1 0 0
vn -1 0 0
vn -1 0 0
vn -1 0 0
vn -0.4299316 0 -0.902832
vn -0.4299316 0 -0.902832
vn -0.4299316 0 -0.902832
vn -0.4299316 0 -0.902832
vn -0.4299316 0 -0.902832
vn -0.4299316 0 -0.902832
vn -0.4299316 0 -0.902832
vn -0.4299316 0 -0.902832
vn -0.4299316 0 -0.902832
vn -0.4299316 0 -0.902832
vn -0.4299316 0 -0.902832
vn -0.4299316 0 -0.902832
vn -0.4299316 0 -0.902832
vn -0.4299316 0 -0.902832
vn 0 0 1
vn 0 0 1
vn 0 0 1
vn 0 0 1
vn 0 0 1
vn 0 0 1
vn 0 0 1
vn 0 0 1
vn 0 0 1
vn 0 0 1
vn 0 0 1
vn 0 0 1
vn 0 0 1
vn 0 0 1
vn 0 0 1
vn 0 0 1
vn 0 0 1
vn 0 0 1
vn 0 0 1
vn 0 0 1
vn 0 0 1
vn 0 0 1
vn 0 0 1
vn 0 0 1
vn 0 0 1
vn 0 0 1
vn 0 0 1
vn 0 0 1
vn 0 0 1
vn 0 0 1
vn 0 0 1
vn 0 0 1
vn 0 0 1
vn 0 0 1
vn 0 0 1
vn 0 0 1
vn 0 0 1
vn 0 0 1
vn 0 0 1
vn 0 0 1
vn 0 0 1
vn 0 0 1
vn 0 0 1
vn 0 0 1
vn 0 0 1
vn 0 0 1
vn 0 0 1
vn 0 0 1
vn 0 0 1
vn 0 0 1
vn 0 0 1
vn 0 0 1
vn 0 0 1
vn 0 0 1
vn 0 0 1
vn 0 0 1
vn 0 0 1
vn 0 0 1
vn 0 0 1
vn 0 0 1
vn 0 0 1
vn 0 0 1
vn 0 0 1
vn 0 0 1
vn 0 0 1
vn 0 0 1
vn 0 0 1
vn 0 0 1
vn 0 0 1
vn 0 0 1
g SM_Prop_Phone_Portable_01_Handset_01_0
f 3/3/3 2/2/2 1/1/1
f 4/4/4 3/3/3 1/1/1
f 7/7/7 6/6/6 5/5/5
f 6/6/6 8/8/8 5/5/5
f 9/9/9 8/8/8 6/6/6
f 12/12/12 11/11/11 10/10/10
f 13/13/13 12/12/12 10/10/10
f 13/13/13 10/10/10 14/14/14
f 15/15/15 13/13/13 14/14/14
f 15/15/15 14/14/14 16/16/16
f 17/17/17 15/15/15 16/16/16
f 17/17/17 16/16/16 18/18/18
f 19/19/19 17/17/17 18/18/18
f 19/19/19 18/18/18 20/20/20
f 21/21/21 19/19/19 20/20/20
f 21/21/21 20/20/20 22/22/22
f 20/20/20 23/23/23 22/22/22
f 26/26/26 25/25/25 24/24/24
f 27/27/27 25/25/25 26/26/26
f 28/28/28 27/27/27 26/26/26
f 31/31/31 30/30/30 29/29/29
f 32/32/32 31/31/31 29/29/29
f 32/32/32 29/29/29 33/33/33
f 34/34/34 32/32/32 33/33/33
f 34/34/34 33/33/33 35/35/35
f 36/36/36 34/34/34 35/35/35
f 36/36/36 35/35/35 37/37/37
f 38/38/38 36/36/36 37/37/37
f 38/38/38 37/37/37 39/39/39
f 40/40/40 38/38/38 39/39/39
f 40/40/40 39/39/39 41/41/41
f 42/42/42 40/40/40 41/41/41
f 45/45/45 44/44/44 43/43/43
f 46/46/46 45/45/45 43/43/43
f 46/46/46 43/43/43 47/47/47
f 48/48/48 46/46/46 47/47/47
f 48/48/48 47/47/47 49/49/49
f 50/50/50 48/48/48 49/49/49
f 50/50/50 49/49/49 51/51/51
f 52/52/52 50/50/50 51/51/51
f 52/52/52 51/51/51 53/53/53
f 54/54/54 52/52/52 53/53/53
f 54/54/54 53/53/53 55/55/55
f 56/56/56 54/54/54 55/55/55
f 59/59/59 58/58/58 57/57/57
f 58/58/58 60/60/60 57/57/57
f 58/58/58 61/61/61 60/60/60
f 61/61/61 62/62/62 60/60/60
f 61/61/61 63/63/63 62/62/62
f 63/63/63 64/64/64 62/62/62
f 63/63/63 65/65/65 64/64/64
f 65/65/65 66/66/66 64/64/64
f 65/65/65 67/67/67 66/66/66
f 67/67/67 68/68/68 66/66/66
f 67/67/67 69/69/69 68/68/68
f 69/69/69 70/70/70 68/68/68
f 73/73/73 72/72/72 71/71/71
f 74/74/74 73/73/73 71/71/71
f 77/77/77 76/76/76 75/75/75
f 78/78/78 77/77/77 75/75/75
f 81/81/81 80/80/80 79/79/79
f 82/82/82 81/81/81 79/79/79
f 85/85/85 84/84/84 83/83/83
f 86/86/86 85/85/85 83/83/83
f 89/89/89 88/88/88 87/87/87
f 90/90/90 89/89/89 87/87/87
f 93/93/93 92/92/92 91/91/91
f 94/94/94 93/93/93 91/91/91
f 97/97/97 96/96/96 95/95/95
f 98/98/98 97/97/97 95/95/95
f 98/98/98 95/95/95 99/99/99
f 95/95/95 100/100/100 99/99/99
f 101/101/101 98/98/98 99/99/99
f 101/101/101 102/102/102 98/98/98
f 103/103/103 102/102/102 101/101/101
f 99/99/99 100/100/100 104/104/104
f 100/100/100 105/105/105 104/104/104
f 104/104/104 105/105/105 106/106/106
f 104/104/104 106/106/106 107/107/107
f 107/107/107 103/103/103 101/101/101
f 106/106/106 108/108/108 107/107/107
f 108/108/108 103/103/103 107/107/107
f 99/99/99 109/109/109 101/101/101
f 109/109/109 110/110/110 101/101/101
f 111/111/111 109/109/109 99/99/99
f 101/101/101 110/110/110 112/112/112
f 113/113/113 111/111/111 99/99/99
f 110/110/110 114/114/114 112/112/112
f 114/114/114 111/111/111 113/113/113
f 112/112/112 114/114/114 113/113/113
f 113/113/113 115/115/115 112/112/112
f 115/115/115 116/116/116 112/112/112
f 117/117/117 115/115/115 113/113/113
f 112/112/112 116/116/116 118/118/118
f 119/119/119 117/117/117 113/113/113
f 116/116/116 120/120/120 118/118/118
f 120/120/120 117/117/117 119/119/119
f 118/118/118 120/120/120 119/119/119
f 123/123/123 122/122/122 121/121/121
f 121/121/121 122/122/122 124/124/124
f 125/125/125 123/123/123 121/121/121
f 126/126/126 121/121/121 124/124/124
f 126/126/126 124/124/124 127/127/127
f 124/124/124 128/128/128 127/127/127
f 129/129/129 123/123/123 125/125/125
f 130/130/130 129/129/129 125/125/125
f 127/127/127 128/128/128 131/131/131
f 130/130/130 131/131/131 129/129/129
f 128/128/128 132/132/132 131/131/131
f 131/131/131 132/132/132 129/129/129
f 135/135/135 134/134/134 133/133/133
f 136/136/136 135/135/135 133/133/133
f 133/133/133 134/134/134 137/137/137
f 138/138/138 135/135/135 136/136/136
f 134/134/134 139/139/139 137/137/137
f 140/140/140 138/138/138 136/136/136
f 137/137/137 139/139/139 140/140/140
f 139/139/139 138/138/138 140/140/140
