g SM_Prop_Speaker_Bluetooth_02
v 0.06354095 0.15 -0.002783531
v 0.06354095 0.15 0.0257632
v -0.06354095 0.15 0.0257632
v -0.06354095 0.15 -0.002783531
v 0.1107792 0.134 0.04729913
v 0.05177673 0.075 0.04729913
v 0.06652733 0.11925 0.04729913
v 0.1107792 0.075 0.04729913
v 0.1697816 0.075 0.04729913
v 0.1550311 0.11925 0.04729913
v 0.1107792 0.016 0.04729913
v 0.06652733 0.03075 0.04729913
v 0.1550311 0.03075 0.04729913
v -0.170108 0.075 0.04729913
v -0.1111056 0.016 0.04729913
v -0.1553574 0.03075 0.04729913
v -0.1111056 0.075 0.04729913
v -0.1111056 0.134 0.04729913
v -0.1553574 0.11925 0.04729913
v -0.05210304 0.075 0.04729913
v -0.06685364 0.03075 0.04729913
v -0.06685364 0.11925 0.04729913
v -0.2 0.1192528 0.03695282
v -0.1909943 0.1409943 -0.04729913
v -0.1909943 0.1409943 0.03695282
v -0.2 0.1192528 -0.04729913
v -0.2 0.03074725 -0.04729913
v -0.2 0.03074725 0.03695282
v -0.1909943 0.009005659 0.03695282
v -0.1909943 0.009005659 -0.04729913
v -0.1909943 0.1409943 0.03695282
v -0.1909943 0.1409943 -0.04729913
v -0.1692528 0.15 -0.04729913
v -0.1692528 0.15 0.03695282
v -0.07997421 0.15 -0.04729913
v -0.07997421 0.15 0.03695282
v -0.06354095 0.15 0.0257632
v -0.06354095 0.15 -0.002783531
v 0.06354095 0.15 0.0257632
v 0.07997421 0.15 -0.04729913
v 0.07997421 0.15 0.03695282
v 0.06354095 0.15 -0.002783531
v 0.1692528 0.15 0.03695282
v 0.1692528 0.15 -0.04729913
v 0.1909943 0.1409943 -0.04729913
v 0.1909943 0.1409943 0.03695282
v 0.1692528 0.15 0.04729913
v 0.1909943 0.1409943 0.03695282
v 0.1909943 0.1409943 0.04729913
v 0.1692528 0.15 0.03695282
v 0.04999496 0.15 0.04729913
v 0.07997421 0.15 0.03695282
v -0.04999496 0.15 0.04729913
v -0.07997421 0.15 0.03695282
v -0.1692528 0.15 0.03695282
v -0.1692528 0.15 0.04729913
v -0.1909943 0.1409943 0.04729913
v -0.1909943 0.1409943 0.03695282
v 0.1909943 0.1409943 0.04729913
v 0.1909943 0.1409943 0.03695282
v 0.2 0.1192528 0.03695282
v 0.2 0.1192528 0.04729913
v 0.2 0.03074725 0.04729913
v 0.2 0.03074725 0.03695282
v 0.1909943 0.009005659 0.03695282
v 0.1909943 0.009005659 0.04729913
v -0.2 0.03074725 0.03695282
v -0.1909943 0.009005659 0.04729913
v -0.1909943 0.009005659 0.03695282
v -0.2 0.03074725 0.04729913
v -0.2 0.1192528 0.03695282
v -0.2 0.1192528 0.04729913
v -0.1909943 0.1409943 0.03695282
v -0.1909943 0.1409943 0.04729913
v -0.1909943 0.009005659 0.03695282
v -0.1909943 0.009005659 0.04729913
v -0.1692528 0 0.04729913
v -0.1692528 0 0.03695282
v -0.04999496 0 0.04729913
v -0.04999496 0 0.03695282
v 0.04999496 0 0.04729913
v 0.04999496 0 0.03695282
v 0.1692528 0 0.03695282
v 0.1692528 0 0.04729913
v 0.1909943 0.009005659 0.04729913
v 0.1909943 0.009005659 0.03695282
v -0.1909943 0.1409943 -0.04729913
v -0.07997421 0.15 -0.04729913
v -0.1692528 0.15 -0.04729913
v -0.2 0.1192528 -0.04729913
v -0.04999496 0 -0.04729913
v -0.2 0.03074725 -0.04729913
v -0.1692528 0 -0.04729913
v -0.1909943 0.009005659 -0.04729913
v 0.04999496 0 -0.04729913
v 0.07997421 0.15 -0.04729913
v 0.2 0.03074725 -0.04729913
v 0.1909943 0.009005659 -0.04729913
v 0.1692528 0 -0.04729913
v 0.2 0.1192528 -0.04729913
v 0.1909943 0.1409943 -0.04729913
v 0.1692528 0.15 -0.04729913
v 0.1909943 0.1409943 0.03695282
v 0.1909943 0.1409943 -0.04729913
v 0.2 0.1192528 -0.04729913
v 0.2 0.1192528 0.03695282
v 0.2 0.03074725 -0.04729913
v 0.2 0.03074725 0.03695282
v 0.1909943 0.009005659 -0.04729913
v 0.1909943 0.009005659 0.03695282
v -0.1909943 0.009005659 -0.04729913
v -0.1909943 0.009005659 0.03695282
v -0.1692528 0 0.03695282
v -0.1692528 0 -0.04729913
v -0.04999496 0 -0.04729913
v -0.04999496 0 0.03695282
v 0.04999496 0 0.03695282
v 0.04999496 0 -0.04729913
v 0.1692528 0 0.03695282
v 0.1692528 0 -0.04729913
v 0.1909943 0.009005659 0.03695282
v 0.1909943 0.009005659 -0.04729913
v 0.04999496 0 0.04729913
v 0.06652733 0.03075 0.04729913
v 0.1107792 0.016 0.04729913
v 0.05177673 0.075 0.04729913
v 0.1692528 0 0.04729913
v 0.1550311 0.03075 0.04729913
v 0.1909943 0.009005659 0.04729913
v 0.2 0.03074725 0.04729913
v 0.1697816 0.075 0.04729913
v 0.2 0.1192528 0.04729913
v 0.1550311 0.11925 0.04729913
v 0.1909943 0.1409943 0.04729913
v 0.1692528 0.15 0.04729913
v 0.1107792 0.134 0.04729913
v 0.04999496 0.15 0.04729913
v 0.06652733 0.11925 0.04729913
v 0 0.075 0.04729913
v -0.04999496 0 0.04729913
v -0.04999496 0.15 0.04729913
v -0.05210304 0.075 0.04729913
v -0.06685364 0.03075 0.04729913
v -0.06685364 0.11925 0.04729913
v -0.1111056 0.016 0.04729913
v -0.1111056 0.134 0.04729913
v -0.1692528 0 0.04729913
v -0.1692528 0.15 0.04729913
v -0.1553574 0.03075 0.04729913
v -0.1909943 0.009005659 0.04729913
v -0.2 0.03074725 0.04729913
v -0.170108 0.075 0.04729913
v -0.2 0.1192528 0.04729913
v -0.1553574 0.11925 0.04729913
v -0.1909943 0.1409943 0.04729913
vt 0.1026292 0.32649
vt 0.1025888 0.3266773
vt 0.1035691 0.3267885
vt 0.1035888 0.3265964
vt 0.08143276 0.2753396
vt 0.08159822 0.2754937
vt 0.08155674 0.2753788
vt 0.08143771 0.275494
vt 0.08127707 0.2754942
vt 0.08131219 0.2753788
vt 0.08144242 0.2756405
vt 0.08155936 0.2756044
vt 0.08132211 0.2756045
vt 0.08227712 0.2754926
vt 0.0821048 0.2756393
vt 0.08222659 0.2756029
vt 0.08211702 0.2754928
vt 0.0821299 0.2753387
vt 0.08224808 0.2753775
vt 0.08195686 0.2754931
vt 0.08198994 0.2756036
vt 0.08200416 0.2753782
vt 0.08120213 0.2501047
vt 0.08107266 0.2499846
vt 0.08121154 0.2500366
vt 0.08106559 0.250049
vt 0.08104525 0.2502345
vt 0.08117503 0.2503008
vt 0.08116561 0.250369
vt 0.08103818 0.250299
vt 0.08121154 0.2500366
vt 0.08107266 0.2499846
vt 0.0810141 0.2499947
vt 0.08115053 0.2500484
vt 0.08078694 0.2500342
vt 0.0809139 0.2500941
vt 0.0809139 0.2500941
vt 0.08078694 0.2500342
vt 0.08068958 0.2501373
vt 0.08057344 0.2500713
vt 0.08068958 0.2501373
vt 0.08057344 0.2500713
vt 0.0803841 0.2501963
vt 0.08028575 0.2501214
vt 0.08021158 0.2501343
vt 0.08030534 0.2502115
vt 0.0153105 0.323685
vt 0.01521093 0.3236904
vt 0.0152247 0.3237017
vt 0.01529612 0.323674
vt 0.0156433 0.3236198
vt 0.01562655 0.3236102
vt 0.01588744 0.3235721
vt 0.01586911 0.3235635
vt 0.016125 0.3235141
vt 0.01614463 0.3235218
vt 0.01621094 0.3235089
vt 0.01619098 0.3235013
vt 0.0152247 0.3237017
vt 0.01521093 0.3236904
vt 0.01521457 0.3237764
vt 0.01522814 0.3237884
vt 0.01523806 0.3240379
vt 0.01522505 0.3240239
vt 0.01517356 0.3241372
vt 0.01517883 0.3241276
vt 0.01615148 0.3237871
vt 0.01619767 0.323856
vt 0.01618511 0.3238648
vt 0.01617007 0.3237966
vt 0.01618079 0.323575
vt 0.0162004 0.323583
vt 0.01619098 0.3235013
vt 0.01621094 0.3235089
vt 0.01618511 0.3238648
vt 0.01619767 0.323856
vt 0.01615223 0.3238769
vt 0.01620048 0.3238938
vt 0.01588502 0.3239489
vt 0.01590974 0.3239728
vt 0.0156268 0.3240184
vt 0.01562315 0.3240506
vt 0.01521499 0.3241615
vt 0.01526719 0.3241152
vt 0.01517883 0.3241276
vt 0.01517356 0.3241372
vt 0.08107266 0.2499846
vt 0.08078694 0.2500342
vt 0.0810141 0.2499947
vt 0.08106559 0.250049
vt 0.08076894 0.2503657
vt 0.08104525 0.2502345
vt 0.08098299 0.2503127
vt 0.08103818 0.250299
vt 0.08056927 0.2504152
vt 0.08057344 0.2500713
vt 0.08022906 0.2504238
vt 0.08023357 0.2504985
vt 0.08030238 0.2504814
vt 0.08021609 0.2502089
vt 0.08021158 0.2501343
vt 0.08028575 0.2501214
vt 0.08030534 0.2502115
vt 0.08021158 0.2501343
vt 0.08021609 0.2502089
vt 0.08030871 0.250291
vt 0.08022906 0.2504238
vt 0.08031841 0.2505198
vt 0.08023357 0.2504985
vt 0.08032179 0.2505993
vt 0.08103818 0.250299
vt 0.08116561 0.250369
vt 0.08110823 0.2503846
vt 0.08098299 0.2503127
vt 0.08076894 0.2503657
vt 0.08088571 0.2504454
vt 0.08067653 0.2505025
vt 0.08056927 0.2504152
vt 0.0803945 0.2505795
vt 0.08030238 0.2504814
vt 0.08032179 0.2505993
vt 0.08023357 0.2504985
vt 0.0156268 0.3240184
vt 0.01555514 0.3239608
vt 0.01544213 0.3240284
vt 0.01559538 0.323836
vt 0.01526719 0.3241152
vt 0.01531943 0.3240207
vt 0.01517883 0.3241276
vt 0.01523806 0.3240379
vt 0.01527941 0.3239111
vt 0.01522814 0.3237884
vt 0.01531402 0.3237718
vt 0.0152247 0.3237017
vt 0.0153105 0.323685
vt 0.01544261 0.3237061
vt 0.0156433 0.3236198
vt 0.01556093 0.3237234
vt 0.01575348 0.3237911
vt 0.01588502 0.3239489
vt 0.01588744 0.3235721
vt 0.01590639 0.3237621
vt 0.01592821 0.3238635
vt 0.01594973 0.3236405
vt 0.01601681 0.3238742
vt 0.01605025 0.3235816
vt 0.01615223 0.3238769
vt 0.01614463 0.3235218
vt 0.01610941 0.3238156
vt 0.01619767 0.323856
vt 0.01617007 0.3237966
vt 0.01615292 0.3237035
vt 0.0162004 0.323583
vt 0.01613757 0.3235968
vt 0.01621094 0.3235089
vn 0 1 0
vn 0 1 0
vn 0 1 0
vn 0 1 0
vn 0 0 1
vn 0 0 1
vn 0 0 1
vn 0 0 1
vn 0 0 1
vn 0 0 1
vn 0 0 1
vn 0 0 1
vn 0 0 1
vn 0 0 1
vn 0 0 1
vn 0 0 1
vn 0 0 1
vn 0 0 1
vn 0 0 1
vn 0 0 1
vn 0 0 1
vn 0 0 1
vn -0.9966804 0.08141499 0
vn -0.9238794 0.3826835 0
vn -0.9238794 0.3826835 0
vn -0.9966804 0.08141499 0
vn -0.9966804 -0.08141498 0
vn -0.9966804 -0.08141499 0
vn -0.9238795 -0.3826834 0
vn -0.9238795 -0.3826834 0
vn -0.3826838 0.9238794 0
vn -0.3826838 0.9238794 0
vn -0.08085178 0.9967262 0
vn -0.07968276 0.9968203 0
vn 0 1 0
vn 0 1 0
vn 0 1 0
vn 0 1 0
vn 0 1 0
vn 0 1 0
vn 0 1 0
vn 0 1 0
vn 0.07968281 0.9968202 0
vn 0.08085184 0.9967262 0
vn 0.382685 0.9238788 0
vn 0.382685 0.9238788 0
vn 0.07128619 0.9974559 0
vn 0.382685 0.9238788 0
vn 0.382685 0.9238789 0
vn 0.07968281 0.9968202 0
vn 0 1 0
vn 0 1 0
vn 0 1 0
vn 0 1 0
vn -0.07968276 0.9968203 0
vn -0.07128616 0.9974559 0
vn -0.3826839 0.9238794 0
vn -0.3826838 0.9238794 0
vn 0.9238783 0.3826863 0
vn 0.9238783 0.3826863 0
vn 0.9966803 0.08141567 0
vn 0.9966803 0.08141569 0
vn 0.9966803 -0.08141567 0
vn 0.9966803 -0.08141566 0
vn 0.9238784 -0.3826861 0
vn 0.9238784 -0.3826861 0
vn -0.9966804 -0.08141499 0
vn -0.9238795 -0.3826834 0
vn -0.9238795 -0.3826834 0
vn -0.9966804 -0.081415 0
vn -0.9966804 0.08141499 0
vn -0.9966804 0.081415 0
vn -0.9238794 0.3826835 0
vn -0.9238794 0.3826835 0
vn -0.3826838 -0.9238794 0
vn -0.3826838 -0.9238794 0
vn -0.06374034 -0.9979665 0
vn -0.06374032 -0.9979665 0
vn 0 -1 0
vn 0 -1 0
vn 0 -1 0
vn 0 -1 0
vn 0.06374036 -0.9979665 0
vn 0.06374037 -0.9979665 0
vn 0.382685 -0.9238789 0
vn 0.382685 -0.9238789 0
vn 0 0 -1
vn 0 0 -1
vn 0 0 -1
vn 0 0 -1
vn 0 0 -1
vn 0 0 -1
vn 0 0 -1
vn 0 0 -1
vn 0 0 -1
vn 0 0 -1
vn 0 0 -1
vn 0 0 -1
vn 0 0 -1
vn 0 0 -1
vn 0 0 -1
vn 0 0 -1
vn 0.9238783 0.3826863 0
vn 0.9238783 0.3826863 0
vn 0.9966803 0.08141567 0
vn 0.9966803 0.08141567 0
vn 0.9966803 -0.08141565 0
vn 0.9966803 -0.08141566 0
vn 0.9238784 -0.3826861 0
vn 0.9238784 -0.3826861 0
vn -0.3826838 -0.9238794 0
vn -0.3826838 -0.9238794 0
vn -0.06374032 -0.9979665 0
vn -0.06374032 -0.9979665 0
vn 0 -1 0
vn 0 -1 0
vn 0 -1 0
vn 0 -1 0
vn 0.06374036 -0.9979665 0
vn 0.06374036 -0.9979665 0
vn 0.382685 -0.9238789 0
vn 0.3826849 -0.9238789 0
vn 0 0 1
vn 0 0 1
vn 0 0 1
vn 0 0 1
vn 0 0 1
vn 0 0 1
vn 0 0 1
vn 0 0 1
vn 0 0 1
vn 0 0 1
vn 0 0 1
vn 0 0 1
vn 0 0 1
vn 0 0 1
vn 0 0 1
vn 0 0 1
vn 0 0 1
vn 0 0 1
vn 0 0 1
vn 0 0 1
vn 0 0 1
vn 0 0 1
vn 0 0 1
vn 0 0 1
vn 0 0 1
vn 0 0 1
vn 0 0 1
vn 0 0 1
vn 0 0 1
vn 0 0 1
vn 0 0 1
vn 0 0 1
vn 0 0 1
g SM_Prop_Speaker_Bluetooth_02_0
f 3/3/3 2/2/2 1/1/1
f 4/4/4 3/3/3 1/1/1
f 7/7/7 6/6/6 5/5/5
f 6/6/6 8/8/8 5/5/5
f 5/5/5 8/8/8 9/9/9
f 10/10/10 5/5/5 9/9/9
f 11/11/11 8/8/8 6/6/6
f 9/9/9 8/8/8 11/11/11
f 12/12/12 11/11/11 6/6/6
f 13/13/13 9/9/9 11/11/11
f 16/16/16 15/15/15 14/14/14
f 15/15/15 17/17/17 14/14/14
f 14/14/14 17/17/17 18/18/18
f 19/19/19 14/14/14 18/18/18
f 20/20/20 17/17/17 15/15/15
f 18/18/18 17/17/17 20/20/20
f 21/21/21 20/20/20 15/15/15
f 22/22/22 18/18/18 20/20/20
f 25/25/25 24/24/24 23/23/23
f 24/24/24 26/26/26 23/23/23
f 23/23/23 26/26/26 27/27/27
f 28/28/28 23/23/23 27/27/27
f 29/29/29 28/28/28 27/27/27
f 30/30/30 29/29/29 27/27/27
f 33/33/33 32/32/32 31/31/31
f 34/34/34 33/33/33 31/31/31
f 35/35/35 33/33/33 34/34/34
f 36/36/36 35/35/35 34/34/34
f 36/36/36 37/37/37 35/35/35
f 37/37/37 38/38/38 35/35/35
f 39/39/39 37/37/37 36/36/36
f 35/35/35 38/38/38 40/40/40
f 41/41/41 39/39/39 36/36/36
f 42/42/42 39/39/39 41/41/41
f 38/38/38 42/42/42 40/40/40
f 40/40/40 42/42/42 41/41/41
f 41/41/41 43/43/43 40/40/40
f 43/43/43 44/44/44 40/40/40
f 45/45/45 44/44/44 43/43/43
f 46/46/46 45/45/45 43/43/43
f 49/49/49 48/48/48 47/47/47
f 48/48/48 50/50/50 47/47/47
f 51/51/51 47/47/47 50/50/50
f 52/52/52 51/51/51 50/50/50
f 53/53/53 51/51/51 52/52/52
f 54/54/54 53/53/53 52/52/52
f 53/53/53 54/54/54 55/55/55
f 56/56/56 53/53/53 55/55/55
f 56/56/56 55/55/55 57/57/57
f 55/55/55 58/58/58 57/57/57
f 61/61/61 60/60/60 59/59/59
f 62/62/62 61/61/61 59/59/59
f 61/61/61 62/62/62 63/63/63
f 64/64/64 61/61/61 63/63/63
f 64/64/64 63/63/63 65/65/65
f 63/63/63 66/66/66 65/65/65
f 69/69/69 68/68/68 67/67/67
f 68/68/68 70/70/70 67/67/67
f 67/67/67 70/70/70 71/71/71
f 70/70/70 72/72/72 71/71/71
f 73/73/73 71/71/71 72/72/72
f 74/74/74 73/73/73 72/72/72
f 77/77/77 76/76/76 75/75/75
f 78/78/78 77/77/77 75/75/75
f 79/79/79 77/77/77 78/78/78
f 80/80/80 79/79/79 78/78/78
f 79/79/79 80/80/80 81/81/81
f 80/80/80 82/82/82 81/81/81
f 82/82/82 83/83/83 81/81/81
f 83/83/83 84/84/84 81/81/81
f 85/85/85 84/84/84 83/83/83
f 86/86/86 85/85/85 83/83/83
f 89/89/89 88/88/88 87/87/87
f 88/88/88 90/90/90 87/87/87
f 88/88/88 91/91/91 90/90/90
f 91/91/91 92/92/92 90/90/90
f 91/91/91 93/93/93 92/92/92
f 93/93/93 94/94/94 92/92/92
f 91/91/91 88/88/88 95/95/95
f 88/88/88 96/96/96 95/95/95
f 97/97/97 95/95/95 96/96/96
f 97/97/97 98/98/98 95/95/95
f 98/98/98 99/99/99 95/95/95
f 100/100/100 97/97/97 96/96/96
f 100/100/100 96/96/96 101/101/101
f 96/96/96 102/102/102 101/101/101
f 105/105/105 104/104/104 103/103/103
f 106/106/106 105/105/105 103/103/103
f 107/107/107 105/105/105 106/106/106
f 108/108/108 107/107/107 106/106/106
f 107/107/107 108/108/108 109/109/109
f 108/108/108 110/110/110 109/109/109
f 113/113/113 112/112/112 111/111/111
f 114/114/114 113/113/113 111/111/111
f 114/114/114 115/115/115 113/113/113
f 115/115/115 116/116/116 113/113/113
f 116/116/116 115/115/115 117/117/117
f 115/115/115 118/118/118 117/117/117
f 117/117/117 118/118/118 119/119/119
f 118/118/118 120/120/120 119/119/119
f 121/121/121 119/119/119 120/120/120
f 122/122/122 121/121/121 120/120/120
f 125/125/125 124/124/124 123/123/123
f 123/123/123 124/124/124 126/126/126
f 127/127/127 125/125/125 123/123/123
f 127/127/127 128/128/128 125/125/125
f 127/127/127 129/129/129 128/128/128
f 129/129/129 130/130/130 128/128/128
f 130/130/130 131/131/131 128/128/128
f 130/130/130 132/132/132 131/131/131
f 132/132/132 133/133/133 131/131/131
f 132/132/132 134/134/134 133/133/133
f 134/134/134 135/135/135 133/133/133
f 135/135/135 136/136/136 133/133/133
f 135/135/135 137/137/137 136/136/136
f 137/137/137 138/138/138 136/136/136
f 126/126/126 138/138/138 137/137/137
f 139/139/139 123/123/123 126/126/126
f 139/139/139 126/126/126 137/137/137
f 123/123/123 139/139/139 140/140/140
f 137/137/137 141/141/141 139/139/139
f 139/139/139 142/142/142 140/140/140
f 139/139/139 141/141/141 142/142/142
f 142/142/142 143/143/143 140/140/140
f 141/141/141 144/144/144 142/142/142
f 140/140/140 143/143/143 145/145/145
f 146/146/146 144/144/144 141/141/141
f 147/147/147 140/140/140 145/145/145
f 148/148/148 146/146/146 141/141/141
f 147/147/147 145/145/145 149/149/149
f 150/150/150 147/147/147 149/149/149
f 151/151/151 150/150/150 149/149/149
f 151/151/151 149/149/149 152/152/152
f 153/153/153 151/151/151 152/152/152
f 148/148/148 154/154/154 146/146/146
f 153/153/153 152/152/152 154/154/154
f 148/148/148 155/155/155 154/154/154
f 155/155/155 153/153/153 154/154/154
