g SM_Prop_Paper_Lewd_Copy_02
v 0.01019645 0.01189048 -0.06682453
v 0.008120383 0.01189048 -0.05214389
v 0.00207672 0.01189048 -0.05629511
v -0.110571 1.501226E-16 -0.1667407
v -0.110571 0 0.1667404
v 0.110571 0 0.1667404
v 0.110571 1.501226E-16 -0.1667407
v -0.110571 0 0.1667404
v -0.1105719 0.01189049 0.1667398
v 0.110571 0.01189047 0.1667404
v 0.110571 0 0.1667404
v 0.110571 1.501226E-16 -0.1667407
v 0.110571 0 0.1667404
v 0.110571 0.01189047 0.1667404
v 0.110571 0.01189047 -0.1667407
v 0.110571 1.501226E-16 -0.1667407
v 0.110571 0.01189047 -0.1667407
v -0.1105719 0.01189049 -0.1667413
v -0.110571 1.501226E-16 -0.1667407
v -0.1105719 0.01189049 0.1667398
v -0.110571 0 0.1667404
v -0.110571 1.501226E-16 -0.1667407
v -0.1105719 0.01189049 -0.1667413
v -0.08576417 0.01189049 -0.05792637
v -0.09214789 0.01189049 -0.04333185
v -0.1015719 0.01189049 -0.04084465
v -0.1015719 0.01189049 -0.1577413
v -0.06120599 0.01189048 -0.07509795
v -0.00945078 0.01189048 -0.07477162
v 0.01667851 0.01189048 -0.08120957
v 0.0111218 0.01189048 -0.07336804
v 0.03133987 0.01189047 -0.07972846
v 0.101571 0.01189047 -0.1577407
v 0.04254189 0.01189047 -0.0697901
v 0.03633626 0.01189047 -0.07114737
v 0.06574997 0.01189047 -0.05556542
v 0.08282816 0.01189047 -0.01161055
v 0.07852897 0.01189047 0.03071751
v 0.101571 0.01189047 0.1577404
v 0.05255427 0.01189047 0.07532679
v 0.01172071 0.01189048 0.08791218
v -0.1015719 0.01189049 0.1577398
v -0.02892584 0.01189048 0.07688881
v -0.0730722 0.01189048 0.05102642
v -0.1015719 0.01189049 0.05440896
v -0.03276112 0.01189048 -0.069753
v -0.06955322 0.01189049 -0.05692791
v -0.04891301 0.01189048 -0.07028899
v -0.04911117 0.01189049 -0.05566886
v -0.0502239 0.01189049 -0.03468214
v -0.06683355 0.01189049 -0.0345397
v -0.1015719 0.01189049 -0.04084465
v -0.09214789 0.01189049 -0.04333185
v -0.09109885 0.01189049 -0.01093394
v -0.1015719 0.01189049 0.05440896
v -0.0731187 0.01189048 0.02220948
v -0.0730722 0.01189048 0.05102642
v -0.02892584 0.01189048 0.07688881
v 0.0169603 0.01189048 -0.05104801
v 0.02188254 0.01189048 -0.04475676
v 0.00199631 0.01189048 -0.00596027
v -0.00698294 0.01189048 0.00030133
v 0.008120383 0.01189048 -0.05214389
v -0.009642933 0.01189048 -0.02357223
v -0.02250106 0.01189048 -0.00289038
v -0.08576417 0.01189049 -0.05792637
v -0.04891301 0.01189048 -0.07028899
v -0.06955322 0.01189049 -0.05692791
v -0.06120599 0.01189048 -0.07509795
v -0.03276112 0.01189048 -0.069753
v -0.00945078 0.01189048 -0.07477162
v -0.002472198 0.01189048 -0.05866064
v -0.04911117 0.01189049 -0.05566886
v -0.0121124 0.01189048 -0.05339005
v 0.008120383 0.01189048 -0.05214389
v 0.00207672 0.01189048 -0.05629511
v 0.003970052 0.01189048 -0.0680383
v 0.01019645 0.01189048 -0.06682453
v 0.0111218 0.01189048 -0.07336804
v -0.09214789 0.01189049 -0.04333185
v -0.08576417 0.01189049 -0.05792637
v -0.06955322 0.01189049 -0.05692791
v -0.06683355 0.01189049 -0.0345397
v -0.0801458 0.01189049 -0.01003478
v -0.09109885 0.01189049 -0.01093394
v 0.07852897 0.01189047 0.03071751
v 0.05255427 0.01189047 0.07532679
v 0.04470457 0.01189047 0.04822638
v 0.05060308 0.01189048 -0.02541333
v 0.06574997 0.01189047 -0.05556542
v 0.08282816 0.01189047 -0.01161055
v 0.02188254 0.01189048 -0.04475676
v 0.04254189 0.01189047 -0.0697901
v 0.03633626 0.01189047 -0.07114737
v -0.009642933 0.01189048 -0.02357223
v -0.015781 0.01189048 -0.02495235
v -0.0122439 0.01189048 -0.04262004
v -0.00691155 0.01189048 -0.04167856
v 0.008120383 0.01189048 -0.05214389
v -0.009642933 0.01189048 -0.02357223
v -0.00691155 0.01189048 -0.04167856
v -0.0121124 0.01189048 -0.05339005
v -0.0122439 0.01189048 -0.04262004
v -0.0502239 0.01189049 -0.03468214
v -0.04911117 0.01189049 -0.05566886
v -0.015781 0.01189048 -0.02495235
v -0.02250106 0.01189048 -0.00289038
v -0.009642933 0.01189048 -0.02357223
v 0.01019645 0.01189048 -0.06682453
v 0.00207672 0.01189048 -0.05629511
v -0.002472198 0.01189048 -0.05866064
v 0.003970052 0.01189048 -0.0680383
v 0.0002335083 0.01189048 0.04864654
v 0.00628417 0.01189048 0.0617525
v -0.01070689 0.01189048 0.06874425
v -0.02086223 0.01189048 0.04591713
v -0.04714764 0.01189048 0.03627108
v -0.03633653 0.01189048 0.05696183
v -0.06683355 0.01189049 -0.0345397
v -0.0502239 0.01189049 -0.03468214
v -0.02250106 0.01189048 -0.00289038
v -0.05866856 0.01189048 -0.00395289
v -0.0801458 0.01189049 -0.01003478
v -0.05472123 0.01189048 0.01455395
v -0.02892584 0.01189048 0.07688881
v -0.0731187 0.01189048 0.02220948
v -0.03633653 0.01189048 0.05696183
v 0.01172071 0.01189048 0.08791218
v -0.01070689 0.01189048 0.06874425
v 0.00628417 0.01189048 0.0617525
v 0.04470457 0.01189047 0.04822638
v 0.05255427 0.01189047 0.07532679
v 0.03133987 0.01189047 -0.07972846
v 0.03633626 0.01189047 -0.07114737
v 0.02188254 0.01189048 -0.04475676
v 0.0169603 0.01189048 -0.05104801
v 0.008120383 0.01189048 -0.05214389
v 0.01019645 0.01189048 -0.06682453
v 0.01667851 0.01189048 -0.08120957
v 0.0111218 0.01189048 -0.07336804
v 0.00199631 0.01189048 -0.00596027
v 0.02188254 0.01189048 -0.04475676
v 0.05060308 0.01189048 -0.02541333
v 0.04470457 0.01189047 0.04822638
v -0.00698294 0.01189048 0.00030133
v 0.0002335083 0.01189048 0.04864654
v 0.00628417 0.01189048 0.0617525
v -0.02250106 0.01189048 -0.00289038
v -0.02086223 0.01189048 0.04591713
v -0.04714764 0.01189048 0.03627108
v -0.05472123 0.01189048 0.01455395
v -0.0801458 0.01189049 -0.01003478
v -0.0731187 0.01189048 0.02220948
v -0.03633653 0.01189048 0.05696183
v -0.09109885 0.01189049 -0.01093394
v -0.1105719 0.01189049 0.1667398
v -0.1015719 0.01189049 0.1577398
v 0.101571 0.01189047 0.1577404
v -0.1015719 0.01189049 0.05440896
v 0.110571 0.01189047 0.1667404
v 0.101571 0.01189047 -0.1577407
v 0.110571 0.01189047 -0.1667407
v -0.1015719 0.01189049 -0.1577413
v -0.1105719 0.01189049 -0.1667413
v -0.1015719 0.01189049 -0.04084465
vt 0.08215332 0.376709
vt 0.08209229 0.376709
vt 0.08209229 0.376709
vt 0.380127 0.3642578
vt 0.380127 0.359375
vt 0.3842773 0.359375
vt 0.3842773 0.3642578
vt 0.380127 0.359375
vt 0.380127 0.359375
vt 0.3842773 0.359375
vt 0.3842773 0.359375
vt 0.3842773 0.3642578
vt 0.3842773 0.359375
vt 0.3842773 0.359375
vt 0.3842773 0.3642578
vt 0.3842773 0.3642578
vt 0.3842773 0.3642578
vt 0.380127 0.3642578
vt 0.380127 0.3642578
vt 0.380127 0.359375
vt 0.380127 0.359375
vt 0.380127 0.3642578
vt 0.380127 0.3642578
vt 0.07971191 0.230835
vt 0.07965088 0.230835
vt 0.07958984 0.230957
vt 0.08001709 0.230957
vt 0.07971191 0.230835
vt 0.07971191 0.2307129
vt 0.07971191 0.2305908
vt 0.07971191 0.2305908
vt 0.07971191 0.2305908
vt 0.07995605 0.2304688
vt 0.07971191 0.2305908
vt 0.07971191 0.2305908
vt 0.07965088 0.2304688
vt 0.07952881 0.2304688
vt 0.07940674 0.2304688
vt 0.07904053 0.2304688
vt 0.0793457 0.2305908
vt 0.07922363 0.2305908
vt 0.07897949 0.230835
vt 0.07928467 0.2307129
vt 0.0793457 0.230835
vt 0.0793457 0.230835
vt 0.07971191 0.2307129
vt 0.07965088 0.230835
vt 0.07971191 0.230835
vt 0.07965088 0.230835
vt 0.07958984 0.230835
vt 0.07958984 0.230835
vt 0.07824707 0.3208008
vt 0.07830811 0.3208008
vt 0.07800293 0.3208008
vt 0.07745361 0.3208008
vt 0.07775879 0.3205566
vt 0.07751465 0.3203125
vt 0.07727051 0.3200684
vt 0.08007813 0.324707
vt 0.08001709 0.3244629
vt 0.07922363 0.3249512
vt 0.07910156 0.3249512
vt 0.08013916 0.3249512
vt 0.07952881 0.3251953
vt 0.0791626 0.3251953
vt 0.08062744 0.3818359
vt 0.08074951 0.3813477
vt 0.08062744 0.3815918
vt 0.08081055 0.3815918
vt 0.08074951 0.3813477
vt 0.08087158 0.3811035
vt 0.08068848 0.3811035
vt 0.08062744 0.3813477
vt 0.08062744 0.3811035
vt 0.08062744 0.3808594
vt 0.08068848 0.3808594
vt 0.08081055 0.3808594
vt 0.08081055 0.3808594
vt 0.08087158 0.3808594
vt 0.1030273 0.3527832
vt 0.1030884 0.3527832
vt 0.1030884 0.3525391
vt 0.1029053 0.3525391
vt 0.1028442 0.3527832
vt 0.1027832 0.3527832
vt 0.081604 0.3762207
vt 0.08129883 0.3762207
vt 0.081604 0.3762207
vt 0.08190918 0.3762207
vt 0.08215332 0.3762207
vt 0.08184814 0.3762207
vt 0.08203125 0.3764648
vt 0.08221436 0.3764648
vt 0.08221436 0.3764648
vt 0.0803833 0.3012695
vt 0.0803833 0.302002
vt 0.08135986 0.302002
vt 0.08135986 0.3012695
vt 0.1030884 0.3520508
vt 0.1029053 0.3520508
vt 0.1030273 0.3520508
vt 0.1030884 0.3522949
vt 0.1030273 0.3522949
vt 0.1029663 0.3522949
vt 0.1030884 0.3525391
vt 0.1029053 0.3522949
vt 0.1027832 0.3522949
vt 0.1029053 0.3520508
vt 0.07971191 0.2307129
vt 0.07965088 0.2307129
vt 0.07965088 0.2307129
vt 0.07971191 0.2307129
vt 0.3862305 0.3618164
vt 0.3862305 0.3615723
vt 0.3859863 0.3618164
vt 0.3862305 0.3620605
vt 0.3862305 0.3623047
vt 0.3862305 0.3620605
vt 0.3869629 0.3623047
vt 0.3869629 0.3623047
vt 0.3867188 0.3618164
vt 0.3867188 0.3623047
vt 0.3867188 0.3625488
vt 0.3864746 0.3623047
vt 0.08123779 0.376709
vt 0.0814209 0.3771973
vt 0.08135986 0.376709
vt 0.08123779 0.3764648
vt 0.08129883 0.376709
vt 0.08135986 0.3764648
vt 0.08135986 0.3764648
vt 0.08129883 0.3762207
vt 0.08001709 0.255127
vt 0.07977295 0.255127
vt 0.07897949 0.2553711
vt 0.0791626 0.2556152
vt 0.0791626 0.2558594
vt 0.07958984 0.2558594
vt 0.08001709 0.2556152
vt 0.07977295 0.2558594
vt 0.1027832 0.3520508
vt 0.1030884 0.3520508
vt 0.1029663 0.3518066
vt 0.102478 0.3518066
vt 0.1027832 0.3520508
vt 0.1025391 0.3520508
vt 0.102356 0.3520508
vt 0.1027832 0.3522949
vt 0.1025391 0.3522949
vt 0.1025391 0.3522949
vt 0.1026001 0.3525391
vt 0.1027222 0.3525391
vt 0.1025391 0.3525391
vt 0.102356 0.3522949
vt 0.1027832 0.3527832
vt 0.380127 0.359375
vt 0.380127 0.359375
vt 0.3842773 0.359375
vt 0.380127 0.361084
vt 0.3842773 0.359375
vt 0.3842773 0.3642578
vt 0.3842773 0.3642578
vt 0.380127 0.3642578
vt 0.380127 0.3642578
vt 0.380127 0.3623047
vn 0 1 0
vn 0 1 0
vn 0 1 0
vn 0 -1 0
vn 0 -1 0
vn 0 -1 0
vn 0 -1 0
vn 0 2.56896E-05 1
vn 0 2.56896E-05 1
vn 0 2.56896E-05 1
vn 0 2.56896E-05 1
vn 1 0 0
vn 1 0 0
vn 1 0 0
vn 1 0 0
vn 0 -2.56896E-05 -1
vn 0 -2.56896E-05 -1
vn 0 -2.56896E-05 -1
vn 0 -2.56896E-05 -1
vn -1 -7.70092E-05 0
vn -1 -7.70092E-05 0
vn -1 -7.70092E-05 0
vn -1 -7.70092E-05 0
vn 0 1 0
vn 0 1 0
vn 0 1 0
vn 0 1 0
vn 0 1 0
vn 0 1 0
vn 0 1 0
vn 0 1 0
vn 0 1 0
vn 0 1 0
vn 0 1 0
vn 0 1 0
vn 0 1 0
vn 0 1 0
vn 0 1 0
vn 0 1 0
vn 0 1 0
vn 0 1 0
vn 0 1 0
vn 0 1 0
vn 0 1 0
vn 0 1 0
vn 0 1 0
vn 0 1 0
vn 0 1 0
vn 0 1 0
vn 0 1 0
vn 0 1 0
vn 0 1 0
vn 0 1 0
vn 0 1 0
vn 0 1 0
vn 0 1 0
vn 0 1 0
vn 0 1 0
vn 0 1 0
vn 0 1 0
vn 0 1 0
vn 0 1 0
vn 0 1 0
vn 0 1 0
vn 0 1 0
vn 0 1 0
vn 0 1 0
vn 0 1 0
vn 0 1 0
vn 0 1 0
vn 0 1 0
vn 0 1 0
vn 0 1 0
vn 0 1 0
vn 0 1 0
vn 0 1 0
vn 0 1 0
vn 0 1 0
vn 0 1 0
vn 0 1 0
vn 0 1 0
vn 0 1 0
vn 0 1 0
vn 0 1 0
vn 0 1 0
vn 0 1 0
vn 0 1 0
vn 0 1 0
vn 0 1 0
vn 0 1 0
vn 0 1 0
vn 0 1 0
vn 0 1 0
vn 0 1 0
vn 0 1 0
vn 0 1 0
vn 0 1 0
vn 0 1 0
vn 0 1 0
vn 0 1 0
vn 0 1 0
vn 0 1 0
vn 0 1 0
vn 0 1 0
vn 0 1 0
vn 0 1 0
vn 0 1 0
vn 0 1 0
vn 0 1 0
vn 0 1 0
vn 0 1 0
vn 0 1 0
vn 0 1 0
vn 0 1 0
vn 0 1 0
vn 0 1 0
vn 0 1 0
vn 0 1 0
vn 0 1 0
vn 0 1 0
vn 0 1 0
vn 0 1 0
vn 0 1 0
vn 0 1 0
vn 0 1 0
vn 0 1 0
vn 0 1 0
vn 0 1 0
vn 0 1 0
vn 0 1 0
vn 0 1 0
vn 0 1 0
vn 0 1 0
vn 0 1 0
vn 0 1 0
vn 0 1 0
vn 0 1 0
vn 0 1 0
vn 0 1 0
vn 0 1 0
vn 0 1 0
vn 0 1 0
vn 0 1 0
vn 0 1 0
vn 0 1 0
vn 0 1 0
vn 0 1 0
vn 0 1 0
vn 0 1 0
vn 0 1 0
vn 0 1 0
vn 0 1 0
vn 0 1 0
vn 0 1 0
vn 0 1 0
vn 0 1 0
vn 0 1 0
vn 0 1 0
vn 0 1 0
vn 0 1 0
vn 0 1 0
vn 0 1 0
vn 0 1 0
vn 0 1 0
vn 0 1 0
g SM_Prop_Paper_Lewd_Copy_02_0
f 3/3/3 2/2/2 1/1/1
f 6/6/6 5/5/5 4/4/4
f 7/7/7 6/6/6 4/4/4
f 10/10/10 9/9/9 8/8/8
f 11/11/11 10/10/10 8/8/8
f 14/14/14 13/13/13 12/12/12
f 15/15/15 14/14/14 12/12/12
f 18/18/18 17/17/17 16/16/16
f 19/19/19 18/18/18 16/16/16
f 22/22/22 21/21/21 20/20/20
f 23/23/23 22/22/22 20/20/20
f 26/26/26 25/25/25 24/24/24
f 27/27/27 26/26/26 24/24/24
f 27/27/27 24/24/24 28/28/28
f 27/27/27 28/28/28 29/29/29
f 27/27/27 29/29/29 30/30/30
f 29/29/29 31/31/31 30/30/30
f 27/27/27 30/30/30 32/32/32
f 33/33/33 27/27/27 32/32/32
f 33/33/33 32/32/32 34/34/34
f 32/32/32 35/35/35 34/34/34
f 33/33/33 34/34/34 36/36/36
f 33/33/33 36/36/36 37/37/37
f 33/33/33 37/37/37 38/38/38
f 39/39/39 33/33/33 38/38/38
f 39/39/39 38/38/38 40/40/40
f 39/39/39 40/40/40 41/41/41
f 39/39/39 41/41/41 42/42/42
f 41/41/41 43/43/43 42/42/42
f 43/43/43 44/44/44 42/42/42
f 44/44/44 45/45/45 42/42/42
f 48/48/48 47/47/47 46/46/46
f 47/47/47 49/49/49 46/46/46
f 50/50/50 49/49/49 47/47/47
f 51/51/51 50/50/50 47/47/47
f 54/54/54 53/53/53 52/52/52
f 54/54/54 52/52/52 55/55/55
f 56/56/56 54/54/54 55/55/55
f 57/57/57 56/56/56 55/55/55
f 57/57/57 58/58/58 56/56/56
f 61/61/61 60/60/60 59/59/59
f 62/62/62 61/61/61 59/59/59
f 62/62/62 59/59/59 63/63/63
f 64/64/64 62/62/62 63/63/63
f 64/64/64 65/65/65 62/62/62
f 68/68/68 67/67/67 66/66/66
f 67/67/67 69/69/69 66/66/66
f 67/67/67 70/70/70 69/69/69
f 70/70/70 71/71/71 69/69/69
f 70/70/70 72/72/72 71/71/71
f 70/70/70 73/73/73 72/72/72
f 73/73/73 74/74/74 72/72/72
f 74/74/74 75/75/75 72/72/72
f 75/75/75 76/76/76 72/72/72
f 72/72/72 77/77/77 71/71/71
f 77/77/77 78/78/78 71/71/71
f 78/78/78 79/79/79 71/71/71
f 82/82/82 81/81/81 80/80/80
f 83/83/83 82/82/82 80/80/80
f 84/84/84 83/83/83 80/80/80
f 85/85/85 84/84/84 80/80/80
f 88/88/88 87/87/87 86/86/86
f 89/89/89 88/88/88 86/86/86
f 89/89/89 86/86/86 90/90/90
f 86/86/86 91/91/91 90/90/90
f 89/89/89 90/90/90 92/92/92
f 90/90/90 93/93/93 92/92/92
f 93/93/93 94/94/94 92/92/92
f 97/97/97 96/96/96 95/95/95
f 98/98/98 97/97/97 95/95/95
f 101/101/101 100/100/100 99/99/99
f 101/101/101 99/99/99 102/102/102
f 103/103/103 101/101/101 102/102/102
f 103/103/103 102/102/102 104/104/104
f 102/102/102 105/105/105 104/104/104
f 106/106/106 103/103/103 104/104/104
f 107/107/107 106/106/106 104/104/104
f 107/107/107 108/108/108 106/106/106
f 111/111/111 110/110/110 109/109/109
f 112/112/112 111/111/111 109/109/109
f 115/115/115 114/114/114 113/113/113
f 116/116/116 115/115/115 113/113/113
f 116/116/116 117/117/117 115/115/115
f 117/117/117 118/118/118 115/115/115
f 121/121/121 120/120/120 119/119/119
f 122/122/122 121/121/121 119/119/119
f 123/123/123 122/122/122 119/119/119
f 122/122/122 124/124/124 121/121/121
f 124/124/124 122/122/122 123/123/123
f 127/127/127 126/126/126 125/125/125
f 127/127/127 125/125/125 128/128/128
f 129/129/129 127/127/127 128/128/128
f 130/130/130 129/129/129 128/128/128
f 131/131/131 130/130/130 128/128/128
f 131/131/131 128/128/128 132/132/132
f 135/135/135 134/134/134 133/133/133
f 136/136/136 135/135/135 133/133/133
f 136/136/136 133/133/133 137/137/137
f 133/133/133 138/138/138 137/137/137
f 133/133/133 139/139/139 138/138/138
f 139/139/139 140/140/140 138/138/138
f 143/143/143 142/142/142 141/141/141
f 144/144/144 143/143/143 141/141/141
f 144/144/144 141/141/141 145/145/145
f 146/146/146 144/144/144 145/145/145
f 146/146/146 147/147/147 144/144/144
f 146/146/146 145/145/145 148/148/148
f 149/149/149 146/146/146 148/148/148
f 150/150/150 149/149/149 148/148/148
f 151/151/151 150/150/150 148/148/148
f 151/151/151 152/152/152 150/150/150
f 152/152/152 153/153/153 150/150/150
f 154/154/154 150/150/150 153/153/153
f 152/152/152 155/155/155 153/153/153
f 158/158/158 157/157/157 156/156/156
f 156/156/156 157/157/157 159/159/159
f 160/160/160 158/158/158 156/156/156
f 161/161/161 158/158/158 160/160/160
f 162/162/162 161/161/161 160/160/160
f 163/163/163 161/161/161 162/162/162
f 156/156/156 159/159/159 164/164/164
f 164/164/164 163/163/163 162/162/162
f 159/159/159 165/165/165 164/164/164
f 165/165/165 163/163/163 164/164/164
