g SM_Prop_Chest_05_Lid
v -0.05 0.01724035 0.4518706
v 0.05 0.01724035 0.4518706
v -0.05 0.03357702 0.4518706
v 0.05 0.03357702 0.4518706
v -0.05 0.03357702 0.4395856
v 0.05 0.03357702 0.4395856
v -0.05 0.01250288 0.4395856
v 0.05 0.01250288 0.4395856
v -0.2165531 0.02689283 0.005156479
v -0.3179495 0.02689283 0.005156479
v -0.2165531 0.02689283 -0.006104641
v -0.3179495 0.02689283 -0.006104641
v -0.2165531 0.002634945 0.005156422
v -0.3179495 0.002634945 0.005156422
v -0.3179495 0.009912167 -0.006104641
v -0.2165531 0.009912167 -0.006104641
v 0.31795 0.02689283 0.005156612
v 0.2165536 0.02689283 0.005156612
v 0.31795 0.02689283 -0.006104565
v 0.2165536 0.02689283 -0.006104565
v 0.31795 0.002634945 0.005156555
v 0.2165536 0.002634945 0.005156555
v 0.2165536 0.009912167 -0.006104565
v 0.31795 0.009912167 -0.006104565
v 0.3788379 -1.907349E-08 0.4136646
v 0.3570859 -5.722046E-08 0.4351874
v -0.3788379 -1.907349E-08 0.4136646
v -0.3570859 -5.722046E-08 0.4351874
v 0.3788379 0 0.02619381
v 0.3570859 0 0.004671116
v -0.3570859 0 0.004671116
v -0.3788379 0 0.02619381
v 0.3610089 0.05562725 0.4398583
v 0.3564551 0.06662151 0.4288647
v -0.3610089 0.05562725 0.4398583
v -0.3564551 0.06662151 0.4288647
v 0.3720056 0.06662151 0.4133154
v 0.3829999 0.05562727 0.4178687
v -0.3720056 0.06662151 0.4133154
v -0.3829999 0.05562727 0.4178687
v 0.3720056 0.06662155 0.02654297
v 0.3829999 0.05562727 0.02198975
v 0.3610089 0.05562727 1.907349E-08
v 0.3564551 0.06662155 0.01099365
v -0.3610089 0.05562727 1.907349E-08
v -0.3564551 0.06662155 0.01099365
v -0.3720056 0.06662155 0.02654297
v -0.3829999 0.05562727 0.02198975
v 0.3514984 -1.907349E-08 0.03150146
v 0.3514984 -1.907349E-08 0.408357
v -0.3514984 -1.907349E-08 0.408357
v -0.3514984 -1.907349E-08 0.03150146
v 0.3514984 0.03094402 0.4083569
v 0.3514984 0.030944 0.03150146
v -0.3514984 0.03094402 0.4083569
v -0.3514984 0.030944 0.03150146
v 0.3230591 0.04656811 0.3859766
v 0.3230591 0.04656813 0.05388184
v -0.3230591 0.04656811 0.3859766
v -0.3230591 0.04656813 0.05388184
v 0.3610089 0.009852867 0.4398585
v -0.3610089 0.009852867 0.4398585
v -0.3829999 0.009852886 0.4178686
v -0.3829999 0.009852848 0.02198975
v -0.3610089 0.009852848 3.814697E-08
v 0.3610089 0.009852848 3.814697E-08
v 0.3829999 0.009852848 0.02198975
v 0.3829999 0.009852886 0.4178686
v -0.05 0.03357702 0.4395856
v 0.05 0.03357702 0.4395856
v -0.05 0.01250288 0.4395856
v 0.05 0.01250288 0.4395856
v 0.05 0.01724035 0.4518706
v 0.05 0.03357702 0.4518706
v 0.05 0.03357702 0.4395856
v 0.05 0.01250288 0.4395856
v -0.05 0.01250288 0.4395856
v -0.05 0.03357702 0.4395856
v -0.05 0.03357702 0.4518706
v -0.05 0.01724035 0.4518706
v -0.05 0.03357702 0.4518706
v 0.05 0.03357702 0.4518706
v 0.05 0.01724035 0.4518706
v -0.05 0.01724035 0.4518706
v -0.3179495 0.02689283 0.005156479
v -0.3179495 0.02689283 -0.006104641
v -0.2165531 0.02689283 -0.006104641
v -0.3179495 0.02689283 -0.006104641
v -0.3179495 0.009912167 -0.006104641
v -0.2165531 0.02689283 -0.006104641
v -0.2165531 0.009912167 -0.006104641
v -0.2165531 0.02689283 0.005156479
v -0.3179495 0.02689283 0.005156479
v -0.2165531 0.02689283 0.005156479
v -0.2165531 0.002634945 0.005156422
v -0.3179495 0.002634945 0.005156422
v -0.3179495 0.009912167 -0.006104641
v -0.3179495 0.002634945 0.005156422
v -0.2165531 0.002634945 0.005156422
v -0.2165531 0.009912167 -0.006104641
v 0.2165536 0.02689283 0.005156612
v 0.2165536 0.02689283 -0.006104565
v 0.31795 0.02689283 -0.006104565
v 0.2165536 0.02689283 -0.006104565
v 0.2165536 0.009912167 -0.006104565
v 0.31795 0.02689283 -0.006104565
v 0.31795 0.009912167 -0.006104565
v 0.31795 0.02689283 0.005156612
v 0.2165536 0.02689283 0.005156612
v 0.31795 0.02689283 0.005156612
v 0.31795 0.002634945 0.005156555
v 0.2165536 0.002634945 0.005156555
v 0.2165536 0.009912167 -0.006104565
v 0.2165536 0.002634945 0.005156555
v 0.31795 0.002634945 0.005156555
v 0.31795 0.009912167 -0.006104565
v 0.3564551 0.06662151 0.4288647
v 0.3610089 0.05562725 0.4398583
v -0.3610089 0.05562725 0.4398583
v -0.3564551 0.06662151 0.4288647
v 0.3720056 0.06662151 0.4133154
v 0.3829999 0.05562727 0.4178687
v -0.3829999 0.05562727 0.4178687
v -0.3720056 0.06662151 0.4133154
v 0.3720056 0.06662155 0.02654297
v 0.3829999 0.05562727 0.02198975
v 0.3564551 0.06662155 0.01099365
v 0.3610089 0.05562727 1.907349E-08
v -0.3564551 0.06662155 0.01099365
v -0.3720056 0.06662155 0.02654297
v -0.3829999 0.05562727 0.02198975
v -0.3610089 0.05562727 1.907349E-08
v -0.3564551 0.06662151 0.4288647
v -0.3720056 0.06662151 0.4133154
v -0.3720056 0.06662155 0.02654297
v -0.3564551 0.06662155 0.01099365
v 0.3564551 0.06662151 0.4288647
v 0.3564551 0.06662155 0.01099365
v 0.3720056 0.06662155 0.02654297
v 0.3720056 0.06662151 0.4133154
v 0.3570859 0 0.004671116
v 0.3788379 0 0.02619381
v 0.3788379 -1.907349E-08 0.4136646
v 0.3570859 -5.722046E-08 0.4351874
v -0.3570859 -5.722046E-08 0.4351874
v -0.3788379 -1.907349E-08 0.4136646
v -0.3788379 0 0.02619381
v -0.3570859 0 0.004671116
v 0.3514984 -1.907349E-08 0.03150146
v 0.3514984 -1.907349E-08 0.408357
v 0.3514984 -1.907349E-08 0.408357
v 0.3514984 0.03094402 0.4083569
v -0.3514984 -1.907349E-08 0.408357
v -0.3514984 -1.907349E-08 0.408357
v -0.3514984 0.03094402 0.4083569
v -0.3514984 -1.907349E-08 0.03150146
v -0.3514984 -1.907349E-08 0.03150146
v -0.3514984 0.030944 0.03150146
v 0.3514984 0.030944 0.03150146
v 0.3514984 -1.907349E-08 0.03150146
v 0.3514984 0.030944 0.03150146
v 0.3230591 0.04656813 0.05388184
v 0.3230591 0.04656811 0.3859766
v 0.3514984 0.03094402 0.4083569
v 0.3514984 0.03094402 0.4083569
v 0.3230591 0.04656811 0.3859766
v -0.3230591 0.04656811 0.3859766
v -0.3514984 0.03094402 0.4083569
v -0.3514984 0.03094402 0.4083569
v -0.3230591 0.04656811 0.3859766
v -0.3230591 0.04656813 0.05388184
v -0.3514984 0.030944 0.03150146
v -0.3514984 0.030944 0.03150146
v -0.3230591 0.04656813 0.05388184
v 0.3230591 0.04656813 0.05388184
v 0.3514984 0.030944 0.03150146
v -0.3570859 -5.722046E-08 0.4351874
v -0.3610089 0.009852867 0.4398585
v 0.3610089 0.009852867 0.4398585
v 0.3570859 -5.722046E-08 0.4351874
v -0.3610089 0.009852848 3.814697E-08
v -0.3570859 0 0.004671116
v 0.3570859 0 0.004671116
v 0.3610089 0.009852848 3.814697E-08
v -0.3788379 0 0.02619381
v -0.3829999 0.009852848 0.02198975
v -0.3829999 0.009852886 0.4178686
v -0.3788379 -1.907349E-08 0.4136646
v 0.3788379 -1.907349E-08 0.4136646
v 0.3829999 0.009852886 0.4178686
v 0.3829999 0.009852848 0.02198975
v 0.3788379 0 0.02619381
v -0.3610089 0.009852867 0.4398585
v -0.3610089 0.05562725 0.4398583
v 0.3610089 0.05562725 0.4398583
v 0.3610089 0.009852867 0.4398585
v -0.3610089 0.05562725 0.4398583
v -0.3610089 0.009852867 0.4398585
v -0.3829999 0.009852886 0.4178686
v -0.3829999 0.05562727 0.4178687
v -0.3829999 0.009852848 0.02198975
v -0.3829999 0.05562727 0.02198975
v -0.3829999 0.05562727 0.4178687
v -0.3829999 0.009852886 0.4178686
v -0.3610089 0.009852848 3.814697E-08
v -0.3610089 0.05562727 1.907349E-08
v -0.3829999 0.05562727 0.02198975
v -0.3829999 0.009852848 0.02198975
v -0.3610089 0.05562727 1.907349E-08
v -0.3610089 0.009852848 3.814697E-08
v 0.3610089 0.009852848 3.814697E-08
v 0.3610089 0.05562727 1.907349E-08
v 0.3829999 0.009852848 0.02198975
v 0.3829999 0.05562727 0.02198975
v 0.3610089 0.05562727 1.907349E-08
v 0.3610089 0.009852848 3.814697E-08
v 0.3829999 0.009852886 0.4178686
v 0.3829999 0.05562727 0.4178687
v 0.3829999 0.05562727 0.02198975
v 0.3829999 0.009852848 0.02198975
v 0.3829999 0.05562727 0.4178687
v 0.3829999 0.009852886 0.4178686
v 0.3610089 0.009852867 0.4398585
v 0.3610089 0.05562725 0.4398583
vt 0.09324745 0.2100459
vt 0.09233973 0.2098685
vt 0.09325767 0.2092882
vt 0.09233967 0.209134
vt 0.09333969 0.2092631
vt 0.09242377 0.2091104
vt 0.09332856 0.2100169
vt 0.09242294 0.2098414
vt 0.09303753 0.2082664
vt 0.09400974 0.2082685
vt 0.09302162 0.2082811
vt 0.09399842 0.2082832
vt 0.09303145 0.2080347
vt 0.09400563 0.2080366
vt 0.09399553 0.2081202
vt 0.09301727 0.2081182
vt 0.0930097 0.2082663
vt 0.09398495 0.2082685
vt 0.0930184 0.2082811
vt 0.09399827 0.2082832
vt 0.09301423 0.2080348
vt 0.09399141 0.2080368
vt 0.09400286 0.2081203
vt 0.09302156 0.2081183
vt 0.4954028 0.04671449
vt 0.4953666 0.0467293
vt 0.4946619 0.046677
vt 0.4946982 0.04669539
vt 0.4953856 0.04641405
vt 0.4953493 0.04639567
vt 0.4947134 0.04636497
vt 0.4946772 0.04637978
vt 0.4953094 0.04733387
vt 0.4953024 0.04735217
vt 0.4946613 0.04729805
vt 0.4946639 0.0473168
vt 0.4953239 0.04734089
vt 0.4953446 0.04731821
vt 0.4946426 0.04730322
vt 0.4946262 0.04727864
vt 0.4953109 0.04702989
vt 0.4953303 0.04700058
vt 0.4952952 0.04698112
vt 0.4952891 0.04701624
vt 0.4946778 0.04694866
vt 0.4946796 0.04698404
vt 0.4946579 0.04699529
vt 0.4946425 0.0469643
vt 0.4953674 0.04640486
vt 0.4953847 0.0467219
vt 0.4946801 0.04668619
vt 0.4946953 0.04637238
vt 0.4950241 0.07661894
vt 0.4950807 0.07708135
vt 0.495999 0.07666865
vt 0.4958942 0.07714322
vt 0.4950721 0.07664946
vt 0.4951153 0.07705301
vt 0.4959466 0.07669538
vt 0.4958623 0.07710856
vt 0.4953565 0.04683638
vt 0.4946917 0.04680213
vt 0.4946556 0.04678356
vt 0.4946711 0.04648332
vt 0.4947071 0.04646835
vt 0.4953397 0.04649936
vt 0.4953758 0.04651793
vt 0.4953925 0.04682142
vt 0.09333969 0.2092631
vt 0.09242377 0.2091104
vt 0.09332856 0.2100169
vt 0.09242294 0.2098414
vt 0.09233973 0.2098685
vt 0.09233967 0.209134
vt 0.09242377 0.2091104
vt 0.09242294 0.2098414
vt 0.09332856 0.2100169
vt 0.09333969 0.2092631
vt 0.09325767 0.2092882
vt 0.09324745 0.2100459
vt 0.09325767 0.2092882
vt 0.09233967 0.209134
vt 0.09233973 0.2098685
vt 0.09324745 0.2100459
vt 0.09400974 0.2082685
vt 0.09399842 0.2082832
vt 0.09302162 0.2082811
vt 0.09399842 0.2082832
vt 0.09399553 0.2081202
vt 0.09302162 0.2082811
vt 0.09301727 0.2081182
vt 0.09303753 0.2082664
vt 0.09400974 0.2082685
vt 0.09303753 0.2082664
vt 0.09303145 0.2080347
vt 0.09400563 0.2080366
vt 0.09399553 0.2081202
vt 0.09400563 0.2080366
vt 0.09303145 0.2080347
vt 0.09301727 0.2081182
vt 0.09398495 0.2082685
vt 0.09399827 0.2082832
vt 0.0930184 0.2082811
vt 0.09399827 0.2082832
vt 0.09400286 0.2081203
vt 0.0930184 0.2082811
vt 0.09302156 0.2081183
vt 0.0930097 0.2082663
vt 0.09398495 0.2082685
vt 0.0930097 0.2082663
vt 0.09301423 0.2080348
vt 0.09399141 0.2080368
vt 0.09400286 0.2081203
vt 0.09399141 0.2080368
vt 0.09301423 0.2080348
vt 0.09302156 0.2081183
vt 0.4953024 0.04735217
vt 0.4953094 0.04733387
vt 0.4946613 0.04729805
vt 0.4946639 0.0473168
vt 0.4953239 0.04734089
vt 0.4953446 0.04731821
vt 0.4946262 0.04727864
vt 0.4946426 0.04730322
vt 0.4953109 0.04702989
vt 0.4953303 0.04700058
vt 0.4952891 0.04701624
vt 0.4952952 0.04698112
vt 0.4946796 0.04698404
vt 0.4946579 0.04699529
vt 0.4946425 0.0469643
vt 0.4946778 0.04694866
vt 0.4946639 0.0473168
vt 0.4946426 0.04730322
vt 0.4946579 0.04699529
vt 0.4946796 0.04698404
vt 0.4953024 0.04735217
vt 0.4952891 0.04701624
vt 0.4953109 0.04702989
vt 0.4953239 0.04734089
vt 0.4953493 0.04639567
vt 0.4953856 0.04641405
vt 0.4954028 0.04671449
vt 0.4953666 0.0467293
vt 0.4946982 0.04669539
vt 0.4946619 0.046677
vt 0.4946772 0.04637978
vt 0.4947134 0.04636497
vt 0.495069 0.077097
vt 0.4950085 0.07662597
vt 0.4950085 0.07662597
vt 0.4950241 0.07661894
vt 0.4960086 0.07667738
vt 0.4960086 0.07667738
vt 0.495999 0.07666865
vt 0.4958998 0.07716092
vt 0.4958998 0.07716092
vt 0.4958942 0.07714322
vt 0.4950807 0.07708135
vt 0.495069 0.077097
vt 0.4950807 0.07708135
vt 0.4951153 0.07705301
vt 0.4950721 0.07664946
vt 0.4950241 0.07661894
vt 0.4950241 0.07661894
vt 0.4950721 0.07664946
vt 0.4959466 0.07669538
vt 0.495999 0.07666865
vt 0.495999 0.07666865
vt 0.4959466 0.07669538
vt 0.4958623 0.07710856
vt 0.4958942 0.07714322
vt 0.4958942 0.07714322
vt 0.4958623 0.07710856
vt 0.4951153 0.07705301
vt 0.4950807 0.07708135
vt 0.4946982 0.04669539
vt 0.4946917 0.04680213
vt 0.4953565 0.04683638
vt 0.4953666 0.0467293
vt 0.4947071 0.04646835
vt 0.4947134 0.04636497
vt 0.4953493 0.04639567
vt 0.4953397 0.04649936
vt 0.4946772 0.04637978
vt 0.4946711 0.04648332
vt 0.4946556 0.04678356
vt 0.4946619 0.046677
vt 0.4954028 0.04671449
vt 0.4953925 0.04682142
vt 0.4953758 0.04651793
vt 0.4953856 0.04641405
vt 0.4946917 0.04680213
vt 0.4946613 0.04729805
vt 0.4953094 0.04733387
vt 0.4953565 0.04683638
vt 0.4946613 0.04729805
vt 0.4946917 0.04680213
vt 0.4946556 0.04678356
vt 0.4946262 0.04727864
vt 0.4946711 0.04648332
vt 0.4946425 0.0469643
vt 0.4946262 0.04727864
vt 0.4946556 0.04678356
vt 0.4947071 0.04646835
vt 0.4946778 0.04694866
vt 0.4946425 0.0469643
vt 0.4946711 0.04648332
vt 0.4946778 0.04694866
vt 0.4947071 0.04646835
vt 0.4953397 0.04649936
vt 0.4952952 0.04698112
vt 0.4953758 0.04651793
vt 0.4953303 0.04700058
vt 0.4952952 0.04698112
vt 0.4953397 0.04649936
vt 0.4953925 0.04682142
vt 0.4953446 0.04731821
vt 0.4953303 0.04700058
vt 0.4953758 0.04651793
vt 0.4953446 0.04731821
vt 0.4953925 0.04682142
vt 0.4953565 0.04683638
vt 0.4953094 0.04733387
vn 0 -0.9330276 0.359805
vn 0 -0.9330276 0.359805
vn 0 1 0
vn 0 1 0
vn 0 1 0
vn 0 1 0
vn 0 0 -1
vn 0 0 -1
vn 0 1 0
vn 0 1 0
vn 0 1 0
vn 0 1 0
vn 1 0 0
vn -1 0 0
vn -1 0 0
vn 0 0 -1
vn 0 1 0
vn 0 1 0
vn 0 1 0
vn 0 1 0
vn 1 0 0
vn -1 0 0
vn -1 0 0
vn 0 0 -1
vn 0.6024249 -0.5199195 0.6056137
vn 0.602425 -0.5199195 0.6056136
vn -0.6024249 -0.5199196 0.6056136
vn -0.6024249 -0.5199196 0.6056136
vn 0.6024221 -0.5199226 -0.6056139
vn 0.6024221 -0.5199226 -0.6056139
vn -0.6024221 -0.5199226 -0.6056139
vn -0.6024221 -0.5199225 -0.6056139
vn 0 0.7070847 0.7071289
vn 0 0.7070847 0.7071289
vn 0 0.7070847 0.7071289
vn 0 0.7070847 0.7071289
vn 0.4999944 0.70709 0.5000293
vn 0.4999944 0.70709 0.5000293
vn -0.4999944 0.70709 0.5000293
vn -0.4999944 0.70709 0.5000293
vn 0.7071068 0.7071068 0
vn 0.7071068 0.7071068 0
vn 0.4999963 0.7070889 -0.500029
vn 0.4999962 0.7070888 -0.500029
vn 0 0.7070859 -0.7071276
vn 0 0.7070859 -0.7071276
vn -0.7071068 0.7071068 0
vn -0.7071068 0.7071068 0
vn 0 -1 0
vn 0 -1 0
vn 0 -1 0
vn 0 -1 0
vn -1 0 0
vn -1 0 0
vn 0 0 -1
vn 1 0 0
vn 0 -1 0
vn 0 -1 0
vn 0 -1 0
vn 0 -1 0
vn 0.602425 -0.5199195 0.6056136
vn -0.602425 -0.5199196 0.6056136
vn -0.602425 -0.5199196 0.6056136
vn -0.6024221 -0.5199226 -0.6056139
vn -0.6024221 -0.5199225 -0.6056139
vn 0.6024221 -0.5199226 -0.6056139
vn 0.6024221 -0.5199226 -0.6056139
vn 0.602425 -0.5199195 0.6056137
vn 0 0 -1
vn 0 0 -1
vn 0 -0.9330276 0.359805
vn 0 -0.9330276 0.359805
vn 1 0 0
vn 1 0 0
vn 1 0 0
vn 1 0 0
vn -1 0 0
vn -1 0 0
vn -1 0 0
vn -1 0 0
vn 0 0 1
vn 0 0 1
vn 0 0 1
vn 0 0 1
vn -1 0 0
vn -1 0 0
vn 0 0 -1
vn 0 0 -1
vn 0 0 -1
vn 1 0 0
vn 1 0 0
vn 1 0 0
vn 0 0 1
vn 0 0 1
vn 0 0 1
vn 0 0 1
vn 0 -0.839888 -0.5427597
vn 0 -0.839888 -0.5427597
vn 0 -0.839888 -0.5427597
vn 0 -0.839888 -0.5427597
vn -1 0 0
vn -1 0 0
vn 0 0 -1
vn 0 0 -1
vn 0 0 -1
vn 1 0 0
vn 1 0 0
vn 1 0 0
vn 0 0 1
vn 0 0 1
vn 0 0 1
vn 0 0 1
vn 0 -0.8398893 -0.5427577
vn 0 -0.8398893 -0.5427577
vn 0 -0.8398893 -0.5427577
vn 0 -0.8398893 -0.5427577
vn 0.4999944 0.70709 0.5000293
vn 0.4999944 0.70709 0.5000293
vn -0.4999944 0.70709 0.5000293
vn -0.4999944 0.70709 0.5000293
vn 0.7071068 0.7071068 0
vn 0.7071068 0.7071068 0
vn -0.7071068 0.7071068 0
vn -0.7071068 0.7071068 0
vn 0.4999962 0.7070889 -0.500029
vn 0.4999963 0.7070889 -0.500029
vn 0 0.7070859 -0.7071276
vn 0 0.7070859 -0.7071276
vn -0.4999962 0.7070888 -0.500029
vn -0.4999962 0.7070889 -0.5000291
vn -0.4999962 0.7070889 -0.500029
vn -0.4999963 0.7070889 -0.500029
vn 0 1 0
vn 0 1 0
vn 0 1 0
vn 0 1 0
vn 0 1 0
vn 0 1 0
vn 0 1 0
vn 0 1 0
vn 0 -1 0
vn 0 -1 0
vn 0 -1 0
vn 0 -1 0
vn 0 -1 0
vn 0 -1 0
vn 0 -1 0
vn 0 -1 0
vn -1 0 0
vn -1 0 0
vn 0 0 -1
vn 0 0 -1
vn 0 0 -1
vn 1 0 0
vn 1 0 0
vn 1 0 0
vn 0 0 1
vn 0 0 1
vn 0 0 1
vn 0 0 1
vn -0.4815038 -0.8764439 0
vn -0.4815039 -0.8764439 0
vn -0.4815038 -0.8764439 0
vn -0.4815038 -0.8764439 0
vn 0 -0.8199572 -0.5724249
vn 0 -0.8199572 -0.5724248
vn 0 -0.8199572 -0.5724248
vn 0 -0.8199572 -0.5724249
vn 0.4815038 -0.8764439 0
vn 0.4815039 -0.8764439 0
vn 0.4815039 -0.8764439 0
vn 0.4815039 -0.8764439 0
vn 0 -0.8199565 0.5724258
vn 0 -0.8199565 0.5724258
vn 0 -0.8199565 0.5724258
vn 0 -0.8199565 0.5724258
vn 0 -0.4283801 0.9035987
vn 0 -0.4283801 0.9035987
vn 0 -0.4283801 0.9035987
vn 0 -0.4283801 0.9035987
vn 0 -0.4283814 -0.903598
vn 0 -0.4283814 -0.903598
vn 0 -0.4283814 -0.903598
vn 0 -0.4283814 -0.903598
vn -0.9211877 -0.3891185 0
vn -0.9211877 -0.3891185 0
vn -0.9211877 -0.3891186 0
vn -0.9211877 -0.3891185 0
vn 0.9211877 -0.3891185 0
vn 0.9211877 -0.3891186 0
vn 0.9211877 -0.3891185 0
vn 0.9211877 -0.3891185 0
vn 0 0 1
vn 0 0 1
vn 0 0 1
vn 0 0 1
vn -0.7070865 0 0.707127
vn -0.7070865 0 0.707127
vn -0.7070865 0 0.707127
vn -0.7070865 0 0.707127
vn -1 0 0
vn -1 0 0
vn -1 0 0
vn -1 0 0
vn -0.7070866 0 -0.7071269
vn -0.7070867 0 -0.7071268
vn -0.7070867 0 -0.7071268
vn -0.7070867 0 -0.7071268
vn 0 0 -1
vn 0 0 -1
vn 0 0 -1
vn 0 0 -1
vn 0.7070867 0 -0.7071268
vn 0.7070867 0 -0.7071268
vn 0.7070867 0 -0.7071268
vn 0.7070866 0 -0.7071269
vn 1 0 0
vn 1 0 0
vn 1 0 0
vn 1 0 0
vn 0.7070865 0 0.707127
vn 0.7070865 0 0.707127
vn 0.7070865 0 0.707127
vn 0.7070865 0 0.707127
g SM_Prop_Chest_05_Lid_0
f 6/6/6 5/5/5 3/3/3
f 4/4/4 6/6/6 3/3/3
f 8/8/8 7/7/7 69/69/69
f 70/70/70 8/8/8 69/69/69
f 2/2/2 1/1/1 71/71/71
f 72/72/72 2/2/2 71/71/71
f 75/75/75 74/74/74 73/73/73
f 76/76/76 75/75/75 73/73/73
f 79/79/79 78/78/78 77/77/77
f 80/80/80 79/79/79 77/77/77
f 83/83/83 82/82/82 81/81/81
f 84/84/84 83/83/83 81/81/81
f 10/10/10 9/9/9 11/11/11
f 12/12/12 10/10/10 11/11/11
f 15/15/15 14/14/14 85/85/85
f 86/86/86 15/15/15 85/85/85
f 88/88/88 87/87/87 16/16/16
f 89/89/89 88/88/88 16/16/16
f 13/13/13 91/91/91 90/90/90
f 92/92/92 13/13/13 90/90/90
f 95/95/95 94/94/94 93/93/93
f 96/96/96 95/95/95 93/93/93
f 99/99/99 98/98/98 97/97/97
f 100/100/100 99/99/99 97/97/97
f 18/18/18 17/17/17 19/19/19
f 20/20/20 18/18/18 19/19/19
f 23/23/23 22/22/22 101/101/101
f 102/102/102 23/23/23 101/101/101
f 104/104/104 103/103/103 24/24/24
f 105/105/105 104/104/104 24/24/24
f 21/21/21 107/107/107 106/106/106
f 108/108/108 21/21/21 106/106/106
f 111/111/111 110/110/110 109/109/109
f 112/112/112 111/111/111 109/109/109
f 115/115/115 114/114/114 113/113/113
f 116/116/116 115/115/115 113/113/113
f 59/59/59 60/60/60 58/58/58
f 57/57/57 59/59/59 58/58/58
f 36/36/36 35/35/35 33/33/33
f 34/34/34 36/36/36 33/33/33
f 38/38/38 37/37/37 117/117/117
f 118/118/118 38/38/38 117/117/117
f 39/39/39 40/40/40 119/119/119
f 120/120/120 39/39/39 119/119/119
f 42/42/42 41/41/41 121/121/121
f 122/122/122 42/42/42 121/121/121
f 47/47/47 48/48/48 123/123/123
f 124/124/124 47/47/47 123/123/123
f 43/43/43 44/44/44 125/125/125
f 126/126/126 43/43/43 125/125/125
f 45/45/45 46/46/46 127/127/127
f 128/128/128 45/45/45 127/127/127
f 131/131/131 130/130/130 129/129/129
f 132/132/132 131/131/131 129/129/129
f 135/135/135 134/134/134 133/133/133
f 136/136/136 135/135/135 133/133/133
f 136/136/136 133/133/133 137/137/137
f 138/138/138 136/136/136 137/137/137
f 138/138/138 137/137/137 139/139/139
f 137/137/137 140/140/140 139/139/139
f 26/26/26 25/25/25 68/68/68
f 61/61/61 26/26/26 68/68/68
f 27/27/27 28/28/28 62/62/62
f 63/63/63 27/27/27 62/62/62
f 66/66/66 67/67/67 29/29/29
f 30/30/30 66/66/66 29/29/29
f 64/64/64 65/65/65 31/31/31
f 32/32/32 64/64/64 31/31/31
f 53/53/53 54/54/54 149/149/149
f 150/150/150 53/53/53 149/149/149
f 55/55/55 152/152/152 151/151/151
f 153/153/153 55/55/55 151/151/151
f 56/56/56 155/155/155 154/154/154
f 156/156/156 56/56/56 154/154/154
f 159/159/159 158/158/158 157/157/157
f 160/160/160 159/159/159 157/157/157
f 163/163/163 162/162/162 161/161/161
f 164/164/164 163/163/163 161/161/161
f 167/167/167 166/166/166 165/165/165
f 168/168/168 167/167/167 165/165/165
f 171/171/171 170/170/170 169/169/169
f 172/172/172 171/171/171 169/169/169
f 175/175/175 174/174/174 173/173/173
f 176/176/176 175/175/175 173/173/173
f 179/179/179 178/178/178 177/177/177
f 180/180/180 179/179/179 177/177/177
f 183/183/183 182/182/182 181/181/181
f 184/184/184 183/183/183 181/181/181
f 187/187/187 186/186/186 185/185/185
f 188/188/188 187/187/187 185/185/185
f 191/191/191 190/190/190 189/189/189
f 192/192/192 191/191/191 189/189/189
f 195/195/195 194/194/194 193/193/193
f 196/196/196 195/195/195 193/193/193
f 199/199/199 198/198/198 197/197/197
f 200/200/200 199/199/199 197/197/197
f 203/203/203 202/202/202 201/201/201
f 204/204/204 203/203/203 201/201/201
f 207/207/207 206/206/206 205/205/205
f 208/208/208 207/207/207 205/205/205
f 211/211/211 210/210/210 209/209/209
f 212/212/212 211/211/211 209/209/209
f 215/215/215 214/214/214 213/213/213
f 216/216/216 215/215/215 213/213/213
f 219/219/219 218/218/218 217/217/217
f 220/220/220 219/219/219 217/217/217
f 223/223/223 222/222/222 221/221/221
f 224/224/224 223/223/223 221/221/221
f 142/142/142 49/49/49 141/141/141
f 141/141/141 49/49/49 148/148/148
f 50/50/50 49/49/49 142/142/142
f 143/143/143 50/50/50 142/142/142
f 144/144/144 50/50/50 143/143/143
f 49/49/49 52/52/52 148/148/148
f 148/148/148 52/52/52 147/147/147
f 147/147/147 52/52/52 146/146/146
f 51/51/51 50/50/50 144/144/144
f 52/52/52 51/51/51 146/146/146
f 145/145/145 51/51/51 144/144/144
f 146/146/146 51/51/51 145/145/145
