g SM_Prop_Doll_House_01_Door_2
v 1.907349E-08 0.1770096 -0.007499981
v 1.907349E-08 0.1770098 0.007499981
v 1.907349E-08 -0.1770097 0.007499981
v 1.907349E-08 -0.1770098 -0.007499981
v 0.3557134 -0.1770097 0.007499981
v 0.3557134 0.1770098 0.007499981
v 0.3557134 0.1770096 -0.007499981
v 0.3557134 -0.1770098 -0.007499981
v 1.907349E-08 3.907502E-08 0.007499981
v 1.907349E-08 -9.443939E-08 -0.007499981
v 0.3557134 -9.443939E-08 -0.007499981
v 0.3557134 3.907502E-08 0.007499981
v 0.3170188 -0.03540721 0.007499981
v 0.2143107 -0.03540721 0.007499981
v 0.3170188 -0.1770097 0.007499981
v 0.2143107 -0.1770097 0.007499981
v 0.3170188 -0.1770098 -0.007499981
v 0.2143107 -0.1770098 -0.007499981
v 0.3170188 -0.03540734 -0.007499981
v 0.2143107 -0.03540734 -0.007499981
v 0.3170188 0.03540716 -0.007499981
v 0.2143107 0.03540716 -0.007499981
v 0.3170188 0.1416023 -0.007499981
v 0.2143107 0.1416023 -0.007499981
v 0.3170188 0.1416024 0.007499981
v 0.2143107 0.1416024 0.007499981
v 0.3170188 0.03540729 0.007499981
v 0.2143107 0.03540729 0.007499981
v 0.1369215 -0.03540721 0.007499981
v 0.03421333 -0.03540721 0.007499981
v 0.1369215 -0.1416024 0.007499981
v 0.03421333 -0.1416024 0.007499981
v 0.1369215 -0.1416025 -0.007499981
v 0.03421333 -0.1416025 -0.007499981
v 0.1369215 -0.03540734 -0.007499981
v 0.03421333 -0.03540734 -0.007499981
v 0.1369215 0.03540716 -0.007499981
v 0.03421333 0.03540716 -0.007499981
v 0.1369215 0.1416023 -0.007499981
v 0.03421333 0.1416023 -0.007499981
v 0.1756161 0.1770096 -0.007499981
v 0.1756161 0.1770098 0.007499981
v 0.1369215 0.1416024 0.007499981
v 0.03421333 0.1416024 0.007499981
v 0.1369215 0.03540729 0.007499981
v 0.03421333 0.03540729 0.007499981
v 0.306632 0.0464073 0.007499885
v 0.2246975 0.0464073 0.007499885
v 0.306632 0.04640713 -0.007500095
v 0.2246975 0.04640713 -0.007500095
v 0.306632 0.1306024 0.007500038
v 0.306632 0.1306023 -0.007499943
v 0.2246975 0.1306024 0.007500038
v 0.2246975 0.1306023 -0.007499943
v 0.1265347 0.0464073 0.007499885
v 0.04460014 0.0464073 0.007499885
v 0.1265347 0.04640713 -0.007500095
v 0.04460014 0.04640713 -0.007500095
v 0.1265347 0.1306024 0.007500038
v 0.1265347 0.1306023 -0.007499943
v 0.04460014 0.1306024 0.007500038
v 0.04460014 0.1306023 -0.007499943
v 0.04460014 -0.04640724 0.007500095
v 0.1265347 -0.04640724 0.007500095
v 0.04460014 -0.04640735 -0.007499885
v 0.1265347 -0.04640736 -0.007499885
v 0.04460014 -0.1306024 0.007499885
v 0.04460014 -0.1306025 -0.007500086
v 0.1265347 -0.1306024 0.007499885
v 0.1265347 -0.1306025 -0.007500086
v 0.306632 -0.1770097 0.007499981
v 0.306632 -0.04640724 0.007500095
v 0.306632 -0.04640736 -0.007499885
v 0.306632 -0.1770098 -0.007499981
v 0.2246975 -0.04640724 0.007500095
v 0.2246975 -0.04640735 -0.007499885
v 0.2246975 -0.1770097 0.007499981
v 0.2246975 -0.1770098 -0.007499981
v 0.1756161 -9.443939E-08 -0.007499981
v 0.175616 -0.1770098 -0.007499981
v 0.175616 -0.1770097 0.007499981
v 0.1756161 3.907502E-08 0.007499981
v 0.3557134 0.1770096 -0.007499981
v 0.1756161 0.1770096 -0.007499981
v 0.3557134 0.1770098 0.007499981
v 0.1756161 0.1770098 0.007499981
v 1.907349E-08 3.907502E-08 0.007499981
v 1.907349E-08 -9.443939E-08 -0.007499981
v 1.907349E-08 0.1770096 -0.007499981
v 1.907349E-08 0.1770098 0.007499981
v 1.907349E-08 0.1770096 -0.007499981
v 1.907349E-08 0.1770098 0.007499981
v 0.3557134 -0.1770097 0.007499981
v 0.3170188 -0.1770097 0.007499981
v 0.3170188 -0.1770098 -0.007499981
v 0.3557134 -0.1770098 -0.007499981
v 0.3557134 -9.443939E-08 -0.007499981
v 0.175616 -0.1770097 0.007499981
v 0.1756161 -9.443939E-08 -0.007499981
v 0.175616 -0.1770098 -0.007499981
v 0.2143107 -0.1770098 -0.007499981
v 1.907349E-08 -0.1770097 0.007499981
v 1.907349E-08 -0.1770098 -0.007499981
v 1.907349E-08 -9.443939E-08 -0.007499981
v 0.306632 0.0464073 0.007499885
v 0.306632 0.04640713 -0.007500095
v 0.306632 0.1306024 0.007500038
v 0.306632 0.1306023 -0.007499943
v 0.2246975 0.1306024 0.007500038
v 0.2246975 0.1306023 -0.007499943
v 0.2246975 0.04640713 -0.007500095
v 0.2246975 0.0464073 0.007499885
v 0.1265347 0.0464073 0.007499885
v 0.1265347 0.04640713 -0.007500095
v 0.1265347 0.1306024 0.007500038
v 0.1265347 0.1306023 -0.007499943
v 0.04460014 0.1306024 0.007500038
v 0.04460014 0.1306023 -0.007499943
v 0.04460014 0.04640713 -0.007500095
v 0.04460014 0.0464073 0.007499885
v 0.04460014 -0.04640724 0.007500095
v 0.04460014 -0.04640735 -0.007499885
v 0.04460014 -0.1306024 0.007499885
v 0.04460014 -0.1306025 -0.007500086
v 0.1265347 -0.1306024 0.007499885
v 0.1265347 -0.1306025 -0.007500086
v 0.1265347 -0.04640736 -0.007499885
v 0.1265347 -0.04640724 0.007500095
v 0.306632 -0.04640724 0.007500095
v 0.306632 -0.04640736 -0.007499885
v 0.3557134 0.1770098 0.007499981
v 0.3557134 0.1770096 -0.007499981
v 0.3557134 -9.443939E-08 -0.007499981
v 0.3557134 3.907502E-08 0.007499981
v 0.3557134 -0.1770098 -0.007499981
v 0.3557134 -0.1770097 0.007499981
v 0.2143107 0.03540729 0.007499981
v 0.2246975 0.0464073 0.007499885
v 0.306632 0.0464073 0.007499885
v 0.3170188 0.03540729 0.007499981
v 0.3170188 0.03540716 -0.007499981
v 0.306632 0.04640713 -0.007500095
v 0.2246975 0.04640713 -0.007500095
v 0.2143107 0.03540716 -0.007499981
v 0.306632 0.1306024 0.007500038
v 0.3170188 0.1416024 0.007499981
v 0.3170188 0.1416023 -0.007499981
v 0.306632 0.1306023 -0.007499943
v 0.2246975 0.1306024 0.007500038
v 0.2143107 0.1416024 0.007499981
v 0.2143107 0.1416023 -0.007499981
v 0.2246975 0.1306023 -0.007499943
v 0.03421333 0.03540729 0.007499981
v 0.04460014 0.0464073 0.007499885
v 0.1265347 0.0464073 0.007499885
v 0.1369215 0.03540729 0.007499981
v 0.1369215 0.03540716 -0.007499981
v 0.1265347 0.04640713 -0.007500095
v 0.04460014 0.04640713 -0.007500095
v 0.03421333 0.03540716 -0.007499981
v 0.1265347 0.1306024 0.007500038
v 0.1369215 0.1416024 0.007499981
v 0.1369215 0.1416023 -0.007499981
v 0.1265347 0.1306023 -0.007499943
v 0.04460014 0.1306024 0.007500038
v 0.03421333 0.1416024 0.007499981
v 0.03421333 0.1416023 -0.007499981
v 0.04460014 0.1306023 -0.007499943
v 0.1369215 -0.03540721 0.007499981
v 0.1265347 -0.04640724 0.007500095
v 0.04460014 -0.04640724 0.007500095
v 0.03421333 -0.03540721 0.007499981
v 0.03421333 -0.03540734 -0.007499981
v 0.04460014 -0.04640735 -0.007499885
v 0.1265347 -0.04640736 -0.007499885
v 0.04460014 -0.1306024 0.007499885
v 0.03421333 -0.1416024 0.007499981
v 0.03421333 -0.1416025 -0.007499981
v 0.04460014 -0.1306025 -0.007500086
v 0.1265347 -0.1306024 0.007499885
v 0.1369215 -0.1416024 0.007499981
v 0.1265347 -0.1306025 -0.007500086
v 0.3170188 -0.1770097 0.007499981
v 0.306632 -0.1770097 0.007499981
v 0.306632 -0.04640724 0.007500095
v 0.3170188 -0.03540721 0.007499981
v 0.3170188 -0.03540734 -0.007499981
v 0.306632 -0.04640736 -0.007499885
v 0.306632 -0.1770098 -0.007499981
v 0.3170188 -0.1770098 -0.007499981
v 0.3170188 -0.1770098 -0.007499981
v 0.306632 -0.1770098 -0.007499981
v 0.306632 -0.1770097 0.007499981
v 0.3170188 -0.1770097 0.007499981
v 0.2246975 -0.04640724 0.007500095
v 0.2143107 -0.03540734 -0.007499981
v 0.2246975 -0.04640724 0.007500095
v 0.2246975 -0.1770097 0.007499981
v 0.2143107 -0.1770097 0.007499981
v 0.2143107 -0.1770097 0.007499981
v 0.2143107 -0.1770098 -0.007499981
v 0.2143107 -0.1770098 -0.007499981
v 0.1369215 -0.03540734 -0.007499981
v 0.1756161 -9.443939E-08 -0.007499981
v 0.1369215 -0.1416025 -0.007499981
v 0.175616 -0.1770098 -0.007499981
v 0.2143107 -0.03540721 0.007499981
v 0.2143107 -0.1770097 0.007499981
v 1.907349E-08 -0.1770098 -0.007499981
v 1.907349E-08 -0.1770097 0.007499981
vt 0.1039996 0.3535088
vt 0.103971 0.3534961
vt 0.1039568 0.3540269
vt 0.103985 0.3540222
vt 0.1036096 0.3539704
vt 0.1036064 0.3534588
vt 0.1036188 0.3534704
vt 0.1036206 0.3539634
vt 0.1039625 0.3537613
vt 0.1039921 0.3537654
vt 0.1036194 0.3537169
vt 0.1036083 0.3537146
vt 0.1036467 0.3537711
vt 0.01395199 0.06816574
vt 0.1036472 0.3539761
vt 0.1037448 0.3539925
vt 0.1036599 0.3539699
vt 0.1037651 0.3539871
vt 0.3526456 0.5188646
vt 0.3526457 0.5548428
vt 0.1036595 0.3536726
vt 0.1037668 0.353686
vt 0.1036595 0.353524
vt 0.1037682 0.3535358
vt 0.1036459 0.3535143
vt 0.1037497 0.3535253
vt 0.1036464 0.3536684
vt 0.1037484 0.3536811
vt 0.1038237 0.3537956
vt 0.1039246 0.3538095
vt 0.1038213 0.3539528
vt 0.1039207 0.3539685
vt 0.01420382 0.06844675
vt 0.3489042 0.5559553
vt 0.01421374 0.0681655
vt 0.352678 0.5559552
vt 0.1038476 0.353696
vt 0.1039548 0.3537093
vt 0.1038499 0.3535446
vt 0.1039586 0.3535562
vt 0.10381 0.3534899
vt 0.1037896 0.3534774
vt 0.1038276 0.3535336
vt 0.1039311 0.3535446
vt 0.1038252 0.3536907
vt 0.1039272 0.3537035
vt 0.01364914 0.06793871
vt 0.01392111 0.06794161
vt 0.01365724 0.06793597
vt 0.01392505 0.06793881
vt 0.01364908 0.06770606
vt 0.01365724 0.06770683
vt 0.01392505 0.06770518
vt 0.01392898 0.067706
vt 0.01425865 0.06794523
vt 0.01455072 0.06794833
vt 0.01425737 0.06794228
vt 0.0145447 0.06794528
vt 0.01426771 0.06770414
vt 0.01426625 0.06770503
vt 0.01456431 0.06770331
vt 0.01455802 0.06770419
vt 0.01453614 0.06821017
vt 0.014249 0.0682029
vt 0.01453051 0.06820305
vt 0.01424789 0.06819599
vt 0.01452336 0.06844049
vt 0.01451799 0.06842988
vt 0.01424047 0.06842967
vt 0.01423952 0.06841937
vt 0.0136492 0.06852536
vt 0.01364914 0.06818771
vt 0.01365706 0.06818126
vt 0.01365688 0.0685141
vt 0.01391694 0.06819449
vt 0.01392081 0.06818784
vt 0.01391116 0.06853724
vt 0.01391509 0.06852559
vt 0.1038067 0.3537413
vt 0.1038047 0.3539932
vt 0.103783 0.3539987
vt 0.1037863 0.3537382
vt 0.1036188 0.3534704
vt 0.10381 0.3534899
vt 0.1036064 0.3534588
vt 0.1037896 0.3534774
vt 0.1039625 0.3537613
vt 0.1039921 0.3537654
vt 0.1039996 0.3535088
vt 0.103971 0.3534961
vt 0.1039996 0.3535088
vt 0.103971 0.3534961
vt 0.1036096 0.3539704
vt 0.1036472 0.3539761
vt 0.3476998 0.5188646
vt 0.3476998 0.50531
vt 0.3538823 0.50531
vt 0.103783 0.3539987
vt 0.3538823 0.5683974
vt 0.3476998 0.5683975
vt 0.3476998 0.5548428
vt 0.1039568 0.3540269
vt 0.3476459 0.5681491
vt 0.3539363 0.5681491
vt 0.01364914 0.06793871
vt 0.01365724 0.06793597
vt 0.01364908 0.06770606
vt 0.01365724 0.06770683
vt 0.01392505 0.06770518
vt 0.01392898 0.067706
vt 0.01392505 0.06793881
vt 0.01392111 0.06794161
vt 0.01425865 0.06794523
vt 0.01425737 0.06794228
vt 0.01426771 0.06770414
vt 0.01426625 0.06770503
vt 0.01456431 0.06770331
vt 0.01455802 0.06770419
vt 0.0145447 0.06794528
vt 0.01455072 0.06794833
vt 0.01453614 0.06821017
vt 0.01453051 0.06820305
vt 0.01452336 0.06844049
vt 0.01451799 0.06842988
vt 0.01424047 0.06842967
vt 0.01423952 0.06841937
vt 0.01424789 0.06819599
vt 0.014249 0.0682029
vt 0.01364914 0.06818771
vt 0.01365706 0.06818126
vt 0.1036064 0.3534588
vt 0.1036188 0.3534704
vt 0.1036194 0.3537169
vt 0.1036083 0.3537146
vt 0.1036206 0.3539634
vt 0.1036096 0.3539704
vt 0.01395562 0.06797244
vt 0.01392111 0.06794161
vt 0.01364914 0.06793871
vt 0.01361534 0.0679682
vt 0.01362386 0.06796505
vt 0.01365724 0.06793597
vt 0.01392505 0.06793881
vt 0.01395908 0.06796914
vt 0.01364908 0.06770606
vt 0.01361468 0.06767537
vt 0.01362345 0.06767666
vt 0.01365724 0.06770683
vt 0.01392505 0.06770518
vt 0.013961 0.06767383
vt 0.01396439 0.06767515
vt 0.01392898 0.067706
vt 0.0145866 0.06798026
vt 0.01455072 0.06794833
vt 0.01425865 0.06794523
vt 0.01422122 0.06797576
vt 0.01422054 0.06797234
vt 0.01425737 0.06794228
vt 0.0145447 0.06794528
vt 0.01458004 0.06797674
vt 0.01426771 0.06770414
vt 0.01423192 0.06767236
vt 0.01423106 0.06767366
vt 0.01426625 0.06770503
vt 0.01456431 0.06770331
vt 0.01460451 0.06767046
vt 0.01459754 0.0676719
vt 0.01455802 0.06770419
vt 0.01421431 0.06817195
vt 0.014249 0.0682029
vt 0.01453614 0.06821017
vt 0.014575 0.06818046
vt 0.01456843 0.06817397
vt 0.01453051 0.06820305
vt 0.01424789 0.06819599
vt 0.01452336 0.06844049
vt 0.01455817 0.06847154
vt 0.01455224 0.06846043
vt 0.01451799 0.06842988
vt 0.01424047 0.06842967
vt 0.01420423 0.06845741
vt 0.01423952 0.06841937
vt 0.01361647 0.06852391
vt 0.0136492 0.06852536
vt 0.01364914 0.06818771
vt 0.01361576 0.06815779
vt 0.01362422 0.06815182
vt 0.01365706 0.06818126
vt 0.01365688 0.0685141
vt 0.0136247 0.06851268
vt 0.0136247 0.06851268
vt 0.01365688 0.0685141
vt 0.0136492 0.06852536
vt 0.01361647 0.06852391
vt 0.01391694 0.06819449
vt 0.01395538 0.0681595
vt 0.01391694 0.06819449
vt 0.01391116 0.06853724
vt 0.01394495 0.06853858
vt 0.01394495 0.06853858
vt 0.01394855 0.06852694
vt 0.01394855 0.06852694
vt 0.352678 0.5193495
vt 0.3539363 0.5055584
vt 0.3489041 0.5193495
vt 0.3476459 0.5055584
vt 0.1037476 0.3537851
vt 0.1037448 0.3539925
vt 0.103985 0.3540222
vt 0.1039568 0.3540269
vn -1 0 0
vn -1 0 0
vn -1 0 0
vn -1 0 0
vn 0 -1 0
vn 0 1 -1.271569E-05
vn 0 0 -1
vn 0 -1 0
vn -1 0 0
vn -1 0 0
vn 0 0 -1
vn 0 0 1
vn 0 0 1
vn 0 0 1
vn 0 -1 0
vn 0 -1 0
vn 0 -1 0
vn 0 -1 0
vn 0 0 -1
vn 0 0 -1
vn 0 0 -1
vn 0 0 -1
vn 0 0 -1
vn 0 0 -1
vn 0 0 1
vn 0 0 1
vn 0 0 1
vn 0 0 1
vn 0 0 1
vn 0 0 1
vn 0 0 1
vn 0 0 1
vn 0 0 -1
vn 0 0 -1
vn 0 0 -1
vn 0 0 -1
vn 0 0 -1
vn 0 0 -1
vn 0 0 -1
vn 0 0 -1
vn 0 0 -1
vn 0 1 -1.271569E-05
vn 0 0 1
vn 0 0 1
vn 0 0 1
vn 0 0 1
vn 0 1 -1.144411E-05
vn 0 1 -1.144411E-05
vn 0 1 -1.144411E-05
vn 0 1 -1.144411E-05
vn -1 0 0
vn -1 0 0
vn 0 -1 0
vn 0 -1 0
vn 0 1 -1.144411E-05
vn 0 1 -1.144411E-05
vn 0 1 -1.144411E-05
vn 0 1 -1.144411E-05
vn -1 0 0
vn -1 0 0
vn 0 -1 0
vn 0 -1 0
vn 0 -1 0
vn 0 -1 0
vn 0 -1 0
vn 0 -1 0
vn 1 0 0
vn 1 0 0
vn 0 1 0
vn 0 1 0
vn -1 0 0
vn -1 0 0
vn -0.6741542 0 -0.7385907
vn -0.8109118 0 -0.5851684
vn 0.620896 -0.3895293 0.6802611
vn 0.4532864 -0.2843732 -0.844786
vn 0.8092307 -0.06435838 0.5839551
vn 0.8092303 -0.06435809 -0.5839557
vn 0 0 -1
vn 0 -1 0
vn 0 -1 0
vn 0 0 1
vn 0 1 -1.271569E-05
vn 0 1 -1.271569E-05
vn 0 0 1
vn 0 0 1
vn 0 0 1
vn 0 0 -1
vn 0 0 -1
vn 0 1 -1.271569E-05
vn 0 1 -1.271569E-05
vn 0 0 1
vn 0 0 1
vn 0 0 1
vn 0 0 -1
vn 0 0 -1
vn 0 0 -1
vn 0 0 1
vn 0 0 -1
vn 0 0 -1
vn 0 0 -1
vn 0 0 1
vn 0 0 -1
vn 0 0 -1
vn -1 0 0
vn -1 0 0
vn 0 -1 0
vn 0 -1 0
vn 1 0 0
vn 1 0 0
vn 1 0 0
vn 1 0 0
vn -1 0 0
vn -1 0 0
vn 0 -1 0
vn 0 -1 0
vn 1 0 0
vn 1 0 0
vn 1 0 0
vn 1 0 0
vn 1 0 0
vn 1 0 0
vn 0 1 0
vn 0 1 0
vn -1 0 0
vn -1 0 0
vn -1 0 0
vn -1 0 0
vn 0 -1 0
vn 0 -0.6325778 -0.7744969
vn 1 0 0
vn 1 0 0
vn 1 0 0
vn 1 0 0
vn 1 0 0
vn 1 0 0
vn 0 0 1
vn 0 0 1
vn 0 0 1
vn 0 0 1
vn 0 -1.040375E-05 -1
vn 0 -1.040375E-05 -1
vn 0 -1.040375E-05 -1
vn 0 -1.040375E-05 -1
vn 0 0 1
vn 0 0 1
vn 0 0 -1
vn 0 0 -1
vn 0 0 1
vn 0 0 1
vn 0 0 -1
vn 0 0 -1
vn 0 0 1
vn 0 0 1
vn 0 0 1
vn 0 0 1
vn 0 0 -1
vn 0 -1.040375E-05 -1
vn 0 -1.040375E-05 -1
vn 0 0 -1
vn 0 0 1
vn 0 0 1
vn 0 0 -1
vn 0 0 -1
vn 0 0 1
vn 0 0 1
vn 0 0 -1
vn 0 0 -1
vn 0 0 1
vn 0 1.040369E-05 1
vn 0 1.040369E-05 1
vn 0 0 1
vn 0 0 -1
vn 0 0 -1
vn 0 0 -1
vn 0 0 1
vn 0 0 1
vn 0 0 -1
vn 0 0 -1
vn 0 0 1
vn 0 0 1
vn 0 0 -1
vn 0 0 1
vn 0 0 1
vn 0 0 1
vn 0 0 1
vn 0 0 -1
vn -0.6741542 0 -0.7385907
vn -0.8109118 0 -0.5851684
vn 0 0 -1
vn 0 -1 0
vn 0 -1 0
vn 0 -1 0
vn 0 -1 0
vn 0 1.040369E-05 1
vn 0 0 -1
vn 0.620896 -0.3895293 0.6802611
vn 0.8092307 -0.06435838 0.5839551
vn 0 0 1
vn 0 -1 0
vn 0 -1 0
vn 0 0 -1
vn 0 0 -1
vn 0 0 -1
vn 0 0 -1
vn 0 0 -1
vn 0 0 1
vn 0 0 1
vn 0 -1 0
vn 0 -1 0
g SM_Prop_Doll_House_01_Door_2_0
f 2/2/2 1/1/1 9/9/9
f 1/1/1 10/10/10 9/9/9
f 9/9/9 10/10/10 3/3/3
f 10/10/10 4/4/4 3/3/3
f 42/42/42 6/6/6 83/83/83
f 84/84/84 42/42/42 83/83/83
f 90/90/90 42/42/42 84/84/84
f 91/91/91 90/90/90 84/84/84
f 80/80/80 18/18/18 16/16/16
f 81/81/81 80/80/80 16/16/16
f 81/81/81 210/210/210 80/80/80
f 210/210/210 209/209/209 80/80/80
f 5/5/5 15/15/15 17/17/17
f 8/8/8 5/5/5 17/17/17
f 13/13/13 94/94/94 93/93/93
f 12/12/12 13/13/13 93/93/93
f 207/207/207 13/13/13 12/12/12
f 82/82/82 207/207/207 12/12/12
f 208/208/208 207/207/207 82/82/82
f 98/98/98 208/208/208 82/82/82
f 82/82/82 12/12/12 27/27/27
f 28/28/28 82/82/82 27/27/27
f 25/25/25 27/27/27 12/12/12
f 85/85/85 25/25/25 12/12/12
f 26/26/26 25/25/25 85/85/85
f 86/86/86 26/26/26 85/85/85
f 28/28/28 26/26/26 86/86/86
f 82/82/82 28/28/28 86/86/86
f 98/98/98 82/82/82 31/31/31
f 82/82/82 29/29/29 31/31/31
f 31/31/31 32/32/32 98/98/98
f 32/32/32 102/102/102 98/98/98
f 87/87/87 102/102/102 32/32/32
f 30/30/30 29/29/29 82/82/82
f 30/30/30 87/87/87 32/32/32
f 87/87/87 30/30/30 82/82/82
f 87/87/87 82/82/82 45/45/45
f 82/82/82 86/86/86 45/45/45
f 46/46/46 87/87/87 45/45/45
f 86/86/86 43/43/43 45/45/45
f 92/92/92 87/87/87 46/46/46
f 44/44/44 43/43/43 86/86/86
f 44/44/44 92/92/92 46/46/46
f 92/92/92 44/44/44 86/86/86
f 97/97/97 96/96/96 95/95/95
f 19/19/19 97/97/97 95/95/95
f 99/99/99 97/97/97 19/19/19
f 20/20/20 99/99/99 19/19/19
f 20/20/20 101/101/101 99/99/99
f 101/101/101 100/100/100 99/99/99
f 49/49/49 50/50/50 48/48/48
f 47/47/47 49/49/49 48/48/48
f 52/52/52 106/106/106 105/105/105
f 51/51/51 52/52/52 105/105/105
f 54/54/54 108/108/108 107/107/107
f 53/53/53 54/54/54 107/107/107
f 111/111/111 110/110/110 109/109/109
f 112/112/112 111/111/111 109/109/109
f 57/57/57 58/58/58 56/56/56
f 55/55/55 57/57/57 56/56/56
f 60/60/60 114/114/114 113/113/113
f 59/59/59 60/60/60 113/113/113
f 62/62/62 116/116/116 115/115/115
f 61/61/61 62/62/62 115/115/115
f 119/119/119 118/118/118 117/117/117
f 120/120/120 119/119/119 117/117/117
f 65/65/65 66/66/66 64/64/64
f 63/63/63 65/65/65 64/64/64
f 68/68/68 122/122/122 121/121/121
f 67/67/67 68/68/68 121/121/121
f 70/70/70 124/124/124 123/123/123
f 69/69/69 70/70/70 123/123/123
f 127/127/127 126/126/126 125/125/125
f 128/128/128 127/127/127 125/125/125
f 73/73/73 74/74/74 71/71/71
f 72/72/72 73/73/73 71/71/71
f 133/133/133 132/132/132 131/131/131
f 134/134/134 133/133/133 131/131/131
f 135/135/135 133/133/133 134/134/134
f 136/136/136 135/135/135 134/134/134
f 185/185/185 184/184/184 183/183/183
f 186/186/186 185/185/185 183/183/183
f 195/195/195 185/185/185 186/186/186
f 14/14/14 195/195/195 186/186/186
f 198/198/198 197/197/197 14/14/14
f 199/199/199 198/198/198 14/14/14
f 189/189/189 188/188/188 187/187/187
f 190/190/190 189/189/189 187/187/187
f 187/187/187 130/130/130 196/196/196
f 130/130/130 76/76/76 196/196/196
f 196/196/196 76/76/76 202/202/202
f 76/76/76 130/130/130 129/129/129
f 75/75/75 76/76/76 129/129/129
f 76/76/76 78/78/78 202/202/202
f 78/78/78 76/76/76 75/75/75
f 77/77/77 78/78/78 75/75/75
f 78/78/78 77/77/77 200/200/200
f 201/201/201 78/78/78 200/200/200
f 193/193/193 192/192/192 191/191/191
f 194/194/194 193/193/193 191/191/191
f 24/24/24 41/41/41 23/23/23
f 24/24/24 22/22/22 41/41/41
f 41/41/41 7/7/7 23/23/23
f 23/23/23 7/7/7 21/21/21
f 7/7/7 11/11/11 21/21/21
f 22/22/22 21/21/21 11/11/11
f 79/79/79 22/22/22 11/11/11
f 22/22/22 79/79/79 41/41/41
f 41/41/41 79/79/79 39/39/39
f 89/89/89 41/41/41 39/39/39
f 79/79/79 37/37/37 39/39/39
f 40/40/40 89/89/89 39/39/39
f 38/38/38 37/37/37 79/79/79
f 89/89/89 40/40/40 88/88/88
f 88/88/88 38/38/38 79/79/79
f 40/40/40 38/38/38 88/88/88
f 104/104/104 204/204/204 203/203/203
f 204/204/204 206/206/206 203/203/203
f 36/36/36 104/104/104 203/203/203
f 206/206/206 205/205/205 203/203/203
f 104/104/104 36/36/36 103/103/103
f 34/34/34 205/205/205 206/206/206
f 36/36/36 34/34/34 103/103/103
f 103/103/103 34/34/34 206/206/206
f 179/179/179 182/182/182 33/33/33
f 178/178/178 179/179/179 33/33/33
f 33/33/33 182/182/182 35/35/35
f 174/174/174 179/179/179 178/178/178
f 182/182/182 175/175/175 35/35/35
f 173/173/173 174/174/174 178/178/178
f 35/35/35 175/175/175 173/173/173
f 175/175/175 174/174/174 173/173/173
f 139/139/139 138/138/138 137/137/137
f 140/140/140 139/139/139 137/137/137
f 137/137/137 138/138/138 150/150/150
f 145/145/145 139/139/139 140/140/140
f 138/138/138 149/149/149 150/150/150
f 146/146/146 145/145/145 140/140/140
f 150/150/150 149/149/149 146/146/146
f 149/149/149 145/145/145 146/146/146
f 143/143/143 142/142/142 141/141/141
f 144/144/144 143/143/143 141/141/141
f 141/141/141 142/142/142 147/147/147
f 152/152/152 143/143/143 144/144/144
f 142/142/142 148/148/148 147/147/147
f 151/151/151 152/152/152 144/144/144
f 147/147/147 148/148/148 151/151/151
f 148/148/148 152/152/152 151/151/151
f 155/155/155 154/154/154 153/153/153
f 156/156/156 155/155/155 153/153/153
f 153/153/153 154/154/154 166/166/166
f 161/161/161 155/155/155 156/156/156
f 154/154/154 165/165/165 166/166/166
f 162/162/162 161/161/161 156/156/156
f 166/166/166 165/165/165 162/162/162
f 165/165/165 161/161/161 162/162/162
f 159/159/159 158/158/158 157/157/157
f 160/160/160 159/159/159 157/157/157
f 157/157/157 158/158/158 163/163/163
f 168/168/168 159/159/159 160/160/160
f 158/158/158 164/164/164 163/163/163
f 167/167/167 168/168/168 160/160/160
f 163/163/163 164/164/164 167/167/167
f 164/164/164 168/168/168 167/167/167
f 171/171/171 170/170/170 169/169/169
f 172/172/172 171/171/171 169/169/169
f 169/169/169 170/170/170 181/181/181
f 176/176/176 171/171/171 172/172/172
f 170/170/170 180/180/180 181/181/181
f 177/177/177 176/176/176 172/172/172
f 181/181/181 180/180/180 177/177/177
f 180/180/180 176/176/176 177/177/177
