g SM_Prop_Laundry_WasherTop_Lid_01
v -0.4335419 -2.384186E-08 -3.051758E-07
v -0.4230299 0.03303174 0.01263153
v -0.4230299 0.03303174 0.7616922
v -0.4335419 -2.384186E-08 0.7616922
v -0.4230299 0.03303174 0.01263153
v 0.4230298 0.03303174 0.01263153
v 0.4230298 0.03303174 0.7616922
v -0.4230299 0.03303174 0.7616922
v 0.4230298 0.03303174 0.01263153
v 0.4335419 -2.384186E-08 -3.051758E-07
v 0.4335419 -2.384186E-08 0.7616922
v 0.4230298 0.03303174 0.7616922
v 0.4335419 -2.384186E-08 -3.051758E-07
v -0.4335419 -2.384186E-08 -3.051758E-07
v -0.4335419 -2.384186E-08 0.7616922
v 0.4335419 -2.384186E-08 0.7616922
v -0.4200964 -0.003926873 0.7723837
v -0.4085919 0.006813788 0.778461
v 0.4085917 0.006813788 0.778461
v 0.4200963 -0.003926873 0.7723837
v 0.4335419 -2.384186E-08 -3.051758E-07
v 0.4230298 0.03303174 0.01263153
v -0.4230299 0.03303174 0.01263153
v -0.4335419 -2.384186E-08 -3.051758E-07
v -0.4335419 -2.384186E-08 0.7616922
v -0.4200964 -0.003926873 0.7723837
v 0.4200963 -0.003926873 0.7723837
v 0.4335419 -2.384186E-08 0.7616922
v 0.4335419 -2.384186E-08 0.7616922
v 0.4200963 -0.003926873 0.7723837
v 0.4085917 0.006813788 0.778461
v 0.4230298 0.03303174 0.7616922
v 0.4230298 0.03303174 0.7616922
v 0.4085917 0.006813788 0.778461
v -0.4085919 0.006813788 0.778461
v -0.4230299 0.03303174 0.7616922
v -0.4230299 0.03303174 0.7616922
v -0.4085919 0.006813788 0.778461
v -0.4200964 -0.003926873 0.7723837
v -0.4335419 -2.384186E-08 0.7616922
vt 0.3856249 0.01110212
vt 0.3856249 0.01110212
vt 0.3856249 0.01110212
vt 0.3856249 0.01110212
vt 0.3856249 0.01110212
vt 0.3856249 0.01110212
vt 0.3856249 0.01110212
vt 0.3856249 0.01110212
vt 0.3856249 0.01110212
vt 0.3856249 0.01110212
vt 0.3856249 0.01110212
vt 0.3856249 0.01110212
vt 0.3856593 0.0111084
vt 0.3856593 0.0111084
vt 0.3856593 0.0111084
vt 0.3856593 0.0111084
vt 0.3856249 0.01110212
vt 0.3856249 0.01110212
vt 0.3856249 0.01110212
vt 0.3856249 0.01110212
vt 0.3856249 0.01110212
vt 0.3856249 0.01110212
vt 0.3856249 0.01110212
vt 0.3856249 0.01110212
vt 0.3856593 0.0111084
vt 0.3856593 0.0111084
vt 0.3856593 0.0111084
vt 0.3856593 0.0111084
vt 0.3856249 0.01110212
vt 0.3856249 0.01110212
vt 0.3856249 0.01110212
vt 0.3856249 0.01110212
vt 0.3856249 0.01110212
vt 0.3856249 0.01110212
vt 0.3856249 0.01110212
vt 0.3856249 0.01110212
vt 0.3856249 0.01110212
vt 0.3856249 0.01110212
vt 0.3856249 0.01110212
vt 0.3856249 0.01110212
vn -0.9529105 0.3032514 0
vn -0.9529105 0.3032514 0
vn -0.9529105 0.3032514 0
vn -0.9529105 0.3032514 0
vn 0 1 0
vn 0 1 0
vn 0 1 0
vn 0 1 0
vn 0.9529093 0.3032554 0
vn 0.9529093 0.3032554 0
vn 0.9529093 0.3032554 0
vn 0.9529093 0.3032554 0
vn 0 -1 0
vn 0 -1 0
vn 0 -1 0
vn 0 -1 0
vn 0 -0.492454 0.8703385
vn 0 -0.492454 0.8703385
vn 0 -0.492454 0.8703385
vn 0 -0.492454 0.8703385
vn 0 0.3571878 -0.9340326
vn 0 0.3571878 -0.9340326
vn 0 0.3571878 -0.9340326
vn 0 0.3571878 -0.9340326
vn 0 -0.9386882 -0.3447671
vn 0 -0.9386882 -0.3447671
vn 0 -0.9386882 -0.3447671
vn 0 -0.9386882 -0.3447671
vn 0.5823264 0.1829232 0.792108
vn 0.5823264 0.1829232 0.792108
vn 0.5823264 0.1829232 0.792108
vn 0.5823264 0.1829232 0.792108
vn 0 0.53881 0.8424274
vn 0 0.53881 0.8424274
vn 0 0.53881 0.8424274
vn 0 0.53881 0.8424274
vn -0.5823287 0.1829226 0.7921064
vn -0.5823287 0.1829226 0.7921064
vn -0.5823287 0.1829226 0.7921064
vn -0.5823287 0.1829226 0.7921064
g SM_Prop_Laundry_WasherTop_Lid_01_0
f 3/3/3 2/2/2 1/1/1
f 4/4/4 3/3/3 1/1/1
f 7/7/7 6/6/6 5/5/5
f 8/8/8 7/7/7 5/5/5
f 11/11/11 10/10/10 9/9/9
f 12/12/12 11/11/11 9/9/9
f 15/15/15 14/14/14 13/13/13
f 16/16/16 15/15/15 13/13/13
f 19/19/19 18/18/18 17/17/17
f 20/20/20 19/19/19 17/17/17
f 23/23/23 22/22/22 21/21/21
f 24/24/24 23/23/23 21/21/21
f 27/27/27 26/26/26 25/25/25
f 28/28/28 27/27/27 25/25/25
f 31/31/31 30/30/30 29/29/29
f 32/32/32 31/31/31 29/29/29
f 35/35/35 34/34/34 33/33/33
f 36/36/36 35/35/35 33/33/33
f 39/39/39 38/38/38 37/37/37
f 40/40/40 39/39/39 37/37/37
