g SM_Prop_Microphone_02
v 0.07807834 0 -0.07807834
v 0.07807834 0.03736065 -0.07807834
v 0 0.03736065 -0.1104195
v 0 0 -0.1104195
v 0 0 -0.1104195
v 0 0.03736065 -0.1104195
v -0.07807834 0.03736065 -0.07807834
v -0.07807834 0 -0.07807834
v -0.07807834 0 -0.07807834
v -0.07807834 0.03736065 -0.07807834
v -0.1104195 0.03736065 0
v -0.1104195 0 0
v -0.1104195 0 0
v -0.1104195 0.03736065 0
v -0.07807834 0.03736065 0.07807834
v -0.07807834 0 0.07807834
v -0.07807834 0 0.07807834
v -0.07807834 0.03736065 0.07807834
v 0 0.03736065 0.1104195
v 0 0 0.1104195
v 0 0 0.1104195
v 0 0.03736065 0.1104195
v 0.07807834 0.03736065 0.07807834
v 0.07807834 0 0.07807834
v 0.07807834 0 0.07807834
v 0.07807834 0.03736065 0.07807834
v 0.1104195 0.03736065 0
v 0.1104195 0 0
v 0.1104195 0 0
v 0.1104195 0.03736065 0
v 0.07807834 0.03736065 -0.07807834
v 0.07807834 0 -0.07807834
v 0.07807834 0.03736065 -0.07807834
v 0.02667426 0.05397608 -0.02667424
v 4.333041E-09 0.05397608 -0.03772308
v 0 0.03736065 -0.1104195
v 0 0.03736065 -0.1104195
v 4.333041E-09 0.05397608 -0.03772308
v -0.02667424 0.05397608 -0.02667424
v -0.07807834 0.03736065 -0.07807834
v -0.07807834 0.03736065 -0.07807834
v -0.02667424 0.05397608 -0.02667424
v -0.03772308 0.05397608 2.166521E-09
v -0.1104195 0.03736065 0
v -0.1104195 0.03736065 0
v -0.03772308 0.05397608 2.166521E-09
v -0.02667424 0.05397608 0.02667425
v -0.07807834 0.03736065 0.07807834
v -0.07807834 0.03736065 0.07807834
v -0.02667424 0.05397608 0.02667425
v 4.333041E-09 0.05397608 0.03772309
v 0 0.03736065 0.1104195
v 0 0.03736065 0.1104195
v 4.333041E-09 0.05397608 0.03772309
v 0.02667426 0.05397608 0.02667425
v 0.07807834 0.03736065 0.07807834
v 0.07807834 0.03736065 0.07807834
v 0.02667426 0.05397608 0.02667425
v 0.0377231 0.05397608 2.166521E-09
v 0.1104195 0.03736065 0
v 0.1104195 0.03736065 0
v 0.0377231 0.05397608 2.166521E-09
v 0.02667426 0.05397608 -0.02667424
v 0.07807834 0.03736065 -0.07807834
v 0.02667426 0.05397608 -0.02667424
v 0.02667426 0.09792121 -0.02667424
v 4.333041E-09 0.09792121 -0.03772308
v 4.333041E-09 0.05397608 -0.03772308
v 4.333041E-09 0.05397608 -0.03772308
v 4.333041E-09 0.09792121 -0.03772308
v -0.02667424 0.09792121 -0.02667424
v -0.02667424 0.05397608 -0.02667424
v -0.02667424 0.05397608 -0.02667424
v -0.02667424 0.09792121 -0.02667424
v -0.03772308 0.09792121 2.166521E-09
v -0.03772308 0.05397608 2.166521E-09
v -0.03772308 0.05397608 2.166521E-09
v -0.03772308 0.09792121 2.166521E-09
v -0.02667424 0.09792121 0.02667425
v -0.02667424 0.05397608 0.02667425
v -0.02667424 0.05397608 0.02667425
v -0.02667424 0.09792121 0.02667425
v 4.333041E-09 0.09792121 0.03772309
v 4.333041E-09 0.05397608 0.03772309
v 4.333041E-09 0.05397608 0.03772309
v 4.333041E-09 0.09792121 0.03772309
v 0.02667426 0.09792121 0.02667425
v 0.02667426 0.05397608 0.02667425
v 0.02667426 0.05397608 0.02667425
v 0.02667426 0.09792121 0.02667425
v 0.0377231 0.09792121 2.166521E-09
v 0.0377231 0.05397608 2.166521E-09
v 0.0377231 0.05397608 2.166521E-09
v 0.0377231 0.09792121 2.166521E-09
v 0.02667426 0.09792121 -0.02667424
v 0.02667426 0.05397608 -0.02667424
v -0.03772308 0.09792121 2.166521E-09
v -0.02667424 0.09792121 -0.02667424
v 4.333041E-09 0.09792121 -0.03772308
v 4.333041E-09 0.09792121 3.290756E-09
v 0.02667426 0.09792121 -0.02667424
v 0.0377231 0.09792121 2.166521E-09
v 4.333041E-09 0.09792121 0.03772309
v -0.02667424 0.09792121 0.02667425
v 0.02667426 0.09792121 0.02667425
v -0.1104195 0 0
v -0.07807834 0 0.07807834
v 0 0 0.1104195
v 0 0 0
v 0.07807834 0 0.07807834
v 0.1104195 0 0
v 0.07807834 0 -0.07807834
v 0 0 -0.1104195
v -0.07807834 0 -0.07807834
vt 0.08381864 0.3055025
vt 0.08382049 0.3053506
vt 0.08410591 0.3054917
vt 0.08410236 0.3056463
vt 0.08410236 0.3056463
vt 0.08410591 0.3054917
vt 0.08411729 0.3056984
vt 0.08411357 0.3058567
vt 0.08411357 0.3058567
vt 0.08411729 0.3056984
vt 0.08382565 0.3058496
vt 0.08382362 0.3060106
vt 0.08382362 0.3060106
vt 0.08382565 0.3058496
vt 0.08340168 0.3058449
vt 0.08340222 0.3060059
vt 0.08340222 0.3060059
vt 0.08340168 0.3058449
vt 0.08311725 0.3056878
vt 0.08311951 0.3058459
vt 0.08311951 0.3058459
vt 0.08311725 0.3056878
vt 0.08313745 0.3054818
vt 0.08313954 0.3056362
vt 0.08313954 0.3056362
vt 0.08313745 0.3054818
vt 0.08342814 0.3053466
vt 0.0834285 0.3054985
vt 0.0834285 0.3054985
vt 0.08342814 0.3053466
vt 0.08382049 0.3053506
vt 0.08381864 0.3055025
vt 0.08382049 0.3053506
vt 0.08369014 0.3054356
vt 0.08378786 0.3054851
vt 0.08410591 0.3054917
vt 0.08410591 0.3054917
vt 0.08378786 0.3054851
vt 0.08378819 0.305555
vt 0.08411729 0.3056984
vt 0.08411729 0.3056984
vt 0.08378819 0.305555
vt 0.08368835 0.3056044
vt 0.08382565 0.3058496
vt 0.08382565 0.3058496
vt 0.08368835 0.3056044
vt 0.08354688 0.3056029
vt 0.08340168 0.3058449
vt 0.08340168 0.3058449
vt 0.08354688 0.3056029
vt 0.0834493 0.3055515
vt 0.08311725 0.3056878
vt 0.08311725 0.3056878
vt 0.0834493 0.3055515
vt 0.08345264 0.3054817
vt 0.08313745 0.3054818
vt 0.08313745 0.3054818
vt 0.08345264 0.3054817
vt 0.08355236 0.3054343
vt 0.08342814 0.3053466
vt 0.08342814 0.3053466
vt 0.08355236 0.3054343
vt 0.08369014 0.3054356
vt 0.08382049 0.3053506
vt 0.08369014 0.3054356
vt 0.08369151 0.3052503
vt 0.08378991 0.3052987
vt 0.08378786 0.3054851
vt 0.08378786 0.3054851
vt 0.08378991 0.3052987
vt 0.08379027 0.305367
vt 0.08378819 0.305555
vt 0.08378819 0.305555
vt 0.08379027 0.305367
vt 0.08368975 0.3054152
vt 0.08368835 0.3056044
vt 0.08368835 0.3056044
vt 0.08368975 0.3054152
vt 0.08354723 0.3054138
vt 0.08354688 0.3056029
vt 0.08354688 0.3056029
vt 0.08354723 0.3054138
vt 0.08344901 0.3053636
vt 0.0834493 0.3055515
vt 0.0834493 0.3055515
vt 0.08344901 0.3053636
vt 0.08345234 0.3052953
vt 0.08345264 0.3054817
vt 0.08345264 0.3054817
vt 0.08345234 0.3052953
vt 0.08355278 0.3052489
vt 0.08355236 0.3054343
vt 0.08355236 0.3054343
vt 0.08355278 0.3052489
vt 0.08369151 0.3052503
vt 0.08369014 0.3054356
vt 0.08368975 0.3054152
vt 0.08379027 0.305367
vt 0.08378991 0.3052987
vt 0.08362034 0.305331
vt 0.08369151 0.3052503
vt 0.08355278 0.3052489
vt 0.08344901 0.3053636
vt 0.08354723 0.3054138
vt 0.08345234 0.3052953
vt 0.08382362 0.3060106
vt 0.08340222 0.3060059
vt 0.08311951 0.3058459
vt 0.0836184 0.3057446
vt 0.08313954 0.3056362
vt 0.0834285 0.3054985
vt 0.08381864 0.3055025
vt 0.08410236 0.3056463
vt 0.08411357 0.3058567
vn 0.3826836 0 -0.9238794
vn 0.3826836 0 -0.9238794
vn 0.3826836 0 -0.9238794
vn 0.3826836 0 -0.9238794
vn -0.3826836 0 -0.9238794
vn -0.3826836 0 -0.9238794
vn -0.3826836 0 -0.9238794
vn -0.3826836 0 -0.9238794
vn -0.9238794 0 -0.3826836
vn -0.9238794 0 -0.3826836
vn -0.9238794 0 -0.3826836
vn -0.9238794 0 -0.3826836
vn -0.9238794 0 0.3826836
vn -0.9238794 0 0.3826836
vn -0.9238794 0 0.3826836
vn -0.9238794 0 0.3826836
vn -0.3826836 0 0.9238794
vn -0.3826836 0 0.9238794
vn -0.3826836 0 0.9238794
vn -0.3826836 0 0.9238794
vn 0.3826835 0 0.9238794
vn 0.3826835 0 0.9238794
vn 0.3826835 0 0.9238794
vn 0.3826835 0 0.9238794
vn 0.9238794 0 0.3826835
vn 0.9238794 0 0.3826835
vn 0.9238794 0 0.3826835
vn 0.9238794 0 0.3826835
vn 0.9238794 0 -0.3826836
vn 0.9238794 0 -0.3826836
vn 0.9238794 0 -0.3826836
vn 0.9238794 0 -0.3826836
vn 0.09190179 0.9707355 -0.2218705
vn 0.09190179 0.9707355 -0.2218706
vn 0.09190179 0.9707355 -0.2218706
vn 0.09190179 0.9707355 -0.2218705
vn -0.09190179 0.9707355 -0.2218705
vn -0.09190179 0.9707355 -0.2218705
vn -0.09190179 0.9707355 -0.2218705
vn -0.09190179 0.9707355 -0.2218705
vn -0.2218705 0.9707355 -0.09190179
vn -0.2218705 0.9707355 -0.09190181
vn -0.2218705 0.9707355 -0.09190182
vn -0.2218705 0.9707355 -0.09190182
vn -0.2218705 0.9707355 0.09190182
vn -0.2218705 0.9707355 0.09190182
vn -0.2218705 0.9707355 0.09190181
vn -0.2218705 0.9707355 0.09190182
vn -0.09190182 0.9707355 0.2218706
vn -0.09190182 0.9707355 0.2218706
vn -0.09190182 0.9707355 0.2218706
vn -0.09190182 0.9707355 0.2218706
vn 0.09190182 0.9707355 0.2218706
vn 0.09190181 0.9707355 0.2218706
vn 0.09190181 0.9707355 0.2218706
vn 0.09190179 0.9707355 0.2218706
vn 0.2218706 0.9707355 0.09190182
vn 0.2218706 0.9707355 0.09190181
vn 0.2218706 0.9707355 0.09190182
vn 0.2218706 0.9707355 0.09190182
vn 0.2218706 0.9707355 -0.09190181
vn 0.2218706 0.9707355 -0.09190182
vn 0.2218706 0.9707355 -0.09190182
vn 0.2218706 0.9707355 -0.09190181
vn 0.3826835 0 -0.9238795
vn 0.3826835 0 -0.9238795
vn 0.3826835 0 -0.9238795
vn 0.3826835 0 -0.9238795
vn -0.3826835 0 -0.9238794
vn -0.3826835 0 -0.9238794
vn -0.3826835 0 -0.9238794
vn -0.3826835 0 -0.9238794
vn -0.9238794 0 -0.3826836
vn -0.9238794 0 -0.3826836
vn -0.9238794 0 -0.3826836
vn -0.9238794 0 -0.3826836
vn -0.9238794 0 0.3826836
vn -0.9238794 0 0.3826836
vn -0.9238794 0 0.3826836
vn -0.9238794 0 0.3826836
vn -0.3826835 0 0.9238794
vn -0.3826835 0 0.9238794
vn -0.3826835 0 0.9238794
vn -0.3826835 0 0.9238794
vn 0.3826835 0 0.9238795
vn 0.3826835 0 0.9238795
vn 0.3826835 0 0.9238795
vn 0.3826835 0 0.9238795
vn 0.9238794 0 0.3826836
vn 0.9238794 0 0.3826836
vn 0.9238794 0 0.3826836
vn 0.9238794 0 0.3826836
vn 0.9238794 0 -0.3826836
vn 0.9238794 0 -0.3826836
vn 0.9238794 0 -0.3826836
vn 0.9238794 0 -0.3826836
vn 0 1 0
vn 0 1 0
vn 0 1 0
vn 0 1 0
vn 0 1 0
vn 0 1 0
vn 0 1 0
vn 0 1 0
vn 0 1 0
vn 0 -1 0
vn 0 -1 0
vn 0 -1 0
vn 0 -1 0
vn 0 -1 0
vn 0 -1 0
vn 0 -1 0
vn 0 -1 0
vn 0 -1 0
g SM_Prop_Microphone_02_0
f 3/3/3 2/2/2 1/1/1
f 4/4/4 3/3/3 1/1/1
f 7/7/7 6/6/6 5/5/5
f 8/8/8 7/7/7 5/5/5
f 11/11/11 10/10/10 9/9/9
f 12/12/12 11/11/11 9/9/9
f 15/15/15 14/14/14 13/13/13
f 16/16/16 15/15/15 13/13/13
f 19/19/19 18/18/18 17/17/17
f 20/20/20 19/19/19 17/17/17
f 23/23/23 22/22/22 21/21/21
f 24/24/24 23/23/23 21/21/21
f 27/27/27 26/26/26 25/25/25
f 28/28/28 27/27/27 25/25/25
f 31/31/31 30/30/30 29/29/29
f 32/32/32 31/31/31 29/29/29
f 35/35/35 34/34/34 33/33/33
f 36/36/36 35/35/35 33/33/33
f 39/39/39 38/38/38 37/37/37
f 40/40/40 39/39/39 37/37/37
f 43/43/43 42/42/42 41/41/41
f 44/44/44 43/43/43 41/41/41
f 47/47/47 46/46/46 45/45/45
f 48/48/48 47/47/47 45/45/45
f 51/51/51 50/50/50 49/49/49
f 52/52/52 51/51/51 49/49/49
f 55/55/55 54/54/54 53/53/53
f 56/56/56 55/55/55 53/53/53
f 59/59/59 58/58/58 57/57/57
f 60/60/60 59/59/59 57/57/57
f 63/63/63 62/62/62 61/61/61
f 64/64/64 63/63/63 61/61/61
f 67/67/67 66/66/66 65/65/65
f 68/68/68 67/67/67 65/65/65
f 71/71/71 70/70/70 69/69/69
f 72/72/72 71/71/71 69/69/69
f 75/75/75 74/74/74 73/73/73
f 76/76/76 75/75/75 73/73/73
f 79/79/79 78/78/78 77/77/77
f 80/80/80 79/79/79 77/77/77
f 83/83/83 82/82/82 81/81/81
f 84/84/84 83/83/83 81/81/81
f 87/87/87 86/86/86 85/85/85
f 88/88/88 87/87/87 85/85/85
f 91/91/91 90/90/90 89/89/89
f 92/92/92 91/91/91 89/89/89
f 95/95/95 94/94/94 93/93/93
f 96/96/96 95/95/95 93/93/93
f 99/99/99 98/98/98 97/97/97
f 100/100/100 99/99/99 97/97/97
f 99/99/99 100/100/100 101/101/101
f 100/100/100 102/102/102 101/101/101
f 100/100/100 97/97/97 103/103/103
f 100/100/100 103/103/103 102/102/102
f 97/97/97 104/104/104 103/103/103
f 103/103/103 105/105/105 102/102/102
f 108/108/108 107/107/107 106/106/106
f 109/109/109 108/108/108 106/106/106
f 110/110/110 108/108/108 109/109/109
f 111/111/111 110/110/110 109/109/109
f 111/111/111 109/109/109 112/112/112
f 109/109/109 113/113/113 112/112/112
f 109/109/109 106/106/106 113/113/113
f 106/106/106 114/114/114 113/113/113
