g SM_Prop_Doll_House_01_Door_1
v 1.907349E-08 0.1770096 -0.007499981
v 0 0.1770098 0.007499981
v 0 -0.1770097 0.007499981
v 1.907349E-08 -0.1770098 -0.007499981
v 1.907349E-08 -9.443939E-08 -0.007499981
v 0 3.907502E-08 0.007499981
v -0.03424461 0.03540729 0.007499981
v -0.1369528 0.03540729 0.007499981
v -0.1369528 0.1416024 0.007499981
v -0.03424461 0.1416024 0.007499981
v -0.1756786 0.1770098 0.007499981
v -0.1756786 0.1770096 -0.007499981
v -0.1369527 0.1416023 -0.007499981
v -0.03424457 0.1416023 -0.007499981
v -0.1369527 0.03540716 -0.007499981
v -0.03424457 0.03540716 -0.007499981
v -0.1369527 -0.03540734 -0.007499981
v -0.03424457 -0.03540734 -0.007499981
v -0.1369527 -0.1416025 -0.007499981
v -0.03424457 -0.1416025 -0.007499981
v -0.1756786 -0.1770098 -0.007499981
v -0.1756786 -0.1770097 0.007499981
v -0.1369528 -0.1416024 0.007499981
v -0.03424461 -0.1416024 0.007499981
v -0.1369528 -0.03540721 0.007499981
v -0.03424461 -0.03540721 0.007499981
v -0.1756786 -9.443939E-08 -0.007499981
v -0.1756786 3.907502E-08 0.007499981
v -0.04463144 0.0464073 0.007499857
v -0.1265659 0.0464073 0.007499904
v -0.04463142 0.04640713 -0.007500114
v -0.1265659 0.04640713 -0.007500057
v -0.04463144 0.1306024 0.007500038
v -0.04463142 0.1306023 -0.007499943
v -0.1265659 0.1306024 0.007500057
v -0.1265659 0.1306023 -0.007499904
v -0.04463142 -0.04640735 -0.007499904
v -0.1265659 -0.04640735 -0.007499885
v -0.04463144 -0.04640724 0.007500057
v -0.1265659 -0.04640724 0.007500114
v -0.04463142 -0.1306025 -0.007500095
v -0.04463144 -0.1306024 0.007499885
v -0.1265659 -0.1306025 -0.007500057
v -0.1265659 -0.1306024 0.007499904
v 0 0.1770098 0.007499981
v -0.1756786 0.1770098 0.007499981
v 1.907349E-08 0.1770096 -0.007499981
v 0 0.1770098 0.007499981
v -0.1756786 0.1770096 -0.007499981
v 1.907349E-08 0.1770096 -0.007499981
v 1.907349E-08 -9.443939E-08 -0.007499981
v 1.907349E-08 -0.1770098 -0.007499981
v -0.1756786 -0.1770098 -0.007499981
v 0 -0.1770097 0.007499981
v 1.907349E-08 -0.1770098 -0.007499981
v -0.1756786 -0.1770097 0.007499981
v 0 -0.1770097 0.007499981
v -0.1756786 -9.443939E-08 -0.007499981
v 0 3.907502E-08 0.007499981
v 1.907349E-08 -9.443939E-08 -0.007499981
v -0.04463144 0.0464073 0.007499857
v -0.04463142 0.04640713 -0.007500114
v -0.04463144 0.1306024 0.007500038
v -0.04463142 0.1306023 -0.007499943
v -0.1265659 0.1306024 0.007500057
v -0.1265659 0.1306023 -0.007499904
v -0.1265659 0.04640713 -0.007500057
v -0.1265659 0.0464073 0.007499904
v -0.04463142 -0.04640735 -0.007499904
v -0.04463144 -0.04640724 0.007500057
v -0.04463142 -0.1306025 -0.007500095
v -0.04463144 -0.1306024 0.007499885
v -0.1265659 -0.1306025 -0.007500057
v -0.1265659 -0.1306024 0.007499904
v -0.1265659 -0.04640724 0.007500114
v -0.1265659 -0.04640735 -0.007499885
v -0.1756786 -0.1770097 0.007499981
v -0.1756786 -0.1770098 -0.007499981
v -0.1756786 -9.443939E-08 -0.007499981
v -0.1756786 3.907502E-08 0.007499981
v -0.1756786 0.1770096 -0.007499981
v -0.1756786 0.1770098 0.007499981
v -0.1369528 0.03540729 0.007499981
v -0.1265659 0.0464073 0.007499904
v -0.04463144 0.0464073 0.007499857
v -0.03424461 0.03540729 0.007499981
v -0.03424457 0.03540716 -0.007499981
v -0.04463142 0.04640713 -0.007500114
v -0.1265659 0.04640713 -0.007500057
v -0.1369527 0.03540716 -0.007499981
v -0.04463144 0.1306024 0.007500038
v -0.03424461 0.1416024 0.007499981
v -0.03424457 0.1416023 -0.007499981
v -0.04463142 0.1306023 -0.007499943
v -0.1265659 0.1306024 0.007500057
v -0.1369528 0.1416024 0.007499981
v -0.1369527 0.1416023 -0.007499981
v -0.1265659 0.1306023 -0.007499904
v -0.1369527 -0.03540734 -0.007499981
v -0.1265659 -0.04640735 -0.007499885
v -0.04463142 -0.04640735 -0.007499904
v -0.03424457 -0.03540734 -0.007499981
v -0.03424461 -0.03540721 0.007499981
v -0.04463144 -0.04640724 0.007500057
v -0.1265659 -0.04640724 0.007500114
v -0.1369528 -0.03540721 0.007499981
v -0.04463142 -0.1306025 -0.007500095
v -0.03424457 -0.1416025 -0.007499981
v -0.03424461 -0.1416024 0.007499981
v -0.04463144 -0.1306024 0.007499885
v -0.1265659 -0.1306025 -0.007500057
v -0.1369527 -0.1416025 -0.007499981
v -0.1369528 -0.1416024 0.007499981
v -0.1265659 -0.1306024 0.007499904
vt 0.1032363 0.3534311
vt 0.1032413 0.3534226
vt 0.1032618 0.3539127
vt 0.103256 0.3539055
vt 0.1032452 0.3536682
vt 0.1032525 0.3536678
vt 0.103322 0.3536277
vt 0.1035365 0.3536546
vt 0.1035345 0.3535024
vt 0.1033168 0.3534793
vt 0.1036096 0.35346
vt 0.1036184 0.3534701
vt 0.1035421 0.3535116
vt 0.1033134 0.3534872
vt 0.1035439 0.3536583
vt 0.1033183 0.3536302
vt 0.352678 0.5543581
vt 0.352678 0.5177522
vt 0.3489042 0.5543581
vt 0.3489041 0.5177522
vt 0.3476459 0.5681602
vt 0.1036134 0.3539702
vt 0.1035398 0.3539082
vt 0.1033306 0.3538751
vt 0.1035378 0.3537561
vt 0.1033254 0.3537267
vt 0.1036229 0.3537174
vt 0.1036083 0.3537147
vt 0.01424825 0.06796789
vt 0.01454306 0.067971
vt 0.014267 0.06796489
vt 0.01455772 0.06796794
vt 0.0142391 0.06770679
vt 0.01425824 0.06770767
vt 0.0145379 0.06770591
vt 0.01455283 0.06770683
vt 0.01427639 0.06824052
vt 0.0145629 0.06824766
vt 0.01425806 0.06824753
vt 0.01454857 0.06825488
vt 0.01428467 0.0684837
vt 0.0142667 0.06849413
vt 0.01456752 0.06849436
vt 0.01455343 0.0685051
vt 0.1032413 0.3534226
vt 0.1036096 0.35346
vt 0.1032363 0.3534311
vt 0.1032413 0.3534226
vt 0.1036184 0.3534701
vt 0.1032363 0.3534311
vt 0.1032452 0.3536682
vt 0.3476459 0.5055472
vt 0.1036224 0.353964
vt 0.1032618 0.3539127
vt 0.103256 0.3539055
vt 0.1036134 0.3539702
vt 0.1032618 0.3539127
vt 0.3539363 0.5681603
vt 0.1032525 0.3536678
vt 0.3539363 0.5055473
vt 0.01424825 0.06796789
vt 0.014267 0.06796489
vt 0.0142391 0.06770679
vt 0.01425824 0.06770767
vt 0.0145379 0.06770591
vt 0.01455283 0.06770683
vt 0.01455772 0.06796794
vt 0.01454306 0.067971
vt 0.01427639 0.06824052
vt 0.01425806 0.06824753
vt 0.01428467 0.0684837
vt 0.0142667 0.06849413
vt 0.01456752 0.06849436
vt 0.01455343 0.0685051
vt 0.01454857 0.06825488
vt 0.0145629 0.06824766
vt 0.1036134 0.3539702
vt 0.1036224 0.353964
vt 0.1036229 0.3537174
vt 0.1036083 0.3537147
vt 0.1036184 0.3534701
vt 0.1036096 0.35346
vt 0.01458168 0.06800557
vt 0.01454306 0.067971
vt 0.01424825 0.06796789
vt 0.01421276 0.06800102
vt 0.01423198 0.06799755
vt 0.014267 0.06796489
vt 0.01455772 0.06796794
vt 0.01459575 0.068002
vt 0.0142391 0.06770679
vt 0.0142006 0.06767236
vt 0.01422033 0.06767377
vt 0.01425824 0.06770767
vt 0.0145379 0.06770591
vt 0.01457584 0.06767046
vt 0.01459026 0.06767201
vt 0.01455283 0.06770683
vt 0.01459932 0.06821581
vt 0.0145629 0.06824766
vt 0.01427639 0.06824052
vt 0.01423952 0.06820745
vt 0.01422063 0.06821397
vt 0.01425806 0.06824753
vt 0.01454857 0.06825488
vt 0.01458547 0.06822259
vt 0.01428467 0.0684837
vt 0.01425055 0.06851359
vt 0.01423213 0.06852443
vt 0.0142667 0.06849413
vt 0.01456752 0.06849436
vt 0.01460451 0.0685275
vt 0.01459098 0.06853876
vt 0.01455343 0.0685051
vn 1 0 0
vn 1 0 0
vn 1 0 0
vn 1 0 0
vn 1 0 0
vn 1 0 0
vn 0 0 1
vn 0 0 1
vn 0 0 1
vn 0 0 1
vn 0 0 1
vn 0 1 -1.271569E-05
vn 0 0 -1
vn 0 0 -1
vn 0 0 -1
vn 0 0 -1
vn 0 0 -1
vn 0 0 -1
vn 0 0 -1
vn 0 0 -1
vn 0 0 -1
vn 0 -1 0
vn 0 0 1
vn 0 0 1
vn 0 0 1
vn 0 0 1
vn 0 0 -1
vn 0 0 1
vn 0 1 -1.144412E-05
vn 0 1 -1.144412E-05
vn 0 1 -1.144412E-05
vn 0 1 -1.144412E-05
vn -1 0 0
vn -1 0 0
vn 0 -1 0
vn 0 -1 0
vn 0 -1 0
vn 0 -1 0
vn 0 -1 0
vn 0 -1 0
vn -1 0 0
vn -1 0 0
vn 0 1 0
vn 0 1 0
vn 0 0 1
vn 0 1 -1.271569E-05
vn 0 1 -1.271569E-05
vn 0 1 -1.271569E-05
vn 0 0 -1
vn 0 0 -1
vn 0 0 -1
vn 0 0 -1
vn 0 -1 0
vn 0 -1 0
vn 0 -1 0
vn 0 0 1
vn 0 0 1
vn 0 0 -1
vn 0 0 1
vn 0 0 -1
vn -1 0 0
vn -1 0 0
vn 0 -1 0
vn 0 -1 0
vn 1 0 0
vn 1 0 0
vn 1 0 0
vn 1 0 0
vn -1 0 0
vn -1 0 0
vn 0 1 0
vn 0 1 0
vn 1 0 0
vn 1 0 0
vn 1 0 0
vn 1 0 0
vn -1 0 0
vn -1 0 0
vn -1 0 0
vn -1 0 0
vn -1 0 0
vn -1 0 0
vn 0 0 1
vn 0 0 1
vn 0 0 1
vn 0 0 1
vn 0 0 -1
vn 0 0 -1
vn 0 0 -1
vn 0 0 -1
vn 0 0 1
vn 0 0 1
vn 0 0 -1
vn 0 0 -1
vn 0 0 1
vn 0 0 1
vn 0 0 -1
vn 0 0 -1
vn 0 0 -1
vn 0 0 -1
vn 0 0 -1
vn 0 0 -1
vn 0 0 1
vn 0 0 1
vn 0 0 1
vn 0 0 1
vn 0 0 -1
vn 0 0 -1
vn 0 0 1
vn 0 0 1
vn 0 0 -1
vn 0 0 -1
vn 0 0 1
vn 0 0 1
g SM_Prop_Doll_House_01_Door_1_0
f 1/1/1 2/2/2 5/5/5
f 2/2/2 6/6/6 5/5/5
f 5/5/5 6/6/6 4/4/4
f 6/6/6 3/3/3 4/4/4
f 47/47/47 12/12/12 46/46/46
f 48/48/48 47/47/47 46/46/46
f 54/54/54 22/22/22 53/53/53
f 55/55/55 54/54/54 53/53/53
f 31/31/31 32/32/32 30/30/30
f 29/29/29 31/31/31 30/30/30
f 34/34/34 62/62/62 61/61/61
f 33/33/33 34/34/34 61/61/61
f 36/36/36 64/64/64 63/63/63
f 35/35/35 36/36/36 63/63/63
f 67/67/67 66/66/66 65/65/65
f 68/68/68 67/67/67 65/65/65
f 39/39/39 40/40/40 38/38/38
f 37/37/37 39/39/39 38/38/38
f 42/42/42 70/70/70 69/69/69
f 41/41/41 42/42/42 69/69/69
f 44/44/44 72/72/72 71/71/71
f 43/43/43 44/44/44 71/71/71
f 75/75/75 74/74/74 73/73/73
f 76/76/76 75/75/75 73/73/73
f 79/79/79 78/78/78 77/77/77
f 80/80/80 79/79/79 77/77/77
f 81/81/81 79/79/79 80/80/80
f 82/82/82 81/81/81 80/80/80
f 45/45/45 11/11/11 9/9/9
f 10/10/10 45/45/45 9/9/9
f 8/8/8 9/9/9 11/11/11
f 59/59/59 45/45/45 10/10/10
f 28/28/28 8/8/8 11/11/11
f 7/7/7 59/59/59 10/10/10
f 8/8/8 25/25/25 7/7/7
f 8/8/8 28/28/28 25/25/25
f 23/23/23 25/25/25 28/28/28
f 56/56/56 23/23/23 28/28/28
f 24/24/24 23/23/23 56/56/56
f 57/57/57 24/24/24 56/56/56
f 25/25/25 26/26/26 7/7/7
f 26/26/26 59/59/59 7/7/7
f 24/24/24 57/57/57 26/26/26
f 57/57/57 59/59/59 26/26/26
f 14/14/14 13/13/13 49/49/49
f 50/50/50 14/14/14 49/49/49
f 49/49/49 13/13/13 27/27/27
f 14/14/14 50/50/50 16/16/16
f 13/13/13 15/15/15 27/27/27
f 50/50/50 51/51/51 16/16/16
f 51/51/51 27/27/27 15/15/15
f 16/16/16 51/51/51 15/15/15
f 17/17/17 19/19/19 21/21/21
f 52/52/52 21/21/21 19/19/19
f 58/58/58 17/17/17 21/21/21
f 20/20/20 52/52/52 19/19/19
f 18/18/18 17/17/17 58/58/58
f 60/60/60 52/52/52 20/20/20
f 60/60/60 18/18/18 58/58/58
f 18/18/18 60/60/60 20/20/20
f 85/85/85 84/84/84 83/83/83
f 86/86/86 85/85/85 83/83/83
f 83/83/83 84/84/84 96/96/96
f 91/91/91 85/85/85 86/86/86
f 84/84/84 95/95/95 96/96/96
f 92/92/92 91/91/91 86/86/86
f 96/96/96 95/95/95 92/92/92
f 95/95/95 91/91/91 92/92/92
f 89/89/89 88/88/88 87/87/87
f 90/90/90 89/89/89 87/87/87
f 87/87/87 88/88/88 93/93/93
f 98/98/98 89/89/89 90/90/90
f 88/88/88 94/94/94 93/93/93
f 97/97/97 98/98/98 90/90/90
f 93/93/93 94/94/94 97/97/97
f 94/94/94 98/98/98 97/97/97
f 101/101/101 100/100/100 99/99/99
f 102/102/102 101/101/101 99/99/99
f 99/99/99 100/100/100 112/112/112
f 107/107/107 101/101/101 102/102/102
f 100/100/100 111/111/111 112/112/112
f 108/108/108 107/107/107 102/102/102
f 112/112/112 111/111/111 108/108/108
f 111/111/111 107/107/107 108/108/108
f 105/105/105 104/104/104 103/103/103
f 106/106/106 105/105/105 103/103/103
f 103/103/103 104/104/104 109/109/109
f 114/114/114 105/105/105 106/106/106
f 104/104/104 110/110/110 109/109/109
f 113/113/113 114/114/114 106/106/106
f 109/109/109 110/110/110 113/113/113
f 110/110/110 114/114/114 113/113/113
