g SM_Prop_Whiteboard_02_Board_01
v -0.7096366 0.5046389 -0.02037498
v 0.7096366 0.5046389 -0.02037498
v 0.7096366 0.5046389 0.02037498
v -0.7096366 0.5046389 0.02037498
v -0.7096366 -0.5046389 0.02037498
v 0.7096366 -0.5046389 0.02037498
v 0.7096366 -0.5046389 -0.02037498
v -0.7096366 -0.5046389 -0.02037498
v 0.7416366 -0.4726389 0.02037498
v 0.7416366 0.4726391 0.02037498
v 0.7416366 0.4726391 -0.02037498
v 0.7416366 -0.4726389 -0.02037498
v -0.7416366 -0.4726389 -0.02037498
v -0.7416366 0.4726391 -0.02037498
v -0.7416366 0.4726391 0.02037498
v -0.7416366 -0.4726389 0.02037498
v -0.7036366 -0.4666389 -0.005374977
v 0.7036366 -0.4666389 -0.005374977
v 0.7036366 0.4666389 -0.005374977
v -0.7036366 0.4666389 -0.005374977
v 0.7036366 -0.4666389 0.00537497
v -0.7036366 -0.4666389 0.00537497
v -0.7036366 0.4666389 0.00537497
v 0.7036366 0.4666389 0.00537497
v -0.7096366 -0.4726389 -0.02037498
v -0.7036366 -0.4666389 -0.005374977
v -0.7036366 0.4666389 -0.005374977
v -0.7096366 0.4726391 -0.02037498
v -0.7096366 0.4726391 -0.02037498
v -0.7036366 0.4666389 -0.005374977
v 0.7036366 0.4666389 -0.005374977
v 0.7096366 0.4726391 -0.02037498
v 0.7096366 0.4726391 -0.02037498
v 0.7036366 0.4666389 -0.005374977
v 0.7036366 -0.4666389 -0.005374977
v 0.7096366 -0.4726389 -0.02037498
v 0.7096366 -0.4726389 -0.02037498
v 0.7036366 -0.4666389 -0.005374977
v -0.7036366 -0.4666389 -0.005374977
v -0.7096366 -0.4726389 -0.02037498
v 0.7096366 -0.4726389 0.02037498
v 0.7036366 -0.4666389 0.00537497
v 0.7036366 0.4666389 0.00537497
v 0.7096366 0.4726391 0.02037498
v 0.7096366 0.4726391 0.02037498
v 0.7036366 0.4666389 0.00537497
v -0.7036366 0.4666389 0.00537497
v -0.7096366 0.4726391 0.02037498
v -0.7096366 0.4726391 0.02037498
v -0.7036366 0.4666389 0.00537497
v -0.7036366 -0.4666389 0.00537497
v -0.7096366 -0.4726389 0.02037498
v -0.7096366 -0.4726389 0.02037498
v -0.7036366 -0.4666389 0.00537497
v 0.7036366 -0.4666389 0.00537497
v 0.7096366 -0.4726389 0.02037498
v 0.7096366 0.4726391 0.02037498
v -0.7096366 0.4726391 0.02037498
v -0.7096366 0.5046389 0.02037498
v 0.7096366 0.5046389 0.02037498
v 0.7096366 0.4726391 -0.02037498
v 0.7096366 -0.4726389 -0.02037498
v 0.7416366 -0.4726389 -0.02037498
v 0.7416366 0.4726391 -0.02037498
v -0.7096366 0.4726391 0.02037498
v -0.7096366 -0.4726389 0.02037498
v -0.7416366 -0.4726389 0.02037498
v -0.7416366 0.4726391 0.02037498
v -0.7096366 0.4726391 -0.02037498
v 0.7096366 0.4726391 -0.02037498
v 0.7096366 0.5046389 -0.02037498
v -0.7096366 0.5046389 -0.02037498
v 0.7096366 -0.4726389 -0.02037498
v -0.7096366 -0.4726389 -0.02037498
v -0.7096366 -0.5046389 -0.02037498
v 0.7096366 -0.5046389 -0.02037498
v 0.7096366 -0.4726389 0.02037498
v 0.7096366 0.4726391 0.02037498
v 0.7416366 0.4726391 0.02037498
v 0.7416366 -0.4726389 0.02037498
v -0.7096366 -0.4726389 -0.02037498
v -0.7096366 0.4726391 -0.02037498
v -0.7416366 0.4726391 -0.02037498
v -0.7416366 -0.4726389 -0.02037498
v -0.7096366 -0.4726389 0.02037498
v 0.7096366 -0.4726389 0.02037498
v 0.7096366 -0.5046389 0.02037498
v -0.7096366 -0.5046389 0.02037498
v 0.7096366 0.5116724 0.02837498
v 0.7096366 0.5116726 -0.02837498
v 0.7362919 0.4992937 -0.02837498
v 0.7362918 0.499294 0.02837498
v 0.7362918 0.499294 0.02837498
v 0.7362919 0.4992937 -0.02837498
v 0.7486705 0.4726391 -0.02837498
v 0.7486703 0.4726391 0.02837498
v -0.7486705 0.4726391 0.02837498
v -0.7486703 0.4726391 -0.02837498
v -0.7362918 0.499294 -0.02837498
v -0.7362919 0.4992937 0.02837498
v -0.7362919 0.4992937 0.02837498
v -0.7362918 0.499294 -0.02837498
v -0.7096366 0.5116724 -0.02837498
v -0.7096366 0.5116726 0.02837498
v 0.7096366 -0.5116726 -0.02837498
v 0.7096366 -0.5116724 0.02837498
v 0.7362916 -0.499294 0.02837498
v 0.7362918 -0.4992939 -0.02837498
v 0.7362918 -0.4992939 -0.02837498
v 0.7362916 -0.499294 0.02837498
v 0.7486703 -0.4726389 0.02837498
v 0.7486703 -0.4726389 -0.02837498
v -0.7486703 -0.4726389 -0.02837498
v -0.7486703 -0.4726389 0.02837498
v -0.7362918 -0.4992939 0.02837498
v -0.7362916 -0.499294 -0.02837498
v -0.7362916 -0.499294 -0.02837498
v -0.7362918 -0.4992939 0.02837498
v -0.7096366 -0.5116726 0.02837498
v -0.7096366 -0.5116724 -0.02837498
v 0.7096366 0.4726391 0.02837498
v 0.7362918 0.499294 0.02837498
v 0.7486703 0.4726391 0.02837498
v 0.7096366 0.5116724 0.02837498
v 0.7096366 0.4726391 -0.02837498
v 0.7362919 0.4992937 -0.02837498
v 0.7096366 0.5116726 -0.02837498
v 0.7486705 0.4726391 -0.02837498
v -0.7096366 0.4726391 0.02837498
v -0.7362919 0.4992937 0.02837498
v -0.7096366 0.5116726 0.02837498
v -0.7486705 0.4726391 0.02837498
v -0.7096366 0.4726391 -0.02837498
v -0.7362918 0.499294 -0.02837498
v -0.7486703 0.4726391 -0.02837498
v -0.7096366 0.5116724 -0.02837498
v 0.7096366 -0.4726389 -0.02837498
v 0.7362918 -0.4992939 -0.02837498
v 0.7486703 -0.4726389 -0.02837498
v 0.7096366 -0.5116726 -0.02837498
v 0.7096366 -0.4726389 0.02837498
v 0.7362916 -0.499294 0.02837498
v 0.7096366 -0.5116724 0.02837498
v 0.7486703 -0.4726389 0.02837498
v -0.7096366 -0.4726389 -0.02837498
v -0.7362916 -0.499294 -0.02837498
v -0.7096366 -0.5116724 -0.02837498
v -0.7486703 -0.4726389 -0.02837498
v -0.7096366 -0.4726389 0.02837498
v -0.7362918 -0.4992939 0.02837498
v -0.7486703 -0.4726389 0.02837498
v -0.7096366 -0.5116726 0.02837498
v 0.7096366 0.4726391 0.02037498
v 0.7096366 0.4726391 0.02837498
v 0.7486703 0.4726391 0.02837498
v 0.7416366 0.4726391 0.02037498
v 0.7486705 0.4726391 -0.02837498
v 0.7416366 0.4726391 -0.02037498
v 0.7096366 0.4726391 -0.02837498
v 0.7096366 0.4726391 -0.02037498
v 0.7096366 0.5046389 0.02037498
v 0.7096366 0.4726391 0.02837498
v 0.7096366 0.4726391 0.02037498
v 0.7096366 0.5116724 0.02837498
v 0.7096366 0.5046389 -0.02037498
v 0.7096366 0.5116726 -0.02837498
v 0.7096366 0.4726391 -0.02037498
v 0.7096366 0.4726391 -0.02837498
v -0.7096366 0.4726391 0.02037498
v -0.7096366 0.4726391 0.02837498
v -0.7096366 0.5116726 0.02837498
v -0.7096366 0.5046389 0.02037498
v -0.7096366 0.5116724 -0.02837498
v -0.7096366 0.5046389 -0.02037498
v -0.7096366 0.4726391 -0.02837498
v -0.7096366 0.4726391 -0.02037498
v -0.7416366 0.4726391 0.02037498
v -0.7096366 0.4726391 0.02837498
v -0.7096366 0.4726391 0.02037498
v -0.7486705 0.4726391 0.02837498
v -0.7416366 0.4726391 -0.02037498
v -0.7486703 0.4726391 -0.02837498
v -0.7096366 0.4726391 -0.02037498
v -0.7096366 0.4726391 -0.02837498
v 0.7096366 -0.4726389 -0.02037498
v 0.7096366 -0.4726389 -0.02837498
v 0.7486703 -0.4726389 -0.02837498
v 0.7416366 -0.4726389 -0.02037498
v 0.7486703 -0.4726389 0.02837498
v 0.7416366 -0.4726389 0.02037498
v 0.7096366 -0.4726389 0.02837498
v 0.7096366 -0.4726389 0.02037498
v 0.7096366 -0.5046389 -0.02037498
v 0.7096366 -0.4726389 -0.02837498
v 0.7096366 -0.4726389 -0.02037498
v 0.7096366 -0.5116726 -0.02837498
v 0.7096366 -0.5046389 0.02037498
v 0.7096366 -0.5116724 0.02837498
v 0.7096366 -0.4726389 0.02037498
v 0.7096366 -0.4726389 0.02837498
v -0.7096366 -0.4726389 -0.02037498
v -0.7096366 -0.4726389 -0.02837498
v -0.7096366 -0.5116724 -0.02837498
v -0.7096366 -0.5046389 -0.02037498
v -0.7096366 -0.5116726 0.02837498
v -0.7096366 -0.5046389 0.02037498
v -0.7096366 -0.4726389 0.02837498
v -0.7096366 -0.4726389 0.02037498
v -0.7416366 -0.4726389 -0.02037498
v -0.7096366 -0.4726389 -0.02837498
v -0.7096366 -0.4726389 -0.02037498
v -0.7486703 -0.4726389 -0.02837498
v -0.7416366 -0.4726389 0.02037498
v -0.7486703 -0.4726389 0.02837498
v -0.7096366 -0.4726389 0.02037498
v -0.7096366 -0.4726389 0.02837498
vt 0.1331787 0.3774414
vt 0.1322021 0.3774414
vt 0.1322021 0.3774414
vt 0.1331787 0.3774414
vt 0.1331787 0.3779297
vt 0.1323242 0.3781738
vt 0.1323242 0.3781738
vt 0.1331787 0.3779297
vt 0.1323242 0.3781738
vt 0.1322021 0.3774414
vt 0.1322021 0.3774414
vt 0.1323242 0.3781738
vt 0.1331787 0.3779297
vt 0.1331787 0.3774414
vt 0.1331787 0.3774414
vt 0.1331787 0.3779297
vt 0.4013672 0.4943848
vt 0.4003906 0.4943848
vt 0.4003906 0.4936523
vt 0.4013672 0.4936523
vt 0.4003906 0.4943848
vt 0.4013672 0.4943848
vt 0.4013672 0.4936523
vt 0.4003906 0.4936523
vt 0.1331787 0.3779297
vt 0.1331787 0.3779297
vt 0.1331787 0.3774414
vt 0.1331787 0.3774414
vt 0.1331787 0.3774414
vt 0.1331787 0.3774414
vt 0.1322021 0.3774414
vt 0.1322021 0.3774414
vt 0.1322021 0.3774414
vt 0.1322021 0.3774414
vt 0.1323242 0.3781738
vt 0.1323242 0.3781738
vt 0.1323242 0.3781738
vt 0.1323242 0.3781738
vt 0.1331787 0.3779297
vt 0.1331787 0.3779297
vt 0.1323242 0.3781738
vt 0.1323242 0.3781738
vt 0.1322021 0.3774414
vt 0.1322021 0.3774414
vt 0.1322021 0.3774414
vt 0.1322021 0.3774414
vt 0.1331787 0.3774414
vt 0.1331787 0.3774414
vt 0.1331787 0.3774414
vt 0.1331787 0.3774414
vt 0.1331787 0.3779297
vt 0.1331787 0.3779297
vt 0.1331787 0.3779297
vt 0.1331787 0.3779297
vt 0.1323242 0.3781738
vt 0.1323242 0.3781738
vt 0.1322021 0.3774414
vt 0.1331787 0.3774414
vt 0.1331787 0.3774414
vt 0.1322021 0.3774414
vt 0.1322021 0.3774414
vt 0.1323242 0.3781738
vt 0.1323242 0.3781738
vt 0.1322021 0.3774414
vt 0.1331787 0.3774414
vt 0.1331787 0.3779297
vt 0.1331787 0.3779297
vt 0.1331787 0.3774414
vt 0.1331787 0.3774414
vt 0.1322021 0.3774414
vt 0.1322021 0.3774414
vt 0.1331787 0.3774414
vt 0.1323242 0.3781738
vt 0.1331787 0.3779297
vt 0.1331787 0.3779297
vt 0.1323242 0.3781738
vt 0.1323242 0.3781738
vt 0.1322021 0.3774414
vt 0.1322021 0.3774414
vt 0.1323242 0.3781738
vt 0.1331787 0.3779297
vt 0.1331787 0.3774414
vt 0.1331787 0.3774414
vt 0.1331787 0.3779297
vt 0.1331787 0.3779297
vt 0.1323242 0.3781738
vt 0.1323242 0.3781738
vt 0.1331787 0.3779297
vt 0.1334229 0.2976074
vt 0.1334229 0.2976074
vt 0.1334229 0.2976074
vt 0.1334229 0.2976074
vt 0.1334229 0.2976074
vt 0.1334229 0.2976074
vt 0.1334229 0.2976074
vt 0.1334229 0.2976074
vt 0.1343994 0.2976074
vt 0.1343994 0.2976074
vt 0.1343994 0.2976074
vt 0.1343994 0.2976074
vt 0.1343994 0.2976074
vt 0.1343994 0.2976074
vt 0.1343994 0.2976074
vt 0.1343994 0.2976074
vt 0.1334229 0.2983398
vt 0.1334229 0.2983398
vt 0.1334229 0.2983398
vt 0.1334229 0.2983398
vt 0.1334229 0.2983398
vt 0.1334229 0.2983398
vt 0.1334229 0.2983398
vt 0.1334229 0.2983398
vt 0.1343994 0.2983398
vt 0.1343994 0.2983398
vt 0.1343994 0.2983398
vt 0.1343994 0.2983398
vt 0.1343994 0.2983398
vt 0.1343994 0.2983398
vt 0.1342773 0.2983398
vt 0.1343994 0.2983398
vt 0.1334229 0.2976074
vt 0.1334229 0.2976074
vt 0.1334229 0.2976074
vt 0.1334229 0.2976074
vt 0.1334229 0.2976074
vt 0.1334229 0.2976074
vt 0.1334229 0.2976074
vt 0.1334229 0.2976074
vt 0.1343994 0.2976074
vt 0.1343994 0.2976074
vt 0.1343994 0.2976074
vt 0.1343994 0.2976074
vt 0.1343994 0.2976074
vt 0.1343994 0.2976074
vt 0.1343994 0.2976074
vt 0.1343994 0.2976074
vt 0.1334229 0.2983398
vt 0.1334229 0.2983398
vt 0.1334229 0.2983398
vt 0.1334229 0.2983398
vt 0.1334229 0.2983398
vt 0.1334229 0.2983398
vt 0.1334229 0.2983398
vt 0.1334229 0.2983398
vt 0.1343994 0.2983398
vt 0.1343994 0.2983398
vt 0.1343994 0.2983398
vt 0.1343994 0.2983398
vt 0.1342773 0.2983398
vt 0.1343994 0.2983398
vt 0.1343994 0.2983398
vt 0.1342773 0.2983398
vt 0.1334229 0.2976074
vt 0.1334229 0.2976074
vt 0.1334229 0.2976074
vt 0.1334229 0.2976074
vt 0.1334229 0.2976074
vt 0.1334229 0.2976074
vt 0.1334229 0.2976074
vt 0.1334229 0.2976074
vt 0.1334229 0.2976074
vt 0.1334229 0.2976074
vt 0.1334229 0.2976074
vt 0.1334229 0.2976074
vt 0.1334229 0.2976074
vt 0.1334229 0.2976074
vt 0.1334229 0.2976074
vt 0.1334229 0.2976074
vt 0.1343994 0.2976074
vt 0.1343994 0.2976074
vt 0.1343994 0.2976074
vt 0.1343994 0.2976074
vt 0.1343994 0.2976074
vt 0.1343994 0.2976074
vt 0.1343994 0.2976074
vt 0.1343994 0.2976074
vt 0.1343994 0.2976074
vt 0.1343994 0.2976074
vt 0.1343994 0.2976074
vt 0.1343994 0.2976074
vt 0.1343994 0.2976074
vt 0.1343994 0.2976074
vt 0.1343994 0.2976074
vt 0.1343994 0.2976074
vt 0.1334229 0.2983398
vt 0.1334229 0.2983398
vt 0.1334229 0.2983398
vt 0.1334229 0.2983398
vt 0.1334229 0.2983398
vt 0.1334229 0.2983398
vt 0.1334229 0.2983398
vt 0.1334229 0.2983398
vt 0.1334229 0.2983398
vt 0.1334229 0.2983398
vt 0.1334229 0.2983398
vt 0.1334229 0.2983398
vt 0.1334229 0.2983398
vt 0.1334229 0.2983398
vt 0.1334229 0.2983398
vt 0.1334229 0.2983398
vt 0.1343994 0.2983398
vt 0.1343994 0.2983398
vt 0.1343994 0.2983398
vt 0.1343994 0.2983398
vt 0.1342773 0.2983398
vt 0.1343994 0.2983398
vt 0.1342773 0.2983398
vt 0.1343994 0.2983398
vt 0.1343994 0.2983398
vt 0.1343994 0.2983398
vt 0.1343994 0.2983398
vt 0.1343994 0.2983398
vt 0.1343994 0.2983398
vt 0.1343994 0.2983398
vt 0.1343994 0.2983398
vt 0.1342773 0.2983398
vn 0 1 0
vn 0 1 0
vn 0 1 0
vn 0 1 0
vn 0 -1 0
vn 0 -1 0
vn 0 -1 0
vn 0 -1 0
vn 1 0 0
vn 1 0 0
vn 1 0 0
vn 1 0 0
vn -1 0 0
vn -1 0 0
vn -1 0 0
vn -1 0 0
vn 0 0 -1
vn 0 0 -1
vn 0 0 -1
vn 0 0 -1
vn 0 0 1
vn 0 0 1
vn 0 0 1
vn 0 0 1
vn 0.9287109 0 -0.3713379
vn 0.9287109 0 -0.3713379
vn 0.9287109 0 -0.3713379
vn 0.9287109 0 -0.3713379
vn 0 -0.9287109 -0.3713379
vn 0 -0.9287109 -0.3713379
vn 0 -0.9287109 -0.3713379
vn 0 -0.9287109 -0.3713379
vn -0.9287109 0 -0.3713379
vn -0.9287109 0 -0.3713379
vn -0.9287109 0 -0.3713379
vn -0.9287109 0 -0.3713379
vn 0 0.9287109 -0.3713379
vn 0 0.9287109 -0.3713379
vn 0 0.9287109 -0.3713379
vn 0 0.9287109 -0.3713379
vn -0.9287109 0 0.3713379
vn -0.9287109 0 0.3713379
vn -0.9287109 0 0.3713379
vn -0.9287109 0 0.3713379
vn 0 -0.9287109 0.3713379
vn 0 -0.9287109 0.3713379
vn 0 -0.9287109 0.3713379
vn 0 -0.9287109 0.3713379
vn 0.9287109 0 0.3713379
vn 0.9287109 0 0.3713379
vn 0.9287109 0 0.3713379
vn 0.9287109 0 0.3713379
vn 0 0.9287109 0.3713379
vn 0 0.9287109 0.3713379
vn 0 0.9287109 0.3713379
vn 0 0.9287109 0.3713379
vn 0 0 1
vn 0 0 1
vn 0 0 1
vn 0 0 1
vn 0 0 -1
vn 0 0 -1
vn 0 0 -1
vn 0 0 -1
vn 0 0 1
vn 0 0 1
vn 0 0 1
vn 0 0 1
vn 0 0 -1
vn 0 0 -1
vn 0 0 -1
vn 0 0 -1
vn 0 0 -1
vn 0 0 -1
vn 0 0 -1
vn 0 0 -1
vn 0 0 1
vn 0 0 1
vn 0 0 1
vn 0 0 1
vn 0 0 -1
vn 0 0 -1
vn 0 0 -1
vn 0 0 -1
vn 0 0 1
vn 0 0 1
vn 0 0 1
vn 0 0 1
vn 0.4211426 0.9067383 0
vn 0.4211426 0.9067383 0
vn 0.4211426 0.9067383 0
vn 0.4211426 0.9067383 0
vn 0.9067383 0.4211426 0
vn 0.9067383 0.4211426 0
vn 0.9067383 0.4211426 0
vn 0.9067383 0.4211426 0
vn -0.9067383 0.4211426 0
vn -0.9067383 0.4211426 0
vn -0.9067383 0.4211426 0
vn -0.9067383 0.4211426 0
vn -0.4211426 0.9067383 0
vn -0.4211426 0.9067383 0
vn -0.4211426 0.9067383 0
vn -0.4211426 0.9067383 0
vn 0.4211426 -0.9067383 0
vn 0.4211426 -0.9067383 0
vn 0.4211426 -0.9067383 0
vn 0.4211426 -0.9067383 0
vn 0.9067383 -0.4211426 0
vn 0.9067383 -0.4211426 0
vn 0.9067383 -0.4211426 0
vn 0.9067383 -0.4211426 0
vn -0.9067383 -0.4211426 0
vn -0.9067383 -0.4211426 0
vn -0.9067383 -0.4211426 0
vn -0.9067383 -0.4211426 0
vn -0.4211426 -0.9067383 0
vn -0.4211426 -0.9067383 0
vn -0.4211426 -0.9067383 0
vn -0.4211426 -0.9067383 0
vn 0 0 1
vn 0 0 1
vn 0 0 1
vn 0 0 1
vn 0 0 -1
vn 0 0 -1
vn 0 0 -1
vn 0 0 -1
vn 0 0 1
vn 0 0 1
vn 0 0 1
vn 0 0 1
vn 0 0 -1
vn 0 0 -1
vn 0 0 -1
vn 0 0 -1
vn 0 0 -1
vn 0 0 -1
vn 0 0 -1
vn 0 0 -1
vn 0 0 1
vn 0 0 1
vn 0 0 1
vn 0 0 1
vn 0 0 -1
vn 0 0 -1
vn 0 0 -1
vn 0 0 -1
vn 0 0 1
vn 0 0 1
vn 0 0 1
vn 0 0 1
vn 0 -1 0
vn 0 -1 0
vn 0 -1 0
vn 0 -1 0
vn 0 -1 0
vn 0 -1 0
vn 0 -1 0
vn 0 -1 0
vn -1 0 0
vn -1 0 0
vn -1 0 0
vn -1 0 0
vn -1 0 0
vn -1 0 0
vn -1 0 0
vn -1 0 0
vn 1 0 0
vn 1 0 0
vn 1 0 0
vn 1 0 0
vn 1 0 0
vn 1 0 0
vn 1 0 0
vn 1 0 0
vn 0 -1 0
vn 0 -1 0
vn 0 -1 0
vn 0 -1 0
vn 0 -1 0
vn 0 -1 0
vn 0 -1 0
vn 0 -1 0
vn 0 1 0
vn 0 1 0
vn 0 1 0
vn 0 1 0
vn 0 1 0
vn 0 1 0
vn 0 1 0
vn 0 1 0
vn -1 0 0
vn -1 0 0
vn -1 0 0
vn -1 0 0
vn -1 0 0
vn -1 0 0
vn -1 0 0
vn -1 0 0
vn 1 0 0
vn 1 0 0
vn 1 0 0
vn 1 0 0
vn 1 0 0
vn 1 0 0
vn 1 0 0
vn 1 0 0
vn 0 1 0
vn 0 1 0
vn 0 1 0
vn 0 1 0
vn 0 1 0
vn 0 1 0
vn 0 1 0
vn 0 1 0
g SM_Prop_Whiteboard_02_Board_01_0
f 3/3/3 2/2/2 1/1/1
f 4/4/4 3/3/3 1/1/1
f 7/7/7 6/6/6 5/5/5
f 8/8/8 7/7/7 5/5/5
f 11/11/11 10/10/10 9/9/9
f 12/12/12 11/11/11 9/9/9
f 15/15/15 14/14/14 13/13/13
f 16/16/16 15/15/15 13/13/13
f 19/19/19 18/18/18 17/17/17
f 20/20/20 19/19/19 17/17/17
f 23/23/23 22/22/22 21/21/21
f 24/24/24 23/23/23 21/21/21
f 27/27/27 26/26/26 25/25/25
f 28/28/28 27/27/27 25/25/25
f 31/31/31 30/30/30 29/29/29
f 32/32/32 31/31/31 29/29/29
f 35/35/35 34/34/34 33/33/33
f 36/36/36 35/35/35 33/33/33
f 39/39/39 38/38/38 37/37/37
f 40/40/40 39/39/39 37/37/37
f 43/43/43 42/42/42 41/41/41
f 44/44/44 43/43/43 41/41/41
f 47/47/47 46/46/46 45/45/45
f 48/48/48 47/47/47 45/45/45
f 51/51/51 50/50/50 49/49/49
f 52/52/52 51/51/51 49/49/49
f 55/55/55 54/54/54 53/53/53
f 56/56/56 55/55/55 53/53/53
f 59/59/59 58/58/58 57/57/57
f 60/60/60 59/59/59 57/57/57
f 63/63/63 62/62/62 61/61/61
f 64/64/64 63/63/63 61/61/61
f 67/67/67 66/66/66 65/65/65
f 68/68/68 67/67/67 65/65/65
f 71/71/71 70/70/70 69/69/69
f 72/72/72 71/71/71 69/69/69
f 75/75/75 74/74/74 73/73/73
f 76/76/76 75/75/75 73/73/73
f 79/79/79 78/78/78 77/77/77
f 80/80/80 79/79/79 77/77/77
f 83/83/83 82/82/82 81/81/81
f 84/84/84 83/83/83 81/81/81
f 87/87/87 86/86/86 85/85/85
f 88/88/88 87/87/87 85/85/85
f 91/91/91 90/90/90 89/89/89
f 92/92/92 91/91/91 89/89/89
f 95/95/95 94/94/94 93/93/93
f 96/96/96 95/95/95 93/93/93
f 99/99/99 98/98/98 97/97/97
f 100/100/100 99/99/99 97/97/97
f 103/103/103 102/102/102 101/101/101
f 104/104/104 103/103/103 101/101/101
f 107/107/107 106/106/106 105/105/105
f 108/108/108 107/107/107 105/105/105
f 111/111/111 110/110/110 109/109/109
f 112/112/112 111/111/111 109/109/109
f 115/115/115 114/114/114 113/113/113
f 116/116/116 115/115/115 113/113/113
f 119/119/119 118/118/118 117/117/117
f 120/120/120 119/119/119 117/117/117
f 123/123/123 122/122/122 121/121/121
f 122/122/122 124/124/124 121/121/121
f 127/127/127 126/126/126 125/125/125
f 126/126/126 128/128/128 125/125/125
f 131/131/131 130/130/130 129/129/129
f 130/130/130 132/132/132 129/129/129
f 135/135/135 134/134/134 133/133/133
f 134/134/134 136/136/136 133/133/133
f 139/139/139 138/138/138 137/137/137
f 138/138/138 140/140/140 137/137/137
f 143/143/143 142/142/142 141/141/141
f 142/142/142 144/144/144 141/141/141
f 147/147/147 146/146/146 145/145/145
f 146/146/146 148/148/148 145/145/145
f 151/151/151 150/150/150 149/149/149
f 150/150/150 152/152/152 149/149/149
f 155/155/155 154/154/154 153/153/153
f 156/156/156 155/155/155 153/153/153
f 157/157/157 155/155/155 156/156/156
f 158/158/158 157/157/157 156/156/156
f 159/159/159 157/157/157 158/158/158
f 160/160/160 159/159/159 158/158/158
f 163/163/163 162/162/162 161/161/161
f 162/162/162 164/164/164 161/161/161
f 161/161/161 164/164/164 165/165/165
f 164/164/164 166/166/166 165/165/165
f 165/165/165 166/166/166 167/167/167
f 166/166/166 168/168/168 167/167/167
f 171/171/171 170/170/170 169/169/169
f 172/172/172 171/171/171 169/169/169
f 173/173/173 171/171/171 172/172/172
f 174/174/174 173/173/173 172/172/172
f 175/175/175 173/173/173 174/174/174
f 176/176/176 175/175/175 174/174/174
f 179/179/179 178/178/178 177/177/177
f 178/178/178 180/180/180 177/177/177
f 177/177/177 180/180/180 181/181/181
f 180/180/180 182/182/182 181/181/181
f 181/181/181 182/182/182 183/183/183
f 182/182/182 184/184/184 183/183/183
f 187/187/187 186/186/186 185/185/185
f 188/188/188 187/187/187 185/185/185
f 189/189/189 187/187/187 188/188/188
f 190/190/190 189/189/189 188/188/188
f 191/191/191 189/189/189 190/190/190
f 192/192/192 191/191/191 190/190/190
f 195/195/195 194/194/194 193/193/193
f 194/194/194 196/196/196 193/193/193
f 193/193/193 196/196/196 197/197/197
f 196/196/196 198/198/198 197/197/197
f 197/197/197 198/198/198 199/199/199
f 198/198/198 200/200/200 199/199/199
f 203/203/203 202/202/202 201/201/201
f 204/204/204 203/203/203 201/201/201
f 205/205/205 203/203/203 204/204/204
f 206/206/206 205/205/205 204/204/204
f 207/207/207 205/205/205 206/206/206
f 208/208/208 207/207/207 206/206/206
f 211/211/211 210/210/210 209/209/209
f 210/210/210 212/212/212 209/209/209
f 209/209/209 212/212/212 213/213/213
f 212/212/212 214/214/214 213/213/213
f 213/213/213 214/214/214 215/215/215
f 214/214/214 216/216/216 215/215/215
