g SM_Prop_Toilet_Paper_01
v 0.106479 -0.03380071 0.02628907
v -0.106479 -0.03380071 0.02628907
v -0.106479 0.03380071 0.02628907
v 0.106479 0.03380071 0.02628907
v 0.1330988 0.03380071 0
v -0.1330988 0.03380071 0
v -0.1330988 -0.03380071 0
v 0.1330988 -0.03380071 0
v 0.106479 0.01403595 0.147599
v 0.1330988 0.01403595 0.147599
v 0.1330988 -0.01403595 0.147599
v 0.106479 -0.01403595 0.147599
v -0.1330988 -0.01403595 0.147599
v -0.1330988 0.01403595 0.147599
v -0.106479 0.01403595 0.147599
v -0.106479 -0.01403595 0.147599
v 0.106479 0.03380071 0.02628907
v 0.106479 -0.03380071 0.1235866
v 0.106479 -0.03380071 0.02628907
v 0.106479 0.03380071 0.1235866
v 0.106479 -0.01403595 0.147599
v 0.106479 0.01403595 0.147599
v 0.106479 -0.03380071 0.02628907
v 0.106479 -0.03380071 0.1235866
v 0.1330988 -0.03380071 0.1235866
v 0.1330988 -0.03380071 0
v -0.106479 -0.03380071 0.02628907
v -0.1330988 -0.03380071 0
v -0.106479 -0.03380071 0.1235866
v -0.1330988 -0.03380071 0.1235866
v 0.1330988 -0.03380071 0
v 0.1330988 0.03380071 0.1235866
v 0.1330988 0.03380071 0
v 0.1330988 -0.03380071 0.1235866
v 0.1330988 0.01403595 0.147599
v 0.1330988 -0.01403595 0.147599
v 0.1330988 0.03380071 0
v 0.1330988 0.03380071 0.1235866
v 0.106479 0.03380071 0.1235866
v 0.106479 0.03380071 0.02628907
v -0.1330988 0.03380071 0
v -0.106479 0.03380071 0.02628907
v -0.1330988 0.03380071 0.1235866
v -0.106479 0.03380071 0.1235866
v -0.106479 -0.03380071 0.02628907
v -0.106479 0.03380071 0.1235866
v -0.106479 0.03380071 0.02628907
v -0.106479 -0.03380071 0.1235866
v -0.106479 0.01403595 0.147599
v -0.106479 -0.01403595 0.147599
v -0.1330988 0.03380071 0
v -0.1330988 -0.03380071 0.1235866
v -0.1330988 -0.03380071 0
v -0.1330988 0.03380071 0.1235866
v -0.1330988 -0.01403595 0.147599
v -0.1330988 0.01403595 0.147599
v 0.106479 -0.03380071 0.1235866
v 0.106479 -0.01403595 0.147599
v 0.1330988 -0.01403595 0.147599
v 0.1330988 -0.03380071 0.1235866
v 0.1330988 0.03380071 0.1235866
v 0.1330988 0.01403595 0.147599
v 0.106479 0.01403595 0.147599
v 0.106479 0.03380071 0.1235866
v -0.1330988 -0.03380071 0.1235866
v -0.1330988 -0.01403595 0.147599
v -0.106479 -0.01403595 0.147599
v -0.106479 -0.03380071 0.1235866
v -0.106479 0.03380071 0.1235866
v -0.106479 0.01403595 0.147599
v -0.1330988 0.01403595 0.147599
v -0.1330988 0.03380071 0.1235866
v 0.0932297 0.05703987 0.05827294
v -0.09322969 0.05703987 0.05827294
v -0.0932297 0 0.03464625
v 0.0932297 0 0.03464625
v 0.0932297 0 0.03464625
v -0.0932297 0 0.03464625
v -0.0932297 -0.05703987 0.05827294
v 0.09322969 -0.05703987 0.05827294
v 0.09322969 -0.05703987 0.05827294
v -0.0932297 -0.05703987 0.05827294
v -0.0932297 -0.08066656 0.1153128
v 0.09322969 -0.08066656 0.1153128
v 0.09322969 -0.08066656 0.1153128
v -0.0932297 -0.08066656 0.1153128
v -0.0932297 -0.05703987 0.1723527
v 0.09322969 -0.05703987 0.1723527
v 0.0932297 -0.1178966 0.1723527
v -0.0932297 -0.1178966 0.1723527
v -0.0932297 -0.117896 0.1959794
v 0.09322971 -0.117896 0.1959794
v 0.0932297 0 0.1959794
v -0.0932297 0 0.1959794
v -0.0932297 0.05703988 0.1723527
v 0.0932297 0.05703988 0.1723527
v 0.0932297 0.05703988 0.1723527
v -0.0932297 0.05703988 0.1723527
v -0.0932297 0.08066657 0.1153128
v 0.0932297 0.08066657 0.1153128
v 0.0932297 0.08066657 0.1153128
v -0.0932297 0.08066657 0.1153128
v -0.09322969 0.05703987 0.05827294
v 0.0932297 0.05703987 0.05827294
v -0.09322969 0.02164402 0.1153128
v -0.0932297 0.01530464 0.1306175
v -0.0932297 4.768371E-09 0.1369568
v -0.0932297 4.768371E-09 0.1153128
v -0.0932297 0.01530464 0.1000082
v -0.0932297 4.768371E-09 0.0936688
v -0.09322969 -0.01530464 0.1000082
v -0.0932297 -0.02164401 0.1153128
v -0.09322969 -0.01530464 0.1306174
v 0.09322969 -0.05703987 0.1723527
v 0.0932297 -0.1178966 0.1723527
v 0.09322971 -0.117896 0.1959794
v 0.0932297 0 0.1959794
v 0.09322969 -0.02415316 0.139466
v 0.09322969 4.768371E-09 0.1494705
v 0.09322969 -0.03415772 0.1153128
v 0.0932297 0.05703988 0.1723527
v 0.09322969 -0.08066656 0.1153128
v 0.0932297 0.02415317 0.139466
v 0.09322969 -0.02415316 0.09115966
v 0.0932297 0.08066657 0.1153128
v 0.09322969 -0.05703987 0.05827294
v 0.0932297 0.03415773 0.1153128
v 0.09322969 4.768371E-09 0.08115509
v 0.0932297 0.05703987 0.05827294
v 0.0932297 0 0.03464625
v 0.0932297 0.02415317 0.09115966
v 0.0932297 0 0.1959794
v 0.09322971 -0.117896 0.1959794
v -0.0932297 -0.117896 0.1959794
v -0.0932297 0 0.1959794
v -0.0932297 0 0.1959794
v -0.0932297 -0.117896 0.1959794
v -0.0932297 -0.1178966 0.1723527
v -0.0932297 -0.05703987 0.1723527
v -0.0932297 4.768371E-09 0.1494705
v -0.0932297 -0.02415316 0.139466
v -0.0932297 0.02415317 0.139466
v -0.0932297 -0.08066656 0.1153128
v -0.0932297 0.05703988 0.1723527
v -0.0932297 -0.03415772 0.1153128
v -0.09322969 0.03415773 0.1153128
v -0.0932297 -0.05703987 0.05827294
v -0.0932297 0.08066657 0.1153128
v -0.0932297 -0.02415316 0.09115966
v -0.0932297 0.02415317 0.09115966
v -0.0932297 0 0.03464625
v -0.09322969 0.05703987 0.05827294
v -0.0932297 4.768371E-09 0.08115509
v -0.0932297 -0.05703987 0.1723527
v -0.0932297 -0.1178966 0.1723527
v 0.0932297 -0.1178966 0.1723527
v 0.09322969 -0.05703987 0.1723527
v 0.0932297 4.768371E-09 0.0936688
v 0.0932297 -0.01530463 0.1000082
v 0.0932297 -0.02164401 0.1153128
v 0.0932297 4.768371E-09 0.1153128
v 0.0932297 0.01530464 0.1000082
v 0.0932297 0.02164402 0.1153128
v 0.0932297 0.01530464 0.1306175
v 0.0932297 4.768371E-09 0.1369568
v 0.0932297 -0.01530463 0.1306174
v 0.1141846 0.009171075 0.09942805
v -0.1141846 0.009171075 0.09942805
v -0.1141846 -0.009171071 0.09942804
v 0.1141846 -0.009171071 0.09942804
v 0.1141846 -0.009171071 0.09942804
v -0.1141846 -0.009171071 0.09942804
v -0.1141846 -0.01834215 0.1153128
v 0.1141846 -0.01834215 0.1153128
v 0.1141846 -0.01834215 0.1153128
v -0.1141846 -0.01834215 0.1153128
v -0.1141846 -0.009171075 0.1311976
v 0.1141846 -0.009171075 0.1311976
v 0.1141846 -0.009171075 0.1311976
v -0.1141846 -0.009171075 0.1311976
v -0.1141846 0.009171071 0.1311976
v 0.1141846 0.009171071 0.1311976
v 0.1141846 0.009171071 0.1311976
v -0.1141846 0.009171071 0.1311976
v -0.1141846 0.01834215 0.1153128
v 0.1141846 0.01834215 0.1153128
v 0.1141846 0.01834215 0.1153128
v -0.1141846 0.01834215 0.1153128
v -0.1141846 0.009171075 0.09942805
v 0.1141846 0.009171075 0.09942805
v 0.1141846 -0.009171071 0.09942804
v 0.1141846 -0.01834215 0.1153128
v 0.1141846 -0.009171075 0.1311976
v 0.1141846 0.009171071 0.1311976
v 0.1141846 0.009171075 0.09942805
v 0.1141846 0.01834215 0.1153128
v -0.1141846 -0.009171075 0.1311976
v -0.1141846 -0.01834215 0.1153128
v -0.1141846 -0.009171071 0.09942804
v -0.1141846 0.009171071 0.1311976
v -0.1141846 0.009171075 0.09942805
v -0.1141846 0.01834215 0.1153128
v 0.0932297 0.02415317 0.09115966
v 0.0932297 0.01530464 0.1000082
v 0.0932297 0.02164402 0.1153128
v 0.0932297 0.03415773 0.1153128
v 0.09322969 4.768371E-09 0.08115509
v 0.0932297 0.01530464 0.1306175
v 0.0932297 4.768371E-09 0.0936688
v 0.0932297 0.02415317 0.139466
v 0.09322969 -0.02415316 0.09115966
v 0.0932297 4.768371E-09 0.1369568
v 0.0932297 -0.01530463 0.1000082
v 0.09322969 4.768371E-09 0.1494705
v 0.09322969 -0.03415772 0.1153128
v 0.0932297 -0.01530463 0.1306174
v 0.0932297 -0.02164401 0.1153128
v 0.09322969 -0.02415316 0.139466
v -0.0932297 4.768371E-09 0.1494705
v -0.0932297 4.768371E-09 0.1369568
v -0.0932297 0.01530464 0.1306175
v -0.0932297 0.02415317 0.139466
v -0.0932297 -0.02415316 0.139466
v -0.09322969 0.02164402 0.1153128
v -0.09322969 -0.01530464 0.1306174
v -0.09322969 0.03415773 0.1153128
v -0.0932297 -0.03415772 0.1153128
v -0.0932297 0.01530464 0.1000082
v -0.0932297 -0.02164401 0.1153128
v -0.0932297 0.02415317 0.09115966
v -0.0932297 -0.02415316 0.09115966
v -0.0932297 4.768371E-09 0.0936688
v -0.09322969 -0.01530464 0.1000082
v -0.0932297 4.768371E-09 0.08115509
vt 0.1220589 0.3773697
vt 0.1226413 0.377574
vt 0.1226503 0.3774057
vt 0.1220481 0.3772038
vt 0.1220211 0.3771379
vt 0.1227674 0.3773839
vt 0.1227545 0.3775521
vt 0.1220326 0.3773028
vt 0.1218401 0.3774667
vt 0.1217673 0.3774399
vt 0.1217762 0.3775097
vt 0.1218479 0.3775366
vt 0.1225426 0.377797
vt 0.122545 0.3777262
vt 0.1224618 0.3776956
vt 0.1224607 0.3777663
vt 0.1220481 0.3772038
vt 0.1218958 0.3775401
vt 0.1220589 0.3773697
vt 0.1218788 0.3773721
vt 0.1218479 0.3775366
vt 0.1218401 0.3774667
vt 0.1220589 0.3773697
vt 0.1218958 0.3775401
vt 0.1218253 0.3775138
vt 0.1220326 0.3773028
vt 0.1226413 0.377574
vt 0.1227545 0.3775521
vt 0.1224976 0.3777648
vt 0.1225779 0.3777948
vt 0.1220326 0.3773028
vt 0.121806 0.3773461
vt 0.1220211 0.3771379
vt 0.1218253 0.3775138
vt 0.1217673 0.3774399
vt 0.1217762 0.3775097
vt 0.1220211 0.3771379
vt 0.121806 0.3773461
vt 0.1218788 0.3773721
vt 0.1220481 0.3772038
vt 0.1227674 0.3773839
vt 0.1226503 0.3774057
vt 0.122585 0.3776245
vt 0.1225017 0.3775948
vt 0.1226413 0.377574
vt 0.1225017 0.3775948
vt 0.1226503 0.3774057
vt 0.1224976 0.3777648
vt 0.1224618 0.3776956
vt 0.1224607 0.3777663
vt 0.1227674 0.3773839
vt 0.1225779 0.3777948
vt 0.1227545 0.3775521
vt 0.122585 0.3776245
vt 0.1225426 0.377797
vt 0.122545 0.3777262
vt 0.1218958 0.3775401
vt 0.1218479 0.3775366
vt 0.1217762 0.3775097
vt 0.1218253 0.3775138
vt 0.121806 0.3773461
vt 0.1217673 0.3774399
vt 0.1218401 0.3774667
vt 0.1218788 0.3773721
vt 0.1225779 0.3777948
vt 0.1225426 0.377797
vt 0.1224607 0.3777663
vt 0.1224976 0.3777648
vt 0.1225017 0.3775948
vt 0.1224618 0.3776956
vt 0.122545 0.3777262
vt 0.122585 0.3776245
vt 0.1036935 0.3775424
vt 0.1044023 0.3774824
vt 0.1043639 0.3776655
vt 0.1036845 0.3777336
vt 0.1036845 0.3777336
vt 0.1043639 0.3776655
vt 0.1043912 0.3778917
vt 0.1037121 0.3779735
vt 0.1037121 0.3779735
vt 0.1043912 0.3778917
vt 0.1044714 0.3780534
vt 0.1037634 0.3781494
vt 0.1037634 0.3781494
vt 0.1044714 0.3780534
vt 0.1045676 0.3780553
vt 0.103814 0.3781585
vt 0.1038219 0.3783957
vt 0.1045572 0.3782804
vt 0.1045979 0.3783239
vt 0.1038459 0.3784451
vt 0.1038311 0.3779637
vt 0.1046209 0.3778683
vt 0.1045883 0.3776027
vt 0.1037981 0.3776792
vt 0.1037981 0.3776792
vt 0.1045883 0.3776027
vt 0.1044932 0.3774451
vt 0.1037387 0.377507
vt 0.1037387 0.377507
vt 0.1044932 0.3774451
vt 0.1044023 0.3774824
vt 0.1036935 0.3775424
vt 0.00985682 0.008692294
vt 0.009748191 0.00875321
vt 0.009701073 0.008881181
vt 0.009853214 0.008864313
vt 0.009960413 0.008733004
vt 0.009999663 0.008848101
vt 0.009954304 0.008971214
vt 0.009849697 0.009033591
vt 0.009744316 0.008997738
vt 0.103814 0.3781585
vt 0.1038219 0.3783957
vt 0.1038459 0.3784451
vt 0.1038311 0.3779637
vt 0.1037773 0.3779711
vt 0.1037834 0.3778889
vt 0.1037566 0.3779727
vt 0.1037981 0.3776792
vt 0.1037634 0.3781494
vt 0.1037702 0.3777746
vt 0.103734 0.3778985
vt 0.1037387 0.377507
vt 0.1037121 0.3779735
vt 0.1037462 0.377701
vt 0.1037217 0.3777921
vt 0.1036935 0.3775424
vt 0.1036845 0.3777336
vt 0.1037264 0.3777105
vt 0.1038311 0.3779637
vt 0.1038459 0.3784451
vt 0.1045979 0.3783239
vt 0.1046209 0.3778683
vt 0.1046209 0.3778683
vt 0.1045979 0.3783239
vt 0.1045572 0.3782804
vt 0.1045676 0.3780553
vt 0.1045379 0.3778028
vt 0.1045174 0.3778816
vt 0.1045249 0.3776957
vt 0.1044714 0.3780534
vt 0.1045883 0.3776027
vt 0.1044774 0.3778856
vt 0.1044866 0.3776283
vt 0.1043912 0.3778917
vt 0.1044932 0.3774451
vt 0.1044418 0.3778175
vt 0.1044475 0.3776393
vt 0.1043639 0.3776655
vt 0.1044023 0.3774824
vt 0.1044297 0.3777174
vt 0.1045676 0.3780553
vt 0.1045572 0.3782804
vt 0.1038219 0.3783957
vt 0.103814 0.3781585
vt 0.009221733 0.008580625
vt 0.009190857 0.008664787
vt 0.009113789 0.008704931
vt 0.00911212 0.008588135
vt 0.009189069 0.008500218
vt 0.00911057 0.008470058
vt 0.009031415 0.008509517
vt 0.008999586 0.008595884
vt 0.009034455 0.008677036
vt 0.1218474 0.3773119
vt 0.1227674 0.3776409
vt 0.122765 0.3777056
vt 0.1218535 0.3773758
vt 0.1218535 0.3773758
vt 0.122765 0.3777056
vt 0.1227297 0.3777829
vt 0.1218175 0.3774474
vt 0.1218175 0.3774474
vt 0.1227297 0.3777829
vt 0.1226958 0.377797
vt 0.1217744 0.3774565
vt 0.1217744 0.3774565
vt 0.1226958 0.377797
vt 0.1226976 0.3777321
vt 0.1217673 0.3773924
vt 0.1217673 0.3773924
vt 0.1226976 0.3777321
vt 0.1227338 0.3776532
vt 0.1218044 0.3773194
vt 0.1218044 0.3773194
vt 0.1227338 0.3776532
vt 0.1227674 0.3776409
vt 0.1218474 0.3773119
vt 0.1218535 0.3773758
vt 0.1218175 0.3774474
vt 0.1217744 0.3774565
vt 0.1217673 0.3773924
vt 0.1218474 0.3773119
vt 0.1218044 0.3773194
vt 0.1226958 0.377797
vt 0.1227297 0.3777829
vt 0.122765 0.3777056
vt 0.1226976 0.3777321
vt 0.1227674 0.3776409
vt 0.1227338 0.3776532
vt 0.0177325 0.382595
vt 0.0177325 0.382595
vt 0.017627 0.3825403
vt 0.017627 0.3825403
vt 0.01777673 0.3827269
vt 0.01708573 0.3827736
vt 0.01777673 0.3827269
vt 0.01708573 0.3827736
vt 0.0168187 0.382609
vt 0.01703745 0.3826137
vt 0.0168187 0.382609
vt 0.01703745 0.3826137
vt 0.01677674 0.3827572
vt 0.01703852 0.3829279
vt 0.01677674 0.3827572
vt 0.01703852 0.3829279
vt 0.01692736 0.3829818
vt 0.01692736 0.3829818
vt 0.01682049 0.3829094
vt 0.01682049 0.3829094
vt 0.0175243 0.3828422
vt 0.01677674 0.3827572
vt 0.0175243 0.3828422
vt 0.01677674 0.3827572
vt 0.01748359 0.3827156
vt 0.01762563 0.3829011
vt 0.01748359 0.3827156
vt 0.01762563 0.3829011
vt 0.01752496 0.3825918
vt 0.01773119 0.3828549
vt 0.01752496 0.3825918
vt 0.01773119 0.3828549
vn 0 0 1
vn 0 0 1
vn 0 0 1
vn 0 0 1
vn 0 0 -1
vn 0 0 -1
vn 0 0 -1
vn 0 0 -1
vn 0 0 1
vn 0 0 1
vn 0 0 1
vn 0 0 1
vn 0 0 1
vn 0 0 1
vn 0 0 1
vn 0 0 1
vn -1 0 0
vn -1 0 0
vn -1 0 0
vn -1 0 0
vn -1 0 0
vn -1 0 0
vn 0 -1 0
vn 0 -1 0
vn 0 -1 0
vn 0 -1 0
vn 0 -1 0
vn 0 -1 0
vn 0 -1 0
vn 0 -1 0
vn 1 0 0
vn 1 0 0
vn 1 0 0
vn 1 0 0
vn 1 0 0
vn 1 0 0
vn 0 1 0
vn 0 1 0
vn 0 1 0
vn 0 1 0
vn 0 1 0
vn 0 1 0
vn 0 1 0
vn 0 1 0
vn 1 0 0
vn 1 0 0
vn 1 0 0
vn 1 0 0
vn 1 0 0
vn 1 0 0
vn -1 0 0
vn -1 0 0
vn -1 0 0
vn -1 0 0
vn -1 0 0
vn -1 0 0
vn 0 -0.7720906 0.6355124
vn 0 -0.7720906 0.6355124
vn 0 -0.7720906 0.6355124
vn 0 -0.7720906 0.6355124
vn 0 0.7720907 0.6355124
vn 0 0.7720907 0.6355124
vn 0 0.7720907 0.6355124
vn 0 0.7720907 0.6355124
vn 0 -0.7720906 0.6355124
vn 0 -0.7720906 0.6355124
vn 0 -0.7720906 0.6355124
vn 0 -0.7720906 0.6355124
vn 0 0.7720907 0.6355124
vn 0 0.7720907 0.6355124
vn 0 0.7720907 0.6355124
vn 0 0.7720907 0.6355124
vn 0 0.3826835 -0.9238795
vn 0 0.3826834 -0.9238795
vn 0 0.3826834 -0.9238795
vn 0 0.3826835 -0.9238795
vn 0 -0.3826834 -0.9238795
vn 0 -0.3826835 -0.9238795
vn 0 -0.3826835 -0.9238795
vn 0 -0.3826834 -0.9238795
vn 0 -0.9238795 -0.3826834
vn 0 -0.9238795 -0.3826834
vn 0 -0.9238795 -0.3826834
vn 0 -0.9238795 -0.3826834
vn 0 -0.9238794 0.3826835
vn 0 -0.9238794 0.3826835
vn 0 -0.9238794 0.3826835
vn 0 -0.9238794 0.3826835
vn 0 -1 2.341126E-05
vn 0 -1 2.341127E-05
vn 0 -1 2.341127E-05
vn 0 -1 2.341127E-05
vn 0 0.3826834 0.9238795
vn 0 0.3826834 0.9238795
vn 0 0.3826834 0.9238795
vn 0 0.3826834 0.9238795
vn 0 0.9238795 0.3826834
vn 0 0.9238795 0.3826834
vn 0 0.9238795 0.3826834
vn 0 0.9238795 0.3826834
vn 0 0.9238794 -0.3826836
vn 0 0.9238794 -0.3826835
vn 0 0.9238794 -0.3826836
vn 0 0.9238794 -0.3826836
vn -1 0 0
vn -1 0 0
vn -1 0 0
vn -1 0 0
vn -1 0 0
vn -1 0 0
vn -1 0 0
vn -1 0 0
vn -1 0 0
vn 1 0 0
vn 1 0 0
vn 1 0 0
vn 1 0 0
vn 1 0 0
vn 1 0 0
vn 1 0 0
vn 1 0 0
vn 1 0 0
vn 1 0 0
vn 1 0 0
vn 1 0 0
vn 1 0 0
vn 1 0 0
vn 1 0 0
vn 1 0 0
vn 1 0 0
vn 1 0 0
vn 0 0 1
vn 0 0 1
vn 0 0 1
vn 0 0 1
vn -1 0 0
vn -1 0 0
vn -1 0 0
vn -1 0 0
vn -1 0 0
vn -1 0 0
vn -1 0 0
vn -1 0 0
vn -1 0 0
vn -1 0 0
vn -1 0 0
vn -1 0 0
vn -1 0 0
vn -1 0 0
vn -1 0 0
vn -1 0 0
vn -1 0 0
vn -1 0 0
vn 0 0 -1
vn 0 0 -1
vn 0 0 -1
vn 0 0 -1
vn 1 0 0
vn 1 0 0
vn 1 0 0
vn 1 0 0
vn 1 0 0
vn 1 0 0
vn 1 0 0
vn 1 0 0
vn 1 0 0
vn 0 0 -1
vn 0 0 -1
vn 0 0 -1
vn 0 0 -1
vn 0 -0.8660254 -0.4999999
vn 0 -0.8660255 -0.4999999
vn 0 -0.8660255 -0.4999999
vn 0 -0.8660255 -0.4999999
vn 0 -0.8660254 0.5
vn 0 -0.8660254 0.5
vn 0 -0.8660254 0.5
vn 0 -0.8660254 0.5
vn 0 0 1
vn 0 0 1
vn 0 0 1
vn 0 0 1
vn 0 0.8660253 0.5000002
vn 0 0.8660253 0.5000002
vn 0 0.8660253 0.5000002
vn 0 0.8660253 0.5000002
vn 0 0.8660254 -0.5
vn 0 0.8660254 -0.5
vn 0 0.8660254 -0.5
vn 0 0.8660254 -0.5
vn 1 0 0
vn 1 0 0
vn 1 0 0
vn 1 0 0
vn 1 0 0
vn 1 0 0
vn -1 0 0
vn -1 0 0
vn -1 0 0
vn -1 0 0
vn -1 0 0
vn -1 0 0
vn 1 0 0
vn 1 0 0
vn 1 0 0
vn 1 0 0
vn 1 0 0
vn 1 0 0
vn 1 0 0
vn 1 0 0
vn 1 0 0
vn 1 0 0
vn 1 0 0
vn 1 0 0
vn 1 0 0
vn 1 0 0
vn 1 0 0
vn 1 0 0
vn -1 0 0
vn -1 0 0
vn -1 0 0
vn -1 0 0
vn -1 0 0
vn -1 0 0
vn -1 0 0
vn -1 0 0
vn -1 0 0
vn -1 0 0
vn -1 0 0
vn -1 0 0
vn -1 0 0
vn -1 0 0
vn -1 0 0
vn -1 0 0
g SM_Prop_Toilet_Paper_01_0
f 3/3/3 2/2/2 1/1/1
f 4/4/4 3/3/3 1/1/1
f 7/7/7 6/6/6 5/5/5
f 8/8/8 7/7/7 5/5/5
f 11/11/11 10/10/10 9/9/9
f 12/12/12 11/11/11 9/9/9
f 15/15/15 14/14/14 13/13/13
f 16/16/16 15/15/15 13/13/13
f 19/19/19 18/18/18 17/17/17
f 18/18/18 20/20/20 17/17/17
f 18/18/18 21/21/21 20/20/20
f 21/21/21 22/22/22 20/20/20
f 25/25/25 24/24/24 23/23/23
f 26/26/26 25/25/25 23/23/23
f 23/23/23 27/27/27 26/26/26
f 27/27/27 28/28/28 26/26/26
f 27/27/27 29/29/29 28/28/28
f 29/29/29 30/30/30 28/28/28
f 33/33/33 32/32/32 31/31/31
f 32/32/32 34/34/34 31/31/31
f 32/32/32 35/35/35 34/34/34
f 35/35/35 36/36/36 34/34/34
f 39/39/39 38/38/38 37/37/37
f 40/40/40 39/39/39 37/37/37
f 37/37/37 41/41/41 40/40/40
f 41/41/41 42/42/42 40/40/40
f 41/41/41 43/43/43 42/42/42
f 43/43/43 44/44/44 42/42/42
f 47/47/47 46/46/46 45/45/45
f 46/46/46 48/48/48 45/45/45
f 46/46/46 49/49/49 48/48/48
f 49/49/49 50/50/50 48/48/48
f 53/53/53 52/52/52 51/51/51
f 52/52/52 54/54/54 51/51/51
f 52/52/52 55/55/55 54/54/54
f 55/55/55 56/56/56 54/54/54
f 59/59/59 58/58/58 57/57/57
f 60/60/60 59/59/59 57/57/57
f 63/63/63 62/62/62 61/61/61
f 64/64/64 63/63/63 61/61/61
f 67/67/67 66/66/66 65/65/65
f 68/68/68 67/67/67 65/65/65
f 71/71/71 70/70/70 69/69/69
f 72/72/72 71/71/71 69/69/69
f 75/75/75 74/74/74 73/73/73
f 76/76/76 75/75/75 73/73/73
f 79/79/79 78/78/78 77/77/77
f 80/80/80 79/79/79 77/77/77
f 83/83/83 82/82/82 81/81/81
f 84/84/84 83/83/83 81/81/81
f 87/87/87 86/86/86 85/85/85
f 88/88/88 87/87/87 85/85/85
f 91/91/91 90/90/90 89/89/89
f 92/92/92 91/91/91 89/89/89
f 95/95/95 94/94/94 93/93/93
f 96/96/96 95/95/95 93/93/93
f 99/99/99 98/98/98 97/97/97
f 100/100/100 99/99/99 97/97/97
f 103/103/103 102/102/102 101/101/101
f 104/104/104 103/103/103 101/101/101
f 107/107/107 106/106/106 105/105/105
f 108/108/108 107/107/107 105/105/105
f 108/108/108 105/105/105 109/109/109
f 110/110/110 108/108/108 109/109/109
f 110/110/110 111/111/111 108/108/108
f 111/111/111 112/112/112 108/108/108
f 108/108/108 112/112/112 107/107/107
f 112/112/112 113/113/113 107/107/107
f 116/116/116 115/115/115 114/114/114
f 117/117/117 116/116/116 114/114/114
f 114/114/114 118/118/118 117/117/117
f 118/118/118 119/119/119 117/117/117
f 120/120/120 118/118/118 114/114/114
f 117/117/117 119/119/119 121/121/121
f 122/122/122 120/120/120 114/114/114
f 119/119/119 123/123/123 121/121/121
f 124/124/124 120/120/120 122/122/122
f 121/121/121 123/123/123 125/125/125
f 126/126/126 124/124/124 122/122/122
f 123/123/123 127/127/127 125/125/125
f 128/128/128 124/124/124 126/126/126
f 125/125/125 127/127/127 129/129/129
f 130/130/130 128/128/128 126/126/126
f 127/127/127 131/131/131 129/129/129
f 131/131/131 128/128/128 130/130/130
f 129/129/129 131/131/131 130/130/130
f 134/134/134 133/133/133 132/132/132
f 135/135/135 134/134/134 132/132/132
f 138/138/138 137/137/137 136/136/136
f 139/139/139 138/138/138 136/136/136
f 136/136/136 140/140/140 139/139/139
f 140/140/140 141/141/141 139/139/139
f 142/142/142 140/140/140 136/136/136
f 139/139/139 141/141/141 143/143/143
f 144/144/144 142/142/142 136/136/136
f 141/141/141 145/145/145 143/143/143
f 146/146/146 142/142/142 144/144/144
f 143/143/143 145/145/145 147/147/147
f 148/148/148 146/146/146 144/144/144
f 145/145/145 149/149/149 147/147/147
f 150/150/150 146/146/146 148/148/148
f 147/147/147 149/149/149 151/151/151
f 152/152/152 150/150/150 148/148/148
f 149/149/149 153/153/153 151/151/151
f 153/153/153 150/150/150 152/152/152
f 151/151/151 153/153/153 152/152/152
f 156/156/156 155/155/155 154/154/154
f 157/157/157 156/156/156 154/154/154
f 160/160/160 159/159/159 158/158/158
f 161/161/161 160/160/160 158/158/158
f 161/161/161 158/158/158 162/162/162
f 163/163/163 161/161/161 162/162/162
f 163/163/163 164/164/164 161/161/161
f 164/164/164 165/165/165 161/161/161
f 161/161/161 165/165/165 160/160/160
f 165/165/165 166/166/166 160/160/160
f 169/169/169 168/168/168 167/167/167
f 170/170/170 169/169/169 167/167/167
f 173/173/173 172/172/172 171/171/171
f 174/174/174 173/173/173 171/171/171
f 177/177/177 176/176/176 175/175/175
f 178/178/178 177/177/177 175/175/175
f 181/181/181 180/180/180 179/179/179
f 182/182/182 181/181/181 179/179/179
f 185/185/185 184/184/184 183/183/183
f 186/186/186 185/185/185 183/183/183
f 189/189/189 188/188/188 187/187/187
f 190/190/190 189/189/189 187/187/187
f 193/193/193 192/192/192 191/191/191
f 191/191/191 194/194/194 193/193/193
f 191/191/191 195/195/195 194/194/194
f 195/195/195 196/196/196 194/194/194
f 199/199/199 198/198/198 197/197/197
f 197/197/197 200/200/200 199/199/199
f 200/200/200 201/201/201 199/199/199
f 200/200/200 202/202/202 201/201/201
f 205/205/205 204/204/204 203/203/203
f 206/206/206 205/205/205 203/203/203
f 203/203/203 204/204/204 207/207/207
f 208/208/208 205/205/205 206/206/206
f 204/204/204 209/209/209 207/207/207
f 210/210/210 208/208/208 206/206/206
f 207/207/207 209/209/209 211/211/211
f 212/212/212 208/208/208 210/210/210
f 209/209/209 213/213/213 211/211/211
f 214/214/214 212/212/212 210/210/210
f 211/211/211 213/213/213 215/215/215
f 216/216/216 212/212/212 214/214/214
f 213/213/213 217/217/217 215/215/215
f 218/218/218 216/216/216 214/214/214
f 215/215/215 217/217/217 218/218/218
f 217/217/217 216/216/216 218/218/218
f 221/221/221 220/220/220 219/219/219
f 222/222/222 221/221/221 219/219/219
f 219/219/219 220/220/220 223/223/223
f 224/224/224 221/221/221 222/222/222
f 220/220/220 225/225/225 223/223/223
f 226/226/226 224/224/224 222/222/222
f 223/223/223 225/225/225 227/227/227
f 228/228/228 224/224/224 226/226/226
f 225/225/225 229/229/229 227/227/227
f 230/230/230 228/228/228 226/226/226
f 227/227/227 229/229/229 231/231/231
f 232/232/232 228/228/228 230/230/230
f 229/229/229 233/233/233 231/231/231
f 234/234/234 232/232/232 230/230/230
f 231/231/231 233/233/233 234/234/234
f 233/233/233 232/232/232 234/234/234
