g SM_Prop_CardboardBox_02
v -0.2446155 0.005316681 -0.243241
v -0.25 0.05637027 -0.2499988
v -0.25 0 -0.1933972
v -0.1809705 0 -0.2499988
v -0.2446155 0.005316681 -0.243241
v -0.25 0 -0.1933972
v -0.2446155 0.005316681 -0.243241
v -0.1809705 0 -0.2499988
v -0.25 0.05637027 -0.2499988
v -0.2373401 0.445433 0.2397424
v -0.2156787 0.4218063 0.2500012
v -0.25 0.3632392 0.2500012
v -0.25 0.4650809 0.1051208
v -0.2373401 0.445433 0.2397424
v -0.25 0.3632392 0.2500012
v 0.2440662 0.4539516 -0.2427722
v 0.1977789 0.4650809 -0.2499988
v 0.25 0.4239292 -0.2499988
v 0.2440662 0.4539516 -0.2427722
v 0.25 0.4239292 -0.2499988
v 0.25 0.4650809 -0.1807458
v -0.2291449 0.05195045 0.1004041
v 0.1805237 0.05209664 -0.2326038
v 0.2227728 0.04761445 -0.2260071
v -0.2291449 0.05195045 0.1004041
v -0.2281891 0.05209664 -0.2326038
v 0.1805237 0.05209664 -0.2326038
v -0.1604962 0.04450317 0.2284289
v -0.2175415 0.04403394 0.2237927
v 0.07027893 0.05195045 0.233197
v 0.2281891 0.05209664 -0.1693933
v 0.2291449 0.05195045 0.233197
v -0.2291449 0.05195045 0.1004041
v 0.2227728 0.04761445 -0.2260071
v 0.25 0 0.04918335
v 0.25 0 -0.04918335
v -0.25 0 -0.04918335
v -0.25 0 0.04918335
v 0.25 0 0.04918335
v 0.25 0 0.2500012
v 0.25 0.4650809 0.2500012
v 0.25 0.1116194 0.04918579
v 0.25 0.4239292 -0.2499988
v 0.25 0.4650809 -0.1807458
v 0.25 0.1116194 -0.04918335
v 0.25 0 -0.04918335
v 0.25 0 -0.2499988
v -0.25 0 0.04918335
v -0.25 0 0.2500012
v 0.25 0 0.2500012
v 0.25 0 0.04918335
v 0.25 0.1116194 -0.04918335
v 0.25 0 -0.04918335
v 0.25 0 0.04918335
v 0.25 0.1116194 0.04918579
v -0.25 0.4650809 -0.2499988
v -0.25 0.4650809 0.1051208
v -0.25 0.3632392 0.2500012
v -0.25 0.07441295 -0.04918335
v -0.25 0.05637027 -0.2499988
v -0.25 0 -0.1933972
v -0.25 0 -0.04918335
v -0.25 0.07441295 0.04918579
v -0.25 0 0.04918335
v -0.25 0 0.2500012
v -0.25 0 0.04918335
v -0.25 0 -0.04918335
v -0.25 0.07441295 -0.04918335
v -0.25 0.07441295 0.04918579
v -0.1407239 0.4252608 0.2500012
v 0.0766748 0.4650809 0.2500012
v 0.25 0.4650809 0.2500012
v 0.25 0 0.2500012
v -0.25 0 0.2500012
v -0.2156787 0.4218063 0.2500012
v -0.25 0.3632392 0.2500012
v -0.1407239 0.4252608 0.2500012
v -0.1751031 0.4535661 0.2447986
v 0.0766748 0.4650809 0.2500012
v -0.2373401 0.445433 0.2397424
v -0.2156787 0.4218063 0.2500012
v 0.25 0 -0.04918335
v 0.25 0 -0.2499988
v -0.1809705 0 -0.2499988
v -0.25 0 -0.1933972
v -0.25 0 -0.04918335
v -0.1809705 0 -0.2499988
v -0.25 0.4650809 -0.2499988
v -0.25 0.05637027 -0.2499988
v 0.1977789 0.4650809 -0.2499988
v 0.25 0.4239292 -0.2499988
v 0.25 0 -0.2499988
v -0.1751031 0.4535661 0.2447986
v -0.1604962 0.4538838 0.2284289
v 0.07027893 0.4647206 0.233197
v 0.0766748 0.4650809 0.2500012
v 0.2291449 0.4647206 0.233197
v 0.25 0.4650809 0.2500012
v 0.2281891 0.4648668 -0.1693933
v 0.25 0.4650809 -0.1807458
v -0.2373401 0.445433 0.2397424
v -0.2175415 0.4457932 0.2237927
v -0.1604962 0.4538838 0.2284289
v -0.1751031 0.4535661 0.2447986
v -0.25 0.4650809 0.1051208
v -0.2291449 0.4647206 0.1004041
v -0.2175415 0.4457932 0.2237927
v -0.2373401 0.445433 0.2397424
v 0.1977789 0.4650809 -0.2499988
v 0.1805237 0.4648668 -0.2326038
v -0.2281891 0.4648668 -0.2326038
v -0.25 0.4650809 -0.2499988
v -0.2291449 0.4647206 0.1004041
v -0.25 0.4650809 0.1051208
v 0.25 0.4650809 -0.1807458
v 0.2281891 0.4648668 -0.1693933
v 0.2227728 0.4541659 -0.2260071
v 0.2440662 0.4539516 -0.2427722
v 0.2440662 0.4539516 -0.2427722
v 0.2227728 0.4541659 -0.2260071
v 0.1805237 0.4648668 -0.2326038
v 0.1977789 0.4650809 -0.2499988
v -0.2175415 0.4457932 0.2237927
v -0.2175415 0.04403394 0.2237927
v -0.1604962 0.04450317 0.2284289
v -0.1604962 0.4538838 0.2284289
v 0.07027893 0.05195045 0.233197
v 0.07027893 0.4647206 0.233197
v 0.2291449 0.05195045 0.233197
v 0.2291449 0.4647206 0.233197
v -0.2291449 0.4647206 0.1004041
v -0.2175415 0.04403394 0.2237927
v -0.2175415 0.4457932 0.2237927
v -0.2291449 0.05195045 0.1004041
v -0.2281891 0.4648668 -0.2326038
v -0.2281891 0.05209664 -0.2326038
v 0.2291449 0.4647206 0.233197
v 0.2291449 0.05195045 0.233197
v 0.2281891 0.05209664 -0.1693933
v 0.2281891 0.4648668 -0.1693933
v 0.2227728 0.04761445 -0.2260071
v 0.2227728 0.4541659 -0.2260071
v 0.1805237 0.4648668 -0.2326038
v 0.1805237 0.05209664 -0.2326038
v -0.2281891 0.05209664 -0.2326038
v -0.2281891 0.4648668 -0.2326038
v 0.2227728 0.4541659 -0.2260071
v 0.2227728 0.04761445 -0.2260071
v 0.1805237 0.05209664 -0.2326038
v 0.1805237 0.4648668 -0.2326038
vt 0.05078125 0.3305664
vt 0.05078125 0.3305664
vt 0.05078125 0.3305664
vt 0.05078125 0.3305664
vt 0.05078125 0.3305664
vt 0.05078125 0.3305664
vt 0.05078125 0.3305664
vt 0.05078125 0.3305664
vt 0.05078125 0.3305664
vt 0.05078125 0.3305664
vt 0.05078125 0.3305664
vt 0.05078125 0.3305664
vt 0.05078125 0.3305664
vt 0.05078125 0.3305664
vt 0.05078125 0.3305664
vt 0.05078125 0.3305664
vt 0.05078125 0.3305664
vt 0.05078125 0.3305664
vt 0.05078125 0.3305664
vt 0.05078125 0.3305664
vt 0.05078125 0.3305664
vt 0.04833984 0.3283691
vt 0.04833984 0.3283691
vt 0.04833984 0.3283691
vt 0.04833984 0.3283691
vt 0.04833984 0.3283691
vt 0.04833984 0.3283691
vt 0.04833984 0.3283691
vt 0.04833984 0.3283691
vt 0.04833984 0.3283691
vt 0.04833984 0.3283691
vt 0.04833984 0.3283691
vt 0.04833984 0.3283691
vt 0.04833984 0.3283691
vt 0.04956055 0.3791504
vt 0.04956055 0.3791504
vt 0.04956055 0.3791504
vt 0.04956055 0.3791504
vt 0.05078125 0.3305664
vt 0.05078125 0.3305664
vt 0.05078125 0.3305664
vt 0.05078125 0.3305664
vt 0.05078125 0.3305664
vt 0.05078125 0.3305664
vt 0.05078125 0.3305664
vt 0.05078125 0.3305664
vt 0.05078125 0.3305664
vt 0.05078125 0.3305664
vt 0.05078125 0.3305664
vt 0.05078125 0.3305664
vt 0.05078125 0.3305664
vt 0.04956055 0.3791504
vt 0.04956055 0.3791504
vt 0.04956055 0.3791504
vt 0.04956055 0.3791504
vt 0.05078125 0.3305664
vt 0.05078125 0.3305664
vt 0.05078125 0.3305664
vt 0.05078125 0.3305664
vt 0.05078125 0.3305664
vt 0.05078125 0.3305664
vt 0.05078125 0.3305664
vt 0.05078125 0.3305664
vt 0.05078125 0.3305664
vt 0.05078125 0.3305664
vt 0.04956055 0.3791504
vt 0.04956055 0.3791504
vt 0.04956055 0.3791504
vt 0.04956055 0.3791504
vt 0.05078125 0.3305664
vt 0.05078125 0.3305664
vt 0.05078125 0.3305664
vt 0.05078125 0.3305664
vt 0.05078125 0.3305664
vt 0.05078125 0.3305664
vt 0.05078125 0.3305664
vt 0.05078125 0.3305664
vt 0.05078125 0.3305664
vt 0.05078125 0.3305664
vt 0.05078125 0.3305664
vt 0.05078125 0.3305664
vt 0.05078125 0.3305664
vt 0.05078125 0.3305664
vt 0.05078125 0.3305664
vt 0.05078125 0.3305664
vt 0.05078125 0.3305664
vt 0.05078125 0.3305664
vt 0.05078125 0.3305664
vt 0.05078125 0.3305664
vt 0.05078125 0.3305664
vt 0.05078125 0.3305664
vt 0.05078125 0.3305664
vt 0.05078125 0.3305664
vt 0.05078125 0.3305664
vt 0.05078125 0.3305664
vt 0.05078125 0.3305664
vt 0.05078125 0.3305664
vt 0.05078125 0.3305664
vt 0.05078125 0.3305664
vt 0.05078125 0.3305664
vt 0.05078125 0.3305664
vt 0.05078125 0.3305664
vt 0.05078125 0.3305664
vt 0.05078125 0.3305664
vt 0.05078125 0.3305664
vt 0.05078125 0.3305664
vt 0.05078125 0.3305664
vt 0.05078125 0.3305664
vt 0.05078125 0.3305664
vt 0.05078125 0.3305664
vt 0.05078125 0.3305664
vt 0.05078125 0.3305664
vt 0.05078125 0.3305664
vt 0.05078125 0.3305664
vt 0.05078125 0.3305664
vt 0.05078125 0.3305664
vt 0.05078125 0.3305664
vt 0.05078125 0.3305664
vt 0.05078125 0.3305664
vt 0.05078125 0.3305664
vt 0.05078125 0.3305664
vt 0.05078125 0.3305664
vt 0.04833984 0.3283691
vt 0.04833984 0.3283691
vt 0.04833984 0.3283691
vt 0.04833984 0.3283691
vt 0.04833984 0.3283691
vt 0.04833984 0.3283691
vt 0.04833984 0.3283691
vt 0.04833984 0.3283691
vt 0.04833984 0.3283691
vt 0.04833984 0.3283691
vt 0.04833984 0.3283691
vt 0.04833984 0.3283691
vt 0.04833984 0.3283691
vt 0.04833984 0.3283691
vt 0.04833984 0.3283691
vt 0.04833984 0.3283691
vt 0.04833984 0.3283691
vt 0.04833984 0.3283691
vt 0.04833984 0.3283691
vt 0.04833984 0.3283691
vt 0.04833984 0.3283691
vt 0.04833984 0.3283691
vt 0.04833984 0.3283691
vt 0.04833984 0.3283691
vt 0.04833984 0.3283691
vt 0.04833984 0.3283691
vt 0.04833984 0.3283691
vt 0.04833984 0.3283691
vn -0.9858398 -0.119751 -0.1192627
vn -0.9858398 -0.119751 -0.1192627
vn -0.9858398 -0.119751 -0.1192627
vn -0.09490967 -0.9887695 -0.1157227
vn -0.09490967 -0.9887695 -0.1157227
vn -0.09490967 -0.9887695 -0.1157227
vn -0.116272 -0.142334 -0.9829102
vn -0.116272 -0.142334 -0.9829102
vn -0.116272 -0.142334 -0.9829102
vn -0.2739258 0.1605225 0.9482422
vn -0.2739258 0.1605225 0.9482422
vn -0.2739258 0.1605225 0.9482422
vn -0.9794922 0.1654053 0.1162109
vn -0.9794922 0.1654053 0.1162109
vn -0.9794922 0.1654053 0.1162109
vn 0.2111816 0.2680664 -0.9399414
vn 0.2111816 0.2680664 -0.9399414
vn 0.2111816 0.2680664 -0.9399414
vn 0.9658203 0.2227783 -0.1323242
vn 0.9658203 0.2227783 -0.1323242
vn 0.9658203 0.2227783 -0.1323242
vn 0.08807373 0.9902344 0.1087646
vn 0.08807373 0.9902344 0.1087646
vn 0.08807373 0.9902344 0.1087646
vn -0.01185608 0.9995117 0.03555298
vn 0 1 0.0004389286
vn 0 1 0.0004389286
vn -0.02362061 0.9970703 0.07067871
vn -0.01351166 0.9975586 0.06530762
vn -0.01129913 0.9995117 0.02558899
vn -0.01483917 0.9995117 -0.02467346
vn 0 1 0.0003631115
vn -0.01483917 0.9995117 -0.02464294
vn -0.04434204 0.9960938 -0.074646
vn 0 -1 0
vn 0 -1 0
vn 0 -1 0
vn 0 -1 0
vn 1 0 0
vn 1 0 0
vn 1 0 0
vn 1 0 0
vn 1 0 0
vn 1 0 0
vn 1 0 0
vn 1 0 0
vn 1 0 0
vn 0 -1 0
vn 0 -1 0
vn 0 -1 0
vn 0 -1 0
vn 1 0 0
vn 1 0 0
vn 1 0 0
vn 1 0 0
vn -1 0 0
vn -1 0 0
vn -1 0 0
vn -1 0 0
vn -1 0 0
vn -1 0 0
vn -1 0 0
vn -1 0 0
vn -1 0 0
vn -1 0 0
vn -1 0 0
vn -1 0 0
vn -1 0 0
vn -1 0 0
vn 0 0 1
vn 0 0 1
vn 0 0 1
vn 0 0 1
vn 0 0 1
vn 0 0 1
vn 0 0 1
vn -0.04125977 0.1893311 0.980957
vn -0.04125977 0.1893311 0.980957
vn -0.02722168 0.1486816 0.9882813
vn -0.0552063 0.2297363 0.9716797
vn -0.0552063 0.2297363 0.9716797
vn 0 -1 0
vn 0 -1 0
vn 0 -1 0
vn 0 -1 0
vn 0 -1 0
vn 0 0 -1
vn 0 0 -1
vn 0 0 -1
vn 0 0 -1
vn 0 0 -1
vn 0 0 -1
vn -0.04598999 0.9990234 -0.01267242
vn -0.04598999 0.9990234 -0.01267242
vn -0.02301025 0.9995117 -0.01705933
vn -0.02301025 0.9995117 -0.01705933
vn -0.006744385 1 -0.01062775
vn -0.006744385 1 -0.01062775
vn -0.01348877 1 0.0001909733
vn -0.01348877 1 0.0001909733
vn -0.124939 0.9858398 -0.1123657
vn -0.124939 0.9858398 -0.1123657
vn -0.124939 0.9858398 -0.1123657
vn -0.124939 0.9858398 -0.1123657
vn 0.07165527 0.9873047 0.1408691
vn 0.07165527 0.9873047 0.1408691
vn 0.07165527 0.9873047 0.1408691
vn 0.07165527 0.9873047 0.1408691
vn 0 1 0.01231384
vn 0 1 0.01231384
vn 0.006698608 1 0.006271362
vn 0.006698608 1 0.006271362
vn 0.01339722 1 0.0002310276
vn 0.01339722 1 0.0002310276
vn -0.1106567 0.9794922 -0.1695557
vn -0.1106567 0.9794922 -0.1695557
vn -0.1106567 0.9794922 -0.1695557
vn -0.1106567 0.9794922 -0.1695557
vn 0.1998291 0.9536133 0.2255859
vn 0.1998291 0.9536133 0.2255859
vn 0.1998291 0.9536133 0.2255859
vn 0.1998291 0.9536133 0.2255859
vn 0.08099365 0 -0.996582
vn 0.08099365 0 -0.996582
vn 0.05084229 0 -0.9985352
vn 0.05084229 0 -0.9985352
vn 0.0103302 0 -1
vn 0.0103302 0 -1
vn 0 0 -1
vn 0 0 -1
vn 0.9990234 0 -0.04544067
vn 0.9956055 0 -0.09362793
vn 0.9956055 0 -0.09362793
vn 0.9990234 0 -0.04544067
vn 1 0 0.00287056
vn 1 0 0.00287056
vn -1 0 0.002374649
vn -1 0 0.002374649
vn -0.9990234 0 0.04885864
vn -0.9990234 0 0.04885864
vn -0.9956055 0 0.09521484
vn -0.9956055 0 0.09521484
vn 0 0 1
vn 0 0 1
vn 0 0 1
vn 0 0 1
vn -0.1542969 0 0.987793
vn -0.1542969 0 0.987793
vn -0.1542969 0 0.987793
vn -0.1542969 0 0.987793
g SM_Prop_CardboardBox_02_0
f 3/3/3 2/2/2 1/1/1
f 6/6/6 5/5/5 4/4/4
f 9/9/9 8/8/8 7/7/7
f 12/12/12 11/11/11 10/10/10
f 15/15/15 14/14/14 13/13/13
f 18/18/18 17/17/17 16/16/16
f 21/21/21 20/20/20 19/19/19
f 24/24/24 23/23/23 22/22/22
f 27/27/27 26/26/26 25/25/25
f 25/25/25 29/29/29 28/28/28
f 25/25/25 28/28/28 30/30/30
f 32/32/32 31/31/31 30/30/30
f 33/33/33 30/30/30 31/31/31
f 33/33/33 31/31/31 34/34/34
f 37/37/37 36/36/36 35/35/35
f 38/38/38 37/37/37 35/35/35
f 41/41/41 40/40/40 39/39/39
f 42/42/42 41/41/41 39/39/39
f 43/43/43 41/41/41 42/42/42
f 43/43/43 44/44/44 41/41/41
f 42/42/42 45/45/45 43/43/43
f 45/45/45 46/46/46 43/43/43
f 46/46/46 47/47/47 43/43/43
f 50/50/50 49/49/49 48/48/48
f 51/51/51 50/50/50 48/48/48
f 54/54/54 53/53/53 52/52/52
f 55/55/55 54/54/54 52/52/52
f 58/58/58 57/57/57 56/56/56
f 58/58/58 56/56/56 59/59/59
f 59/59/59 56/56/56 60/60/60
f 59/59/59 60/60/60 61/61/61
f 61/61/61 62/62/62 59/59/59
f 59/59/59 63/63/63 58/58/58
f 63/63/63 64/64/64 58/58/58
f 64/64/64 65/65/65 58/58/58
f 68/68/68 67/67/67 66/66/66
f 69/69/69 68/68/68 66/66/66
f 72/72/72 71/71/71 70/70/70
f 73/73/73 72/72/72 70/70/70
f 74/74/74 73/73/73 70/70/70
f 74/74/74 70/70/70 75/75/75
f 76/76/76 74/74/74 75/75/75
f 79/79/79 78/78/78 77/77/77
f 78/78/78 80/80/80 77/77/77
f 80/80/80 81/81/81 77/77/77
f 84/84/84 83/83/83 82/82/82
f 82/82/82 85/85/85 84/84/84
f 82/82/82 86/86/86 85/85/85
f 89/89/89 88/88/88 87/87/87
f 88/88/88 90/90/90 87/87/87
f 90/90/90 91/91/91 87/87/87
f 91/91/91 92/92/92 87/87/87
f 95/95/95 94/94/94 93/93/93
f 96/96/96 95/95/95 93/93/93
f 97/97/97 95/95/95 96/96/96
f 98/98/98 97/97/97 96/96/96
f 97/97/97 98/98/98 99/99/99
f 98/98/98 100/100/100 99/99/99
f 103/103/103 102/102/102 101/101/101
f 104/104/104 103/103/103 101/101/101
f 107/107/107 106/106/106 105/105/105
f 108/108/108 107/107/107 105/105/105
f 111/111/111 110/110/110 109/109/109
f 112/112/112 111/111/111 109/109/109
f 111/111/111 112/112/112 113/113/113
f 112/112/112 114/114/114 113/113/113
f 117/117/117 116/116/116 115/115/115
f 118/118/118 117/117/117 115/115/115
f 121/121/121 120/120/120 119/119/119
f 122/122/122 121/121/121 119/119/119
f 125/125/125 124/124/124 123/123/123
f 126/126/126 125/125/125 123/123/123
f 127/127/127 125/125/125 126/126/126
f 128/128/128 127/127/127 126/126/126
f 129/129/129 127/127/127 128/128/128
f 130/130/130 129/129/129 128/128/128
f 133/133/133 132/132/132 131/131/131
f 132/132/132 134/134/134 131/131/131
f 131/131/131 134/134/134 135/135/135
f 134/134/134 136/136/136 135/135/135
f 139/139/139 138/138/138 137/137/137
f 140/140/140 139/139/139 137/137/137
f 141/141/141 139/139/139 140/140/140
f 142/142/142 141/141/141 140/140/140
f 145/145/145 144/144/144 143/143/143
f 146/146/146 145/145/145 143/143/143
f 149/149/149 148/148/148 147/147/147
f 150/150/150 149/149/149 147/147/147
