g SM_Prop_Portaloo_Temp_Bucket_Lid_01
v 0.1257762 0.4812306 0.004561608
v 0.1593309 0.4703279 0.004561608
v 0.1593309 0.4350456 0.004561608
v 0.1257762 0.4241428 0.004561608
v 0.1050389 0.4526867 0.004561608
v 0.1260643 0.4799518 0.01925521
v 0.158115 0.4695375 0.01925521
v 0.158115 0.435836 0.01925521
v 0.1260643 0.4254217 0.01925521
v 0.1062547 0.4526867 0.01925521
v 0.1349217 0.4526867 0.02488876
v -0.1257765 0.4812306 0.004561608
v -0.1593312 0.4703279 0.004561608
v -0.1593312 0.4350456 0.004561608
v -0.1257765 0.4241428 0.004561608
v -0.1050392 0.4526867 0.004561608
v -0.1260646 0.4799518 0.01925521
v -0.1581154 0.4695375 0.01925521
v -0.1581154 0.435836 0.01925521
v -0.1260646 0.4254217 0.01925521
v -0.1062551 0.4526867 0.01925521
v -0.134922 0.4526867 0.02488876
v 0.1774266 2.688239E-08 0.005407555
v -0.1774318 2.688239E-08 0.005407555
v -0.2439553 0.1622157 0.005407555
v -0.2439553 0.3916281 0.005407555
v -0.1494072 0.5190379 0.005407555
v 0.1494069 0.5190379 0.005407555
v 0.2439598 0.3916281 0.005407555
v 0.2439598 0.1622157 0.005407555
v 0.2439598 0.1622157 -0.0248903
v -0.2439553 0.1622157 -0.0248903
v -0.2439553 0.3916281 -0.0248903
v 0.2439598 0.3916281 -0.0248903
v 0.1774266 2.688239E-08 -0.0248903
v -0.1774318 2.688239E-08 -0.0248903
v -0.1494072 0.5190379 -0.0248903
v 0.1494069 0.5190379 -0.0248903
v 0.2508543 0.158973 -0.009697425
v 0.1824461 -0.007828571 -0.009697425
v -0.1824416 -0.007828571 -0.009697425
v -0.2508547 0.158973 -0.009697425
v -0.2508547 0.3948707 -0.009697425
v -0.1536304 0.5268665 -0.009697425
v 0.1536301 0.5268665 -0.009697425
v 0.2508543 0.3948707 -0.009697425
v -1.751543E-07 0.5538384 0.005407555
v -1.751543E-07 0.561667 -0.009697425
v -1.751543E-07 0.5538384 -0.0248903
v 0.1593309 0.4703279 0.004561608
v 0.158115 0.4695375 0.01925521
v 0.1593309 0.4350456 0.004561608
v 0.158115 0.435836 0.01925521
v 0.1257762 0.4241428 0.004561608
v 0.1260643 0.4254217 0.01925521
v 0.1050389 0.4526867 0.004561608
v 0.1257762 0.4812306 0.004561608
v 0.1260643 0.4799518 0.01925521
v 0.1062547 0.4526867 0.01925521
v 0.1260643 0.4799518 0.01925521
v 0.158115 0.4695375 0.01925521
v 0.158115 0.4695375 0.01925521
v 0.158115 0.435836 0.01925521
v 0.1349217 0.4526867 0.02488876
v 0.158115 0.435836 0.01925521
v 0.1260643 0.4254217 0.01925521
v 0.1349217 0.4526867 0.02488876
v 0.1260643 0.4254217 0.01925521
v 0.1062547 0.4526867 0.01925521
v 0.1349217 0.4526867 0.02488876
v 0.1062547 0.4526867 0.01925521
v 0.1260643 0.4799518 0.01925521
v 0.1349217 0.4526867 0.02488876
v -0.1593312 0.4703279 0.004561608
v -0.1581154 0.4695375 0.01925521
v -0.1593312 0.4350456 0.004561608
v -0.1581154 0.435836 0.01925521
v -0.1257765 0.4241428 0.004561608
v -0.1260646 0.4254217 0.01925521
v -0.1050392 0.4526867 0.004561608
v -0.1062551 0.4526867 0.01925521
v -0.1260646 0.4799518 0.01925521
v -0.1257765 0.4812306 0.004561608
v -0.1260646 0.4799518 0.01925521
v -0.1581154 0.4695375 0.01925521
v -0.1581154 0.4695375 0.01925521
v -0.134922 0.4526867 0.02488876
v -0.1581154 0.435836 0.01925521
v -0.1581154 0.435836 0.01925521
v -0.134922 0.4526867 0.02488876
v -0.1260646 0.4254217 0.01925521
v -0.1260646 0.4254217 0.01925521
v -0.134922 0.4526867 0.02488876
v -0.1062551 0.4526867 0.01925521
v -0.1062551 0.4526867 0.01925521
v -0.134922 0.4526867 0.02488876
v -0.1260646 0.4799518 0.01925521
v -0.2439553 0.1622157 -0.0248903
v -0.2439553 0.3916281 -0.0248903
v 0.2439598 0.3916281 -0.0248903
v 0.2439598 0.1622157 -0.0248903
v 0.2508543 0.158973 -0.009697425
v 0.2439598 0.1622157 -0.0248903
v 0.1774266 2.688239E-08 -0.0248903
v 0.1824461 -0.007828571 -0.009697425
v 0.1774266 2.688239E-08 -0.0248903
v -0.1774318 2.688239E-08 -0.0248903
v -0.1824416 -0.007828571 -0.009697425
v -0.1774318 2.688239E-08 -0.0248903
v -0.2439553 0.1622157 -0.0248903
v -0.2508547 0.158973 -0.009697425
v -0.2508547 0.3948707 -0.009697425
v -0.2439553 0.3916281 -0.0248903
v -0.1494072 0.5190379 -0.0248903
v -0.1536304 0.5268665 -0.009697425
v -0.1494072 0.5190379 -0.0248903
v -1.751543E-07 0.5538384 -0.0248903
v 0.1494069 0.5190379 -0.0248903
v 0.2439598 0.3916281 -0.0248903
v 0.2508543 0.3948707 -0.009697425
v 0.2439598 0.1622157 0.005407555
v 0.2508543 0.158973 -0.009697425
v 0.1824461 -0.007828571 -0.009697425
v 0.1774266 2.688239E-08 0.005407555
v 0.1774266 2.688239E-08 0.005407555
v 0.1824461 -0.007828571 -0.009697425
v -0.1824416 -0.007828571 -0.009697425
v -0.1774318 2.688239E-08 0.005407555
v -0.1774318 2.688239E-08 0.005407555
v -0.1824416 -0.007828571 -0.009697425
v -0.2508547 0.158973 -0.009697425
v -0.2439553 0.1622157 0.005407555
v -0.2439553 0.1622157 0.005407555
v -0.2508547 0.158973 -0.009697425
v -0.2508547 0.3948707 -0.009697425
v -0.2439553 0.3916281 0.005407555
v -0.2439553 0.3916281 0.005407555
v -0.2508547 0.3948707 -0.009697425
v -0.1536304 0.5268665 -0.009697425
v -0.1494072 0.5190379 0.005407555
v -0.1494072 0.5190379 0.005407555
v -0.1536304 0.5268665 -0.009697425
v -1.751543E-07 0.561667 -0.009697425
v -1.751543E-07 0.5538384 0.005407555
v 0.1494069 0.5190379 0.005407555
v 0.1536301 0.5268665 -0.009697425
v 0.2508543 0.3948707 -0.009697425
v 0.2439598 0.3916281 0.005407555
v 0.2439598 0.3916281 0.005407555
v 0.2508543 0.3948707 -0.009697425
v 0.2508543 0.158973 -0.009697425
v 0.2439598 0.1622157 0.005407555
v -1.751543E-07 0.561667 -0.009697425
v 0.1536301 0.5268665 -0.009697425
v 0.1494069 0.5190379 0.005407555
v -1.751543E-07 0.5538384 0.005407555
v -1.751543E-07 0.5538384 -0.0248903
v 0.1494069 0.5190379 -0.0248903
v 0.1536301 0.5268665 -0.009697425
v -1.751543E-07 0.561667 -0.009697425
vt 0.08984375 0.2290039
vt 0.08984375 0.2290039
vt 0.08984375 0.2290039
vt 0.08984375 0.2290039
vt 0.08984375 0.2290039
vt 0.08984375 0.2290039
vt 0.08984375 0.2290039
vt 0.08984375 0.2290039
vt 0.08984375 0.2290039
vt 0.08984375 0.2290039
vt 0.08984375 0.2290039
vt 0.08984375 0.2290039
vt 0.08984375 0.2290039
vt 0.08984375 0.2290039
vt 0.08984375 0.2290039
vt 0.08984375 0.2290039
vt 0.08984375 0.2290039
vt 0.08984375 0.2290039
vt 0.08984375 0.2290039
vt 0.08984375 0.2290039
vt 0.08984375 0.2290039
vt 0.08984375 0.2290039
vt 0.08984375 0.2539063
vt 0.08984375 0.2539063
vt 0.08984375 0.2539063
vt 0.08984375 0.2539063
vt 0.08984375 0.2539063
vt 0.08984375 0.2539063
vt 0.08984375 0.2539063
vt 0.08984375 0.2539063
vt 0.08984375 0.2539063
vt 0.08984375 0.2539063
vt 0.08984375 0.2539063
vt 0.08984375 0.2539063
vt 0.08984375 0.2539063
vt 0.08984375 0.2539063
vt 0.08984375 0.2539063
vt 0.08984375 0.2539063
vt 0.08984375 0.2539063
vt 0.08984375 0.2539063
vt 0.08984375 0.2539063
vt 0.08984375 0.2539063
vt 0.08984375 0.2539063
vt 0.08984375 0.2539063
vt 0.08984375 0.2539063
vt 0.08984375 0.2539063
vt 0.08984375 0.2539063
vt 0.08984375 0.2539063
vt 0.08984375 0.2539063
vt 0.08984375 0.2290039
vt 0.08984375 0.2290039
vt 0.08984375 0.2290039
vt 0.08984375 0.2290039
vt 0.08984375 0.2290039
vt 0.08984375 0.2290039
vt 0.08984375 0.2290039
vt 0.08984375 0.2290039
vt 0.08984375 0.2290039
vt 0.08984375 0.2290039
vt 0.08984375 0.2290039
vt 0.08984375 0.2290039
vt 0.08984375 0.2290039
vt 0.08984375 0.2290039
vt 0.08984375 0.2290039
vt 0.08984375 0.2290039
vt 0.08984375 0.2290039
vt 0.08984375 0.2290039
vt 0.08984375 0.2290039
vt 0.08984375 0.2290039
vt 0.08984375 0.2290039
vt 0.08984375 0.2290039
vt 0.08984375 0.2290039
vt 0.08984375 0.2290039
vt 0.08984375 0.2290039
vt 0.08984375 0.2290039
vt 0.08984375 0.2290039
vt 0.08984375 0.2290039
vt 0.08984375 0.2290039
vt 0.08984375 0.2290039
vt 0.08984375 0.2290039
vt 0.08984375 0.2290039
vt 0.08984375 0.2290039
vt 0.08984375 0.2290039
vt 0.08984375 0.2290039
vt 0.08984375 0.2290039
vt 0.08984375 0.2290039
vt 0.08984375 0.2290039
vt 0.08984375 0.2290039
vt 0.08984375 0.2290039
vt 0.08984375 0.2290039
vt 0.08984375 0.2290039
vt 0.08984375 0.2290039
vt 0.08984375 0.2290039
vt 0.08984375 0.2290039
vt 0.08984375 0.2290039
vt 0.08984375 0.2290039
vt 0.08984375 0.2290039
vt 0.08984375 0.2539063
vt 0.08984375 0.2539063
vt 0.08984375 0.2539063
vt 0.08984375 0.2539063
vt 0.08984375 0.2539063
vt 0.08984375 0.2539063
vt 0.08984375 0.2539063
vt 0.08984375 0.2539063
vt 0.08984375 0.2539063
vt 0.08984375 0.2539063
vt 0.08984375 0.2539063
vt 0.08984375 0.2539063
vt 0.08984375 0.2539063
vt 0.08984375 0.2539063
vt 0.08984375 0.2539063
vt 0.08984375 0.2539063
vt 0.08984375 0.2539063
vt 0.08984375 0.2539063
vt 0.08984375 0.2539063
vt 0.08984375 0.2539063
vt 0.08984375 0.2539063
vt 0.08984375 0.2539063
vt 0.08984375 0.2539063
vt 0.08984375 0.2539063
vt 0.08984375 0.2539063
vt 0.08984375 0.2539063
vt 0.08984375 0.2539063
vt 0.08984375 0.2539063
vt 0.08984375 0.2539063
vt 0.08984375 0.2539063
vt 0.08984375 0.2539063
vt 0.08984375 0.2539063
vt 0.08984375 0.2539063
vt 0.08984375 0.2539063
vt 0.08984375 0.2539063
vt 0.08984375 0.2539063
vt 0.08984375 0.2539063
vt 0.08984375 0.2539063
vt 0.08984375 0.2539063
vt 0.08984375 0.2539063
vt 0.08984375 0.2539063
vt 0.08984375 0.2539063
vt 0.08984375 0.2539063
vt 0.08984375 0.2539063
vt 0.08984375 0.2539063
vt 0.08984375 0.2539063
vt 0.08984375 0.2539063
vt 0.08984375 0.2539063
vt 0.08984375 0.2539063
vt 0.08984375 0.2539063
vt 0.08984375 0.2539063
vt 0.08984375 0.2539063
vt 0.08984375 0.2539063
vt 0.08984375 0.2539063
vt 0.08984375 0.2539063
vt 0.08984375 0.2539063
vt 0.08984375 0.2539063
vt 0.08984375 0.2539063
vt 0.08984375 0.2539063
vt 0.08984375 0.2539063
vt 0.08984375 0.2539063
vt 0.08984375 0.2539063
vt 0.08984375 0.2539063
vn 0.3081055 0.9482422 0.07647705
vn 0.3081055 0.9482422 0.07647705
vn 0.996582 0 0.0824585
vn 0.3081055 -0.9482422 0.07647705
vn -0.8071289 -0.5864258 0.0668335
vn 0.3081055 0.9482422 0.07647705
vn 0.3081055 0.9482422 0.07647705
vn 0.996582 0 0.0824585
vn 0.3081055 -0.9482422 0.07647705
vn -0.8071289 -0.5864258 0.0668335
vn 0.07293701 0.2244873 0.9716797
vn -0.3081055 0.9482422 0.07647705
vn -0.3081055 0.9482422 0.07647705
vn -0.996582 0 0.0824585
vn -0.3081055 -0.9482422 0.07647705
vn 0.8071289 -0.5864258 0.0668335
vn -0.3081055 0.9482422 0.07647705
vn -0.3081055 0.9482422 0.07647705
vn -0.996582 0 0.0824585
vn -0.3081055 -0.9482422 0.07647705
vn 0.8071289 -0.5864258 0.0668335
vn -0.07293701 0.2244873 0.9716797
vn 0 0 1
vn 0 0 1
vn 0 0 1
vn 0 0 1
vn 0 0 1
vn 0 0 1
vn 0 0 1
vn 0 0 1
vn 0 0 -1
vn 0 0 -1
vn 0 0 -1
vn 0 0 -1
vn 0 0 -1
vn 0 0 -1
vn 0 0 -1
vn 0 0 -1
vn 0.9106445 0 -0.4133301
vn 0.8271484 -0.3393555 -0.447998
vn 0 -0.8891602 -0.4580078
vn -0.9106445 0 -0.4135742
vn -0.9106445 0 -0.4135742
vn -0.7163086 0.5292969 -0.4550781
vn 0.7163086 0.5292969 -0.454834
vn 0.9106445 0 -0.4133301
vn 0 0 1
vn -0.1975098 0.8598633 -0.470459
vn 0 0 -1
vn 0.996582 0 0.0824585
vn 0.996582 0 0.0824585
vn 0.3081055 -0.9482422 0.07647705
vn 0.3081055 -0.9482422 0.07647705
vn -0.8071289 -0.5864258 0.0668335
vn -0.8071289 -0.5864258 0.0668335
vn -0.8071289 0.5864258 0.0668335
vn -0.8071289 0.5864258 0.0668335
vn -0.8071289 0.5864258 0.0668335
vn -0.8071289 0.5864258 0.0668335
vn 0.07293701 0.2244873 0.9716797
vn 0.07293701 0.2244873 0.9716797
vn 0.236084 0 0.9716797
vn 0.236084 0 0.9716797
vn 0.236084 0 0.9716797
vn 0.07293701 -0.2244873 0.9716797
vn 0.07293701 -0.2244873 0.9716797
vn 0.07293701 -0.2244873 0.9716797
vn -0.190918 -0.1387939 0.9716797
vn -0.190918 -0.1387939 0.9716797
vn -0.190918 -0.1387939 0.9716797
vn -0.190918 0.1387939 0.9716797
vn -0.190918 0.1387939 0.9716797
vn -0.190918 0.1387939 0.9716797
vn -0.996582 0 0.0824585
vn -0.996582 0 0.0824585
vn -0.3081055 -0.9482422 0.07647705
vn -0.3081055 -0.9482422 0.07647705
vn 0.8071289 -0.5864258 0.0668335
vn 0.8071289 -0.5864258 0.0668335
vn 0.8071289 0.5864258 0.0668335
vn 0.8071289 0.5864258 0.0668335
vn 0.8071289 0.5864258 0.0668335
vn 0.8071289 0.5864258 0.0668335
vn -0.07293701 0.2244873 0.9716797
vn -0.07293701 0.2244873 0.9716797
vn -0.236084 0 0.9716797
vn -0.236084 0 0.9716797
vn -0.236084 0 0.9716797
vn -0.07293701 -0.2244873 0.9716797
vn -0.07293701 -0.2244873 0.9716797
vn -0.07293701 -0.2244873 0.9716797
vn 0.190918 -0.1387939 0.9716797
vn 0.190918 -0.1387939 0.9716797
vn 0.190918 -0.1387939 0.9716797
vn 0.190918 0.1387939 0.9716797
vn 0.190918 0.1387939 0.9716797
vn 0.190918 0.1387939 0.9716797
vn -0.9106445 0 -0.4135742
vn -0.9106445 0 -0.4135742
vn 0.9106445 0 -0.4133301
vn 0.9106445 0 -0.4133301
vn 0.8271484 -0.3393555 -0.447998
vn 0.8271484 -0.3393555 -0.447998
vn 0.8271484 -0.3393555 -0.447998
vn 0 -0.8891602 -0.4580078
vn 0 -0.8891602 -0.4580078
vn 0 -0.8891602 -0.4580078
vn -0.8271484 -0.3393555 -0.4477539
vn -0.8271484 -0.3393555 -0.4477539
vn -0.8271484 -0.3393555 -0.4477539
vn -0.8271484 -0.3393555 -0.4477539
vn -0.7163086 0.5292969 -0.4550781
vn -0.7163086 0.5292969 -0.4550781
vn -0.7163086 0.5292969 -0.4550781
vn -0.1975098 0.8598633 -0.470459
vn -0.1975098 0.8598633 -0.470459
vn -0.1975098 0.8598633 -0.470459
vn 0.7163086 0.5292969 -0.454834
vn 0.7163086 0.5292969 -0.454834
vn 0.7163086 0.5292969 -0.454834
vn 0.8261719 -0.3388672 0.4499512
vn 0.8261719 -0.3388672 0.4499512
vn 0.8261719 -0.3388672 0.4499512
vn 0.8261719 -0.3388672 0.4499512
vn 0 -0.8876953 0.4602051
vn 0 -0.8876953 0.4602051
vn 0 -0.8876953 0.4602051
vn 0 -0.8876953 0.4602051
vn -0.8261719 -0.3388672 0.4499512
vn -0.8261719 -0.3388672 0.4499512
vn -0.8261719 -0.3388672 0.4499512
vn -0.8261719 -0.3388672 0.4499512
vn -0.909668 0 0.4155273
vn -0.909668 0 0.4155273
vn -0.909668 0 0.4155273
vn -0.909668 0 0.4155273
vn -0.715332 0.5288086 0.4570313
vn -0.715332 0.5288086 0.4570313
vn -0.715332 0.5288086 0.4570313
vn -0.715332 0.5288086 0.4570313
vn -0.1972656 0.8588867 0.4726563
vn -0.1972656 0.8588867 0.4726563
vn -0.1972656 0.8588867 0.4726563
vn -0.1972656 0.8588867 0.4726563
vn 0.715332 0.5288086 0.4570313
vn 0.715332 0.5288086 0.4570313
vn 0.715332 0.5288086 0.4570313
vn 0.715332 0.5288086 0.4570313
vn 0.909668 0 0.4152832
vn 0.909668 0 0.4152832
vn 0.909668 0 0.4152832
vn 0.909668 0 0.4152832
vn 0.1972656 0.8588867 0.4726563
vn 0.1972656 0.8588867 0.4726563
vn 0.1972656 0.8588867 0.4726563
vn 0.1972656 0.8588867 0.4726563
vn 0.1975098 0.8598633 -0.470459
vn 0.1975098 0.8598633 -0.470459
vn 0.1975098 0.8598633 -0.470459
vn 0.1975098 0.8598633 -0.470459
g SM_Prop_Portaloo_Temp_Bucket_Lid_01_0
f 11/11/11 61/61/61 60/60/60
f 64/64/64 63/63/63 62/62/62
f 67/67/67 66/66/66 65/65/65
f 70/70/70 69/69/69 68/68/68
f 73/73/73 72/72/72 71/71/71
f 85/85/85 22/22/22 84/84/84
f 88/88/88 87/87/87 86/86/86
f 91/91/91 90/90/90 89/89/89
f 94/94/94 93/93/93 92/92/92
f 97/97/97 96/96/96 95/95/95
f 7/7/7 2/2/2 1/1/1
f 6/6/6 7/7/7 1/1/1
f 8/8/8 3/3/3 50/50/50
f 51/51/51 8/8/8 50/50/50
f 9/9/9 4/4/4 52/52/52
f 53/53/53 9/9/9 52/52/52
f 10/10/10 5/5/5 54/54/54
f 55/55/55 10/10/10 54/54/54
f 58/58/58 57/57/57 56/56/56
f 59/59/59 58/58/58 56/56/56
f 18/18/18 17/17/17 12/12/12
f 13/13/13 18/18/18 12/12/12
f 19/19/19 75/75/75 74/74/74
f 14/14/14 19/19/19 74/74/74
f 20/20/20 77/77/77 76/76/76
f 15/15/15 20/20/20 76/76/76
f 21/21/21 79/79/79 78/78/78
f 16/16/16 21/21/21 78/78/78
f 82/82/82 81/81/81 80/80/80
f 83/83/83 82/82/82 80/80/80
f 35/35/35 36/36/36 31/31/31
f 36/36/36 32/32/32 31/31/31
f 32/32/32 33/33/33 31/31/31
f 33/33/33 34/34/34 31/31/31
f 38/38/38 34/34/34 33/33/33
f 33/33/33 49/49/49 38/38/38
f 33/33/33 37/37/37 49/49/49
f 24/24/24 23/23/23 30/30/30
f 25/25/25 24/24/24 30/30/30
f 26/26/26 25/25/25 30/30/30
f 29/29/29 26/26/26 30/30/30
f 26/26/26 29/29/29 28/28/28
f 28/28/28 47/47/47 26/26/26
f 47/47/47 27/27/27 26/26/26
f 99/99/99 98/98/98 42/42/42
f 43/43/43 99/99/99 42/42/42
f 101/101/101 100/100/100 46/46/46
f 39/39/39 101/101/101 46/46/46
f 104/104/104 103/103/103 102/102/102
f 40/40/40 104/104/104 102/102/102
f 107/107/107 106/106/106 105/105/105
f 41/41/41 107/107/107 105/105/105
f 110/110/110 109/109/109 108/108/108
f 111/111/111 110/110/110 108/108/108
f 114/114/114 113/113/113 112/112/112
f 44/44/44 114/114/114 112/112/112
f 117/117/117 116/116/116 115/115/115
f 48/48/48 117/117/117 115/115/115
f 119/119/119 118/118/118 45/45/45
f 120/120/120 119/119/119 45/45/45
f 123/123/123 122/122/122 121/121/121
f 124/124/124 123/123/123 121/121/121
f 127/127/127 126/126/126 125/125/125
f 128/128/128 127/127/127 125/125/125
f 131/131/131 130/130/130 129/129/129
f 132/132/132 131/131/131 129/129/129
f 135/135/135 134/134/134 133/133/133
f 136/136/136 135/135/135 133/133/133
f 139/139/139 138/138/138 137/137/137
f 140/140/140 139/139/139 137/137/137
f 143/143/143 142/142/142 141/141/141
f 144/144/144 143/143/143 141/141/141
f 147/147/147 146/146/146 145/145/145
f 148/148/148 147/147/147 145/145/145
f 151/151/151 150/150/150 149/149/149
f 152/152/152 151/151/151 149/149/149
f 155/155/155 154/154/154 153/153/153
f 156/156/156 155/155/155 153/153/153
f 159/159/159 158/158/158 157/157/157
f 160/160/160 159/159/159 157/157/157
