g SM_Prop_ToyBlock_01
v -0.08870483 0.1295953 -0.08870407
v -0.06002929 0.1774079 -0.08870407
v -0.08870483 0.1774079 -0.04343643
v -0.08870483 0 0.08870407
v -0.08870483 0.1774079 0.08870407
v 0.08870483 0.1774079 0.08870407
v 0.08870483 0 0.08870407
v -0.08870483 0.1774079 -0.04343643
v -0.06002929 0.1774079 -0.08870407
v 0.08870483 0.1774079 -0.08870407
v 0.08870483 0.1774079 0.08870407
v -0.08870483 0.1774079 0.08870407
v -0.08870483 0 -0.08870407
v -0.08870483 0 0.08870407
v 0.08870483 0 0.08870407
v 0.08870483 0 -0.08870407
v 0.08870483 0 0.08870407
v 0.08870483 0.1774079 0.08870407
v 0.08870483 0.1774079 -0.08870407
v 0.08870483 0 -0.08870407
v -0.08870483 0.1774079 0.08870407
v -0.08870483 0 0.08870407
v -0.08870483 0 -0.08870407
v -0.08870483 0.1295953 -0.08870407
v -0.08870483 0.1774079 -0.04343643
v -0.08870483 0 -0.08870407
v 0.08870483 0 -0.08870407
v 0.08870483 0.1774079 -0.08870407
v -0.06002929 0.1774079 -0.08870407
v -0.08870483 0.1295953 -0.08870407
vt 0.3499449 0.4716398
vt 0.3499449 0.4716398
vt 0.3499449 0.4716398
vt 0.3499449 0.4716398
vt 0.3499449 0.4716398
vt 0.3499449 0.4716398
vt 0.3499449 0.4716398
vt 0.3499449 0.4716398
vt 0.3499449 0.4716398
vt 0.3499449 0.4716398
vt 0.3499449 0.4716398
vt 0.3499449 0.4716398
vt 0.3499449 0.4716398
vt 0.3499449 0.4716398
vt 0.3499449 0.4716398
vt 0.3499449 0.4716398
vt 0.3499449 0.4716398
vt 0.3499449 0.4716398
vt 0.3499449 0.4716398
vt 0.3499449 0.4716398
vt 0.3499449 0.4716398
vt 0.3499449 0.4716398
vt 0.3499449 0.4716398
vt 0.3499449 0.4716398
vt 0.3499449 0.4716398
vt 0.3499449 0.4716398
vt 0.3499449 0.4716398
vt 0.3499449 0.4716398
vt 0.3499449 0.4716398
vt 0.3499449 0.4716398
vn -0.7535689 0.4519521 -0.4773607
vn -0.7535689 0.4519521 -0.4773607
vn -0.7535689 0.4519521 -0.4773607
vn 0 0 1
vn 0 0 1
vn 0 0 1
vn 0 0 1
vn 0 1 0
vn 0 1 0
vn 0 1 0
vn 0 1 0
vn 0 1 0
vn 0 -1 0
vn 0 -1 0
vn 0 -1 0
vn 0 -1 0
vn 1 0 0
vn 1 0 0
vn 1 0 0
vn 1 0 0
vn -1 0 0
vn -1 0 0
vn -1 0 0
vn -1 0 0
vn -1 0 0
vn 0 0 -1
vn 0 0 -1
vn 0 0 -1
vn 0 0 -1
vn 0 0 -1
g SM_Prop_ToyBlock_01_0
f 3/3/3 2/2/2 1/1/1
f 6/6/6 5/5/5 4/4/4
f 7/7/7 6/6/6 4/4/4
f 10/10/10 9/9/9 8/8/8
f 8/8/8 11/11/11 10/10/10
f 8/8/8 12/12/12 11/11/11
f 15/15/15 14/14/14 13/13/13
f 16/16/16 15/15/15 13/13/13
f 19/19/19 18/18/18 17/17/17
f 20/20/20 19/19/19 17/17/17
f 23/23/23 22/22/22 21/21/21
f 21/21/21 24/24/24 23/23/23
f 21/21/21 25/25/25 24/24/24
f 28/28/28 27/27/27 26/26/26
f 26/26/26 29/29/29 28/28/28
f 26/26/26 30/30/30 29/29/29
