g SM_Prop_Box_01
v -0.2018738 -1.099121E-16 -0.3188985
v -0.2018738 -1.099121E-16 0.3188985
v 0.2042236 -1.099121E-16 0.3188985
v 0.2042236 -1.099121E-16 -0.3188985
v 0.2022705 0.3097484 -0.3188985
v 0.2042236 -1.099121E-16 -0.3188985
v 0.2042236 -1.099121E-16 0.3188985
v 0.2022705 0.3097484 0.3188985
v -0.1998901 0.3097484 0.3188985
v -0.2018738 -1.099121E-16 0.3188985
v -0.2018738 -1.099121E-16 -0.3188985
v -0.1998901 0.3097484 -0.3188985
v -0.1871338 0.01475751 -0.3062575
v 0.1894836 0.01475751 -0.3062575
v 0.1894836 0.01475751 0.3051656
v -0.1871338 0.01475751 0.3051656
v 0.1894836 0.3097484 -0.3062575
v 0.1894836 0.3097484 0.3051656
v 0.1894836 0.01475751 0.3051656
v 0.1894836 0.01475751 -0.3062575
v -0.1871338 0.3097484 0.3051656
v -0.1871338 0.3097484 -0.3062575
v -0.1871338 0.01475751 -0.3062575
v -0.1871338 0.01475751 0.3051656
v 0.07351685 0.2414575 0.3051656
v 0.07351685 0.2414575 0.3188985
v -0.07116699 0.2414575 0.3188985
v -0.07116699 0.2414575 0.3051656
v 0.07351685 0.2759659 0.3051656
v 0.07351685 0.2759659 0.3188985
v 0.08297729 0.2587117 0.3188985
v 0.08297729 0.2587117 0.3051656
v 0.08297729 0.2587117 0.3051656
v 0.08297729 0.2587117 0.3188985
v 0.07351685 0.2414575 0.3188985
v 0.07351685 0.2414575 0.3051656
v -0.07116699 0.2759659 0.3051656
v -0.07116699 0.2759659 0.3188985
v 0.07351685 0.2759659 0.3188985
v 0.07351685 0.2759659 0.3051656
v -0.08062744 0.2587117 0.3051656
v -0.08062744 0.2587117 0.3188985
v -0.07116699 0.2759659 0.3188985
v -0.07116699 0.2759659 0.3051656
v -0.07116699 0.2414575 0.3051656
v -0.07116699 0.2414575 0.3188985
v -0.08062744 0.2587117 0.3188985
v -0.08062744 0.2587117 0.3051656
v 0.07351685 0.2759659 -0.3062575
v 0.07351685 0.2759659 -0.3188985
v -0.07116699 0.2759659 -0.3188985
v -0.07116699 0.2759659 -0.3062575
v 0.08297729 0.2587117 -0.3062575
v 0.08297729 0.2587117 -0.3188985
v 0.07351685 0.2759659 -0.3188985
v 0.07351685 0.2759659 -0.3062575
v 0.07351685 0.2414575 -0.3062575
v 0.07351685 0.2414575 -0.3188985
v 0.08297729 0.2587117 -0.3188985
v 0.08297729 0.2587117 -0.3062575
v -0.07116699 0.2414575 -0.3062575
v -0.07116699 0.2414575 -0.3188985
v 0.07351685 0.2414575 -0.3188985
v 0.07351685 0.2414575 -0.3062575
v -0.07116699 0.2759659 -0.3062575
v -0.07116699 0.2759659 -0.3188985
v -0.08062744 0.2587117 -0.3188985
v -0.08062744 0.2587117 -0.3062575
v -0.08062744 0.2587117 -0.3062575
v -0.08062744 0.2587117 -0.3188985
v -0.07116699 0.2414575 -0.3188985
v -0.07116699 0.2414575 -0.3062575
v -0.1871338 0.01475751 0.3051656
v 0.07351685 0.2414575 0.3051656
v -0.07116699 0.2414575 0.3051656
v -0.08062744 0.2587117 0.3051656
v 0.1894836 0.01475751 0.3051656
v -0.1871338 0.3097484 0.3051656
v -0.07116699 0.2759659 0.3051656
v 0.1894836 0.3097484 0.3051656
v 0.08297729 0.2587117 0.3051656
v 0.07351685 0.2759659 0.3051656
v -0.1871338 0.3097484 -0.3062575
v 0.07351685 0.2759659 -0.3062575
v -0.07116699 0.2759659 -0.3062575
v -0.08062744 0.2587117 -0.3062575
v 0.1894836 0.3097484 -0.3062575
v -0.1871338 0.01475751 -0.3062575
v 0.08297729 0.2587117 -0.3062575
v -0.07116699 0.2414575 -0.3062575
v 0.1894836 0.01475751 -0.3062575
v 0.07351685 0.2414575 -0.3062575
v -0.2018738 -1.099121E-16 0.3188985
v -0.07116699 0.2414575 0.3188985
v 0.07351685 0.2414575 0.3188985
v -0.08062744 0.2587117 0.3188985
v 0.2042236 -1.099121E-16 0.3188985
v -0.1998901 0.3097484 0.3188985
v -0.07116699 0.2759659 0.3188985
v 0.2022705 0.3097484 0.3188985
v 0.08297729 0.2587117 0.3188985
v 0.07351685 0.2759659 0.3188985
v -0.1998901 0.3097484 -0.3188985
v -0.07116699 0.2759659 -0.3188985
v 0.07351685 0.2759659 -0.3188985
v -0.08062744 0.2587117 -0.3188985
v -0.2018738 -1.099121E-16 -0.3188985
v -0.07116699 0.2414575 -0.3188985
v 0.2042236 -1.099121E-16 -0.3188985
v 0.07351685 0.2414575 -0.3188985
v 0.2022705 0.3097484 -0.3188985
v 0.08297729 0.2587117 -0.3188985
v 0.1894836 0.3097484 -0.3062575
v 0.2022705 0.3097484 -0.3188985
v 0.2022705 0.3097484 0.3188985
v 0.1894836 0.3097484 0.3051656
v -0.1871338 0.3097484 -0.3062575
v -0.1998901 0.3097484 0.3188985
v -0.1998901 0.3097484 -0.3188985
v -0.1871338 0.3097484 0.3051656
vt 0.03736034 0.3035692
vt 0.03736034 0.303569
vt 0.03736028 0.303569
vt 0.03736028 0.3035692
vt 0.03736022 0.3035692
vt 0.03736022 0.3035691
vt 0.03736028 0.3035691
vt 0.03736028 0.3035692
vt 0.03736034 0.3035692
vt 0.03736034 0.3035691
vt 0.03736028 0.3035691
vt 0.03736028 0.3035692
vt 0.03736034 0.3035692
vt 0.03736028 0.3035692
vt 0.03736028 0.303569
vt 0.03736034 0.303569
vt 0.03736022 0.3035692
vt 0.03736028 0.3035692
vt 0.03736028 0.3035691
vt 0.03736022 0.3035691
vt 0.03736034 0.3035692
vt 0.03736028 0.3035692
vt 0.03736028 0.3035691
vt 0.03736034 0.3035691
vt 0.03736028 0.3035691
vt 0.03736028 0.3035691
vt 0.03736034 0.3035691
vt 0.03736034 0.3035691
vt 0.03736028 0.3035692
vt 0.03736028 0.3035692
vt 0.03736028 0.3035691
vt 0.03736028 0.3035691
vt 0.03736028 0.3035691
vt 0.03736028 0.3035691
vt 0.03736028 0.3035691
vt 0.03736028 0.3035691
vt 0.03736034 0.3035692
vt 0.03736034 0.3035692
vt 0.03736028 0.3035692
vt 0.03736028 0.3035692
vt 0.03736034 0.3035691
vt 0.03736034 0.3035691
vt 0.03736034 0.3035692
vt 0.03736034 0.3035692
vt 0.03736034 0.3035691
vt 0.03736034 0.3035691
vt 0.03736034 0.3035691
vt 0.03736034 0.3035691
vt 0.03736028 0.3035691
vt 0.03736028 0.3035691
vt 0.03736034 0.3035691
vt 0.03736034 0.3035691
vt 0.03736028 0.3035692
vt 0.03736028 0.3035692
vt 0.03736028 0.3035691
vt 0.03736028 0.3035691
vt 0.03736028 0.3035692
vt 0.03736028 0.3035692
vt 0.03736028 0.3035692
vt 0.03736028 0.3035692
vt 0.03736034 0.3035692
vt 0.03736034 0.3035692
vt 0.03736028 0.3035692
vt 0.03736028 0.3035692
vt 0.03736034 0.3035691
vt 0.03736034 0.3035691
vt 0.03736034 0.3035692
vt 0.03736034 0.3035692
vt 0.03736034 0.3035692
vt 0.03736034 0.3035692
vt 0.03736034 0.3035692
vt 0.03736034 0.3035692
vt 0.03736034 0.3035691
vt 0.03736028 0.3035691
vt 0.03736034 0.3035691
vt 0.03736034 0.3035691
vt 0.03736028 0.3035691
vt 0.03736034 0.3035692
vt 0.03736034 0.3035692
vt 0.03736028 0.3035692
vt 0.03736028 0.3035691
vt 0.03736028 0.3035692
vt 0.03736034 0.3035691
vt 0.03736028 0.3035691
vt 0.03736034 0.3035691
vt 0.03736034 0.3035692
vt 0.03736028 0.3035691
vt 0.03736034 0.3035692
vt 0.03736028 0.3035692
vt 0.03736034 0.3035692
vt 0.03736028 0.3035692
vt 0.03736028 0.3035692
vt 0.03736034 0.3035691
vt 0.03736034 0.3035691
vt 0.03736028 0.3035691
vt 0.03736034 0.3035691
vt 0.03736028 0.3035691
vt 0.03736034 0.3035692
vt 0.03736034 0.3035692
vt 0.03736028 0.3035692
vt 0.03736028 0.3035691
vt 0.03736028 0.3035692
vt 0.03736034 0.3035691
vt 0.03736034 0.3035691
vt 0.03736028 0.3035691
vt 0.03736034 0.3035692
vt 0.03736034 0.3035692
vt 0.03736034 0.3035692
vt 0.03736028 0.3035692
vt 0.03736028 0.3035692
vt 0.03736028 0.3035691
vt 0.03736028 0.3035692
vt 0.03736022 0.3035692
vt 0.03736022 0.3035692
vt 0.03736028 0.3035692
vt 0.03736028 0.3035692
vt 0.03736028 0.3035692
vt 0.03736034 0.3035692
vt 0.03736028 0.3035692
vt 0.03736034 0.3035692
vn 0 -1 0
vn 0 -1 0
vn 0 -1 0
vn 0 -1 0
vn 0.9999801 0.006305395 0
vn 0.9999801 0.006305395 0
vn 0.9999801 0.006305395 0
vn 0.9999801 0.006305395 0
vn -0.9999795 0.006403913 0
vn -0.9999795 0.006403913 0
vn -0.9999795 0.006403913 0
vn -0.9999795 0.006403913 0
vn 0 1 0
vn 0 1 0
vn 0 1 0
vn 0 1 0
vn -1 0 0
vn -1 0 0
vn -1 0 0
vn -1 0 0
vn 1 0 0
vn 1 0 0
vn 1 0 0
vn 1 0 0
vn 0 1 0
vn 0 1 0
vn 0 1 0
vn 0 1 0
vn -0.8768457 -0.4807721 0
vn -0.8768457 -0.4807721 0
vn -0.8768457 -0.4807721 0
vn -0.8768457 -0.4807721 0
vn -0.8768457 0.4807721 0
vn -0.8768457 0.4807721 0
vn -0.8768457 0.4807721 0
vn -0.8768457 0.4807721 0
vn 0 -1 0
vn 0 -1 0
vn 0 -1 0
vn 0 -1 0
vn 0.8768458 -0.4807718 0
vn 0.8768458 -0.4807718 0
vn 0.8768458 -0.4807718 0
vn 0.8768458 -0.4807718 0
vn 0.8768458 0.4807718 0
vn 0.8768458 0.4807718 0
vn 0.8768458 0.4807718 0
vn 0.8768458 0.4807718 0
vn 0 -1 0
vn 0 -1 0
vn 0 -1 0
vn 0 -1 0
vn -0.8768457 -0.480772 0
vn -0.8768457 -0.480772 0
vn -0.8768457 -0.480772 0
vn -0.8768457 -0.480772 0
vn -0.8768457 0.480772 0
vn -0.8768457 0.480772 0
vn -0.8768457 0.480772 0
vn -0.8768457 0.480772 0
vn 0 1 0
vn 0 1 0
vn 0 1 0
vn 0 1 0
vn 0.8768458 -0.4807717 0
vn 0.8768458 -0.4807717 0
vn 0.8768458 -0.4807717 0
vn 0.8768458 -0.4807717 0
vn 0.8768458 0.4807717 0
vn 0.8768458 0.4807717 0
vn 0.8768458 0.4807717 0
vn 0.8768458 0.4807717 0
vn 0 0 -1
vn 0 0 -1
vn 0 0 -1
vn 0 0 -1
vn 0 0 -1
vn 0 0 -1
vn 0 0 -1
vn 0 0 -1
vn 0 0 -1
vn 0 0 -1
vn 0 0 1
vn 0 0 1
vn 0 0 1
vn 0 0 1
vn 0 0 1
vn 0 0 1
vn 0 0 1
vn 0 0 1
vn 0 0 1
vn 0 0 1
vn 0 0 1
vn 0 0 1
vn 0 0 1
vn 0 0 1
vn 0 0 1
vn 0 0 1
vn 0 0 1
vn 0 0 1
vn 0 0 1
vn 0 0 1
vn 0 0 -1
vn 0 0 -1
vn 0 0 -1
vn 0 0 -1
vn 0 0 -1
vn 0 0 -1
vn 0 0 -1
vn 0 0 -1
vn 0 0 -1
vn 0 0 -1
vn 0 1 0
vn 0 1 0
vn 0 1 0
vn 0 1 0
vn 0 1 0
vn 0 1 0
vn 0 1 0
vn 0 1 0
g SM_Prop_Box_01_0
f 3/3/3 2/2/2 1/1/1
f 4/4/4 3/3/3 1/1/1
f 7/7/7 6/6/6 5/5/5
f 8/8/8 7/7/7 5/5/5
f 11/11/11 10/10/10 9/9/9
f 12/12/12 11/11/11 9/9/9
f 15/15/15 14/14/14 13/13/13
f 16/16/16 15/15/15 13/13/13
f 19/19/19 18/18/18 17/17/17
f 20/20/20 19/19/19 17/17/17
f 23/23/23 22/22/22 21/21/21
f 24/24/24 23/23/23 21/21/21
f 27/27/27 26/26/26 25/25/25
f 28/28/28 27/27/27 25/25/25
f 31/31/31 30/30/30 29/29/29
f 32/32/32 31/31/31 29/29/29
f 35/35/35 34/34/34 33/33/33
f 36/36/36 35/35/35 33/33/33
f 39/39/39 38/38/38 37/37/37
f 40/40/40 39/39/39 37/37/37
f 43/43/43 42/42/42 41/41/41
f 44/44/44 43/43/43 41/41/41
f 47/47/47 46/46/46 45/45/45
f 48/48/48 47/47/47 45/45/45
f 51/51/51 50/50/50 49/49/49
f 52/52/52 51/51/51 49/49/49
f 55/55/55 54/54/54 53/53/53
f 56/56/56 55/55/55 53/53/53
f 59/59/59 58/58/58 57/57/57
f 60/60/60 59/59/59 57/57/57
f 63/63/63 62/62/62 61/61/61
f 64/64/64 63/63/63 61/61/61
f 67/67/67 66/66/66 65/65/65
f 68/68/68 67/67/67 65/65/65
f 71/71/71 70/70/70 69/69/69
f 72/72/72 71/71/71 69/69/69
f 75/75/75 74/74/74 73/73/73
f 76/76/76 75/75/75 73/73/73
f 74/74/74 77/77/77 73/73/73
f 76/76/76 73/73/73 78/78/78
f 78/78/78 79/79/79 76/76/76
f 80/80/80 77/77/77 74/74/74
f 79/79/79 78/78/78 80/80/80
f 74/74/74 81/81/81 80/80/80
f 82/82/82 79/79/79 80/80/80
f 80/80/80 81/81/81 82/82/82
f 85/85/85 84/84/84 83/83/83
f 86/86/86 85/85/85 83/83/83
f 84/84/84 87/87/87 83/83/83
f 86/86/86 83/83/83 88/88/88
f 87/87/87 84/84/84 89/89/89
f 88/88/88 90/90/90 86/86/86
f 89/89/89 91/91/91 87/87/87
f 90/90/90 88/88/88 91/91/91
f 91/91/91 89/89/89 92/92/92
f 92/92/92 90/90/90 91/91/91
f 95/95/95 94/94/94 93/93/93
f 93/93/93 94/94/94 96/96/96
f 97/97/97 95/95/95 93/93/93
f 96/96/96 98/98/98 93/93/93
f 96/96/96 99/99/99 98/98/98
f 95/95/95 97/97/97 100/100/100
f 98/98/98 99/99/99 100/100/100
f 100/100/100 101/101/101 95/95/95
f 99/99/99 102/102/102 100/100/100
f 101/101/101 100/100/100 102/102/102
f 105/105/105 104/104/104 103/103/103
f 104/104/104 106/106/106 103/103/103
f 107/107/107 103/103/103 106/106/106
f 106/106/106 108/108/108 107/107/107
f 107/107/107 108/108/108 109/109/109
f 108/108/108 110/110/110 109/109/109
f 111/111/111 105/105/105 103/103/103
f 111/111/111 109/109/109 110/110/110
f 111/111/111 112/112/112 105/105/105
f 110/110/110 112/112/112 111/111/111
f 115/115/115 114/114/114 113/113/113
f 116/116/116 115/115/115 113/113/113
f 113/113/113 114/114/114 117/117/117
f 118/118/118 115/115/115 116/116/116
f 114/114/114 119/119/119 117/117/117
f 120/120/120 118/118/118 116/116/116
f 117/117/117 119/119/119 120/120/120
f 119/119/119 118/118/118 120/120/120
