g SM_Prop_Laptop_Folding_02
v 0.1702591 0.01973282 -0.1373006
v 0.1702591 0.03852117 -0.1373006
v 0.2265096 0.03852117 -0.1373006
v 0.2265096 0.01973282 -0.1373006
v 0.1702591 0.03852117 -0.1373006
v 0.1702591 0.03852117 -0.1560889
v 0.2265096 0.03852117 -0.1560889
v 0.2265096 0.03852117 -0.1373006
v 0.1702591 0.03852117 -0.1560889
v 0.1702591 0.01973282 -0.1560889
v 0.2265096 0.01973282 -0.1560889
v 0.2265096 0.03852117 -0.1560889
v 0.1702591 0.01973282 -0.1560889
v 0.1702591 0.01973282 -0.1373006
v 0.2265096 0.01973282 -0.1373006
v 0.2265096 0.01973282 -0.1560889
v 0.2265096 0.01973282 -0.1373006
v 0.2265096 0.03852117 -0.1373006
v 0.2265096 0.03852117 -0.1560889
v 0.2265096 0.01973282 -0.1560889
v 0.1702591 0.01973282 -0.1560889
v 0.1702591 0.03852117 -0.1560889
v 0.1702591 0.03852117 -0.1373006
v 0.1702591 0.01973282 -0.1373006
v -0.2225652 0.01973282 -0.1373006
v -0.2225652 0.03852117 -0.1373006
v -0.1663147 0.03852117 -0.1373006
v -0.1663147 0.01973282 -0.1373006
v -0.2225652 0.03852117 -0.1373006
v -0.2225652 0.03852117 -0.1560889
v -0.1663147 0.03852117 -0.1560889
v -0.1663147 0.03852117 -0.1373006
v -0.2225652 0.03852117 -0.1560889
v -0.2225652 0.01973282 -0.1560889
v -0.1663147 0.01973282 -0.1560889
v -0.1663147 0.03852117 -0.1560889
v -0.2225652 0.01973282 -0.1560889
v -0.2225652 0.01973282 -0.1373006
v -0.1663147 0.01973282 -0.1373006
v -0.1663147 0.01973282 -0.1560889
v -0.1663147 0.01973282 -0.1373006
v -0.1663147 0.03852117 -0.1373006
v -0.1663147 0.03852117 -0.1560889
v -0.1663147 0.01973282 -0.1560889
v -0.2225652 0.01973282 -0.1560889
v -0.2225652 0.03852117 -0.1560889
v -0.2225652 0.03852117 -0.1373006
v -0.2225652 0.01973282 -0.1373006
v -0.2331475 0.02800892 0.2075219
v 0.2331475 0.02800892 0.2075219
v 0.2331475 0 0.2075219
v -0.2331475 0 0.2075219
v -0.2596479 0.02800892 -0.1478633
v -0.2596479 0.005017813 -0.142841
v 0.2596479 0.005017813 -0.142841
v 0.2596479 0.02800892 -0.1478633
v -0.2596479 0.005017813 -0.142841
v -0.2596479 9.950762E-18 -0.1215374
v 0.2596479 9.950762E-18 -0.1215374
v 0.2596479 0.005017813 -0.142841
v 0.2596479 0.02800892 -0.1478633
v 0.2596479 0.005017813 -0.142841
v 0.2596479 9.950762E-18 -0.1215374
v 0.2596479 0.02800892 0.1810217
v 0.2596479 8.352038E-19 0.1810217
v -0.2596479 0.005017813 -0.142841
v -0.2596479 0.02800892 -0.1478633
v -0.2596479 9.950762E-18 -0.1215374
v -0.2596479 8.352038E-19 0.1810217
v -0.2596479 0.02800892 0.1810217
v -0.2331448 0.02800892 0.1676878
v -0.2331448 0.02800892 -0.05190542
v 0.2331448 0.02800892 -0.05190542
v 0.2331448 0.02800892 0.1676878
v -0.2596479 8.352038E-19 0.1810217
v -0.2596479 0.02800892 0.1810217
v -0.2518861 0.02800892 0.1997602
v -0.2518861 2.446255E-19 0.1997602
v -0.2518861 2.446255E-19 0.1997602
v -0.2518861 0.02800892 0.1997602
v -0.2331475 0.02800892 0.2075219
v -0.2331475 0 0.2075219
v 0.2331475 0 0.2075219
v 0.2331475 0.02800892 0.2075219
v 0.2518861 0.02800892 0.1997602
v 0.2518861 2.446255E-19 0.1997602
v 0.2518861 2.446255E-19 0.1997602
v 0.2518861 0.02800892 0.1997602
v 0.2596479 0.02800892 0.1810217
v 0.2596479 8.352038E-19 0.1810217
v -0.2331475 0 0.2075219
v -0.2596479 8.352038E-19 0.1810217
v -0.2518861 2.446255E-19 0.1997602
v -0.2596479 9.950762E-18 -0.1215374
v 0.2596479 9.950762E-18 -0.1215374
v 0.2331475 0 0.2075219
v 0.2596479 8.352038E-19 0.1810217
v 0.2518861 2.446255E-19 0.1997602
v 0.2596479 0.02800892 -0.1478633
v 0.2331448 0.02800892 0.1676878
v 0.2331448 0.02800892 -0.05190542
v -0.2331448 0.02800892 -0.05190542
v -0.2596479 0.02800892 -0.1478633
v -0.2596479 0.02800892 0.1810217
v 0.2596479 0.02800892 0.1810217
v 0.2518861 0.02800892 0.1997602
v 0.2331475 0.02800892 0.2075219
v -0.2331448 0.02800892 0.1676878
v -0.2518861 0.02800892 0.1997602
v -0.2331475 0.02800892 0.2075219
vt 0.4885301 0.3846439
vt 0.4885301 0.3846439
vt 0.4885301 0.3846439
vt 0.4885301 0.3846439
vt 0.4885301 0.3846439
vt 0.4885301 0.3846439
vt 0.4885301 0.3846439
vt 0.4885301 0.3846439
vt 0.4885301 0.3846439
vt 0.4885301 0.3846439
vt 0.4885301 0.3846439
vt 0.4885301 0.3846439
vt 0.4885301 0.3846439
vt 0.4885301 0.3846439
vt 0.4885301 0.3846439
vt 0.4885301 0.3846439
vt 0.4885301 0.3846439
vt 0.4885301 0.3846439
vt 0.4885301 0.3846439
vt 0.4885301 0.3846439
vt 0.4885301 0.3846439
vt 0.4885301 0.3846439
vt 0.4885301 0.3846439
vt 0.4885301 0.3846439
vt 0.4885301 0.3846439
vt 0.4885301 0.3846439
vt 0.4885301 0.3846439
vt 0.4885301 0.3846439
vt 0.4885301 0.3846439
vt 0.4885301 0.3846439
vt 0.4885301 0.3846439
vt 0.4885301 0.3846439
vt 0.4885301 0.3846439
vt 0.4885301 0.3846439
vt 0.4885301 0.3846439
vt 0.4885301 0.3846439
vt 0.4885301 0.3846439
vt 0.4885301 0.3846439
vt 0.4885301 0.3846439
vt 0.4885301 0.3846439
vt 0.4885301 0.3846439
vt 0.4885301 0.3846439
vt 0.4885301 0.3846439
vt 0.4885301 0.3846439
vt 0.4885301 0.3846439
vt 0.4885301 0.3846439
vt 0.4885301 0.3846439
vt 0.4885301 0.3846439
vt 0.4937313 0.3888646
vt 0.4929537 0.3888083
vt 0.4929587 0.3888376
vt 0.4937266 0.3888938
vt 0.4937602 0.3884405
vt 0.4937564 0.3884567
vt 0.4930297 0.3884118
vt 0.4930247 0.3883953
vt 0.4937564 0.3884567
vt 0.4937563 0.3884825
vt 0.4930248 0.3884368
vt 0.4930297 0.3884118
vt 0.4930247 0.3883953
vt 0.4930297 0.3884118
vt 0.4930248 0.3884368
vt 0.4929188 0.3887717
vt 0.4929243 0.388801
vt 0.4937564 0.3884567
vt 0.4937602 0.3884405
vt 0.4937563 0.3884825
vt 0.493769 0.3888622
vt 0.4937743 0.388833
vt 0.4206156 0.3604835
vt 0.4206155 0.3890189
vt 0.4812081 0.3890189
vt 0.4812081 0.3604835
vt 0.493769 0.3888622
vt 0.4937743 0.388833
vt 0.4937755 0.3888678
vt 0.4937702 0.388897
vt 0.4937702 0.388897
vt 0.4937755 0.3888678
vt 0.4937313 0.3888646
vt 0.4937266 0.3888938
vt 0.4929587 0.3888376
vt 0.4929537 0.3888083
vt 0.4929095 0.3888051
vt 0.492915 0.3888344
vt 0.492915 0.3888344
vt 0.4929095 0.3888051
vt 0.4929188 0.3887717
vt 0.4929243 0.388801
vt 0.4937266 0.3888938
vt 0.493769 0.3888622
vt 0.4937702 0.388897
vt 0.4937563 0.3884825
vt 0.4930248 0.3884368
vt 0.4929587 0.3888376
vt 0.4929243 0.388801
vt 0.492915 0.3888344
vt 0.4930247 0.3883953
vt 0.4929404 0.3887881
vt 0.493003 0.3885252
vt 0.4937571 0.3885744
vt 0.4937602 0.3884405
vt 0.4937743 0.388833
vt 0.4929188 0.3887717
vt 0.4929095 0.3888051
vt 0.4929537 0.3888083
vt 0.4937496 0.3888463
vt 0.4937755 0.3888678
vt 0.4937313 0.3888646
vn 0 0 1
vn 0 0 1
vn 0 0 1
vn 0 0 1
vn 0 1 0
vn 0 1 0
vn 0 1 0
vn 0 1 0
vn 0 0 -1
vn 0 0 -1
vn 0 0 -1
vn 0 0 -1
vn 0 -1 0
vn 0 -1 0
vn 0 -1 0
vn 0 -1 0
vn 1 0 0
vn 1 0 0
vn 1 0 0
vn 1 0 0
vn -1 0 0
vn -1 0 0
vn -1 0 0
vn -1 0 0
vn 0 0 1
vn 0 0 1
vn 0 0 1
vn 0 0 1
vn 0 1 0
vn 0 1 0
vn 0 1 0
vn 0 1 0
vn 0 0 -1
vn 0 0 -1
vn 0 0 -1
vn 0 0 -1
vn 0 -1 0
vn 0 -1 0
vn 0 -1 0
vn 0 -1 0
vn 1 0 0
vn 1 0 0
vn 1 0 0
vn 1 0 0
vn -1 0 0
vn -1 0 0
vn -1 0 0
vn -1 0 0
vn 0 0 1
vn 0 0 1
vn 0 0 1
vn 0 0 1
vn 0 -0.2134138 -0.9769619
vn 0 -0.2134138 -0.9769619
vn 0 -0.2134138 -0.9769619
vn 0 -0.2134138 -0.9769619
vn 0 -0.9733639 -0.2292652
vn 0 -0.9733639 -0.2292652
vn 0 -0.9733639 -0.2292652
vn 0 -0.9733639 -0.2292652
vn 1 0 0
vn 1 0 0
vn 1 0 0
vn 1 0 0
vn 1 0 0
vn -1 0 0
vn -1 0 0
vn -1 0 0
vn -1 0 0
vn -1 0 0
vn 0 1 0
vn 0 1 0
vn 0 1 0
vn 0 1 0
vn -0.9238782 0 0.3826865
vn -0.9238782 0 0.3826865
vn -0.9238782 0 0.3826865
vn -0.9238782 0 0.3826865
vn -0.382678 0 0.9238819
vn -0.382678 0 0.9238819
vn -0.382678 0 0.9238819
vn -0.382678 0 0.9238819
vn 0.382678 0 0.9238819
vn 0.382678 0 0.9238819
vn 0.382678 0 0.9238819
vn 0.382678 0 0.9238819
vn 0.9238782 0 0.3826865
vn 0.9238782 0 0.3826865
vn 0.9238782 0 0.3826865
vn 0.9238782 0 0.3826865
vn 0 -1 0
vn 0 -1 0
vn 0 -1 0
vn 0 -1 0
vn 0 -1 0
vn 0 -1 0
vn 0 -1 0
vn 0 -1 0
vn 0 1 0
vn 0 1 0
vn 0 1 0
vn 0 1 0
vn 0 1 0
vn 0 1 0
vn 0 1 0
vn 0 1 0
vn 0 1 0
vn 0 1 0
vn 0 1 0
vn 0 1 0
g SM_Prop_Laptop_Folding_02_0
f 3/3/3 2/2/2 1/1/1
f 4/4/4 3/3/3 1/1/1
f 7/7/7 6/6/6 5/5/5
f 8/8/8 7/7/7 5/5/5
f 11/11/11 10/10/10 9/9/9
f 12/12/12 11/11/11 9/9/9
f 15/15/15 14/14/14 13/13/13
f 16/16/16 15/15/15 13/13/13
f 19/19/19 18/18/18 17/17/17
f 20/20/20 19/19/19 17/17/17
f 23/23/23 22/22/22 21/21/21
f 24/24/24 23/23/23 21/21/21
f 27/27/27 26/26/26 25/25/25
f 28/28/28 27/27/27 25/25/25
f 31/31/31 30/30/30 29/29/29
f 32/32/32 31/31/31 29/29/29
f 35/35/35 34/34/34 33/33/33
f 36/36/36 35/35/35 33/33/33
f 39/39/39 38/38/38 37/37/37
f 40/40/40 39/39/39 37/37/37
f 43/43/43 42/42/42 41/41/41
f 44/44/44 43/43/43 41/41/41
f 47/47/47 46/46/46 45/45/45
f 48/48/48 47/47/47 45/45/45
f 51/51/51 50/50/50 49/49/49
f 52/52/52 51/51/51 49/49/49
f 55/55/55 54/54/54 53/53/53
f 56/56/56 55/55/55 53/53/53
f 59/59/59 58/58/58 57/57/57
f 60/60/60 59/59/59 57/57/57
f 63/63/63 62/62/62 61/61/61
f 61/61/61 64/64/64 63/63/63
f 64/64/64 65/65/65 63/63/63
f 68/68/68 67/67/67 66/66/66
f 67/67/67 68/68/68 69/69/69
f 70/70/70 67/67/67 69/69/69
f 73/73/73 72/72/72 71/71/71
f 74/74/74 73/73/73 71/71/71
f 77/77/77 76/76/76 75/75/75
f 78/78/78 77/77/77 75/75/75
f 81/81/81 80/80/80 79/79/79
f 82/82/82 81/81/81 79/79/79
f 85/85/85 84/84/84 83/83/83
f 86/86/86 85/85/85 83/83/83
f 89/89/89 88/88/88 87/87/87
f 90/90/90 89/89/89 87/87/87
f 93/93/93 92/92/92 91/91/91
f 92/92/92 94/94/94 91/91/91
f 94/94/94 95/95/95 91/91/91
f 95/95/95 96/96/96 91/91/91
f 95/95/95 97/97/97 96/96/96
f 97/97/97 98/98/98 96/96/96
f 101/101/101 100/100/100 99/99/99
f 102/102/102 101/101/101 99/99/99
f 103/103/103 102/102/102 99/99/99
f 103/103/103 104/104/104 102/102/102
f 100/100/100 105/105/105 99/99/99
f 106/106/106 105/105/105 100/100/100
f 107/107/107 106/106/106 100/100/100
f 104/104/104 108/108/108 102/102/102
f 107/107/107 100/100/100 108/108/108
f 104/104/104 109/109/109 108/108/108
f 110/110/110 107/107/107 108/108/108
f 109/109/109 110/110/110 108/108/108
