g SM_Prop_Poster_06
v 0.08367719 -0.2671303 0.02277313
v -0.07150201 -0.2628262 0.04506714
v 0.08367167 -0.2654459 0.03687332
v -0.06912158 -0.2560715 0.05820633
v 0.08294553 -0.04305704 0.01174301
v -0.07685088 -0.08296354 0.01697067
v 0.08294553 -0.04305704 0
v -0.07685088 -0.08296354 0.005227661
v -0.07635009 -0.197843 0.03442368
v -0.07631417 -0.2089355 0.02065781
v 0.05285982 -0.2662841 0.03689377
v 0.04405671 -0.2674622 0.02277313
v 0.08280504 -5.722046E-08 0.01414032
v -0.07699176 -0.001338444 0.01414032
v -0.07699176 -0.001338444 0
v 0.08280504 -5.722046E-08 0
v 0.05285982 -0.2662841 0.03689377
v -0.06912158 -0.2560715 0.05820633
v -0.07635009 -0.197843 0.03442368
v -0.06912158 -0.2560715 0.05820633
v -0.07150201 -0.2628262 0.04506714
v 0.05285982 -0.2662841 0.03689377
v -0.07635009 -0.197843 0.03442368
v 0.04405671 -0.2674622 0.02277313
v -0.07631417 -0.2089355 0.02065781
v -0.07150201 -0.2628262 0.04506714
v -0.07635009 -0.197843 0.03442368
v -0.07631417 -0.2089355 0.02065781
v -0.07685088 -0.08296354 0.01697067
v 0.04405671 -0.2674622 0.02277313
v -0.07685088 -0.08296354 0.005227661
v -0.07631417 -0.2089355 0.02065781
v 0.08367167 -0.2654459 0.03687332
v 0.08294553 -0.04305704 0.01174301
v 0.08367719 -0.2671303 0.02277313
v 0.04405671 -0.2674622 0.02277313
v 0.05285982 -0.2662841 0.03689377
v 0.08367167 -0.2654459 0.03687332
v 0.08367719 -0.2671303 0.02277313
v 0.08294553 -0.04305704 0
v 0.08294553 -0.04305704 0.01174301
v -0.07685088 -0.08296354 0.01697067
v -0.07699176 -0.001338444 0.01414032
v 0.08280504 -5.722046E-08 0.01414032
v -0.07699176 -0.001338444 0
v -0.07699176 -0.001338444 0.01414032
v 0.08280504 -5.722046E-08 0
v -0.07699176 -0.001338444 0
v 0.08280504 -5.722046E-08 0.01414032
v 0.08280504 -5.722046E-08 0
vt 0.9995117 0.3276367
vt 0.96875 0.3276367
vt 0.9995117 0.3276367
vt 0.96875 0.3276367
vt 0.9995117 0.3669434
vt 0.96875 0.3598633
vt 0.9995117 0.3669434
vt 0.96875 0.3598633
vt 0.96875 0.3391113
vt 0.96875 0.3371582
vt 0.9936523 0.3276367
vt 0.9916992 0.3276367
vt 0.9995117 0.3747559
vt 0.96875 0.3747559
vt 0.96875 0.3747559
vt 0.9995117 0.3747559
vt 0.9936523 0.3276367
vt 0.96875 0.3276367
vt 0.96875 0.3391113
vt 0.96875 0.3276367
vt 0.96875 0.3276367
vt 0.9936523 0.3276367
vt 0.96875 0.3391113
vt 0.9916992 0.3276367
vt 0.96875 0.3371582
vt 0.96875 0.3276367
vt 0.96875 0.3391113
vt 0.96875 0.3371582
vt 0.96875 0.3598633
vt 0.9916992 0.3276367
vt 0.96875 0.3598633
vt 0.96875 0.3371582
vt 0.9995117 0.3276367
vt 0.9995117 0.3669434
vt 0.9995117 0.3276367
vt 0.9916992 0.3276367
vt 0.9936523 0.3276367
vt 0.9995117 0.3276367
vt 0.9995117 0.3276367
vt 0.9995117 0.3669434
vt 0.9995117 0.3669434
vt 0.96875 0.3598633
vt 0.96875 0.3747559
vt 0.9995117 0.3747559
vt 0.96875 0.3747559
vt 0.96875 0.3747559
vt 0.9995117 0.3747559
vt 0.96875 0.3747559
vt 0.9995117 0.3747559
vt 0.9995117 0.3747559
vn 1 0.003265381 0
vn -0.008110046 -0.9594727 0.2824707
vn 1 0.003265381 0
vn -0.008110046 -0.9594727 0.2824707
vn 1 0.003265381 0
vn 0.01236725 0.1174927 0.9931641
vn 1 0.003265381 0
vn -1 -0.003181458 0.0002534389
vn 0.1900635 0.3913574 0.9003906
vn -0.9912109 -0.05392456 0.1221313
vn -0.008110046 -0.9594727 0.2824707
vn -0.008110046 -0.9594727 0.2824707
vn -0.008377075 1 0
vn -0.008377075 1 0
vn -0.008377075 1 0
vn -0.008377075 1 0
vn 0.1900635 0.3913574 0.9003906
vn 0.1900635 0.3913574 0.9003906
vn -0.9912109 -0.05392456 0.1221313
vn -0.9912109 -0.05392456 0.1221313
vn -0.9912109 -0.05392456 0.1221313
vn 0.007720947 0.1143188 0.9936523
vn 0.06069946 0.1501465 0.9868164
vn -0.1882324 -0.4191895 -0.8881836
vn -0.1882324 -0.4191895 -0.8881836
vn -0.1882324 -0.4191895 -0.8881836
vn -1 -0.004245758 0.000439167
vn -1 -0.004245758 0.000439167
vn -1 -0.003322601 0.0002779961
vn -0.008842468 -0.1017456 -0.9946289
vn -0.01094055 -0.0848999 -0.9960938
vn -0.04171753 -0.1216431 -0.9916992
vn 0.003528595 0.1115112 0.9936523
vn 0.003528595 0.1115112 0.9936523
vn 0.01655579 -0.9951172 0.09576416
vn 0.01655579 -0.9951172 0.09576416
vn 0.01655579 -0.9951172 0.09576416
vn 0.01655579 -0.9951172 0.09576416
vn -0.005916595 -0.09997559 -0.9951172
vn -0.007850647 -0.07757568 -0.9970703
vn 0.01589966 0.003509521 1
vn 0.01589966 0.003509521 1
vn 0.01589966 0.003509521 1
vn 0.01589966 0.003509521 1
vn -1 -0.001726151 0
vn -1 -0.001726151 0
vn -0.01093292 -0.04190063 -0.9990234
vn -0.01093292 -0.04190063 -0.9990234
vn 1 0.003263474 0
vn 1 0.003263474 0
g SM_Prop_Poster_06_0
f 18/18/18 17/17/17 9/9/9
f 26/26/26 25/25/25 24/24/24
f 2/2/2 12/12/12 11/11/11
f 4/4/4 2/2/2 11/11/11
f 15/15/15 14/14/14 13/13/13
f 16/16/16 15/15/15 13/13/13
f 20/20/20 19/19/19 10/10/10
f 21/21/21 20/20/20 10/10/10
f 3/3/3 1/1/1 7/7/7
f 5/5/5 3/3/3 7/7/7
f 49/49/49 5/5/5 7/7/7
f 50/50/50 49/49/49 7/7/7
f 23/23/23 22/22/22 6/6/6
f 6/6/6 22/22/22 33/33/33
f 34/34/34 6/6/6 33/33/33
f 8/8/8 28/28/28 27/27/27
f 29/29/29 8/8/8 27/27/27
f 45/45/45 8/8/8 29/29/29
f 46/46/46 45/45/45 29/29/29
f 32/32/32 31/31/31 30/30/30
f 30/30/30 31/31/31 39/39/39
f 31/31/31 40/40/40 39/39/39
f 47/47/47 40/40/40 31/31/31
f 48/48/48 47/47/47 31/31/31
f 37/37/37 36/36/36 35/35/35
f 38/38/38 37/37/37 35/35/35
f 43/43/43 42/42/42 41/41/41
f 44/44/44 43/43/43 41/41/41
