g SM_Prop_CardboardBox_06
v -0.322549 0 0.2762975
v 0.322549 0 0.322549
v -0.322549 0.645098 0.322549
v 0.3216593 0.6301328 0.3216593
v -0.321041 0.6197316 -0.321041
v 0.322549 0.645098 -0.322549
v -0.322549 0 -0.322549
v 0.322549 0 -0.2823009
v 1.033783E-05 0.645098 0.3131796
v 1.033783E-05 0.645098 -0.3131796
v 0.01305365 0.6658548 -0.3131796
v 0.0130538 0.6658548 0.3131796
v -0.01303306 0.6658548 0.3131796
v -0.01303313 0.6658548 -0.3131796
v -0.322549 0.5955344 0.322549
v 0.3196025 0.5955344 0.3196025
v 0.322549 0.5955345 -0.322549
v -0.3196025 0.5955345 -0.3196025
v -0.322549 0.5311268 0.322549
v 0.322549 0.5311268 0.322549
v 0.322549 0.5311267 -0.322549
v -0.322549 0.5311267 -0.322549
v -0.322549 0 -0.1290196
v -0.322549 0 0.1290196
v -0.322549 0.09044459 -0.1290196
v -0.322549 0.09044471 0.1290196
v 0.322549 0 -0.1290196
v 0.322549 0 0.1290196
v 0.322549 0.09044471 0.1290196
v 0.322549 0.09044459 -0.1290196
v 0.0283092 0.0542504 0.322549
v 0.2827562 0.0542504 0.322549
v 0.2827562 0.2375034 0.322549
v 0.0283092 0.2375034 0.322549
v -0.02570505 0.3517326 -0.322549
v -0.2082309 0.3296728 -0.322549
v -0.007542746 0.2014539 -0.322549
v -0.1900685 0.1793941 -0.322549
v 0.3224598 0.4933965 0.2025002
v 0.3224598 0.4237715 0.2025002
v 0.3224598 0.4237715 0.06250014
v 0.3224598 0.4933965 0.0625001
v -0.2555934 0 0.322549
v -0.322549 0.04617745 0.322549
v 0.2720245 0 -0.322549
v 0.322549 0.03942647 -0.322549
v -0.2956456 0.6457245 -0.3220121
v -0.322549 0.645098 -0.225509
v 0.2903199 0.6458858 0.321897
v 0.322549 0.645098 0.2089227
v -0.322549 0.645098 0.322549
v 0.3196025 0.5955344 0.3196025
v 0.3216593 0.6301328 0.3216593
v -0.322549 0.645098 0.322549
v -0.322549 0.5955344 0.322549
v -0.322549 0.645098 -0.225509
v -0.322549 0.645098 0.322549
v 0.2903199 0.6458858 0.321897
v 0.322549 0.645098 -0.322549
v 0.322549 0.645098 0.2089227
v 0.2903199 0.6458858 0.321897
v 0.01305365 0.6658548 -0.3131796
v 0.0130538 0.6658548 0.3131796
v 1.033783E-05 0.645098 0.3131796
v 1.033783E-05 0.645098 0.3131796
v 0.0130538 0.6658548 0.3131796
v 0.2903199 0.6458858 0.321897
v 0.322549 0.645098 -0.322549
v 0.01305365 0.6658548 -0.3131796
v 1.033783E-05 0.645098 -0.3131796
v -0.322549 0.645098 0.322549
v -0.01303306 0.6658548 0.3131796
v 1.033783E-05 0.645098 0.3131796
v 1.033783E-05 0.645098 0.3131796
v -0.01303306 0.6658548 0.3131796
v -0.01303313 0.6658548 -0.3131796
v 1.033783E-05 0.645098 -0.3131796
v 1.033783E-05 0.645098 -0.3131796
v -0.01303313 0.6658548 -0.3131796
v -0.2956456 0.6457245 -0.3220121
v -0.322549 0.5955344 0.322549
v 0.3196025 0.5955344 0.3196025
v 0.322549 0.5311268 0.322549
v 0.3196025 0.5955344 0.3196025
v 0.322549 0.5955345 -0.322549
v -0.3196025 0.5955345 -0.3196025
v 0.322549 0.5311267 -0.322549
v 0.322549 0.5955345 -0.322549
v -0.322549 0.5311267 -0.322549
v -0.3196025 0.5955345 -0.3196025
v -0.322549 0.5955344 0.322549
v -0.322549 0.5311268 0.322549
v -0.322549 0.5311267 -0.322549
v -0.322549 0.5311268 0.322549
v 0.322549 0.5311268 0.322549
v 0.322549 0 0.1290196
v -0.322549 0 -0.1290196
v -0.322549 0 0.1290196
v -0.322549 0.09044459 -0.1290196
v -0.322549 0.09044471 0.1290196
v -0.322549 0 0.1290196
v -0.322549 0 -0.1290196
v 0.322549 0 -0.1290196
v 0.322549 0.5311267 -0.322549
v 0.322549 0.09044471 0.1290196
v 0.322549 0.09044459 -0.1290196
v 0.322549 0 -0.1290196
v 0.322549 0 0.1290196
v 0.322549 0 0.322549
v 0.322549 0 0.1290196
v -0.322549 0 0.1290196
v -0.322549 0 0.1290196
v -0.322549 0 0.2762975
v 0.322549 0 0.322549
v -0.322549 0 0.2762975
v 0.322549 0 0.322549
v 0.322549 0 -0.2823009
v -0.322549 0 -0.322549
v -0.322549 0 -0.1290196
v -0.322549 0 -0.1290196
v 0.322549 0 -0.1290196
v 0.322549 0 -0.2823009
v 0.322549 0 0.322549
v 0.2827562 0.0542504 0.322549
v 0.2827562 0.2375034 0.322549
v 0.322549 0.5311268 0.322549
v 0.0283092 0.2375034 0.322549
v -0.322549 0.5311268 0.322549
v -0.322549 0.5311268 0.322549
v 0.0283092 0.2375034 0.322549
v 0.0283092 0.0542504 0.322549
v 0.0283092 0.0542504 0.322549
v -0.2555934 0 0.322549
v -0.322549 0.5311268 0.322549
v -0.322549 0.04617745 0.322549
v -0.322549 0.5311267 -0.322549
v -0.2082309 0.3296728 -0.322549
v -0.02570505 0.3517326 -0.322549
v 0.322549 0.5311267 -0.322549
v 0.2720245 0 -0.322549
v 0.322549 0.03942647 -0.322549
v -0.007542746 0.2014539 -0.322549
v -0.322549 0 -0.322549
v -0.1900685 0.1793941 -0.322549
v 0.3224598 0.4237715 0.2025002
v 0.3224598 0.4237715 0.06250014
v 0.3224598 0.4933965 0.0625001
v 0.3224598 0.4933965 0.2025002
v -0.2555934 0 0.322549
v -0.322549 0 0.2762975
v -0.322549 0.04617745 0.322549
v 0.2720245 0 -0.322549
v 0.322549 0 -0.2823009
v 0.322549 0.03942647 -0.322549
v -0.322549 0.645098 -0.225509
v -0.321041 0.6197316 -0.321041
v -0.2956456 0.6457245 -0.3220121
v -0.3196025 0.5955345 -0.3196025
v 0.322549 0.5955345 -0.322549
v 0.322549 0.645098 -0.322549
v -0.2956456 0.6457245 -0.3220121
v -0.321041 0.6197316 -0.321041
v -0.2956456 0.6457245 -0.3220121
v 0.322549 0.645098 -0.322549
v 1.033783E-05 0.645098 -0.3131796
v 0.322549 0.645098 0.2089227
v 0.3216593 0.6301328 0.3216593
v 0.2903199 0.6458858 0.321897
vt 0.03903198 0.302002
vt 0.03845215 0.3110352
vt 0.03909302 0.3291016
vt 0.03842163 0.3151855
vt 0.03869629 0.3166504
vt 0.03811646 0.3291016
vt 0.03866577 0.3105469
vt 0.03817749 0.3017578
vt 0.03872681 0.3044434
vt 0.03842163 0.3044434
vt 0.03842163 0.3291016
vt 0.03872681 0.3291016
vt 0.03872681 0.3291016
vt 0.03842163 0.3291016
vt 0.03909302 0.3291016
vt 0.03842163 0.3293457
vt 0.03811646 0.3291016
vt 0.03866577 0.3291016
vt 0.07977295 0.284668
vt 0.08026123 0.2783203
vt 0.08074951 0.2783203
vt 0.08032227 0.2783203
vt 0.08129883 0.2590332
vt 0.08068848 0.2590332
vt 0.03875732 0.3295898
vt 0.03890991 0.329834
vt 0.08074951 0.2595215
vt 0.08026123 0.2595215
vt 0.0383606 0.329834
vt 0.03823853 0.329834
vt 0.2941895 0.2512207
vt 0.3171387 0.2512207
vt 0.3171387 0.2702637
vt 0.2941895 0.2702637
vt 0.3186035 0.2702637
vt 0.3408203 0.2702637
vt 0.3186035 0.2590332
vt 0.3408203 0.2590332
vt 0.2944336 0.2797852
vt 0.2944336 0.2692871
vt 0.3173828 0.2692871
vt 0.3173828 0.2797852
vt 0.03900146 0.3037109
vt 0.03903198 0.3032227
vt 0.03817749 0.3024902
vt 0.03814697 0.3029785
vt 0.03866577 0.3129883
vt 0.03875732 0.3149414
vt 0.03845215 0.3132324
vt 0.0383606 0.3156738
vt 0.03909302 0.3291016
vt 0.03842163 0.3293457
vt 0.03842163 0.3151855
vt 0.03909302 0.3291016
vt 0.03909302 0.3291016
vt 0.03875732 0.3149414
vt 0.03909302 0.3291016
vt 0.03845215 0.3132324
vt 0.03811646 0.3291016
vt 0.0383606 0.3156738
vt 0.03845215 0.3132324
vt 0.03842163 0.3291016
vt 0.03872681 0.3291016
vt 0.03872681 0.3044434
vt 0.03872681 0.3044434
vt 0.03872681 0.3291016
vt 0.03845215 0.3132324
vt 0.03811646 0.3291016
vt 0.03842163 0.3291016
vt 0.03842163 0.3044434
vt 0.03909302 0.3291016
vt 0.03872681 0.3291016
vt 0.03872681 0.3044434
vt 0.03872681 0.3044434
vt 0.03872681 0.3291016
vt 0.03842163 0.3291016
vt 0.03842163 0.3044434
vt 0.03842163 0.3044434
vt 0.03842163 0.3291016
vt 0.03866577 0.3129883
vt 0.07977295 0.2783203
vt 0.08026123 0.2780762
vt 0.08026123 0.2783203
vt 0.08026123 0.2780762
vt 0.08081055 0.2783203
vt 0.08032227 0.2783203
vt 0.08074951 0.2783203
vt 0.08081055 0.2783203
vt 0.08032227 0.2783203
vt 0.08032227 0.2783203
vt 0.07977295 0.2783203
vt 0.07977295 0.284668
vt 0.03866577 0.3293457
vt 0.0390625 0.3359375
vt 0.03845215 0.3295898
vt 0.0383606 0.3110352
vt 0.03875732 0.3105469
vt 0.03890991 0.310791
vt 0.08129883 0.2780762
vt 0.08068848 0.277832
vt 0.08068848 0.2590332
vt 0.08129883 0.2590332
vt 0.03823853 0.310791
vt 0.03814697 0.3293457
vt 0.08026123 0.2783203
vt 0.08074951 0.2785645
vt 0.08074951 0.2595215
vt 0.08026123 0.2595215
vt 0.03845215 0.3110352
vt 0.0383606 0.3110352
vt 0.03890991 0.310791
vt 0.03890991 0.310791
vt 0.03903198 0.302002
vt 0.03845215 0.3110352
vt 0.03903198 0.302002
vt 0.03845215 0.3110352
vt 0.03817749 0.3017578
vt 0.03866577 0.3105469
vt 0.03875732 0.3105469
vt 0.03875732 0.3105469
vt 0.03823853 0.310791
vt 0.03817749 0.3017578
vt 0.03845215 0.3110352
vt 0.03845215 0.3300781
vt 0.03845215 0.3295898
vt 0.03845215 0.3295898
vt 0.0390625 0.3295898
vt 0.0390625 0.3359375
vt 0.0390625 0.3359375
vt 0.0390625 0.3295898
vt 0.03903198 0.329834
vt 0.03903198 0.329834
vt 0.03900146 0.3037109
vt 0.0390625 0.3359375
vt 0.03903198 0.3032227
vt 0.03866577 0.3293457
vt 0.03866577 0.3293457
vt 0.03814697 0.3293457
vt 0.03814697 0.3293457
vt 0.03817749 0.3024902
vt 0.03814697 0.3029785
vt 0.03814697 0.329834
vt 0.03866577 0.3105469
vt 0.03866577 0.3295898
vt 0.0383606 0.329834
vt 0.03823853 0.329834
vt 0.03814697 0.3293457
vt 0.03845215 0.3295898
vt 0.03900146 0.3037109
vt 0.03903198 0.302002
vt 0.03903198 0.3032227
vt 0.03817749 0.3024902
vt 0.03817749 0.3017578
vt 0.03814697 0.3029785
vt 0.03875732 0.3149414
vt 0.03869629 0.3166504
vt 0.03866577 0.3129883
vt 0.03866577 0.3291016
vt 0.03811646 0.3291016
vt 0.03811646 0.3291016
vt 0.03866577 0.3129883
vt 0.03869629 0.3166504
vt 0.03866577 0.3129883
vt 0.03811646 0.3291016
vt 0.03842163 0.3044434
vt 0.0383606 0.3156738
vt 0.03842163 0.3151855
vt 0.03845215 0.3132324
vn -1 0 0
vn 1 0 0
vn 0.001063347 0 1
vn -0.02160645 -0.05804443 0.9980469
vn -0.9980469 -0.05935669 0
vn 1 -0.0002218485 0.001376152
vn -1 0 0
vn 1 0 0
vn -0.001333237 0.9990234 -0.04589844
vn -0.8466797 0.5322266 0
vn 0.06689453 0.9975586 0
vn 0.06713867 0.9975586 0.0005965233
vn -0.06689453 0.9975586 0
vn -0.0670166 0.9975586 -0.0004296303
vn 0.002012253 0.01612854 1
vn 0.002656937 0.009414673 1
vn 1 0.01620483 0.002059937
vn -1 0.01014709 -0.001977921
vn 0.0007228851 0.007240295 1
vn 0.0005679131 0.005687714 1
vn 1 0.008354187 0.0009655952
vn -0.0008683205 0.00869751 -1
vn 0 -1 0
vn 0 -1 0
vn -1 0 0
vn -1 0 0
vn 0 -1 0
vn 0 -1 0
vn 1 0.0001037121 -1.198053E-05
vn 1 9.995699E-05 7.969141E-05
vn 0 0 1
vn 0 0 1
vn 0 0 1
vn 0 0 1
vn 0 0 -1
vn 0 0 -1
vn 0 0 -1
vn 0 0 -1
vn 1 -0.001524925 -8.940697E-05
vn 1 0.0003070831 -0.0003495216
vn 1 0.0001555681 0.0001552105
vn 1 -0.0004456043 0.0001834631
vn 0 -1 0
vn -1 0 0
vn 0 -1 0
vn 1 0 0
vn -0.07061768 0.9975586 -0.01321411
vn -0.06719971 0.9975586 -0.0009965897
vn 0.004211426 -0.04147339 0.9990234
vn 0.9980469 -0.05935669 0
vn -0.06689453 0.9975586 0
vn 1 0.005344391 0.002779007
vn 0.9985352 -0.05551147 0.004249573
vn -1 -0.00138855 -0.004482269
vn -1 0.01657104 -0.002925873
vn -0.9980469 -0.05935669 0
vn -0.001333237 0.9990234 -0.04589844
vn -0.001333237 0.9990234 -0.04589844
vn 0.06689453 0.9975586 0
vn 0.06726074 0.9975586 0.001074791
vn 0.07141113 0.9975586 0.01341248
vn -0.8466797 0.5322266 0
vn -0.8466797 0.5322266 0
vn -0.8466797 0.5322266 0
vn -0.03005981 0.01889038 0.9995117
vn -0.03005981 0.01889038 0.9995117
vn -0.03005981 0.01889038 0.9995117
vn -0.02903748 0.01824951 -0.9995117
vn -0.02903748 0.01824951 -0.9995117
vn -0.02903748 0.01824951 -0.9995117
vn 0.02902222 0.01824951 0.9995117
vn 0.02902222 0.01824951 0.9995117
vn 0.02902222 0.01824951 0.9995117
vn 0.8466797 0.5322266 0
vn 0.8466797 0.5322266 0
vn 0.8466797 0.5322266 0
vn 0.8466797 0.5322266 0
vn 0.02989197 0.01878357 -0.9995117
vn 0.02989197 0.01878357 -0.9995117
vn 0.02989197 0.01878357 -0.9995117
vn 0.002012253 0.01612854 1
vn 0.002656937 0.009414673 1
vn 1 0.01424408 0.001333237
vn 1 0.005344391 0.002779007
vn 1 0.01620483 0.002059937
vn -0.002012253 0.008880615 -1
vn -0.0007796288 0.007808685 -1
vn -0.002925873 0.01657104 -1
vn -1 0.004554749 -0.0004546642
vn -1 0.01014709 -0.001977921
vn -1 0.01657104 -0.002925873
vn -1 0.004741669 -0.0004734993
vn -1 0.004554749 -0.0004546642
vn -1 0.004741669 -0.0004734993
vn 1 0.01424408 0.001333237
vn 1 0 0
vn -1 0 0
vn -1 0 0
vn -1 0 0
vn -1 0 0
vn -1 0 0
vn -1 0 0
vn 1 0 0
vn 1 0.008354187 0.0009655952
vn 1 0.0001037121 -1.198053E-05
vn 1 9.995699E-05 7.969141E-05
vn 1 0 0
vn 1 0 0
vn 0 -1 0
vn 0 -1 0
vn 0 -1 0
vn 0 -1 0
vn 0 -1 0
vn 0 -1 0
vn 0 -1 0
vn 0 -1 0
vn 0 -1 0
vn 0 -1 0
vn 0 -1 0
vn 0 -1 0
vn 0 -1 0
vn 0 -1 0
vn 0 0 1
vn 0 0 1
vn 0 0 1
vn 0.0005679131 0.005687714 1
vn 0 0 1
vn 0.0007228851 0.007240295 1
vn 0.0007228851 0.007240295 1
vn 0 0 1
vn 0 0 1
vn 0 0 1
vn 0 0 1
vn 0.0007228851 0.007240295 1
vn 0 0 1
vn -0.0008683205 0.00869751 -1
vn 0 0 -1
vn 0 0 -1
vn -0.0007796288 0.007808685 -1
vn 0 0 -1
vn 0 0 -1
vn 0 0 -1
vn 0 0 -1
vn 0 0 -1
vn 1 0.0003070831 -0.0003495216
vn 1 0.0001555681 0.0001552105
vn 1 -0.0004456043 0.0001834631
vn 1 -0.001524925 -8.940697E-05
vn -0.4387207 -0.6357422 0.6347656
vn -0.4387207 -0.6357422 0.6347656
vn -0.4387207 -0.6357422 0.6347656
vn 0.4868164 -0.6240234 -0.6113281
vn 0.4868164 -0.6240234 -0.6113281
vn 0.4868164 -0.6240234 -0.6113281
vn -0.7055664 0.6821289 -0.1922607
vn -0.7055664 0.6821289 -0.1922607
vn -0.7055664 0.6821289 -0.1922607
vn -0.002012253 0.008880615 -1
vn -0.002925873 0.01657104 -1
vn -0.00440979 -0.002309799 -1
vn -0.0008397102 -0.04754639 -0.9990234
vn 0.02127075 -0.05807495 -0.9980469
vn 0.001044273 0.9995117 0.03594971
vn 0.001044273 0.9995117 0.03594971
vn 0.001044273 0.9995117 0.03594971
vn 0.4465332 0.8867188 0.1212158
vn 0.4465332 0.8867188 0.1212158
vn 0.4465332 0.8867188 0.1212158
g SM_Prop_CardboardBox_06_0
f 58/58/58 9/9/9 57/57/57
f 67/67/67 66/66/66 65/65/65
f 70/70/70 69/69/69 68/68/68
f 73/73/73 72/72/72 71/71/71
f 80/80/80 79/79/79 78/78/78
f 111/111/111 110/110/110 109/109/109
f 114/114/114 113/113/113 112/112/112
f 116/116/116 43/43/43 115/115/115
f 122/122/122 121/121/121 120/120/120
f 131/131/131 130/130/130 129/129/129
f 151/151/151 150/150/150 149/149/149
f 154/154/154 153/153/153 152/152/152
f 157/157/157 156/156/156 155/155/155
f 165/165/165 164/164/164 163/163/163
f 168/168/168 167/167/167 166/166/166
f 16/16/16 4/4/4 49/49/49
f 49/49/49 15/15/15 16/16/16
f 49/49/49 3/3/3 15/15/15
f 14/14/14 47/47/47 48/48/48
f 48/48/48 13/13/13 14/14/14
f 48/48/48 51/51/51 13/13/13
f 28/28/28 24/24/24 23/23/23
f 27/27/27 28/28/28 23/23/23
f 53/53/53 52/52/52 17/17/17
f 17/17/17 6/6/6 53/53/53
f 6/6/6 50/50/50 53/53/53
f 18/18/18 55/55/55 54/54/54
f 54/54/54 5/5/5 18/18/18
f 54/54/54 56/56/56 5/5/5
f 60/60/60 59/59/59 11/11/11
f 11/11/11 12/12/12 60/60/60
f 12/12/12 61/61/61 60/60/60
f 63/63/63 62/62/62 10/10/10
f 64/64/64 63/63/63 10/10/10
f 76/76/76 75/75/75 74/74/74
f 77/77/77 76/76/76 74/74/74
f 82/82/82 81/81/81 19/19/19
f 20/20/20 82/82/82 19/19/19
f 85/85/85 84/84/84 83/83/83
f 21/21/21 85/85/85 83/83/83
f 87/87/87 22/22/22 86/86/86
f 88/88/88 87/87/87 86/86/86
f 91/91/91 90/90/90 89/89/89
f 92/92/92 91/91/91 89/89/89
f 41/41/41 42/42/42 39/39/39
f 40/40/40 41/41/41 39/39/39
f 33/33/33 34/34/34 31/31/31
f 32/32/32 33/33/33 31/31/31
f 96/96/96 29/29/29 2/2/2
f 29/29/29 95/95/95 2/2/2
f 29/29/29 145/145/145 95/95/95
f 145/145/145 148/148/148 95/95/95
f 146/146/146 145/145/145 29/29/29
f 95/95/95 148/148/148 104/104/104
f 30/30/30 146/146/146 29/29/29
f 148/148/148 147/147/147 104/104/104
f 147/147/147 146/146/146 30/30/30
f 104/104/104 147/147/147 30/30/30
f 46/46/46 104/104/104 30/30/30
f 46/46/46 30/30/30 103/103/103
f 103/103/103 8/8/8 46/46/46
f 37/37/37 38/38/38 36/36/36
f 35/35/35 37/37/37 36/36/36
f 97/97/97 25/25/25 7/7/7
f 25/25/25 93/93/93 7/7/7
f 25/25/25 26/26/26 93/93/93
f 26/26/26 94/94/94 93/93/93
f 44/44/44 94/94/94 26/26/26
f 44/44/44 26/26/26 98/98/98
f 98/98/98 1/1/1 44/44/44
f 101/101/101 100/100/100 99/99/99
f 102/102/102 101/101/101 99/99/99
f 107/107/107 106/106/106 105/105/105
f 108/108/108 107/107/107 105/105/105
f 118/118/118 45/45/45 117/117/117
f 117/117/117 119/119/119 118/118/118
f 128/128/128 127/127/127 126/126/126
f 127/127/127 125/125/125 126/126/126
f 126/126/126 125/125/125 123/123/123
f 125/125/125 124/124/124 123/123/123
f 123/123/123 124/124/124 133/133/133
f 124/124/124 132/132/132 133/133/133
f 134/134/134 133/133/133 132/132/132
f 134/134/134 135/135/135 133/133/133
f 139/139/139 141/141/141 140/140/140
f 140/140/140 138/138/138 139/139/139
f 139/139/139 138/138/138 136/136/136
f 140/140/140 142/142/142 138/138/138
f 138/138/138 137/137/137 136/136/136
f 144/144/144 142/142/142 140/140/140
f 136/136/136 137/137/137 143/143/143
f 143/143/143 144/144/144 140/140/140
f 137/137/137 144/144/144 143/143/143
f 160/160/160 159/159/159 158/158/158
f 158/158/158 161/161/161 160/160/160
f 158/158/158 162/162/162 161/161/161
