g SM_Prop_Book_Group_05
v -0.1468445 0 -0.1655103
v 0.1772534 0 -0.1253992
v 0.1772534 0.01129639 -0.1253992
v 0.1772534 0.06428711 -0.1253992
v 0.1772534 0.07558715 -0.1253992
v -0.1468445 0.07558715 -0.1655103
v -0.1673657 0.1511743 -0.1642798
v 0.1587903 0.1511743 -0.1692627
v 0.1587903 0.1624707 -0.1692627
v 0.1587903 0.2154614 -0.1692627
v 0.1587903 0.2267615 -0.1692627
v -0.1673657 0.2267615 -0.1642798
v -0.1845227 0.07558715 -0.112301
v 0.1364087 0.07558715 -0.1757654
v 0.1364087 0.08688354 -0.1757654
v 0.1364087 0.1398743 -0.1757654
v 0.1364087 0.1511743 -0.1757654
v -0.1845227 0.1511743 -0.112301
v -0.1468445 0.07558715 -0.1655103
v 0.1772534 0.07558715 -0.1253992
v 0.1468445 0.07558715 0.1655103
v -0.1772546 0.07558715 0.1253992
v 0.1772534 0 -0.1253992
v -0.1468445 0 -0.1655103
v -0.1772546 0 0.1253992
v 0.1468445 0 0.1655103
v -0.1468445 0 -0.1655103
v -0.1468445 0.07558715 -0.1655103
v -0.1772546 0.07558715 0.1253992
v -0.1772546 0 0.1253992
v -0.1772546 0.07558715 0.1253992
v 0.1468445 0.07558715 0.1655103
v 0.1468445 0 0.1655103
v -0.1772546 0 0.1253992
v -0.1468445 0 -0.1655103
v 0.1772534 0.01129639 -0.1253992
v 0.1772534 0.06428711 -0.1253992
v -0.1468445 0.07558715 -0.1655103
v 0.1772534 0.07558715 -0.1253992
v 0.1772534 0.06428711 -0.1253992
v 0.1486072 0.06428711 0.1486548
v 0.1468445 0.07558715 0.1655103
v 0.1486072 0.01129639 0.1486536
v 0.1468445 0 0.1655103
v 0.1772534 0.01129639 -0.1253992
v 0.1772534 0 -0.1253992
v 0.1772534 0.06428711 -0.1253992
v 0.1772534 0.01129639 -0.1253992
v 0.1486072 0.01129639 0.1486536
v 0.1486072 0.06428711 0.1486548
v -0.1673657 0.2267615 -0.1642798
v 0.1587903 0.2267615 -0.1692627
v 0.1625684 0.2267615 0.1234936
v -0.1635889 0.2267615 0.1284753
v 0.1587903 0.1511743 -0.1692627
v -0.1673657 0.1511743 -0.1642798
v -0.1635889 0.1511743 0.1284753
v 0.1625684 0.1511743 0.1234936
v -0.1673657 0.1511743 -0.1642798
v -0.1673657 0.2267615 -0.1642798
v -0.1635889 0.2267615 0.1284753
v -0.1635889 0.1511743 0.1284753
v -0.1635889 0.2267615 0.1284753
v 0.1625684 0.2267615 0.1234936
v 0.1625684 0.1511743 0.1234936
v -0.1635889 0.1511743 0.1284753
v -0.1673657 0.1511743 -0.1642798
v 0.1587903 0.1624707 -0.1692627
v 0.1587903 0.2154614 -0.1692627
v -0.1673657 0.2267615 -0.1642798
v 0.1587903 0.2267615 -0.1692627
v 0.1587903 0.2154614 -0.1692627
v 0.1623498 0.2154614 0.1065295
v 0.1625684 0.2267615 0.1234936
v 0.1623498 0.1624707 0.1065283
v 0.1625684 0.1511743 0.1234936
v 0.1587903 0.1624707 -0.1692627
v 0.1587903 0.1511743 -0.1692627
v 0.1587903 0.2154614 -0.1692627
v 0.1587903 0.1624707 -0.1692627
v 0.1623498 0.1624707 0.1065283
v 0.1623498 0.2154614 0.1065295
v -0.1845227 0.1511743 -0.112301
v 0.1364087 0.1511743 -0.1757654
v 0.1845227 0.1511743 0.112301
v -0.1364087 0.1511743 0.1757654
v 0.1364087 0.07558715 -0.1757654
v -0.1845227 0.07558715 -0.112301
v -0.1364087 0.07558715 0.1757654
v 0.1845227 0.07558715 0.112301
v -0.1845227 0.07558715 -0.112301
v -0.1845227 0.1511743 -0.112301
v -0.1364087 0.1511743 0.1757654
v -0.1364087 0.07558715 0.1757654
v -0.1364087 0.1511743 0.1757654
v 0.1845227 0.1511743 0.112301
v 0.1845227 0.07558715 0.112301
v -0.1364087 0.07558715 0.1757654
v -0.1845227 0.07558715 -0.112301
v 0.1364087 0.08688354 -0.1757654
v 0.1364087 0.1398743 -0.1757654
v -0.1845227 0.1511743 -0.112301
v 0.1364087 0.1511743 -0.1757654
v 0.1364087 0.1398743 -0.1757654
v 0.1817358 0.1398743 0.09560913
v 0.1845227 0.1511743 0.112301
v 0.1817358 0.08688354 0.09560913
v 0.1845227 0.07558715 0.112301
v 0.1364087 0.08688354 -0.1757654
v 0.1364087 0.07558715 -0.1757654
v 0.1364087 0.1398743 -0.1757654
v 0.1364087 0.08688354 -0.1757654
v 0.1817358 0.08688354 0.09560913
v 0.1817358 0.1398743 0.09560913
vt 0.1591951 0.4680004
vt 0.1591951 0.4680004
vt 0.1591951 0.4680004
vt 0.1591951 0.4680004
vt 0.1591951 0.4680004
vt 0.1591951 0.4680004
vt 0.1591951 0.4680004
vt 0.1591951 0.4680004
vt 0.1591951 0.4680004
vt 0.1591951 0.4680004
vt 0.1591951 0.4680004
vt 0.1591951 0.4680004
vt 0.1591951 0.4680004
vt 0.1591951 0.4680004
vt 0.1591951 0.4680004
vt 0.1591951 0.4680004
vt 0.1591951 0.4680004
vt 0.1591951 0.4680004
vt 0.1591951 0.4680004
vt 0.1591951 0.4680004
vt 0.1591951 0.4680005
vt 0.1591951 0.4680004
vt 0.1591951 0.4680004
vt 0.1591951 0.4680004
vt 0.1591951 0.4680004
vt 0.1591951 0.4680004
vt 0.03759766 0.3748212
vt 0.03759766 0.3748212
vt 0.03759766 0.3748212
vt 0.03759766 0.3748212
vt 0.1591951 0.4680004
vt 0.1591951 0.4680005
vt 0.1591951 0.4680004
vt 0.1591951 0.4680004
vt 0.03759766 0.3748212
vt 0.03759766 0.3748207
vt 0.03759766 0.3748207
vt 0.03759766 0.3748212
vt 0.1591951 0.4680004
vt 0.1591951 0.4680004
vt 0.1591951 0.4680004
vt 0.1591951 0.4680005
vt 0.1591951 0.4680004
vt 0.1591951 0.4680004
vt 0.1591951 0.4680004
vt 0.1591951 0.4680004
vt 0.03930664 0.3721695
vt 0.03930664 0.3721695
vt 0.03930664 0.3721695
vt 0.03930664 0.3721695
vt 0.1591951 0.4680004
vt 0.1591951 0.4680004
vt 0.1591951 0.4680005
vt 0.1591951 0.4680004
vt 0.1591951 0.4680004
vt 0.1591951 0.4680004
vt 0.1591951 0.4680004
vt 0.1591951 0.4680004
vt 0.03759766 0.3748212
vt 0.03759766 0.3748212
vt 0.03759766 0.3748212
vt 0.03759766 0.3748212
vt 0.1591951 0.4680004
vt 0.1591951 0.4680005
vt 0.1591951 0.4680004
vt 0.1591951 0.4680004
vt 0.03759766 0.3748212
vt 0.03759766 0.3748207
vt 0.03759766 0.3748207
vt 0.03759766 0.3748212
vt 0.1591951 0.4680004
vt 0.1591951 0.4680004
vt 0.1591951 0.4680004
vt 0.1591951 0.4680005
vt 0.1591951 0.4680004
vt 0.1591951 0.4680004
vt 0.1591951 0.4680004
vt 0.1591951 0.4680004
vt 0.03930664 0.3721695
vt 0.03930664 0.3721695
vt 0.03930664 0.3721695
vt 0.03930664 0.3721695
vt 0.1591951 0.4680004
vt 0.1591951 0.4680004
vt 0.1591951 0.4680005
vt 0.1591951 0.4680004
vt 0.1591951 0.4680004
vt 0.1591951 0.4680004
vt 0.1591951 0.4680004
vt 0.1591951 0.4680004
vt 0.03759766 0.3748212
vt 0.03759766 0.3748212
vt 0.03759766 0.3748212
vt 0.03759766 0.3748212
vt 0.1591951 0.4680004
vt 0.1591951 0.4680005
vt 0.1591951 0.4680004
vt 0.1591951 0.4680004
vt 0.03759766 0.3748212
vt 0.03759766 0.3748207
vt 0.03759766 0.3748207
vt 0.03759766 0.3748212
vt 0.1591951 0.4680004
vt 0.1591951 0.4680004
vt 0.1591951 0.4680004
vt 0.1591951 0.4680005
vt 0.1591951 0.4680004
vt 0.1591951 0.4680004
vt 0.1591951 0.4680004
vt 0.1591951 0.4680004
vt 0.03930664 0.3721695
vt 0.03930664 0.3721695
vt 0.03930664 0.3721695
vt 0.03930664 0.3721695
vn 0.1228252 0 -0.9924284
vn 0.1228252 0 -0.9924284
vn 0.1228252 0 -0.9924284
vn 0.1228252 0 -0.9924284
vn 0.1228252 0 -0.9924284
vn 0.1228252 0 -0.9924284
vn -0.01527591 0 -0.9998833
vn -0.01527591 0 -0.9998833
vn -0.01527591 0 -0.9998833
vn -0.01527591 0 -0.9998833
vn -0.01527591 0 -0.9998833
vn -0.01527591 0 -0.9998833
vn -0.1939938 0 -0.9810027
vn -0.1939938 0 -0.9810027
vn -0.1939938 0 -0.9810027
vn -0.1939938 0 -0.9810027
vn -0.1939938 0 -0.9810027
vn -0.1939938 0 -0.9810027
vn 0 1 0
vn 0 1 0
vn 0 1 0
vn 0 1 0
vn 0 -1 0
vn 0 -1 0
vn 0 -1 0
vn 0 -1 0
vn -0.9945806 0 -0.1039683
vn -0.9945806 0 -0.1039683
vn -0.9945806 0 -0.1039683
vn -0.9945806 0 -0.1039683
vn -0.1228247 0 0.9924284
vn -0.1228247 0 0.9924284
vn -0.1228247 0 0.9924284
vn -0.1228247 0 0.9924284
vn 0.1228252 0 -0.9924284
vn 0.1228252 0 -0.9924284
vn 0.1228252 0 -0.9924284
vn 0.1228252 0 -0.9924284
vn 0.9945812 3.553865E-05 0.1039628
vn 0.9945813 1.716844E-05 0.1039622
vn 0.9945798 1.111649E-05 0.1039768
vn 0.994579 1.727561E-05 0.1039845
vn 0.9945798 -1.063783E-05 0.1039769
vn 0.994579 -1.535585E-05 0.1039846
vn 0.9945813 -1.546303E-05 0.1039623
vn 0.9945812 -2.972429E-05 0.103963
vn 0.9945813 1.716844E-05 0.1039622
vn 0.9945813 -1.546303E-05 0.1039623
vn 0.9945798 -1.063783E-05 0.1039769
vn 0.9945798 1.111649E-05 0.1039768
vn 0 1 0
vn 0 1 0
vn 0 1 0
vn 0 1 0
vn 0 -1 0
vn 0 -1 0
vn 0 -1 0
vn 0 -1 0
vn -0.9999168 0 0.0129
vn -0.9999168 0 0.0129
vn -0.9999168 0 0.0129
vn -0.9999168 0 0.0129
vn 0.01527211 0 0.9998834
vn 0.01527211 0 0.9998834
vn 0.01527211 0 0.9998834
vn 0.01527211 0 0.9998834
vn -0.01527591 0 -0.9998833
vn -0.01527591 0 -0.9998833
vn -0.01527591 0 -0.9998833
vn -0.01527591 0 -0.9998833
vn 0.9999168 1.910269E-05 -0.01290485
vn 0.9999168 9.626384E-06 -0.01290526
vn 0.9999169 6.417589E-06 -0.01289649
vn 0.9999169 9.551346E-06 -0.0128919
vn 0.9999169 -6.557179E-06 -0.0128965
vn 0.9999169 -9.910807E-06 -0.01289191
vn 0.9999168 -9.835769E-06 -0.01290527
vn 0.9999168 -1.982161E-05 -0.01290488
vn 0.9999168 9.626384E-06 -0.01290526
vn 0.9999168 -9.835769E-06 -0.01290527
vn 0.9999169 -6.557179E-06 -0.0128965
vn 0.9999169 6.417589E-06 -0.01289649
vn 0 1 0
vn 0 1 0
vn 0 1 0
vn 0 1 0
vn 0 -1 0
vn 0 -1 0
vn 0 -1 0
vn 0 -1 0
vn -0.9863366 0 0.1647419
vn -0.9863366 0 0.1647419
vn -0.9863366 0 0.1647419
vn -0.9863366 0 0.1647419
vn 0.1939938 0 0.9810027
vn 0.1939938 0 0.9810027
vn 0.1939938 0 0.9810027
vn 0.1939938 0 0.9810027
vn -0.1939938 0 -0.9810027
vn -0.1939938 0 -0.9810027
vn -0.1939938 0 -0.9810027
vn -0.1939938 0 -0.9810027
vn 0.9863364 4.856694E-05 -0.1647438
vn 0.9863362 2.428347E-05 -0.1647448
vn 0.9863398 1.618898E-05 -0.1647231
vn 0.9863418 2.428347E-05 -0.1647118
vn 0.9863398 -1.619423E-05 -0.1647231
vn 0.9863418 -2.429134E-05 -0.1647118
vn 0.9863362 -2.429134E-05 -0.1647448
vn 0.9863364 -4.858269E-05 -0.1647438
vn 0.9863362 2.428347E-05 -0.1647448
vn 0.9863362 -2.429134E-05 -0.1647448
vn 0.9863398 -1.619423E-05 -0.1647231
vn 0.9863398 1.618898E-05 -0.1647231
g SM_Prop_Book_Group_05_0
f 3/3/3 2/2/2 1/1/1
f 6/6/6 5/5/5 4/4/4
f 9/9/9 8/8/8 7/7/7
f 12/12/12 11/11/11 10/10/10
f 15/15/15 14/14/14 13/13/13
f 18/18/18 17/17/17 16/16/16
f 21/21/21 20/20/20 19/19/19
f 22/22/22 21/21/21 19/19/19
f 25/25/25 24/24/24 23/23/23
f 26/26/26 25/25/25 23/23/23
f 29/29/29 28/28/28 27/27/27
f 30/30/30 29/29/29 27/27/27
f 33/33/33 32/32/32 31/31/31
f 34/34/34 33/33/33 31/31/31
f 37/37/37 36/36/36 35/35/35
f 38/38/38 37/37/37 35/35/35
f 41/41/41 40/40/40 39/39/39
f 42/42/42 41/41/41 39/39/39
f 41/41/41 42/42/42 43/43/43
f 42/42/42 44/44/44 43/43/43
f 43/43/43 44/44/44 45/45/45
f 44/44/44 46/46/46 45/45/45
f 49/49/49 48/48/48 47/47/47
f 50/50/50 49/49/49 47/47/47
f 53/53/53 52/52/52 51/51/51
f 54/54/54 53/53/53 51/51/51
f 57/57/57 56/56/56 55/55/55
f 58/58/58 57/57/57 55/55/55
f 61/61/61 60/60/60 59/59/59
f 62/62/62 61/61/61 59/59/59
f 65/65/65 64/64/64 63/63/63
f 66/66/66 65/65/65 63/63/63
f 69/69/69 68/68/68 67/67/67
f 70/70/70 69/69/69 67/67/67
f 73/73/73 72/72/72 71/71/71
f 74/74/74 73/73/73 71/71/71
f 73/73/73 74/74/74 75/75/75
f 74/74/74 76/76/76 75/75/75
f 75/75/75 76/76/76 77/77/77
f 76/76/76 78/78/78 77/77/77
f 81/81/81 80/80/80 79/79/79
f 82/82/82 81/81/81 79/79/79
f 85/85/85 84/84/84 83/83/83
f 86/86/86 85/85/85 83/83/83
f 89/89/89 88/88/88 87/87/87
f 90/90/90 89/89/89 87/87/87
f 93/93/93 92/92/92 91/91/91
f 94/94/94 93/93/93 91/91/91
f 97/97/97 96/96/96 95/95/95
f 98/98/98 97/97/97 95/95/95
f 101/101/101 100/100/100 99/99/99
f 102/102/102 101/101/101 99/99/99
f 105/105/105 104/104/104 103/103/103
f 106/106/106 105/105/105 103/103/103
f 105/105/105 106/106/106 107/107/107
f 106/106/106 108/108/108 107/107/107
f 107/107/107 108/108/108 109/109/109
f 108/108/108 110/110/110 109/109/109
f 113/113/113 112/112/112 111/111/111
f 114/114/114 113/113/113 111/111/111
