g SM_Prop_Book_Group_01
v 0.06312574 0.02017582 -0.1288107
v 0.1748619 0.2761137 -0.1288107
v 0.1662331 0.27954 -0.1288107
v 0.2153352 0.2600418 -0.1288107
v 0.1208585 -0.002749596 -0.1288107
v 0.2239661 0.2566146 -0.1288107
v -0.3974432 0 -0.1288107
v -0.386775 0.2790862 -0.1288107
v -0.3974432 0.2790862 -0.1288107
v -0.3367378 0.2790862 -0.1288107
v -0.3260687 0 -0.1288107
v -0.3260687 0.2790862 -0.1288107
v -0.452942 0 -0.1116867
v -0.4449739 0.2531484 -0.1116867
v -0.452942 0.2531484 -0.1116867
v -0.4075981 0.2531484 -0.1116867
v -0.399628 0 -0.1116867
v -0.399628 0.2531484 -0.1116867
v 0.1478725 0.01628799 -0.1129643
v 0.2419118 0.2792361 -0.1129643
v 0.23307 0.2820672 -0.1129643
v 0.2833858 0.2659559 -0.1129643
v 0.2070333 -0.002655182 -0.1129643
v 0.2922296 0.263124 -0.1129643
v 0.2284934 0.0142449 -0.1288107
v 0.306874 0.2822721 -0.1288107
v 0.2978807 0.2845779 -0.1288107
v 0.3490589 0.2714564 -0.1288107
v 0.2886671 -0.001182899 -0.1288107
v 0.3580543 0.26915 -0.1288107
v 0.2984837 0.01985093 -0.1233982
v 0.4075859 0.2768701 -0.1233982
v 0.399616 0.2799684 -0.1233982
v 0.4449693 0.2623354 -0.1233982
v 0.3518094 -0.0008822584 -0.1233982
v 0.452942 0.2592352 -0.1233982
v 0.1208585 -0.002749596 -0.1288107
v 0.1208585 -0.002749596 0.1116877
v 0.2239661 0.2566146 0.1116877
v 0.2239661 0.2566146 -0.1288107
v 0.1662331 0.27954 -0.1288107
v 0.1662331 0.27954 0.1116877
v 0.06312574 0.02017582 0.1116877
v 0.06312574 0.02017582 -0.1288107
v 0.06312574 0.02017582 -0.1288107
v 0.06312574 0.02017582 0.1116877
v 0.1208585 -0.002749596 0.1116877
v 0.1208585 -0.002749596 -0.1288107
v 0.1208585 -0.002749596 0.1116877
v 0.06312574 0.02017582 0.1116877
v 0.1662331 0.27954 0.1116877
v 0.2239661 0.2566146 0.1116877
v 0.06312574 0.02017582 -0.1288107
v 0.1208585 -0.002749596 -0.1288107
v 0.2153352 0.2600418 -0.1288107
v 0.1748619 0.2761137 -0.1288107
v 0.2239661 0.2566146 -0.1288107
v 0.2153352 0.2600418 0.09775367
v 0.2153352 0.2600418 -0.1288107
v 0.2239661 0.2566146 0.1116877
v 0.1748619 0.2761137 0.09775267
v 0.1662331 0.27954 0.1116877
v 0.1748619 0.2761137 -0.1288107
v 0.1662331 0.27954 -0.1288107
v 0.2153352 0.2600418 -0.1288107
v 0.2153352 0.2600418 0.09775367
v 0.1748619 0.2761137 0.09775267
v 0.1748619 0.2761137 -0.1288107
v -0.3260687 0 -0.1288107
v -0.3260687 0 0.1116877
v -0.3260687 0.2790862 0.1116877
v -0.3260687 0.2790862 -0.1288107
v -0.3974432 0.2790862 -0.1288107
v -0.3974432 0.2790862 0.1116877
v -0.3974432 0 0.1116877
v -0.3974432 0 -0.1288107
v -0.3974432 0 -0.1288107
v -0.3974432 0 0.1116877
v -0.3260687 0 0.1116877
v -0.3260687 0 -0.1288107
v -0.3260687 0 0.1116877
v -0.3974432 0 0.1116877
v -0.3974432 0.2790862 0.1116877
v -0.3260687 0.2790862 0.1116877
v -0.3974432 0 -0.1288107
v -0.3260687 0 -0.1288107
v -0.3367378 0.2790862 -0.1288107
v -0.386775 0.2790862 -0.1288107
v -0.3260687 0.2790862 -0.1288107
v -0.3367378 0.2790862 0.09775367
v -0.3367378 0.2790862 -0.1288107
v -0.3260687 0.2790862 0.1116877
v -0.386775 0.2790862 0.09775267
v -0.3974432 0.2790862 0.1116877
v -0.386775 0.2790862 -0.1288107
v -0.3974432 0.2790862 -0.1288107
v -0.3367378 0.2790862 -0.1288107
v -0.3367378 0.2790862 0.09775367
v -0.386775 0.2790862 0.09775267
v -0.386775 0.2790862 -0.1288107
v -0.399628 0 -0.1116867
v -0.399628 0 0.1288106
v -0.399628 0.2531484 0.1288106
v -0.399628 0.2531484 -0.1116867
v -0.452942 0.2531484 -0.1116867
v -0.452942 0.2531484 0.1288106
v -0.452942 0 0.1288106
v -0.452942 0 -0.1116867
v -0.452942 0 -0.1116867
v -0.452942 0 0.1288106
v -0.399628 0 0.1288106
v -0.399628 0 -0.1116867
v -0.399628 0 0.1288106
v -0.452942 0 0.1288106
v -0.452942 0.2531484 0.1288106
v -0.399628 0.2531484 0.1288106
v -0.452942 0 -0.1116867
v -0.399628 0 -0.1116867
v -0.4075981 0.2531484 -0.1116867
v -0.4449739 0.2531484 -0.1116867
v -0.399628 0.2531484 -0.1116867
v -0.4075981 0.2531484 0.1148777
v -0.4075981 0.2531484 -0.1116867
v -0.399628 0.2531484 0.1288106
v -0.4449739 0.2531484 0.1148756
v -0.452942 0.2531484 0.1288106
v -0.4449739 0.2531484 -0.1116867
v -0.452942 0.2531484 -0.1116867
v -0.4075981 0.2531484 -0.1116867
v -0.4075981 0.2531484 0.1148777
v -0.4449739 0.2531484 0.1148756
v -0.4449739 0.2531484 -0.1116867
v 0.2070333 -0.002655182 -0.1129643
v 0.2070333 -0.002655182 0.1275351
v 0.2922296 0.263124 0.1275351
v 0.2922296 0.263124 -0.1129643
v 0.23307 0.2820672 -0.1129643
v 0.23307 0.2820672 0.1275351
v 0.1478725 0.01628799 0.1275351
v 0.1478725 0.01628799 -0.1129643
v 0.1478725 0.01628799 -0.1129643
v 0.1478725 0.01628799 0.1275351
v 0.2070333 -0.002655182 0.1275351
v 0.2070333 -0.002655182 -0.1129643
v 0.2070333 -0.002655182 0.1275351
v 0.1478725 0.01628799 0.1275351
v 0.23307 0.2820672 0.1275351
v 0.2922296 0.263124 0.1275351
v 0.1478725 0.01628799 -0.1129643
v 0.2070333 -0.002655182 -0.1129643
v 0.2833858 0.2659559 -0.1129643
v 0.2419118 0.2792361 -0.1129643
v 0.2922296 0.263124 -0.1129643
v 0.2833858 0.2659559 0.1136
v 0.2833858 0.2659559 -0.1129643
v 0.2922296 0.263124 0.1275351
v 0.2419118 0.2792361 0.1136
v 0.23307 0.2820672 0.1275351
v 0.2419118 0.2792361 -0.1129643
v 0.23307 0.2820672 -0.1129643
v 0.2833858 0.2659559 -0.1129643
v 0.2833858 0.2659559 0.1136
v 0.2419118 0.2792361 0.1136
v 0.2419118 0.2792361 -0.1129643
v 0.2886671 -0.001182899 -0.1288107
v 0.2886671 -0.001182899 0.1116877
v 0.3580543 0.26915 0.1116877
v 0.3580543 0.26915 -0.1288107
v 0.2978807 0.2845779 -0.1288107
v 0.2978807 0.2845779 0.1116877
v 0.2284934 0.0142449 0.1116877
v 0.2284934 0.0142449 -0.1288107
v 0.2284934 0.0142449 -0.1288107
v 0.2284934 0.0142449 0.1116877
v 0.2886671 -0.001182899 0.1116877
v 0.2886671 -0.001182899 -0.1288107
v 0.2886671 -0.001182899 0.1116877
v 0.2284934 0.0142449 0.1116877
v 0.2978807 0.2845779 0.1116877
v 0.3580543 0.26915 0.1116877
v 0.2284934 0.0142449 -0.1288107
v 0.2886671 -0.001182899 -0.1288107
v 0.3490589 0.2714564 -0.1288107
v 0.306874 0.2822721 -0.1288107
v 0.3580543 0.26915 -0.1288107
v 0.3490589 0.2714564 0.09775367
v 0.3490589 0.2714564 -0.1288107
v 0.3580543 0.26915 0.1116877
v 0.306874 0.2822721 0.09775267
v 0.2978807 0.2845779 0.1116877
v 0.306874 0.2822721 -0.1288107
v 0.2978807 0.2845779 -0.1288107
v 0.3490589 0.2714564 -0.1288107
v 0.3490589 0.2714564 0.09775367
v 0.306874 0.2822721 0.09775267
v 0.306874 0.2822721 -0.1288107
v 0.2984837 0.01985093 -0.1233982
v 0.3693384 0.2020925 0.1171002
v 0.2984837 0.01985093 0.1171002
v 0.399616 0.2799684 -0.1233982
v 0.3815379 0.2334701 0.1171002
v 0.399616 0.2799684 0.1171002
v 0.2984837 0.01985093 -0.1233982
v 0.2984837 0.01985093 0.1171002
v 0.3518094 -0.0008822584 0.1171002
v 0.3518094 -0.0008822584 -0.1233982
v 0.4348634 0.2127377 0.1171002
v 0.3815379 0.2334701 0.1171002
v 0.399616 0.2799684 0.1171002
v 0.452942 0.2592352 0.1171002
v 0.2984837 0.01985093 -0.1233982
v 0.3518094 -0.0008822584 -0.1233982
v 0.4449693 0.2623354 -0.1233982
v 0.4075859 0.2768701 -0.1233982
v 0.452942 0.2592352 -0.1233982
v 0.4449693 0.2623354 0.1031662
v 0.4449693 0.2623354 -0.1233982
v 0.452942 0.2592352 0.1171002
v 0.4075859 0.2768701 0.1031641
v 0.399616 0.2799684 0.1171002
v 0.4075859 0.2768701 -0.1233982
v 0.399616 0.2799684 -0.1233982
v 0.4449693 0.2623354 -0.1233982
v 0.4449693 0.2623354 0.1031662
v 0.4075859 0.2768701 0.1031641
v 0.4075859 0.2768701 -0.1233982
v 0.3518094 -0.0008822584 0.1171002
v 0.2984837 0.01985093 0.1171002
v 0.3693384 0.2020925 0.1171002
v 0.4226643 0.18136 0.1171002
v 0.4226643 0.18136 0.1171002
v 0.3693384 0.2020925 0.1171002
v 0.3815379 0.2334701 0.1171002
v 0.4348634 0.2127377 0.1171002
v 0.3518094 -0.0008822584 -0.1233982
v 0.3518094 -0.0008822584 0.1171002
v 0.4226643 0.18136 0.1171002
v 0.4348634 0.2127377 0.1171002
v 0.452942 0.2592352 -0.1233982
v 0.452942 0.2592352 0.1171002
vt 0.09189709 0.3274978
vt 0.09189709 0.3274978
vt 0.09189709 0.3274978
vt 0.09189709 0.3274978
vt 0.09189709 0.3274978
vt 0.09189709 0.3274978
vt 0.2022908 0.420196
vt 0.2022908 0.420196
vt 0.2022908 0.420196
vt 0.2022908 0.420196
vt 0.2022908 0.420196
vt 0.2022908 0.420196
vt 0.3082294 0.450731
vt 0.3082294 0.450731
vt 0.3082294 0.450731
vt 0.3082294 0.450731
vt 0.3082294 0.450731
vt 0.3082294 0.450731
vt 0.03807048 0.2774618
vt 0.03807048 0.2774618
vt 0.03807048 0.2774618
vt 0.03807048 0.2774618
vt 0.03807048 0.2774618
vt 0.03807048 0.2774618
vt 0.3675028 0.3993889
vt 0.3675028 0.3993889
vt 0.3675028 0.3993889
vt 0.3675028 0.3993889
vt 0.3675028 0.3993889
vt 0.3675028 0.3993889
vt 0.3401002 0.4903936
vt 0.3401002 0.4903936
vt 0.3401002 0.4903936
vt 0.3401002 0.4903936
vt 0.3401002 0.4903936
vt 0.3401002 0.4903936
vt 0.09189709 0.3274978
vt 0.09189709 0.3274978
vt 0.09189709 0.3274979
vt 0.09189709 0.3274978
vt 0.09189709 0.3274978
vt 0.09189709 0.3274978
vt 0.09189709 0.3274978
vt 0.09189709 0.3274978
vt 0.03759766 0.3748212
vt 0.03759766 0.3748212
vt 0.03759766 0.3748212
vt 0.03759766 0.3748212
vt 0.09189709 0.3274978
vt 0.09189709 0.3274978
vt 0.09189709 0.3274978
vt 0.09189709 0.3274979
vt 0.03759766 0.3748212
vt 0.03759766 0.3748212
vt 0.03759766 0.3748207
vt 0.03759766 0.3748207
vt 0.09189709 0.3274978
vt 0.09189709 0.3274978
vt 0.09189709 0.3274978
vt 0.09189709 0.3274979
vt 0.09189709 0.3274978
vt 0.09189709 0.3274978
vt 0.09189709 0.3274978
vt 0.09189709 0.3274978
vt 0.03930664 0.3721695
vt 0.03930664 0.3721695
vt 0.03930664 0.3721695
vt 0.03930664 0.3721695
vt 0.2022908 0.420196
vt 0.2022908 0.420196
vt 0.2022908 0.420196
vt 0.2022908 0.420196
vt 0.2022908 0.420196
vt 0.2022908 0.420196
vt 0.2022908 0.420196
vt 0.2022908 0.420196
vt 0.03759766 0.3748212
vt 0.03759766 0.3748212
vt 0.03759766 0.3748212
vt 0.03759766 0.3748212
vt 0.2022908 0.420196
vt 0.2022908 0.420196
vt 0.2022908 0.420196
vt 0.2022908 0.420196
vt 0.03759766 0.3748212
vt 0.03759766 0.3748212
vt 0.03759766 0.3748207
vt 0.03759766 0.3748207
vt 0.2022908 0.420196
vt 0.2022908 0.420196
vt 0.2022908 0.420196
vt 0.2022908 0.420196
vt 0.2022908 0.4201959
vt 0.2022908 0.420196
vt 0.2022908 0.420196
vt 0.2022908 0.420196
vt 0.03930664 0.3721695
vt 0.03930664 0.3721695
vt 0.03930664 0.3721695
vt 0.03930664 0.3721695
vt 0.3082294 0.450731
vt 0.3082294 0.450731
vt 0.3082294 0.4507311
vt 0.3082294 0.450731
vt 0.3082294 0.450731
vt 0.3082294 0.450731
vt 0.3082294 0.450731
vt 0.3082294 0.450731
vt 0.03759766 0.3748212
vt 0.03759766 0.3748212
vt 0.03759766 0.3748212
vt 0.03759766 0.3748212
vt 0.3082294 0.450731
vt 0.3082294 0.450731
vt 0.3082294 0.450731
vt 0.3082294 0.4507311
vt 0.03759766 0.3748212
vt 0.03759766 0.3748212
vt 0.03759766 0.3748207
vt 0.03759766 0.3748207
vt 0.3082294 0.450731
vt 0.3082294 0.450731
vt 0.3082294 0.450731
vt 0.3082294 0.4507311
vt 0.3082294 0.450731
vt 0.3082294 0.450731
vt 0.3082294 0.450731
vt 0.3082294 0.450731
vt 0.03930664 0.3721695
vt 0.03930664 0.3721695
vt 0.03930664 0.3721695
vt 0.03930664 0.3721695
vt 0.03807048 0.2774618
vt 0.03807048 0.2774618
vt 0.03807048 0.2774619
vt 0.03807048 0.2774618
vt 0.03807048 0.2774618
vt 0.03807048 0.2774618
vt 0.03807048 0.2774618
vt 0.03807048 0.2774618
vt 0.03759766 0.3748212
vt 0.03759766 0.3748212
vt 0.03759766 0.3748212
vt 0.03759766 0.3748212
vt 0.03807048 0.2774618
vt 0.03807048 0.2774618
vt 0.03807048 0.2774618
vt 0.03807048 0.2774619
vt 0.03759766 0.3748212
vt 0.03759766 0.3748212
vt 0.03759766 0.3748207
vt 0.03759766 0.3748207
vt 0.03807048 0.2774618
vt 0.03807048 0.2774618
vt 0.03807048 0.2774618
vt 0.03807048 0.2774619
vt 0.03807048 0.2774618
vt 0.03807048 0.2774618
vt 0.03807048 0.2774618
vt 0.03807048 0.2774618
vt 0.03930664 0.3721695
vt 0.03930664 0.3721695
vt 0.03930664 0.3721695
vt 0.03930664 0.3721695
vt 0.3675028 0.3993889
vt 0.3675028 0.3993889
vt 0.3675028 0.399389
vt 0.3675028 0.3993889
vt 0.3675028 0.3993889
vt 0.3675028 0.3993889
vt 0.3675028 0.3993889
vt 0.3675028 0.3993889
vt 0.03759766 0.3748212
vt 0.03759766 0.3748212
vt 0.03759766 0.3748212
vt 0.03759766 0.3748212
vt 0.3675028 0.3993889
vt 0.3675028 0.3993889
vt 0.3675028 0.3993889
vt 0.3675028 0.399389
vt 0.03759766 0.3748212
vt 0.03759766 0.3748212
vt 0.03759766 0.3748207
vt 0.03759766 0.3748207
vt 0.3675028 0.3993889
vt 0.3675028 0.3993889
vt 0.3675028 0.3993889
vt 0.3675028 0.399389
vt 0.3675028 0.3993889
vt 0.3675028 0.3993889
vt 0.3675028 0.3993889
vt 0.3675028 0.3993889
vt 0.03930664 0.3721695
vt 0.03930664 0.3721695
vt 0.03930664 0.3721695
vt 0.03930664 0.3721695
vt 0.3401002 0.4903936
vt 0.3401002 0.4903936
vt 0.3401002 0.4903936
vt 0.3401002 0.4903936
vt 0.3401002 0.4903936
vt 0.3401002 0.4903936
vt 0.03759766 0.3748212
vt 0.03759766 0.3748212
vt 0.03759766 0.3748212
vt 0.03759766 0.3748212
vt 0.3401002 0.4903936
vt 0.3401002 0.4903936
vt 0.3401002 0.4903936
vt 0.3401002 0.4903936
vt 0.03759766 0.3748212
vt 0.03759766 0.3748212
vt 0.03759766 0.3748207
vt 0.03759766 0.3748207
vt 0.3401002 0.4903936
vt 0.3401002 0.4903936
vt 0.3401002 0.4903936
vt 0.3401002 0.4903936
vt 0.3401002 0.4903935
vt 0.3401002 0.4903936
vt 0.3401002 0.4903936
vt 0.3401002 0.4903936
vt 0.03930664 0.3721695
vt 0.03930664 0.3721695
vt 0.03930664 0.3721695
vt 0.03930664 0.3721695
vt 0.3401002 0.4903936
vt 0.3401002 0.4903936
vt 0.3401002 0.4903936
vt 0.3401002 0.4903936
vt 0.1124642 0.4007708
vt 0.1124642 0.4007708
vt 0.1124642 0.4007708
vt 0.1124642 0.4007708
vt 0.3401002 0.4903936
vt 0.3401002 0.4903936
vt 0.3401002 0.4903936
vt 0.3401002 0.4903936
vt 0.3401002 0.4903936
vt 0.3401002 0.4903936
vn 0 0 -1
vn 0 0 -1
vn 0 0 -1
vn 0 0 -1
vn 0 0 -1
vn 0 0 -1
vn 0 0 -1
vn 0 0 -1
vn 0 0 -1
vn 0 0 -1
vn 0 0 -1
vn 0 0 -1
vn 0 0 -1
vn 0 0 -1
vn 0 0 -1
vn 0 0 -1
vn 0 0 -1
vn 0 0 -1
vn 0 0 -1
vn 0 0 -1
vn 0 0 -1
vn 0 0 -1
vn 0 0 -1
vn 0 0 -1
vn 0 0 -1
vn 0 0 -1
vn 0 0 -1
vn 0 0 -1
vn 0 0 -1
vn 0 0 -1
vn 0 0 -1
vn 0 0 -1
vn 0 0 -1
vn 0 0 -1
vn 0 0 -1
vn 0 0 -1
vn 0.9292631 -0.3694187 0
vn 0.9292631 -0.3694187 0
vn 0.9292631 -0.3694187 0
vn 0.9292631 -0.3694187 0
vn -0.9292632 0.3694184 0
vn -0.9292632 0.3694184 0
vn -0.9292632 0.3694184 0
vn -0.9292632 0.3694184 0
vn -0.3690621 -0.9294047 0
vn -0.3690621 -0.9294047 0
vn -0.3690621 -0.9294047 0
vn -0.3690621 -0.9294047 0
vn 0 0 1
vn 0 0 1
vn 0 0 1
vn 0 0 1
vn 0 0 -1
vn 0 0 -1
vn 0 0 -1
vn 0 0 -1
vn 0.3690558 0.9294072 0
vn 0.3690635 0.9294042 0
vn 0.3690643 0.9294038 0
vn 0.3690585 0.9294062 0
vn 0.3690605 0.9294055 0
vn 0.3690508 0.9294093 0
vn 0.3690622 0.9294047 0
vn 0.3690436 0.9294121 0
vn 0.3690643 0.9294038 0
vn 0.3690635 0.9294042 0
vn 0.3690605 0.9294055 0
vn 0.3690622 0.9294047 0
vn 1 0 0
vn 1 0 0
vn 1 0 0
vn 1 0 0
vn -1 0 0
vn -1 0 0
vn -1 0 0
vn -1 0 0
vn 0 -1 0
vn 0 -1 0
vn 0 -1 0
vn 0 -1 0
vn 0 0 1
vn 0 0 1
vn 0 0 1
vn 0 0 1
vn 0 0 -1
vn 0 0 -1
vn 0 0 -1
vn 0 0 -1
vn 0 1 0
vn 0 1 0
vn 0 1 0
vn 0 1 0
vn 0 1 0
vn 0 1 0
vn 0 1 0
vn 0 1 0
vn 0 1 0
vn 0 1 0
vn 0 1 0
vn 0 1 0
vn 1 0 0
vn 1 0 0
vn 1 0 0
vn 1 0 0
vn -1 0 0
vn -1 0 0
vn -1 0 0
vn -1 0 0
vn 0 -1 0
vn 0 -1 0
vn 0 -1 0
vn 0 -1 0
vn 0 0 1
vn 0 0 1
vn 0 0 1
vn 0 0 1
vn 0 0 -1
vn 0 0 -1
vn 0 0 -1
vn 0 0 -1
vn 0 1 0
vn 0 1 0
vn 0 1 0
vn 0 1 0
vn 0 1 0
vn 0 1 0
vn 0 1 0
vn 0 1 0
vn 0 1 0
vn 0 1 0
vn 0 1 0
vn 0 1 0
vn 0.9522712 -0.3052534 0
vn 0.9522712 -0.3052534 0
vn 0.9522712 -0.3052534 0
vn 0.9522712 -0.3052534 0
vn -0.95227 0.3052573 0
vn -0.95227 0.3052573 0
vn -0.95227 0.3052573 0
vn -0.95227 0.3052573 0
vn -0.3049469 -0.9523693 0
vn -0.3049469 -0.9523693 0
vn -0.3049469 -0.9523693 0
vn -0.3049469 -0.9523693 0
vn 0 0 1
vn 0 0 1
vn 0 0 1
vn 0 0 1
vn 0 0 -1
vn 0 0 -1
vn 0 0 -1
vn 0 0 -1
vn 0.3049583 0.9523658 0
vn 0.3049543 0.9523669 0
vn 0.304954 0.9523671 0
vn 0.3049562 0.9523664 0
vn 0.3049502 0.9523683 0
vn 0.3049454 0.9523699 0
vn 0.3049509 0.952368 0
vn 0.3049413 0.9523712 0
vn 0.304954 0.9523671 0
vn 0.3049543 0.9523669 0
vn 0.3049502 0.9523683 0
vn 0.3049509 0.952368 0
vn 0.9686026 -0.2486144 0
vn 0.9686026 -0.2486144 0
vn 0.9686026 -0.2486144 0
vn 0.9686026 -0.2486144 0
vn -0.9686025 0.2486145 0
vn -0.9686025 0.2486145 0
vn -0.9686025 0.2486145 0
vn -0.9686025 0.2486145 0
vn -0.248355 -0.9686691 0
vn -0.248355 -0.9686691 0
vn -0.248355 -0.9686691 0
vn -0.248355 -0.9686691 0
vn 0 0 1
vn 0 0 1
vn 0 0 1
vn 0 0 1
vn 0 0 -1
vn 0 0 -1
vn 0 0 -1
vn 0 0 -1
vn 0.2483595 0.9686679 0
vn 0.248356 0.9686688 0
vn 0.2483556 0.9686689 0
vn 0.248358 0.9686683 0
vn 0.2483553 0.9686691 0
vn 0.2483561 0.9686688 0
vn 0.2483551 0.9686691 0
vn 0.2483566 0.9686687 0
vn 0.2483556 0.9686689 0
vn 0.248356 0.9686688 0
vn 0.2483553 0.9686691 0
vn 0.2483551 0.9686691 0
vn -0.9320343 0.36237 0
vn -0.9320343 0.3623699 0
vn -0.9320342 0.3623704 0
vn -0.9320344 0.3623698 0
vn -0.9320345 0.3623696 0
vn -0.9320354 0.362367 0
vn -0.3623767 -0.9320318 0
vn -0.3623767 -0.9320318 0
vn -0.3623767 -0.9320318 0
vn -0.3623767 -0.9320318 0
vn 0 0 1
vn 0 0 1
vn 0 0 1
vn 0 0 1
vn 0 0 -1
vn 0 0 -1
vn 0 0 -1
vn 0 0 -1
vn 0.3624142 0.9320171 0
vn 0.3623852 0.9320284 0
vn 0.3623825 0.9320294 0
vn 0.362399 0.932023 1.064041E-05
vn 0.3623643 0.9320365 0
vn 0.3623477 0.932043 1.064727E-05
vn 0.3623675 0.9320353 0
vn 0.3623304 0.9320498 0
vn 0.3623825 0.9320294 0
vn 0.3623852 0.9320284 0
vn 0.3623643 0.9320365 0
vn 0.3623675 0.9320353 0
vn 0 0 1
vn 0 0 1
vn 0 0 1
vn 0 0 1
vn 0 0 1
vn 0 0 1
vn 0 0 1
vn 0 0 1
vn 0.9320343 -0.36237 0
vn 0.9320342 -0.3623703 0
vn 0.9320344 -0.36237 0
vn 0.9320339 -0.3623709 0
vn 0.9320343 -0.3623701 0
vn 0.9320306 -0.3623795 0
g SM_Prop_Book_Group_01_0
f 3/3/3 2/2/2 1/1/1
f 6/6/6 5/5/5 4/4/4
f 9/9/9 8/8/8 7/7/7
f 12/12/12 11/11/11 10/10/10
f 15/15/15 14/14/14 13/13/13
f 18/18/18 17/17/17 16/16/16
f 21/21/21 20/20/20 19/19/19
f 24/24/24 23/23/23 22/22/22
f 27/27/27 26/26/26 25/25/25
f 30/30/30 29/29/29 28/28/28
f 33/33/33 32/32/32 31/31/31
f 36/36/36 35/35/35 34/34/34
f 39/39/39 38/38/38 37/37/37
f 40/40/40 39/39/39 37/37/37
f 43/43/43 42/42/42 41/41/41
f 44/44/44 43/43/43 41/41/41
f 47/47/47 46/46/46 45/45/45
f 48/48/48 47/47/47 45/45/45
f 51/51/51 50/50/50 49/49/49
f 52/52/52 51/51/51 49/49/49
f 55/55/55 54/54/54 53/53/53
f 56/56/56 55/55/55 53/53/53
f 59/59/59 58/58/58 57/57/57
f 58/58/58 60/60/60 57/57/57
f 60/60/60 58/58/58 61/61/61
f 62/62/62 60/60/60 61/61/61
f 62/62/62 61/61/61 63/63/63
f 64/64/64 62/62/62 63/63/63
f 67/67/67 66/66/66 65/65/65
f 68/68/68 67/67/67 65/65/65
f 71/71/71 70/70/70 69/69/69
f 72/72/72 71/71/71 69/69/69
f 75/75/75 74/74/74 73/73/73
f 76/76/76 75/75/75 73/73/73
f 79/79/79 78/78/78 77/77/77
f 80/80/80 79/79/79 77/77/77
f 83/83/83 82/82/82 81/81/81
f 84/84/84 83/83/83 81/81/81
f 87/87/87 86/86/86 85/85/85
f 88/88/88 87/87/87 85/85/85
f 91/91/91 90/90/90 89/89/89
f 90/90/90 92/92/92 89/89/89
f 92/92/92 90/90/90 93/93/93
f 94/94/94 92/92/92 93/93/93
f 94/94/94 93/93/93 95/95/95
f 96/96/96 94/94/94 95/95/95
f 99/99/99 98/98/98 97/97/97
f 100/100/100 99/99/99 97/97/97
f 103/103/103 102/102/102 101/101/101
f 104/104/104 103/103/103 101/101/101
f 107/107/107 106/106/106 105/105/105
f 108/108/108 107/107/107 105/105/105
f 111/111/111 110/110/110 109/109/109
f 112/112/112 111/111/111 109/109/109
f 115/115/115 114/114/114 113/113/113
f 116/116/116 115/115/115 113/113/113
f 119/119/119 118/118/118 117/117/117
f 120/120/120 119/119/119 117/117/117
f 123/123/123 122/122/122 121/121/121
f 122/122/122 124/124/124 121/121/121
f 124/124/124 122/122/122 125/125/125
f 126/126/126 124/124/124 125/125/125
f 126/126/126 125/125/125 127/127/127
f 128/128/128 126/126/126 127/127/127
f 131/131/131 130/130/130 129/129/129
f 132/132/132 131/131/131 129/129/129
f 135/135/135 134/134/134 133/133/133
f 136/136/136 135/135/135 133/133/133
f 139/139/139 138/138/138 137/137/137
f 140/140/140 139/139/139 137/137/137
f 143/143/143 142/142/142 141/141/141
f 144/144/144 143/143/143 141/141/141
f 147/147/147 146/146/146 145/145/145
f 148/148/148 147/147/147 145/145/145
f 151/151/151 150/150/150 149/149/149
f 152/152/152 151/151/151 149/149/149
f 155/155/155 154/154/154 153/153/153
f 154/154/154 156/156/156 153/153/153
f 156/156/156 154/154/154 157/157/157
f 158/158/158 156/156/156 157/157/157
f 158/158/158 157/157/157 159/159/159
f 160/160/160 158/158/158 159/159/159
f 163/163/163 162/162/162 161/161/161
f 164/164/164 163/163/163 161/161/161
f 167/167/167 166/166/166 165/165/165
f 168/168/168 167/167/167 165/165/165
f 171/171/171 170/170/170 169/169/169
f 172/172/172 171/171/171 169/169/169
f 175/175/175 174/174/174 173/173/173
f 176/176/176 175/175/175 173/173/173
f 179/179/179 178/178/178 177/177/177
f 180/180/180 179/179/179 177/177/177
f 183/183/183 182/182/182 181/181/181
f 184/184/184 183/183/183 181/181/181
f 187/187/187 186/186/186 185/185/185
f 186/186/186 188/188/188 185/185/185
f 188/188/188 186/186/186 189/189/189
f 190/190/190 188/188/188 189/189/189
f 190/190/190 189/189/189 191/191/191
f 192/192/192 190/190/190 191/191/191
f 195/195/195 194/194/194 193/193/193
f 196/196/196 195/195/195 193/193/193
f 199/199/199 198/198/198 197/197/197
f 197/197/197 198/198/198 200/200/200
f 198/198/198 201/201/201 200/200/200
f 201/201/201 202/202/202 200/200/200
f 205/205/205 204/204/204 203/203/203
f 206/206/206 205/205/205 203/203/203
f 209/209/209 208/208/208 207/207/207
f 210/210/210 209/209/209 207/207/207
f 213/213/213 212/212/212 211/211/211
f 214/214/214 213/213/213 211/211/211
f 217/217/217 216/216/216 215/215/215
f 216/216/216 218/218/218 215/215/215
f 218/218/218 216/216/216 219/219/219
f 220/220/220 218/218/218 219/219/219
f 220/220/220 219/219/219 221/221/221
f 222/222/222 220/220/220 221/221/221
f 225/225/225 224/224/224 223/223/223
f 226/226/226 225/225/225 223/223/223
f 229/229/229 228/228/228 227/227/227
f 230/230/230 229/229/229 227/227/227
f 233/233/233 232/232/232 231/231/231
f 234/234/234 233/233/233 231/231/231
f 237/237/237 236/236/236 235/235/235
f 238/238/238 237/237/237 235/235/235
f 239/239/239 238/238/238 235/235/235
f 240/240/240 238/238/238 239/239/239
