g SM_Prop_Toilet_03_Flush
v -0.004326363 0.8308231 -0.007493485
v 0.004326344 0.8308231 -0.007493485
v 0.008653144 0.8308231 -8.535609E-09
v 0.004326344 0.8308231 0.007493468
v -0.004326363 0.8308231 0.007493468
v -0.008653144 0.8308231 -8.535609E-09
v -0.004326363 -0.04664958 -0.007493485
v 0.004326363 -0.04664958 -0.007493485
v 0.008653144 -0.04664958 -8.535609E-09
v 0.004326363 -0.04664958 0.007493468
v -0.004326363 -0.04664958 0.007493468
v -0.008653144 -0.04664958 -8.535609E-09
v -0.01007864 -0.05501628 -0.01745717
v 0.01007864 -0.05501628 -0.01745717
v 0.02015854 -0.05501628 -8.535609E-09
v 0.01007864 -0.05501628 0.0174571
v -0.01007864 -0.05501628 0.0174571
v -0.02015856 -0.05501628 -8.535609E-09
v -0.01007864 -0.07223079 -0.01745717
v 0.01007864 -0.07223079 -0.01745717
v 0.02015854 -0.07223079 -8.535609E-09
v 0.01007864 -0.07223079 0.0174571
v -0.01007864 -0.07223079 0.0174571
v -0.02015856 -0.07223079 -8.535609E-09
v -0.007278328 -0.07662348 -0.01260712
v 0.007278328 -0.07662348 -0.01260712
v 0.01455795 -0.07662348 -8.535609E-09
v 0.007278328 -0.07662348 0.01260703
v -0.007278328 -0.07662348 0.01260703
v -0.01455795 -0.07662348 -8.535609E-09
v -0.007278328 -0.08716929 -0.01260712
v 0.007278328 -0.08716929 -0.01260712
v 0.01455795 -0.08716929 -8.535609E-09
v 0.007278328 -0.08716929 0.01260703
v -0.007278328 -0.08716929 0.01260703
v -0.01455795 -0.08716929 -8.535609E-09
v -0.01243954 -0.1471784 -0.02154672
v 0.01243954 -0.1471784 -0.02154672
v 0.02488079 -0.1471784 1.053788E-08
v 0.01243954 -0.1471784 0.02154658
v -0.01243954 -0.1471784 0.02154658
v -0.02488079 -0.1471784 1.053788E-08
v -0.01243954 -0.1787562 -0.02154672
v 0.01243954 -0.1787562 -0.02154672
v 0.02488079 -0.1787562 1.053788E-08
v 0.01243954 -0.1787562 0.02154658
v -0.01243954 -0.1787562 0.02154658
v -0.02488079 -0.1787562 1.053788E-08
v -0.008159676 -0.2092514 -0.01413354
v 0.008159676 -0.2092514 -0.01413354
v 0.01632019 -0.2092514 -8.535609E-09
v 0.008159676 -0.2092514 0.01413339
v -0.008159676 -0.2092514 0.01413339
v -0.01632017 -0.2092514 -8.535609E-09
v 0 -0.2203869 -4.668258E-08
v 0.004326344 0.8308231 -0.007493485
v 0.004326363 -0.04664958 -0.007493485
v 0.008653144 0.8308231 -8.535609E-09
v 0.008653144 -0.04664958 -8.535609E-09
v 0.004326344 0.8308231 0.007493468
v 0.004326363 -0.04664958 0.007493468
v -0.004326363 0.8308231 0.007493468
v -0.004326363 -0.04664958 0.007493468
v -0.008653144 0.8308231 -8.535609E-09
v -0.008653144 -0.04664958 -8.535609E-09
v -0.004326363 -0.04664958 -0.007493485
v -0.004326363 0.8308231 -0.007493485
v -0.004326363 -0.04664958 -0.007493485
v 0.004326363 -0.04664958 -0.007493485
v 0.004326363 -0.04664958 -0.007493485
v 0.01007864 -0.05501628 -0.01745717
v 0.008653144 -0.04664958 -8.535609E-09
v 0.008653144 -0.04664958 -8.535609E-09
v 0.02015854 -0.05501628 -8.535609E-09
v 0.004326363 -0.04664958 0.007493468
v 0.004326363 -0.04664958 0.007493468
v 0.01007864 -0.05501628 0.0174571
v -0.004326363 -0.04664958 0.007493468
v -0.004326363 -0.04664958 0.007493468
v -0.01007864 -0.05501628 0.0174571
v -0.008653144 -0.04664958 -8.535609E-09
v -0.008653144 -0.04664958 -8.535609E-09
v -0.02015856 -0.05501628 -8.535609E-09
v -0.01007864 -0.05501628 -0.01745717
v -0.004326363 -0.04664958 -0.007493485
v -0.01007864 -0.05501628 -0.01745717
v 0.01007864 -0.05501628 -0.01745717
v 0.01007864 -0.05501628 -0.01745717
v 0.01007864 -0.07223079 -0.01745717
v 0.02015854 -0.05501628 -8.535609E-09
v 0.02015854 -0.05501628 -8.535609E-09
v 0.02015854 -0.07223079 -8.535609E-09
v 0.01007864 -0.05501628 0.0174571
v 0.01007864 -0.05501628 0.0174571
v 0.01007864 -0.07223079 0.0174571
v -0.01007864 -0.05501628 0.0174571
v -0.01007864 -0.05501628 0.0174571
v -0.01007864 -0.07223079 0.0174571
v -0.02015856 -0.05501628 -8.535609E-09
v -0.02015856 -0.05501628 -8.535609E-09
v -0.02015856 -0.07223079 -8.535609E-09
v -0.01007864 -0.07223079 -0.01745717
v -0.01007864 -0.05501628 -0.01745717
v -0.01007864 -0.07223079 -0.01745717
v 0.01007864 -0.07223079 -0.01745717
v 0.01007864 -0.07223079 -0.01745717
v 0.007278328 -0.07662348 -0.01260712
v 0.02015854 -0.07223079 -8.535609E-09
v 0.02015854 -0.07223079 -8.535609E-09
v 0.01455795 -0.07662348 -8.535609E-09
v 0.01007864 -0.07223079 0.0174571
v 0.01007864 -0.07223079 0.0174571
v 0.007278328 -0.07662348 0.01260703
v -0.01007864 -0.07223079 0.0174571
v -0.01007864 -0.07223079 0.0174571
v -0.007278328 -0.07662348 0.01260703
v -0.02015856 -0.07223079 -8.535609E-09
v -0.02015856 -0.07223079 -8.535609E-09
v -0.01455795 -0.07662348 -8.535609E-09
v -0.007278328 -0.07662348 -0.01260712
v -0.01007864 -0.07223079 -0.01745717
v -0.007278328 -0.07662348 -0.01260712
v 0.007278328 -0.07662348 -0.01260712
v 0.007278328 -0.07662348 -0.01260712
v 0.007278328 -0.08716929 -0.01260712
v 0.01455795 -0.07662348 -8.535609E-09
v 0.01455795 -0.07662348 -8.535609E-09
v 0.01455795 -0.08716929 -8.535609E-09
v 0.007278328 -0.07662348 0.01260703
v 0.007278328 -0.07662348 0.01260703
v 0.007278328 -0.08716929 0.01260703
v -0.007278328 -0.07662348 0.01260703
v -0.007278328 -0.07662348 0.01260703
v -0.007278328 -0.08716929 0.01260703
v -0.01455795 -0.07662348 -8.535609E-09
v -0.01455795 -0.07662348 -8.535609E-09
v -0.01455795 -0.08716929 -8.535609E-09
v -0.007278328 -0.08716929 -0.01260712
v -0.007278328 -0.07662348 -0.01260712
v -0.007278328 -0.08716929 -0.01260712
v 0.007278328 -0.08716929 -0.01260712
v 0.007278328 -0.08716929 -0.01260712
v 0.01243954 -0.1471784 -0.02154672
v 0.01455795 -0.08716929 -8.535609E-09
v 0.01455795 -0.08716929 -8.535609E-09
v 0.02488079 -0.1471784 1.053788E-08
v 0.007278328 -0.08716929 0.01260703
v 0.007278328 -0.08716929 0.01260703
v 0.01243954 -0.1471784 0.02154658
v -0.007278328 -0.08716929 0.01260703
v -0.007278328 -0.08716929 0.01260703
v -0.01243954 -0.1471784 0.02154658
v -0.01455795 -0.08716929 -8.535609E-09
v -0.01455795 -0.08716929 -8.535609E-09
v -0.02488079 -0.1471784 1.053788E-08
v -0.01243954 -0.1471784 -0.02154672
v -0.007278328 -0.08716929 -0.01260712
v -0.01243954 -0.1471784 -0.02154672
v 0.01243954 -0.1471784 -0.02154672
v 0.01243954 -0.1471784 -0.02154672
v 0.01243954 -0.1787562 -0.02154672
v 0.02488079 -0.1471784 1.053788E-08
v 0.02488079 -0.1471784 1.053788E-08
v 0.02488079 -0.1787562 1.053788E-08
v 0.01243954 -0.1471784 0.02154658
v 0.01243954 -0.1471784 0.02154658
v 0.01243954 -0.1787562 0.02154658
v -0.01243954 -0.1471784 0.02154658
v -0.01243954 -0.1471784 0.02154658
v -0.01243954 -0.1787562 0.02154658
v -0.02488079 -0.1471784 1.053788E-08
v -0.02488079 -0.1471784 1.053788E-08
v -0.02488079 -0.1787562 1.053788E-08
v -0.01243954 -0.1787562 -0.02154672
v -0.01243954 -0.1471784 -0.02154672
v -0.01243954 -0.1787562 -0.02154672
v 0.01243954 -0.1787562 -0.02154672
v 0.01243954 -0.1787562 -0.02154672
v 0.008159676 -0.2092514 -0.01413354
v 0.02488079 -0.1787562 1.053788E-08
v 0.02488079 -0.1787562 1.053788E-08
v 0.01632019 -0.2092514 -8.535609E-09
v 0.01243954 -0.1787562 0.02154658
v 0.01243954 -0.1787562 0.02154658
v 0.008159676 -0.2092514 0.01413339
v -0.01243954 -0.1787562 0.02154658
v -0.01243954 -0.1787562 0.02154658
v -0.008159676 -0.2092514 0.01413339
v -0.02488079 -0.1787562 1.053788E-08
v -0.02488079 -0.1787562 1.053788E-08
v -0.01632017 -0.2092514 -8.535609E-09
v -0.008159676 -0.2092514 -0.01413354
v -0.01243954 -0.1787562 -0.02154672
v -0.008159676 -0.2092514 -0.01413354
v 0.008159676 -0.2092514 -0.01413354
v 0.008159676 -0.2092514 -0.01413354
v 0 -0.2203869 -4.668258E-08
v 0.01632019 -0.2092514 -8.535609E-09
v 0.01632019 -0.2092514 -8.535609E-09
v 0 -0.2203869 -4.668258E-08
v 0.008159676 -0.2092514 0.01413339
v 0.008159676 -0.2092514 0.01413339
v 0 -0.2203869 -4.668258E-08
v -0.008159676 -0.2092514 0.01413339
v -0.008159676 -0.2092514 0.01413339
v 0 -0.2203869 -4.668258E-08
v -0.01632017 -0.2092514 -8.535609E-09
v -0.01632017 -0.2092514 -8.535609E-09
v 0 -0.2203869 -4.668258E-08
v -0.008159676 -0.2092514 -0.01413354
vt 0.05930424 0.229405
vt 0.05932594 0.229452
vt 0.05918425 0.2294748
vt 0.05902234 0.2294497
vt 0.05900395 0.2294026
vt 0.0591442 0.2293807
vt 0.05933029 0.2284941
vt 0.05935252 0.2285316
vt 0.05920947 0.2285497
vt 0.05904561 0.2285297
vt 0.05902678 0.2284923
vt 0.0591684 0.2284748
vt 0.01557095 0.252148
vt 0.01558234 0.2521886
vt 0.0154862 0.2522082
vt 0.01538058 0.252186
vt 0.01537333 0.2521456
vt 0.01546757 0.2521271
vt 0.01557554 0.2520564
vt 0.01558708 0.2520953
vt 0.01549037 0.2521141
vt 0.01538403 0.2520928
vt 0.01537667 0.252054
vt 0.01547147 0.2520364
vt 0.01555051 0.2520378
vt 0.01555847 0.2520655
vt 0.0154887 0.2520788
vt 0.01541202 0.2520638
vt 0.01540627 0.2520361
vt 0.01547499 0.2520233
vt 0.01555325 0.2519808
vt 0.01556127 0.2520078
vt 0.01549126 0.2520207
vt 0.01541428 0.252006
vt 0.01540847 0.2519791
vt 0.01547743 0.2519667
vt 0.01561861 0.2516407
vt 0.01563446 0.2516791
vt 0.01551168 0.2516978
vt 0.01537614 0.2516766
vt 0.01536705 0.2516384
vt 0.01548673 0.2516211
vt 0.01562785 0.2514605
vt 0.01564415 0.2514944
vt 0.01551999 0.251511
vt 0.01538272 0.2514923
vt 0.01537333 0.2514584
vt 0.01549433 0.2514432
vt 0.01559524 0.251287
vt 0.01560543 0.2513064
vt 0.01552348 0.2513157
vt 0.01543273 0.2513051
vt 0.01542564 0.2512859
vt 0.01550616 0.2512771
vt 0.01551761 0.2512291
vt 0.05932594 0.229452
vt 0.05935252 0.2285316
vt 0.05918425 0.2294748
vt 0.05920947 0.2285497
vt 0.05902234 0.2294497
vt 0.05904561 0.2285297
vt 0.05900395 0.2294026
vt 0.05902678 0.2284923
vt 0.0591442 0.2293807
vt 0.0591684 0.2284748
vt 0.05933029 0.2284941
vt 0.05930424 0.229405
vt 0.01551531 0.252203
vt 0.01551966 0.2522208
vt 0.01551966 0.2522208
vt 0.01558234 0.2521886
vt 0.01547875 0.2522292
vt 0.01547875 0.2522292
vt 0.0154862 0.2522082
vt 0.01543383 0.2522197
vt 0.01543383 0.2522197
vt 0.01538058 0.252186
vt 0.01543023 0.2522019
vt 0.01543023 0.2522019
vt 0.01537333 0.2521456
vt 0.01547082 0.2521937
vt 0.01547082 0.2521937
vt 0.01546757 0.2521271
vt 0.01557095 0.252148
vt 0.01551531 0.252203
vt 0.01557095 0.252148
vt 0.01558234 0.2521886
vt 0.01558234 0.2521886
vt 0.01558708 0.2520953
vt 0.0154862 0.2522082
vt 0.0154862 0.2522082
vt 0.01549037 0.2521141
vt 0.01538058 0.252186
vt 0.01538058 0.252186
vt 0.01538403 0.2520928
vt 0.01537333 0.2521456
vt 0.01537333 0.2521456
vt 0.01537667 0.252054
vt 0.01546757 0.2521271
vt 0.01546757 0.2521271
vt 0.01547147 0.2520364
vt 0.01557554 0.2520564
vt 0.01557095 0.252148
vt 0.01557554 0.2520564
vt 0.01558708 0.2520953
vt 0.01558708 0.2520953
vt 0.01555847 0.2520655
vt 0.01549037 0.2521141
vt 0.01549037 0.2521141
vt 0.0154887 0.2520788
vt 0.01538403 0.2520928
vt 0.01538403 0.2520928
vt 0.01541202 0.2520638
vt 0.01537667 0.252054
vt 0.01537667 0.252054
vt 0.01540627 0.2520361
vt 0.01547147 0.2520364
vt 0.01547147 0.2520364
vt 0.01547499 0.2520233
vt 0.01555051 0.2520378
vt 0.01557554 0.2520564
vt 0.01555051 0.2520378
vt 0.01555847 0.2520655
vt 0.01555847 0.2520655
vt 0.01556127 0.2520078
vt 0.0154887 0.2520788
vt 0.0154887 0.2520788
vt 0.01549126 0.2520207
vt 0.01541202 0.2520638
vt 0.01541202 0.2520638
vt 0.01541428 0.252006
vt 0.01540627 0.2520361
vt 0.01540627 0.2520361
vt 0.01540847 0.2519791
vt 0.01547499 0.2520233
vt 0.01547499 0.2520233
vt 0.01547743 0.2519667
vt 0.01555325 0.2519808
vt 0.01555051 0.2520378
vt 0.01555325 0.2519808
vt 0.01556127 0.2520078
vt 0.01556127 0.2520078
vt 0.01563446 0.2516791
vt 0.01549126 0.2520207
vt 0.01549126 0.2520207
vt 0.01551168 0.2516978
vt 0.01541428 0.252006
vt 0.01541428 0.252006
vt 0.01537614 0.2516766
vt 0.01540847 0.2519791
vt 0.01540847 0.2519791
vt 0.01536705 0.2516384
vt 0.01547743 0.2519667
vt 0.01547743 0.2519667
vt 0.01548673 0.2516211
vt 0.01561861 0.2516407
vt 0.01555325 0.2519808
vt 0.01561861 0.2516407
vt 0.01563446 0.2516791
vt 0.01563446 0.2516791
vt 0.01564415 0.2514944
vt 0.01551168 0.2516978
vt 0.01551168 0.2516978
vt 0.01551999 0.251511
vt 0.01537614 0.2516766
vt 0.01537614 0.2516766
vt 0.01538272 0.2514923
vt 0.01536705 0.2516384
vt 0.01536705 0.2516384
vt 0.01537333 0.2514584
vt 0.01548673 0.2516211
vt 0.01548673 0.2516211
vt 0.01549433 0.2514432
vt 0.01562785 0.2514605
vt 0.01561861 0.2516407
vt 0.01562785 0.2514605
vt 0.01564415 0.2514944
vt 0.01564415 0.2514944
vt 0.01560543 0.2513064
vt 0.01551999 0.251511
vt 0.01551999 0.251511
vt 0.01552348 0.2513157
vt 0.01538272 0.2514923
vt 0.01538272 0.2514923
vt 0.01543273 0.2513051
vt 0.01537333 0.2514584
vt 0.01537333 0.2514584
vt 0.01542564 0.2512859
vt 0.01549433 0.2514432
vt 0.01549433 0.2514432
vt 0.01550616 0.2512771
vt 0.01559524 0.251287
vt 0.01562785 0.2514605
vt 0.01559524 0.251287
vt 0.01560543 0.2513064
vt 0.01560543 0.2513064
vt 0.01551761 0.2512291
vt 0.01552348 0.2513157
vt 0.01552348 0.2513157
vt 0.01551761 0.2512291
vt 0.01543273 0.2513051
vt 0.01543273 0.2513051
vt 0.01551761 0.2512291
vt 0.01542564 0.2512859
vt 0.01542564 0.2512859
vt 0.01551761 0.2512291
vt 0.01550616 0.2512771
vt 0.01550616 0.2512771
vt 0.01551761 0.2512291
vt 0.01559524 0.251287
vn 0 0 -1
vn 0 0 -1
vn 0.8660039 0 -0.5000373
vn 0.8660039 0 0.5000373
vn 0 0 1
vn -0.8660043 0 0.5000365
vn 0 0 -1
vn 0 0 -1
vn 0.8660039 0 -0.5000373
vn 0.8660039 0 0.5000373
vn 0 0 1
vn -0.8660043 0 0.5000365
vn 0 0.7658107 -0.6430661
vn 0 0.7658107 -0.6430661
vn 0.556897 0.7658116 -0.3215564
vn 0.556897 0.7658111 0.3215571
vn 0 0.7658089 0.6430682
vn -0.5568966 0.7658114 0.3215573
vn 0 0 -1
vn 0 0 -1
vn 0.8660038 0 -0.5000373
vn 0.8660033 0 0.5000385
vn 0 0 1
vn -0.8660027 0 0.5000392
vn 0 -0.7411886 -0.6712968
vn 0 -0.7411886 -0.6712968
vn 0.5813335 -0.7411999 -0.3356698
vn 0.5813325 -0.7412001 0.3356708
vn 0 -0.7411899 0.6712954
vn -0.5813318 -0.7412007 0.3356707
vn 0 0 -1
vn 0 0 -1
vn 0.8659986 0 -0.5000466
vn 0.8659973 0 0.5000488
vn 0 0 1
vn -0.8659973 0 0.5000488
vn 0 0.1473447 -0.9890853
vn 0 0.1473447 -0.9890853
vn 0.8565494 0.1473462 -0.4945829
vn 0.856548 0.1473462 0.4945853
vn 0 0.147344 0.9890854
vn -0.856548 0.1473462 0.4945854
vn 0 0 -1
vn 0 0 -1
vn 0.8660038 0 -0.5000376
vn 0.8660022 0 0.5000402
vn 0 0 1
vn -0.8660022 0 0.5000402
vn 0 -0.2362144 -0.971701
vn 0 -0.2362144 -0.971701
vn 0.8414985 -0.2362203 -0.485881
vn 0.8414967 -0.2362207 0.4858838
vn 0 -0.2362149 0.9717008
vn -0.8414969 -0.236221 0.4858835
vn 0 -0.7854894 -0.618875
vn 0.8660039 0 -0.5000373
vn 0.8660039 0 -0.5000373
vn 0.8660039 0 0.5000373
vn 0.8660039 0 0.5000373
vn 0 0 1
vn 0 0 1
vn -0.8660043 0 0.5000365
vn -0.8660043 0 0.5000365
vn -0.8660043 0 -0.5000365
vn -0.8660043 0 -0.5000365
vn -0.8660043 0 -0.5000365
vn -0.8660043 0 -0.5000365
vn 0 0.7658107 -0.6430661
vn 0 0.7658107 -0.6430661
vn 0.556897 0.7658116 -0.3215564
vn 0.556897 0.7658116 -0.3215564
vn 0.556897 0.7658116 -0.3215564
vn 0.556897 0.7658111 0.3215572
vn 0.556897 0.7658111 0.3215572
vn 0.556897 0.7658111 0.3215572
vn 0 0.7658088 0.6430683
vn 0 0.7658089 0.6430682
vn 0 0.7658088 0.6430683
vn -0.5568966 0.7658114 0.3215573
vn -0.5568966 0.7658114 0.3215573
vn -0.5568966 0.7658114 0.3215573
vn -0.5568964 0.7658119 -0.3215565
vn -0.5568964 0.7658119 -0.3215565
vn -0.5568964 0.7658119 -0.3215565
vn -0.5568964 0.7658119 -0.3215565
vn 0 0 -1
vn 0 0 -1
vn 0.8660038 0 -0.5000373
vn 0.8660038 0 -0.5000373
vn 0.8660038 0 -0.5000373
vn 0.8660033 0 0.5000385
vn 0.8660033 0 0.5000385
vn 0.8660033 0 0.5000385
vn 0 0 1
vn 0 0 1
vn 0 0 1
vn -0.8660027 0 0.5000392
vn -0.8660027 0 0.5000392
vn -0.8660027 0 0.5000392
vn -0.8660035 0 -0.5000381
vn -0.8660035 0 -0.5000381
vn -0.8660035 0 -0.5000381
vn -0.8660035 0 -0.5000381
vn 0 -0.7411886 -0.6712968
vn 0 -0.7411886 -0.6712968
vn 0.5813335 -0.7411999 -0.3356698
vn 0.5813335 -0.7411999 -0.3356698
vn 0.5813335 -0.7411998 -0.3356698
vn 0.5813325 -0.7412001 0.3356708
vn 0.5813325 -0.7412001 0.3356708
vn 0.5813325 -0.7412001 0.3356708
vn 0 -0.7411899 0.6712954
vn 0 -0.7411899 0.6712954
vn 0 -0.7411899 0.6712954
vn -0.5813318 -0.7412007 0.3356707
vn -0.5813318 -0.7412007 0.3356707
vn -0.5813318 -0.7412007 0.3356707
vn -0.5813327 -0.7412004 -0.3356698
vn -0.5813327 -0.7412004 -0.3356698
vn -0.5813327 -0.7412004 -0.3356698
vn -0.5813327 -0.7412004 -0.3356698
vn 0 0 -1
vn 0 0 -1
vn 0.8659986 0 -0.5000466
vn 0.8659986 0 -0.5000466
vn 0.8659986 0 -0.5000466
vn 0.8659973 0 0.5000488
vn 0.8659973 0 0.5000488
vn 0.8659973 0 0.5000488
vn 0 0 1
vn 0 0 1
vn 0 0 1
vn -0.8659973 0 0.5000488
vn -0.8659973 0 0.5000488
vn -0.8659973 0 0.5000488
vn -0.8659986 0 -0.5000466
vn -0.8659986 0 -0.5000466
vn -0.8659986 0 -0.5000466
vn -0.8659986 0 -0.5000466
vn 0 0.1473447 -0.9890853
vn 0 0.1473447 -0.9890853
vn 0.8565494 0.1473462 -0.4945829
vn 0.8565494 0.1473461 -0.4945829
vn 0.8565494 0.1473462 -0.4945829
vn 0.856548 0.1473462 0.4945853
vn 0.856548 0.1473462 0.4945854
vn 0.856548 0.1473462 0.4945853
vn 0 0.147344 0.9890854
vn 0 0.147344 0.9890854
vn 0 0.147344 0.9890854
vn -0.856548 0.1473462 0.4945853
vn -0.856548 0.1473462 0.4945853
vn -0.856548 0.1473462 0.4945853
vn -0.8565494 0.1473462 -0.4945829
vn -0.8565494 0.1473462 -0.4945829
vn -0.8565494 0.1473461 -0.4945829
vn -0.8565494 0.1473462 -0.4945829
vn 0 0 -1
vn 0 0 -1
vn 0.8660038 0 -0.5000376
vn 0.8660038 0 -0.5000376
vn 0.8660038 0 -0.5000376
vn 0.8660022 0 0.5000402
vn 0.8660022 0 0.5000402
vn 0.8660022 0 0.5000402
vn 0 0 1
vn 0 0 1
vn 0 0 1
vn -0.8660022 0 0.5000402
vn -0.8660022 0 0.5000402
vn -0.8660022 0 0.5000402
vn -0.8660038 0 -0.5000376
vn -0.8660038 0 -0.5000376
vn -0.8660038 0 -0.5000376
vn -0.8660038 0 -0.5000376
vn 0 -0.2362144 -0.971701
vn 0 -0.2362144 -0.971701
vn 0.8414985 -0.2362203 -0.485881
vn 0.8414985 -0.2362203 -0.485881
vn 0.8414985 -0.2362203 -0.4858809
vn 0.8414967 -0.2362206 0.4858838
vn 0.8414967 -0.2362207 0.4858838
vn 0.8414967 -0.2362207 0.4858838
vn 0 -0.2362149 0.9717008
vn 0 -0.2362149 0.9717008
vn 0 -0.2362149 0.9717008
vn -0.8414969 -0.236221 0.4858834
vn -0.8414969 -0.236221 0.4858835
vn -0.8414969 -0.236221 0.4858834
vn -0.8414987 -0.2362205 -0.4858806
vn -0.8414987 -0.2362205 -0.4858806
vn -0.8414987 -0.2362205 -0.4858806
vn -0.8414987 -0.2362205 -0.4858806
vn 0 -0.7854896 -0.618875
vn 0 -0.7854896 -0.618875
vn 0.5359538 -0.7854888 -0.3094527
vn 0.5359537 -0.7854888 -0.3094526
vn 0.5359538 -0.7854887 -0.3094526
vn 0.5359524 -0.7854888 0.3094548
vn 0.5359523 -0.7854888 0.3094548
vn 0.5359524 -0.7854888 0.3094548
vn 0 -0.7854883 0.6188766
vn 0 -0.7854882 0.6188765
vn 0 -0.7854883 0.6188766
vn -0.5359529 -0.7854887 0.3094544
vn -0.5359529 -0.7854887 0.3094544
vn -0.5359529 -0.7854887 0.3094544
vn -0.5359543 -0.7854886 -0.3094523
vn -0.5359543 -0.7854885 -0.3094523
vn -0.5359543 -0.7854885 -0.3094523
g SM_Prop_Toilet_03_Flush_0
f 195/195/195 55/55/55 194/194/194
f 198/198/198 197/197/197 196/196/196
f 201/201/201 200/200/200 199/199/199
f 204/204/204 203/203/203 202/202/202
f 207/207/207 206/206/206 205/205/205
f 210/210/210 209/209/209 208/208/208
f 8/8/8 7/7/7 1/1/1
f 2/2/2 8/8/8 1/1/1
f 9/9/9 57/57/57 56/56/56
f 3/3/3 9/9/9 56/56/56
f 10/10/10 59/59/59 58/58/58
f 4/4/4 10/10/10 58/58/58
f 11/11/11 61/61/61 60/60/60
f 5/5/5 11/11/11 60/60/60
f 12/12/12 63/63/63 62/62/62
f 6/6/6 12/12/12 62/62/62
f 66/66/66 65/65/65 64/64/64
f 67/67/67 66/66/66 64/64/64
f 14/14/14 13/13/13 68/68/68
f 69/69/69 14/14/14 68/68/68
f 15/15/15 71/71/71 70/70/70
f 72/72/72 15/15/15 70/70/70
f 16/16/16 74/74/74 73/73/73
f 75/75/75 16/16/16 73/73/73
f 17/17/17 77/77/77 76/76/76
f 78/78/78 17/17/17 76/76/76
f 18/18/18 80/80/80 79/79/79
f 81/81/81 18/18/18 79/79/79
f 84/84/84 83/83/83 82/82/82
f 85/85/85 84/84/84 82/82/82
f 20/20/20 19/19/19 86/86/86
f 87/87/87 20/20/20 86/86/86
f 21/21/21 89/89/89 88/88/88
f 90/90/90 21/21/21 88/88/88
f 22/22/22 92/92/92 91/91/91
f 93/93/93 22/22/22 91/91/91
f 23/23/23 95/95/95 94/94/94
f 96/96/96 23/23/23 94/94/94
f 24/24/24 98/98/98 97/97/97
f 99/99/99 24/24/24 97/97/97
f 102/102/102 101/101/101 100/100/100
f 103/103/103 102/102/102 100/100/100
f 26/26/26 25/25/25 104/104/104
f 105/105/105 26/26/26 104/104/104
f 27/27/27 107/107/107 106/106/106
f 108/108/108 27/27/27 106/106/106
f 28/28/28 110/110/110 109/109/109
f 111/111/111 28/28/28 109/109/109
f 29/29/29 113/113/113 112/112/112
f 114/114/114 29/29/29 112/112/112
f 30/30/30 116/116/116 115/115/115
f 117/117/117 30/30/30 115/115/115
f 120/120/120 119/119/119 118/118/118
f 121/121/121 120/120/120 118/118/118
f 32/32/32 31/31/31 122/122/122
f 123/123/123 32/32/32 122/122/122
f 33/33/33 125/125/125 124/124/124
f 126/126/126 33/33/33 124/124/124
f 34/34/34 128/128/128 127/127/127
f 129/129/129 34/34/34 127/127/127
f 35/35/35 131/131/131 130/130/130
f 132/132/132 35/35/35 130/130/130
f 36/36/36 134/134/134 133/133/133
f 135/135/135 36/36/36 133/133/133
f 138/138/138 137/137/137 136/136/136
f 139/139/139 138/138/138 136/136/136
f 38/38/38 37/37/37 140/140/140
f 141/141/141 38/38/38 140/140/140
f 39/39/39 143/143/143 142/142/142
f 144/144/144 39/39/39 142/142/142
f 40/40/40 146/146/146 145/145/145
f 147/147/147 40/40/40 145/145/145
f 41/41/41 149/149/149 148/148/148
f 150/150/150 41/41/41 148/148/148
f 42/42/42 152/152/152 151/151/151
f 153/153/153 42/42/42 151/151/151
f 156/156/156 155/155/155 154/154/154
f 157/157/157 156/156/156 154/154/154
f 44/44/44 43/43/43 158/158/158
f 159/159/159 44/44/44 158/158/158
f 45/45/45 161/161/161 160/160/160
f 162/162/162 45/45/45 160/160/160
f 46/46/46 164/164/164 163/163/163
f 165/165/165 46/46/46 163/163/163
f 47/47/47 167/167/167 166/166/166
f 168/168/168 47/47/47 166/166/166
f 48/48/48 170/170/170 169/169/169
f 171/171/171 48/48/48 169/169/169
f 174/174/174 173/173/173 172/172/172
f 175/175/175 174/174/174 172/172/172
f 50/50/50 49/49/49 176/176/176
f 177/177/177 50/50/50 176/176/176
f 51/51/51 179/179/179 178/178/178
f 180/180/180 51/51/51 178/178/178
f 52/52/52 182/182/182 181/181/181
f 183/183/183 52/52/52 181/181/181
f 53/53/53 185/185/185 184/184/184
f 186/186/186 53/53/53 184/184/184
f 54/54/54 188/188/188 187/187/187
f 189/189/189 54/54/54 187/187/187
f 192/192/192 191/191/191 190/190/190
f 193/193/193 192/192/192 190/190/190
