g SM_Prop_Fridge_02_Door_02
v -0.9296688 0.3376809 0.1155721
v -0.8470846 0.3090339 0.1815646
v -0.8470846 -0.3083405 0.1815646
v -0.9296688 -0.3083405 0.1155721
v -0.004332608 0.3376809 0.1155722
v -0.08691695 0.3090339 0.1815646
v -0.8470846 0.3090339 0.1815646
v -0.9296688 0.3376809 0.1155721
v -0.004332608 -0.3083405 0.1155722
v -0.08691695 -0.3083405 0.1815646
v -0.08691695 0.3090339 0.1815646
v -0.004332608 0.3376809 0.1155722
v -0.9296688 -0.3376811 0.1155721
v -0.8470846 -0.3330025 0.1815646
v -0.08691695 -0.3330025 0.1815646
v -0.004332608 -0.3376811 0.1155722
v 5.449158E-07 -0.3423597 0.03461897
v -0.9340014 -0.3423597 0.03461897
v -0.1461909 -0.2193399 -0.09185685
v -0.1461909 -0.1349283 -0.09185685
v -0.7878107 -0.1349283 -0.09185685
v -0.7878107 -0.2193399 -0.09185685
v -0.9296688 -0.3083405 0.1155721
v -0.8470846 -0.3083405 0.1815646
v -0.8470846 -0.3330025 0.1815646
v -0.9296688 -0.3376811 0.1155721
v -0.8470846 -0.3330025 0.1815646
v -0.8470846 -0.3083405 0.1815646
v -0.7710669 -0.3083406 0.1815646
v -0.6433145 -0.3083405 0.1815646
v -0.08691695 -0.3330025 0.1815646
v -0.08691695 -0.3083405 0.1815646
v -0.7574832 -0.2773482 0.1815646
v -0.6577094 -0.2773482 0.1815646
v -0.004332608 -0.3376811 0.1155722
v -0.08691695 -0.3330025 0.1815646
v -0.08691695 -0.3083405 0.1815646
v -0.004332608 -0.3083405 0.1155722
v 5.449158E-07 -0.3423597 0.03461897
v 5.449158E-07 -0.3083405 0.03461897
v -0.9340014 -0.3083405 0.03461897
v -0.9340014 -0.3423597 0.03461897
v -0.05427008 -0.2987705 0.03461897
v -0.8428565 -0.2648175 -0.01949416
v -0.8797266 -0.2987705 0.03461897
v -0.09114447 -0.2648175 -0.01949416
v -0.7878107 -0.2193399 -0.09185685
v -0.1461909 -0.2193399 -0.09185685
v -0.8797266 0.2843663 0.03461897
v -0.8428565 0.2504133 -0.01949416
v -0.09114447 0.2504133 -0.01949416
v -0.05427008 0.2843663 0.03461897
v -0.8797266 -0.2987705 0.03461897
v -0.8428565 0.2504133 -0.01949416
v -0.8797266 0.2843663 0.03461897
v -0.8428565 -0.1349283 -0.01949416
v -0.8428565 -0.2648175 -0.01949416
v -0.7878107 -0.1349283 -0.09185685
v -0.7878107 -0.2193399 -0.09185685
v -0.09114447 -0.1349283 -0.01949416
v -0.09114447 0.2504133 -0.01949416
v -0.8428565 0.2504133 -0.01949416
v -0.8428565 -0.1349283 -0.01949416
v -0.05427008 0.2843663 0.03461897
v -0.09114447 0.2504133 -0.01949416
v -0.09114447 -0.1349283 -0.01949416
v -0.05427008 -0.2987705 0.03461897
v -0.09114447 -0.2648175 -0.01949416
v -0.1461909 -0.2193399 -0.09185685
v -0.1461909 -0.1349283 -0.09185685
v -0.8428565 -0.1349283 -0.01949416
v -0.7878107 -0.1349283 -0.09185685
v -0.1461909 -0.1349283 -0.09185685
v -0.09114447 -0.1349283 -0.01949416
v -0.8470846 -0.3083405 0.1815646
v -0.7574832 -0.2773482 0.1815646
v -0.7710669 -0.3083406 0.1815646
v -0.8470846 0.3090339 0.1815646
v -0.6577094 -0.2773482 0.1815646
v -0.238177 0.2378186 0.1815646
v -0.6433145 -0.3083405 0.1815646
v -0.238177 0.2719931 0.1815646
v -0.1250089 0.2378186 0.1815646
v -0.08691695 -0.3083405 0.1815646
v -0.08691695 0.3090339 0.1815646
v -0.1250089 0.2719931 0.1815646
v -0.1250089 0.2378186 0.1815646
v -0.238177 0.2378186 0.1815646
v -0.238177 0.2719931 0.1815646
v -0.1250089 0.2719931 0.1815646
v -0.9340014 -0.3423597 0.03461897
v -0.9340014 -0.3083405 0.03461897
v -0.9296688 -0.3083405 0.1155721
v -0.9296688 -0.3376811 0.1155721
v 5.449158E-07 -0.3083405 0.03461897
v 5.449158E-07 -0.3423597 0.03461897
v -0.004332608 -0.3376811 0.1155722
v -0.004332608 -0.3083405 0.1155722
v 5.449158E-07 0.3423597 0.03461897
v 5.449158E-07 -0.3083405 0.03461897
v -0.004332608 -0.3083405 0.1155722
v -0.004332608 0.3376809 0.1155722
v -0.9340014 0.3423597 0.03461897
v 5.449158E-07 0.3423597 0.03461897
v -0.004332608 0.3376809 0.1155722
v -0.9296688 0.3376809 0.1155721
v -0.9340014 -0.3083405 0.03461897
v -0.9340014 0.3423597 0.03461897
v -0.9296688 0.3376809 0.1155721
v -0.9296688 -0.3083405 0.1155721
v -0.9340014 -0.3083405 0.03461897
v -0.8797266 0.2843663 0.03461897
v -0.9340014 0.3423597 0.03461897
v -0.8797266 -0.2987705 0.03461897
v -0.05427008 0.2843663 0.03461897
v 5.449158E-07 -0.3083405 0.03461897
v 5.449158E-07 0.3423597 0.03461897
v -0.05427008 -0.2987705 0.03461897
vt 0.1043701 0.1837158
vt 0.1043701 0.1837158
vt 0.1043701 0.1837158
vt 0.1043701 0.1837158
vt 0.1043701 0.1837158
vt 0.1043701 0.1837158
vt 0.1043701 0.1837158
vt 0.1043701 0.1837158
vt 0.1043701 0.1837158
vt 0.1043701 0.1837158
vt 0.1043701 0.1837158
vt 0.1043701 0.1837158
vt 0.1005249 0.3278809
vt 0.1005249 0.3278809
vt 0.1005249 0.3278809
vt 0.1005249 0.3278809
vt 0.1005249 0.3278809
vt 0.1005249 0.3278809
vt 0.1340332 0.3806152
vt 0.1340332 0.3806152
vt 0.1340332 0.3806152
vt 0.1340332 0.3806152
vt 0.1005249 0.3278809
vt 0.1005249 0.3278809
vt 0.1005249 0.3278809
vt 0.1005249 0.3278809
vt 0.1005249 0.3278809
vt 0.1005249 0.3278809
vt 0.1005249 0.3278809
vt 0.1005249 0.3276367
vt 0.1005249 0.3278809
vt 0.1005249 0.3278809
vt 0.1005249 0.3276367
vt 0.1005249 0.3276367
vt 0.1005249 0.3278809
vt 0.1005249 0.3278809
vt 0.1005249 0.3278809
vt 0.1005249 0.3278809
vt 0.1005249 0.3278809
vt 0.1005249 0.3278809
vt 0.1005249 0.3278809
vt 0.1005249 0.3278809
vt 0.1340332 0.3806152
vt 0.1340332 0.3806152
vt 0.1340332 0.3806152
vt 0.1340332 0.3806152
vt 0.1340332 0.3806152
vt 0.1340332 0.3806152
vt 0.1340332 0.3806152
vt 0.1340332 0.3806152
vt 0.1340332 0.3806152
vt 0.1340332 0.3806152
vt 0.1340332 0.3806152
vt 0.1340332 0.3806152
vt 0.1340332 0.3806152
vt 0.1340332 0.3806152
vt 0.1340332 0.3806152
vt 0.1340332 0.3806152
vt 0.1340332 0.3806152
vt 0.1340332 0.3806152
vt 0.1340332 0.3806152
vt 0.1340332 0.3806152
vt 0.1340332 0.3806152
vt 0.1340332 0.3806152
vt 0.1340332 0.3806152
vt 0.1340332 0.3806152
vt 0.1340332 0.3806152
vt 0.1340332 0.3806152
vt 0.1340332 0.3806152
vt 0.1340332 0.3806152
vt 0.1340332 0.3806152
vt 0.1340332 0.3806152
vt 0.1340332 0.3806152
vt 0.1340332 0.3806152
vt 0.1043701 0.1837158
vt 0.1043701 0.1837158
vt 0.1043701 0.1837158
vt 0.1043701 0.1837158
vt 0.1043701 0.1837158
vt 0.1043701 0.1837158
vt 0.1043701 0.1837158
vt 0.1043701 0.1837158
vt 0.1043701 0.1837158
vt 0.1043701 0.1837158
vt 0.1043701 0.1837158
vt 0.1043701 0.1837158
vt 0.4023438 0.4929199
vt 0.4023438 0.4929199
vt 0.4023438 0.4929199
vt 0.4023438 0.4929199
vt 0.1005249 0.3278809
vt 0.1005249 0.3278809
vt 0.1005249 0.3278809
vt 0.1005249 0.3278809
vt 0.1005249 0.3278809
vt 0.1005249 0.3278809
vt 0.1005249 0.3278809
vt 0.1005249 0.3278809
vt 0.1043701 0.1837158
vt 0.1043701 0.1837158
vt 0.1043701 0.1837158
vt 0.1043701 0.1837158
vt 0.1043701 0.1837158
vt 0.1043701 0.1837158
vt 0.1043701 0.1837158
vt 0.1043701 0.1837158
vt 0.1043701 0.1837158
vt 0.1043701 0.1837158
vt 0.1043701 0.1837158
vt 0.1043701 0.1837158
vt 0.1043701 0.1837158
vt 0.1043701 0.1837158
vt 0.1043701 0.1837158
vt 0.1043701 0.1837158
vt 0.1043701 0.1837158
vt 0.1043701 0.1837158
vt 0.1043701 0.1837158
vt 0.1043701 0.1837158
vn -0.6240234 0 0.78125
vn -0.6240234 0 0.78125
vn -0.6240234 0 0.78125
vn -0.6240234 0 0.78125
vn 0 0.9174805 0.3981934
vn 0 0.9174805 0.3981934
vn 0 0.9174805 0.3981934
vn 0 0.9174805 0.3981934
vn 0.6240234 0 0.78125
vn 0.6240234 0 0.78125
vn 0.6240234 0 0.78125
vn 0.6240234 0 0.78125
vn 0 -0.9980469 0.0607605
vn 0 -0.9975586 0.07073975
vn 0 -0.9975586 0.07073975
vn 0 -0.9980469 0.0607605
vn 0 -0.9985352 0.05770874
vn 0 -0.9985352 0.05770874
vn 0 0 -1
vn 0 0 -1
vn 0 0 -1
vn 0 0 -1
vn -0.6240234 0 0.78125
vn -0.6240234 0 0.78125
vn -0.6240234 0 0.78125
vn -0.6240234 0 0.78125
vn 0 0 1
vn 0 0 1
vn 0 0 1
vn 0 0 1
vn 0 0 1
vn 0 0 1
vn 0 0 1
vn 0 0 1
vn 0.6240234 0 0.78125
vn 0.6240234 0 0.78125
vn 0.6240234 0 0.78125
vn 0.6240234 0 0.78125
vn 0 0 -1
vn 0 0 -1
vn 0 0 -1
vn 0 0 -1
vn 0 -0.847168 -0.53125
vn 0 -0.847168 -0.5317383
vn 0 -0.847168 -0.53125
vn 0 -0.847168 -0.5317383
vn 0 -0.8466797 -0.5322266
vn 0 -0.8466797 -0.5322266
vn 0 0.847168 -0.53125
vn 0 0.847168 -0.53125
vn 0 0.847168 -0.53125
vn 0 0.847168 -0.53125
vn -0.8261719 0 -0.5629883
vn -0.8261719 0 -0.5629883
vn -0.8261719 0 -0.5629883
vn -0.8222656 0 -0.5693359
vn -0.8095703 0 -0.5869141
vn -0.7958984 0 -0.6054688
vn -0.7958984 0 -0.6054688
vn 0 0 -1
vn 0 0 -1
vn 0 0 -1
vn 0 0 -1
vn 0.8261719 0 -0.5629883
vn 0.8261719 0 -0.5629883
vn 0.8222656 0 -0.5693359
vn 0.8261719 0 -0.5629883
vn 0.8095703 0 -0.5869141
vn 0.7958984 0 -0.6054688
vn 0.7958984 0 -0.6054688
vn 0 1 0
vn 0 1 0
vn 0 1 0
vn 0 1 0
vn 0 0 1
vn 0 0 1
vn 0 0 1
vn 0 0 1
vn 0 0 1
vn 0 0 1
vn 0 0 1
vn 0 0 1
vn 0 0 1
vn 0 0 1
vn 0 0 1
vn 0 0 1
vn 0 0 1
vn 0 0 1
vn 0 0 1
vn 0 0 1
vn -0.9985352 0 0.05343628
vn -0.9985352 0 0.05343628
vn -0.9985352 0 0.05343628
vn -0.9985352 0 0.05343628
vn 0.9985352 0 0.05343628
vn 0.9985352 0 0.05343628
vn 0.9985352 0 0.05343628
vn 0.9985352 0 0.05343628
vn 0.9985352 0 0.05343628
vn 0.9985352 0 0.05343628
vn 0.9985352 0 0.05343628
vn 0.9985352 0 0.05343628
vn 0 0.9985352 0.05770874
vn 0 0.9985352 0.05770874
vn 0 0.9985352 0.05770874
vn 0 0.9985352 0.05770874
vn -0.9985352 0 0.05343628
vn -0.9985352 0 0.05343628
vn -0.9985352 0 0.05343628
vn -0.9985352 0 0.05343628
vn 0 0 -1
vn 0 0 -1
vn 0 0 -1
vn 0 0 -1
vn 0 0 -1
vn 0 0 -1
vn 0 0 -1
vn 0 0 -1
g SM_Prop_Fridge_02_Door_02_0
f 3/3/3 2/2/2 1/1/1
f 4/4/4 3/3/3 1/1/1
f 7/7/7 6/6/6 5/5/5
f 8/8/8 7/7/7 5/5/5
f 11/11/11 10/10/10 9/9/9
f 12/12/12 11/11/11 9/9/9
f 15/15/15 14/14/14 13/13/13
f 16/16/16 15/15/15 13/13/13
f 16/16/16 13/13/13 17/17/17
f 13/13/13 18/18/18 17/17/17
f 21/21/21 20/20/20 19/19/19
f 22/22/22 21/21/21 19/19/19
f 25/25/25 24/24/24 23/23/23
f 26/26/26 25/25/25 23/23/23
f 29/29/29 28/28/28 27/27/27
f 30/30/30 29/29/29 27/27/27
f 31/31/31 30/30/30 27/27/27
f 31/31/31 32/32/32 30/30/30
f 33/33/33 29/29/29 30/30/30
f 34/34/34 33/33/33 30/30/30
f 37/37/37 36/36/36 35/35/35
f 38/38/38 37/37/37 35/35/35
f 41/41/41 40/40/40 39/39/39
f 42/42/42 41/41/41 39/39/39
f 45/45/45 44/44/44 43/43/43
f 44/44/44 46/46/46 43/43/43
f 44/44/44 47/47/47 46/46/46
f 47/47/47 48/48/48 46/46/46
f 51/51/51 50/50/50 49/49/49
f 52/52/52 51/51/51 49/49/49
f 55/55/55 54/54/54 53/53/53
f 54/54/54 56/56/56 53/53/53
f 56/56/56 57/57/57 53/53/53
f 56/56/56 58/58/58 57/57/57
f 58/58/58 59/59/59 57/57/57
f 62/62/62 61/61/61 60/60/60
f 63/63/63 62/62/62 60/60/60
f 66/66/66 65/65/65 64/64/64
f 67/67/67 66/66/66 64/64/64
f 67/67/67 68/68/68 66/66/66
f 68/68/68 69/69/69 66/66/66
f 69/69/69 70/70/70 66/66/66
f 73/73/73 72/72/72 71/71/71
f 74/74/74 73/73/73 71/71/71
f 77/77/77 76/76/76 75/75/75
f 76/76/76 78/78/78 75/75/75
f 78/78/78 76/76/76 79/79/79
f 78/78/78 79/79/79 80/80/80
f 80/80/80 79/79/79 81/81/81
f 80/80/80 82/82/82 78/78/78
f 83/83/83 80/80/80 81/81/81
f 81/81/81 84/84/84 83/83/83
f 78/78/78 82/82/82 85/85/85
f 83/83/83 84/84/84 85/85/85
f 82/82/82 86/86/86 85/85/85
f 86/86/86 83/83/83 85/85/85
f 89/89/89 88/88/88 87/87/87
f 90/90/90 89/89/89 87/87/87
f 93/93/93 92/92/92 91/91/91
f 94/94/94 93/93/93 91/91/91
f 97/97/97 96/96/96 95/95/95
f 98/98/98 97/97/97 95/95/95
f 101/101/101 100/100/100 99/99/99
f 102/102/102 101/101/101 99/99/99
f 105/105/105 104/104/104 103/103/103
f 106/106/106 105/105/105 103/103/103
f 109/109/109 108/108/108 107/107/107
f 110/110/110 109/109/109 107/107/107
f 113/113/113 112/112/112 111/111/111
f 112/112/112 114/114/114 111/111/111
f 115/115/115 112/112/112 113/113/113
f 111/111/111 114/114/114 116/116/116
f 117/117/117 115/115/115 113/113/113
f 114/114/114 118/118/118 116/116/116
f 118/118/118 115/115/115 117/117/117
f 116/116/116 118/118/118 117/117/117
