g SM_Prop_CoffeeMachine_01
v 0.01583496 0.3399773 -0.02743164
v 0.01583496 0.3568117 -0.02743164
v -0.01584229 0.3568117 -0.02743164
v -0.01584229 0.3399773 -0.02743164
v -0.01584229 0.3399773 -0.02743164
v -0.01584229 0.3568117 -0.02743164
v -0.03168213 0.3568117 0
v -0.03168213 0.3399773 0
v -0.03168213 0.3399773 0
v -0.03168213 0.3568117 0
v -0.01584229 0.3568117 0.02743164
v -0.01584229 0.3399773 0.02743164
v -0.01584229 0.3399773 0.02743164
v -0.01584229 0.3568117 0.02743164
v 0.01583496 0.3568117 0.02743164
v 0.01583496 0.3399773 0.02743164
v 0.01583496 0.3399773 0.02743164
v 0.01583496 0.3568117 0.02743164
v 0.03167236 0.3568117 0
v 0.03167236 0.3399773 0
v 0.03167236 0.3399773 0
v 0.03167236 0.3568117 0
v 0.01583496 0.3568117 -0.02743164
v 0.01583496 0.3399773 -0.02743164
v -0.04233154 0.3652415 0.07331299
v -0.04233154 0.3936705 0.07331299
v 0.04232422 0.3936705 0.07331299
v 0.04232422 0.3652415 0.07331299
v -0.08466064 0.3652415 0
v -0.08466064 0.3936705 0
v -0.04233154 0.3936705 0.07331299
v -0.04233154 0.3652415 0.07331299
v -0.04233154 0.3652415 -0.07331543
v -0.04233154 0.3936705 -0.07331543
v -0.08466064 0.3936705 0
v -0.08466064 0.3652415 0
v 0.04232422 0.3652415 -0.07331543
v 0.04232422 0.3936705 -0.07331543
v -0.04233154 0.3936705 -0.07331543
v -0.04233154 0.3652415 -0.07331543
v 0.08465087 0.3652415 0
v 0.08465087 0.3936705 0
v 0.04232422 0.3936705 -0.07331543
v 0.04232422 0.3652415 -0.07331543
v 0.04232422 0.3652415 0.07331299
v 0.04232422 0.3936705 0.07331299
v 0.08465087 0.3936705 0
v 0.08465087 0.3652415 0
v -0.05987549 0.3936705 0.1036987
v -0.05987549 0.4700015 0.1036987
v 0.05986572 0.4700015 0.1036987
v 0.05986572 0.3936705 0.1036987
v -0.1197461 0.3936705 0
v -0.1197461 0.4700015 0
v -0.05987549 0.4700015 0.1036987
v -0.05987549 0.3936705 0.1036987
v -0.05594726 0.3936705 -0.1038428
v -0.05594726 0.4700015 -0.1038428
v -0.1197461 0.4700015 0
v -0.1197461 0.3936705 0
v 0.1197363 0.3936705 0
v 0.1197388 0.4700015 0
v 0.05594482 0.4700015 -0.1038428
v 0.05594482 0.3936705 -0.1038428
v 0.05986572 0.3936705 0.1036987
v 0.05986572 0.4700015 0.1036987
v 0.1197388 0.4700015 0
v 0.1197363 0.3936705 0
v -0.07584228 0 0.1313623
v -0.07584228 0.03476791 0.1313623
v 0.07584228 0.03476791 0.1313623
v 0.07584228 0 0.1313623
v 0.07584228 0 0.1313623
v 0.07584228 0.03476791 0.1313623
v 0.1516846 0.03476791 0
v 0.1516846 0 0
v 0.1516846 7.629394E-08 -0.2032666
v 0.1516846 0.03476791 -0.1141309
v 0.1516846 0.4457219 -0.2032666
v 0.1516846 0.4457219 -0.1141309
v -0.151687 0 0
v -0.07584228 0.03476791 0.1313623
v -0.07584228 0 0.1313623
v -0.151687 0.03476791 0
v -0.151687 0.03476791 -0.1141309
v -0.151687 7.629394E-08 -0.2032666
v -0.151687 0.4457219 -0.1141309
v -0.151687 0.4457219 -0.2032666
v -0.07584228 0.03476791 0.1313623
v -0.05594726 0.08344879 0.09690429
v 0.05594482 0.08344879 0.09690429
v 0.07584228 0.03476791 0.1313623
v 0.07584228 0.03476791 0.1313623
v 0.05594482 0.08344879 0.09690429
v 0.1118921 0.08344879 0
v 0.1516846 0.03476791 0
v 0.1516846 0.03476791 -0.1141309
v 0.1118921 0.08344879 -0.1141309
v -0.151687 0.03476791 0
v -0.05594726 0.08344879 0.09690429
v -0.07584228 0.03476791 0.1313623
v -0.1118945 0.08344879 0
v -0.1118945 0.08344879 -0.1141309
v -0.151687 0.03476791 -0.1141309
v 0.1118921 0.4700015 -0.1141309
v 0.1516846 0.4457219 -0.2032666
v 0.1516846 0.4457219 -0.1141309
v 0.1118921 0.4700015 -0.2032666
v 0.05594482 0.4700015 -0.1038428
v -0.05594726 0.4700015 -0.1038428
v -0.1118945 0.4700015 -0.2032666
v -0.1118945 0.4700015 -0.1141309
v -0.151687 0.4457219 -0.1141309
v -0.151687 0.4457219 -0.2032666
v -0.1118945 0.08344879 0
v -0.1118945 0.08344879 -0.1141309
v -0.05594726 0.08344879 -0.1038428
v 4.547473E-15 0.08344879 4.547473E-15
v -0.05594726 0.08344879 0.09690429
v 0.05594482 0.08344879 0.09690429
v 0.05594482 0.08344879 -0.1038428
v 0.1118921 0.08344879 0
v 0.1118921 0.08344879 -0.1141309
v 0.05594482 0.3936705 -0.1038428
v 0.05594482 0.4700015 -0.1038428
v 0.1118921 0.4700015 -0.1141309
v 0.05594482 0.08344879 -0.1038428
v -0.05594726 0.08344879 -0.1038428
v 0.1118921 0.08344879 -0.1141309
v 0.1516846 0.4457219 -0.1141309
v 0.1516846 0.03476791 -0.1141309
v -0.05594726 0.3936705 -0.1038428
v -0.1118945 0.08344879 -0.1141309
v -0.1118945 0.4700015 -0.1141309
v -0.05594726 0.4700015 -0.1038428
v -0.151687 0.03476791 -0.1141309
v -0.151687 0.4457219 -0.1141309
v 0.1516846 7.629394E-08 -0.2032666
v 0.1516846 0.4457219 -0.2032666
v 0.1118921 0.4700015 -0.2032666
v -0.1118945 0.4700015 -0.2032666
v -0.151687 7.629394E-08 -0.2032666
v -0.151687 0.4457219 -0.2032666
v 0.01583496 0.3399773 0.02743164
v -4.882812E-06 0.3399773 0
v -0.01584229 0.3399773 0.02743164
v 0.03167236 0.3399773 0
v -0.03168213 0.3399773 0
v 0.01583496 0.3399773 -0.02743164
v -0.01584229 0.3399773 -0.02743164
v 0.1516846 7.629394E-08 -0.2032666
v 4.547473E-15 0 4.547473E-15
v 0.1516846 0 0
v -0.151687 7.629394E-08 -0.2032666
v 0.07584228 0 0.1313623
v -0.151687 0 0
v -0.07584228 0 0.1313623
v 0.03167236 0.3568117 0
v 0.04232422 0.3652415 -0.07331543
v 0.01583496 0.3568117 -0.02743164
v 0.08465087 0.3652415 0
v -0.04233154 0.3652415 -0.07331543
v 0.01583496 0.3568117 0.02743164
v -0.01584229 0.3568117 -0.02743164
v 0.04232422 0.3652415 0.07331299
v -0.08466064 0.3652415 0
v -0.01584229 0.3568117 0.02743164
v -0.03168213 0.3568117 0
v -0.04233154 0.3652415 0.07331299
v -0.04233154 0.3936705 0.07331299
v -0.05987549 0.3936705 0.1036987
v 0.05986572 0.3936705 0.1036987
v 0.04232422 0.3936705 0.07331299
v -0.08466064 0.3936705 0
v 0.1197363 0.3936705 0
v -0.1197461 0.3936705 0
v 0.08465087 0.3936705 0
v -0.04233154 0.3936705 -0.07331543
v 0.05594482 0.3936705 -0.1038428
v -0.05594726 0.3936705 -0.1038428
v 0.04232422 0.3936705 -0.07331543
v -0.05987549 0.4700015 0.1036987
v -0.04256348 0.4845981 0.07369141
v 0.04255371 0.4845981 0.07369141
v 0.05986572 0.4700015 0.1036987
v -0.1197461 0.4700015 0
v 0.08511475 0.4845981 -1.953125E-05
v 0.1197388 0.4700015 0
v -0.08512207 0.4845981 -1.953125E-05
v -0.05594726 0.4700015 -0.1038428
v -4.882812E-06 0.4845981 -1.953125E-05
v 0.03976807 0.4845981 -0.07383789
v 0.05594482 0.4700015 -0.1038428
v -0.03977051 0.4845981 -0.07383789
vt 0.1296387 0.3029327
vt 0.1296387 0.3029327
vt 0.1296387 0.3029327
vt 0.1296387 0.3029327
vt 0.1296387 0.3029327
vt 0.1296387 0.3029327
vt 0.1296387 0.3029327
vt 0.1296387 0.3029327
vt 0.1296387 0.3029327
vt 0.1296387 0.3029327
vt 0.1296387 0.3029327
vt 0.1296387 0.3029327
vt 0.1296387 0.3029327
vt 0.1296387 0.3029327
vt 0.1296387 0.3029327
vt 0.1296387 0.3029327
vt 0.1296387 0.3029327
vt 0.1296387 0.3029327
vt 0.1296387 0.3029327
vt 0.1296387 0.3029327
vt 0.1296387 0.3029327
vt 0.1296387 0.3029327
vt 0.1296387 0.3029327
vt 0.1296387 0.3029327
vt 0.1013477 0.2302278
vt 0.1013477 0.2302278
vt 0.1013477 0.2302278
vt 0.1013477 0.2302278
vt 0.1013477 0.2302278
vt 0.1013477 0.2302278
vt 0.1013477 0.2302278
vt 0.1013477 0.2302278
vt 0.1013477 0.2302278
vt 0.1013477 0.2302278
vt 0.1013477 0.2302278
vt 0.1013477 0.2302278
vt 0.1013477 0.2302278
vt 0.1013477 0.2302278
vt 0.1013477 0.2302278
vt 0.1013477 0.2302278
vt 0.1013477 0.2302278
vt 0.1013477 0.2302278
vt 0.1013477 0.2302278
vt 0.1013477 0.2302278
vt 0.1013477 0.2302278
vt 0.1013477 0.2302278
vt 0.1013477 0.2302278
vt 0.1013477 0.2302278
vt 0.138916 0.4469757
vt 0.138916 0.4469757
vt 0.138916 0.4469757
vt 0.138916 0.4469757
vt 0.138916 0.4469757
vt 0.138916 0.4469757
vt 0.138916 0.4469757
vt 0.138916 0.4469757
vt 0.138916 0.4469757
vt 0.138916 0.4469757
vt 0.138916 0.4469757
vt 0.138916 0.4469757
vt 0.138916 0.4469757
vt 0.138916 0.4469757
vt 0.138916 0.4469757
vt 0.138916 0.4469757
vt 0.138916 0.4469757
vt 0.138916 0.4469757
vt 0.138916 0.4469757
vt 0.138916 0.4469757
vt 0.1376953 0.446846
vt 0.1376953 0.446846
vt 0.1376953 0.446846
vt 0.1376953 0.446846
vt 0.1376953 0.446846
vt 0.1376953 0.446846
vt 0.1376953 0.446846
vt 0.1376953 0.446846
vt 0.1376953 0.446846
vt 0.1376953 0.446846
vt 0.1376953 0.4468536
vt 0.1376953 0.4468536
vt 0.1376953 0.446846
vt 0.1376953 0.446846
vt 0.1376953 0.446846
vt 0.1376953 0.446846
vt 0.1376953 0.446846
vt 0.1376953 0.446846
vt 0.1376953 0.4468536
vt 0.1376953 0.4468536
vt 0.1013477 0.2302278
vt 0.1013477 0.2302278
vt 0.1013477 0.2302278
vt 0.1013477 0.2302278
vt 0.1013477 0.2302278
vt 0.1013477 0.2302278
vt 0.1013477 0.2302278
vt 0.1013477 0.2302278
vt 0.1013477 0.2302278
vt 0.1013477 0.2302278
vt 0.1013477 0.2302278
vt 0.1013477 0.2302278
vt 0.1013477 0.2302278
vt 0.1013477 0.2302278
vt 0.1013477 0.2302278
vt 0.1013477 0.2302278
vt 0.1376953 0.4468536
vt 0.1376953 0.4468536
vt 0.1376953 0.4468536
vt 0.1376953 0.4468536
vt 0.1376953 0.4468536
vt 0.1376953 0.4468536
vt 0.1376953 0.4468536
vt 0.1376953 0.4468536
vt 0.1376953 0.4468536
vt 0.1376953 0.4468536
vt 0.1013477 0.2302278
vt 0.1013477 0.2302278
vt 0.1013477 0.2302278
vt 0.1013477 0.2302278
vt 0.1013477 0.2302278
vt 0.1013477 0.2302278
vt 0.1013477 0.2302278
vt 0.1013477 0.2302278
vt 0.1013477 0.2302278
vt 0.1376953 0.4468536
vt 0.1376953 0.4468536
vt 0.1376953 0.4468536
vt 0.1376953 0.446846
vt 0.1376953 0.446846
vt 0.1376953 0.446846
vt 0.1376953 0.4468536
vt 0.1376953 0.446846
vt 0.1376953 0.4468536
vt 0.1376953 0.446846
vt 0.1376953 0.4468536
vt 0.1376953 0.4468536
vt 0.1376953 0.446846
vt 0.1376953 0.4468536
vt 0.1376953 0.446846
vt 0.1376953 0.4468536
vt 0.1376953 0.4468536
vt 0.1376953 0.4468536
vt 0.1376953 0.446846
vt 0.1376953 0.4468536
vt 0.1296387 0.3029327
vt 0.1296387 0.3029327
vt 0.1296387 0.3029327
vt 0.1296387 0.3029327
vt 0.1296387 0.3029327
vt 0.1296387 0.3029327
vt 0.1296387 0.3029327
vt 0.1376953 0.446846
vt 0.1376953 0.446846
vt 0.1376953 0.446846
vt 0.1376953 0.446846
vt 0.1376953 0.446846
vt 0.1376953 0.446846
vt 0.1376953 0.446846
vt 0.1013477 0.2302278
vt 0.1013477 0.2302278
vt 0.1013477 0.2302278
vt 0.1013477 0.2302278
vt 0.1013477 0.2302278
vt 0.1013477 0.2302278
vt 0.1013477 0.2302278
vt 0.1013477 0.2302278
vt 0.1013477 0.2302278
vt 0.1013477 0.2302278
vt 0.1013477 0.2302278
vt 0.1013477 0.2302278
vt 0.138916 0.4469757
vt 0.138916 0.4469757
vt 0.138916 0.4469757
vt 0.138916 0.4469757
vt 0.138916 0.4469757
vt 0.138916 0.4469757
vt 0.138916 0.4469757
vt 0.138916 0.4469757
vt 0.138916 0.4469757
vt 0.138916 0.4469757
vt 0.138916 0.4469757
vt 0.138916 0.4469757
vt 0.138916 0.4469757
vt 0.138916 0.4469757
vt 0.138916 0.4469757
vt 0.138916 0.4469757
vt 0.138916 0.4469757
vt 0.138916 0.4469757
vt 0.138916 0.4469757
vt 0.138916 0.4469757
vt 0.138916 0.4469757
vt 0.138916 0.4469757
vt 0.138916 0.4469757
vt 0.138916 0.4469757
vt 0.138916 0.4469757
vn 0 0 -1
vn 0 0 -1
vn 0 0 -1
vn 0 0 -1
vn -0.8659956 0 -0.5000516
vn -0.8659956 0 -0.5000516
vn -0.8659956 0 -0.5000516
vn -0.8659956 0 -0.5000516
vn -0.8659956 0 0.5000516
vn -0.8659956 0 0.5000516
vn -0.8659956 0 0.5000516
vn -0.8659956 0 0.5000516
vn 0 0 1
vn 0 0 1
vn 0 0 1
vn 0 0 1
vn 0.866029 0 0.4999938
vn 0.866029 0 0.4999938
vn 0.866029 0 0.4999938
vn 0.866029 0 0.4999938
vn 0.866029 0 -0.4999938
vn 0.866029 0 -0.4999938
vn 0.866029 0 -0.4999938
vn 0.866029 0 -0.4999938
vn 0 0 1
vn 0 0 1
vn 0 0 1
vn 0 0 1
vn -0.866016 0 0.5000162
vn -0.866016 0 0.5000162
vn -0.866016 0 0.5000162
vn -0.866016 0 0.5000162
vn -0.8660233 0 -0.5000038
vn -0.8660233 0 -0.5000038
vn -0.8660233 0 -0.5000038
vn -0.8660233 0 -0.5000038
vn 0 0 -1
vn 0 0 -1
vn 0 0 -1
vn 0 0 -1
vn 0.8660357 0 -0.4999821
vn 0.8660357 0 -0.4999821
vn 0.8660357 0 -0.4999821
vn 0.8660357 0 -0.4999821
vn 0.8660285 0 0.4999946
vn 0.8660285 0 0.4999946
vn 0.8660285 0 0.4999946
vn 0.8660285 0 0.4999946
vn 0 0 1
vn 0 0 1
vn 0 0 1
vn 0 0 1
vn -0.866025 0 0.5000007
vn -0.866025 0 0.5000007
vn -0.866025 0 0.5000007
vn -0.866025 0 0.5000007
vn -0.8520405 0 -0.5234758
vn -0.8520405 0 -0.5234758
vn -0.8520405 0 -0.5234758
vn -0.8520405 0 -0.5234758
vn 0.8520628 -1.361421E-05 -0.5234395
vn 0.8520628 -1.361421E-05 -0.5234395
vn 0.8520628 -1.361421E-05 -0.5234395
vn 0.8520628 -1.361421E-05 -0.5234395
vn 0.8660206 -1.385645E-05 0.5000084
vn 0.8660206 -1.385645E-05 0.5000084
vn 0.8660206 -1.385645E-05 0.5000084
vn 0.8660206 -1.385645E-05 0.5000084
vn 0 0 1
vn 0 0 1
vn 0 0 1
vn 0 0 1
vn 0.8660248 0 0.5000011
vn 0.8660248 0 0.5000011
vn 0.9659256 0 0.2588197
vn 0.9659256 0 0.2588197
vn 1 0 0
vn 1 0 0
vn 1 0 0
vn 1 0 0
vn -0.9659238 0 0.2588264
vn -0.8660178 0 0.5000132
vn -0.8660178 0 0.5000132
vn -0.9659238 0 0.2588264
vn -1 0 0
vn -1 0 0
vn -1 0 0
vn -1 0 0
vn 0 0.5777462 0.8162164
vn 0 0.5777462 0.8162164
vn 0 0.5777462 0.8162164
vn 0 0.5777462 0.8162164
vn 0.7068439 0.5777797 0.4080958
vn 0.7068439 0.5777797 0.4080958
vn 0.7572103 0.6189525 0.2086395
vn 0.7572103 0.6189525 0.2086395
vn 0.7742482 0.6328821 0
vn 0.7742482 0.6328821 0
vn -0.7572132 0.6189471 0.2086448
vn -0.706848 0.5777678 0.4081057
vn -0.706848 0.5777678 0.4081057
vn -0.7572132 0.6189471 0.2086448
vn -0.7742482 0.6328821 0
vn -0.7742482 0.6328821 0
vn 0.270514 0.962716 0
vn 0.5208564 0.8536443 0
vn 0.5208564 0.8536443 0
vn 0.1795568 0.9837477 0
vn 0.09760191 0.9800878 -0.1729211
vn -0.09759952 0.9800874 -0.172925
vn -0.1795568 0.9837477 0
vn -0.270514 0.962716 0
vn -0.5208564 0.8536443 0
vn -0.5208564 0.8536443 0
vn 0 1 0
vn 0 1 0
vn 0 1 0
vn 0 1 0
vn 0 1 0
vn 0 1 0
vn 0 1 0
vn 0 1 0
vn 0 1 0
vn 0.1210153 0 0.9926506
vn 0.1808566 0 0.9835095
vn 0.1210153 0 0.9926506
vn 0.09080341 0 0.9958689
vn -0.09080341 0 0.9958689
vn 0.09080341 0 0.9958689
vn 0 0 1
vn 0 0 1
vn -0.1210153 0 0.9926506
vn -0.09080341 0 0.9958689
vn -0.1210153 0 0.9926506
vn -0.1808566 0 0.9835095
vn 0 0 1
vn 0 0 1
vn 0 0 -1
vn 0 0 -1
vn 0 0 -1
vn 0 0 -1
vn 0 0 -1
vn 0 0 -1
vn 0 -1 0
vn 0 -1 0
vn 0 -1 0
vn 0 -1 0
vn 0 -1 0
vn 0 -1 0
vn 0 -1 0
vn 0 -1 0
vn 0 -1 0
vn 0 -1 0
vn 0 -1 0
vn 0 -1 0
vn 0 -1 0
vn 0 -1 0
vn 0.1571413 -0.9875761 0
vn 0.07857039 -0.9875772 -0.1360808
vn 0.07857039 -0.9875772 -0.1360808
vn 0.1571413 -0.9875761 0
vn -0.07856872 -0.987577 -0.1360837
vn 0.07857094 -0.9875762 0.1360869
vn -0.07856872 -0.987577 -0.1360837
vn 0.07857094 -0.9875762 0.1360869
vn -0.1571381 -0.9875766 0
vn -0.07856926 -0.987576 0.1360897
vn -0.1571381 -0.9875766 0
vn -0.07856926 -0.987576 0.1360897
vn 0 -1 0
vn 0 -1 0
vn 0 -1 0
vn 0 -1 0
vn 0 -1 0
vn 0 -1 0
vn 0 -1 0
vn 0 -1 0
vn 0 -1 0
vn 0 -1 0
vn 0 -1 0
vn 0 -1 0
vn -0.1941726 0.9215386 0.3362493
vn -0.09783423 0.9806759 0.1694198
vn 0.09783306 0.9806758 0.1694218
vn 0.1941701 0.9215378 0.336253
vn -0.3884568 0.9214412 -0.006890072
vn 0.1955742 0.9806827 -0.003462942
vn 0.3884588 0.9214405 -0.006878258
vn -0.1955731 0.980683 -0.003468887
vn -0.09759952 0.9800874 -0.172925
vn 0 1 0
vn 0.09760191 0.9800878 -0.1729211
vn 0.09760191 0.9800878 -0.1729211
vn -0.09759952 0.9800874 -0.172925
g SM_Prop_CoffeeMachine_01_0
f 3/3/3 2/2/2 1/1/1
f 4/4/4 3/3/3 1/1/1
f 7/7/7 6/6/6 5/5/5
f 8/8/8 7/7/7 5/5/5
f 11/11/11 10/10/10 9/9/9
f 12/12/12 11/11/11 9/9/9
f 15/15/15 14/14/14 13/13/13
f 16/16/16 15/15/15 13/13/13
f 19/19/19 18/18/18 17/17/17
f 20/20/20 19/19/19 17/17/17
f 23/23/23 22/22/22 21/21/21
f 24/24/24 23/23/23 21/21/21
f 27/27/27 26/26/26 25/25/25
f 28/28/28 27/27/27 25/25/25
f 31/31/31 30/30/30 29/29/29
f 32/32/32 31/31/31 29/29/29
f 35/35/35 34/34/34 33/33/33
f 36/36/36 35/35/35 33/33/33
f 39/39/39 38/38/38 37/37/37
f 40/40/40 39/39/39 37/37/37
f 43/43/43 42/42/42 41/41/41
f 44/44/44 43/43/43 41/41/41
f 47/47/47 46/46/46 45/45/45
f 48/48/48 47/47/47 45/45/45
f 51/51/51 50/50/50 49/49/49
f 52/52/52 51/51/51 49/49/49
f 55/55/55 54/54/54 53/53/53
f 56/56/56 55/55/55 53/53/53
f 59/59/59 58/58/58 57/57/57
f 60/60/60 59/59/59 57/57/57
f 63/63/63 62/62/62 61/61/61
f 64/64/64 63/63/63 61/61/61
f 67/67/67 66/66/66 65/65/65
f 68/68/68 67/67/67 65/65/65
f 71/71/71 70/70/70 69/69/69
f 72/72/72 71/71/71 69/69/69
f 75/75/75 74/74/74 73/73/73
f 76/76/76 75/75/75 73/73/73
f 76/76/76 77/77/77 75/75/75
f 77/77/77 78/78/78 75/75/75
f 77/77/77 79/79/79 78/78/78
f 79/79/79 80/80/80 78/78/78
f 83/83/83 82/82/82 81/81/81
f 82/82/82 84/84/84 81/81/81
f 84/84/84 85/85/85 81/81/81
f 85/85/85 86/86/86 81/81/81
f 85/85/85 87/87/87 86/86/86
f 87/87/87 88/88/88 86/86/86
f 91/91/91 90/90/90 89/89/89
f 92/92/92 91/91/91 89/89/89
f 95/95/95 94/94/94 93/93/93
f 96/96/96 95/95/95 93/93/93
f 96/96/96 97/97/97 95/95/95
f 97/97/97 98/98/98 95/95/95
f 101/101/101 100/100/100 99/99/99
f 100/100/100 102/102/102 99/99/99
f 102/102/102 103/103/103 99/99/99
f 103/103/103 104/104/104 99/99/99
f 107/107/107 106/106/106 105/105/105
f 106/106/106 108/108/108 105/105/105
f 105/105/105 108/108/108 109/109/109
f 109/109/109 108/108/108 110/110/110
f 108/108/108 111/111/111 110/110/110
f 110/110/110 111/111/111 112/112/112
f 112/112/112 111/111/111 113/113/113
f 111/111/111 114/114/114 113/113/113
f 117/117/117 116/116/116 115/115/115
f 115/115/115 118/118/118 117/117/117
f 119/119/119 118/118/118 115/115/115
f 120/120/120 118/118/118 119/119/119
f 117/117/117 118/118/118 121/121/121
f 122/122/122 118/118/118 120/120/120
f 121/121/121 118/118/118 122/122/122
f 122/122/122 123/123/123 121/121/121
f 126/126/126 125/125/125 124/124/124
f 126/126/126 124/124/124 127/127/127
f 127/127/127 124/124/124 128/128/128
f 129/129/129 126/126/126 127/127/127
f 130/130/130 126/126/126 129/129/129
f 131/131/131 130/130/130 129/129/129
f 124/124/124 132/132/132 128/128/128
f 128/128/128 132/132/132 133/133/133
f 132/132/132 134/134/134 133/133/133
f 132/132/132 135/135/135 134/134/134
f 133/133/133 134/134/134 136/136/136
f 134/134/134 137/137/137 136/136/136
f 140/140/140 139/139/139 138/138/138
f 141/141/141 140/140/140 138/138/138
f 142/142/142 141/141/141 138/138/138
f 143/143/143 141/141/141 142/142/142
f 146/146/146 145/145/145 144/144/144
f 144/144/144 145/145/145 147/147/147
f 148/148/148 145/145/145 146/146/146
f 147/147/147 145/145/145 149/149/149
f 150/150/150 145/145/145 148/148/148
f 149/149/149 145/145/145 150/150/150
f 153/153/153 152/152/152 151/151/151
f 151/151/151 152/152/152 154/154/154
f 155/155/155 152/152/152 153/153/153
f 154/154/154 152/152/152 156/156/156
f 157/157/157 152/152/152 155/155/155
f 156/156/156 152/152/152 157/157/157
f 160/160/160 159/159/159 158/158/158
f 159/159/159 161/161/161 158/158/158
f 162/162/162 159/159/159 160/160/160
f 158/158/158 161/161/161 163/163/163
f 164/164/164 162/162/162 160/160/160
f 161/161/161 165/165/165 163/163/163
f 166/166/166 162/162/162 164/164/164
f 163/163/163 165/165/165 167/167/167
f 168/168/168 166/166/166 164/164/164
f 165/165/165 169/169/169 167/167/167
f 169/169/169 166/166/166 168/168/168
f 167/167/167 169/169/169 168/168/168
f 172/172/172 171/171/171 170/170/170
f 173/173/173 172/172/172 170/170/170
f 170/170/170 171/171/171 174/174/174
f 175/175/175 172/172/172 173/173/173
f 171/171/171 176/176/176 174/174/174
f 177/177/177 175/175/175 173/173/173
f 174/174/174 176/176/176 178/178/178
f 179/179/179 175/175/175 177/177/177
f 176/176/176 180/180/180 178/178/178
f 181/181/181 179/179/179 177/177/177
f 178/178/178 180/180/180 181/181/181
f 180/180/180 179/179/179 181/181/181
f 184/184/184 183/183/183 182/182/182
f 185/185/185 184/184/184 182/182/182
f 182/182/182 183/183/183 186/186/186
f 187/187/187 184/184/184 185/185/185
f 188/188/188 187/187/187 185/185/185
f 183/183/183 189/189/189 186/186/186
f 186/186/186 189/189/189 190/190/190
f 184/184/184 191/191/191 183/183/183
f 187/187/187 191/191/191 184/184/184
f 183/183/183 191/191/191 189/189/189
f 192/192/192 187/187/187 188/188/188
f 192/192/192 191/191/191 187/187/187
f 193/193/193 192/192/192 188/188/188
f 190/190/190 194/194/194 193/193/193
f 189/189/189 194/194/194 190/190/190
f 189/189/189 191/191/191 194/194/194
f 194/194/194 191/191/191 192/192/192
f 194/194/194 192/192/192 193/193/193
