g SM_Prop_CoffeeTable_01
v 0.230235 0.4240276 0.3555859
v 0.2965863 0.4240276 0.3361792
v 0.2909454 0.4135324 0.3555865
v 0.2965863 0.4240276 0.3361792
v 0.366289 0.4240276 0.3555859
v 0.2909454 0.4135324 0.3555865
v 0.4075482 0.4240276 0.3555859
v 0.4247778 0.4240276 0.3370776
v 0.425393 0.4168354 0.3555859
v 0.4247778 0.4240276 0.3370776
v 0.4515729 0.4240276 0.3555859
v 0.425393 0.4168354 0.3555859
v -0.2377466 0.4240276 -0.3555859
v -0.3566095 0.4240276 -0.3352869
v -0.3530823 0.4137409 -0.3555865
v -0.3566095 0.4240276 -0.3352869
v -0.4776447 0.4240276 -0.3555865
v -0.3530823 0.4137409 -0.3555865
v 0.5968066 0.4240276 -0.2126813
v 0.5758826 0.4240276 -0.277981
v 0.5968066 0.4123892 -0.273595
v 0.5758826 0.4240276 -0.277981
v 0.5968066 0.4240276 -0.3337256
v 0.5968066 0.4123892 -0.273595
v 0.5462713 0.1869396 0.3301392
v 0.5703003 0.3026994 0.3301392
v 0.5703003 0.191376 0.3031073
v 0.5703009 0.1073467 0.3301392
v 0.5462713 0.1869396 0.3301392
v 0.5703003 0.191376 0.3031073
v 0.0332782 0.04187679 -0.05612304
v -0.1312549 0.04187679 -0.007375488
v -0.1230884 0.01763001 -0.05612304
v -0.1312549 0.04187679 -0.007375488
v -0.3187286 0.04187679 -0.05612304
v -0.1230884 0.01763001 -0.05612304
v -0.5968066 0.4240276 0.3555865
v 0.2965863 0.4240276 0.3361792
v 0.230235 0.4240276 0.3555859
v -0.3566095 0.4240276 -0.3352869
v -0.4776447 0.4240276 -0.3555865
v -0.5968066 0.4240276 -0.3555865
v 0.5758826 0.4240276 -0.277981
v -0.2377466 0.4240276 -0.3555859
v 0.5968066 0.4240276 -0.3337256
v 0.5968066 0.4240276 -0.3555865
v 0.4247778 0.4240276 0.3370776
v 0.5968066 0.4240276 -0.2126813
v 0.366289 0.4240276 0.3555859
v 0.4075482 0.4240276 0.3555859
v 0.5968066 0.4240276 0.3555865
v 0.4515729 0.4240276 0.3555859
v 0.5703003 0.3392596 0.2310974
v 0.5703003 0.3392596 -0.2310986
v 0.4786243 0.3392596 -0.2310986
v 0.4786243 0.3392596 0.2310974
v -0.4786237 0.3392596 -0.2310986
v -0.4786237 0.3392596 -0.3301404
v 0.4786243 0.3392596 -0.3301404
v -0.4786237 0.3392596 0.2310974
v 0.4786243 0.3392596 0.3301392
v -0.4786237 0.3392596 0.3301392
v -0.5702997 0.3392596 0.2310974
v -0.5702997 0.3392596 -0.2310986
v -0.5702997 0.3392596 0.2310974
v -0.5702997 0.04187679 0.2310974
v -0.4786237 0.04187679 0.2310974
v -0.4786237 0.3392596 0.2310974
v -0.4786237 0.3392596 0.2310974
v -0.4786237 0 0.3301392
v -0.4786237 0.3392596 0.3301392
v -0.4786237 0.04187679 0.2310974
v -0.4786237 0 0.05612366
v -0.4786237 0.04187679 0.05612366
v -0.4786237 0.3392596 0.3301392
v -0.4786237 0 0.3301392
v -0.5702997 0 0.3301392
v -0.5702997 0.3891853 0.3301392
v 0.5703003 0.3891853 0.3301392
v 0.4786243 0.3392596 0.3301392
v 0.5462713 0.1869396 0.3301392
v 0.5703003 0.3026994 0.3301392
v 0.4786243 0 0.3301392
v 0.5703003 0 0.3301392
v 0.5703009 0.1073467 0.3301392
v 0.4786243 0.3392596 0.2310974
v 0.4786243 0.04187679 0.2310974
v 0.5703003 0.04187679 0.2310974
v 0.5703003 0.3392596 0.2310974
v 0.4786243 0.3392596 0.3301392
v 0.4786243 0.04187679 0.2310974
v 0.4786243 0.3392596 0.2310974
v 0.4786243 0 0.3301392
v 0.4786243 0.04187679 0.05612366
v 0.4786243 0 0.05612366
v -0.4786237 0.3392596 -0.3301404
v -0.4786237 0.04187679 -0.2310986
v -0.4786237 0.3392596 -0.2310986
v -0.4786237 0 -0.3301404
v -0.4786237 0.04187679 -0.05612304
v -0.4786237 0 -0.05612304
v -0.4786237 0.3392596 -0.2310986
v -0.4786237 0.04187679 -0.2310986
v -0.5702997 0.04187679 -0.2310986
v -0.5702997 0.3392596 -0.2310986
v -0.5702997 0.3891853 -0.3301404
v -0.5702997 0 -0.3301404
v -0.4786237 0 -0.3301404
v -0.4786237 0.3392596 -0.3301404
v 0.5703003 0.3891853 -0.3301404
v 0.4786243 0.3392596 -0.3301404
v 0.5703003 0 -0.3301404
v 0.4786243 0 -0.3301404
v 0.5703003 0.3392596 -0.2310986
v 0.5703003 0.04187679 -0.2310986
v 0.4786243 0.04187679 -0.2310986
v 0.4786243 0.3392596 -0.2310986
v 0.4786243 0.3392596 -0.2310986
v 0.4786243 0 -0.3301404
v 0.4786243 0.3392596 -0.3301404
v 0.4786243 0.04187679 -0.2310986
v 0.4786243 0 -0.05612304
v 0.4786243 0.04187679 -0.05612304
v 0.4786243 0.04187679 0.2310974
v 0.4786243 0.04187679 0.05612366
v 0.5703003 0.04187679 0.2310974
v 0.5703003 0.04187679 -0.2310986
v 0.4786243 0.04187679 -0.05612304
v 0.4786243 0.04187679 -0.2310986
v -0.1312549 0.04187679 -0.007375488
v 0.0332782 0.04187679 -0.05612304
v -0.4786237 0.04187679 0.05612366
v -0.3187286 0.04187679 -0.05612304
v -0.4786237 0.04187679 -0.05612304
v -0.5702997 0.04187679 0.2310974
v -0.4786237 0.04187679 0.2310974
v -0.5702997 0.04187679 -0.2310986
v -0.4786237 0.04187679 -0.2310986
v 0.5703003 0 0.3301392
v 0.4786243 0 0.05612366
v 0.4786243 0 0.3301392
v 0.5703003 0 -0.3301404
v 0.4786243 0 -0.05612304
v 0.4786243 0 -0.3301404
v -0.4786237 0 0.05612366
v -0.4786237 0 -0.05612304
v -0.5702997 0 0.3301392
v -0.4786237 0 0.3301392
v -0.5702997 0 -0.3301404
v -0.4786237 0 -0.3301404
v -0.4786237 0 0.05612366
v -0.4786237 0.04187679 0.05612366
v 0.4786243 0.04187679 0.05612366
v 0.4786243 0 0.05612366
v 0.5968066 0.4240276 0.3555865
v 0.5968066 0.4240276 -0.2126813
v 0.5968066 0.4123892 -0.273595
v 0.5968066 0.3891853 0.3555865
v 0.5968066 0.3891853 -0.3555865
v 0.5968066 0.4240276 -0.3555865
v 0.5968066 0.4240276 -0.3337256
v 0.5968066 0.4240276 -0.3555865
v -0.2377466 0.4240276 -0.3555859
v -0.3530823 0.4137409 -0.3555865
v 0.5968066 0.3891853 -0.3555865
v -0.5968066 0.3891853 -0.3555865
v -0.5968066 0.4240276 -0.3555865
v -0.4776447 0.4240276 -0.3555865
v -0.5968066 0.4240276 0.3555865
v -0.5968066 0.3891853 0.3555865
v -0.5968066 0.3891853 -0.3555865
v -0.5968066 0.4240276 -0.3555865
v 0.425393 0.4168354 0.3555859
v 0.4515729 0.4240276 0.3555859
v 0.5968066 0.4240276 0.3555865
v 0.5968066 0.3891853 0.3555865
v 0.2909454 0.4135324 0.3555865
v -0.5968066 0.3891853 0.3555865
v 0.4075482 0.4240276 0.3555859
v 0.366289 0.4240276 0.3555859
v -0.5968066 0.4240276 0.3555865
v 0.230235 0.4240276 0.3555859
v -0.4786237 0.04187679 -0.05612304
v -0.1230884 0.01763001 -0.05612304
v -0.3187286 0.04187679 -0.05612304
v -0.4786237 0 -0.05612304
v 0.4786243 0 -0.05612304
v 0.0332782 0.04187679 -0.05612304
v 0.4786243 0.04187679 -0.05612304
v -0.5702997 0.3392596 -0.2310986
v -0.5702997 0.3891853 -0.3301404
v -0.5702997 0.3891853 0.3301392
v -0.5702997 0 -0.3301404
v -0.5702997 0.3392596 0.2310974
v -0.5702997 0.04187679 -0.2310986
v -0.5702997 0.04187679 0.2310974
v -0.5702997 0 0.3301392
v 0.5703003 0.3891853 -0.3301404
v 0.5703003 0 -0.3301404
v 0.5703003 0.04187679 -0.2310986
v 0.5703003 0 0.3301392
v 0.5703003 0.3392596 -0.2310986
v 0.5703003 0.3891853 0.3301392
v 0.5703003 0.04187679 0.2310974
v 0.5703009 0.1073467 0.3301392
v 0.5703003 0.191376 0.3031073
v 0.5703003 0.3392596 0.2310974
v 0.5703003 0.3026994 0.3301392
v -0.5968066 0.3891853 0.3555865
v 0.5968066 0.3891853 0.3555865
v 0.5703003 0.3891853 0.3301392
v -0.5702997 0.3891853 0.3301392
v 0.5703003 0.3891853 -0.3301404
v -0.5968066 0.3891853 -0.3555865
v 0.5968066 0.3891853 -0.3555865
v -0.5702997 0.3891853 -0.3301404
vt 0.01713562 0.3303223
vt 0.01713562 0.3303223
vt 0.01713562 0.3303223
vt 0.01713562 0.3303223
vt 0.01713562 0.3303223
vt 0.01713562 0.3303223
vt 0.01713562 0.3303223
vt 0.01713562 0.3303223
vt 0.01713562 0.3303223
vt 0.01713562 0.3303223
vt 0.01713562 0.3303223
vt 0.01713562 0.3303223
vt 0.01713562 0.3303223
vt 0.01713562 0.3303223
vt 0.01713562 0.3303223
vt 0.01713562 0.3303223
vt 0.01713562 0.3303223
vt 0.01713562 0.3303223
vt 0.01713562 0.3303223
vt 0.01713562 0.3303223
vt 0.01713562 0.3303223
vt 0.01713562 0.3303223
vt 0.01713562 0.3303223
vt 0.01713562 0.3303223
vt 0.01623535 0.326416
vt 0.01623535 0.326416
vt 0.01623535 0.326416
vt 0.01623535 0.326416
vt 0.01623535 0.326416
vt 0.01623535 0.326416
vt 0.01623535 0.3271484
vt 0.01623535 0.3271484
vt 0.01623535 0.3271484
vt 0.01623535 0.3271484
vt 0.01623535 0.3271484
vt 0.01623535 0.3271484
vt 0.01713562 0.3046875
vt 0.01713562 0.3046875
vt 0.01713562 0.3046875
vt 0.01713562 0.3046875
vt 0.01713562 0.3046875
vt 0.01713562 0.3046875
vt 0.01713562 0.3046875
vt 0.01713562 0.3046875
vt 0.01713562 0.3046875
vt 0.01713562 0.3046875
vt 0.01713562 0.3046875
vt 0.01713562 0.3046875
vt 0.01713562 0.3046875
vt 0.01713562 0.3046875
vt 0.01713562 0.3046875
vt 0.01713562 0.3046875
vt 0.01713562 0.2800293
vt 0.01713562 0.2800293
vt 0.01713562 0.2800293
vt 0.01713562 0.2800293
vt 0.01713562 0.2800293
vt 0.01713562 0.2800293
vt 0.01713562 0.2800293
vt 0.01713562 0.2800293
vt 0.01713562 0.2800293
vt 0.01713562 0.2800293
vt 0.01713562 0.2800293
vt 0.01713562 0.2800293
vt 0.01713562 0.2800293
vt 0.01713562 0.2800293
vt 0.01713562 0.2800293
vt 0.01713562 0.2800293
vt 0.01713562 0.2800293
vt 0.01713562 0.2800293
vt 0.01713562 0.2800293
vt 0.01713562 0.2800293
vt 0.01713562 0.2800293
vt 0.01713562 0.2800293
vt 0.01713562 0.2800293
vt 0.01713562 0.2800293
vt 0.01713562 0.2800293
vt 0.01713562 0.2800293
vt 0.01713562 0.2800293
vt 0.01713562 0.2800293
vt 0.01713562 0.2800293
vt 0.01713562 0.2800293
vt 0.01713562 0.2800293
vt 0.01713562 0.2800293
vt 0.01713562 0.2800293
vt 0.01713562 0.2800293
vt 0.01713562 0.2800293
vt 0.01713562 0.2800293
vt 0.01713562 0.2800293
vt 0.01713562 0.2800293
vt 0.01713562 0.2800293
vt 0.01713562 0.2800293
vt 0.01713562 0.2800293
vt 0.01713562 0.2800293
vt 0.01713562 0.2800293
vt 0.01713562 0.2800293
vt 0.01713562 0.2800293
vt 0.01713562 0.2800293
vt 0.01713562 0.2800293
vt 0.01713562 0.2800293
vt 0.01713562 0.2800293
vt 0.01713562 0.2800293
vt 0.01713562 0.2800293
vt 0.01713562 0.2800293
vt 0.01713562 0.2800293
vt 0.01713562 0.2800293
vt 0.01713562 0.2800293
vt 0.01713562 0.2800293
vt 0.01713562 0.2800293
vt 0.01713562 0.2800293
vt 0.01713562 0.2800293
vt 0.01713562 0.2800293
vt 0.01713562 0.2800293
vt 0.01713562 0.2800293
vt 0.01713562 0.2800293
vt 0.01713562 0.2800293
vt 0.01713562 0.2800293
vt 0.01713562 0.2800293
vt 0.01713562 0.2800293
vt 0.01713562 0.2800293
vt 0.01713562 0.2800293
vt 0.01713562 0.2800293
vt 0.01713562 0.2800293
vt 0.01713562 0.2800293
vt 0.01713562 0.2800293
vt 0.01713562 0.2800293
vt 0.01713562 0.2800293
vt 0.01713562 0.2800293
vt 0.01713562 0.2800293
vt 0.01713562 0.2800293
vt 0.01713562 0.2800293
vt 0.01713562 0.2800293
vt 0.01713562 0.2800293
vt 0.01713562 0.2800293
vt 0.01713562 0.2800293
vt 0.01713562 0.2800293
vt 0.01713562 0.2800293
vt 0.01713562 0.2800293
vt 0.01713562 0.2800293
vt 0.01713562 0.2800293
vt 0.01713562 0.2800293
vt 0.01713562 0.2800293
vt 0.01713562 0.2800293
vt 0.01713562 0.2800293
vt 0.01713562 0.2800293
vt 0.01713562 0.2800293
vt 0.01713562 0.2800293
vt 0.01713562 0.2800293
vt 0.01713562 0.2800293
vt 0.01713562 0.2800293
vt 0.01713562 0.2800293
vt 0.01713562 0.2800293
vt 0.01713562 0.2800293
vt 0.01713562 0.2800293
vt 0.01713562 0.2800293
vt 0.01713562 0.2800293
vt 0.01713562 0.2800293
vt 0.01713562 0.2800293
vt 0.01713562 0.2800293
vt 0.01713562 0.2800293
vt 0.01713562 0.2800293
vt 0.01713562 0.2800293
vt 0.01713562 0.2800293
vt 0.01713562 0.2800293
vt 0.01713562 0.2800293
vt 0.01713562 0.2800293
vt 0.01713562 0.2800293
vt 0.01713562 0.2800293
vt 0.01713562 0.2800293
vt 0.01713562 0.2800293
vt 0.01713562 0.2800293
vt 0.01713562 0.2800293
vt 0.01713562 0.2800293
vt 0.01713562 0.2800293
vt 0.01713562 0.2800293
vt 0.01713562 0.2800293
vt 0.01713562 0.2800293
vt 0.01713562 0.2800293
vt 0.01713562 0.2800293
vt 0.01713562 0.2800293
vt 0.01713562 0.2800293
vt 0.01713562 0.2800293
vt 0.01713562 0.2800293
vt 0.01713562 0.2800293
vt 0.01713562 0.2800293
vt 0.01713562 0.2800293
vt 0.01713562 0.2800293
vt 0.01713562 0.2800293
vt 0.01713562 0.2800293
vt 0.01713562 0.2800293
vt 0.01713562 0.2800293
vt 0.01713562 0.2800293
vt 0.01713562 0.2800293
vt 0.01713562 0.2800293
vt 0.01713562 0.2800293
vt 0.01713562 0.2800293
vt 0.01713562 0.2800293
vt 0.01713562 0.2800293
vt 0.01713562 0.2800293
vt 0.01713562 0.2800293
vt 0.01713562 0.2800293
vt 0.01713562 0.2800293
vt 0.01713562 0.2800293
vt 0.01713562 0.2800293
vt 0.01713562 0.2800293
vt 0.01713562 0.2800293
vt 0.01713562 0.2800293
vt 0.01713562 0.2800293
vt 0.01713562 0.2800293
vt 0.01713562 0.2800293
vt 0.01713562 0.2800293
vt 0.01713562 0.2800293
vt 0.01713562 0.2800293
vt 0.01713562 0.2800293
vt 0.01713562 0.2800293
vt 0.01713562 0.2800293
vn 0.1472168 0.8515625 0.503418
vn 0.1472168 0.8515625 0.503418
vn 0.1472168 0.8515625 0.503418
vn -0.1235962 0.8876953 0.4440918
vn -0.1235962 0.8876953 0.4440918
vn -0.1235962 0.8876953 0.4440918
vn 0.3530273 0.8759766 0.3286133
vn 0.3530273 0.8759766 0.3286133
vn 0.3530273 0.8759766 0.3286133
vn -0.2473145 0.9003906 0.3581543
vn -0.2473145 0.9003906 0.3581543
vn -0.2473145 0.9003906 0.3581543
vn -0.07879639 0.8837891 -0.4614258
vn -0.07879639 0.8837891 -0.4614258
vn -0.07879639 0.8837891 -0.4614258
vn 0.07391357 0.8945313 -0.4404297
vn 0.07391357 0.8945313 -0.4404297
vn 0.07391357 0.8945313 -0.4404297
vn 0.5053711 0.8476563 -0.1619873
vn 0.5053711 0.8476563 -0.1619873
vn 0.5053711 0.8476563 -0.1619873
vn 0.4516602 0.8759766 0.1695557
vn 0.4516602 0.8759766 0.1695557
vn 0.4516602 0.8759766 0.1695557
vn 0.7509766 -0.1558838 0.6416016
vn 0.7509766 -0.1558838 0.6416016
vn 0.7509766 -0.1558838 0.6416016
vn 0.7119141 0.2149658 0.668457
vn 0.7119141 0.2149658 0.668457
vn 0.7119141 0.2149658 0.668457
vn -0.1361084 0.8779297 -0.4594727
vn -0.1361084 0.8779297 -0.4594727
vn -0.1361084 0.8779297 -0.4594727
vn 0.1112061 0.8969727 -0.4274902
vn 0.1112061 0.8969727 -0.4274902
vn 0.1112061 0.8969727 -0.4274902
vn 0 1 0
vn 0 1 0
vn 0 1 0
vn 0 1 0
vn 0 1 0
vn 0 1 0
vn 0 1 0
vn 0 1 0
vn 0 1 0
vn 0 1 0
vn 0 1 0
vn 0 1 0
vn 0 1 0
vn 0 1 0
vn 0 1 0
vn 0 1 0
vn 0 -1 0
vn 0 -1 0
vn 0 -1 0
vn 0 -1 0
vn 0 -1 0
vn 0 -1 0
vn 0 -1 0
vn 0 -1 0
vn 0 -1 0
vn 0 -1 0
vn 0 -1 0
vn 0 -1 0
vn 0 0 -1
vn 0 0 -1
vn 0 0 -1
vn 0 0 -1
vn 1 0 0
vn 1 0 0
vn 1 0 0
vn 1 0 0
vn 1 0 0
vn 1 0 0
vn 0 0 1
vn 0 0 1
vn 0 0 1
vn 0 0 1
vn 0 0 1
vn 0 0 1
vn 0 0 1
vn 0 0 1
vn 0 0 1
vn 0 0 1
vn 0 0 1
vn 0 0 -1
vn 0 0 -1
vn 0 0 -1
vn 0 0 -1
vn -1 0 0
vn -1 0 0
vn -1 0 0
vn -1 0 0
vn -1 0 0
vn -1 0 0
vn 1 0 0
vn 1 0 0
vn 1 0 0
vn 1 0 0
vn 1 0 0
vn 1 0 0
vn 0 0 1
vn 0 0 1
vn 0 0 1
vn 0 0 1
vn 0 0 -1
vn 0 0 -1
vn 0 0 -1
vn 0 0 -1
vn 0 0 -1
vn 0 0 -1
vn 0 0 -1
vn 0 0 -1
vn 0 0 1
vn 0 0 1
vn 0 0 1
vn 0 0 1
vn -1 0 0
vn -1 0 0
vn -1 0 0
vn -1 0 0
vn -1 0 0
vn -1 0 0
vn 0 1 0
vn 0 1 0
vn 0 1 0
vn 0 1 0
vn 0 1 0
vn 0 1 0
vn 0 1 0
vn 0 1 0
vn 0 1 0
vn 0 1 0
vn 0 1 0
vn 0 1 0
vn 0 1 0
vn 0 1 0
vn 0 1 0
vn 0 -1 0
vn 0 -1 0
vn 0 -1 0
vn 0 -1 0
vn 0 -1 0
vn 0 -1 0
vn 0 -1 0
vn 0 -1 0
vn 0 -1 0
vn 0 -1 0
vn 0 -1 0
vn 0 -1 0
vn 0 0 1
vn 0 0 1
vn 0 0 1
vn 0 0 1
vn 1 0 0
vn 1 0 0
vn 1 0 0
vn 1 0 0
vn 1 0 0
vn 1 0 0
vn 1 0 0
vn 0 1.388788E-05 -1
vn 0 1.388788E-05 -1
vn 0 4.649162E-06 -1
vn 0 6.973743E-06 -1
vn 0 0 -1
vn 0 0 -1
vn 0 0 -1
vn -1 0 0
vn -1 0 0
vn -1 0 0
vn -1 0 0
vn 0 1.084805E-05 1
vn 0 0 1
vn 0 0 1
vn 0 0 1
vn 0 1.466274E-05 1
vn 0 9.655952E-06 1
vn 0 2.473593E-05 1
vn 0 2.473593E-05 1
vn 0 1.364946E-05 1
vn 0 1.364946E-05 1
vn 0 0 -1
vn 0 0 -1
vn 0 0 -1
vn 0 0 -1
vn 0 0 -1
vn 0 0 -1
vn 0 0 -1
vn -1 0 0
vn -1 0 0
vn -1 0 0
vn -1 0 0
vn -1 0 0
vn -1 0 0
vn -1 0 0
vn -1 0 0
vn 1 0 0
vn 1 0 0
vn 1 0 0
vn 1 0 0
vn 1 0 0
vn 1 0 0
vn 1 0 0
vn 1 0 0
vn 1 0 0
vn 1 0 0
vn 1 0 0
vn 0 -1 0
vn 0 -1 0
vn 0 -1 0
vn 0 -1 0
vn 0 -1 0
vn 0 -1 0
vn 0 -1 0
vn 0 -1 0
g SM_Prop_CoffeeTable_01_0
f 3/3/3 2/2/2 1/1/1
f 6/6/6 5/5/5 4/4/4
f 9/9/9 8/8/8 7/7/7
f 12/12/12 11/11/11 10/10/10
f 15/15/15 14/14/14 13/13/13
f 18/18/18 17/17/17 16/16/16
f 21/21/21 20/20/20 19/19/19
f 24/24/24 23/23/23 22/22/22
f 27/27/27 26/26/26 25/25/25
f 30/30/30 29/29/29 28/28/28
f 33/33/33 32/32/32 31/31/31
f 36/36/36 35/35/35 34/34/34
f 39/39/39 38/38/38 37/37/37
f 38/38/38 40/40/40 37/37/37
f 40/40/40 41/41/41 37/37/37
f 41/41/41 42/42/42 37/37/37
f 40/40/40 38/38/38 43/43/43
f 43/43/43 44/44/44 40/40/40
f 43/43/43 45/45/45 44/44/44
f 45/45/45 46/46/46 44/44/44
f 38/38/38 47/47/47 43/43/43
f 48/48/48 43/43/43 47/47/47
f 38/38/38 49/49/49 47/47/47
f 49/49/49 50/50/50 47/47/47
f 47/47/47 51/51/51 48/48/48
f 47/47/47 52/52/52 51/51/51
f 55/55/55 54/54/54 53/53/53
f 56/56/56 55/55/55 53/53/53
f 57/57/57 55/55/55 56/56/56
f 55/55/55 57/57/57 58/58/58
f 59/59/59 55/55/55 58/58/58
f 60/60/60 57/57/57 56/56/56
f 56/56/56 61/61/61 60/60/60
f 61/61/61 62/62/62 60/60/60
f 60/60/60 63/63/63 57/57/57
f 63/63/63 64/64/64 57/57/57
f 67/67/67 66/66/66 65/65/65
f 68/68/68 67/67/67 65/65/65
f 71/71/71 70/70/70 69/69/69
f 70/70/70 72/72/72 69/69/69
f 70/70/70 73/73/73 72/72/72
f 73/73/73 74/74/74 72/72/72
f 77/77/77 76/76/76 75/75/75
f 78/78/78 77/77/77 75/75/75
f 79/79/79 78/78/78 75/75/75
f 80/80/80 79/79/79 75/75/75
f 80/80/80 81/81/81 79/79/79
f 81/81/81 82/82/82 79/79/79
f 80/80/80 83/83/83 81/81/81
f 83/83/83 84/84/84 81/81/81
f 84/84/84 85/85/85 81/81/81
f 88/88/88 87/87/87 86/86/86
f 89/89/89 88/88/88 86/86/86
f 92/92/92 91/91/91 90/90/90
f 91/91/91 93/93/93 90/90/90
f 91/91/91 94/94/94 93/93/93
f 94/94/94 95/95/95 93/93/93
f 98/98/98 97/97/97 96/96/96
f 97/97/97 99/99/99 96/96/96
f 97/97/97 100/100/100 99/99/99
f 100/100/100 101/101/101 99/99/99
f 104/104/104 103/103/103 102/102/102
f 105/105/105 104/104/104 102/102/102
f 108/108/108 107/107/107 106/106/106
f 109/109/109 108/108/108 106/106/106
f 109/109/109 106/106/106 110/110/110
f 111/111/111 109/109/109 110/110/110
f 110/110/110 112/112/112 111/111/111
f 112/112/112 113/113/113 111/111/111
f 116/116/116 115/115/115 114/114/114
f 117/117/117 116/116/116 114/114/114
f 120/120/120 119/119/119 118/118/118
f 119/119/119 121/121/121 118/118/118
f 119/119/119 122/122/122 121/121/121
f 122/122/122 123/123/123 121/121/121
f 126/126/126 125/125/125 124/124/124
f 126/126/126 127/127/127 125/125/125
f 127/127/127 128/128/128 125/125/125
f 129/129/129 128/128/128 127/127/127
f 125/125/125 128/128/128 130/130/130
f 128/128/128 131/131/131 130/130/130
f 125/125/125 130/130/130 132/132/132
f 130/130/130 133/133/133 132/132/132
f 133/133/133 134/134/134 132/132/132
f 132/132/132 134/134/134 135/135/135
f 136/136/136 132/132/132 135/135/135
f 134/134/134 137/137/137 135/135/135
f 137/137/137 134/134/134 138/138/138
f 141/141/141 140/140/140 139/139/139
f 142/142/142 139/139/139 140/140/140
f 143/143/143 142/142/142 140/140/140
f 142/142/142 143/143/143 144/144/144
f 143/143/143 140/140/140 145/145/145
f 146/146/146 143/143/143 145/145/145
f 146/146/146 145/145/145 147/147/147
f 147/147/147 145/145/145 148/148/148
f 149/149/149 146/146/146 147/147/147
f 150/150/150 146/146/146 149/149/149
f 153/153/153 152/152/152 151/151/151
f 154/154/154 153/153/153 151/151/151
f 157/157/157 156/156/156 155/155/155
f 158/158/158 157/157/157 155/155/155
f 158/158/158 159/159/159 157/157/157
f 159/159/159 160/160/160 157/157/157
f 160/160/160 161/161/161 157/157/157
f 164/164/164 163/163/163 162/162/162
f 165/165/165 164/164/164 162/162/162
f 165/165/165 166/166/166 164/164/164
f 166/166/166 167/167/167 164/164/164
f 167/167/167 168/168/168 164/164/164
f 171/171/171 170/170/170 169/169/169
f 172/172/172 171/171/171 169/169/169
f 175/175/175 174/174/174 173/173/173
f 176/176/176 175/175/175 173/173/173
f 176/176/176 173/173/173 177/177/177
f 178/178/178 176/176/176 177/177/177
f 173/173/173 179/179/179 177/177/177
f 179/179/179 180/180/180 177/177/177
f 178/178/178 177/177/177 181/181/181
f 177/177/177 182/182/182 181/181/181
f 185/185/185 184/184/184 183/183/183
f 184/184/184 186/186/186 183/183/183
f 184/184/184 187/187/187 186/186/186
f 184/184/184 188/188/188 187/187/187
f 188/188/188 189/189/189 187/187/187
f 192/192/192 191/191/191 190/190/190
f 191/191/191 193/193/193 190/190/190
f 194/194/194 192/192/192 190/190/190
f 193/193/193 195/195/195 190/190/190
f 194/194/194 196/196/196 192/192/192
f 195/195/195 193/193/193 197/197/197
f 196/196/196 197/197/197 192/192/192
f 196/196/196 195/195/195 197/197/197
f 200/200/200 199/199/199 198/198/198
f 199/199/199 200/200/200 201/201/201
f 202/202/202 200/200/200 198/198/198
f 202/202/202 198/198/198 203/203/203
f 200/200/200 204/204/204 201/201/201
f 205/205/205 201/201/201 204/204/204
f 206/206/206 205/205/205 204/204/204
f 207/207/207 202/202/202 203/203/203
f 206/206/206 204/204/204 207/207/207
f 203/203/203 208/208/208 207/207/207
f 208/208/208 206/206/206 207/207/207
f 211/211/211 210/210/210 209/209/209
f 212/212/212 211/211/211 209/209/209
f 211/211/211 213/213/213 210/210/210
f 212/212/212 209/209/209 214/214/214
f 213/213/213 215/215/215 210/210/210
f 216/216/216 212/212/212 214/214/214
f 216/216/216 214/214/214 215/215/215
f 213/213/213 216/216/216 215/215/215
