g SM_Prop_Mop_02
v 0.006682129 -0.7483072 0.09415039
v 0.002381592 -0.8553191 0.003779907
v -0.1185324 -0.6961194 0.08079101
v 0.1185324 -0.7196417 0.0397522
v 0.002381592 -0.8553191 0.003779907
v 0.006682129 -0.7483072 0.09415039
v 0.1064349 -0.7048829 -0.0581958
v 0.002381592 -0.8553191 0.003779907
v 0.1185324 -0.7196417 0.0397522
v 0.002147217 -0.7098463 -0.1050085
v 0.002381592 -0.8553191 0.003779907
v 0.1064349 -0.7048829 -0.0581958
v -0.09409759 -0.7130351 -0.06066895
v 0.002381592 -0.8553191 0.003779907
v 0.002147217 -0.7098463 -0.1050085
v -0.1185324 -0.6961194 0.08079101
v 0.002381592 -0.8553191 0.003779907
v -0.09409759 -0.7130351 -0.06066895
v 0.01807373 -0.439825 -0.005093994
v 0.01807373 0.8420076 0.002027588
v 0.01807373 0.8419786 -0.01701599
v 0.01807373 -0.4398538 -0.02413635
v 0.001547546 0.8552791 0.001583862
v -0.008302307 0.8553066 -0.002096558
v -0.008302307 0.8552734 -0.01343018
v 0.001547546 0.8553088 -0.01817627
v 0.0113974 0.8553066 -0.002096558
v 0.0113974 0.8552734 -0.01343018
v -0.01497864 0.8420076 0.002027588
v -0.01497864 -0.439825 -0.005093994
v -0.01497864 -0.439854 -0.02413635
v -0.01497864 0.8419786 -0.01701599
v 0.001547851 0.8420376 -0.02492187
v -0.01497864 0.8419786 -0.01701599
v -0.01497864 -0.439854 -0.02413635
v 0.001547851 -0.4398082 -0.03023804
v -0.01497864 -0.439825 -0.005093994
v -0.01497864 0.8420076 0.002027588
v 0.001547851 0.841962 0.008132324
v 0.001547851 -0.4398841 0.0028125
v 0.001547851 0.841962 0.008132324
v 0.01807373 0.8420076 0.002027588
v 0.01807373 -0.439825 -0.005093994
v 0.001547851 -0.4398841 0.0028125
v 0.01807373 -0.4398538 -0.02413635
v 0.01807373 0.8419786 -0.01701599
v 0.001547851 0.8420376 -0.02492187
v 0.001547851 -0.4398082 -0.03023804
v 0.001547851 0.8420376 -0.02492187
v 0.001547546 0.8553088 -0.01817627
v -0.008302307 0.8552734 -0.01343018
v -0.01497864 0.8419786 -0.01701599
v -0.01497864 0.8419786 -0.01701599
v -0.008302307 0.8552734 -0.01343018
v -0.008302307 0.8553066 -0.002096558
v -0.01497864 0.8420076 0.002027588
v -0.01497864 0.8420076 0.002027588
v -0.008302307 0.8553066 -0.002096558
v 0.001547546 0.8552791 0.001583862
v 0.001547851 0.841962 0.008132324
v 0.01807373 0.8420076 0.002027588
v 0.0113974 0.8553066 -0.002096558
v 0.0113974 0.8552734 -0.01343018
v 0.01807373 0.8419786 -0.01701599
v 0.01807373 0.8419786 -0.01701599
v 0.0113974 0.8552734 -0.01343018
v 0.001547546 0.8553088 -0.01817627
v 0.001547851 0.8420376 -0.02492187
v 0.001547851 0.841962 0.008132324
v 0.001547546 0.8552791 0.001583862
v 0.0113974 0.8553066 -0.002096558
v 0.01807373 0.8420076 0.002027588
v 0.01807373 -0.4398538 -0.02413635
v 0.02826385 -0.4591053 -0.03070679
v 0.02826385 -0.4590587 7.69043E-05
v 0.01807373 -0.439825 -0.005093994
v -0.01497864 -0.439825 -0.005093994
v -0.02516876 -0.4590587 7.69043E-05
v -0.02516876 -0.4591054 -0.03070679
v -0.01497864 -0.439854 -0.02413635
v 0.001547851 -0.4398082 -0.03023804
v 0.001547851 -0.4590316 -0.04057129
v 0.02826385 -0.4591053 -0.03070679
v 0.01807373 -0.4398538 -0.02413635
v 0.001547851 -0.4398841 0.0028125
v 0.001547851 -0.4591541 0.01285828
v -0.02516876 -0.4590587 7.69043E-05
v -0.01497864 -0.439825 -0.005093994
v -0.01497864 -0.439854 -0.02413635
v -0.02516876 -0.4591054 -0.03070679
v 0.001547851 -0.4590316 -0.04057129
v 0.001547851 -0.4398082 -0.03023804
v 0.01807373 -0.439825 -0.005093994
v 0.02826385 -0.4590587 7.69043E-05
v 0.001547851 -0.4591541 0.01285828
v 0.001547851 -0.4398841 0.0028125
v 0.02826385 -0.4591053 -0.03070679
v 0.02826385 -0.5375881 -0.03129333
v 0.02826385 -0.5375414 -0.0005096435
v 0.02826385 -0.4590587 7.69043E-05
v -0.02516876 -0.4590587 7.69043E-05
v -0.02516876 -0.5375414 -0.0005096435
v -0.02516876 -0.5375881 -0.03129333
v -0.02516876 -0.4591054 -0.03070679
v 0.001547851 -0.4590316 -0.04057129
v 0.001547851 -0.5375143 -0.04115723
v 0.02826385 -0.5375881 -0.03129333
v 0.02826385 -0.4591053 -0.03070679
v 0.001547851 -0.4591541 0.01285828
v 0.001547851 -0.5376368 0.01227173
v -0.02516876 -0.5375414 -0.0005096435
v -0.02516876 -0.4590587 7.69043E-05
v -0.02516876 -0.4591054 -0.03070679
v -0.02516876 -0.5375881 -0.03129333
v 0.001547851 -0.5375143 -0.04115723
v 0.001547851 -0.4590316 -0.04057129
v 0.02826385 -0.4590587 7.69043E-05
v 0.02826385 -0.5375414 -0.0005096435
v 0.001547851 -0.5376368 0.01227173
v 0.001547851 -0.4591541 0.01285828
v 0.03995148 -0.5375934 -0.03866516
v 0.04876343 -0.5540613 -0.04434631
v 0.04876343 -0.5539789 0.01005737
v 0.03995148 -0.5375264 0.005585937
v -0.03685638 -0.5375264 0.005585937
v -0.04566833 -0.5539789 0.01005737
v -0.04566833 -0.5540615 -0.04434631
v -0.03685638 -0.5375935 -0.03866516
v 0.001547851 -0.5374875 -0.05284424
v 0.001547851 -0.5539311 -0.06177856
v 0.04876343 -0.5540613 -0.04434631
v 0.03995148 -0.5375934 -0.03866516
v 0.001547851 -0.5376636 0.02395935
v 0.001547851 -0.5541475 0.0326477
v -0.04566833 -0.5539789 0.01005737
v -0.03685638 -0.5375264 0.005585937
v -0.03685638 -0.5375935 -0.03866516
v -0.04566833 -0.5540615 -0.04434631
v 0.001547851 -0.5539311 -0.06177856
v 0.001547851 -0.5374875 -0.05284424
v 0.03995148 -0.5375264 0.005585937
v 0.04876343 -0.5539789 0.01005737
v 0.001547851 -0.5541475 0.0326477
v 0.001547851 -0.5376636 0.02395935
v 0.04876343 -0.5540613 -0.04434631
v 0.1205991 -0.57545 -0.07976806
v 0.134306 -0.5921727 0.03121399
v 0.04876343 -0.5539789 0.01005737
v -0.04566833 -0.5539789 0.01005737
v -0.134306 -0.5655201 0.07771301
v -0.1066196 -0.584687 -0.08257019
v -0.04566833 -0.5540615 -0.04434631
v 0.001547851 -0.5539311 -0.06177856
v 0.002432861 -0.5810738 -0.1328113
v 0.1205991 -0.57545 -0.07976806
v 0.04876343 -0.5540613 -0.04434631
v -0.04566833 -0.5540615 -0.04434631
v -0.1066196 -0.584687 -0.08257019
v 0.002432861 -0.5810738 -0.1328113
v 0.001547851 -0.5539311 -0.06177856
v 0.007571411 -0.6248841 0.1238043
v 0.001547851 -0.5541475 0.0326477
v 0.04876343 -0.5539789 0.01005737
v 0.134306 -0.5921727 0.03121399
v 0.001547851 -0.5541475 0.0326477
v 0.007571411 -0.6248841 0.1238043
v -0.134306 -0.5655201 0.07771301
v -0.04566833 -0.5539789 0.01005737
v 0.007571411 -0.6248841 0.1238043
v 0.006682129 -0.7483072 0.09415039
v -0.1185324 -0.6961194 0.08079101
v -0.134306 -0.5655201 0.07771301
v 0.134306 -0.5921727 0.03121399
v 0.1185324 -0.7196417 0.0397522
v 0.006682129 -0.7483072 0.09415039
v 0.007571411 -0.6248841 0.1238043
v 0.1205991 -0.57545 -0.07976806
v 0.1064349 -0.7048829 -0.0581958
v 0.1185324 -0.7196417 0.0397522
v 0.134306 -0.5921727 0.03121399
v 0.002432861 -0.5810738 -0.1328113
v 0.002147217 -0.7098463 -0.1050085
v 0.1064349 -0.7048829 -0.0581958
v 0.1205991 -0.57545 -0.07976806
v -0.1066196 -0.584687 -0.08257019
v -0.09409759 -0.7130351 -0.06066895
v 0.002147217 -0.7098463 -0.1050085
v 0.002432861 -0.5810738 -0.1328113
v -0.134306 -0.5655201 0.07771301
v -0.1185324 -0.6961194 0.08079101
v -0.09409759 -0.7130351 -0.06066895
v -0.1066196 -0.584687 -0.08257019
v 0.02826385 -0.5375881 -0.03129333
v 0.03995148 -0.5375934 -0.03866516
v 0.03995148 -0.5375264 0.005585937
v 0.02826385 -0.5375414 -0.0005096435
v 0.001547851 -0.5375143 -0.04115723
v 0.001547851 -0.5376636 0.02395935
v 0.001547851 -0.5374875 -0.05284424
v 0.001547851 -0.5376368 0.01227173
v -0.02516876 -0.5375881 -0.03129333
v -0.03685638 -0.5375264 0.005585937
v -0.03685638 -0.5375935 -0.03866516
v -0.02516876 -0.5375414 -0.0005096435
vt 0.0362854 0.3523729
vt 0.0362854 0.3523731
vt 0.0362854 0.3523729
vt 0.0362854 0.3523729
vt 0.0362854 0.3523731
vt 0.0362854 0.3523729
vt 0.0362854 0.3523729
vt 0.0362854 0.3523731
vt 0.0362854 0.3523729
vt 0.0362854 0.3523729
vt 0.0362854 0.3523731
vt 0.0362854 0.3523729
vt 0.0362854 0.3523729
vt 0.0362854 0.3523731
vt 0.0362854 0.3523729
vt 0.0362854 0.3523729
vt 0.0362854 0.3523731
vt 0.0362854 0.3523729
vt 0.03541392 0.2799355
vt 0.03543416 0.278953
vt 0.03542876 0.2789579
vt 0.03540918 0.2799491
vt 0.03541273 0.2789503
vt 0.03538787 0.2789508
vt 0.03538197 0.2789558
vt 0.03540289 0.2789589
vt 0.03543416 0.278953
vt 0.03542876 0.2789579
vt 0.03538787 0.2789508
vt 0.03537482 0.2799296
vt 0.03536972 0.279943
vt 0.03538197 0.2789558
vt 0.03540289 0.2789589
vt 0.03538197 0.2789558
vt 0.03536972 0.279943
vt 0.03538778 0.2799504
vt 0.03537482 0.2799296
vt 0.03538787 0.2789508
vt 0.03541273 0.2789503
vt 0.03539637 0.2799271
vt 0.03541273 0.2789503
vt 0.03543416 0.278953
vt 0.03541392 0.2799355
vt 0.03539637 0.2799271
vt 0.03540918 0.2799491
vt 0.03542876 0.2789579
vt 0.03540289 0.2789589
vt 0.03538778 0.2799504
vt 0.03540289 0.2789589
vt 0.03540289 0.2789589
vt 0.03538197 0.2789558
vt 0.03538197 0.2789558
vt 0.03538197 0.2789558
vt 0.03538197 0.2789558
vt 0.03538787 0.2789508
vt 0.03538787 0.2789508
vt 0.03538787 0.2789508
vt 0.03538787 0.2789508
vt 0.03541273 0.2789503
vt 0.03541273 0.2789503
vt 0.03543416 0.278953
vt 0.03543416 0.278953
vt 0.03542876 0.2789579
vt 0.03542876 0.2789579
vt 0.03542876 0.2789579
vt 0.03542876 0.2789579
vt 0.03540289 0.2789589
vt 0.03540289 0.2789589
vt 0.03541273 0.2789503
vt 0.03541273 0.2789503
vt 0.03543416 0.278953
vt 0.03543416 0.278953
vt 0.09262085 0.3504295
vt 0.09262085 0.3504295
vt 0.09262085 0.3504295
vt 0.09262085 0.3504295
vt 0.09262085 0.3504295
vt 0.09262085 0.3504295
vt 0.09262085 0.3504295
vt 0.09262085 0.3504295
vt 0.09262085 0.3504295
vt 0.09262085 0.3504295
vt 0.09262085 0.3504295
vt 0.09262085 0.3504295
vt 0.09262085 0.3504295
vt 0.09262085 0.3504295
vt 0.09262085 0.3504295
vt 0.09262085 0.3504295
vt 0.09262085 0.3504295
vt 0.09262085 0.3504295
vt 0.09262085 0.3504295
vt 0.09262085 0.3504295
vt 0.09262085 0.3504295
vt 0.09262085 0.3504295
vt 0.09262085 0.3504295
vt 0.09262085 0.3504295
vt 0.09262085 0.3504295
vt 0.09262085 0.3504295
vt 0.09262085 0.3504295
vt 0.09262085 0.3504295
vt 0.09262085 0.3504295
vt 0.09262085 0.3504295
vt 0.09262085 0.3504295
vt 0.09262085 0.3504295
vt 0.09262085 0.3504295
vt 0.09262085 0.3504295
vt 0.09262085 0.3504295
vt 0.09262085 0.3504295
vt 0.09262085 0.3504295
vt 0.09262085 0.3504295
vt 0.09262085 0.3504295
vt 0.09262085 0.3504295
vt 0.09262085 0.3504295
vt 0.09262085 0.3504295
vt 0.09262085 0.3504295
vt 0.09262085 0.3504295
vt 0.09262085 0.3504295
vt 0.09262085 0.3504295
vt 0.09262085 0.3504295
vt 0.09262085 0.3504295
vt 0.09262085 0.3504295
vt 0.09262085 0.3504295
vt 0.09262085 0.3504295
vt 0.09262085 0.3504295
vt 0.09262085 0.3504295
vt 0.09262085 0.3504295
vt 0.09262085 0.3504295
vt 0.09262085 0.3504295
vt 0.09262085 0.3504295
vt 0.09262085 0.3504295
vt 0.09262085 0.3504295
vt 0.09262085 0.3504295
vt 0.09262085 0.3504295
vt 0.09262085 0.3504295
vt 0.09262085 0.3504295
vt 0.09262085 0.3504295
vt 0.09262085 0.3504295
vt 0.09262085 0.3504295
vt 0.09262085 0.3504295
vt 0.09262085 0.3504295
vt 0.09262085 0.3504295
vt 0.09262085 0.3504295
vt 0.09262085 0.3504295
vt 0.09262085 0.3504295
vt 0.0362854 0.3549638
vt 0.0362854 0.3549638
vt 0.0362854 0.3549638
vt 0.0362854 0.3549638
vt 0.0362854 0.3549638
vt 0.0362854 0.3549638
vt 0.0362854 0.3549638
vt 0.0362854 0.3549638
vt 0.0362854 0.3549638
vt 0.0362854 0.3549638
vt 0.0362854 0.3549638
vt 0.0362854 0.3549638
vt 0.0362854 0.3549638
vt 0.0362854 0.3549638
vt 0.0362854 0.3549638
vt 0.0362854 0.3549638
vt 0.0362854 0.3549638
vt 0.0362854 0.3549638
vt 0.0362854 0.3549638
vt 0.0362854 0.3549638
vt 0.0362854 0.3549638
vt 0.0362854 0.3549638
vt 0.0362854 0.3549638
vt 0.0362854 0.3549638
vt 0.0362854 0.3523731
vt 0.0362854 0.3523729
vt 0.0362854 0.3523729
vt 0.0362854 0.3523731
vt 0.0362854 0.3523731
vt 0.0362854 0.3523729
vt 0.0362854 0.3523729
vt 0.0362854 0.3523731
vt 0.0362854 0.3523731
vt 0.0362854 0.3523729
vt 0.0362854 0.3523729
vt 0.0362854 0.3523731
vt 0.0362854 0.3523731
vt 0.0362854 0.3523729
vt 0.0362854 0.3523729
vt 0.0362854 0.3523731
vt 0.0362854 0.3523731
vt 0.0362854 0.3523729
vt 0.0362854 0.3523729
vt 0.0362854 0.3523731
vt 0.0362854 0.3523731
vt 0.0362854 0.3523729
vt 0.0362854 0.3523729
vt 0.0362854 0.3523731
vt 0.09262085 0.3504295
vt 0.09262085 0.3504295
vt 0.09262085 0.3504295
vt 0.09262085 0.3504295
vt 0.09262085 0.3504295
vt 0.09262085 0.3504295
vt 0.09262085 0.3504295
vt 0.09262085 0.3504295
vt 0.09262085 0.3504295
vt 0.09262085 0.3504295
vt 0.09262085 0.3504295
vt 0.09262085 0.3504295
vn -0.328449 -0.601667 0.7280921
vn -0.3284489 -0.601667 0.7280921
vn -0.3284489 -0.601667 0.7280921
vn 0.471678 -0.5799075 0.6642492
vn 0.4716781 -0.5799075 0.6642492
vn 0.471678 -0.5799075 0.6642492
vn 0.7701994 -0.6097715 -0.1870068
vn 0.7701994 -0.6097716 -0.1870068
vn 0.7701994 -0.6097715 -0.1870067
vn 0.361805 -0.5579392 -0.7468607
vn 0.361805 -0.5579392 -0.7468607
vn 0.361805 -0.5579392 -0.7468607
vn -0.3294777 -0.5657861 -0.7558641
vn -0.3294776 -0.5657861 -0.7558641
vn -0.3294776 -0.5657862 -0.7558641
vn -0.8104941 -0.581493 -0.07046436
vn -0.8104941 -0.581493 -0.07046436
vn -0.8104941 -0.581493 -0.07046436
vn 1 0 0
vn 1 0 0
vn 1 0 0
vn 1 0 0
vn 0 1 -0.0001104154
vn -0.0004048765 1 -0.0001104154
vn -0.0004048765 1 -0.0001104154
vn 0 1 -0.0001104154
vn 0.0004048765 1 -0.0001104154
vn 0.0004048765 1 -0.0001104154
vn -1 0 0
vn -1 0 0
vn -1 0 0
vn -1 0 0
vn -0.3902061 0.00446644 -0.9207168
vn -0.390206 0.00446644 -0.9207168
vn -0.390206 0.00446644 -0.9207168
vn -0.390206 0.00446644 -0.9207168
vn -0.3902923 -0.004468015 0.92068
vn -0.3902924 -0.004468015 0.92068
vn -0.3902924 -0.004468015 0.92068
vn -0.3902924 -0.004468015 0.92068
vn 0.3903047 -0.00446799 0.9206749
vn 0.3903047 -0.00446799 0.9206749
vn 0.3903047 -0.00446799 0.9206749
vn 0.3903047 -0.00446799 0.9206749
vn 0.3902182 0.004466414 -0.9207116
vn 0.3902182 0.004466414 -0.9207116
vn 0.3902182 0.004466414 -0.9207116
vn 0.3902182 0.004466414 -0.9207116
vn -0.3942154 0.4174665 -0.8187282
vn -0.3942155 0.4174665 -0.8187282
vn -0.3942155 0.4174665 -0.8187282
vn -0.3942154 0.4174665 -0.8187282
vn -0.8936839 0.4486963 -0.0009184323
vn -0.8936839 0.4486962 -0.0009184321
vn -0.8936839 0.4486963 -0.0009184321
vn -0.8936839 0.4486963 -0.0009184323
vn -0.3145961 0.4202054 0.8511502
vn -0.3145961 0.4202054 0.8511502
vn -0.3145961 0.4202054 0.8511502
vn -0.314596 0.4202054 0.8511502
vn 0.8936839 0.4486963 -0.0009184323
vn 0.8936839 0.4486963 -0.0009184321
vn 0.8936839 0.4486962 -0.0009184321
vn 0.8936839 0.4486963 -0.0009184323
vn 0.3942212 0.4174744 -0.8187213
vn 0.3942213 0.4174744 -0.8187214
vn 0.3942213 0.4174744 -0.8187213
vn 0.3942212 0.4174744 -0.8187213
vn 0.3146015 0.4202119 0.851145
vn 0.3146015 0.4202119 0.851145
vn 0.3146015 0.4202119 0.851145
vn 0.3146014 0.4202119 0.851145
vn 0.8837219 0.4680118 -0.0007083775
vn 0.8837219 0.4680117 -0.0007083776
vn 0.8837219 0.4680117 -0.0007083775
vn 0.8837219 0.4680117 -0.0007083775
vn -0.8837219 0.4680118 -0.0007105122
vn -0.8837219 0.4680118 -0.0007105122
vn -0.8837219 0.4680118 -0.0007105122
vn -0.8837219 0.4680118 -0.0007105122
vn 0.3103999 0.4500761 -0.8373073
vn 0.3103999 0.4500761 -0.8373073
vn 0.3103998 0.4500761 -0.8373073
vn 0.3103999 0.450076 -0.8373073
vn -0.3892449 0.4258159 0.8168043
vn -0.3892448 0.4258159 0.8168043
vn -0.3892448 0.4258159 0.8168043
vn -0.3892448 0.4258159 0.8168043
vn -0.3103943 0.4500757 -0.8373095
vn -0.3103943 0.4500757 -0.8373095
vn -0.3103943 0.4500756 -0.8373096
vn -0.3103943 0.4500757 -0.8373095
vn 0.3892536 0.4258165 0.8167999
vn 0.3892536 0.4258165 0.8167999
vn 0.3892536 0.4258165 0.8167999
vn 0.3892536 0.4258165 0.8167999
vn 1 0 0
vn 1 0 0
vn 1 0 0
vn 1 0 0
vn -1 0 0
vn -1 0 0
vn -1 0 0
vn -1 0 0
vn 0.3463772 0.007007103 -0.9380691
vn 0.3463772 0.007007102 -0.9380691
vn 0.3463772 0.007007102 -0.9380691
vn 0.3463772 0.007007102 -0.9380691
vn -0.4315715 -0.006741588 0.9020537
vn -0.4315715 -0.006741588 0.9020537
vn -0.4315715 -0.006741588 0.9020537
vn -0.4315715 -0.006741588 0.9020537
vn -0.3463702 0.007007116 -0.9380717
vn -0.3463702 0.007007116 -0.9380717
vn -0.3463702 0.007007116 -0.9380717
vn -0.3463702 0.007007116 -0.9380717
vn 0.4315793 -0.006741553 0.9020497
vn 0.4315794 -0.006741554 0.9020497
vn 0.4315793 -0.006741553 0.9020497
vn 0.4315794 -0.006741554 0.9020497
vn 0.8816028 0.4719917 -0.0007150556
vn 0.8816028 0.4719916 -0.0007150556
vn 0.8816028 0.4719917 -0.0007150556
vn 0.8816028 0.4719917 -0.0007150556
vn -0.8816029 0.4719914 -0.0007166954
vn -0.8816029 0.4719914 -0.0007166955
vn -0.8816029 0.4719914 -0.0007166954
vn -0.8816029 0.4719914 -0.0007166954
vn 0.3097142 0.453945 -0.8354706
vn 0.3097142 0.453945 -0.8354706
vn 0.3097142 0.453945 -0.8354706
vn 0.3097142 0.453945 -0.8354706
vn -0.3884707 0.4296351 0.8151712
vn -0.3884706 0.4296351 0.8151712
vn -0.3884706 0.4296351 0.8151712
vn -0.3884707 0.4296351 0.8151712
vn -0.3097121 0.4539443 -0.8354717
vn -0.3097121 0.4539444 -0.8354717
vn -0.3097121 0.4539444 -0.8354717
vn -0.3097121 0.4539443 -0.8354717
vn 0.3884751 0.4296353 0.815169
vn 0.3884751 0.4296353 0.815169
vn 0.3884751 0.4296353 0.815169
vn 0.3884751 0.4296353 0.815169
vn 0.3584121 0.9313669 0.06400467
vn 0.3584121 0.9313669 0.06400468
vn 0.3584121 0.9313669 0.06400468
vn 0.3584121 0.9313669 0.06400467
vn -0.2915454 0.9486603 -0.1226581
vn -0.2915454 0.9486603 -0.1226581
vn -0.2915454 0.9486603 -0.1226581
vn -0.2915454 0.9486603 -0.1226581
vn 0.1161726 0.9313066 -0.3452128
vn 0.1161726 0.9313066 -0.3452128
vn 0.1161726 0.9313066 -0.3452128
vn 0.1161726 0.9313066 -0.3452128
vn -0.1853265 0.9071644 -0.3777655
vn -0.1853265 0.9071644 -0.3777655
vn -0.1853265 0.9071644 -0.3777655
vn -0.1853265 0.9071644 -0.3777655
vn 0.2312703 0.7858132 0.5735953
vn 0.2312703 0.7858132 0.5735953
vn 0.2312703 0.7858132 0.5735953
vn 0.2312703 0.7858132 0.5735953
vn 0.09201821 0.8637884 0.4953808
vn 0.09201821 0.8637884 0.4953808
vn 0.09201822 0.8637884 0.4953808
vn 0.09201821 0.8637884 0.4953808
vn -0.2615617 -0.1155777 0.9582417
vn -0.2615617 -0.1155777 0.9582417
vn -0.2615617 -0.1155777 0.9582417
vn -0.2615617 -0.1155777 0.9582417
vn 0.5412179 -0.1061494 0.8341556
vn 0.5412179 -0.1061494 0.8341556
vn 0.5412179 -0.1061494 0.8341556
vn 0.5412179 -0.1061494 0.8341556
vn 0.9813321 -0.1308752 -0.1409222
vn 0.9813321 -0.1308752 -0.1409221
vn 0.9813321 -0.1308752 -0.1409221
vn 0.9813321 -0.1308752 -0.1409221
vn 0.4094316 -0.1934087 -0.8916047
vn 0.4094315 -0.1934087 -0.8916047
vn 0.4094315 -0.1934087 -0.8916047
vn 0.4094315 -0.1934087 -0.8916047
vn -0.4053847 -0.1920615 -0.8937425
vn -0.4053847 -0.1920615 -0.8937425
vn -0.4053847 -0.1920615 -0.8937425
vn -0.4053846 -0.1920615 -0.8937425
vn -0.9803849 -0.1220561 -0.1547502
vn -0.9803849 -0.1220561 -0.1547502
vn -0.9803849 -0.1220561 -0.1547502
vn -0.9803849 -0.1220561 -0.1547502
vn 0.0006473411 0.9999998 0.000295429
vn 0.0005653051 0.9999999 0.0001654494
vn -0.001337429 0.9999992 0.0001001395
vn -0.001454529 0.9999989 0.0003248858
vn 0 0.9999974 0.00229643
vn 0 0.9999974 0.002289344
vn 0 0.9999974 0.00229643
vn 0 0.9999974 0.002289344
vn -0.0006499678 0.9999998 0.0002937693
vn 0.001336591 0.9999992 9.808871E-05
vn -0.000567842 0.9999999 0.0001636459
vn 0.001453779 0.9999989 0.0003230541
g SM_Prop_Mop_02_0
f 3/3/3 2/2/2 1/1/1
f 6/6/6 5/5/5 4/4/4
f 9/9/9 8/8/8 7/7/7
f 12/12/12 11/11/11 10/10/10
f 15/15/15 14/14/14 13/13/13
f 18/18/18 17/17/17 16/16/16
f 21/21/21 20/20/20 19/19/19
f 22/22/22 21/21/21 19/19/19
f 25/25/25 24/24/24 23/23/23
f 26/26/26 25/25/25 23/23/23
f 26/26/26 23/23/23 27/27/27
f 28/28/28 26/26/26 27/27/27
f 31/31/31 30/30/30 29/29/29
f 32/32/32 31/31/31 29/29/29
f 35/35/35 34/34/34 33/33/33
f 36/36/36 35/35/35 33/33/33
f 39/39/39 38/38/38 37/37/37
f 40/40/40 39/39/39 37/37/37
f 43/43/43 42/42/42 41/41/41
f 44/44/44 43/43/43 41/41/41
f 47/47/47 46/46/46 45/45/45
f 48/48/48 47/47/47 45/45/45
f 51/51/51 50/50/50 49/49/49
f 52/52/52 51/51/51 49/49/49
f 55/55/55 54/54/54 53/53/53
f 56/56/56 55/55/55 53/53/53
f 59/59/59 58/58/58 57/57/57
f 60/60/60 59/59/59 57/57/57
f 63/63/63 62/62/62 61/61/61
f 64/64/64 63/63/63 61/61/61
f 67/67/67 66/66/66 65/65/65
f 68/68/68 67/67/67 65/65/65
f 71/71/71 70/70/70 69/69/69
f 72/72/72 71/71/71 69/69/69
f 75/75/75 74/74/74 73/73/73
f 76/76/76 75/75/75 73/73/73
f 79/79/79 78/78/78 77/77/77
f 80/80/80 79/79/79 77/77/77
f 83/83/83 82/82/82 81/81/81
f 84/84/84 83/83/83 81/81/81
f 87/87/87 86/86/86 85/85/85
f 88/88/88 87/87/87 85/85/85
f 91/91/91 90/90/90 89/89/89
f 92/92/92 91/91/91 89/89/89
f 95/95/95 94/94/94 93/93/93
f 96/96/96 95/95/95 93/93/93
f 99/99/99 98/98/98 97/97/97
f 100/100/100 99/99/99 97/97/97
f 103/103/103 102/102/102 101/101/101
f 104/104/104 103/103/103 101/101/101
f 107/107/107 106/106/106 105/105/105
f 108/108/108 107/107/107 105/105/105
f 111/111/111 110/110/110 109/109/109
f 112/112/112 111/111/111 109/109/109
f 115/115/115 114/114/114 113/113/113
f 116/116/116 115/115/115 113/113/113
f 119/119/119 118/118/118 117/117/117
f 120/120/120 119/119/119 117/117/117
f 123/123/123 122/122/122 121/121/121
f 124/124/124 123/123/123 121/121/121
f 127/127/127 126/126/126 125/125/125
f 128/128/128 127/127/127 125/125/125
f 131/131/131 130/130/130 129/129/129
f 132/132/132 131/131/131 129/129/129
f 135/135/135 134/134/134 133/133/133
f 136/136/136 135/135/135 133/133/133
f 139/139/139 138/138/138 137/137/137
f 140/140/140 139/139/139 137/137/137
f 143/143/143 142/142/142 141/141/141
f 144/144/144 143/143/143 141/141/141
f 147/147/147 146/146/146 145/145/145
f 148/148/148 147/147/147 145/145/145
f 151/151/151 150/150/150 149/149/149
f 152/152/152 151/151/151 149/149/149
f 155/155/155 154/154/154 153/153/153
f 156/156/156 155/155/155 153/153/153
f 159/159/159 158/158/158 157/157/157
f 160/160/160 159/159/159 157/157/157
f 163/163/163 162/162/162 161/161/161
f 164/164/164 163/163/163 161/161/161
f 167/167/167 166/166/166 165/165/165
f 168/168/168 167/167/167 165/165/165
f 171/171/171 170/170/170 169/169/169
f 172/172/172 171/171/171 169/169/169
f 175/175/175 174/174/174 173/173/173
f 176/176/176 175/175/175 173/173/173
f 179/179/179 178/178/178 177/177/177
f 180/180/180 179/179/179 177/177/177
f 183/183/183 182/182/182 181/181/181
f 184/184/184 183/183/183 181/181/181
f 187/187/187 186/186/186 185/185/185
f 188/188/188 187/187/187 185/185/185
f 191/191/191 190/190/190 189/189/189
f 192/192/192 191/191/191 189/189/189
f 195/195/195 194/194/194 193/193/193
f 196/196/196 195/195/195 193/193/193
f 193/193/193 194/194/194 197/197/197
f 198/198/198 195/195/195 196/196/196
f 194/194/194 199/199/199 197/197/197
f 200/200/200 198/198/198 196/196/196
f 197/197/197 199/199/199 201/201/201
f 202/202/202 198/198/198 200/200/200
f 199/199/199 203/203/203 201/201/201
f 204/204/204 202/202/202 200/200/200
f 201/201/201 203/203/203 204/204/204
f 203/203/203 202/202/202 204/204/204
