g SM_Prop_Kitchen_Fridge_02_Door_02
v 1.220703E-06 2.131628E-15 1.220703E-06
v -0.01777466 0.004677734 0.06128052
v -0.01777466 1.393194 0.06128052
v 1.220703E-06 1.402285 1.220703E-06
v -0.4999988 1.402285 1.220703E-06
v -0.4957434 1.393194 0.06128052
v -0.4957434 0.004677734 0.06128052
v -0.4999988 2.131628E-15 1.220703E-06
v 1.220703E-06 1.402285 1.220703E-06
v -0.01777466 1.393194 0.06128052
v -0.4957434 1.393194 0.06128052
v -0.4999988 1.402285 1.220703E-06
v -0.4999988 2.131628E-15 1.220703E-06
v -0.4957434 0.004677734 0.06128052
v -0.01777466 0.004677734 0.06128052
v 1.220703E-06 2.131628E-15 1.220703E-06
v -0.4381213 1.301996 -0.04097046
v -0.4381213 0.1002892 -0.04097046
v -0.09506714 0.1002892 -0.04097046
v -0.09506714 1.301996 -0.04097046
v -0.4724133 1.345963 1.220703E-06
v -0.4724133 0.05632179 1.220703E-06
v -0.4381213 0.1002892 -0.04097046
v -0.4381213 1.301996 -0.04097046
v -0.4724133 0.05632179 1.220703E-06
v -0.0607727 0.05632179 1.220703E-06
v -0.09506714 0.1002892 -0.04097046
v -0.4381213 0.1002892 -0.04097046
v -0.0607727 0.05632179 1.220703E-06
v -0.0607727 1.345963 1.220703E-06
v -0.09506714 1.301996 -0.04097046
v -0.09506714 0.1002892 -0.04097046
v -0.0607727 1.345963 1.220703E-06
v -0.4724133 1.345963 1.220703E-06
v -0.4381213 1.301996 -0.04097046
v -0.09506714 1.301996 -0.04097046
v -0.4999988 1.402285 1.220703E-06
v -0.4999988 2.131628E-15 1.220703E-06
v -0.4724133 0.05632179 1.220703E-06
v -0.4724133 1.345963 1.220703E-06
v -0.0607727 0.05632179 1.220703E-06
v 1.220703E-06 1.402285 1.220703E-06
v 1.220703E-06 2.131628E-15 1.220703E-06
v -0.0607727 1.345963 1.220703E-06
v -0.01777466 0.004677734 0.06128052
v -0.4957434 0.004677734 0.06128052
v -0.4642102 0.2256475 0.06128052
v -0.3921033 0.2256475 0.06128052
v -0.4642102 1.172224 0.06128052
v -0.01777466 1.393194 0.06128052
v -0.4957434 1.393194 0.06128052
v -0.3921033 1.172224 0.06128052
v -0.4235998 0.2963648 0.1189954
v -0.46078 0.2963648 0.1189954
v -0.46078 1.101507 0.1189954
v -0.4235998 1.101507 0.1189954
v -0.3921033 0.2256475 0.06128052
v -0.4642102 0.2256475 0.06128052
v -0.46078 0.2963648 0.1189954
v -0.4235998 0.2963648 0.1189954
v -0.4642102 0.2256475 0.06128052
v -0.4642102 1.172224 0.06128052
v -0.46078 1.101507 0.1189954
v -0.46078 0.2963648 0.1189954
v -0.4642102 1.172224 0.06128052
v -0.3921033 1.172224 0.06128052
v -0.4235998 1.101507 0.1189954
v -0.46078 1.101507 0.1189954
v -0.3921033 1.172224 0.06128052
v -0.3921033 0.2256475 0.06128052
v -0.4235998 0.2963648 0.1189954
v -0.4235998 1.101507 0.1189954
vt 0.07125862 0.3750487
vt 0.07125862 0.3750487
vt 0.07125862 0.3750487
vt 0.07125862 0.3750487
vt 0.07125862 0.3750487
vt 0.07125862 0.3750487
vt 0.07125859 0.3750487
vt 0.07125859 0.3750487
vt 0.07125862 0.3750487
vt 0.07125862 0.3750487
vt 0.07125862 0.3750487
vt 0.07125862 0.3750487
vt 0.07125859 0.3750487
vt 0.07125859 0.3750487
vt 0.07125862 0.3750487
vt 0.07125862 0.3750487
vt 0.1374512 0.3773499
vt 0.1374512 0.3773422
vt 0.1374512 0.3773422
vt 0.1374512 0.3773499
vt 0.1374512 0.3773499
vt 0.1374512 0.3773422
vt 0.1374512 0.3773422
vt 0.1374512 0.3773499
vt 0.1374512 0.3773422
vt 0.1374512 0.3773422
vt 0.1374512 0.3773422
vt 0.1374512 0.3773422
vt 0.1374512 0.3773422
vt 0.1374512 0.3773499
vt 0.1374512 0.3773499
vt 0.1374512 0.3773422
vt 0.1374512 0.3773499
vt 0.1374512 0.3773499
vt 0.1374512 0.3773499
vt 0.1374512 0.3773499
vt 0.07125862 0.3750487
vt 0.07125859 0.3750487
vt 0.07125859 0.3750487
vt 0.07125862 0.3750487
vt 0.07125862 0.3750487
vt 0.07125862 0.3750487
vt 0.07125862 0.3750487
vt 0.07125862 0.3750487
vt 0.07125862 0.3750487
vt 0.07125859 0.3750487
vt 0.07125859 0.3750487
vt 0.07125862 0.3750487
vt 0.07125862 0.3750487
vt 0.07125862 0.3750487
vt 0.07125862 0.3750487
vt 0.07125862 0.3750487
vt 0.2099005 0.3765864
vt 0.2099005 0.3765864
vt 0.2099005 0.376594
vt 0.2099005 0.376594
vt 0.2099005 0.3765864
vt 0.2099005 0.3765864
vt 0.2099005 0.3765864
vt 0.2099005 0.3765864
vt 0.2099005 0.3765864
vt 0.2099005 0.376594
vt 0.2099005 0.376594
vt 0.2099005 0.3765864
vt 0.2099005 0.376594
vt 0.2099005 0.376594
vt 0.2099005 0.376594
vt 0.2099005 0.376594
vt 0.2099005 0.376594
vt 0.2099005 0.3765864
vt 0.2099005 0.3765864
vt 0.2099005 0.376594
vn 0.9604087 0 0.2785951
vn 0.9604087 0 0.2785951
vn 0.9604087 0 0.2785951
vn 0.9604087 0 0.2785951
vn -0.9975975 0 0.0692754
vn -0.9975975 0 0.0692754
vn -0.9975975 0 0.0692754
vn -0.9975975 0 0.0692754
vn 0 0.9891735 0.1467504
vn 0 0.9891735 0.1467504
vn 0 0.9891735 0.1467504
vn 0 0.9891735 0.1467504
vn 0 -0.9970992 0.07611324
vn 0 -0.9970992 0.07611324
vn 0 -0.9970992 0.07611324
vn 0 -0.9970992 0.07611324
vn 0 0 -1
vn 0 0 -1
vn 0 0 -1
vn 0 0 -1
vn -0.7668487 0 -0.6418279
vn -0.7668487 0 -0.6418279
vn -0.7668487 0 -0.6418279
vn -0.7668487 0 -0.6418279
vn 0 -0.6817436 -0.7315912
vn 0 -0.6817436 -0.7315912
vn 0 -0.6817436 -0.7315912
vn 0 -0.6817436 -0.7315912
vn 0.7668262 0 -0.6418548
vn 0.7668262 0 -0.6418548
vn 0.7668262 0 -0.6418548
vn 0.7668262 0 -0.6418548
vn 0 0.6817436 -0.7315912
vn 0 0.6817436 -0.7315912
vn 0 0.6817436 -0.7315912
vn 0 0.6817436 -0.7315912
vn 0 0 -1
vn 0 0 -1
vn 0 0 -1
vn 0 0 -1
vn 0 0 -1
vn 0 0 -1
vn 0 0 -1
vn 0 0 -1
vn 0 0 1
vn 0 0 1
vn 0 0 1
vn 0 0 1
vn 0 0 1
vn 0 0 1
vn 0 0 1
vn 0 0 1
vn 0 0 1
vn 0 0 1
vn 0 0 1
vn 0 0 1
vn 0 -0.6322873 0.7747341
vn 0 -0.6322873 0.7747341
vn 0 -0.6322873 0.7747341
vn 0 -0.6322873 0.7747341
vn -0.9982386 0 0.05932848
vn -0.9982386 0 0.05932848
vn -0.9982386 0 0.05932848
vn -0.9982386 0 0.05932848
vn 0 0.6322873 0.7747341
vn 0 0.6322873 0.7747341
vn 0 0.6322873 0.7747341
vn 0 0.6322873 0.7747341
vn 0.8777948 0 0.4790369
vn 0.8777948 0 0.4790369
vn 0.8777948 0 0.4790369
vn 0.8777948 0 0.4790369
g SM_Prop_Kitchen_Fridge_02_Door_02_0
f 3/3/3 2/2/2 1/1/1
f 4/4/4 3/3/3 1/1/1
f 7/7/7 6/6/6 5/5/5
f 8/8/8 7/7/7 5/5/5
f 11/11/11 10/10/10 9/9/9
f 12/12/12 11/11/11 9/9/9
f 15/15/15 14/14/14 13/13/13
f 16/16/16 15/15/15 13/13/13
f 19/19/19 18/18/18 17/17/17
f 20/20/20 19/19/19 17/17/17
f 23/23/23 22/22/22 21/21/21
f 24/24/24 23/23/23 21/21/21
f 27/27/27 26/26/26 25/25/25
f 28/28/28 27/27/27 25/25/25
f 31/31/31 30/30/30 29/29/29
f 32/32/32 31/31/31 29/29/29
f 35/35/35 34/34/34 33/33/33
f 36/36/36 35/35/35 33/33/33
f 39/39/39 38/38/38 37/37/37
f 40/40/40 39/39/39 37/37/37
f 39/39/39 41/41/41 38/38/38
f 40/40/40 37/37/37 42/42/42
f 41/41/41 43/43/43 38/38/38
f 44/44/44 40/40/40 42/42/42
f 44/44/44 42/42/42 43/43/43
f 41/41/41 44/44/44 43/43/43
f 47/47/47 46/46/46 45/45/45
f 48/48/48 47/47/47 45/45/45
f 47/47/47 49/49/49 46/46/46
f 48/48/48 45/45/45 50/50/50
f 49/49/49 51/51/51 46/46/46
f 52/52/52 48/48/48 50/50/50
f 52/52/52 50/50/50 51/51/51
f 49/49/49 52/52/52 51/51/51
g SM_Prop_Kitchen_Fridge_02_Door_02_1
f 55/55/55 54/54/54 53/53/53
f 56/56/56 55/55/55 53/53/53
f 59/59/59 58/58/58 57/57/57
f 60/60/60 59/59/59 57/57/57
f 63/63/63 62/62/62 61/61/61
f 64/64/64 63/63/63 61/61/61
f 67/67/67 66/66/66 65/65/65
f 68/68/68 67/67/67 65/65/65
f 71/71/71 70/70/70 69/69/69
f 72/72/72 71/71/71 69/69/69
