g SM_Prop_Dresser_03_Drawer_04
v -0.03134795 0.1211134 0.07202309
v -0.03134795 0.1663545 0.07202309
v 0.03135102 0.1663545 0.07202309
v 0.03135102 0.1211134 0.07202309
v -0.03988433 0.1211134 0.0300016
v -0.03134795 0.1211134 0.07202309
v 0.03135102 0.1211134 0.07202309
v 0.03988618 0.1211134 0.0300016
v 0.03988618 0.1211134 0.0300016
v 0.03135102 0.1211134 0.07202309
v 0.03135102 0.1663545 0.07202309
v 0.03988618 0.1663545 0.0300016
v 0.03988618 0.1663545 0.0300016
v 0.03135102 0.1663545 0.07202309
v -0.03134795 0.1663545 0.07202309
v -0.03988433 0.1663545 0.0300016
v -0.03988433 0.1663545 0.0300016
v -0.03134795 0.1663545 0.07202309
v -0.03134795 0.1211134 0.07202309
v -0.03988433 0.1211134 0.0300016
v 0.4266183 6.124341E-09 0.0300016
v 0.4266183 6.124341E-09 -0.6349032
v -0.4266183 6.124341E-09 -0.6349032
v -0.4266183 6.124341E-09 0.0300016
v 0.4266183 0.2082034 0.0300016
v 0.4266183 0.2082034 -0.6349032
v 0.4266183 6.124341E-09 -0.6349032
v 0.4266183 6.124341E-09 0.0300016
v -0.3889456 0.04859917 3.791474E-07
v -0.3889456 0.04859917 -0.5928634
v 0.3889456 0.04859917 -0.5928634
v 0.3889456 0.04859917 3.791474E-07
v -0.4266183 6.124341E-09 0.0300016
v -0.4266183 6.124341E-09 -0.6349032
v -0.4266183 0.2082034 -0.6349032
v -0.4266183 0.2082034 0.0300016
v 0.4266183 6.124341E-09 -0.6349032
v 0.4266183 0.2082034 -0.6349032
v -0.4266183 0.2082034 -0.6349032
v -0.4266183 6.124341E-09 -0.6349032
v -0.3889456 0.2082034 3.791474E-07
v -0.3889456 0.04859917 3.791474E-07
v 0.3889456 0.04859917 3.791474E-07
v 0.3889456 0.2082034 3.791474E-07
v 0.3889456 0.2082034 3.791474E-07
v 0.3889456 0.04859917 3.791474E-07
v 0.3889456 0.04859917 -0.5928634
v 0.3889456 0.2082034 -0.5928634
v 0.3889456 0.2082034 -0.5928634
v 0.3889456 0.04859917 -0.5928634
v -0.3889456 0.04859917 -0.5928634
v -0.3889456 0.2082034 -0.5928634
v -0.3889456 0.2082034 -0.5928634
v -0.3889456 0.04859917 -0.5928634
v -0.3889456 0.04859917 3.791474E-07
v -0.3889456 0.2082034 3.791474E-07
v -0.4266183 6.124341E-09 0.0300016
v -0.03988433 0.1211134 0.0300016
v 0.03988618 0.1211134 0.0300016
v 0.4266183 6.124341E-09 0.0300016
v -0.4266183 0.2082034 0.0300016
v 0.03988618 0.1663545 0.0300016
v -0.03988433 0.1663545 0.0300016
v 0.4266183 0.2082034 0.0300016
v -0.4266183 0.2082034 0.0300016
v -0.3889456 0.2082034 3.791474E-07
v 0.3889456 0.2082034 3.791474E-07
v 0.4266183 0.2082034 0.0300016
v -0.4266183 0.2082034 -0.6349032
v 0.3889456 0.2082034 -0.5928634
v -0.3889456 0.2082034 -0.5928634
v 0.4266183 0.2082034 -0.6349032
vt 0.1030273 0.3260795
vt 0.1030273 0.3260795
vt 0.1030273 0.3260795
vt 0.1030273 0.3260795
vt 0.1030273 0.3260795
vt 0.1030273 0.3260795
vt 0.1030273 0.3260795
vt 0.1030273 0.3260795
vt 0.1030273 0.3260795
vt 0.1030273 0.3260795
vt 0.1030273 0.3260795
vt 0.1030273 0.3260795
vt 0.1030273 0.3260795
vt 0.1030273 0.3260795
vt 0.1030273 0.3260795
vt 0.1030273 0.3260795
vt 0.1030273 0.3260795
vt 0.1030273 0.3260795
vt 0.1030273 0.3260795
vt 0.1030273 0.3260795
vt 0.004516602 0.303627
vt 0.004638672 0.303627
vt 0.004638672 0.303627
vt 0.004516602 0.303627
vt 0.004516602 0.303627
vt 0.004638672 0.303627
vt 0.004638672 0.303627
vt 0.004516602 0.303627
vt 0.004516602 0.303627
vt 0.004638672 0.303627
vt 0.004638672 0.303627
vt 0.004516602 0.303627
vt 0.004516602 0.303627
vt 0.004638672 0.303627
vt 0.004638672 0.303627
vt 0.004516602 0.303627
vt 0.004638672 0.303627
vt 0.004638672 0.303627
vt 0.004638672 0.303627
vt 0.004638672 0.303627
vt 0.004516602 0.303627
vt 0.004516602 0.303627
vt 0.004516602 0.303627
vt 0.004516602 0.303627
vt 0.004516602 0.303627
vt 0.004516602 0.303627
vt 0.004638672 0.303627
vt 0.004638672 0.303627
vt 0.004638672 0.303627
vt 0.004638672 0.303627
vt 0.004638672 0.303627
vt 0.004638672 0.303627
vt 0.004638672 0.303627
vt 0.004638672 0.303627
vt 0.004516602 0.303627
vt 0.004516602 0.303627
vt 0.005560126 0.3038527
vt 0.005560126 0.3038527
vt 0.005560126 0.3038527
vt 0.005560126 0.3038527
vt 0.005560126 0.3038527
vt 0.005560126 0.3038527
vt 0.005560126 0.3038527
vt 0.005560126 0.3038527
vt 0.004516602 0.303627
vt 0.004516602 0.303627
vt 0.004516602 0.303627
vt 0.004516602 0.303627
vt 0.004638672 0.303627
vt 0.004638672 0.303627
vt 0.004638672 0.303627
vt 0.004638672 0.303627
vn 0 0 1
vn 0 0 1
vn 0 0 1
vn 0 0 1
vn 0 -1 0
vn 0 -1 0
vn 0 -1 0
vn 0 -1 0
vn 0.9799893 0 0.1990497
vn 0.9799893 0 0.1990497
vn 0.9799893 0 0.1990497
vn 0.9799893 0 0.1990497
vn 0 1 0
vn 0 1 0
vn 0 1 0
vn 0 1 0
vn -0.9799839 0 0.199077
vn -0.9799839 0 0.199077
vn -0.9799839 0 0.199077
vn -0.9799839 0 0.199077
vn 0 -1 0
vn 0 -1 0
vn 0 -1 0
vn 0 -1 0
vn 1 0 0
vn 1 0 0
vn 1 0 0
vn 1 0 0
vn 0 1 0
vn 0 1 0
vn 0 1 0
vn 0 1 0
vn -1 0 0
vn -1 0 0
vn -1 0 0
vn -1 0 0
vn 0 0 -1
vn 0 0 -1
vn 0 0 -1
vn 0 0 -1
vn 0 0 -1
vn 0 0 -1
vn 0 0 -1
vn 0 0 -1
vn -1 0 0
vn -1 0 0
vn -1 0 0
vn -1 0 0
vn 0 0 1
vn 0 0 1
vn 0 0 1
vn 0 0 1
vn 1 0 0
vn 1 0 0
vn 1 0 0
vn 1 0 0
vn 0 0 1
vn 0 0 1
vn 0 0 1
vn 0 0 1
vn 0 0 1
vn 0 0 1
vn 0 0 1
vn 0 0 1
vn 0 1 0
vn 0 1 0
vn 0 1 0
vn 0 1 0
vn 0 1 0
vn 0 1 0
vn 0 1 0
vn 0 1 0
g SM_Prop_Dresser_03_Drawer_04_0
f 3/3/3 2/2/2 1/1/1
f 4/4/4 3/3/3 1/1/1
f 7/7/7 6/6/6 5/5/5
f 8/8/8 7/7/7 5/5/5
f 11/11/11 10/10/10 9/9/9
f 12/12/12 11/11/11 9/9/9
f 15/15/15 14/14/14 13/13/13
f 16/16/16 15/15/15 13/13/13
f 19/19/19 18/18/18 17/17/17
f 20/20/20 19/19/19 17/17/17
f 23/23/23 22/22/22 21/21/21
f 24/24/24 23/23/23 21/21/21
f 27/27/27 26/26/26 25/25/25
f 28/28/28 27/27/27 25/25/25
f 31/31/31 30/30/30 29/29/29
f 32/32/32 31/31/31 29/29/29
f 35/35/35 34/34/34 33/33/33
f 36/36/36 35/35/35 33/33/33
f 39/39/39 38/38/38 37/37/37
f 40/40/40 39/39/39 37/37/37
f 43/43/43 42/42/42 41/41/41
f 44/44/44 43/43/43 41/41/41
f 47/47/47 46/46/46 45/45/45
f 48/48/48 47/47/47 45/45/45
f 51/51/51 50/50/50 49/49/49
f 52/52/52 51/51/51 49/49/49
f 55/55/55 54/54/54 53/53/53
f 56/56/56 55/55/55 53/53/53
f 59/59/59 58/58/58 57/57/57
f 60/60/60 59/59/59 57/57/57
f 57/57/57 58/58/58 61/61/61
f 62/62/62 59/59/59 60/60/60
f 58/58/58 63/63/63 61/61/61
f 64/64/64 62/62/62 60/60/60
f 61/61/61 63/63/63 64/64/64
f 63/63/63 62/62/62 64/64/64
f 67/67/67 66/66/66 65/65/65
f 68/68/68 67/67/67 65/65/65
f 65/65/65 66/66/66 69/69/69
f 70/70/70 67/67/67 68/68/68
f 66/66/66 71/71/71 69/69/69
f 72/72/72 70/70/70 68/68/68
f 69/69/69 71/71/71 72/72/72
f 71/71/71 70/70/70 72/72/72
