g SM_Prop_Kitchen_Counter_01_Drawer_01
v -0.4521271 0.01616224 -0.857688
v -0.4521271 0.156864 -0.857688
v -0.4521271 0.156864 -2.842171E-16
v -0.4521271 0.01616224 -2.842171E-16
v -0.4183563 0.04000158 -0.7059985
v 0.4183563 0.04000158 -0.7059985
v 0.4183563 0.04000158 -0.03106445
v -0.4183563 0.04000158 -0.03106445
v 0.4521283 0.156864 -0.857688
v 0.4521283 0.01616224 -0.857688
v 0.4521283 0.01616224 -2.842171E-16
v 0.4521283 0.156864 -2.842171E-16
v 0.4521283 0.01616224 -0.857688
v -0.4521271 0.01616224 -0.857688
v -0.4521271 0.01616224 -2.842171E-16
v 0.4521283 0.01616224 -2.842171E-16
v 0.4521283 0.01616224 -0.857688
v 0.4521283 0.156864 -0.857688
v -0.4521271 0.156864 -0.857688
v -0.4521271 0.01616224 -0.857688
v -0.4738275 -2.622604E-08 -2.842171E-16
v -0.4738275 -2.622604E-08 0.03182373
v 0.4738275 -2.622604E-08 0.03182373
v 0.4738275 -2.622604E-08 -2.842171E-16
v 0.4738275 -2.622604E-08 -2.842171E-16
v 0.4738275 -2.622604E-08 0.03182373
v 0.4738275 0.1730262 0.03182373
v 0.4738275 0.1730262 -2.842171E-16
v 0.4738275 0.1730262 -2.842171E-16
v 0.4738275 0.1730262 0.03182373
v -0.4738275 0.1730262 0.03182373
v -0.4738275 0.1730262 -2.842171E-16
v -0.4738275 0.1730262 -2.842171E-16
v -0.4738275 0.1730262 0.03182373
v -0.4738275 -2.622604E-08 0.03182373
v -0.4738275 -2.622604E-08 -2.842171E-16
v -0.4488617 0.02167386 0.03182373
v -0.4117352 0.05141119 0.01419434
v -6.103515E-07 0.05141103 0.01419434
v 0.4488617 0.02167386 0.03182373
v 0.411734 0.05141119 0.01419434
v -6.103515E-07 0.121614 0.01419434
v 0.1271417 0.1082235 0.01419434
v -0.1271429 0.1082235 0.01419434
v 0.1494147 0.1082235 0.01419434
v 0.1271417 0.07590719 0.01419434
v 0.1494147 0.07590719 0.01419434
v 0.2781305 0.1082235 0.01419434
v 0.2781305 0.07590719 0.01419434
v 0.3004022 0.1082235 0.01419434
v 0.3004022 0.07590719 0.01419434
v 0.411734 0.1216143 0.01419434
v 0.411734 0.05141119 0.01419434
v -0.1271429 0.07590719 0.01419434
v -0.4117352 0.05141119 0.01419434
v -0.1494159 0.07590719 0.01419434
v -0.4117352 0.1216143 0.01419434
v -0.1494159 0.1082235 0.01419434
v -0.2781317 0.1082235 0.01419434
v -0.2781317 0.07590719 0.01419434
v -0.3004034 0.1082235 0.01419434
v -0.3004034 0.07590719 0.01419434
v 0.4488617 0.1513523 0.03182373
v 0.411734 0.1216143 0.01419434
v -0.4488617 0.1513523 0.03182373
v -0.4117352 0.1216143 0.01419434
v 0.4488617 0.02167386 0.03182373
v 0.411734 0.05141119 0.01419434
v 0.411734 0.1216143 0.01419434
v 0.4488617 0.1513523 0.03182373
v -0.4488617 0.1513523 0.03182373
v -0.4117352 0.1216143 0.01419434
v -0.4117352 0.05141119 0.01419434
v -0.4488617 0.02167386 0.03182373
v -0.4183563 0.156864 -0.7059985
v -0.4183563 0.04000158 -0.7059985
v -0.4183563 0.04000158 -0.03106445
v -0.4183563 0.156864 -0.03106445
v -0.4183563 0.156864 -0.03106445
v -0.4183563 0.04000158 -0.03106445
v 0.4183563 0.04000158 -0.03106445
v 0.4183563 0.156864 -0.03106445
v 0.4183563 0.156864 -0.03106445
v 0.4183563 0.04000158 -0.03106445
v 0.4183563 0.04000158 -0.7059985
v 0.4183563 0.156864 -0.7059985
v 0.4183563 0.156864 -0.7059985
v 0.4183563 0.04000158 -0.7059985
v -0.4183563 0.04000158 -0.7059985
v -0.4183563 0.156864 -0.7059985
v -0.4521271 0.01616224 -2.842171E-16
v -0.4738275 -2.622604E-08 -2.842171E-16
v 0.4738275 -2.622604E-08 -2.842171E-16
v 0.4521283 0.01616224 -2.842171E-16
v -0.4521271 0.156864 -2.842171E-16
v 0.4738275 0.1730262 -2.842171E-16
v -0.4738275 0.1730262 -2.842171E-16
v 0.4521283 0.156864 -2.842171E-16
v -0.4738275 -2.622604E-08 0.03182373
v -0.4488617 0.02167386 0.03182373
v 0.4488617 0.02167386 0.03182373
v 0.4738275 -2.622604E-08 0.03182373
v -0.4738275 0.1730262 0.03182373
v 0.4488617 0.1513523 0.03182373
v -0.4488617 0.1513523 0.03182373
v 0.4738275 0.1730262 0.03182373
v -0.4521271 0.156864 -0.857688
v -0.4183563 0.156864 -0.7059985
v -0.4183563 0.156864 -0.03106445
v -0.4521271 0.156864 -2.842171E-16
v 0.4521283 0.156864 -0.857688
v 0.4183563 0.156864 -0.03106445
v 0.4183563 0.156864 -0.7059985
v 0.4521283 0.156864 -2.842171E-16
v 0.2781305 0.07590719 0.01419434
v 0.2781305 0.1082235 0.01419434
v 0.2726495 0.1029983 0.04560059
v 0.2726495 0.08113225 0.04560059
v 0.2781305 0.1082235 0.01419434
v 0.3004022 0.1082235 0.01419434
v 0.2930255 0.1029983 0.05660889
v 0.2726495 0.1029983 0.04560059
v 0.2137726 0.1006275 0.06478272
v 0.2137726 0.1006275 0.04887451
v 0.1345184 0.1029983 0.05660889
v 0.1548944 0.1029983 0.04560059
v 0.1271417 0.1082235 0.01419434
v 0.1494147 0.1082235 0.01419434
v 0.3004022 0.1082235 0.01419434
v 0.3004022 0.07590719 0.01419434
v 0.2930255 0.08113225 0.05660889
v 0.2930255 0.1029983 0.05660889
v 0.3004022 0.07590719 0.01419434
v 0.2781305 0.07590719 0.01419434
v 0.2726495 0.08113225 0.04560059
v 0.2930255 0.08113225 0.05660889
v 0.2137726 0.08350308 0.04887451
v 0.2137726 0.08350308 0.06478272
v 0.1548944 0.08113225 0.04560059
v 0.1345184 0.08113225 0.05660889
v 0.1494147 0.07590719 0.01419434
v 0.1271417 0.07590719 0.01419434
v 0.1271417 0.07590719 0.01419434
v 0.1271417 0.1082235 0.01419434
v 0.1345184 0.1029983 0.05660889
v 0.1345184 0.08113225 0.05660889
v 0.1494147 0.1082235 0.01419434
v 0.1494147 0.07590719 0.01419434
v 0.1548944 0.08113225 0.04560059
v 0.1548944 0.1029983 0.04560059
v 0.2726495 0.08113225 0.04560059
v 0.2726495 0.1029983 0.04560059
v 0.2137726 0.1006275 0.04887451
v 0.2137726 0.08350308 0.04887451
v 0.1548944 0.1029983 0.04560059
v 0.1548944 0.08113225 0.04560059
v 0.2930255 0.1029983 0.05660889
v 0.2930255 0.08113225 0.05660889
v 0.2137726 0.08350308 0.06478272
v 0.2137726 0.1006275 0.06478272
v 0.1345184 0.08113225 0.05660889
v 0.1345184 0.1029983 0.05660889
v -0.2781317 0.07590719 0.01419434
v -0.2726507 0.08113225 0.04560059
v -0.2726507 0.1029983 0.04560059
v -0.2781317 0.1082235 0.01419434
v -0.2781317 0.1082235 0.01419434
v -0.2930267 0.1029983 0.05660889
v -0.3004034 0.1082235 0.01419434
v -0.2726507 0.1029983 0.04560059
v -0.2137738 0.1006275 0.06478272
v -0.2137738 0.1006275 0.04887451
v -0.1345197 0.1029983 0.05660889
v -0.1548956 0.1029983 0.04560059
v -0.1271429 0.1082235 0.01419434
v -0.1494159 0.1082235 0.01419434
v -0.3004034 0.1082235 0.01419434
v -0.2930267 0.1029983 0.05660889
v -0.2930267 0.08113225 0.05660889
v -0.3004034 0.07590719 0.01419434
v -0.3004034 0.07590719 0.01419434
v -0.2726507 0.08113225 0.04560059
v -0.2781317 0.07590719 0.01419434
v -0.2930267 0.08113225 0.05660889
v -0.2137738 0.08350308 0.04887451
v -0.2137738 0.08350308 0.06478272
v -0.1548956 0.08113225 0.04560059
v -0.1345197 0.08113225 0.05660889
v -0.1494159 0.07590719 0.01419434
v -0.1271429 0.07590719 0.01419434
v -0.1271429 0.07590719 0.01419434
v -0.1345197 0.08113225 0.05660889
v -0.1345197 0.1029983 0.05660889
v -0.1271429 0.1082235 0.01419434
v -0.1494159 0.1082235 0.01419434
v -0.1548956 0.1029983 0.04560059
v -0.1548956 0.08113225 0.04560059
v -0.1494159 0.07590719 0.01419434
v -0.2726507 0.08113225 0.04560059
v -0.2137738 0.1006275 0.04887451
v -0.2726507 0.1029983 0.04560059
v -0.2137738 0.08350308 0.04887451
v -0.1548956 0.1029983 0.04560059
v -0.1548956 0.08113225 0.04560059
v -0.2930267 0.1029983 0.05660889
v -0.2137738 0.08350308 0.06478272
v -0.2930267 0.08113225 0.05660889
v -0.2137738 0.1006275 0.06478272
v -0.1345197 0.08113225 0.05660889
v -0.1345197 0.1029983 0.05660889
vt 0.03564453 0.3493042
vt 0.03564453 0.3493042
vt 0.03564453 0.3493042
vt 0.03564453 0.3493042
vt 0.03564453 0.3493042
vt 0.03564453 0.3493042
vt 0.03564453 0.3493042
vt 0.03564453 0.3493042
vt 0.03564453 0.3493042
vt 0.03564453 0.3493042
vt 0.03564453 0.3493042
vt 0.03564453 0.3493042
vt 0.03564453 0.3493042
vt 0.03564453 0.3493042
vt 0.03564453 0.3493042
vt 0.03564453 0.3493042
vt 0.03564453 0.3493042
vt 0.03564453 0.3493042
vt 0.03564453 0.3493042
vt 0.03564453 0.3493042
vt 0.06977493 0.3786832
vt 0.06977493 0.3786832
vt 0.06977493 0.3786832
vt 0.06977493 0.3786832
vt 0.06977493 0.3786832
vt 0.06977493 0.3786832
vt 0.06977493 0.3786832
vt 0.06977493 0.3786832
vt 0.06977493 0.3786832
vt 0.06977493 0.3786832
vt 0.06977493 0.3786832
vt 0.06977493 0.3786832
vt 0.06977493 0.3786832
vt 0.06977493 0.3786832
vt 0.06977493 0.3786832
vt 0.06977493 0.3786832
vt 0.06977493 0.3786832
vt 0.06977493 0.3786832
vt 0.06977493 0.3786832
vt 0.06977493 0.3786832
vt 0.06977493 0.3786832
vt 0.06977493 0.3786832
vt 0.06977493 0.3786832
vt 0.06977493 0.3786832
vt 0.06977493 0.3786832
vt 0.06977493 0.3786832
vt 0.06977493 0.3786832
vt 0.06977493 0.3786832
vt 0.06977493 0.3786832
vt 0.06977493 0.3786832
vt 0.06977493 0.3786832
vt 0.06977493 0.3786832
vt 0.06977493 0.3786832
vt 0.06977493 0.3786832
vt 0.06977493 0.3786832
vt 0.06977493 0.3786832
vt 0.06977493 0.3786832
vt 0.06977493 0.3786832
vt 0.06977493 0.3786832
vt 0.06977493 0.3786832
vt 0.06977493 0.3786832
vt 0.06977493 0.3786832
vt 0.06977493 0.3786832
vt 0.06977493 0.3786832
vt 0.06977493 0.3786832
vt 0.06977493 0.3786832
vt 0.06977493 0.3786832
vt 0.06977493 0.3786832
vt 0.06977493 0.3786832
vt 0.06977493 0.3786832
vt 0.06977493 0.3786832
vt 0.06977493 0.3786832
vt 0.06977493 0.3786832
vt 0.06977493 0.3786832
vt 0.03564453 0.3493042
vt 0.03564453 0.3493042
vt 0.03564453 0.3493042
vt 0.03564453 0.3493042
vt 0.03564453 0.3493042
vt 0.03564453 0.3493042
vt 0.03564453 0.3493042
vt 0.03564453 0.3493042
vt 0.03564453 0.3493042
vt 0.03564453 0.3493042
vt 0.03564453 0.3493042
vt 0.03564453 0.3493042
vt 0.03564453 0.3493042
vt 0.03564453 0.3493042
vt 0.03564453 0.3493042
vt 0.03564453 0.3493042
vt 0.03564453 0.3493042
vt 0.03564453 0.3493042
vt 0.03564453 0.3493042
vt 0.03564453 0.3493042
vt 0.03564453 0.3493042
vt 0.03564453 0.3493042
vt 0.03564453 0.3493042
vt 0.03564453 0.3493042
vt 0.06977493 0.3786832
vt 0.06977493 0.3786832
vt 0.06977493 0.3786832
vt 0.06977493 0.3786832
vt 0.06977493 0.3786832
vt 0.06977493 0.3786832
vt 0.06977493 0.3786832
vt 0.06977493 0.3786832
vt 0.03564453 0.3493042
vt 0.03564453 0.3493042
vt 0.03564453 0.3493042
vt 0.03564453 0.3493042
vt 0.03564453 0.3493042
vt 0.03564453 0.3493042
vt 0.03564453 0.3493042
vt 0.03564453 0.3493042
vt 0.2084008 0.3787804
vt 0.2084008 0.3787804
vt 0.2084008 0.3787804
vt 0.2084008 0.3787804
vt 0.2084008 0.3787804
vt 0.2084008 0.3787842
vt 0.2084008 0.3787842
vt 0.2084008 0.3787804
vt 0.2084008 0.3787804
vt 0.2084008 0.3787804
vt 0.2084008 0.3787804
vt 0.2084008 0.3787804
vt 0.2084008 0.3787804
vt 0.2084008 0.3787804
vt 0.2084008 0.3787842
vt 0.2084008 0.3787842
vt 0.2084008 0.3787842
vt 0.2084008 0.3787842
vt 0.2084008 0.3787842
vt 0.2084008 0.3787804
vt 0.2084008 0.3787804
vt 0.2084008 0.3787842
vt 0.2084008 0.3787804
vt 0.2084008 0.3787804
vt 0.2084008 0.3787804
vt 0.2084008 0.3787804
vt 0.2084008 0.3787804
vt 0.2084008 0.3787804
vt 0.2084008 0.3787804
vt 0.2084008 0.3787804
vt 0.2084008 0.3787804
vt 0.2084008 0.3787804
vt 0.2084008 0.3787804
vt 0.2084008 0.3787804
vt 0.2084008 0.3787804
vt 0.2084008 0.3787804
vt 0.2084008 0.3787804
vt 0.2084008 0.3787804
vt 0.2084008 0.3787804
vt 0.2084008 0.3787804
vt 0.2084008 0.3787804
vt 0.2084008 0.3787804
vt 0.2084008 0.3787842
vt 0.2084008 0.3787842
vt 0.2084008 0.3787804
vt 0.2084008 0.3787804
vt 0.2084008 0.3787804
vt 0.2084008 0.3787804
vt 0.2084008 0.3787804
vt 0.2084008 0.3787804
vt 0.2084008 0.3787804
vt 0.2084008 0.3787804
vt 0.2084008 0.3787804
vt 0.2084008 0.3787842
vt 0.2084008 0.3787842
vt 0.2084008 0.3787804
vt 0.2084008 0.3787804
vt 0.2084008 0.3787804
vt 0.2084008 0.3787804
vt 0.2084008 0.3787804
vt 0.2084008 0.3787804
vt 0.2084008 0.3787804
vt 0.2084008 0.3787842
vt 0.2084008 0.3787842
vt 0.2084008 0.3787842
vt 0.2084008 0.3787842
vt 0.2084008 0.3787842
vt 0.2084008 0.3787804
vt 0.2084008 0.3787804
vt 0.2084008 0.3787842
vt 0.2084008 0.3787804
vt 0.2084008 0.3787804
vt 0.2084008 0.3787804
vt 0.2084008 0.3787804
vt 0.2084008 0.3787804
vt 0.2084008 0.3787804
vt 0.2084008 0.3787804
vt 0.2084008 0.3787804
vt 0.2084008 0.3787804
vt 0.2084008 0.3787804
vt 0.2084008 0.3787804
vt 0.2084008 0.3787804
vt 0.2084008 0.3787804
vt 0.2084008 0.3787804
vt 0.2084008 0.3787804
vt 0.2084008 0.3787804
vt 0.2084008 0.3787804
vt 0.2084008 0.3787804
vt 0.2084008 0.3787804
vt 0.2084008 0.3787804
vt 0.2084008 0.3787842
vt 0.2084008 0.3787804
vt 0.2084008 0.3787842
vt 0.2084008 0.3787804
vt 0.2084008 0.3787804
vt 0.2084008 0.3787804
vn -1 0 0
vn -1 0 0
vn -1 0 0
vn -1 0 0
vn 0 1 0
vn 0 1 0
vn 0 1 0
vn 0 1 0
vn 1 0 0
vn 1 0 0
vn 1 0 0
vn 1 0 0
vn 0 -1 0
vn 0 -1 0
vn 0 -1 0
vn 0 -1 0
vn 0 0 -1
vn 0 0 -1
vn 0 0 -1
vn 0 0 -1
vn 0 -1 0
vn 0 -1 0
vn 0 -1 0
vn 0 -1 0
vn 1 0 0
vn 1 0 0
vn 1 0 0
vn 1 0 0
vn 0 1 0
vn 0 1 0
vn 0 1 0
vn 0 1 0
vn -1 0 0
vn -1 0 0
vn -1 0 0
vn -1 0 0
vn 0 0.2643873 0.9644166
vn 0 0.08669297 0.9962351
vn 0 0.1576871 0.9874892
vn 0 0.2643873 0.9644166
vn 0 0.1755265 0.9844748
vn 0 -0.1576838 0.9874896
vn 0 0 1
vn 0 0 1
vn 0 0 1
vn 0 0 1
vn 0 0 1
vn 0 0 1
vn 0 0 1
vn 0 0 1
vn 0 0 1
vn -0.1122249 -0.1334222 0.9846847
vn -0.1122252 0.1334245 0.9846844
vn 0 0 1
vn 0.06311458 0.0750349 0.9951815
vn 0 0 1
vn 0.06311447 -0.07503363 0.9951816
vn 0 0 1
vn 0 0 1
vn 0 0 1
vn 0 0 1
vn 0 0 1
vn 0 -0.2643812 0.9644182
vn 0 -0.1755235 0.9844752
vn 0 -0.2643812 0.9644182
vn 0 -0.08669149 0.9962352
vn -0.1461515 0 0.9892622
vn -0.1461515 0 0.9892622
vn -0.1461515 0 0.9892622
vn -0.1461515 0 0.9892622
vn 0.1461556 0 0.9892616
vn 0.07247031 0 0.9973706
vn 0.07247031 0 0.9973706
vn 0.1461556 0 0.9892616
vn 1 0 0
vn 1 0 0
vn 1 0 0
vn 1 0 0
vn 0 0 -1
vn 0 0 -1
vn 0 0 -1
vn 0 0 -1
vn -1 0 0
vn -1 0 0
vn -1 0 0
vn -1 0 0
vn 0 0 1
vn 0 0 1
vn 0 0 1
vn 0 0 1
vn 0 0 -1
vn 0 0 -1
vn 0 0 -1
vn 0 0 -1
vn 0 0 -1
vn 0 0 -1
vn 0 0 -1
vn 0 0 -1
vn 0 0 1
vn 0.09022293 0.2145267 0.972542
vn -0.09022045 0.2145266 0.9725424
vn 0 0 1
vn 0 0 1
vn -0.0902202 -0.2145216 0.9725434
vn 0.09022269 -0.2145218 0.9725432
vn 0 0 1
vn 0 1 0
vn 0 1 0
vn 0 1 0
vn 0 1 0
vn 0 1 0
vn 0 1 0
vn 0 1 0
vn 0 1 0
vn -0.9851109 0 -0.1719196
vn -0.9851109 0 -0.1719196
vn -0.9851109 0 -0.1719196
vn -0.9851109 0 -0.1719196
vn -0.03463104 0.9903536 0.1341655
vn -0.03463104 0.9903536 0.1341655
vn -0.03350364 0.9962781 0.07941927
vn -0.03350364 0.9962781 0.07941927
vn 0 0.9997011 0.02444464
vn 0 0.9997011 0.02444464
vn 0.03350298 0.9962781 0.0794194
vn 0.03350298 0.9962781 0.0794194
vn 0.03463023 0.9903535 0.1341662
vn 0.03463023 0.9903535 0.1341662
vn 0.9852107 0 0.1713472
vn 0.9852107 0 0.1713472
vn 0.9852107 0 0.1713472
vn 0.9852107 0 0.1713472
vn -0.03463051 -0.9903539 0.1341635
vn -0.03463051 -0.9903539 0.1341635
vn -0.03350338 -0.9962782 0.07941823
vn -0.03350338 -0.9962782 0.07941823
vn 0 -0.9997011 0.02444464
vn 0 -0.9997011 0.02444464
vn 0.03350271 -0.9962782 0.07941839
vn 0.03350271 -0.9962782 0.07941839
vn 0.0346297 -0.9903538 0.1341642
vn 0.0346297 -0.9903538 0.1341642
vn -0.9852107 0 0.1713472
vn -0.9852107 0 0.1713472
vn -0.9852107 0 0.1713472
vn -0.9852107 0 0.1713472
vn 0.9851174 0 -0.1718825
vn 0.9851174 0 -0.1718825
vn 0.9851174 0 -0.1718825
vn 0.9851174 0 -0.1718825
vn -0.05552046 0 -0.9984576
vn -0.05552046 0 -0.9984576
vn 0 0 -1
vn 0 0 -1
vn 0.05551932 0 -0.9984577
vn 0.05551932 0 -0.9984577
vn 0.1025918 0 0.9947236
vn 0.1025918 0 0.9947236
vn 0 0 1
vn 0 0 1
vn -0.1025902 0 0.9947238
vn -0.1025902 0 0.9947238
vn 0.9851109 0 -0.1719196
vn 0.9851109 0 -0.1719196
vn 0.9851109 0 -0.1719196
vn 0.9851109 0 -0.1719196
vn 0.03463104 0.9903536 0.1341655
vn 0.03350364 0.9962781 0.07941927
vn 0.03463104 0.9903536 0.1341655
vn 0.03350364 0.9962781 0.07941927
vn 0 0.9997011 0.02444464
vn 0 0.9997011 0.02444464
vn -0.03350298 0.9962781 0.0794194
vn -0.03350298 0.9962781 0.0794194
vn -0.03463023 0.9903535 0.1341662
vn -0.03463023 0.9903535 0.1341662
vn -0.9852107 0 0.1713472
vn -0.9852107 0 0.1713472
vn -0.9852107 0 0.1713472
vn -0.9852107 0 0.1713472
vn 0.03463051 -0.9903539 0.1341635
vn 0.03350338 -0.9962782 0.07941823
vn 0.03463051 -0.9903539 0.1341635
vn 0.03350338 -0.9962782 0.07941823
vn 0 -0.9997011 0.02444464
vn 0 -0.9997011 0.02444464
vn -0.03350271 -0.9962782 0.07941839
vn -0.03350271 -0.9962782 0.07941839
vn -0.0346297 -0.9903538 0.1341642
vn -0.0346297 -0.9903538 0.1341642
vn 0.9852107 0 0.1713472
vn 0.9852107 0 0.1713472
vn 0.9852107 0 0.1713472
vn 0.9852107 0 0.1713472
vn -0.9851174 0 -0.1718825
vn -0.9851174 0 -0.1718825
vn -0.9851174 0 -0.1718825
vn -0.9851174 0 -0.1718825
vn 0.05552046 0 -0.9984576
vn 0 0 -1
vn 0.05552046 0 -0.9984576
vn 0 0 -1
vn -0.05551932 0 -0.9984577
vn -0.05551932 0 -0.9984577
vn -0.1025918 0 0.9947236
vn 0 0 1
vn -0.1025918 0 0.9947236
vn 0 0 1
vn 0.1025902 0 0.9947238
vn 0.1025902 0 0.9947238
g SM_Prop_Kitchen_Counter_01_Drawer_01_0
f 3/3/3 2/2/2 1/1/1
f 4/4/4 3/3/3 1/1/1
f 7/7/7 6/6/6 5/5/5
f 8/8/8 7/7/7 5/5/5
f 11/11/11 10/10/10 9/9/9
f 12/12/12 11/11/11 9/9/9
f 15/15/15 14/14/14 13/13/13
f 16/16/16 15/15/15 13/13/13
f 19/19/19 18/18/18 17/17/17
f 20/20/20 19/19/19 17/17/17
f 23/23/23 22/22/22 21/21/21
f 24/24/24 23/23/23 21/21/21
f 27/27/27 26/26/26 25/25/25
f 28/28/28 27/27/27 25/25/25
f 31/31/31 30/30/30 29/29/29
f 32/32/32 31/31/31 29/29/29
f 35/35/35 34/34/34 33/33/33
f 36/36/36 35/35/35 33/33/33
f 39/39/39 38/38/38 37/37/37
f 40/40/40 39/39/39 37/37/37
f 40/40/40 41/41/41 39/39/39
f 43/43/43 42/42/42 39/39/39
f 42/42/42 44/44/44 39/39/39
f 42/42/42 43/43/43 45/45/45
f 46/46/46 43/43/43 39/39/39
f 47/47/47 46/46/46 39/39/39
f 48/48/48 45/45/45 47/47/47
f 42/42/42 45/45/45 48/48/48
f 49/49/49 48/48/48 47/47/47
f 49/49/49 47/47/47 39/39/39
f 42/42/42 48/48/48 50/50/50
f 51/51/51 49/49/49 39/39/39
f 50/50/50 51/51/51 52/52/52
f 50/50/50 52/52/52 42/42/42
f 51/51/51 53/53/53 52/52/52
f 39/39/39 53/53/53 51/51/51
f 44/44/44 54/54/54 39/39/39
f 55/55/55 39/39/39 54/54/54
f 54/54/54 56/56/56 55/55/55
f 44/44/44 42/42/42 57/57/57
f 57/57/57 58/58/58 44/44/44
f 58/58/58 59/59/59 56/56/56
f 57/57/57 59/59/59 58/58/58
f 59/59/59 60/60/60 56/56/56
f 56/56/56 60/60/60 55/55/55
f 57/57/57 61/61/61 59/59/59
f 60/60/60 62/62/62 55/55/55
f 62/62/62 61/61/61 57/57/57
f 55/55/55 62/62/62 57/57/57
f 42/42/42 64/64/64 63/63/63
f 65/65/65 42/42/42 63/63/63
f 65/65/65 66/66/66 42/42/42
f 69/69/69 68/68/68 67/67/67
f 70/70/70 69/69/69 67/67/67
f 73/73/73 72/72/72 71/71/71
f 74/74/74 73/73/73 71/71/71
f 77/77/77 76/76/76 75/75/75
f 78/78/78 77/77/77 75/75/75
f 81/81/81 80/80/80 79/79/79
f 82/82/82 81/81/81 79/79/79
f 85/85/85 84/84/84 83/83/83
f 86/86/86 85/85/85 83/83/83
f 89/89/89 88/88/88 87/87/87
f 90/90/90 89/89/89 87/87/87
f 93/93/93 92/92/92 91/91/91
f 94/94/94 93/93/93 91/91/91
f 91/91/91 92/92/92 95/95/95
f 96/96/96 93/93/93 94/94/94
f 92/92/92 97/97/97 95/95/95
f 98/98/98 96/96/96 94/94/94
f 95/95/95 97/97/97 98/98/98
f 97/97/97 96/96/96 98/98/98
f 101/101/101 100/100/100 99/99/99
f 102/102/102 101/101/101 99/99/99
f 99/99/99 100/100/100 103/103/103
f 104/104/104 101/101/101 102/102/102
f 100/100/100 105/105/105 103/103/103
f 106/106/106 104/104/104 102/102/102
f 103/103/103 105/105/105 106/106/106
f 105/105/105 104/104/104 106/106/106
f 109/109/109 108/108/108 107/107/107
f 110/110/110 109/109/109 107/107/107
f 107/107/107 108/108/108 111/111/111
f 112/112/112 109/109/109 110/110/110
f 108/108/108 113/113/113 111/111/111
f 114/114/114 112/112/112 110/110/110
f 111/111/111 113/113/113 114/114/114
f 113/113/113 112/112/112 114/114/114
g SM_Prop_Kitchen_Counter_01_Drawer_01_1
f 117/117/117 116/116/116 115/115/115
f 118/118/118 117/117/117 115/115/115
f 121/121/121 120/120/120 119/119/119
f 122/122/122 121/121/121 119/119/119
f 123/123/123 121/121/121 122/122/122
f 124/124/124 123/123/123 122/122/122
f 123/123/123 124/124/124 125/125/125
f 124/124/124 126/126/126 125/125/125
f 125/125/125 126/126/126 127/127/127
f 126/126/126 128/128/128 127/127/127
f 131/131/131 130/130/130 129/129/129
f 132/132/132 131/131/131 129/129/129
f 135/135/135 134/134/134 133/133/133
f 136/136/136 135/135/135 133/133/133
f 137/137/137 135/135/135 136/136/136
f 138/138/138 137/137/137 136/136/136
f 137/137/137 138/138/138 139/139/139
f 138/138/138 140/140/140 139/139/139
f 139/139/139 140/140/140 141/141/141
f 140/140/140 142/142/142 141/141/141
f 145/145/145 144/144/144 143/143/143
f 146/146/146 145/145/145 143/143/143
f 149/149/149 148/148/148 147/147/147
f 150/150/150 149/149/149 147/147/147
f 153/153/153 152/152/152 151/151/151
f 154/154/154 153/153/153 151/151/151
f 153/153/153 154/154/154 155/155/155
f 154/154/154 156/156/156 155/155/155
f 159/159/159 158/158/158 157/157/157
f 160/160/160 159/159/159 157/157/157
f 159/159/159 160/160/160 161/161/161
f 160/160/160 162/162/162 161/161/161
f 165/165/165 164/164/164 163/163/163
f 166/166/166 165/165/165 163/163/163
f 169/169/169 168/168/168 167/167/167
f 168/168/168 170/170/170 167/167/167
f 168/168/168 171/171/171 170/170/170
f 171/171/171 172/172/172 170/170/170
f 172/172/172 171/171/171 173/173/173
f 174/174/174 172/172/172 173/173/173
f 174/174/174 173/173/173 175/175/175
f 176/176/176 174/174/174 175/175/175
f 179/179/179 178/178/178 177/177/177
f 180/180/180 179/179/179 177/177/177
f 183/183/183 182/182/182 181/181/181
f 182/182/182 184/184/184 181/181/181
f 182/182/182 185/185/185 184/184/184
f 185/185/185 186/186/186 184/184/184
f 186/186/186 185/185/185 187/187/187
f 188/188/188 186/186/186 187/187/187
f 188/188/188 187/187/187 189/189/189
f 190/190/190 188/188/188 189/189/189
f 193/193/193 192/192/192 191/191/191
f 194/194/194 193/193/193 191/191/191
f 197/197/197 196/196/196 195/195/195
f 198/198/198 197/197/197 195/195/195
f 201/201/201 200/200/200 199/199/199
f 200/200/200 202/202/202 199/199/199
f 202/202/202 200/200/200 203/203/203
f 204/204/204 202/202/202 203/203/203
f 207/207/207 206/206/206 205/205/205
f 206/206/206 208/208/208 205/205/205
f 208/208/208 206/206/206 209/209/209
f 210/210/210 208/208/208 209/209/209
