g SM_Prop_Computer_Tower_02
v 0.01746861 0.2035257 0.2508775
v 0.01746861 0.2301865 0.2508775
v 0.01746861 0.2444793 0.2508775
v 0.01746861 0.2035257 0.2508775
v 0.01746861 0.2178185 0.2508775
v 0.01746861 0.2301865 0.2508775
v 0.1036519 0.02075634 0.2508775
v 0.1036519 0.1765585 0.2508775
v 0.1169166 0.2815551 0.2508775
v -0.120172 0.3101253 -0.06793795
v -0.120172 0.4958853 -0.06793795
v -0.120172 0.4958853 0.1951298
v -0.120172 0.3101253 0.1951298
v -0.1069948 0.5557125 0.2074596
v 0.1088892 0.5557125 0.2074596
v 0.108889 0.5557125 0.2323804
v -0.1069948 0.5557125 0.2323804
v 0.1201718 0.4708291 -0.1816079
v 0.1201718 0.0754112 -0.1816079
v 0.1201718 0.0754112 0.1816078
v 0.1201718 0.4708291 0.1816078
v 0.1306032 0 -0.2508776
v -0.1306031 0 -0.2508776
v -0.1306031 0 0.2508776
v 0.130603 0 0.2508775
v 0.1092756 0.5278897 0.273412
v 0.1092756 0.2918126 0.273412
v -0.1092754 0.2918126 0.273412
v -0.1092754 0.5278897 0.273412
v 0.1062773 0.02331966 -0.227901
v 0.1062773 0.5229201 -0.227901
v -0.1062773 0.5229201 -0.227901
v -0.1062773 0.02331966 -0.227901
v -0.008610212 0.2301865 0.2508775
v -0.008610212 0.2444793 0.2508775
v 0.01746861 0.2444793 0.2508775
v 0.01746861 0.2301865 0.2508775
v -0.008610212 0.2035257 0.2508775
v -0.008610212 0.2178185 0.2508775
v 0.01746861 0.2178185 0.2508775
v 0.01746861 0.2035257 0.2508775
v -0.008610212 0.2178185 0.2508775
v 0.01746861 0.2301865 0.2508775
v 0.01746861 0.2178185 0.2508775
v -0.008610212 0.2301865 0.2508775
v -0.1169165 0.2815551 0.2508774
v -0.008610212 0.2444793 0.2508775
v -0.008610212 0.2035257 0.2508775
v 0.1169166 0.2815551 0.2508775
v 0.01746861 0.2444793 0.2508775
v 0.1036519 0.1765585 0.2508775
v 0.01746861 0.2035257 0.2508775
v -0.104496 0.1765585 0.2508776
v -0.104496 0.02075634 0.2508776
v -0.1306031 0 0.2508776
v 0.1036519 0.02075634 0.2508775
v -0.1306031 0.5462401 0.2508776
v 0.130603 0 0.2508775
v -0.1169165 0.538147 0.2508774
v 0.1169166 0.2815551 0.2508775
v 0.130603 0.5462401 0.2508775
v 0.1169166 0.538147 0.2508775
v -0.06932773 0.1305012 0.2547133
v -0.06932773 0.1488713 0.2547133
v 0.06848345 0.1488713 0.2547133
v 0.06848345 0.1305012 0.2547133
v -0.1306031 0.300221 -0.07875822
v -0.120172 0.3101253 -0.06793795
v -0.120172 0.3101253 0.1951298
v -0.1306031 0.300221 0.20595
v -0.1306031 0.300221 0.20595
v -0.120172 0.3101253 0.1951298
v -0.120172 0.4958853 0.1951298
v -0.1306031 0.5057896 0.20595
v -0.1306031 0.5057896 0.20595
v -0.120172 0.4958853 0.1951298
v -0.120172 0.4958853 -0.06793795
v -0.1306031 0.5057896 -0.07875822
v -0.1306031 0.5057896 -0.07875822
v -0.120172 0.4958853 -0.06793795
v -0.120172 0.3101253 -0.06793795
v -0.1306031 0.300221 -0.07875822
v 0.1306032 0.4811124 -0.1910538
v 0.1201718 0.4708291 -0.1816079
v 0.1201718 0.4708291 0.1816078
v 0.1306032 0.4811124 0.1910538
v 0.1306032 0.4811124 0.1910538
v 0.1201718 0.4708291 0.1816078
v 0.1201718 0.0754112 0.1816078
v 0.1306032 0.06512768 0.1910538
v 0.1306032 0.06512768 0.1910538
v 0.1201718 0.0754112 0.1816078
v 0.1201718 0.0754112 -0.1816079
v 0.1306032 0.06512768 -0.1910538
v 0.1306032 0.06512768 -0.1910538
v 0.1201718 0.0754112 -0.1816079
v 0.1201718 0.4708291 -0.1816079
v 0.1306032 0.4811124 -0.1910538
v 0.1135096 0.01965472 -0.2508776
v 0.1062773 0.02331966 -0.227901
v -0.1062773 0.02331966 -0.227901
v -0.1135096 0.01965472 -0.2508776
v -0.1135096 0.01965472 -0.2508776
v -0.1062773 0.02331966 -0.227901
v -0.1062773 0.5229201 -0.227901
v -0.1135096 0.526585 -0.2508776
v -0.1135096 0.526585 -0.2508776
v -0.1062773 0.5229201 -0.227901
v 0.1062773 0.5229201 -0.227901
v 0.1135096 0.526585 -0.2508776
v 0.1135096 0.526585 -0.2508776
v 0.1062773 0.5229201 -0.227901
v 0.1062773 0.02331966 -0.227901
v 0.1135096 0.01965472 -0.2508776
v -0.104496 0.02075634 0.2508776
v -0.09393055 0.0286649 0.2758603
v 0.09308626 0.0286649 0.2758603
v 0.1036519 0.02075634 0.2508775
v 0.1036519 0.02075634 0.2508775
v 0.09308626 0.0286649 0.2758603
v 0.09308626 0.1686499 0.2758603
v 0.1036519 0.1765585 0.2508775
v 0.1036519 0.1765585 0.2508775
v 0.09308626 0.1686499 0.2758603
v -0.09393055 0.1686499 0.2758603
v -0.104496 0.1765585 0.2508776
v -0.104496 0.1765585 0.2508776
v -0.09393055 0.1686499 0.2758603
v -0.09393055 0.0286649 0.2758603
v -0.104496 0.02075634 0.2508776
v -0.07534676 0.03891396 0.2758603
v -0.07534676 0.07591758 0.2758603
v 0.07450265 0.07591758 0.2758603
v 0.07450265 0.03891396 0.2758603
v -0.07596777 0.1250944 0.2758603
v -0.06932773 0.1305012 0.2547133
v 0.06848345 0.1305012 0.2547133
v 0.07512365 0.1250944 0.2758603
v 0.07512365 0.1250944 0.2758603
v 0.06848345 0.1305012 0.2547133
v 0.06848345 0.1488713 0.2547133
v 0.07512365 0.1542782 0.2758603
v 0.07512365 0.1542782 0.2758603
v 0.06848345 0.1488713 0.2547133
v -0.06932773 0.1488713 0.2547133
v -0.07596777 0.1542782 0.2758603
v -0.07596777 0.1542782 0.2758603
v -0.06932773 0.1488713 0.2547133
v -0.06932773 0.1305012 0.2547133
v -0.07596777 0.1250944 0.2758603
v 0.1169166 0.538147 0.2508775
v 0.1092756 0.5278897 0.273412
v -0.1092754 0.5278897 0.273412
v -0.1169165 0.538147 0.2508774
v -0.1092754 0.5278897 0.273412
v -0.1092754 0.2918126 0.273412
v -0.1169165 0.2815551 0.2508774
v -0.1169165 0.538147 0.2508774
v -0.1169165 0.2815551 0.2508774
v -0.1092754 0.2918126 0.273412
v 0.1092756 0.2918126 0.273412
v 0.1169166 0.2815551 0.2508775
v 0.1092756 0.5278897 0.273412
v 0.1169166 0.538147 0.2508775
v 0.1169166 0.2815551 0.2508775
v 0.1092756 0.2918126 0.273412
v -0.1092415 0.5462401 0.2059846
v -0.1069948 0.5557125 0.2074596
v -0.1069948 0.5557125 0.2323804
v -0.1092415 0.5462401 0.2338554
v -0.1092415 0.5462401 0.2338554
v -0.1069948 0.5557125 0.2323804
v 0.108889 0.5557125 0.2323804
v 0.1111359 0.5462401 0.2338554
v 0.1111359 0.5462401 0.2338554
v 0.108889 0.5557125 0.2323804
v 0.1088892 0.5557125 0.2074596
v 0.1111359 0.5462401 0.2059845
v 0.1111359 0.5462401 0.2059845
v 0.1088892 0.5557125 0.2074596
v -0.1069948 0.5557125 0.2074596
v -0.1092415 0.5462401 0.2059846
v -0.1306031 0 -0.2508776
v -0.1135096 0.526585 -0.2508776
v -0.1306031 0.5462401 -0.2508776
v -0.1135096 0.01965472 -0.2508776
v 0.1135096 0.526585 -0.2508776
v 0.1306032 0 -0.2508776
v 0.1306032 0.5462401 -0.2508776
v 0.1135096 0.01965472 -0.2508776
v -0.1306031 0 -0.2508776
v -0.1306031 0.300221 -0.07875822
v -0.1306031 0.300221 0.20595
v -0.1306031 0 0.2508776
v -0.1306031 0.5462401 -0.2508776
v -0.1306031 0.5057896 0.20595
v -0.1306031 0.5057896 -0.07875822
v -0.1306031 0.5462401 0.2508776
v 0.1306032 0.5462401 -0.2508776
v 0.1306032 0.4811124 -0.1910538
v 0.1306032 0.4811124 0.1910538
v 0.130603 0.5462401 0.2508775
v 0.1306032 0 -0.2508776
v 0.1306032 0.06512768 0.1910538
v 0.1306032 0.06512768 -0.1910538
v 0.130603 0 0.2508775
v 0.09308626 0.0286649 0.2758603
v 0.07512365 0.1250944 0.2758603
v 0.07512365 0.1542782 0.2758603
v 0.09308626 0.1686499 0.2758603
v -0.07596777 0.1542782 0.2758603
v -0.09393055 0.1686499 0.2758603
v -0.07596777 0.1250944 0.2758603
v -0.09393055 0.0286649 0.2758603
v 0.07450265 0.07591758 0.2758603
v 0.07450265 0.03891396 0.2758603
v -0.07534676 0.07591758 0.2758603
v -0.07534676 0.03891396 0.2758603
v -0.1306031 0.5462401 -0.2508776
v -0.1092415 0.5462401 0.2059846
v -0.1092415 0.5462401 0.2338554
v -0.1306031 0.5462401 0.2508776
v 0.1306032 0.5462401 -0.2508776
v 0.1111359 0.5462401 0.2338554
v 0.1111359 0.5462401 0.2059845
v 0.130603 0.5462401 0.2508775
vt 0.08095753 0.2779478
vt 0.08095369 0.2778681
vt 0.0809516 0.2778241
vt 0.08095753 0.2779478
vt 0.08095551 0.2779054
vt 0.08095369 0.2778681
vt 0.08097062 0.2782209
vt 0.08096197 0.2780408
vt 0.08094874 0.2777643
vt 0.0813542 0.277859
vt 0.08136585 0.2775479
vt 0.08131763 0.277661
vt 0.08130807 0.2779962
vt 0.08116272 0.302364
vt 0.08059719 0.3022598
vt 0.08026513 0.3024881
vt 0.08083859 0.3025962
vt 0.08111106 0.2773989
vt 0.08111651 0.2778184
vt 0.08097267 0.2780899
vt 0.08095023 0.2776029
vt 0.08113907 0.2778476
vt 0.08136337 0.277873
vt 0.08122998 0.2782824
vt 0.08094272 0.2782395
vt 0.3027334 0.2837975
vt 0.3027334 0.2399917
vt 0.2478806 0.2399917
vt 0.2478806 0.2837975
vt 0.1934222 0.2191416
vt 0.1934222 0.3379831
vt 0.2441326 0.3379831
vt 0.2441326 0.2191416
vt 0.01388217 0.1239104
vt 0.01384733 0.1235744
vt 0.01310682 0.1236295
vt 0.01315039 0.1239664
vt 0.01394508 0.1245166
vt 0.01391168 0.1241948
vt 0.01318735 0.1242517
vt 0.01322919 0.1245744
vt 0.08100206 0.277911
vt 0.08095369 0.2778681
vt 0.08095551 0.2779054
vt 0.08100063 0.2778735
vt 0.08120215 0.2777917
vt 0.08099896 0.2778294
vt 0.08100367 0.2779535
vt 0.08094874 0.2777643
vt 0.0809516 0.2778241
vt 0.08096197 0.2780408
vt 0.08095753 0.2779478
vt 0.08120173 0.2780724
vt 0.08120078 0.2782548
vt 0.08122998 0.2782824
vt 0.08097062 0.2782209
vt 0.0812386 0.2775737
vt 0.08094272 0.2782395
vt 0.08120292 0.2776344
vt 0.08094874 0.2777643
vt 0.08090472 0.2775439
vt 0.08094132 0.2776096
vt 0.08115415 0.2791485
vt 0.08115317 0.2789684
vt 0.08015409 0.2788792
vt 0.08015874 0.2790525
vt 0.0798659 0.2263116
vt 0.07987848 0.2262981
vt 0.08023113 0.2263451
vt 0.08024585 0.2263627
vt 0.08024585 0.2263627
vt 0.08023113 0.2263451
vt 0.08023471 0.2259167
vt 0.08025184 0.2258983
vt 0.08025184 0.2258983
vt 0.08023471 0.2259167
vt 0.07983807 0.2258773
vt 0.07982025 0.2258562
vt 0.07982025 0.2258562
vt 0.07983807 0.2258773
vt 0.07987848 0.2262981
vt 0.0798659 0.2263116
vt 0.07967231 0.2258243
vt 0.07969794 0.2258467
vt 0.08064315 0.2259391
vt 0.08067238 0.2259204
vt 0.08067238 0.2259204
vt 0.08064315 0.2259391
vt 0.08056444 0.2266083
vt 0.08058435 0.2266258
vt 0.08058435 0.2266258
vt 0.08056444 0.2266083
vt 0.07978281 0.2264909
vt 0.07976565 0.2265018
vt 0.07976565 0.2265018
vt 0.07978281 0.2264909
vt 0.07969794 0.2258467
vt 0.07967231 0.2258243
vt 0.08102921 0.2779355
vt 0.08099422 0.2779053
vt 0.080708 0.2780042
vt 0.08072105 0.2780439
vt 0.08072105 0.2780439
vt 0.080708 0.2780042
vt 0.08071139 0.2771178
vt 0.08072755 0.2771359
vt 0.08072755 0.2771359
vt 0.08071139 0.2771178
vt 0.0810571 0.2770438
vt 0.08110145 0.2770547
vt 0.08110145 0.2770547
vt 0.0810571 0.2770438
vt 0.08099422 0.2779053
vt 0.08102921 0.2779355
vt 0.08223405 0.3049658
vt 0.08223405 0.3049658
vt 0.08128008 0.3048488
vt 0.08128008 0.3048488
vt 0.08128008 0.3048488
vt 0.08128008 0.3048488
vt 0.08125874 0.3040129
vt 0.08125874 0.3040129
vt 0.08125874 0.3040129
vt 0.08125874 0.3040129
vt 0.08225882 0.3040917
vt 0.08225882 0.3040917
vt 0.08225882 0.3040917
vt 0.08225882 0.3040917
vt 0.08223405 0.3049658
vt 0.08223405 0.3049658
vt 0.2499323 0.23947
vt 0.2499323 0.2531058
vt 0.3014359 0.2531058
vt 0.3014359 0.23947
vt 0.08223405 0.3049658
vt 0.08223405 0.3049658
vt 0.08128008 0.3048488
vt 0.08128008 0.3048488
vt 0.08128008 0.3048488
vt 0.08128008 0.3048488
vt 0.08125874 0.3040129
vt 0.08125874 0.3040129
vt 0.08125874 0.3040129
vt 0.08125874 0.3040129
vt 0.08225882 0.3040917
vt 0.08225882 0.3040917
vt 0.08225882 0.3040917
vt 0.08225882 0.3040917
vt 0.08223405 0.3049658
vt 0.08223405 0.3049658
vt 0.3046511 0.2857008
vt 0.3027334 0.2837975
vt 0.2478806 0.2837975
vt 0.2459628 0.2857008
vt 0.2478806 0.2837975
vt 0.2478806 0.2399917
vt 0.2459628 0.2380883
vt 0.2459628 0.2857008
vt 0.2459628 0.2380883
vt 0.2478806 0.2399917
vt 0.3027334 0.2399917
vt 0.3046511 0.2380883
vt 0.3027334 0.2837975
vt 0.3046511 0.2857008
vt 0.3046511 0.2380883
vt 0.3027334 0.2399917
vt 0.08122757 0.3025404
vt 0.08116272 0.302364
vt 0.08083859 0.3025962
vt 0.0808672 0.3028033
vt 0.0808672 0.3028033
vt 0.08083859 0.3025962
vt 0.08026513 0.3024881
vt 0.08022752 0.3026806
vt 0.08022752 0.3026806
vt 0.08026513 0.3024881
vt 0.08059719 0.3022598
vt 0.08059773 0.3024227
vt 0.08059773 0.3024227
vt 0.08059719 0.3022598
vt 0.08116272 0.302364
vt 0.08122757 0.3025404
vt 0.08136337 0.277873
vt 0.08136851 0.2773208
vt 0.08138615 0.2772988
vt 0.08134913 0.2778529
vt 0.08115064 0.2773061
vt 0.08113907 0.2778476
vt 0.08113436 0.2772823
vt 0.08115338 0.2778309
vt 0.08136337 0.277873
vt 0.08135545 0.2778658
vt 0.08130562 0.2780152
vt 0.08122998 0.2782824
vt 0.08138615 0.2772988
vt 0.08131585 0.2776513
vt 0.08136815 0.2775301
vt 0.0812386 0.2775737
vt 0.08113436 0.2772823
vt 0.08111428 0.2773827
vt 0.08094439 0.2775953
vt 0.08090472 0.2775439
vt 0.08113907 0.2778476
vt 0.08096868 0.27811
vt 0.08111973 0.2778225
vt 0.08094272 0.2782395
vt 0.08128008 0.3048488
vt 0.08128008 0.3048488
vt 0.08125874 0.3040129
vt 0.08125874 0.3040129
vt 0.08225882 0.3040917
vt 0.08225882 0.3040917
vt 0.08223405 0.3049658
vt 0.08223405 0.3049658
vt 0.08128008 0.3048488
vt 0.08128008 0.3048488
vt 0.08223405 0.3049658
vt 0.08223405 0.3049658
vt 0.08138615 0.2772988
vt 0.08138615 0.2772988
vt 0.0812386 0.2775737
vt 0.0812386 0.2775737
vt 0.08113436 0.2772823
vt 0.08090472 0.2775439
vt 0.08113436 0.2772823
vt 0.08090472 0.2775439
vn 0 1 0
vn 0 1 0
vn 0 1 0
vn 0 1 0
vn 0 1 0
vn 0 1 0
vn 0 0 1
vn 0 0 1
vn 0 0 1
vn -1 0 0
vn -1 0 0
vn -1 0 0
vn -1 0 0
vn 0 1 0
vn 0 1 0
vn 0 1 0
vn 0 1 0
vn 1 0 0
vn 1 0 0
vn 1 0 0
vn 1 0 0
vn 0 -1 0
vn 0 -1 0
vn 0 -1 0
vn 0 -1 0
vn 0 0 1
vn 0 0 1
vn 0 0 1
vn 0 0 1
vn 0 0 -1
vn 0 0 -1
vn 0 0 -1
vn 0 0 -1
vn 0 0 1
vn 0 0 1
vn 0 0 1
vn 0 0 1
vn 0 0 1
vn 0 0 1
vn 0 0 1
vn 0 0 1
vn 0 0 1
vn 0 0 1
vn 0 0 1
vn 0 0 1
vn 0 0 1
vn 0 0 1
vn 0 0 1
vn 0 0 1
vn 0 0 1
vn 0 0 1
vn 0 0 1
vn 0 0 1
vn 0 0 1
vn 0 0 1
vn 0 0 1
vn 0 0 1
vn 0 0 1
vn 0 0 1
vn 0 0 1
vn 0 0 1
vn 0 0 1
vn 0 0 1
vn 0 0 1
vn 0 0 1
vn 0 0 1
vn -0.6885565 0.7251828 0
vn -0.6885564 0.7251828 0
vn -0.6885565 0.7251828 0
vn -0.6885565 0.7251828 0
vn -0.7199306 0 -0.694046
vn -0.7199307 0 -0.694046
vn -0.7199307 0 -0.694046
vn -0.7199306 0 -0.694046
vn -0.6885571 -0.7251821 0
vn -0.6885571 -0.7251821 0
vn -0.6885571 -0.7251821 0
vn -0.6885572 -0.7251821 0
vn -0.7199341 0 0.6940424
vn -0.719934 0 0.6940424
vn -0.719934 0 0.6940426
vn -0.719934 0 0.6940424
vn 0.7020319 -0.7121455 0
vn 0.7020319 -0.7121455 0
vn 0.7020319 -0.7121455 0
vn 0.7020319 -0.7121455 0
vn 0.6712258 0 -0.7412529
vn 0.6712258 0 -0.7412528
vn 0.6712258 0 -0.7412529
vn 0.6712258 0 -0.7412529
vn 0.7020403 0.7121373 0
vn 0.7020402 0.7121373 0
vn 0.7020403 0.7121373 0
vn 0.7020403 0.7121373 0
vn 0.6712236 0 0.7412549
vn 0.6712236 0 0.7412549
vn 0.6712236 0 0.7412549
vn 0.6712236 0 0.7412549
vn 0 0.9875163 -0.1575167
vn 0 0.9875163 -0.1575167
vn 0 0.9875163 -0.1575167
vn 0 0.9875163 -0.1575167
vn 0.9538617 0 -0.3002463
vn 0.9538617 0 -0.3002463
vn 0.9538617 0 -0.3002464
vn 0.9538617 0 -0.3002464
vn 0 -0.9875167 -0.1575144
vn 0 -0.9875167 -0.1575144
vn 0 -0.9875167 -0.1575144
vn 0 -0.9875167 -0.1575144
vn -0.9538617 0 -0.3002464
vn -0.9538617 0 -0.3002464
vn -0.9538617 0 -0.3002463
vn -0.9538617 0 -0.3002463
vn 0 -0.9533714 0.3017998
vn 0 -0.9533714 0.3017998
vn 0 -0.9533713 0.3017998
vn 0 -0.9533714 0.3017998
vn 0.9210195 0 0.3895163
vn 0.9210195 0 0.3895163
vn 0.9210195 0 0.3895163
vn 0.9210195 0 0.3895163
vn 0 0.9533712 0.3018003
vn 0 0.9533712 0.3018003
vn 0 0.9533712 0.3018003
vn 0 0.9533712 0.3018003
vn -0.9210218 0 0.389511
vn -0.9210218 0 0.389511
vn -0.9210218 0 0.3895109
vn -0.9210218 0 0.3895109
vn 0 0 1
vn 0 0 1
vn 0 0 1
vn 0 0 1
vn 0 0.9688346 0.2477086
vn 0 0.9688346 0.2477086
vn 0 0.9688346 0.2477086
vn 0 0.9688346 0.2477086
vn -0.9540711 0 0.2995804
vn -0.9540711 0 0.2995804
vn -0.9540711 0 0.2995804
vn -0.9540711 0 0.2995803
vn 0 -0.9688344 0.2477094
vn 0 -0.9688344 0.2477094
vn 0 -0.9688344 0.2477094
vn 0 -0.9688344 0.2477094
vn 0.9540733 0 0.2995734
vn 0.9540733 0 0.2995734
vn 0.9540733 0 0.2995734
vn 0.9540733 0 0.2995734
vn 0 0.9101477 0.4142839
vn 0 0.9101477 0.414284
vn 0 0.9101477 0.414284
vn 0 0.9101477 0.414284
vn -0.9470378 0 0.3211221
vn -0.9470378 0 0.3211222
vn -0.9470378 0 0.3211222
vn -0.9470378 0 0.3211221
vn 0 -0.9101459 0.4142879
vn 0 -0.9101459 0.4142879
vn 0 -0.9101459 0.4142879
vn 0 -0.9101459 0.4142879
vn 0.947039 0 0.3211186
vn 0.947039 0 0.3211186
vn 0.947039 0 0.3211186
vn 0.947039 0 0.3211186
vn -0.9730057 0.230781 0
vn -0.9730057 0.230781 0
vn -0.9730057 0.230781 0
vn -0.9730057 0.230781 0
vn 0 0.1538575 0.9880931
vn 0 0.1538574 0.9880931
vn 0 0.1538574 0.9880931
vn 0 0.1538574 0.9880931
vn 0.9730039 0.2307889 0
vn 0.9730039 0.2307889 0
vn 0.9730039 0.2307889 0
vn 0.9730039 0.2307889 0
vn 0 0.1538604 -0.9880926
vn 0 0.1538604 -0.9880926
vn 0 0.1538604 -0.9880926
vn 0 0.1538604 -0.9880926
vn 0 0 -1
vn 0 0 -1
vn 0 0 -1
vn 0 0 -1
vn 0 0 -1
vn 0 0 -1
vn 0 0 -1
vn 0 0 -1
vn -1 0 0
vn -1 0 0
vn -1 0 0
vn -1 0 0
vn -1 0 0
vn -1 0 0
vn -1 0 0
vn -1 0 0
vn 1 0 0
vn 1 0 0
vn 1 0 0
vn 1 0 0
vn 1 0 0
vn 1 0 0
vn 1 0 0
vn 1 0 0
vn 0 0 1
vn 0 0 1
vn 0 0 1
vn 0 0 1
vn 0 0 1
vn 0 0 1
vn 0 0 1
vn 0 0 1
vn 0 0 1
vn 0 0 1
vn 0 0 1
vn 0 0 1
vn 0 1 0
vn 0 1 0
vn 0 1 0
vn 0 1 0
vn 0 1 0
vn 0 1 0
vn 0 1 0
vn 0 1 0
g SM_Prop_Computer_Tower_02_0
f 3/3/3 2/2/2 1/1/1
f 6/6/6 5/5/5 4/4/4
f 9/9/9 8/8/8 7/7/7
f 12/12/12 11/11/11 10/10/10
f 13/13/13 12/12/12 10/10/10
f 16/16/16 15/15/15 14/14/14
f 17/17/17 16/16/16 14/14/14
f 20/20/20 19/19/19 18/18/18
f 21/21/21 20/20/20 18/18/18
f 24/24/24 23/23/23 22/22/22
f 25/25/25 24/24/24 22/22/22
f 28/28/28 27/27/27 26/26/26
f 29/29/29 28/28/28 26/26/26
f 32/32/32 31/31/31 30/30/30
f 33/33/33 32/32/32 30/30/30
f 36/36/36 35/35/35 34/34/34
f 37/37/37 36/36/36 34/34/34
f 40/40/40 39/39/39 38/38/38
f 41/41/41 40/40/40 38/38/38
f 44/44/44 43/43/43 42/42/42
f 43/43/43 45/45/45 42/42/42
f 46/46/46 42/42/42 45/45/45
f 45/45/45 47/47/47 46/46/46
f 46/46/46 48/48/48 42/42/42
f 46/46/46 47/47/47 49/49/49
f 47/47/47 50/50/50 49/49/49
f 51/51/51 49/49/49 50/50/50
f 50/50/50 52/52/52 51/51/51
f 51/51/51 52/52/52 53/53/53
f 52/52/52 48/48/48 53/53/53
f 46/46/46 53/53/53 48/48/48
f 54/54/54 53/53/53 46/46/46
f 55/55/55 54/54/54 46/46/46
f 56/56/56 54/54/54 55/55/55
f 57/57/57 55/55/55 46/46/46
f 58/58/58 56/56/56 55/55/55
f 59/59/59 57/57/57 46/46/46
f 56/56/56 58/58/58 60/60/60
f 57/57/57 59/59/59 61/61/61
f 58/58/58 61/61/61 60/60/60
f 59/59/59 62/62/62 61/61/61
f 61/61/61 62/62/62 60/60/60
f 65/65/65 64/64/64 63/63/63
f 66/66/66 65/65/65 63/63/63
f 69/69/69 68/68/68 67/67/67
f 70/70/70 69/69/69 67/67/67
f 73/73/73 72/72/72 71/71/71
f 74/74/74 73/73/73 71/71/71
f 77/77/77 76/76/76 75/75/75
f 78/78/78 77/77/77 75/75/75
f 81/81/81 80/80/80 79/79/79
f 82/82/82 81/81/81 79/79/79
f 85/85/85 84/84/84 83/83/83
f 86/86/86 85/85/85 83/83/83
f 89/89/89 88/88/88 87/87/87
f 90/90/90 89/89/89 87/87/87
f 93/93/93 92/92/92 91/91/91
f 94/94/94 93/93/93 91/91/91
f 97/97/97 96/96/96 95/95/95
f 98/98/98 97/97/97 95/95/95
f 101/101/101 100/100/100 99/99/99
f 102/102/102 101/101/101 99/99/99
f 105/105/105 104/104/104 103/103/103
f 106/106/106 105/105/105 103/103/103
f 109/109/109 108/108/108 107/107/107
f 110/110/110 109/109/109 107/107/107
f 113/113/113 112/112/112 111/111/111
f 114/114/114 113/113/113 111/111/111
f 117/117/117 116/116/116 115/115/115
f 118/118/118 117/117/117 115/115/115
f 121/121/121 120/120/120 119/119/119
f 122/122/122 121/121/121 119/119/119
f 125/125/125 124/124/124 123/123/123
f 126/126/126 125/125/125 123/123/123
f 129/129/129 128/128/128 127/127/127
f 130/130/130 129/129/129 127/127/127
f 133/133/133 132/132/132 131/131/131
f 134/134/134 133/133/133 131/131/131
f 137/137/137 136/136/136 135/135/135
f 138/138/138 137/137/137 135/135/135
f 141/141/141 140/140/140 139/139/139
f 142/142/142 141/141/141 139/139/139
f 145/145/145 144/144/144 143/143/143
f 146/146/146 145/145/145 143/143/143
f 149/149/149 148/148/148 147/147/147
f 150/150/150 149/149/149 147/147/147
f 153/153/153 152/152/152 151/151/151
f 154/154/154 153/153/153 151/151/151
f 157/157/157 156/156/156 155/155/155
f 158/158/158 157/157/157 155/155/155
f 161/161/161 160/160/160 159/159/159
f 162/162/162 161/161/161 159/159/159
f 165/165/165 164/164/164 163/163/163
f 166/166/166 165/165/165 163/163/163
f 169/169/169 168/168/168 167/167/167
f 170/170/170 169/169/169 167/167/167
f 173/173/173 172/172/172 171/171/171
f 174/174/174 173/173/173 171/171/171
f 177/177/177 176/176/176 175/175/175
f 178/178/178 177/177/177 175/175/175
f 181/181/181 180/180/180 179/179/179
f 182/182/182 181/181/181 179/179/179
f 185/185/185 184/184/184 183/183/183
f 184/184/184 186/186/186 183/183/183
f 187/187/187 184/184/184 185/185/185
f 183/183/183 186/186/186 188/188/188
f 189/189/189 187/187/187 185/185/185
f 186/186/186 190/190/190 188/188/188
f 190/190/190 187/187/187 189/189/189
f 188/188/188 190/190/190 189/189/189
f 193/193/193 192/192/192 191/191/191
f 194/194/194 193/193/193 191/191/191
f 191/191/191 192/192/192 195/195/195
f 196/196/196 193/193/193 194/194/194
f 192/192/192 197/197/197 195/195/195
f 198/198/198 196/196/196 194/194/194
f 195/195/195 197/197/197 198/198/198
f 197/197/197 196/196/196 198/198/198
f 201/201/201 200/200/200 199/199/199
f 202/202/202 201/201/201 199/199/199
f 199/199/199 200/200/200 203/203/203
f 204/204/204 201/201/201 202/202/202
f 200/200/200 205/205/205 203/203/203
f 206/206/206 204/204/204 202/202/202
f 203/203/203 205/205/205 206/206/206
f 205/205/205 204/204/204 206/206/206
f 209/209/209 208/208/208 207/207/207
f 210/210/210 209/209/209 207/207/207
f 211/211/211 209/209/209 210/210/210
f 212/212/212 211/211/211 210/210/210
f 213/213/213 211/211/211 212/212/212
f 214/214/214 213/213/213 212/212/212
f 208/208/208 215/215/215 207/207/207
f 215/215/215 216/216/216 207/207/207
f 207/207/207 216/216/216 214/214/214
f 217/217/217 215/215/215 208/208/208
f 213/213/213 217/217/217 208/208/208
f 216/216/216 218/218/218 214/214/214
f 218/218/218 217/217/217 213/213/213
f 214/214/214 218/218/218 213/213/213
f 221/221/221 220/220/220 219/219/219
f 222/222/222 221/221/221 219/219/219
f 219/219/219 220/220/220 223/223/223
f 224/224/224 221/221/221 222/222/222
f 220/220/220 225/225/225 223/223/223
f 226/226/226 224/224/224 222/222/222
f 223/223/223 225/225/225 226/226/226
f 225/225/225 224/224/224 226/226/226
