g SM_Prop_Computer_Mouse_01
v -0.02275238 0.03310559 0.06751525
v -0.03830353 0.0377882 0.0520758
v 0.03832519 0.0377882 0.05208435
v -0.02275238 0.03310559 0.06751525
v 0.03832519 0.0377882 0.05208435
v 0.02167969 0.02169933 0.08581115
v 0.02167969 0.02169933 0.08581115
v -0.01950348 0.02158944 0.08581115
v -0.02275238 0.03310559 0.06751525
v 0.02167969 0.02169933 0.08581115
v 0.001087952 0.02071586 0.09141113
v -0.01950348 0.02158944 0.08581115
v 0.0257843 0 0.09274902
v 0.001087952 0 0.09898803
v 0.001087952 0.01263282 0.09898803
v 0.0257843 0.01291173 0.09274902
v 0.0008325195 0.02431488 -0.06139099
v 0.02192871 0.02431488 -0.05634216
v 0.03981476 0.03717878 -0.001431885
v -0.001420288 0.03716815 -9.643554E-05
v -0.002110596 0.02058023 -0.06468201
v -0.002110596 0 -0.06468201
v 0.02297211 0 -0.05963379
v 0.02297211 0.02058023 -0.05963379
v 0.04268432 0.0314974 -0.001315308
v 0.02297211 0.02058023 -0.05963379
v 0.02297211 0 -0.05963379
v 0.04506927 0 -0.001315308
v -0.03320709 0.007631271 -0.05963379
v -0.03320709 0.02058023 -0.05963379
v -0.04268463 0.0314974 -0.001315308
v -0.04268463 0.01008324 -0.001315308
v -0.04268463 0.03232124 0.05421692
v -0.04268463 0.01777994 0.05421692
v -0.04268463 0.01008324 -0.001315308
v -0.04268463 0.0314974 -0.001315308
v -0.03830353 0.0377882 0.0520758
v -0.03976257 0.03717831 -0.001439209
v -0.008144531 0.03716767 -9.82666E-05
v -0.001420288 0.03716815 -9.643554E-05
v 0.03832519 0.0377882 0.05208435
v 0.03981476 0.03717878 -0.001431885
v 0.04268432 0.02887803 0.05421692
v 0.04268432 0.0314974 -0.001315308
v 0.04506927 0 -0.001315308
v 0.04506927 0 0.05421692
v -0.02360809 0 0.09274902
v -0.02699524 0 0.07017944
v -0.02699524 0.02740853 0.07017944
v -0.02360809 0.01287116 0.09274902
v 0.0257843 0 0.09274902
v 0.0257843 0.01291173 0.09274902
v 0.04268432 0.02887803 0.05421692
v 0.04506927 0 0.05421692
v -0.02360809 0 0.09274902
v 0.001087952 0 0.09898803
v 0.0257843 0 0.09274902
v -0.02699524 0 0.07017944
v 0.04506927 0 0.05421692
v -0.04268463 0 0.05421692
v 0.04506927 0 -0.001315308
v -0.04268463 0 -0.001315308
v -0.06635589 0 0.04544922
v -0.06896667 0 0.01340271
v -0.002110596 0 -0.06468201
v 0.02297211 0 -0.05963379
v -0.007266235 0 -0.06468201
v -0.03320709 0 -0.05963379
v -0.04905487 0 -0.04287109
v -0.03976257 0.03717831 -0.001439209
v -0.03209412 0.02431381 -0.05634644
v -0.01027496 0.02431381 -0.06139587
v -0.008144531 0.03716767 -9.82666E-05
v -0.002110596 0.02058023 -0.06468201
v -0.007266235 0.02058023 -0.06468201
v -0.007266235 0 -0.06468201
v -0.002110596 0 -0.06468201
v -0.03320709 0.02058023 -0.05963379
v -0.03320709 0.007631271 -0.05963379
v -0.007266235 0.02058023 -0.06468201
v -0.03320709 0 -0.05963379
v -0.007266235 0 -0.06468201
v -0.002498779 0.03451943 -0.001315308
v -0.006988525 0.03451943 -0.001315308
v -0.007266235 0.02058023 -0.06468201
v -0.002110596 0.02058023 -0.06468201
v -0.002110596 0.02058023 -0.06468201
v 0.0008325195 0.02431488 -0.06139099
v -0.001420288 0.03716815 -9.643554E-05
v -0.002498779 0.03451943 -0.001315308
v 0.04268432 0.0314974 -0.001315308
v 0.03981476 0.03717878 -0.001431885
v 0.02192871 0.02431488 -0.05634216
v 0.02297211 0.02058023 -0.05963379
v 0.02297211 0.02058023 -0.05963379
v 0.02192871 0.02431488 -0.05634216
v 0.0008325195 0.02431488 -0.06139099
v -0.002110596 0.02058023 -0.06468201
v -0.04268463 0.0314974 -0.001315308
v -0.03976257 0.03717831 -0.001439209
v -0.03830353 0.0377882 0.0520758
v -0.04268463 0.03232124 0.05421692
v 0.0257843 0.01291173 0.09274902
v 0.02167969 0.02169933 0.08581115
v 0.03832519 0.0377882 0.05208435
v 0.04268432 0.02887803 0.05421692
v -0.02275238 0.03310559 0.06751525
v -0.01950348 0.02158944 0.08581115
v -0.02360809 0.01287116 0.09274902
v -0.02699524 0.02740853 0.07017944
v 0.001087952 0.02071586 0.09141113
v 0.02167969 0.02169933 0.08581115
v 0.0257843 0.01291173 0.09274902
v 0.001087952 0.01263282 0.09898803
v -0.006988525 0.03451943 -0.001315308
v -0.008144531 0.03716767 -9.82666E-05
v -0.01027496 0.02431381 -0.06139587
v -0.007266235 0.02058023 -0.06468201
v -0.007266235 0.02058023 -0.06468201
v -0.01027496 0.02431381 -0.06139587
v -0.03209412 0.02431381 -0.05634644
v -0.03320709 0.02058023 -0.05963379
v -0.03320709 0.02058023 -0.05963379
v -0.03209412 0.02431381 -0.05634644
v -0.03976257 0.03717831 -0.001439209
v -0.04268463 0.0314974 -0.001315308
v 0.04268432 0.02887803 0.05421692
v 0.03832519 0.0377882 0.05208435
v 0.03981476 0.03717878 -0.001431885
v 0.04268432 0.0314974 -0.001315308
v -0.002498779 0.03451943 -0.001315308
v -0.001420288 0.03716815 -9.643554E-05
v -0.008144531 0.03716767 -9.82666E-05
v -0.006988525 0.03451943 -0.001315308
v -0.0124054 0.03170103 -0.01926636
v -0.01019775 0.03927494 -0.02442078
v -5.249023E-05 0.0392809 -0.02442078
v 0.002155151 0.03171693 -0.01926636
v -0.01019775 0.03927494 -0.02442078
v -0.01019775 0.03425272 -0.03937012
v -5.249023E-05 0.03425272 -0.03937012
v -5.249023E-05 0.0392809 -0.02442078
v -0.01019775 0.03425272 -0.03937012
v -0.0124054 0.02445533 -0.04071838
v 0.002155151 0.02446104 -0.04071838
v -5.249023E-05 0.03425272 -0.03937012
v 0.002155151 0.03171693 -0.01926636
v -5.249023E-05 0.0392809 -0.02442078
v -5.249023E-05 0.03425272 -0.03937012
v 0.002155151 0.02446104 -0.04071838
v -0.0124054 0.02445533 -0.04071838
v -0.01019775 0.03425272 -0.03937012
v -0.01019775 0.03927494 -0.02442078
v -0.0124054 0.03170103 -0.01926636
v -0.04905487 0 -0.04287109
v -0.04725159 0.004276567 -0.04287109
v -0.06716339 0.004930718 0.01340271
v -0.06896667 0 0.01340271
v -0.06326874 0.01124934 0.04405762
v -0.06635589 0 0.04544922
v -0.06896667 0 0.01340271
v -0.06716339 0.004930718 0.01340271
v -0.04268463 0.01008324 -0.001315308
v -0.04725159 0.004276567 -0.04287109
v -0.03320709 0.007631271 -0.05963379
v -0.06716339 0.004930718 0.01340271
v -0.04268463 0.01777994 0.05421692
v -0.06326874 0.01124934 0.04405762
v -0.03320709 0.007631271 -0.05963379
v -0.04725159 0.004276567 -0.04287109
v -0.04905487 0 -0.04287109
v -0.03320709 0 -0.05963379
v -0.04268463 0 0.05421692
v -0.06635589 0 0.04544922
v -0.06326874 0.01124934 0.04405762
v -0.04268463 0.01777994 0.05421692
v -0.04268463 0.03232124 0.05421692
v -0.03830353 0.0377882 0.0520758
v -0.02275238 0.03310559 0.06751525
v -0.02699524 0.02740853 0.07017944
v -0.04268463 0.01777994 0.05421692
v -0.04268463 0.03232124 0.05421692
v -0.02699524 0.02740853 0.07017944
v -0.02699524 0 0.07017944
v -0.04268463 0 0.05421692
v -0.02360809 0.01287116 0.09274902
v -0.01950348 0.02158944 0.08581115
v 0.001087952 0.02071586 0.09141113
v 0.001087952 0.01263282 0.09898803
v 0.001087952 0 0.09898803
v -0.02360809 0 0.09274902
v -0.02360809 0.01287116 0.09274902
v 0.001087952 0.01263282 0.09898803
vt 0.08008904 0.3019608
vt 0.08008904 0.3019608
vt 0.08008904 0.3019608
vt 0.08008904 0.3019608
vt 0.08008904 0.3019608
vt 0.08008904 0.3019608
vt 0.08008904 0.3019608
vt 0.08008904 0.3019608
vt 0.08008904 0.3019608
vt 0.08008904 0.3019608
vt 0.08008904 0.3019608
vt 0.08008904 0.3019608
vt 0.08134653 0.2535251
vt 0.08134653 0.2535251
vt 0.08134653 0.2535252
vt 0.08134653 0.2535252
vt 0.08008904 0.3019608
vt 0.08008904 0.3019608
vt 0.08008904 0.3019608
vt 0.08008904 0.3019608
vt 0.08134647 0.2535252
vt 0.08134653 0.2535251
vt 0.08134653 0.2535251
vt 0.08134653 0.2535252
vt 0.08134641 0.2535252
vt 0.08134647 0.2535252
vt 0.08134647 0.2535251
vt 0.08134641 0.2535251
vt 0.08134652 0.2535251
vt 0.08134652 0.2535252
vt 0.08134649 0.2535252
vt 0.08134652 0.2535251
vt 0.08134649 0.2535252
vt 0.0813465 0.2535252
vt 0.08134652 0.2535251
vt 0.08134649 0.2535252
vt 0.08008904 0.3019608
vt 0.08008904 0.3019608
vt 0.08008904 0.3019608
vt 0.08008904 0.3019608
vt 0.08008904 0.3019608
vt 0.08008904 0.3019608
vt 0.08134647 0.2535252
vt 0.08134641 0.2535252
vt 0.08134641 0.2535251
vt 0.08134647 0.2535251
vt 0.08134653 0.2535251
vt 0.08134652 0.2535251
vt 0.0813465 0.2535252
vt 0.08134653 0.2535252
vt 0.08134653 0.2535251
vt 0.08134653 0.2535252
vt 0.08134647 0.2535252
vt 0.08134647 0.2535251
vt 0.08134653 0.2535251
vt 0.08134653 0.2535251
vt 0.08134653 0.2535251
vt 0.08134653 0.2535251
vt 0.08134653 0.2535251
vt 0.08134653 0.2535251
vt 0.08134653 0.2535251
vt 0.08134653 0.2535251
vt 0.08134652 0.2535251
vt 0.08134652 0.2535251
vt 0.08134653 0.2535251
vt 0.08134653 0.2535251
vt 0.08134653 0.2535251
vt 0.08134653 0.2535251
vt 0.08134652 0.2535251
vt 0.08008904 0.3019608
vt 0.08008904 0.3019608
vt 0.08008904 0.3019608
vt 0.08008904 0.3019608
vt 0.08134647 0.2535252
vt 0.0813465 0.2535252
vt 0.08134653 0.2535251
vt 0.08134653 0.2535251
vt 0.08134653 0.2535252
vt 0.08134653 0.2535251
vt 0.0813465 0.2535252
vt 0.08134653 0.2535251
vt 0.08134653 0.2535251
vt 0.08134653 0.2535251
vt 0.08134647 0.2535251
vt 0.0813465 0.2535252
vt 0.08134647 0.2535252
vt 0.08008904 0.3019608
vt 0.08008904 0.3019608
vt 0.08008904 0.3019608
vt 0.08008904 0.3019608
vt 0.08008904 0.3019608
vt 0.08008904 0.3019608
vt 0.08008904 0.3019608
vt 0.08008904 0.3019608
vt 0.08008904 0.3019608
vt 0.08008904 0.3019608
vt 0.08008904 0.3019608
vt 0.08008904 0.3019608
vt 0.08008904 0.3019608
vt 0.08008904 0.3019608
vt 0.08008904 0.3019608
vt 0.08008904 0.3019608
vt 0.08008904 0.3019608
vt 0.08008904 0.3019608
vt 0.08008904 0.3019608
vt 0.08008904 0.3019608
vt 0.08008904 0.3019608
vt 0.08008904 0.3019608
vt 0.08008904 0.3019608
vt 0.08008904 0.3019608
vt 0.08008904 0.3019608
vt 0.08008904 0.3019608
vt 0.08008904 0.3019608
vt 0.08008904 0.3019608
vt 0.08008904 0.3019608
vt 0.08008904 0.3019608
vt 0.08008904 0.3019608
vt 0.08008904 0.3019608
vt 0.08008904 0.3019608
vt 0.08008904 0.3019608
vt 0.08008904 0.3019608
vt 0.08008904 0.3019608
vt 0.08008904 0.3019608
vt 0.08008904 0.3019608
vt 0.08008904 0.3019608
vt 0.08008904 0.3019608
vt 0.08008904 0.3019608
vt 0.08008904 0.3019608
vt 0.08008904 0.3019608
vt 0.08008904 0.3019608
vt 0.08008904 0.3019608
vt 0.08008904 0.3019608
vt 0.08008904 0.3019608
vt 0.08008904 0.3019608
vt 0.08099304 0.2512263
vt 0.08099304 0.2512264
vt 0.08099301 0.2512264
vt 0.08099301 0.2512263
vt 0.08099304 0.2512264
vt 0.08099304 0.2512263
vt 0.08099301 0.2512263
vt 0.08099301 0.2512264
vt 0.08099304 0.2512263
vt 0.08099304 0.2512263
vt 0.08099301 0.2512263
vt 0.08099301 0.2512263
vt 0.08099301 0.2512263
vt 0.08099301 0.2512264
vt 0.08099295 0.2512264
vt 0.08099295 0.2512263
vt 0.08099301 0.2512263
vt 0.08099301 0.2512264
vt 0.08099304 0.2512264
vt 0.08099304 0.2512263
vt 0.08134652 0.2535251
vt 0.08134652 0.2535251
vt 0.08134652 0.2535251
vt 0.08134652 0.2535251
vt 0.0813465 0.2535252
vt 0.08134652 0.2535251
vt 0.08134652 0.2535251
vt 0.08134652 0.2535251
vt 0.08134652 0.2535251
vt 0.08134652 0.2535251
vt 0.08134652 0.2535251
vt 0.08134652 0.2535251
vt 0.0813465 0.2535252
vt 0.0813465 0.2535252
vt 0.08134652 0.2535251
vt 0.08134652 0.2535251
vt 0.08134652 0.2535251
vt 0.08134652 0.2535251
vt 0.08134652 0.2535251
vt 0.08134652 0.2535251
vt 0.0813465 0.2535252
vt 0.0813465 0.2535252
vt 0.08008904 0.3019608
vt 0.08008904 0.3019608
vt 0.08008904 0.3019608
vt 0.08008904 0.3019608
vt 0.0813465 0.2535252
vt 0.08134649 0.2535252
vt 0.0813465 0.2535252
vt 0.08134652 0.2535251
vt 0.08134652 0.2535251
vt 0.08008904 0.3019608
vt 0.08008904 0.3019608
vt 0.08008904 0.3019608
vt 0.08008904 0.3019608
vt 0.08134653 0.2535251
vt 0.08134653 0.2535251
vt 0.08134653 0.2535252
vt 0.08134653 0.2535252
vn -3.236457E-05 0.9569466 0.2902641
vn -3.236457E-05 0.9569466 0.2902641
vn -3.236457E-05 0.9569466 0.2902641
vn 0.04473487 0.8929017 0.4480239
vn 0.04473487 0.8929017 0.4480239
vn 0.04473486 0.8929017 0.4480239
vn -0.002257719 0.8461228 0.5329832
vn -0.002257719 0.8461228 0.5329832
vn -0.002257719 0.8461228 0.5329832
vn -0.00263236 0.9865273 0.163576
vn -0.00263236 0.9865273 0.163576
vn -0.00263236 0.9865273 0.163576
vn 0.2449338 0 0.9695397
vn 0.2449338 0 0.9695397
vn 0.2449338 0 0.9695398
vn 0.2449338 0 0.9695397
vn 0.01280314 0.9759308 -0.2177046
vn 0.01280314 0.9759308 -0.2177047
vn 0.01280314 0.9759308 -0.2177047
vn 0.01280314 0.9759308 -0.2177046
vn 0.1973065 0 -0.9803419
vn 0.1973065 0 -0.9803419
vn 0.1973065 0 -0.9803419
vn 0.1973065 0 -0.9803419
vn 0.9391926 0.0430113 -0.3406864
vn 0.9391926 0.0430113 -0.3406864
vn 0.9391926 0.0430113 -0.3406864
vn 0.9391926 0.0430113 -0.3406864
vn -0.9870507 0 -0.160409
vn -0.9870507 0 -0.160409
vn -0.9870507 0 -0.160409
vn -0.9870507 0 -0.160409
vn -1 0 0
vn -1 0 0
vn -1 0 0
vn -1 0 0
vn 0.0001359283 0.9999303 -0.0118074
vn 0.0008207753 0.9999346 -0.01141837
vn 0.0001344359 0.9999303 -0.01180825
vn -0.0001154586 0.9999304 -0.01180086
vn -0.0001738852 0.9999309 -0.0117556
vn -0.0006273732 0.9999348 -0.01140428
vn 0.996892 0.0787584 0.001857455
vn 0.996892 0.0787584 0.001857455
vn 0.996892 0.0787584 0.001857455
vn 0.996892 0.0787584 0.001857455
vn -0.9889254 0 0.1484137
vn -0.9889254 0 0.1484137
vn -0.9889254 0 0.1484137
vn -0.9889254 0 0.1484137
vn 0.8998529 0.05135478 0.4331599
vn 0.8998529 0.05135478 0.4331599
vn 0.8998529 0.05135478 0.4331598
vn 0.8998529 0.05135478 0.4331598
vn 0 -1 0
vn 0 -1 0
vn 0 -1 0
vn 0 -1 0
vn 0 -1 0
vn 0 -1 0
vn 0 -1 0
vn 0 -1 0
vn 0 -1 0
vn 0 -1 0
vn 0 -1 0
vn 0 -1 0
vn 0 -1 0
vn 0 -1 0
vn 0 -1 0
vn -0.01484726 0.9761163 -0.2167408
vn -0.01484726 0.9761163 -0.2167408
vn -0.01484726 0.9761163 -0.2167409
vn -0.01484726 0.9761163 -0.2167408
vn 0 0 -1
vn 0 0 -1
vn 0 0 -1
vn 0 0 -1
vn -0.1910215 0 -0.9815859
vn -0.1910214 0 -0.9815859
vn -0.1910214 0 -0.9815859
vn -0.1910215 0 -0.9815859
vn -0.1910215 0 -0.9815859
vn 0 0.9766492 -0.2148401
vn 0 0.9766492 -0.2148401
vn 0 0.9766492 -0.2148401
vn 0 0.9766492 -0.2148401
vn -0.7875306 0.5988786 -0.1453964
vn -0.7875306 0.5988786 -0.1453964
vn -0.7875306 0.5988786 -0.1453964
vn -0.7875306 0.5988786 -0.1453964
vn 0.809512 0.4595917 -0.3653297
vn 0.809512 0.4595917 -0.3653297
vn 0.809512 0.4595917 -0.3653297
vn 0.809512 0.4595917 -0.3653297
vn 0.1662582 0.6278346 -0.7603828
vn 0.1662582 0.6278346 -0.7603828
vn 0.1662582 0.6278346 -0.7603828
vn 0.1662582 0.6278345 -0.7603828
vn -0.8361055 0.5485544 0.003974752
vn -0.8361055 0.5485543 0.003974752
vn -0.8361055 0.5485543 0.003974752
vn -0.8361055 0.5485543 0.003974752
vn 0.6171482 0.5720433 0.5402727
vn 0.6171482 0.5720434 0.5402727
vn 0.6171482 0.5720434 0.5402727
vn 0.6171482 0.5720434 0.5402727
vn -0.5521167 0.659504 0.5101193
vn -0.5521167 0.6595039 0.5101192
vn -0.5521167 0.6595039 0.5101193
vn -0.5521167 0.659504 0.5101193
vn 0.1711883 0.6661712 0.725886
vn 0.1711882 0.6661712 0.725886
vn 0.1711882 0.6661712 0.725886
vn 0.1711882 0.6661712 0.725886
vn 0.7780011 0.6109815 -0.1463418
vn 0.7780011 0.6109815 -0.1463418
vn 0.7780011 0.6109815 -0.1463418
vn 0.7780011 0.6109815 -0.1463418
vn -0.1608345 0.6288422 -0.7607167
vn -0.1608345 0.6288421 -0.7607166
vn -0.1608345 0.6288421 -0.7607166
vn -0.1608345 0.6288422 -0.7607167
vn -0.8659273 0.4467256 -0.2249583
vn -0.8659273 0.4467256 -0.2249583
vn -0.8659273 0.4467256 -0.2249583
vn -0.8659273 0.4467256 -0.2249583
vn 0.8946242 0.446351 0.02044725
vn 0.8946242 0.446351 0.02044725
vn 0.8946242 0.446351 0.02044725
vn 0.8946242 0.446351 0.02044725
vn 0.0001305787 0.41781 -0.9085344
vn 0.0001305788 0.41781 -0.9085344
vn 0.0001305787 0.41781 -0.9085344
vn 0.0001305788 0.41781 -0.9085344
vn -0.0004978502 0.5628729 0.8265433
vn -0.0004978502 0.5628729 0.8265433
vn -0.0004978502 0.5628729 0.8265433
vn -0.0004978501 0.5628729 0.8265434
vn -0.0002782265 0.9478797 -0.3186284
vn -0.0002782265 0.9478797 -0.3186284
vn -0.0002782265 0.9478797 -0.3186284
vn -0.0002782265 0.9478797 -0.3186284
vn -3.152866E-05 0.136369 -0.990658
vn -3.152867E-05 0.1363691 -0.990658
vn -3.152866E-05 0.136369 -0.990658
vn -3.152867E-05 0.1363691 -0.990658
vn 0.9701437 0.2297984 -0.07754812
vn 0.9701437 0.2297984 -0.07754812
vn 0.9701437 0.2297984 -0.07754812
vn 0.9701437 0.2297984 -0.07754812
vn -0.9701942 0.2296383 -0.07739227
vn -0.9701942 0.2296383 -0.07739227
vn -0.9701942 0.2296383 -0.07739228
vn -0.9701942 0.2296383 -0.07739228
vn -0.8837962 0.3461902 -0.3147327
vn -0.8837962 0.3461902 -0.3147327
vn -0.8837962 0.3461902 -0.3147327
vn -0.8837962 0.3461902 -0.3147327
vn -0.9532664 0.2940836 0.06926811
vn -0.9532664 0.2940836 0.06926812
vn -0.9532664 0.2940836 0.06926811
vn -0.9532664 0.2940836 0.06926811
vn -0.281885 0.9524622 -0.115571
vn -0.2923461 0.9509901 -0.100755
vn -0.2923462 0.95099 -0.100755
vn -0.2695612 0.9537811 -0.1328093
vn -0.2619372 0.9543777 -0.1433596
vn -0.2619373 0.9543777 -0.1433596
vn -0.7471961 0.1131529 -0.6549004
vn -0.747196 0.1131529 -0.6549005
vn -0.7471959 0.1131529 -0.6549005
vn -0.7471959 0.1131529 -0.6549005
vn -0.4025134 0.08649252 0.9113188
vn -0.4025134 0.08649252 0.9113188
vn -0.4025134 0.08649252 0.9113188
vn -0.4025135 0.08649252 0.9113188
vn -0.4508281 0.6232818 0.6389631
vn -0.4508281 0.6232818 0.6389631
vn -0.450828 0.6232818 0.638963
vn -0.4508281 0.6232818 0.6389631
vn -0.713182 0 0.7009789
vn -0.713182 0 0.7009789
vn -0.713182 0 0.7009789
vn -0.713182 0 0.7009789
vn -0.713182 0 0.7009789
vn -0.172883 0.6677396 0.7240409
vn -0.172883 0.6677396 0.7240409
vn -0.172883 0.6677396 0.7240409
vn -0.172883 0.6677396 0.7240409
vn -0.2449367 0 0.969539
vn -0.2449367 0 0.969539
vn -0.2449367 0 0.969539
vn -0.2449367 0 0.969539
g SM_Prop_Computer_Mouse_01_0
f 3/3/3 2/2/2 1/1/1
f 6/6/6 5/5/5 4/4/4
f 9/9/9 8/8/8 7/7/7
f 12/12/12 11/11/11 10/10/10
f 15/15/15 14/14/14 13/13/13
f 16/16/16 15/15/15 13/13/13
f 19/19/19 18/18/18 17/17/17
f 20/20/20 19/19/19 17/17/17
f 23/23/23 22/22/22 21/21/21
f 24/24/24 23/23/23 21/21/21
f 27/27/27 26/26/26 25/25/25
f 28/28/28 27/27/27 25/25/25
f 31/31/31 30/30/30 29/29/29
f 32/32/32 31/31/31 29/29/29
f 35/35/35 34/34/34 33/33/33
f 36/36/36 35/35/35 33/33/33
f 39/39/39 38/38/38 37/37/37
f 40/40/40 39/39/39 37/37/37
f 41/41/41 40/40/40 37/37/37
f 41/41/41 42/42/42 40/40/40
f 45/45/45 44/44/44 43/43/43
f 46/46/46 45/45/45 43/43/43
f 49/49/49 48/48/48 47/47/47
f 50/50/50 49/49/49 47/47/47
f 53/53/53 52/52/52 51/51/51
f 54/54/54 53/53/53 51/51/51
f 57/57/57 56/56/56 55/55/55
f 57/57/57 55/55/55 58/58/58
f 58/58/58 59/59/59 57/57/57
f 58/58/58 60/60/60 59/59/59
f 59/59/59 60/60/60 61/61/61
f 60/60/60 62/62/62 61/61/61
f 60/60/60 63/63/63 62/62/62
f 63/63/63 64/64/64 62/62/62
f 65/65/65 61/61/61 62/62/62
f 65/65/65 66/66/66 61/61/61
f 67/67/67 65/65/65 62/62/62
f 67/67/67 62/62/62 68/68/68
f 62/62/62 64/64/64 68/68/68
f 64/64/64 69/69/69 68/68/68
f 72/72/72 71/71/71 70/70/70
f 73/73/73 72/72/72 70/70/70
f 76/76/76 75/75/75 74/74/74
f 77/77/77 76/76/76 74/74/74
f 80/80/80 79/79/79 78/78/78
f 81/81/81 79/79/79 80/80/80
f 82/82/82 81/81/81 80/80/80
f 85/85/85 84/84/84 83/83/83
f 86/86/86 85/85/85 83/83/83
f 89/89/89 88/88/88 87/87/87
f 90/90/90 89/89/89 87/87/87
f 93/93/93 92/92/92 91/91/91
f 94/94/94 93/93/93 91/91/91
f 97/97/97 96/96/96 95/95/95
f 98/98/98 97/97/97 95/95/95
f 101/101/101 100/100/100 99/99/99
f 102/102/102 101/101/101 99/99/99
f 105/105/105 104/104/104 103/103/103
f 106/106/106 105/105/105 103/103/103
f 109/109/109 108/108/108 107/107/107
f 110/110/110 109/109/109 107/107/107
f 113/113/113 112/112/112 111/111/111
f 114/114/114 113/113/113 111/111/111
f 117/117/117 116/116/116 115/115/115
f 118/118/118 117/117/117 115/115/115
f 121/121/121 120/120/120 119/119/119
f 122/122/122 121/121/121 119/119/119
f 125/125/125 124/124/124 123/123/123
f 126/126/126 125/125/125 123/123/123
f 129/129/129 128/128/128 127/127/127
f 130/130/130 129/129/129 127/127/127
f 133/133/133 132/132/132 131/131/131
f 134/134/134 133/133/133 131/131/131
f 137/137/137 136/136/136 135/135/135
f 138/138/138 137/137/137 135/135/135
f 141/141/141 140/140/140 139/139/139
f 142/142/142 141/141/141 139/139/139
f 145/145/145 144/144/144 143/143/143
f 146/146/146 145/145/145 143/143/143
f 149/149/149 148/148/148 147/147/147
f 150/150/150 149/149/149 147/147/147
f 153/153/153 152/152/152 151/151/151
f 154/154/154 153/153/153 151/151/151
f 157/157/157 156/156/156 155/155/155
f 158/158/158 157/157/157 155/155/155
f 161/161/161 160/160/160 159/159/159
f 162/162/162 161/161/161 159/159/159
f 165/165/165 164/164/164 163/163/163
f 164/164/164 166/166/166 163/163/163
f 163/163/163 166/166/166 167/167/167
f 166/166/166 168/168/168 167/167/167
f 171/171/171 170/170/170 169/169/169
f 172/172/172 171/171/171 169/169/169
f 175/175/175 174/174/174 173/173/173
f 176/176/176 175/175/175 173/173/173
f 179/179/179 178/178/178 177/177/177
f 180/180/180 179/179/179 177/177/177
f 183/183/183 182/182/182 181/181/181
f 183/183/183 181/181/181 184/184/184
f 181/181/181 185/185/185 184/184/184
f 188/188/188 187/187/187 186/186/186
f 189/189/189 188/188/188 186/186/186
f 192/192/192 191/191/191 190/190/190
f 193/193/193 192/192/192 190/190/190
