g SM_Prop_Barrel_Oil_01_Handle
v 0.1533731 -0.0338691 -0.09048101
v 0.145415 -0.02008553 -0.09048101
v 0.1533729 -0.006301655 -0.09048098
v 0.1692892 -0.006301655 -0.09048101
v 0.1772473 -0.02008553 -0.09048096
v 0.1692891 -0.0338691 -0.09048095
v 0.150739 -0.03843148 -0.1861675
v 0.1401469 -0.02008553 -0.1861675
v 0.150739 -0.001739277 -0.1861675
v 0.1719232 -0.001739277 -0.1861675
v 0.1825152 -0.02008553 -0.1861675
v 0.171923 -0.03843148 -0.1861675
v 0.1692892 -0.0338691 -0.06582233
v 0.1533731 -0.0338691 -0.06582236
v 0.1772473 -0.02008553 -0.06582233
v 0.145415 -0.02008553 -0.06582236
v 0.1692892 -0.006301655 -0.06582236
v 0.1533731 -0.006301655 -0.06582233
v -0.02707521 0.01249687 -0.06834139
v -0.02707506 -0.01249695 -0.06834139
v 0.07224638 0.009707562 -0.06834139
v 0.07224638 -0.009707721 -0.06834139
v 0.07224638 0.009707562 -0.08576792
v 0.07224638 -0.009707721 -0.08576792
v -0.02707521 0.01249687 -0.08576792
v -0.02707506 -0.01249695 -0.08576792
v 0.002459394 0.03001197 -0.06834139
v 0.002459394 -0.03001198 -0.06834139
v 0.002459394 -0.03001198 -0.08576792
v 0.002459394 0.03001197 -0.08576792
v 0.03394453 -0.01775513 -0.06834139
v 0.03394453 -0.01775513 -0.08576792
v 0.03394453 0.01775497 -0.08576792
v 0.03394453 0.01775497 -0.06834139
v 0.1252504 -0.02988015 -0.06834139
v 0.1252504 -0.01046486 -0.06834139
v 0.1252504 -0.02988015 -0.08576792
v 0.1252504 -0.01046486 -0.08576792
v 0.1678195 -0.02988015 -0.06834139
v 0.1678195 -0.01046486 -0.06834139
v 0.1678195 -0.02988015 -0.08576792
v 0.1678195 -0.01046486 -0.08576792
v 0.145415 -0.02008553 -0.09048101
v 0.1401469 -0.02008553 -0.1861675
v 0.1772473 -0.02008553 -0.09048096
v 0.1825152 -0.02008553 -0.1861675
v 0.1825152 -0.02008553 -0.1861675
v 0.1719232 -0.001739277 -0.1861675
v 0.150739 -0.001739277 -0.1861675
v 0.1401469 -0.02008553 -0.1861675
v 0.150739 -0.03843148 -0.1861675
v 0.171923 -0.03843148 -0.1861675
v 0.1533731 -0.0338691 -0.09048101
v 0.1533731 -0.0338691 -0.06582236
v 0.1692892 -0.0338691 -0.06582233
v 0.1692891 -0.0338691 -0.09048095
v 0.1772473 -0.02008553 -0.06582233
v 0.1772473 -0.02008553 -0.09048096
v 0.145415 -0.02008553 -0.09048101
v 0.145415 -0.02008553 -0.06582236
v 0.1772473 -0.02008553 -0.09048096
v 0.1772473 -0.02008553 -0.06582233
v 0.1692892 -0.006301655 -0.06582236
v 0.1692892 -0.006301655 -0.09048101
v 0.1533731 -0.006301655 -0.06582233
v 0.1533729 -0.006301655 -0.09048098
v 0.145415 -0.02008553 -0.06582236
v 0.145415 -0.02008553 -0.09048101
v 0.03394453 -0.01775513 -0.06834139
v 0.07224638 -0.009707721 -0.06834139
v 0.07224638 -0.009707721 -0.08576792
v 0.03394453 -0.01775513 -0.08576792
v 0.03394453 0.01775497 -0.08576792
v 0.07224638 0.009707562 -0.08576792
v 0.07224638 0.009707562 -0.06834139
v 0.03394453 0.01775497 -0.06834139
v -0.02707521 0.01249687 -0.06834139
v -0.02707506 -0.01249695 -0.06834139
v 0.002459394 -0.03001198 -0.06834139
v -0.02707521 0.01249687 -0.08576792
v -0.02707506 -0.01249695 -0.08576792
v 0.002459394 -0.03001198 -0.08576792
v -0.02707521 0.01249687 -0.08576792
v 0.002459394 0.03001197 -0.08576792
v 0.002459394 0.03001197 -0.06834139
v -0.02707521 0.01249687 -0.06834139
v 0.1252504 -0.02988015 -0.06834139
v 0.1252504 -0.02988015 -0.08576792
v 0.1252504 -0.01046486 -0.08576792
v 0.1252504 -0.01046486 -0.06834139
v 0.1678195 -0.01046486 -0.06834139
v 0.1678195 -0.02988015 -0.06834139
v 0.1678195 -0.02988015 -0.06834139
v 0.1678195 -0.02988015 -0.08576792
v 0.1678195 -0.02988015 -0.08576792
v 0.1678195 -0.01046486 -0.08576792
v 0.1678195 -0.01046486 -0.08576792
v 0.1678195 -0.01046486 -0.06834139
vt 0.136687 0.3984391
vt 0.1366907 0.3985502
vt 0.1366929 0.3985056
vt 0.1366914 0.3983453
vt 0.1366877 0.3982342
vt 0.1366855 0.3982834
vt 0.1376327 0.398442
vt 0.1376538 0.3985889
vt 0.1376806 0.3985306
vt 0.1376855 0.3983173
vt 0.1376632 0.3981705
vt 0.1376371 0.3982369
vt 0.1317332 0.3248173
vt 0.1317354 0.3252969
vt 0.1316586 0.324584
vt 0.1316636 0.3255755
vt 0.1315814 0.32485
vt 0.1315842 0.325363
vt 0.1331732 0.3291259
vt 0.1332061 0.3290714
vt 0.133173 0.3281376
vt 0.1331991 0.3281305
vt 0.1333186 0.3281384
vt 0.1333395 0.3281312
vt 0.133317 0.3291305
vt 0.1333433 0.3290755
vt 0.133147 0.3289168
vt 0.1332267 0.3288119
vt 0.1333602 0.3288151
vt 0.1332965 0.3289208
vt 0.133217 0.3285713
vt 0.1333529 0.3285736
vt 0.1333043 0.3286445
vt 0.1331562 0.3286417
vt 0.1331991 0.3281305
vt 0.133173 0.3281376
vt 0.1333395 0.3281312
vt 0.1333186 0.3281384
vt 0.1331991 0.3281305
vt 0.133173 0.3281376
vt 0.1333395 0.3281312
vt 0.1333186 0.3281384
vt 0.1366907 0.3985502
vt 0.1376538 0.3985889
vt 0.1366877 0.3982342
vt 0.1376632 0.3981705
vt 0.1376632 0.3981705
vt 0.1376855 0.3983173
vt 0.1376806 0.3985306
vt 0.1376538 0.3985889
vt 0.1376327 0.398442
vt 0.1376371 0.3982369
vt 0.1324736 0.3253033
vt 0.1317354 0.3252969
vt 0.1317332 0.3248173
vt 0.1324736 0.3248205
vt 0.1316586 0.324584
vt 0.132425 0.3245857
vt 0.1324251 0.3255841
vt 0.1316636 0.3255755
vt 0.132425 0.3245857
vt 0.1316586 0.324584
vt 0.1315814 0.32485
vt 0.132373 0.3248535
vt 0.1315842 0.325363
vt 0.1323732 0.3253703
vt 0.1316636 0.3255755
vt 0.1324251 0.3255841
vt 0.133217 0.3285713
vt 0.1331991 0.3281305
vt 0.1333395 0.3281312
vt 0.1333529 0.3285736
vt 0.1333043 0.3286445
vt 0.1333186 0.3281384
vt 0.133173 0.3281376
vt 0.1331562 0.3286417
vt 0.1331732 0.3291259
vt 0.1332061 0.3290714
vt 0.1332267 0.3288119
vt 0.133317 0.3291305
vt 0.1333433 0.3290755
vt 0.1333602 0.3288151
vt 0.133317 0.3291305
vt 0.1332965 0.3289208
vt 0.133147 0.3289168
vt 0.1331732 0.3291259
vt 0.1331991 0.3281305
vt 0.1333395 0.3281312
vt 0.1333186 0.3281384
vt 0.133173 0.3281376
vt 0.133173 0.3281376
vt 0.1331991 0.3281305
vt 0.1331991 0.3281305
vt 0.1333395 0.3281312
vt 0.1333395 0.3281312
vt 0.1333186 0.3281384
vt 0.1333186 0.3281384
vt 0.133173 0.3281376
vn -0.4994869 -0.8651423 0.04518193
vn -0.9989789 0 0.04518177
vn -0.4994934 0.8651387 0.04518203
vn 0.499492 0.8651395 0.04518141
vn 0.9989789 0 0.04518035
vn 0.4994855 -0.8651432 0.04518089
vn -0.4992425 -0.8647166 0.05497323
vn -0.9984878 0 0.05497268
vn -0.4992469 0.864714 0.05497305
vn 0.4992462 0.8647144 0.05497258
vn 0.9984879 0 0.05497165
vn 0.4992399 -0.8647182 0.05497233
vn 0 0 1
vn 0 0 1
vn 0 0 1
vn 0 0 1
vn 0 0 1
vn 0 0 1
vn -0.8212399 0.570583 0
vn -0.8212381 -0.5705857 0
vn 0 0 1
vn 0 0 1
vn 0 0 -1
vn 0 0 -1
vn -0.8212399 0.570583 0
vn -0.8212381 -0.5705857 0
vn 0 0 1
vn 0 0 1
vn -0.08585382 -0.9963077 0
vn 0 0 -1
vn 0 0 1
vn 0 0 -1
vn 0 0 -1
vn 0 0 1
vn 0 0 1
vn 0 0 1
vn -0.2065179 -0.9784428 0
vn 0 0 -1
vn 1 0 0
vn 1 0 0
vn 1 0 0
vn 1 0 0
vn -0.9989789 0 0.04518177
vn -0.9984878 0 0.05497268
vn 0.9989789 0 0.04518035
vn 0.9984879 0 0.05497165
vn 0 0 -1
vn 0 0 -1
vn 0 0 -1
vn 0 0 -1
vn 0 0 -1
vn 0 0 -1
vn -0.4994869 -0.8651423 0.04518193
vn -0.4999955 -0.8660281 0
vn 0.4999958 -0.8660278 0
vn 0.4994855 -0.8651432 0.04518089
vn 1 0 0
vn 0.9989789 0 0.04518035
vn -0.9989789 0 0.04518177
vn -1 0 0
vn 0.9989789 0 0.04518035
vn 1 0 0
vn 0.5000014 0.8660246 0
vn 0.499492 0.8651395 0.04518141
vn -0.5000011 0.8660248 0
vn -0.4994934 0.8651387 0.04518203
vn -1 0 0
vn -0.9989789 0 0.04518177
vn 0.2793624 -0.9601858 0
vn -0.13164 -0.9912976 0
vn -0.13164 -0.9912976 0
vn 0.2793624 -0.9601858 0
vn 0.2793643 0.9601852 0
vn 0.2952875 0.9554085 0
vn 0.2952875 0.9554085 0
vn 0.2793643 0.9601852 0
vn 0 0 1
vn 0 0 1
vn -0.08585382 -0.9963077 0
vn 0 0 -1
vn 0 0 -1
vn 0 0 -1
vn -0.8212399 0.570583 0
vn -0.08585235 0.996308 0
vn -0.08585235 0.996308 0
vn -0.8212399 0.570583 0
vn -0.2065179 -0.9784428 0
vn 0 0 -1
vn 0.2065179 0.9784428 0
vn 0.2065179 0.9784428 0
vn 0 0 1
vn 0 0 1
vn 0 -1 0
vn 0 -1 0
vn 0 0 -1
vn 0 0 -1
vn 0 1 0
vn 0 1 0
g SM_Prop_Barrel_Oil_01_Handle_0
f 2/2/2 8/8/8 1/1/1
f 8/8/8 7/7/7 1/1/1
f 1/1/1 7/7/7 6/6/6
f 7/7/7 12/12/12 6/6/6
f 6/6/6 12/12/12 45/45/45
f 12/12/12 46/46/46 45/45/45
f 9/9/9 44/44/44 43/43/43
f 3/3/3 9/9/9 43/43/43
f 10/10/10 9/9/9 3/3/3
f 4/4/4 10/10/10 3/3/3
f 11/11/11 10/10/10 4/4/4
f 5/5/5 11/11/11 4/4/4
f 13/13/13 15/15/15 14/14/14
f 15/15/15 16/16/16 14/14/14
f 15/15/15 17/17/17 16/16/16
f 17/17/17 18/18/18 16/16/16
f 49/49/49 48/48/48 47/47/47
f 50/50/50 49/49/49 47/47/47
f 50/50/50 47/47/47 51/51/51
f 47/47/47 52/52/52 51/51/51
f 58/58/58 57/57/57 56/56/56
f 57/57/57 55/55/55 56/56/56
f 56/56/56 55/55/55 53/53/53
f 55/55/55 54/54/54 53/53/53
f 53/53/53 54/54/54 59/59/59
f 54/54/54 60/60/60 59/59/59
f 63/63/63 62/62/62 61/61/61
f 64/64/64 63/63/63 61/61/61
f 65/65/65 63/63/63 64/64/64
f 66/66/66 65/65/65 64/64/64
f 67/67/67 65/65/65 66/66/66
f 68/68/68 67/67/67 66/66/66
f 41/41/41 42/42/42 40/40/40
f 39/39/39 41/41/41 40/40/40
f 20/20/20 19/19/19 25/25/25
f 26/26/26 20/20/20 25/25/25
f 26/26/26 29/29/29 20/20/20
f 29/29/29 79/79/79 20/20/20
f 29/29/29 72/72/72 79/79/79
f 72/72/72 69/69/69 79/79/79
f 72/72/72 71/71/71 69/69/69
f 71/71/71 70/70/70 69/69/69
f 71/71/71 37/37/37 70/70/70
f 37/37/37 87/87/87 70/70/70
f 37/37/37 94/94/94 87/87/87
f 94/94/94 93/93/93 87/87/87
f 78/78/78 28/28/28 77/77/77
f 28/28/28 27/27/27 77/77/77
f 28/28/28 31/31/31 27/27/27
f 31/31/31 34/34/34 27/27/27
f 31/31/31 22/22/22 34/34/34
f 22/22/22 21/21/21 34/34/34
f 22/22/22 35/35/35 21/21/21
f 35/35/35 36/36/36 21/21/21
f 35/35/35 92/92/92 36/36/36
f 92/92/92 91/91/91 36/36/36
f 81/81/81 80/80/80 30/30/30
f 82/82/82 81/81/81 30/30/30
f 82/82/82 30/30/30 33/33/33
f 32/32/32 82/82/82 33/33/33
f 32/32/32 33/33/33 23/23/23
f 24/24/24 32/32/32 23/23/23
f 23/23/23 38/38/38 24/24/24
f 38/38/38 88/88/88 24/24/24
f 38/38/38 96/96/96 88/88/88
f 96/96/96 95/95/95 88/88/88
f 86/86/86 85/85/85 83/83/83
f 85/85/85 84/84/84 83/83/83
f 85/85/85 76/76/76 84/84/84
f 76/76/76 73/73/73 84/84/84
f 76/76/76 75/75/75 73/73/73
f 75/75/75 74/74/74 73/73/73
f 75/75/75 90/90/90 74/74/74
f 90/90/90 89/89/89 74/74/74
f 90/90/90 98/98/98 89/89/89
f 98/98/98 97/97/97 89/89/89
