g SM_Prop_Aircon_01
v -0.8091125 -0.289587 0.4481291
v -0.8091125 -0.09773254 0.4481291
v -0.2696838 -0.09773254 0.4481291
v -0.2696838 -0.289587 0.4481291
v 0.2697144 -0.2789745 0.4481291
v 0.2697144 -0.08711624 0.4481291
v 0.8091125 -0.289587 0.4481291
v 0.8091125 -0.09773254 0.4481291
v -0.9211121 4.396483E-15 0.4481291
v -0.9211121 4.396483E-15 0.2987528
v -0.3070373 4.396483E-15 0.4481291
v 0.3070374 4.396483E-15 0.4481291
v 0.9211121 4.396483E-15 0.2987528
v 0.9211121 4.396483E-15 0.4481291
v -0.9211121 4.396483E-15 -1.764298E-07
v 0.9211121 4.396483E-15 -1.764298E-07
v -0.8615417 -0.3672638 0.2569975
v -0.8615417 -0.2881985 0.3615263
v -0.2872009 -0.2881985 0.3615263
v -0.2872009 -0.3672638 0.2569975
v 0.2871399 -0.3672638 0.2569975
v 0.2871399 -0.2881985 0.3615263
v 0.8614808 -0.3672638 0.2569975
v 0.8614808 -0.2881985 0.3615263
v 0.9211121 -0.3351402 0.4481291
v 0.9211121 4.396483E-15 0.4481291
v 0.9211121 4.396483E-15 0.2987528
v 0.9211121 -0.4481297 0.2987528
v 0.9211121 4.396483E-15 -1.764298E-07
v 0.9211121 -0.4481297 -1.764298E-07
v -0.9211121 -0.4481297 0.2987528
v -0.9211121 4.396483E-15 0.4481291
v -0.9211121 -0.3351402 0.4481291
v -0.9211121 4.396483E-15 0.2987528
v -0.9211121 4.396483E-15 -1.764298E-07
v -0.9211121 -0.4481297 -1.764298E-07
v -0.3070373 -0.4481297 0.2708946
v -0.9211121 -0.4481297 -1.764298E-07
v -0.9211121 -0.4481297 0.2987528
v 0.3070374 -0.4481297 0.2987528
v 0.9211121 -0.4481297 -1.764298E-07
v 0.9211121 -0.4481297 0.2987528
v 0.9211121 -0.4481297 0.2987528
v 0.8614808 -0.3521004 0.4257047
v 0.9211121 -0.3351402 0.4481291
v 0.8614808 -0.4311676 0.3211766
v 0.2871399 -0.4311676 0.3211766
v 0.3070374 -0.4481297 0.2987528
v -0.2872009 -0.4311676 0.2933183
v -0.3070373 -0.4481297 0.2708946
v -0.9211121 -0.4481297 0.2987528
v -0.8615417 -0.4311676 0.3211766
v -0.9211121 -0.3351402 0.4481291
v -0.8615417 -0.3521004 0.4257047
v -0.3070373 -0.3351402 0.4481291
v -0.2872009 -0.3521004 0.4257047
v 0.7102661 -0.31884 0.4481291
v 0.6903992 -0.3358021 0.4257047
v -0.8615417 -0.4311676 0.3211766
v -0.8615417 -0.3672638 0.2569975
v -0.2872009 -0.3672638 0.2569975
v -0.2872009 -0.4311676 0.2933183
v 0.2871399 -0.4311676 0.3211766
v 0.2871399 -0.3672638 0.2569975
v 0.8614808 -0.4311676 0.3211766
v 0.8614808 -0.3672638 0.2569975
v 0.8614808 -0.2881985 0.3615263
v 0.8614808 -0.3521004 0.4257047
v -0.2872009 -0.3521004 0.4257047
v -0.8615417 -0.2881985 0.3615263
v -0.8615417 -0.3521004 0.4257047
v -0.2872009 -0.2881985 0.3615263
v 0.6903992 -0.3358021 0.4257047
v 0.2871399 -0.2881985 0.3615263
v 0.8614808 -0.3521004 0.4257047
v 0.8614808 -0.2881985 0.3615263
v -0.8615417 -0.3521004 0.4257047
v -0.8615417 -0.2881985 0.3615263
v -0.8615417 -0.3672638 0.2569975
v -0.8615417 -0.4311676 0.3211766
v -0.8652039 -0.3636248 0.3575675
v -0.8652039 -0.3421519 0.3624748
v 0.8652344 -0.3421519 0.3624748
v 0.8652344 -0.3636248 0.3575675
v -0.8652039 -0.3421519 0.3624748
v -0.8652039 -0.3241102 0.283513
v 0.8652344 -0.3241102 0.283513
v 0.8652344 -0.3421519 0.3624748
v -0.8652039 -0.3455832 0.2786064
v -0.8652039 -0.3636248 0.3575675
v 0.8652344 -0.3636248 0.3575675
v 0.8652344 -0.3455832 0.2786064
v 0.2871399 -0.3672638 0.2569975
v 0.8614808 -0.3672638 0.2569975
v 0.8614808 -0.4311676 0.3211766
v 0.2871399 -0.4311676 0.3211766
v 0.9211121 -0.3351402 0.4481291
v 0.8614808 -0.3521004 0.4257047
v 0.6903992 -0.3358021 0.4257047
v 0.7102661 -0.31884 0.4481291
v -0.9211121 -0.4481297 -1.764298E-07
v 0.9211121 -0.4481297 -1.764298E-07
v 0.9211121 4.396483E-15 -1.764298E-07
v -0.9211121 4.396483E-15 -1.764298E-07
v 0.9211121 -0.3351402 0.4481291
v 0.8091125 -0.289587 0.4481291
v 0.8091125 -0.09773254 0.4481291
v 0.2697144 -0.2789745 0.4481291
v 0.9211121 4.396483E-15 0.4481291
v 0.7102661 -0.31884 0.4481291
v 0.2697144 -0.08711624 0.4481291
v 0.3070374 4.396483E-15 0.4481291
v -0.2696838 -0.09773254 0.4481291
v -0.3070373 4.396483E-15 0.4481291
v -0.8091125 -0.09773254 0.4481291
v -0.9211121 4.396483E-15 0.4481291
v -0.8091125 -0.289587 0.4481291
v -0.9211121 -0.3351402 0.4481291
v -0.2696838 -0.289587 0.4481291
v -0.3070373 -0.3351402 0.4481291
vt 0.4802246 0.3198242
vt 0.463623 0.3198242
vt 0.463623 0.3210449
vt 0.4802246 0.3210449
vt 0.4799805 0.3222656
vt 0.463623 0.3222656
vt 0.4802246 0.3234863
vt 0.463623 0.3234863
vt 0.4790039 0.3203125
vt 0.4790039 0.3203125
vt 0.4790039 0.3203125
vt 0.4790039 0.3203125
vt 0.4790039 0.3203125
vt 0.4790039 0.3203125
vt 0.4790039 0.3203125
vt 0.4790039 0.3203125
vt 0.1057129 0.01226807
vt 0.1057129 0.01226807
vt 0.1057129 0.01226807
vt 0.1057129 0.01226807
vt 0.1057129 0.01226807
vt 0.1057129 0.01226807
vt 0.1057129 0.01226807
vt 0.1057129 0.01226807
vt 0.4790039 0.3203125
vt 0.4790039 0.3203125
vt 0.4790039 0.3203125
vt 0.4790039 0.3203125
vt 0.4790039 0.3203125
vt 0.4790039 0.3203125
vt 0.4790039 0.3203125
vt 0.4790039 0.3203125
vt 0.4790039 0.3203125
vt 0.4790039 0.3203125
vt 0.4790039 0.3203125
vt 0.4790039 0.3203125
vt 0.4790039 0.3203125
vt 0.4790039 0.3203125
vt 0.4790039 0.3203125
vt 0.4790039 0.3203125
vt 0.4790039 0.3203125
vt 0.4790039 0.3203125
vt 0.4790039 0.3203125
vt 0.4790039 0.3203125
vt 0.4790039 0.3203125
vt 0.4790039 0.3203125
vt 0.4790039 0.3203125
vt 0.4790039 0.3203125
vt 0.4790039 0.3203125
vt 0.4790039 0.3203125
vt 0.4790039 0.3203125
vt 0.4790039 0.3203125
vt 0.4790039 0.3203125
vt 0.4790039 0.3203125
vt 0.4790039 0.3203125
vt 0.4790039 0.3203125
vt 0.4790039 0.3203125
vt 0.4790039 0.3203125
vt 0.4790039 0.3203125
vt 0.4790039 0.3203125
vt 0.4790039 0.3203125
vt 0.4790039 0.3203125
vt 0.4790039 0.3203125
vt 0.4790039 0.3203125
vt 0.4790039 0.3203125
vt 0.4790039 0.3203125
vt 0.4790039 0.3203125
vt 0.4790039 0.3203125
vt 0.4790039 0.3203125
vt 0.4790039 0.3203125
vt 0.4790039 0.3203125
vt 0.4790039 0.3203125
vt 0.4790039 0.3203125
vt 0.4790039 0.3203125
vt 0.4790039 0.3203125
vt 0.4790039 0.3203125
vt 0.4790039 0.3203125
vt 0.4790039 0.3203125
vt 0.4790039 0.3203125
vt 0.4790039 0.3203125
vt 0.4790039 0.3203125
vt 0.4790039 0.3203125
vt 0.4790039 0.3203125
vt 0.4790039 0.3203125
vt 0.4790039 0.3203125
vt 0.4790039 0.3203125
vt 0.4790039 0.3203125
vt 0.4790039 0.3203125
vt 0.4790039 0.3203125
vt 0.4790039 0.3203125
vt 0.4790039 0.3203125
vt 0.4790039 0.3203125
vt 0.4790039 0.3203125
vt 0.4790039 0.3203125
vt 0.4790039 0.3203125
vt 0.4790039 0.3203125
vt 0.4790039 0.3203125
vt 0.4790039 0.3203125
vt 0.4790039 0.3203125
vt 0.4790039 0.3203125
vt 0.4790039 0.3203125
vt 0.4790039 0.3203125
vt 0.4790039 0.3203125
vt 0.4790039 0.3203125
vt 0.4790039 0.3203125
vt 0.4790039 0.3203125
vt 0.4790039 0.3203125
vt 0.4790039 0.3203125
vt 0.4790039 0.3203125
vt 0.4790039 0.3203125
vt 0.4790039 0.3203125
vt 0.4790039 0.3203125
vt 0.4790039 0.3203125
vt 0.4790039 0.3203125
vt 0.4790039 0.3203125
vt 0.4790039 0.3203125
vt 0.4790039 0.3203125
vt 0.4790039 0.3203125
vt 0.4790039 0.3203125
vt 0.4790039 0.3203125
vn 0 0 1
vn 0 0 1
vn 0 0 1
vn 0 0 1
vn 0 0 1
vn 0 0 1
vn 0 0 1
vn 0 0 1
vn 0 1 0
vn 0 1 0
vn 0 1 0
vn 0 1 0
vn 0 1 0
vn 0 1 0
vn 0 1 0
vn 0 1 0
vn 0 -0.7973633 0.6030273
vn 0 -0.7973633 0.6030273
vn 0 -0.7973633 0.6030273
vn 0 -0.7973633 0.6030273
vn 0 -0.7973633 0.6030273
vn 0 -0.7973633 0.6030273
vn 0 -0.7973633 0.6030273
vn 0 -0.7973633 0.6030273
vn 1 0 0
vn 1 0 0
vn 1 0 0
vn 1 0 0
vn 1 0 0
vn 1 0 0
vn -1 0 0
vn -1 0 0
vn -1 0 0
vn -1 0 0
vn -1 0 0
vn -1 0 0
vn 0 -1 0
vn 0 -1 0
vn 0 -1 0
vn 0 -1 0
vn 0 -1 0
vn 0 -1 0
vn 0 -0.7973633 0.6035156
vn -1.585484E-05 -0.7973633 0.6030273
vn -1.585484E-05 -0.7973633 0.6030273
vn 0 -0.7973633 0.6035156
vn -0.01957703 -0.7973633 0.6030273
vn -0.00881958 -0.7973633 0.6030273
vn -0.01062012 -0.8046875 0.5932617
vn 0.01091003 -0.8134766 0.581543
vn 0.01181793 -0.8076172 0.5898438
vn 0.01907349 -0.8134766 0.581543
vn 0 -0.7973633 0.6030273
vn 0 -0.7973633 0.6030273
vn 0.005550385 -0.7973633 0.6030273
vn 0.0103302 -0.7973633 0.6030273
vn 0.01303101 -0.7973633 0.6030273
vn 0.01303101 -0.7973633 0.6030273
vn 0.01905823 0.6181641 0.7861328
vn 0.01905823 0.6181641 0.7861328
vn 0 0.6181641 0.7861328
vn 0 0.6181641 0.7861328
vn -0.01905823 0.6181641 0.7861328
vn -0.01905823 0.6181641 0.7861328
vn -1 0 0
vn -1 0 0
vn -1 0 0
vn -1 0 0
vn 0.004379272 -0.7280273 -0.6855469
vn 0 -0.7084961 -0.7055664
vn 0 -0.7084961 -0.7055664
vn 0.004394531 -0.7280273 -0.6855469
vn -0.0138092 -0.7758789 -0.6308594
vn 0.007068634 -0.7436523 -0.668457
vn -0.01707458 -0.7807617 -0.6245117
vn -0.01707458 -0.7807617 -0.6245117
vn 1 0 0
vn 1 0 0
vn 1 0 0
vn 1 0 0
vn 0 -0.2227783 0.9750977
vn 0 -0.2227783 0.9750977
vn 0 -0.2227783 0.9750977
vn 0 -0.2227783 0.9750977
vn 0 0.9750977 0.2227783
vn 0 0.9750977 0.2227783
vn 0 0.9750977 0.2227783
vn 0 0.9750977 0.2227783
vn 0 -0.9750977 -0.2227783
vn 0 -0.9750977 -0.2227783
vn 0 -0.9750977 -0.2227783
vn 0 -0.9750977 -0.2227783
vn 0 0.7084961 0.7055664
vn 0 0.7084961 0.7055664
vn 0 0.7084961 0.7055664
vn 0 0.7084961 0.7055664
vn -0.06304932 -0.7387695 0.6708984
vn -0.06304932 -0.7387695 0.6708984
vn -0.06304932 -0.7387695 0.6708984
vn -0.06304932 -0.7387695 0.6708984
vn 0 0 -1
vn 0 0 -1
vn 0 0 -1
vn 0 0 -1
vn 0 0 1
vn 0 0 1
vn 0 0 1
vn 0 0 1
vn 0 0 1
vn 0 0 1
vn 0 0 1
vn 0 0 1
vn 0 0 1
vn 0 0 1
vn 0 0 1
vn 0 0 1
vn 0 0 1
vn 0 0 1
vn 0 0 1
vn 0 0 1
g SM_Prop_Aircon_01_0
f 3/3/3 2/2/2 1/1/1
f 4/4/4 3/3/3 1/1/1
f 4/4/4 5/5/5 3/3/3
f 5/5/5 6/6/6 3/3/3
f 5/5/5 7/7/7 6/6/6
f 7/7/7 8/8/8 6/6/6
f 11/11/11 10/10/10 9/9/9
f 11/11/11 12/12/12 10/10/10
f 12/12/12 13/13/13 10/10/10
f 12/12/12 14/14/14 13/13/13
f 10/10/10 13/13/13 15/15/15
f 13/13/13 16/16/16 15/15/15
f 19/19/19 18/18/18 17/17/17
f 20/20/20 19/19/19 17/17/17
f 20/20/20 21/21/21 19/19/19
f 21/21/21 22/22/22 19/19/19
f 21/21/21 23/23/23 22/22/22
f 23/23/23 24/24/24 22/22/22
f 27/27/27 26/26/26 25/25/25
f 28/28/28 27/27/27 25/25/25
f 27/27/27 28/28/28 29/29/29
f 28/28/28 30/30/30 29/29/29
f 33/33/33 32/32/32 31/31/31
f 32/32/32 34/34/34 31/31/31
f 34/34/34 35/35/35 31/31/31
f 35/35/35 36/36/36 31/31/31
f 39/39/39 38/38/38 37/37/37
f 37/37/37 38/38/38 40/40/40
f 38/38/38 41/41/41 40/40/40
f 40/40/40 41/41/41 42/42/42
f 45/45/45 44/44/44 43/43/43
f 44/44/44 46/46/46 43/43/43
f 43/43/43 46/46/46 47/47/47
f 48/48/48 43/43/43 47/47/47
f 48/48/48 47/47/47 49/49/49
f 50/50/50 48/48/48 49/49/49
f 50/50/50 49/49/49 51/51/51
f 49/49/49 52/52/52 51/51/51
f 51/51/51 52/52/52 53/53/53
f 52/52/52 54/54/54 53/53/53
f 53/53/53 54/54/54 55/55/55
f 54/54/54 56/56/56 55/55/55
f 55/55/55 56/56/56 57/57/57
f 56/56/56 58/58/58 57/57/57
f 61/61/61 60/60/60 59/59/59
f 62/62/62 61/61/61 59/59/59
f 62/62/62 63/63/63 61/61/61
f 63/63/63 64/64/64 61/61/61
f 67/67/67 66/66/66 65/65/65
f 68/68/68 67/67/67 65/65/65
f 71/71/71 70/70/70 69/69/69
f 70/70/70 72/72/72 69/69/69
f 69/69/69 72/72/72 73/73/73
f 72/72/72 74/74/74 73/73/73
f 73/73/73 74/74/74 75/75/75
f 74/74/74 76/76/76 75/75/75
f 79/79/79 78/78/78 77/77/77
f 80/80/80 79/79/79 77/77/77
f 83/83/83 82/82/82 81/81/81
f 84/84/84 83/83/83 81/81/81
f 87/87/87 86/86/86 85/85/85
f 88/88/88 87/87/87 85/85/85
f 91/91/91 90/90/90 89/89/89
f 92/92/92 91/91/91 89/89/89
f 95/95/95 94/94/94 93/93/93
f 96/96/96 95/95/95 93/93/93
f 99/99/99 98/98/98 97/97/97
f 100/100/100 99/99/99 97/97/97
f 103/103/103 102/102/102 101/101/101
f 104/104/104 103/103/103 101/101/101
f 107/107/107 106/106/106 105/105/105
f 105/105/105 106/106/106 108/108/108
f 109/109/109 107/107/107 105/105/105
f 110/110/110 105/105/105 108/108/108
f 111/111/111 107/107/107 109/109/109
f 112/112/112 111/111/111 109/109/109
f 113/113/113 111/111/111 112/112/112
f 114/114/114 113/113/113 112/112/112
f 115/115/115 113/113/113 114/114/114
f 116/116/116 115/115/115 114/114/114
f 117/117/117 115/115/115 116/116/116
f 118/118/118 117/117/117 116/116/116
f 110/110/110 108/108/108 119/119/119
f 119/119/119 117/117/117 118/118/118
f 120/120/120 110/110/110 119/119/119
f 120/120/120 119/119/119 118/118/118
