g SM_Prop_ToolBox_01
v 0.3314829 0 0.1152879
v 0.3314827 0 -0.1372652
v -0.3314822 0 0.1152879
v -0.3314817 0 -0.1372652
v 0.3239538 0.139356 0.1049197
v -0.3239538 0.139356 0.1049197
v -0.3239539 0.139356 -0.126897
v 0.3239538 0.139356 -0.1268971
v -0.3314817 0.132997 -0.1372652
v -0.3314822 0.132997 0.1152879
v 0.3314829 0.132997 0.1152879
v 0.3314827 0.132997 -0.1372652
v 0.03409971 0.1393551 0.1049197
v -0.03409914 0.1393551 0.1049196
v -0.03489163 0.1329968 0.1152879
v 0.03489231 0.1329968 0.1152879
v -0.03489163 0.09200433 0.1152879
v 0.03489231 0.09200433 0.1152879
v -0.02998623 0.1364641 0.1262771
v 0.02998752 0.1364641 0.1262771
v -0.02998623 0.09784427 0.1262771
v 0.02998752 0.09784427 0.1262771
v 0.3084276 0.139356 0.08535264
v 0.3084277 0.139356 -0.1073301
v -0.3084268 0.139356 -0.10733
v -0.3084266 0.139356 0.08535267
v 0.3084276 0.01471998 0.08535264
v 0.3084277 0.01471998 -0.1073301
v -0.3084268 0.01471998 -0.10733
v -0.3084266 0.01471998 0.08535267
v -0.3314822 0.1046264 0.1152879
v -0.2421658 0.1329969 0.1152879
v -0.2154236 0.1393556 0.1049197
v -0.2146864 0.139356 0.08535267
v -0.3084266 0.09581697 0.08535267
v -0.3084268 0.139356 0.06399151
v -0.3239531 0.139356 0.05902264
v -0.3314819 0.132997 0.0605508
v -0.3314819 0.1064193 0.06862171
v -0.2507974 0.1178107 0.1152878
v -0.2917984 0.1050381 0.1152879
v -0.2849148 0.118251 0.1152879
v 0.1223905 0.1329969 0.1152879
v 0.3314829 0.1071101 0.1152879
v 0.3314826 0.132997 0.04353731
v 0.3239538 0.139356 0.03728588
v 0.3084275 0.139356 0.03559498
v 0.1404642 0.09633558 0.1152879
v 0.1949216 0.093148 0.1152879
v 0.2374936 0.05859641 0.1152879
v 0.2970212 0.06158971 0.1152879
v 0.3129734 0.09917213 0.1152878
v 0.3314826 0.1078701 0.06793846
v 0.3084276 0.1155978 0.08535264
v 0.1451818 0.139356 0.08535264
v 0.1277593 0.1393554 0.09828125
v 0.1188128 0.1393554 0.1049197
v 0.2077758 0.1140054 0.08535264
v -0.3314822 0.132997 0.1152879
v -0.3314819 0.132997 0.0605508
v -0.02998623 0.1364641 0.1262771
v 0.02998752 0.1364641 0.1262771
v 0.3314829 0.132997 0.1152879
v 0.3314826 0.132997 0.04353731
v 0.3314827 0 -0.1372652
v 0.3314827 0.132997 -0.1372652
v -0.3314817 0.132997 -0.1372652
v -0.3314817 0 -0.1372652
v -0.3314822 0.132997 0.1152879
v -0.3239538 0.139356 0.1049197
v 0.3239538 0.139356 0.1049197
v 0.3314829 0.132997 0.1152879
v 0.3314829 0.1071101 0.1152879
v 0.3314829 0 0.1152879
v 0.1223905 0.1329969 0.1152879
v 0.3314829 0.132997 0.1152879
v -0.03409914 0.1393551 0.1049196
v -0.02998623 0.1364641 0.1262771
v 0.02998752 0.1364641 0.1262771
v 0.03409971 0.1393551 0.1049197
v -0.03489163 0.1329968 0.1152879
v -0.02998623 0.1364641 0.1262771
v -0.02998623 0.09784427 0.1262771
v -0.03489163 0.09200433 0.1152879
v -0.02998623 0.09784427 0.1262771
v 0.02998752 0.09784427 0.1262771
v 0.03489231 0.09200433 0.1152879
v 0.02998752 0.09784427 0.1262771
v 0.02998752 0.1364641 0.1262771
v 0.03489231 0.1329968 0.1152879
v 0.3239538 0.139356 0.1049197
v 0.1188128 0.1393554 0.1049197
v 0.3239538 0.139356 0.03728588
v 0.3239538 0.139356 -0.1268971
v -0.3239539 0.139356 -0.126897
v -0.3239538 0.139356 0.1049197
v -0.3239531 0.139356 0.05902264
v -0.2154236 0.1393556 0.1049197
v 0.3084276 0.139356 0.08535264
v 0.3084275 0.139356 0.03559498
v 0.3084277 0.139356 -0.1073301
v 0.3084277 0.01471998 -0.1073301
v -0.3084268 0.01471998 -0.10733
v -0.3084268 0.139356 -0.10733
v -0.3084266 0.139356 0.08535267
v -0.3084268 0.139356 0.06399151
v -0.3084266 0.139356 0.08535267
v -0.3084266 0.09581697 0.08535267
v -0.2146864 0.139356 0.08535267
v -0.3314822 0 0.1152879
v -0.3314822 0.1046264 0.1152879
v -0.2154236 0.1393556 0.1049197
v -0.03409914 0.1393551 0.1049196
v -0.03489163 0.1329968 0.1152879
v -0.2421658 0.1329969 0.1152879
v -0.2146864 0.139356 0.08535267
v -0.03409914 0.1393551 0.1049196
v -0.2154236 0.1393556 0.1049197
v 0.3084276 0.1155978 0.08535264
v 0.3084276 0.139356 0.08535264
v 0.1451818 0.139356 0.08535264
v -0.3084268 0.139356 -0.10733
v -0.3084268 0.01471998 -0.10733
v -0.3084266 0.01471998 0.08535267
v -0.3084266 0.09581697 0.08535267
v -0.3084268 0.139356 0.06399151
v -0.3084268 0.139356 0.06399151
v -0.3239531 0.139356 0.05902264
v -0.3314819 0.132997 0.0605508
v -0.3314817 0.132997 -0.1372652
v -0.3239539 0.139356 -0.126897
v -0.3239531 0.139356 0.05902264
v -0.3314822 0.1046264 0.1152879
v -0.3314822 0 0.1152879
v -0.3314817 0 -0.1372652
v -0.3314819 0.1064193 0.06862171
v -0.3314822 0.1046264 0.1152879
v -0.3314822 0.132997 0.1152879
v -0.2849148 0.118251 0.1152879
v -0.2917984 0.1050381 0.1152879
v -0.03489163 0.09200433 0.1152879
v -0.2421658 0.1329969 0.1152879
v -0.03489163 0.1329968 0.1152879
v -0.2421658 0.1329969 0.1152879
v -0.2507974 0.1178107 0.1152878
v -0.3314817 0.132997 -0.1372652
v -0.3314819 0.132997 0.0605508
v 0.03489231 0.09200433 0.1152879
v 0.03489231 0.1329968 0.1152879
v 0.1223905 0.1329969 0.1152879
v 0.1404642 0.09633558 0.1152879
v 0.3314826 0.1078701 0.06793846
v 0.3314826 0.132997 0.04353731
v 0.3314827 0.132997 -0.1372652
v 0.3314827 0 -0.1372652
v 0.3239538 0.139356 0.03728588
v 0.3239538 0.139356 -0.1268971
v 0.3314827 0.132997 -0.1372652
v 0.3314826 0.132997 0.04353731
v 0.3084275 0.139356 0.03559498
v 0.3239538 0.139356 0.03728588
v 0.3084276 0.1155978 0.08535264
v 0.3084276 0.01471998 0.08535264
v 0.3084277 0.01471998 -0.1073301
v 0.3084277 0.139356 -0.1073301
v 0.3084275 0.139356 0.03559498
v 0.3084276 0.01471998 0.08535264
v 0.3084276 0.1155978 0.08535264
v 0.2077758 0.1140054 0.08535264
v 0.1451818 0.139356 0.08535264
v 0.1277593 0.1393554 0.09828125
v 0.03409971 0.1393551 0.1049197
v 0.1188128 0.1393554 0.1049197
v 0.03409971 0.1393551 0.1049197
v 0.1188128 0.1393554 0.1049197
v 0.1223905 0.1329969 0.1152879
v 0.03489231 0.1329968 0.1152879
v 0.1949216 0.093148 0.1152879
v 0.3129734 0.09917213 0.1152878
v 0.2970212 0.06158971 0.1152879
v 0.2374936 0.05859641 0.1152879
v 0.3314829 0.1071101 0.1152879
v 0.3314829 0 0.1152879
v 0.3314829 0.1071101 0.1152879
v -0.3084266 0.01471998 0.08535267
v 0.1451818 0.139356 0.08535264
v -0.2146864 0.139356 0.08535267
v -0.3084266 0.09581697 0.08535267
vt 0.1046974 0.2076563
vt 0.1046974 0.2076563
vt 0.1046974 0.2076564
vt 0.1046974 0.2076564
vt 0.9716051 0.08764115
vt 0.9521073 0.08857551
vt 0.1046974 0.2076564
vt 0.1046974 0.2076564
vt 0.1046974 0.2076564
vt 0.952253 0.08356582
vt 0.9730365 0.08517621
vt 0.1046974 0.2076564
vt 0.1012864 0.2524934
vt 0.1012864 0.2524934
vt 0.1012864 0.2524934
vt 0.1012864 0.2524934
vt 0.1012864 0.2524934
vt 0.1012864 0.2524934
vt 0.1012864 0.2524934
vt 0.1012864 0.2524934
vt 0.1012864 0.2524934
vt 0.1012864 0.2524934
vt 0.9700837 0.08987906
vt 0.1046974 0.2076564
vt 0.1046974 0.2076564
vt 0.9521385 0.09420573
vt 0.1046974 0.2076553
vt 0.1046974 0.2076553
vt 0.1046974 0.2076553
vt 0.1046974 0.2076553
vt 0.952253 0.07402865
vt 0.9730296 0.09779961
vt 0.9773533 0.1058713
vt 0.9739444 0.1091446
vt 0.9652838 0.07326984
vt 0.9482299 0.09765092
vt 0.943709 0.095978
vt 0.9422373 0.09239396
vt 0.9437141 0.08215782
vt 0.1046974 0.2076564
vt 0.1046974 0.2076564
vt 0.1046974 0.2076564
vt 0.9294435 0.09016089
vt 0.9761738 0.07990096
vt 0.9793271 0.09202489
vt 0.9775351 0.09409687
vt 0.9744461 0.09462842
vt 0.9376547 0.08225921
vt 0.9493946 0.08031137
vt 0.1046974 0.2076564
vt 0.1046974 0.2076564
vt 0.1046974 0.2076563
vt 0.980233 0.08457544
vt 0.9695793 0.07538992
vt 0.936049 0.09377072
vt 0.9312831 0.0929519
vt 0.9288359 0.09253152
vt 0.9695793 0.07538992
vt 0.952253 0.08356582
vt 0.9422373 0.09239396
vt 0.1012864 0.2524934
vt 0.1012864 0.2524934
vt 0.9730365 0.08517621
vt 0.9793271 0.09202489
vt 0.1046974 0.2076564
vt 0.1046974 0.2076564
vt 0.1046974 0.2076564
vt 0.1046974 0.2076564
vt 0.952253 0.08356582
vt 0.9521073 0.08857551
vt 0.9716051 0.08764115
vt 0.9730365 0.08517621
vt 0.1046974 0.2076564
vt 0.1046974 0.2076564
vt 0.9294435 0.09016089
vt 0.9730365 0.08517621
vt 0.1012864 0.2524934
vt 0.1012864 0.2524934
vt 0.1012864 0.2524934
vt 0.1012864 0.2524934
vt 0.1012864 0.2524934
vt 0.1012864 0.2524934
vt 0.1012864 0.2524934
vt 0.1012864 0.2524934
vt 0.1012864 0.2524934
vt 0.1012864 0.2524934
vt 0.1012864 0.2524934
vt 0.1012864 0.2524934
vt 0.1012864 0.2524934
vt 0.1012864 0.2524934
vt 0.9716051 0.08764115
vt 0.9288359 0.09253152
vt 0.9775351 0.09409687
vt 0.1046974 0.2076564
vt 0.1046974 0.2076564
vt 0.9521073 0.08857551
vt 0.943709 0.095978
vt 0.9773533 0.1058713
vt 0.9695793 0.07538992
vt 0.96958 0.07538992
vt 0.1046974 0.2076553
vt 0.1046974 0.2076553
vt 0.1046974 0.2076553
vt 0.1046974 0.2076553
vt 0.9652838 0.1039859
vt 0.9701219 0.09820451
vt 0.9652838 0.1039859
vt 0.9652838 0.07326984
vt 0.9394058 0.07783839
vt 0.1046974 0.2076564
vt 0.1046974 0.2076564
vt 0.1046974 0.2076564
vt 0.1046974 0.2076564
vt 0.1046974 0.2076564
vt 0.1046974 0.2076564
vt 0.1046974 0.2076553
vt 0.1046974 0.2076553
vt 0.1046974 0.2076553
vt 0.9695793 0.07538992
vt 0.9695793 0.07538992
vt 0.9695793 0.07538992
vt 0.1046974 0.2076553
vt 0.1046974 0.2076553
vt 0.1046974 0.2076553
vt 0.1046974 0.2076553
vt 0.1046974 0.2076553
vt 0.1046974 0.2076564
vt 0.1046974 0.2076564
vt 0.1046974 0.2076564
vt 0.1046974 0.2076564
vt 0.1046974 0.2076564
vt 0.1046974 0.2076564
vt 0.1046974 0.2076564
vt 0.1046974 0.2076564
vt 0.1046974 0.2076564
vt 0.1046974 0.2076564
vt 0.952253 0.07402865
vt 0.952253 0.08356582
vt 0.9630855 0.08602997
vt 0.9614841 0.08049125
vt 0.1046974 0.2076564
vt 0.1046974 0.2076564
vt 0.1046974 0.2076564
vt 0.9730296 0.09779961
vt 0.971022 0.09131919
vt 0.1046974 0.2076564
vt 0.1046974 0.2076564
vt 0.1046974 0.2076564
vt 0.1046974 0.2076564
vt 0.1046974 0.2076564
vt 0.1046974 0.2076564
vt 0.1046974 0.2076564
vt 0.1046974 0.2076564
vt 0.1046974 0.2076564
vt 0.1046974 0.2076564
vt 0.1046974 0.2076564
vt 0.1046974 0.2076564
vt 0.1046974 0.2076564
vt 0.1046974 0.2076564
vt 0.1046974 0.2076564
vt 0.1046974 0.2076564
vt 0.1046974 0.2076553
vt 0.1046974 0.2076553
vt 0.1046974 0.2076553
vt 0.1046974 0.2076553
vt 0.1046974 0.2076553
vt 0.1046974 0.2076553
vt 0.1046974 0.2076553
vt 0.1046974 0.2076553
vt 0.1046974 0.2076553
vt 0.1046974 0.2076553
vt 0.1046974 0.2076553
vt 0.1046974 0.2076553
vt 0.1046974 0.2076564
vt 0.1046974 0.2076564
vt 0.1046974 0.2076564
vt 0.1046974 0.2076564
vt 0.1046974 0.2076563
vt 0.973277 0.07872462
vt 0.9745062 0.07144643
vt 0.9624581 0.07225557
vt 0.9761738 0.07990096
vt 0.1046974 0.2076564
vt 0.1046974 0.2076564
vt 0.1046974 0.2076553
vt 0.1046974 0.2076553
vt 0.1046974 0.2076553
vt 0.1046974 0.2076553
vn 0 -1 0
vn 0 -1 0
vn 0 -1 0
vn 0 -1 0
vn 0.6452551 0.7639671 0
vn -0.6452717 0.7639531 0
vn 0 0.8524438 -0.5228189
vn 0 0.8524438 -0.5228189
vn 0 0.8524438 -0.5228189
vn -0.6452718 0.7639531 0
vn 0.6452551 0.7639672 0
vn 0 0.8524438 -0.5228189
vn 0 0.9909623 0.1341402
vn 0 0.9909623 0.1341402
vn -0.8484623 0.4776066 0.2280429
vn 0.8484854 0.4775792 0.228015
vn -0.9131542 0 0.4076144
vn 0 -0.8830523 0.4692746
vn 0 0.9909623 0.1341402
vn 0 0.9909623 0.1341402
vn 0 0 1
vn 0 0 1
vn 0 1 0
vn 0 1 0
vn 0 1 0
vn 0 1 0
vn 0 1 0
vn 0 1 0
vn 0 1 0
vn 0 1 0
vn -1 0 0
vn 0 0.8524526 0.5228044
vn 0 0.8524605 0.5227917
vn 0 1 1.408394E-05
vn 1 0 0
vn 0 1 0
vn -0.6452804 0.7639458 0
vn -0.6452796 0.7639464 0
vn -1 0 0
vn 0 0 1
vn 0 0 1
vn 0 0 1
vn 0 0.8524544 0.5228016
vn 1 0 0
vn 0.6452556 0.7639667 0
vn 0.645256 0.7639664 0
vn 0 1 0
vn 0 0 1
vn 0 0 1
vn 0 0 1
vn 0 0 1
vn 0 0 1
vn 1 0 0
vn -1 0 0
vn 0 1 4.130823E-05
vn 0 1 2.061812E-05
vn 0 0.8524561 0.5227988
vn 0 0 -1
vn -1 0 0
vn -1 0 0
vn 0 0 1
vn 0 0 1
vn 1 0 0
vn 1 0 0
vn 0 0 -1
vn 0 0 -1
vn 0 0 -1
vn 0 0 -1
vn 0 0.85245 0.5228087
vn 0 0.85245 0.5228087
vn 0 0.8524518 0.5228058
vn 0 0.8524518 0.5228058
vn 0 0 1
vn 0 0 1
vn 0 0 1
vn 0 0 1
vn -0.8484623 0.4776067 0.2280429
vn -0.8484623 0.4776066 0.2280429
vn 0.8484854 0.4775792 0.228015
vn 0.8484854 0.4775792 0.228015
vn -0.9131542 0 0.4076144
vn -0.9131542 0 0.4076144
vn -0.9131542 0 0.4076144
vn 0 -0.8830523 0.4692746
vn 0 -0.8830523 0.4692746
vn 0 -0.8830523 0.4692746
vn 0.9131728 0 0.4075727
vn 0.9131728 0 0.4075726
vn 0.9131728 0 0.4075727
vn 0.9131728 0 0.4075727
vn 0 1 0
vn 0 1 0
vn 0 1 0
vn 0 1 0
vn 0 1 0
vn 0 1 0
vn 0 1 0
vn 0 1 1.287478E-05
vn -1 0 0
vn -1 0 0
vn 0 0 1
vn 0 0 1
vn 0 0 1
vn 0 0 1
vn 1 0 -1.071486E-05
vn 1 0 0
vn 0 0 -1
vn 0 0 -1
vn 0 0 -1
vn 0 0 1
vn 0 0 1
vn 0 0.8524605 0.5227917
vn 0 0.8524613 0.5227903
vn 0 0.8524613 0.5227904
vn 0 0.8524526 0.5228044
vn 0 1 1.408394E-05
vn 0 1 4.080046E-05
vn 0 1 1.287478E-05
vn 0 0 -1
vn 0 0 -1
vn 0 0 -1
vn 1 0 0
vn 1 0 0
vn 1 0 0
vn 1 0 0
vn 1 0 0
vn 0 1 0
vn 0 1 0
vn -0.6452796 0.7639464 0
vn -0.6452823 0.7639442 0
vn -0.6452822 0.7639443 0
vn -0.6452804 0.7639458 0
vn -1 0 0
vn -1 0 0
vn -1 0 0
vn -1 0 0
vn 0 0 1
vn 0 0 1
vn 0 0 1
vn 0 0 1
vn 0 0 1
vn 0 0 1
vn 0 0 1
vn 0 0 1
vn 0 0 1
vn -1 0 0
vn -1 0 0
vn 0 0 1
vn 0 0 1
vn 0 0 1
vn 0 0 1
vn 1 0 0
vn 1 0 0
vn 1 0 0
vn 1 0 0
vn 0.645256 0.7639664 0
vn 0.6452561 0.7639664 0
vn 0.6452562 0.7639664 0
vn 0.6452556 0.7639667 0
vn 0 1 0
vn 0 1 0
vn -1 0 0
vn -1 0 0
vn -1 0 0
vn -1 0 0
vn -1 0 0
vn 0 0 -1
vn 0 0 -1
vn 0 0 -1
vn 0 1 4.130823E-05
vn 0 1 2.061812E-05
vn 0 1 4.037947E-05
vn 0 1 0
vn 0 0.8524633 0.5227872
vn 0 0.8524561 0.5227988
vn 0 0.8524544 0.5228016
vn 0 0.8524633 0.5227872
vn 0 0 1
vn 0 0 1
vn 0 0 1
vn 0 0 1
vn 0 0 1
vn 1 0 0
vn 1 0 0
vn 0 0 -1
vn 0 0 -1
vn 0 0 -1
vn 0 0 -1
g SM_Prop_ToolBox_01_0
f 15/15/15 78/78/78 77/77/77
f 80/80/80 79/79/79 16/16/16
f 100/100/100 54/54/54 99/99/99
f 106/106/106 105/105/105 35/35/35
f 109/109/109 108/108/108 107/107/107
f 46/46/46 5/5/5 11/11/11
f 45/45/45 46/46/46 11/11/11
f 38/38/38 10/10/10 6/6/6
f 37/37/37 38/38/38 6/6/6
f 2/2/2 1/1/1 3/3/3
f 4/4/4 2/2/2 3/3/3
f 7/7/7 8/8/8 12/12/12
f 9/9/9 7/7/7 12/12/12
f 20/20/20 13/13/13 14/14/14
f 19/19/19 20/20/20 14/14/14
f 39/39/39 31/31/31 59/59/59
f 60/60/60 39/39/39 59/59/59
f 22/22/22 62/62/62 61/61/61
f 21/21/21 22/22/22 61/61/61
f 64/64/64 63/63/63 44/44/44
f 53/53/53 64/64/64 44/44/44
f 67/67/67 66/66/66 65/65/65
f 68/68/68 67/67/67 65/65/65
f 33/33/33 70/70/70 69/69/69
f 32/32/32 33/33/33 69/69/69
f 72/72/72 71/71/71 57/57/57
f 43/43/43 72/72/72 57/57/57
f 73/73/73 52/52/52 51/51/51
f 74/74/74 73/73/73 51/51/51
f 74/74/74 51/51/51 50/50/50
f 110/110/110 74/74/74 50/50/50
f 110/110/110 50/50/50 148/148/148
f 50/50/50 178/178/178 148/148/148
f 178/178/178 151/151/151 148/148/148
f 151/151/151 150/150/150 148/148/148
f 150/150/150 149/149/149 148/148/148
f 141/141/141 110/110/110 148/148/148
f 110/110/110 141/141/141 40/40/40
f 142/142/142 40/40/40 141/141/141
f 143/143/143 142/142/142 141/141/141
f 41/41/41 110/110/110 40/40/40
f 42/42/42 41/41/41 40/40/40
f 41/41/41 111/111/111 110/110/110
f 48/48/48 49/49/49 75/75/75
f 49/49/49 76/76/76 75/75/75
f 49/49/49 179/179/179 76/76/76
f 179/179/179 182/182/182 76/76/76
f 49/49/49 181/181/181 179/179/179
f 181/181/181 180/180/180 179/179/179
f 83/83/83 82/82/82 81/81/81
f 17/17/17 83/83/83 81/81/81
f 86/86/86 85/85/85 84/84/84
f 18/18/18 86/86/86 84/84/84
f 89/89/89 88/88/88 87/87/87
f 90/90/90 89/89/89 87/87/87
f 29/29/29 30/30/30 27/27/27
f 28/28/28 29/29/29 27/27/27
f 92/92/92 91/91/91 56/56/56
f 91/91/91 23/23/23 56/56/56
f 56/56/56 23/23/23 55/55/55
f 47/47/47 23/23/23 91/91/91
f 93/93/93 47/47/47 91/91/91
f 97/97/97 96/96/96 36/36/36
f 96/96/96 26/26/26 36/36/36
f 34/34/34 26/26/26 96/96/96
f 98/98/98 34/34/34 96/96/96
f 103/103/103 102/102/102 101/101/101
f 104/104/104 103/103/103 101/101/101
f 114/114/114 113/113/113 112/112/112
f 115/115/115 114/114/114 112/112/112
f 118/118/118 117/117/117 116/116/116
f 116/116/116 117/117/117 171/171/171
f 171/171/171 170/170/170 116/116/116
f 117/117/117 172/172/172 171/171/171
f 173/173/173 171/171/171 172/172/172
f 121/121/121 120/120/120 119/119/119
f 58/58/58 121/121/121 119/119/119
f 124/124/124 123/123/123 122/122/122
f 122/122/122 125/125/125 124/124/124
f 122/122/122 126/126/126 125/125/125
f 128/128/128 127/127/127 95/95/95
f 127/127/127 25/25/25 95/95/95
f 95/95/95 25/25/25 94/94/94
f 25/25/25 24/24/24 94/94/94
f 94/94/94 24/24/24 160/160/160
f 161/161/161 94/94/94 160/160/160
f 131/131/131 130/130/130 129/129/129
f 132/132/132 131/131/131 129/129/129
f 135/135/135 134/134/134 133/133/133
f 136/136/136 135/135/135 133/133/133
f 136/136/136 147/147/147 135/135/135
f 147/147/147 146/146/146 135/135/135
f 140/140/140 139/139/139 137/137/137
f 139/139/139 138/138/138 137/137/137
f 139/139/139 145/145/145 138/138/138
f 145/145/145 144/144/144 138/138/138
f 154/154/154 153/153/153 152/152/152
f 155/155/155 154/154/154 152/152/152
f 155/155/155 152/152/152 183/183/183
f 152/152/152 184/184/184 183/183/183
f 158/158/158 157/157/157 156/156/156
f 159/159/159 158/158/158 156/156/156
f 164/164/164 163/163/163 162/162/162
f 162/162/162 165/165/165 164/164/164
f 162/162/162 166/166/166 165/165/165
f 169/169/169 168/168/168 167/167/167
f 169/169/169 167/167/167 185/185/185
f 186/186/186 169/169/169 185/185/185
f 185/185/185 187/187/187 186/186/186
f 185/185/185 188/188/188 187/187/187
f 176/176/176 175/175/175 174/174/174
f 177/177/177 176/176/176 174/174/174
