g SM_Prop_TVCabinet_02_Door_01
v -0.6475085 0.05228409 0.01368652
v -0.6475085 0.4023433 0.01368652
v -0.04607605 0.4023433 0.01368652
v -0.04607605 0.05228409 0.01368652
v -0.6778656 0.2009954 0.06482177
v -0.7051666 0.2009954 0.06482177
v -0.7051666 0.3105992 0.06482177
v -0.6778656 0.3105992 0.06482177
v -0.6778656 0.1801608 0.03338501
v -0.7051666 0.1801608 0.03338501
v -0.7051666 0.2009954 0.06482177
v -0.6778656 0.2009954 0.06482177
v -0.7051666 0.1801608 0.03338501
v -0.7051666 0.3314338 0.03338501
v -0.7051666 0.3105992 0.06482177
v -0.7051666 0.2009954 0.06482177
v -0.7051666 0.3314338 0.03338501
v -0.6778656 0.3314338 0.03338501
v -0.6778656 0.3105992 0.06482177
v -0.7051666 0.3105992 0.06482177
v -0.6778656 0.3314338 0.03338501
v -0.6778656 0.1801608 0.03338501
v -0.6778656 0.2009954 0.06482177
v -0.6778656 0.3105992 0.06482177
v -0.7343206 1.421085E-16 0.03338501
v -0.7343206 1.421085E-16 1.456613E-15
v -0.7343206 0.4546275 1.456613E-15
v -0.7343206 0.4546275 0.03338501
v -0.7343206 0.4546275 0.03338501
v -0.7343206 0.4546275 1.456613E-15
v -1.421085E-16 0.4546275 1.456613E-15
v -1.421085E-16 0.4546275 0.03338501
v -1.421085E-16 0.4546275 0.03338501
v -1.421085E-16 0.4546275 1.456613E-15
v -1.421085E-16 1.421085E-16 1.456613E-15
v -1.421085E-16 1.421085E-16 0.03338501
v -1.421085E-16 1.421085E-16 0.03338501
v -1.421085E-16 1.421085E-16 1.456613E-15
v -0.7343206 1.421085E-16 1.456613E-15
v -0.7343206 1.421085E-16 0.03338501
v -0.6475085 0.05228409 1.456613E-15
v -0.04607605 0.05228409 1.456613E-15
v -0.04607605 0.05228409 0.03338501
v -0.6475085 0.05228409 0.03338501
v -0.04607605 0.05228409 1.456613E-15
v -0.04607605 0.4023433 1.456613E-15
v -0.04607605 0.4023433 0.03338501
v -0.04607605 0.05228409 0.03338501
v -0.04607605 0.4023433 1.456613E-15
v -0.6475085 0.4023433 1.456613E-15
v -0.6475085 0.4023433 0.03338501
v -0.04607605 0.4023433 0.03338501
v -0.6475085 0.4023433 1.456613E-15
v -0.6475085 0.05228409 1.456613E-15
v -0.6475085 0.05228409 0.03338501
v -0.6475085 0.4023433 0.03338501
v -0.7343206 1.421085E-16 1.456613E-15
v -1.421085E-16 1.421085E-16 1.456613E-15
v -0.04607605 0.05228409 1.456613E-15
v -0.6475085 0.05228409 1.456613E-15
v -0.04607605 0.4023433 1.456613E-15
v -0.7343206 0.4546275 1.456613E-15
v -1.421085E-16 0.4546275 1.456613E-15
v -0.6475085 0.4023433 1.456613E-15
v -1.421085E-16 1.421085E-16 0.03338501
v -0.6475085 0.05228409 0.03338501
v -0.04607605 0.05228409 0.03338501
v -1.421085E-16 0.4546275 0.03338501
v -0.04607605 0.4023433 0.03338501
v -0.7343206 0.4546275 0.03338501
v -0.7343206 1.421085E-16 0.03338501
v -0.6475085 0.4023433 0.03338501
v -0.7051666 0.3314338 0.03338501
v -0.7051666 0.1801608 0.03338501
v -0.6778656 0.3314338 0.03338501
v -0.6778656 0.1801608 0.03338501
vt 0.1020508 0.3045006
vt 0.1020508 0.3045006
vt 0.1020508 0.3045006
vt 0.1020508 0.3045006
vt 0.1010132 0.3021393
vt 0.1010132 0.3021393
vt 0.1010132 0.3021412
vt 0.1010132 0.3021412
vt 0.1010132 0.3021393
vt 0.1010132 0.3021393
vt 0.1010132 0.3021393
vt 0.1010132 0.3021393
vt 0.1010132 0.3021393
vt 0.1010132 0.3021412
vt 0.1010132 0.3021412
vt 0.1010132 0.3021393
vt 0.1010132 0.3021412
vt 0.1010132 0.3021412
vt 0.1010132 0.3021412
vt 0.1010132 0.3021412
vt 0.1010132 0.3021412
vt 0.1010132 0.3021393
vt 0.1010132 0.3021393
vt 0.1010132 0.3021412
vt 0.08985981 0.2316131
vt 0.08985981 0.2316131
vt 0.08985981 0.2316131
vt 0.08985981 0.2316131
vt 0.08985981 0.2316131
vt 0.08985981 0.2316131
vt 0.08985981 0.2316131
vt 0.08985981 0.2316131
vt 0.08985981 0.2316131
vt 0.08985981 0.2316131
vt 0.08985981 0.2316131
vt 0.08985981 0.2316131
vt 0.08985981 0.2316131
vt 0.08985981 0.2316131
vt 0.08985981 0.2316131
vt 0.08985981 0.2316131
vt 0.08985981 0.2316131
vt 0.08985981 0.2316131
vt 0.08985981 0.2316131
vt 0.08985981 0.2316131
vt 0.08985981 0.2316131
vt 0.08985981 0.2316131
vt 0.08985981 0.2316131
vt 0.08985981 0.2316131
vt 0.08985981 0.2316131
vt 0.08985981 0.2316131
vt 0.08985981 0.2316131
vt 0.08985981 0.2316131
vt 0.08985981 0.2316131
vt 0.08985981 0.2316131
vt 0.08985981 0.2316131
vt 0.08985981 0.2316131
vt 0.08985981 0.2316131
vt 0.08985981 0.2316131
vt 0.08985981 0.2316131
vt 0.08985981 0.2316131
vt 0.08985981 0.2316131
vt 0.08985981 0.2316131
vt 0.08985981 0.2316131
vt 0.08985981 0.2316131
vt 0.08985981 0.2316131
vt 0.08985981 0.2316131
vt 0.08985981 0.2316131
vt 0.08985981 0.2316131
vt 0.08985981 0.2316131
vt 0.08985981 0.2316131
vt 0.08985981 0.2316131
vt 0.08985981 0.2316131
vt 0.08985981 0.2316131
vt 0.08985981 0.2316131
vt 0.08985981 0.2316131
vt 0.08985981 0.2316131
vn 0 0 1
vn 0 0 1
vn 0 0 1
vn 0 0 1
vn 0 0 1
vn 0 0 1
vn 0 0 1
vn 0 0 1
vn 0 -0.8335557 0.5524353
vn 0 -0.8335557 0.5524353
vn 0 -0.8335557 0.5524353
vn 0 -0.8335557 0.5524353
vn -1 0 0
vn -1 0 0
vn -1 0 0
vn -1 0 0
vn 0 0.8335557 0.5524353
vn 0 0.8335557 0.5524353
vn 0 0.8335557 0.5524353
vn 0 0.8335557 0.5524353
vn 1 0 0
vn 1 0 0
vn 1 0 0
vn 1 0 0
vn -1 0 0
vn -1 0 0
vn -1 0 0
vn -1 0 0
vn 0 1 0
vn 0 1 0
vn 0 1 0
vn 0 1 0
vn 1 0 0
vn 1 0 0
vn 1 0 0
vn 1 0 0
vn 0 -1 0
vn 0 -1 0
vn 0 -1 0
vn 0 -1 0
vn 0 1 0
vn 0 1 0
vn 0 1 0
vn 0 1 0
vn -1 0 0
vn -1 0 0
vn -1 0 0
vn -1 0 0
vn 0 -1 0
vn 0 -1 0
vn 0 -1 0
vn 0 -1 0
vn 1 0 0
vn 1 0 0
vn 1 0 0
vn 1 0 0
vn 0 0 -1
vn 0 0 -1
vn 0 0 -1
vn 0 0 -1
vn 0 0 -1
vn 0 0 -1
vn 0 0 -1
vn 0 0 -1
vn 0 0 1
vn 0 0 1
vn 0 0 1
vn 0 0 1
vn 0 0 1
vn 0 0 1
vn 0 0 1
vn 0 0 1
vn 0 0 1
vn 0 0 1
vn 0 0 1
vn 0 0 1
g SM_Prop_TVCabinet_02_Door_01_0
f 3/3/3 2/2/2 1/1/1
f 4/4/4 3/3/3 1/1/1
g SM_Prop_TVCabinet_02_Door_01_1
f 7/7/7 6/6/6 5/5/5
f 8/8/8 7/7/7 5/5/5
f 11/11/11 10/10/10 9/9/9
f 12/12/12 11/11/11 9/9/9
f 15/15/15 14/14/14 13/13/13
f 16/16/16 15/15/15 13/13/13
f 19/19/19 18/18/18 17/17/17
f 20/20/20 19/19/19 17/17/17
f 23/23/23 22/22/22 21/21/21
f 24/24/24 23/23/23 21/21/21
f 27/27/27 26/26/26 25/25/25
f 28/28/28 27/27/27 25/25/25
f 31/31/31 30/30/30 29/29/29
f 32/32/32 31/31/31 29/29/29
f 35/35/35 34/34/34 33/33/33
f 36/36/36 35/35/35 33/33/33
f 39/39/39 38/38/38 37/37/37
f 40/40/40 39/39/39 37/37/37
f 43/43/43 42/42/42 41/41/41
f 44/44/44 43/43/43 41/41/41
f 47/47/47 46/46/46 45/45/45
f 48/48/48 47/47/47 45/45/45
f 51/51/51 50/50/50 49/49/49
f 52/52/52 51/51/51 49/49/49
f 55/55/55 54/54/54 53/53/53
f 56/56/56 55/55/55 53/53/53
f 59/59/59 58/58/58 57/57/57
f 60/60/60 59/59/59 57/57/57
f 59/59/59 61/61/61 58/58/58
f 60/60/60 57/57/57 62/62/62
f 61/61/61 63/63/63 58/58/58
f 64/64/64 60/60/60 62/62/62
f 64/64/64 62/62/62 63/63/63
f 61/61/61 64/64/64 63/63/63
f 67/67/67 66/66/66 65/65/65
f 67/67/67 65/65/65 68/68/68
f 69/69/69 67/67/67 68/68/68
f 69/69/69 68/68/68 70/70/70
f 66/66/66 71/71/71 65/65/65
f 72/72/72 69/69/69 70/70/70
f 73/73/73 70/70/70 71/71/71
f 74/74/74 73/73/73 71/71/71
f 74/74/74 71/71/71 66/66/66
f 73/73/73 75/75/75 70/70/70
f 75/75/75 72/72/72 70/70/70
f 76/76/76 74/74/74 66/66/66
f 76/76/76 66/66/66 72/72/72
f 75/75/75 76/76/76 72/72/72
