g SM_Prop_Drum_Stick_01
v 0.005896125 0.01021237 -0.1545973
v -0.00589612 0.01021241 -0.1545973
v -0.01179224 0 -0.1545973
v -0.005896124 -0.01021238 -0.1545973
v 0.005896121 -0.01021241 -0.1545973
v 0.01179224 0 -0.1545973
v 0.005273443 0.00913386 0.1407406
v -0.00527344 0.009133892 0.1407406
v -0.01054688 0 0.1407406
v -0.005273443 -0.009133863 0.1407406
v 0.00527344 -0.009133892 0.1407406
v 0.01054688 0 0.1407406
v 0.005896125 0.01021238 0.03017864
v 0.01179224 0 0.03017864
v 0.005896121 -0.01021241 0.03017864
v -0.005896124 -0.01021238 0.03017864
v -0.01179224 0 0.03017864
v -0.00589612 0.01021241 0.03017864
v 0.003759174 0.006511068 0.1173546
v 0.007518344 0 0.1173546
v 0.003759172 -0.006511071 0.1173546
v -0.003759173 -0.006511071 0.1173546
v -0.007518344 0 0.1173546
v -0.003759172 0.006511068 0.1173546
v 0.005896125 0.01021238 0.1217511
v 0.01179224 0 0.121751
v 0.005896121 -0.01021241 0.1217511
v -0.005896124 -0.01021237 0.1217511
v -0.01179224 0 0.121751
v -0.00589612 0.01021241 0.1217511
v 0.008022764 0.01389583 0.1311475
v 0.01604552 0 0.1311475
v 0.008022761 -0.01389583 0.1311475
v -0.008022761 -0.01389583 0.1311475
v -0.01604552 0 0.1311475
v -0.008022759 0.01389583 0.1311475
v 3.352763E-10 0 0.1469885
v 3.748653E-10 0 -0.1614842
v -0.00589612 0.01021241 -0.1545973
v -0.00589612 0.01021241 0.03017864
v -0.01179224 0 -0.1545973
v -0.01179224 0 0.03017864
v -0.005896124 -0.01021238 -0.1545973
v -0.005896124 -0.01021238 0.03017864
v 0.005896121 -0.01021241 -0.1545973
v 0.005896121 -0.01021241 0.03017864
v 0.01179224 0 -0.1545973
v 0.01179224 0 0.03017864
v 0.005896125 0.01021238 0.03017864
v 0.005896125 0.01021237 -0.1545973
v 0.007518344 0 0.1173546
v 0.003759172 -0.006511071 0.1173546
v -0.003759173 -0.006511071 0.1173546
v -0.007518344 0 0.1173546
v 0.003759174 0.006511068 0.1173546
v -0.003759172 0.006511068 0.1173546
v 0.007518344 0 0.1173546
v 0.003759174 0.006511068 0.1173546
v 0.003759172 -0.006511071 0.1173546
v 0.01179224 0 0.121751
v 0.007518344 0 0.1173546
v -0.003759173 -0.006511071 0.1173546
v 0.005896121 -0.01021241 0.1217511
v 0.003759172 -0.006511071 0.1173546
v -0.007518344 0 0.1173546
v -0.005896124 -0.01021237 0.1217511
v -0.003759173 -0.006511071 0.1173546
v -0.003759172 0.006511068 0.1173546
v -0.01179224 0 0.121751
v -0.007518344 0 0.1173546
v 0.003759174 0.006511068 0.1173546
v 0.005896125 0.01021238 0.1217511
v -0.00589612 0.01021241 0.1217511
v -0.003759172 0.006511068 0.1173546
v 0.01179224 0 0.121751
v 0.005896125 0.01021238 0.1217511
v 0.005896121 -0.01021241 0.1217511
v 0.01604552 0 0.1311475
v 0.01179224 0 0.121751
v -0.005896124 -0.01021237 0.1217511
v 0.008022761 -0.01389583 0.1311475
v 0.005896121 -0.01021241 0.1217511
v -0.01179224 0 0.121751
v -0.008022761 -0.01389583 0.1311475
v -0.005896124 -0.01021237 0.1217511
v -0.00589612 0.01021241 0.1217511
v -0.01604552 0 0.1311475
v -0.01179224 0 0.121751
v 0.005896125 0.01021238 0.1217511
v 0.008022764 0.01389583 0.1311475
v -0.008022759 0.01389583 0.1311475
v -0.00589612 0.01021241 0.1217511
v 0.01604552 0 0.1311475
v 0.008022764 0.01389583 0.1311475
v 0.008022761 -0.01389583 0.1311475
v 0.01054688 0 0.1407406
v 0.01604552 0 0.1311475
v -0.008022761 -0.01389583 0.1311475
v 0.00527344 -0.009133892 0.1407406
v 0.008022761 -0.01389583 0.1311475
v -0.01604552 0 0.1311475
v -0.005273443 -0.009133863 0.1407406
v -0.008022761 -0.01389583 0.1311475
v -0.008022759 0.01389583 0.1311475
v -0.01054688 0 0.1407406
v -0.01604552 0 0.1311475
v 0.008022764 0.01389583 0.1311475
v 0.005273443 0.00913386 0.1407406
v -0.00527344 0.009133892 0.1407406
v -0.008022759 0.01389583 0.1311475
v 0.005273443 0.00913386 0.1407406
v -0.00527344 0.009133892 0.1407406
v -0.00527344 0.009133892 0.1407406
v 3.352763E-10 0 0.1469885
v -0.01054688 0 0.1407406
v -0.01054688 0 0.1407406
v 3.352763E-10 0 0.1469885
v -0.005273443 -0.009133863 0.1407406
v -0.005273443 -0.009133863 0.1407406
v 3.352763E-10 0 0.1469885
v 0.00527344 -0.009133892 0.1407406
v 0.00527344 -0.009133892 0.1407406
v 3.352763E-10 0 0.1469885
v 0.01054688 0 0.1407406
v 0.01054688 0 0.1407406
v 3.352763E-10 0 0.1469885
v 0.005273443 0.00913386 0.1407406
v 0.005896125 0.01021237 -0.1545973
v 0.01179224 0 -0.1545973
v 0.01179224 0 -0.1545973
v 3.748653E-10 0 -0.1614842
v 0.005896121 -0.01021241 -0.1545973
v 0.005896121 -0.01021241 -0.1545973
v 3.748653E-10 0 -0.1614842
v -0.005896124 -0.01021238 -0.1545973
v -0.005896124 -0.01021238 -0.1545973
v 3.748653E-10 0 -0.1614842
v -0.01179224 0 -0.1545973
v -0.01179224 0 -0.1545973
v 3.748653E-10 0 -0.1614842
v -0.00589612 0.01021241 -0.1545973
v -0.00589612 0.01021241 -0.1545973
v 3.748653E-10 0 -0.1614842
v 0.005896125 0.01021237 -0.1545973
vt 0.03655055 0.3532887
vt 0.03656557 0.3533089
vt 0.03653297 0.3533243
vt 0.03648528 0.3533192
vt 0.03647086 0.3532989
vt 0.03650352 0.3532838
vt 0.03656125 0.3523434
vt 0.03657731 0.3523568
vt 0.03654268 0.3523671
vt 0.03649193 0.3523637
vt 0.03647652 0.3523502
vt 0.03651121 0.3523402
vt 0.03655705 0.3527148
vt 0.03650817 0.3527109
vt 0.03647432 0.352723
vt 0.03648931 0.3527393
vt 0.03653884 0.3527434
vt 0.03657269 0.352731
vt 0.03654763 0.3524605
vt 0.03651586 0.3524583
vt 0.03649393 0.3524651
vt 0.03650373 0.3524743
vt 0.03653577 0.3524766
vt 0.0365577 0.3524696
vt 0.0365603 0.3524275
vt 0.03651053 0.3524241
vt 0.03647602 0.3524346
vt 0.03649136 0.3524488
vt 0.03654182 0.3524523
vt 0.03657627 0.3524416
vt 0.03657308 0.352381
vt 0.03650531 0.3523765
vt 0.03645822 0.3523904
vt 0.036479 0.3524092
vt 0.03654805 0.352414
vt 0.03659502 0.3523996
vt 0.0365271 0.3523245
vt 0.03651792 0.3533246
vt 0.03656557 0.3533089
vt 0.03657269 0.352731
vt 0.03653297 0.3533243
vt 0.03653884 0.3527434
vt 0.03648528 0.3533192
vt 0.03648931 0.3527393
vt 0.03647086 0.3532989
vt 0.03647432 0.352723
vt 0.03650352 0.3532838
vt 0.03650817 0.3527109
vt 0.03655705 0.3527148
vt 0.03655055 0.3532887
vt 0.03651586 0.3524583
vt 0.03649393 0.3524651
vt 0.03650373 0.3524743
vt 0.03653577 0.3524766
vt 0.03654763 0.3524605
vt 0.0365577 0.3524696
vt 0.03651586 0.3524583
vt 0.03654763 0.3524605
vt 0.03649393 0.3524651
vt 0.03651053 0.3524241
vt 0.03651586 0.3524583
vt 0.03650373 0.3524743
vt 0.03647602 0.3524346
vt 0.03649393 0.3524651
vt 0.03653577 0.3524766
vt 0.03649136 0.3524488
vt 0.03650373 0.3524743
vt 0.0365577 0.3524696
vt 0.03654182 0.3524523
vt 0.03653577 0.3524766
vt 0.03654763 0.3524605
vt 0.0365603 0.3524275
vt 0.03657627 0.3524416
vt 0.0365577 0.3524696
vt 0.03651053 0.3524241
vt 0.0365603 0.3524275
vt 0.03647602 0.3524346
vt 0.03650531 0.3523765
vt 0.03651053 0.3524241
vt 0.03649136 0.3524488
vt 0.03645822 0.3523904
vt 0.03647602 0.3524346
vt 0.03654182 0.3524523
vt 0.036479 0.3524092
vt 0.03649136 0.3524488
vt 0.03657627 0.3524416
vt 0.03654805 0.352414
vt 0.03654182 0.3524523
vt 0.0365603 0.3524275
vt 0.03657308 0.352381
vt 0.03659502 0.3523996
vt 0.03657627 0.3524416
vt 0.03650531 0.3523765
vt 0.03657308 0.352381
vt 0.03645822 0.3523904
vt 0.03651121 0.3523402
vt 0.03650531 0.3523765
vt 0.036479 0.3524092
vt 0.03647652 0.3523502
vt 0.03645822 0.3523904
vt 0.03654805 0.352414
vt 0.03649193 0.3523637
vt 0.036479 0.3524092
vt 0.03659502 0.3523996
vt 0.03654268 0.3523671
vt 0.03654805 0.352414
vt 0.03657308 0.352381
vt 0.03656125 0.3523434
vt 0.03657731 0.3523568
vt 0.03659502 0.3523996
vt 0.03656125 0.3523434
vt 0.03657731 0.3523568
vt 0.03657731 0.3523568
vt 0.0365271 0.3523245
vt 0.03654268 0.3523671
vt 0.03654268 0.3523671
vt 0.0365271 0.3523245
vt 0.03649193 0.3523637
vt 0.03649193 0.3523637
vt 0.0365271 0.3523245
vt 0.03647652 0.3523502
vt 0.03647652 0.3523502
vt 0.0365271 0.3523245
vt 0.03651121 0.3523402
vt 0.03651121 0.3523402
vt 0.0365271 0.3523245
vt 0.03656125 0.3523434
vt 0.03655055 0.3532887
vt 0.03650352 0.3532838
vt 0.03650352 0.3532838
vt 0.03651792 0.3533246
vt 0.03647086 0.3532989
vt 0.03647086 0.3532989
vt 0.03651792 0.3533246
vt 0.03648528 0.3533192
vt 0.03648528 0.3533192
vt 0.03651792 0.3533246
vt 0.03653297 0.3533243
vt 0.03653297 0.3533243
vt 0.03651792 0.3533246
vt 0.03656557 0.3533089
vt 0.03656557 0.3533089
vt 0.03651792 0.3533246
vt 0.03655055 0.3532887
vn 0 1 0
vn 0 1 0
vn -0.8660259 0.4999991 0
vn -0.8660253 -0.5000002 0
vn 0 -1 0
vn 0.866026 -0.499999 0
vn 0.7757127 0.4478581 0.4446268
vn -0.7757134 0.4478579 0.4446258
vn -0.7757129 -0.4478579 0.4446267
vn 0 -0.8957164 0.4446258
vn 0.7757131 -0.4478578 0.4446263
vn 0.7757127 0.4478582 0.4446268
vn 0 1 0
vn 0.866026 -0.499999 0
vn 0 -1 0
vn -0.8660253 -0.5000002 0
vn -0.8660259 0.4999991 0
vn 0 1 0
vn 0.8652458 0.49955 0.04241966
vn 0.8652458 0.49955 0.04241966
vn 0.8652461 -0.4995495 0.04241974
vn 0 -0.9990999 0.04241984
vn -0.8652458 -0.4995501 0.04241965
vn -0.8652461 0.4995496 0.04241975
vn 0.6625029 0.3824969 -0.6440387
vn 0.662503 0.3824969 -0.6440387
vn 0.6625027 -0.3824961 -0.6440395
vn 0 -0.7649922 -0.6440396
vn -0.6625031 -0.3824971 -0.6440386
vn -0.6625026 0.3824961 -0.6440395
vn 0.8062881 0.4655106 -0.3649651
vn 0.8062881 0.4655106 -0.3649651
vn 0.8062884 -0.4655105 -0.3649643
vn 0 -0.9310215 -0.3649645
vn -0.8062879 -0.4655108 -0.364965
vn -0.8062885 0.4655104 -0.3649644
vn 0 0.5645812 0.8253775
vn 0.4842021 0.2795543 -0.8290946
vn -0.8660259 0.4999991 0
vn -0.8660259 0.4999991 0
vn -0.8660253 -0.5000002 0
vn -0.8660253 -0.5000002 0
vn 0 -1 0
vn 0 -1 0
vn 0.866026 -0.499999 0
vn 0.866026 -0.499999 0
vn 0.8660253 0.5000002 0
vn 0.8660253 0.5000002 0
vn 0.8660253 0.5000002 0
vn 0.8660253 0.5000002 0
vn 0.8652461 -0.4995495 0.04241975
vn 0 -0.9990999 0.04241984
vn -0.8652458 -0.4995501 0.04241965
vn -0.8652461 0.4995496 0.04241975
vn 0 0.9990999 0.04241987
vn 0 0.9990999 0.04241987
vn 0.662503 0.3824969 -0.6440387
vn 0.662503 0.3824969 -0.6440387
vn 0.6625027 -0.3824961 -0.6440395
vn 0.6625027 -0.3824961 -0.6440395
vn 0.6625027 -0.3824961 -0.6440395
vn 0 -0.7649922 -0.6440396
vn 0 -0.7649922 -0.6440396
vn 0 -0.7649922 -0.6440396
vn -0.6625031 -0.3824971 -0.6440386
vn -0.6625031 -0.3824971 -0.6440386
vn -0.6625031 -0.382497 -0.6440384
vn -0.6625026 0.3824961 -0.6440395
vn -0.6625026 0.3824961 -0.6440395
vn -0.6625026 0.3824961 -0.6440395
vn 0 0.7649917 -0.6440402
vn 0 0.7649917 -0.6440402
vn 0 0.7649917 -0.6440402
vn 0 0.7649918 -0.6440401
vn 0.8062881 0.4655106 -0.3649651
vn 0.8062881 0.4655106 -0.3649651
vn 0.8062884 -0.4655105 -0.3649643
vn 0.8062884 -0.4655105 -0.3649643
vn 0.8062884 -0.4655105 -0.3649643
vn 0 -0.9310215 -0.3649645
vn 0 -0.9310215 -0.3649645
vn 0 -0.9310215 -0.3649645
vn -0.8062879 -0.4655108 -0.3649649
vn -0.8062879 -0.4655108 -0.364965
vn -0.8062879 -0.4655108 -0.364965
vn -0.8062885 0.4655104 -0.3649643
vn -0.8062885 0.4655104 -0.3649644
vn -0.8062885 0.4655104 -0.3649644
vn 0 0.9310214 -0.3649645
vn 0 0.9310214 -0.3649646
vn 0 0.9310214 -0.3649646
vn 0 0.9310214 -0.3649646
vn 0.7757126 0.4478582 0.4446268
vn 0.7757127 0.4478581 0.4446268
vn 0.7757131 -0.4478577 0.4446262
vn 0.7757131 -0.4478578 0.4446263
vn 0.7757131 -0.4478578 0.4446263
vn 0 -0.8957164 0.4446258
vn 0 -0.8957164 0.4446258
vn 0 -0.8957164 0.4446258
vn -0.7757129 -0.4478579 0.4446267
vn -0.7757128 -0.4478579 0.4446266
vn -0.7757128 -0.4478579 0.4446266
vn -0.7757134 0.4478579 0.4446259
vn -0.7757133 0.4478579 0.4446258
vn -0.7757134 0.4478579 0.4446258
vn 0 0.8957165 0.4446258
vn 0 0.8957165 0.4446257
vn 0 0.8957165 0.4446258
vn 0 0.8957165 0.4446258
vn 0 0.5645812 0.8253775
vn 0 0.5645812 0.8253775
vn -0.4889423 0.2822892 0.8253776
vn -0.4889423 0.2822893 0.8253776
vn -0.4889423 0.2822892 0.8253776
vn -0.4889421 -0.2822907 0.8253773
vn -0.4889421 -0.2822907 0.8253773
vn -0.4889421 -0.2822907 0.8253773
vn 0 -0.5645812 0.8253776
vn 0 -0.5645812 0.8253776
vn 0 -0.5645812 0.8253775
vn 0.4889422 -0.2822901 0.8253774
vn 0.4889422 -0.2822901 0.8253774
vn 0.4889422 -0.2822901 0.8253774
vn 0.488942 0.2822916 0.825377
vn 0.488942 0.2822916 0.825377
vn 0.4889419 0.2822916 0.825377
vn 0.4842021 0.2795543 -0.8290946
vn 0.484202 0.2795543 -0.8290946
vn 0.4842022 -0.2795535 -0.8290947
vn 0.4842022 -0.2795536 -0.8290947
vn 0.4842022 -0.2795535 -0.8290947
vn 0 -0.559108 -0.8290948
vn 0 -0.559108 -0.8290948
vn 0 -0.559108 -0.8290948
vn -0.484202 -0.2795543 -0.8290946
vn -0.4842021 -0.2795543 -0.8290946
vn -0.4842021 -0.2795543 -0.8290946
vn -0.4842021 0.2795536 -0.8290947
vn -0.4842022 0.2795536 -0.8290947
vn -0.4842021 0.2795536 -0.8290947
vn 0 0.5591081 -0.8290948
vn 0 0.5591081 -0.8290948
vn 0 0.5591081 -0.8290948
g SM_Prop_Drum_Stick_01_0
f 112/112/112 37/37/37 111/111/111
f 115/115/115 114/114/114 113/113/113
f 118/118/118 117/117/117 116/116/116
f 121/121/121 120/120/120 119/119/119
f 124/124/124 123/123/123 122/122/122
f 127/127/127 126/126/126 125/125/125
f 129/129/129 38/38/38 128/128/128
f 132/132/132 131/131/131 130/130/130
f 135/135/135 134/134/134 133/133/133
f 138/138/138 137/137/137 136/136/136
f 141/141/141 140/140/140 139/139/139
f 144/144/144 143/143/143 142/142/142
f 2/2/2 18/18/18 1/1/1
f 18/18/18 13/13/13 1/1/1
f 18/18/18 56/56/56 13/13/13
f 56/56/56 55/55/55 13/13/13
f 3/3/3 17/17/17 39/39/39
f 17/17/17 40/40/40 39/39/39
f 17/17/17 54/54/54 40/40/40
f 54/54/54 24/24/24 40/40/40
f 4/4/4 16/16/16 41/41/41
f 16/16/16 42/42/42 41/41/41
f 16/16/16 53/53/53 42/42/42
f 53/53/53 23/23/23 42/42/42
f 5/5/5 15/15/15 43/43/43
f 15/15/15 44/44/44 43/43/43
f 15/15/15 52/52/52 44/44/44
f 52/52/52 22/22/22 44/44/44
f 6/6/6 14/14/14 45/45/45
f 14/14/14 46/46/46 45/45/45
f 14/14/14 51/51/51 46/46/46
f 51/51/51 21/21/21 46/46/46
f 50/50/50 49/49/49 47/47/47
f 49/49/49 48/48/48 47/47/47
f 49/49/49 19/19/19 48/48/48
f 19/19/19 20/20/20 48/48/48
f 25/25/25 26/26/26 57/57/57
f 58/58/58 25/25/25 57/57/57
f 60/60/60 27/27/27 59/59/59
f 61/61/61 60/60/60 59/59/59
f 63/63/63 28/28/28 62/62/62
f 64/64/64 63/63/63 62/62/62
f 66/66/66 29/29/29 65/65/65
f 67/67/67 66/66/66 65/65/65
f 69/69/69 30/30/30 68/68/68
f 70/70/70 69/69/69 68/68/68
f 73/73/73 72/72/72 71/71/71
f 74/74/74 73/73/73 71/71/71
f 31/31/31 32/32/32 75/75/75
f 76/76/76 31/31/31 75/75/75
f 78/78/78 33/33/33 77/77/77
f 79/79/79 78/78/78 77/77/77
f 81/81/81 34/34/34 80/80/80
f 82/82/82 81/81/81 80/80/80
f 84/84/84 35/35/35 83/83/83
f 85/85/85 84/84/84 83/83/83
f 87/87/87 36/36/36 86/86/86
f 88/88/88 87/87/87 86/86/86
f 91/91/91 90/90/90 89/89/89
f 92/92/92 91/91/91 89/89/89
f 7/7/7 12/12/12 93/93/93
f 94/94/94 7/7/7 93/93/93
f 96/96/96 11/11/11 95/95/95
f 97/97/97 96/96/96 95/95/95
f 99/99/99 10/10/10 98/98/98
f 100/100/100 99/99/99 98/98/98
f 102/102/102 9/9/9 101/101/101
f 103/103/103 102/102/102 101/101/101
f 105/105/105 8/8/8 104/104/104
f 106/106/106 105/105/105 104/104/104
f 109/109/109 108/108/108 107/107/107
f 110/110/110 109/109/109 107/107/107
