g SM_Prop_Magnifying_Glass_01_Glass
v 0.02352173 0.09968659 0.007666435
v 0.02352173 0.09968659 -0.007666435
v -0.02352173 0.09968659 -0.007666435
v -0.02352173 0.09968659 0.007666435
v -0.02352173 0.09968659 0.007666435
v -0.02352173 0.09968659 -0.007666435
v -0.05678711 0.1329517 -0.007666435
v -0.05678711 0.1329517 0.007666435
v -0.05678711 0.1329517 0.007666435
v -0.05678711 0.1329517 -0.007666435
v -0.05678711 0.1799955 -0.007666435
v -0.05678711 0.1799955 0.007666435
v -0.05678711 0.1799955 0.007666435
v -0.05678711 0.1799955 -0.007666435
v -0.02352173 0.2132606 -0.007666435
v -0.02352173 0.2132606 0.007666435
v -0.02352173 0.2132606 0.007666435
v -0.02352173 0.2132606 -0.007666435
v 0.02352173 0.2132606 -0.007666435
v 0.02352173 0.2132606 0.007666435
v 0.02352173 0.2132606 0.007666435
v 0.02352173 0.2132606 -0.007666435
v 0.05678711 0.1799955 -0.007666435
v 0.05678711 0.1799955 0.007666435
v 0.05678711 0.1799955 0.007666435
v 0.05678711 0.1799955 -0.007666435
v 0.05678711 0.1329516 -0.007666435
v 0.05678711 0.1329517 0.007666435
v 0.05678711 0.1329517 0.007666435
v 0.05678711 0.1329516 -0.007666435
v 0.02352173 0.09968659 -0.007666435
v 0.02352173 0.09968659 0.007666435
v 0.02352173 0.09968659 0.007666435
v 0.01295898 0.1251866 0.01531238
v 0.03128662 0.1435141 0.01531238
v 0 0.1564736 0.01741686
v 0.05678711 0.1329517 0.007666435
v -0.02352173 0.09968659 0.007666435
v 0.03128662 0.1694331 0.01531238
v 0.05678711 0.1799955 0.007666435
v -0.01295898 0.1251866 0.01531238
v -0.05678711 0.1329517 0.007666435
v 0.01295898 0.1877605 0.01531238
v 0.02352173 0.2132606 0.007666435
v -0.03128662 0.1435141 0.01531238
v -0.05678711 0.1799955 0.007666435
v -0.01295898 0.1877605 0.01531238
v -0.02352173 0.2132606 0.007666435
v -0.03128662 0.1694331 0.01531238
v 0.02352173 0.09968659 -0.007666435
v 0.01295898 0.1251866 -0.01531238
v -0.01295898 0.1251866 -0.01531238
v 0 0.1564736 -0.01741686
v -0.02352173 0.09968659 -0.007666435
v 0.05678711 0.1329516 -0.007666435
v -0.03128662 0.1435141 -0.01531238
v -0.05678711 0.1329517 -0.007666435
v 0.03128662 0.1435141 -0.01531238
v 0.05678711 0.1799955 -0.007666435
v -0.03128662 0.1694331 -0.01531238
v -0.05678711 0.1799955 -0.007666435
v 0.03128662 0.1694331 -0.01531238
v 0.02352173 0.2132606 -0.007666435
v -0.01295898 0.1877605 -0.01531238
v -0.02352173 0.2132606 -0.007666435
v 0.01295898 0.1877605 -0.01531238
vt -0.8524443 0.2081662
vt -0.8524464 0.2080855
vt -0.8520715 0.2080865
vt -0.8520774 0.2081671
vt -0.8520774 0.2081671
vt -0.8520715 0.2080865
vt -0.8517853 0.2082914
vt -0.8517976 0.2083707
vt -0.8517976 0.2083707
vt -0.8517853 0.2082914
vt -0.8517524 0.2086104
vt -0.8517662 0.2086871
vt -0.8517662 0.2086871
vt -0.8517524 0.2086104
vt -0.8520329 0.2088599
vt -0.8520405 0.2089338
vt -0.8520405 0.2089338
vt -0.8520329 0.2088599
vt -0.8524659 0.2088586
vt -0.8524629 0.2089325
vt -0.8524629 0.2089325
vt -0.8524659 0.2088586
vt -0.8527524 0.2086076
vt -0.8527429 0.2086843
vt -0.8527429 0.2086843
vt -0.8527524 0.2086076
vt -0.8527274 0.2082888
vt -0.8527189 0.2083682
vt -0.8527189 0.2083682
vt -0.8527274 0.2082888
vt -0.8524464 0.2080855
vt -0.8524443 0.2081662
vt -0.8524443 0.2081662
vt -0.8523629 0.2083588
vt -0.8525128 0.2084746
vt -0.8522575 0.2085653
vt -0.8527189 0.2083682
vt -0.8520774 0.2081671
vt -0.852519 0.2086479
vt -0.8527429 0.2086843
vt -0.8521569 0.2083594
vt -0.8517976 0.2083707
vt -0.8523663 0.2087778
vt -0.8524629 0.2089325
vt -0.8520043 0.208476
vt -0.8517662 0.2086871
vt -0.8521438 0.2087785
vt -0.8520405 0.2089338
vt -0.8519941 0.2086495
vt -0.8524464 0.2080855
vt -0.8523638 0.2081996
vt -0.8521484 0.2082002
vt -0.8522534 0.2084095
vt -0.8520715 0.2080865
vt -0.8527274 0.2082888
vt -0.8519886 0.2083185
vt -0.8517853 0.2082914
vt -0.8525206 0.208317
vt -0.8527524 0.2086076
vt -0.8519773 0.2084948
vt -0.8517524 0.2086104
vt -0.8525273 0.2084933
vt -0.8524659 0.2088586
vt -0.852134 0.2086264
vt -0.8520329 0.2088599
vt -0.8523674 0.2086257
vn 0 -1 0
vn 0 -1 0
vn 0 -1 0
vn 0 -1 0
vn -0.7071069 -0.7071066 0
vn -0.7071069 -0.7071066 0
vn -0.7071069 -0.7071066 0
vn -0.7071069 -0.7071066 0
vn -1 0 0
vn -1 0 0
vn -1 0 0
vn -1 0 0
vn -0.7071068 0.7071068 -1.189916E-06
vn -0.7071068 0.7071068 -1.189916E-06
vn -0.7071068 0.7071068 -1.189916E-06
vn -0.7071068 0.7071068 -1.189916E-06
vn 0 1 0
vn 0 1 0
vn 0 1 0
vn 0 1 0
vn 0.7071068 0.7071068 -1.189916E-06
vn 0.7071068 0.7071068 -1.189916E-06
vn 0.7071068 0.7071068 -1.189916E-06
vn 0.7071068 0.7071068 -1.189916E-06
vn 1 0 0
vn 1 0 0
vn 1 0 0
vn 1 0 0
vn 0.7071066 -0.7071069 1.189915E-06
vn 0.7071066 -0.7071068 1.189915E-06
vn 0.7071066 -0.7071069 1.189914E-06
vn 0.7071066 -0.7071069 1.189915E-06
vn 0.1021623 -0.2466418 0.9637068
vn 0.033972 -0.0820158 0.9960518
vn 0.08201577 -0.03397214 0.9960518
vn 0.033972 -0.0820158 0.9960518
vn 0.2466421 -0.1021624 0.9637067
vn -0.1021625 -0.2466418 0.9637067
vn 0.08201583 0.03397202 0.9960518
vn 0.246642 0.1021628 0.9637067
vn -0.03397209 -0.08201584 0.9960518
vn -0.2466423 -0.1021625 0.9637066
vn 0.03397206 0.08201584 0.9960518
vn 0.1021625 0.2466424 0.9637066
vn -0.08201587 -0.03397218 0.9960518
vn -0.2466422 0.1021627 0.9637066
vn -0.03397211 0.08201588 0.9960518
vn -0.1021626 0.2466425 0.9637065
vn -0.0820159 0.03397201 0.9960518
vn 0.1021625 -0.2466422 -0.9637066
vn 0.0339721 -0.08201577 -0.9960518
vn -0.03397204 -0.08201576 -0.9960518
vn 0.0339721 -0.08201577 -0.9960518
vn -0.1021624 -0.2466423 -0.9637066
vn 0.2466421 -0.1021627 -0.9637067
vn -0.08201573 -0.03397194 -0.9960518
vn -0.246642 -0.1021625 -0.9637067
vn 0.08201584 -0.03397197 -0.9960518
vn 0.2466419 0.1021625 -0.9637067
vn -0.08201573 0.03397222 -0.9960518
vn -0.2466419 0.1021626 -0.9637067
vn 0.0820158 0.03397221 -0.9960518
vn 0.1021624 0.2466421 -0.9637067
vn -0.03397201 0.08201596 -0.9960518
vn -0.1021624 0.2466423 -0.9637066
vn 0.03397206 0.08201596 -0.9960518
g SM_Prop_Magnifying_Glass_01_Glass_0
f 3/3/3 2/2/2 1/1/1
f 4/4/4 3/3/3 1/1/1
f 7/7/7 6/6/6 5/5/5
f 8/8/8 7/7/7 5/5/5
f 11/11/11 10/10/10 9/9/9
f 12/12/12 11/11/11 9/9/9
f 15/15/15 14/14/14 13/13/13
f 16/16/16 15/15/15 13/13/13
f 19/19/19 18/18/18 17/17/17
f 20/20/20 19/19/19 17/17/17
f 23/23/23 22/22/22 21/21/21
f 24/24/24 23/23/23 21/21/21
f 27/27/27 26/26/26 25/25/25
f 28/28/28 27/27/27 25/25/25
f 31/31/31 30/30/30 29/29/29
f 32/32/32 31/31/31 29/29/29
f 35/35/35 34/34/34 33/33/33
f 35/35/35 36/36/36 34/34/34
f 37/37/37 35/35/35 33/33/33
f 33/33/33 34/34/34 38/38/38
f 39/39/39 35/35/35 37/37/37
f 39/39/39 36/36/36 35/35/35
f 40/40/40 39/39/39 37/37/37
f 34/34/34 41/41/41 38/38/38
f 34/34/34 36/36/36 41/41/41
f 38/38/38 41/41/41 42/42/42
f 43/43/43 39/39/39 40/40/40
f 43/43/43 36/36/36 39/39/39
f 44/44/44 43/43/43 40/40/40
f 41/41/41 45/45/45 42/42/42
f 41/41/41 36/36/36 45/45/45
f 42/42/42 45/45/45 46/46/46
f 47/47/47 43/43/43 44/44/44
f 47/47/47 36/36/36 43/43/43
f 48/48/48 47/47/47 44/44/44
f 46/46/46 49/49/49 48/48/48
f 45/45/45 49/49/49 46/46/46
f 45/45/45 36/36/36 49/49/49
f 49/49/49 47/47/47 48/48/48
f 49/49/49 36/36/36 47/47/47
f 52/52/52 51/51/51 50/50/50
f 52/52/52 53/53/53 51/51/51
f 54/54/54 52/52/52 50/50/50
f 50/50/50 51/51/51 55/55/55
f 56/56/56 52/52/52 54/54/54
f 56/56/56 53/53/53 52/52/52
f 57/57/57 56/56/56 54/54/54
f 51/51/51 58/58/58 55/55/55
f 51/51/51 53/53/53 58/58/58
f 55/55/55 58/58/58 59/59/59
f 60/60/60 56/56/56 57/57/57
f 60/60/60 53/53/53 56/56/56
f 61/61/61 60/60/60 57/57/57
f 58/58/58 62/62/62 59/59/59
f 58/58/58 53/53/53 62/62/62
f 59/59/59 62/62/62 63/63/63
f 64/64/64 60/60/60 61/61/61
f 64/64/64 53/53/53 60/60/60
f 65/65/65 64/64/64 61/61/61
f 63/63/63 66/66/66 65/65/65
f 62/62/62 66/66/66 63/63/63
f 62/62/62 53/53/53 66/66/66
f 66/66/66 64/64/64 65/65/65
f 66/66/66 53/53/53 64/64/64
