g SM_Prop_PaperRoll_01
v -0.08235534 0.08152546 0.1133984
v -0.08061859 0.08011501 -0.1144714
v -0.05209015 0.1198023 -0.1144998
v -0.05382812 0.1212125 0.1133707
v -0.05382812 0.1212125 0.1133707
v -0.05209015 0.1198023 -0.1144998
v -0.003856506 0.1276927 -0.1141821
v -0.005595093 0.1291029 0.1136883
v -0.005595093 0.1291029 0.1136883
v -0.003856506 0.1276927 -0.1141821
v 0.03582885 0.09916561 -0.1136993
v 0.03409088 0.1005761 0.1141666
v 0.03409088 0.1005761 0.1141666
v 0.03582885 0.09916561 -0.1136993
v 0.09421936 0.004948768 -0.1126715
v 0.08058746 0.02555347 0.1149875
v 0.01518829 0.01124363 -0.113316
v 0.01345001 0.01265385 0.1145538
v 0.04197937 0.0523402 0.1145258
v 0.04371765 0.05092998 -0.1133441
v 0.01345001 0.01265385 0.1145538
v 0.01518829 0.01124363 -0.113316
v -0.03304352 0.003352508 -0.113634
v -0.0347818 0.004762688 0.1142367
v -0.0347818 0.004762688 0.1142367
v -0.03304352 0.003352508 -0.113634
v -0.07273132 0.03187908 -0.1141125
v -0.0744693 0.03328945 0.1137579
v -0.0744693 0.03328945 0.1137579
v -0.07273132 0.03187908 -0.1141125
v -0.08061859 0.08011501 -0.1144714
v -0.08235534 0.08152546 0.1133984
v 0.01089569 0.05963741 0.1142459
v -0.003367615 0.03979366 0.1142602
v 0.00695343 0.08375576 0.1140646
v -0.01289062 0.09801853 0.1138272
v -0.03700836 0.09407306 0.1136649
v -0.05127014 0.07422955 0.1136792
v -0.04732788 0.05011188 0.1138605
v -0.02748413 0.03584835 0.1140979
v 0.008690185 0.08234539 -0.1138058
v -0.001629944 0.03838337 -0.1136096
v 0.01263397 0.05822704 -0.113624
v -0.01115478 0.09660816 -0.1140433
v -0.03527008 0.09266285 -0.114202
v -0.04953369 0.07281917 -0.1141876
v -0.04558929 0.04870159 -0.11401
v -0.02574585 0.03443783 -0.1137689
v 0.03582885 0.09916561 -0.1136993
v 0.08623596 0 -0.1127032
v 0.09421936 0.004948768 -0.1126715
v 0.04176605 0.07175685 -0.1134869
v 0.01263397 0.05822704 -0.113624
v 0.04371765 0.05092998 -0.1133441
v 0.008690185 0.08234539 -0.1138058
v -0.001629944 0.03838337 -0.1136096
v -0.003856506 0.1276927 -0.1141821
v 0.01518829 0.01124363 -0.113316
v -0.01115478 0.09660816 -0.1140433
v -0.02574585 0.03443783 -0.1137689
v -0.05209015 0.1198023 -0.1144998
v -0.03304352 0.003352508 -0.113634
v -0.03527008 0.09266285 -0.114202
v -0.04558929 0.04870159 -0.11401
v -0.08061859 0.08011501 -0.1144714
v -0.07273132 0.03187908 -0.1141125
v -0.04953369 0.07281917 -0.1141876
v 0.09421936 0.004948768 -0.1126715
v 0.08623596 0 -0.1127032
v 0.07260589 0.0206049 0.1149557
v 0.08058746 0.02555347 0.1149875
v 0.04176605 0.07175685 -0.1134869
v 0.04371765 0.05092998 -0.1133441
v 0.04197937 0.0523402 0.1145258
v 0.04002685 0.07316715 0.1143835
v 0.08623596 0 -0.1127032
v 0.04176605 0.07175685 -0.1134869
v 0.04002685 0.07316715 0.1143835
v 0.07260589 0.0206049 0.1149557
v 0.03409088 0.1005761 0.1141666
v 0.08058746 0.02555347 0.1149875
v 0.07260589 0.0206049 0.1149557
v 0.04002685 0.07316715 0.1143835
v 0.01089569 0.05963741 0.1142459
v 0.04197937 0.0523402 0.1145258
v 0.01345001 0.01265385 0.1145538
v 0.00695343 0.08375576 0.1140646
v -0.003367615 0.03979366 0.1142602
v -0.01289062 0.09801853 0.1138272
v -0.0347818 0.004762688 0.1142367
v -0.005595093 0.1291029 0.1136883
v -0.02748413 0.03584835 0.1140979
v -0.03700836 0.09407306 0.1136649
v -0.0744693 0.03328945 0.1137579
v -0.05382812 0.1212125 0.1133707
v -0.04732788 0.05011188 0.1138605
v -0.05127014 0.07422955 0.1136792
v -0.08235534 0.08152546 0.1133984
vt 0.0699628 0.3786782
vt 0.07007352 0.3788504
vt 0.07011527 0.3787911
vt 0.07000101 0.378623
vt 0.07000101 0.378623
vt 0.07011527 0.3787911
vt 0.07018447 0.3787676
vt 0.07006541 0.3786021
vt 0.07006541 0.3786021
vt 0.07018447 0.3787676
vt 0.07023939 0.3787937
vt 0.07011726 0.3786278
vt 0.07011726 0.3786278
vt 0.07023939 0.3787937
vt 0.07031527 0.3788965
vt 0.07017559 0.3787066
vt 0.07020706 0.3789107
vt 0.07008874 0.3787378
vt 0.07012653 0.3786839
vt 0.07024825 0.378853
vt 0.07008874 0.3787378
vt 0.07020706 0.3789107
vt 0.0701395 0.3789343
vt 0.0700258 0.3787589
vt 0.0700258 0.3787589
vt 0.0701395 0.3789343
vt 0.07008404 0.3789097
vt 0.0699735 0.3787346
vt 0.0699735 0.3787346
vt 0.07008404 0.3789097
vt 0.07007352 0.3788504
vt 0.0699628 0.3786782
vt 0.07975221 0.2779974
vt 0.07988089 0.2781565
vt 0.07978648 0.2777959
vt 0.07997155 0.2776723
vt 0.08019619 0.2777062
vt 0.08032082 0.2778752
vt 0.08027567 0.2780732
vt 0.08009462 0.2781869
vt 0.07980293 0.2772696
vt 0.07986349 0.2775157
vt 0.07978064 0.2774063
vt 0.07992053 0.2771869
vt 0.08006345 0.2772096
vt 0.08014475 0.2773234
vt 0.08011796 0.2774586
vt 0.08000197 0.277537
vt 0.07023939 0.3787937
vt 0.07030416 0.3789048
vt 0.07031527 0.3788965
vt 0.07024649 0.3788272
vt 0.07020524 0.3788524
vt 0.07024825 0.378853
vt 0.07020062 0.3788227
vt 0.07018459 0.3788814
vt 0.07018447 0.3787676
vt 0.07020706 0.3789107
vt 0.07017308 0.3788099
vt 0.07015061 0.3788932
vt 0.07011527 0.3787911
vt 0.0701395 0.3789343
vt 0.07013869 0.3788216
vt 0.07012293 0.3788807
vt 0.07007352 0.3788504
vt 0.07008404 0.3789097
vt 0.07011789 0.3788511
vt 0.07031527 0.3788965
vt 0.07030416 0.3789048
vt 0.07016522 0.3787144
vt 0.07017559 0.3787066
vt 0.07024649 0.3788272
vt 0.07024825 0.378853
vt 0.07012653 0.3786839
vt 0.07012442 0.3786595
vt 0.07030416 0.3789048
vt 0.07024649 0.3788272
vt 0.07012442 0.3786595
vt 0.07016522 0.3787144
vt 0.07011726 0.3786278
vt 0.07017559 0.3787066
vt 0.07016522 0.3787144
vt 0.07012442 0.3786595
vt 0.07008615 0.3786825
vt 0.07012653 0.3786839
vt 0.07008874 0.3787378
vt 0.07008135 0.3786544
vt 0.07006723 0.3787096
vt 0.0700554 0.3786418
vt 0.0700258 0.3787589
vt 0.07006541 0.3786021
vt 0.07003558 0.3787202
vt 0.07002336 0.3786522
vt 0.0699735 0.3787346
vt 0.07000101 0.378623
vt 0.07000947 0.3787079
vt 0.07000431 0.3786797
vt 0.0699628 0.3786782
vn -0.8119536 0.5836397 -0.009802891
vn -0.8119536 0.5836397 -0.009802891
vn -0.8119536 0.5836397 -0.009802891
vn -0.8119535 0.5836397 -0.009802891
vn -0.1613907 0.9868634 -0.007338525
vn -0.1613907 0.9868634 -0.007338525
vn -0.1613907 0.9868634 -0.007338525
vn -0.1613907 0.9868634 -0.007338525
vn 0.5836794 0.8119839 -0.0005729965
vn 0.5836794 0.8119839 -0.0005729965
vn 0.5836794 0.8119839 -0.0005729965
vn 0.5836794 0.8119839 -0.0005729965
vn 0.8499756 0.5268123 0.003218607
vn 0.8499756 0.5268123 0.003218607
vn 0.8499756 0.5268123 0.003218607
vn 0.8499756 0.5268124 0.003218607
vn 0.8119333 -0.583668 0.009805897
vn 0.8119333 -0.583668 0.009805897
vn 0.8119333 -0.583668 0.009805897
vn 0.8119333 -0.583668 0.009805897
vn 0.1614105 -0.9868601 0.007338582
vn 0.1614105 -0.9868601 0.007338583
vn 0.1614105 -0.9868601 0.007338582
vn 0.1614105 -0.9868601 0.007338582
vn -0.5836563 -0.8120006 0.0005734606
vn -0.5836563 -0.8120006 0.0005734606
vn -0.5836563 -0.8120006 0.0005734606
vn -0.5836563 -0.8120006 0.0005734606
vn -0.986867 -0.1614029 -0.006525229
vn -0.986867 -0.1614029 -0.006525228
vn -0.986867 -0.1614029 -0.006525229
vn -0.986867 -0.1614029 -0.006525229
vn -0.007589281 0.006177111 0.9999522
vn -0.007607098 0.006168153 0.9999521
vn -0.007562545 0.006218778 0.9999521
vn -0.007623374 0.006191958 0.9999518
vn -0.007636634 0.006178064 0.9999518
vn -0.007604803 0.006204078 0.9999518
vn -0.007595779 0.006222002 0.9999518
vn -0.007615211 0.006162628 0.9999521
vn 0.007642922 -0.006207549 -0.9999516
vn 0.007582541 -0.006144219 -0.9999524
vn 0.007597767 -0.006169827 -0.9999521
vn 0.00761504 -0.006215388 -0.9999517
vn 0.007627041 -0.006229735 -0.9999515
vn 0.007647446 -0.006189734 -0.9999516
vn 0.007651412 -0.006159826 -0.9999518
vn 0.007624491 -0.006159521 -0.999952
vn 0.007674323 -0.00616125 -0.9999516
vn 0.007805376 -0.006076689 -0.9999511
vn 0.007805376 -0.006076689 -0.9999511
vn 0.007724662 -0.006092269 -0.9999516
vn 0.007597767 -0.006169827 -0.9999521
vn 0.007555312 -0.006144292 -0.9999526
vn 0.007642922 -0.006207549 -0.9999516
vn 0.007582541 -0.006144219 -0.9999524
vn 0.007631922 -0.006217508 -0.9999516
vn 0.00757586 -0.0061295 -0.9999526
vn 0.00761504 -0.006215388 -0.9999517
vn 0.007624491 -0.006159521 -0.999952
vn 0.007636308 -0.006241706 -0.9999514
vn 0.007623475 -0.006145142 -0.9999521
vn 0.007627041 -0.006229735 -0.9999515
vn 0.007651412 -0.006159826 -0.9999518
vn 0.007654312 -0.006196058 -0.9999515
vn 0.00764648 -0.006169406 -0.9999517
vn 0.007647446 -0.006189734 -0.9999516
vn 0.5235213 -0.8451605 0.1078388
vn 0.5235213 -0.8451605 0.1078388
vn 0.5235213 -0.8451605 0.1078388
vn 0.5235213 -0.8451605 0.1078388
vn 0.9956073 0.09336395 0.007019061
vn 0.9956073 0.09336393 0.007019061
vn 0.9956073 0.09336393 0.007019061
vn 0.9956073 0.09336393 0.007019061
vn -0.8499711 -0.5268196 -0.003216906
vn -0.8499711 -0.5268196 -0.003216907
vn -0.8499711 -0.5268196 -0.003216907
vn -0.8499711 -0.5268196 -0.003216907
vn -0.007584543 0.006219919 0.999952
vn -0.007604791 0.00620534 0.9999518
vn -0.007604792 0.006205341 0.9999518
vn -0.007607111 0.006209014 0.9999518
vn -0.007589281 0.006177111 0.9999522
vn -0.007557052 0.0061371 0.9999527
vn -0.007595672 0.006160339 0.9999522
vn -0.007562545 0.006218778 0.9999521
vn -0.007607098 0.006168153 0.9999521
vn -0.007623374 0.006191958 0.9999518
vn -0.007605061 0.006189884 0.999952
vn -0.007603628 0.006195808 0.999952
vn -0.007615211 0.006162628 0.9999521
vn -0.007636634 0.006178064 0.9999518
vn -0.007587526 0.006216393 0.999952
vn -0.007612146 0.006170209 0.999952
vn -0.007595779 0.006222002 0.9999518
vn -0.007604803 0.006204078 0.9999518
vn -0.007589849 0.006192452 0.9999521
g SM_Prop_PaperRoll_01_0
f 3/3/3 2/2/2 1/1/1
f 4/4/4 3/3/3 1/1/1
f 7/7/7 6/6/6 5/5/5
f 8/8/8 7/7/7 5/5/5
f 11/11/11 10/10/10 9/9/9
f 12/12/12 11/11/11 9/9/9
f 15/15/15 14/14/14 13/13/13
f 16/16/16 15/15/15 13/13/13
f 19/19/19 18/18/18 17/17/17
f 20/20/20 19/19/19 17/17/17
f 23/23/23 22/22/22 21/21/21
f 24/24/24 23/23/23 21/21/21
f 27/27/27 26/26/26 25/25/25
f 28/28/28 27/27/27 25/25/25
f 31/31/31 30/30/30 29/29/29
f 32/32/32 31/31/31 29/29/29
f 35/35/35 34/34/34 33/33/33
f 36/36/36 34/34/34 35/35/35
f 37/37/37 34/34/34 36/36/36
f 38/38/38 34/34/34 37/37/37
f 39/39/39 34/34/34 38/38/38
f 40/40/40 34/34/34 39/39/39
f 43/43/43 42/42/42 41/41/41
f 41/41/41 42/42/42 44/44/44
f 44/44/44 42/42/42 45/45/45
f 45/45/45 42/42/42 46/46/46
f 46/46/46 42/42/42 47/47/47
f 47/47/47 42/42/42 48/48/48
f 51/51/51 50/50/50 49/49/49
f 50/50/50 52/52/52 49/49/49
f 53/53/53 49/49/49 52/52/52
f 52/52/52 54/54/54 53/53/53
f 53/53/53 55/55/55 49/49/49
f 56/56/56 53/53/53 54/54/54
f 49/49/49 55/55/55 57/57/57
f 58/58/58 56/56/56 54/54/54
f 55/55/55 59/59/59 57/57/57
f 60/60/60 56/56/56 58/58/58
f 57/57/57 59/59/59 61/61/61
f 62/62/62 60/60/60 58/58/58
f 59/59/59 63/63/63 61/61/61
f 64/64/64 60/60/60 62/62/62
f 61/61/61 63/63/63 65/65/65
f 66/66/66 64/64/64 62/62/62
f 63/63/63 67/67/67 65/65/65
f 67/67/67 64/64/64 66/66/66
f 65/65/65 67/67/67 66/66/66
f 70/70/70 69/69/69 68/68/68
f 71/71/71 70/70/70 68/68/68
f 74/74/74 73/73/73 72/72/72
f 75/75/75 74/74/74 72/72/72
f 78/78/78 77/77/77 76/76/76
f 79/79/79 78/78/78 76/76/76
f 82/82/82 81/81/81 80/80/80
f 83/83/83 82/82/82 80/80/80
f 83/83/83 80/80/80 84/84/84
f 84/84/84 85/85/85 83/83/83
f 85/85/85 84/84/84 86/86/86
f 80/80/80 87/87/87 84/84/84
f 84/84/84 88/88/88 86/86/86
f 89/89/89 87/87/87 80/80/80
f 86/86/86 88/88/88 90/90/90
f 91/91/91 89/89/89 80/80/80
f 88/88/88 92/92/92 90/90/90
f 93/93/93 89/89/89 91/91/91
f 90/90/90 92/92/92 94/94/94
f 95/95/95 93/93/93 91/91/91
f 92/92/92 96/96/96 94/94/94
f 97/97/97 93/93/93 95/95/95
f 94/94/94 96/96/96 98/98/98
f 98/98/98 97/97/97 95/95/95
f 96/96/96 97/97/97 98/98/98
