g SM_Prop_Fan_Desk_01
v 0.01337738 0.4551803 -0.1108798
v 0.01337738 0.1713017 -0.1108813
v -0.01337738 0.1713017 -0.1108813
v -0.01337738 0.4551803 -0.1108798
v -0.01337738 0.4551803 -0.1108798
v -0.01337738 0.1713017 -0.1108813
v -0.02675629 0.1713017 -0.1340518
v -0.02675629 0.4551803 -0.1340518
v -0.02675629 0.4551803 -0.1340518
v -0.02675629 0.1713017 -0.1340518
v -0.01337738 0.1713017 -0.1572238
v -0.01337738 0.4551803 -0.1572238
v -0.01337738 0.4551803 -0.1572238
v -0.01337738 0.1713017 -0.1572238
v 0.01337738 0.1713017 -0.1572238
v 0.01337738 0.4551803 -0.1572238
v 0.01337738 0.4551803 -0.1572238
v 0.01337738 0.1713017 -0.1572238
v 0.02675629 0.1713017 -0.1340518
v 0.02675629 0.4551803 -0.1340518
v 0.02675629 0.4551803 -0.1340518
v 0.02675629 0.1713017 -0.1340518
v 0.01337738 0.1713017 -0.1108813
v 0.01337738 0.4551803 -0.1108798
v -0.04128723 0.05463257 0.0482092
v -0.04128723 0.08500671 0.0482092
v -0.04710693 0.08500671 0.05828878
v -0.04710693 0.05463257 0.05828878
v -0.04128723 0.08500671 0.0482092
v -0.00292511 0.08500671 0.06594243
v -0.01256866 0.08500671 0.08264501
v -0.04710693 0.08500671 0.05828878
v -0.00292511 0.08500671 0.06594243
v -0.00292511 0.05463257 0.06594243
v -0.01256866 0.05463257 0.08264501
v -0.01256866 0.08500671 0.08264501
v -0.00292511 0.05463257 0.06594243
v -0.04128723 0.05463257 0.0482092
v -0.04710693 0.05463257 0.05828878
v -0.01256866 0.05463257 0.08264501
v -0.04710693 0.05463257 0.05828878
v -0.04710693 0.08500671 0.05828878
v -0.01256866 0.08500671 0.08264501
v -0.01256866 0.05463257 0.08264501
v -0.00292511 0.05463257 0.06594243
v -0.00292511 0.08500671 0.06594243
v -0.04128723 0.08500671 0.0482092
v -0.04128723 0.05463257 0.0482092
v 0.02249146 0.05463257 0.1177208
v 0.01898498 0.07802887 0.1116503
v 0.03797302 0.07802887 0.07876424
v 0.04497986 0.05463257 0.07876609
v 0.04497986 0.05463257 0.07876609
v 0.03797302 0.07802887 0.07876424
v 0.01898498 0.07802887 0.04588185
v 0.02248993 0.05463257 0.03981141
v 0.02248993 0.05463257 0.03981141
v 0.01898498 0.07802887 0.04588185
v -0.01898498 0.07802887 0.04587999
v -0.02249146 0.05463257 0.03981141
v -0.02249146 0.05463257 0.03981141
v -0.01898498 0.07802887 0.04587999
v -0.03797302 0.07802887 0.07876609
v -0.04497986 0.05463257 0.07876609
v -0.04497986 0.05463257 0.07876609
v -0.03797302 0.07802887 0.07876609
v -0.01898498 0.07802887 0.1116503
v -0.02248993 0.05463257 0.1177208
v -0.02248993 0.05463257 0.1177208
v -0.01898498 0.07802887 0.1116503
v 0.01898498 0.07802887 0.1116503
v 0.02249146 0.05463257 0.1177208
v -0.06412353 -0.0132309 0.2068186
v -0.05520477 0.05463257 0.1813238
v 0.05520324 0.05463257 0.1813238
v 0.06412353 -0.0132309 0.2068186
v -0.03833008 0.05463258 0.136373
v 0.07077789 0.05463257 0.07854099
v 0.03832703 0.05463258 0.136373
v -0.07077789 0.05463257 0.07854099
v 0.03713684 0.05463257 0.02160192
v -0.03713684 0.05463257 0.02160192
v -0.04363479 0.05463257 -0.2025025
v -0.05068512 -0.0132309 -0.2025024
v 0.05068512 -0.0132309 -0.2025024
v 0.04363479 0.05463257 -0.2025025
v -0.1224815 -0.0132309 0.1100672
v -0.06412353 -0.0132309 0.2068186
v 0.06412353 -0.0132309 0.2068186
v 0.1224815 -0.0132309 0.1100672
v -0.07967453 -0.0132309 -0.09497009
v 0.07967453 -0.0132309 -0.09497009
v -0.05068512 -0.0132309 -0.2025024
v 0.05068512 -0.0132309 -0.2025024
v 0.06412353 -0.0132309 0.2068186
v 0.05520324 0.05463257 0.1813238
v 0.1054466 0.05463257 0.09802856
v 0.1224815 -0.0132309 0.1100672
v -0.1224815 -0.0132309 0.1100672
v -0.1054466 0.05463257 0.09802856
v -0.05520477 0.05463257 0.1813238
v -0.06412353 -0.0132309 0.2068186
v -0.07967453 -0.0132309 -0.09497009
v -0.1054466 0.05463257 0.09802856
v -0.1224815 -0.0132309 0.1100672
v -0.06859283 0.05463257 -0.09497009
v -0.04363479 0.05463257 -0.2025025
v -0.05068512 -0.0132309 -0.2025024
v 0.1054466 0.05463257 0.09802856
v 0.07967453 -0.0132309 -0.09497009
v 0.1224815 -0.0132309 0.1100672
v 0.06859283 0.05463257 -0.09497009
v 0.05068512 -0.0132309 -0.2025024
v 0.04363479 0.05463257 -0.2025025
v -0.06859283 0.1741379 -0.09497009
v -0.04363479 0.1741379 -0.1757203
v 0.04363479 0.1741379 -0.1757203
v 0.06859283 0.1741379 -0.09497009
v -0.06859283 0.05463257 -0.09497009
v -0.06859283 0.1741379 -0.09497009
v 0.06859283 0.1741379 -0.09497009
v 0.06859283 0.05463257 -0.09497009
v 0.06859283 0.05463257 -0.09497009
v 0.06859283 0.1741379 -0.09497009
v 0.04363479 0.1741379 -0.1757203
v 0.04363479 0.05463257 -0.2025025
v 0.04363479 0.05463257 -0.2025025
v 0.04363479 0.1741379 -0.1757203
v -0.04363479 0.1741379 -0.1757203
v -0.04363479 0.05463257 -0.2025025
v -0.04363479 0.05463257 -0.2025025
v -0.04363479 0.1741379 -0.1757203
v -0.06859283 0.1741379 -0.09497009
v -0.06859283 0.05463257 -0.09497009
v 0.01898498 0.07802887 0.1116503
v 0 0.07802887 0.07876609
v 0.03797302 0.07802887 0.07876424
v -0.01898498 0.07802887 0.1116503
v 0.01898498 0.07802887 0.04588185
v -0.03797302 0.07802887 0.07876609
v -0.01898498 0.07802887 0.04587999
v -0.05520477 0.05463257 0.1813238
v -0.03833008 0.05463258 0.136373
v 0.03832703 0.05463258 0.136373
v 0.05520324 0.05463257 0.1813238
v -0.1054466 0.05463257 0.09802856
v 0.07077789 0.05463257 0.07854099
v -0.07077789 0.05463257 0.07854099
v 0.1054466 0.05463257 0.09802856
v -0.06859283 0.05463257 -0.09497009
v 0.03713684 0.05463257 0.02160192
v -0.03713684 0.05463257 0.02160192
v 0.06859283 0.05463257 -0.09497009
vt 0.1341625 0.3811415
vt 0.1341625 0.3811415
vt 0.1341625 0.3811415
vt 0.1341625 0.3811415
vt 0.1341625 0.3811415
vt 0.1341625 0.3811415
vt 0.1341625 0.3811415
vt 0.1341625 0.3811415
vt 0.1341625 0.3811415
vt 0.1341625 0.3811415
vt 0.1341625 0.3811415
vt 0.1341625 0.3811415
vt 0.1341625 0.3811415
vt 0.1341625 0.3811415
vt 0.1341625 0.3811415
vt 0.1341625 0.3811415
vt 0.1341625 0.3811415
vt 0.1341625 0.3811415
vt 0.1341625 0.3811415
vt 0.1341625 0.3811415
vt 0.1341625 0.3811415
vt 0.1341625 0.3811415
vt 0.1341625 0.3811415
vt 0.1341625 0.3811415
vt 0.1325621 0.2821506
vt 0.1325621 0.2821506
vt 0.1325621 0.2821506
vt 0.1325621 0.2821506
vt 0.1325621 0.2821506
vt 0.1325621 0.2821506
vt 0.1325621 0.2821506
vt 0.1325621 0.2821506
vt 0.1325621 0.2821506
vt 0.1325621 0.2821506
vt 0.1325621 0.2821506
vt 0.1325621 0.2821506
vt 0.1325621 0.2821506
vt 0.1325621 0.2821506
vt 0.1325621 0.2821506
vt 0.1325621 0.2821506
vt 0.1325621 0.2821506
vt 0.1325621 0.2821506
vt 0.1325622 0.2821506
vt 0.1325622 0.2821506
vt 0.1325621 0.2821506
vt 0.1325621 0.2821506
vt 0.1325621 0.2821506
vt 0.1325621 0.2821506
vt 0.1314542 0.3022188
vt 0.1314542 0.3022188
vt 0.1314542 0.3022188
vt 0.1314542 0.3022188
vt 0.1314542 0.3022188
vt 0.1314542 0.3022188
vt 0.1314542 0.3022188
vt 0.1314542 0.3022188
vt 0.1314542 0.3022188
vt 0.1314542 0.3022188
vt 0.1314542 0.3022188
vt 0.1314542 0.3022188
vt 0.1314542 0.3022188
vt 0.1314542 0.3022188
vt 0.1314542 0.3022188
vt 0.1314542 0.3022188
vt 0.1314542 0.3022188
vt 0.1314542 0.3022188
vt 0.1314542 0.3022188
vt 0.1314542 0.3022188
vt 0.1314542 0.3022188
vt 0.1314542 0.3022188
vt 0.1314542 0.3022188
vt 0.1314542 0.3022188
vt 0.1341625 0.3811415
vt 0.1341625 0.3811415
vt 0.1341625 0.3811415
vt 0.1341625 0.3811415
vt 0.1332245 0.355257
vt 0.1332245 0.355257
vt 0.1332245 0.355257
vt 0.1332245 0.355257
vt 0.1332245 0.355257
vt 0.1332245 0.355257
vt 0.1341625 0.3811415
vt 0.1341625 0.3811415
vt 0.1341625 0.3811415
vt 0.1341625 0.3811415
vt 0.1341625 0.3811415
vt 0.1341625 0.3811415
vt 0.1341625 0.3811415
vt 0.1341625 0.3811415
vt 0.1341625 0.3811415
vt 0.1341625 0.3811415
vt 0.1341625 0.3811415
vt 0.1341625 0.3811415
vt 0.1341625 0.3811415
vt 0.1341625 0.3811415
vt 0.1341625 0.3811415
vt 0.1341625 0.3811415
vt 0.1341625 0.3811415
vt 0.1341625 0.3811415
vt 0.1341625 0.3811415
vt 0.1341625 0.3811415
vt 0.1341625 0.3811415
vt 0.1341625 0.3811415
vt 0.1341625 0.3811415
vt 0.1341625 0.3811415
vt 0.1341625 0.3811415
vt 0.1341625 0.3811415
vt 0.1341625 0.3811415
vt 0.1341625 0.3811415
vt 0.1341625 0.3811415
vt 0.1341625 0.3811415
vt 0.1341625 0.3811415
vt 0.1341625 0.3811415
vt 0.1341625 0.3811415
vt 0.1341625 0.3811415
vt 0.1341625 0.3811415
vt 0.1341625 0.3811415
vt 0.1341625 0.3811415
vt 0.1341625 0.3811415
vt 0.1341625 0.3811415
vt 0.1341625 0.3811415
vt 0.1341625 0.3811415
vt 0.1341625 0.3811415
vt 0.1341625 0.3811415
vt 0.1341625 0.3811415
vt 0.1341625 0.3811415
vt 0.1341625 0.3811415
vt 0.1341625 0.3811415
vt 0.1341625 0.3811415
vt 0.1341625 0.3811415
vt 0.1341625 0.3811415
vt 0.1341625 0.3811415
vt 0.1341625 0.3811415
vt 0.1314542 0.3022188
vt 0.1314542 0.3022188
vt 0.1314542 0.3022188
vt 0.1314542 0.3022188
vt 0.1314542 0.3022188
vt 0.1314542 0.3022188
vt 0.1314542 0.3022188
vt 0.1341625 0.3811415
vt 0.1341625 0.3811415
vt 0.1341625 0.3811415
vt 0.1341625 0.3811415
vt 0.1341625 0.3811415
vt 0.1341625 0.3811415
vt 0.1341625 0.3811415
vt 0.1341625 0.3811415
vt 0.1341625 0.3811415
vt 0.1341625 0.3811415
vt 0.1341625 0.3811415
vt 0.1341625 0.3811415
vn 0 0 1
vn 0 0 1
vn 0 0 1
vn 0 0 1
vn -0.8660094 0 0.5000276
vn -0.8660094 0 0.5000276
vn -0.8660094 0 0.5000276
vn -0.8660094 0 0.5000276
vn -0.8660166 0 -0.5000154
vn -0.8660166 0 -0.5000154
vn -0.8660166 0 -0.5000154
vn -0.8660166 0 -0.5000154
vn 0 0 -1
vn 0 0 -1
vn 0 0 -1
vn 0 0 -1
vn 0.8660166 0 -0.5000154
vn 0.8660166 0 -0.5000154
vn 0.8660166 0 -0.5000154
vn 0.8660166 0 -0.5000154
vn 0.8660094 0 0.5000276
vn 0.8660094 0 0.5000276
vn 0.8660094 0 0.5000276
vn 0.8660094 0 0.5000276
vn -0.866016 0 -0.5000162
vn -0.866016 0 -0.5000162
vn -0.866016 0 -0.5000162
vn -0.866016 0 -0.5000162
vn 0 1 0
vn 0 1 0
vn 0 1 0
vn 0 1 0
vn 0.8660184 0 0.5000122
vn 0.8660184 0 0.5000122
vn 0.8660184 0 0.5000122
vn 0.8660184 0 0.5000122
vn 0 -1 0
vn 0 -1 0
vn 0 -1 0
vn 0 -1 0
vn -0.5763084 0 0.8172323
vn -0.5763084 0 0.8172323
vn -0.5763084 0 0.8172323
vn -0.5763084 0 0.8172323
vn 0.4195972 0 -0.9077104
vn 0.4195972 0 -0.9077104
vn 0.4195972 0 -0.9077104
vn 0.4195972 0 -0.9077104
vn 0.8382728 0.2511468 0.4839669
vn 0.8382728 0.2511468 0.4839669
vn 0.8382728 0.2511468 0.4839669
vn 0.8382728 0.2511468 0.4839669
vn 0.838268 0.2510852 -0.4840071
vn 0.838268 0.2510852 -0.4840071
vn 0.838268 0.2510852 -0.4840071
vn 0.8382682 0.2510852 -0.4840071
vn 2.170644E-05 0.2511097 -0.9679586
vn 2.170644E-05 0.2511097 -0.9679586
vn 2.170644E-05 0.2511097 -0.9679586
vn 2.170644E-05 0.2511097 -0.9679586
vn -0.8382808 0.2511107 -0.4839717
vn -0.8382809 0.2511107 -0.4839716
vn -0.8382809 0.2511107 -0.4839717
vn -0.8382809 0.2511108 -0.4839717
vn -0.8382695 0.2511031 0.4839953
vn -0.8382695 0.2511031 0.4839953
vn -0.8382695 0.2511031 0.4839953
vn -0.8382695 0.2511031 0.4839953
vn 0 0.2511457 0.9679493
vn 0 0.2511457 0.9679493
vn 0 0.2511457 0.9679493
vn 0 0.2511457 0.9679493
vn 0 0.3516795 0.9361205
vn 0 0.3516795 0.9361205
vn 0 0.3516795 0.9361205
vn 0 0.3516795 0.9361205
vn 0 1 0
vn 0 1 0
vn 0 1 0
vn 0 1 0
vn 0 1 0
vn 0 1 0
vn 0 0 -1
vn 0 0 -1
vn 0 0 -1
vn 0 0 -1
vn 0 -1 0
vn 0 -1 0
vn 0 -1 0
vn 0 -1 0
vn 0 -1 0
vn 0 -1 0
vn 0 -1 0
vn 0 -1 0
vn 0.8186773 0.2931138 0.4938136
vn 0.8186773 0.2931138 0.4938136
vn 0.8186773 0.2931138 0.4938137
vn 0.8186773 0.2931138 0.4938137
vn -0.8186827 0.2931046 0.4938101
vn -0.8186827 0.2931046 0.4938101
vn -0.8186827 0.2931046 0.4938101
vn -0.8186827 0.2931046 0.4938101
vn -0.963904 0.164278 -0.2095275
vn -0.9640696 0.1825989 -0.1929438
vn -0.9640696 0.1825989 -0.1929438
vn -0.9638752 0.163169 -0.2105244
vn -0.9619081 0.1285031 -0.2412878
vn -0.9619081 0.1285031 -0.2412878
vn 0.9640696 0.182599 -0.1929438
vn 0.963904 0.164278 -0.2095276
vn 0.9640696 0.182599 -0.1929438
vn 0.9638752 0.1631691 -0.2105244
vn 0.9619081 0.1285031 -0.2412878
vn 0.9619081 0.1285031 -0.2412878
vn 0 1 0
vn 0 1 0
vn 0 1 0
vn 0 1 0
vn 0 0 1
vn 0 0 1
vn 0 0 1
vn 0 0 1
vn 0.9662097 0.0287032 -0.2561544
vn 0.9662097 0.0287032 -0.2561544
vn 0.9662097 0.0287032 -0.2561544
vn 0.9662097 0.0287032 -0.2561544
vn 0 0.2186842 -0.9757957
vn 0 0.2186842 -0.9757957
vn 0 0.2186842 -0.9757957
vn 0 0.2186842 -0.9757957
vn -0.9662097 0.0287032 -0.2561544
vn -0.9662097 0.0287032 -0.2561544
vn -0.9662097 0.0287032 -0.2561544
vn -0.9662097 0.0287032 -0.2561544
vn 0 1 0
vn 0 1 0
vn 0 1 0
vn 0 1 0
vn 0 1 0
vn 0 1 0
vn 0 1 0
vn 0 1 0
vn 0 1 0
vn 0 1 0
vn 0 1 0
vn 0 1 0
vn 0 1 0
vn 0 1 0
vn 0 1 0
vn 0 1 0
vn 0 1 0
vn 0 1 0
vn 0 1 0
g SM_Prop_Fan_Desk_01_0
f 3/3/3 2/2/2 1/1/1
f 4/4/4 3/3/3 1/1/1
f 7/7/7 6/6/6 5/5/5
f 8/8/8 7/7/7 5/5/5
f 11/11/11 10/10/10 9/9/9
f 12/12/12 11/11/11 9/9/9
f 15/15/15 14/14/14 13/13/13
f 16/16/16 15/15/15 13/13/13
f 19/19/19 18/18/18 17/17/17
f 20/20/20 19/19/19 17/17/17
f 23/23/23 22/22/22 21/21/21
f 24/24/24 23/23/23 21/21/21
f 27/27/27 26/26/26 25/25/25
f 28/28/28 27/27/27 25/25/25
f 31/31/31 30/30/30 29/29/29
f 32/32/32 31/31/31 29/29/29
f 35/35/35 34/34/34 33/33/33
f 36/36/36 35/35/35 33/33/33
f 39/39/39 38/38/38 37/37/37
f 40/40/40 39/39/39 37/37/37
f 43/43/43 42/42/42 41/41/41
f 44/44/44 43/43/43 41/41/41
f 47/47/47 46/46/46 45/45/45
f 48/48/48 47/47/47 45/45/45
f 51/51/51 50/50/50 49/49/49
f 52/52/52 51/51/51 49/49/49
f 55/55/55 54/54/54 53/53/53
f 56/56/56 55/55/55 53/53/53
f 59/59/59 58/58/58 57/57/57
f 60/60/60 59/59/59 57/57/57
f 63/63/63 62/62/62 61/61/61
f 64/64/64 63/63/63 61/61/61
f 67/67/67 66/66/66 65/65/65
f 68/68/68 67/67/67 65/65/65
f 71/71/71 70/70/70 69/69/69
f 72/72/72 71/71/71 69/69/69
f 75/75/75 74/74/74 73/73/73
f 76/76/76 75/75/75 73/73/73
f 79/79/79 78/78/78 77/77/77
f 78/78/78 80/80/80 77/77/77
f 78/78/78 81/81/81 80/80/80
f 81/81/81 82/82/82 80/80/80
f 85/85/85 84/84/84 83/83/83
f 86/86/86 85/85/85 83/83/83
f 89/89/89 88/88/88 87/87/87
f 90/90/90 89/89/89 87/87/87
f 90/90/90 87/87/87 91/91/91
f 92/92/92 90/90/90 91/91/91
f 91/91/91 93/93/93 92/92/92
f 93/93/93 94/94/94 92/92/92
f 97/97/97 96/96/96 95/95/95
f 98/98/98 97/97/97 95/95/95
f 101/101/101 100/100/100 99/99/99
f 102/102/102 101/101/101 99/99/99
f 105/105/105 104/104/104 103/103/103
f 104/104/104 106/106/106 103/103/103
f 106/106/106 107/107/107 103/103/103
f 107/107/107 108/108/108 103/103/103
f 111/111/111 110/110/110 109/109/109
f 110/110/110 112/112/112 109/109/109
f 110/110/110 113/113/113 112/112/112
f 113/113/113 114/114/114 112/112/112
f 117/117/117 116/116/116 115/115/115
f 118/118/118 117/117/117 115/115/115
f 121/121/121 120/120/120 119/119/119
f 122/122/122 121/121/121 119/119/119
f 125/125/125 124/124/124 123/123/123
f 126/126/126 125/125/125 123/123/123
f 129/129/129 128/128/128 127/127/127
f 130/130/130 129/129/129 127/127/127
f 133/133/133 132/132/132 131/131/131
f 134/134/134 133/133/133 131/131/131
f 137/137/137 136/136/136 135/135/135
f 135/135/135 136/136/136 138/138/138
f 139/139/139 136/136/136 137/137/137
f 138/138/138 136/136/136 140/140/140
f 141/141/141 136/136/136 139/139/139
f 140/140/140 136/136/136 141/141/141
f 144/144/144 143/143/143 142/142/142
f 145/145/145 144/144/144 142/142/142
f 142/142/142 143/143/143 146/146/146
f 147/147/147 144/144/144 145/145/145
f 143/143/143 148/148/148 146/146/146
f 149/149/149 147/147/147 145/145/145
f 146/146/146 148/148/148 150/150/150
f 151/151/151 147/147/147 149/149/149
f 148/148/148 152/152/152 150/150/150
f 153/153/153 151/151/151 149/149/149
f 150/150/150 152/152/152 153/153/153
f 152/152/152 151/151/151 153/153/153
