g SM_Prop_Shower_01_Glass
v 0.5421382 2.130253 0.4944468
v 0.5421382 2.130253 -0.551854
v 0.5421382 0 -0.551854
v 0.5421382 0 0.4944468
v -0.5508996 2.130253 0.5310091
v 0.4926269 2.130253 0.5310091
v 0.4926269 0 0.5310091
v -0.5508996 0 0.5310091
vt 0.1029053 0.2259521
vt 0.1029053 0.2259521
vt 0.1029053 0.2259521
vt 0.1029053 0.2259521
vt 0.1029053 0.2259521
vt 0.1029053 0.2259521
vt 0.1029053 0.2259521
vt 0.1029053 0.2259521
vn 1 0 0
vn 1 0 0
vn 1 0 0
vn 1 0 0
vn 0 0 1
vn 0 0 1
vn 0 0 1
vn 0 0 1
g SM_Prop_Shower_01_Glass_0
f 3/3/3 2/2/2 1/1/1
f 4/4/4 3/3/3 1/1/1
f 7/7/7 6/6/6 5/5/5
f 8/8/8 7/7/7 5/5/5
