g SM_Prop_Cushion_02
v 0.2521576 0.06259073 0.2521576
v 0.1710492 0.02900608 0.2443561
v 0.1888647 0.06259073 0.2698065
v 0.2521576 0.06259073 -0.2521576
v 0.1888647 0.06259073 -0.2698065
v 0.1710492 0.0290061 -0.2443561
v 0.2521576 0.06259073 -0.2521576
v 0.2443561 0.0290061 -0.1710492
v 0.2698065 0.06259073 -0.1888647
v -0.2521576 0.06259073 -0.2521576
v -0.2698065 0.06259073 -0.1888647
v -0.2443561 0.0290061 -0.1710492
v -0.2521576 0.06259073 0.2521576
v -0.2443561 0.0290061 0.1466138
v -0.2698065 0.06259073 0.1618842
v 0.2443561 0.0290061 0.1466138
v 0.2521576 0.06259073 0.2521576
v 0.2698065 0.06259073 0.1618842
v -0.2521576 0.06259073 -0.2521576
v -0.1710492 0.0290061 -0.2443561
v -0.1888647 0.06259073 -0.2698065
v -0.2521576 0.06259073 0.2521576
v -0.1888647 0.06259073 0.2698065
v -0.1710492 0.02900608 0.2443561
v 0.2521576 0.06259073 -0.2521576
v 0.1710492 0.0961754 -0.2443561
v 0.1888647 0.06259073 -0.2698065
v 0.2521576 0.06259073 -0.2521576
v 0.2698065 0.06259073 -0.1888647
v 0.2443561 0.0961754 -0.1710492
v 0.2521576 0.06259073 0.2521576
v 0.2443561 0.0961754 0.1466138
v 0.2698065 0.06259073 0.1618842
v 0.1710492 0.0961754 0.2443561
v 0.2521576 0.06259073 0.2521576
v 0.1888647 0.06259073 0.2698065
v -0.2521576 0.06259073 0.2521576
v -0.1710492 0.0961754 0.2443561
v -0.1888647 0.06259073 0.2698065
v -0.2443561 0.0961754 0.1466138
v -0.2521576 0.06259073 0.2521576
v -0.2698065 0.06259073 0.1618842
v -0.2521576 0.06259073 -0.2521576
v -0.2443561 0.0961754 -0.1710492
v -0.2698065 0.06259073 -0.1888647
v -0.1710492 0.0961754 -0.2443561
v -0.2521576 0.06259073 -0.2521576
v -0.1888647 0.06259073 -0.2698065
v -0.2698065 0.06259073 0.1618842
v -0.2443561 0.0290061 0.1466138
v -0.2128369 0.0290061 0
v -0.2350055 0.06259073 0
v 0.2128369 0.0961754 0
v 0.2443561 0.0961754 0.1466138
v 0.175 0.1496074 0.15
v 0.1524274 0.159416 0
v 0.2128369 0.0290061 0
v 0.2443561 0.0290061 0.1466138
v 0.2698065 0.06259073 0.1618842
v 0.2350055 0.06259073 0
v 0.175 -0.02442597 0.15
v 0.2443561 0.0290061 0.1466138
v 0.2128369 0.0290061 0
v 0.1524274 -0.03423449 0
v 0 0.1696882 0
v 0 0.159416 0.1306518
v -0.175 0.1496074 0.15
v -0.1524274 0.159416 0
v 0 0.06259073 0.2350055
v 0 0.02900608 0.2128369
v -0.1710492 0.02900608 0.2443561
v -0.1888647 0.06259073 0.2698065
v -0.175 -0.02442597 0.15
v 0 -0.03423449 0.1306518
v 0 -0.04450674 0
v -0.1524274 -0.03423449 0
v -0.1888647 0.06259073 -0.2698065
v -0.1710492 0.0290061 -0.2443561
v 0 0.0290061 -0.2128369
v 0 0.06259073 -0.2350055
v 0.1524274 -0.03423449 0
v 0.2128369 0.0290061 0
v 0.2443561 0.0290061 -0.1710492
v 0.175 -0.02442597 -0.175
v 0.2443561 0.0290061 -0.1710492
v 0.2128369 0.0290061 0
v 0.2350055 0.06259073 0
v 0.2698065 0.06259073 -0.1888647
v 0.2443561 0.0961754 -0.1710492
v 0.2128369 0.0961754 0
v 0.1524274 0.159416 0
v 0.175 0.1496074 -0.175
v 0 0.159416 -0.1524274
v 0 0.1696882 0
v -0.1524274 0.159416 0
v -0.175 0.1496074 -0.175
v -0.2350055 0.06259073 0
v -0.2128369 0.0290061 0
v -0.2443561 0.0290061 -0.1710492
v -0.2698065 0.06259073 -0.1888647
v -0.1524274 -0.03423449 0
v 0 -0.04450674 0
v 0 -0.03423449 -0.1524274
v -0.175 -0.02442597 -0.175
v 0.2521576 0.06259073 -0.2521576
v 0.1710492 0.0290061 -0.2443561
v 0.175 -0.02442597 -0.175
v 0.2443561 0.0290061 -0.1710492
v 0.1710492 0.0961754 -0.2443561
v 0.2521576 0.06259073 -0.2521576
v 0.2443561 0.0961754 -0.1710492
v 0.175 0.1496074 -0.175
v -0.1710492 0.0961754 -0.2443561
v 0 0.0961754 -0.2128369
v 0 0.159416 -0.1524274
v -0.175 0.1496074 -0.175
v 0 0.0290061 -0.2128369
v -0.1710492 0.0290061 -0.2443561
v -0.175 -0.02442597 -0.175
v 0 -0.03423449 -0.1524274
v -0.1710492 0.02900608 0.2443561
v 0 0.02900608 0.2128369
v 0 -0.03423449 0.1306518
v -0.175 -0.02442597 0.15
v 0 0.159416 0.1306518
v 0 0.0961754 0.2128369
v -0.1710492 0.0961754 0.2443561
v -0.175 0.1496074 0.15
v 0.2443561 0.0961754 0.1466138
v 0.2521576 0.06259073 0.2521576
v 0.1710492 0.0961754 0.2443561
v 0.175 0.1496074 0.15
v 0.1710492 0.02900608 0.2443561
v 0.2521576 0.06259073 0.2521576
v 0.2443561 0.0290061 0.1466138
v 0.175 -0.02442597 0.15
v -0.2521576 0.06259073 -0.2521576
v -0.1710492 0.0961754 -0.2443561
v -0.175 0.1496074 -0.175
v -0.2443561 0.0961754 -0.1710492
v -0.1524274 0.159416 0
v -0.2128369 0.0961754 0
v -0.2443561 0.0961754 -0.1710492
v -0.175 0.1496074 -0.175
v -0.175 0.1496074 0.15
v -0.2443561 0.0961754 0.1466138
v -0.2128369 0.0961754 0
v -0.1524274 0.159416 0
v -0.1710492 0.0961754 0.2443561
v -0.2521576 0.06259073 0.2521576
v -0.2443561 0.0961754 0.1466138
v -0.175 0.1496074 0.15
v -0.2443561 0.0290061 0.1466138
v -0.2521576 0.06259073 0.2521576
v -0.1710492 0.02900608 0.2443561
v -0.175 -0.02442597 0.15
v -0.2128369 0.0290061 0
v -0.2443561 0.0290061 0.1466138
v -0.175 -0.02442597 0.15
v -0.1524274 -0.03423449 0
v -0.2443561 0.0290061 -0.1710492
v -0.2128369 0.0290061 0
v -0.1524274 -0.03423449 0
v -0.175 -0.02442597 -0.175
v -0.1710492 0.0290061 -0.2443561
v -0.2521576 0.06259073 -0.2521576
v -0.2443561 0.0290061 -0.1710492
v -0.175 -0.02442597 -0.175
v 0 0.06259073 -0.2350055
v 0 0.0290061 -0.2128369
v 0.1710492 0.0290061 -0.2443561
v 0.1888647 0.06259073 -0.2698065
v 0 0.0961754 -0.2128369
v 0.1710492 0.0961754 -0.2443561
v 0.175 0.1496074 -0.175
v 0 0.159416 -0.1524274
v 0.1524274 0.159416 0
v 0 0.1696882 0
v 0 0.159416 -0.1524274
v 0.175 0.1496074 -0.175
v 0.175 0.1496074 0.15
v 0 0.159416 0.1306518
v 0 0.1696882 0
v 0.1524274 0.159416 0
v 0.1710492 0.0961754 0.2443561
v 0 0.0961754 0.2128369
v 0 0.159416 0.1306518
v 0.175 0.1496074 0.15
v 0.1888647 0.06259073 0.2698065
v 0.1710492 0.02900608 0.2443561
v 0 0.02900608 0.2128369
v 0 0.06259073 0.2350055
v 0 -0.03423449 0.1306518
v 0 0.02900608 0.2128369
v 0.1710492 0.02900608 0.2443561
v 0.175 -0.02442597 0.15
v 0 -0.04450674 0
v 0 -0.03423449 0.1306518
v 0.175 -0.02442597 0.15
v 0.1524274 -0.03423449 0
v 0 -0.03423449 -0.1524274
v 0 -0.04450674 0
v 0.1524274 -0.03423449 0
v 0.175 -0.02442597 -0.175
v 0.1710492 0.0290061 -0.2443561
v 0 0.0290061 -0.2128369
v 0 -0.03423449 -0.1524274
v 0.175 -0.02442597 -0.175
v 0.1710492 0.0961754 -0.2443561
v 0 0.0961754 -0.2128369
v 0 0.06259073 -0.2350055
v 0.1888647 0.06259073 -0.2698065
v 0.2350055 0.06259073 0
v 0.2128369 0.0961754 0
v 0.2443561 0.0961754 -0.1710492
v 0.2698065 0.06259073 -0.1888647
v 0.2698065 0.06259073 0.1618842
v 0.2443561 0.0961754 0.1466138
v 0.2128369 0.0961754 0
v 0.2350055 0.06259073 0
v 0 0.0961754 0.2128369
v 0.1710492 0.0961754 0.2443561
v 0.1888647 0.06259073 0.2698065
v 0 0.06259073 0.2350055
v -0.1710492 0.0961754 0.2443561
v 0 0.0961754 0.2128369
v 0 0.06259073 0.2350055
v -0.1888647 0.06259073 0.2698065
v -0.2128369 0.0961754 0
v -0.2443561 0.0961754 0.1466138
v -0.2698065 0.06259073 0.1618842
v -0.2350055 0.06259073 0
v -0.2443561 0.0961754 -0.1710492
v -0.2128369 0.0961754 0
v -0.2350055 0.06259073 0
v -0.2698065 0.06259073 -0.1888647
v 0 0.0961754 -0.2128369
v -0.1710492 0.0961754 -0.2443561
v -0.1888647 0.06259073 -0.2698065
v 0 0.06259073 -0.2350055
vt 0.2345088 0.4913034
vt 0.2345088 0.4913034
vt 0.2345088 0.4913034
vt 0.2345088 0.4913034
vt 0.2345088 0.4913034
vt 0.2345088 0.4913034
vt 0.2345088 0.4913034
vt 0.2345088 0.4913034
vt 0.2345088 0.4913034
vt 0.2345088 0.4913034
vt 0.2345088 0.4913034
vt 0.2345088 0.4913034
vt 0.2345088 0.4913034
vt 0.2345088 0.4913034
vt 0.2345088 0.4913034
vt 0.2345088 0.4913034
vt 0.2345088 0.4913034
vt 0.2345088 0.4913034
vt 0.2345088 0.4913034
vt 0.2345088 0.4913034
vt 0.2345088 0.4913034
vt 0.2345088 0.4913034
vt 0.2345088 0.4913034
vt 0.2345088 0.4913034
vt 0.2345088 0.4913034
vt 0.2345088 0.4913034
vt 0.2345088 0.4913034
vt 0.2345088 0.4913034
vt 0.2345088 0.4913034
vt 0.2345088 0.4913034
vt 0.2345088 0.4913034
vt 0.2345088 0.4913034
vt 0.2345088 0.4913034
vt 0.2345088 0.4913034
vt 0.2345088 0.4913034
vt 0.2345088 0.4913034
vt 0.2345088 0.4913034
vt 0.2345088 0.4913034
vt 0.2345088 0.4913034
vt 0.2345088 0.4913034
vt 0.2345088 0.4913034
vt 0.2345088 0.4913034
vt 0.2345088 0.4913034
vt 0.2345088 0.4913034
vt 0.2345088 0.4913034
vt 0.2345088 0.4913034
vt 0.2345088 0.4913034
vt 0.2345088 0.4913034
vt 0.2345088 0.4913034
vt 0.2345088 0.4913034
vt 0.2345088 0.4913034
vt 0.2345088 0.4913034
vt 0.2345088 0.4913034
vt 0.2345088 0.4913034
vt 0.2345088 0.4913034
vt 0.2345088 0.4913034
vt 0.2345088 0.4913034
vt 0.2345088 0.4913034
vt 0.2345088 0.4913034
vt 0.2345088 0.4913034
vt 0.2345088 0.4913034
vt 0.2345088 0.4913034
vt 0.2345088 0.4913034
vt 0.2345088 0.4913034
vt 0.2345088 0.4913034
vt 0.2345088 0.4913034
vt 0.2345088 0.4913034
vt 0.2345088 0.4913034
vt 0.2345088 0.4913034
vt 0.2345088 0.4913034
vt 0.2345088 0.4913034
vt 0.2345088 0.4913034
vt 0.2345088 0.4913034
vt 0.2345088 0.4913034
vt 0.2345088 0.4913034
vt 0.2345088 0.4913034
vt 0.2345088 0.4913034
vt 0.2345088 0.4913034
vt 0.2345088 0.4913034
vt 0.2345088 0.4913034
vt 0.2345088 0.4913034
vt 0.2345088 0.4913034
vt 0.2345088 0.4913034
vt 0.2345088 0.4913034
vt 0.2345088 0.4913034
vt 0.2345088 0.4913034
vt 0.2345088 0.4913034
vt 0.2345088 0.4913034
vt 0.2345088 0.4913034
vt 0.2345088 0.4913034
vt 0.2345088 0.4913034
vt 0.2345088 0.4913034
vt 0.2345088 0.4913034
vt 0.2345088 0.4913034
vt 0.2345088 0.4913034
vt 0.2345088 0.4913034
vt 0.2345088 0.4913034
vt 0.2345088 0.4913034
vt 0.2345088 0.4913034
vt 0.2345088 0.4913034
vt 0.2345088 0.4913034
vt 0.2345088 0.4913034
vt 0.2345088 0.4913034
vt 0.2345088 0.4913034
vt 0.2345088 0.4913034
vt 0.2345088 0.4913034
vt 0.2345088 0.4913034
vt 0.2345088 0.4913034
vt 0.2345088 0.4913034
vt 0.2345088 0.4913034
vt 0.2345088 0.4913034
vt 0.2345088 0.4913034
vt 0.2345088 0.4913034
vt 0.2345088 0.4913034
vt 0.2345088 0.4913034
vt 0.2345088 0.4913034
vt 0.2345088 0.4913034
vt 0.2345088 0.4913034
vt 0.2345088 0.4913034
vt 0.2345088 0.4913034
vt 0.2345088 0.4913034
vt 0.2345088 0.4913034
vt 0.2345088 0.4913034
vt 0.2345088 0.4913034
vt 0.2345088 0.4913034
vt 0.2345088 0.4913034
vt 0.2345088 0.4913034
vt 0.2345088 0.4913034
vt 0.2345088 0.4913034
vt 0.2345088 0.4913034
vt 0.2345088 0.4913034
vt 0.2345088 0.4913034
vt 0.2345088 0.4913034
vt 0.2345088 0.4913034
vt 0.2345088 0.4913034
vt 0.2345088 0.4913034
vt 0.2345088 0.4913034
vt 0.2345088 0.4913034
vt 0.2345088 0.4913034
vt 0.2345088 0.4913034
vt 0.2345088 0.4913034
vt 0.2345088 0.4913034
vt 0.2345088 0.4913034
vt 0.2345088 0.4913034
vt 0.2345088 0.4913034
vt 0.2345088 0.4913034
vt 0.2345088 0.4913034
vt 0.2345088 0.4913034
vt 0.2345088 0.4913034
vt 0.2345088 0.4913034
vt 0.2345088 0.4913034
vt 0.2345088 0.4913034
vt 0.2345088 0.4913034
vt 0.2345088 0.4913034
vt 0.2345088 0.4913034
vt 0.2345088 0.4913034
vt 0.2345088 0.4913034
vt 0.2345088 0.4913034
vt 0.2345088 0.4913034
vt 0.2345088 0.4913034
vt 0.2345088 0.4913034
vt 0.2345088 0.4913034
vt 0.2345088 0.4913034
vt 0.2345088 0.4913034
vt 0.2345088 0.4913034
vt 0.2345088 0.4913034
vt 0.2345088 0.4913034
vt 0.2345088 0.4913034
vt 0.2345088 0.4913034
vt 0.2345088 0.4913034
vt 0.2345088 0.4913034
vt 0.2345088 0.4913034
vt 0.2345088 0.4913034
vt 0.2345088 0.4913034
vt 0.2345088 0.4913034
vt 0.2345088 0.4913034
vt 0.2345088 0.4913034
vt 0.2345088 0.4913034
vt 0.2345088 0.4913034
vt 0.2345088 0.4913034
vt 0.2345088 0.4913034
vt 0.2345088 0.4913034
vt 0.2345088 0.4913034
vt 0.2345088 0.4913034
vt 0.2345088 0.4913034
vt 0.2345088 0.4913034
vt 0.2345088 0.4913034
vt 0.2345088 0.4913034
vt 0.2345088 0.4913034
vt 0.2345088 0.4913034
vt 0.2345088 0.4913034
vt 0.2345088 0.4913034
vt 0.2345088 0.4913034
vt 0.2345088 0.4913034
vt 0.2345088 0.4913034
vt 0.2345088 0.4913034
vt 0.2345088 0.4913034
vt 0.2345088 0.4913034
vt 0.2345088 0.4913034
vt 0.2345088 0.4913034
vt 0.2345088 0.4913034
vt 0.2345088 0.4913034
vt 0.2345088 0.4913034
vt 0.2345088 0.4913034
vt 0.2345088 0.4913034
vt 0.2345088 0.4913034
vt 0.2345088 0.4913034
vt 0.2345088 0.4913034
vt 0.2345088 0.4913034
vt 0.2345088 0.4913034
vt 0.2345088 0.4913034
vt 0.2345088 0.4913034
vt 0.2345088 0.4913034
vt 0.2345088 0.4913034
vt 0.2345088 0.4913034
vt 0.2345088 0.4913034
vt 0.2345088 0.4913034
vt 0.2345088 0.4913034
vt 0.2345088 0.4913034
vt 0.2345088 0.4913034
vt 0.2345088 0.4913034
vt 0.2345088 0.4913034
vt 0.2345088 0.4913034
vt 0.2345088 0.4913034
vt 0.2345088 0.4913034
vt 0.2345088 0.4913034
vt 0.2345088 0.4913034
vt 0.2345088 0.4913034
vt 0.2345088 0.4913034
vt 0.2345088 0.4913034
vt 0.2345088 0.4913034
vt 0.2345088 0.4913034
vt 0.2345088 0.4913034
vt 0.2345088 0.4913034
vt 0.2345088 0.4913034
vt 0.2345088 0.4913034
vt 0.2345088 0.4913034
vt 0.2345088 0.4913034
vt 0.2345088 0.4913034
vt 0.2345088 0.4913034
vn 0.2023981 -0.6574093 0.7258431
vn 0.2023981 -0.6574093 0.7258431
vn 0.2023981 -0.6574093 0.7258431
vn 0.202398 -0.6574094 -0.7258428
vn 0.202398 -0.6574094 -0.7258428
vn 0.202398 -0.6574094 -0.7258428
vn 0.7258428 -0.6574094 -0.202398
vn 0.7258428 -0.6574094 -0.202398
vn 0.7258428 -0.6574094 -0.202398
vn -0.7258428 -0.6574094 -0.202398
vn -0.7258428 -0.6574094 -0.202398
vn -0.7258428 -0.6574094 -0.202398
vn -0.7548273 -0.6391071 0.1475727
vn -0.7548273 -0.6391071 0.1475727
vn -0.7548273 -0.6391071 0.1475727
vn 0.7548274 -0.6391071 0.1475727
vn 0.7548274 -0.6391071 0.1475727
vn 0.7548274 -0.6391071 0.1475727
vn -0.202398 -0.6574094 -0.7258428
vn -0.202398 -0.6574094 -0.7258428
vn -0.202398 -0.6574094 -0.7258428
vn -0.2023981 -0.6574093 0.7258431
vn -0.2023981 -0.6574093 0.7258431
vn -0.2023981 -0.6574093 0.7258431
vn 0.2023981 0.657409 -0.7258433
vn 0.2023981 0.657409 -0.7258433
vn 0.2023981 0.657409 -0.7258433
vn 0.7258433 0.657409 -0.2023981
vn 0.7258433 0.657409 -0.2023981
vn 0.7258433 0.657409 -0.2023981
vn 0.7548277 0.6391068 0.1475728
vn 0.7548277 0.6391068 0.1475728
vn 0.7548277 0.6391068 0.1475728
vn 0.2023981 0.657409 0.7258433
vn 0.2023981 0.657409 0.7258433
vn 0.2023981 0.657409 0.7258433
vn -0.2023981 0.657409 0.7258433
vn -0.2023981 0.657409 0.7258433
vn -0.2023981 0.657409 0.7258433
vn -0.7548277 0.6391068 0.1475728
vn -0.7548277 0.6391068 0.1475728
vn -0.7548277 0.6391068 0.1475728
vn -0.7258433 0.657409 -0.2023981
vn -0.7258433 0.657409 -0.2023981
vn -0.7258433 0.657409 -0.2023981
vn -0.2023981 0.657409 -0.7258433
vn -0.2023981 0.657409 -0.7258433
vn -0.2023981 0.657409 -0.7258433
vn -0.8214667 -0.5422232 -0.1765971
vn -0.8214667 -0.5422232 -0.1765971
vn -0.8214667 -0.5422232 -0.1765971
vn -0.8214667 -0.5422232 -0.1765971
vn 0.6640749 0.741401 -0.09658671
vn 0.6640749 0.741401 -0.09658671
vn 0.6640749 0.741401 -0.09658671
vn 0.6640749 0.741401 -0.09658671
vn 0.8214667 -0.5422232 -0.1765971
vn 0.8214667 -0.5422232 -0.1765971
vn 0.8214667 -0.5422232 -0.1765971
vn 0.8214667 -0.5422232 -0.1765971
vn 0.6640752 -0.7414008 -0.09658682
vn 0.6640752 -0.7414008 -0.09658682
vn 0.6640752 -0.7414008 -0.09658682
vn 0.6640752 -0.7414008 -0.09658682
vn -0.05715199 0.9961364 0.06667741
vn -0.05715199 0.9961364 0.06667741
vn -0.05715199 0.9961364 0.06667741
vn -0.05715199 0.9961364 0.06667741
vn 0.1519992 -0.54448 0.8248866
vn 0.1519992 -0.54448 0.8248866
vn 0.1519992 -0.54448 0.8248866
vn 0.1519992 -0.54448 0.8248866
vn -0.05715192 -0.9961364 0.06667732
vn -0.05715192 -0.9961364 0.06667732
vn -0.05715192 -0.9961364 0.06667732
vn -0.05715192 -0.9961364 0.06667732
vn 0.1519992 -0.5444801 -0.8248864
vn 0.1519992 -0.5444801 -0.8248864
vn 0.1519992 -0.5444801 -0.8248864
vn 0.1519992 -0.5444801 -0.8248864
vn 0.6648985 -0.74232 0.08289139
vn 0.6648985 -0.74232 0.08289139
vn 0.6648985 -0.74232 0.08289139
vn 0.6648985 -0.74232 0.08289139
vn 0.8248864 -0.5444801 0.1519992
vn 0.8248864 -0.5444801 0.1519992
vn 0.8248864 -0.5444801 0.1519992
vn 0.8248864 -0.5444801 0.1519992
vn 0.6648983 0.7423202 0.08289129
vn 0.6648983 0.7423202 0.08289129
vn 0.6648983 0.7423202 0.08289129
vn 0.6648983 0.7423202 0.08289129
vn -0.05718577 0.9967244 -0.05718577
vn -0.05718577 0.9967244 -0.05718577
vn -0.05718577 0.9967244 -0.05718577
vn -0.05718577 0.9967244 -0.05718577
vn -0.8248864 -0.5444801 0.1519992
vn -0.8248864 -0.5444801 0.1519992
vn -0.8248864 -0.5444801 0.1519992
vn -0.8248864 -0.5444801 0.1519992
vn -0.05718569 -0.9967244 -0.05718569
vn -0.05718569 -0.9967244 -0.05718569
vn -0.05718569 -0.9967244 -0.05718569
vn -0.05718569 -0.9967244 -0.05718569
vn 0.4408694 -0.7818365 -0.4408694
vn 0.4408694 -0.7818365 -0.4408694
vn 0.4408694 -0.7818365 -0.4408694
vn 0.4408694 -0.7818365 -0.4408694
vn 0.4408694 0.7818366 -0.4408694
vn 0.4408694 0.7818366 -0.4408694
vn 0.4408694 0.7818366 -0.4408694
vn 0.4408694 0.7818366 -0.4408694
vn 0.08289129 0.7423202 -0.6648983
vn 0.08289129 0.7423202 -0.6648983
vn 0.08289129 0.7423202 -0.6648983
vn 0.08289129 0.7423202 -0.6648983
vn 0.08289139 -0.74232 -0.6648985
vn 0.08289139 -0.74232 -0.6648985
vn 0.08289139 -0.74232 -0.6648985
vn 0.08289139 -0.74232 -0.6648985
vn 0.05715773 -0.8334955 0.5495619
vn 0.05715773 -0.8334955 0.5495619
vn 0.05715773 -0.8334955 0.5495619
vn 0.05715773 -0.8334955 0.5495619
vn 0.05715764 0.8334955 0.5495618
vn 0.05715764 0.8334955 0.5495618
vn 0.05715764 0.8334955 0.5495618
vn 0.05715764 0.8334955 0.5495618
vn 0.4619788 0.8164091 0.3464848
vn 0.4619788 0.8164091 0.3464848
vn 0.4619788 0.8164091 0.3464848
vn 0.4619788 0.8164091 0.3464848
vn 0.4619789 -0.8164091 0.3464847
vn 0.4619789 -0.8164091 0.3464847
vn 0.4619789 -0.8164091 0.3464847
vn 0.4619789 -0.8164091 0.3464847
vn -0.4408694 0.7818366 -0.4408694
vn -0.4408694 0.7818366 -0.4408694
vn -0.4408694 0.7818366 -0.4408694
vn -0.4408694 0.7818366 -0.4408694
vn -0.6648983 0.7423202 0.08289129
vn -0.6648983 0.7423202 0.08289129
vn -0.6648983 0.7423202 0.08289129
vn -0.6648983 0.7423202 0.08289129
vn -0.6640749 0.741401 -0.09658671
vn -0.6640749 0.741401 -0.09658671
vn -0.6640749 0.741401 -0.09658671
vn -0.6640749 0.741401 -0.09658671
vn -0.4619788 0.8164091 0.3464848
vn -0.4619788 0.8164091 0.3464848
vn -0.4619788 0.8164091 0.3464848
vn -0.4619788 0.8164091 0.3464848
vn -0.4619789 -0.8164091 0.3464847
vn -0.4619789 -0.8164091 0.3464847
vn -0.4619789 -0.8164091 0.3464847
vn -0.4619789 -0.8164091 0.3464847
vn -0.6640752 -0.7414008 -0.09658682
vn -0.6640752 -0.7414008 -0.09658682
vn -0.6640752 -0.7414008 -0.09658682
vn -0.6640752 -0.7414008 -0.09658682
vn -0.6648985 -0.74232 0.08289139
vn -0.6648985 -0.74232 0.08289139
vn -0.6648985 -0.74232 0.08289139
vn -0.6648985 -0.74232 0.08289139
vn -0.4408694 -0.7818365 -0.4408694
vn -0.4408694 -0.7818365 -0.4408694
vn -0.4408694 -0.7818365 -0.4408694
vn -0.4408694 -0.7818365 -0.4408694
vn -0.1519992 -0.5444801 -0.8248864
vn -0.1519992 -0.5444801 -0.8248864
vn -0.1519992 -0.5444801 -0.8248864
vn -0.1519992 -0.5444801 -0.8248864
vn -0.08289129 0.7423202 -0.6648983
vn -0.08289129 0.7423202 -0.6648983
vn -0.08289129 0.7423202 -0.6648983
vn -0.08289129 0.7423202 -0.6648983
vn 0.05718577 0.9967244 -0.05718577
vn 0.05718577 0.9967244 -0.05718577
vn 0.05718577 0.9967244 -0.05718577
vn 0.05718577 0.9967244 -0.05718577
vn 0.05715199 0.9961364 0.06667741
vn 0.05715199 0.9961364 0.06667741
vn 0.05715199 0.9961364 0.06667741
vn 0.05715199 0.9961364 0.06667741
vn -0.05715764 0.8334955 0.5495618
vn -0.05715764 0.8334955 0.5495618
vn -0.05715764 0.8334955 0.5495618
vn -0.05715764 0.8334955 0.5495618
vn -0.1519992 -0.54448 0.8248866
vn -0.1519992 -0.54448 0.8248866
vn -0.1519992 -0.54448 0.8248866
vn -0.1519992 -0.54448 0.8248866
vn -0.05715773 -0.8334955 0.5495619
vn -0.05715773 -0.8334955 0.5495619
vn -0.05715773 -0.8334955 0.5495619
vn -0.05715773 -0.8334955 0.5495619
vn 0.05715192 -0.9961364 0.06667732
vn 0.05715192 -0.9961364 0.06667732
vn 0.05715192 -0.9961364 0.06667732
vn 0.05715192 -0.9961364 0.06667732
vn 0.05718569 -0.9967244 -0.05718569
vn 0.05718569 -0.9967244 -0.05718569
vn 0.05718569 -0.9967244 -0.05718569
vn 0.05718569 -0.9967244 -0.05718569
vn -0.08289139 -0.74232 -0.6648985
vn -0.08289139 -0.74232 -0.6648985
vn -0.08289139 -0.74232 -0.6648985
vn -0.08289139 -0.74232 -0.6648985
vn -0.1519992 0.5444797 -0.8248866
vn -0.1519992 0.5444797 -0.8248866
vn -0.1519992 0.5444797 -0.8248866
vn -0.1519992 0.5444797 -0.8248866
vn 0.8248866 0.5444797 0.1519992
vn 0.8248866 0.5444797 0.1519992
vn 0.8248866 0.5444797 0.1519992
vn 0.8248866 0.5444797 0.1519992
vn 0.821467 0.5422227 -0.1765971
vn 0.821467 0.5422227 -0.1765971
vn 0.821467 0.5422227 -0.1765971
vn 0.821467 0.5422227 -0.1765971
vn -0.1519992 0.5444797 0.8248866
vn -0.1519992 0.5444797 0.8248866
vn -0.1519992 0.5444797 0.8248866
vn -0.1519992 0.5444797 0.8248866
vn 0.1519992 0.5444797 0.8248866
vn 0.1519992 0.5444797 0.8248866
vn 0.1519992 0.5444797 0.8248866
vn 0.1519992 0.5444797 0.8248866
vn -0.821467 0.5422227 -0.1765971
vn -0.821467 0.5422227 -0.1765971
vn -0.821467 0.5422227 -0.1765971
vn -0.821467 0.5422227 -0.1765971
vn -0.8248866 0.5444797 0.1519992
vn -0.8248866 0.5444797 0.1519992
vn -0.8248866 0.5444797 0.1519992
vn -0.8248866 0.5444797 0.1519992
vn 0.1519992 0.5444797 -0.8248866
vn 0.1519992 0.5444797 -0.8248866
vn 0.1519992 0.5444797 -0.8248866
vn 0.1519992 0.5444797 -0.8248866
g SM_Prop_Cushion_02_0
f 3/3/3 2/2/2 1/1/1
f 6/6/6 5/5/5 4/4/4
f 9/9/9 8/8/8 7/7/7
f 12/12/12 11/11/11 10/10/10
f 15/15/15 14/14/14 13/13/13
f 18/18/18 17/17/17 16/16/16
f 21/21/21 20/20/20 19/19/19
f 24/24/24 23/23/23 22/22/22
f 27/27/27 26/26/26 25/25/25
f 30/30/30 29/29/29 28/28/28
f 33/33/33 32/32/32 31/31/31
f 36/36/36 35/35/35 34/34/34
f 39/39/39 38/38/38 37/37/37
f 42/42/42 41/41/41 40/40/40
f 45/45/45 44/44/44 43/43/43
f 48/48/48 47/47/47 46/46/46
f 51/51/51 50/50/50 49/49/49
f 52/52/52 51/51/51 49/49/49
f 55/55/55 54/54/54 53/53/53
f 56/56/56 55/55/55 53/53/53
f 59/59/59 58/58/58 57/57/57
f 60/60/60 59/59/59 57/57/57
f 63/63/63 62/62/62 61/61/61
f 64/64/64 63/63/63 61/61/61
f 67/67/67 66/66/66 65/65/65
f 68/68/68 67/67/67 65/65/65
f 71/71/71 70/70/70 69/69/69
f 72/72/72 71/71/71 69/69/69
f 75/75/75 74/74/74 73/73/73
f 76/76/76 75/75/75 73/73/73
f 79/79/79 78/78/78 77/77/77
f 80/80/80 79/79/79 77/77/77
f 83/83/83 82/82/82 81/81/81
f 84/84/84 83/83/83 81/81/81
f 87/87/87 86/86/86 85/85/85
f 88/88/88 87/87/87 85/85/85
f 91/91/91 90/90/90 89/89/89
f 92/92/92 91/91/91 89/89/89
f 95/95/95 94/94/94 93/93/93
f 96/96/96 95/95/95 93/93/93
f 99/99/99 98/98/98 97/97/97
f 100/100/100 99/99/99 97/97/97
f 103/103/103 102/102/102 101/101/101
f 104/104/104 103/103/103 101/101/101
f 107/107/107 106/106/106 105/105/105
f 108/108/108 107/107/107 105/105/105
f 111/111/111 110/110/110 109/109/109
f 112/112/112 111/111/111 109/109/109
f 115/115/115 114/114/114 113/113/113
f 116/116/116 115/115/115 113/113/113
f 119/119/119 118/118/118 117/117/117
f 120/120/120 119/119/119 117/117/117
f 123/123/123 122/122/122 121/121/121
f 124/124/124 123/123/123 121/121/121
f 127/127/127 126/126/126 125/125/125
f 128/128/128 127/127/127 125/125/125
f 131/131/131 130/130/130 129/129/129
f 132/132/132 131/131/131 129/129/129
f 135/135/135 134/134/134 133/133/133
f 136/136/136 135/135/135 133/133/133
f 139/139/139 138/138/138 137/137/137
f 140/140/140 139/139/139 137/137/137
f 143/143/143 142/142/142 141/141/141
f 144/144/144 143/143/143 141/141/141
f 147/147/147 146/146/146 145/145/145
f 148/148/148 147/147/147 145/145/145
f 151/151/151 150/150/150 149/149/149
f 152/152/152 151/151/151 149/149/149
f 155/155/155 154/154/154 153/153/153
f 156/156/156 155/155/155 153/153/153
f 159/159/159 158/158/158 157/157/157
f 160/160/160 159/159/159 157/157/157
f 163/163/163 162/162/162 161/161/161
f 164/164/164 163/163/163 161/161/161
f 167/167/167 166/166/166 165/165/165
f 168/168/168 167/167/167 165/165/165
f 171/171/171 170/170/170 169/169/169
f 172/172/172 171/171/171 169/169/169
f 175/175/175 174/174/174 173/173/173
f 176/176/176 175/175/175 173/173/173
f 179/179/179 178/178/178 177/177/177
f 180/180/180 179/179/179 177/177/177
f 183/183/183 182/182/182 181/181/181
f 184/184/184 183/183/183 181/181/181
f 187/187/187 186/186/186 185/185/185
f 188/188/188 187/187/187 185/185/185
f 191/191/191 190/190/190 189/189/189
f 192/192/192 191/191/191 189/189/189
f 195/195/195 194/194/194 193/193/193
f 196/196/196 195/195/195 193/193/193
f 199/199/199 198/198/198 197/197/197
f 200/200/200 199/199/199 197/197/197
f 203/203/203 202/202/202 201/201/201
f 204/204/204 203/203/203 201/201/201
f 207/207/207 206/206/206 205/205/205
f 208/208/208 207/207/207 205/205/205
f 211/211/211 210/210/210 209/209/209
f 212/212/212 211/211/211 209/209/209
f 215/215/215 214/214/214 213/213/213
f 216/216/216 215/215/215 213/213/213
f 219/219/219 218/218/218 217/217/217
f 220/220/220 219/219/219 217/217/217
f 223/223/223 222/222/222 221/221/221
f 224/224/224 223/223/223 221/221/221
f 227/227/227 226/226/226 225/225/225
f 228/228/228 227/227/227 225/225/225
f 231/231/231 230/230/230 229/229/229
f 232/232/232 231/231/231 229/229/229
f 235/235/235 234/234/234 233/233/233
f 236/236/236 235/235/235 233/233/233
f 239/239/239 238/238/238 237/237/237
f 240/240/240 239/239/239 237/237/237
