g SM_Prop_CarboardBox_04
v -0.2335205 0 0.2931137
v -0.2335205 0.3990986 0.2931137
v 0.3190918 0.3990986 0.2931137
v 0.3190918 0 0.2931137
v -0.2149868 0.02349961 0.2768812
v -0.2149868 0.02349961 -0.2921934
v 0.2976933 0.02349961 -0.2921934
v 0.2976933 0.02349961 0.2768812
v -0.2335205 0.3990986 -0.3091812
v -0.2335205 0 -0.3091812
v 0.3190918 0 -0.3091812
v 0.3190918 0.3990986 -0.3091812
v -0.2335205 0 -0.3091812
v -0.2335205 0 0.2931137
v 0.3190918 0 0.2931137
v 0.3190918 0 -0.3091812
v 0.3190918 0 0.2931137
v 0.3190918 0.3990986 0.2931137
v 0.3190918 0.3990986 -0.3091812
v 0.3190918 0 -0.3091812
v -0.2335205 0 -0.3091812
v -0.2335205 0.3990986 -0.3091812
v -0.2335205 0.3990986 0.2931137
v -0.2335205 0 0.2931137
v -0.2335205 0.5552651 0.5246506
v -0.2019558 0.5552651 0.5084181
v 0.2875156 0.5552651 0.5084181
v 0.3190918 0.5552651 0.5246506
v 0.4182281 0.7018579 0.2931137
v 0.3968296 0.7018579 0.2644529
v 0.3968296 0.7018579 -0.2805204
v 0.4182281 0.7018579 -0.3091812
v 0.3190918 0.1905162 -0.5123215
v 0.3130131 0.1980116 -0.5246458
v -0.2274532 0.1980116 -0.5246458
v -0.2335205 0.1905162 -0.5123215
v -0.4181976 0.6681201 -0.3091812
v -0.3996639 0.6681201 -0.2805204
v -0.3996639 0.6681201 0.2644529
v -0.4181976 0.6681201 0.2931137
v -0.2149868 0.4208252 0.2768812
v -0.2149868 0.02349961 0.2768812
v 0.2976933 0.02349961 0.2768812
v 0.2976933 0.4208252 0.2768812
v 0.2976933 0.4208252 0.2768812
v 0.2976933 0.02349961 0.2768812
v 0.2976933 0.02349961 -0.2921934
v 0.2976933 0.4266338 -0.3038435
v 0.2976933 0.4266338 -0.3038435
v 0.2976933 0.02349961 -0.2921934
v -0.2149868 0.02349961 -0.2921934
v -0.2149868 0.4266338 -0.3038435
v -0.2149868 0.4266338 -0.3038435
v -0.2149868 0.02349961 -0.2921934
v -0.2149868 0.02349961 0.2768812
v -0.2149868 0.4208252 0.2768812
v -0.2335205 0.3990986 0.2931137
v -0.2335205 0.5552651 0.5246506
v 0.3190918 0.5552651 0.5246506
v 0.3190918 0.3990986 0.2931137
v 0.3190918 0.3990986 0.2931137
v 0.3190918 0.5552651 0.5246506
v 0.2875156 0.5552651 0.5084181
v 0.2976933 0.4208252 0.2768812
v 0.2976933 0.4208252 0.2768812
v 0.2875156 0.5552651 0.5084181
v -0.2019558 0.5552651 0.5084181
v -0.2149868 0.4208252 0.2768812
v -0.2149868 0.4208252 0.2768812
v -0.2019558 0.5552651 0.5084181
v -0.2335205 0.5552651 0.5246506
v -0.2335205 0.3990986 0.2931137
v 0.3190918 0.3990986 -0.3091812
v 0.3190918 0.1905162 -0.5123215
v -0.2335205 0.1905162 -0.5123215
v -0.2335205 0.3990986 -0.3091812
v -0.2335205 0.3990986 -0.3091812
v -0.2335205 0.1905162 -0.5123215
v -0.2274532 0.1980116 -0.5246458
v -0.2149868 0.4266338 -0.3038435
v -0.2149868 0.4266338 -0.3038435
v -0.2274532 0.1980116 -0.5246458
v 0.3130131 0.1980116 -0.5246458
v 0.2976933 0.4266338 -0.3038435
v 0.2976933 0.4266338 -0.3038435
v 0.3130131 0.1980116 -0.5246458
v 0.3190918 0.1905162 -0.5123215
v 0.3190918 0.3990986 -0.3091812
v 0.3190918 0.3990986 0.2931137
v 0.4182281 0.7018579 0.2931137
v 0.4182281 0.7018579 -0.3091812
v 0.3190918 0.3990986 -0.3091812
v 0.3190918 0.3990986 -0.3091812
v 0.4182281 0.7018579 -0.3091812
v 0.3968296 0.7018579 -0.2805204
v 0.2976933 0.4266338 -0.3038435
v 0.2976933 0.4266338 -0.3038435
v 0.3968296 0.7018579 -0.2805204
v 0.3968296 0.7018579 0.2644529
v 0.2976933 0.4208252 0.2768812
v 0.2976933 0.4208252 0.2768812
v 0.3968296 0.7018579 0.2644529
v 0.4182281 0.7018579 0.2931137
v 0.3190918 0.3990986 0.2931137
v -0.2335205 0.3990986 -0.3091812
v -0.4181976 0.6681201 -0.3091812
v -0.4181976 0.6681201 0.2931137
v -0.2335205 0.3990986 0.2931137
v -0.2335205 0.3990986 0.2931137
v -0.4181976 0.6681201 0.2931137
v -0.3996639 0.6681201 0.2644529
v -0.2149868 0.4208252 0.2768812
v -0.2149868 0.4208252 0.2768812
v -0.3996639 0.6681201 0.2644529
v -0.3996639 0.6681201 -0.2805204
v -0.2149868 0.4266338 -0.3038435
v -0.2149868 0.4266338 -0.3038435
v -0.3996639 0.6681201 -0.2805204
v -0.4181976 0.6681201 -0.3091812
v -0.2335205 0.3990986 -0.3091812
vt 0.00698334 0.3263186
vt 0.00698334 0.3263186
vt 0.00698328 0.3263186
vt 0.00698328 0.3263186
vt 0.00698334 0.3263186
vt 0.00698334 0.3263186
vt 0.00698328 0.3263186
vt 0.00698328 0.3263186
vt 0.00698334 0.3263186
vt 0.00698334 0.3263186
vt 0.00698328 0.3263186
vt 0.00698328 0.3263186
vt 0.00698334 0.3263186
vt 0.00698334 0.3263185
vt 0.00698328 0.3263185
vt 0.00698328 0.3263186
vt 0.00698328 0.3263186
vt 0.00698328 0.3263186
vt 0.00698328 0.3263186
vt 0.00698328 0.3263186
vt 0.006983303 0.3263186
vt 0.006983303 0.3263186
vt 0.00698334 0.3263186
vt 0.00698334 0.3263186
vt 0.00698334 0.3263186
vt 0.00698334 0.3263186
vt 0.00698328 0.3263186
vt 0.00698328 0.3263186
vt 0.00698328 0.3263186
vt 0.00698328 0.3263186
vt 0.00698328 0.3263186
vt 0.00698328 0.3263186
vt 0.00698328 0.3263186
vt 0.00698328 0.3263186
vt 0.00698334 0.3263186
vt 0.00698334 0.3263186
vt 0.00698334 0.3263186
vt 0.00698334 0.3263186
vt 0.00698334 0.3263186
vt 0.00698334 0.3263186
vt 0.00698334 0.3263186
vt 0.00698334 0.3263186
vt 0.00698328 0.3263186
vt 0.00698328 0.3263186
vt 0.00698328 0.3263186
vt 0.00698328 0.3263186
vt 0.00698328 0.3263186
vt 0.00698328 0.3263186
vt 0.00698328 0.3263186
vt 0.00698328 0.3263186
vt 0.00698334 0.3263186
vt 0.00698334 0.3263186
vt 0.00698334 0.3263186
vt 0.00698334 0.3263186
vt 0.00698334 0.3263186
vt 0.00698334 0.3263186
vt 0.00698334 0.3263186
vt 0.00698334 0.3263186
vt 0.00698328 0.3263186
vt 0.00698328 0.3263186
vt 0.00698328 0.3263186
vt 0.00698328 0.3263186
vt 0.00698328 0.3263186
vt 0.00698328 0.3263186
vt 0.00698328 0.3263186
vt 0.00698328 0.3263186
vt 0.00698334 0.3263186
vt 0.00698334 0.3263186
vt 0.00698334 0.3263186
vt 0.00698334 0.3263186
vt 0.00698334 0.3263186
vt 0.00698334 0.3263186
vt 0.00698328 0.3263186
vt 0.00698328 0.3263186
vt 0.00698334 0.3263186
vt 0.00698334 0.3263186
vt 0.00698334 0.3263186
vt 0.00698334 0.3263186
vt 0.00698334 0.3263186
vt 0.00698334 0.3263186
vt 0.00698334 0.3263186
vt 0.00698334 0.3263186
vt 0.00698328 0.3263186
vt 0.00698328 0.3263186
vt 0.00698328 0.3263186
vt 0.00698328 0.3263186
vt 0.00698328 0.3263186
vt 0.00698328 0.3263186
vt 0.00698328 0.3263186
vt 0.00698328 0.3263186
vt 0.00698328 0.3263186
vt 0.00698328 0.3263186
vt 0.00698328 0.3263186
vt 0.00698328 0.3263186
vt 0.00698328 0.3263186
vt 0.00698328 0.3263186
vt 0.00698328 0.3263186
vt 0.00698328 0.3263186
vt 0.00698328 0.3263186
vt 0.00698328 0.3263186
vt 0.00698328 0.3263186
vt 0.00698328 0.3263186
vt 0.00698328 0.3263186
vt 0.00698328 0.3263186
vt 0.00698334 0.3263186
vt 0.00698334 0.3263186
vt 0.00698334 0.3263186
vt 0.00698334 0.3263186
vt 0.00698334 0.3263186
vt 0.00698334 0.3263186
vt 0.00698334 0.3263186
vt 0.00698334 0.3263186
vt 0.00698334 0.3263186
vt 0.00698334 0.3263186
vt 0.00698334 0.3263186
vt 0.00698334 0.3263186
vt 0.00698334 0.3263186
vt 0.00698334 0.3263186
vt 0.00698334 0.3263186
vt 0.00698334 0.3263186
vn 0 0 1
vn 0 0 1
vn 0 0 1
vn 0 0 1
vn 0 1 0
vn 0 1 0
vn 0 1 0
vn 0 1 0
vn 0 0 -1
vn 0 0 -1
vn 0 0 -1
vn 0 0 -1
vn 0 -1 0
vn 0 -1 0
vn 0 -1 0
vn 0 -1 0
vn 1 0 0
vn 1 0 0
vn 1 0 0
vn 1 0 0
vn -1 0 0
vn -1 0 0
vn -1 0 0
vn -1 0 0
vn 0 1 0
vn 0 1 0
vn 0 1 0
vn 0 1 0
vn 0 1 0
vn 0 1 0
vn 0 1 0
vn 0 1 0
vn 0 -0.8543944 -0.5196249
vn 0 -0.8543944 -0.5196249
vn 0 -0.8543944 -0.5196249
vn 0 -0.8543944 -0.5196249
vn 0 1 0
vn 0 1 0
vn 0 1 0
vn 0 1 0
vn 0 0 -1
vn 0 0 -1
vn 0 0 -1
vn 0 0 -1
vn -1 0 0
vn -1 0 0
vn -1 0 0
vn -1 0 0
vn 0 0.02888671 0.9995827
vn 0 0.02888671 0.9995827
vn 0 0.02888671 0.9995827
vn 0 0.02888671 0.9995827
vn 1 0 0
vn 1 0 0
vn 1 0 0
vn 1 0 0
vn 0 -0.8290494 0.5591753
vn 0 -0.8290494 0.5591753
vn 0 -0.8290494 0.5591753
vn 0 -0.8290494 0.5591753
vn 0.5562407 0.7093434 -0.4329298
vn 0.5562407 0.7093434 -0.4329298
vn 0.5562407 0.7093434 -0.4329298
vn 0.5562407 0.7093434 -0.4329298
vn 0 0.8647904 -0.5021329
vn 0 0.8647904 -0.5021329
vn 0 0.8647904 -0.5021329
vn 0 0.8647904 -0.5021329
vn -0.5769307 0.6990538 -0.4224628
vn -0.5769307 0.6990538 -0.4224628
vn -0.5769307 0.6990538 -0.4224628
vn -0.5769307 0.6990538 -0.4224628
vn 0 -0.6976994 0.7163907
vn 0 -0.6976994 0.7163907
vn 0 -0.6976994 0.7163907
vn 0 -0.6976994 0.7163907
vn -0.772188 0.4535309 -0.4450116
vn -0.772188 0.4535309 -0.4450116
vn -0.772188 0.4535309 -0.4450116
vn -0.772188 0.4535309 -0.4450116
vn 0 0.6946981 -0.7193014
vn 0 0.6946981 -0.7193014
vn 0 0.6946981 -0.7193014
vn 0 0.6946981 -0.7193014
vn 0.7368359 0.4837669 -0.4722736
vn 0.7368359 0.4837669 -0.4722736
vn 0.7368359 0.4837669 -0.4722736
vn 0.7368359 0.4837669 -0.4722736
vn 0.9503493 -0.3111851 0
vn 0.9503493 -0.3111851 0
vn 0.9503493 -0.3111851 0
vn 0.9503493 -0.3111851 0
vn -0.5206345 0.211973 -0.8270472
vn -0.5206345 0.211973 -0.8270472
vn -0.5206345 0.211973 -0.8270472
vn -0.5206345 0.211973 -0.8270472
vn -0.9419605 0.3357193 0.001732314
vn -0.9419605 0.3357193 0.001732314
vn -0.9419605 0.3357193 0.001732314
vn -0.9419605 0.3357193 0.001732314
vn -0.6444778 0.2343778 0.7278154
vn -0.6444778 0.2343778 0.7278154
vn -0.6444778 0.2343778 0.7278154
vn -0.6444778 0.2343778 0.7278154
vn -0.8244354 -0.5659561 0
vn -0.8244354 -0.5659561 0
vn -0.8244354 -0.5659561 0
vn -0.8244354 -0.5659561 0
vn 0.581309 0.4324388 0.689258
vn 0.581309 0.4324388 0.689258
vn 0.581309 0.4324388 0.689258
vn 0.581309 0.4324388 0.689258
vn 0.7978553 0.602841 0.003110659
vn 0.7978553 0.602841 0.003110659
vn 0.7978553 0.602841 0.003110659
vn 0.7978553 0.602841 0.003110659
vn 0.4625144 0.3714112 -0.8050678
vn 0.4625144 0.3714112 -0.8050678
vn 0.4625144 0.3714112 -0.8050678
vn 0.4625144 0.3714112 -0.8050678
g SM_Prop_CarboardBox_04_0
f 3/3/3 2/2/2 1/1/1
f 4/4/4 3/3/3 1/1/1
f 7/7/7 6/6/6 5/5/5
f 8/8/8 7/7/7 5/5/5
f 11/11/11 10/10/10 9/9/9
f 12/12/12 11/11/11 9/9/9
f 15/15/15 14/14/14 13/13/13
f 16/16/16 15/15/15 13/13/13
f 19/19/19 18/18/18 17/17/17
f 20/20/20 19/19/19 17/17/17
f 23/23/23 22/22/22 21/21/21
f 24/24/24 23/23/23 21/21/21
f 27/27/27 26/26/26 25/25/25
f 28/28/28 27/27/27 25/25/25
f 31/31/31 30/30/30 29/29/29
f 32/32/32 31/31/31 29/29/29
f 35/35/35 34/34/34 33/33/33
f 36/36/36 35/35/35 33/33/33
f 39/39/39 38/38/38 37/37/37
f 40/40/40 39/39/39 37/37/37
f 43/43/43 42/42/42 41/41/41
f 44/44/44 43/43/43 41/41/41
f 47/47/47 46/46/46 45/45/45
f 48/48/48 47/47/47 45/45/45
f 51/51/51 50/50/50 49/49/49
f 52/52/52 51/51/51 49/49/49
f 55/55/55 54/54/54 53/53/53
f 56/56/56 55/55/55 53/53/53
f 59/59/59 58/58/58 57/57/57
f 60/60/60 59/59/59 57/57/57
f 63/63/63 62/62/62 61/61/61
f 64/64/64 63/63/63 61/61/61
f 67/67/67 66/66/66 65/65/65
f 68/68/68 67/67/67 65/65/65
f 71/71/71 70/70/70 69/69/69
f 72/72/72 71/71/71 69/69/69
f 75/75/75 74/74/74 73/73/73
f 76/76/76 75/75/75 73/73/73
f 79/79/79 78/78/78 77/77/77
f 80/80/80 79/79/79 77/77/77
f 83/83/83 82/82/82 81/81/81
f 84/84/84 83/83/83 81/81/81
f 87/87/87 86/86/86 85/85/85
f 88/88/88 87/87/87 85/85/85
f 91/91/91 90/90/90 89/89/89
f 92/92/92 91/91/91 89/89/89
f 95/95/95 94/94/94 93/93/93
f 96/96/96 95/95/95 93/93/93
f 99/99/99 98/98/98 97/97/97
f 100/100/100 99/99/99 97/97/97
f 103/103/103 102/102/102 101/101/101
f 104/104/104 103/103/103 101/101/101
f 107/107/107 106/106/106 105/105/105
f 108/108/108 107/107/107 105/105/105
f 111/111/111 110/110/110 109/109/109
f 112/112/112 111/111/111 109/109/109
f 115/115/115 114/114/114 113/113/113
f 116/116/116 115/115/115 113/113/113
f 119/119/119 118/118/118 117/117/117
f 120/120/120 119/119/119 117/117/117
