g SM_Prop_BreadBin_01
v -0.25 0 0
v -0.25 0 0.1750757
v 0.25 0 0.1750757
v 0.25 0 0
v 0.25 0 -0.1750757
v -0.25 0 -0.1750757
v -0.04753479 0.05556129 0.1852808
v -0.04753479 0.08247879 0.183855
v 0.04753418 0.08247879 0.183855
v 0.04753418 0.05556129 0.1852808
v 0.25 0 -0.1750757
v 0.25 0.247687 -0.1750757
v -0.25 0.247687 -0.1750757
v -0.25 0 -0.1750757
v -0.25 0.247687 -0.1750757
v 0.25 0.247687 -0.1750757
v 0.25 0.247687 0
v -0.25 0.247687 0
v -0.2213879 0.2402125 0.02281982
v -0.2213873 0.2103146 0.1141016
v -0.25 0.2103146 0.1141016
v 0.2213873 0.2402125 0.02281982
v 0.25 0.2103146 0.1141016
v 0.2213873 0.2103146 0.1141016
v -0.25 0 -0.1750757
v -0.25 0.247687 -0.1750757
v -0.25 0.247687 0
v -0.25 0 0
v -0.25 0.2103146 0.1141016
v -0.25 0.1087551 0.1714551
v -0.25 0 0.1750757
v 0.25 0.247687 -0.1750757
v 0.25 0 -0.1750757
v 0.25 0 0
v 0.25 0.247687 0
v 0.25 0.2103146 0.1141016
v 0.25 0.1087551 0.1714551
v 0.25 0 0.1750757
v -0.2169501 0.1076263 0.1625244
v -0.2169501 0.197756 0.1089795
v 0.2169501 0.197756 0.1089795
v 0.2169501 0.1076263 0.1625244
v -0.04961609 0.09027847 0.1631323
v 0.04961548 0.09027847 0.1631323
v -0.04961609 0.04776161 0.1646191
v 0.2169501 0.03041382 0.165227
v -0.2169507 0.03041382 0.165227
v 0.04961548 0.04776161 0.1646191
v 0.25 0.1087551 0.1714551
v 0.2213873 0.2103146 0.1141016
v 0.25 0.2103146 0.1141016
v 0.2213873 0.1087551 0.1714551
v 0.25 0 0.1750757
v 0.2213873 0.02175102 0.1743506
v -0.25 0 0.1750757
v -0.2213879 0.02175102 0.1743506
v -0.25 0.1087551 0.1714551
v -0.2213873 0.1087551 0.1714551
v -0.25 0.2103146 0.1141016
v -0.2213873 0.2103146 0.1141016
v 0.2169501 0.2242892 0.02375732
v 0.2169501 0.197756 0.1089795
v -0.2169501 0.197756 0.1089795
v -0.2169507 0.2242892 0.02375732
v -0.2213879 0.02175102 0.1743506
v -0.2169507 0.03041382 0.165227
v 0.2169501 0.03041382 0.165227
v 0.2213873 0.02175102 0.1743506
v 0.2213873 0.02175102 0.1743506
v 0.2169501 0.03041382 0.165227
v 0.2169501 0.1076263 0.1625244
v 0.2213873 0.1087551 0.1714551
v 0.2169501 0.197756 0.1089795
v 0.2213873 0.2103146 0.1141016
v 0.2169501 0.2242892 0.02375732
v 0.2213873 0.2402125 0.02281982
v -0.2213873 0.1087551 0.1714551
v -0.2169507 0.03041382 0.165227
v -0.2213879 0.02175102 0.1743506
v -0.2169501 0.1076263 0.1625244
v -0.2213873 0.2103146 0.1141016
v -0.2169501 0.197756 0.1089795
v -0.2213879 0.2402125 0.02281982
v -0.2169507 0.2242892 0.02375732
v 0.2213873 0.2402125 0.02281982
v 0.2169501 0.2242892 0.02375732
v -0.2169507 0.2242892 0.02375732
v -0.2213879 0.2402125 0.02281982
v -0.04961609 0.04776161 0.1646191
v -0.04753479 0.05556129 0.1852808
v 0.04753418 0.05556129 0.1852808
v 0.04961548 0.04776161 0.1646191
v 0.04961548 0.04776161 0.1646191
v 0.04753418 0.05556129 0.1852808
v 0.04753418 0.08247879 0.183855
v 0.04961548 0.09027847 0.1631323
v 0.04961548 0.09027847 0.1631323
v 0.04753418 0.08247879 0.183855
v -0.04753479 0.08247879 0.183855
v -0.04961609 0.09027847 0.1631323
v -0.04961609 0.09027847 0.1631323
v -0.04753479 0.08247879 0.183855
v -0.04753479 0.05556129 0.1852808
v -0.04961609 0.04776161 0.1646191
vt 0.004877716 0.3516814
vt 0.004877716 0.3516814
vt 0.004877716 0.3516814
vt 0.004877716 0.3516814
vt 0.004877716 0.3516814
vt 0.004877716 0.3516814
vt 0.004150391 0.3268585
vt 0.004150391 0.3268585
vt 0.004150391 0.3268585
vt 0.004150391 0.3268585
vt 0.004877716 0.3516814
vt 0.004877716 0.3516814
vt 0.004877716 0.3516814
vt 0.004877716 0.3516814
vt 0.004877716 0.3516814
vt 0.004877716 0.3516814
vt 0.004877716 0.3516814
vt 0.004877716 0.3516814
vt 0.004877716 0.3516814
vt 0.004877716 0.3516814
vt 0.004877716 0.3516814
vt 0.004877716 0.3516814
vt 0.004877716 0.3516814
vt 0.004877716 0.3516814
vt 0.004877716 0.3516814
vt 0.004877716 0.3516814
vt 0.004877716 0.3516814
vt 0.004877716 0.3516814
vt 0.004877716 0.3516814
vt 0.004877716 0.3516814
vt 0.004877716 0.3516814
vt 0.004877716 0.3516814
vt 0.004877716 0.3516814
vt 0.004877716 0.3516814
vt 0.004877716 0.3516814
vt 0.004877716 0.3516814
vt 0.004877716 0.3516814
vt 0.004877716 0.3516814
vt 0.007324219 0.3829117
vt 0.007324219 0.3829117
vt 0.007324219 0.3829117
vt 0.007324219 0.3829117
vt 0.007324219 0.3829117
vt 0.007324219 0.3829117
vt 0.007324219 0.3829117
vt 0.007324219 0.3829117
vt 0.007324219 0.3829117
vt 0.007324219 0.3829117
vt 0.004877716 0.3516814
vt 0.004877716 0.3516814
vt 0.004877716 0.3516814
vt 0.004877716 0.3516814
vt 0.004877716 0.3516814
vt 0.004877716 0.3516814
vt 0.004877716 0.3516814
vt 0.004877716 0.3516814
vt 0.004877716 0.3516814
vt 0.004877716 0.3516814
vt 0.004877716 0.3516814
vt 0.004877716 0.3516814
vt 0.007324219 0.3829193
vt 0.007324219 0.3829117
vt 0.007324219 0.3829117
vt 0.007324219 0.3829193
vt 0.004877716 0.3516814
vt 0.004877716 0.3516814
vt 0.004877716 0.3516814
vt 0.004877716 0.3516814
vt 0.004877716 0.3516814
vt 0.004877716 0.3516814
vt 0.004877716 0.3516814
vt 0.004877716 0.3516814
vt 0.004877716 0.3516814
vt 0.004877716 0.3516814
vt 0.004877716 0.3516814
vt 0.004877716 0.3516814
vt 0.004877716 0.3516814
vt 0.004877716 0.3516814
vt 0.004877716 0.3516814
vt 0.004877716 0.3516814
vt 0.004877716 0.3516814
vt 0.004877716 0.3516814
vt 0.004877716 0.3516814
vt 0.004877716 0.3516814
vt 0.004877716 0.3516814
vt 0.004877716 0.3516814
vt 0.004877716 0.3516814
vt 0.004877716 0.3516814
vt 0.004150391 0.3268585
vt 0.004150391 0.3268585
vt 0.004150391 0.3268585
vt 0.004150391 0.3268585
vt 0.004150391 0.3268585
vt 0.004150391 0.3268585
vt 0.004150391 0.3268585
vt 0.004150391 0.3268585
vt 0.004150391 0.3268585
vt 0.004150391 0.3268585
vt 0.004150391 0.3268585
vt 0.004150391 0.3268585
vt 0.004150391 0.3268585
vt 0.004150391 0.3268585
vt 0.004150391 0.3268585
vt 0.004150391 0.3268585
vn 0 -1 0
vn 0 -1 0
vn 0 -1 0
vn 0 -1 0
vn 0 -1 0
vn 0 -1 0
vn 0 0.05289442 0.9986001
vn 0 0.05289442 0.9986001
vn 0 0.05289442 0.9986001
vn 0 0.05289442 0.9986001
vn 0 0 -1
vn 0 0 -1
vn 0 0 -1
vn 0 0 -1
vn 0 1 0
vn 0 1 0
vn 0 0.9777353 0.209842
vn 0 0.9777353 0.209842
vn 0 0.950322 0.3112687
vn 0 0.9503233 0.3112648
vn 0 0.9503233 0.3112648
vn 0 0.950322 0.3112687
vn 0 0.9503233 0.3112648
vn 0 0.9503233 0.3112648
vn -1 0 0
vn -1 0 0
vn -1 0 0
vn -1 0 0
vn -1 0 0
vn -1 0 0
vn -1 0 0
vn 1 0 0
vn 1 0 0
vn 1 0 0
vn 1 0 0
vn 1 0 0
vn 1 0 0
vn 1 0 0
vn 0 0.1990963 0.9799799
vn 0 0.5107533 0.8597274
vn 0 0.5107533 0.8597274
vn 0 0.1990963 0.9799799
vn 0 0.03499533 0.9993875
vn 0 0.03499533 0.9993875
vn 0 0.03499533 0.9993875
vn 0 0.03499533 0.9993875
vn 0 0.03499533 0.9993875
vn 0 0.03499533 0.9993875
vn -9.754654E-06 0.2702738 0.9627835
vn 0 0.4917346 0.8707451
vn 0 0.4917346 0.8707451
vn -9.754654E-06 0.2702738 0.9627835
vn -9.474129E-06 0.03329284 0.9994456
vn -9.474129E-06 0.03329284 0.9994456
vn 9.47424E-06 0.03329284 0.9994456
vn 9.47424E-06 0.03329284 0.9994456
vn 9.754767E-06 0.2702738 0.9627835
vn 9.754767E-06 0.2702738 0.9627835
vn 0 0.4917346 0.8707451
vn 0 0.4917346 0.8707451
vn 0 0.9547943 0.2972672
vn 0 0.9547943 0.2972672
vn 0 0.9547943 0.2972672
vn 0 0.9547943 0.2972672
vn 0 0.7251805 0.6885588
vn 0 0.7251805 0.6885588
vn 0 0.7251805 0.6885588
vn 0 0.7251805 0.6885588
vn -0.8948093 0.0152106 0.4461894
vn -0.8948093 0.0152106 0.4461894
vn -0.9056312 0.1141299 0.4084196
vn -0.9056312 0.1141299 0.4084196
vn -0.9401851 0.2505316 0.2308373
vn -0.9401851 0.2505316 0.2308373
vn -0.9544949 0.2840624 0.09081927
vn -0.9544949 0.2840624 0.09081927
vn 0.905632 0.1141265 0.4084186
vn 0.8948106 0.01520388 0.4461872
vn 0.8948106 0.01520388 0.4461872
vn 0.905632 0.1141265 0.4084186
vn 0.9401857 0.2505323 0.2308342
vn 0.9401857 0.2505323 0.2308342
vn 0.9544951 0.2840634 0.090813
vn 0.9544951 0.2840634 0.090813
vn 0 0.05877418 0.9982713
vn 0 0.05877418 0.9982713
vn 0 0.05877418 0.9982713
vn 0 0.05877418 0.9982713
vn 0 -0.9355592 0.35317
vn 0 -0.9355592 0.35317
vn 0 -0.9355592 0.35317
vn 0 -0.9355592 0.35317
vn 0.9949707 0.004198029 0.1000782
vn 0.9949707 0.004198029 0.1000782
vn 0.9949707 0.004198029 0.1000782
vn 0.9949707 0.004198029 0.1000782
vn 0 0.9359025 0.352259
vn 0 0.9359025 0.352259
vn 0 0.9359025 0.352259
vn 0 0.9359025 0.352259
vn -0.9949707 0.004198029 0.1000782
vn -0.9949707 0.004198029 0.1000782
vn -0.9949707 0.004198029 0.1000782
vn -0.9949707 0.004198029 0.1000782
g SM_Prop_BreadBin_01_0
f 3/3/3 2/2/2 1/1/1
f 4/4/4 3/3/3 1/1/1
f 4/4/4 1/1/1 5/5/5
f 1/1/1 6/6/6 5/5/5
f 9/9/9 8/8/8 7/7/7
f 10/10/10 9/9/9 7/7/7
f 13/13/13 12/12/12 11/11/11
f 14/14/14 13/13/13 11/11/11
f 17/17/17 16/16/16 15/15/15
f 18/18/18 17/17/17 15/15/15
f 18/18/18 19/19/19 17/17/17
f 20/20/20 19/19/19 18/18/18
f 21/21/21 20/20/20 18/18/18
f 19/19/19 22/22/22 17/17/17
f 17/17/17 22/22/22 23/23/23
f 22/22/22 24/24/24 23/23/23
f 27/27/27 26/26/26 25/25/25
f 28/28/28 27/27/27 25/25/25
f 28/28/28 29/29/29 27/27/27
f 28/28/28 30/30/30 29/29/29
f 28/28/28 31/31/31 30/30/30
f 34/34/34 33/33/33 32/32/32
f 35/35/35 34/34/34 32/32/32
f 35/35/35 36/36/36 34/34/34
f 36/36/36 37/37/37 34/34/34
f 37/37/37 38/38/38 34/34/34
f 41/41/41 40/40/40 39/39/39
f 42/42/42 41/41/41 39/39/39
f 39/39/39 43/43/43 42/42/42
f 43/43/43 44/44/44 42/42/42
f 45/45/45 43/43/43 39/39/39
f 42/42/42 44/44/44 46/46/46
f 47/47/47 45/45/45 39/39/39
f 44/44/44 48/48/48 46/46/46
f 48/48/48 45/45/45 47/47/47
f 46/46/46 48/48/48 47/47/47
f 51/51/51 50/50/50 49/49/49
f 50/50/50 52/52/52 49/49/49
f 49/49/49 52/52/52 53/53/53
f 52/52/52 54/54/54 53/53/53
f 53/53/53 54/54/54 55/55/55
f 54/54/54 56/56/56 55/55/55
f 55/55/55 56/56/56 57/57/57
f 56/56/56 58/58/58 57/57/57
f 57/57/57 58/58/58 59/59/59
f 58/58/58 60/60/60 59/59/59
f 63/63/63 62/62/62 61/61/61
f 64/64/64 63/63/63 61/61/61
f 67/67/67 66/66/66 65/65/65
f 68/68/68 67/67/67 65/65/65
f 71/71/71 70/70/70 69/69/69
f 72/72/72 71/71/71 69/69/69
f 73/73/73 71/71/71 72/72/72
f 74/74/74 73/73/73 72/72/72
f 75/75/75 73/73/73 74/74/74
f 76/76/76 75/75/75 74/74/74
f 79/79/79 78/78/78 77/77/77
f 78/78/78 80/80/80 77/77/77
f 77/77/77 80/80/80 81/81/81
f 80/80/80 82/82/82 81/81/81
f 81/81/81 82/82/82 83/83/83
f 82/82/82 84/84/84 83/83/83
f 87/87/87 86/86/86 85/85/85
f 88/88/88 87/87/87 85/85/85
f 91/91/91 90/90/90 89/89/89
f 92/92/92 91/91/91 89/89/89
f 95/95/95 94/94/94 93/93/93
f 96/96/96 95/95/95 93/93/93
f 99/99/99 98/98/98 97/97/97
f 100/100/100 99/99/99 97/97/97
f 103/103/103 102/102/102 101/101/101
f 104/104/104 103/103/103 101/101/101
