g SM_Tool_Nailgun_Trigger_01
v 0.0108836 -0.06150082 -0.02419115
v 0.0108836 -0.05088083 0.02171546
v -0.01088457 -0.05088083 0.02171546
v -0.01088457 -0.06150082 -0.02419115
v 0.0108836 0.007181735 0.01665198
v -0.01088457 0.007181735 0.01665198
v 0.0108836 -0.002401165 -0.01467135
v -0.01088457 -0.002401165 -0.01467135
v 0.0108836 -0.05088083 0.02171546
v -0.01088457 -0.05088083 0.02171546
v 0.0108836 -0.06150082 -0.02419115
v 0.0108836 -0.05088083 0.02171546
v -0.01088457 -0.05088083 0.02171546
v -0.01088457 -0.06150082 -0.02419115
v 0.0108836 0.007181735 0.01665198
v -0.01088457 0.007181735 0.01665198
v 0.0108836 -0.06150082 -0.02419115
v 0.0108836 -0.002401165 -0.01467135
v -0.01088457 -0.002401165 -0.01467135
v -0.01088457 -0.06150082 -0.02419115
v 0.0108836 -0.002401165 -0.01467135
v 0.0108836 0.007181735 0.01665198
v -0.01088457 0.007181735 0.01665198
v -0.01088457 -0.002401165 -0.01467135
vt 0.07891449 0.2539389
vt 0.07891449 0.2539389
vt 0.07891449 0.2539389
vt 0.07891449 0.2539389
vt 0.07891449 0.2539389
vt 0.07891449 0.2539389
vt 0.07891449 0.2539389
vt 0.07891449 0.2539389
vt 0.07891449 0.2539389
vt 0.07891449 0.2539389
vt 0.07891449 0.2539389
vt 0.07891449 0.2539389
vt 0.07891449 0.2539389
vt 0.07891449 0.2539389
vt 0.07891449 0.2539389
vt 0.07891449 0.2539389
vt 0.07891449 0.2539389
vt 0.07891449 0.2539389
vt 0.07891449 0.2539389
vt 0.07891449 0.2539389
vt 0.07891449 0.2539389
vt 0.07891449 0.2539389
vt 0.07891449 0.2539389
vt 0.07891449 0.2539389
vn 0 -0.9742694 0.2253866
vn 0 -0.9742694 0.2253866
vn 0 -0.9742694 0.2253866
vn 0 -0.9742694 0.2253866
vn 0 0.0868777 0.996219
vn 0 0.0868777 0.996219
vn 1 0 0
vn -1 0 0
vn 0 0.0868777 0.996219
vn 0 0.0868777 0.996219
vn 1 0 0
vn 1 0 0
vn -1 0 0
vn -1 0 0
vn 1 0 0
vn -1 0 0
vn 0 0.1590306 -0.9872736
vn 0 0.1590306 -0.9872736
vn 0 0.1590306 -0.9872736
vn 0 0.1590306 -0.9872736
vn 0 0.9562502 -0.2925504
vn 0 0.9562502 -0.2925504
vn 0 0.9562502 -0.2925504
vn 0 0.9562502 -0.2925504
g SM_Tool_Nailgun_Trigger_01_0
f 3/3/3 4/4/4 1/1/1
f 2/2/2 3/3/3 1/1/1
f 6/6/6 10/10/10 9/9/9
f 5/5/5 6/6/6 9/9/9
f 7/7/7 12/12/12 11/11/11
f 15/15/15 12/12/12 7/7/7
f 14/14/14 13/13/13 8/8/8
f 8/8/8 13/13/13 16/16/16
f 19/19/19 18/18/18 17/17/17
f 20/20/20 19/19/19 17/17/17
f 23/23/23 22/22/22 21/21/21
f 24/24/24 23/23/23 21/21/21
