g SM_Tool_Saber_Saw_01_Blade
v -0.004333324 -0.01431865 0.1934134
v 0.00433311 -0.01431865 0.1934134
v -0.004333324 0.01431874 0.1654641
v 0.00433311 0.01431874 0.1654641
v -0.004333324 0.01431874 -0.09164736
v 0.00433311 0.01431874 -0.09164736
v -0.004333324 -0.01431865 -0.09164736
v 0.00433311 -0.01431865 -0.09164736
v 0.00433311 0.01431874 0.05086667
v -0.004333324 0.01431874 0.05086667
v -0.004333324 -0.01431865 0.05086667
v 0.00433311 -0.01431865 0.05086667
v -0.004333324 0.01431874 0.1654641
v 0.00433311 0.01431874 0.1654641
v -0.004333324 -0.01431865 0.1934134
v 0.00433311 -0.01431865 0.1934134
v 0.00433311 -0.01431865 0.05086667
v 0.00433311 -0.01431865 0.1934134
v 0.00433311 0.01431874 0.1654641
v 0.00433311 0.01431874 0.05086667
v -0.004333324 -0.01431865 0.1934134
v -0.004333324 -0.01431865 0.05086667
v -0.004333324 0.01431874 0.05086667
v -0.004333324 0.01431874 0.1654641
v -0.004333324 0.01431874 0.05086667
v -0.004333324 0.01431874 -0.09164736
v 0.00433311 0.01431874 -0.09164736
v 0.00433311 0.01431874 0.05086667
v -0.004333324 -0.01431865 0.05086667
v -0.004333324 -0.01431865 -0.09164736
v -0.004333324 0.01431874 -0.09164736
v -0.004333324 0.01431874 0.05086667
v -0.004333324 -0.01431865 -0.09164736
v -0.004333324 -0.01431865 0.05086667
v 0.00433311 -0.01431865 0.05086667
v 0.00433311 -0.01431865 -0.09164736
v 0.00433311 0.01431874 -0.09164736
v 0.00433311 -0.01431865 -0.09164736
v 0.00433311 -0.01431865 0.05086667
v 0.00433311 0.01431874 0.05086667
v 0.00433311 0.01431874 0.1654641
v -0.004333324 0.01431874 0.1654641
v -0.004333324 -0.01431865 0.1934134
v -0.004333324 -0.01431865 0.1934134
v 0.00433311 -0.01431865 0.1934134
v 0.00433311 -0.01431865 0.1934134
vt 0.9981199 0.1251367
vt 0.9981199 0.1251367
vt 0.9850178 0.1384637
vt 0.9850178 0.1384637
vt 0.9313044 0.1384637
vt 0.9313044 0.1384637
vt 0.9313044 0.1251367
vt 0.9313044 0.1251367
vt 0.9312965 0.1384637
vt 0.9312965 0.1384637
vt 0.9312966 0.1251368
vt 0.9312966 0.1251368
vt 0.9850178 0.1384637
vt 0.9850178 0.1384637
vt 0.9981199 0.1251367
vt 0.9981199 0.1251367
vt 0.9312966 0.1251368
vt 0.9981199 0.1251367
vt 0.9850178 0.1384637
vt 0.9312965 0.1384637
vt 0.9981199 0.1251367
vt 0.9312966 0.1251368
vt 0.9312965 0.1384637
vt 0.9850178 0.1384637
vt 0.9981123 0.1384637
vt 0.9313044 0.1384637
vt 0.9313044 0.1384637
vt 0.9981123 0.1384637
vt 0.9981123 0.1251367
vt 0.9313044 0.1251367
vt 0.9313044 0.1384637
vt 0.9981123 0.1384637
vt 0.9313044 0.1251367
vt 0.9981123 0.1251367
vt 0.9981123 0.1251367
vt 0.9313044 0.1251367
vt 0.9313044 0.1384637
vt 0.9313044 0.1251367
vt 0.9981123 0.1251367
vt 0.9981123 0.1384637
vt 0.9850178 0.1384637
vt 0.9850178 0.1384637
vt 0.9981199 0.1251367
vt 0.9981199 0.1251367
vt 0.9981199 0.1251367
vt 0.9981199 0.1251367
vn 0 -1 0
vn 0 -1 0
vn 0 1 0
vn 0 1 0
vn 0 0 -1
vn 0 0 -1
vn 0 0 -1
vn 0 0 -1
vn 0 1 0
vn 0 1 0
vn 0 -1 0
vn 0 -1 0
vn 0 0.6984558 0.7156533
vn 0 0.6984558 0.7156533
vn 0 0.6984558 0.7156533
vn 0 0.6984558 0.7156533
vn 1 0 0
vn 1 0 0
vn 1 0 0
vn 1 0 0
vn -1 0 0
vn -1 0 0
vn -1 0 0
vn -1 0 0
vn 0 1 0
vn 0 1 0
vn 0 1 0
vn 0 1 0
vn -1 0 0
vn -1 0 0
vn -1 0 0
vn -1 0 0
vn 0 -1 0
vn 0 -1 0
vn 0 -1 0
vn 0 -1 0
vn 1 0 0
vn 1 0 0
vn 1 0 0
vn 1 0 0
vn 0 1 0
vn 0 1 0
vn 0 1 0
vn 0 1 0
vn 0 1 0
vn 0 1 0
g SM_Tool_Saber_Saw_01_Blade_0
f 9/9/9 10/10/10 3/3/3
f 4/4/4 9/9/9 3/3/3
f 3/3/3 42/42/42 4/4/4
f 42/42/42 41/41/41 4/4/4
f 43/43/43 42/42/42 3/3/3
f 4/4/4 41/41/41 46/46/46
f 44/44/44 43/43/43 3/3/3
f 41/41/41 45/45/45 46/46/46
f 45/45/45 43/43/43 44/44/44
f 46/46/46 45/45/45 44/44/44
f 8/8/8 7/7/7 5/5/5
f 6/6/6 8/8/8 5/5/5
f 2/2/2 1/1/1 11/11/11
f 12/12/12 2/2/2 11/11/11
f 19/19/19 18/18/18 17/17/17
f 20/20/20 19/19/19 17/17/17
f 23/23/23 22/22/22 21/21/21
f 24/24/24 23/23/23 21/21/21
f 15/15/15 16/16/16 14/14/14
f 13/13/13 15/15/15 14/14/14
f 27/27/27 26/26/26 25/25/25
f 28/28/28 27/27/27 25/25/25
f 31/31/31 30/30/30 29/29/29
f 32/32/32 31/31/31 29/29/29
f 35/35/35 34/34/34 33/33/33
f 36/36/36 35/35/35 33/33/33
f 39/39/39 38/38/38 37/37/37
f 40/40/40 39/39/39 37/37/37
