g SM_Tool_Drill_Trigger_01
v 0.0103207 -0.04863862 0.007049076
v -0.01032017 -0.04863862 0.007049076
v -0.01032017 -0.05648446 -0.02480273
v 0.0103207 -0.05648446 -0.02480273
v 0.0103207 0.003477067 0.005580571
v -0.01032017 0.003477067 0.005580571
v 0.0103207 -0.003612452 -0.01691272
v -0.01032017 -0.003612452 -0.01691272
v 0.01032009 -0.02438466 0.001341679
v 0.01032009 -0.02918168 -0.02072863
v -0.01032017 -0.02918168 -0.02072802
v -0.01032017 -0.02438466 0.001341679
v 0.0103207 -0.04321807 0.008962529
v -0.01032017 -0.04321807 0.008961918
v 0.01032009 -0.02438466 0.001341679
v 0.0103207 0.003477067 0.005580571
v -0.01032017 0.003477067 0.005580571
v -0.01032017 -0.02438466 0.001341679
v 0.0103207 -0.003612452 -0.01691272
v 0.0103207 0.003477067 0.005580571
v -0.01032017 0.003477067 0.005580571
v -0.01032017 -0.003612452 -0.01691272
v 0.01032009 -0.02918168 -0.02072863
v 0.0103207 -0.003612452 -0.01691272
v -0.01032017 -0.003612452 -0.01691272
v -0.01032017 -0.02918168 -0.02072802
v 0.0103207 -0.04863862 0.007049076
v 0.0103207 -0.05648446 -0.02480273
v 0.0103207 -0.05648446 -0.02480273
v -0.01032017 -0.05648446 -0.02480273
v -0.01032017 -0.04863862 0.007049076
v -0.01032017 -0.05648446 -0.02480273
v 0.0103207 -0.04863862 0.007049076
v -0.01032017 -0.04863862 0.007049076
v -0.01032017 -0.04321807 0.008961918
v 0.0103207 -0.04321807 0.008962529
v -0.01032017 -0.04321807 0.008961918
v -0.01032017 -0.02438466 0.001341679
v 0.01032009 -0.02438466 0.001341679
v 0.0103207 -0.04321807 0.008962529
vt 0.08057049 0.2791545
vt 0.08091956 0.2791523
vt 0.08080012 0.2792518
vt 0.0804697 0.2792543
vt 0.08056825 0.2782542
vt 0.08091763 0.2782559
vt 0.08049586 0.2783871
vt 0.08083183 0.2783881
vt 0.08055285 0.2787349
vt 0.08048311 0.2788101
vt 0.08081633 0.2788094
vt 0.080899 0.2787344
vt 0.08057716 0.2790625
vt 0.08092755 0.2790608
vt 0.08055285 0.2787349
vt 0.08056825 0.2782542
vt 0.08091763 0.2782559
vt 0.080899 0.2787344
vt 0.08049586 0.2783871
vt 0.08056825 0.2782542
vt 0.08091763 0.2782559
vt 0.08083183 0.2783881
vt 0.08048311 0.2788101
vt 0.08049586 0.2783871
vt 0.08083183 0.2783881
vt 0.08081633 0.2788094
vt 0.08057049 0.2791545
vt 0.0804697 0.2792543
vt 0.0804697 0.2792543
vt 0.08080012 0.2792518
vt 0.08091956 0.2791523
vt 0.08080012 0.2792518
vt 0.08057049 0.2791545
vt 0.08091956 0.2791523
vt 0.08092755 0.2790608
vt 0.08057716 0.2790625
vt 0.08092755 0.2790608
vt 0.080899 0.2787344
vt 0.08055285 0.2787349
vt 0.08057716 0.2790625
vn 0 -0.9709767 0.2391741
vn 0 -0.9709767 0.2391741
vn 0 -0.9709767 0.2391741
vn 0 -0.9709767 0.2391741
vn 0 -0.1504095 0.9886237
vn 0 -0.1504095 0.9886237
vn 1 -2.380351E-05 0
vn -1 0 0
vn 0 -0.1504095 0.9886237
vn 1 0 0
vn -1 0 0
vn 0 -0.1504095 0.9886237
vn 1 2.168678E-05 0
vn -1 0 0
vn 1 0 0
vn 1 -2.380351E-05 0
vn -1 0 0
vn -1 0 0
vn 0 0.9537484 -0.3006061
vn 0 0.9537484 -0.3006061
vn 0 0.9537484 -0.3006061
vn 0 0.9537484 -0.3006061
vn -1.462257E-05 0.1475942 -0.9890481
vn -1.4624E-05 0.1475925 -0.9890483
vn -1.4624E-05 0.1475925 -0.9890483
vn -1.462257E-05 0.1475942 -0.9890481
vn 1 2.009665E-05 0
vn 1 2.009665E-05 0
vn -1.462123E-05 0.1475959 -0.9890477
vn -1.462123E-05 0.1475958 -0.9890477
vn -1 0 0
vn -1 0 0
vn -1.394195E-05 -0.3328218 0.9429898
vn -1.394195E-05 -0.3328218 0.9429898
vn -1.394195E-05 -0.3328218 0.9429898
vn -1.394195E-05 -0.3328218 0.9429897
vn -1.37009E-05 0.375087 0.9269896
vn -1.37009E-05 0.375087 0.9269896
vn -1.37009E-05 0.3750869 0.9269896
vn -1.37009E-05 0.375087 0.9269896
g SM_Tool_Drill_Trigger_01_0
f 2/2/2 3/3/3 4/4/4
f 1/1/1 2/2/2 4/4/4
f 5/5/5 6/6/6 12/12/12
f 9/9/9 5/5/5 12/12/12
f 7/7/7 16/16/16 15/15/15
f 10/10/10 7/7/7 15/15/15
f 10/10/10 15/15/15 13/13/13
f 10/10/10 13/13/13 27/27/27
f 28/28/28 10/10/10 27/27/27
f 18/18/18 17/17/17 8/8/8
f 11/11/11 18/18/18 8/8/8
f 11/11/11 14/14/14 18/18/18
f 11/11/11 32/32/32 14/14/14
f 32/32/32 31/31/31 14/14/14
f 21/21/21 20/20/20 19/19/19
f 22/22/22 21/21/21 19/19/19
f 25/25/25 24/24/24 23/23/23
f 26/26/26 25/25/25 23/23/23
f 26/26/26 23/23/23 29/29/29
f 30/30/30 26/26/26 29/29/29
f 35/35/35 34/34/34 33/33/33
f 36/36/36 35/35/35 33/33/33
f 39/39/39 38/38/38 37/37/37
f 40/40/40 39/39/39 37/37/37
