g SM_Tool_Hammer_Mallet
v 0.01022375 0.0251384 -0.1055274
v -0.0102235 0.0251384 -0.1055274
v -0.02044699 4.768371E-09 -0.1055274
v -0.0102235 -0.0251384 -0.1055274
v 0.01022375 -0.0251384 -0.1055274
v 0.02044699 0 -0.1055274
v 0.008557196 0.02104098 0.2687453
v -0.008556945 0.02104098 0.2687453
v -0.01711439 0 0.2687454
v -0.008556945 -0.02104099 0.2687454
v 0.008557196 -0.02104099 0.2687454
v 0.01711439 0 0.2687454
v 0.01022375 0.0251384 0.08661731
v 0.02044699 0 0.08661731
v 0.01022375 -0.0251384 0.08661731
v -0.0102235 -0.0251384 0.08661731
v -0.02044699 4.768371E-09 0.08661731
v -0.0102235 0.0251384 0.08661731
v 0.006576524 0.01617029 0.3726381
v -0.006576273 0.01617029 0.3726381
v -0.01315255 0 0.3726381
v -0.006576273 -0.01617029 0.3726381
v 0.006576524 -0.01617029 0.3726381
v 0.01315255 0 0.3726381
v 0.006576524 0.01617029 0.3634309
v -0.006576273 0.01617029 0.3634309
v -0.01315255 0 0.3634309
v -0.006576273 -0.01617029 0.3634309
v 0.006576524 -0.01617029 0.3634309
v 0.01315255 0 0.3634309
v -0.03155951 -0.03645102 0.3647563
v 0.03155951 -0.03645102 0.3647563
v -0.03155951 0.03645102 0.3647563
v 0.03155951 0.03645102 0.3647563
v -0.03155951 0.03645102 0.2749336
v 0.03155951 0.03645102 0.2749336
v -0.03155951 -0.03645102 0.2749336
v 0.03155951 -0.03645102 0.2749336
v -0.01623309 0.05497859 0.3428029
v 0.01649727 0.05497859 0.3428029
v 0.01649727 0.05497859 0.2968871
v -0.01623309 0.05497859 0.2968871
v -0.02245026 -0.06622558 0.2883504
v 0.02245026 -0.06622558 0.2883504
v 0.02245026 -0.06622558 0.3513395
v -0.02245026 -0.06622558 0.3513395
v -0.03847513 0.06597237 0.336255
v -0.01623383 0.05497948 0.3428039
v -0.01456732 0.06597237 0.3601627
v 0.001290675 0.104706 0.319845
v 0.01714867 0.06597237 0.3601627
v 0.01649776 0.05497948 0.3428039
v 0.04105623 0.06597237 0.336255
v 0.04105623 0.06597237 0.3034349
v 0.01649776 0.05497948 0.2968861
v 0.01714867 0.06597237 0.2795272
v -0.01456732 0.06597237 0.2795272
v -0.01623383 0.05497948 0.2968861
v -0.03847513 0.06597237 0.3034349
v -0.04300574 -0.07580186 0.3015652
v -0.02245126 -0.06622653 0.2883491
v -0.01637397 -0.07580186 0.2749336
v -0.04300574 -0.1255149 0.3015652
v -0.01637397 -0.1255149 0.2749336
v 0.01895531 -0.07580186 0.2749336
v 0.02245126 -0.06622653 0.2883491
v 0.04558709 -0.07580186 0.3015652
v 0.04558709 -0.1255149 0.3015652
v 0.01895531 -0.1255149 0.2749336
v 0.04558709 -0.07580186 0.3381248
v 0.02245126 -0.06622653 0.3513409
v 0.01895531 -0.07580186 0.3647563
v 0.01895531 -0.1255149 0.3647563
v 0.04558709 -0.1255149 0.3381248
v -0.01637397 -0.07580186 0.3647563
v -0.02245126 -0.06622653 0.3513409
v -0.04300574 -0.07580186 0.3381248
v -0.04300574 -0.1255149 0.3381248
v -0.01637397 -0.1255149 0.3647563
v -0.02830324 0.09280661 0.3320576
v -0.02830324 0.09280661 0.3076324
v -0.01051084 0.09280661 0.28984
v 0.01309244 0.09280661 0.28984
v 0.03088483 0.09280661 0.3076324
v 0.03088483 0.09280661 0.3320576
v 0.01309244 0.09280661 0.3498499
v -0.01051084 0.09280661 0.3498499
v 0.001290675 -0.1255149 0.319845
v -0.0102235 0.0251384 -0.1055274
v -0.0102235 0.0251384 0.08661731
v -0.02044699 4.768371E-09 -0.1055274
v -0.02044699 4.768371E-09 0.08661731
v -0.0102235 -0.0251384 -0.1055274
v -0.0102235 -0.0251384 0.08661731
v 0.01022375 -0.0251384 -0.1055274
v 0.01022375 -0.0251384 0.08661731
v 0.02044699 0 -0.1055274
v 0.02044699 0 0.08661731
v 0.01022375 0.0251384 0.08661731
v 0.01022375 0.0251384 -0.1055274
v -0.02044699 4.768371E-09 -0.1055274
v -0.0102235 -0.0251384 -0.1055274
v 0.01022375 -0.0251384 -0.1055274
v 0.02044699 0 -0.1055274
v 0.01711439 0 0.2687454
v 0.008557196 -0.02104099 0.2687454
v -0.008556945 -0.02104099 0.2687454
v -0.01711439 0 0.2687454
v 0.008557196 0.02104098 0.2687453
v -0.008556945 0.02104098 0.2687453
v 0.006576524 0.01617029 0.3726381
v -0.006576273 0.01617029 0.3726381
v -0.006576273 0.01617029 0.3634309
v -0.006576273 0.01617029 0.3726381
v -0.01315255 0 0.3726381
v -0.01315255 0 0.3634309
v -0.01315255 0 0.3726381
v -0.006576273 -0.01617029 0.3634309
v -0.006576273 -0.01617029 0.3726381
v 0.006576524 -0.01617029 0.3634309
v 0.006576524 -0.01617029 0.3726381
v 0.01315255 0 0.3726381
v 0.01315255 0 0.3634309
v 0.01315255 0 0.3726381
v 0.006576524 0.01617029 0.3726381
v 0.006576524 0.01617029 0.3634309
v 0.01022375 0.0251384 -0.1055274
v -0.0102235 0.0251384 -0.1055274
v -0.02044699 4.768371E-09 -0.1055274
v 0.02044699 0 -0.1055274
v 0.006576524 -0.01617029 0.3726381
v -0.006576273 -0.01617029 0.3726381
v 0.03155951 -0.03645102 0.3647563
v 0.03155951 0.03645102 0.3647563
v 0.03155951 0.03645102 0.2749336
v 0.03155951 -0.03645102 0.2749336
v -0.03155951 -0.03645102 0.2749336
v -0.03155951 0.03645102 0.2749336
v -0.03155951 0.03645102 0.3647563
v -0.03155951 -0.03645102 0.3647563
v -0.03155951 0.03645102 0.3647563
v 0.03155951 0.03645102 0.3647563
v 0.01649727 0.05497859 0.3428029
v 0.03155951 0.03645102 0.2749336
v 0.01649727 0.05497859 0.2968871
v -0.03155951 0.03645102 0.2749336
v -0.01623309 0.05497859 0.2968871
v -0.01623309 0.05497859 0.3428029
v 0.02245026 -0.06622558 0.2883504
v 0.02245026 -0.06622558 0.3513395
v -0.02245026 -0.06622558 0.3513395
v -0.02245026 -0.06622558 0.2883504
v 0.01649727 0.05497859 0.3428029
v -0.01623309 0.05497859 0.3428029
v 0.01649727 0.05497859 0.2968871
v -0.01623309 0.05497859 0.2968871
v -0.02245026 -0.06622558 0.2883504
v 0.02245026 -0.06622558 0.2883504
v 0.02245026 -0.06622558 0.3513395
v -0.02245026 -0.06622558 0.3513395
v 0.01714867 0.06597237 0.3601627
v -0.01456732 0.06597237 0.3601627
v 0.04105623 0.06597237 0.3034349
v 0.04105623 0.06597237 0.336255
v -0.01456732 0.06597237 0.2795272
v 0.01714867 0.06597237 0.2795272
v -0.03847513 0.06597237 0.336255
v -0.03847513 0.06597237 0.3034349
v 0.01895531 -0.07580186 0.2749336
v -0.01637397 -0.07580186 0.2749336
v 0.04558709 -0.07580186 0.3381248
v 0.04558709 -0.07580186 0.3015652
v -0.01637397 -0.07580186 0.3647563
v 0.01895531 -0.07580186 0.3647563
v -0.04300574 -0.07580186 0.3015652
v -0.04300574 -0.07580186 0.3381248
v -0.03847513 0.06597237 0.336255
v -0.02830324 0.09280661 0.3320576
v -0.01051084 0.09280661 0.3498499
v -0.01456732 0.06597237 0.3601627
v 0.01714867 0.06597237 0.3601627
v 0.01309244 0.09280661 0.3498499
v 0.03088483 0.09280661 0.3320576
v 0.04105623 0.06597237 0.336255
v 0.04105623 0.06597237 0.3034349
v 0.03088483 0.09280661 0.3076324
v 0.01309244 0.09280661 0.28984
v 0.01714867 0.06597237 0.2795272
v -0.01456732 0.06597237 0.2795272
v -0.01051084 0.09280661 0.28984
v -0.02830324 0.09280661 0.3076324
v -0.03847513 0.06597237 0.3034349
v -0.04300574 -0.1255149 0.3015652
v -0.01637397 -0.1255149 0.2749336
v -0.01637397 -0.07580186 0.2749336
v 0.01895531 -0.1255149 0.2749336
v 0.04558709 -0.1255149 0.3015652
v 0.04558709 -0.1255149 0.3381248
v 0.01895531 -0.1255149 0.3647563
v -0.01637397 -0.07580186 0.3647563
v -0.01637397 -0.1255149 0.3647563
v -0.04300574 -0.1255149 0.3381248
v -0.02830324 0.09280661 0.3320576
v -0.02830324 0.09280661 0.3076324
v -0.01051084 0.09280661 0.28984
v 0.01309244 0.09280661 0.28984
v 0.03088483 0.09280661 0.3076324
v 0.03088483 0.09280661 0.3320576
v 0.01309244 0.09280661 0.3498499
v -0.01051084 0.09280661 0.3498499
v -0.04300574 -0.1255149 0.3015652
v -0.01637397 -0.1255149 0.2749336
v 0.01895531 -0.1255149 0.2749336
v 0.04558709 -0.1255149 0.3015652
v 0.04558709 -0.1255149 0.3381248
v 0.01895531 -0.1255149 0.3647563
v -0.01637397 -0.1255149 0.3647563
v -0.04300574 -0.1255149 0.3381248
vt 0.007476807 0.2522573
vt 0.007476807 0.2522573
vt 0.007476807 0.2522574
vt 0.007476807 0.2522573
vt 0.007476807 0.2522573
vt 0.01620483 0.2522574
vt 0.007476807 0.2522573
vt 0.007476807 0.2522573
vt 0.007476807 0.2522574
vt 0.007476807 0.2522573
vt 0.007476807 0.2522573
vt 0.007476807 0.2522574
vt 0.01620483 0.2522573
vt 0.007476807 0.2522574
vt 0.007476807 0.2522573
vt 0.007476807 0.2522573
vt 0.007476807 0.2522574
vt 0.007476807 0.2522573
vt 0.007476807 0.2522573
vt 0.007476807 0.2522573
vt 0.007476807 0.2522574
vt 0.007476807 0.2522573
vt 0.007476807 0.2522573
vt 0.007476807 0.2522574
vt 0.007476807 0.2522573
vt 0.007476807 0.2522573
vt 0.007476807 0.2522574
vt 0.007476807 0.2522573
vt 0.007476807 0.2522573
vt 0.007476807 0.2522574
vt 0.102356 0.230917
vt 0.102356 0.230917
vt 0.102356 0.230917
vt 0.102356 0.230917
vt 0.102356 0.230917
vt 0.102356 0.230917
vt 0.102356 0.230917
vt 0.102356 0.230917
vt 0.102356 0.230917
vt 0.102356 0.230917
vt 0.102356 0.230917
vt 0.102356 0.230917
vt 0.102356 0.230917
vt 0.102356 0.230917
vt 0.102356 0.230917
vt 0.102356 0.230917
vt 0.102356 0.230917
vt 0.102356 0.230917
vt 0.102356 0.230917
vt 0.102356 0.230917
vt 0.102356 0.230917
vt 0.102356 0.230917
vt 0.102356 0.230917
vt 0.102356 0.230917
vt 0.102356 0.230917
vt 0.102356 0.230917
vt 0.102356 0.230917
vt 0.102356 0.230917
vt 0.102356 0.230917
vt 0.102356 0.230917
vt 0.102356 0.230917
vt 0.102356 0.230917
vt 0.102356 0.230917
vt 0.102356 0.230917
vt 0.102356 0.230917
vt 0.102356 0.230917
vt 0.102356 0.230917
vt 0.102356 0.230917
vt 0.102356 0.230917
vt 0.102356 0.230917
vt 0.102356 0.230917
vt 0.102356 0.230917
vt 0.102356 0.230917
vt 0.102356 0.230917
vt 0.102356 0.230917
vt 0.102356 0.230917
vt 0.102356 0.230917
vt 0.102356 0.230917
vt 0.102356 0.230917
vt 0.102356 0.230917
vt 0.102356 0.230917
vt 0.102356 0.230917
vt 0.102356 0.230917
vt 0.102356 0.230917
vt 0.102356 0.230917
vt 0.102356 0.230917
vt 0.102356 0.230917
vt 0.102356 0.230917
vt 0.007476807 0.2522573
vt 0.007476807 0.2522573
vt 0.007476807 0.2522574
vt 0.007476807 0.2522574
vt 0.007476807 0.2522573
vt 0.007476807 0.2522573
vt 0.007476807 0.2522573
vt 0.007476807 0.2522573
vt 0.01620483 0.2522574
vt 0.007476807 0.2522574
vt 0.01620483 0.2522573
vt 0.007476807 0.2522573
vt 0.007476807 0.2522574
vt 0.007476807 0.2522573
vt 0.007476807 0.2522573
vt 0.01620483 0.2522574
vt 0.007476807 0.2522574
vt 0.007476807 0.2522573
vt 0.007476807 0.2522573
vt 0.007476807 0.2522574
vt 0.007476807 0.2522573
vt 0.007476807 0.2522573
vt 0.007476807 0.2522573
vt 0.007476807 0.2522573
vt 0.007476807 0.2522573
vt 0.007476807 0.2522573
vt 0.007476807 0.2522574
vt 0.007476807 0.2522574
vt 0.007476807 0.2522574
vt 0.007476807 0.2522573
vt 0.007476807 0.2522573
vt 0.007476807 0.2522573
vt 0.007476807 0.2522573
vt 0.007476807 0.2522574
vt 0.007476807 0.2522574
vt 0.007476807 0.2522574
vt 0.007476807 0.2522573
vt 0.007476807 0.2522573
vt 0.007476807 0.2522573
vt 0.007476807 0.2522573
vt 0.007476807 0.2522574
vt 0.01620483 0.2522574
vt 0.007476807 0.2522573
vt 0.007476807 0.2522573
vt 0.102356 0.230917
vt 0.102356 0.230917
vt 0.102356 0.230917
vt 0.102356 0.230917
vt 0.102356 0.230917
vt 0.102356 0.230917
vt 0.102356 0.230917
vt 0.102356 0.230917
vt 0.102356 0.230917
vt 0.102356 0.230917
vt 0.102356 0.230917
vt 0.102356 0.230917
vt 0.102356 0.230917
vt 0.102356 0.230917
vt 0.102356 0.230917
vt 0.102356 0.230917
vt 0.102356 0.230917
vt 0.102356 0.230917
vt 0.102356 0.230917
vt 0.102356 0.230917
vt 0.102356 0.230917
vt 0.102356 0.230917
vt 0.102356 0.230917
vt 0.102356 0.230917
vt 0.102356 0.230917
vt 0.102356 0.230917
vt 0.102356 0.230917
vt 0.102356 0.230917
vt 0.102356 0.230917
vt 0.102356 0.230917
vt 0.102356 0.230917
vt 0.102356 0.230917
vt 0.102356 0.230917
vt 0.102356 0.230917
vt 0.102356 0.230917
vt 0.102356 0.230917
vt 0.102356 0.230917
vt 0.102356 0.230917
vt 0.102356 0.230917
vt 0.102356 0.230917
vt 0.102356 0.230917
vt 0.102356 0.230917
vt 0.102356 0.230917
vt 0.102356 0.230917
vt 0.102356 0.230917
vt 0.102356 0.230917
vt 0.102356 0.230917
vt 0.102356 0.230917
vt 0.102356 0.230917
vt 0.102356 0.230917
vt 0.102356 0.230917
vt 0.102356 0.230917
vt 0.102356 0.230917
vt 0.102356 0.230917
vt 0.102356 0.230917
vt 0.102356 0.230917
vt 0.102356 0.230917
vt 0.102356 0.230917
vt 0.102356 0.230917
vt 0.102356 0.230917
vt 0.102356 0.230917
vt 0.102356 0.230917
vt 0.102356 0.230917
vt 0.102356 0.230917
vt 0.102356 0.230917
vt 0.102356 0.230917
vt 0.102356 0.230917
vt 0.102356 0.230917
vt 0.102356 0.230917
vt 0.102356 0.230917
vt 0.102356 0.230917
vt 0.102356 0.230917
vt 0.102356 0.230917
vt 0.102356 0.230917
vt 0.102356 0.230917
vt 0.102356 0.230917
vt 0.102356 0.230917
vt 0.102356 0.230917
vt 0.102356 0.230917
vt 0.102356 0.230917
vt 0.102356 0.230917
vt 0.102356 0.230917
vt 0.102356 0.230917
vt 0.102356 0.230917
vt 0.102356 0.230917
vt 0.102356 0.230917
vn 0 1 0
vn 0 1 0
vn -0.9263248 0.3767256 0
vn -0.926325 -0.3767256 0
vn 0 -1 0
vn 0.9263281 -0.3767177 0
vn 0.9260765 0.3766208 0.02321791
vn -0.9260728 0.37663 0.02321801
vn -0.9260706 -0.376629 0.02331743
vn 0 -0.9995221 0.03091274
vn 0.9260765 -0.3766207 0.02321792
vn 0.9260744 0.3766199 0.02331735
vn 0 0.9999455 0.01043742
vn 0.9262986 -0.3767082 0.007870426
vn 0 -0.9999455 0.0104374
vn -0.9262954 -0.3767165 0.007842068
vn -0.9262952 0.3767165 0.00787046
vn 0 0.9999455 0.01043741
vn 0 0 1
vn 0 0 1
vn 0 0 1
vn -0.9263248 -0.3767257 0
vn 0 -1 0
vn 0 0 1
vn 0 0.9988747 0.04742719
vn 0 0.9988747 0.04742719
vn -0.9257304 0.3764912 0.03574251
vn -0.9257291 -0.3764907 0.0357836
vn 0 -0.9988747 0.04742731
vn 0.9257348 -0.3764804 0.03574241
vn 0 -0.1005061 0.9949365
vn 0 -0.1005061 0.9949365
vn 0 0 1
vn 0 0 1
vn 0 0 -1
vn 0 0 -1
vn 0 -0.1005061 -0.9949365
vn 0 -0.1005061 -0.9949365
vn 0 0.7642167 0.6449596
vn 0 0.7642167 0.6449596
vn 0.7759377 0.6308095 0
vn 0 0.7642167 -0.6449596
vn 0 -0.4108281 -0.9117129
vn 0 -0.4108281 -0.9117129
vn 0.9562486 -0.2925553 0
vn 0 -0.4108281 0.9117129
vn -0.4636032 -0.8808426 0.09585599
vn -0.2403434 -0.8094848 0.5356952
vn -0.1519427 -0.8283749 0.5391738
vn 0 1 0
vn 0.1648702 -0.8360637 0.5232736
vn 0.2124701 -0.8291318 0.5171043
vn 0.426589 -0.9000774 0.08878253
vn 0.4235966 -0.9029223 -0.07278248
vn 0.2148252 -0.8287355 -0.5167663
vn 0.1670919 -0.8357851 -0.5230139
vn -0.1497259 -0.8287587 -0.5392041
vn -0.2378035 -0.8101265 -0.5358587
vn -0.4601235 -0.8844192 -0.07803276
vn -0.7366297 0.3486826 -0.5794801
vn -0.3468427 0.6820046 -0.6438709
vn 0 0.8139374 -0.5809525
vn -1 0 0
vn 0 0 -1
vn 0.6397982 0.1805479 -0.7470345
vn 0.2760889 0.7468409 -0.6049824
vn 0.7251464 0.3800782 -0.5741981
vn 1 0 0
vn 0 0 -1
vn 0.7312183 0.271664 0.6257143
vn 0.3005336 0.7375562 0.6047235
vn 0.6518542 0.1570409 0.7419059
vn 0 0 1
vn 1 0 0
vn 0 0.8139366 0.5809537
vn -0.3204781 0.6963535 0.6421725
vn -0.7375998 0.2448214 0.6292925
vn -1 0 0
vn 0 0 1
vn -0.9350739 0.3544527 0
vn -0.9350739 0.3544527 0
vn 0 0.3587336 -0.93344
vn 0 0.3587336 -0.93344
vn 0.9350796 0.3544376 0
vn 0.9350796 0.3544376 0
vn 0 0.3587349 0.9334395
vn 0 0.3587349 0.9334395
vn 0 -1 0
vn -0.9263248 0.3767256 0
vn -0.9262954 0.3767166 0.007842078
vn -0.926325 -0.3767256 0
vn -0.9262952 -0.3767164 0.007870451
vn 0 -1 0
vn 0 -0.9999455 0.01043739
vn 0.9263281 -0.3767177 0
vn 0.9262988 -0.3767083 0.007842047
vn 0.9263281 0.3767177 0
vn 0.9262984 0.3767082 0.007870429
vn 0.9262988 0.3767083 0.007842049
vn 0.9263281 0.3767177 0
vn 0 0 -1
vn 0 0 -1
vn 0 0 -1
vn 0 0 -1
vn 0.9260744 -0.3766198 0.02331736
vn 0 -0.9995221 0.03091274
vn -0.9260728 -0.3766299 0.023218
vn -0.9260706 0.3766291 0.02331744
vn 0 0.9995221 0.03091274
vn 0 0.9995221 0.03091274
vn 0 1 0
vn 0 1 0
vn -0.925729 0.3764907 0.03578356
vn -0.9263248 0.3767257 0
vn -0.9263248 0.3767257 0
vn -0.9257304 -0.3764912 0.03574253
vn -0.9263248 -0.3767257 0
vn 0 -0.9988747 0.04742731
vn 0 -1 0
vn 0.9257335 -0.3764798 0.03578347
vn 0.9263299 -0.3767134 0
vn 0.9263299 -0.3767134 0
vn 0.9257348 0.3764805 0.03574238
vn 0.9263299 0.3767134 0
vn 0.9263299 0.3767134 0
vn 0.9257334 0.3764799 0.03578343
vn 0 0 -1
vn 0 0 -1
vn 0 0 -1
vn 0 0 -1
vn 0 0 1
vn 0 0 1
vn 0.9980443 -0.06251173 0
vn 0.9972236 0.07446624 0
vn 0.9972236 0.07446624 0
vn 0.9980443 -0.06251173 0
vn -0.9980443 -0.06251173 0
vn -0.9971038 0.07605264 0
vn -0.9971038 0.07605264 0
vn -0.9980443 -0.06251173 0
vn 0 0.7642167 0.6449596
vn 0 0.7642167 0.6449596
vn 0.7759377 0.6308095 0
vn 0 0.7642167 -0.6449596
vn 0 0.7642167 -0.6449596
vn 0 0.7642167 -0.6449596
vn -0.770532 0.6374015 0
vn -0.770532 0.6374015 0
vn 0.9562486 -0.2925553 0
vn 0 -0.4108281 0.9117129
vn -0.9562486 -0.2925553 0
vn -0.9562486 -0.2925553 0
vn 0.4085651 -0.9127291 5.462408E-05
vn -0.4430868 -0.8964787 5.847655E-05
vn 0.4085678 -0.9127281 -4.603706E-05
vn -0.4430905 -0.8964768 -4.899107E-05
vn -0.4222685 0.9064708 -7.015026E-05
vn 0.382413 0.9239914 -6.277658E-05
vn 0.3824055 0.9239946 8.239625E-05
vn -0.4222584 0.9064755 9.304742E-05
vn 0 0.3587349 0.9334395
vn 0 0.3587349 0.9334395
vn 0.9350796 0.3544376 0
vn 0.9350796 0.3544376 0
vn 0 0.3587336 -0.9334399
vn 0 0.3587336 -0.9334399
vn -0.9350739 0.3544527 0
vn -0.9350739 0.3544527 0
vn 0 0 -1
vn 0 0 -1
vn 1 0 0
vn 1 0 0
vn 0 0 1
vn 0 0 1
vn -1 0 0
vn -1 0 0
vn -0.6612878 0.3541099 0.6612902
vn -0.6612877 0.3541099 0.6612902
vn -0.6612878 0.3541099 0.6612902
vn -0.6612878 0.3541099 0.6612902
vn 0.6612919 0.3541019 0.6612903
vn 0.6612919 0.3541019 0.6612903
vn 0.6612918 0.3541019 0.6612904
vn 0.6612919 0.3541019 0.6612903
vn 0.6612918 0.3541018 -0.6612904
vn 0.6612919 0.3541018 -0.6612903
vn 0.6612918 0.3541019 -0.6612904
vn 0.6612918 0.3541018 -0.6612904
vn -0.6612877 0.3541099 -0.6612902
vn -0.6612877 0.35411 -0.6612902
vn -0.6612877 0.3541099 -0.6612902
vn -0.6612878 0.3541099 -0.6612902
vn -0.7071043 0 -0.7071093
vn -0.7071043 0 -0.7071093
vn -0.7069433 0.02133726 -0.7069482
vn 0.7071042 0 -0.7071093
vn 0.7071042 0 -0.7071093
vn 0.7071037 0 0.7071099
vn 0.7071037 0 0.7071099
vn -0.7069428 0.0213372 0.7069488
vn -0.7071038 0 0.7071097
vn -0.7071038 0 0.7071097
vn -0.3211137 0.9373443 0.1351732
vn -0.3211138 0.9373443 -0.1351731
vn -0.1349326 0.938112 -0.3189655
vn 0.134933 0.9381123 -0.3189643
vn 0.3211118 0.937345 -0.1351719
vn 0.3211117 0.9373451 0.135172
vn 0.1349329 0.9381123 0.3189646
vn -0.1349325 0.9381119 0.3189657
vn 0 -1 0
vn 0 -1 0
vn 0 -1 0
vn 0 -1 0
vn 0 -1 0
vn 0 -1 0
vn 0 -1 0
vn 0 -1 0
g SM_Tool_Hammer_Mallet_0
f 2/2/2 18/18/18 1/1/1
f 18/18/18 13/13/13 1/1/1
f 18/18/18 110/110/110 13/13/13
f 110/110/110 109/109/109 13/13/13
f 110/110/110 26/26/26 109/109/109
f 26/26/26 25/25/25 109/109/109
f 26/26/26 112/112/112 25/25/25
f 112/112/112 111/111/111 25/25/25
f 3/3/3 17/17/17 89/89/89
f 17/17/17 90/90/90 89/89/89
f 17/17/17 108/108/108 90/90/90
f 108/108/108 8/8/8 90/90/90
f 108/108/108 27/27/27 8/8/8
f 27/27/27 113/113/113 8/8/8
f 27/27/27 115/115/115 113/113/113
f 115/115/115 114/114/114 113/113/113
f 4/4/4 16/16/16 91/91/91
f 16/16/16 92/92/92 91/91/91
f 16/16/16 107/107/107 92/92/92
f 107/107/107 9/9/9 92/92/92
f 107/107/107 28/28/28 9/9/9
f 28/28/28 116/116/116 9/9/9
f 28/28/28 22/22/22 116/116/116
f 22/22/22 117/117/117 116/116/116
f 5/5/5 15/15/15 93/93/93
f 15/15/15 94/94/94 93/93/93
f 15/15/15 106/106/106 94/94/94
f 106/106/106 10/10/10 94/94/94
f 106/106/106 29/29/29 10/10/10
f 29/29/29 118/118/118 10/10/10
f 29/29/29 23/23/23 118/118/118
f 23/23/23 119/119/119 118/118/118
f 6/6/6 14/14/14 95/95/95
f 14/14/14 96/96/96 95/95/95
f 14/14/14 105/105/105 96/96/96
f 105/105/105 11/11/11 96/96/96
f 105/105/105 30/30/30 11/11/11
f 30/30/30 120/120/120 11/11/11
f 30/30/30 122/122/122 120/120/120
f 122/122/122 121/121/121 120/120/120
f 100/100/100 99/99/99 97/97/97
f 99/99/99 98/98/98 97/97/97
f 99/99/99 7/7/7 98/98/98
f 7/7/7 12/12/12 98/98/98
f 7/7/7 126/126/126 12/12/12
f 126/126/126 123/123/123 12/12/12
f 126/126/126 125/125/125 123/123/123
f 125/125/125 124/124/124 123/123/123
f 103/103/103 102/102/102 101/101/101
f 104/104/104 103/103/103 101/101/101
f 20/20/20 21/21/21 19/19/19
f 21/21/21 24/24/24 19/19/19
f 21/21/21 132/132/132 24/24/24
f 132/132/132 131/131/131 24/24/24
f 129/129/129 128/128/128 127/127/127
f 130/130/130 129/129/129 127/127/127
f 34/34/34 33/33/33 31/31/31
f 32/32/32 34/34/34 31/31/31
f 31/31/31 46/46/46 32/32/32
f 46/46/46 150/150/150 32/32/32
f 36/36/36 38/38/38 35/35/35
f 38/38/38 37/37/37 35/35/35
f 38/38/38 44/44/44 37/37/37
f 44/44/44 43/43/43 37/37/37
f 40/40/40 39/39/39 141/141/141
f 142/142/142 40/40/40 141/141/141
f 41/41/41 143/143/143 134/134/134
f 135/135/135 41/41/41 134/134/134
f 135/135/135 134/134/134 133/133/133
f 136/136/136 135/135/135 133/133/133
f 133/133/133 45/45/45 136/136/136
f 45/45/45 149/149/149 136/136/136
f 42/42/42 145/145/145 144/144/144
f 146/146/146 42/42/42 144/144/144
f 148/148/148 147/147/147 138/138/138
f 139/139/139 148/148/148 138/138/138
f 139/139/139 138/138/138 137/137/137
f 140/140/140 139/139/139 137/137/137
f 137/137/137 152/152/152 140/140/140
f 152/152/152 151/151/151 140/140/140
f 65/65/65 62/62/62 61/61/61
f 61/61/61 66/66/66 65/65/65
f 66/66/66 67/67/67 65/65/65
f 67/67/67 197/197/197 65/65/65
f 197/197/197 196/196/196 65/65/65
f 67/67/67 66/66/66 158/158/158
f 157/157/157 158/158/158 66/66/66
f 61/61/61 157/157/157 66/66/66
f 158/158/158 159/159/159 67/67/67
f 159/159/159 70/70/70 67/67/67
f 157/157/157 61/61/61 60/60/60
f 61/61/61 195/195/195 60/60/60
f 195/195/195 194/194/194 60/60/60
f 194/194/194 193/193/193 60/60/60
f 60/60/60 160/160/160 157/157/157
f 60/60/60 77/77/77 160/160/160
f 159/159/159 160/160/160 76/76/76
f 77/77/77 76/76/76 160/160/160
f 76/76/76 77/77/77 200/200/200
f 77/77/77 202/202/202 200/200/200
f 202/202/202 201/201/201 200/200/200
f 76/76/76 71/71/71 159/159/159
f 159/159/159 71/71/71 70/70/70
f 76/76/76 75/75/75 71/71/71
f 75/75/75 72/72/72 71/71/71
f 71/71/71 72/72/72 70/70/70
f 72/72/72 199/199/199 70/70/70
f 199/199/199 198/198/198 70/70/70
f 162/162/162 161/161/161 86/86/86
f 87/87/87 162/162/162 86/86/86
f 164/164/164 163/163/163 84/84/84
f 85/85/85 164/164/164 84/84/84
f 166/166/166 165/165/165 82/82/82
f 83/83/83 166/166/166 82/82/82
f 168/168/168 167/167/167 80/80/80
f 81/81/81 168/168/168 80/80/80
f 169/169/169 69/69/69 64/64/64
f 170/170/170 169/169/169 64/64/64
f 171/171/171 74/74/74 68/68/68
f 172/172/172 171/171/171 68/68/68
f 173/173/173 79/79/79 73/73/73
f 174/174/174 173/173/173 73/73/73
f 175/175/175 63/63/63 78/78/78
f 176/176/176 175/175/175 78/78/78
f 179/179/179 178/178/178 177/177/177
f 180/180/180 179/179/179 177/177/177
f 183/183/183 182/182/182 181/181/181
f 184/184/184 183/183/183 181/181/181
f 187/187/187 186/186/186 185/185/185
f 188/188/188 187/187/187 185/185/185
f 191/191/191 190/190/190 189/189/189
f 192/192/192 191/191/191 189/189/189
f 51/51/51 49/49/49 48/48/48
f 48/48/48 49/49/49 47/47/47
f 52/52/52 51/51/51 48/48/48
f 52/52/52 53/53/53 51/51/51
f 154/154/154 48/48/48 47/47/47
f 52/52/52 48/48/48 154/154/154
f 154/154/154 47/47/47 59/59/59
f 53/53/53 52/52/52 153/153/153
f 154/154/154 153/153/153 52/52/52
f 54/54/54 53/53/53 153/153/153
f 156/156/156 154/154/154 59/59/59
f 54/54/54 153/153/153 155/155/155
f 59/59/59 58/58/58 156/156/156
f 155/155/155 156/156/156 58/58/58
f 58/58/58 59/59/59 57/57/57
f 155/155/155 55/55/55 54/54/54
f 55/55/55 155/155/155 58/58/58
f 55/55/55 58/58/58 57/57/57
f 55/55/55 56/56/56 54/54/54
f 57/57/57 56/56/56 55/55/55
f 204/204/204 203/203/203 50/50/50
f 204/204/204 50/50/50 205/205/205
f 210/210/210 50/50/50 203/203/203
f 206/206/206 205/205/205 50/50/50
f 210/210/210 209/209/209 50/50/50
f 206/206/206 50/50/50 207/207/207
f 208/208/208 50/50/50 209/209/209
f 208/208/208 207/207/207 50/50/50
f 212/212/212 88/88/88 211/211/211
f 211/211/211 88/88/88 218/218/218
f 213/213/213 88/88/88 212/212/212
f 218/218/218 88/88/88 217/217/217
f 214/214/214 88/88/88 213/213/213
f 217/217/217 88/88/88 216/216/216
f 215/215/215 88/88/88 214/214/214
f 216/216/216 88/88/88 215/215/215
