g SM_Tool_Buffer_01_Disk
v -0.07108456 -0.0533785 -0.01782839
v -0.02800128 -0.08559809 -0.0159941
v 0.02804298 -0.08213937 -0.01712435
v 0.0735492 -0.05195555 -0.0152814
v 0.08755501 -0.0003368576 -0.01771961
v 0.0732359 0.05027227 -0.01689451
v 0.02600607 0.08494535 -0.01563604
v -0.02634702 0.08338156 -0.01674012
v -0.07323546 0.05282293 -0.01796871
v -0.08853706 -0.0008811385 -0.01875634
v -0.04584585 -0.03330889 0.004643154
v -0.01751154 -0.05389494 0.004643164
v 3.247163E-09 5.645903E-08 0.004643154
v 0.01751156 -0.05389494 0.004643164
v 0.04584586 -0.03330889 0.004643154
v 0.05666857 5.645903E-08 0.004643154
v 0.04584585 0.03330904 0.004643164
v 0.01751155 0.05389517 0.004643164
v -0.01751155 0.05389517 0.004643164
v -0.04584584 0.03330904 0.004643164
v -0.05666856 5.645903E-08 0.004643154
v -0.05640194 -0.0003986175 -0.01793635
v -0.04437299 -0.03455454 -0.01819487
v 0.0003656953 0.001045665 -1.26265E-05
v -0.04636115 0.0350688 -0.01718169
v -0.01929455 0.05468313 -0.01665151
v 0.01594426 0.05413755 -0.01974736
v 0.0466702 0.03357992 -0.01775142
v 0.05642787 0.001272716 -0.01655541
v 0.04653967 -0.03272188 -0.02013755
v 0.01742215 -0.05593168 -0.01847192
v -0.01565123 -0.05239336 -0.01729524
v -0.03338159 0.09626196 -0.00455781
v 0.03184693 0.09598638 -0.005270033
v 0.08437301 0.05817693 -0.00230958
v 0.1001545 0.001055621 -0.003296118
v 0.08142874 -0.06063497 -0.003806667
v 0.0331264 -0.09821089 -0.003731232
v -0.03321811 -0.09826227 -0.002812023
v -0.08156504 -0.05936647 -0.003807507
v -0.1030077 0.001221599 -0.004677134
v -0.08282907 0.06176573 -0.004291496
v -0.06554143 -0.04614542 0.01849446
v -0.08071876 -0.05909582 0.01250951
v -0.02660839 -0.07867391 0.02078424
v -0.03043879 -0.09598589 0.0122837
v 0.02586336 -0.07577951 0.01876713
v 0.02870276 -0.09524496 0.01449285
v 0.06431021 -0.0469317 0.02012105
v 0.07896458 -0.0600559 0.01207329
v 0.08050568 -0.0003248794 0.02125937
v 0.09797609 -4.388886E-05 0.01062571
v 0.06328934 0.04781702 0.01999288
v 0.07979086 0.05775747 0.01430607
v 0.02431016 0.07778715 0.02109674
v 0.03178916 0.0948596 0.01164643
v -0.02342597 0.07857588 0.02100233
v -0.0324721 0.09462553 0.01390219
v -0.06588967 0.04567198 0.02121734
v -0.08104428 0.05653631 0.01299597
v -0.07947063 -0.001673642 0.02027638
v -0.09967044 -0.0007506378 0.01189121
v 0.08755501 -0.0003368576 -0.01771961
v 0.1001545 0.001055621 -0.003296118
v -0.08853706 -0.0008811385 -0.01875634
v -0.1030077 0.001221599 -0.004677134
v -0.07108456 -0.0533785 -0.01782839
v -0.08853706 -0.0008811385 -0.01875634
v -0.07323546 0.05282293 -0.01796871
v -0.04636115 0.0350688 -0.01718169
v -0.01929455 0.05468313 -0.01665151
v 0.01594426 0.05413755 -0.01974736
v 0.0466702 0.03357992 -0.01775142
v 0.05642787 0.001272716 -0.01655541
v 0.08755501 -0.0003368576 -0.01771961
v -0.02800128 -0.08559809 -0.0159941
v 0.08050568 -0.0003248794 0.02125937
v 0.09797609 -4.388886E-05 0.01062571
v -0.07947063 -0.001673642 0.02027638
v -0.09967044 -0.0007506378 0.01189121
v -0.06554143 -0.04614542 0.01849446
v -0.04584585 -0.03330889 0.004643154
v -0.01751154 -0.05389494 0.004643164
v -0.02660839 -0.07867391 0.02078424
v 0.01751156 -0.05389494 0.004643164
v 0.02586336 -0.07577951 0.01876713
v 0.04584586 -0.03330889 0.004643154
v 0.06431021 -0.0469317 0.02012105
v 0.05666857 5.645903E-08 0.004643154
v 0.08050568 -0.0003248794 0.02125937
v 0.04584585 0.03330904 0.004643164
v 0.06328934 0.04781702 0.01999288
v 0.01751155 0.05389517 0.004643164
v 0.02431016 0.07778715 0.02109674
v -0.01751155 0.05389517 0.004643164
v -0.02342597 0.07857588 0.02100233
v -0.04584584 0.03330904 0.004643164
v -0.06588967 0.04567198 0.02121734
v -0.05666856 5.645903E-08 0.004643154
v -0.07947063 -0.001673642 0.02027638
v 0.03184693 0.09598638 -0.005270033
v 0.03178916 0.0948596 0.01164643
v -0.0324721 0.09462553 0.01390219
v -0.03338159 0.09626196 -0.00455781
v 0.08437301 0.05817693 -0.00230958
v 0.07979086 0.05775747 0.01430607
v 0.1001545 0.001055621 -0.003296118
v 0.09797609 -4.388886E-05 0.01062571
v 0.08142874 -0.06063497 -0.003806667
v 0.07896458 -0.0600559 0.01207329
v 0.09797609 -4.388886E-05 0.01062571
v 0.1001545 0.001055621 -0.003296118
v 0.0331264 -0.09821089 -0.003731232
v 0.02870276 -0.09524496 0.01449285
v -0.03321811 -0.09826227 -0.002812023
v -0.03043879 -0.09598589 0.0122837
v -0.08156504 -0.05936647 -0.003807507
v -0.08071876 -0.05909582 0.01250951
v -0.1030077 0.001221599 -0.004677134
v -0.09967044 -0.0007506378 0.01189121
v -0.08282907 0.06176573 -0.004291496
v -0.08104428 0.05653631 0.01299597
v -0.09967044 -0.0007506378 0.01189121
v -0.1030077 0.001221599 -0.004677134
vt 0.03660236 0.374683
vt 0.03685866 0.3746196
vt 0.03713892 0.3746364
vt 0.03736164 0.37473
vt 0.03744619 0.3748785
vt 0.03733446 0.3750328
vt 0.03704484 0.3751225
vt 0.03670476 0.3750977
vt 0.03647892 0.3749729
vt 0.03645162 0.3748131
vt 0.07806712 0.2331102
vt 0.07835001 0.2330784
vt 0.0783087 0.2333261
vt 0.07862098 0.2331342
vt 0.07879607 0.233266
vt 0.07879854 0.2334376
vt 0.07859636 0.2335832
vt 0.07825813 0.2336296
vt 0.07794458 0.2335499
vt 0.07779849 0.2333891
vt 0.07785624 0.2332232
vt 0.03645162 0.3748131
vt 0.03660236 0.374683
vt 0.03694224 0.3748586
vt 0.03647892 0.3749729
vt 0.03670476 0.3750977
vt 0.03704484 0.3751225
vt 0.03733446 0.3750328
vt 0.03744619 0.3748785
vt 0.03736164 0.37473
vt 0.03713892 0.3746364
vt 0.03685866 0.3746196
vt 0.03670405 0.3750766
vt 0.03704515 0.3751014
vt 0.03733563 0.375012
vt 0.03744759 0.3748585
vt 0.03736272 0.3747109
vt 0.03713943 0.3746178
vt 0.03685845 0.3746011
vt 0.03660147 0.3746642
vt 0.03645031 0.3747935
vt 0.03647758 0.3749524
vt 0.03660057 0.3746453
vt 0.03660102 0.3746547
vt 0.03685825 0.3745826
vt 0.03685835 0.3745918
vt 0.03713994 0.3745991
vt 0.03713968 0.3746085
vt 0.03736381 0.3746917
vt 0.03736326 0.3747013
vt 0.03744899 0.3748386
vt 0.03744829 0.3748485
vt 0.03733681 0.3749913
vt 0.03733622 0.3750016
vt 0.03704546 0.3750801
vt 0.03704531 0.3750907
vt 0.03670333 0.3750555
vt 0.03670369 0.3750661
vt 0.03647624 0.3749319
vt 0.03647691 0.3749422
vt 0.036449 0.3747739
vt 0.03644966 0.3747837
vt 0.03744619 0.3748785
vt 0.03744759 0.3748585
vt 0.03645162 0.3748131
vt 0.03645031 0.3747935
vt 0.03660236 0.374683
vt 0.03645162 0.3748131
vt 0.03647892 0.3749729
vt 0.03647892 0.3749729
vt 0.03670476 0.3750977
vt 0.03704484 0.3751225
vt 0.03733446 0.3750328
vt 0.03744619 0.3748785
vt 0.03744619 0.3748785
vt 0.03685866 0.3746196
vt 0.03744899 0.3748386
vt 0.03744829 0.3748485
vt 0.036449 0.3747739
vt 0.03644966 0.3747837
vt 0.03660057 0.3746453
vt 0.03660057 0.3746453
vt 0.03685825 0.3745826
vt 0.03685825 0.3745826
vt 0.03713994 0.3745991
vt 0.03713994 0.3745991
vt 0.03736381 0.3746917
vt 0.03736381 0.3746917
vt 0.03744899 0.3748386
vt 0.03744899 0.3748386
vt 0.03733681 0.3749913
vt 0.03733681 0.3749913
vt 0.03704546 0.3750801
vt 0.03704546 0.3750801
vt 0.03670333 0.3750555
vt 0.03670333 0.3750555
vt 0.03647624 0.3749319
vt 0.03647624 0.3749319
vt 0.036449 0.3747739
vt 0.036449 0.3747739
vt 0.03704515 0.3751014
vt 0.03704531 0.3750907
vt 0.03670369 0.3750661
vt 0.03670405 0.3750766
vt 0.03733563 0.375012
vt 0.03733622 0.3750016
vt 0.03744759 0.3748585
vt 0.03744829 0.3748485
vt 0.03736272 0.3747109
vt 0.03736326 0.3747013
vt 0.03744829 0.3748485
vt 0.03744759 0.3748585
vt 0.03713943 0.3746178
vt 0.03713968 0.3746085
vt 0.03685845 0.3746011
vt 0.03685835 0.3745918
vt 0.03660147 0.3746642
vt 0.03660102 0.3746547
vt 0.03645031 0.3747935
vt 0.03644966 0.3747837
vt 0.03647758 0.3749524
vt 0.03647691 0.3749422
vt 0.03644966 0.3747837
vt 0.03645031 0.3747935
vn -0.5895344 -0.4354984 -0.6802869
vn -0.202235 -0.6603301 -0.7232326
vn 0.1210629 -0.3794778 -0.9172461
vn 0.3646064 -0.2384697 -0.900108
vn 0.74534 -0.003637602 -0.6666745
vn 0.3471289 0.2408828 -0.9063537
vn 0.124427 0.3858162 -0.9141465
vn -0.1067099 0.3711961 -0.9224025
vn -0.5620788 0.3957826 -0.7262394
vn -0.719558 -0.03010204 -0.6937796
vn 0.2774291 0.2019288 0.9392858
vn 0.1047476 0.3337512 0.9368234
vn 0 0 1
vn -0.1063524 0.3331111 0.9368704
vn -0.3018286 0.2030947 0.9314784
vn -0.3788108 -0.002552045 0.9254706
vn -0.3065405 -0.2160664 0.9270104
vn -0.1159265 -0.3484915 0.9301155
vn 0.1265802 -0.3529168 0.9270529
vn 0.3090627 -0.2285693 0.9231665
vn 0.3641001 -0.0163232 0.9312167
vn 0.1136378 0.008882042 -0.9934825
vn 0.08407171 0.04078925 -0.9956246
vn -0.008079744 0.001351376 -0.9999665
vn 0.09970225 -0.04499779 -0.9939994
vn 0.01768546 -0.07281822 -0.9971884
vn -0.02895925 -0.0650814 -0.9974597
vn -0.04959583 -0.04903767 -0.9975648
vn -0.07830533 0.009361773 -0.9968855
vn -0.04827897 0.04388551 -0.9978694
vn -0.03079651 0.04324796 -0.9985896
vn 0.0266978 0.07102707 -0.997117
vn -0.2293894 0.630919 -0.7411624
vn 0.2487386 0.6287461 -0.7367547
vn 0.5863243 0.3989525 -0.7050253
vn 0.744581 0.01770408 -0.6672972
vn 0.5565513 -0.4148887 -0.7198041
vn 0.1945557 -0.6264331 -0.7548044
vn -0.2168168 -0.6578854 -0.7212331
vn -0.5979236 -0.424286 -0.6800505
vn -0.7184107 0.004824863 -0.6956024
vn -0.5453923 0.4146488 -0.7284323
vn -0.2963451 -0.1997646 0.933956
vn -0.2907835 -0.2099262 0.9334753
vn -0.1254916 -0.3100708 0.9423949
vn -0.1118356 -0.3122008 0.9434105
vn 0.1110943 -0.2889923 0.9508635
vn 0.08945704 -0.2976688 0.9504687
vn 0.3368385 -0.1983875 0.920425
vn 0.3217729 -0.2046389 0.9244378
vn 0.4316007 -0.01821613 0.9018808
vn 0.4313723 -0.0170345 0.9020132
vn 0.3139495 0.2202199 0.9235469
vn 0.3224263 0.2104811 0.922897
vn 0.1217027 0.3858517 0.9144981
vn 0.1319113 0.3793077 0.9158193
vn -0.1070088 0.384001 0.9171108
vn -0.1362712 0.3679792 0.9197943
vn -0.3222524 0.2051295 0.924162
vn -0.3211769 0.206569 0.9242156
vn -0.3688269 -0.008387809 0.9294603
vn -0.3703354 -0.002337915 0.9288952
vn 0.74534 -0.003637602 -0.6666745
vn 0.744581 0.01770408 -0.6672972
vn -0.719558 -0.03010204 -0.6937796
vn -0.7184107 0.004824863 -0.6956024
vn 0.009762628 -0.02207972 -0.9997085
vn 0.0195928 0.002169017 -0.9998057
vn 0.0273772 0.004378054 -0.9996156
vn 0.09970225 -0.04499779 -0.9939994
vn 0.01768546 -0.07281822 -0.9971884
vn -0.02895925 -0.0650814 -0.9974597
vn -0.04959583 -0.04903767 -0.9975648
vn -0.07830533 0.009361773 -0.9968855
vn 0.0315445 -0.004717276 -0.9994912
vn -0.006167962 -0.04159816 -0.9991154
vn 0.4316007 -0.01821613 0.9018808
vn 0.4313723 -0.0170345 0.9020132
vn -0.3688269 -0.008387809 0.9294603
vn -0.3703354 -0.002337915 0.9288952
vn 0.4236931 0.3018326 0.8540382
vn 0.2774291 0.2019288 0.9392858
vn 0.1047476 0.3337512 0.9368234
vn 0.1618795 0.4949128 0.8537308
vn -0.1063524 0.3331111 0.9368704
vn -0.1656957 0.500699 0.8496149
vn -0.3018286 0.2030947 0.9314784
vn -0.4586138 0.307592 0.833703
vn -0.3788108 -0.002552045 0.9254706
vn -0.5690243 -0.0005883137 0.8223205
vn -0.3065405 -0.2160664 0.9270104
vn -0.4526613 -0.3343035 0.8266432
vn -0.1159265 -0.3484915 0.9301155
vn -0.1634261 -0.5233359 0.8363082
vn 0.1265802 -0.3529168 0.9270529
vn 0.1702876 -0.5254388 0.8336163
vn 0.3090627 -0.2285693 0.9231665
vn 0.4651999 -0.331466 0.820804
vn 0.3641001 -0.0163232 0.9312167
vn 0.5530816 -0.01525595 0.8329873
vn 0.2918928 0.9510117 0.1018586
vn 0.3028542 0.9474949 0.1026293
vn -0.300635 0.9430017 0.1427102
vn -0.304257 0.9417289 0.1434373
vn 0.8081483 0.5608841 0.1797369
vn 0.778397 0.6040183 0.1710557
vn 0.9816638 -0.003364837 0.1905908
vn 0.9819388 -0.02560474 0.1874583
vn 0.8008208 -0.5711237 0.1802881
vn 0.783638 -0.5936953 0.1828586
vn 0.9819388 -0.02560474 0.1874583
vn 0.9816638 -0.003364837 0.1905908
vn 0.3450835 -0.9192609 0.1894115
vn 0.2785597 -0.9425566 0.1843673
vn -0.3294869 -0.93182 0.1521503
vn -0.2784995 -0.9480272 0.1538915
vn -0.8155687 -0.5654493 0.1229421
vn -0.8100176 -0.5732633 0.1234531
vn -0.9855648 0.02325323 0.1676943
vn -0.9868212 -0.02327463 0.160132
vn -0.7698768 0.6029961 0.2090108
vn -0.8073803 0.5513238 0.2101885
vn -0.9868212 -0.02327463 0.160132
vn -0.9855648 0.02325323 0.1676943
g SM_Tool_Buffer_01_Disk_0
f 5/5/5 36/36/36 4/4/4
f 36/36/36 37/37/37 4/4/4
f 4/4/4 37/37/37 3/3/3
f 37/37/37 38/38/38 3/3/3
f 3/3/3 38/38/38 2/2/2
f 38/38/38 39/39/39 2/2/2
f 2/2/2 39/39/39 1/1/1
f 39/39/39 40/40/40 1/1/1
f 1/1/1 40/40/40 65/65/65
f 40/40/40 66/66/66 65/65/65
f 3/3/3 31/31/31 4/4/4
f 31/31/31 30/30/30 4/4/4
f 4/4/4 30/30/30 75/75/75
f 31/31/31 24/24/24 30/30/30
f 30/30/30 24/24/24 29/29/29
f 30/30/30 29/29/29 75/75/75
f 29/29/29 24/24/24 28/28/28
f 28/28/28 24/24/24 27/27/27
f 27/27/27 24/24/24 26/26/26
f 26/26/26 24/24/24 25/25/25
f 32/32/32 31/31/31 3/3/3
f 32/32/32 24/24/24 31/31/31
f 76/76/76 32/32/32 3/3/3
f 23/23/23 32/32/32 76/76/76
f 23/23/23 24/24/24 32/32/32
f 67/67/67 23/23/23 76/76/76
f 22/22/22 24/24/24 23/23/23
f 22/22/22 23/23/23 67/67/67
f 25/25/25 24/24/24 22/22/22
f 68/68/68 22/22/22 67/67/67
f 25/25/25 22/22/22 68/68/68
f 69/69/69 25/25/25 68/68/68
f 71/71/71 70/70/70 69/69/69
f 8/8/8 71/71/71 69/69/69
f 72/72/72 71/71/71 8/8/8
f 7/7/7 72/72/72 8/8/8
f 73/73/73 72/72/72 7/7/7
f 6/6/6 73/73/73 7/7/7
f 74/74/74 73/73/73 6/6/6
f 75/75/75 74/74/74 6/6/6
f 8/8/8 33/33/33 7/7/7
f 33/33/33 34/34/34 7/7/7
f 7/7/7 34/34/34 6/6/6
f 42/42/42 33/33/33 8/8/8
f 34/34/34 35/35/35 6/6/6
f 6/6/6 35/35/35 63/63/63
f 35/35/35 64/64/64 63/63/63
f 9/9/9 42/42/42 8/8/8
f 41/41/41 42/42/42 9/9/9
f 10/10/10 41/41/41 9/9/9
f 61/61/61 62/62/62 44/44/44
f 43/43/43 61/61/61 44/44/44
f 44/44/44 46/46/46 43/43/43
f 46/46/46 45/45/45 43/43/43
f 46/46/46 48/48/48 45/45/45
f 48/48/48 47/47/47 45/45/45
f 48/48/48 50/50/50 47/47/47
f 50/50/50 49/49/49 47/47/47
f 50/50/50 52/52/52 49/49/49
f 52/52/52 51/51/51 49/49/49
f 78/78/78 54/54/54 77/77/77
f 54/54/54 53/53/53 77/77/77
f 54/54/54 56/56/56 53/53/53
f 56/56/56 55/55/55 53/53/53
f 56/56/56 58/58/58 55/55/55
f 58/58/58 57/57/57 55/55/55
f 58/58/58 60/60/60 57/57/57
f 60/60/60 59/59/59 57/57/57
f 60/60/60 80/80/80 59/59/59
f 80/80/80 79/79/79 59/59/59
f 106/106/106 108/108/108 107/107/107
f 105/105/105 106/106/106 107/107/107
f 102/102/102 106/106/106 105/105/105
f 101/101/101 102/102/102 105/105/105
f 103/103/103 102/102/102 101/101/101
f 104/104/104 103/103/103 101/101/101
f 122/122/122 103/103/103 104/104/104
f 121/121/121 122/122/122 104/104/104
f 123/123/123 122/122/122 121/121/121
f 124/124/124 123/123/123 121/121/121
f 112/112/112 111/111/111 109/109/109
f 111/111/111 110/110/110 109/109/109
f 109/109/109 110/110/110 113/113/113
f 110/110/110 114/114/114 113/113/113
f 113/113/113 114/114/114 115/115/115
f 114/114/114 116/116/116 115/115/115
f 115/115/115 116/116/116 117/117/117
f 116/116/116 118/118/118 117/117/117
f 117/117/117 118/118/118 119/119/119
f 118/118/118 120/120/120 119/119/119
f 12/12/12 13/13/13 11/11/11
f 11/11/11 13/13/13 21/21/21
f 14/14/14 13/13/13 12/12/12
f 21/21/21 13/13/13 20/20/20
f 15/15/15 13/13/13 14/14/14
f 20/20/20 13/13/13 19/19/19
f 16/16/16 13/13/13 15/15/15
f 19/19/19 13/13/13 18/18/18
f 17/17/17 13/13/13 16/16/16
f 18/18/18 13/13/13 17/17/17
f 83/83/83 82/82/82 81/81/81
f 84/84/84 83/83/83 81/81/81
f 81/81/81 82/82/82 100/100/100
f 85/85/85 83/83/83 84/84/84
f 82/82/82 99/99/99 100/100/100
f 86/86/86 85/85/85 84/84/84
f 100/100/100 99/99/99 98/98/98
f 87/87/87 85/85/85 86/86/86
f 99/99/99 97/97/97 98/98/98
f 88/88/88 87/87/87 86/86/86
f 98/98/98 97/97/97 96/96/96
f 89/89/89 87/87/87 88/88/88
f 97/97/97 95/95/95 96/96/96
f 90/90/90 89/89/89 88/88/88
f 96/96/96 95/95/95 94/94/94
f 91/91/91 89/89/89 90/90/90
f 95/95/95 93/93/93 94/94/94
f 92/92/92 91/91/91 90/90/90
f 94/94/94 93/93/93 92/92/92
f 93/93/93 91/91/91 92/92/92
