g SM_Veh_Truck_01_DumpTray_01_Door
v -1.537822 -0.3342623 0.01046402
v -1.59946 -0.3342623 0.01046402
v -1.537822 -0.1031176 0.01046402
v -1.59946 -0.1031176 0.01046402
v -1.537822 -0.1031176 -0.08132339
v -1.59946 -0.1031176 -0.08132339
v -1.537822 -0.3342623 -0.08132339
v -1.59946 -0.3342623 -0.08132339
v -1.537822 -1.506995 0.01046402
v -1.59946 -1.506995 0.01046402
v -1.537822 -1.27585 0.01046402
v -1.59946 -1.27585 0.01046402
v -1.537822 -1.27585 -0.08132339
v -1.59946 -1.27585 -0.08132339
v -1.537822 -1.506995 -0.08132339
v -1.59946 -1.506995 -0.08132339
v 1.537823 -0.3342623 0.01046402
v 1.599461 -0.3342623 0.01046402
v 1.537823 -0.1031176 0.01046402
v 1.599461 -0.1031176 0.01046402
v 1.537823 -0.1031176 -0.08132339
v 1.599461 -0.1031176 -0.08132339
v 1.537823 -0.3342623 -0.08132339
v 1.599461 -0.3342623 -0.08132339
v 1.537823 -1.506995 0.01046402
v 1.599461 -1.506995 0.01046402
v 1.537823 -1.27585 0.01046402
v 1.599461 -1.27585 0.01046402
v 1.537823 -1.27585 -0.08132339
v 1.599461 -1.27585 -0.08132339
v 1.537823 -1.506995 -0.08132339
v 1.599461 -1.506995 -0.08132339
v 0.5418825 -1.47538 -0.04373946
v 0.5204265 -1.47538 -0.1111998
v 0.5418825 -0.1074258 -0.04373946
v 0.5204265 -0.1074258 -0.1111998
v 0.3160377 -0.1074258 -0.04373946
v 0.3374936 -0.1074258 -0.1111998
v 0.3160377 -1.47538 -0.04373946
v 0.3374936 -1.47538 -0.1111998
v 0.3160377 -0.6923294 -0.04373946
v 0.364514 -0.6920508 -0.1111998
v 0.4932238 -1.027075 -0.1111998
v 0.542104 -0.9901912 -0.04373946
v 1.329212 -0.9940076 -0.04373946
v 1.329212 -1.005524 -0.08278121
v -1.332638 -0.9940076 -0.04373946
v -1.332638 -1.005524 -0.08278121
v -1.332638 -1.11523 -0.04373946
v -1.332638 -1.103714 -0.08278121
v 1.329212 -1.11523 -0.04373946
v 1.329212 -1.103714 -0.08278121
v 1.551225 8.639976E-08 -0.1294789
v 1.551225 -1.614857 -0.1294789
v -1.556691 8.639976E-08 -0.1294789
v -1.556691 -1.614857 -0.1294789
v 1.353065 -0.1160602 -0.1294789
v 1.353065 -1.471551 -0.1294789
v -1.358531 -1.471551 -0.1294789
v -1.358531 -0.1160602 -0.1294789
v 1.282267 -0.2064907 -0.04373946
v 1.282267 -1.38112 -0.04373946
v -1.287739 -1.38112 -0.04373946
v -1.287739 -0.2064907 -0.04373946
v 1.551225 8.639976E-08 -1.472808E-07
v 1.551225 -1.614857 -1.472808E-07
v -1.556691 8.639976E-08 -1.472808E-07
v -1.556691 -1.614857 -1.472808E-07
v 1.282267 -0.5257833 -0.04373946
v 0.2092009 -1.38112 -0.04373946
v 1.197492 -1.00795 -0.04373946
v 1.018677 -1.293825 -0.04373946
v 0.6764432 -1.185381 -0.04373946
v -1.287739 -0.7687994 -0.04373946
v -0.6539117 -1.38112 -0.04373946
v -1.095561 -0.940653 -0.04373946
v -1.039539 -1.283299 -0.04373946
v 1.551225 -1.165839 -1.472808E-07
v -1.556691 -1.277988 -1.472808E-07
v 0.9210726 -1.439412 -1.472808E-07
v -0.1193759 -1.264377 -1.472808E-07
v -0.6508037 -1.439938 -1.472808E-07
v -0.3474685 -1.47538 -0.04373946
v -0.3689245 -1.47538 -0.1111998
v -0.3474685 -0.1074258 -0.04373946
v -0.3689245 -0.1074258 -0.1111998
v -0.5733199 -0.1074258 -0.04373946
v -0.5518638 -0.1074258 -0.1111998
v -0.5733199 -1.47538 -0.04373946
v -0.5518638 -1.47538 -0.1111998
v -0.5698861 -0.5100126 -0.04373946
v -0.5512188 -0.5100126 -0.1111998
v -0.3920615 -0.5100126 -0.1111998
v -0.3733942 -0.5100126 -0.04373946
v -1.537822 -0.1031176 0.01046402
v -1.59946 -0.1031176 0.01046402
v -1.537822 -0.1031176 -0.08132339
v -1.59946 -0.1031176 -0.08132339
v -1.537822 -0.3342623 -0.08132339
v -1.59946 -0.3342623 -0.08132339
v -1.59946 -0.3342623 0.01046402
v -1.537822 -0.3342623 0.01046402
v -1.59946 -0.3342623 0.01046402
v -1.59946 -0.3342623 -0.08132339
v -1.59946 -0.1031176 -0.08132339
v -1.59946 -0.1031176 0.01046402
v -1.537822 -0.3342623 -0.08132339
v -1.537822 -0.3342623 0.01046402
v -1.537822 -0.1031176 0.01046402
v -1.537822 -0.1031176 -0.08132339
v -1.537822 -1.27585 0.01046402
v -1.59946 -1.27585 0.01046402
v -1.537822 -1.27585 -0.08132339
v -1.59946 -1.27585 -0.08132339
v -1.537822 -1.506995 -0.08132339
v -1.59946 -1.506995 -0.08132339
v -1.59946 -1.506995 0.01046402
v -1.537822 -1.506995 0.01046402
v -1.59946 -1.506995 0.01046402
v -1.59946 -1.506995 -0.08132339
v -1.59946 -1.27585 -0.08132339
v -1.59946 -1.27585 0.01046402
v -1.537822 -1.506995 -0.08132339
v -1.537822 -1.506995 0.01046402
v -1.537822 -1.27585 0.01046402
v -1.537822 -1.27585 -0.08132339
v 1.537823 -0.1031176 0.01046402
v 1.599461 -0.1031176 0.01046402
v 1.537823 -0.1031176 -0.08132339
v 1.599461 -0.1031176 -0.08132339
v 1.537823 -0.3342623 -0.08132339
v 1.537823 -0.3342623 0.01046402
v 1.599461 -0.3342623 0.01046402
v 1.599461 -0.3342623 -0.08132339
v 1.599461 -0.3342623 0.01046402
v 1.599461 -0.1031176 0.01046402
v 1.599461 -0.1031176 -0.08132339
v 1.599461 -0.3342623 -0.08132339
v 1.537823 -0.3342623 -0.08132339
v 1.537823 -0.1031176 -0.08132339
v 1.537823 -0.1031176 0.01046402
v 1.537823 -0.3342623 0.01046402
v 1.537823 -1.27585 0.01046402
v 1.599461 -1.27585 0.01046402
v 1.537823 -1.27585 -0.08132339
v 1.599461 -1.27585 -0.08132339
v 1.537823 -1.506995 -0.08132339
v 1.537823 -1.506995 0.01046402
v 1.599461 -1.506995 0.01046402
v 1.599461 -1.506995 -0.08132339
v 1.599461 -1.506995 0.01046402
v 1.599461 -1.27585 0.01046402
v 1.599461 -1.27585 -0.08132339
v 1.599461 -1.506995 -0.08132339
v 1.537823 -1.506995 -0.08132339
v 1.537823 -1.27585 -0.08132339
v 1.537823 -1.27585 0.01046402
v 1.537823 -1.506995 0.01046402
v 0.5204265 -1.47538 -0.1111998
v 0.4932238 -1.027075 -0.1111998
v 0.364514 -0.6920508 -0.1111998
v 0.3374936 -1.47538 -0.1111998
v 0.3374936 -0.1074258 -0.1111998
v 0.5204265 -0.1074258 -0.1111998
v 1.329212 -1.005524 -0.08278121
v -1.332638 -1.005524 -0.08278121
v -1.332638 -1.103714 -0.08278121
v 1.329212 -1.103714 -0.08278121
v 1.353065 -0.1160602 -0.1294789
v 1.353065 -1.471551 -0.1294789
v 1.353065 -1.471551 -0.1294789
v 1.282267 -1.38112 -0.04373946
v -1.358531 -1.471551 -0.1294789
v -0.6539117 -1.38112 -0.04373946
v -1.287739 -1.38112 -0.04373946
v -1.358531 -1.471551 -0.1294789
v -1.287739 -1.38112 -0.04373946
v -1.358531 -0.1160602 -0.1294789
v -1.287739 -0.7687994 -0.04373946
v -1.358531 -0.1160602 -0.1294789
v -1.287739 -0.2064907 -0.04373946
v 1.353065 -0.1160602 -0.1294789
v 1.282267 -0.2064907 -0.04373946
v 1.551225 8.639976E-08 -0.1294789
v 1.551225 -1.614857 -0.1294789
v 1.551225 8.639976E-08 -0.1294789
v 1.551225 8.639976E-08 -1.472808E-07
v -1.556691 8.639976E-08 -0.1294789
v -1.556691 -1.614857 -0.1294789
v 1.551225 -1.614857 -1.472808E-07
v 1.551225 -1.614857 -0.1294789
v -1.556691 -1.614857 -1.472808E-07
v -1.556691 -1.614857 -0.1294789
v -1.556691 8.639976E-08 -0.1294789
v -1.556691 8.639976E-08 -1.472808E-07
v 1.551225 -1.165839 -1.472808E-07
v 1.551225 -1.614857 -1.472808E-07
v -1.556691 -1.614857 -1.472808E-07
v -1.556691 -1.277988 -1.472808E-07
v -1.556691 -1.614857 -1.472808E-07
v -0.6508037 -1.439938 -1.472808E-07
v 1.282267 -0.5257833 -0.04373946
v 1.282267 -1.38112 -0.04373946
v 0.2092009 -1.38112 -0.04373946
v 1.282267 -0.2064907 -0.04373946
v -1.287739 -0.2064907 -0.04373946
v 1.282267 -0.5257833 -0.04373946
v -1.287739 -0.7687994 -0.04373946
v -1.095561 -0.940653 -0.04373946
v 1.197492 -1.00795 -0.04373946
v -1.039539 -1.283299 -0.04373946
v -0.6539117 -1.38112 -0.04373946
v 1.018677 -1.293825 -0.04373946
v 0.6764432 -1.185381 -0.04373946
v 0.2092009 -1.38112 -0.04373946
v 1.551225 8.639976E-08 -1.472808E-07
v 1.551225 -1.165839 -1.472808E-07
v -1.556691 8.639976E-08 -1.472808E-07
v 0.9210726 -1.439412 -1.472808E-07
v -0.1193759 -1.264377 -1.472808E-07
v -0.6508037 -1.439938 -1.472808E-07
v -1.556691 -1.277988 -1.472808E-07
v -0.3689245 -1.47538 -0.1111998
v -0.3920615 -0.5100126 -0.1111998
v -0.5512188 -0.5100126 -0.1111998
v -0.5518638 -1.47538 -0.1111998
v -0.5518638 -0.1074258 -0.1111998
v -0.3689245 -0.1074258 -0.1111998
vt 0.1005859 0.2324219
vt 0.1005859 0.2324219
vt 0.1005859 0.2324219
vt 0.1005859 0.2324219
vt 0.1005859 0.2324219
vt 0.1005859 0.2324219
vt 0.1005859 0.2324219
vt 0.1005859 0.2324219
vt 0.1005859 0.2324219
vt 0.1005859 0.2324219
vt 0.1005859 0.2324219
vt 0.1005859 0.2324219
vt 0.1005859 0.2324219
vt 0.1005859 0.2324219
vt 0.1005859 0.2324219
vt 0.1005859 0.2324219
vt 0.1005859 0.2324219
vt 0.1005859 0.2324219
vt 0.1005859 0.2324219
vt 0.1005859 0.2324219
vt 0.1005859 0.2324219
vt 0.1005859 0.2324219
vt 0.1005859 0.2324219
vt 0.1005859 0.2324219
vt 0.1005859 0.2324219
vt 0.1005859 0.2324219
vt 0.1005859 0.2324219
vt 0.1005859 0.2324219
vt 0.1005859 0.2324219
vt 0.1005859 0.2324219
vt 0.1005859 0.2324219
vt 0.1005859 0.2324219
vt 0.1035767 0.2749023
vt 0.1035767 0.2749023
vt 0.1035767 0.2749023
vt 0.1035767 0.2749023
vt 0.1035767 0.2749023
vt 0.1035767 0.2749023
vt 0.1035767 0.2749023
vt 0.1035767 0.2749023
vt 0.1035767 0.2749023
vt 0.1035767 0.2749023
vt 0.1035767 0.2749023
vt 0.1035767 0.2749023
vt 0.1035767 0.2749023
vt 0.1035767 0.2749023
vt 0.1035767 0.2749023
vt 0.1035767 0.2749023
vt 0.1035767 0.2749023
vt 0.1035767 0.2749023
vt 0.1035767 0.2749023
vt 0.1035767 0.2749023
vt 0.1035767 0.2749023
vt 0.1035767 0.2749023
vt 0.1035767 0.2749023
vt 0.1035767 0.2749023
vt 0.1035767 0.2749023
vt 0.1035767 0.2749023
vt 0.1035767 0.2749023
vt 0.1035767 0.2749023
vt 0.1035767 0.2749023
vt 0.1035767 0.2749023
vt 0.03839111 0.2321777
vt 0.1035767 0.2749023
vt 0.1035767 0.2749023
vt 0.1035767 0.2749023
vt 0.1035767 0.2749023
vt 0.1035767 0.2749023
vt 0.1035767 0.2749023
vt 0.1035767 0.2749023
vt 0.03839111 0.2321777
vt 0.03839111 0.2321777
vt 0.03839111 0.2321777
vt 0.03839111 0.2321777
vt 0.03839111 0.2321777
vt 0.03839111 0.2321777
vt 0.03839111 0.2321777
vt 0.1035767 0.2749023
vt 0.1035767 0.2749023
vt 0.03536987 0.2296143
vt 0.03536987 0.2296143
vt 0.03540039 0.2296143
vt 0.1035767 0.2749023
vt 0.1035767 0.2749023
vt 0.1035767 0.2749023
vt 0.1035767 0.2749023
vt 0.1035767 0.2749023
vt 0.1035767 0.2749023
vt 0.1035767 0.2749023
vt 0.1035767 0.2749023
vt 0.1035767 0.2749023
vt 0.1035767 0.2749023
vt 0.1035767 0.2749023
vt 0.1035767 0.2749023
vt 0.1005859 0.2324219
vt 0.1005859 0.2324219
vt 0.1005859 0.2324219
vt 0.1005859 0.2324219
vt 0.1005859 0.2324219
vt 0.1005859 0.2324219
vt 0.1005859 0.2324219
vt 0.1005859 0.2324219
vt 0.1005859 0.2324219
vt 0.1005859 0.2324219
vt 0.1005859 0.2324219
vt 0.1005859 0.2324219
vt 0.1005859 0.2324219
vt 0.1005859 0.2324219
vt 0.1005859 0.2324219
vt 0.1005859 0.2324219
vt 0.1005859 0.2324219
vt 0.1005859 0.2324219
vt 0.1005859 0.2324219
vt 0.1005859 0.2324219
vt 0.1005859 0.2324219
vt 0.1005859 0.2324219
vt 0.1005859 0.2324219
vt 0.1005859 0.2324219
vt 0.1005859 0.2324219
vt 0.1005859 0.2324219
vt 0.1005859 0.2324219
vt 0.1005859 0.2324219
vt 0.1005859 0.2324219
vt 0.1005859 0.2324219
vt 0.1005859 0.2324219
vt 0.1005859 0.2324219
vt 0.1005859 0.2324219
vt 0.1005859 0.2324219
vt 0.1005859 0.2324219
vt 0.1005859 0.2324219
vt 0.1005859 0.2324219
vt 0.1005859 0.2324219
vt 0.1005859 0.2324219
vt 0.1005859 0.2324219
vt 0.1005859 0.2324219
vt 0.1005859 0.2324219
vt 0.1005859 0.2324219
vt 0.1005859 0.2324219
vt 0.1005859 0.2324219
vt 0.1005859 0.2324219
vt 0.1005859 0.2324219
vt 0.1005859 0.2324219
vt 0.1005859 0.2324219
vt 0.1005859 0.2324219
vt 0.1005859 0.2324219
vt 0.1005859 0.2324219
vt 0.1005859 0.2324219
vt 0.1005859 0.2324219
vt 0.1005859 0.2324219
vt 0.1005859 0.2324219
vt 0.1005859 0.2324219
vt 0.1005859 0.2324219
vt 0.1005859 0.2324219
vt 0.1005859 0.2324219
vt 0.1005859 0.2324219
vt 0.1005859 0.2324219
vt 0.1005859 0.2324219
vt 0.1005859 0.2324219
vt 0.1035767 0.2749023
vt 0.1035767 0.2749023
vt 0.1035767 0.2749023
vt 0.1035767 0.2749023
vt 0.1035767 0.2749023
vt 0.1035767 0.2749023
vt 0.1035767 0.2749023
vt 0.1035767 0.2749023
vt 0.1035767 0.2749023
vt 0.1035767 0.2749023
vt 0.1035767 0.2749023
vt 0.1035767 0.2749023
vt 0.1035767 0.2749023
vt 0.1035767 0.2749023
vt 0.1035767 0.2749023
vt 0.1035767 0.2749023
vt 0.1035767 0.2749023
vt 0.1035767 0.2749023
vt 0.1035767 0.2749023
vt 0.1035767 0.2749023
vt 0.1035767 0.2749023
vt 0.1035767 0.2749023
vt 0.1035767 0.2749023
vt 0.1035767 0.2749023
vt 0.1035767 0.2749023
vt 0.1035767 0.2749023
vt 0.1035767 0.2749023
vt 0.1035767 0.2749023
vt 0.1035767 0.2749023
vt 0.1035767 0.2749023
vt 0.1035767 0.2749023
vt 0.1035767 0.2749023
vt 0.1035767 0.2749023
vt 0.1035767 0.2749023
vt 0.1035767 0.2749023
vt 0.1035767 0.2749023
vt 0.1035767 0.2749023
vt 0.03536987 0.2296143
vt 0.03536987 0.2296143
vt 0.03536987 0.2296143
vt 0.03536987 0.2296143
vt 0.03536987 0.2296143
vt 0.03540039 0.2296143
vt 0.03839111 0.2321777
vt 0.03839111 0.2321777
vt 0.03839111 0.2321777
vt 0.1019897 0.2468262
vt 0.1019897 0.2468262
vt 0.1019897 0.2468262
vt 0.1019897 0.2468262
vt 0.1019897 0.2468262
vt 0.1019897 0.2468262
vt 0.1019897 0.2468262
vt 0.1019897 0.2468262
vt 0.1019897 0.2468262
vt 0.1019897 0.2468262
vt 0.1019897 0.2468262
vt 0.1035767 0.2749023
vt 0.1035767 0.2749023
vt 0.1035767 0.2749023
vt 0.1035767 0.2749023
vt 0.1035767 0.2749023
vt 0.1035767 0.2749023
vt 0.1035767 0.2749023
vt 0.1035767 0.2749023
vt 0.1035767 0.2749023
vt 0.1035767 0.2749023
vt 0.1035767 0.2749023
vt 0.1035767 0.2749023
vt 0.1035767 0.2749023
vn 0 0 1
vn 0 0 1
vn 0 0 1
vn 0 0 1
vn 0 1 0
vn 0 1 0
vn 0 0 -1
vn 0 0 -1
vn 0 0 1
vn 0 0 1
vn 0 0 1
vn 0 0 1
vn 0 1 0
vn 0 1 0
vn 0 0 -1
vn 0 0 -1
vn 0 0 1
vn 0 0 1
vn 0 0 1
vn 0 0 1
vn 0 1 0
vn 0 1 0
vn 0 0 -1
vn 0 0 -1
vn 0 0 1
vn 0 0 1
vn 0 0 1
vn 0 0 1
vn 0 1 0
vn 0 1 0
vn 0 0 -1
vn 0 0 -1
vn 0.8837891 0.02554321 -0.4675293
vn 0.8837891 0.02554321 -0.4675293
vn 0.8881836 -0.01329803 -0.4594727
vn 0 0 -1
vn -0.8876953 -0.02050781 -0.4602051
vn -0.8876953 -0.02050781 -0.4602051
vn -0.8876953 0.01531219 -0.4602051
vn -0.8876953 0.01531219 -0.4602051
vn -0.8876953 3.743172E-05 -0.4602051
vn -0.8876953 0 -0.4602051
vn 0.8862305 0.005031586 -0.4633789
vn 0.887207 -0.004283905 -0.4614258
vn 0 0.9589844 -0.282959
vn 0 0.9589844 -0.282959
vn 0 0.9589844 -0.282959
vn 0 0.9589844 -0.282959
vn 0 -0.9589844 -0.282959
vn 0 -0.9589844 -0.282959
vn 0 -0.9589844 -0.282959
vn 0 -0.9589844 -0.282959
vn 0 0 -1
vn 0 0 -1
vn 0 0 -1
vn 0 0 -1
vn 0 0 -1
vn 0 0 -1
vn 0 0 -1
vn 0 0 -1
vn -0.7709961 0 -0.6367188
vn -0.7709961 0 -0.6367188
vn 0 0 -1
vn 0.7709961 0 -0.6367188
vn 1 0 0
vn 1 0 0
vn 0 1 0
vn 0 -1 0
vn -0.7709961 0 -0.6367188
vn 0 0.6879883 -0.7255859
vn 0 0 -1
vn 0 0 -1
vn 0 0 -1
vn 0 0 -1
vn 0 0 -1
vn 0 0 -1
vn 0 0 -1
vn 1 0 0
vn -1 0 0
vn 0 0 1
vn 0 0 1
vn 0 0 1
vn 0.9580078 0.02435303 -0.2849121
vn 0.9580078 0.02435303 -0.2849121
vn 0.9570313 -0.05831909 -0.284668
vn 0 0 -1
vn -0.9584961 -0.00485611 -0.2851563
vn -0.9584961 -0.00485611 -0.2851563
vn -0.9584961 0.002025604 -0.2851563
vn -0.9584961 0.002025604 -0.2851563
vn -0.9584961 0 -0.2851563
vn -0.9584961 0 -0.2851563
vn 0.9584961 9.810925E-05 -0.2851563
vn 0.9584961 -0.0001084805 -0.2851563
vn 0 1 0
vn 0 1 0
vn 0 0 -1
vn 0 0 -1
vn 0 -1 0
vn 0 -1 0
vn 0 -1 0
vn 0 -1 0
vn -1 0 0
vn -1 0 0
vn -1 0 0
vn -1 0 0
vn 1 0 0
vn 1 0 0
vn 1 0 0
vn 1 0 0
vn 0 1 0
vn 0 1 0
vn 0 0 -1
vn 0 0 -1
vn 0 -1 0
vn 0 -1 0
vn 0 -1 0
vn 0 -1 0
vn -1 0 0
vn -1 0 0
vn -1 0 0
vn -1 0 0
vn 1 0 0
vn 1 0 0
vn 1 0 0
vn 1 0 0
vn 0 1 0
vn 0 1 0
vn 0 0 -1
vn 0 0 -1
vn 0 -1 0
vn 0 -1 0
vn 0 -1 0
vn 0 -1 0
vn 1 0 0
vn 1 0 0
vn 1 0 0
vn 1 0 0
vn -1 0 0
vn -1 0 0
vn -1 0 0
vn -1 0 0
vn 0 1 0
vn 0 1 0
vn 0 0 -1
vn 0 0 -1
vn 0 -1 0
vn 0 -1 0
vn 0 -1 0
vn 0 -1 0
vn 1 0 0
vn 1 0 0
vn 1 0 0
vn 1 0 0
vn -1 0 0
vn -1 0 0
vn -1 0 0
vn -1 0 0
vn 0 0 -1
vn 0 0 -1
vn 0 0 -1
vn 0 0 -1
vn 0 0 -1
vn 0.8881836 -0.01329803 -0.4594727
vn 0 0 -1
vn 0 0 -1
vn 0 0 -1
vn 0 0 -1
vn -0.7709961 0 -0.6367188
vn -0.7709961 0 -0.6367188
vn 0 0.6879883 -0.7255859
vn 0 0.6879883 -0.7255859
vn 0 0.6879883 -0.7255859
vn 0 0.6879883 -0.7255859
vn 0 0.6879883 -0.7255859
vn 0.7709961 0 -0.6367188
vn 0.7709961 0 -0.6367188
vn 0.7709961 0 -0.6367188
vn 0.7709961 0 -0.6367188
vn 0 -0.6879883 -0.7255859
vn 0 -0.6879883 -0.7255859
vn 0 -0.6879883 -0.7255859
vn 0 -0.6879883 -0.7255859
vn 1 0 0
vn 1 0 0
vn 0 1 0
vn 0 1 0
vn 0 1 0
vn 0 -1 0
vn 0 -1 0
vn 0 -1 0
vn -1 0 0
vn -1 0 0
vn -1 0 0
vn -1 0 0
vn 0 0 1
vn 0 0 1
vn 0 0 1
vn 0 0 1
vn 0 0 1
vn 0 0 1
vn 0 0 -1
vn 0 0 -1
vn 0 0 -1
vn 0 0 -1
vn 0 0 -1
vn 0 0 -1
vn 0 0 -1
vn 0 0 -1
vn 0 0 -1
vn 0 0 -1
vn 0 0 -1
vn 0 0 -1
vn 0 0 -1
vn 0 0 -1
vn 0 0 1
vn 0 0 1
vn 0 0 1
vn 0 0 1
vn 0 0 1
vn 0 0 1
vn 0 0 1
vn 0 0 -1
vn 0 0 -1
vn 0 0 -1
vn 0 0 -1
vn 0 0 -1
vn 0.9570313 -0.05831909 -0.284668
g SM_Veh_Truck_01_DumpTray_01_Door_0
f 200/200/200 82/82/82 199/199/199
f 4/4/4 2/2/2 1/1/1
f 3/3/3 4/4/4 1/1/1
f 6/6/6 96/96/96 95/95/95
f 5/5/5 6/6/6 95/95/95
f 8/8/8 98/98/98 97/97/97
f 7/7/7 8/8/8 97/97/97
f 101/101/101 100/100/100 99/99/99
f 102/102/102 101/101/101 99/99/99
f 105/105/105 104/104/104 103/103/103
f 106/106/106 105/105/105 103/103/103
f 109/109/109 108/108/108 107/107/107
f 110/110/110 109/109/109 107/107/107
f 12/12/12 10/10/10 9/9/9
f 11/11/11 12/12/12 9/9/9
f 14/14/14 112/112/112 111/111/111
f 13/13/13 14/14/14 111/111/111
f 16/16/16 114/114/114 113/113/113
f 15/15/15 16/16/16 113/113/113
f 117/117/117 116/116/116 115/115/115
f 118/118/118 117/117/117 115/115/115
f 121/121/121 120/120/120 119/119/119
f 122/122/122 121/121/121 119/119/119
f 125/125/125 124/124/124 123/123/123
f 126/126/126 125/125/125 123/123/123
f 20/20/20 19/19/19 17/17/17
f 18/18/18 20/20/20 17/17/17
f 22/22/22 21/21/21 127/127/127
f 128/128/128 22/22/22 127/127/127
f 24/24/24 23/23/23 129/129/129
f 130/130/130 24/24/24 129/129/129
f 133/133/133 132/132/132 131/131/131
f 134/134/134 133/133/133 131/131/131
f 137/137/137 136/136/136 135/135/135
f 138/138/138 137/137/137 135/135/135
f 141/141/141 140/140/140 139/139/139
f 142/142/142 141/141/141 139/139/139
f 28/28/28 27/27/27 25/25/25
f 26/26/26 28/28/28 25/25/25
f 30/30/30 29/29/29 143/143/143
f 144/144/144 30/30/30 143/143/143
f 32/32/32 31/31/31 145/145/145
f 146/146/146 32/32/32 145/145/145
f 149/149/149 148/148/148 147/147/147
f 150/150/150 149/149/149 147/147/147
f 153/153/153 152/152/152 151/151/151
f 154/154/154 153/153/153 151/151/151
f 157/157/157 156/156/156 155/155/155
f 158/158/158 157/157/157 155/155/155
f 34/34/34 43/43/43 33/33/33
f 43/43/43 44/44/44 33/33/33
f 43/43/43 164/164/164 44/44/44
f 164/164/164 35/35/35 44/44/44
f 40/40/40 39/39/39 41/41/41
f 42/42/42 40/40/40 41/41/41
f 42/42/42 41/41/41 37/37/37
f 38/38/38 42/42/42 37/37/37
f 162/162/162 161/161/161 159/159/159
f 161/161/161 160/160/160 159/159/159
f 161/161/161 163/163/163 160/160/160
f 163/163/163 36/36/36 160/160/160
f 48/48/48 47/47/47 45/45/45
f 46/46/46 48/48/48 45/45/45
f 52/52/52 51/51/51 49/49/49
f 50/50/50 52/52/52 49/49/49
f 167/167/167 166/166/166 165/165/165
f 168/168/168 167/167/167 165/165/165
f 63/63/63 77/77/77 75/75/75
f 77/77/77 63/63/63 76/76/76
f 76/76/76 63/63/63 74/74/74
f 170/170/170 61/61/61 169/169/169
f 170/170/170 69/69/69 61/61/61
f 62/62/62 69/69/69 170/170/170
f 173/173/173 172/172/172 171/171/171
f 173/173/173 70/70/70 172/172/172
f 173/173/173 174/174/174 70/70/70
f 175/175/175 174/174/174 173/173/173
f 178/178/178 177/177/177 176/176/176
f 178/178/178 179/179/179 177/177/177
f 64/64/64 179/179/179 178/178/178
f 182/182/182 181/181/181 180/180/180
f 182/182/182 183/183/183 181/181/181
f 66/66/66 185/185/185 184/184/184
f 184/184/184 78/78/78 66/66/66
f 184/184/184 65/65/65 78/78/78
f 67/67/67 187/187/187 186/186/186
f 188/188/188 67/67/67 186/186/186
f 190/190/190 68/68/68 189/189/189
f 191/191/191 190/190/190 189/189/189
f 193/193/193 192/192/192 79/79/79
f 79/79/79 194/194/194 193/193/193
f 79/79/79 195/195/195 194/194/194
f 80/80/80 197/197/197 196/196/196
f 80/80/80 198/198/198 197/197/197
f 80/80/80 201/201/201 198/198/198
f 81/81/81 201/201/201 80/80/80
f 203/203/203 71/71/71 202/202/202
f 71/71/71 203/203/203 72/72/72
f 72/72/72 203/203/203 73/73/73
f 73/73/73 203/203/203 204/204/204
f 207/207/207 206/206/206 205/205/205
f 207/207/207 208/208/208 206/206/206
f 207/207/207 209/209/209 208/208/208
f 210/210/210 209/209/209 207/207/207
f 210/210/210 211/211/211 209/209/209
f 210/210/210 212/212/212 211/211/211
f 214/214/214 212/212/212 210/210/210
f 214/214/214 210/210/210 213/213/213
f 215/215/215 212/212/212 214/214/214
f 218/218/218 217/217/217 216/216/216
f 218/218/218 219/219/219 217/217/217
f 218/218/218 220/220/220 219/219/219
f 218/218/218 221/221/221 220/220/220
f 221/221/221 218/218/218 222/222/222
f 84/84/84 93/93/93 83/83/83
f 93/93/93 94/94/94 83/83/83
f 93/93/93 228/228/228 94/94/94
f 228/228/228 85/85/85 94/94/94
f 90/90/90 89/89/89 91/91/91
f 92/92/92 90/90/90 91/91/91
f 92/92/92 91/91/91 87/87/87
f 88/88/88 92/92/92 87/87/87
f 226/226/226 225/225/225 223/223/223
f 225/225/225 224/224/224 223/223/223
f 225/225/225 227/227/227 224/224/224
f 227/227/227 86/86/86 224/224/224
f 58/58/58 57/57/57 53/53/53
f 54/54/54 58/58/58 53/53/53
f 53/53/53 57/57/57 55/55/55
f 59/59/59 58/58/58 54/54/54
f 57/57/57 60/60/60 55/55/55
f 56/56/56 59/59/59 54/54/54
f 55/55/55 60/60/60 56/56/56
f 60/60/60 59/59/59 56/56/56
