g SM_Veh_Pickup_Glass
v -0.6327438 1.839006 -0.3192608
v 0 1.862574 -0.3143778
v -0.5751905 1.871298 -0.3143778
v 0 1.839006 -0.3192608
v -0.6912246 1.562439 -0.3717539
v 0.6327438 1.839006 -0.3192608
v 0.5751905 1.871298 -0.3143778
v 0.6912246 1.562439 -0.3717539
v 0 1.562439 -0.3717539
v -0.6684594 1.518963 -0.3773589
v 0.6684594 1.518963 -0.3773589
v 0 1.518963 -0.3773586
v -0.946354 1.42469 0.8171363
v -0.9463549 1.424691 -0.08759654
v -0.9315119 1.471571 -0.1434751
v -0.9328451 1.475578 0.8798579
v -0.7925053 1.91061 -0.09139585
v -0.7795601 1.914186 0.5954471
v -0.7795744 1.951452 -0.01616639
v -0.7665219 1.952452 0.4797335
v 0 1.440593 1.074059
v -0.6803192 1.440594 1.047636
v -0.5845961 1.826311 0.7604856
v 0 1.830103 0.7819371
v -0.538466 1.949028 0.6390238
v 0 1.966316 0.6722984
v 0.538466 1.949028 0.6390238
v 0.5845961 1.826311 0.7604856
v 0.6803192 1.440594 1.047636
v -0.5845961 1.826311 0.7604856
v -0.6848077 1.942625 0.6363602
v -0.7183928 1.836771 0.7270083
v 0.5845961 1.826311 0.7604856
v 0.6848077 1.942625 0.6363602
v 0.7183928 1.836771 0.7270083
v -0.6803192 1.440594 1.047636
v -0.8059859 1.440333 0.9912205
v -0.7183928 1.836771 0.7270083
v -0.5845961 1.826311 0.7604856
v -0.7183928 1.836771 0.7270083
v -0.8059859 1.440333 0.9912205
v -0.8723668 1.438278 0.9458437
v -0.7670646 1.839927 0.6929302
v -0.6848077 1.942625 0.6363602
v -0.7183928 1.836771 0.7270083
v -0.7670646 1.839927 0.6929302
v -0.7366791 1.91473 0.6472778
v 0.946354 1.42469 0.8171363
v 0.9315119 1.471571 -0.1434751
v 0.9463549 1.424691 -0.08759654
v 0.9328451 1.475578 0.8798579
v 0.7925053 1.91061 -0.09139585
v 0.7795601 1.914186 0.5954471
v 0.7795744 1.951452 -0.01616639
v 0.7665219 1.952452 0.4797335
v 0.6803192 1.440594 1.047636
v 0.5845961 1.826311 0.7604856
v 0.7183928 1.836771 0.7270083
v 0.8059859 1.440333 0.9912205
v 0.7183928 1.836771 0.7270083
v 0.7670646 1.839927 0.6929302
v 0.8723668 1.438278 0.9458437
v 0.8059859 1.440333 0.9912205
v 0.6848077 1.942625 0.6363602
v 0.7366791 1.91473 0.6472778
v 0.7670646 1.839927 0.6929302
v 0.7183928 1.836771 0.7270083
vt 0.5683594 0.01867676
vt 0.5683594 0.01867676
vt 0.5683594 0.01867676
vt 0.5683594 0.01867676
vt 0.5683594 0.01867676
vt 0.5683594 0.01867676
vt 0.5683594 0.01867676
vt 0.5683594 0.01867676
vt 0.5683594 0.01867676
vt 0.5683594 0.01867676
vt 0.5683594 0.01867676
vt 0.5683594 0.01867676
vt 0.5683594 0.01867676
vt 0.5683594 0.01867676
vt 0.5683594 0.01867676
vt 0.5683594 0.01867676
vt 0.5683594 0.01867676
vt 0.5683594 0.01867676
vt 0.5683594 0.01867676
vt 0.5683594 0.01867676
vt 0.5683594 0.01867676
vt 0.5683594 0.01867676
vt 0.5683594 0.01867676
vt 0.5683594 0.01867676
vt 0.5683594 0.01867676
vt 0.5683594 0.01867676
vt 0.5683594 0.01867676
vt 0.5683594 0.01867676
vt 0.5683594 0.01867676
vt 0.5683594 0.01867676
vt 0.5683594 0.01867676
vt 0.5683594 0.01867676
vt 0.5683594 0.01867676
vt 0.5683594 0.01867676
vt 0.5683594 0.01867676
vt 0.5683594 0.01867676
vt 0.5683594 0.01867676
vt 0.5683594 0.01867676
vt 0.5683594 0.01867676
vt 0.5683594 0.01867676
vt 0.5683594 0.01867676
vt 0.5683594 0.01867676
vt 0.5683594 0.01867676
vt 0.5683594 0.01867676
vt 0.5683594 0.01867676
vt 0.5683594 0.01867676
vt 0.5683594 0.01867676
vt 0.5683594 0.01867676
vt 0.5683594 0.01867676
vt 0.5683594 0.01867676
vt 0.5683594 0.01867676
vt 0.5683594 0.01867676
vt 0.5683594 0.01867676
vt 0.5683594 0.01867676
vt 0.5683594 0.01867676
vt 0.5683594 0.01867676
vt 0.5683594 0.01867676
vt 0.5683594 0.01867676
vt 0.5683594 0.01867676
vt 0.5683594 0.01867676
vt 0.5683594 0.01867676
vt 0.5683594 0.01867676
vt 0.5683594 0.01867676
vt 0.5683594 0.01867676
vt 0.5683594 0.01867676
vt 0.5683594 0.01867676
vt 0.5683594 0.01867676
vn 0.0006175041 0.1787109 -0.9838867
vn 0 0.1710205 -0.9853516
vn 0.001235008 0.1710205 -0.9853516
vn 0 0.1787109 -0.9838867
vn 0 0.1572266 -0.987793
vn -0.0006175041 0.1787109 -0.9838867
vn -0.001235008 0.1710205 -0.9853516
vn 0 0.1572266 -0.987793
vn 0 0.1572266 -0.987793
vn 0 0.1278076 -0.9916992
vn 0 0.1278076 -0.9916992
vn 0 0.1278076 -0.9916992
vn -0.9604492 0.2785645 -0.001242638
vn -0.9604492 0.2785645 -0.001242638
vn -0.9545898 0.2978516 0.001895905
vn -0.9545898 0.2978516 0.001895905
vn -0.9477539 0.3190918 0.01230621
vn -0.9477539 0.3190918 0.01230621
vn -0.9467773 0.3208008 0.01957703
vn -0.9467773 0.3208008 0.01957703
vn 0 0.6010742 0.7993164
vn -0.03204346 0.6005859 0.7988281
vn -0.04040527 0.6362305 0.7705078
vn -0.01625061 0.625 0.7807617
vn -0.06555176 0.6816406 0.7285156
vn 0 0.6708984 0.7416992
vn 0.06555176 0.6816406 0.7285156
vn 0.04040527 0.6362305 0.7705078
vn 0.03204346 0.6005859 0.7988281
vn -0.06555176 0.6816406 0.7285156
vn -0.08233643 0.6933594 0.7158203
vn -0.08233643 0.6933594 0.7158203
vn 0.06555176 0.6816406 0.7285156
vn 0.08233643 0.6933594 0.7158203
vn 0.08233643 0.6933594 0.7158203
vn -0.2418213 0.5961914 0.765625
vn -0.2418213 0.5961914 0.765625
vn -0.2418213 0.5961914 0.765625
vn -0.2418213 0.5961914 0.765625
vn -0.4682617 0.5576172 0.6855469
vn -0.4682617 0.5576172 0.6855469
vn -0.4682617 0.5576172 0.6855469
vn -0.4682617 0.5576172 0.6855469
vn -0.3186035 0.6401367 0.6992188
vn -0.3186035 0.6401367 0.6992188
vn -0.3186035 0.6401367 0.6992188
vn -0.3186035 0.6401367 0.6992188
vn 0.9604492 0.2785645 -0.001242638
vn 0.9545898 0.2978516 0.001895905
vn 0.9604492 0.2785645 -0.001242638
vn 0.9545898 0.2978516 0.001895905
vn 0.9477539 0.3190918 0.01230621
vn 0.9477539 0.3190918 0.01230621
vn 0.9467773 0.3208008 0.01957703
vn 0.9467773 0.3208008 0.01957703
vn 0.2418213 0.5961914 0.765625
vn 0.2418213 0.5961914 0.765625
vn 0.2418213 0.5961914 0.765625
vn 0.2418213 0.5961914 0.765625
vn 0.4682617 0.5576172 0.6855469
vn 0.4682617 0.5576172 0.6855469
vn 0.4682617 0.5576172 0.6855469
vn 0.4682617 0.5576172 0.6855469
vn 0.3186035 0.6401367 0.6992188
vn 0.3186035 0.6401367 0.6992188
vn 0.3186035 0.6401367 0.6992188
vn 0.3186035 0.6401367 0.6992188
g SM_Veh_Pickup_Glass_0
f 3/3/3 2/2/2 1/1/1
f 2/2/2 4/4/4 1/1/1
f 1/1/1 4/4/4 5/5/5
f 4/4/4 2/2/2 6/6/6
f 2/2/2 7/7/7 6/6/6
f 4/4/4 6/6/6 8/8/8
f 4/4/4 9/9/9 5/5/5
f 9/9/9 4/4/4 8/8/8
f 5/5/5 9/9/9 10/10/10
f 9/9/9 8/8/8 11/11/11
f 9/9/9 12/12/12 10/10/10
f 12/12/12 9/9/9 11/11/11
f 15/15/15 14/14/14 13/13/13
f 16/16/16 15/15/15 13/13/13
f 17/17/17 15/15/15 16/16/16
f 18/18/18 17/17/17 16/16/16
f 19/19/19 17/17/17 18/18/18
f 20/20/20 19/19/19 18/18/18
f 23/23/23 22/22/22 21/21/21
f 24/24/24 23/23/23 21/21/21
f 25/25/25 23/23/23 24/24/24
f 26/26/26 25/25/25 24/24/24
f 27/27/27 26/26/26 24/24/24
f 28/28/28 24/24/24 21/21/21
f 28/28/28 27/27/27 24/24/24
f 29/29/29 28/28/28 21/21/21
f 25/25/25 31/31/31 30/30/30
f 31/31/31 32/32/32 30/30/30
f 34/34/34 27/27/27 33/33/33
f 35/35/35 34/34/34 33/33/33
f 38/38/38 37/37/37 36/36/36
f 39/39/39 38/38/38 36/36/36
f 42/42/42 41/41/41 40/40/40
f 43/43/43 42/42/42 40/40/40
f 46/46/46 45/45/45 44/44/44
f 47/47/47 46/46/46 44/44/44
f 50/50/50 49/49/49 48/48/48
f 49/49/49 51/51/51 48/48/48
f 49/49/49 52/52/52 51/51/51
f 52/52/52 53/53/53 51/51/51
f 52/52/52 54/54/54 53/53/53
f 54/54/54 55/55/55 53/53/53
f 58/58/58 57/57/57 56/56/56
f 59/59/59 58/58/58 56/56/56
f 62/62/62 61/61/61 60/60/60
f 63/63/63 62/62/62 60/60/60
f 66/66/66 65/65/65 64/64/64
f 67/67/67 66/66/66 64/64/64
