g SM_Veh_Excavator_01_Track_Wheel_rl
v -0.1077526 0.4550436 -0.3989729
v -0.1077526 0.1945928 -0.5730428
v -0.1077526 -0.1179992 -0.5935658
v -0.1077526 -0.3989732 -0.4550435
v -0.1077525 -0.5730428 -0.1945926
v -0.1077526 -0.5935661 0.1179991
v -0.1077526 -0.4550436 0.3989735
v -0.1077526 -0.1945928 0.5730426
v -0.1077526 0.1179992 0.5935664
v -0.1077526 0.3989733 0.4550435
v -0.1077526 0.5730429 0.1945932
v -0.1077526 0.5935659 -0.1179991
v 0.1077527 0.4550435 -0.3989729
v 0.1077527 0.1945927 -0.5730428
v 0.1077527 -0.1179992 -0.5935658
v 0.1077527 -0.3989732 -0.4550435
v 0.1077527 -0.5730428 -0.1945926
v 0.1077527 -0.5935661 0.1179991
v 0.1077527 -0.4550436 0.3989735
v 0.1077527 -0.1945928 0.5730426
v 0.1077527 0.1179993 0.5935664
v 0.1077527 0.3989732 0.4550435
v 0.1077527 0.5730429 0.1945932
v 0.1077527 0.5935659 -0.1179991
v 0.1077527 0.4108523 -0.3602269
v 0.1077527 0.1756952 -0.5173918
v 0.1077527 -0.1065398 -0.5359221
v 0.1077527 -0.3602271 -0.4108522
v 0.1077527 -0.517392 -0.1756947
v 0.1077527 -0.5359222 0.1065397
v 0.1077527 -0.4108523 0.3602275
v 0.1077527 -0.175695 0.517392
v 0.1077527 0.1065396 0.5359225
v 0.1077527 0.3602272 0.4108522
v 0.1077527 0.5173921 0.1756953
v 0.1077527 0.5359222 -0.1065398
v 0.07012039 0.4108523 -0.3602269
v 0.07012039 0.1756951 -0.5173918
v 0.07012039 -0.1065398 -0.5359221
v 0.07012039 -0.3602271 -0.4108522
v 0.07012039 -0.517392 -0.1756947
v 0.07012039 -0.5359222 0.1065397
v 0.07012039 -0.4108523 0.3602275
v 0.07012039 -0.175695 0.517392
v 0.07012039 0.1065397 0.5359225
v 0.07012039 0.3602272 0.4108522
v 0.07012039 0.517392 0.1756953
v 0.07012054 0.5359222 -0.1065398
v -0.1077526 7.629394E-08 4.402837E-07
v 0.07012039 7.629394E-08 4.402837E-07
v -0.1077526 0.1945928 -0.5730428
v 0.1077527 0.1945927 -0.5730428
v -0.1077526 -0.1179992 -0.5935658
v 0.1077527 -0.1179992 -0.5935658
v -0.1077526 -0.3989732 -0.4550435
v 0.1077527 -0.3989732 -0.4550435
v -0.1077525 -0.5730428 -0.1945926
v 0.1077527 -0.5730428 -0.1945926
v -0.1077526 -0.5935661 0.1179991
v 0.1077527 -0.5935661 0.1179991
v -0.1077526 -0.4550436 0.3989735
v 0.1077527 -0.4550436 0.3989735
v -0.1077526 -0.1945928 0.5730426
v 0.1077527 -0.1945928 0.5730426
v -0.1077526 0.1179992 0.5935664
v 0.1077527 0.1179993 0.5935664
v -0.1077526 0.3989733 0.4550435
v 0.1077527 0.3989732 0.4550435
v -0.1077526 0.5730429 0.1945932
v 0.1077527 0.5730429 0.1945932
v -0.1077526 0.5935659 -0.1179991
v -0.1077526 0.4550436 -0.3989729
v 0.1077527 0.4550435 -0.3989729
v 0.1077527 0.5935659 -0.1179991
v -0.1077526 -0.4550436 0.3989735
v -0.1077526 0.1179992 0.5935664
v -0.1077526 -0.1945928 0.5730426
v 0.1077527 0.4550435 -0.3989729
v 0.1077527 0.1945927 -0.5730428
v 0.1077527 -0.1179992 -0.5935658
v 0.1077527 -0.3989732 -0.4550435
v 0.1077527 -0.5730428 -0.1945926
v 0.1077527 -0.5935661 0.1179991
v 0.1077527 -0.4550436 0.3989735
v 0.1077527 -0.1945928 0.5730426
v 0.1077527 0.1179993 0.5935664
v 0.1077527 0.3989732 0.4550435
v 0.1077527 0.5730429 0.1945932
v 0.1077527 0.5935659 -0.1179991
v 0.1077527 0.4108523 -0.3602269
v 0.1077527 0.1756952 -0.5173918
v 0.1077527 0.1756952 -0.5173918
v 0.1077527 -0.1065398 -0.5359221
v 0.07012039 0.1756951 -0.5173918
v 0.1077527 -0.1065398 -0.5359221
v 0.1077527 -0.3602271 -0.4108522
v 0.07012039 -0.1065398 -0.5359221
v 0.1077527 -0.3602271 -0.4108522
v 0.1077527 -0.517392 -0.1756947
v 0.07012039 -0.3602271 -0.4108522
v 0.1077527 -0.517392 -0.1756947
v 0.1077527 -0.5359222 0.1065397
v 0.07012039 -0.517392 -0.1756947
v 0.1077527 -0.5359222 0.1065397
v 0.1077527 -0.4108523 0.3602275
v 0.07012039 -0.5359222 0.1065397
v 0.1077527 -0.4108523 0.3602275
v 0.1077527 -0.175695 0.517392
v 0.07012039 -0.4108523 0.3602275
v 0.1077527 -0.175695 0.517392
v 0.1077527 0.1065396 0.5359225
v 0.07012039 0.1065397 0.5359225
v 0.07012039 -0.175695 0.517392
v 0.1077527 0.1065396 0.5359225
v 0.1077527 0.3602272 0.4108522
v 0.07012039 0.3602272 0.4108522
v 0.07012039 0.1065397 0.5359225
v 0.1077527 0.3602272 0.4108522
v 0.1077527 0.5173921 0.1756953
v 0.07012039 0.517392 0.1756953
v 0.07012039 0.3602272 0.4108522
v 0.1077527 0.5173921 0.1756953
v 0.1077527 0.5359222 -0.1065398
v 0.07012039 0.517392 0.1756953
v 0.1077527 0.5359222 -0.1065398
v 0.1077527 0.4108523 -0.3602269
v 0.07012039 0.4108523 -0.3602269
v 0.07012054 0.5359222 -0.1065398
v -0.1077526 0.5730429 0.1945932
v -0.1077526 0.3989733 0.4550435
v -0.1077525 -0.5730428 -0.1945926
v -0.1077526 -0.5935661 0.1179991
v -0.1077526 0.4550436 -0.3989729
v -0.1077526 -0.1179992 -0.5935658
v -0.1077526 0.1945928 -0.5730428
v -0.1077526 -0.3989732 -0.4550435
v -0.1077526 0.5935659 -0.1179991
v 0.07012039 -0.4108523 0.3602275
v 0.07012039 -0.175695 0.517392
v 0.07012039 0.4108523 -0.3602269
v 0.07012054 0.5359222 -0.1065398
v 0.07012039 -0.517392 -0.1756947
v 0.07012039 -0.1065398 -0.5359221
v 0.07012039 -0.3602271 -0.4108522
v 0.07012039 0.1756951 -0.5173918
v 0.07012039 -0.5359222 0.1065397
vt 0.03787231 0.229126
vt 0.03778076 0.229248
vt 0.03778076 0.2294922
vt 0.03787231 0.2297363
vt 0.0380249 0.2299805
vt 0.03820801 0.2299805
vt 0.03839111 0.2298584
vt 0.03848267 0.2296143
vt 0.03848267 0.2293701
vt 0.03839111 0.229126
vt 0.03820801 0.2290039
vt 0.0380249 0.2290039
vt 0.03771973 0.229126
vt 0.03762817 0.2293701
vt 0.03762817 0.2296143
vt 0.03771973 0.2297363
vt 0.03790283 0.2299805
vt 0.03808594 0.2299805
vt 0.03823853 0.2298584
vt 0.0383606 0.2297363
vt 0.0383606 0.2293701
vt 0.03823853 0.229126
vt 0.03808594 0.2290039
vt 0.03787231 0.2290039
vt 0.03775024 0.229126
vt 0.03765869 0.2293701
vt 0.03765869 0.2296143
vt 0.03775024 0.2297363
vt 0.03790283 0.2298584
vt 0.03808594 0.2299805
vt 0.03820801 0.2298584
vt 0.03829956 0.2296143
vt 0.03829956 0.2294922
vt 0.03820801 0.229248
vt 0.03805542 0.229126
vt 0.03790283 0.2290039
vt 0.03778076 0.229126
vt 0.03768921 0.2293701
vt 0.03768921 0.2296143
vt 0.03778076 0.2297363
vt 0.03793335 0.2298584
vt 0.03808594 0.2299805
vt 0.03823853 0.2298584
vt 0.03833008 0.2296143
vt 0.03833008 0.2293701
vt 0.03823853 0.229248
vt 0.03808594 0.229126
vt 0.03790283 0.2290039
vt 0.03811646 0.2294922
vt 0.03799438 0.2294922
vt 0.03778076 0.229248
vt 0.03762817 0.2293701
vt 0.03778076 0.2294922
vt 0.03762817 0.2296143
vt 0.03787231 0.2297363
vt 0.03771973 0.2297363
vt 0.0380249 0.2299805
vt 0.03790283 0.2299805
vt 0.03820801 0.2299805
vt 0.03808594 0.2299805
vt 0.03839111 0.2298584
vt 0.03823853 0.2298584
vt 0.03848267 0.2296143
vt 0.0383606 0.2297363
vt 0.03848267 0.2293701
vt 0.0383606 0.2293701
vt 0.03839111 0.229126
vt 0.03823853 0.229126
vt 0.03820801 0.2290039
vt 0.03808594 0.2290039
vt 0.0380249 0.2290039
vt 0.03787231 0.229126
vt 0.03771973 0.229126
vt 0.03787231 0.2290039
vt 0.03839111 0.2298584
vt 0.03848267 0.2293701
vt 0.03848267 0.2296143
vt 0.03771973 0.229126
vt 0.03762817 0.2293701
vt 0.03762817 0.2296143
vt 0.03771973 0.2297363
vt 0.03790283 0.2299805
vt 0.03808594 0.2299805
vt 0.03823853 0.2298584
vt 0.0383606 0.2297363
vt 0.0383606 0.2293701
vt 0.03823853 0.229126
vt 0.03808594 0.2290039
vt 0.03787231 0.2290039
vt 0.03775024 0.229126
vt 0.03765869 0.2293701
vt 0.03765869 0.2293701
vt 0.03765869 0.2296143
vt 0.03768921 0.2293701
vt 0.03765869 0.2296143
vt 0.03775024 0.2297363
vt 0.03768921 0.2296143
vt 0.03775024 0.2297363
vt 0.03790283 0.2298584
vt 0.03778076 0.2297363
vt 0.03790283 0.2298584
vt 0.03808594 0.2299805
vt 0.03793335 0.2298584
vt 0.03808594 0.2299805
vt 0.03820801 0.2298584
vt 0.03808594 0.2299805
vt 0.03820801 0.2298584
vt 0.03829956 0.2296143
vt 0.03823853 0.2298584
vt 0.03829956 0.2296143
vt 0.03829956 0.2294922
vt 0.03833008 0.2293701
vt 0.03833008 0.2296143
vt 0.03829956 0.2294922
vt 0.03820801 0.229248
vt 0.03823853 0.229248
vt 0.03833008 0.2293701
vt 0.03820801 0.229248
vt 0.03805542 0.229126
vt 0.03808594 0.229126
vt 0.03823853 0.229248
vt 0.03805542 0.229126
vt 0.03790283 0.2290039
vt 0.03808594 0.229126
vt 0.03790283 0.2290039
vt 0.03775024 0.229126
vt 0.03778076 0.229126
vt 0.03790283 0.2290039
vt 0.03820801 0.2290039
vt 0.03839111 0.229126
vt 0.0380249 0.2299805
vt 0.03820801 0.2299805
vt 0.03787231 0.229126
vt 0.03778076 0.2294922
vt 0.03778076 0.229248
vt 0.03787231 0.2297363
vt 0.0380249 0.2290039
vt 0.03823853 0.2298584
vt 0.03833008 0.2296143
vt 0.03778076 0.229126
vt 0.03790283 0.2290039
vt 0.03793335 0.2298584
vt 0.03768921 0.2296143
vt 0.03778076 0.2297363
vt 0.03768921 0.2293701
vt 0.03808594 0.2299805
vn 0 0.5556641 -0.831543
vn 0 0.5556641 -0.831543
vn 0 0.06549072 -0.9980469
vn 0 -0.4421387 -0.8969727
vn 0 -0.831543 -0.5556641
vn 0 -0.9980469 -0.06549072
vn 0 -0.8969727 0.4421387
vn 0 -0.5556641 0.831543
vn 0 -0.06549072 0.9980469
vn 0 0.4421387 0.8969727
vn 0 0.831543 0.5556641
vn 0 0.9980469 0.06549072
vn 0 0.5556641 -0.831543
vn 0 0.5556641 -0.831543
vn 0 0.06549072 -0.9980469
vn 0 -0.4421387 -0.8969727
vn 0 -0.831543 -0.5556641
vn 0 -0.9980469 -0.06549072
vn 0 -0.8969727 0.4421387
vn 0 -0.5556641 0.831543
vn 0 -0.06549072 0.9980469
vn 0 0.4421387 0.8969727
vn 0 0.831543 0.5556641
vn 0 0.9980469 0.06549072
vn 1 0 0
vn 1 0 0
vn 1 0 0
vn 1 0 0
vn 1 0 0
vn 1 0 0
vn 1 0 0
vn 1 0 0
vn 1 0 0
vn 1 0 0
vn 1 0 0
vn 1 0 0
vn 0 -0.5556641 0.831543
vn 0 -0.5556641 0.831543
vn 0 -0.06549072 0.9980469
vn 0 0.4421387 0.8969727
vn 0 0.831543 0.5556641
vn 0 0.9980469 0.06549072
vn 0 0.8969727 -0.4421387
vn 0 0.5556641 -0.831543
vn 1 0 0
vn 1 0 0
vn 1 0 0
vn 0 -0.9980469 -0.06549072
vn -1 0 0
vn 1 0 0
vn 0 0.06549072 -0.9980469
vn 0 0.06549072 -0.9980469
vn 0 -0.4421387 -0.8969727
vn 0 -0.4421387 -0.8969727
vn 0 -0.831543 -0.5556641
vn 0 -0.831543 -0.5556641
vn 0 -0.9980469 -0.06549072
vn 0 -0.9980469 -0.06549072
vn 0 -0.8969727 0.4421387
vn 0 -0.8969727 0.4421387
vn 0 -0.5556641 0.831543
vn 0 -0.5556641 0.831543
vn 0 -0.06549072 0.9980469
vn 0 -0.06549072 0.9980469
vn 0 0.4421387 0.8969727
vn 0 0.4421387 0.8969727
vn 0 0.831543 0.5556641
vn 0 0.831543 0.5556641
vn 0 0.9980469 0.06549072
vn 0 0.9980469 0.06549072
vn 0 0.8969727 -0.4421387
vn 0 0.8969727 -0.4421387
vn 0 0.8969727 -0.4421387
vn 0 0.8969727 -0.4421387
vn -1 0 0
vn -1 0 0
vn -1 0 0
vn 1 0 0
vn 1 0 0
vn 1 0 0
vn 1 0 0
vn 1 0 0
vn 1 0 0
vn 1 0 0
vn 1 0 0
vn 1 0 0
vn 1 0 0
vn 1 0 0
vn 1 0 0
vn 0 -0.5556641 0.831543
vn 0 -0.5556641 0.831543
vn 0 -0.06549072 0.9980469
vn 0 -0.06549072 0.9980469
vn 0 -0.06549072 0.9980469
vn 0 0.4421387 0.8969727
vn 0 0.4421387 0.8969727
vn 0 0.4421387 0.8969727
vn 0 0.831543 0.5556641
vn 0 0.831543 0.5556641
vn 0 0.831543 0.5556641
vn 0 0.9980469 0.06549072
vn 0 0.9980469 0.06549072
vn 0 0.9980469 0.06549072
vn 0 0.8969727 -0.4421387
vn 0 0.8969727 -0.4421387
vn 0 0.8969727 -0.4421387
vn 0 0.5556641 -0.831543
vn 0 0.5556641 -0.831543
vn 0 0.5556641 -0.831543
vn 0 0.06549072 -0.9980469
vn 0 0.06549072 -0.9980469
vn 0 0.06549072 -0.9980469
vn 0 0.06549072 -0.9980469
vn 0 -0.4421387 -0.8969727
vn 0 -0.4421387 -0.8969727
vn 0 -0.4421387 -0.8969727
vn 0 -0.4421387 -0.8969727
vn 0 -0.831543 -0.5556641
vn 0 -0.831543 -0.5556641
vn 0 -0.831543 -0.5556641
vn 0 -0.831543 -0.5556641
vn 0 -0.9980469 -0.06549072
vn 0 -0.9980469 -0.06549072
vn 0 -0.9980469 -0.06549072
vn 0 -0.8969727 0.4421387
vn 0 -0.8969727 0.4421387
vn 0 -0.8969727 0.4421387
vn 0 -0.8969727 0.4421387
vn -1 0 0
vn -1 0 0
vn -1 0 0
vn -1 0 0
vn -1 0 0
vn -1 0 0
vn -1 0 0
vn -1 0 0
vn -1 0 0
vn 1 0 0
vn 1 0 0
vn 1 0 0
vn 1 0 0
vn 1 0 0
vn 1 0 0
vn 1 0 0
vn 1 0 0
vn 1 0 0
g SM_Veh_Excavator_01_Track_Wheel_rl_0
f 14/14/14 2/2/2 1/1/1
f 13/13/13 14/14/14 1/1/1
f 15/15/15 3/3/3 51/51/51
f 52/52/52 15/15/15 51/51/51
f 16/16/16 4/4/4 53/53/53
f 54/54/54 16/16/16 53/53/53
f 17/17/17 5/5/5 55/55/55
f 56/56/56 17/17/17 55/55/55
f 18/18/18 6/6/6 57/57/57
f 58/58/58 18/18/18 57/57/57
f 19/19/19 7/7/7 59/59/59
f 60/60/60 19/19/19 59/59/59
f 20/20/20 8/8/8 61/61/61
f 62/62/62 20/20/20 61/61/61
f 21/21/21 9/9/9 63/63/63
f 64/64/64 21/21/21 63/63/63
f 22/22/22 10/10/10 65/65/65
f 66/66/66 22/22/22 65/65/65
f 23/23/23 11/11/11 67/67/67
f 68/68/68 23/23/23 67/67/67
f 24/24/24 12/12/12 69/69/69
f 70/70/70 24/24/24 69/69/69
f 73/73/73 72/72/72 71/71/71
f 74/74/74 73/73/73 71/71/71
f 77/77/77 76/76/76 75/75/75
f 76/76/76 49/49/49 75/75/75
f 76/76/76 130/130/130 49/49/49
f 130/130/130 129/129/129 49/49/49
f 75/75/75 49/49/49 131/131/131
f 132/132/132 75/75/75 131/131/131
f 49/49/49 129/129/129 133/133/133
f 129/129/129 137/137/137 133/133/133
f 131/131/131 49/49/49 134/134/134
f 134/134/134 49/49/49 133/133/133
f 136/136/136 131/131/131 134/134/134
f 135/135/135 134/134/134 133/133/133
f 46/46/46 45/45/45 47/47/47
f 45/45/45 50/50/50 47/47/47
f 47/47/47 50/50/50 140/140/140
f 141/141/141 47/47/47 140/140/140
f 138/138/138 50/50/50 45/45/45
f 139/139/139 138/138/138 45/45/45
f 50/50/50 143/143/143 140/140/140
f 143/143/143 145/145/145 140/140/140
f 142/142/142 50/50/50 138/138/138
f 143/143/143 50/50/50 142/142/142
f 146/146/146 142/142/142 138/138/138
f 144/144/144 143/143/143 142/142/142
f 38/38/38 91/91/91 90/90/90
f 37/37/37 38/38/38 90/90/90
f 39/39/39 93/93/93 92/92/92
f 94/94/94 39/39/39 92/92/92
f 40/40/40 96/96/96 95/95/95
f 97/97/97 40/40/40 95/95/95
f 41/41/41 99/99/99 98/98/98
f 100/100/100 41/41/41 98/98/98
f 42/42/42 102/102/102 101/101/101
f 103/103/103 42/42/42 101/101/101
f 43/43/43 105/105/105 104/104/104
f 106/106/106 43/43/43 104/104/104
f 44/44/44 108/108/108 107/107/107
f 109/109/109 44/44/44 107/107/107
f 112/112/112 111/111/111 110/110/110
f 113/113/113 112/112/112 110/110/110
f 116/116/116 115/115/115 114/114/114
f 117/117/117 116/116/116 114/114/114
f 120/120/120 119/119/119 118/118/118
f 121/121/121 120/120/120 118/118/118
f 48/48/48 123/123/123 122/122/122
f 124/124/124 48/48/48 122/122/122
f 127/127/127 126/126/126 125/125/125
f 128/128/128 127/127/127 125/125/125
f 25/25/25 26/26/26 78/78/78
f 26/26/26 79/79/79 78/78/78
f 25/25/25 78/78/78 89/89/89
f 26/26/26 27/27/27 79/79/79
f 36/36/36 25/25/25 89/89/89
f 27/27/27 80/80/80 79/79/79
f 36/36/36 89/89/89 88/88/88
f 27/27/27 28/28/28 80/80/80
f 35/35/35 36/36/36 88/88/88
f 28/28/28 81/81/81 80/80/80
f 35/35/35 88/88/88 87/87/87
f 28/28/28 29/29/29 81/81/81
f 34/34/34 35/35/35 87/87/87
f 29/29/29 82/82/82 81/81/81
f 34/34/34 87/87/87 86/86/86
f 29/29/29 30/30/30 82/82/82
f 33/33/33 34/34/34 86/86/86
f 30/30/30 83/83/83 82/82/82
f 33/33/33 86/86/86 85/85/85
f 30/30/30 31/31/31 83/83/83
f 32/32/32 33/33/33 85/85/85
f 31/31/31 84/84/84 83/83/83
f 32/32/32 85/85/85 84/84/84
f 31/31/31 32/32/32 84/84/84
