g SM_Veh_Excavator_01_Track_Wheel_rr
v 0.1077527 0.4550435 -0.3989729
v 0.1077527 0.1945927 -0.5730428
v 0.1077527 -0.1179992 -0.5935658
v 0.1077527 -0.3989732 -0.4550435
v 0.1077527 -0.5730428 -0.1945926
v 0.1077527 -0.5935661 0.1179991
v 0.1077527 -0.4550436 0.3989735
v 0.1077527 -0.1945928 0.5730426
v 0.1077527 0.1179993 0.5935664
v 0.1077527 0.3989732 0.4550435
v 0.1077527 0.5730429 0.1945932
v 0.1077527 0.5935659 -0.1179991
v -0.1077527 0.4550436 -0.3989729
v -0.1077527 0.1945928 -0.5730428
v -0.1077527 -0.1179992 -0.5935658
v -0.1077527 -0.3989732 -0.4550435
v -0.1077525 -0.5730428 -0.1945926
v -0.1077527 -0.5935661 0.1179991
v -0.1077525 -0.4550436 0.3989735
v -0.1077527 -0.1945928 0.5730426
v -0.1077527 0.1179992 0.5935664
v -0.1077527 0.3989733 0.4550435
v -0.1077527 0.5730428 0.1945932
v -0.1077527 0.5935659 -0.1179991
v -0.1077527 0.3857865 -0.3382497
v -0.1077525 0.164976 -0.4858263
v -0.1077527 -0.1000399 -0.5032259
v -0.1077527 -0.33825 -0.3857866
v -0.1077525 -0.4858265 -0.1649757
v -0.1077527 -0.5032262 0.1000398
v -0.1077525 -0.3857866 0.3382504
v -0.1077527 -0.1649759 0.4858264
v -0.1077527 0.1000399 0.5032265
v -0.1077525 0.3382502 0.3857866
v -0.1077527 0.4858265 0.1649765
v -0.1077525 0.5032261 -0.1000398
v -0.07012022 0.3857865 -0.3382497
v -0.07012022 0.164976 -0.4858263
v -0.07012022 -0.1000399 -0.5032259
v -0.07012022 -0.33825 -0.3857866
v -0.07012022 -0.4858265 -0.1649757
v -0.07012038 -0.5032262 0.1000398
v -0.07012022 -0.3857866 0.3382504
v -0.07012022 -0.1649759 0.4858264
v -0.07012022 0.1000399 0.5032265
v -0.07012022 0.3382502 0.3857866
v -0.07012038 0.4858265 0.1649765
v -0.07012022 0.5032261 -0.1000398
v 0.1077527 1.525879E-07 4.402837E-07
v -0.07012022 7.629394E-08 4.402837E-07
v 0.1077527 0.1945927 -0.5730428
v -0.1077527 0.1945928 -0.5730428
v 0.1077527 -0.1179992 -0.5935658
v -0.1077527 -0.1179992 -0.5935658
v 0.1077527 -0.3989732 -0.4550435
v -0.1077527 -0.3989732 -0.4550435
v 0.1077527 -0.5730428 -0.1945926
v -0.1077525 -0.5730428 -0.1945926
v 0.1077527 -0.5935661 0.1179991
v -0.1077527 -0.5935661 0.1179991
v 0.1077527 -0.4550436 0.3989735
v -0.1077525 -0.4550436 0.3989735
v 0.1077527 -0.1945928 0.5730426
v -0.1077527 -0.1945928 0.5730426
v 0.1077527 0.1179993 0.5935664
v -0.1077527 0.1179992 0.5935664
v 0.1077527 0.3989732 0.4550435
v -0.1077527 0.3989733 0.4550435
v 0.1077527 0.5730429 0.1945932
v -0.1077527 0.5730428 0.1945932
v 0.1077527 0.5935659 -0.1179991
v -0.1077527 0.5935659 -0.1179991
v -0.1077527 0.4550436 -0.3989729
v 0.1077527 0.4550435 -0.3989729
v 0.1077527 -0.4550436 0.3989735
v 0.1077527 -0.1945928 0.5730426
v 0.1077527 0.1179993 0.5935664
v -0.1077527 0.4550436 -0.3989729
v -0.1077527 0.1945928 -0.5730428
v -0.1077527 -0.1179992 -0.5935658
v -0.1077527 -0.3989732 -0.4550435
v -0.1077525 -0.5730428 -0.1945926
v -0.1077527 -0.5935661 0.1179991
v -0.1077525 -0.4550436 0.3989735
v -0.1077527 -0.1945928 0.5730426
v -0.1077527 0.1179992 0.5935664
v -0.1077527 0.3989733 0.4550435
v -0.1077527 0.5730428 0.1945932
v -0.1077527 0.5935659 -0.1179991
v -0.1077527 0.3857865 -0.3382497
v -0.1077525 0.164976 -0.4858263
v -0.1077525 0.164976 -0.4858263
v -0.07012022 0.164976 -0.4858263
v -0.1077527 -0.1000399 -0.5032259
v -0.1077527 -0.1000399 -0.5032259
v -0.07012022 -0.1000399 -0.5032259
v -0.1077527 -0.33825 -0.3857866
v -0.1077527 -0.33825 -0.3857866
v -0.07012022 -0.33825 -0.3857866
v -0.1077525 -0.4858265 -0.1649757
v -0.1077525 -0.4858265 -0.1649757
v -0.07012022 -0.4858265 -0.1649757
v -0.1077527 -0.5032262 0.1000398
v -0.1077527 -0.5032262 0.1000398
v -0.07012038 -0.5032262 0.1000398
v -0.1077525 -0.3857866 0.3382504
v -0.1077525 -0.3857866 0.3382504
v -0.07012022 -0.3857866 0.3382504
v -0.1077527 -0.1649759 0.4858264
v -0.1077527 -0.1649759 0.4858264
v -0.07012022 -0.1649759 0.4858264
v -0.07012022 0.1000399 0.5032265
v -0.1077527 0.1000399 0.5032265
v -0.1077527 0.1000399 0.5032265
v -0.07012022 0.1000399 0.5032265
v -0.07012022 0.3382502 0.3857866
v -0.1077525 0.3382502 0.3857866
v -0.1077525 0.3382502 0.3857866
v -0.07012022 0.3382502 0.3857866
v -0.07012038 0.4858265 0.1649765
v -0.1077527 0.4858265 0.1649765
v -0.1077527 0.4858265 0.1649765
v -0.07012038 0.4858265 0.1649765
v -0.1077525 0.5032261 -0.1000398
v -0.1077525 0.5032261 -0.1000398
v -0.07012022 0.5032261 -0.1000398
v -0.07012022 0.3857865 -0.3382497
v -0.1077527 0.3857865 -0.3382497
v 0.1077527 0.3989732 0.4550435
v 0.1077527 0.5730429 0.1945932
v 0.1077527 -0.5730428 -0.1945926
v 0.1077527 -0.5935661 0.1179991
v 0.1077527 0.4550435 -0.3989729
v 0.1077527 0.1945927 -0.5730428
v 0.1077527 -0.1179992 -0.5935658
v 0.1077527 -0.3989732 -0.4550435
v 0.1077527 0.5935659 -0.1179991
v -0.07012022 -0.1649759 0.4858264
v -0.07012022 -0.3857866 0.3382504
v -0.07012022 0.3857865 -0.3382497
v -0.07012022 0.5032261 -0.1000398
v -0.07012022 -0.4858265 -0.1649757
v -0.07012022 -0.33825 -0.3857866
v -0.07012022 -0.1000399 -0.5032259
v -0.07012022 0.164976 -0.4858263
v -0.07012038 -0.5032262 0.1000398
vt 0.03768921 0.229126
vt 0.03759766 0.2293701
vt 0.03756714 0.2296143
vt 0.03768921 0.2298584
vt 0.0378418 0.2299805
vt 0.03805542 0.2299805
vt 0.03823853 0.2298584
vt 0.0383606 0.2297363
vt 0.0383606 0.2293701
vt 0.03826904 0.229126
vt 0.03808594 0.2290039
vt 0.03787231 0.2290039
vt 0.03781128 0.229126
vt 0.03768921 0.229248
vt 0.03768921 0.2296143
vt 0.03778076 0.2297363
vt 0.03796387 0.2299805
vt 0.03814697 0.2299805
vt 0.0383606 0.2298584
vt 0.03845215 0.2296143
vt 0.03848267 0.2293701
vt 0.0383606 0.229126
vt 0.03820801 0.2290039
vt 0.03799438 0.2290039
vt 0.0378418 0.229126
vt 0.03775024 0.2293701
vt 0.03775024 0.2294922
vt 0.03781128 0.2297363
vt 0.03796387 0.2298584
vt 0.03814697 0.2298584
vt 0.03829956 0.2298584
vt 0.03839111 0.2296143
vt 0.03842163 0.2293701
vt 0.03833008 0.229248
vt 0.03817749 0.229126
vt 0.03799438 0.229126
vt 0.03781128 0.229126
vt 0.03771973 0.2293701
vt 0.03771973 0.2294922
vt 0.03781128 0.2297363
vt 0.03796387 0.2298584
vt 0.03811646 0.2298584
vt 0.03829956 0.2298584
vt 0.03839111 0.2296143
vt 0.03839111 0.2293701
vt 0.03829956 0.229248
vt 0.03814697 0.229126
vt 0.03796387 0.229126
vt 0.03796387 0.2294922
vt 0.03805542 0.2294922
vt 0.03759766 0.2293701
vt 0.03768921 0.229248
vt 0.03756714 0.2296143
vt 0.03768921 0.2296143
vt 0.03768921 0.2298584
vt 0.03778076 0.2297363
vt 0.0378418 0.2299805
vt 0.03796387 0.2299805
vt 0.03805542 0.2299805
vt 0.03814697 0.2299805
vt 0.03823853 0.2298584
vt 0.0383606 0.2298584
vt 0.0383606 0.2297363
vt 0.03845215 0.2296143
vt 0.0383606 0.2293701
vt 0.03848267 0.2293701
vt 0.03826904 0.229126
vt 0.0383606 0.229126
vt 0.03808594 0.2290039
vt 0.03820801 0.2290039
vt 0.03787231 0.2290039
vt 0.03799438 0.2290039
vt 0.03781128 0.229126
vt 0.03768921 0.229126
vt 0.03823853 0.2298584
vt 0.0383606 0.2297363
vt 0.0383606 0.2293701
vt 0.03781128 0.229126
vt 0.03768921 0.229248
vt 0.03768921 0.2296143
vt 0.03778076 0.2297363
vt 0.03796387 0.2299805
vt 0.03814697 0.2299805
vt 0.0383606 0.2298584
vt 0.03845215 0.2296143
vt 0.03848267 0.2293701
vt 0.0383606 0.229126
vt 0.03820801 0.2290039
vt 0.03799438 0.2290039
vt 0.0378418 0.229126
vt 0.03775024 0.2293701
vt 0.03775024 0.2293701
vt 0.03771973 0.2293701
vt 0.03775024 0.2294922
vt 0.03775024 0.2294922
vt 0.03771973 0.2294922
vt 0.03781128 0.2297363
vt 0.03781128 0.2297363
vt 0.03781128 0.2297363
vt 0.03796387 0.2298584
vt 0.03796387 0.2298584
vt 0.03796387 0.2298584
vt 0.03814697 0.2298584
vt 0.03814697 0.2298584
vt 0.03811646 0.2298584
vt 0.03829956 0.2298584
vt 0.03829956 0.2298584
vt 0.03829956 0.2298584
vt 0.03839111 0.2296143
vt 0.03839111 0.2296143
vt 0.03839111 0.2296143
vt 0.03839111 0.2293701
vt 0.03842163 0.2293701
vt 0.03842163 0.2293701
vt 0.03839111 0.2293701
vt 0.03829956 0.229248
vt 0.03833008 0.229248
vt 0.03833008 0.229248
vt 0.03829956 0.229248
vt 0.03814697 0.229126
vt 0.03817749 0.229126
vt 0.03817749 0.229126
vt 0.03814697 0.229126
vt 0.03799438 0.229126
vt 0.03799438 0.229126
vt 0.03796387 0.229126
vt 0.03781128 0.229126
vt 0.0378418 0.229126
vt 0.03826904 0.229126
vt 0.03808594 0.2290039
vt 0.0378418 0.2299805
vt 0.03805542 0.2299805
vt 0.03768921 0.229126
vt 0.03759766 0.2293701
vt 0.03756714 0.2296143
vt 0.03768921 0.2298584
vt 0.03787231 0.2290039
vt 0.03839111 0.2296143
vt 0.03829956 0.2298584
vt 0.03781128 0.229126
vt 0.03796387 0.229126
vt 0.03796387 0.2298584
vt 0.03781128 0.2297363
vt 0.03771973 0.2294922
vt 0.03771973 0.2293701
vt 0.03811646 0.2298584
vn 0 0.5556641 -0.831543
vn 0 0.5556641 -0.831543
vn 0 0.06549072 -0.9980469
vn 0 -0.4421387 -0.8969727
vn 0 -0.831543 -0.5556641
vn 0 -0.9980469 -0.06549072
vn 0 -0.8969727 0.4421387
vn 0 -0.5556641 0.831543
vn 0 -0.06549072 0.9980469
vn 0 0.4421387 0.8969727
vn 0 0.831543 0.5556641
vn 0 0.9980469 0.06549072
vn 0 0.5556641 -0.831543
vn 0 0.5556641 -0.831543
vn 0 0.06549072 -0.9980469
vn 0 -0.4421387 -0.8969727
vn 0 -0.831543 -0.5556641
vn 0 -0.9980469 -0.06549072
vn 0 -0.8969727 0.4421387
vn 0 -0.5556641 0.831543
vn 0 -0.06549072 0.9980469
vn 0 0.4421387 0.8969727
vn 0 0.831543 0.5556641
vn 0 0.9980469 0.06549072
vn -1 0 0
vn -1 0 0
vn -1 0 0
vn -1 0 0
vn -1 0 0
vn -1 0 0
vn -1 0 0
vn -1 0 0
vn -1 0 0
vn -1 0 0
vn -1 0 0
vn -1 0 0
vn 0 -0.5556641 0.831543
vn 0 -0.5556641 0.831543
vn 0 -0.06549072 0.9980469
vn 0 0.4421387 0.8969727
vn 0 0.831543 0.5556641
vn 0 0.9980469 0.06549072
vn 0 0.8969727 -0.4421387
vn 0 0.5556641 -0.831543
vn -1 0 0
vn -1 0 0
vn -1 0 0
vn 0 -0.9980469 -0.06549072
vn 1 0 0
vn -1 0 0
vn 0 0.06549072 -0.9980469
vn 0 0.06549072 -0.9980469
vn 0 -0.4421387 -0.8969727
vn 0 -0.4421387 -0.8969727
vn 0 -0.831543 -0.5556641
vn 0 -0.831543 -0.5556641
vn 0 -0.9980469 -0.06549072
vn 0 -0.9980469 -0.06549072
vn 0 -0.8969727 0.4421387
vn 0 -0.8969727 0.4421387
vn 0 -0.5556641 0.831543
vn 0 -0.5556641 0.831543
vn 0 -0.06549072 0.9980469
vn 0 -0.06549072 0.9980469
vn 0 0.4421387 0.8969727
vn 0 0.4421387 0.8969727
vn 0 0.831543 0.5556641
vn 0 0.831543 0.5556641
vn 0 0.9980469 0.06549072
vn 0 0.9980469 0.06549072
vn 0 0.8969727 -0.4421387
vn 0 0.8969727 -0.4421387
vn 0 0.8969727 -0.4421387
vn 0 0.8969727 -0.4421387
vn 1 0 0
vn 1 0 0
vn 1 0 0
vn -1 0 0
vn -1 0 0
vn -1 0 0
vn -1 0 0
vn -1 0 0
vn -1 0 0
vn -1 0 0
vn -1 0 0
vn -1 0 0
vn -1 0 0
vn -1 0 0
vn -1 0 0
vn 0 -0.5556641 0.831543
vn 0 -0.5556641 0.831543
vn 0 -0.06549072 0.9980469
vn 0 -0.06549072 0.9980469
vn 0 -0.06549072 0.9980469
vn 0 0.4421387 0.8969727
vn 0 0.4421387 0.8969727
vn 0 0.4421387 0.8969727
vn 0 0.831543 0.5556641
vn 0 0.831543 0.5556641
vn 0 0.831543 0.5556641
vn 0 0.9980469 0.06549072
vn 0 0.9980469 0.06549072
vn 0 0.9980469 0.06549072
vn 0 0.8969727 -0.4421387
vn 0 0.8969727 -0.4421387
vn 0 0.8969727 -0.4421387
vn 0 0.5556641 -0.831543
vn 0 0.5556641 -0.831543
vn 0 0.5556641 -0.831543
vn 0 0.06549072 -0.9980469
vn 0 0.06549072 -0.9980469
vn 0 0.06549072 -0.9980469
vn 0 0.06549072 -0.9980469
vn 0 -0.4421387 -0.8969727
vn 0 -0.4421387 -0.8969727
vn 0 -0.4421387 -0.8969727
vn 0 -0.4421387 -0.8969727
vn 0 -0.831543 -0.5556641
vn 0 -0.831543 -0.5556641
vn 0 -0.831543 -0.5556641
vn 0 -0.831543 -0.5556641
vn 0 -0.9980469 -0.06549072
vn 0 -0.9980469 -0.06549072
vn 0 -0.9980469 -0.06549072
vn 0 -0.8969727 0.4421387
vn 0 -0.8969727 0.4421387
vn 0 -0.8969727 0.4421387
vn 0 -0.8969727 0.4421387
vn 1 0 0
vn 1 0 0
vn 1 0 0
vn 1 0 0
vn 1 0 0
vn 1 0 0
vn 1 0 0
vn 1 0 0
vn 1 0 0
vn -1 0 0
vn -1 0 0
vn -1 0 0
vn -1 0 0
vn -1 0 0
vn -1 0 0
vn -1 0 0
vn -1 0 0
vn -1 0 0
g SM_Veh_Excavator_01_Track_Wheel_rr_0
f 14/14/14 13/13/13 1/1/1
f 2/2/2 14/14/14 1/1/1
f 15/15/15 52/52/52 51/51/51
f 3/3/3 15/15/15 51/51/51
f 16/16/16 54/54/54 53/53/53
f 4/4/4 16/16/16 53/53/53
f 17/17/17 56/56/56 55/55/55
f 5/5/5 17/17/17 55/55/55
f 18/18/18 58/58/58 57/57/57
f 6/6/6 18/18/18 57/57/57
f 19/19/19 60/60/60 59/59/59
f 7/7/7 19/19/19 59/59/59
f 20/20/20 62/62/62 61/61/61
f 8/8/8 20/20/20 61/61/61
f 21/21/21 64/64/64 63/63/63
f 9/9/9 21/21/21 63/63/63
f 22/22/22 66/66/66 65/65/65
f 10/10/10 22/22/22 65/65/65
f 23/23/23 68/68/68 67/67/67
f 11/11/11 23/23/23 67/67/67
f 24/24/24 70/70/70 69/69/69
f 12/12/12 24/24/24 69/69/69
f 73/73/73 72/72/72 71/71/71
f 74/74/74 73/73/73 71/71/71
f 77/77/77 76/76/76 75/75/75
f 49/49/49 77/77/77 75/75/75
f 129/129/129 77/77/77 49/49/49
f 130/130/130 129/129/129 49/49/49
f 49/49/49 75/75/75 131/131/131
f 75/75/75 132/132/132 131/131/131
f 130/130/130 49/49/49 133/133/133
f 137/137/137 130/130/130 133/133/133
f 49/49/49 131/131/131 135/135/135
f 49/49/49 135/135/135 133/133/133
f 131/131/131 136/136/136 135/135/135
f 135/135/135 134/134/134 133/133/133
f 45/45/45 46/46/46 47/47/47
f 50/50/50 45/45/45 47/47/47
f 50/50/50 47/47/47 140/140/140
f 47/47/47 141/141/141 140/140/140
f 50/50/50 139/139/139 45/45/45
f 139/139/139 138/138/138 45/45/45
f 144/144/144 50/50/50 140/140/140
f 145/145/145 144/144/144 140/140/140
f 50/50/50 142/142/142 139/139/139
f 50/50/50 144/144/144 142/142/142
f 142/142/142 146/146/146 139/139/139
f 144/144/144 143/143/143 142/142/142
f 38/38/38 37/37/37 90/90/90
f 91/91/91 38/38/38 90/90/90
f 39/39/39 93/93/93 92/92/92
f 94/94/94 39/39/39 92/92/92
f 40/40/40 96/96/96 95/95/95
f 97/97/97 40/40/40 95/95/95
f 41/41/41 99/99/99 98/98/98
f 100/100/100 41/41/41 98/98/98
f 42/42/42 102/102/102 101/101/101
f 103/103/103 42/42/42 101/101/101
f 43/43/43 105/105/105 104/104/104
f 106/106/106 43/43/43 104/104/104
f 44/44/44 108/108/108 107/107/107
f 109/109/109 44/44/44 107/107/107
f 112/112/112 111/111/111 110/110/110
f 113/113/113 112/112/112 110/110/110
f 116/116/116 115/115/115 114/114/114
f 117/117/117 116/116/116 114/114/114
f 120/120/120 119/119/119 118/118/118
f 121/121/121 120/120/120 118/118/118
f 48/48/48 123/123/123 122/122/122
f 124/124/124 48/48/48 122/122/122
f 127/127/127 126/126/126 125/125/125
f 128/128/128 127/127/127 125/125/125
f 26/26/26 25/25/25 78/78/78
f 79/79/79 26/26/26 78/78/78
f 78/78/78 25/25/25 89/89/89
f 27/27/27 26/26/26 79/79/79
f 25/25/25 36/36/36 89/89/89
f 80/80/80 27/27/27 79/79/79
f 89/89/89 36/36/36 88/88/88
f 28/28/28 27/27/27 80/80/80
f 36/36/36 35/35/35 88/88/88
f 81/81/81 28/28/28 80/80/80
f 88/88/88 35/35/35 87/87/87
f 29/29/29 28/28/28 81/81/81
f 35/35/35 34/34/34 87/87/87
f 82/82/82 29/29/29 81/81/81
f 87/87/87 34/34/34 86/86/86
f 30/30/30 29/29/29 82/82/82
f 34/34/34 33/33/33 86/86/86
f 83/83/83 30/30/30 82/82/82
f 86/86/86 33/33/33 85/85/85
f 31/31/31 30/30/30 83/83/83
f 33/33/33 32/32/32 85/85/85
f 84/84/84 31/31/31 83/83/83
f 85/85/85 32/32/32 84/84/84
f 32/32/32 31/31/31 84/84/84
