g SM_Veh_Excavator_01_Glass
v 0.5812005 1.016286 2.166317
v 0.5816519 2.233143 1.832949
v 1.349393 2.233408 1.832877
v 1.348942 1.016551 2.166245
v 1.347477 0.4077354 1.955345
v 0.5831172 0.4077354 1.955345
v 0.5831172 0.7411058 2.143271
v 1.347477 0.7411058 2.143271
v 1.533348 0.6623601 1.123206
v 1.533348 0.6623601 1.746891
v 1.533348 0.9474654 1.93213
v 1.533348 1.150599 1.868
v 1.533348 1.150599 0.7441095
v 1.533348 0.9915071 0.7441095
v 1.533348 1.373198 0.7430192
v 1.533348 1.373198 1.808143
v 1.533348 2.179948 1.557132
v 1.533348 2.179948 0.7430191
v 1.533348 1.028496 0.4618758
v 1.533348 2.131755 0.4618759
v 1.533348 2.131755 0.1800566
v 1.533348 1.028496 0.1800566
v 0.4001074 1.328587 1.860674
v 0.4001074 1.328587 0.2384009
v 0.4001074 2.175032 0.2384006
v 0.4001074 2.175032 1.604941
v 0.4001074 0.9371727 1.999367
v 0.4001074 0.6469266 1.818592
v 0.4001074 0.6469261 1.250852
v 0.4001074 1.166443 1.250852
v 0.4001074 1.166443 1.929339
v 0.5812005 1.015651 2.163999
v 0.5816519 2.232509 1.830631
v 1.348942 1.015916 2.163927
v 1.349393 2.232774 1.830559
v 0.5831172 0.4089158 1.953251
v 0.5831172 0.7422862 2.141177
v 1.347477 0.4089158 1.953251
v 1.347477 0.7422862 2.141177
v 1.530944 0.9915071 0.7441095
v 1.530944 0.6623601 1.123206
v 1.530944 1.150599 0.7441095
v 1.530944 1.150599 1.868
v 1.530944 0.9474654 1.93213
v 1.530944 0.6623601 1.746891
v 1.530944 1.373198 0.7430192
v 1.530944 1.373198 1.808143
v 1.530944 2.179948 0.7430191
v 1.530944 2.179948 1.557132
v 1.530944 2.131755 0.1800566
v 1.530944 1.028496 0.1800566
v 1.530944 2.131755 0.4618759
v 1.530944 1.028496 0.4618758
v 0.402511 2.175032 1.604941
v 0.402511 1.328587 1.860674
v 0.402511 2.175032 0.2384006
v 0.402511 1.328587 0.2384009
v 0.402511 1.166443 1.929339
v 0.402511 0.9371727 1.999367
v 0.402511 1.166443 1.250852
v 0.402511 0.6469261 1.250852
v 0.4025109 0.6469266 1.818592
vt 0.1767578 0.2288818
vt 0.1766357 0.2282715
vt 0.1762695 0.2282715
vt 0.1763916 0.2290039
vt 0.1763916 0.229248
vt 0.1766357 0.229248
vt 0.1766357 0.2290039
vt 0.1763916 0.229126
vt 0.1760254 0.229126
vt 0.1762695 0.229126
vt 0.1762695 0.2290039
vt 0.1762695 0.2288818
vt 0.1759033 0.2288818
vt 0.1759033 0.2288818
vt 0.1759033 0.2287598
vt 0.1762695 0.2287598
vt 0.1761475 0.2283936
vt 0.1759033 0.2283936
vt 0.1757813 0.2288818
vt 0.1757813 0.2283936
vt 0.1756592 0.2283936
vt 0.1756592 0.2288818
vt 0.1766357 0.2287598
vt 0.1761475 0.2286377
vt 0.1761475 0.2282715
vt 0.1765137 0.2283936
vt 0.1766357 0.2288818
vt 0.1766357 0.2290039
vt 0.1763916 0.2290039
vt 0.1763916 0.2287598
vt 0.1766357 0.2288818
vt 0.1767578 0.2288818
vt 0.1766357 0.2282715
vt 0.1763916 0.2290039
vt 0.1762695 0.2282715
vt 0.1766357 0.229248
vt 0.1766357 0.2290039
vt 0.1763916 0.229248
vt 0.1763916 0.229126
vt 0.1759033 0.2288818
vt 0.1760254 0.229126
vt 0.1759033 0.2288818
vt 0.1762695 0.2288818
vt 0.1762695 0.2290039
vt 0.1762695 0.229126
vt 0.1759033 0.2287598
vt 0.1762695 0.2287598
vt 0.1759033 0.2283936
vt 0.1761475 0.2283936
vt 0.1756592 0.2283936
vt 0.1756592 0.2288818
vt 0.1757813 0.2283936
vt 0.1757813 0.2288818
vt 0.1765137 0.2283936
vt 0.1766357 0.2287598
vt 0.1761475 0.2282715
vt 0.1761475 0.2286377
vt 0.1766357 0.2288818
vt 0.1766357 0.2288818
vt 0.1763916 0.2287598
vt 0.1763916 0.2290039
vt 0.1766357 0.2290039
vn 0 0.2641602 0.9643555
vn 0 0.2641602 0.9643555
vn 0 0.2641602 0.9643555
vn 0 0.2641602 0.9643555
vn 0 -0.4909668 0.8710938
vn 0 -0.4909668 0.8710938
vn 0 -0.4909668 0.8710938
vn 0 -0.4909668 0.8710938
vn 1 0 0
vn 1 0 0
vn 1 0 0
vn 1 0 0
vn 1 0 0
vn 1 0 0
vn 1 0 0
vn 1 0 0
vn 1 0 0
vn 1 0 0
vn 1 0 0
vn 1 0 0
vn 1 0 0
vn 1 0 0
vn -1 0 0
vn -1 0 0
vn -1 0 0
vn -1 0 0
vn -1 0 0
vn -1 0 0
vn -1 0 0
vn -1 0 0
vn -1 0 0
vn 0 -0.2641602 -0.9643555
vn 0 -0.2641602 -0.9643555
vn 0 -0.2641602 -0.9643555
vn 0 -0.2641602 -0.9643555
vn 0 0.4909668 -0.8710938
vn 0 0.4909668 -0.8710938
vn 0 0.4909668 -0.8710938
vn 0 0.4909668 -0.8710938
vn -1 0 0
vn -1 0 0
vn -1 0 0
vn -1 0 0
vn -1 0 0
vn -1 0 0
vn -1 0 0
vn -1 0 0
vn -1 0 0
vn -1 0 0
vn -1 0 0
vn -1 0 0
vn -1 0 0
vn -1 0 0
vn 1 0 0
vn 1 0 0
vn 1 0 0
vn 1 0 0
vn 1 0 0
vn 1 0 0
vn 1 0 0
vn 1 0 0
vn 1 0 0
g SM_Veh_Excavator_01_Glass_0
f 34/34/34 32/32/32 33/33/33
f 35/35/35 34/34/34 33/33/33
f 38/38/38 36/36/36 37/37/37
f 39/39/39 38/38/38 37/37/37
f 41/41/41 45/45/45 44/44/44
f 44/44/44 40/40/40 41/41/41
f 44/44/44 43/43/43 40/40/40
f 43/43/43 42/42/42 40/40/40
f 48/48/48 46/46/46 47/47/47
f 49/49/49 48/48/48 47/47/47
f 52/52/52 50/50/50 51/51/51
f 53/53/53 52/52/52 51/51/51
f 56/56/56 54/54/54 55/55/55
f 57/57/57 56/56/56 55/55/55
f 62/62/62 61/61/61 60/60/60
f 60/60/60 59/59/59 62/62/62
f 60/60/60 58/58/58 59/59/59
f 4/4/4 3/3/3 2/2/2
f 1/1/1 4/4/4 2/2/2
f 5/5/5 8/8/8 7/7/7
f 6/6/6 5/5/5 7/7/7
f 10/10/10 9/9/9 14/14/14
f 14/14/14 11/11/11 10/10/10
f 14/14/14 12/12/12 11/11/11
f 14/14/14 13/13/13 12/12/12
f 18/18/18 17/17/17 16/16/16
f 15/15/15 18/18/18 16/16/16
f 20/20/20 19/19/19 22/22/22
f 21/21/21 20/20/20 22/22/22
f 25/25/25 24/24/24 23/23/23
f 26/26/26 25/25/25 23/23/23
f 30/30/30 29/29/29 28/28/28
f 28/28/28 27/27/27 30/30/30
f 27/27/27 31/31/31 30/30/30
