g SO_Lightswitch
v -0.133563 -2.384186E-07 -0.06602716
v -0.133563 0.5064423 -0.06602716
v -0.133563 0.5064423 0.06603003
v -0.133563 -2.384186E-07 0.06603003
v -0.133563 0.5064423 -0.06602716
v 0.1335621 0.5064423 -0.06602716
v 0.1335621 0.5064423 0.06603003
v -0.133563 0.5064423 0.06603003
v 0.1335621 0.5064423 -0.06602716
v 0.1335621 -2.384186E-07 -0.06602716
v 0.1335621 -2.384186E-07 0.06603003
v 0.1335621 0.5064423 0.06603003
v 0.1335621 -2.384186E-07 -0.06602716
v -0.133563 -2.384186E-07 -0.06602716
v -0.133563 -2.384186E-07 0.06603003
v 0.1335621 -2.384186E-07 0.06603003
v -0.04292679 0.1718367 0.1475834
v -0.04292679 0.3346056 0.08322088
v 0.04292583 0.3346056 0.08322103
v 0.04292583 0.1718367 0.1475836
v 0.1335621 -2.384186E-07 -0.06602716
v 0.1335621 0.5064423 -0.06602716
v -0.133563 0.5064423 -0.06602716
v -0.133563 -2.384186E-07 -0.06602716
v -0.04292679 0.1718367 0.06602995
v -0.04292679 0.1718367 0.1475834
v 0.04292583 0.1718367 0.1475836
v 0.04292583 0.1718367 0.0660301
v 0.04292583 0.1718367 0.0660301
v 0.04292583 0.1718367 0.1475836
v 0.04292583 0.3346056 0.08322103
v 0.04292583 0.3346056 0.0660301
v 0.04292583 0.3346056 0.0660301
v 0.04292583 0.3346056 0.08322103
v -0.04292679 0.3346056 0.08322088
v -0.04292679 0.3346056 0.06602995
v -0.04292679 0.3346056 0.06602995
v -0.04292679 0.3346056 0.08322088
v -0.04292679 0.1718367 0.1475834
v -0.04292679 0.1718367 0.06602995
v -0.133563 -2.384186E-07 0.06603003
v -0.04292679 0.1718367 0.06602995
v 0.04292583 0.1718367 0.0660301
v 0.1335621 -2.384186E-07 0.06603003
v -0.133563 0.5064423 0.06603003
v 0.04292583 0.3346056 0.0660301
v -0.04292679 0.3346056 0.06602995
v 0.1335621 0.5064423 0.06603003
vt 0.3339343 0.4774403
vt 0.3339343 0.4774403
vt 0.3339342 0.4774403
vt 0.3339342 0.4774403
vt 0.392207 0.4774403
vt 0.392207 0.4774403
vt 0.3922069 0.4774403
vt 0.3922069 0.4774403
vt 0.3339343 0.4774403
vt 0.3339343 0.4774403
vt 0.3339342 0.4774403
vt 0.3339342 0.4774403
vt 0.2961082 0.4774403
vt 0.2961082 0.4774402
vt 0.2961081 0.4774402
vt 0.2961081 0.4774403
vt 0.3889075 0.4774403
vt 0.3889075 0.4774403
vt 0.3889074 0.4774403
vt 0.3889074 0.4774403
vt 0.3584701 0.4774403
vt 0.3584701 0.4774403
vt 0.3584702 0.4774403
vt 0.3584702 0.4774403
vt 0.3002044 0.4774403
vt 0.3002044 0.4774403
vt 0.3002043 0.4774403
vt 0.3002043 0.4774403
vt 0.3002043 0.4774403
vt 0.3002043 0.4774403
vt 0.3002043 0.4774403
vt 0.3002043 0.4774403
vt 0.3002043 0.4774403
vt 0.3002043 0.4774403
vt 0.3002044 0.4774403
vt 0.3002044 0.4774403
vt 0.3002044 0.4774403
vt 0.3002044 0.4774403
vt 0.3002044 0.4774403
vt 0.3002044 0.4774403
vt 0.3584701 0.4774403
vt 0.3584701 0.4774403
vt 0.3584701 0.4774403
vt 0.3584701 0.4774403
vt 0.3584701 0.4774403
vt 0.3584701 0.4774403
vt 0.3584701 0.4774403
vt 0.3584701 0.4774403
vn -1 0 0
vn -1 0 0
vn -1 0 0
vn -1 0 0
vn 0 1 0
vn 0 1 0
vn 0 1 0
vn 0 1 0
vn 1 0 0
vn 1 0 0
vn 1 0 0
vn 1 0 0
vn 0 -1 0
vn 0 -1 0
vn 0 -1 0
vn 0 -1 0
vn 0 0.3677183 0.9299372
vn 0 0.3677183 0.9299372
vn 0 0.3677183 0.9299372
vn 0 0.3677183 0.9299372
vn 0 0 -1
vn 0 0 -1
vn 0 0 -1
vn 0 0 -1
vn 0 -1 0
vn 0 -1 0
vn 0 -1 0
vn 0 -1 0
vn 1 0 0
vn 1 0 0
vn 1 0 0
vn 1 0 0
vn 0 1 0
vn 0 1 0
vn 0 1 0
vn 0 1 0
vn -1 0 0
vn -1 0 0
vn -1 0 0
vn -1 0 0
vn 0 0 1
vn 0 0 1
vn 0 0 1
vn 0 0 1
vn 0 0 1
vn 0 0 1
vn 0 0 1
vn 0 0 1
g SO_Lightswitch_0
f 3/3/3 2/2/2 1/1/1
f 4/4/4 3/3/3 1/1/1
f 7/7/7 6/6/6 5/5/5
f 8/8/8 7/7/7 5/5/5
f 11/11/11 10/10/10 9/9/9
f 12/12/12 11/11/11 9/9/9
f 15/15/15 14/14/14 13/13/13
f 16/16/16 15/15/15 13/13/13
f 19/19/19 18/18/18 17/17/17
f 20/20/20 19/19/19 17/17/17
f 23/23/23 22/22/22 21/21/21
f 24/24/24 23/23/23 21/21/21
f 27/27/27 26/26/26 25/25/25
f 28/28/28 27/27/27 25/25/25
f 31/31/31 30/30/30 29/29/29
f 32/32/32 31/31/31 29/29/29
f 35/35/35 34/34/34 33/33/33
f 36/36/36 35/35/35 33/33/33
f 39/39/39 38/38/38 37/37/37
f 40/40/40 39/39/39 37/37/37
f 43/43/43 42/42/42 41/41/41
f 44/44/44 43/43/43 41/41/41
f 41/41/41 42/42/42 45/45/45
f 46/46/46 43/43/43 44/44/44
f 42/42/42 47/47/47 45/45/45
f 48/48/48 46/46/46 44/44/44
f 45/45/45 47/47/47 48/48/48
f 47/47/47 46/46/46 48/48/48
