g SO_Magazines
v -0.178515 0.003753185 0.2673235
v -0.178515 0.0184446 0.2673235
v 0.1835895 0.0184446 0.2673235
v 0.1835895 0.003753185 0.2673235
v -0.1919303 0.0221979 0.2673244
v -0.1919303 0.0221979 -0.2666893
v 0.1835895 0.0221979 -0.2666883
v 0.1835895 0.0221979 0.2673235
v -0.178515 0.0184446 -0.2666883
v -0.178515 0.003753185 -0.2666883
v 0.1835895 0.003753185 -0.2666883
v 0.1835895 0.0184446 -0.2666883
v -0.1919303 0 -0.2666893
v -0.1919303 0 0.2673244
v 0.1835895 0 0.2673235
v 0.1835895 0 -0.2666883
v 0.1835895 0.003753185 0.2673235
v 0.1835895 0.0184446 0.2673235
v 0.1835895 0.0184446 -0.2666883
v 0.1835895 0.003753185 -0.2666883
v -0.1919303 0 -0.2666893
v -0.1919303 0.0221979 -0.2666893
v -0.1919303 0.0221979 0.2673244
v -0.1919303 0 0.2673244
v -0.1919303 0 0.2673244
v 0.1835895 0.003753185 0.2673235
v 0.1835895 0 0.2673235
v -0.178515 0.003753185 0.2673235
v -0.1919303 0.0221979 0.2673244
v -0.178515 0.0184446 0.2673235
v 0.1835895 0.0221979 0.2673235
v 0.1835895 0.0184446 0.2673235
v -0.1919303 0.0221979 -0.2666893
v 0.1835895 0.0184446 -0.2666883
v 0.1835895 0.0221979 -0.2666883
v -0.178515 0.0184446 -0.2666883
v -0.1919303 0 -0.2666893
v -0.178515 0.003753185 -0.2666883
v 0.1835895 0 -0.2666883
v 0.1835895 0.003753185 -0.2666883
v 0.1835895 0 0.2673235
v 0.1835895 0.003753185 0.2673235
v 0.1835895 0.003753185 -0.2666883
v 0.1835895 0 -0.2666883
v 0.1835895 0.0221979 -0.2666883
v 0.1835895 0.0184446 -0.2666883
v 0.1835895 0.0184446 0.2673235
v 0.1835895 0.0221979 0.2673235
v -0.1321912 0.02627492 0.2901831
v -0.1321912 0.04096633 0.2901831
v 0.2257972 0.04096633 0.2357435
v 0.2257972 0.02627492 0.2357435
v -0.1454549 0.04471958 0.2921991
v -0.2257371 0.04471958 -0.2357435
v 0.145515 0.04471958 -0.2921991
v 0.2257972 0.04471958 0.2357435
v -0.2124763 0.04096633 -0.2377605
v -0.2124763 0.02627492 -0.2377605
v 0.145515 0.02627492 -0.2921991
v 0.145515 0.04096633 -0.2921991
v -0.2257371 0.02252167 -0.2357435
v -0.1454549 0.02252167 0.2921991
v 0.2257972 0.02252167 0.2357435
v 0.145515 0.02252167 -0.2921991
v 0.2257972 0.02627492 0.2357435
v 0.2257972 0.04096633 0.2357435
v 0.145515 0.04096633 -0.2921991
v 0.145515 0.02627492 -0.2921991
v -0.2257371 0.02252167 -0.2357435
v -0.2257371 0.04471958 -0.2357435
v -0.1454549 0.04471958 0.2921991
v -0.1454549 0.02252167 0.2921991
v -0.1454549 0.02252167 0.2921991
v 0.2257972 0.02627492 0.2357435
v 0.2257972 0.02252167 0.2357435
v -0.1321912 0.02627492 0.2901831
v -0.1454549 0.04471958 0.2921991
v -0.1321912 0.04096633 0.2901831
v 0.2257972 0.04471958 0.2357435
v 0.2257972 0.04096633 0.2357435
v -0.2257371 0.04471958 -0.2357435
v 0.145515 0.04096633 -0.2921991
v 0.145515 0.04471958 -0.2921991
v -0.2124763 0.04096633 -0.2377605
v -0.2257371 0.02252167 -0.2357435
v -0.2124763 0.02627492 -0.2377605
v 0.145515 0.02252167 -0.2921991
v 0.145515 0.02627492 -0.2921991
v 0.2257972 0.02252167 0.2357435
v 0.2257972 0.02627492 0.2357435
v 0.145515 0.02627492 -0.2921991
v 0.145515 0.02252167 -0.2921991
v 0.145515 0.04471958 -0.2921991
v 0.145515 0.04096633 -0.2921991
v 0.2257972 0.04096633 0.2357435
v 0.2257972 0.04471958 0.2357435
v -0.2124772 0.04799241 0.2444029
v -0.2124772 0.062684 0.2444029
v 0.1470408 0.062684 0.2876272
v 0.1470408 0.04799241 0.2876272
v -0.1906257 0.06643718 0.209959
v -0.1356645 0.06643718 -0.2471552
v 0.1756148 0.06643718 -0.2097292
v 0.1206555 0.06643718 0.2473869
v -0.1487288 0.062684 -0.2857914
v -0.1487288 0.04799241 -0.2857914
v 0.2107873 0.04799241 -0.2425652
v 0.2107873 0.062684 -0.2425652
v -0.1620498 0.04423904 -0.2873936
v -0.2257972 0.04423904 0.2428017
v 0.1470408 0.04423904 0.2876272
v 0.2107873 0.04423904 -0.2425652
v 0.1470408 0.04799241 0.2876272
v 0.1470408 0.062684 0.2876272
v 0.2107873 0.062684 -0.2425652
v 0.2107873 0.04799241 -0.2425652
v -0.1620498 0.04423904 -0.2873936
v -0.1620498 0.06643718 -0.2873936
v -0.2257972 0.06643718 0.2428017
v -0.2257972 0.04423904 0.2428017
v -0.2257972 0.04423904 0.2428017
v 0.1470408 0.04799241 0.2876272
v 0.1470408 0.04423904 0.2876272
v -0.2124772 0.04799241 0.2444029
v -0.2257972 0.06643718 0.2428017
v -0.2124772 0.062684 0.2444029
v 0.1470408 0.06643718 0.2876272
v 0.1470408 0.062684 0.2876272
v -0.1620498 0.06643718 -0.2873936
v 0.2107873 0.062684 -0.2425652
v 0.2107873 0.06643718 -0.2425652
v -0.1487288 0.062684 -0.2857914
v -0.1620498 0.04423904 -0.2873936
v -0.1487288 0.04799241 -0.2857914
v 0.2107873 0.04423904 -0.2425652
v 0.2107873 0.04799241 -0.2425652
v 0.1470408 0.04423904 0.2876272
v 0.1470408 0.04799241 0.2876272
v 0.2107873 0.04799241 -0.2425652
v 0.2107873 0.04423904 -0.2425652
v 0.2107873 0.06643718 -0.2425652
v 0.2107873 0.062684 -0.2425652
v 0.1470408 0.062684 0.2876272
v 0.1470408 0.06643718 0.2876272
v -0.2257972 0.06643718 0.2428017
v -0.1906257 0.06643718 0.209959
v 0.1206555 0.06643718 0.2473869
v 0.1470408 0.06643718 0.2876272
v -0.1620498 0.06643718 -0.2873936
v 0.1756148 0.06643718 -0.2097292
v -0.1356645 0.06643718 -0.2471552
v 0.2107873 0.06643718 -0.2425652
vt 0.3305519 0.4713436
vt 0.3305519 0.4713436
vt 0.3305519 0.4713436
vt 0.3305519 0.4713436
vt 0.264278 0.1961215
vt 0.264278 0.1961215
vt 0.2642779 0.1961215
vt 0.2642779 0.1961215
vt 0.3305519 0.4713436
vt 0.3305519 0.4713436
vt 0.3305519 0.4713436
vt 0.3305519 0.4713436
vt 0.1681791 0.1961215
vt 0.1681791 0.1961215
vt 0.1681791 0.1961215
vt 0.1681791 0.1961215
vt 0.3550878 0.4713436
vt 0.3550878 0.4713436
vt 0.3550877 0.4713436
vt 0.3550877 0.4713436
vt 0.2305411 0.1961215
vt 0.2305411 0.1961215
vt 0.2305411 0.1961215
vt 0.2305411 0.1961215
vt 0.2060052 0.1961215
vt 0.2060052 0.1961215
vt 0.2060052 0.1961215
vt 0.2060052 0.1961215
vt 0.2060052 0.1961215
vt 0.2060052 0.1961215
vt 0.2060052 0.1961215
vt 0.2060052 0.1961215
vt 0.2060052 0.1961215
vt 0.2060052 0.1961215
vt 0.2060052 0.1961215
vt 0.2060052 0.1961215
vt 0.2060052 0.1961215
vt 0.2060052 0.1961215
vt 0.2060052 0.1961215
vt 0.2060052 0.1961215
vt 0.2305411 0.1961215
vt 0.2305411 0.1961215
vt 0.230541 0.1961215
vt 0.230541 0.1961215
vt 0.230541 0.1961215
vt 0.230541 0.1961215
vt 0.2305411 0.1961215
vt 0.2305411 0.1961215
vt 0.3305519 0.4713436
vt 0.3305519 0.4713436
vt 0.3305519 0.4713436
vt 0.3305519 0.4713436
vt 0.264278 0.1813153
vt 0.264278 0.1813153
vt 0.2642779 0.1813153
vt 0.2642779 0.1813153
vt 0.3305519 0.4713436
vt 0.3305519 0.4713436
vt 0.3305519 0.4713436
vt 0.3305519 0.4713436
vt 0.1681791 0.1813153
vt 0.1681791 0.1813152
vt 0.1681791 0.1813152
vt 0.1681791 0.1813153
vt 0.3550878 0.4713436
vt 0.3550878 0.4713436
vt 0.3550877 0.4713436
vt 0.3550877 0.4713436
vt 0.2305411 0.1813153
vt 0.2305411 0.1813153
vt 0.2305411 0.1813153
vt 0.2305411 0.1813153
vt 0.2060052 0.1813153
vt 0.2060052 0.1813153
vt 0.2060052 0.1813153
vt 0.2060052 0.1813153
vt 0.2060052 0.1813153
vt 0.2060052 0.1813153
vt 0.2060052 0.1813153
vt 0.2060052 0.1813153
vt 0.2060052 0.1813153
vt 0.2060052 0.1813153
vt 0.2060052 0.1813153
vt 0.2060052 0.1813153
vt 0.2060052 0.1813153
vt 0.2060052 0.1813153
vt 0.2060052 0.1813153
vt 0.2060052 0.1813153
vt 0.2305411 0.1813153
vt 0.2305411 0.1813153
vt 0.230541 0.1813153
vt 0.230541 0.1813153
vt 0.230541 0.1813153
vt 0.230541 0.1813153
vt 0.2305411 0.1813153
vt 0.2305411 0.1813153
vt 0.3305519 0.4713436
vt 0.3305519 0.4713436
vt 0.3305519 0.4713436
vt 0.3305519 0.4713436
vt 0.8795543 0.7438053
vt 0.8795543 0.8923913
vt 0.9981114 0.8923913
vt 0.9981114 0.7438053
vt 0.3305519 0.4713436
vt 0.3305519 0.4713436
vt 0.3305519 0.4713436
vt 0.3305519 0.4713436
vt 0.1681791 0.3572484
vt 0.1681791 0.3572483
vt 0.1681791 0.3572483
vt 0.1681791 0.3572484
vt 0.3550878 0.4713436
vt 0.3550878 0.4713436
vt 0.3550877 0.4713436
vt 0.3550877 0.4713436
vt 0.2305411 0.3572484
vt 0.2305411 0.3572484
vt 0.2305411 0.3572484
vt 0.2305411 0.3572484
vt 0.2060052 0.3572484
vt 0.2060052 0.3572484
vt 0.2060052 0.3572484
vt 0.2060052 0.3572484
vt 0.2060052 0.3572484
vt 0.2060052 0.3572484
vt 0.2060052 0.3572484
vt 0.2060052 0.3572484
vt 0.2060052 0.3572484
vt 0.2060052 0.3572484
vt 0.2060052 0.3572484
vt 0.2060052 0.3572484
vt 0.2060052 0.3572484
vt 0.2060052 0.3572484
vt 0.2060052 0.3572484
vt 0.2060052 0.3572484
vt 0.2305411 0.3572484
vt 0.2305411 0.3572484
vt 0.230541 0.3572484
vt 0.230541 0.3572484
vt 0.230541 0.3572484
vt 0.230541 0.3572484
vt 0.2305411 0.3572484
vt 0.2305411 0.3572484
vt 0.264278 0.3572484
vt 0.264278 0.3572484
vt 0.2642779 0.3572484
vt 0.2642779 0.3572484
vt 0.264278 0.3572484
vt 0.2642779 0.3572484
vt 0.264278 0.3572484
vt 0.2642779 0.3572484
vn 0 0 1
vn 0 0 1
vn 0 0 1
vn 0 0 1
vn 0 1 0
vn 0 1 0
vn 0 1 0
vn 0 1 0
vn 0 0 -1
vn 0 0 -1
vn 0 0 -1
vn 0 0 -1
vn 0 -1 0
vn 0 -1 0
vn 0 -1 0
vn 0 -1 0
vn 1 0 0
vn 1 0 0
vn 1 0 0
vn 1 0 0
vn -1 0 0
vn -1 0 0
vn -1 0 0
vn -1 0 0
vn 0 0 1
vn 0 0 1
vn 0 0 1
vn 0 0 1
vn 0 0 1
vn 0 0 1
vn 0 0 1
vn 0 0 1
vn 0 0 -1
vn 0 0 -1
vn 0 0 -1
vn 0 0 -1
vn 0 0 -1
vn 0 0 -1
vn 0 0 -1
vn 0 0 -1
vn 1 0 0
vn 1 0 0
vn 1 0 0
vn 1 0 0
vn 1 0 0
vn 1 0 0
vn 1 0 0
vn 1 0 0
vn 0.1503187 0 0.9886376
vn 0.1503187 0 0.9886376
vn 0.1503417 0 0.9886341
vn 0.1503417 0 0.9886341
vn 0 1 0
vn 0 1 0
vn 0 1 0
vn 0 1 0
vn -0.1503506 0 -0.9886327
vn -0.1503506 0 -0.9886327
vn -0.1503388 0 -0.9886345
vn -0.1503388 0 -0.9886345
vn 0 -1 0
vn 0 -1 0
vn 0 -1 0
vn 0 -1 0
vn 0.9886347 0 -0.1503379
vn 0.9886347 0 -0.1503379
vn 0.9886347 0 -0.1503379
vn 0.9886347 0 -0.1503379
vn -0.9886347 0 0.1503379
vn -0.9886347 0 0.1503379
vn -0.9886347 0 0.1503379
vn -0.9886347 0 0.1503379
vn 0.1503069 0 0.9886394
vn 0.1503417 0 0.9886341
vn 0.150341 0 0.9886342
vn 0.1503187 0 0.9886376
vn 0.1503069 0 0.9886394
vn 0.1503187 0 0.9886376
vn 0.150341 0 0.9886342
vn 0.1503417 0 0.9886341
vn -0.1503566 0 -0.9886318
vn -0.1503388 0 -0.9886345
vn -0.1503392 0 -0.9886345
vn -0.1503506 0 -0.9886327
vn -0.1503566 0 -0.9886318
vn -0.1503506 0 -0.9886327
vn -0.1503392 0 -0.9886345
vn -0.1503388 0 -0.9886345
vn 0.9886347 0 -0.1503379
vn 0.9886347 0 -0.1503379
vn 0.9886347 0 -0.1503379
vn 0.9886347 0 -0.1503379
vn 0.9886347 0 -0.1503379
vn 0.9886347 0 -0.1503379
vn 0.9886347 0 -0.1503379
vn 0.9886347 0 -0.1503379
vn -0.1193634 0 0.9928507
vn -0.1193634 0 0.9928507
vn -0.1193688 0 0.9928501
vn -0.1193688 0 0.9928501
vn 0 1 0
vn 0 1 0
vn 0 1 0
vn 0 1 0
vn 0.1193882 0 -0.9928477
vn 0.1193882 0 -0.9928477
vn 0.1193751 0 -0.9928492
vn 0.1193751 0 -0.9928492
vn 0 -1 0
vn 0 -1 0
vn 0 -1 0
vn 0 -1 0
vn 0.9928495 0 0.119373
vn 0.9928495 0 0.119373
vn 0.9928495 0 0.119373
vn 0.9928495 0 0.119373
vn -0.9928493 0 -0.1193741
vn -0.9928493 0 -0.1193741
vn -0.9928493 0 -0.1193741
vn -0.9928493 0 -0.1193741
vn -0.1193606 0 0.992851
vn -0.1193688 0 0.9928501
vn -0.1193686 0 0.9928501
vn -0.1193634 0 0.9928507
vn -0.1193606 0 0.992851
vn -0.1193634 0 0.9928507
vn -0.1193686 0 0.9928501
vn -0.1193688 0 0.9928501
vn 0.1193949 0 -0.9928469
vn 0.1193751 0 -0.9928492
vn 0.1193755 0 -0.9928492
vn 0.1193882 0 -0.9928477
vn 0.1193949 0 -0.9928469
vn 0.1193882 0 -0.9928477
vn 0.1193754 0 -0.9928492
vn 0.1193751 0 -0.9928492
vn 0.9928495 0 0.119373
vn 0.9928495 0 0.119373
vn 0.9928495 0 0.119373
vn 0.9928495 0 0.119373
vn 0.9928495 0 0.119373
vn 0.9928495 0 0.119373
vn 0.9928495 0 0.119373
vn 0.9928495 0 0.119373
vn 0 1 0
vn 0 1 0
vn 0 1 0
vn 0 1 0
vn 0 1 0
vn 0 1 0
vn 0 1 0
vn 0 1 0
g SO_Magazines_0
f 3/3/3 2/2/2 1/1/1
f 4/4/4 3/3/3 1/1/1
f 7/7/7 6/6/6 5/5/5
f 8/8/8 7/7/7 5/5/5
f 11/11/11 10/10/10 9/9/9
f 12/12/12 11/11/11 9/9/9
f 15/15/15 14/14/14 13/13/13
f 16/16/16 15/15/15 13/13/13
f 19/19/19 18/18/18 17/17/17
f 20/20/20 19/19/19 17/17/17
f 23/23/23 22/22/22 21/21/21
f 24/24/24 23/23/23 21/21/21
f 27/27/27 26/26/26 25/25/25
f 26/26/26 28/28/28 25/25/25
f 25/25/25 28/28/28 29/29/29
f 28/28/28 30/30/30 29/29/29
f 29/29/29 30/30/30 31/31/31
f 30/30/30 32/32/32 31/31/31
f 35/35/35 34/34/34 33/33/33
f 34/34/34 36/36/36 33/33/33
f 33/33/33 36/36/36 37/37/37
f 36/36/36 38/38/38 37/37/37
f 37/37/37 38/38/38 39/39/39
f 38/38/38 40/40/40 39/39/39
f 43/43/43 42/42/42 41/41/41
f 44/44/44 43/43/43 41/41/41
f 47/47/47 46/46/46 45/45/45
f 48/48/48 47/47/47 45/45/45
f 51/51/51 50/50/50 49/49/49
f 52/52/52 51/51/51 49/49/49
f 55/55/55 54/54/54 53/53/53
f 56/56/56 55/55/55 53/53/53
f 59/59/59 58/58/58 57/57/57
f 60/60/60 59/59/59 57/57/57
f 63/63/63 62/62/62 61/61/61
f 64/64/64 63/63/63 61/61/61
f 67/67/67 66/66/66 65/65/65
f 68/68/68 67/67/67 65/65/65
f 71/71/71 70/70/70 69/69/69
f 72/72/72 71/71/71 69/69/69
f 75/75/75 74/74/74 73/73/73
f 74/74/74 76/76/76 73/73/73
f 73/73/73 76/76/76 77/77/77
f 76/76/76 78/78/78 77/77/77
f 77/77/77 78/78/78 79/79/79
f 78/78/78 80/80/80 79/79/79
f 83/83/83 82/82/82 81/81/81
f 82/82/82 84/84/84 81/81/81
f 81/81/81 84/84/84 85/85/85
f 84/84/84 86/86/86 85/85/85
f 85/85/85 86/86/86 87/87/87
f 86/86/86 88/88/88 87/87/87
f 91/91/91 90/90/90 89/89/89
f 92/92/92 91/91/91 89/89/89
f 95/95/95 94/94/94 93/93/93
f 96/96/96 95/95/95 93/93/93
f 99/99/99 98/98/98 97/97/97
f 100/100/100 99/99/99 97/97/97
f 103/103/103 102/102/102 101/101/101
f 104/104/104 103/103/103 101/101/101
f 107/107/107 106/106/106 105/105/105
f 108/108/108 107/107/107 105/105/105
f 111/111/111 110/110/110 109/109/109
f 112/112/112 111/111/111 109/109/109
f 115/115/115 114/114/114 113/113/113
f 116/116/116 115/115/115 113/113/113
f 119/119/119 118/118/118 117/117/117
f 120/120/120 119/119/119 117/117/117
f 123/123/123 122/122/122 121/121/121
f 122/122/122 124/124/124 121/121/121
f 121/121/121 124/124/124 125/125/125
f 124/124/124 126/126/126 125/125/125
f 125/125/125 126/126/126 127/127/127
f 126/126/126 128/128/128 127/127/127
f 131/131/131 130/130/130 129/129/129
f 130/130/130 132/132/132 129/129/129
f 129/129/129 132/132/132 133/133/133
f 132/132/132 134/134/134 133/133/133
f 133/133/133 134/134/134 135/135/135
f 134/134/134 136/136/136 135/135/135
f 139/139/139 138/138/138 137/137/137
f 140/140/140 139/139/139 137/137/137
f 143/143/143 142/142/142 141/141/141
f 144/144/144 143/143/143 141/141/141
f 147/147/147 146/146/146 145/145/145
f 148/148/148 147/147/147 145/145/145
f 145/145/145 146/146/146 149/149/149
f 150/150/150 147/147/147 148/148/148
f 146/146/146 151/151/151 149/149/149
f 152/152/152 150/150/150 148/148/148
f 149/149/149 151/151/151 152/152/152
f 151/151/151 150/150/150 152/152/152
