g SO_Rug_02
v -2.397158 0 -1.563224
v -2.397158 0.1012474 -1.563224
v -2.397158 0.1012474 1.563224
v -2.397158 0 1.563224
v -1.503803 0.1012474 -0.6158566
v 1.503798 0.1012474 -0.6158528
v 1.503798 0.1012474 0.6158519
v -1.503802 0.1012474 0.6158519
v 2.397158 0.1012474 -1.563224
v 2.397158 0 -1.563224
v 2.397158 0 1.563224
v 2.397158 0.1012474 1.563224
v 2.397158 0 -1.563224
v -2.397158 0 -1.563224
v -2.397158 0 1.563224
v 2.397158 0 1.563224
v -2.397158 0 1.563224
v -2.397158 0.1012474 1.563224
v 2.397158 0.1012474 1.563224
v 2.397158 0 1.563224
v 2.397158 0 -1.563224
v 2.397158 0.1012474 -1.563224
v -2.397158 0.1012474 -1.563224
v -2.397158 0 -1.563224
v -2.397158 0.1012474 -1.563224
v -2.223592 0.1012474 -1.372982
v -2.223592 0.1012474 1.372982
v -2.397158 0.1012474 1.563224
v 2.397158 0.1012474 -1.563224
v 2.223588 0.1012474 1.372981
v 2.223588 0.1012474 -1.372983
v 2.397158 0.1012474 1.563224
v -2.223592 0.1012474 -1.372982
v -1.846393 0.1012474 -0.9509602
v -1.846393 0.1012474 0.9509583
v -2.223592 0.1012474 1.372982
v 2.223588 0.1012474 -1.372983
v 1.846389 0.1012474 0.9509573
v 1.846389 0.1012474 -0.9509592
v 2.223588 0.1012474 1.372981
v -1.846393 0.1012474 -0.9509602
v -1.503803 0.1012474 -0.6158566
v -1.503802 0.1012474 0.6158519
v -1.846393 0.1012474 0.9509583
v 1.846389 0.1012474 -0.9509592
v 1.503798 0.1012474 0.6158519
v 1.503798 0.1012474 -0.6158528
v 1.846389 0.1012474 0.9509573
vt 0.1719722 0.110813
vt 0.1719722 0.110813
vt 0.1719722 0.110813
vt 0.1719722 0.110813
vt 0.2037284 0.1105544
vt 0.2037284 0.1105544
vt 0.2037284 0.1105544
vt 0.2037284 0.1105544
vt 0.1719722 0.110813
vt 0.1719722 0.110813
vt 0.1719722 0.110813
vt 0.1719722 0.110813
vt 0.1090624 0.1110313
vt 0.1090624 0.1110313
vt 0.1090624 0.1110313
vt 0.1090624 0.1110313
vt 0.1719722 0.110813
vt 0.1719722 0.110813
vt 0.1719722 0.110813
vt 0.1719722 0.110813
vt 0.1719722 0.110813
vt 0.1719722 0.110813
vt 0.1719722 0.110813
vt 0.1719722 0.110813
vt 0.2677908 0.110813
vt 0.2677908 0.110813
vt 0.2677908 0.110813
vt 0.2677908 0.110813
vt 0.2677908 0.110813
vt 0.2677908 0.110813
vt 0.2677908 0.110813
vt 0.2677908 0.110813
vt 0.1420791 0.1105544
vt 0.1420791 0.1105544
vt 0.1420791 0.1105544
vt 0.1420791 0.1105544
vt 0.1420791 0.1105544
vt 0.1420791 0.1105544
vt 0.1420791 0.1105544
vt 0.1420791 0.1105544
vt 0.2677908 0.110813
vt 0.2677908 0.110813
vt 0.2677908 0.110813
vt 0.2677908 0.110813
vt 0.2677908 0.110813
vt 0.2677908 0.110813
vt 0.2677908 0.110813
vt 0.2677908 0.110813
vn -1 0 0
vn -1 0 0
vn -1 0 0
vn -1 0 0
vn 0 1 0
vn 0 1 0
vn 0 1 0
vn 0 1 0
vn 1 0 0
vn 1 0 0
vn 1 0 0
vn 1 0 0
vn 0 -1 0
vn 0 -1 0
vn 0 -1 0
vn 0 -1 0
vn 0 0 1
vn 0 0 1
vn 0 0 1
vn 0 0 1
vn 0 0 -1
vn 0 0 -1
vn 0 0 -1
vn 0 0 -1
vn 0 1 0
vn 0 1 0
vn 0 1 0
vn 0 1 0
vn 0 1 0
vn 0 1 0
vn 0 1 0
vn 0 1 0
vn 0 1 0
vn 0 1 0
vn 0 1 0
vn 0 1 0
vn 0 1 0
vn 0 1 0
vn 0 1 0
vn 0 1 0
vn 0 1 0
vn 0 1 0
vn 0 1 0
vn 0 1 0
vn 0 1 0
vn 0 1 0
vn 0 1 0
vn 0 1 0
g SO_Rug_02_0
f 3/3/3 2/2/2 1/1/1
f 4/4/4 3/3/3 1/1/1
f 7/7/7 6/6/6 5/5/5
f 8/8/8 7/7/7 5/5/5
f 11/11/11 10/10/10 9/9/9
f 12/12/12 11/11/11 9/9/9
f 15/15/15 14/14/14 13/13/13
f 16/16/16 15/15/15 13/13/13
f 19/19/19 18/18/18 17/17/17
f 20/20/20 19/19/19 17/17/17
f 23/23/23 22/22/22 21/21/21
f 24/24/24 23/23/23 21/21/21
f 27/27/27 26/26/26 25/25/25
f 28/28/28 27/27/27 25/25/25
f 25/25/25 26/26/26 29/29/29
f 30/30/30 27/27/27 28/28/28
f 26/26/26 31/31/31 29/29/29
f 32/32/32 30/30/30 28/28/28
f 29/29/29 31/31/31 32/32/32
f 31/31/31 30/30/30 32/32/32
f 35/35/35 34/34/34 33/33/33
f 36/36/36 35/35/35 33/33/33
f 33/33/33 34/34/34 37/37/37
f 38/38/38 35/35/35 36/36/36
f 34/34/34 39/39/39 37/37/37
f 40/40/40 38/38/38 36/36/36
f 37/37/37 39/39/39 40/40/40
f 39/39/39 38/38/38 40/40/40
f 43/43/43 42/42/42 41/41/41
f 44/44/44 43/43/43 41/41/41
f 41/41/41 42/42/42 45/45/45
f 46/46/46 43/43/43 44/44/44
f 42/42/42 47/47/47 45/45/45
f 48/48/48 46/46/46 44/44/44
f 45/45/45 47/47/47 48/48/48
f 47/47/47 46/46/46 48/48/48
