g SO_StickyNotesPack_02
v -0.09748399 0.05297112 -0.04912329
v -0.09748399 0.05297112 -0.09497905
v -0.09748399 0.06212711 -0.09497905
v -0.09748399 0.06212711 -0.04912329
v -0.09748399 0.08908844 0.09497905
v -0.09748399 0.09759641 0.0915966
v -0.09748399 0.05297112 -0.09497905
v 0.09748399 0.05297112 -0.09497905
v 0.09748399 0.06212711 -0.09497905
v -0.09748399 0.06212711 -0.09497905
v 0.09748399 0.05297112 -0.09497905
v 0.09748399 0.06212711 -0.04912329
v 0.09748399 0.06212711 -0.09497905
v 0.09748399 0.05297112 -0.04912329
v 0.09748399 0.09759641 0.0915966
v 0.09748399 0.08908844 0.09497905
v 0.09748399 0.08908844 0.09497905
v -0.09748399 0.08908844 0.09497905
v -0.09748399 0.09759641 0.0915966
v 0.09748399 0.09759641 0.0915966
v -0.09748399 0.06212711 -0.04912329
v -0.09748399 0.06212711 -0.09497905
v 0.09748399 0.06212711 -0.09497905
v 0.09748399 0.06212711 -0.04912329
v 0.09748399 0.05297112 -0.04912329
v 0.09748399 0.05297112 -0.09497905
v -0.09748399 0.05297112 -0.09497905
v -0.09748399 0.05297112 -0.04912329
v -0.09748399 0.09759641 0.0915966
v -0.09748399 0.06212711 -0.04912329
v 0.09748399 0.06212711 -0.04912329
v 0.09748399 0.09759641 0.0915966
v 0.09748399 0.08908844 0.09497905
v 0.09748399 0.05297112 -0.04912329
v -0.09748399 0.05297112 -0.04912329
v -0.09748399 0.08908844 0.09497905
v -0.09748399 0 0.09328794
v -0.09748399 0 -0.09497905
v -0.09748399 0.05335224 -0.09497905
v -0.09748399 0.05335224 0.09328794
v -0.09748399 0 -0.09497905
v 0.09748399 0 -0.09497905
v 0.09748399 0.05335224 -0.09497905
v -0.09748399 0.05335224 -0.09497905
v 0.09748399 0 -0.09497905
v 0.09748399 0 0.09328794
v 0.09748399 0.05335224 0.09328794
v 0.09748399 0.05335224 -0.09497905
v 0.09748399 0 0.09328794
v -0.09748399 0 0.09328794
v -0.09748399 0.05335224 0.09328794
v 0.09748399 0.05335224 0.09328794
v -0.09748399 0.05335224 0.09328794
v -0.09748399 0.05335224 -0.09497905
v 0.09748399 0.05335224 -0.09497905
v 0.09748399 0.05335224 0.09328794
v 0.09748399 0 0.09328794
v 0.09748399 0 -0.09497905
v -0.09748399 0 -0.09497905
v -0.09748399 0 0.09328794
vt 0.2377157 0.1534732
vt 0.2377158 0.1534732
vt 0.2377157 0.1534732
vt 0.2377157 0.1534732
vt 0.2377158 0.1534732
vt 0.2377157 0.1534732
vt 0.2103601 0.1534732
vt 0.2103601 0.1534732
vt 0.2103601 0.1534732
vt 0.2103601 0.1534732
vt 0.2377158 0.1534732
vt 0.2377157 0.1534732
vt 0.2377157 0.1534732
vt 0.2377157 0.1534732
vt 0.2377157 0.1534732
vt 0.2377158 0.1534732
vt 0.1998896 0.1534732
vt 0.1998896 0.1534732
vt 0.1998896 0.1534732
vt 0.1998896 0.1534732
vt 0.2674728 0.1534732
vt 0.2674728 0.1534732
vt 0.2674727 0.1534732
vt 0.2674727 0.1534732
vt 0.289402 0.1534732
vt 0.289402 0.1534732
vt 0.2894021 0.1534732
vt 0.2894021 0.1534732
vt 0.289402 0.1534732
vt 0.289402 0.1534732
vt 0.2894019 0.1534732
vt 0.2894019 0.1534732
vt 0.289402 0.1534732
vt 0.289402 0.1534732
vt 0.2894021 0.1534732
vt 0.2894021 0.1534732
vt 0.2377158 0.1534732
vt 0.2377158 0.1534732
vt 0.2377157 0.1534732
vt 0.2377157 0.1534732
vt 0.2103601 0.1534732
vt 0.2103601 0.1534732
vt 0.2103601 0.1534732
vt 0.2103601 0.1534732
vt 0.2377158 0.1534732
vt 0.2377158 0.1534732
vt 0.2377157 0.1534732
vt 0.2377157 0.1534732
vt 0.1998896 0.1534732
vt 0.1998896 0.1534732
vt 0.1998896 0.1534732
vt 0.1998896 0.1534732
vt 0.289402 0.1534732
vt 0.289402 0.1534732
vt 0.2894019 0.1534732
vt 0.2894019 0.1534732
vt 0.289402 0.1534732
vt 0.289402 0.1534732
vt 0.2894021 0.1534732
vt 0.2894021 0.1534732
vn -1 0 0
vn -1 0 0
vn -1 0 0
vn -1 0 0
vn -1 0 0
vn -1 0 0
vn 0 0 -1
vn 0 0 -1
vn 0 0 -1
vn 0 0 -1
vn 1 0 0
vn 1 0 0
vn 1 0 0
vn 1 0 0
vn 1 0 0
vn 1 0 0
vn 0 0.3694368 0.9292558
vn 0 0.3694368 0.9292558
vn 0 0.3694368 0.9292558
vn 0 0.3694368 0.9292558
vn 0 1 0
vn 0 1 0
vn 0 1 0
vn 0 1 0
vn 0 -1 0
vn 0 -1 0
vn 0 -1 0
vn 0 -1 0
vn 0 0.9696717 -0.2444116
vn 0 0.9696717 -0.2444116
vn 0 0.9696717 -0.2444116
vn 0 0.9696717 -0.2444116
vn 0 -0.969997 0.2431167
vn 0 -0.969997 0.2431167
vn 0 -0.969997 0.2431167
vn 0 -0.969997 0.2431167
vn -1 0 0
vn -1 0 0
vn -1 0 0
vn -1 0 0
vn 0 0 -1
vn 0 0 -1
vn 0 0 -1
vn 0 0 -1
vn 1 0 0
vn 1 0 0
vn 1 0 0
vn 1 0 0
vn 0 0 1
vn 0 0 1
vn 0 0 1
vn 0 0 1
vn 0 1 0
vn 0 1 0
vn 0 1 0
vn 0 1 0
vn 0 -1 0
vn 0 -1 0
vn 0 -1 0
vn 0 -1 0
g SO_StickyNotesPack_02_0
f 3/3/3 2/2/2 1/1/1
f 4/4/4 3/3/3 1/1/1
f 4/4/4 1/1/1 5/5/5
f 6/6/6 4/4/4 5/5/5
f 9/9/9 8/8/8 7/7/7
f 10/10/10 9/9/9 7/7/7
f 13/13/13 12/12/12 11/11/11
f 12/12/12 14/14/14 11/11/11
f 12/12/12 15/15/15 14/14/14
f 15/15/15 16/16/16 14/14/14
f 19/19/19 18/18/18 17/17/17
f 20/20/20 19/19/19 17/17/17
f 23/23/23 22/22/22 21/21/21
f 24/24/24 23/23/23 21/21/21
f 27/27/27 26/26/26 25/25/25
f 28/28/28 27/27/27 25/25/25
f 31/31/31 30/30/30 29/29/29
f 32/32/32 31/31/31 29/29/29
f 35/35/35 34/34/34 33/33/33
f 36/36/36 35/35/35 33/33/33
f 39/39/39 38/38/38 37/37/37
f 40/40/40 39/39/39 37/37/37
f 43/43/43 42/42/42 41/41/41
f 44/44/44 43/43/43 41/41/41
f 47/47/47 46/46/46 45/45/45
f 48/48/48 47/47/47 45/45/45
f 51/51/51 50/50/50 49/49/49
f 52/52/52 51/51/51 49/49/49
f 55/55/55 54/54/54 53/53/53
f 56/56/56 55/55/55 53/53/53
f 59/59/59 58/58/58 57/57/57
f 60/60/60 59/59/59 57/57/57
